%TF.GenerationSoftware,KiCad,Pcbnew,(6.0.11)*%
%TF.CreationDate,2023-02-05T23:01:42+01:00*%
%TF.ProjectId,epaper-breakout,65706170-6572-42d6-9272-65616b6f7574,rev?*%
%TF.SameCoordinates,Original*%
%TF.FileFunction,Drillmap*%
%TF.FilePolarity,Positive*%
%FSLAX45Y45*%
G04 Gerber Fmt 4.5, Leading zero omitted, Abs format (unit mm)*
G04 Created by KiCad (PCBNEW (6.0.11)) date 2023-02-05 23:01:42*
%MOMM*%
%LPD*%
G01*
G04 APERTURE LIST*
%ADD10C,0.050000*%
%ADD11C,0.200000*%
%ADD12C,0.025400*%
%ADD13C,0.040000*%
%ADD14C,0.060000*%
%ADD15C,0.100000*%
G04 APERTURE END LIST*
D10*
X2500000Y-6250000D02*
X2500000Y-1150000D01*
X2700000Y-6450000D02*
X8130000Y-6448579D01*
X12500000Y-1150000D02*
X12500000Y-6250000D01*
X2700000Y-950000D02*
X12300000Y-950000D01*
X2700000Y-950000D02*
G75*
G03*
X2500000Y-1150000I0J-200000D01*
G01*
X8530000Y-5760000D02*
G75*
G03*
X8330000Y-5960000I0J-200000D01*
G01*
X8330000Y-6248579D02*
X8330000Y-5960000D01*
X8130000Y-6448580D02*
G75*
G03*
X8330000Y-6248579I0J200000D01*
G01*
X11066621Y-6248579D02*
G75*
G03*
X11266621Y-6448579I199999J-1D01*
G01*
X8870000Y-5760000D02*
X8530000Y-5760000D01*
X12500000Y-1150000D02*
G75*
G03*
X12300000Y-950000I-200000J0D01*
G01*
X2500000Y-6250000D02*
G75*
G03*
X2700000Y-6450000I200000J0D01*
G01*
X11066621Y-6248579D02*
X11068579Y-5961421D01*
X12300000Y-6450000D02*
G75*
G03*
X12500000Y-6250000I0J200000D01*
G01*
X11266621Y-6448579D02*
X12300000Y-6450000D01*
X11068579Y-5961421D02*
G75*
G03*
X10868579Y-5761421I-199999J1D01*
G01*
X10868579Y-5761421D02*
X8870000Y-5760000D01*
D11*
D12*
X6332220Y-4452620D02*
X6357620Y-4478020D01*
X6357620Y-4452620D02*
X6332220Y-4478020D01*
X6332220Y-4531360D02*
X6357620Y-4556760D01*
X6357620Y-4531360D02*
X6332220Y-4556760D01*
X6332220Y-4610100D02*
X6357620Y-4635500D01*
X6357620Y-4610100D02*
X6332220Y-4635500D01*
X6332220Y-4688840D02*
X6357620Y-4714240D01*
X6357620Y-4688840D02*
X6332220Y-4714240D01*
X6332220Y-4767580D02*
X6357620Y-4792980D01*
X6357620Y-4767580D02*
X6332220Y-4792980D01*
X6410960Y-4452620D02*
X6436360Y-4478020D01*
X6436360Y-4452620D02*
X6410960Y-4478020D01*
X6410960Y-4531360D02*
X6436360Y-4556760D01*
X6436360Y-4531360D02*
X6410960Y-4556760D01*
X6410960Y-4610100D02*
X6436360Y-4635500D01*
X6436360Y-4610100D02*
X6410960Y-4635500D01*
X6410960Y-4688840D02*
X6436360Y-4714240D01*
X6436360Y-4688840D02*
X6410960Y-4714240D01*
X6410960Y-4767580D02*
X6436360Y-4792980D01*
X6436360Y-4767580D02*
X6410960Y-4792980D01*
X6489700Y-4452620D02*
X6515100Y-4478020D01*
X6515100Y-4452620D02*
X6489700Y-4478020D01*
X6489700Y-4531360D02*
X6515100Y-4556760D01*
X6515100Y-4531360D02*
X6489700Y-4556760D01*
X6489700Y-4610100D02*
X6515100Y-4635500D01*
X6515100Y-4610100D02*
X6489700Y-4635500D01*
X6489700Y-4688840D02*
X6515100Y-4714240D01*
X6515100Y-4688840D02*
X6489700Y-4714240D01*
X6489700Y-4767580D02*
X6515100Y-4792980D01*
X6515100Y-4767580D02*
X6489700Y-4792980D01*
X6568440Y-4452620D02*
X6593840Y-4478020D01*
X6593840Y-4452620D02*
X6568440Y-4478020D01*
X6568440Y-4531360D02*
X6593840Y-4556760D01*
X6593840Y-4531360D02*
X6568440Y-4556760D01*
X6568440Y-4610100D02*
X6593840Y-4635500D01*
X6593840Y-4610100D02*
X6568440Y-4635500D01*
X6568440Y-4688840D02*
X6593840Y-4714240D01*
X6593840Y-4688840D02*
X6568440Y-4714240D01*
X6568440Y-4767580D02*
X6593840Y-4792980D01*
X6593840Y-4767580D02*
X6568440Y-4792980D01*
X6647180Y-4452620D02*
X6672580Y-4478020D01*
X6672580Y-4452620D02*
X6647180Y-4478020D01*
X6647180Y-4531360D02*
X6672580Y-4556760D01*
X6672580Y-4531360D02*
X6647180Y-4556760D01*
X6647180Y-4610100D02*
X6672580Y-4635500D01*
X6672580Y-4610100D02*
X6647180Y-4635500D01*
X6647180Y-4688840D02*
X6672580Y-4714240D01*
X6672580Y-4688840D02*
X6647180Y-4714240D01*
X6647180Y-4767580D02*
X6672580Y-4792980D01*
X6672580Y-4767580D02*
X6647180Y-4792980D01*
D13*
X2870000Y-3880000D02*
G75*
G03*
X2870000Y-3880000I-20000J0D01*
G01*
X3080000Y-5950000D02*
G75*
G03*
X3080000Y-5950000I-20000J0D01*
G01*
X3185000Y-6125000D02*
G75*
G03*
X3185000Y-6125000I-20000J0D01*
G01*
X3385000Y-5500000D02*
G75*
G03*
X3385000Y-5500000I-20000J0D01*
G01*
X3450000Y-3390000D02*
G75*
G03*
X3450000Y-3390000I-20000J0D01*
G01*
X3480000Y-2680000D02*
G75*
G03*
X3480000Y-2680000I-20000J0D01*
G01*
X3480000Y-4590000D02*
G75*
G03*
X3480000Y-4590000I-20000J0D01*
G01*
X3583394Y-6066444D02*
G75*
G03*
X3583394Y-6066444I-20000J0D01*
G01*
X3585000Y-6200000D02*
G75*
G03*
X3585000Y-6200000I-20000J0D01*
G01*
X3590000Y-2780000D02*
G75*
G03*
X3590000Y-2780000I-20000J0D01*
G01*
X3590000Y-3280000D02*
G75*
G03*
X3590000Y-3280000I-20000J0D01*
G01*
X3690858Y-2930801D02*
G75*
G03*
X3690858Y-2930801I-20000J0D01*
G01*
X3770000Y-3110000D02*
G75*
G03*
X3770000Y-3110000I-20000J0D01*
G01*
X3780000Y-2310000D02*
G75*
G03*
X3780000Y-2310000I-20000J0D01*
G01*
X3780000Y-3820000D02*
G75*
G03*
X3780000Y-3820000I-20000J0D01*
G01*
X3830000Y-4740000D02*
G75*
G03*
X3830000Y-4740000I-20000J0D01*
G01*
X4000000Y-2400000D02*
G75*
G03*
X4000000Y-2400000I-20000J0D01*
G01*
X4040000Y-3580000D02*
G75*
G03*
X4040000Y-3580000I-20000J0D01*
G01*
X4066634Y-2886634D02*
G75*
G03*
X4066634Y-2886634I-20000J0D01*
G01*
X4080000Y-2530000D02*
G75*
G03*
X4080000Y-2530000I-20000J0D01*
G01*
X4260000Y-2170000D02*
G75*
G03*
X4260000Y-2170000I-20000J0D01*
G01*
X4460000Y-4170000D02*
G75*
G03*
X4460000Y-4170000I-20000J0D01*
G01*
X4480000Y-3990000D02*
G75*
G03*
X4480000Y-3990000I-20000J0D01*
G01*
X4560000Y-4450000D02*
G75*
G03*
X4560000Y-4450000I-20000J0D01*
G01*
X4570000Y-5075000D02*
G75*
G03*
X4570000Y-5075000I-20000J0D01*
G01*
X4945000Y-4725000D02*
G75*
G03*
X4945000Y-4725000I-20000J0D01*
G01*
X4945000Y-4950000D02*
G75*
G03*
X4945000Y-4950000I-20000J0D01*
G01*
X5120000Y-3400000D02*
G75*
G03*
X5120000Y-3400000I-20000J0D01*
G01*
X5220000Y-3800000D02*
G75*
G03*
X5220000Y-3800000I-20000J0D01*
G01*
X5245000Y-3400000D02*
G75*
G03*
X5245000Y-3400000I-20000J0D01*
G01*
X5282928Y-4704762D02*
G75*
G03*
X5282928Y-4704762I-20000J0D01*
G01*
X5295000Y-4800000D02*
G75*
G03*
X5295000Y-4800000I-20000J0D01*
G01*
X5320000Y-3750000D02*
G75*
G03*
X5320000Y-3750000I-20000J0D01*
G01*
X5320000Y-4584000D02*
G75*
G03*
X5320000Y-4584000I-20000J0D01*
G01*
X5370000Y-4966400D02*
G75*
G03*
X5370000Y-4966400I-20000J0D01*
G01*
X5400000Y-3320000D02*
G75*
G03*
X5400000Y-3320000I-20000J0D01*
G01*
X5400000Y-3560000D02*
G75*
G03*
X5400000Y-3560000I-20000J0D01*
G01*
X5420000Y-3030000D02*
G75*
G03*
X5420000Y-3030000I-20000J0D01*
G01*
X5420000Y-5925000D02*
G75*
G03*
X5420000Y-5925000I-20000J0D01*
G01*
X5459669Y-4560410D02*
G75*
G03*
X5459669Y-4560410I-20000J0D01*
G01*
X5460000Y-3200000D02*
G75*
G03*
X5460000Y-3200000I-20000J0D01*
G01*
X5460000Y-3440000D02*
G75*
G03*
X5460000Y-3440000I-20000J0D01*
G01*
X5535169Y-2995169D02*
G75*
G03*
X5535169Y-2995169I-20000J0D01*
G01*
X5545000Y-5500000D02*
G75*
G03*
X5545000Y-5500000I-20000J0D01*
G01*
X5545000Y-5600000D02*
G75*
G03*
X5545000Y-5600000I-20000J0D01*
G01*
X5563800Y-4681200D02*
G75*
G03*
X5563800Y-4681200I-20000J0D01*
G01*
X5580000Y-3140000D02*
G75*
G03*
X5580000Y-3140000I-20000J0D01*
G01*
X5700000Y-3200000D02*
G75*
G03*
X5700000Y-3200000I-20000J0D01*
G01*
X5720000Y-5700000D02*
G75*
G03*
X5720000Y-5700000I-20000J0D01*
G01*
X5720000Y-5800000D02*
G75*
G03*
X5720000Y-5800000I-20000J0D01*
G01*
X5780000Y-2500000D02*
G75*
G03*
X5780000Y-2500000I-20000J0D01*
G01*
X5780000Y-2660000D02*
G75*
G03*
X5780000Y-2660000I-20000J0D01*
G01*
X5800000Y-3140000D02*
G75*
G03*
X5800000Y-3140000I-20000J0D01*
G01*
X5845000Y-5700000D02*
G75*
G03*
X5845000Y-5700000I-20000J0D01*
G01*
X5845000Y-5800000D02*
G75*
G03*
X5845000Y-5800000I-20000J0D01*
G01*
X5845000Y-5900000D02*
G75*
G03*
X5845000Y-5900000I-20000J0D01*
G01*
X5869678Y-4709440D02*
G75*
G03*
X5869678Y-4709440I-20000J0D01*
G01*
X5880000Y-2230000D02*
G75*
G03*
X5880000Y-2230000I-20000J0D01*
G01*
X5880100Y-4610100D02*
G75*
G03*
X5880100Y-4610100I-20000J0D01*
G01*
X5900000Y-3200000D02*
G75*
G03*
X5900000Y-3200000I-20000J0D01*
G01*
X5951470Y-4759699D02*
G75*
G03*
X5951470Y-4759699I-20000J0D01*
G01*
X5970000Y-5925000D02*
G75*
G03*
X5970000Y-5925000I-20000J0D01*
G01*
X6047675Y-4533703D02*
G75*
G03*
X6047675Y-4533703I-20000J0D01*
G01*
X6052626Y-4355974D02*
G75*
G03*
X6052626Y-4355974I-20000J0D01*
G01*
X6065200Y-4864100D02*
G75*
G03*
X6065200Y-4864100I-20000J0D01*
G01*
X6070000Y-3975000D02*
G75*
G03*
X6070000Y-3975000I-20000J0D01*
G01*
X6080000Y-3460000D02*
G75*
G03*
X6080000Y-3460000I-20000J0D01*
G01*
X6095000Y-3900000D02*
G75*
G03*
X6095000Y-3900000I-20000J0D01*
G01*
X6095000Y-5925000D02*
G75*
G03*
X6095000Y-5925000I-20000J0D01*
G01*
X6140000Y-3340000D02*
G75*
G03*
X6140000Y-3340000I-20000J0D01*
G01*
X6195000Y-3900000D02*
G75*
G03*
X6195000Y-3900000I-20000J0D01*
G01*
X6221553Y-3676553D02*
G75*
G03*
X6221553Y-3676553I-20000J0D01*
G01*
X6245000Y-5925000D02*
G75*
G03*
X6245000Y-5925000I-20000J0D01*
G01*
X6295000Y-6025000D02*
G75*
G03*
X6295000Y-6025000I-20000J0D01*
G01*
X6300000Y-2160000D02*
G75*
G03*
X6300000Y-2160000I-20000J0D01*
G01*
X6312779Y-3887324D02*
G75*
G03*
X6312779Y-3887324I-20000J0D01*
G01*
X6320000Y-5725000D02*
G75*
G03*
X6320000Y-5725000I-20000J0D01*
G01*
X6320000Y-5850000D02*
G75*
G03*
X6320000Y-5850000I-20000J0D01*
G01*
X6330000Y-2728450D02*
G75*
G03*
X6330000Y-2728450I-20000J0D01*
G01*
X6405400Y-3689600D02*
G75*
G03*
X6405400Y-3689600I-20000J0D01*
G01*
X6420000Y-3775000D02*
G75*
G03*
X6420000Y-3775000I-20000J0D01*
G01*
X6440000Y-2730000D02*
G75*
G03*
X6440000Y-2730000I-20000J0D01*
G01*
X6456728Y-5158466D02*
G75*
G03*
X6456728Y-5158466I-20000J0D01*
G01*
X6507636Y-4009400D02*
G75*
G03*
X6507636Y-4009400I-20000J0D01*
G01*
X6520000Y-3150000D02*
G75*
G03*
X6520000Y-3150000I-20000J0D01*
G01*
X6532399Y-4102100D02*
G75*
G03*
X6532399Y-4102100I-20000J0D01*
G01*
X6570000Y-5825000D02*
G75*
G03*
X6570000Y-5825000I-20000J0D01*
G01*
X6570000Y-6025000D02*
G75*
G03*
X6570000Y-6025000I-20000J0D01*
G01*
X6602766Y-4022766D02*
G75*
G03*
X6602766Y-4022766I-20000J0D01*
G01*
X6695000Y-5650000D02*
G75*
G03*
X6695000Y-5650000I-20000J0D01*
G01*
X6699525Y-4019275D02*
G75*
G03*
X6699525Y-4019275I-20000J0D01*
G01*
X6720000Y-3080000D02*
G75*
G03*
X6720000Y-3080000I-20000J0D01*
G01*
X6745000Y-5850000D02*
G75*
G03*
X6745000Y-5850000I-20000J0D01*
G01*
X6780400Y-3689600D02*
G75*
G03*
X6780400Y-3689600I-20000J0D01*
G01*
X6795000Y-3575000D02*
G75*
G03*
X6795000Y-3575000I-20000J0D01*
G01*
X6795000Y-5750000D02*
G75*
G03*
X6795000Y-5750000I-20000J0D01*
G01*
X6810000Y-2500000D02*
G75*
G03*
X6810000Y-2500000I-20000J0D01*
G01*
X6814400Y-5530600D02*
G75*
G03*
X6814400Y-5530600I-20000J0D01*
G01*
X6814500Y-5133300D02*
G75*
G03*
X6814500Y-5133300I-20000J0D01*
G01*
X6827200Y-4216400D02*
G75*
G03*
X6827200Y-4216400I-20000J0D01*
G01*
X6845000Y-3800000D02*
G75*
G03*
X6845000Y-3800000I-20000J0D01*
G01*
X6865174Y-4953126D02*
G75*
G03*
X6865174Y-4953126I-20000J0D01*
G01*
X6870000Y-3575000D02*
G75*
G03*
X6870000Y-3575000I-20000J0D01*
G01*
X6874000Y-3945100D02*
G75*
G03*
X6874000Y-3945100I-20000J0D01*
G01*
X6885900Y-5650000D02*
G75*
G03*
X6885900Y-5650000I-20000J0D01*
G01*
X6910000Y-2560000D02*
G75*
G03*
X6910000Y-2560000I-20000J0D01*
G01*
X6910000Y-3420000D02*
G75*
G03*
X6910000Y-3420000I-20000J0D01*
G01*
X6915950Y-2160000D02*
G75*
G03*
X6915950Y-2160000I-20000J0D01*
G01*
X6920000Y-3200000D02*
G75*
G03*
X6920000Y-3200000I-20000J0D01*
G01*
X6979831Y-3100169D02*
G75*
G03*
X6979831Y-3100169I-20000J0D01*
G01*
X6990000Y-3350000D02*
G75*
G03*
X6990000Y-3350000I-20000J0D01*
G01*
X7020000Y-2170000D02*
G75*
G03*
X7020000Y-2170000I-20000J0D01*
G01*
X7071366Y-3299146D02*
G75*
G03*
X7071366Y-3299146I-20000J0D01*
G01*
X7119300Y-4602200D02*
G75*
G03*
X7119300Y-4602200I-20000J0D01*
G01*
X7119300Y-4749800D02*
G75*
G03*
X7119300Y-4749800I-20000J0D01*
G01*
X7130000Y-2260000D02*
G75*
G03*
X7130000Y-2260000I-20000J0D01*
G01*
X7130000Y-4940000D02*
G75*
G03*
X7130000Y-4940000I-20000J0D01*
G01*
X7139709Y-4198567D02*
G75*
G03*
X7139709Y-4198567I-20000J0D01*
G01*
X7150000Y-3600000D02*
G75*
G03*
X7150000Y-3600000I-20000J0D01*
G01*
X7157400Y-4440200D02*
G75*
G03*
X7157400Y-4440200I-20000J0D01*
G01*
X7158794Y-4292600D02*
G75*
G03*
X7158794Y-4292600I-20000J0D01*
G01*
X7210000Y-2750000D02*
G75*
G03*
X7210000Y-2750000I-20000J0D01*
G01*
X7216763Y-4634224D02*
G75*
G03*
X7216763Y-4634224I-20000J0D01*
G01*
X7220000Y-1810000D02*
G75*
G03*
X7220000Y-1810000I-20000J0D01*
G01*
X7229226Y-3994645D02*
G75*
G03*
X7229226Y-3994645I-20000J0D01*
G01*
X7230000Y-2230000D02*
G75*
G03*
X7230000Y-2230000I-20000J0D01*
G01*
X7230000Y-2980000D02*
G75*
G03*
X7230000Y-2980000I-20000J0D01*
G01*
X7245000Y-3900000D02*
G75*
G03*
X7245000Y-3900000I-20000J0D01*
G01*
X7270000Y-3750000D02*
G75*
G03*
X7270000Y-3750000I-20000J0D01*
G01*
X7320000Y-5704000D02*
G75*
G03*
X7320000Y-5704000I-20000J0D01*
G01*
X7329153Y-5339050D02*
G75*
G03*
X7329153Y-5339050I-20000J0D01*
G01*
X7370000Y-3850000D02*
G75*
G03*
X7370000Y-3850000I-20000J0D01*
G01*
X7410000Y-3320000D02*
G75*
G03*
X7410000Y-3320000I-20000J0D01*
G01*
X7423450Y-2510000D02*
G75*
G03*
X7423450Y-2510000I-20000J0D01*
G01*
X7445000Y-4400000D02*
G75*
G03*
X7445000Y-4400000I-20000J0D01*
G01*
X7470000Y-4625000D02*
G75*
G03*
X7470000Y-4625000I-20000J0D01*
G01*
X7470000Y-4850000D02*
G75*
G03*
X7470000Y-4850000I-20000J0D01*
G01*
X7520000Y-2240000D02*
G75*
G03*
X7520000Y-2240000I-20000J0D01*
G01*
X7520000Y-5810000D02*
G75*
G03*
X7520000Y-5810000I-20000J0D01*
G01*
X7564889Y-5625000D02*
G75*
G03*
X7564889Y-5625000I-20000J0D01*
G01*
X7590000Y-2470000D02*
G75*
G03*
X7590000Y-2470000I-20000J0D01*
G01*
X7590000Y-2860000D02*
G75*
G03*
X7590000Y-2860000I-20000J0D01*
G01*
X7590550Y-2680000D02*
G75*
G03*
X7590550Y-2680000I-20000J0D01*
G01*
X7590550Y-3093401D02*
G75*
G03*
X7590550Y-3093401I-20000J0D01*
G01*
X7600000Y-3330000D02*
G75*
G03*
X7600000Y-3330000I-20000J0D01*
G01*
X7620000Y-3975000D02*
G75*
G03*
X7620000Y-3975000I-20000J0D01*
G01*
X7620000Y-4200000D02*
G75*
G03*
X7620000Y-4200000I-20000J0D01*
G01*
X7620000Y-4425000D02*
G75*
G03*
X7620000Y-4425000I-20000J0D01*
G01*
X7620000Y-4650000D02*
G75*
G03*
X7620000Y-4650000I-20000J0D01*
G01*
X7620000Y-4875000D02*
G75*
G03*
X7620000Y-4875000I-20000J0D01*
G01*
X7620000Y-5050000D02*
G75*
G03*
X7620000Y-5050000I-20000J0D01*
G01*
X7680000Y-3270000D02*
G75*
G03*
X7680000Y-3270000I-20000J0D01*
G01*
X7695000Y-5350000D02*
G75*
G03*
X7695000Y-5350000I-20000J0D01*
G01*
X7696981Y-5462500D02*
G75*
G03*
X7696981Y-5462500I-20000J0D01*
G01*
X7720000Y-4975000D02*
G75*
G03*
X7720000Y-4975000I-20000J0D01*
G01*
X7840000Y-5750000D02*
G75*
G03*
X7840000Y-5750000I-20000J0D01*
G01*
X7865950Y-3530000D02*
G75*
G03*
X7865950Y-3530000I-20000J0D01*
G01*
X7870000Y-2610000D02*
G75*
G03*
X7870000Y-2610000I-20000J0D01*
G01*
X7894000Y-6130000D02*
G75*
G03*
X7894000Y-6130000I-20000J0D01*
G01*
X7900000Y-4310000D02*
G75*
G03*
X7900000Y-4310000I-20000J0D01*
G01*
X7910000Y-4420000D02*
G75*
G03*
X7910000Y-4420000I-20000J0D01*
G01*
X7930000Y-3178450D02*
G75*
G03*
X7930000Y-3178450I-20000J0D01*
G01*
X7937324Y-3594127D02*
G75*
G03*
X7937324Y-3594127I-20000J0D01*
G01*
X7940000Y-5820000D02*
G75*
G03*
X7940000Y-5820000I-20000J0D01*
G01*
X7991550Y-2940000D02*
G75*
G03*
X7991550Y-2940000I-20000J0D01*
G01*
X8070000Y-1780000D02*
G75*
G03*
X8070000Y-1780000I-20000J0D01*
G01*
X8070000Y-4420000D02*
G75*
G03*
X8070000Y-4420000I-20000J0D01*
G01*
X8070000Y-4575000D02*
G75*
G03*
X8070000Y-4575000I-20000J0D01*
G01*
X8074000Y-4675000D02*
G75*
G03*
X8074000Y-4675000I-20000J0D01*
G01*
X8100000Y-4010000D02*
G75*
G03*
X8100000Y-4010000I-20000J0D01*
G01*
X8190000Y-3470000D02*
G75*
G03*
X8190000Y-3470000I-20000J0D01*
G01*
X8210000Y-1990000D02*
G75*
G03*
X8210000Y-1990000I-20000J0D01*
G01*
X8219550Y-2500000D02*
G75*
G03*
X8219550Y-2500000I-20000J0D01*
G01*
X8220000Y-2660000D02*
G75*
G03*
X8220000Y-2660000I-20000J0D01*
G01*
X8350000Y-4609050D02*
G75*
G03*
X8350000Y-4609050I-20000J0D01*
G01*
X8488097Y-4035695D02*
G75*
G03*
X8488097Y-4035695I-20000J0D01*
G01*
X8550000Y-1650000D02*
G75*
G03*
X8550000Y-1650000I-20000J0D01*
G01*
X8560000Y-1520000D02*
G75*
G03*
X8560000Y-1520000I-20000J0D01*
G01*
X8581674Y-4014485D02*
G75*
G03*
X8581674Y-4014485I-20000J0D01*
G01*
X8611402Y-1411401D02*
G75*
G03*
X8611402Y-1411401I-20000J0D01*
G01*
X8620000Y-5660000D02*
G75*
G03*
X8620000Y-5660000I-20000J0D01*
G01*
X8674873Y-3991676D02*
G75*
G03*
X8674873Y-3991676I-20000J0D01*
G01*
X8930000Y-2180000D02*
G75*
G03*
X8930000Y-2180000I-20000J0D01*
G01*
X8950000Y-3680000D02*
G75*
G03*
X8950000Y-3680000I-20000J0D01*
G01*
X8988450Y-3240000D02*
G75*
G03*
X8988450Y-3240000I-20000J0D01*
G01*
X8990000Y-4060000D02*
G75*
G03*
X8990000Y-4060000I-20000J0D01*
G01*
X9000000Y-2830000D02*
G75*
G03*
X9000000Y-2830000I-20000J0D01*
G01*
X9010000Y-2560000D02*
G75*
G03*
X9010000Y-2560000I-20000J0D01*
G01*
X9050000Y-4160000D02*
G75*
G03*
X9050000Y-4160000I-20000J0D01*
G01*
X9090000Y-4790000D02*
G75*
G03*
X9090000Y-4790000I-20000J0D01*
G01*
X9102877Y-4252877D02*
G75*
G03*
X9102877Y-4252877I-20000J0D01*
G01*
X9130000Y-5030000D02*
G75*
G03*
X9130000Y-5030000I-20000J0D01*
G01*
X9177123Y-4327123D02*
G75*
G03*
X9177123Y-4327123I-20000J0D01*
G01*
X9185000Y-4825000D02*
G75*
G03*
X9185000Y-4825000I-20000J0D01*
G01*
X9350000Y-3120000D02*
G75*
G03*
X9350000Y-3120000I-20000J0D01*
G01*
X9400000Y-3220000D02*
G75*
G03*
X9400000Y-3220000I-20000J0D01*
G01*
X9490000Y-3150000D02*
G75*
G03*
X9490000Y-3150000I-20000J0D01*
G01*
X9580000Y-3290000D02*
G75*
G03*
X9580000Y-3290000I-20000J0D01*
G01*
X9590000Y-5040000D02*
G75*
G03*
X9590000Y-5040000I-20000J0D01*
G01*
X9630000Y-4690000D02*
G75*
G03*
X9630000Y-4690000I-20000J0D01*
G01*
X9790000Y-2600000D02*
G75*
G03*
X9790000Y-2600000I-20000J0D01*
G01*
X9830000Y-1960000D02*
G75*
G03*
X9830000Y-1960000I-20000J0D01*
G01*
X9840000Y-2080000D02*
G75*
G03*
X9840000Y-2080000I-20000J0D01*
G01*
X9864050Y-4296642D02*
G75*
G03*
X9864050Y-4296642I-20000J0D01*
G01*
X9900000Y-1330000D02*
G75*
G03*
X9900000Y-1330000I-20000J0D01*
G01*
X9910000Y-2670000D02*
G75*
G03*
X9910000Y-2670000I-20000J0D01*
G01*
X9932500Y-4367500D02*
G75*
G03*
X9932500Y-4367500I-20000J0D01*
G01*
X10001800Y-4448200D02*
G75*
G03*
X10001800Y-4448200I-20000J0D01*
G01*
X10040000Y-2010000D02*
G75*
G03*
X10040000Y-2010000I-20000J0D01*
G01*
X10043402Y-1806598D02*
G75*
G03*
X10043402Y-1806598I-20000J0D01*
G01*
X10060000Y-4680000D02*
G75*
G03*
X10060000Y-4680000I-20000J0D01*
G01*
X10070000Y-2640000D02*
G75*
G03*
X10070000Y-2640000I-20000J0D01*
G01*
X10070250Y-4520250D02*
G75*
G03*
X10070250Y-4520250I-20000J0D01*
G01*
X10080000Y-1360000D02*
G75*
G03*
X10080000Y-1360000I-20000J0D01*
G01*
X10090000Y-5040000D02*
G75*
G03*
X10090000Y-5040000I-20000J0D01*
G01*
X10138700Y-4588450D02*
G75*
G03*
X10138700Y-4588450I-20000J0D01*
G01*
X10140000Y-2820000D02*
G75*
G03*
X10140000Y-2820000I-20000J0D01*
G01*
X10177556Y-2637149D02*
G75*
G03*
X10177556Y-2637149I-20000J0D01*
G01*
X10207150Y-4656900D02*
G75*
G03*
X10207150Y-4656900I-20000J0D01*
G01*
X10250000Y-1840000D02*
G75*
G03*
X10250000Y-1840000I-20000J0D01*
G01*
X10259297Y-4823191D02*
G75*
G03*
X10259297Y-4823191I-20000J0D01*
G01*
X10269147Y-4918634D02*
G75*
G03*
X10269147Y-4918634I-20000J0D01*
G01*
X10270000Y-2240000D02*
G75*
G03*
X10270000Y-2240000I-20000J0D01*
G01*
X10280000Y-2690000D02*
G75*
G03*
X10280000Y-2690000I-20000J0D01*
G01*
X10281600Y-2590800D02*
G75*
G03*
X10281600Y-2590800I-20000J0D01*
G01*
X10320000Y-5000000D02*
G75*
G03*
X10320000Y-5000000I-20000J0D01*
G01*
X10433012Y-2648450D02*
G75*
G03*
X10433012Y-2648450I-20000J0D01*
G01*
X10504235Y-2809295D02*
G75*
G03*
X10504235Y-2809295I-20000J0D01*
G01*
X10506422Y-2710235D02*
G75*
G03*
X10506422Y-2710235I-20000J0D01*
G01*
X10601248Y-2809085D02*
G75*
G03*
X10601248Y-2809085I-20000J0D01*
G01*
X10697732Y-2906207D02*
G75*
G03*
X10697732Y-2906207I-20000J0D01*
G01*
X10698712Y-2808425D02*
G75*
G03*
X10698712Y-2808425I-20000J0D01*
G01*
X10780000Y-5660000D02*
G75*
G03*
X10780000Y-5660000I-20000J0D01*
G01*
X10793623Y-2909574D02*
G75*
G03*
X10793623Y-2909574I-20000J0D01*
G01*
X10900000Y-2920000D02*
G75*
G03*
X10900000Y-2920000I-20000J0D01*
G01*
X10910018Y-3126785D02*
G75*
G03*
X10910018Y-3126785I-20000J0D01*
G01*
X10912980Y-3226550D02*
G75*
G03*
X10912980Y-3226550I-20000J0D01*
G01*
X10986098Y-2789721D02*
G75*
G03*
X10986098Y-2789721I-20000J0D01*
G01*
X10990000Y-1360950D02*
G75*
G03*
X10990000Y-1360950I-20000J0D01*
G01*
X10990000Y-2970000D02*
G75*
G03*
X10990000Y-2970000I-20000J0D01*
G01*
X11000000Y-3890000D02*
G75*
G03*
X11000000Y-3890000I-20000J0D01*
G01*
X11063450Y-2648450D02*
G75*
G03*
X11063450Y-2648450I-20000J0D01*
G01*
X11080000Y-2770000D02*
G75*
G03*
X11080000Y-2770000I-20000J0D01*
G01*
X11120000Y-2270000D02*
G75*
G03*
X11120000Y-2270000I-20000J0D01*
G01*
X11130000Y-4590000D02*
G75*
G03*
X11130000Y-4590000I-20000J0D01*
G01*
X11170000Y-4500000D02*
G75*
G03*
X11170000Y-4500000I-20000J0D01*
G01*
X11210000Y-5890000D02*
G75*
G03*
X11210000Y-5890000I-20000J0D01*
G01*
X11310000Y-1600000D02*
G75*
G03*
X11310000Y-1600000I-20000J0D01*
G01*
X11310000Y-5740000D02*
G75*
G03*
X11310000Y-5740000I-20000J0D01*
G01*
X11320000Y-1900000D02*
G75*
G03*
X11320000Y-1900000I-20000J0D01*
G01*
X11320000Y-2700000D02*
G75*
G03*
X11320000Y-2700000I-20000J0D01*
G01*
X11340000Y-6180000D02*
G75*
G03*
X11340000Y-6180000I-20000J0D01*
G01*
X11360000Y-2280000D02*
G75*
G03*
X11360000Y-2280000I-20000J0D01*
G01*
X11410000Y-1940000D02*
G75*
G03*
X11410000Y-1940000I-20000J0D01*
G01*
X11470000Y-6300000D02*
G75*
G03*
X11470000Y-6300000I-20000J0D01*
G01*
X11480000Y-2160000D02*
G75*
G03*
X11480000Y-2160000I-20000J0D01*
G01*
X11497149Y-5497556D02*
G75*
G03*
X11497149Y-5497556I-20000J0D01*
G01*
X11505000Y-1665000D02*
G75*
G03*
X11505000Y-1665000I-20000J0D01*
G01*
X11515409Y-4445000D02*
G75*
G03*
X11515409Y-4445000I-20000J0D01*
G01*
X11530000Y-2820000D02*
G75*
G03*
X11530000Y-2820000I-20000J0D01*
G01*
X11540000Y-4300000D02*
G75*
G03*
X11540000Y-4300000I-20000J0D01*
G01*
X11561808Y-3468450D02*
G75*
G03*
X11561808Y-3468450I-20000J0D01*
G01*
X11567760Y-5812240D02*
G75*
G03*
X11567760Y-5812240I-20000J0D01*
G01*
X11570000Y-3250000D02*
G75*
G03*
X11570000Y-3250000I-20000J0D01*
G01*
X11570000Y-5240000D02*
G75*
G03*
X11570000Y-5240000I-20000J0D01*
G01*
X11570000Y-5560000D02*
G75*
G03*
X11570000Y-5560000I-20000J0D01*
G01*
X11570000Y-6100000D02*
G75*
G03*
X11570000Y-6100000I-20000J0D01*
G01*
X11630000Y-1670000D02*
G75*
G03*
X11630000Y-1670000I-20000J0D01*
G01*
X11630000Y-4230000D02*
G75*
G03*
X11630000Y-4230000I-20000J0D01*
G01*
X11631550Y-3800055D02*
G75*
G03*
X11631550Y-3800055I-20000J0D01*
G01*
X11640000Y-4890000D02*
G75*
G03*
X11640000Y-4890000I-20000J0D01*
G01*
X11650000Y-3400000D02*
G75*
G03*
X11650000Y-3400000I-20000J0D01*
G01*
X11650000Y-3548450D02*
G75*
G03*
X11650000Y-3548450I-20000J0D01*
G01*
X11650000Y-4510000D02*
G75*
G03*
X11650000Y-4510000I-20000J0D01*
G01*
X11651563Y-3301563D02*
G75*
G03*
X11651563Y-3301563I-20000J0D01*
G01*
X11670000Y-4040000D02*
G75*
G03*
X11670000Y-4040000I-20000J0D01*
G01*
X11670000Y-4140000D02*
G75*
G03*
X11670000Y-4140000I-20000J0D01*
G01*
X11681550Y-3639065D02*
G75*
G03*
X11681550Y-3639065I-20000J0D01*
G01*
X11681550Y-3881947D02*
G75*
G03*
X11681550Y-3881947I-20000J0D01*
G01*
X11753401Y-3126598D02*
G75*
G03*
X11753401Y-3126598I-20000J0D01*
G01*
X11780000Y-1560000D02*
G75*
G03*
X11780000Y-1560000I-20000J0D01*
G01*
X11780000Y-5780000D02*
G75*
G03*
X11780000Y-5780000I-20000J0D01*
G01*
X11810000Y-2910000D02*
G75*
G03*
X11810000Y-2910000I-20000J0D01*
G01*
X11820000Y-3240000D02*
G75*
G03*
X11820000Y-3240000I-20000J0D01*
G01*
X11850000Y-5540950D02*
G75*
G03*
X11850000Y-5540950I-20000J0D01*
G01*
X11880000Y-5300000D02*
G75*
G03*
X11880000Y-5300000I-20000J0D01*
G01*
X11899050Y-3050000D02*
G75*
G03*
X11899050Y-3050000I-20000J0D01*
G01*
X12090950Y-5390000D02*
G75*
G03*
X12090950Y-5390000I-20000J0D01*
G01*
X12140000Y-2580000D02*
G75*
G03*
X12140000Y-2580000I-20000J0D01*
G01*
X12200000Y-5550000D02*
G75*
G03*
X12200000Y-5550000I-20000J0D01*
G01*
X12210000Y-5380000D02*
G75*
G03*
X12210000Y-5380000I-20000J0D01*
G01*
X12330000Y-5770000D02*
G75*
G03*
X12330000Y-5770000I-20000J0D01*
G01*
X12370000Y-5400000D02*
G75*
G03*
X12370000Y-5400000I-20000J0D01*
G01*
X12430000Y-2610000D02*
G75*
G03*
X12430000Y-2610000I-20000J0D01*
G01*
X12440000Y-2180000D02*
G75*
G03*
X12440000Y-2180000I-20000J0D01*
G01*
X12440000Y-2370000D02*
G75*
G03*
X12440000Y-2370000I-20000J0D01*
G01*
X12450000Y-1610000D02*
G75*
G03*
X12450000Y-1610000I-20000J0D01*
G01*
X12450000Y-1820000D02*
G75*
G03*
X12450000Y-1820000I-20000J0D01*
G01*
X12450000Y-1980000D02*
G75*
G03*
X12450000Y-1980000I-20000J0D01*
G01*
D14*
X2809000Y-2568000D02*
X2809000Y-2628000D01*
X2779000Y-2598000D02*
X2839000Y-2598000D01*
D11*
X2839000Y-2568000D02*
X2779000Y-2568000D01*
X2839000Y-2628000D02*
X2779000Y-2628000D01*
X2779000Y-2568000D02*
G75*
G03*
X2779000Y-2628000I0J-30000D01*
G01*
X2839000Y-2628000D02*
G75*
G03*
X2839000Y-2568000I0J30000D01*
G01*
D14*
X2809000Y-3432000D02*
X2809000Y-3492000D01*
X2779000Y-3462000D02*
X2839000Y-3462000D01*
D11*
X2839000Y-3432000D02*
X2779000Y-3432000D01*
X2839000Y-3492000D02*
X2779000Y-3492000D01*
X2779000Y-3432000D02*
G75*
G03*
X2779000Y-3492000I0J-30000D01*
G01*
X2839000Y-3492000D02*
G75*
G03*
X2839000Y-3432000I0J30000D01*
G01*
D14*
X3227000Y-2568000D02*
X3227000Y-2628000D01*
X3197000Y-2598000D02*
X3257000Y-2598000D01*
D11*
X3282000Y-2568000D02*
X3172000Y-2568000D01*
X3282000Y-2628000D02*
X3172000Y-2628000D01*
X3172000Y-2568000D02*
G75*
G03*
X3172000Y-2628000I0J-30000D01*
G01*
X3282000Y-2628000D02*
G75*
G03*
X3282000Y-2568000I0J30000D01*
G01*
D14*
X3227000Y-3432000D02*
X3227000Y-3492000D01*
X3197000Y-3462000D02*
X3257000Y-3462000D01*
D11*
X3282000Y-3432000D02*
X3172000Y-3432000D01*
X3282000Y-3492000D02*
X3172000Y-3492000D01*
X3172000Y-3432000D02*
G75*
G03*
X3172000Y-3492000I0J-30000D01*
G01*
X3282000Y-3492000D02*
G75*
G03*
X3282000Y-3432000I0J30000D01*
G01*
D15*
X2745356Y-1818856D02*
X2745356Y-1748144D01*
X2674644Y-1748144D01*
X2674644Y-1818856D01*
X2745356Y-1818856D01*
X2745356Y-2072856D02*
X2745356Y-2002144D01*
X2674644Y-2002144D01*
X2674644Y-2072856D01*
X2745356Y-2072856D01*
X2770356Y-4962856D02*
X2770356Y-4892144D01*
X2699644Y-4892144D01*
X2699644Y-4962856D01*
X2770356Y-4962856D01*
X2770356Y-5216856D02*
X2770356Y-5146144D01*
X2699644Y-5146144D01*
X2699644Y-5216856D01*
X2770356Y-5216856D01*
X3222856Y-1165356D02*
X3222856Y-1094644D01*
X3152144Y-1094644D01*
X3152144Y-1165356D01*
X3222856Y-1165356D01*
X3476856Y-1165356D02*
X3476856Y-1094644D01*
X3406144Y-1094644D01*
X3406144Y-1165356D01*
X3476856Y-1165356D01*
X3730856Y-1165356D02*
X3730856Y-1094644D01*
X3660144Y-1094644D01*
X3660144Y-1165356D01*
X3730856Y-1165356D01*
X3984856Y-1165356D02*
X3984856Y-1094644D01*
X3914144Y-1094644D01*
X3914144Y-1165356D01*
X3984856Y-1165356D01*
X4238856Y-1165356D02*
X4238856Y-1094644D01*
X4168144Y-1094644D01*
X4168144Y-1165356D01*
X4238856Y-1165356D01*
X4492856Y-1165356D02*
X4492856Y-1094644D01*
X4422144Y-1094644D01*
X4422144Y-1165356D01*
X4492856Y-1165356D01*
X4746856Y-1165356D02*
X4746856Y-1094644D01*
X4676144Y-1094644D01*
X4676144Y-1165356D01*
X4746856Y-1165356D01*
X5000856Y-1165356D02*
X5000856Y-1094644D01*
X4930144Y-1094644D01*
X4930144Y-1165356D01*
X5000856Y-1165356D01*
X5254856Y-1165356D02*
X5254856Y-1094644D01*
X5184144Y-1094644D01*
X5184144Y-1165356D01*
X5254856Y-1165356D01*
X5508856Y-1165356D02*
X5508856Y-1094644D01*
X5438144Y-1094644D01*
X5438144Y-1165356D01*
X5508856Y-1165356D01*
X5762856Y-1165356D02*
X5762856Y-1094644D01*
X5692144Y-1094644D01*
X5692144Y-1165356D01*
X5762856Y-1165356D01*
X6016856Y-1165356D02*
X6016856Y-1094644D01*
X5946144Y-1094644D01*
X5946144Y-1165356D01*
X6016856Y-1165356D01*
X6270856Y-1165356D02*
X6270856Y-1094644D01*
X6200144Y-1094644D01*
X6200144Y-1165356D01*
X6270856Y-1165356D01*
X6635356Y-1165356D02*
X6635356Y-1094644D01*
X6564644Y-1094644D01*
X6564644Y-1165356D01*
X6635356Y-1165356D01*
X6889356Y-1165356D02*
X6889356Y-1094644D01*
X6818644Y-1094644D01*
X6818644Y-1165356D01*
X6889356Y-1165356D01*
X7143356Y-1165356D02*
X7143356Y-1094644D01*
X7072644Y-1094644D01*
X7072644Y-1165356D01*
X7143356Y-1165356D01*
X7397356Y-1165356D02*
X7397356Y-1094644D01*
X7326644Y-1094644D01*
X7326644Y-1165356D01*
X7397356Y-1165356D01*
X7651356Y-1165356D02*
X7651356Y-1094644D01*
X7580644Y-1094644D01*
X7580644Y-1165356D01*
X7651356Y-1165356D01*
X7905356Y-1165356D02*
X7905356Y-1094644D01*
X7834644Y-1094644D01*
X7834644Y-1165356D01*
X7905356Y-1165356D01*
X8159356Y-1165356D02*
X8159356Y-1094644D01*
X8088644Y-1094644D01*
X8088644Y-1165356D01*
X8159356Y-1165356D01*
X8413356Y-1165356D02*
X8413356Y-1094644D01*
X8342644Y-1094644D01*
X8342644Y-1165356D01*
X8413356Y-1165356D01*
X8667356Y-1165356D02*
X8667356Y-1094644D01*
X8596644Y-1094644D01*
X8596644Y-1165356D01*
X8667356Y-1165356D01*
X8921356Y-1165356D02*
X8921356Y-1094644D01*
X8850644Y-1094644D01*
X8850644Y-1165356D01*
X8921356Y-1165356D01*
X9175356Y-1165356D02*
X9175356Y-1094644D01*
X9104644Y-1094644D01*
X9104644Y-1165356D01*
X9175356Y-1165356D01*
X9429356Y-1165356D02*
X9429356Y-1094644D01*
X9358644Y-1094644D01*
X9358644Y-1165356D01*
X9429356Y-1165356D01*
X12328956Y-2829356D02*
X12328956Y-2758644D01*
X12258244Y-2758644D01*
X12258244Y-2829356D01*
X12328956Y-2829356D01*
X12328956Y-3083356D02*
X12328956Y-3012644D01*
X12258244Y-3012644D01*
X12258244Y-3083356D01*
X12328956Y-3083356D01*
X12328956Y-3337356D02*
X12328956Y-3266644D01*
X12258244Y-3266644D01*
X12258244Y-3337356D01*
X12328956Y-3337356D01*
X12328956Y-3591356D02*
X12328956Y-3520644D01*
X12258244Y-3520644D01*
X12258244Y-3591356D01*
X12328956Y-3591356D01*
X12328956Y-3845356D02*
X12328956Y-3774644D01*
X12258244Y-3774644D01*
X12258244Y-3845356D01*
X12328956Y-3845356D01*
X12328956Y-4099356D02*
X12328956Y-4028644D01*
X12258244Y-4028644D01*
X12258244Y-4099356D01*
X12328956Y-4099356D01*
X12328956Y-4353356D02*
X12328956Y-4282644D01*
X12258244Y-4282644D01*
X12258244Y-4353356D01*
X12328956Y-4353356D01*
X12328956Y-4607356D02*
X12328956Y-4536644D01*
X12258244Y-4536644D01*
X12258244Y-4607356D01*
X12328956Y-4607356D01*
X12328956Y-4861356D02*
X12328956Y-4790644D01*
X12258244Y-4790644D01*
X12258244Y-4861356D01*
X12328956Y-4861356D01*
X12328956Y-5115356D02*
X12328956Y-5044644D01*
X12258244Y-5044644D01*
X12258244Y-5115356D01*
X12328956Y-5115356D01*
D11*
X2755119Y-6762976D02*
X2755119Y-6562976D01*
X2802738Y-6562976D01*
X2831309Y-6572500D01*
X2850357Y-6591548D01*
X2859881Y-6610595D01*
X2869405Y-6648690D01*
X2869405Y-6677262D01*
X2859881Y-6715357D01*
X2850357Y-6734405D01*
X2831309Y-6753452D01*
X2802738Y-6762976D01*
X2755119Y-6762976D01*
X2955119Y-6762976D02*
X2955119Y-6629643D01*
X2955119Y-6667738D02*
X2964643Y-6648690D01*
X2974167Y-6639167D01*
X2993214Y-6629643D01*
X3012262Y-6629643D01*
X3078928Y-6762976D02*
X3078928Y-6629643D01*
X3078928Y-6562976D02*
X3069405Y-6572500D01*
X3078928Y-6582024D01*
X3088452Y-6572500D01*
X3078928Y-6562976D01*
X3078928Y-6582024D01*
X3202738Y-6762976D02*
X3183690Y-6753452D01*
X3174167Y-6734405D01*
X3174167Y-6562976D01*
X3307500Y-6762976D02*
X3288452Y-6753452D01*
X3278928Y-6734405D01*
X3278928Y-6562976D01*
X3536071Y-6762976D02*
X3536071Y-6562976D01*
X3602738Y-6705833D01*
X3669405Y-6562976D01*
X3669405Y-6762976D01*
X3850357Y-6762976D02*
X3850357Y-6658214D01*
X3840833Y-6639167D01*
X3821786Y-6629643D01*
X3783690Y-6629643D01*
X3764643Y-6639167D01*
X3850357Y-6753452D02*
X3831309Y-6762976D01*
X3783690Y-6762976D01*
X3764643Y-6753452D01*
X3755119Y-6734405D01*
X3755119Y-6715357D01*
X3764643Y-6696309D01*
X3783690Y-6686786D01*
X3831309Y-6686786D01*
X3850357Y-6677262D01*
X3945595Y-6629643D02*
X3945595Y-6829643D01*
X3945595Y-6639167D02*
X3964643Y-6629643D01*
X4002738Y-6629643D01*
X4021786Y-6639167D01*
X4031309Y-6648690D01*
X4040833Y-6667738D01*
X4040833Y-6724881D01*
X4031309Y-6743928D01*
X4021786Y-6753452D01*
X4002738Y-6762976D01*
X3964643Y-6762976D01*
X3945595Y-6753452D01*
X4126548Y-6743928D02*
X4136071Y-6753452D01*
X4126548Y-6762976D01*
X4117024Y-6753452D01*
X4126548Y-6743928D01*
X4126548Y-6762976D01*
X4126548Y-6639167D02*
X4136071Y-6648690D01*
X4126548Y-6658214D01*
X4117024Y-6648690D01*
X4126548Y-6639167D01*
X4126548Y-6658214D01*
D12*
X2472100Y-7079800D02*
X2497500Y-7105200D01*
X2497500Y-7079800D02*
X2472100Y-7105200D01*
D11*
X2793214Y-6982976D02*
X2812262Y-6982976D01*
X2831309Y-6992500D01*
X2840833Y-7002024D01*
X2850357Y-7021071D01*
X2859881Y-7059167D01*
X2859881Y-7106786D01*
X2850357Y-7144881D01*
X2840833Y-7163928D01*
X2831309Y-7173452D01*
X2812262Y-7182976D01*
X2793214Y-7182976D01*
X2774167Y-7173452D01*
X2764643Y-7163928D01*
X2755119Y-7144881D01*
X2745595Y-7106786D01*
X2745595Y-7059167D01*
X2755119Y-7021071D01*
X2764643Y-7002024D01*
X2774167Y-6992500D01*
X2793214Y-6982976D01*
X2945595Y-7163928D02*
X2955119Y-7173452D01*
X2945595Y-7182976D01*
X2936071Y-7173452D01*
X2945595Y-7163928D01*
X2945595Y-7182976D01*
X3031309Y-7002024D02*
X3040833Y-6992500D01*
X3059881Y-6982976D01*
X3107500Y-6982976D01*
X3126548Y-6992500D01*
X3136071Y-7002024D01*
X3145595Y-7021071D01*
X3145595Y-7040119D01*
X3136071Y-7068690D01*
X3021786Y-7182976D01*
X3145595Y-7182976D01*
X3326548Y-6982976D02*
X3231309Y-6982976D01*
X3221786Y-7078214D01*
X3231309Y-7068690D01*
X3250357Y-7059167D01*
X3297976Y-7059167D01*
X3317024Y-7068690D01*
X3326548Y-7078214D01*
X3336071Y-7097262D01*
X3336071Y-7144881D01*
X3326548Y-7163928D01*
X3317024Y-7173452D01*
X3297976Y-7182976D01*
X3250357Y-7182976D01*
X3231309Y-7173452D01*
X3221786Y-7163928D01*
X3507500Y-7049643D02*
X3507500Y-7182976D01*
X3459881Y-6973452D02*
X3412262Y-7116309D01*
X3536071Y-7116309D01*
X3612262Y-7182976D02*
X3612262Y-7049643D01*
X3612262Y-7068690D02*
X3621786Y-7059167D01*
X3640833Y-7049643D01*
X3669405Y-7049643D01*
X3688452Y-7059167D01*
X3697976Y-7078214D01*
X3697976Y-7182976D01*
X3697976Y-7078214D02*
X3707500Y-7059167D01*
X3726548Y-7049643D01*
X3755119Y-7049643D01*
X3774167Y-7059167D01*
X3783690Y-7078214D01*
X3783690Y-7182976D01*
X3878928Y-7182976D02*
X3878928Y-7049643D01*
X3878928Y-7068690D02*
X3888452Y-7059167D01*
X3907500Y-7049643D01*
X3936071Y-7049643D01*
X3955119Y-7059167D01*
X3964643Y-7078214D01*
X3964643Y-7182976D01*
X3964643Y-7078214D02*
X3974167Y-7059167D01*
X3993214Y-7049643D01*
X4021786Y-7049643D01*
X4040833Y-7059167D01*
X4050357Y-7078214D01*
X4050357Y-7182976D01*
X4440833Y-6973452D02*
X4269405Y-7230595D01*
X4697976Y-6982976D02*
X4717024Y-6982976D01*
X4736071Y-6992500D01*
X4745595Y-7002024D01*
X4755119Y-7021071D01*
X4764643Y-7059167D01*
X4764643Y-7106786D01*
X4755119Y-7144881D01*
X4745595Y-7163928D01*
X4736071Y-7173452D01*
X4717024Y-7182976D01*
X4697976Y-7182976D01*
X4678929Y-7173452D01*
X4669405Y-7163928D01*
X4659881Y-7144881D01*
X4650357Y-7106786D01*
X4650357Y-7059167D01*
X4659881Y-7021071D01*
X4669405Y-7002024D01*
X4678929Y-6992500D01*
X4697976Y-6982976D01*
X4850357Y-7163928D02*
X4859881Y-7173452D01*
X4850357Y-7182976D01*
X4840833Y-7173452D01*
X4850357Y-7163928D01*
X4850357Y-7182976D01*
X4983690Y-6982976D02*
X5002738Y-6982976D01*
X5021786Y-6992500D01*
X5031310Y-7002024D01*
X5040833Y-7021071D01*
X5050357Y-7059167D01*
X5050357Y-7106786D01*
X5040833Y-7144881D01*
X5031310Y-7163928D01*
X5021786Y-7173452D01*
X5002738Y-7182976D01*
X4983690Y-7182976D01*
X4964643Y-7173452D01*
X4955119Y-7163928D01*
X4945595Y-7144881D01*
X4936071Y-7106786D01*
X4936071Y-7059167D01*
X4945595Y-7021071D01*
X4955119Y-7002024D01*
X4964643Y-6992500D01*
X4983690Y-6982976D01*
X5240833Y-7182976D02*
X5126548Y-7182976D01*
X5183690Y-7182976D02*
X5183690Y-6982976D01*
X5164643Y-7011548D01*
X5145595Y-7030595D01*
X5126548Y-7040119D01*
X5364643Y-6982976D02*
X5383690Y-6982976D01*
X5402738Y-6992500D01*
X5412262Y-7002024D01*
X5421786Y-7021071D01*
X5431310Y-7059167D01*
X5431310Y-7106786D01*
X5421786Y-7144881D01*
X5412262Y-7163928D01*
X5402738Y-7173452D01*
X5383690Y-7182976D01*
X5364643Y-7182976D01*
X5345595Y-7173452D01*
X5336071Y-7163928D01*
X5326548Y-7144881D01*
X5317024Y-7106786D01*
X5317024Y-7059167D01*
X5326548Y-7021071D01*
X5336071Y-7002024D01*
X5345595Y-6992500D01*
X5364643Y-6982976D01*
X5555119Y-6982976D02*
X5574167Y-6982976D01*
X5593214Y-6992500D01*
X5602738Y-7002024D01*
X5612262Y-7021071D01*
X5621786Y-7059167D01*
X5621786Y-7106786D01*
X5612262Y-7144881D01*
X5602738Y-7163928D01*
X5593214Y-7173452D01*
X5574167Y-7182976D01*
X5555119Y-7182976D01*
X5536071Y-7173452D01*
X5526548Y-7163928D01*
X5517024Y-7144881D01*
X5507500Y-7106786D01*
X5507500Y-7059167D01*
X5517024Y-7021071D01*
X5526548Y-7002024D01*
X5536071Y-6992500D01*
X5555119Y-6982976D01*
X5697976Y-6982976D02*
X5697976Y-7021071D01*
X5774167Y-6982976D02*
X5774167Y-7021071D01*
X6069405Y-7259167D02*
X6059881Y-7249643D01*
X6040833Y-7221071D01*
X6031309Y-7202024D01*
X6021786Y-7173452D01*
X6012262Y-7125833D01*
X6012262Y-7087738D01*
X6021786Y-7040119D01*
X6031309Y-7011548D01*
X6040833Y-6992500D01*
X6059881Y-6963928D01*
X6069405Y-6954405D01*
X6136071Y-7002024D02*
X6145595Y-6992500D01*
X6164643Y-6982976D01*
X6212262Y-6982976D01*
X6231309Y-6992500D01*
X6240833Y-7002024D01*
X6250357Y-7021071D01*
X6250357Y-7040119D01*
X6240833Y-7068690D01*
X6126548Y-7182976D01*
X6250357Y-7182976D01*
X6431309Y-6982976D02*
X6336071Y-6982976D01*
X6326548Y-7078214D01*
X6336071Y-7068690D01*
X6355119Y-7059167D01*
X6402738Y-7059167D01*
X6421786Y-7068690D01*
X6431309Y-7078214D01*
X6440833Y-7097262D01*
X6440833Y-7144881D01*
X6431309Y-7163928D01*
X6421786Y-7173452D01*
X6402738Y-7182976D01*
X6355119Y-7182976D01*
X6336071Y-7173452D01*
X6326548Y-7163928D01*
X6678928Y-7182976D02*
X6678928Y-6982976D01*
X6764643Y-7182976D02*
X6764643Y-7078214D01*
X6755119Y-7059167D01*
X6736071Y-7049643D01*
X6707500Y-7049643D01*
X6688452Y-7059167D01*
X6678928Y-7068690D01*
X6888452Y-7182976D02*
X6869405Y-7173452D01*
X6859881Y-7163928D01*
X6850357Y-7144881D01*
X6850357Y-7087738D01*
X6859881Y-7068690D01*
X6869405Y-7059167D01*
X6888452Y-7049643D01*
X6917024Y-7049643D01*
X6936071Y-7059167D01*
X6945595Y-7068690D01*
X6955119Y-7087738D01*
X6955119Y-7144881D01*
X6945595Y-7163928D01*
X6936071Y-7173452D01*
X6917024Y-7182976D01*
X6888452Y-7182976D01*
X7069405Y-7182976D02*
X7050357Y-7173452D01*
X7040833Y-7154405D01*
X7040833Y-6982976D01*
X7221786Y-7173452D02*
X7202738Y-7182976D01*
X7164643Y-7182976D01*
X7145595Y-7173452D01*
X7136071Y-7154405D01*
X7136071Y-7078214D01*
X7145595Y-7059167D01*
X7164643Y-7049643D01*
X7202738Y-7049643D01*
X7221786Y-7059167D01*
X7231309Y-7078214D01*
X7231309Y-7097262D01*
X7136071Y-7116309D01*
X7307500Y-7173452D02*
X7326548Y-7182976D01*
X7364643Y-7182976D01*
X7383690Y-7173452D01*
X7393214Y-7154405D01*
X7393214Y-7144881D01*
X7383690Y-7125833D01*
X7364643Y-7116309D01*
X7336071Y-7116309D01*
X7317024Y-7106786D01*
X7307500Y-7087738D01*
X7307500Y-7078214D01*
X7317024Y-7059167D01*
X7336071Y-7049643D01*
X7364643Y-7049643D01*
X7383690Y-7059167D01*
X7459881Y-7259167D02*
X7469405Y-7249643D01*
X7488452Y-7221071D01*
X7497976Y-7202024D01*
X7507500Y-7173452D01*
X7517024Y-7125833D01*
X7517024Y-7087738D01*
X7507500Y-7040119D01*
X7497976Y-7011548D01*
X7488452Y-6992500D01*
X7469405Y-6963928D01*
X7459881Y-6954405D01*
D13*
X2497500Y-7356500D02*
G75*
G03*
X2497500Y-7356500I-20000J0D01*
G01*
D11*
X2793214Y-7246976D02*
X2812262Y-7246976D01*
X2831309Y-7256500D01*
X2840833Y-7266024D01*
X2850357Y-7285071D01*
X2859881Y-7323167D01*
X2859881Y-7370786D01*
X2850357Y-7408881D01*
X2840833Y-7427928D01*
X2831309Y-7437452D01*
X2812262Y-7446976D01*
X2793214Y-7446976D01*
X2774167Y-7437452D01*
X2764643Y-7427928D01*
X2755119Y-7408881D01*
X2745595Y-7370786D01*
X2745595Y-7323167D01*
X2755119Y-7285071D01*
X2764643Y-7266024D01*
X2774167Y-7256500D01*
X2793214Y-7246976D01*
X2945595Y-7427928D02*
X2955119Y-7437452D01*
X2945595Y-7446976D01*
X2936071Y-7437452D01*
X2945595Y-7427928D01*
X2945595Y-7446976D01*
X3126548Y-7313643D02*
X3126548Y-7446976D01*
X3078928Y-7237452D02*
X3031309Y-7380309D01*
X3155119Y-7380309D01*
X3269405Y-7246976D02*
X3288452Y-7246976D01*
X3307500Y-7256500D01*
X3317024Y-7266024D01*
X3326548Y-7285071D01*
X3336071Y-7323167D01*
X3336071Y-7370786D01*
X3326548Y-7408881D01*
X3317024Y-7427928D01*
X3307500Y-7437452D01*
X3288452Y-7446976D01*
X3269405Y-7446976D01*
X3250357Y-7437452D01*
X3240833Y-7427928D01*
X3231309Y-7408881D01*
X3221786Y-7370786D01*
X3221786Y-7323167D01*
X3231309Y-7285071D01*
X3240833Y-7266024D01*
X3250357Y-7256500D01*
X3269405Y-7246976D01*
X3459881Y-7246976D02*
X3478928Y-7246976D01*
X3497976Y-7256500D01*
X3507500Y-7266024D01*
X3517024Y-7285071D01*
X3526548Y-7323167D01*
X3526548Y-7370786D01*
X3517024Y-7408881D01*
X3507500Y-7427928D01*
X3497976Y-7437452D01*
X3478928Y-7446976D01*
X3459881Y-7446976D01*
X3440833Y-7437452D01*
X3431309Y-7427928D01*
X3421786Y-7408881D01*
X3412262Y-7370786D01*
X3412262Y-7323167D01*
X3421786Y-7285071D01*
X3431309Y-7266024D01*
X3440833Y-7256500D01*
X3459881Y-7246976D01*
X3612262Y-7446976D02*
X3612262Y-7313643D01*
X3612262Y-7332690D02*
X3621786Y-7323167D01*
X3640833Y-7313643D01*
X3669405Y-7313643D01*
X3688452Y-7323167D01*
X3697976Y-7342214D01*
X3697976Y-7446976D01*
X3697976Y-7342214D02*
X3707500Y-7323167D01*
X3726548Y-7313643D01*
X3755119Y-7313643D01*
X3774167Y-7323167D01*
X3783690Y-7342214D01*
X3783690Y-7446976D01*
X3878928Y-7446976D02*
X3878928Y-7313643D01*
X3878928Y-7332690D02*
X3888452Y-7323167D01*
X3907500Y-7313643D01*
X3936071Y-7313643D01*
X3955119Y-7323167D01*
X3964643Y-7342214D01*
X3964643Y-7446976D01*
X3964643Y-7342214D02*
X3974167Y-7323167D01*
X3993214Y-7313643D01*
X4021786Y-7313643D01*
X4040833Y-7323167D01*
X4050357Y-7342214D01*
X4050357Y-7446976D01*
X4440833Y-7237452D02*
X4269405Y-7494595D01*
X4697976Y-7246976D02*
X4717024Y-7246976D01*
X4736071Y-7256500D01*
X4745595Y-7266024D01*
X4755119Y-7285071D01*
X4764643Y-7323167D01*
X4764643Y-7370786D01*
X4755119Y-7408881D01*
X4745595Y-7427928D01*
X4736071Y-7437452D01*
X4717024Y-7446976D01*
X4697976Y-7446976D01*
X4678929Y-7437452D01*
X4669405Y-7427928D01*
X4659881Y-7408881D01*
X4650357Y-7370786D01*
X4650357Y-7323167D01*
X4659881Y-7285071D01*
X4669405Y-7266024D01*
X4678929Y-7256500D01*
X4697976Y-7246976D01*
X4850357Y-7427928D02*
X4859881Y-7437452D01*
X4850357Y-7446976D01*
X4840833Y-7437452D01*
X4850357Y-7427928D01*
X4850357Y-7446976D01*
X4983690Y-7246976D02*
X5002738Y-7246976D01*
X5021786Y-7256500D01*
X5031310Y-7266024D01*
X5040833Y-7285071D01*
X5050357Y-7323167D01*
X5050357Y-7370786D01*
X5040833Y-7408881D01*
X5031310Y-7427928D01*
X5021786Y-7437452D01*
X5002738Y-7446976D01*
X4983690Y-7446976D01*
X4964643Y-7437452D01*
X4955119Y-7427928D01*
X4945595Y-7408881D01*
X4936071Y-7370786D01*
X4936071Y-7323167D01*
X4945595Y-7285071D01*
X4955119Y-7266024D01*
X4964643Y-7256500D01*
X4983690Y-7246976D01*
X5240833Y-7446976D02*
X5126548Y-7446976D01*
X5183690Y-7446976D02*
X5183690Y-7246976D01*
X5164643Y-7275548D01*
X5145595Y-7294595D01*
X5126548Y-7304119D01*
X5421786Y-7246976D02*
X5326548Y-7246976D01*
X5317024Y-7342214D01*
X5326548Y-7332690D01*
X5345595Y-7323167D01*
X5393214Y-7323167D01*
X5412262Y-7332690D01*
X5421786Y-7342214D01*
X5431310Y-7361262D01*
X5431310Y-7408881D01*
X5421786Y-7427928D01*
X5412262Y-7437452D01*
X5393214Y-7446976D01*
X5345595Y-7446976D01*
X5326548Y-7437452D01*
X5317024Y-7427928D01*
X5497976Y-7246976D02*
X5631309Y-7246976D01*
X5545595Y-7446976D01*
X5697976Y-7246976D02*
X5697976Y-7285071D01*
X5774167Y-7246976D02*
X5774167Y-7285071D01*
X6069405Y-7523167D02*
X6059881Y-7513643D01*
X6040833Y-7485071D01*
X6031309Y-7466024D01*
X6021786Y-7437452D01*
X6012262Y-7389833D01*
X6012262Y-7351738D01*
X6021786Y-7304119D01*
X6031309Y-7275548D01*
X6040833Y-7256500D01*
X6059881Y-7227928D01*
X6069405Y-7218405D01*
X6136071Y-7266024D02*
X6145595Y-7256500D01*
X6164643Y-7246976D01*
X6212262Y-7246976D01*
X6231309Y-7256500D01*
X6240833Y-7266024D01*
X6250357Y-7285071D01*
X6250357Y-7304119D01*
X6240833Y-7332690D01*
X6126548Y-7446976D01*
X6250357Y-7446976D01*
X6345595Y-7446976D02*
X6383690Y-7446976D01*
X6402738Y-7437452D01*
X6412262Y-7427928D01*
X6431309Y-7399357D01*
X6440833Y-7361262D01*
X6440833Y-7285071D01*
X6431309Y-7266024D01*
X6421786Y-7256500D01*
X6402738Y-7246976D01*
X6364643Y-7246976D01*
X6345595Y-7256500D01*
X6336071Y-7266024D01*
X6326548Y-7285071D01*
X6326548Y-7332690D01*
X6336071Y-7351738D01*
X6345595Y-7361262D01*
X6364643Y-7370786D01*
X6402738Y-7370786D01*
X6421786Y-7361262D01*
X6431309Y-7351738D01*
X6440833Y-7332690D01*
X6536071Y-7446976D02*
X6574167Y-7446976D01*
X6593214Y-7437452D01*
X6602738Y-7427928D01*
X6621786Y-7399357D01*
X6631309Y-7361262D01*
X6631309Y-7285071D01*
X6621786Y-7266024D01*
X6612262Y-7256500D01*
X6593214Y-7246976D01*
X6555119Y-7246976D01*
X6536071Y-7256500D01*
X6526548Y-7266024D01*
X6517024Y-7285071D01*
X6517024Y-7332690D01*
X6526548Y-7351738D01*
X6536071Y-7361262D01*
X6555119Y-7370786D01*
X6593214Y-7370786D01*
X6612262Y-7361262D01*
X6621786Y-7351738D01*
X6631309Y-7332690D01*
X6869405Y-7446976D02*
X6869405Y-7246976D01*
X6955119Y-7446976D02*
X6955119Y-7342214D01*
X6945595Y-7323167D01*
X6926548Y-7313643D01*
X6897976Y-7313643D01*
X6878928Y-7323167D01*
X6869405Y-7332690D01*
X7078928Y-7446976D02*
X7059881Y-7437452D01*
X7050357Y-7427928D01*
X7040833Y-7408881D01*
X7040833Y-7351738D01*
X7050357Y-7332690D01*
X7059881Y-7323167D01*
X7078928Y-7313643D01*
X7107500Y-7313643D01*
X7126548Y-7323167D01*
X7136071Y-7332690D01*
X7145595Y-7351738D01*
X7145595Y-7408881D01*
X7136071Y-7427928D01*
X7126548Y-7437452D01*
X7107500Y-7446976D01*
X7078928Y-7446976D01*
X7259881Y-7446976D02*
X7240833Y-7437452D01*
X7231309Y-7418405D01*
X7231309Y-7246976D01*
X7412262Y-7437452D02*
X7393214Y-7446976D01*
X7355119Y-7446976D01*
X7336071Y-7437452D01*
X7326548Y-7418405D01*
X7326548Y-7342214D01*
X7336071Y-7323167D01*
X7355119Y-7313643D01*
X7393214Y-7313643D01*
X7412262Y-7323167D01*
X7421786Y-7342214D01*
X7421786Y-7361262D01*
X7326548Y-7380309D01*
X7497976Y-7437452D02*
X7517024Y-7446976D01*
X7555119Y-7446976D01*
X7574167Y-7437452D01*
X7583690Y-7418405D01*
X7583690Y-7408881D01*
X7574167Y-7389833D01*
X7555119Y-7380309D01*
X7526548Y-7380309D01*
X7507500Y-7370786D01*
X7497976Y-7351738D01*
X7497976Y-7342214D01*
X7507500Y-7323167D01*
X7526548Y-7313643D01*
X7555119Y-7313643D01*
X7574167Y-7323167D01*
X7650357Y-7523167D02*
X7659881Y-7513643D01*
X7678928Y-7485071D01*
X7688452Y-7466024D01*
X7697976Y-7437452D01*
X7707500Y-7389833D01*
X7707500Y-7351738D01*
X7697976Y-7304119D01*
X7688452Y-7275548D01*
X7678928Y-7256500D01*
X7659881Y-7227928D01*
X7650357Y-7218405D01*
D14*
X2467500Y-7590500D02*
X2467500Y-7650500D01*
X2437500Y-7620500D02*
X2497500Y-7620500D01*
D11*
X2793214Y-7510976D02*
X2812262Y-7510976D01*
X2831309Y-7520500D01*
X2840833Y-7530024D01*
X2850357Y-7549071D01*
X2859881Y-7587167D01*
X2859881Y-7634786D01*
X2850357Y-7672881D01*
X2840833Y-7691928D01*
X2831309Y-7701452D01*
X2812262Y-7710976D01*
X2793214Y-7710976D01*
X2774167Y-7701452D01*
X2764643Y-7691928D01*
X2755119Y-7672881D01*
X2745595Y-7634786D01*
X2745595Y-7587167D01*
X2755119Y-7549071D01*
X2764643Y-7530024D01*
X2774167Y-7520500D01*
X2793214Y-7510976D01*
X2945595Y-7691928D02*
X2955119Y-7701452D01*
X2945595Y-7710976D01*
X2936071Y-7701452D01*
X2945595Y-7691928D01*
X2945595Y-7710976D01*
X3126548Y-7510976D02*
X3088452Y-7510976D01*
X3069405Y-7520500D01*
X3059881Y-7530024D01*
X3040833Y-7558595D01*
X3031309Y-7596690D01*
X3031309Y-7672881D01*
X3040833Y-7691928D01*
X3050357Y-7701452D01*
X3069405Y-7710976D01*
X3107500Y-7710976D01*
X3126548Y-7701452D01*
X3136071Y-7691928D01*
X3145595Y-7672881D01*
X3145595Y-7625262D01*
X3136071Y-7606214D01*
X3126548Y-7596690D01*
X3107500Y-7587167D01*
X3069405Y-7587167D01*
X3050357Y-7596690D01*
X3040833Y-7606214D01*
X3031309Y-7625262D01*
X3269405Y-7510976D02*
X3288452Y-7510976D01*
X3307500Y-7520500D01*
X3317024Y-7530024D01*
X3326548Y-7549071D01*
X3336071Y-7587167D01*
X3336071Y-7634786D01*
X3326548Y-7672881D01*
X3317024Y-7691928D01*
X3307500Y-7701452D01*
X3288452Y-7710976D01*
X3269405Y-7710976D01*
X3250357Y-7701452D01*
X3240833Y-7691928D01*
X3231309Y-7672881D01*
X3221786Y-7634786D01*
X3221786Y-7587167D01*
X3231309Y-7549071D01*
X3240833Y-7530024D01*
X3250357Y-7520500D01*
X3269405Y-7510976D01*
X3459881Y-7510976D02*
X3478928Y-7510976D01*
X3497976Y-7520500D01*
X3507500Y-7530024D01*
X3517024Y-7549071D01*
X3526548Y-7587167D01*
X3526548Y-7634786D01*
X3517024Y-7672881D01*
X3507500Y-7691928D01*
X3497976Y-7701452D01*
X3478928Y-7710976D01*
X3459881Y-7710976D01*
X3440833Y-7701452D01*
X3431309Y-7691928D01*
X3421786Y-7672881D01*
X3412262Y-7634786D01*
X3412262Y-7587167D01*
X3421786Y-7549071D01*
X3431309Y-7530024D01*
X3440833Y-7520500D01*
X3459881Y-7510976D01*
X3612262Y-7710976D02*
X3612262Y-7577643D01*
X3612262Y-7596690D02*
X3621786Y-7587167D01*
X3640833Y-7577643D01*
X3669405Y-7577643D01*
X3688452Y-7587167D01*
X3697976Y-7606214D01*
X3697976Y-7710976D01*
X3697976Y-7606214D02*
X3707500Y-7587167D01*
X3726548Y-7577643D01*
X3755119Y-7577643D01*
X3774167Y-7587167D01*
X3783690Y-7606214D01*
X3783690Y-7710976D01*
X3878928Y-7710976D02*
X3878928Y-7577643D01*
X3878928Y-7596690D02*
X3888452Y-7587167D01*
X3907500Y-7577643D01*
X3936071Y-7577643D01*
X3955119Y-7587167D01*
X3964643Y-7606214D01*
X3964643Y-7710976D01*
X3964643Y-7606214D02*
X3974167Y-7587167D01*
X3993214Y-7577643D01*
X4021786Y-7577643D01*
X4040833Y-7587167D01*
X4050357Y-7606214D01*
X4050357Y-7710976D01*
X4440833Y-7501452D02*
X4269405Y-7758595D01*
X4697976Y-7510976D02*
X4717024Y-7510976D01*
X4736071Y-7520500D01*
X4745595Y-7530024D01*
X4755119Y-7549071D01*
X4764643Y-7587167D01*
X4764643Y-7634786D01*
X4755119Y-7672881D01*
X4745595Y-7691928D01*
X4736071Y-7701452D01*
X4717024Y-7710976D01*
X4697976Y-7710976D01*
X4678929Y-7701452D01*
X4669405Y-7691928D01*
X4659881Y-7672881D01*
X4650357Y-7634786D01*
X4650357Y-7587167D01*
X4659881Y-7549071D01*
X4669405Y-7530024D01*
X4678929Y-7520500D01*
X4697976Y-7510976D01*
X4850357Y-7691928D02*
X4859881Y-7701452D01*
X4850357Y-7710976D01*
X4840833Y-7701452D01*
X4850357Y-7691928D01*
X4850357Y-7710976D01*
X4983690Y-7510976D02*
X5002738Y-7510976D01*
X5021786Y-7520500D01*
X5031310Y-7530024D01*
X5040833Y-7549071D01*
X5050357Y-7587167D01*
X5050357Y-7634786D01*
X5040833Y-7672881D01*
X5031310Y-7691928D01*
X5021786Y-7701452D01*
X5002738Y-7710976D01*
X4983690Y-7710976D01*
X4964643Y-7701452D01*
X4955119Y-7691928D01*
X4945595Y-7672881D01*
X4936071Y-7634786D01*
X4936071Y-7587167D01*
X4945595Y-7549071D01*
X4955119Y-7530024D01*
X4964643Y-7520500D01*
X4983690Y-7510976D01*
X5126548Y-7530024D02*
X5136071Y-7520500D01*
X5155119Y-7510976D01*
X5202738Y-7510976D01*
X5221786Y-7520500D01*
X5231310Y-7530024D01*
X5240833Y-7549071D01*
X5240833Y-7568119D01*
X5231310Y-7596690D01*
X5117024Y-7710976D01*
X5240833Y-7710976D01*
X5307500Y-7510976D02*
X5431310Y-7510976D01*
X5364643Y-7587167D01*
X5393214Y-7587167D01*
X5412262Y-7596690D01*
X5421786Y-7606214D01*
X5431310Y-7625262D01*
X5431310Y-7672881D01*
X5421786Y-7691928D01*
X5412262Y-7701452D01*
X5393214Y-7710976D01*
X5336071Y-7710976D01*
X5317024Y-7701452D01*
X5307500Y-7691928D01*
X5602738Y-7510976D02*
X5564643Y-7510976D01*
X5545595Y-7520500D01*
X5536071Y-7530024D01*
X5517024Y-7558595D01*
X5507500Y-7596690D01*
X5507500Y-7672881D01*
X5517024Y-7691928D01*
X5526548Y-7701452D01*
X5545595Y-7710976D01*
X5583690Y-7710976D01*
X5602738Y-7701452D01*
X5612262Y-7691928D01*
X5621786Y-7672881D01*
X5621786Y-7625262D01*
X5612262Y-7606214D01*
X5602738Y-7596690D01*
X5583690Y-7587167D01*
X5545595Y-7587167D01*
X5526548Y-7596690D01*
X5517024Y-7606214D01*
X5507500Y-7625262D01*
X5697976Y-7510976D02*
X5697976Y-7549071D01*
X5774167Y-7510976D02*
X5774167Y-7549071D01*
X6069405Y-7787167D02*
X6059881Y-7777643D01*
X6040833Y-7749071D01*
X6031309Y-7730024D01*
X6021786Y-7701452D01*
X6012262Y-7653833D01*
X6012262Y-7615738D01*
X6021786Y-7568119D01*
X6031309Y-7539548D01*
X6040833Y-7520500D01*
X6059881Y-7491928D01*
X6069405Y-7482405D01*
X6183690Y-7510976D02*
X6202738Y-7510976D01*
X6221786Y-7520500D01*
X6231309Y-7530024D01*
X6240833Y-7549071D01*
X6250357Y-7587167D01*
X6250357Y-7634786D01*
X6240833Y-7672881D01*
X6231309Y-7691928D01*
X6221786Y-7701452D01*
X6202738Y-7710976D01*
X6183690Y-7710976D01*
X6164643Y-7701452D01*
X6155119Y-7691928D01*
X6145595Y-7672881D01*
X6136071Y-7634786D01*
X6136071Y-7587167D01*
X6145595Y-7549071D01*
X6155119Y-7530024D01*
X6164643Y-7520500D01*
X6183690Y-7510976D01*
X6488452Y-7710976D02*
X6488452Y-7510976D01*
X6574167Y-7710976D02*
X6574167Y-7606214D01*
X6564643Y-7587167D01*
X6545595Y-7577643D01*
X6517024Y-7577643D01*
X6497976Y-7587167D01*
X6488452Y-7596690D01*
X6697976Y-7710976D02*
X6678928Y-7701452D01*
X6669405Y-7691928D01*
X6659881Y-7672881D01*
X6659881Y-7615738D01*
X6669405Y-7596690D01*
X6678928Y-7587167D01*
X6697976Y-7577643D01*
X6726548Y-7577643D01*
X6745595Y-7587167D01*
X6755119Y-7596690D01*
X6764643Y-7615738D01*
X6764643Y-7672881D01*
X6755119Y-7691928D01*
X6745595Y-7701452D01*
X6726548Y-7710976D01*
X6697976Y-7710976D01*
X6878928Y-7710976D02*
X6859881Y-7701452D01*
X6850357Y-7682405D01*
X6850357Y-7510976D01*
X7031309Y-7701452D02*
X7012262Y-7710976D01*
X6974167Y-7710976D01*
X6955119Y-7701452D01*
X6945595Y-7682405D01*
X6945595Y-7606214D01*
X6955119Y-7587167D01*
X6974167Y-7577643D01*
X7012262Y-7577643D01*
X7031309Y-7587167D01*
X7040833Y-7606214D01*
X7040833Y-7625262D01*
X6945595Y-7644309D01*
X7117024Y-7701452D02*
X7136071Y-7710976D01*
X7174167Y-7710976D01*
X7193214Y-7701452D01*
X7202738Y-7682405D01*
X7202738Y-7672881D01*
X7193214Y-7653833D01*
X7174167Y-7644309D01*
X7145595Y-7644309D01*
X7126548Y-7634786D01*
X7117024Y-7615738D01*
X7117024Y-7606214D01*
X7126548Y-7587167D01*
X7145595Y-7577643D01*
X7174167Y-7577643D01*
X7193214Y-7587167D01*
X7440833Y-7634786D02*
X7593214Y-7634786D01*
X7517024Y-7710976D02*
X7517024Y-7558595D01*
X7926548Y-7577643D02*
X7926548Y-7710976D01*
X7878928Y-7501452D02*
X7831309Y-7644309D01*
X7955119Y-7644309D01*
X8174167Y-7701452D02*
X8193214Y-7710976D01*
X8231309Y-7710976D01*
X8250357Y-7701452D01*
X8259881Y-7682405D01*
X8259881Y-7672881D01*
X8250357Y-7653833D01*
X8231309Y-7644309D01*
X8202738Y-7644309D01*
X8183690Y-7634786D01*
X8174167Y-7615738D01*
X8174167Y-7606214D01*
X8183690Y-7587167D01*
X8202738Y-7577643D01*
X8231309Y-7577643D01*
X8250357Y-7587167D01*
X8374167Y-7710976D02*
X8355119Y-7701452D01*
X8345595Y-7682405D01*
X8345595Y-7510976D01*
X8478929Y-7710976D02*
X8459881Y-7701452D01*
X8450357Y-7691928D01*
X8440833Y-7672881D01*
X8440833Y-7615738D01*
X8450357Y-7596690D01*
X8459881Y-7587167D01*
X8478929Y-7577643D01*
X8507500Y-7577643D01*
X8526548Y-7587167D01*
X8536071Y-7596690D01*
X8545595Y-7615738D01*
X8545595Y-7672881D01*
X8536071Y-7691928D01*
X8526548Y-7701452D01*
X8507500Y-7710976D01*
X8478929Y-7710976D01*
X8602738Y-7577643D02*
X8678929Y-7577643D01*
X8631310Y-7510976D02*
X8631310Y-7682405D01*
X8640833Y-7701452D01*
X8659881Y-7710976D01*
X8678929Y-7710976D01*
X8736071Y-7701452D02*
X8755119Y-7710976D01*
X8793214Y-7710976D01*
X8812262Y-7701452D01*
X8821786Y-7682405D01*
X8821786Y-7672881D01*
X8812262Y-7653833D01*
X8793214Y-7644309D01*
X8764643Y-7644309D01*
X8745595Y-7634786D01*
X8736071Y-7615738D01*
X8736071Y-7606214D01*
X8745595Y-7587167D01*
X8764643Y-7577643D01*
X8793214Y-7577643D01*
X8812262Y-7587167D01*
X8888452Y-7787167D02*
X8897976Y-7777643D01*
X8917024Y-7749071D01*
X8926548Y-7730024D01*
X8936071Y-7701452D01*
X8945595Y-7653833D01*
X8945595Y-7615738D01*
X8936071Y-7568119D01*
X8926548Y-7539548D01*
X8917024Y-7520500D01*
X8897976Y-7491928D01*
X8888452Y-7482405D01*
D15*
X2482856Y-7919856D02*
X2482856Y-7849144D01*
X2412144Y-7849144D01*
X2412144Y-7919856D01*
X2482856Y-7919856D01*
D11*
X2859881Y-7974976D02*
X2745595Y-7974976D01*
X2802738Y-7974976D02*
X2802738Y-7774976D01*
X2783690Y-7803548D01*
X2764643Y-7822595D01*
X2745595Y-7832119D01*
X2945595Y-7955928D02*
X2955119Y-7965452D01*
X2945595Y-7974976D01*
X2936071Y-7965452D01*
X2945595Y-7955928D01*
X2945595Y-7974976D01*
X3078928Y-7774976D02*
X3097976Y-7774976D01*
X3117024Y-7784500D01*
X3126548Y-7794024D01*
X3136071Y-7813071D01*
X3145595Y-7851167D01*
X3145595Y-7898786D01*
X3136071Y-7936881D01*
X3126548Y-7955928D01*
X3117024Y-7965452D01*
X3097976Y-7974976D01*
X3078928Y-7974976D01*
X3059881Y-7965452D01*
X3050357Y-7955928D01*
X3040833Y-7936881D01*
X3031309Y-7898786D01*
X3031309Y-7851167D01*
X3040833Y-7813071D01*
X3050357Y-7794024D01*
X3059881Y-7784500D01*
X3078928Y-7774976D01*
X3269405Y-7774976D02*
X3288452Y-7774976D01*
X3307500Y-7784500D01*
X3317024Y-7794024D01*
X3326548Y-7813071D01*
X3336071Y-7851167D01*
X3336071Y-7898786D01*
X3326548Y-7936881D01*
X3317024Y-7955928D01*
X3307500Y-7965452D01*
X3288452Y-7974976D01*
X3269405Y-7974976D01*
X3250357Y-7965452D01*
X3240833Y-7955928D01*
X3231309Y-7936881D01*
X3221786Y-7898786D01*
X3221786Y-7851167D01*
X3231309Y-7813071D01*
X3240833Y-7794024D01*
X3250357Y-7784500D01*
X3269405Y-7774976D01*
X3459881Y-7774976D02*
X3478928Y-7774976D01*
X3497976Y-7784500D01*
X3507500Y-7794024D01*
X3517024Y-7813071D01*
X3526548Y-7851167D01*
X3526548Y-7898786D01*
X3517024Y-7936881D01*
X3507500Y-7955928D01*
X3497976Y-7965452D01*
X3478928Y-7974976D01*
X3459881Y-7974976D01*
X3440833Y-7965452D01*
X3431309Y-7955928D01*
X3421786Y-7936881D01*
X3412262Y-7898786D01*
X3412262Y-7851167D01*
X3421786Y-7813071D01*
X3431309Y-7794024D01*
X3440833Y-7784500D01*
X3459881Y-7774976D01*
X3612262Y-7974976D02*
X3612262Y-7841643D01*
X3612262Y-7860690D02*
X3621786Y-7851167D01*
X3640833Y-7841643D01*
X3669405Y-7841643D01*
X3688452Y-7851167D01*
X3697976Y-7870214D01*
X3697976Y-7974976D01*
X3697976Y-7870214D02*
X3707500Y-7851167D01*
X3726548Y-7841643D01*
X3755119Y-7841643D01*
X3774167Y-7851167D01*
X3783690Y-7870214D01*
X3783690Y-7974976D01*
X3878928Y-7974976D02*
X3878928Y-7841643D01*
X3878928Y-7860690D02*
X3888452Y-7851167D01*
X3907500Y-7841643D01*
X3936071Y-7841643D01*
X3955119Y-7851167D01*
X3964643Y-7870214D01*
X3964643Y-7974976D01*
X3964643Y-7870214D02*
X3974167Y-7851167D01*
X3993214Y-7841643D01*
X4021786Y-7841643D01*
X4040833Y-7851167D01*
X4050357Y-7870214D01*
X4050357Y-7974976D01*
X4440833Y-7765452D02*
X4269405Y-8022595D01*
X4697976Y-7774976D02*
X4717024Y-7774976D01*
X4736071Y-7784500D01*
X4745595Y-7794024D01*
X4755119Y-7813071D01*
X4764643Y-7851167D01*
X4764643Y-7898786D01*
X4755119Y-7936881D01*
X4745595Y-7955928D01*
X4736071Y-7965452D01*
X4717024Y-7974976D01*
X4697976Y-7974976D01*
X4678929Y-7965452D01*
X4669405Y-7955928D01*
X4659881Y-7936881D01*
X4650357Y-7898786D01*
X4650357Y-7851167D01*
X4659881Y-7813071D01*
X4669405Y-7794024D01*
X4678929Y-7784500D01*
X4697976Y-7774976D01*
X4850357Y-7955928D02*
X4859881Y-7965452D01*
X4850357Y-7974976D01*
X4840833Y-7965452D01*
X4850357Y-7955928D01*
X4850357Y-7974976D01*
X4983690Y-7774976D02*
X5002738Y-7774976D01*
X5021786Y-7784500D01*
X5031310Y-7794024D01*
X5040833Y-7813071D01*
X5050357Y-7851167D01*
X5050357Y-7898786D01*
X5040833Y-7936881D01*
X5031310Y-7955928D01*
X5021786Y-7965452D01*
X5002738Y-7974976D01*
X4983690Y-7974976D01*
X4964643Y-7965452D01*
X4955119Y-7955928D01*
X4945595Y-7936881D01*
X4936071Y-7898786D01*
X4936071Y-7851167D01*
X4945595Y-7813071D01*
X4955119Y-7794024D01*
X4964643Y-7784500D01*
X4983690Y-7774976D01*
X5117024Y-7774976D02*
X5240833Y-7774976D01*
X5174167Y-7851167D01*
X5202738Y-7851167D01*
X5221786Y-7860690D01*
X5231310Y-7870214D01*
X5240833Y-7889262D01*
X5240833Y-7936881D01*
X5231310Y-7955928D01*
X5221786Y-7965452D01*
X5202738Y-7974976D01*
X5145595Y-7974976D01*
X5126548Y-7965452D01*
X5117024Y-7955928D01*
X5336071Y-7974976D02*
X5374167Y-7974976D01*
X5393214Y-7965452D01*
X5402738Y-7955928D01*
X5421786Y-7927357D01*
X5431310Y-7889262D01*
X5431310Y-7813071D01*
X5421786Y-7794024D01*
X5412262Y-7784500D01*
X5393214Y-7774976D01*
X5355119Y-7774976D01*
X5336071Y-7784500D01*
X5326548Y-7794024D01*
X5317024Y-7813071D01*
X5317024Y-7860690D01*
X5326548Y-7879738D01*
X5336071Y-7889262D01*
X5355119Y-7898786D01*
X5393214Y-7898786D01*
X5412262Y-7889262D01*
X5421786Y-7879738D01*
X5431310Y-7860690D01*
X5602738Y-7841643D02*
X5602738Y-7974976D01*
X5555119Y-7765452D02*
X5507500Y-7908309D01*
X5631309Y-7908309D01*
X5697976Y-7774976D02*
X5697976Y-7813071D01*
X5774167Y-7774976D02*
X5774167Y-7813071D01*
X6069405Y-8051167D02*
X6059881Y-8041643D01*
X6040833Y-8013071D01*
X6031309Y-7994024D01*
X6021786Y-7965452D01*
X6012262Y-7917833D01*
X6012262Y-7879738D01*
X6021786Y-7832119D01*
X6031309Y-7803548D01*
X6040833Y-7784500D01*
X6059881Y-7755928D01*
X6069405Y-7746405D01*
X6126548Y-7774976D02*
X6250357Y-7774976D01*
X6183690Y-7851167D01*
X6212262Y-7851167D01*
X6231309Y-7860690D01*
X6240833Y-7870214D01*
X6250357Y-7889262D01*
X6250357Y-7936881D01*
X6240833Y-7955928D01*
X6231309Y-7965452D01*
X6212262Y-7974976D01*
X6155119Y-7974976D01*
X6136071Y-7965452D01*
X6126548Y-7955928D01*
X6345595Y-7974976D02*
X6383690Y-7974976D01*
X6402738Y-7965452D01*
X6412262Y-7955928D01*
X6431309Y-7927357D01*
X6440833Y-7889262D01*
X6440833Y-7813071D01*
X6431309Y-7794024D01*
X6421786Y-7784500D01*
X6402738Y-7774976D01*
X6364643Y-7774976D01*
X6345595Y-7784500D01*
X6336071Y-7794024D01*
X6326548Y-7813071D01*
X6326548Y-7860690D01*
X6336071Y-7879738D01*
X6345595Y-7889262D01*
X6364643Y-7898786D01*
X6402738Y-7898786D01*
X6421786Y-7889262D01*
X6431309Y-7879738D01*
X6440833Y-7860690D01*
X6678928Y-7974976D02*
X6678928Y-7774976D01*
X6764643Y-7974976D02*
X6764643Y-7870214D01*
X6755119Y-7851167D01*
X6736071Y-7841643D01*
X6707500Y-7841643D01*
X6688452Y-7851167D01*
X6678928Y-7860690D01*
X6888452Y-7974976D02*
X6869405Y-7965452D01*
X6859881Y-7955928D01*
X6850357Y-7936881D01*
X6850357Y-7879738D01*
X6859881Y-7860690D01*
X6869405Y-7851167D01*
X6888452Y-7841643D01*
X6917024Y-7841643D01*
X6936071Y-7851167D01*
X6945595Y-7860690D01*
X6955119Y-7879738D01*
X6955119Y-7936881D01*
X6945595Y-7955928D01*
X6936071Y-7965452D01*
X6917024Y-7974976D01*
X6888452Y-7974976D01*
X7069405Y-7974976D02*
X7050357Y-7965452D01*
X7040833Y-7946405D01*
X7040833Y-7774976D01*
X7221786Y-7965452D02*
X7202738Y-7974976D01*
X7164643Y-7974976D01*
X7145595Y-7965452D01*
X7136071Y-7946405D01*
X7136071Y-7870214D01*
X7145595Y-7851167D01*
X7164643Y-7841643D01*
X7202738Y-7841643D01*
X7221786Y-7851167D01*
X7231309Y-7870214D01*
X7231309Y-7889262D01*
X7136071Y-7908309D01*
X7307500Y-7965452D02*
X7326548Y-7974976D01*
X7364643Y-7974976D01*
X7383690Y-7965452D01*
X7393214Y-7946405D01*
X7393214Y-7936881D01*
X7383690Y-7917833D01*
X7364643Y-7908309D01*
X7336071Y-7908309D01*
X7317024Y-7898786D01*
X7307500Y-7879738D01*
X7307500Y-7870214D01*
X7317024Y-7851167D01*
X7336071Y-7841643D01*
X7364643Y-7841643D01*
X7383690Y-7851167D01*
X7459881Y-8051167D02*
X7469405Y-8041643D01*
X7488452Y-8013071D01*
X7497976Y-7994024D01*
X7507500Y-7965452D01*
X7517024Y-7917833D01*
X7517024Y-7879738D01*
X7507500Y-7832119D01*
X7497976Y-7803548D01*
X7488452Y-7784500D01*
X7469405Y-7755928D01*
X7459881Y-7746405D01*
M02*
