%TF.GenerationSoftware,KiCad,Pcbnew,7.0.5*%
%TF.CreationDate,2023-06-12T21:17:39+02:00*%
%TF.ProjectId,epaper-breakout,65706170-6572-42d6-9272-65616b6f7574,rev?*%
%TF.SameCoordinates,Original*%
%TF.FileFunction,Copper,L1,Top*%
%TF.FilePolarity,Positive*%
%FSLAX46Y46*%
G04 Gerber Fmt 4.6, Leading zero omitted, Abs format (unit mm)*
G04 Created by KiCad (PCBNEW 7.0.5) date 2023-06-12 21:17:39*
%MOMM*%
%LPD*%
G01*
G04 APERTURE LIST*
G04 Aperture macros list*
%AMRoundRect*
0 Rectangle with rounded corners*
0 $1 Rounding radius*
0 $2 $3 $4 $5 $6 $7 $8 $9 X,Y pos of 4 corners*
0 Add a 4 corners polygon primitive as box body*
4,1,4,$2,$3,$4,$5,$6,$7,$8,$9,$2,$3,0*
0 Add four circle primitives for the rounded corners*
1,1,$1+$1,$2,$3*
1,1,$1+$1,$4,$5*
1,1,$1+$1,$6,$7*
1,1,$1+$1,$8,$9*
0 Add four rect primitives between the rounded corners*
20,1,$1+$1,$2,$3,$4,$5,0*
20,1,$1+$1,$4,$5,$6,$7,0*
20,1,$1+$1,$6,$7,$8,$9,0*
20,1,$1+$1,$8,$9,$2,$3,0*%
G04 Aperture macros list end*
%TA.AperFunction,SMDPad,CuDef*%
%ADD10RoundRect,0.200000X-0.200000X-0.275000X0.200000X-0.275000X0.200000X0.275000X-0.200000X0.275000X0*%
%TD*%
%TA.AperFunction,SMDPad,CuDef*%
%ADD11R,0.800000X0.900000*%
%TD*%
%TA.AperFunction,SMDPad,CuDef*%
%ADD12RoundRect,0.200000X-0.275000X0.200000X-0.275000X-0.200000X0.275000X-0.200000X0.275000X0.200000X0*%
%TD*%
%TA.AperFunction,SMDPad,CuDef*%
%ADD13RoundRect,0.200000X0.275000X-0.200000X0.275000X0.200000X-0.275000X0.200000X-0.275000X-0.200000X0*%
%TD*%
%TA.AperFunction,SMDPad,CuDef*%
%ADD14RoundRect,0.250000X0.250000X0.475000X-0.250000X0.475000X-0.250000X-0.475000X0.250000X-0.475000X0*%
%TD*%
%TA.AperFunction,SMDPad,CuDef*%
%ADD15RoundRect,0.250000X-0.475000X0.250000X-0.475000X-0.250000X0.475000X-0.250000X0.475000X0.250000X0*%
%TD*%
%TA.AperFunction,SMDPad,CuDef*%
%ADD16RoundRect,0.243750X-0.456250X0.243750X-0.456250X-0.243750X0.456250X-0.243750X0.456250X0.243750X0*%
%TD*%
%TA.AperFunction,SMDPad,CuDef*%
%ADD17RoundRect,0.250000X0.475000X-0.250000X0.475000X0.250000X-0.475000X0.250000X-0.475000X-0.250000X0*%
%TD*%
%TA.AperFunction,SMDPad,CuDef*%
%ADD18RoundRect,0.249999X0.325001X0.650001X-0.325001X0.650001X-0.325001X-0.650001X0.325001X-0.650001X0*%
%TD*%
%TA.AperFunction,SMDPad,CuDef*%
%ADD19RoundRect,0.250000X-0.250000X-0.475000X0.250000X-0.475000X0.250000X0.475000X-0.250000X0.475000X0*%
%TD*%
%TA.AperFunction,SMDPad,CuDef*%
%ADD20RoundRect,0.249999X-0.325001X-0.650001X0.325001X-0.650001X0.325001X0.650001X-0.325001X0.650001X0*%
%TD*%
%TA.AperFunction,SMDPad,CuDef*%
%ADD21RoundRect,0.200000X0.200000X0.275000X-0.200000X0.275000X-0.200000X-0.275000X0.200000X-0.275000X0*%
%TD*%
%TA.AperFunction,SMDPad,CuDef*%
%ADD22RoundRect,0.100000X-0.100000X0.637500X-0.100000X-0.637500X0.100000X-0.637500X0.100000X0.637500X0*%
%TD*%
%TA.AperFunction,SMDPad,CuDef*%
%ADD23RoundRect,0.249997X0.925003X-0.412503X0.925003X0.412503X-0.925003X0.412503X-0.925003X-0.412503X0*%
%TD*%
%TA.AperFunction,SMDPad,CuDef*%
%ADD24R,3.900000X2.200000*%
%TD*%
%TA.AperFunction,SMDPad,CuDef*%
%ADD25R,4.200000X2.400000*%
%TD*%
%TA.AperFunction,ComponentPad*%
%ADD26C,0.508000*%
%TD*%
%TA.AperFunction,SMDPad,CuDef*%
%ADD27R,4.399999X4.399999*%
%TD*%
%TA.AperFunction,SMDPad,CuDef*%
%ADD28R,0.200000X0.850000*%
%TD*%
%TA.AperFunction,SMDPad,CuDef*%
%ADD29R,0.850000X0.200000*%
%TD*%
%TA.AperFunction,SMDPad,CuDef*%
%ADD30R,1.200000X0.900000*%
%TD*%
%TA.AperFunction,SMDPad,CuDef*%
%ADD31C,2.500000*%
%TD*%
%TA.AperFunction,SMDPad,CuDef*%
%ADD32R,3.600000X2.700000*%
%TD*%
%TA.AperFunction,SMDPad,CuDef*%
%ADD33R,0.650000X1.500000*%
%TD*%
%TA.AperFunction,ComponentPad*%
%ADD34O,1.700000X1.700000*%
%TD*%
%TA.AperFunction,ComponentPad*%
%ADD35R,1.700000X1.700000*%
%TD*%
%TA.AperFunction,SMDPad,CuDef*%
%ADD36RoundRect,0.150000X0.512500X0.150000X-0.512500X0.150000X-0.512500X-0.150000X0.512500X-0.150000X0*%
%TD*%
%TA.AperFunction,SMDPad,CuDef*%
%ADD37R,0.500000X0.375000*%
%TD*%
%TA.AperFunction,SMDPad,CuDef*%
%ADD38R,0.650000X0.300000*%
%TD*%
%TA.AperFunction,SMDPad,CuDef*%
%ADD39R,2.200000X1.800000*%
%TD*%
%TA.AperFunction,SMDPad,CuDef*%
%ADD40R,1.300000X0.300000*%
%TD*%
%TA.AperFunction,SMDPad,CuDef*%
%ADD41R,0.250000X1.300000*%
%TD*%
%TA.AperFunction,SMDPad,CuDef*%
%ADD42R,1.600000X2.800000*%
%TD*%
%TA.AperFunction,SMDPad,CuDef*%
%ADD43RoundRect,0.150000X-0.587500X-0.150000X0.587500X-0.150000X0.587500X0.150000X-0.587500X0.150000X0*%
%TD*%
%TA.AperFunction,SMDPad,CuDef*%
%ADD44R,1.500000X1.000000*%
%TD*%
%TA.AperFunction,SMDPad,CuDef*%
%ADD45RoundRect,0.150000X-0.150000X0.825000X-0.150000X-0.825000X0.150000X-0.825000X0.150000X0.825000X0*%
%TD*%
%TA.AperFunction,SMDPad,CuDef*%
%ADD46RoundRect,0.150000X-0.150000X0.512500X-0.150000X-0.512500X0.150000X-0.512500X0.150000X0.512500X0*%
%TD*%
%TA.AperFunction,SMDPad,CuDef*%
%ADD47R,1.524000X1.701800*%
%TD*%
%TA.AperFunction,SMDPad,CuDef*%
%ADD48R,0.254000X0.812800*%
%TD*%
%TA.AperFunction,SMDPad,CuDef*%
%ADD49R,0.900000X0.900000*%
%TD*%
%TA.AperFunction,SMDPad,CuDef*%
%ADD50R,1.500000X0.900000*%
%TD*%
%TA.AperFunction,SMDPad,CuDef*%
%ADD51R,0.900000X1.500000*%
%TD*%
%TA.AperFunction,SMDPad,CuDef*%
%ADD52RoundRect,0.150000X-0.825000X-0.150000X0.825000X-0.150000X0.825000X0.150000X-0.825000X0.150000X0*%
%TD*%
%TA.AperFunction,ComponentPad*%
%ADD53O,2.100000X1.000000*%
%TD*%
%TA.AperFunction,ComponentPad*%
%ADD54O,1.600000X1.000000*%
%TD*%
%TA.AperFunction,SMDPad,CuDef*%
%ADD55R,1.450000X0.600000*%
%TD*%
%TA.AperFunction,SMDPad,CuDef*%
%ADD56R,1.450000X0.300000*%
%TD*%
%TA.AperFunction,SMDPad,CuDef*%
%ADD57R,1.000000X1.800000*%
%TD*%
%TA.AperFunction,ViaPad*%
%ADD58C,0.800000*%
%TD*%
%TA.AperFunction,Conductor*%
%ADD59C,0.200000*%
%TD*%
%TA.AperFunction,Conductor*%
%ADD60C,0.250000*%
%TD*%
%TA.AperFunction,Conductor*%
%ADD61C,0.300000*%
%TD*%
%TA.AperFunction,Conductor*%
%ADD62C,1.000000*%
%TD*%
%TA.AperFunction,Conductor*%
%ADD63C,0.500000*%
%TD*%
%TA.AperFunction,Conductor*%
%ADD64C,0.750000*%
%TD*%
G04 APERTURE END LIST*
%TA.AperFunction,EtchedComponent*%
G36*
X80572000Y-55622000D02*
G01*
X80172000Y-55622000D01*
X80172000Y-55122000D01*
X80572000Y-55122000D01*
X80572000Y-55622000D01*
G37*
%TD.AperFunction*%
%TA.AperFunction,EtchedComponent*%
G36*
X81372000Y-55622000D02*
G01*
X80972000Y-55622000D01*
X80972000Y-55122000D01*
X81372000Y-55122000D01*
X81372000Y-55622000D01*
G37*
%TD.AperFunction*%
%TA.AperFunction,EtchedComponent*%
G36*
X83100000Y-51250000D02*
G01*
X82700000Y-51250000D01*
X82700000Y-50750000D01*
X83100000Y-50750000D01*
X83100000Y-51250000D01*
G37*
%TD.AperFunction*%
%TA.AperFunction,EtchedComponent*%
G36*
X82300000Y-51250000D02*
G01*
X81900000Y-51250000D01*
X81900000Y-50750000D01*
X82300000Y-50750000D01*
X82300000Y-51250000D01*
G37*
%TD.AperFunction*%
D10*
X74725000Y-25100000D03*
X73075000Y-25100000D03*
D11*
X51800000Y-21225000D03*
X52750000Y-23225000D03*
X50850000Y-23225000D03*
D12*
X50900000Y-26550000D03*
X50900000Y-24900000D03*
D13*
X52500000Y-24900000D03*
X52500000Y-26550000D03*
D11*
X51700000Y-30200000D03*
X50750000Y-28200000D03*
X52650000Y-28200000D03*
D14*
X77800000Y-46800000D03*
X79700000Y-46800000D03*
D15*
X34600000Y-57700000D03*
X34600000Y-55800000D03*
D16*
X39458000Y-61537000D03*
X39458000Y-59662000D03*
D12*
X37150000Y-57825000D03*
X37150000Y-56175000D03*
X39458000Y-57825000D03*
X39458000Y-56175000D03*
D16*
X37045000Y-61537000D03*
X37045000Y-59662000D03*
D17*
X113200000Y-58950000D03*
X113200000Y-60850000D03*
X34600000Y-59600000D03*
X34600000Y-61500000D03*
D14*
X72710000Y-52070000D03*
X74610000Y-52070000D03*
D15*
X118300000Y-56250000D03*
X118300000Y-54350000D03*
D18*
X115750000Y-63000000D03*
X118700000Y-63000000D03*
D19*
X123597000Y-21030000D03*
X121697000Y-21030000D03*
D20*
X123475000Y-55500000D03*
X120525000Y-55500000D03*
D19*
X123600000Y-24957000D03*
X121700000Y-24957000D03*
D21*
X58575000Y-23400000D03*
X60225000Y-23400000D03*
D13*
X72081200Y-55021600D03*
X72081200Y-56671600D03*
D21*
X116400000Y-61000000D03*
X118050000Y-61000000D03*
D10*
X123650000Y-19100000D03*
X122000000Y-19100000D03*
X122125000Y-57700000D03*
X120475000Y-57700000D03*
X123725000Y-22925000D03*
X122075000Y-22925000D03*
D12*
X74113200Y-56671600D03*
X74113200Y-55021600D03*
D22*
X70225000Y-28825000D03*
X69575000Y-28825000D03*
X68925000Y-28825000D03*
X68275000Y-28825000D03*
X67625000Y-28825000D03*
X66975000Y-28825000D03*
X66325000Y-28825000D03*
X65675000Y-28825000D03*
X65025000Y-28825000D03*
X64375000Y-28825000D03*
X63725000Y-28825000D03*
X63075000Y-28825000D03*
X63075000Y-23100000D03*
X63725000Y-23100000D03*
X64375000Y-23100000D03*
X65025000Y-23100000D03*
X65675000Y-23100000D03*
X66325000Y-23100000D03*
X66975000Y-23100000D03*
X67625000Y-23100000D03*
X68275000Y-23100000D03*
X68925000Y-23100000D03*
X69575000Y-23100000D03*
X70225000Y-23100000D03*
D15*
X71120000Y-38796000D03*
X71120000Y-36896000D03*
D23*
X115500000Y-53662500D03*
X115500000Y-56737500D03*
D19*
X74610000Y-40640000D03*
X72710000Y-40640000D03*
D21*
X52007000Y-46482000D03*
X53657000Y-46482000D03*
D24*
X60706000Y-53853000D03*
X60706000Y-57653000D03*
D25*
X57658000Y-34834000D03*
X57658000Y-39334000D03*
D21*
X48705000Y-48768000D03*
X50355000Y-48768000D03*
X52007000Y-48768000D03*
X53657000Y-48768000D03*
X48705000Y-46482000D03*
X50355000Y-46482000D03*
D17*
X64262000Y-58359000D03*
X64262000Y-60259000D03*
X69088000Y-53406000D03*
X69088000Y-55306000D03*
D14*
X55438000Y-45466000D03*
X57338000Y-45466000D03*
D19*
X57338000Y-48260000D03*
X55438000Y-48260000D03*
D15*
X112700000Y-56350000D03*
X112700000Y-54450000D03*
D26*
X66598800Y-47015400D03*
X63449200Y-47802800D03*
X66598800Y-44653200D03*
X65811400Y-47015400D03*
X63449200Y-44653200D03*
X65024000Y-47802800D03*
X64236600Y-46228000D03*
X64236600Y-47802800D03*
X63449200Y-45440600D03*
X65811400Y-47802800D03*
X65024000Y-46228000D03*
X66598800Y-45440600D03*
X64236600Y-47015400D03*
X65024000Y-47015400D03*
X64236600Y-44653200D03*
X65811400Y-45440600D03*
X63449200Y-47015400D03*
X66598800Y-47802800D03*
X64236600Y-45440600D03*
D27*
X65024000Y-46228000D03*
D26*
X65024000Y-44653200D03*
X65024000Y-45440600D03*
X66598800Y-46228000D03*
X65811400Y-44653200D03*
X63449200Y-46228000D03*
X65811400Y-46228000D03*
D28*
X67224001Y-49203000D03*
X66823999Y-49203000D03*
X66424000Y-49203000D03*
X66024001Y-49203000D03*
X65623999Y-49203000D03*
X65224000Y-49203000D03*
X64824000Y-49203000D03*
X64424001Y-49203000D03*
X64023999Y-49203000D03*
X63624000Y-49203000D03*
X63224001Y-49203000D03*
X62823999Y-49203000D03*
D29*
X62049000Y-48428001D03*
X62049000Y-48027999D03*
X62049000Y-47628000D03*
X62049000Y-47228001D03*
X62049000Y-46827999D03*
X62049000Y-46428000D03*
X62049000Y-46028000D03*
X62049000Y-45628001D03*
X62049000Y-45227999D03*
X62049000Y-44828000D03*
X62049000Y-44428001D03*
X62049000Y-44027999D03*
D28*
X62823999Y-43253000D03*
X63224001Y-43253000D03*
X63624000Y-43253000D03*
X64023999Y-43253000D03*
X64424001Y-43253000D03*
X64824000Y-43253000D03*
X65224000Y-43253000D03*
X65623999Y-43253000D03*
X66024001Y-43253000D03*
X66424000Y-43253000D03*
X66823999Y-43253000D03*
X67224001Y-43253000D03*
D29*
X67999000Y-44027999D03*
X67999000Y-44428001D03*
X67999000Y-44828000D03*
X67999000Y-45227999D03*
X67999000Y-45628001D03*
X67999000Y-46028000D03*
X67999000Y-46428000D03*
X67999000Y-46827999D03*
X67999000Y-47228001D03*
X67999000Y-47628000D03*
X67999000Y-48027999D03*
X67999000Y-48428001D03*
D14*
X72710000Y-49784000D03*
X74610000Y-49784000D03*
D17*
X61722000Y-37912000D03*
X61722000Y-39812000D03*
D14*
X72710000Y-42926000D03*
X74610000Y-42926000D03*
D30*
X50800000Y-53974000D03*
X50800000Y-50674000D03*
X53340000Y-50674000D03*
X53340000Y-53974000D03*
X50800000Y-44830000D03*
X50800000Y-41530000D03*
X53340000Y-41530000D03*
X53340000Y-44830000D03*
D19*
X48448000Y-44450000D03*
X46548000Y-44450000D03*
D17*
X66548000Y-36896000D03*
X66548000Y-38796000D03*
D19*
X74610000Y-47498000D03*
X72710000Y-47498000D03*
X57338000Y-43053000D03*
X55438000Y-43053000D03*
D17*
X68834000Y-36896000D03*
X68834000Y-38796000D03*
D19*
X57338000Y-50673000D03*
X55438000Y-50673000D03*
D14*
X46548000Y-50800000D03*
X48448000Y-50800000D03*
X72710000Y-45224700D03*
X74610000Y-45224700D03*
D17*
X66929000Y-53406000D03*
X66929000Y-55306000D03*
D30*
X64389000Y-53341000D03*
X64389000Y-56641000D03*
D19*
X79750000Y-39900000D03*
X77850000Y-39900000D03*
X123550000Y-17221000D03*
X121650000Y-17221000D03*
D10*
X123650000Y-15321000D03*
X122000000Y-15321000D03*
D30*
X64262000Y-38988000D03*
X64262000Y-35688000D03*
D12*
X32621000Y-61325000D03*
X32621000Y-59675000D03*
X32621000Y-58051000D03*
X32621000Y-56401000D03*
D15*
X51750000Y-36950000D03*
X51750000Y-35050000D03*
D17*
X56642000Y-53406000D03*
X56642000Y-55306000D03*
D31*
X52000000Y-60500000D03*
X44000000Y-60500000D03*
X56000000Y-60500000D03*
X70000000Y-60500000D03*
D19*
X74850000Y-30600000D03*
X72950000Y-30600000D03*
D12*
X110700000Y-56425000D03*
X110700000Y-54775000D03*
D21*
X73075000Y-28600000D03*
X74725000Y-28600000D03*
X73075000Y-26800000D03*
X74725000Y-26800000D03*
D10*
X60225000Y-26600000D03*
X58575000Y-26600000D03*
X60225000Y-25000000D03*
X58575000Y-25000000D03*
D31*
X48000000Y-60500000D03*
D32*
X35400000Y-50141000D03*
D33*
X37305000Y-52841000D03*
X36035000Y-52841000D03*
X34765000Y-52841000D03*
X33495000Y-52841000D03*
X33495000Y-47441000D03*
X34765000Y-47441000D03*
X36035000Y-47441000D03*
X37305000Y-47441000D03*
D30*
X35700000Y-39550000D03*
X35700000Y-42850000D03*
D21*
X35525000Y-45150000D03*
X37175000Y-45150000D03*
D34*
X27350000Y-51815000D03*
D35*
X27350000Y-49275000D03*
D36*
X41062500Y-38800000D03*
X43337500Y-37850000D03*
X43337500Y-39750000D03*
D37*
X39250000Y-28462500D03*
D38*
X39325000Y-29000000D03*
D37*
X39250000Y-29537500D03*
X37550000Y-29537500D03*
D38*
X37475000Y-29000000D03*
D37*
X37550000Y-28462500D03*
D39*
X116850000Y-27550000D03*
X116850000Y-50850000D03*
D40*
X113600000Y-29450000D03*
X113600000Y-29950000D03*
X113600000Y-30450000D03*
X113600000Y-30950000D03*
X113600000Y-31450000D03*
X113600000Y-31950000D03*
X113600000Y-32450000D03*
X113600000Y-32950000D03*
X113600000Y-33450000D03*
X113600000Y-33950000D03*
X113600000Y-34450000D03*
X113600000Y-34950000D03*
X113600000Y-35450000D03*
X113600000Y-35950000D03*
X113600000Y-36450000D03*
X113600000Y-36950000D03*
X113600000Y-37450000D03*
X113600000Y-37950000D03*
X113600000Y-38450000D03*
X113600000Y-38950000D03*
X113600000Y-39450000D03*
X113600000Y-39950000D03*
X113600000Y-40450000D03*
X113600000Y-40950000D03*
X113600000Y-41450000D03*
X113600000Y-41950000D03*
X113600000Y-42450000D03*
X113600000Y-42950000D03*
X113600000Y-43450000D03*
X113600000Y-43950000D03*
X113600000Y-44450000D03*
X113600000Y-44950000D03*
X113600000Y-45450000D03*
X113600000Y-45950000D03*
X113600000Y-46450000D03*
X113600000Y-46950000D03*
X113600000Y-47450000D03*
X113600000Y-47950000D03*
X113600000Y-48450000D03*
X113600000Y-48950000D03*
D19*
X39350000Y-32500000D03*
X37450000Y-32500000D03*
D41*
X98250000Y-24600000D03*
X98750000Y-24600000D03*
X99250000Y-24600000D03*
X99750000Y-24600000D03*
X100250000Y-24600000D03*
X100750000Y-24600000D03*
X101250000Y-24600000D03*
X101750000Y-24600000D03*
X102250000Y-24600000D03*
X102750000Y-24600000D03*
X103250000Y-24600000D03*
X103750000Y-24600000D03*
X104250000Y-24600000D03*
X104750000Y-24600000D03*
X105250000Y-24600000D03*
X105750000Y-24600000D03*
X106250000Y-24600000D03*
X106750000Y-24600000D03*
X107250000Y-24600000D03*
X107750000Y-24600000D03*
X108250000Y-24600000D03*
X108750000Y-24600000D03*
X109250000Y-24600000D03*
X109750000Y-24600000D03*
X110250000Y-24600000D03*
X110750000Y-24600000D03*
X111250000Y-24600000D03*
X111750000Y-24600000D03*
X112250000Y-24600000D03*
X112750000Y-24600000D03*
X113250000Y-24600000D03*
X113750000Y-24600000D03*
X114250000Y-24600000D03*
X114750000Y-24600000D03*
D42*
X96250000Y-21600000D03*
X116750000Y-21600000D03*
D43*
X32887500Y-42450000D03*
X31012500Y-43400000D03*
X31012500Y-41500000D03*
D44*
X80772000Y-56022000D03*
X80772000Y-54722000D03*
D15*
X88300000Y-22950000D03*
X88300000Y-21050000D03*
D34*
X27100000Y-17835000D03*
D35*
X27100000Y-20375000D03*
D45*
X87055000Y-31075000D03*
X85785000Y-31075000D03*
X84515000Y-31075000D03*
X83245000Y-31075000D03*
X83245000Y-26125000D03*
X84515000Y-26125000D03*
X85785000Y-26125000D03*
X87055000Y-26125000D03*
D13*
X37600000Y-24175000D03*
X37600000Y-25825000D03*
D21*
X29425000Y-38900000D03*
X31075000Y-38900000D03*
X73075000Y-23350000D03*
X74725000Y-23350000D03*
D46*
X79750000Y-44537500D03*
X77850000Y-44537500D03*
X77850000Y-42262500D03*
X78800000Y-42262500D03*
X79750000Y-42262500D03*
D47*
X116452000Y-10752450D03*
X97148000Y-10752450D03*
D48*
X98799998Y-14765650D03*
X99300000Y-14765650D03*
X99799999Y-14765650D03*
X100300000Y-14765650D03*
X100799999Y-14765650D03*
X101299998Y-14765650D03*
X101800000Y-14765650D03*
X102299999Y-14765650D03*
X102800000Y-14765650D03*
X103299999Y-14765650D03*
X103799998Y-14765650D03*
X104300000Y-14765650D03*
X104799999Y-14765650D03*
X105300000Y-14765650D03*
X105799999Y-14765650D03*
X106299998Y-14765650D03*
X106800000Y-14765650D03*
X107299999Y-14765650D03*
X107799998Y-14765650D03*
X108300000Y-14765650D03*
X108799999Y-14765650D03*
X109300000Y-14765650D03*
X109799999Y-14765650D03*
X110299998Y-14765650D03*
X110800000Y-14765650D03*
X111299999Y-14765650D03*
X111800000Y-14765650D03*
X112299999Y-14765650D03*
X112799998Y-14765650D03*
X113300000Y-14765650D03*
X113799999Y-14765650D03*
X114300000Y-14765650D03*
X114799999Y-14765650D03*
D15*
X81800000Y-22950000D03*
X81800000Y-21050000D03*
D12*
X81500000Y-29300000D03*
X81500000Y-27650000D03*
D14*
X41350000Y-41700000D03*
X43250000Y-41700000D03*
D17*
X30600000Y-56500000D03*
X30600000Y-58400000D03*
D44*
X82500000Y-51650000D03*
X82500000Y-50350000D03*
D34*
X122936000Y-27940000D03*
X122936000Y-30480000D03*
X122936000Y-33020000D03*
X122936000Y-35560000D03*
X122936000Y-38100000D03*
X122936000Y-40640000D03*
X122936000Y-43180000D03*
X122936000Y-45720000D03*
X122936000Y-48260000D03*
D35*
X122936000Y-50800000D03*
D12*
X37600000Y-37125000D03*
X37600000Y-35475000D03*
D34*
X93940000Y-11300000D03*
X91400000Y-11300000D03*
X88860000Y-11300000D03*
X86320000Y-11300000D03*
X83780000Y-11300000D03*
X81240000Y-11300000D03*
X78700000Y-11300000D03*
X76160000Y-11300000D03*
X73620000Y-11300000D03*
X71080000Y-11300000D03*
X68540000Y-11300000D03*
D35*
X66000000Y-11300000D03*
D49*
X99625000Y-50390000D03*
X96825000Y-47590000D03*
X98225000Y-47590000D03*
X99625000Y-47590000D03*
X98225000Y-50390000D03*
X96825000Y-50390000D03*
X99625000Y-48990000D03*
X96825000Y-48990000D03*
X98225000Y-48990000D03*
D50*
X87975000Y-56710000D03*
X87975000Y-55440000D03*
X87975000Y-54170000D03*
X87975000Y-52900000D03*
X87975000Y-51630000D03*
X87975000Y-50360000D03*
X87975000Y-49090000D03*
X87975000Y-47820000D03*
X87975000Y-46550000D03*
X87975000Y-45280000D03*
X87975000Y-44010000D03*
X87975000Y-42740000D03*
X87975000Y-41470000D03*
X87975000Y-40200000D03*
D51*
X89740000Y-38950000D03*
X91010000Y-38950000D03*
X92280000Y-38950000D03*
X93550000Y-38950000D03*
X94820000Y-38950000D03*
X96090000Y-38950000D03*
X97360000Y-38950000D03*
X98630000Y-38950000D03*
X99900000Y-38950000D03*
X101170000Y-38950000D03*
X102440000Y-38950000D03*
X103710000Y-38950000D03*
D50*
X105475000Y-40200000D03*
X105475000Y-41470000D03*
X105475000Y-42740000D03*
X105475000Y-44010000D03*
X105475000Y-45280000D03*
X105475000Y-46550000D03*
X105475000Y-47820000D03*
X105475000Y-49090000D03*
X105475000Y-50360000D03*
X105475000Y-51630000D03*
X105475000Y-52900000D03*
X105475000Y-54170000D03*
X105475000Y-55440000D03*
X105475000Y-56710000D03*
D34*
X62355000Y-11300000D03*
X59815000Y-11300000D03*
X57275000Y-11300000D03*
X54735000Y-11300000D03*
X52195000Y-11300000D03*
X49655000Y-11300000D03*
X47115000Y-11300000D03*
X44575000Y-11300000D03*
X42035000Y-11300000D03*
X39495000Y-11300000D03*
X36955000Y-11300000D03*
X34415000Y-11300000D03*
D35*
X31875000Y-11300000D03*
D15*
X89400000Y-31350000D03*
X89400000Y-29450000D03*
D52*
X47375000Y-22755000D03*
X47375000Y-24025000D03*
X47375000Y-25295000D03*
X47375000Y-26565000D03*
X47375000Y-27835000D03*
X47375000Y-29105000D03*
X47375000Y-30375000D03*
X47375000Y-31645000D03*
X42425000Y-31645000D03*
X42425000Y-30375000D03*
X42425000Y-29105000D03*
X42425000Y-27835000D03*
X42425000Y-26565000D03*
X42425000Y-25295000D03*
X42425000Y-24025000D03*
X42425000Y-22755000D03*
D53*
X32270000Y-34620000D03*
D54*
X28090000Y-25980000D03*
D53*
X32270000Y-25980000D03*
D54*
X28090000Y-34620000D03*
D55*
X33185000Y-27050000D03*
X33185000Y-27850000D03*
D56*
X33185000Y-28550000D03*
X33185000Y-29550000D03*
X33185000Y-31050000D03*
X33185000Y-32050000D03*
D55*
X33185000Y-32750000D03*
X33185000Y-33550000D03*
X33185000Y-33550000D03*
X33185000Y-32750000D03*
D56*
X33185000Y-31550000D03*
X33185000Y-30550000D03*
X33185000Y-30050000D03*
X33185000Y-29050000D03*
D55*
X33185000Y-27850000D03*
X33185000Y-27050000D03*
D19*
X43150000Y-35900000D03*
X41250000Y-35900000D03*
D30*
X28500000Y-40950000D03*
X28500000Y-44250000D03*
D57*
X83800000Y-22550000D03*
X86300000Y-22550000D03*
D58*
X111500000Y-45000000D03*
X100500000Y-26400000D03*
X108929797Y-32265500D03*
X93300000Y-31200000D03*
X81280000Y-18874500D03*
X112900000Y-57400000D03*
X68959500Y-21600000D03*
X68658999Y-56500000D03*
X97700000Y-26000000D03*
X76000000Y-48750000D03*
X70000000Y-21700000D03*
X34600000Y-26800000D03*
X61200000Y-33400000D03*
X37600000Y-38200000D03*
X115200000Y-43000000D03*
X76000000Y-44250000D03*
X70993000Y-46022000D03*
X81900000Y-19900000D03*
X67750000Y-35750000D03*
X65500000Y-60250000D03*
X37500000Y-31100000D03*
X68072000Y-42164000D03*
X28500000Y-38800000D03*
X74500000Y-46250000D03*
X58800000Y-32000000D03*
X71374000Y-44402000D03*
X89100000Y-21800000D03*
X102500000Y-22400000D03*
X68500000Y-35750000D03*
X124300000Y-19800000D03*
X40200000Y-35800000D03*
X89800000Y-28300000D03*
X124200000Y-21800000D03*
X115500000Y-52400000D03*
X78800000Y-43100000D03*
X58600000Y-22300000D03*
X76000000Y-39750000D03*
X54400000Y-32000000D03*
X30600000Y-59500000D03*
X33650000Y-55000000D03*
X100400000Y-46800000D03*
X45400000Y-44500000D03*
X67250000Y-58500000D03*
X54396686Y-45604099D03*
X81995500Y-25000000D03*
X123500000Y-54000000D03*
X57800000Y-31400000D03*
X118300000Y-55409500D03*
X114771491Y-54975564D03*
X55250000Y-55000000D03*
X56800000Y-32000000D03*
X44600000Y-39900000D03*
X36708582Y-29308012D03*
X77000000Y-49750000D03*
X68451743Y-49531257D03*
X55438000Y-46812000D03*
X113000000Y-27000000D03*
X124300000Y-18200000D03*
X80540000Y-46750000D03*
X67944000Y-55306000D03*
X107600000Y-56600000D03*
X80500000Y-45750000D03*
X100700000Y-50400000D03*
X62800000Y-21600000D03*
X53800000Y-35600000D03*
X111000000Y-22700000D03*
X73000000Y-57040000D03*
X86000000Y-56600000D03*
X58496777Y-47094403D03*
X54400000Y-34400000D03*
X115500000Y-61000000D03*
X66750000Y-56500000D03*
X123100000Y-57700000D03*
X76000000Y-46500000D03*
X52250000Y-34000000D03*
X109800000Y-38900000D03*
X55250000Y-56000000D03*
X31650000Y-61250000D03*
X64367281Y-51584663D03*
X49250000Y-49500000D03*
X113200000Y-61800000D03*
X116300000Y-45100000D03*
X124100000Y-26100000D03*
X45500000Y-50750000D03*
X42400000Y-21700000D03*
X60600000Y-34600000D03*
X67750000Y-57500000D03*
X64000000Y-37750000D03*
X67604000Y-36896000D03*
X72500000Y-37500000D03*
X55600000Y-31400000D03*
X124300000Y-16100000D03*
X114500000Y-63000000D03*
X95700000Y-50400000D03*
X37600000Y-23100000D03*
X35650000Y-62000000D03*
X75705500Y-30934015D03*
X34300000Y-33900000D03*
X124200000Y-23700000D03*
X62015534Y-36765534D03*
X113400000Y-22800000D03*
X80800000Y-40100000D03*
X63854000Y-36896000D03*
X44400000Y-41700000D03*
X53800000Y-33200000D03*
X34600000Y-45900000D03*
X62750000Y-60250000D03*
X51000000Y-34000000D03*
X112900000Y-16000000D03*
X74500000Y-48500000D03*
X76000000Y-42000000D03*
X96100000Y-46900000D03*
X38100000Y-47400000D03*
X74250000Y-44000000D03*
X49250000Y-47250000D03*
X71300000Y-36000000D03*
X76000000Y-50500000D03*
X60452000Y-48641000D03*
X117600000Y-57800000D03*
X53500000Y-49663998D03*
X113900000Y-19400000D03*
X98200000Y-20800000D03*
X78200000Y-57500000D03*
X113000000Y-19000000D03*
X121800000Y-55500000D03*
X53000000Y-45840002D03*
X102300000Y-18400000D03*
X116200000Y-48900000D03*
X60276746Y-45337029D03*
X79200000Y-58200000D03*
X115100000Y-28200000D03*
X116100000Y-16700000D03*
X76769806Y-54625000D03*
X114600000Y-21600000D03*
X121900000Y-53800000D03*
X120709500Y-53900000D03*
X75000000Y-58100000D03*
X54000000Y-59250000D03*
X121200000Y-25800000D03*
X65123990Y-41021000D03*
X114850000Y-16650000D03*
X117900000Y-29100000D03*
X98100000Y-19600000D03*
X91100000Y-50300000D03*
X55151693Y-29951693D03*
X110600000Y-27700000D03*
X75700000Y-24700000D03*
X115500000Y-32500000D03*
X63100000Y-27284500D03*
X114954092Y-44450000D03*
X117600000Y-15600000D03*
X117334015Y-31265985D03*
X72250000Y-39000000D03*
X73091535Y-53390500D03*
X98900000Y-26700000D03*
X102616000Y-25908000D03*
X64200000Y-27300000D03*
X118000000Y-32400000D03*
X67900000Y-25000000D03*
X39800000Y-24000000D03*
X76600000Y-32700000D03*
X40600000Y-25300000D03*
X75800000Y-33300000D03*
X100600000Y-13600000D03*
X118600000Y-53000000D03*
X118790500Y-30500000D03*
X75448895Y-56250000D03*
X109700000Y-13609500D03*
X35700000Y-27800000D03*
X40466337Y-28866337D03*
X35700000Y-32800000D03*
X35633940Y-60664443D03*
X78740000Y-61300000D03*
X54000000Y-30300000D03*
X79100000Y-31784500D03*
X68900000Y-25600000D03*
X100234015Y-18065985D03*
X100200000Y-20100000D03*
X78500000Y-26100000D03*
X68250000Y-38000000D03*
X70993000Y-47498000D03*
X60326257Y-43559743D03*
X68540000Y-39451000D03*
X72000000Y-18100000D03*
X69598307Y-31001693D03*
X72100000Y-22300000D03*
X65827661Y-40227659D03*
X71900000Y-27500000D03*
X66795248Y-40192747D03*
X69000000Y-32000000D03*
X67000000Y-30800000D03*
X62927794Y-38873237D03*
X70513656Y-32991465D03*
X71100000Y-49400000D03*
X58601000Y-46101000D03*
X52629276Y-47047619D03*
X52750000Y-48000000D03*
X59314705Y-47596994D03*
X80500000Y-15784500D03*
X81700000Y-34700000D03*
X71967629Y-46342244D03*
X69700000Y-33500000D03*
X68900000Y-34200000D03*
X71197092Y-41985670D03*
X64876356Y-40094004D03*
X65000000Y-31500000D03*
X73500000Y-38500000D03*
X71387944Y-42926000D03*
X65500000Y-58250000D03*
X60750000Y-39000000D03*
X57000000Y-57000000D03*
X72092259Y-39946447D03*
X59500000Y-59250000D03*
X58250000Y-59000000D03*
X71100000Y-22600000D03*
X60500000Y-39750000D03*
X73900000Y-33200000D03*
X58250000Y-57000000D03*
X62250000Y-59250000D03*
X58250000Y-58000000D03*
X63000000Y-58500000D03*
X52000000Y-38000000D03*
X61750000Y-39000000D03*
X53000000Y-37500000D03*
X57000000Y-58000000D03*
X63000000Y-57250000D03*
X60750000Y-59250000D03*
X78900000Y-44200000D03*
X67945000Y-51333000D03*
X76750000Y-53500000D03*
X57600000Y-25000000D03*
X57600000Y-26600000D03*
X89684500Y-32400000D03*
X75700000Y-28600000D03*
X75705500Y-26800000D03*
X115477597Y-58122403D03*
X80500000Y-44200000D03*
X72100000Y-29800000D03*
X79715500Y-29400000D03*
X74034500Y-25100000D03*
X111900000Y-58900000D03*
X75000000Y-22400000D03*
X115500000Y-55600000D03*
X101200000Y-28200000D03*
X102600000Y-26900000D03*
X98800000Y-13300000D03*
X91571232Y-43271232D03*
X90828768Y-42528768D03*
X78459500Y-35300000D03*
X79173237Y-35941268D03*
X89700000Y-40600000D03*
X85400000Y-15200000D03*
X84680970Y-40356952D03*
X85616735Y-40144850D03*
X86548734Y-39916764D03*
X89900000Y-25600000D03*
X82000000Y-26600000D03*
X83300000Y-46090500D03*
X101575564Y-26371491D03*
X108900179Y-31267852D03*
X111100000Y-45900000D03*
X95600000Y-32900000D03*
X109700000Y-29700000D03*
X103000000Y-50000000D03*
X102491465Y-49186344D03*
X108800000Y-29200000D03*
X102392974Y-48231910D03*
X107736233Y-29095737D03*
X101871500Y-46569000D03*
X106777322Y-29062072D03*
X101187000Y-45884500D03*
X106787116Y-28084247D03*
X105812480Y-28090853D03*
X100502500Y-45202500D03*
X104842351Y-28092952D03*
X99818000Y-44482000D03*
X104864218Y-27102348D03*
X99125000Y-43675000D03*
X98440500Y-42966421D03*
X104130116Y-26484500D03*
X116100000Y-42300000D03*
X116500000Y-41400000D03*
X116500000Y-40400000D03*
X116115500Y-38000548D03*
X116615500Y-38819475D03*
X116615500Y-36390646D03*
X116300000Y-35484500D03*
X115418078Y-34684500D03*
X116300000Y-34000000D03*
X109660982Y-27897208D03*
X90700000Y-47900000D03*
X93800000Y-32200000D03*
X94700000Y-31500000D03*
X116315632Y-33015632D03*
X91650000Y-48250000D03*
X110434500Y-26484500D03*
X90300000Y-41600000D03*
X85300000Y-16500000D03*
D59*
X42425000Y-29105000D02*
X41768000Y-28448000D01*
X41768000Y-28448000D02*
X41148000Y-28448000D01*
X41148000Y-28448000D02*
X40386000Y-27686000D01*
X40386000Y-27686000D02*
X40026500Y-27686000D01*
X40026500Y-27686000D02*
X39250000Y-28462500D01*
X42425000Y-27835000D02*
X43329000Y-27835000D01*
X43329000Y-27835000D02*
X43942000Y-28448000D01*
X43942000Y-29142828D02*
X43942000Y-28448000D01*
X43419828Y-29665000D02*
X43942000Y-29142828D01*
X39377500Y-29665000D02*
X43419828Y-29665000D01*
X39250000Y-29537500D02*
X39377500Y-29665000D01*
D60*
X90344000Y-36656000D02*
X92710000Y-34290000D01*
X90344000Y-37846000D02*
X90344000Y-36656000D01*
X92710000Y-31790000D02*
X93300000Y-31200000D01*
X89740000Y-38450000D02*
X90344000Y-37846000D01*
X89740000Y-38950000D02*
X89740000Y-38450000D01*
X92710000Y-34290000D02*
X92710000Y-31790000D01*
X111500000Y-45000000D02*
X111950000Y-45450000D01*
X108929797Y-32265500D02*
X107564297Y-30900000D01*
X107564297Y-30900000D02*
X105000000Y-30900000D01*
X111950000Y-45450000D02*
X113600000Y-45450000D01*
X100750000Y-26150000D02*
X100500000Y-26400000D01*
X105000000Y-30900000D02*
X100500000Y-26400000D01*
X100750000Y-24600000D02*
X100750000Y-26150000D01*
D61*
X78500000Y-21654500D02*
X81280000Y-18874500D01*
X78500000Y-26100000D02*
X78500000Y-21654500D01*
D60*
X75700000Y-24700000D02*
X76095000Y-24305000D01*
X76095000Y-24305000D02*
X76095000Y-21489656D01*
X89800000Y-21068396D02*
X89800000Y-24100000D01*
X76095000Y-21489656D02*
X79394656Y-18190000D01*
X79394656Y-18190000D02*
X86921604Y-18190000D01*
X86921604Y-18190000D02*
X89800000Y-21068396D01*
X93100000Y-27400000D02*
X99431263Y-27400000D01*
X89800000Y-24100000D02*
X93100000Y-27400000D01*
X99431263Y-27400000D02*
X103341264Y-31310001D01*
X103341264Y-31310001D02*
X106810000Y-31310000D01*
X106810000Y-31310000D02*
X108450000Y-32950000D01*
X108450000Y-32950000D02*
X113600000Y-32950000D01*
X98900000Y-26700000D02*
X93100000Y-26700000D01*
X90300000Y-20800000D02*
X87280000Y-17780000D01*
X93100000Y-26700000D02*
X90300000Y-23900000D01*
X90300000Y-23900000D02*
X90300000Y-20800000D01*
X87280000Y-17780000D02*
X79224828Y-17780000D01*
X79224828Y-17780000D02*
X75685000Y-21319828D01*
X75685000Y-21319828D02*
X75685000Y-23550894D01*
X75685000Y-23550894D02*
X74895894Y-24340000D01*
X74895894Y-24340000D02*
X68560000Y-24340000D01*
X68560000Y-24340000D02*
X67900000Y-25000000D01*
X80500000Y-15925000D02*
X73075000Y-23350000D01*
X80500000Y-15784500D02*
X80500000Y-15925000D01*
D61*
X84625000Y-36525000D02*
X87975000Y-39875000D01*
X87975000Y-39875000D02*
X87975000Y-40200000D01*
D62*
X63854000Y-36896000D02*
X67604000Y-36896000D01*
X67604000Y-36896000D02*
X71120000Y-36896000D01*
D63*
X67944000Y-55306000D02*
X69088000Y-55306000D01*
X66548000Y-36185998D02*
X66548000Y-36896000D01*
D61*
X99625000Y-50390000D02*
X100690000Y-50390000D01*
X118300000Y-56250000D02*
X118300000Y-55409500D01*
X123475000Y-55500000D02*
X123475000Y-54025000D01*
D59*
X67287999Y-42164000D02*
X68072000Y-42164000D01*
D63*
X56642000Y-55306000D02*
X55944000Y-55306000D01*
D61*
X98605908Y-25990000D02*
X98597954Y-25997954D01*
X111750000Y-24600000D02*
X111750000Y-25750000D01*
D63*
X66929000Y-55306000D02*
X66929000Y-56321000D01*
D61*
X98597954Y-25997954D02*
X98595908Y-26000000D01*
D59*
X66823999Y-43253000D02*
X66823999Y-42628000D01*
D61*
X102250000Y-24600000D02*
X102250000Y-22650000D01*
X123650000Y-19150000D02*
X124300000Y-19800000D01*
D59*
X67224001Y-49686872D02*
X67448129Y-49911000D01*
D61*
X79750000Y-39900000D02*
X80600000Y-39900000D01*
X33185000Y-27050000D02*
X34350000Y-27050000D01*
X37450000Y-31150000D02*
X37500000Y-31100000D01*
X115750000Y-63000000D02*
X114500000Y-63000000D01*
D63*
X71120000Y-36896000D02*
X72104000Y-36896000D01*
X48705000Y-48768000D02*
X48705000Y-48955000D01*
D61*
X107490000Y-56710000D02*
X107600000Y-56600000D01*
D63*
X45550000Y-50800000D02*
X45500000Y-50750000D01*
X72631600Y-56671600D02*
X73000000Y-57040000D01*
X31725000Y-61325000D02*
X31650000Y-61250000D01*
X61200000Y-33400000D02*
X61610010Y-33810010D01*
X51750000Y-35050000D02*
X51750000Y-34750000D01*
X79700000Y-46800000D02*
X80490000Y-46800000D01*
X34450000Y-55800000D02*
X33650000Y-55000000D01*
D61*
X112799998Y-15899998D02*
X112900000Y-16000000D01*
X86110000Y-56710000D02*
X86000000Y-56600000D01*
D59*
X67448129Y-49911000D02*
X68072000Y-49911000D01*
D63*
X64262000Y-60259000D02*
X62759000Y-60259000D01*
D59*
X58763181Y-46827999D02*
X58496777Y-47094403D01*
D61*
X96825000Y-48990000D02*
X99625000Y-48990000D01*
X74850000Y-30600000D02*
X75371485Y-30600000D01*
D63*
X55438000Y-48260000D02*
X55438000Y-46812000D01*
D61*
X123550000Y-17450000D02*
X124300000Y-18200000D01*
X96825000Y-50390000D02*
X96825000Y-47590000D01*
X96825000Y-47590000D02*
X99625000Y-47590000D01*
X100690000Y-50390000D02*
X100700000Y-50400000D01*
X89400000Y-29450000D02*
X89400000Y-28700000D01*
X98225000Y-50390000D02*
X98225000Y-47590000D01*
D63*
X55438000Y-45466000D02*
X54534785Y-45466000D01*
D59*
X64434009Y-49213008D02*
X64434009Y-51517935D01*
D61*
X123725000Y-23225000D02*
X124200000Y-23700000D01*
X43337500Y-39750000D02*
X44450000Y-39750000D01*
X58575000Y-22325000D02*
X58600000Y-22300000D01*
D63*
X69088000Y-56070999D02*
X68658999Y-56500000D01*
D61*
X42425000Y-21725000D02*
X42400000Y-21700000D01*
D63*
X66929000Y-56321000D02*
X66750000Y-56500000D01*
X71120000Y-36180000D02*
X71120000Y-36896000D01*
X54534785Y-45466000D02*
X54396686Y-45604099D01*
D61*
X95710000Y-50390000D02*
X95700000Y-50400000D01*
X68925000Y-21634500D02*
X68959500Y-21600000D01*
D63*
X68500000Y-36562000D02*
X68834000Y-36896000D01*
X34600000Y-55800000D02*
X34450000Y-55800000D01*
X73000000Y-57040000D02*
X73053200Y-57040000D01*
X51750000Y-34750000D02*
X51000000Y-34000000D01*
D61*
X112700000Y-57200000D02*
X112900000Y-57400000D01*
D59*
X70827737Y-44402000D02*
X71374000Y-44402000D01*
D63*
X73053200Y-57040000D02*
X73421600Y-56671600D01*
D61*
X115500000Y-54247055D02*
X114771491Y-54975564D01*
X88300000Y-21050000D02*
X88350000Y-21050000D01*
X123650000Y-15450000D02*
X124300000Y-16100000D01*
X102250000Y-22650000D02*
X102500000Y-22400000D01*
X115500000Y-52400000D02*
X115500000Y-53662500D01*
D63*
X55944000Y-55306000D02*
X55250000Y-56000000D01*
X66929000Y-55306000D02*
X67944000Y-55306000D01*
X55438000Y-46812000D02*
X55438000Y-45466000D01*
D61*
X41250000Y-35900000D02*
X40300000Y-35900000D01*
X75371485Y-30600000D02*
X75705500Y-30934015D01*
D63*
X61722000Y-37059068D02*
X62015534Y-36765534D01*
X48705000Y-46482000D02*
X48705000Y-46705000D01*
X51750000Y-34500000D02*
X52250000Y-34000000D01*
D61*
X99625000Y-50390000D02*
X96825000Y-50390000D01*
D63*
X71120000Y-36896000D02*
X71896000Y-36896000D01*
X34600000Y-61500000D02*
X35150000Y-61500000D01*
X48705000Y-48955000D02*
X49250000Y-49500000D01*
D62*
X61722000Y-37912000D02*
X62738000Y-36896000D01*
D63*
X79700000Y-46800000D02*
X79700000Y-46550000D01*
D61*
X68925000Y-23100000D02*
X68925000Y-21634500D01*
X69575000Y-23100000D02*
X69575000Y-22125000D01*
D60*
X110750000Y-22950000D02*
X111000000Y-22700000D01*
D63*
X69088000Y-55306000D02*
X69088000Y-56070999D01*
D61*
X33950000Y-33550000D02*
X34300000Y-33900000D01*
D63*
X71896000Y-36896000D02*
X72500000Y-37500000D01*
D62*
X62738000Y-36896000D02*
X63854000Y-36896000D01*
D61*
X88350000Y-21050000D02*
X89100000Y-21800000D01*
X123597000Y-21197000D02*
X124200000Y-21800000D01*
D59*
X37016594Y-29000000D02*
X36708582Y-29308012D01*
D61*
X63075000Y-23100000D02*
X63075000Y-21875000D01*
D63*
X67604000Y-35896000D02*
X67750000Y-35750000D01*
D61*
X105475000Y-56710000D02*
X107490000Y-56710000D01*
D59*
X67999000Y-45628001D02*
X69601736Y-45628001D01*
D61*
X122125000Y-57700000D02*
X123100000Y-57700000D01*
X87975000Y-56710000D02*
X86110000Y-56710000D01*
D63*
X61610010Y-33810010D02*
X64172012Y-33810010D01*
D61*
X123600000Y-24957000D02*
X123600000Y-25600000D01*
X89400000Y-28700000D02*
X89800000Y-28300000D01*
D59*
X64434009Y-51517935D02*
X64367281Y-51584663D01*
D63*
X37305000Y-45280000D02*
X37175000Y-45150000D01*
D61*
X29425000Y-38900000D02*
X28600000Y-38900000D01*
D63*
X37305000Y-47441000D02*
X37305000Y-45280000D01*
D61*
X42425000Y-22755000D02*
X42425000Y-21725000D01*
X113600000Y-44950000D02*
X114450000Y-44950000D01*
X99250000Y-24600000D02*
X99250000Y-25740000D01*
X123650000Y-19100000D02*
X123650000Y-19150000D01*
X113750000Y-24600000D02*
X113750000Y-23150000D01*
X116400000Y-61000000D02*
X115500000Y-61000000D01*
D63*
X67604000Y-36896000D02*
X67604000Y-35896000D01*
D61*
X123550000Y-17221000D02*
X123550000Y-17450000D01*
D59*
X64424001Y-49203000D02*
X64434009Y-49213008D01*
D61*
X113750000Y-23150000D02*
X113400000Y-22800000D01*
X80600000Y-39900000D02*
X80800000Y-40100000D01*
X113200000Y-60850000D02*
X113200000Y-61800000D01*
D60*
X110750000Y-24600000D02*
X110750000Y-22950000D01*
D59*
X70576992Y-46438008D02*
X70993000Y-46022000D01*
D61*
X100400000Y-46800000D02*
X99625000Y-47575000D01*
X116000000Y-45400000D02*
X116300000Y-45100000D01*
D59*
X62049000Y-46827999D02*
X58763181Y-46827999D01*
D61*
X123597000Y-21030000D02*
X123597000Y-21197000D01*
X83245000Y-26125000D02*
X83120500Y-26125000D01*
X115500000Y-53662500D02*
X115500000Y-54247055D01*
D63*
X71300000Y-36000000D02*
X71120000Y-36180000D01*
D61*
X37600000Y-24175000D02*
X37600000Y-23100000D01*
D63*
X74113200Y-56671600D02*
X73421600Y-56671600D01*
D61*
X81800000Y-21050000D02*
X81800000Y-20000000D01*
X30600000Y-58400000D02*
X30600000Y-59500000D01*
X44450000Y-39750000D02*
X44600000Y-39900000D01*
D63*
X51750000Y-35050000D02*
X51750000Y-34500000D01*
D61*
X111750000Y-25750000D02*
X113000000Y-27000000D01*
X123725000Y-22925000D02*
X123725000Y-23225000D01*
D59*
X66823999Y-42628000D02*
X67287999Y-42164000D01*
D61*
X99000000Y-25990000D02*
X98605908Y-25990000D01*
D59*
X68072000Y-49911000D02*
X68451743Y-49531257D01*
D61*
X99625000Y-47590000D02*
X99625000Y-50390000D01*
X114900000Y-45400000D02*
X116000000Y-45400000D01*
X123650000Y-15321000D02*
X123650000Y-15450000D01*
D63*
X80490000Y-46800000D02*
X80540000Y-46750000D01*
D61*
X96135000Y-46900000D02*
X96825000Y-47590000D01*
D63*
X61722000Y-37912000D02*
X61722000Y-37059068D01*
D61*
X33185000Y-33550000D02*
X33950000Y-33550000D01*
D63*
X68500000Y-35750000D02*
X68500000Y-36562000D01*
D61*
X112700000Y-56350000D02*
X112700000Y-57200000D01*
X37450000Y-32500000D02*
X37450000Y-31150000D01*
D63*
X72081200Y-56671600D02*
X72631600Y-56671600D01*
D61*
X113600000Y-43450000D02*
X114750000Y-43450000D01*
D63*
X32621000Y-61325000D02*
X31725000Y-61325000D01*
D61*
X99625000Y-47575000D02*
X99625000Y-47590000D01*
D63*
X56642000Y-55306000D02*
X55556000Y-55306000D01*
D61*
X123600000Y-25600000D02*
X124100000Y-26100000D01*
D63*
X45400000Y-44500000D02*
X45450000Y-44450000D01*
X55556000Y-55306000D02*
X55250000Y-55000000D01*
X38059000Y-47441000D02*
X38100000Y-47400000D01*
D59*
X67224001Y-49203000D02*
X67224001Y-49686872D01*
X37475000Y-29000000D02*
X37016594Y-29000000D01*
D61*
X69575000Y-22125000D02*
X70000000Y-21700000D01*
X34350000Y-27050000D02*
X34600000Y-26800000D01*
D59*
X69601736Y-45628001D02*
X70827737Y-44402000D01*
D63*
X65491000Y-60259000D02*
X65500000Y-60250000D01*
D61*
X58575000Y-23400000D02*
X58575000Y-22325000D01*
X114750000Y-43450000D02*
X115200000Y-43000000D01*
X81800000Y-20000000D02*
X81900000Y-19900000D01*
D63*
X34765000Y-46065000D02*
X34600000Y-45900000D01*
X62759000Y-60259000D02*
X62750000Y-60250000D01*
D61*
X83120500Y-26125000D02*
X81995500Y-25000000D01*
X78800000Y-42262500D02*
X78800000Y-43100000D01*
D63*
X37305000Y-47441000D02*
X38059000Y-47441000D01*
X46548000Y-50800000D02*
X45550000Y-50800000D01*
X55438000Y-46812000D02*
X57562000Y-46812000D01*
D61*
X123475000Y-54025000D02*
X123500000Y-54000000D01*
D63*
X57844403Y-47094403D02*
X58496777Y-47094403D01*
X64172012Y-33810010D02*
X66548000Y-36185998D01*
X57562000Y-46812000D02*
X57844403Y-47094403D01*
D61*
X37600000Y-37125000D02*
X37600000Y-38200000D01*
X98595908Y-26000000D02*
X97700000Y-26000000D01*
D63*
X64262000Y-60259000D02*
X65491000Y-60259000D01*
D61*
X99250000Y-25740000D02*
X99000000Y-25990000D01*
X96825000Y-50390000D02*
X95710000Y-50390000D01*
X110250000Y-38450000D02*
X109800000Y-38900000D01*
D59*
X68009008Y-46438008D02*
X70576992Y-46438008D01*
X67999000Y-46428000D02*
X68009008Y-46438008D01*
D63*
X34765000Y-47441000D02*
X34765000Y-46065000D01*
X45450000Y-44450000D02*
X46548000Y-44450000D01*
D61*
X43250000Y-41700000D02*
X44400000Y-41700000D01*
D63*
X79700000Y-46550000D02*
X80500000Y-45750000D01*
X48705000Y-46705000D02*
X49250000Y-47250000D01*
D61*
X113600000Y-38450000D02*
X110250000Y-38450000D01*
X63075000Y-21875000D02*
X62800000Y-21600000D01*
X112799998Y-14765650D02*
X112799998Y-15899998D01*
D63*
X35150000Y-61500000D02*
X35650000Y-62000000D01*
D61*
X96100000Y-46900000D02*
X96135000Y-46900000D01*
X114450000Y-44950000D02*
X114900000Y-45400000D01*
X40300000Y-35900000D02*
X40200000Y-35800000D01*
X28600000Y-38900000D02*
X28500000Y-38800000D01*
D59*
X67999000Y-46028000D02*
X69796000Y-46028000D01*
D61*
X70612000Y-45212000D02*
X69796000Y-46028000D01*
D63*
X72697300Y-45212000D02*
X72710000Y-45224700D01*
D61*
X70739000Y-45212000D02*
X70612000Y-45212000D01*
D63*
X70739000Y-45212000D02*
X72697300Y-45212000D01*
D61*
X97390000Y-13610000D02*
X98500000Y-12500000D01*
X117265000Y-57465000D02*
X117265000Y-53135000D01*
X119500000Y-19800000D02*
X119100000Y-19400000D01*
D59*
X62049000Y-48027999D02*
X61065001Y-48027999D01*
D63*
X52611001Y-49813999D02*
X52962500Y-49462500D01*
X77600000Y-59700000D02*
X78200000Y-59100000D01*
D59*
X61065001Y-48027999D02*
X60452000Y-48641000D01*
D63*
X118050000Y-58250000D02*
X117600000Y-57800000D01*
D61*
X98200000Y-20800000D02*
X97390000Y-19990000D01*
X103299999Y-13299999D02*
X103299999Y-14765650D01*
D63*
X48000000Y-51248000D02*
X48448000Y-50800000D01*
X52962500Y-49462500D02*
X53657000Y-48768000D01*
D61*
X119510000Y-56510000D02*
X119510000Y-30705908D01*
X119510000Y-57190000D02*
X118900000Y-57800000D01*
D63*
X78200000Y-59100000D02*
X78200000Y-57500000D01*
D61*
X98500000Y-12500000D02*
X102500000Y-12500000D01*
X119100000Y-19400000D02*
X113900000Y-19400000D01*
X118900000Y-57800000D02*
X117600000Y-57800000D01*
X117590000Y-47950000D02*
X113600000Y-47950000D01*
X117265000Y-53135000D02*
X118540000Y-51860000D01*
X98200000Y-20800000D02*
X98250000Y-20850000D01*
D63*
X51660001Y-49813999D02*
X52611001Y-49813999D01*
D61*
X118540000Y-51860000D02*
X118540000Y-48900000D01*
X102500000Y-12500000D02*
X103299999Y-13299999D01*
D63*
X118050000Y-61000000D02*
X118050000Y-58250000D01*
X50800000Y-50674000D02*
X51660001Y-49813999D01*
D61*
X52962500Y-49462500D02*
X53298502Y-49462500D01*
X119500000Y-30695908D02*
X119500000Y-19800000D01*
D63*
X50520000Y-63020000D02*
X74280000Y-63020000D01*
X74280000Y-63020000D02*
X77600000Y-59700000D01*
D61*
X119510000Y-56510000D02*
X119510000Y-57190000D01*
X97390000Y-19990000D02*
X97390000Y-13610000D01*
D64*
X48448000Y-50800000D02*
X50674000Y-50800000D01*
D63*
X48000000Y-60500000D02*
X48000000Y-51248000D01*
D61*
X117600000Y-57800000D02*
X117265000Y-57465000D01*
D63*
X48000000Y-60500000D02*
X50520000Y-63020000D01*
D61*
X98250000Y-20850000D02*
X98250000Y-24600000D01*
D63*
X118700000Y-61650000D02*
X118050000Y-61000000D01*
D61*
X119510000Y-30705908D02*
X119500000Y-30695908D01*
X53298502Y-49462500D02*
X53500000Y-49663998D01*
D64*
X50674000Y-50800000D02*
X50800000Y-50674000D01*
D63*
X118700000Y-63000000D02*
X118700000Y-61650000D01*
D61*
X118540000Y-48900000D02*
X117590000Y-47950000D01*
X113000000Y-19000000D02*
X113310000Y-18690000D01*
X120000000Y-19250538D02*
X120000000Y-54975000D01*
D63*
X44000000Y-60500000D02*
X44000000Y-48898000D01*
D61*
X114194092Y-18690000D02*
X114404092Y-18900000D01*
D63*
X53344686Y-46482000D02*
X52931343Y-46068657D01*
D59*
X60567718Y-45628001D02*
X60276746Y-45337029D01*
D63*
X44000000Y-60500000D02*
X47200000Y-63700000D01*
D61*
X120475000Y-57700000D02*
X120475000Y-55550000D01*
D59*
X60567718Y-45628001D02*
X62049000Y-45628001D01*
D61*
X114250000Y-24600000D02*
X114250000Y-22550000D01*
X52931343Y-45908659D02*
X53000000Y-45840002D01*
X52931343Y-46068657D02*
X52931343Y-45908659D01*
D64*
X50420000Y-44450000D02*
X50800000Y-44830000D01*
D63*
X74800000Y-63700000D02*
X78400000Y-60100000D01*
X79200000Y-59300000D02*
X79200000Y-58200000D01*
D61*
X102300000Y-18400000D02*
X102299999Y-14765650D01*
X113600000Y-48950000D02*
X116150000Y-48950000D01*
D63*
X51692686Y-44830000D02*
X50800000Y-44830000D01*
D61*
X114404092Y-18900000D02*
X119649462Y-18900000D01*
D63*
X121800000Y-55500000D02*
X120525000Y-55500000D01*
D61*
X120475000Y-55550000D02*
X120525000Y-55500000D01*
D63*
X52931343Y-46068657D02*
X51692686Y-44830000D01*
X44000000Y-48898000D02*
X48448000Y-44450000D01*
D64*
X48448000Y-44450000D02*
X50420000Y-44450000D01*
D61*
X114250000Y-22550000D02*
X113000000Y-21300000D01*
D63*
X47200000Y-63700000D02*
X74800000Y-63700000D01*
D61*
X113310000Y-18690000D02*
X114194092Y-18690000D01*
D63*
X53657000Y-46482000D02*
X53344686Y-46482000D01*
X78400000Y-60100000D02*
X79200000Y-59300000D01*
D61*
X113000000Y-21300000D02*
X113000000Y-19000000D01*
X116150000Y-48950000D02*
X116200000Y-48900000D01*
X120000000Y-54975000D02*
X120525000Y-55500000D01*
X119649462Y-18900000D02*
X120000000Y-19250538D01*
D63*
X76769806Y-54625000D02*
X77200000Y-55055194D01*
D60*
X73660000Y-49530000D02*
X73406000Y-49784000D01*
D61*
X120800000Y-17900000D02*
X117300000Y-17900000D01*
X121900000Y-53649462D02*
X121100000Y-52849462D01*
X114750000Y-21750000D02*
X114600000Y-21600000D01*
D59*
X67999000Y-47628000D02*
X69218000Y-47628000D01*
X72306690Y-44239690D02*
X73206612Y-44239690D01*
D63*
X74086619Y-53205000D02*
X73620000Y-52738381D01*
X70029096Y-48514000D02*
X69673106Y-48158010D01*
D59*
X69492608Y-45227999D02*
X70978608Y-43741999D01*
D63*
X71391999Y-48465999D02*
X72710000Y-49784000D01*
X75349806Y-53205000D02*
X74086619Y-53205000D01*
X75940000Y-53795194D02*
X75349806Y-53205000D01*
D61*
X122000000Y-20727000D02*
X121697000Y-21030000D01*
D63*
X76454806Y-54310000D02*
X76414487Y-54310000D01*
X73620000Y-52738381D02*
X73620000Y-50694000D01*
D61*
X114350000Y-30450000D02*
X113600000Y-30450000D01*
X117300000Y-17900000D02*
X116100000Y-16700000D01*
X116100000Y-16700000D02*
X114799999Y-15399999D01*
X114799999Y-15399999D02*
X114799999Y-14765650D01*
X122790000Y-22123000D02*
X121697000Y-21030000D01*
D63*
X73620000Y-50694000D02*
X72710000Y-49784000D01*
X69673106Y-48158010D02*
X69601548Y-48086452D01*
D61*
X122790000Y-25410000D02*
X122790000Y-22123000D01*
X122000000Y-19100000D02*
X120800000Y-17900000D01*
D60*
X73660000Y-44693078D02*
X73660000Y-49530000D01*
D63*
X76769806Y-54625000D02*
X76454806Y-54310000D01*
D60*
X73406000Y-49784000D02*
X72710000Y-49784000D01*
D63*
X77200000Y-58800000D02*
X73640000Y-62360000D01*
X70350199Y-48465999D02*
X71391999Y-48465999D01*
X73640000Y-62360000D02*
X53860000Y-62360000D01*
D61*
X122000000Y-19100000D02*
X122000000Y-20727000D01*
X121900000Y-53800000D02*
X121900000Y-53649462D01*
D59*
X70978608Y-43741999D02*
X71808999Y-43741999D01*
D63*
X75940000Y-53835513D02*
X75940000Y-53795194D01*
D59*
X69218000Y-47628000D02*
X69639000Y-48049000D01*
D61*
X121100000Y-27100000D02*
X122790000Y-25410000D01*
D63*
X77200000Y-55055194D02*
X77200000Y-58800000D01*
D59*
X73206612Y-44239690D02*
X73660000Y-44693078D01*
X67999000Y-45227999D02*
X69492608Y-45227999D01*
D63*
X70029096Y-48514000D02*
X70302198Y-48514000D01*
D59*
X71808999Y-43741999D02*
X72306690Y-44239690D01*
D61*
X114750000Y-24600000D02*
X114750000Y-21750000D01*
D63*
X76414487Y-54310000D02*
X75940000Y-53835513D01*
X53860000Y-62360000D02*
X52000000Y-60500000D01*
D61*
X115100000Y-28200000D02*
X115100000Y-29700000D01*
X121100000Y-52849462D02*
X121100000Y-27100000D01*
X115100000Y-29700000D02*
X114350000Y-30450000D01*
D63*
X70302198Y-48514000D02*
X70350199Y-48465999D01*
D61*
X114850000Y-16650000D02*
X116600000Y-18400000D01*
X113600000Y-31450000D02*
X114550000Y-31450000D01*
X113799999Y-15599999D02*
X114850000Y-16650000D01*
X121200000Y-25457000D02*
X121700000Y-24957000D01*
X114550000Y-31450000D02*
X116900000Y-29100000D01*
D59*
X64824000Y-43253000D02*
X64824000Y-41320990D01*
X65623999Y-49203000D02*
X65623999Y-50510999D01*
D61*
X120500000Y-23074000D02*
X120887000Y-22687000D01*
D63*
X67310000Y-52197000D02*
X67879000Y-52197000D01*
D61*
X120500000Y-52900000D02*
X120500000Y-23074000D01*
X65913000Y-50800000D02*
X67310000Y-52197000D01*
X98910000Y-22390000D02*
X98910000Y-20410000D01*
X121700000Y-23300000D02*
X122075000Y-22925000D01*
D63*
X65600000Y-61700000D02*
X57200000Y-61700000D01*
X57200000Y-61700000D02*
X56000000Y-60500000D01*
X71680000Y-58100000D02*
X75000000Y-58100000D01*
X70440000Y-56860000D02*
X71680000Y-58100000D01*
X70440000Y-56860000D02*
X65600000Y-61700000D01*
D61*
X54750000Y-59250000D02*
X56000000Y-60500000D01*
D63*
X66040000Y-50927000D02*
X67310000Y-52197000D01*
D61*
X54000000Y-59250000D02*
X54750000Y-59250000D01*
X98750000Y-24600000D02*
X98750000Y-22550000D01*
X121200000Y-25800000D02*
X121200000Y-25457000D01*
D59*
X65623999Y-50510999D02*
X65913000Y-50800000D01*
D61*
X119800000Y-18400000D02*
X120887000Y-19487000D01*
D63*
X69088000Y-53406000D02*
X70440000Y-54758000D01*
D61*
X120709500Y-53900000D02*
X120709500Y-53109500D01*
X98750000Y-22550000D02*
X98910000Y-22390000D01*
D63*
X67879000Y-52197000D02*
X69088000Y-53406000D01*
D61*
X116900000Y-29100000D02*
X117900000Y-29100000D01*
D59*
X64824000Y-41320990D02*
X65123990Y-41021000D01*
D61*
X116600000Y-18400000D02*
X119800000Y-18400000D01*
X120887000Y-19487000D02*
X120887000Y-22687000D01*
X121700000Y-24957000D02*
X121700000Y-23300000D01*
X120887000Y-22687000D02*
X121700000Y-23500000D01*
X120709500Y-53109500D02*
X120500000Y-52900000D01*
X113799999Y-14765650D02*
X113799999Y-15599999D01*
D59*
X65913000Y-50800000D02*
X66040000Y-50927000D01*
D63*
X70440000Y-54758000D02*
X70440000Y-56860000D01*
D61*
X98910000Y-20410000D02*
X98100000Y-19600000D01*
X92100000Y-50200000D02*
X91200000Y-50200000D01*
D60*
X107550000Y-53375000D02*
X109300000Y-53375000D01*
X109300000Y-53375000D02*
X110700000Y-54775000D01*
D61*
X55151693Y-24151693D02*
X51800000Y-20800000D01*
D60*
X112375000Y-54775000D02*
X112700000Y-54450000D01*
D61*
X96070000Y-54170000D02*
X92100000Y-50200000D01*
X55151693Y-29951693D02*
X55151693Y-24151693D01*
D60*
X110700000Y-54775000D02*
X112375000Y-54775000D01*
D61*
X91200000Y-50200000D02*
X91100000Y-50300000D01*
X105475000Y-54170000D02*
X96070000Y-54170000D01*
D60*
X105475000Y-54170000D02*
X106755000Y-54170000D01*
X106755000Y-54170000D02*
X107550000Y-53375000D01*
X109750000Y-24600000D02*
X109750000Y-26850000D01*
X109750000Y-26850000D02*
X110600000Y-27700000D01*
X109750000Y-24600000D02*
X109750000Y-22401435D01*
X115500000Y-32500000D02*
X115050000Y-32950000D01*
X110299998Y-21851437D02*
X109750000Y-22401435D01*
X63100000Y-28800000D02*
X63075000Y-28825000D01*
X110299998Y-14765650D02*
X110299998Y-21851437D01*
X63100000Y-27284500D02*
X63100000Y-28800000D01*
X115050000Y-32950000D02*
X113600000Y-32950000D01*
D59*
X66424000Y-42518869D02*
X67289869Y-41653000D01*
D63*
X73701035Y-54000000D02*
X73091535Y-53390500D01*
D61*
X121650000Y-17221000D02*
X121650000Y-15671000D01*
X117290000Y-32105908D02*
X117290000Y-32694092D01*
X67627500Y-41465500D02*
X68199000Y-40894000D01*
D59*
X67440000Y-41653000D02*
X67627500Y-41465500D01*
D61*
X105459250Y-12900000D02*
X104300000Y-14059250D01*
X117334015Y-31265985D02*
X117334015Y-32061893D01*
X104300000Y-14765650D02*
X104300000Y-19700000D01*
X114954092Y-44450000D02*
X113600000Y-44450000D01*
X104750000Y-20150000D02*
X104300000Y-19700000D01*
D63*
X74200000Y-60500000D02*
X76300000Y-58400000D01*
X71324000Y-39000000D02*
X71120000Y-38796000D01*
X72250000Y-39000000D02*
X71324000Y-39000000D01*
D61*
X117600000Y-15600000D02*
X119221000Y-17221000D01*
X117290000Y-32694092D02*
X117400000Y-32804092D01*
D64*
X68421500Y-40671500D02*
X69244500Y-40671500D01*
D63*
X70000000Y-60500000D02*
X74200000Y-60500000D01*
X76300000Y-55300000D02*
X75000000Y-54000000D01*
D59*
X66424000Y-43253000D02*
X66424000Y-42518869D01*
D61*
X117600000Y-15600000D02*
X114900000Y-12900000D01*
D63*
X75000000Y-54000000D02*
X73701035Y-54000000D01*
D61*
X119221000Y-17221000D02*
X121650000Y-17221000D01*
D64*
X69244500Y-40671500D02*
X71120000Y-38796000D01*
D59*
X67627500Y-41465500D02*
X67818000Y-41275000D01*
D61*
X114900000Y-12900000D02*
X105459250Y-12900000D01*
D63*
X76300000Y-58400000D02*
X76300000Y-55300000D01*
D61*
X121650000Y-15671000D02*
X122000000Y-15321000D01*
X104750000Y-24600000D02*
X104750000Y-20150000D01*
D63*
X67818000Y-41275000D02*
X68421500Y-40671500D01*
D61*
X104300000Y-14059250D02*
X104300000Y-14765650D01*
X117400000Y-42004092D02*
X114954092Y-44450000D01*
X117334015Y-32061893D02*
X117290000Y-32105908D01*
D59*
X67289869Y-41653000D02*
X67440000Y-41653000D01*
D61*
X117400000Y-32804092D02*
X117400000Y-42004092D01*
D60*
X101750000Y-25445000D02*
X101750000Y-24600000D01*
X64200000Y-27300000D02*
X63725000Y-27775000D01*
X63725000Y-27775000D02*
X63725000Y-28825000D01*
X100799999Y-16500003D02*
X101299998Y-17000002D01*
X118000000Y-32400000D02*
X118000000Y-44500000D01*
X102213000Y-25908000D02*
X101750000Y-25445000D01*
X100799999Y-14765650D02*
X100799999Y-16500003D01*
X101750000Y-24600000D02*
X101750000Y-19450000D01*
X101299998Y-17000002D02*
X101299998Y-14765650D01*
X101750000Y-19450000D02*
X101299998Y-18999998D01*
X102616000Y-25908000D02*
X102213000Y-25908000D01*
X118000000Y-44500000D02*
X116050000Y-46450000D01*
X101299998Y-18999998D02*
X101299998Y-17000002D01*
X116050000Y-46450000D02*
X113600000Y-46450000D01*
X87055000Y-26125000D02*
X87055000Y-23305000D01*
X88300000Y-22950000D02*
X86700000Y-22950000D01*
X86700000Y-22950000D02*
X86300000Y-22550000D01*
X87055000Y-23305000D02*
X86300000Y-22550000D01*
X76640500Y-32900000D02*
X77040500Y-33300000D01*
X78120172Y-33300000D02*
X82765969Y-37945797D01*
X76640500Y-32900000D02*
X76640500Y-32740500D01*
X82765969Y-42765969D02*
X86000000Y-46000000D01*
X86830000Y-51630000D02*
X87975000Y-51630000D01*
X77040500Y-33300000D02*
X78120172Y-33300000D01*
X76640500Y-32740500D02*
X76600000Y-32700000D01*
X42400000Y-24000000D02*
X42425000Y-24025000D01*
X39800000Y-24000000D02*
X42400000Y-24000000D01*
X82765969Y-37945797D02*
X82765969Y-42765969D01*
X86000000Y-50800000D02*
X86830000Y-51630000D01*
X86000000Y-46000000D02*
X86000000Y-50800000D01*
X42420000Y-25300000D02*
X42425000Y-25295000D01*
X82355969Y-38155969D02*
X78100000Y-33900000D01*
X87975000Y-52900000D02*
X86975000Y-52900000D01*
X76400000Y-33900000D02*
X75800000Y-33300000D01*
X82355969Y-42955969D02*
X82355969Y-38155969D01*
X40600000Y-25300000D02*
X42420000Y-25300000D01*
X85500000Y-51425000D02*
X85500000Y-46100000D01*
X78100000Y-33900000D02*
X76400000Y-33900000D01*
X85500000Y-46100000D02*
X82355969Y-42955969D01*
X86975000Y-52900000D02*
X85500000Y-51425000D01*
D61*
X64023999Y-50149001D02*
X63881000Y-50292000D01*
D62*
X61976000Y-52334000D02*
X63382000Y-52334000D01*
D61*
X64023999Y-50022001D02*
X64023999Y-50149001D01*
D64*
X63382000Y-50791000D02*
X63382000Y-51553000D01*
D62*
X64023999Y-52975999D02*
X64389000Y-53341000D01*
D63*
X63134999Y-52086999D02*
X63382000Y-52334000D01*
D64*
X61976000Y-52334000D02*
X62601000Y-52334000D01*
D61*
X63881000Y-50292000D02*
X63754000Y-50419000D01*
D62*
X60706000Y-53853000D02*
X60706000Y-53604000D01*
D64*
X63382000Y-51553000D02*
X63382000Y-52334000D01*
D63*
X63754000Y-50419000D02*
X63382000Y-50791000D01*
D62*
X60706000Y-53604000D02*
X61976000Y-52334000D01*
X63382000Y-52334000D02*
X64389000Y-53341000D01*
D64*
X62601000Y-52334000D02*
X63382000Y-51553000D01*
D59*
X64023999Y-49203000D02*
X64023999Y-50022001D01*
X67191868Y-50673000D02*
X68324870Y-50673000D01*
X68324870Y-50673000D02*
X69075935Y-51424065D01*
D61*
X112900000Y-26200000D02*
X112250000Y-25550000D01*
D63*
X71100000Y-55378070D02*
X71100000Y-53448130D01*
D61*
X111800000Y-14765650D02*
X111800000Y-18900000D01*
X118600000Y-53000000D02*
X119000000Y-52600000D01*
D63*
X71583530Y-55861600D02*
X71100000Y-55378070D01*
X75448895Y-56250000D02*
X75060495Y-55861600D01*
D61*
X118790500Y-30500000D02*
X118734515Y-30555985D01*
X112300000Y-23000000D02*
X112250000Y-23050000D01*
X100300000Y-13900000D02*
X100600000Y-13600000D01*
X118400000Y-26200000D02*
X112900000Y-26200000D01*
X112250000Y-25550000D02*
X112250000Y-24600000D01*
X118800000Y-30490500D02*
X118800000Y-26600000D01*
D59*
X66424000Y-49905132D02*
X67191868Y-50673000D01*
D61*
X116250000Y-46950000D02*
X118800000Y-44400000D01*
X111800000Y-14059250D02*
X111350250Y-13609500D01*
X118790500Y-30500000D02*
X118800000Y-30490500D01*
X118800000Y-42900000D02*
X118800000Y-30509500D01*
X119000000Y-52600000D02*
X119000000Y-44400000D01*
X110390000Y-46194092D02*
X111145908Y-46950000D01*
X118800000Y-26600000D02*
X118400000Y-26200000D01*
D63*
X118600000Y-53000000D02*
X118300000Y-53300000D01*
D61*
X111145908Y-46950000D02*
X113600000Y-46950000D01*
X111350250Y-13609500D02*
X109700000Y-13609500D01*
X113600000Y-46950000D02*
X116250000Y-46950000D01*
X116244015Y-30555985D02*
X114350000Y-32450000D01*
X118734515Y-30555985D02*
X116244015Y-30555985D01*
X110390000Y-45010000D02*
X110390000Y-46194092D01*
X109799999Y-13709499D02*
X109700000Y-13609500D01*
D59*
X66424000Y-49203000D02*
X66424000Y-49905132D01*
D61*
X118800000Y-30509500D02*
X118790500Y-30500000D01*
X114350000Y-32450000D02*
X113600000Y-32450000D01*
X112250000Y-23050000D02*
X112250000Y-24600000D01*
X111800000Y-18900000D02*
X112300000Y-19400000D01*
X119000000Y-44400000D02*
X118800000Y-44200000D01*
X111450000Y-43950000D02*
X110390000Y-45010000D01*
D63*
X71100000Y-53448130D02*
X69075935Y-51424065D01*
D61*
X109799999Y-14765650D02*
X109799999Y-13709499D01*
X111800000Y-14765650D02*
X111800000Y-14059250D01*
D63*
X118300000Y-53300000D02*
X118300000Y-54350000D01*
D61*
X100300000Y-14765650D02*
X100300000Y-13900000D01*
X118800000Y-44400000D02*
X118800000Y-42900000D01*
D63*
X75060495Y-55861600D02*
X71583530Y-55861600D01*
D61*
X113600000Y-43950000D02*
X111450000Y-43950000D01*
X112300000Y-19400000D02*
X112300000Y-23000000D01*
D60*
X52750000Y-24650000D02*
X52500000Y-24900000D01*
X47375000Y-25295000D02*
X48995000Y-25295000D01*
X52750000Y-23225000D02*
X52750000Y-24650000D01*
X51815000Y-25585000D02*
X52500000Y-24900000D01*
X48995000Y-25295000D02*
X49285000Y-25585000D01*
X49285000Y-25585000D02*
X51815000Y-25585000D01*
X50900000Y-24900000D02*
X50900000Y-23275000D01*
X50900000Y-23275000D02*
X50850000Y-23225000D01*
X50885000Y-26565000D02*
X50900000Y-26550000D01*
X47375000Y-26565000D02*
X50885000Y-26565000D01*
X50900000Y-26550000D02*
X50900000Y-28050000D01*
X50900000Y-28050000D02*
X50750000Y-28200000D01*
X52650000Y-28200000D02*
X52650000Y-26700000D01*
X52650000Y-26700000D02*
X52500000Y-26550000D01*
D63*
X33920000Y-57700000D02*
X32621000Y-56401000D01*
X32200000Y-49820000D02*
X32200000Y-51546000D01*
X32621000Y-56401000D02*
X30699000Y-56401000D01*
X27200000Y-43400000D02*
X27200000Y-44820000D01*
X32200000Y-51546000D02*
X33495000Y-52841000D01*
X27200000Y-44820000D02*
X32200000Y-49820000D01*
X30600000Y-56500000D02*
X30600000Y-55065000D01*
X34600000Y-57700000D02*
X33920000Y-57700000D01*
X32621000Y-53715000D02*
X32621000Y-56401000D01*
X32887500Y-42450000D02*
X28150000Y-42450000D01*
X30600000Y-55065000D02*
X27350000Y-51815000D01*
X30699000Y-56401000D02*
X30600000Y-56500000D01*
X28150000Y-42450000D02*
X27200000Y-43400000D01*
X33495000Y-52841000D02*
X32621000Y-53715000D01*
X31725000Y-40787500D02*
X31012500Y-41500000D01*
X35650000Y-27850000D02*
X35700000Y-27800000D01*
X41350000Y-41700000D02*
X41350000Y-40587500D01*
X35700000Y-39550000D02*
X40312500Y-39550000D01*
X41350000Y-40587500D02*
X40312500Y-39550000D01*
X35700000Y-32800000D02*
X35700000Y-39550000D01*
X33185000Y-32750000D02*
X35650000Y-32750000D01*
D61*
X40332674Y-29000000D02*
X40466337Y-28866337D01*
D63*
X29050000Y-41500000D02*
X28500000Y-40950000D01*
X31012500Y-41500000D02*
X29050000Y-41500000D01*
X40312500Y-39550000D02*
X41062500Y-38800000D01*
X35700000Y-39550000D02*
X31725000Y-39550000D01*
X35650000Y-32750000D02*
X35700000Y-32800000D01*
X31725000Y-39550000D02*
X31075000Y-38900000D01*
D61*
X39325000Y-29000000D02*
X40332674Y-29000000D01*
D63*
X33185000Y-27850000D02*
X35650000Y-27850000D01*
X31725000Y-39550000D02*
X31725000Y-40787500D01*
X37150000Y-57825000D02*
X37150000Y-59557000D01*
X37150000Y-59557000D02*
X37045000Y-59662000D01*
X39458000Y-57825000D02*
X39458000Y-59662000D01*
X43150000Y-34750000D02*
X44900000Y-33000000D01*
X42425000Y-26565000D02*
X44835000Y-26565000D01*
X44900000Y-26500000D02*
X44900000Y-23700000D01*
X43337500Y-37850000D02*
X43337500Y-36087500D01*
X45845000Y-22755000D02*
X47375000Y-22755000D01*
X43150000Y-34750000D02*
X40900000Y-32500000D01*
X44900000Y-23700000D02*
X45845000Y-22755000D01*
X40900000Y-32500000D02*
X39350000Y-32500000D01*
X44900000Y-33000000D02*
X44900000Y-26500000D01*
X44835000Y-26565000D02*
X44900000Y-26500000D01*
X43150000Y-35900000D02*
X43150000Y-34750000D01*
X43337500Y-36087500D02*
X43150000Y-35900000D01*
D60*
X83400000Y-22950000D02*
X83800000Y-22550000D01*
X81800000Y-22950000D02*
X83400000Y-22950000D01*
X85785000Y-24535000D02*
X83800000Y-22550000D01*
X85785000Y-26125000D02*
X85785000Y-24535000D01*
D63*
X39458000Y-61537000D02*
X37045000Y-61537000D01*
X38959000Y-52841000D02*
X37305000Y-52841000D01*
X33495000Y-45055000D02*
X35700000Y-42850000D01*
X40200000Y-46250000D02*
X40200000Y-51600000D01*
X41000000Y-52400000D02*
X40200000Y-51600000D01*
X39458000Y-61537000D02*
X41000000Y-59995000D01*
X40200000Y-51600000D02*
X38959000Y-52841000D01*
X41000000Y-59995000D02*
X41000000Y-52400000D01*
X36800000Y-42850000D02*
X40200000Y-46250000D01*
X35700000Y-42850000D02*
X36800000Y-42850000D01*
X33495000Y-47441000D02*
X33495000Y-45055000D01*
D60*
X81050000Y-56300000D02*
X81050000Y-58990000D01*
D61*
X35633940Y-60664443D02*
X35633940Y-60633940D01*
D63*
X34525000Y-59675000D02*
X34600000Y-59600000D01*
X32621000Y-59675000D02*
X32621000Y-58051000D01*
D61*
X78740000Y-61300000D02*
X81050000Y-58990000D01*
D60*
X80772000Y-56022000D02*
X81050000Y-56300000D01*
D63*
X32621000Y-59675000D02*
X34525000Y-59675000D01*
D61*
X35633940Y-60633940D02*
X34600000Y-59600000D01*
D60*
X99799999Y-17631969D02*
X99799999Y-14765650D01*
D61*
X73075000Y-25375000D02*
X73075000Y-25100000D01*
X54000000Y-30300000D02*
X51800000Y-30300000D01*
X51800000Y-30300000D02*
X51700000Y-30200000D01*
D60*
X100750000Y-24600000D02*
X100750000Y-20650000D01*
D61*
X73600000Y-25900000D02*
X73075000Y-25375000D01*
X78300000Y-25900000D02*
X73600000Y-25900000D01*
X79100000Y-31784500D02*
X79884500Y-31784500D01*
X79884500Y-31784500D02*
X84625000Y-36525000D01*
X69400000Y-25100000D02*
X68900000Y-25600000D01*
D60*
X100234015Y-18065985D02*
X99799999Y-17631969D01*
D61*
X73075000Y-25100000D02*
X69400000Y-25100000D01*
D60*
X100750000Y-20650000D02*
X100200000Y-20100000D01*
D61*
X78500000Y-26100000D02*
X78300000Y-25900000D01*
X67512001Y-40763839D02*
X67512001Y-39675999D01*
D60*
X63881000Y-42037000D02*
X63881000Y-40894000D01*
D61*
X61049449Y-44428001D02*
X61120160Y-44428001D01*
D59*
X66024001Y-47228001D02*
X65024000Y-46228000D01*
D63*
X63881000Y-41529000D02*
X63881000Y-40640000D01*
D59*
X63624000Y-43253000D02*
X63624000Y-44828000D01*
X62049000Y-44828000D02*
X61520159Y-44828000D01*
X61520159Y-44828000D02*
X61120160Y-44428001D01*
X69723000Y-47244000D02*
X69977000Y-47498000D01*
D61*
X66802000Y-41473840D02*
X67512001Y-40763839D01*
D62*
X64454000Y-38796000D02*
X64262000Y-38988000D01*
D60*
X63624000Y-42542000D02*
X63624000Y-43253000D01*
D64*
X68540000Y-39451000D02*
X68540000Y-39090000D01*
D59*
X68437001Y-47228001D02*
X68453000Y-47244000D01*
D60*
X65024000Y-46228000D02*
X63449200Y-44653200D01*
D64*
X63881000Y-40132000D02*
X63881000Y-39369000D01*
D59*
X67999000Y-47228001D02*
X68437001Y-47228001D01*
X63881000Y-40894000D02*
X63881000Y-40640000D01*
D62*
X67371000Y-38796000D02*
X68834000Y-38796000D01*
D59*
X66024001Y-43253000D02*
X66024001Y-42306999D01*
D60*
X63624000Y-42294000D02*
X63624000Y-42542000D01*
D59*
X63224001Y-44428001D02*
X65024000Y-46228000D01*
D62*
X66548000Y-38796000D02*
X64454000Y-38796000D01*
D61*
X60326257Y-43704809D02*
X61049449Y-44428001D01*
D59*
X63624000Y-44828000D02*
X65024000Y-46228000D01*
D61*
X67512001Y-38937001D02*
X67371000Y-38796000D01*
X66802000Y-41529000D02*
X66802000Y-41473840D01*
D60*
X66024001Y-45227999D02*
X65024000Y-46228000D01*
D63*
X72710000Y-47498000D02*
X69946491Y-47498000D01*
X67512001Y-39675999D02*
X67512001Y-38937001D01*
D59*
X62049000Y-44428001D02*
X61120160Y-44428001D01*
D61*
X60326257Y-43559743D02*
X60326257Y-43704809D01*
D64*
X68834000Y-38584000D02*
X68250000Y-38000000D01*
D59*
X63881000Y-40640000D02*
X63881000Y-40513000D01*
X63881000Y-41399947D02*
X63881000Y-41021000D01*
X63881000Y-41021000D02*
X63881000Y-40894000D01*
D61*
X63881000Y-41021000D02*
X63881000Y-40132000D01*
D59*
X63881000Y-42037000D02*
X63881000Y-41399947D01*
D63*
X69946491Y-47498000D02*
X70993000Y-47498000D01*
X63881000Y-42037000D02*
X63881000Y-41529000D01*
X63881000Y-40640000D02*
X63881000Y-39369000D01*
D64*
X63881000Y-39369000D02*
X64262000Y-38988000D01*
D60*
X63624000Y-42294000D02*
X63881000Y-42037000D01*
D59*
X68453000Y-47244000D02*
X69723000Y-47244000D01*
D63*
X69946491Y-47498000D02*
X69786500Y-47338009D01*
D59*
X66024001Y-42306999D02*
X66802000Y-41529000D01*
D64*
X68834000Y-38796000D02*
X68834000Y-38584000D01*
X68540000Y-39090000D02*
X68834000Y-38796000D01*
D62*
X66548000Y-38796000D02*
X67371000Y-38796000D01*
D63*
X68961000Y-48895000D02*
X72136000Y-52070000D01*
X72136000Y-52070000D02*
X72710000Y-52070000D01*
D59*
X68494001Y-48428001D02*
X68961000Y-48895000D01*
X67999000Y-48428001D02*
X68494001Y-48428001D01*
X60593547Y-44677028D02*
X61144518Y-45227999D01*
X60071000Y-44450000D02*
X60298028Y-44677028D01*
D63*
X58674000Y-43053000D02*
X57338000Y-43053000D01*
D59*
X60298028Y-44677028D02*
X60593547Y-44677028D01*
D63*
X60071000Y-44450000D02*
X58674000Y-43053000D01*
D59*
X61144518Y-45227999D02*
X62049000Y-45227999D01*
D64*
X50800000Y-41530000D02*
X53340000Y-41530000D01*
X53340000Y-41530000D02*
X53915000Y-41530000D01*
X53915000Y-41530000D02*
X55438000Y-43053000D01*
D61*
X60598599Y-49510401D02*
X60559401Y-49510401D01*
D63*
X57338000Y-50673000D02*
X58801000Y-50673000D01*
D59*
X61426999Y-48428001D02*
X61112001Y-48742999D01*
X62049000Y-48428001D02*
X61426999Y-48428001D01*
D61*
X61112001Y-48996999D02*
X60598599Y-49510401D01*
D63*
X58801000Y-50673000D02*
X59963599Y-49510401D01*
D61*
X61112001Y-48957801D02*
X61112001Y-48996999D01*
D63*
X59963599Y-49510401D02*
X60559401Y-49510401D01*
D59*
X61112001Y-48742999D02*
X61112001Y-48957801D01*
D64*
X55438000Y-51876000D02*
X53340000Y-53974000D01*
X50800000Y-53974000D02*
X53340000Y-53974000D01*
X55438000Y-50673000D02*
X55438000Y-51876000D01*
D63*
X59626500Y-51879500D02*
X60706000Y-50800000D01*
D59*
X66929000Y-52705000D02*
X66929000Y-53406000D01*
X65224000Y-51000000D02*
X66929000Y-52705000D01*
X62696999Y-50250999D02*
X62506499Y-50441499D01*
D63*
X62696999Y-50333001D02*
X62696999Y-50250999D01*
X62230000Y-50800000D02*
X62420500Y-50609500D01*
D62*
X66482000Y-53406000D02*
X66929000Y-53406000D01*
D63*
X56642000Y-52705000D02*
X57467500Y-51879500D01*
D64*
X63501000Y-55753000D02*
X64389000Y-56641000D01*
X64135000Y-55753000D02*
X64389000Y-55499000D01*
D62*
X64389000Y-55499000D02*
X66482000Y-53406000D01*
D59*
X62506499Y-50441499D02*
X62401998Y-50546000D01*
D64*
X58220999Y-54984999D02*
X58220999Y-55381001D01*
D63*
X62420500Y-50609500D02*
X62696999Y-50333001D01*
D64*
X56642000Y-53406000D02*
X58220999Y-54984999D01*
D59*
X62823999Y-49203000D02*
X62823999Y-50123999D01*
D62*
X64389000Y-56641000D02*
X64389000Y-55499000D01*
D63*
X56642000Y-53406000D02*
X56642000Y-52705000D01*
X57467500Y-51879500D02*
X59626500Y-51879500D01*
D59*
X64824000Y-51108000D02*
X66929000Y-53213000D01*
X62823999Y-50123999D02*
X62696999Y-50250999D01*
D64*
X58220999Y-55381001D02*
X58592998Y-55753000D01*
D59*
X66929000Y-53213000D02*
X66929000Y-53406000D01*
D63*
X60706000Y-50800000D02*
X62230000Y-50800000D01*
D59*
X65224000Y-49203000D02*
X65224000Y-51000000D01*
D64*
X58592998Y-55753000D02*
X63501000Y-55753000D01*
D59*
X64824000Y-49203000D02*
X64824000Y-51108000D01*
D64*
X63501000Y-55753000D02*
X64135000Y-55753000D01*
D63*
X57338000Y-48514000D02*
X59380198Y-48514000D01*
D59*
X62049000Y-47628000D02*
X60449000Y-47628000D01*
D63*
X53778602Y-50674000D02*
X55057592Y-49395010D01*
X53340000Y-50674000D02*
X53778602Y-50674000D01*
D59*
X60449000Y-47628000D02*
X60071000Y-48006000D01*
X60162401Y-47914599D02*
X60449000Y-47628000D01*
D61*
X59563000Y-48514000D02*
X60071000Y-48006000D01*
D63*
X56202990Y-49395010D02*
X57338000Y-48260000D01*
D61*
X57338000Y-48514000D02*
X59563000Y-48514000D01*
D63*
X55057592Y-49395010D02*
X56202990Y-49395010D01*
D59*
X59871000Y-46028000D02*
X59563000Y-45720000D01*
D63*
X53981990Y-44188010D02*
X53839010Y-44330990D01*
X53340000Y-44830000D02*
X53839010Y-44330990D01*
X56060010Y-44188010D02*
X53981990Y-44188010D01*
D59*
X59871000Y-46028000D02*
X62049000Y-46028000D01*
D63*
X59055000Y-45212000D02*
X59563000Y-45720000D01*
X57338000Y-45212000D02*
X59055000Y-45212000D01*
X57338000Y-45466000D02*
X56060010Y-44188010D01*
D62*
X57658000Y-39334000D02*
X58456000Y-39334000D01*
X58928000Y-38862000D02*
X58928000Y-38354000D01*
D60*
X62049000Y-44027999D02*
X61299999Y-44027999D01*
D62*
X57658000Y-39334000D02*
X58710000Y-39334000D01*
D63*
X61087000Y-43180000D02*
X61087000Y-42291000D01*
D62*
X58456000Y-39334000D02*
X58928000Y-38862000D01*
D64*
X58130000Y-39334000D02*
X57658000Y-39334000D01*
X61087000Y-42291000D02*
X58130000Y-39334000D01*
D62*
X57658000Y-39334000D02*
X58384000Y-39334000D01*
D61*
X61087000Y-43815000D02*
X61087000Y-43180000D01*
D60*
X61299999Y-44027999D02*
X61087000Y-43815000D01*
D62*
X61594000Y-35688000D02*
X64262000Y-35688000D01*
X58928000Y-38354000D02*
X61594000Y-35688000D01*
D60*
X71800000Y-27400000D02*
X71900000Y-27500000D01*
X73075000Y-28600000D02*
X73000000Y-28600000D01*
X77100000Y-31100000D02*
X77000000Y-31100000D01*
X77000000Y-31100000D02*
X75260000Y-29360000D01*
X70000000Y-27400000D02*
X69575000Y-27825000D01*
X77200000Y-31100000D02*
X81015000Y-34915000D01*
X72100000Y-18200000D02*
X72000000Y-18100000D01*
X73835000Y-29360000D02*
X73075000Y-28600000D01*
X71800000Y-27400000D02*
X70000000Y-27400000D01*
X83585969Y-42185969D02*
X86940000Y-45540000D01*
X83590000Y-37490000D02*
X83590000Y-39899357D01*
X86940000Y-46015000D02*
X87475000Y-46550000D01*
D59*
X69598307Y-28848307D02*
X69575000Y-28825000D01*
X65224000Y-41976000D02*
X65224000Y-43253000D01*
X65827661Y-40227659D02*
X65800000Y-40255320D01*
X69598307Y-31001693D02*
X69598307Y-28848307D01*
X65800000Y-40255320D02*
X65800000Y-41400000D01*
D60*
X86940000Y-45540000D02*
X86940000Y-46015000D01*
X75260000Y-29360000D02*
X73835000Y-29360000D01*
X81015000Y-34983737D02*
X81416263Y-35385000D01*
X72100000Y-22300000D02*
X72100000Y-18200000D01*
X83220000Y-31100000D02*
X83245000Y-31075000D01*
X81416263Y-35385000D02*
X81485000Y-35385000D01*
X77100000Y-31100000D02*
X83220000Y-31100000D01*
X69575000Y-27825000D02*
X69575000Y-28825000D01*
X81485000Y-35385000D02*
X83590000Y-37490000D01*
X77100000Y-31100000D02*
X77200000Y-31100000D01*
X87475000Y-46550000D02*
X87975000Y-46550000D01*
D59*
X65800000Y-41400000D02*
X65224000Y-41976000D01*
D60*
X73000000Y-28600000D02*
X71900000Y-27500000D01*
X83585969Y-39903388D02*
X83585969Y-42185969D01*
X83590000Y-39899357D02*
X83585969Y-39903388D01*
X81015000Y-34915000D02*
X81015000Y-34983737D01*
X63305000Y-25780000D02*
X66780000Y-25780000D01*
X68275000Y-27275000D02*
X68275000Y-28825000D01*
X60225000Y-23400000D02*
X60925000Y-23400000D01*
X66780000Y-25780000D02*
X68275000Y-27275000D01*
X60925000Y-23400000D02*
X63305000Y-25780000D01*
D59*
X66260942Y-41560942D02*
X65623999Y-42197885D01*
D60*
X84515000Y-31075000D02*
X84515000Y-30754817D01*
X86529999Y-46874999D02*
X86529999Y-45929999D01*
D59*
X68925000Y-31925000D02*
X69000000Y-32000000D01*
D60*
X84515000Y-30754817D02*
X82260183Y-28500000D01*
X47435000Y-16700000D02*
X55300000Y-16700000D01*
X69300000Y-26800000D02*
X73075000Y-26800000D01*
X82260183Y-28500000D02*
X77800000Y-28500000D01*
X68925000Y-27175000D02*
X69300000Y-26800000D01*
X66950000Y-25200000D02*
X68625000Y-26875000D01*
D59*
X65623999Y-42197885D02*
X65623999Y-43253000D01*
D60*
X86529999Y-45929999D02*
X83175969Y-42575969D01*
X87475000Y-47820000D02*
X86529999Y-46874999D01*
X73835000Y-27560000D02*
X73075000Y-26800000D01*
X68625000Y-26875000D02*
X68925000Y-27175000D01*
D59*
X66260942Y-40727053D02*
X66260942Y-41560942D01*
D60*
X83175969Y-42575969D02*
X83175969Y-39733560D01*
X55300000Y-16700000D02*
X63800000Y-25200000D01*
X77800000Y-28500000D02*
X76860000Y-27560000D01*
X83180000Y-39729529D02*
X83180000Y-37780000D01*
X83180000Y-37780000D02*
X77400000Y-32000000D01*
X42035000Y-11300000D02*
X47435000Y-16700000D01*
X77400000Y-32000000D02*
X69000000Y-32000000D01*
X87975000Y-47820000D02*
X87475000Y-47820000D01*
D59*
X68925000Y-28825000D02*
X68925000Y-31925000D01*
X66795248Y-40192747D02*
X66260942Y-40727053D01*
D60*
X76860000Y-27560000D02*
X73835000Y-27560000D01*
X63800000Y-25200000D02*
X66950000Y-25200000D01*
X68925000Y-27575000D02*
X68925000Y-27175000D01*
X68925000Y-27575000D02*
X68925000Y-28825000D01*
X83175969Y-39733560D02*
X83180000Y-39729529D01*
D59*
X67000000Y-30800000D02*
X67000000Y-29446617D01*
D60*
X66300000Y-26600000D02*
X60225000Y-26600000D01*
X66975000Y-27275000D02*
X66300000Y-26600000D01*
D59*
X63234000Y-43243001D02*
X63234000Y-39179443D01*
X66975000Y-29421617D02*
X66975000Y-28825000D01*
X63234000Y-39179443D02*
X62927794Y-38873237D01*
X67000000Y-29446617D02*
X66975000Y-29421617D01*
X63224001Y-43253000D02*
X63234000Y-43243001D01*
D60*
X66975000Y-28825000D02*
X66975000Y-27275000D01*
X70207191Y-32685000D02*
X68716263Y-32685000D01*
D59*
X68821847Y-48027999D02*
X70193848Y-49400000D01*
D60*
X66490000Y-26190000D02*
X61415000Y-26190000D01*
X67685000Y-28885000D02*
X67625000Y-28825000D01*
X68716263Y-32685000D02*
X67685000Y-31653737D01*
X67625000Y-28825000D02*
X67625000Y-27325000D01*
X67625000Y-27325000D02*
X66490000Y-26190000D01*
X67685000Y-31653737D02*
X67685000Y-28885000D01*
D59*
X67999000Y-48027999D02*
X68821847Y-48027999D01*
X70193848Y-49400000D02*
X71100000Y-49400000D01*
D60*
X61415000Y-26190000D02*
X60225000Y-25000000D01*
X70513656Y-32991465D02*
X70207191Y-32685000D01*
D59*
X67319999Y-50292000D02*
X68958000Y-50292000D01*
X66823999Y-49203000D02*
X66823999Y-49796000D01*
D61*
X68958000Y-50292000D02*
X69042000Y-50292000D01*
D59*
X66823999Y-49796000D02*
X67319999Y-50292000D01*
D61*
X69042000Y-50292000D02*
X72081200Y-53331200D01*
X72081200Y-53331200D02*
X72081200Y-55021600D01*
X74113200Y-55021600D02*
X72081200Y-55021600D01*
D60*
X59187382Y-46101000D02*
X59490000Y-46403618D01*
X58601000Y-46101000D02*
X59187382Y-46101000D01*
D61*
X52007000Y-46482000D02*
X50355000Y-46482000D01*
X52007000Y-46482000D02*
X52063657Y-46482000D01*
D59*
X62049000Y-46428000D02*
X59490000Y-46428000D01*
D61*
X52063657Y-46482000D02*
X52629276Y-47047619D01*
X52007000Y-48743000D02*
X52750000Y-48000000D01*
D59*
X62049000Y-47228001D02*
X59683698Y-47228001D01*
D61*
X50355000Y-48768000D02*
X52007000Y-48768000D01*
X52007000Y-48768000D02*
X52007000Y-48743000D01*
D59*
X59683698Y-47228001D02*
X59314705Y-47596994D01*
D60*
X73075000Y-23350000D02*
X70475000Y-23350000D01*
X87580000Y-45280000D02*
X87975000Y-45280000D01*
X83995970Y-40073215D02*
X83995970Y-41695970D01*
X84000000Y-37000000D02*
X84000000Y-40069185D01*
X83995970Y-41695970D02*
X87580000Y-45280000D01*
X70475000Y-23350000D02*
X70225000Y-23100000D01*
X81700000Y-34700000D02*
X84000000Y-37000000D01*
X84000000Y-40069185D02*
X83995970Y-40073215D01*
D59*
X71481874Y-46827999D02*
X71967629Y-46342244D01*
X68766619Y-33500000D02*
X66325000Y-31058381D01*
X69700000Y-33500000D02*
X68766619Y-33500000D01*
X66325000Y-31058381D02*
X66325000Y-28825000D01*
X67999000Y-46827999D02*
X71481874Y-46827999D01*
X70200000Y-42700000D02*
X70914330Y-41985670D01*
X68672001Y-44027999D02*
X68872001Y-44027999D01*
X65675000Y-30975000D02*
X65675000Y-28825000D01*
X68900000Y-34200000D02*
X65675000Y-30975000D01*
X67999000Y-44027999D02*
X68672001Y-44027999D01*
X70914330Y-41985670D02*
X71197092Y-41985670D01*
X68872001Y-44027999D02*
X70200000Y-42700000D01*
X64009000Y-42630249D02*
X64463990Y-42175259D01*
X64463990Y-40506370D02*
X64876356Y-40094004D01*
X65000000Y-31500000D02*
X65000000Y-28850000D01*
X64463990Y-42175259D02*
X64463990Y-40506370D01*
X64009000Y-43238001D02*
X64009000Y-42630249D01*
X64023999Y-43253000D02*
X64009000Y-43238001D01*
X65000000Y-28850000D02*
X65025000Y-28825000D01*
D63*
X71190000Y-17590000D02*
X71190000Y-22510000D01*
X61000000Y-39750000D02*
X61750000Y-39000000D01*
X31012500Y-43400000D02*
X29350000Y-43400000D01*
X51750000Y-36950000D02*
X51750000Y-37750000D01*
D64*
X77850000Y-41050000D02*
X77850000Y-42262500D01*
X77000000Y-38500000D02*
X73500000Y-38500000D01*
D63*
X79041960Y-41050000D02*
X77850000Y-41050000D01*
X60750000Y-39000000D02*
X60750000Y-39500000D01*
D64*
X61722000Y-39812000D02*
X61722000Y-41148000D01*
D60*
X68964000Y-44828000D02*
X69215000Y-44577000D01*
D64*
X73500000Y-38500000D02*
X73500000Y-39850000D01*
D63*
X66000000Y-12400000D02*
X71190000Y-17590000D01*
X72710000Y-42926000D02*
X71387944Y-42926000D01*
X72092259Y-39946447D02*
X72092259Y-40022259D01*
X60500000Y-39750000D02*
X61000000Y-39750000D01*
X79750000Y-41758040D02*
X79041960Y-41050000D01*
X38200000Y-41600000D02*
X40050000Y-43450000D01*
X34400000Y-42100000D02*
X34900000Y-41600000D01*
X66000000Y-11300000D02*
X66000000Y-12400000D01*
D61*
X62823999Y-42249999D02*
X62484000Y-41910000D01*
D63*
X50450000Y-36950000D02*
X51750000Y-36950000D01*
X60562000Y-39812000D02*
X60500000Y-39750000D01*
X73900000Y-38100000D02*
X73500000Y-38500000D01*
X61722000Y-39812000D02*
X60562000Y-39812000D01*
X31012500Y-43400000D02*
X33700000Y-43400000D01*
D64*
X64262000Y-58359000D02*
X61412000Y-58359000D01*
D63*
X34400000Y-42700000D02*
X34400000Y-42100000D01*
D60*
X67999000Y-44828000D02*
X68964000Y-44828000D01*
D63*
X61722000Y-39028000D02*
X61750000Y-39000000D01*
X51750000Y-37750000D02*
X52000000Y-38000000D01*
X79750000Y-42262500D02*
X79750000Y-41758040D01*
D60*
X62823999Y-43253000D02*
X62823999Y-42376999D01*
D64*
X61722000Y-41148000D02*
X62230000Y-41656000D01*
D63*
X70866000Y-42926000D02*
X72710000Y-42926000D01*
X40050000Y-43450000D02*
X43950000Y-43450000D01*
D64*
X73500000Y-39850000D02*
X72710000Y-40640000D01*
D63*
X51750000Y-36950000D02*
X52450000Y-36950000D01*
X73900000Y-33200000D02*
X73900000Y-38100000D01*
X43950000Y-43450000D02*
X50450000Y-36950000D01*
X60750000Y-39000000D02*
X61750000Y-39000000D01*
X71190000Y-22510000D02*
X71100000Y-22600000D01*
D64*
X77850000Y-39900000D02*
X77850000Y-39350000D01*
X61412000Y-58359000D02*
X60706000Y-57653000D01*
X65391000Y-58359000D02*
X65500000Y-58250000D01*
D63*
X72710000Y-42926000D02*
X72710000Y-40640000D01*
X61562000Y-39812000D02*
X60750000Y-39000000D01*
X29350000Y-43400000D02*
X28500000Y-44250000D01*
X69469000Y-44323000D02*
X70866000Y-42926000D01*
D64*
X77850000Y-39350000D02*
X77000000Y-38500000D01*
D63*
X33700000Y-43400000D02*
X34400000Y-42700000D01*
X61722000Y-39812000D02*
X61562000Y-39812000D01*
X34900000Y-41600000D02*
X38200000Y-41600000D01*
X62484000Y-41910000D02*
X62230000Y-41656000D01*
X61722000Y-39812000D02*
X61722000Y-39028000D01*
X52450000Y-36950000D02*
X53000000Y-37500000D01*
D60*
X62823999Y-42376999D02*
X62823999Y-42249999D01*
D64*
X64262000Y-58359000D02*
X65391000Y-58359000D01*
X77850000Y-39900000D02*
X77850000Y-41050000D01*
D63*
X60750000Y-39500000D02*
X60500000Y-39750000D01*
X72092259Y-40022259D02*
X72710000Y-40640000D01*
D60*
X69215000Y-44577000D02*
X69469000Y-44323000D01*
D59*
X37550000Y-28462500D02*
X39250000Y-28462500D01*
X31200000Y-30200000D02*
X31550000Y-30550000D01*
X31550000Y-29550000D02*
X31200000Y-29900000D01*
X35359828Y-28920000D02*
X36163920Y-28920000D01*
X31200000Y-29900000D02*
X31200000Y-30200000D01*
X33185000Y-29550000D02*
X31550000Y-29550000D01*
X36163920Y-28920000D02*
X36621420Y-28462500D01*
X34729828Y-29550000D02*
X35359828Y-28920000D01*
X33185000Y-29550000D02*
X34729828Y-29550000D01*
X31550000Y-30550000D02*
X33185000Y-30550000D01*
X36621420Y-28462500D02*
X37550000Y-28462500D01*
X37037500Y-30050000D02*
X36037500Y-31050000D01*
X37037500Y-30050000D02*
X37550000Y-29537500D01*
X33185000Y-30050000D02*
X37037500Y-30050000D01*
X36037500Y-31050000D02*
X33185000Y-31050000D01*
X37550000Y-29537500D02*
X39250000Y-29537500D01*
D61*
X74725000Y-25100000D02*
X74034500Y-25100000D01*
D63*
X80162500Y-44537500D02*
X80500000Y-44200000D01*
X110700000Y-56425000D02*
X110775000Y-56425000D01*
D61*
X72000000Y-30600000D02*
X72950000Y-30600000D01*
D63*
X87055000Y-31075000D02*
X89125000Y-31075000D01*
X89400000Y-32115500D02*
X89684500Y-32400000D01*
X77800000Y-46487500D02*
X79750000Y-44537500D01*
X115500000Y-56737500D02*
X115500000Y-58100000D01*
X109715000Y-55440000D02*
X105475000Y-55440000D01*
D59*
X66024001Y-49203000D02*
X66024001Y-50014264D01*
D63*
X77800000Y-51700000D02*
X77810001Y-51689999D01*
D61*
X72950000Y-30600000D02*
X72900000Y-30600000D01*
D63*
X115500000Y-56737500D02*
X115500000Y-55600000D01*
X79750000Y-44537500D02*
X80162500Y-44537500D01*
D59*
X66024001Y-50014264D02*
X67342737Y-51333000D01*
D63*
X79750000Y-44537500D02*
X79237500Y-44537500D01*
X77800000Y-46800000D02*
X77800000Y-46487500D01*
D61*
X58575000Y-26600000D02*
X57600000Y-26600000D01*
D63*
X110700000Y-56425000D02*
X109715000Y-55440000D01*
X89400000Y-31350000D02*
X89400000Y-32115500D01*
X112100000Y-59100000D02*
X113350000Y-59100000D01*
D61*
X72900000Y-30600000D02*
X72100000Y-29800000D01*
X74725000Y-22675000D02*
X75000000Y-22400000D01*
D63*
X113350000Y-59100000D02*
X113350000Y-59000000D01*
X115500000Y-56850000D02*
X113350000Y-59000000D01*
X77810001Y-51689999D02*
X77810001Y-46810001D01*
X77810001Y-46810001D02*
X77800000Y-46800000D01*
X115500000Y-56737500D02*
X115500000Y-56850000D01*
D61*
X79815500Y-29300000D02*
X79715500Y-29400000D01*
D63*
X115500000Y-58100000D02*
X115477597Y-58122403D01*
X110775000Y-56425000D02*
X113350000Y-59000000D01*
X77800000Y-52450000D02*
X77800000Y-51700000D01*
D61*
X74725000Y-28600000D02*
X75700000Y-28600000D01*
D63*
X89125000Y-31075000D02*
X89400000Y-31350000D01*
X76750000Y-53500000D02*
X77800000Y-52450000D01*
D61*
X58575000Y-25000000D02*
X57600000Y-25000000D01*
D59*
X67342737Y-51333000D02*
X67945000Y-51333000D01*
D61*
X70225000Y-28825000D02*
X72000000Y-30600000D01*
X74725000Y-23350000D02*
X74725000Y-22675000D01*
X74725000Y-26800000D02*
X75705500Y-26800000D01*
X81500000Y-29300000D02*
X79815500Y-29300000D01*
D63*
X79237500Y-44537500D02*
X78900000Y-44200000D01*
X111900000Y-58900000D02*
X112100000Y-59100000D01*
D61*
X35190000Y-28510000D02*
X35994092Y-28510000D01*
X33185000Y-29050000D02*
X34650000Y-29050000D01*
X34650000Y-29050000D02*
X35190000Y-28510000D01*
X37600000Y-26904092D02*
X37600000Y-25825000D01*
X35994092Y-28510000D02*
X37600000Y-26904092D01*
X35954092Y-32050000D02*
X36500000Y-32595908D01*
X36500000Y-34375000D02*
X37600000Y-35475000D01*
X36500000Y-32595908D02*
X36500000Y-34375000D01*
X33185000Y-32050000D02*
X35954092Y-32050000D01*
D60*
X98799998Y-19668735D02*
X98799998Y-14765650D01*
X109000000Y-30400000D02*
X108900000Y-30400000D01*
X108400000Y-29900000D02*
X106100000Y-29900000D01*
X113600000Y-29450000D02*
X110918737Y-29450000D01*
X108500000Y-30000000D02*
X108400000Y-29900000D01*
D61*
X98800000Y-14765648D02*
X98799998Y-14765650D01*
X98800000Y-13300000D02*
X98800000Y-14765648D01*
D60*
X106100000Y-29900000D02*
X105600000Y-29900000D01*
X108900000Y-30400000D02*
X108500000Y-30000000D01*
X105600000Y-29900000D02*
X102600000Y-26900000D01*
X109968737Y-30400000D02*
X109000000Y-30400000D01*
X101200000Y-28200000D02*
X99750000Y-26750000D01*
X110918737Y-29450000D02*
X109968737Y-30400000D01*
X99750000Y-26750000D02*
X99750000Y-24600000D01*
X99750000Y-24600000D02*
X99750000Y-20618737D01*
X99750000Y-20618737D02*
X98799998Y-19668735D01*
D59*
X104658200Y-41060000D02*
X103593200Y-42125000D01*
X104765000Y-41060000D02*
X104658200Y-41060000D01*
X103593200Y-42125000D02*
X92293199Y-42125000D01*
X92293199Y-42125000D02*
X91571232Y-42846967D01*
X91571232Y-42846967D02*
X91571232Y-43271232D01*
X105175000Y-41470000D02*
X104765000Y-41060000D01*
X105475000Y-41470000D02*
X105175000Y-41470000D01*
X105175000Y-40200000D02*
X104765000Y-40610000D01*
X105475000Y-40200000D02*
X105175000Y-40200000D01*
X92106801Y-41675000D02*
X91253033Y-42528768D01*
X104765000Y-40610000D02*
X104471800Y-40610000D01*
X103406800Y-41675000D02*
X92106801Y-41675000D01*
X104471800Y-40610000D02*
X103406800Y-41675000D01*
X91253033Y-42528768D02*
X90828768Y-42528768D01*
D60*
X81571000Y-52541000D02*
X84470000Y-55440000D01*
X81590000Y-43349656D02*
X81590000Y-46668737D01*
X80772000Y-53340000D02*
X81571000Y-52541000D01*
X80772000Y-54722000D02*
X80772000Y-53340000D01*
X84960000Y-55440000D02*
X84560000Y-55440000D01*
X84470000Y-55440000D02*
X84960000Y-55440000D01*
X80800000Y-51770000D02*
X81571000Y-52541000D01*
X81535969Y-38535969D02*
X81535969Y-43295625D01*
X81535969Y-43295625D02*
X81590000Y-43349656D01*
X87975000Y-55440000D02*
X84960000Y-55440000D01*
X78889500Y-36626268D02*
X79626268Y-36626268D01*
X78459500Y-35300000D02*
X78459500Y-36196268D01*
X81590000Y-46668737D02*
X80800000Y-47458737D01*
X78459500Y-36196268D02*
X78889500Y-36626268D01*
X80800000Y-47458737D02*
X80800000Y-51770000D01*
X79626268Y-36626268D02*
X81535969Y-38535969D01*
X81980000Y-51650000D02*
X82500000Y-51650000D01*
X79561440Y-35941268D02*
X81945969Y-38325797D01*
X87975000Y-54170000D02*
X85020000Y-54170000D01*
X81945969Y-43125797D02*
X82000000Y-43179828D01*
X85020000Y-54170000D02*
X82500000Y-51650000D01*
X81300000Y-50970000D02*
X81980000Y-51650000D01*
X82000000Y-46838565D02*
X81300000Y-47538565D01*
X79173237Y-35941268D02*
X79561440Y-35941268D01*
X81300000Y-47538565D02*
X81300000Y-50970000D01*
X81945969Y-38325797D02*
X81945969Y-43125797D01*
X82000000Y-43179828D02*
X82000000Y-46838565D01*
X102440000Y-39760000D02*
X102440000Y-38950000D01*
X79300000Y-14300000D02*
X78700000Y-13700000D01*
X101700000Y-40500000D02*
X102440000Y-39760000D01*
X78700000Y-13700000D02*
X78700000Y-11300000D01*
X89800000Y-40500000D02*
X101700000Y-40500000D01*
X84500000Y-14300000D02*
X79300000Y-14300000D01*
X85400000Y-15200000D02*
X84500000Y-14300000D01*
X89700000Y-40600000D02*
X89800000Y-40500000D01*
X84680970Y-40356952D02*
X84680970Y-41180970D01*
X87510000Y-44010000D02*
X87975000Y-44010000D01*
X84680970Y-41180970D02*
X87510000Y-44010000D01*
X85616735Y-40881735D02*
X87475000Y-42740000D01*
X85616735Y-40144850D02*
X85616735Y-40881735D01*
X87475000Y-42740000D02*
X87975000Y-42740000D01*
X86548734Y-39916764D02*
X86548734Y-40543734D01*
X87475000Y-41470000D02*
X87975000Y-41470000D01*
X86548734Y-40543734D02*
X87475000Y-41470000D01*
X85785000Y-31075000D02*
X85785000Y-30115000D01*
X85785000Y-30115000D02*
X89900000Y-26000000D01*
X89900000Y-26000000D02*
X89900000Y-25600000D01*
X83300000Y-49550000D02*
X82500000Y-50350000D01*
X83300000Y-46090500D02*
X83300000Y-49550000D01*
X81500000Y-27650000D02*
X81550000Y-27700000D01*
X82000000Y-27150000D02*
X81500000Y-27650000D01*
X84515000Y-26885000D02*
X84515000Y-26125000D01*
X83700000Y-27700000D02*
X84515000Y-26885000D01*
X82000000Y-26600000D02*
X82000000Y-27150000D01*
X81550000Y-27700000D02*
X83700000Y-27700000D01*
X108900179Y-31267852D02*
X108900179Y-31200179D01*
X101250000Y-24600000D02*
X101250000Y-20050000D01*
X111100000Y-45900000D02*
X111150000Y-45950000D01*
X101575564Y-26875564D02*
X101575564Y-26371491D01*
X108900179Y-31200179D02*
X108190000Y-30490000D01*
X99300000Y-18100000D02*
X99300000Y-14765650D01*
X91010000Y-37490000D02*
X95600000Y-32900000D01*
X111150000Y-45950000D02*
X113600000Y-45950000D01*
X101250000Y-20050000D02*
X99300000Y-18100000D01*
X108190000Y-30490000D02*
X105190000Y-30490000D01*
X101250000Y-26045927D02*
X101575564Y-26371491D01*
X105190000Y-30490000D02*
X101575564Y-26875564D01*
X91010000Y-38950000D02*
X91010000Y-37490000D01*
X101250000Y-24600000D02*
X101250000Y-26045927D01*
X104029999Y-51029999D02*
X104029999Y-51954999D01*
X111250000Y-27381263D02*
X111250000Y-24600000D01*
X103000000Y-50000000D02*
X104029999Y-51029999D01*
X104029999Y-51954999D02*
X104975000Y-52900000D01*
X104975000Y-52900000D02*
X105475000Y-52900000D01*
X111250000Y-23418737D02*
X111840000Y-22828737D01*
X109025000Y-50400000D02*
X106525000Y-52900000D01*
X111675000Y-42950000D02*
X109025000Y-45600000D01*
X111840000Y-22828737D02*
X111840000Y-19619828D01*
X110000000Y-29700000D02*
X111285000Y-28415000D01*
X111250000Y-24600000D02*
X111250000Y-23418737D01*
X109025000Y-45600000D02*
X109025000Y-50400000D01*
X106525000Y-52900000D02*
X105475000Y-52900000D01*
X111299999Y-19079827D02*
X111299999Y-14765650D01*
X109700000Y-29700000D02*
X110000000Y-29700000D01*
X111840000Y-19619828D02*
X111299999Y-19079827D01*
X111285000Y-28415000D02*
X111285000Y-27416263D01*
X113600000Y-42950000D02*
X111675000Y-42950000D01*
X111285000Y-27416263D02*
X111250000Y-27381263D01*
X105475000Y-51630000D02*
X106495000Y-51630000D01*
X108800000Y-29200000D02*
X108800000Y-25800000D01*
X108750000Y-14815649D02*
X108799999Y-14765650D01*
X108800000Y-25800000D02*
X108750000Y-25750000D01*
X103685000Y-49716263D02*
X103685000Y-49785000D01*
X108750000Y-25750000D02*
X108750000Y-24600000D01*
X106495000Y-51630000D02*
X108615000Y-49510000D01*
X102491465Y-49186344D02*
X103155081Y-49186344D01*
X108750000Y-24600000D02*
X108750000Y-14815649D01*
X108615000Y-49510000D02*
X108614999Y-45430173D01*
X103685000Y-49785000D02*
X104440000Y-50540000D01*
X104975000Y-51630000D02*
X105475000Y-51630000D01*
X104440000Y-51095000D02*
X104975000Y-51630000D01*
X113600000Y-42450000D02*
X111595172Y-42450000D01*
X104440000Y-50540000D02*
X104440000Y-51095000D01*
X108614999Y-45430173D02*
X111595172Y-42450000D01*
X103155081Y-49186344D02*
X103685000Y-49716263D01*
X105475000Y-50360000D02*
X106465000Y-50360000D01*
X108205000Y-45260344D02*
X111515344Y-41950000D01*
X108205000Y-48620000D02*
X108205000Y-45260344D01*
X107736233Y-29095737D02*
X108250000Y-28581970D01*
X113600000Y-41950000D02*
X111515344Y-41950000D01*
X108250000Y-24600000D02*
X108250000Y-14815650D01*
X102392974Y-48231910D02*
X103331910Y-48231910D01*
X108250000Y-28581970D02*
X108250000Y-24600000D01*
X104440000Y-49825000D02*
X104975000Y-50360000D01*
X104975000Y-50360000D02*
X105475000Y-50360000D01*
X104440000Y-49340000D02*
X104440000Y-49825000D01*
X103331910Y-48231910D02*
X104440000Y-49340000D01*
X106465000Y-50360000D02*
X108205000Y-48620000D01*
X108250000Y-14815650D02*
X108300000Y-14765650D01*
X107795000Y-45090516D02*
X111435516Y-41450000D01*
X113600000Y-41450000D02*
X111435516Y-41450000D01*
X105475000Y-49090000D02*
X106515000Y-49090000D01*
X101871500Y-46569000D02*
X102469000Y-46569000D01*
X107750000Y-14815648D02*
X107799998Y-14765650D01*
X106515000Y-49090000D02*
X107795000Y-47810000D01*
X104990000Y-49090000D02*
X105475000Y-49090000D01*
X106777322Y-29062072D02*
X107750000Y-28089394D01*
X107750000Y-24600000D02*
X107750000Y-14815648D01*
X102469000Y-46569000D02*
X104990000Y-49090000D01*
X107795000Y-47810000D02*
X107795000Y-45090516D01*
X107750000Y-28089394D02*
X107750000Y-24600000D01*
X106787116Y-28084247D02*
X107250000Y-27621363D01*
X107250000Y-14815649D02*
X107299999Y-14765650D01*
X101187000Y-45884500D02*
X102884500Y-45884500D01*
X105475000Y-47820000D02*
X106505000Y-47820000D01*
X107250000Y-24600000D02*
X107250000Y-14815649D01*
X107385000Y-46940000D02*
X107385000Y-44920688D01*
X102884500Y-45884500D02*
X104820000Y-47820000D01*
X107385000Y-44920688D02*
X111355688Y-40950000D01*
X104820000Y-47820000D02*
X105475000Y-47820000D01*
X113600000Y-40950000D02*
X111355688Y-40950000D01*
X107250000Y-27621363D02*
X107250000Y-24600000D01*
X106505000Y-47820000D02*
X107385000Y-46940000D01*
X106800000Y-14765650D02*
X106800000Y-24550000D01*
X100505000Y-45200000D02*
X103100000Y-45200000D01*
X106750000Y-27153333D02*
X106750000Y-24600000D01*
X106975000Y-46050000D02*
X106975000Y-44750860D01*
X100502500Y-45202500D02*
X100505000Y-45200000D01*
X105812480Y-28090853D02*
X106750000Y-27153333D01*
X106800000Y-24550000D02*
X106750000Y-24600000D01*
X106975000Y-44750860D02*
X111275860Y-40450000D01*
X113600000Y-40450000D02*
X111275860Y-40450000D01*
X104450000Y-46550000D02*
X105475000Y-46550000D01*
X105475000Y-46550000D02*
X106475000Y-46550000D01*
X106475000Y-46550000D02*
X106975000Y-46050000D01*
X103100000Y-45200000D02*
X104450000Y-46550000D01*
X104842351Y-28092952D02*
X104842351Y-28092245D01*
X105475000Y-45280000D02*
X106245000Y-45280000D01*
X106535516Y-44989484D02*
X106535516Y-44610516D01*
X106299998Y-14765650D02*
X106299998Y-24550002D01*
X106250000Y-26684596D02*
X106250000Y-24600000D01*
X106535516Y-44610516D02*
X111196032Y-39950000D01*
X99900000Y-44400000D02*
X103400000Y-44400000D01*
X104842351Y-28092245D02*
X106250000Y-26684596D01*
X106245000Y-45280000D02*
X106535516Y-44989484D01*
X106299998Y-24550002D02*
X106250000Y-24600000D01*
X103400000Y-44400000D02*
X104280000Y-45280000D01*
X113600000Y-39950000D02*
X111196032Y-39950000D01*
X99818000Y-44482000D02*
X99900000Y-44400000D01*
X104280000Y-45280000D02*
X105475000Y-45280000D01*
X105750000Y-26216566D02*
X104864218Y-27102348D01*
X105750000Y-24600000D02*
X105750000Y-26216566D01*
X99200000Y-43600000D02*
X105065000Y-43600000D01*
X105799999Y-14765650D02*
X105799999Y-24550001D01*
X105799999Y-24550001D02*
X105750000Y-24600000D01*
X99125000Y-43675000D02*
X99200000Y-43600000D01*
X113600000Y-39450000D02*
X111116204Y-39450000D01*
X106556204Y-44010000D02*
X111116204Y-39450000D01*
X105065000Y-43600000D02*
X105475000Y-44010000D01*
X105475000Y-44010000D02*
X106556204Y-44010000D01*
X98440500Y-42966421D02*
X98666921Y-42740000D01*
X107246376Y-42740000D02*
X111036376Y-38950000D01*
X105250000Y-14815650D02*
X105300000Y-14765650D01*
X104130116Y-26484500D02*
X105250000Y-25364616D01*
X105250000Y-25364616D02*
X105250000Y-24600000D01*
X105475000Y-42740000D02*
X107246376Y-42740000D01*
X113600000Y-38950000D02*
X111036376Y-38950000D01*
X98666921Y-42740000D02*
X105475000Y-42740000D01*
X105250000Y-24600000D02*
X105250000Y-14815650D01*
X101170000Y-37555000D02*
X102625000Y-36100000D01*
X106775000Y-37950000D02*
X104925000Y-36100000D01*
X113600000Y-37950000D02*
X106775000Y-37950000D01*
X101170000Y-38950000D02*
X101170000Y-37555000D01*
X104925000Y-36100000D02*
X102625000Y-36100000D01*
X113600000Y-37950000D02*
X114500000Y-37950000D01*
X114500000Y-37950000D02*
X114535000Y-37985000D01*
X114535000Y-40735000D02*
X116100000Y-42300000D01*
X114535000Y-37985000D02*
X114535000Y-40735000D01*
X113600000Y-37450000D02*
X114315701Y-37450000D01*
X114315701Y-37450000D02*
X114400202Y-37534501D01*
X114734501Y-37534501D02*
X114990000Y-37790000D01*
X105114999Y-35689999D02*
X106875000Y-37450000D01*
X99900000Y-37745172D02*
X101955173Y-35689999D01*
X101955173Y-35689999D02*
X105114999Y-35689999D01*
X99900000Y-38950000D02*
X99900000Y-37745172D01*
X114400202Y-37534501D02*
X114734501Y-37534501D01*
X113600000Y-37450000D02*
X106875000Y-37450000D01*
X114990000Y-39890000D02*
X116500000Y-41400000D01*
X114990000Y-37790000D02*
X114990000Y-39890000D01*
X98630000Y-37695000D02*
X101125000Y-35200000D01*
X113600000Y-36950000D02*
X107035000Y-36950000D01*
X115400000Y-37424500D02*
X115400000Y-39153237D01*
X115400000Y-39300000D02*
X116500000Y-40400000D01*
X98630000Y-38950000D02*
X98630000Y-37695000D01*
X115100000Y-37124500D02*
X115400000Y-37424500D01*
X114395529Y-36950000D02*
X114570029Y-37124500D01*
X114570029Y-37124500D02*
X115100000Y-37124500D01*
X113600000Y-36950000D02*
X114395529Y-36950000D01*
X101125000Y-35200000D02*
X105285000Y-35200000D01*
X105285000Y-35200000D02*
X107035000Y-36950000D01*
X115400000Y-39153237D02*
X115400000Y-39300000D01*
X116300000Y-37623711D02*
X115390789Y-36714500D01*
X105475000Y-34790000D02*
X107135000Y-36450000D01*
X113600000Y-36450000D02*
X107135000Y-36450000D01*
X114739857Y-36714500D02*
X114475357Y-36450000D01*
X115390789Y-36714500D02*
X114739857Y-36714500D01*
X100520000Y-34790000D02*
X105475000Y-34790000D01*
X97360000Y-37950000D02*
X100520000Y-34790000D01*
X114475357Y-36450000D02*
X113600000Y-36450000D01*
X97360000Y-38950000D02*
X97360000Y-37950000D01*
X116300000Y-37816048D02*
X116300000Y-37623711D01*
X116115500Y-38000548D02*
X116300000Y-37816048D01*
X116800000Y-38634975D02*
X116800000Y-37533065D01*
X113600000Y-35950000D02*
X107214828Y-35950000D01*
X116342581Y-37075646D02*
X116331763Y-37075646D01*
X115571435Y-36304500D02*
X114909685Y-36304500D01*
X115930500Y-36674383D02*
X115930500Y-36663565D01*
X99740000Y-34300000D02*
X105564828Y-34300000D01*
X114555185Y-35950000D02*
X113600000Y-35950000D01*
X116331763Y-37075646D02*
X115930500Y-36674383D01*
X114909685Y-36304500D02*
X114555185Y-35950000D01*
X116615500Y-38819475D02*
X116800000Y-38634975D01*
X105564828Y-34300000D02*
X107214828Y-35950000D01*
X116800000Y-37533065D02*
X116342581Y-37075646D01*
X96090000Y-37950000D02*
X99740000Y-34300000D01*
X96090000Y-38950000D02*
X96090000Y-37950000D01*
X115930500Y-36663565D02*
X115571435Y-36304500D01*
X113600000Y-35450000D02*
X114635013Y-35450000D01*
X113600000Y-35450000D02*
X107294656Y-35450000D01*
X94820000Y-38950000D02*
X94820000Y-37905000D01*
X115079513Y-35894500D02*
X115741263Y-35894500D01*
X98835000Y-33890000D02*
X105734656Y-33890000D01*
X116237409Y-36390646D02*
X116615500Y-36390646D01*
X115741263Y-35894500D02*
X116237409Y-36390646D01*
X94820000Y-37905000D02*
X98835000Y-33890000D01*
X114635013Y-35450000D02*
X115079513Y-35894500D01*
X105734656Y-33890000D02*
X107294656Y-35450000D01*
X113600000Y-34950000D02*
X107435000Y-34950000D01*
X93550000Y-38950000D02*
X93550000Y-37950000D01*
X115249341Y-35484500D02*
X116300000Y-35484500D01*
X105965000Y-33480000D02*
X107435000Y-34950000D01*
X93550000Y-37950000D02*
X98020000Y-33480000D01*
X114733078Y-34950000D02*
X114733078Y-34968237D01*
X114733078Y-34968237D02*
X115249341Y-35484500D01*
X98020000Y-33480000D02*
X105965000Y-33480000D01*
X113600000Y-34950000D02*
X114733078Y-34950000D01*
X92280000Y-38950000D02*
X92280000Y-37950000D01*
X115183578Y-34450000D02*
X113600000Y-34450000D01*
X106155000Y-33070000D02*
X107535000Y-34450000D01*
X92280000Y-37950000D02*
X97160000Y-33070000D01*
X115418078Y-34684500D02*
X115183578Y-34450000D01*
X107535000Y-34450000D02*
X113600000Y-34450000D01*
X97160000Y-33070000D02*
X106155000Y-33070000D01*
X96168737Y-32500000D02*
X95868737Y-32200000D01*
X113600000Y-33950000D02*
X107850000Y-33950000D01*
X116250000Y-33950000D02*
X113600000Y-33950000D01*
X116300000Y-34000000D02*
X116250000Y-33950000D01*
X106400000Y-32500000D02*
X96168737Y-32500000D01*
X95868737Y-32200000D02*
X93800000Y-32200000D01*
X89510000Y-49090000D02*
X87975000Y-49090000D01*
X109250000Y-24600000D02*
X109250000Y-14815650D01*
X90700000Y-47900000D02*
X89510000Y-49090000D01*
X109660982Y-27897208D02*
X109250000Y-27486226D01*
X109250000Y-14815650D02*
X109300000Y-14765650D01*
X107850000Y-33950000D02*
X106400000Y-32500000D01*
X109250000Y-27486226D02*
X109250000Y-24600000D01*
X110434500Y-26484500D02*
X110434500Y-25634500D01*
X106600000Y-31900000D02*
X108150000Y-33450000D01*
X110434500Y-25634500D02*
X110250000Y-25450000D01*
X108150000Y-33450000D02*
X113600000Y-33450000D01*
X110800000Y-21931263D02*
X110800000Y-14765650D01*
X94990000Y-31790000D02*
X96038565Y-31790000D01*
X96038565Y-31790000D02*
X96148565Y-31900000D01*
X94700000Y-31500000D02*
X94990000Y-31790000D01*
X115881263Y-33450000D02*
X113600000Y-33450000D01*
X110250000Y-24600000D02*
X110250000Y-22481263D01*
X89540000Y-50360000D02*
X87975000Y-50360000D01*
X96148565Y-31900000D02*
X106600000Y-31900000D01*
X110250000Y-22481263D02*
X110800000Y-21931263D01*
X110250000Y-25450000D02*
X110250000Y-24600000D01*
X91650000Y-48250000D02*
X89540000Y-50360000D01*
X116315632Y-33015632D02*
X115881263Y-33450000D01*
D61*
X34765000Y-53790000D02*
X37150000Y-56175000D01*
X34765000Y-52841000D02*
X34765000Y-53790000D01*
D60*
X62355000Y-12655000D02*
X62355000Y-11300000D01*
X68275000Y-18575000D02*
X62355000Y-12655000D01*
X68275000Y-23100000D02*
X68275000Y-18575000D01*
X59815000Y-11615000D02*
X59815000Y-11300000D01*
X67625000Y-18725000D02*
X61500000Y-12600000D01*
X61500000Y-12600000D02*
X60800000Y-12600000D01*
X60800000Y-12600000D02*
X59815000Y-11615000D01*
X67625000Y-23100000D02*
X67625000Y-18725000D01*
X60630172Y-13010000D02*
X60620172Y-13000000D01*
X66975000Y-18875000D02*
X61110000Y-13010000D01*
X61110000Y-13010000D02*
X60630172Y-13010000D01*
X60620172Y-13000000D02*
X58800000Y-13000000D01*
X58800000Y-13000000D02*
X57275000Y-11475000D01*
X57275000Y-11475000D02*
X57275000Y-11300000D01*
X66975000Y-23100000D02*
X66975000Y-18875000D01*
X60900000Y-13600000D02*
X57035000Y-13600000D01*
X66325000Y-19025000D02*
X60900000Y-13600000D01*
X66325000Y-23100000D02*
X66325000Y-19025000D01*
X57035000Y-13600000D02*
X54735000Y-11300000D01*
X65675000Y-23100000D02*
X65675000Y-19175000D01*
X65675000Y-19175000D02*
X60700000Y-14200000D01*
X55095000Y-14200000D02*
X60700000Y-14200000D01*
X52195000Y-11300000D02*
X55095000Y-14200000D01*
X53155000Y-14800000D02*
X49655000Y-11300000D01*
X65025000Y-19325000D02*
X60500000Y-14800000D01*
X60500000Y-14800000D02*
X53155000Y-14800000D01*
X65025000Y-23100000D02*
X65025000Y-19325000D01*
X60300000Y-15500000D02*
X51315000Y-15500000D01*
X64375000Y-23100000D02*
X64375000Y-19575000D01*
X64375000Y-19575000D02*
X60300000Y-15500000D01*
X51315000Y-15500000D02*
X47115000Y-11300000D01*
X49375000Y-16100000D02*
X44575000Y-11300000D01*
X63725000Y-19725000D02*
X60100000Y-16100000D01*
X60100000Y-16100000D02*
X49375000Y-16100000D01*
X63725000Y-23100000D02*
X63725000Y-19725000D01*
D61*
X38600000Y-54800000D02*
X39458000Y-55658000D01*
X37100000Y-54800000D02*
X38600000Y-54800000D01*
X39458000Y-55658000D02*
X39458000Y-56175000D01*
X36035000Y-53735000D02*
X37100000Y-54800000D01*
X36035000Y-52841000D02*
X36035000Y-53735000D01*
D63*
X36035000Y-45660000D02*
X35525000Y-45150000D01*
X36035000Y-47441000D02*
X36035000Y-45660000D01*
D60*
X90300000Y-41600000D02*
X90990000Y-40910000D01*
X90990000Y-40910000D02*
X102990000Y-40910000D01*
X85300000Y-16500000D02*
X83900000Y-15100000D01*
X77400000Y-15100000D02*
X76160000Y-13860000D01*
X103710000Y-40190000D02*
X103710000Y-38950000D01*
X102990000Y-40910000D02*
X103710000Y-40190000D01*
X83900000Y-15100000D02*
X77400000Y-15100000D01*
X76160000Y-13860000D02*
X76160000Y-11300000D01*
%TA.AperFunction,Conductor*%
G36*
X76441431Y-39195502D02*
G01*
X76462399Y-39212399D01*
X76713097Y-39463097D01*
X76747120Y-39525406D01*
X76750000Y-39552189D01*
X76750000Y-48000000D01*
X77000000Y-48000000D01*
X77213095Y-48213095D01*
X77247121Y-48275407D01*
X77250000Y-48302190D01*
X77250000Y-51616383D01*
X77249500Y-51623696D01*
X77249500Y-51668547D01*
X77249169Y-51674995D01*
X77244647Y-51718969D01*
X77247668Y-51736487D01*
X77249500Y-51757895D01*
X77249500Y-52169785D01*
X77229498Y-52237906D01*
X77212599Y-52258875D01*
X76945810Y-52525665D01*
X76699113Y-52772362D01*
X76640172Y-52805605D01*
X76499777Y-52840209D01*
X76499774Y-52840210D01*
X76349148Y-52919265D01*
X76349142Y-52919270D01*
X76221818Y-53032069D01*
X76221814Y-53032073D01*
X76198904Y-53065265D01*
X76143745Y-53109964D01*
X76073177Y-53117747D01*
X76009603Y-53086141D01*
X76006114Y-53082783D01*
X75955400Y-53032069D01*
X75746457Y-52823126D01*
X75744990Y-52821608D01*
X75700489Y-52773958D01*
X75700488Y-52773957D01*
X75677773Y-52760144D01*
X75662705Y-52750980D01*
X75657381Y-52747356D01*
X75632963Y-52728840D01*
X75622148Y-52720639D01*
X75622147Y-52720638D01*
X75622145Y-52720637D01*
X75605612Y-52714117D01*
X75586374Y-52704562D01*
X75571189Y-52695328D01*
X75571186Y-52695327D01*
X75550218Y-52689452D01*
X75528608Y-52683397D01*
X75522501Y-52681343D01*
X75481372Y-52665124D01*
X75469262Y-52663878D01*
X75463679Y-52663304D01*
X75442590Y-52659296D01*
X75425471Y-52654500D01*
X75425468Y-52654500D01*
X75381259Y-52654500D01*
X75374811Y-52654169D01*
X75330835Y-52649647D01*
X75313317Y-52652668D01*
X75291910Y-52654500D01*
X74366834Y-52654500D01*
X74298713Y-52634498D01*
X74277739Y-52617595D01*
X74207405Y-52547261D01*
X74173379Y-52484949D01*
X74170500Y-52458166D01*
X74170500Y-50704484D01*
X74170537Y-50702333D01*
X74171445Y-50675724D01*
X74172762Y-50637174D01*
X74162295Y-50594225D01*
X74161090Y-50587885D01*
X74155070Y-50544080D01*
X74147988Y-50527778D01*
X74141137Y-50507403D01*
X74136934Y-50490153D01*
X74136933Y-50490148D01*
X74115258Y-50451598D01*
X74112401Y-50445848D01*
X74094780Y-50405280D01*
X74083561Y-50391491D01*
X74071474Y-50373731D01*
X74062765Y-50358241D01*
X74031501Y-50326977D01*
X74027186Y-50322195D01*
X73999277Y-50287891D01*
X73984756Y-50277641D01*
X73968322Y-50263798D01*
X73837231Y-50132706D01*
X73803206Y-50070394D01*
X73808272Y-49999578D01*
X73837230Y-49954517D01*
X73984553Y-49807195D01*
X73984553Y-49807194D01*
X74002276Y-49789472D01*
X74002276Y-49789470D01*
X74008528Y-49783220D01*
X74019429Y-49761824D01*
X74029744Y-49744993D01*
X74043849Y-49725581D01*
X74051260Y-49702767D01*
X74058827Y-49684500D01*
X74069719Y-49663126D01*
X74073471Y-49639428D01*
X74078088Y-49620202D01*
X74085500Y-49597393D01*
X74085500Y-44659593D01*
X74085500Y-44659590D01*
X74069719Y-44559952D01*
X74008528Y-44439858D01*
X73913220Y-44344550D01*
X73858914Y-44316879D01*
X73827023Y-44293708D01*
X73742768Y-44209453D01*
X73708742Y-44147141D01*
X73705868Y-44119272D01*
X73736031Y-40620373D01*
X73756618Y-40552432D01*
X73772920Y-40532379D01*
X73961898Y-40343401D01*
X73964628Y-40340831D01*
X74009332Y-40301229D01*
X74043267Y-40252062D01*
X74045489Y-40249043D01*
X74082326Y-40202028D01*
X74086099Y-40193642D01*
X74097295Y-40173792D01*
X74102518Y-40166226D01*
X74123696Y-40110382D01*
X74125136Y-40106906D01*
X74149650Y-40052439D01*
X74151305Y-40043401D01*
X74157430Y-40021432D01*
X74160688Y-40012845D01*
X74167888Y-39953542D01*
X74168452Y-39949834D01*
X74179219Y-39891085D01*
X74175614Y-39831499D01*
X74175500Y-39827697D01*
X74175500Y-39301500D01*
X74195502Y-39233379D01*
X74249158Y-39186886D01*
X74301500Y-39175500D01*
X76373310Y-39175500D01*
X76441431Y-39195502D01*
G37*
%TD.AperFunction*%
%TA.AperFunction,Conductor*%
G36*
X69419407Y-54520002D02*
G01*
X69440381Y-54536905D01*
X69852595Y-54949119D01*
X69886621Y-55011431D01*
X69889500Y-55038214D01*
X69889500Y-56491706D01*
X69879909Y-56539925D01*
X69817628Y-56690283D01*
X69790314Y-56731159D01*
X67392771Y-59128702D01*
X67351894Y-59156016D01*
X67198206Y-59219676D01*
X67127617Y-59227265D01*
X67065956Y-59197153D01*
X66744467Y-58909407D01*
X66707048Y-58849072D01*
X66703270Y-58829435D01*
X66555217Y-57496946D01*
X66555214Y-57496932D01*
X66500000Y-57000000D01*
X65949335Y-55164452D01*
X65948919Y-55093456D01*
X65980923Y-55039154D01*
X66483174Y-54536904D01*
X66545486Y-54502879D01*
X66572269Y-54500000D01*
X69351286Y-54500000D01*
X69419407Y-54520002D01*
G37*
%TD.AperFunction*%
%TA.AperFunction,Conductor*%
G36*
X58152761Y-56270002D02*
G01*
X58156208Y-56272298D01*
X58190903Y-56296246D01*
X58193970Y-56298503D01*
X58240970Y-56335326D01*
X58249350Y-56339098D01*
X58269209Y-56350297D01*
X58276772Y-56355518D01*
X58332606Y-56376693D01*
X58336114Y-56378147D01*
X58359012Y-56388452D01*
X58390559Y-56402650D01*
X58390560Y-56402650D01*
X58390562Y-56402651D01*
X58399592Y-56404306D01*
X58421559Y-56410428D01*
X58430153Y-56413688D01*
X58489459Y-56420889D01*
X58493158Y-56421451D01*
X58551913Y-56432219D01*
X58611499Y-56428614D01*
X58615300Y-56428500D01*
X62876310Y-56428500D01*
X62944431Y-56448502D01*
X62965405Y-56465405D01*
X63213095Y-56713095D01*
X63247121Y-56775407D01*
X63250000Y-56802189D01*
X63250000Y-57500000D01*
X65447810Y-57500000D01*
X65515931Y-57520002D01*
X65536905Y-57536905D01*
X65963095Y-57963095D01*
X65997121Y-58025407D01*
X66000000Y-58052190D01*
X66000000Y-58947809D01*
X65979998Y-59015930D01*
X65963096Y-59036904D01*
X65536903Y-59463096D01*
X65474593Y-59497120D01*
X65447810Y-59500000D01*
X64970809Y-59500000D01*
X64924586Y-59491215D01*
X64896141Y-59479998D01*
X64868563Y-59469122D01*
X64780105Y-59458500D01*
X64780102Y-59458500D01*
X63743898Y-59458500D01*
X63743894Y-59458500D01*
X63655436Y-59469122D01*
X63616401Y-59484516D01*
X63599413Y-59491215D01*
X63553191Y-59500000D01*
X57243048Y-59500000D01*
X57174927Y-59479998D01*
X57147237Y-59455830D01*
X57099759Y-59400240D01*
X56914182Y-59241743D01*
X56914180Y-59241742D01*
X56914179Y-59241741D01*
X56706089Y-59114223D01*
X56617327Y-59077457D01*
X56577781Y-59061076D01*
X56522501Y-59016527D01*
X56500080Y-58949164D01*
X56500000Y-58944667D01*
X56500000Y-56802189D01*
X56520002Y-56734068D01*
X56536896Y-56713103D01*
X56963097Y-56286902D01*
X57025407Y-56252879D01*
X57052190Y-56250000D01*
X58084640Y-56250000D01*
X58152761Y-56270002D01*
G37*
%TD.AperFunction*%
%TA.AperFunction,Conductor*%
G36*
X58915931Y-31020002D02*
G01*
X58936905Y-31036905D01*
X59363095Y-31463095D01*
X59397121Y-31525407D01*
X59400000Y-31552190D01*
X59400000Y-33000000D01*
X61447810Y-33000000D01*
X61515931Y-33020002D01*
X61536905Y-33036905D01*
X61939268Y-33439268D01*
X61973294Y-33501580D01*
X61968229Y-33572395D01*
X61965669Y-33578727D01*
X61644107Y-34316137D01*
X61614348Y-34358105D01*
X59583875Y-36243544D01*
X59544193Y-36268493D01*
X58722203Y-36591281D01*
X58676148Y-36600000D01*
X53952190Y-36600000D01*
X53884069Y-36579998D01*
X53863095Y-36563095D01*
X53436905Y-36136905D01*
X53402879Y-36074593D01*
X53400000Y-36047810D01*
X53400000Y-31552190D01*
X53420002Y-31484069D01*
X53436905Y-31463095D01*
X53862595Y-31037405D01*
X53924907Y-31003379D01*
X53951690Y-31000500D01*
X54085057Y-31000500D01*
X54085386Y-31000460D01*
X54092987Y-31000000D01*
X58847810Y-31000000D01*
X58915931Y-31020002D01*
G37*
%TD.AperFunction*%
M02*
