%TF.GenerationSoftware,KiCad,Pcbnew,(6.0.11)*%
%TF.CreationDate,2023-02-05T23:01:50+01:00*%
%TF.ProjectId,epaper-breakout,65706170-6572-42d6-9272-65616b6f7574,rev?*%
%TF.SameCoordinates,Original*%
%TF.FileFunction,Legend,Top*%
%TF.FilePolarity,Positive*%
%FSLAX46Y46*%
G04 Gerber Fmt 4.6, Leading zero omitted, Abs format (unit mm)*
G04 Created by KiCad (PCBNEW (6.0.11)) date 2023-02-05 23:01:50*
%MOMM*%
%LPD*%
G01*
G04 APERTURE LIST*
G04 Aperture macros list*
%AMRoundRect*
0 Rectangle with rounded corners*
0 $1 Rounding radius*
0 $2 $3 $4 $5 $6 $7 $8 $9 X,Y pos of 4 corners*
0 Add a 4 corners polygon primitive as box body*
4,1,4,$2,$3,$4,$5,$6,$7,$8,$9,$2,$3,0*
0 Add four circle primitives for the rounded corners*
1,1,$1+$1,$2,$3*
1,1,$1+$1,$4,$5*
1,1,$1+$1,$6,$7*
1,1,$1+$1,$8,$9*
0 Add four rect primitives between the rounded corners*
20,1,$1+$1,$2,$3,$4,$5,0*
20,1,$1+$1,$4,$5,$6,$7,0*
20,1,$1+$1,$6,$7,$8,$9,0*
20,1,$1+$1,$8,$9,$2,$3,0*%
G04 Aperture macros list end*
%ADD10C,0.120000*%
%ADD11C,0.300000*%
%ADD12C,0.200000*%
%ADD13C,0.150000*%
%ADD14C,0.152400*%
%ADD15RoundRect,0.200000X-0.200000X-0.275000X0.200000X-0.275000X0.200000X0.275000X-0.200000X0.275000X0*%
%ADD16C,2.200000*%
%ADD17R,0.800000X0.900000*%
%ADD18RoundRect,0.200000X-0.275000X0.200000X-0.275000X-0.200000X0.275000X-0.200000X0.275000X0.200000X0*%
%ADD19RoundRect,0.200000X0.275000X-0.200000X0.275000X0.200000X-0.275000X0.200000X-0.275000X-0.200000X0*%
%ADD20RoundRect,0.250000X0.250000X0.475000X-0.250000X0.475000X-0.250000X-0.475000X0.250000X-0.475000X0*%
%ADD21RoundRect,0.250000X-0.475000X0.250000X-0.475000X-0.250000X0.475000X-0.250000X0.475000X0.250000X0*%
%ADD22RoundRect,0.243750X-0.456250X0.243750X-0.456250X-0.243750X0.456250X-0.243750X0.456250X0.243750X0*%
%ADD23RoundRect,0.250000X0.475000X-0.250000X0.475000X0.250000X-0.475000X0.250000X-0.475000X-0.250000X0*%
%ADD24RoundRect,0.249999X0.325001X0.650001X-0.325001X0.650001X-0.325001X-0.650001X0.325001X-0.650001X0*%
%ADD25RoundRect,0.250000X-0.250000X-0.475000X0.250000X-0.475000X0.250000X0.475000X-0.250000X0.475000X0*%
%ADD26RoundRect,0.249999X-0.325001X-0.650001X0.325001X-0.650001X0.325001X0.650001X-0.325001X0.650001X0*%
%ADD27RoundRect,0.200000X0.200000X0.275000X-0.200000X0.275000X-0.200000X-0.275000X0.200000X-0.275000X0*%
%ADD28RoundRect,0.100000X-0.100000X0.637500X-0.100000X-0.637500X0.100000X-0.637500X0.100000X0.637500X0*%
%ADD29RoundRect,0.249997X0.925003X-0.412503X0.925003X0.412503X-0.925003X0.412503X-0.925003X-0.412503X0*%
%ADD30R,3.900000X2.200000*%
%ADD31R,4.200000X2.400000*%
%ADD32R,0.850000X0.200000*%
%ADD33R,0.200000X0.850000*%
%ADD34C,0.508000*%
%ADD35R,4.399999X4.399999*%
%ADD36R,1.200000X0.900000*%
%ADD37C,2.500000*%
%ADD38R,0.650000X1.500000*%
%ADD39R,3.600000X2.700000*%
%ADD40R,1.700000X1.700000*%
%ADD41O,1.700000X1.700000*%
%ADD42RoundRect,0.150000X0.512500X0.150000X-0.512500X0.150000X-0.512500X-0.150000X0.512500X-0.150000X0*%
%ADD43R,0.500000X0.375000*%
%ADD44R,0.650000X0.300000*%
%ADD45R,1.300000X0.300000*%
%ADD46R,2.200000X1.800000*%
%ADD47R,1.600000X2.800000*%
%ADD48R,0.250000X1.300000*%
%ADD49RoundRect,0.150000X-0.587500X-0.150000X0.587500X-0.150000X0.587500X0.150000X-0.587500X0.150000X0*%
%ADD50R,1.500000X1.000000*%
%ADD51RoundRect,0.150000X-0.150000X0.825000X-0.150000X-0.825000X0.150000X-0.825000X0.150000X0.825000X0*%
%ADD52RoundRect,0.150000X-0.150000X0.512500X-0.150000X-0.512500X0.150000X-0.512500X0.150000X0.512500X0*%
%ADD53R,0.254000X0.812800*%
%ADD54R,1.524000X1.701800*%
%ADD55R,1.500000X0.900000*%
%ADD56R,0.900000X1.500000*%
%ADD57R,0.900000X0.900000*%
%ADD58RoundRect,0.150000X-0.825000X-0.150000X0.825000X-0.150000X0.825000X0.150000X-0.825000X0.150000X0*%
%ADD59C,0.650000*%
%ADD60R,1.450000X0.600000*%
%ADD61R,1.450000X0.300000*%
%ADD62O,1.600000X1.000000*%
%ADD63O,2.100000X1.000000*%
%ADD64R,1.000000X1.800000*%
G04 APERTURE END LIST*
D10*
X89916000Y-17780000D02*
X89916000Y-17018000D01*
X80518000Y-32766000D02*
X80518000Y-20066000D01*
X90170000Y-20066000D02*
X90678000Y-20066000D01*
X89662000Y-17780000D02*
X89916000Y-17780000D01*
X82804000Y-17780000D02*
X89662000Y-17780000D01*
X82804000Y-17018000D02*
X82804000Y-17780000D01*
X90678000Y-32766000D02*
X80518000Y-32766000D01*
X90678000Y-20066000D02*
X90678000Y-32766000D01*
X80518000Y-20066000D02*
X90170000Y-20066000D01*
D11*
X30607142Y-52650000D02*
X30607142Y-51507142D01*
X31178571Y-52078571D02*
X30035714Y-52078571D01*
X30392857Y-50292857D02*
X30464285Y-50078571D01*
X30535714Y-50007142D01*
X30678571Y-49935714D01*
X30892857Y-49935714D01*
X31035714Y-50007142D01*
X31107142Y-50078571D01*
X31178571Y-50221428D01*
X31178571Y-50792857D01*
X29678571Y-50792857D01*
X29678571Y-50292857D01*
X29750000Y-50150000D01*
X29821428Y-50078571D01*
X29964285Y-50007142D01*
X30107142Y-50007142D01*
X30250000Y-50078571D01*
X30321428Y-50150000D01*
X30392857Y-50292857D01*
X30392857Y-50792857D01*
X30607142Y-49292857D02*
X30607142Y-48150000D01*
D12*
X54792571Y-16417333D02*
X54792571Y-16084000D01*
X55316380Y-15941142D02*
X55316380Y-16417333D01*
X54316380Y-16417333D01*
X54316380Y-15941142D01*
X54316380Y-15607809D02*
X55316380Y-14941142D01*
X54316380Y-14941142D02*
X55316380Y-15607809D01*
X54316380Y-14703047D02*
X54316380Y-14131619D01*
X55316380Y-14417333D02*
X54316380Y-14417333D01*
X54649714Y-13369714D02*
X55316380Y-13369714D01*
X54268761Y-13607809D02*
X54983047Y-13845904D01*
X54983047Y-13226857D01*
X44632571Y-16417333D02*
X44632571Y-16084000D01*
X45156380Y-15941142D02*
X45156380Y-16417333D01*
X44156380Y-16417333D01*
X44156380Y-15941142D01*
X44156380Y-15607809D02*
X45156380Y-14941142D01*
X44156380Y-14941142D02*
X45156380Y-15607809D01*
X44156380Y-14703047D02*
X44156380Y-14131619D01*
X45156380Y-14417333D02*
X44156380Y-14417333D01*
X44584952Y-13655428D02*
X44537333Y-13750666D01*
X44489714Y-13798285D01*
X44394476Y-13845904D01*
X44346857Y-13845904D01*
X44251619Y-13798285D01*
X44204000Y-13750666D01*
X44156380Y-13655428D01*
X44156380Y-13464952D01*
X44204000Y-13369714D01*
X44251619Y-13322095D01*
X44346857Y-13274476D01*
X44394476Y-13274476D01*
X44489714Y-13322095D01*
X44537333Y-13369714D01*
X44584952Y-13464952D01*
X44584952Y-13655428D01*
X44632571Y-13750666D01*
X44680190Y-13798285D01*
X44775428Y-13845904D01*
X44965904Y-13845904D01*
X45061142Y-13798285D01*
X45108761Y-13750666D01*
X45156380Y-13655428D01*
X45156380Y-13464952D01*
X45108761Y-13369714D01*
X45061142Y-13322095D01*
X44965904Y-13274476D01*
X44775428Y-13274476D01*
X44680190Y-13322095D01*
X44632571Y-13369714D01*
X44584952Y-13464952D01*
X65492380Y-15623714D02*
X66492380Y-15290380D01*
X65492380Y-14957047D01*
X66492380Y-14623714D02*
X65492380Y-14623714D01*
X66492380Y-14147523D02*
X65492380Y-14147523D01*
X66492380Y-13576095D01*
X65492380Y-13576095D01*
D13*
X82166666Y-57896166D02*
X82866666Y-57662833D01*
X82166666Y-57429500D01*
X82500000Y-56962833D02*
X82533333Y-56862833D01*
X82566666Y-56829500D01*
X82633333Y-56796166D01*
X82733333Y-56796166D01*
X82800000Y-56829500D01*
X82833333Y-56862833D01*
X82866666Y-56929500D01*
X82866666Y-57196166D01*
X82166666Y-57196166D01*
X82166666Y-56962833D01*
X82200000Y-56896166D01*
X82233333Y-56862833D01*
X82300000Y-56829500D01*
X82366666Y-56829500D01*
X82433333Y-56862833D01*
X82466666Y-56896166D01*
X82500000Y-56962833D01*
X82500000Y-57196166D01*
X82666666Y-56529500D02*
X82666666Y-56196166D01*
X82866666Y-56596166D02*
X82166666Y-56362833D01*
X82866666Y-56129500D01*
X82166666Y-55996166D02*
X82166666Y-55596166D01*
X82866666Y-55796166D02*
X82166666Y-55796166D01*
X82600000Y-55362833D02*
X82600000Y-54829500D01*
X82866666Y-54496166D02*
X82166666Y-54496166D01*
X82166666Y-54029500D02*
X82166666Y-53896166D01*
X82200000Y-53829500D01*
X82266666Y-53762833D01*
X82400000Y-53729500D01*
X82633333Y-53729500D01*
X82766666Y-53762833D01*
X82833333Y-53829500D01*
X82866666Y-53896166D01*
X82866666Y-54029500D01*
X82833333Y-54096166D01*
X82766666Y-54162833D01*
X82633333Y-54196166D01*
X82400000Y-54196166D01*
X82266666Y-54162833D01*
X82200000Y-54096166D01*
X82166666Y-54029500D01*
X82866666Y-53062833D02*
X82866666Y-53462833D01*
X82866666Y-53262833D02*
X82166666Y-53262833D01*
X82266666Y-53329500D01*
X82333333Y-53396166D01*
X82366666Y-53462833D01*
D12*
X42568761Y-15655428D02*
X42616380Y-15512571D01*
X42616380Y-15274476D01*
X42568761Y-15179238D01*
X42521142Y-15131619D01*
X42425904Y-15084000D01*
X42330666Y-15084000D01*
X42235428Y-15131619D01*
X42187809Y-15179238D01*
X42140190Y-15274476D01*
X42092571Y-15464952D01*
X42044952Y-15560190D01*
X41997333Y-15607809D01*
X41902095Y-15655428D01*
X41806857Y-15655428D01*
X41711619Y-15607809D01*
X41664000Y-15560190D01*
X41616380Y-15464952D01*
X41616380Y-15226857D01*
X41664000Y-15084000D01*
X42521142Y-14084000D02*
X42568761Y-14131619D01*
X42616380Y-14274476D01*
X42616380Y-14369714D01*
X42568761Y-14512571D01*
X42473523Y-14607809D01*
X42378285Y-14655428D01*
X42187809Y-14703047D01*
X42044952Y-14703047D01*
X41854476Y-14655428D01*
X41759238Y-14607809D01*
X41664000Y-14512571D01*
X41616380Y-14369714D01*
X41616380Y-14274476D01*
X41664000Y-14131619D01*
X41711619Y-14084000D01*
X42616380Y-13179238D02*
X42616380Y-13655428D01*
X41616380Y-13655428D01*
X57332571Y-16417333D02*
X57332571Y-16084000D01*
X57856380Y-15941142D02*
X57856380Y-16417333D01*
X56856380Y-16417333D01*
X56856380Y-15941142D01*
X56856380Y-15607809D02*
X57856380Y-14941142D01*
X56856380Y-14941142D02*
X57856380Y-15607809D01*
X56856380Y-14703047D02*
X56856380Y-14131619D01*
X57856380Y-14417333D02*
X56856380Y-14417333D01*
X56856380Y-13893523D02*
X56856380Y-13274476D01*
X57237333Y-13607809D01*
X57237333Y-13464952D01*
X57284952Y-13369714D01*
X57332571Y-13322095D01*
X57427809Y-13274476D01*
X57665904Y-13274476D01*
X57761142Y-13322095D01*
X57808761Y-13369714D01*
X57856380Y-13464952D01*
X57856380Y-13750666D01*
X57808761Y-13845904D01*
X57761142Y-13893523D01*
X79192380Y-16528476D02*
X78192380Y-16528476D01*
X78192380Y-15861809D02*
X78192380Y-15671333D01*
X78240000Y-15576095D01*
X78335238Y-15480857D01*
X78525714Y-15433238D01*
X78859047Y-15433238D01*
X79049523Y-15480857D01*
X79144761Y-15576095D01*
X79192380Y-15671333D01*
X79192380Y-15861809D01*
X79144761Y-15957047D01*
X79049523Y-16052285D01*
X78859047Y-16099904D01*
X78525714Y-16099904D01*
X78335238Y-16052285D01*
X78240000Y-15957047D01*
X78192380Y-15861809D01*
X78525714Y-14576095D02*
X79192380Y-14576095D01*
X78144761Y-14814190D02*
X78859047Y-15052285D01*
X78859047Y-14433238D01*
X78192380Y-13623714D02*
X78192380Y-13814190D01*
X78240000Y-13909428D01*
X78287619Y-13957047D01*
X78430476Y-14052285D01*
X78620952Y-14099904D01*
X79001904Y-14099904D01*
X79097142Y-14052285D01*
X79144761Y-14004666D01*
X79192380Y-13909428D01*
X79192380Y-13718952D01*
X79144761Y-13623714D01*
X79097142Y-13576095D01*
X79001904Y-13528476D01*
X78763809Y-13528476D01*
X78668571Y-13576095D01*
X78620952Y-13623714D01*
X78573333Y-13718952D01*
X78573333Y-13909428D01*
X78620952Y-14004666D01*
X78668571Y-14052285D01*
X78763809Y-14099904D01*
X52252571Y-16417333D02*
X52252571Y-16084000D01*
X52776380Y-15941142D02*
X52776380Y-16417333D01*
X51776380Y-16417333D01*
X51776380Y-15941142D01*
X51776380Y-15607809D02*
X52776380Y-14941142D01*
X51776380Y-14941142D02*
X52776380Y-15607809D01*
X51776380Y-14703047D02*
X51776380Y-14131619D01*
X52776380Y-14417333D02*
X51776380Y-14417333D01*
X51776380Y-13322095D02*
X51776380Y-13798285D01*
X52252571Y-13845904D01*
X52204952Y-13798285D01*
X52157333Y-13703047D01*
X52157333Y-13464952D01*
X52204952Y-13369714D01*
X52252571Y-13322095D01*
X52347809Y-13274476D01*
X52585904Y-13274476D01*
X52681142Y-13322095D01*
X52728761Y-13369714D01*
X52776380Y-13464952D01*
X52776380Y-13703047D01*
X52728761Y-13798285D01*
X52681142Y-13845904D01*
X31102428Y-17859523D02*
X31102428Y-18192857D01*
X30578619Y-18335714D02*
X30578619Y-17859523D01*
X31578619Y-17859523D01*
X31578619Y-18335714D01*
X30626238Y-18716666D02*
X30578619Y-18859523D01*
X30578619Y-19097619D01*
X30626238Y-19192857D01*
X30673857Y-19240476D01*
X30769095Y-19288095D01*
X30864333Y-19288095D01*
X30959571Y-19240476D01*
X31007190Y-19192857D01*
X31054809Y-19097619D01*
X31102428Y-18907142D01*
X31150047Y-18811904D01*
X31197666Y-18764285D01*
X31292904Y-18716666D01*
X31388142Y-18716666D01*
X31483380Y-18764285D01*
X31531000Y-18811904D01*
X31578619Y-18907142D01*
X31578619Y-19145238D01*
X31531000Y-19288095D01*
X30578619Y-19716666D02*
X31578619Y-19716666D01*
X31578619Y-20097619D01*
X31531000Y-20192857D01*
X31483380Y-20240476D01*
X31388142Y-20288095D01*
X31245285Y-20288095D01*
X31150047Y-20240476D01*
X31102428Y-20192857D01*
X31054809Y-20097619D01*
X31054809Y-19716666D01*
X29349571Y-16550000D02*
X29349571Y-17311904D01*
X28968619Y-16930952D02*
X29730523Y-16930952D01*
X29968619Y-17788095D02*
X29159095Y-17788095D01*
X29063857Y-17835714D01*
X29016238Y-17883333D01*
X28968619Y-17978571D01*
X28968619Y-18169047D01*
X29016238Y-18264285D01*
X29063857Y-18311904D01*
X29159095Y-18359523D01*
X29968619Y-18359523D01*
X29016238Y-18788095D02*
X28968619Y-18930952D01*
X28968619Y-19169047D01*
X29016238Y-19264285D01*
X29063857Y-19311904D01*
X29159095Y-19359523D01*
X29254333Y-19359523D01*
X29349571Y-19311904D01*
X29397190Y-19264285D01*
X29444809Y-19169047D01*
X29492428Y-18978571D01*
X29540047Y-18883333D01*
X29587666Y-18835714D01*
X29682904Y-18788095D01*
X29778142Y-18788095D01*
X29873380Y-18835714D01*
X29921000Y-18883333D01*
X29968619Y-18978571D01*
X29968619Y-19216666D01*
X29921000Y-19359523D01*
X29492428Y-20121428D02*
X29444809Y-20264285D01*
X29397190Y-20311904D01*
X29301952Y-20359523D01*
X29159095Y-20359523D01*
X29063857Y-20311904D01*
X29016238Y-20264285D01*
X28968619Y-20169047D01*
X28968619Y-19788095D01*
X29968619Y-19788095D01*
X29968619Y-20121428D01*
X29921000Y-20216666D01*
X29873380Y-20264285D01*
X29778142Y-20311904D01*
X29682904Y-20311904D01*
X29587666Y-20264285D01*
X29540047Y-20216666D01*
X29492428Y-20121428D01*
X29492428Y-19788095D01*
X29349571Y-20788095D02*
X29349571Y-21550000D01*
X47172571Y-16417333D02*
X47172571Y-16084000D01*
X47696380Y-15941142D02*
X47696380Y-16417333D01*
X46696380Y-16417333D01*
X46696380Y-15941142D01*
X46696380Y-15607809D02*
X47696380Y-14941142D01*
X46696380Y-14941142D02*
X47696380Y-15607809D01*
X46696380Y-14703047D02*
X46696380Y-14131619D01*
X47696380Y-14417333D02*
X46696380Y-14417333D01*
X46696380Y-13893523D02*
X46696380Y-13226857D01*
X47696380Y-13655428D01*
X118615333Y-33472380D02*
X118615333Y-32472380D01*
X118853428Y-32472380D01*
X118996285Y-32520000D01*
X119091523Y-32615238D01*
X119139142Y-32710476D01*
X119186761Y-32900952D01*
X119186761Y-33043809D01*
X119139142Y-33234285D01*
X119091523Y-33329523D01*
X118996285Y-33424761D01*
X118853428Y-33472380D01*
X118615333Y-33472380D01*
X120139142Y-33472380D02*
X119567714Y-33472380D01*
X119853428Y-33472380D02*
X119853428Y-32472380D01*
X119758190Y-32615238D01*
X119662952Y-32710476D01*
X119567714Y-32758095D01*
X121043904Y-32472380D02*
X120567714Y-32472380D01*
X120520095Y-32948571D01*
X120567714Y-32900952D01*
X120662952Y-32853333D01*
X120901047Y-32853333D01*
X120996285Y-32900952D01*
X121043904Y-32948571D01*
X121091523Y-33043809D01*
X121091523Y-33281904D01*
X121043904Y-33377142D01*
X120996285Y-33424761D01*
X120901047Y-33472380D01*
X120662952Y-33472380D01*
X120567714Y-33424761D01*
X120520095Y-33377142D01*
X71572380Y-15576095D02*
X70572380Y-15576095D01*
X70572380Y-14909428D02*
X70572380Y-14718952D01*
X70620000Y-14623714D01*
X70715238Y-14528476D01*
X70905714Y-14480857D01*
X71239047Y-14480857D01*
X71429523Y-14528476D01*
X71524761Y-14623714D01*
X71572380Y-14718952D01*
X71572380Y-14909428D01*
X71524761Y-15004666D01*
X71429523Y-15099904D01*
X71239047Y-15147523D01*
X70905714Y-15147523D01*
X70715238Y-15099904D01*
X70620000Y-15004666D01*
X70572380Y-14909428D01*
X71572380Y-13528476D02*
X71572380Y-14099904D01*
X71572380Y-13814190D02*
X70572380Y-13814190D01*
X70715238Y-13909428D01*
X70810476Y-14004666D01*
X70858095Y-14099904D01*
X111291714Y-45181714D02*
X111958380Y-45181714D01*
X110910761Y-45419809D02*
X111625047Y-45657904D01*
X111625047Y-45038857D01*
X110958380Y-44467428D02*
X110958380Y-44372190D01*
X111006000Y-44276952D01*
X111053619Y-44229333D01*
X111148857Y-44181714D01*
X111339333Y-44134095D01*
X111577428Y-44134095D01*
X111767904Y-44181714D01*
X111863142Y-44229333D01*
X111910761Y-44276952D01*
X111958380Y-44372190D01*
X111958380Y-44467428D01*
X111910761Y-44562666D01*
X111863142Y-44610285D01*
X111767904Y-44657904D01*
X111577428Y-44705523D01*
X111339333Y-44705523D01*
X111148857Y-44657904D01*
X111053619Y-44610285D01*
X111006000Y-44562666D01*
X110958380Y-44467428D01*
X111291714Y-43705523D02*
X112291714Y-43705523D01*
X111339333Y-43705523D02*
X111291714Y-43610285D01*
X111291714Y-43419809D01*
X111339333Y-43324571D01*
X111386952Y-43276952D01*
X111482190Y-43229333D01*
X111767904Y-43229333D01*
X111863142Y-43276952D01*
X111910761Y-43324571D01*
X111958380Y-43419809D01*
X111958380Y-43610285D01*
X111910761Y-43705523D01*
X111958380Y-42800761D02*
X111291714Y-42800761D01*
X110958380Y-42800761D02*
X111006000Y-42848380D01*
X111053619Y-42800761D01*
X111006000Y-42753142D01*
X110958380Y-42800761D01*
X111053619Y-42800761D01*
X111291714Y-42324571D02*
X111958380Y-42324571D01*
X111386952Y-42324571D02*
X111339333Y-42276952D01*
X111291714Y-42181714D01*
X111291714Y-42038857D01*
X111339333Y-41943619D01*
X111434571Y-41896000D01*
X111958380Y-41896000D01*
X111910761Y-41372190D02*
X111958380Y-41372190D01*
X112053619Y-41419809D01*
X112101238Y-41467428D01*
X111958380Y-39657904D02*
X111958380Y-40229333D01*
X111958380Y-39943619D02*
X110958380Y-39943619D01*
X111101238Y-40038857D01*
X111196476Y-40134095D01*
X111244095Y-40229333D01*
X110958380Y-38800761D02*
X110958380Y-38991238D01*
X111006000Y-39086476D01*
X111053619Y-39134095D01*
X111196476Y-39229333D01*
X111386952Y-39276952D01*
X111767904Y-39276952D01*
X111863142Y-39229333D01*
X111910761Y-39181714D01*
X111958380Y-39086476D01*
X111958380Y-38896000D01*
X111910761Y-38800761D01*
X111863142Y-38753142D01*
X111767904Y-38705523D01*
X111529809Y-38705523D01*
X111434571Y-38753142D01*
X111386952Y-38800761D01*
X111339333Y-38896000D01*
X111339333Y-39086476D01*
X111386952Y-39181714D01*
X111434571Y-39229333D01*
X111529809Y-39276952D01*
X111958380Y-38276952D02*
X110958380Y-38276952D01*
X111339333Y-38276952D02*
X111291714Y-38181714D01*
X111291714Y-37991238D01*
X111339333Y-37896000D01*
X111386952Y-37848380D01*
X111482190Y-37800761D01*
X111767904Y-37800761D01*
X111863142Y-37848380D01*
X111910761Y-37896000D01*
X111958380Y-37991238D01*
X111958380Y-38181714D01*
X111910761Y-38276952D01*
X111958380Y-37372190D02*
X111291714Y-37372190D01*
X110958380Y-37372190D02*
X111006000Y-37419809D01*
X111053619Y-37372190D01*
X111006000Y-37324571D01*
X110958380Y-37372190D01*
X111053619Y-37372190D01*
X111291714Y-37038857D02*
X111291714Y-36657904D01*
X110958380Y-36896000D02*
X111815523Y-36896000D01*
X111910761Y-36848380D01*
X111958380Y-36753142D01*
X111958380Y-36657904D01*
X111434571Y-35562666D02*
X111434571Y-35229333D01*
X111958380Y-35086476D02*
X111958380Y-35562666D01*
X110958380Y-35562666D01*
X110958380Y-35086476D01*
X111958380Y-34657904D02*
X110958380Y-34657904D01*
X110958380Y-34276952D01*
X111006000Y-34181714D01*
X111053619Y-34134095D01*
X111148857Y-34086476D01*
X111291714Y-34086476D01*
X111386952Y-34134095D01*
X111434571Y-34181714D01*
X111482190Y-34276952D01*
X111482190Y-34657904D01*
X111958380Y-33657904D02*
X110958380Y-33657904D01*
X110958380Y-33419809D01*
X111006000Y-33276952D01*
X111101238Y-33181714D01*
X111196476Y-33134095D01*
X111386952Y-33086476D01*
X111529809Y-33086476D01*
X111720285Y-33134095D01*
X111815523Y-33181714D01*
X111910761Y-33276952D01*
X111958380Y-33419809D01*
X111958380Y-33657904D01*
D13*
X84644666Y-52911500D02*
X84311333Y-53144833D01*
X84644666Y-53311500D02*
X83944666Y-53311500D01*
X83944666Y-53044833D01*
X83978000Y-52978166D01*
X84011333Y-52944833D01*
X84078000Y-52911500D01*
X84178000Y-52911500D01*
X84244666Y-52944833D01*
X84278000Y-52978166D01*
X84311333Y-53044833D01*
X84311333Y-53311500D01*
X83944666Y-52711500D02*
X83944666Y-52311500D01*
X84644666Y-52511500D02*
X83944666Y-52511500D01*
X84578000Y-51678166D02*
X84611333Y-51711500D01*
X84644666Y-51811500D01*
X84644666Y-51878166D01*
X84611333Y-51978166D01*
X84544666Y-52044833D01*
X84478000Y-52078166D01*
X84344666Y-52111500D01*
X84244666Y-52111500D01*
X84111333Y-52078166D01*
X84044666Y-52044833D01*
X83978000Y-51978166D01*
X83944666Y-51878166D01*
X83944666Y-51811500D01*
X83978000Y-51711500D01*
X84011333Y-51678166D01*
X84644666Y-51378166D02*
X83944666Y-51378166D01*
X84378000Y-51044833D02*
X84378000Y-50511500D01*
X84644666Y-50178166D02*
X83944666Y-50178166D01*
X83944666Y-49711500D02*
X83944666Y-49578166D01*
X83978000Y-49511500D01*
X84044666Y-49444833D01*
X84178000Y-49411500D01*
X84411333Y-49411500D01*
X84544666Y-49444833D01*
X84611333Y-49511500D01*
X84644666Y-49578166D01*
X84644666Y-49711500D01*
X84611333Y-49778166D01*
X84544666Y-49844833D01*
X84411333Y-49878166D01*
X84178000Y-49878166D01*
X84044666Y-49844833D01*
X83978000Y-49778166D01*
X83944666Y-49711500D01*
X84011333Y-49144833D02*
X83978000Y-49111500D01*
X83944666Y-49044833D01*
X83944666Y-48878166D01*
X83978000Y-48811500D01*
X84011333Y-48778166D01*
X84078000Y-48744833D01*
X84144666Y-48744833D01*
X84244666Y-48778166D01*
X84644666Y-49178166D01*
X84644666Y-48744833D01*
D12*
X119567714Y-51252380D02*
X119567714Y-50252380D01*
X119805809Y-50252380D01*
X119948666Y-50300000D01*
X120043904Y-50395238D01*
X120091523Y-50490476D01*
X120139142Y-50680952D01*
X120139142Y-50823809D01*
X120091523Y-51014285D01*
X120043904Y-51109523D01*
X119948666Y-51204761D01*
X119805809Y-51252380D01*
X119567714Y-51252380D01*
X120710571Y-50680952D02*
X120615333Y-50633333D01*
X120567714Y-50585714D01*
X120520095Y-50490476D01*
X120520095Y-50442857D01*
X120567714Y-50347619D01*
X120615333Y-50300000D01*
X120710571Y-50252380D01*
X120901047Y-50252380D01*
X120996285Y-50300000D01*
X121043904Y-50347619D01*
X121091523Y-50442857D01*
X121091523Y-50490476D01*
X121043904Y-50585714D01*
X120996285Y-50633333D01*
X120901047Y-50680952D01*
X120710571Y-50680952D01*
X120615333Y-50728571D01*
X120567714Y-50776190D01*
X120520095Y-50871428D01*
X120520095Y-51061904D01*
X120567714Y-51157142D01*
X120615333Y-51204761D01*
X120710571Y-51252380D01*
X120901047Y-51252380D01*
X120996285Y-51204761D01*
X121043904Y-51157142D01*
X121091523Y-51061904D01*
X121091523Y-50871428D01*
X121043904Y-50776190D01*
X120996285Y-50728571D01*
X120901047Y-50680952D01*
X118996285Y-27440000D02*
X118901047Y-27392380D01*
X118758190Y-27392380D01*
X118615333Y-27440000D01*
X118520095Y-27535238D01*
X118472476Y-27630476D01*
X118424857Y-27820952D01*
X118424857Y-27963809D01*
X118472476Y-28154285D01*
X118520095Y-28249523D01*
X118615333Y-28344761D01*
X118758190Y-28392380D01*
X118853428Y-28392380D01*
X118996285Y-28344761D01*
X119043904Y-28297142D01*
X119043904Y-27963809D01*
X118853428Y-27963809D01*
X119472476Y-28392380D02*
X119472476Y-27392380D01*
X120043904Y-28392380D01*
X120043904Y-27392380D01*
X120520095Y-28392380D02*
X120520095Y-27392380D01*
X120758190Y-27392380D01*
X120901047Y-27440000D01*
X120996285Y-27535238D01*
X121043904Y-27630476D01*
X121091523Y-27820952D01*
X121091523Y-27963809D01*
X121043904Y-28154285D01*
X120996285Y-28249523D01*
X120901047Y-28344761D01*
X120758190Y-28392380D01*
X120520095Y-28392380D01*
X59872571Y-16417333D02*
X59872571Y-16084000D01*
X60396380Y-15941142D02*
X60396380Y-16417333D01*
X59396380Y-16417333D01*
X59396380Y-15941142D01*
X59396380Y-15607809D02*
X60396380Y-14941142D01*
X59396380Y-14941142D02*
X60396380Y-15607809D01*
X59396380Y-14703047D02*
X59396380Y-14131619D01*
X60396380Y-14417333D02*
X59396380Y-14417333D01*
X59491619Y-13845904D02*
X59444000Y-13798285D01*
X59396380Y-13703047D01*
X59396380Y-13464952D01*
X59444000Y-13369714D01*
X59491619Y-13322095D01*
X59586857Y-13274476D01*
X59682095Y-13274476D01*
X59824952Y-13322095D01*
X60396380Y-13893523D01*
X60396380Y-13274476D01*
X34044000Y-15369714D02*
X33996380Y-15464952D01*
X33996380Y-15607809D01*
X34044000Y-15750666D01*
X34139238Y-15845904D01*
X34234476Y-15893523D01*
X34424952Y-15941142D01*
X34567809Y-15941142D01*
X34758285Y-15893523D01*
X34853523Y-15845904D01*
X34948761Y-15750666D01*
X34996380Y-15607809D01*
X34996380Y-15512571D01*
X34948761Y-15369714D01*
X34901142Y-15322095D01*
X34567809Y-15322095D01*
X34567809Y-15512571D01*
X34996380Y-14893523D02*
X33996380Y-14893523D01*
X34996380Y-14322095D01*
X33996380Y-14322095D01*
X34996380Y-13845904D02*
X33996380Y-13845904D01*
X33996380Y-13607809D01*
X34044000Y-13464952D01*
X34139238Y-13369714D01*
X34234476Y-13322095D01*
X34424952Y-13274476D01*
X34567809Y-13274476D01*
X34758285Y-13322095D01*
X34853523Y-13369714D01*
X34948761Y-13464952D01*
X34996380Y-13607809D01*
X34996380Y-13845904D01*
X101042857Y-15962380D02*
X101661904Y-15962380D01*
X101328571Y-16343333D01*
X101471428Y-16343333D01*
X101566666Y-16390952D01*
X101614285Y-16438571D01*
X101661904Y-16533809D01*
X101661904Y-16771904D01*
X101614285Y-16867142D01*
X101566666Y-16914761D01*
X101471428Y-16962380D01*
X101185714Y-16962380D01*
X101090476Y-16914761D01*
X101042857Y-16867142D01*
X101995238Y-15962380D02*
X102614285Y-15962380D01*
X102280952Y-16343333D01*
X102423809Y-16343333D01*
X102519047Y-16390952D01*
X102566666Y-16438571D01*
X102614285Y-16533809D01*
X102614285Y-16771904D01*
X102566666Y-16867142D01*
X102519047Y-16914761D01*
X102423809Y-16962380D01*
X102138095Y-16962380D01*
X102042857Y-16914761D01*
X101995238Y-16867142D01*
X103042857Y-16295714D02*
X103042857Y-17295714D01*
X103042857Y-16343333D02*
X103138095Y-16295714D01*
X103328571Y-16295714D01*
X103423809Y-16343333D01*
X103471428Y-16390952D01*
X103519047Y-16486190D01*
X103519047Y-16771904D01*
X103471428Y-16867142D01*
X103423809Y-16914761D01*
X103328571Y-16962380D01*
X103138095Y-16962380D01*
X103042857Y-16914761D01*
X103947619Y-16962380D02*
X103947619Y-16295714D01*
X103947619Y-15962380D02*
X103900000Y-16010000D01*
X103947619Y-16057619D01*
X103995238Y-16010000D01*
X103947619Y-15962380D01*
X103947619Y-16057619D01*
X104423809Y-16295714D02*
X104423809Y-16962380D01*
X104423809Y-16390952D02*
X104471428Y-16343333D01*
X104566666Y-16295714D01*
X104709523Y-16295714D01*
X104804761Y-16343333D01*
X104852380Y-16438571D01*
X104852380Y-16962380D01*
X105376190Y-16914761D02*
X105376190Y-16962380D01*
X105328571Y-17057619D01*
X105280952Y-17105238D01*
X106709523Y-16390952D02*
X106614285Y-16343333D01*
X106566666Y-16295714D01*
X106519047Y-16200476D01*
X106519047Y-16152857D01*
X106566666Y-16057619D01*
X106614285Y-16010000D01*
X106709523Y-15962380D01*
X106900000Y-15962380D01*
X106995238Y-16010000D01*
X107042857Y-16057619D01*
X107090476Y-16152857D01*
X107090476Y-16200476D01*
X107042857Y-16295714D01*
X106995238Y-16343333D01*
X106900000Y-16390952D01*
X106709523Y-16390952D01*
X106614285Y-16438571D01*
X106566666Y-16486190D01*
X106519047Y-16581428D01*
X106519047Y-16771904D01*
X106566666Y-16867142D01*
X106614285Y-16914761D01*
X106709523Y-16962380D01*
X106900000Y-16962380D01*
X106995238Y-16914761D01*
X107042857Y-16867142D01*
X107090476Y-16771904D01*
X107090476Y-16581428D01*
X107042857Y-16486190D01*
X106995238Y-16438571D01*
X106900000Y-16390952D01*
X107519047Y-16962380D02*
X107519047Y-15962380D01*
X107519047Y-16343333D02*
X107614285Y-16295714D01*
X107804761Y-16295714D01*
X107900000Y-16343333D01*
X107947619Y-16390952D01*
X107995238Y-16486190D01*
X107995238Y-16771904D01*
X107947619Y-16867142D01*
X107900000Y-16914761D01*
X107804761Y-16962380D01*
X107614285Y-16962380D01*
X107519047Y-16914761D01*
X108423809Y-16962380D02*
X108423809Y-16295714D01*
X108423809Y-15962380D02*
X108376190Y-16010000D01*
X108423809Y-16057619D01*
X108471428Y-16010000D01*
X108423809Y-15962380D01*
X108423809Y-16057619D01*
X108757142Y-16295714D02*
X109138095Y-16295714D01*
X108900000Y-15962380D02*
X108900000Y-16819523D01*
X108947619Y-16914761D01*
X109042857Y-16962380D01*
X109138095Y-16962380D01*
X110233333Y-16438571D02*
X110566666Y-16438571D01*
X110709523Y-16962380D02*
X110233333Y-16962380D01*
X110233333Y-15962380D01*
X110709523Y-15962380D01*
X111138095Y-16962380D02*
X111138095Y-15962380D01*
X111519047Y-15962380D01*
X111614285Y-16010000D01*
X111661904Y-16057619D01*
X111709523Y-16152857D01*
X111709523Y-16295714D01*
X111661904Y-16390952D01*
X111614285Y-16438571D01*
X111519047Y-16486190D01*
X111138095Y-16486190D01*
X112138095Y-16962380D02*
X112138095Y-15962380D01*
X112376190Y-15962380D01*
X112519047Y-16010000D01*
X112614285Y-16105238D01*
X112661904Y-16200476D01*
X112709523Y-16390952D01*
X112709523Y-16533809D01*
X112661904Y-16724285D01*
X112614285Y-16819523D01*
X112519047Y-16914761D01*
X112376190Y-16962380D01*
X112138095Y-16962380D01*
X40028761Y-15703047D02*
X40076380Y-15560190D01*
X40076380Y-15322095D01*
X40028761Y-15226857D01*
X39981142Y-15179238D01*
X39885904Y-15131619D01*
X39790666Y-15131619D01*
X39695428Y-15179238D01*
X39647809Y-15226857D01*
X39600190Y-15322095D01*
X39552571Y-15512571D01*
X39504952Y-15607809D01*
X39457333Y-15655428D01*
X39362095Y-15703047D01*
X39266857Y-15703047D01*
X39171619Y-15655428D01*
X39124000Y-15607809D01*
X39076380Y-15512571D01*
X39076380Y-15274476D01*
X39124000Y-15131619D01*
X40076380Y-14703047D02*
X39076380Y-14703047D01*
X39076380Y-14464952D01*
X39124000Y-14322095D01*
X39219238Y-14226857D01*
X39314476Y-14179238D01*
X39504952Y-14131619D01*
X39647809Y-14131619D01*
X39838285Y-14179238D01*
X39933523Y-14226857D01*
X40028761Y-14322095D01*
X40076380Y-14464952D01*
X40076380Y-14703047D01*
X39790666Y-13750666D02*
X39790666Y-13274476D01*
X40076380Y-13845904D02*
X39076380Y-13512571D01*
X40076380Y-13179238D01*
X91797142Y-16290380D02*
X91844761Y-16338000D01*
X91892380Y-16480857D01*
X91892380Y-16576095D01*
X91844761Y-16718952D01*
X91749523Y-16814190D01*
X91654285Y-16861809D01*
X91463809Y-16909428D01*
X91320952Y-16909428D01*
X91130476Y-16861809D01*
X91035238Y-16814190D01*
X90940000Y-16718952D01*
X90892380Y-16576095D01*
X90892380Y-16480857D01*
X90940000Y-16338000D01*
X90987619Y-16290380D01*
X91892380Y-15290380D02*
X91416190Y-15623714D01*
X91892380Y-15861809D02*
X90892380Y-15861809D01*
X90892380Y-15480857D01*
X90940000Y-15385619D01*
X90987619Y-15338000D01*
X91082857Y-15290380D01*
X91225714Y-15290380D01*
X91320952Y-15338000D01*
X91368571Y-15385619D01*
X91416190Y-15480857D01*
X91416190Y-15861809D01*
X90892380Y-15004666D02*
X90892380Y-14433238D01*
X91892380Y-14718952D02*
X90892380Y-14718952D01*
X91797142Y-13528476D02*
X91844761Y-13576095D01*
X91892380Y-13718952D01*
X91892380Y-13814190D01*
X91844761Y-13957047D01*
X91749523Y-14052285D01*
X91654285Y-14099904D01*
X91463809Y-14147523D01*
X91320952Y-14147523D01*
X91130476Y-14099904D01*
X91035238Y-14052285D01*
X90940000Y-13957047D01*
X90892380Y-13814190D01*
X90892380Y-13718952D01*
X90940000Y-13576095D01*
X90987619Y-13528476D01*
X62412571Y-16417333D02*
X62412571Y-16084000D01*
X62936380Y-15941142D02*
X62936380Y-16417333D01*
X61936380Y-16417333D01*
X61936380Y-15941142D01*
X61936380Y-15607809D02*
X62936380Y-14941142D01*
X61936380Y-14941142D02*
X62936380Y-15607809D01*
X61936380Y-14703047D02*
X61936380Y-14131619D01*
X62936380Y-14417333D02*
X61936380Y-14417333D01*
X62936380Y-13274476D02*
X62936380Y-13845904D01*
X62936380Y-13560190D02*
X61936380Y-13560190D01*
X62079238Y-13655428D01*
X62174476Y-13750666D01*
X62222095Y-13845904D01*
X118615333Y-38552380D02*
X118615333Y-37552380D01*
X118853428Y-37552380D01*
X118996285Y-37600000D01*
X119091523Y-37695238D01*
X119139142Y-37790476D01*
X119186761Y-37980952D01*
X119186761Y-38123809D01*
X119139142Y-38314285D01*
X119091523Y-38409523D01*
X118996285Y-38504761D01*
X118853428Y-38552380D01*
X118615333Y-38552380D01*
X120139142Y-38552380D02*
X119567714Y-38552380D01*
X119853428Y-38552380D02*
X119853428Y-37552380D01*
X119758190Y-37695238D01*
X119662952Y-37790476D01*
X119567714Y-37838095D01*
X120472476Y-37552380D02*
X121091523Y-37552380D01*
X120758190Y-37933333D01*
X120901047Y-37933333D01*
X120996285Y-37980952D01*
X121043904Y-38028571D01*
X121091523Y-38123809D01*
X121091523Y-38361904D01*
X121043904Y-38457142D01*
X120996285Y-38504761D01*
X120901047Y-38552380D01*
X120615333Y-38552380D01*
X120520095Y-38504761D01*
X120472476Y-38457142D01*
X118615333Y-46172380D02*
X118615333Y-45172380D01*
X118853428Y-45172380D01*
X118996285Y-45220000D01*
X119091523Y-45315238D01*
X119139142Y-45410476D01*
X119186761Y-45600952D01*
X119186761Y-45743809D01*
X119139142Y-45934285D01*
X119091523Y-46029523D01*
X118996285Y-46124761D01*
X118853428Y-46172380D01*
X118615333Y-46172380D01*
X120139142Y-46172380D02*
X119567714Y-46172380D01*
X119853428Y-46172380D02*
X119853428Y-45172380D01*
X119758190Y-45315238D01*
X119662952Y-45410476D01*
X119567714Y-45458095D01*
X120758190Y-45172380D02*
X120853428Y-45172380D01*
X120948666Y-45220000D01*
X120996285Y-45267619D01*
X121043904Y-45362857D01*
X121091523Y-45553333D01*
X121091523Y-45791428D01*
X121043904Y-45981904D01*
X120996285Y-46077142D01*
X120948666Y-46124761D01*
X120853428Y-46172380D01*
X120758190Y-46172380D01*
X120662952Y-46124761D01*
X120615333Y-46077142D01*
X120567714Y-45981904D01*
X120520095Y-45791428D01*
X120520095Y-45553333D01*
X120567714Y-45362857D01*
X120615333Y-45267619D01*
X120662952Y-45220000D01*
X120758190Y-45172380D01*
X76652380Y-15576095D02*
X75652380Y-15576095D01*
X75652380Y-14909428D02*
X75652380Y-14718952D01*
X75700000Y-14623714D01*
X75795238Y-14528476D01*
X75985714Y-14480857D01*
X76319047Y-14480857D01*
X76509523Y-14528476D01*
X76604761Y-14623714D01*
X76652380Y-14718952D01*
X76652380Y-14909428D01*
X76604761Y-15004666D01*
X76509523Y-15099904D01*
X76319047Y-15147523D01*
X75985714Y-15147523D01*
X75795238Y-15099904D01*
X75700000Y-15004666D01*
X75652380Y-14909428D01*
X75652380Y-14147523D02*
X75652380Y-13528476D01*
X76033333Y-13861809D01*
X76033333Y-13718952D01*
X76080952Y-13623714D01*
X76128571Y-13576095D01*
X76223809Y-13528476D01*
X76461904Y-13528476D01*
X76557142Y-13576095D01*
X76604761Y-13623714D01*
X76652380Y-13718952D01*
X76652380Y-14004666D01*
X76604761Y-14099904D01*
X76557142Y-14147523D01*
X86812380Y-16528476D02*
X85812380Y-16528476D01*
X85812380Y-15861809D02*
X85812380Y-15671333D01*
X85860000Y-15576095D01*
X85955238Y-15480857D01*
X86145714Y-15433238D01*
X86479047Y-15433238D01*
X86669523Y-15480857D01*
X86764761Y-15576095D01*
X86812380Y-15671333D01*
X86812380Y-15861809D01*
X86764761Y-15957047D01*
X86669523Y-16052285D01*
X86479047Y-16099904D01*
X86145714Y-16099904D01*
X85955238Y-16052285D01*
X85860000Y-15957047D01*
X85812380Y-15861809D01*
X85812380Y-15099904D02*
X85812380Y-14480857D01*
X86193333Y-14814190D01*
X86193333Y-14671333D01*
X86240952Y-14576095D01*
X86288571Y-14528476D01*
X86383809Y-14480857D01*
X86621904Y-14480857D01*
X86717142Y-14528476D01*
X86764761Y-14576095D01*
X86812380Y-14671333D01*
X86812380Y-14957047D01*
X86764761Y-15052285D01*
X86717142Y-15099904D01*
X86240952Y-13909428D02*
X86193333Y-14004666D01*
X86145714Y-14052285D01*
X86050476Y-14099904D01*
X86002857Y-14099904D01*
X85907619Y-14052285D01*
X85860000Y-14004666D01*
X85812380Y-13909428D01*
X85812380Y-13718952D01*
X85860000Y-13623714D01*
X85907619Y-13576095D01*
X86002857Y-13528476D01*
X86050476Y-13528476D01*
X86145714Y-13576095D01*
X86193333Y-13623714D01*
X86240952Y-13718952D01*
X86240952Y-13909428D01*
X86288571Y-14004666D01*
X86336190Y-14052285D01*
X86431428Y-14099904D01*
X86621904Y-14099904D01*
X86717142Y-14052285D01*
X86764761Y-14004666D01*
X86812380Y-13909428D01*
X86812380Y-13718952D01*
X86764761Y-13623714D01*
X86717142Y-13576095D01*
X86621904Y-13528476D01*
X86431428Y-13528476D01*
X86336190Y-13576095D01*
X86288571Y-13623714D01*
X86240952Y-13718952D01*
X118615333Y-36012380D02*
X118615333Y-35012380D01*
X118853428Y-35012380D01*
X118996285Y-35060000D01*
X119091523Y-35155238D01*
X119139142Y-35250476D01*
X119186761Y-35440952D01*
X119186761Y-35583809D01*
X119139142Y-35774285D01*
X119091523Y-35869523D01*
X118996285Y-35964761D01*
X118853428Y-36012380D01*
X118615333Y-36012380D01*
X120139142Y-36012380D02*
X119567714Y-36012380D01*
X119853428Y-36012380D02*
X119853428Y-35012380D01*
X119758190Y-35155238D01*
X119662952Y-35250476D01*
X119567714Y-35298095D01*
X120996285Y-35345714D02*
X120996285Y-36012380D01*
X120758190Y-34964761D02*
X120520095Y-35679047D01*
X121139142Y-35679047D01*
X81732380Y-16528476D02*
X80732380Y-16528476D01*
X80732380Y-15861809D02*
X80732380Y-15671333D01*
X80780000Y-15576095D01*
X80875238Y-15480857D01*
X81065714Y-15433238D01*
X81399047Y-15433238D01*
X81589523Y-15480857D01*
X81684761Y-15576095D01*
X81732380Y-15671333D01*
X81732380Y-15861809D01*
X81684761Y-15957047D01*
X81589523Y-16052285D01*
X81399047Y-16099904D01*
X81065714Y-16099904D01*
X80875238Y-16052285D01*
X80780000Y-15957047D01*
X80732380Y-15861809D01*
X81065714Y-14576095D02*
X81732380Y-14576095D01*
X80684761Y-14814190D02*
X81399047Y-15052285D01*
X81399047Y-14433238D01*
X80732380Y-13576095D02*
X80732380Y-14052285D01*
X81208571Y-14099904D01*
X81160952Y-14052285D01*
X81113333Y-13957047D01*
X81113333Y-13718952D01*
X81160952Y-13623714D01*
X81208571Y-13576095D01*
X81303809Y-13528476D01*
X81541904Y-13528476D01*
X81637142Y-13576095D01*
X81684761Y-13623714D01*
X81732380Y-13718952D01*
X81732380Y-13957047D01*
X81684761Y-14052285D01*
X81637142Y-14099904D01*
X93480000Y-15623714D02*
X93432380Y-15718952D01*
X93432380Y-15861809D01*
X93480000Y-16004666D01*
X93575238Y-16099904D01*
X93670476Y-16147523D01*
X93860952Y-16195142D01*
X94003809Y-16195142D01*
X94194285Y-16147523D01*
X94289523Y-16099904D01*
X94384761Y-16004666D01*
X94432380Y-15861809D01*
X94432380Y-15766571D01*
X94384761Y-15623714D01*
X94337142Y-15576095D01*
X94003809Y-15576095D01*
X94003809Y-15766571D01*
X94432380Y-15147523D02*
X93432380Y-15147523D01*
X94432380Y-14576095D01*
X93432380Y-14576095D01*
X94432380Y-14099904D02*
X93432380Y-14099904D01*
X93432380Y-13861809D01*
X93480000Y-13718952D01*
X93575238Y-13623714D01*
X93670476Y-13576095D01*
X93860952Y-13528476D01*
X94003809Y-13528476D01*
X94194285Y-13576095D01*
X94289523Y-13623714D01*
X94384761Y-13718952D01*
X94432380Y-13861809D01*
X94432380Y-14099904D01*
X74112380Y-15576095D02*
X73112380Y-15576095D01*
X73112380Y-14909428D02*
X73112380Y-14718952D01*
X73160000Y-14623714D01*
X73255238Y-14528476D01*
X73445714Y-14480857D01*
X73779047Y-14480857D01*
X73969523Y-14528476D01*
X74064761Y-14623714D01*
X74112380Y-14718952D01*
X74112380Y-14909428D01*
X74064761Y-15004666D01*
X73969523Y-15099904D01*
X73779047Y-15147523D01*
X73445714Y-15147523D01*
X73255238Y-15099904D01*
X73160000Y-15004666D01*
X73112380Y-14909428D01*
X73207619Y-14099904D02*
X73160000Y-14052285D01*
X73112380Y-13957047D01*
X73112380Y-13718952D01*
X73160000Y-13623714D01*
X73207619Y-13576095D01*
X73302857Y-13528476D01*
X73398095Y-13528476D01*
X73540952Y-13576095D01*
X74112380Y-14147523D01*
X74112380Y-13528476D01*
X68032380Y-16433238D02*
X68032380Y-15814190D01*
X68413333Y-16147523D01*
X68413333Y-16004666D01*
X68460952Y-15909428D01*
X68508571Y-15861809D01*
X68603809Y-15814190D01*
X68841904Y-15814190D01*
X68937142Y-15861809D01*
X68984761Y-15909428D01*
X69032380Y-16004666D01*
X69032380Y-16290380D01*
X68984761Y-16385619D01*
X68937142Y-16433238D01*
X68937142Y-15385619D02*
X68984761Y-15338000D01*
X69032380Y-15385619D01*
X68984761Y-15433238D01*
X68937142Y-15385619D01*
X69032380Y-15385619D01*
X68032380Y-15004666D02*
X68032380Y-14385619D01*
X68413333Y-14718952D01*
X68413333Y-14576095D01*
X68460952Y-14480857D01*
X68508571Y-14433238D01*
X68603809Y-14385619D01*
X68841904Y-14385619D01*
X68937142Y-14433238D01*
X68984761Y-14480857D01*
X69032380Y-14576095D01*
X69032380Y-14861809D01*
X68984761Y-14957047D01*
X68937142Y-15004666D01*
X68032380Y-14099904D02*
X69032380Y-13766571D01*
X68032380Y-13433238D01*
D13*
X91756666Y-32148166D02*
X91423333Y-32381500D01*
X91756666Y-32548166D02*
X91056666Y-32548166D01*
X91056666Y-32281500D01*
X91090000Y-32214833D01*
X91123333Y-32181500D01*
X91190000Y-32148166D01*
X91290000Y-32148166D01*
X91356666Y-32181500D01*
X91390000Y-32214833D01*
X91423333Y-32281500D01*
X91423333Y-32548166D01*
X91056666Y-31948166D02*
X91056666Y-31548166D01*
X91756666Y-31748166D02*
X91056666Y-31748166D01*
X91690000Y-30914833D02*
X91723333Y-30948166D01*
X91756666Y-31048166D01*
X91756666Y-31114833D01*
X91723333Y-31214833D01*
X91656666Y-31281500D01*
X91590000Y-31314833D01*
X91456666Y-31348166D01*
X91356666Y-31348166D01*
X91223333Y-31314833D01*
X91156666Y-31281500D01*
X91090000Y-31214833D01*
X91056666Y-31114833D01*
X91056666Y-31048166D01*
X91090000Y-30948166D01*
X91123333Y-30914833D01*
X91490000Y-30081500D02*
X91490000Y-29548166D01*
X91056666Y-28548166D02*
X91056666Y-28414833D01*
X91090000Y-28348166D01*
X91156666Y-28281500D01*
X91290000Y-28248166D01*
X91523333Y-28248166D01*
X91656666Y-28281500D01*
X91723333Y-28348166D01*
X91756666Y-28414833D01*
X91756666Y-28548166D01*
X91723333Y-28614833D01*
X91656666Y-28681500D01*
X91523333Y-28714833D01*
X91290000Y-28714833D01*
X91156666Y-28681500D01*
X91090000Y-28614833D01*
X91056666Y-28548166D01*
X91290000Y-27948166D02*
X91990000Y-27948166D01*
X91323333Y-27948166D02*
X91290000Y-27881500D01*
X91290000Y-27748166D01*
X91323333Y-27681500D01*
X91356666Y-27648166D01*
X91423333Y-27614833D01*
X91623333Y-27614833D01*
X91690000Y-27648166D01*
X91723333Y-27681500D01*
X91756666Y-27748166D01*
X91756666Y-27881500D01*
X91723333Y-27948166D01*
X91290000Y-27414833D02*
X91290000Y-27148166D01*
X91056666Y-27314833D02*
X91656666Y-27314833D01*
X91723333Y-27281500D01*
X91756666Y-27214833D01*
X91756666Y-27148166D01*
X91756666Y-26914833D02*
X91290000Y-26914833D01*
X91056666Y-26914833D02*
X91090000Y-26948166D01*
X91123333Y-26914833D01*
X91090000Y-26881500D01*
X91056666Y-26914833D01*
X91123333Y-26914833D01*
X91756666Y-26481500D02*
X91723333Y-26548166D01*
X91690000Y-26581500D01*
X91623333Y-26614833D01*
X91423333Y-26614833D01*
X91356666Y-26581500D01*
X91323333Y-26548166D01*
X91290000Y-26481500D01*
X91290000Y-26381500D01*
X91323333Y-26314833D01*
X91356666Y-26281500D01*
X91423333Y-26248166D01*
X91623333Y-26248166D01*
X91690000Y-26281500D01*
X91723333Y-26314833D01*
X91756666Y-26381500D01*
X91756666Y-26481500D01*
X91290000Y-25948166D02*
X91756666Y-25948166D01*
X91356666Y-25948166D02*
X91323333Y-25914833D01*
X91290000Y-25848166D01*
X91290000Y-25748166D01*
X91323333Y-25681500D01*
X91390000Y-25648166D01*
X91756666Y-25648166D01*
X91756666Y-25014833D02*
X91390000Y-25014833D01*
X91323333Y-25048166D01*
X91290000Y-25114833D01*
X91290000Y-25248166D01*
X91323333Y-25314833D01*
X91723333Y-25014833D02*
X91756666Y-25081500D01*
X91756666Y-25248166D01*
X91723333Y-25314833D01*
X91656666Y-25348166D01*
X91590000Y-25348166D01*
X91523333Y-25314833D01*
X91490000Y-25248166D01*
X91490000Y-25081500D01*
X91456666Y-25014833D01*
X91756666Y-24581500D02*
X91723333Y-24648166D01*
X91656666Y-24681500D01*
X91056666Y-24681500D01*
D12*
X115377238Y-30408571D02*
X115710571Y-30408571D01*
X115853428Y-30932380D02*
X115377238Y-30932380D01*
X115377238Y-29932380D01*
X115853428Y-29932380D01*
X116282000Y-30932380D02*
X116282000Y-29932380D01*
X116662952Y-29932380D01*
X116758190Y-29980000D01*
X116805809Y-30027619D01*
X116853428Y-30122857D01*
X116853428Y-30265714D01*
X116805809Y-30360952D01*
X116758190Y-30408571D01*
X116662952Y-30456190D01*
X116282000Y-30456190D01*
X117282000Y-30932380D02*
X117282000Y-29932380D01*
X117520095Y-29932380D01*
X117662952Y-29980000D01*
X117758190Y-30075238D01*
X117805809Y-30170476D01*
X117853428Y-30360952D01*
X117853428Y-30503809D01*
X117805809Y-30694285D01*
X117758190Y-30789523D01*
X117662952Y-30884761D01*
X117520095Y-30932380D01*
X117282000Y-30932380D01*
X118186761Y-29932380D02*
X118805809Y-29932380D01*
X118472476Y-30313333D01*
X118615333Y-30313333D01*
X118710571Y-30360952D01*
X118758190Y-30408571D01*
X118805809Y-30503809D01*
X118805809Y-30741904D01*
X118758190Y-30837142D01*
X118710571Y-30884761D01*
X118615333Y-30932380D01*
X118329619Y-30932380D01*
X118234380Y-30884761D01*
X118186761Y-30837142D01*
X119234380Y-30837142D02*
X119282000Y-30884761D01*
X119234380Y-30932380D01*
X119186761Y-30884761D01*
X119234380Y-30837142D01*
X119234380Y-30932380D01*
X119615333Y-29932380D02*
X120234380Y-29932380D01*
X119901047Y-30313333D01*
X120043904Y-30313333D01*
X120139142Y-30360952D01*
X120186761Y-30408571D01*
X120234380Y-30503809D01*
X120234380Y-30741904D01*
X120186761Y-30837142D01*
X120139142Y-30884761D01*
X120043904Y-30932380D01*
X119758190Y-30932380D01*
X119662952Y-30884761D01*
X119615333Y-30837142D01*
X120520095Y-29932380D02*
X120853428Y-30932380D01*
X121186761Y-29932380D01*
X101042857Y-25868380D02*
X101661904Y-25868380D01*
X101328571Y-26249333D01*
X101471428Y-26249333D01*
X101566666Y-26296952D01*
X101614285Y-26344571D01*
X101661904Y-26439809D01*
X101661904Y-26677904D01*
X101614285Y-26773142D01*
X101566666Y-26820761D01*
X101471428Y-26868380D01*
X101185714Y-26868380D01*
X101090476Y-26820761D01*
X101042857Y-26773142D01*
X102519047Y-26201714D02*
X102519047Y-26868380D01*
X102280952Y-25820761D02*
X102042857Y-26535047D01*
X102661904Y-26535047D01*
X103042857Y-26201714D02*
X103042857Y-27201714D01*
X103042857Y-26249333D02*
X103138095Y-26201714D01*
X103328571Y-26201714D01*
X103423809Y-26249333D01*
X103471428Y-26296952D01*
X103519047Y-26392190D01*
X103519047Y-26677904D01*
X103471428Y-26773142D01*
X103423809Y-26820761D01*
X103328571Y-26868380D01*
X103138095Y-26868380D01*
X103042857Y-26820761D01*
X103947619Y-26868380D02*
X103947619Y-26201714D01*
X103947619Y-25868380D02*
X103900000Y-25916000D01*
X103947619Y-25963619D01*
X103995238Y-25916000D01*
X103947619Y-25868380D01*
X103947619Y-25963619D01*
X104423809Y-26201714D02*
X104423809Y-26868380D01*
X104423809Y-26296952D02*
X104471428Y-26249333D01*
X104566666Y-26201714D01*
X104709523Y-26201714D01*
X104804761Y-26249333D01*
X104852380Y-26344571D01*
X104852380Y-26868380D01*
X105376190Y-26820761D02*
X105376190Y-26868380D01*
X105328571Y-26963619D01*
X105280952Y-27011238D01*
X106709523Y-26296952D02*
X106614285Y-26249333D01*
X106566666Y-26201714D01*
X106519047Y-26106476D01*
X106519047Y-26058857D01*
X106566666Y-25963619D01*
X106614285Y-25916000D01*
X106709523Y-25868380D01*
X106900000Y-25868380D01*
X106995238Y-25916000D01*
X107042857Y-25963619D01*
X107090476Y-26058857D01*
X107090476Y-26106476D01*
X107042857Y-26201714D01*
X106995238Y-26249333D01*
X106900000Y-26296952D01*
X106709523Y-26296952D01*
X106614285Y-26344571D01*
X106566666Y-26392190D01*
X106519047Y-26487428D01*
X106519047Y-26677904D01*
X106566666Y-26773142D01*
X106614285Y-26820761D01*
X106709523Y-26868380D01*
X106900000Y-26868380D01*
X106995238Y-26820761D01*
X107042857Y-26773142D01*
X107090476Y-26677904D01*
X107090476Y-26487428D01*
X107042857Y-26392190D01*
X106995238Y-26344571D01*
X106900000Y-26296952D01*
X107519047Y-26868380D02*
X107519047Y-25868380D01*
X107519047Y-26249333D02*
X107614285Y-26201714D01*
X107804761Y-26201714D01*
X107900000Y-26249333D01*
X107947619Y-26296952D01*
X107995238Y-26392190D01*
X107995238Y-26677904D01*
X107947619Y-26773142D01*
X107900000Y-26820761D01*
X107804761Y-26868380D01*
X107614285Y-26868380D01*
X107519047Y-26820761D01*
X108423809Y-26868380D02*
X108423809Y-26201714D01*
X108423809Y-25868380D02*
X108376190Y-25916000D01*
X108423809Y-25963619D01*
X108471428Y-25916000D01*
X108423809Y-25868380D01*
X108423809Y-25963619D01*
X108757142Y-26201714D02*
X109138095Y-26201714D01*
X108900000Y-25868380D02*
X108900000Y-26725523D01*
X108947619Y-26820761D01*
X109042857Y-26868380D01*
X109138095Y-26868380D01*
X110233333Y-26344571D02*
X110566666Y-26344571D01*
X110709523Y-26868380D02*
X110233333Y-26868380D01*
X110233333Y-25868380D01*
X110709523Y-25868380D01*
X111138095Y-26868380D02*
X111138095Y-25868380D01*
X111519047Y-25868380D01*
X111614285Y-25916000D01*
X111661904Y-25963619D01*
X111709523Y-26058857D01*
X111709523Y-26201714D01*
X111661904Y-26296952D01*
X111614285Y-26344571D01*
X111519047Y-26392190D01*
X111138095Y-26392190D01*
X112138095Y-26868380D02*
X112138095Y-25868380D01*
X112376190Y-25868380D01*
X112519047Y-25916000D01*
X112614285Y-26011238D01*
X112661904Y-26106476D01*
X112709523Y-26296952D01*
X112709523Y-26439809D01*
X112661904Y-26630285D01*
X112614285Y-26725523D01*
X112519047Y-26820761D01*
X112376190Y-26868380D01*
X112138095Y-26868380D01*
X31456380Y-16179238D02*
X31456380Y-15560190D01*
X31837333Y-15893523D01*
X31837333Y-15750666D01*
X31884952Y-15655428D01*
X31932571Y-15607809D01*
X32027809Y-15560190D01*
X32265904Y-15560190D01*
X32361142Y-15607809D01*
X32408761Y-15655428D01*
X32456380Y-15750666D01*
X32456380Y-16036380D01*
X32408761Y-16131619D01*
X32361142Y-16179238D01*
X32361142Y-15131619D02*
X32408761Y-15084000D01*
X32456380Y-15131619D01*
X32408761Y-15179238D01*
X32361142Y-15131619D01*
X32456380Y-15131619D01*
X31456380Y-14750666D02*
X31456380Y-14131619D01*
X31837333Y-14464952D01*
X31837333Y-14322095D01*
X31884952Y-14226857D01*
X31932571Y-14179238D01*
X32027809Y-14131619D01*
X32265904Y-14131619D01*
X32361142Y-14179238D01*
X32408761Y-14226857D01*
X32456380Y-14322095D01*
X32456380Y-14607809D01*
X32408761Y-14703047D01*
X32361142Y-14750666D01*
X31456380Y-13845904D02*
X32456380Y-13512571D01*
X31456380Y-13179238D01*
X84960380Y-18248380D02*
X85150857Y-18248380D01*
X85246095Y-18296000D01*
X85341333Y-18391238D01*
X85388952Y-18581714D01*
X85388952Y-18915047D01*
X85341333Y-19105523D01*
X85246095Y-19200761D01*
X85150857Y-19248380D01*
X84960380Y-19248380D01*
X84865142Y-19200761D01*
X84769904Y-19105523D01*
X84722285Y-18915047D01*
X84722285Y-18581714D01*
X84769904Y-18391238D01*
X84865142Y-18296000D01*
X84960380Y-18248380D01*
X85769904Y-19200761D02*
X85912761Y-19248380D01*
X86150857Y-19248380D01*
X86246095Y-19200761D01*
X86293714Y-19153142D01*
X86341333Y-19057904D01*
X86341333Y-18962666D01*
X86293714Y-18867428D01*
X86246095Y-18819809D01*
X86150857Y-18772190D01*
X85960380Y-18724571D01*
X85865142Y-18676952D01*
X85817523Y-18629333D01*
X85769904Y-18534095D01*
X85769904Y-18438857D01*
X85817523Y-18343619D01*
X85865142Y-18296000D01*
X85960380Y-18248380D01*
X86198476Y-18248380D01*
X86341333Y-18296000D01*
X86769904Y-19248380D02*
X86769904Y-18248380D01*
X87150857Y-18248380D01*
X87246095Y-18296000D01*
X87293714Y-18343619D01*
X87341333Y-18438857D01*
X87341333Y-18581714D01*
X87293714Y-18676952D01*
X87246095Y-18724571D01*
X87150857Y-18772190D01*
X86769904Y-18772190D01*
X87769904Y-19248380D02*
X87769904Y-18248380D01*
X49712571Y-16417333D02*
X49712571Y-16084000D01*
X50236380Y-15941142D02*
X50236380Y-16417333D01*
X49236380Y-16417333D01*
X49236380Y-15941142D01*
X49236380Y-15607809D02*
X50236380Y-14941142D01*
X49236380Y-14941142D02*
X50236380Y-15607809D01*
X49236380Y-14703047D02*
X49236380Y-14131619D01*
X50236380Y-14417333D02*
X49236380Y-14417333D01*
X49236380Y-13369714D02*
X49236380Y-13560190D01*
X49284000Y-13655428D01*
X49331619Y-13703047D01*
X49474476Y-13798285D01*
X49664952Y-13845904D01*
X50045904Y-13845904D01*
X50141142Y-13798285D01*
X50188761Y-13750666D01*
X50236380Y-13655428D01*
X50236380Y-13464952D01*
X50188761Y-13369714D01*
X50141142Y-13322095D01*
X50045904Y-13274476D01*
X49807809Y-13274476D01*
X49712571Y-13322095D01*
X49664952Y-13369714D01*
X49617333Y-13464952D01*
X49617333Y-13655428D01*
X49664952Y-13750666D01*
X49712571Y-13798285D01*
X49807809Y-13845904D01*
X118615333Y-43632380D02*
X118615333Y-42632380D01*
X118853428Y-42632380D01*
X118996285Y-42680000D01*
X119091523Y-42775238D01*
X119139142Y-42870476D01*
X119186761Y-43060952D01*
X119186761Y-43203809D01*
X119139142Y-43394285D01*
X119091523Y-43489523D01*
X118996285Y-43584761D01*
X118853428Y-43632380D01*
X118615333Y-43632380D01*
X120139142Y-43632380D02*
X119567714Y-43632380D01*
X119853428Y-43632380D02*
X119853428Y-42632380D01*
X119758190Y-42775238D01*
X119662952Y-42870476D01*
X119567714Y-42918095D01*
X121091523Y-43632380D02*
X120520095Y-43632380D01*
X120805809Y-43632380D02*
X120805809Y-42632380D01*
X120710571Y-42775238D01*
X120615333Y-42870476D01*
X120520095Y-42918095D01*
X84272380Y-16528476D02*
X83272380Y-16528476D01*
X83272380Y-15861809D02*
X83272380Y-15671333D01*
X83320000Y-15576095D01*
X83415238Y-15480857D01*
X83605714Y-15433238D01*
X83939047Y-15433238D01*
X84129523Y-15480857D01*
X84224761Y-15576095D01*
X84272380Y-15671333D01*
X84272380Y-15861809D01*
X84224761Y-15957047D01*
X84129523Y-16052285D01*
X83939047Y-16099904D01*
X83605714Y-16099904D01*
X83415238Y-16052285D01*
X83320000Y-15957047D01*
X83272380Y-15861809D01*
X83272380Y-15099904D02*
X83272380Y-14480857D01*
X83653333Y-14814190D01*
X83653333Y-14671333D01*
X83700952Y-14576095D01*
X83748571Y-14528476D01*
X83843809Y-14480857D01*
X84081904Y-14480857D01*
X84177142Y-14528476D01*
X84224761Y-14576095D01*
X84272380Y-14671333D01*
X84272380Y-14957047D01*
X84224761Y-15052285D01*
X84177142Y-15099904D01*
X83272380Y-14147523D02*
X83272380Y-13480857D01*
X84272380Y-13909428D01*
X119567714Y-48712380D02*
X119567714Y-47712380D01*
X119805809Y-47712380D01*
X119948666Y-47760000D01*
X120043904Y-47855238D01*
X120091523Y-47950476D01*
X120139142Y-48140952D01*
X120139142Y-48283809D01*
X120091523Y-48474285D01*
X120043904Y-48569523D01*
X119948666Y-48664761D01*
X119805809Y-48712380D01*
X119567714Y-48712380D01*
X120615333Y-48712380D02*
X120805809Y-48712380D01*
X120901047Y-48664761D01*
X120948666Y-48617142D01*
X121043904Y-48474285D01*
X121091523Y-48283809D01*
X121091523Y-47902857D01*
X121043904Y-47807619D01*
X120996285Y-47760000D01*
X120901047Y-47712380D01*
X120710571Y-47712380D01*
X120615333Y-47760000D01*
X120567714Y-47807619D01*
X120520095Y-47902857D01*
X120520095Y-48140952D01*
X120567714Y-48236190D01*
X120615333Y-48283809D01*
X120710571Y-48331428D01*
X120901047Y-48331428D01*
X120996285Y-48283809D01*
X121043904Y-48236190D01*
X121091523Y-48140952D01*
D11*
X42470142Y-57757142D02*
X42327285Y-57828571D01*
X42041571Y-57828571D01*
X41898714Y-57757142D01*
X41827285Y-57614285D01*
X41827285Y-57042857D01*
X41898714Y-56900000D01*
X42041571Y-56828571D01*
X42327285Y-56828571D01*
X42470142Y-56900000D01*
X42541571Y-57042857D01*
X42541571Y-57185714D01*
X41827285Y-57328571D01*
X43184428Y-56828571D02*
X43184428Y-58328571D01*
X43184428Y-56900000D02*
X43327285Y-56828571D01*
X43613000Y-56828571D01*
X43755857Y-56900000D01*
X43827285Y-56971428D01*
X43898714Y-57114285D01*
X43898714Y-57542857D01*
X43827285Y-57685714D01*
X43755857Y-57757142D01*
X43613000Y-57828571D01*
X43327285Y-57828571D01*
X43184428Y-57757142D01*
X45184428Y-57828571D02*
X45184428Y-56328571D01*
X45184428Y-57757142D02*
X45041571Y-57828571D01*
X44755857Y-57828571D01*
X44613000Y-57757142D01*
X44541571Y-57685714D01*
X44470142Y-57542857D01*
X44470142Y-57114285D01*
X44541571Y-56971428D01*
X44613000Y-56900000D01*
X44755857Y-56828571D01*
X45041571Y-56828571D01*
X45184428Y-56900000D01*
X45898714Y-57828571D02*
X45898714Y-56828571D01*
X45898714Y-56328571D02*
X45827285Y-56400000D01*
X45898714Y-56471428D01*
X45970142Y-56400000D01*
X45898714Y-56328571D01*
X45898714Y-56471428D01*
X46470142Y-56828571D02*
X46827285Y-57828571D01*
X47184428Y-56828571D02*
X46827285Y-57828571D01*
X46684428Y-58185714D01*
X46613000Y-58257142D01*
X46470142Y-58328571D01*
X48755857Y-56828571D02*
X49113000Y-57828571D01*
X49470142Y-56828571D01*
X49898714Y-56328571D02*
X50898714Y-56328571D01*
X50255857Y-57828571D01*
D12*
X89352380Y-16528476D02*
X88352380Y-16528476D01*
X88352380Y-15861809D02*
X88352380Y-15671333D01*
X88400000Y-15576095D01*
X88495238Y-15480857D01*
X88685714Y-15433238D01*
X89019047Y-15433238D01*
X89209523Y-15480857D01*
X89304761Y-15576095D01*
X89352380Y-15671333D01*
X89352380Y-15861809D01*
X89304761Y-15957047D01*
X89209523Y-16052285D01*
X89019047Y-16099904D01*
X88685714Y-16099904D01*
X88495238Y-16052285D01*
X88400000Y-15957047D01*
X88352380Y-15861809D01*
X88352380Y-15099904D02*
X88352380Y-14480857D01*
X88733333Y-14814190D01*
X88733333Y-14671333D01*
X88780952Y-14576095D01*
X88828571Y-14528476D01*
X88923809Y-14480857D01*
X89161904Y-14480857D01*
X89257142Y-14528476D01*
X89304761Y-14576095D01*
X89352380Y-14671333D01*
X89352380Y-14957047D01*
X89304761Y-15052285D01*
X89257142Y-15099904D01*
X88352380Y-13576095D02*
X88352380Y-14052285D01*
X88828571Y-14099904D01*
X88780952Y-14052285D01*
X88733333Y-13957047D01*
X88733333Y-13718952D01*
X88780952Y-13623714D01*
X88828571Y-13576095D01*
X88923809Y-13528476D01*
X89161904Y-13528476D01*
X89257142Y-13576095D01*
X89304761Y-13623714D01*
X89352380Y-13718952D01*
X89352380Y-13957047D01*
X89304761Y-14052285D01*
X89257142Y-14099904D01*
X118615333Y-41092380D02*
X118615333Y-40092380D01*
X118853428Y-40092380D01*
X118996285Y-40140000D01*
X119091523Y-40235238D01*
X119139142Y-40330476D01*
X119186761Y-40520952D01*
X119186761Y-40663809D01*
X119139142Y-40854285D01*
X119091523Y-40949523D01*
X118996285Y-41044761D01*
X118853428Y-41092380D01*
X118615333Y-41092380D01*
X120139142Y-41092380D02*
X119567714Y-41092380D01*
X119853428Y-41092380D02*
X119853428Y-40092380D01*
X119758190Y-40235238D01*
X119662952Y-40330476D01*
X119567714Y-40378095D01*
X120520095Y-40187619D02*
X120567714Y-40140000D01*
X120662952Y-40092380D01*
X120901047Y-40092380D01*
X120996285Y-40140000D01*
X121043904Y-40187619D01*
X121091523Y-40282857D01*
X121091523Y-40378095D01*
X121043904Y-40520952D01*
X120472476Y-41092380D01*
X121091523Y-41092380D01*
X37012571Y-16512571D02*
X37060190Y-16369714D01*
X37107809Y-16322095D01*
X37203047Y-16274476D01*
X37345904Y-16274476D01*
X37441142Y-16322095D01*
X37488761Y-16369714D01*
X37536380Y-16464952D01*
X37536380Y-16845904D01*
X36536380Y-16845904D01*
X36536380Y-16512571D01*
X36584000Y-16417333D01*
X36631619Y-16369714D01*
X36726857Y-16322095D01*
X36822095Y-16322095D01*
X36917333Y-16369714D01*
X36964952Y-16417333D01*
X37012571Y-16512571D01*
X37012571Y-16845904D01*
X37536380Y-15274476D02*
X37060190Y-15607809D01*
X37536380Y-15845904D02*
X36536380Y-15845904D01*
X36536380Y-15464952D01*
X36584000Y-15369714D01*
X36631619Y-15322095D01*
X36726857Y-15274476D01*
X36869714Y-15274476D01*
X36964952Y-15322095D01*
X37012571Y-15369714D01*
X37060190Y-15464952D01*
X37060190Y-15845904D01*
X37536380Y-14845904D02*
X36536380Y-14845904D01*
X36536380Y-14607809D01*
X36584000Y-14464952D01*
X36679238Y-14369714D01*
X36774476Y-14322095D01*
X36964952Y-14274476D01*
X37107809Y-14274476D01*
X37298285Y-14322095D01*
X37393523Y-14369714D01*
X37488761Y-14464952D01*
X37536380Y-14607809D01*
X37536380Y-14845904D01*
X37536380Y-13274476D02*
X37060190Y-13607809D01*
X37536380Y-13845904D02*
X36536380Y-13845904D01*
X36536380Y-13464952D01*
X36584000Y-13369714D01*
X36631619Y-13322095D01*
X36726857Y-13274476D01*
X36869714Y-13274476D01*
X36964952Y-13322095D01*
X37012571Y-13369714D01*
X37060190Y-13464952D01*
X37060190Y-13845904D01*
D10*
X76000000Y-25366666D02*
X75766666Y-25033333D01*
X75600000Y-25366666D02*
X75600000Y-24666666D01*
X75866666Y-24666666D01*
X75933333Y-24700000D01*
X75966666Y-24733333D01*
X76000000Y-24800000D01*
X76000000Y-24900000D01*
X75966666Y-24966666D01*
X75933333Y-25000000D01*
X75866666Y-25033333D01*
X75600000Y-25033333D01*
X76666666Y-25366666D02*
X76266666Y-25366666D01*
X76466666Y-25366666D02*
X76466666Y-24666666D01*
X76400000Y-24766666D01*
X76333333Y-24833333D01*
X76266666Y-24866666D01*
X77300000Y-24666666D02*
X76966666Y-24666666D01*
X76933333Y-25000000D01*
X76966666Y-24966666D01*
X77033333Y-24933333D01*
X77200000Y-24933333D01*
X77266666Y-24966666D01*
X77300000Y-25000000D01*
X77333333Y-25066666D01*
X77333333Y-25233333D01*
X77300000Y-25300000D01*
X77266666Y-25333333D01*
X77200000Y-25366666D01*
X77033333Y-25366666D01*
X76966666Y-25333333D01*
X76933333Y-25300000D01*
X49983333Y-22766666D02*
X49950000Y-22833333D01*
X49883333Y-22900000D01*
X49783333Y-23000000D01*
X49750000Y-23066666D01*
X49750000Y-23133333D01*
X49916666Y-23100000D02*
X49883333Y-23166666D01*
X49816666Y-23233333D01*
X49683333Y-23266666D01*
X49450000Y-23266666D01*
X49316666Y-23233333D01*
X49250000Y-23166666D01*
X49216666Y-23100000D01*
X49216666Y-22966666D01*
X49250000Y-22900000D01*
X49316666Y-22833333D01*
X49450000Y-22800000D01*
X49683333Y-22800000D01*
X49816666Y-22833333D01*
X49883333Y-22900000D01*
X49916666Y-22966666D01*
X49916666Y-23100000D01*
X49216666Y-22566666D02*
X49216666Y-22133333D01*
X49483333Y-22366666D01*
X49483333Y-22266666D01*
X49516666Y-22200000D01*
X49550000Y-22166666D01*
X49616666Y-22133333D01*
X49783333Y-22133333D01*
X49850000Y-22166666D01*
X49883333Y-22200000D01*
X49916666Y-22266666D01*
X49916666Y-22466666D01*
X49883333Y-22533333D01*
X49850000Y-22566666D01*
X50016666Y-25716666D02*
X49683333Y-25950000D01*
X50016666Y-26116666D02*
X49316666Y-26116666D01*
X49316666Y-25850000D01*
X49350000Y-25783333D01*
X49383333Y-25750000D01*
X49450000Y-25716666D01*
X49550000Y-25716666D01*
X49616666Y-25750000D01*
X49650000Y-25783333D01*
X49683333Y-25850000D01*
X49683333Y-26116666D01*
X50016666Y-25050000D02*
X50016666Y-25450000D01*
X50016666Y-25250000D02*
X49316666Y-25250000D01*
X49416666Y-25316666D01*
X49483333Y-25383333D01*
X49516666Y-25450000D01*
X54116666Y-26150000D02*
X53783333Y-26383333D01*
X54116666Y-26550000D02*
X53416666Y-26550000D01*
X53416666Y-26283333D01*
X53450000Y-26216666D01*
X53483333Y-26183333D01*
X53550000Y-26150000D01*
X53650000Y-26150000D01*
X53716666Y-26183333D01*
X53750000Y-26216666D01*
X53783333Y-26283333D01*
X53783333Y-26550000D01*
X54116666Y-25483333D02*
X54116666Y-25883333D01*
X54116666Y-25683333D02*
X53416666Y-25683333D01*
X53516666Y-25750000D01*
X53583333Y-25816666D01*
X53616666Y-25883333D01*
X54116666Y-24816666D02*
X54116666Y-25216666D01*
X54116666Y-25016666D02*
X53416666Y-25016666D01*
X53516666Y-25083333D01*
X53583333Y-25150000D01*
X53616666Y-25216666D01*
X49883333Y-29066666D02*
X49850000Y-29133333D01*
X49783333Y-29200000D01*
X49683333Y-29300000D01*
X49650000Y-29366666D01*
X49650000Y-29433333D01*
X49816666Y-29400000D02*
X49783333Y-29466666D01*
X49716666Y-29533333D01*
X49583333Y-29566666D01*
X49350000Y-29566666D01*
X49216666Y-29533333D01*
X49150000Y-29466666D01*
X49116666Y-29400000D01*
X49116666Y-29266666D01*
X49150000Y-29200000D01*
X49216666Y-29133333D01*
X49350000Y-29100000D01*
X49583333Y-29100000D01*
X49716666Y-29133333D01*
X49783333Y-29200000D01*
X49816666Y-29266666D01*
X49816666Y-29400000D01*
X49350000Y-28500000D02*
X49816666Y-28500000D01*
X49083333Y-28666666D02*
X49583333Y-28833333D01*
X49583333Y-28400000D01*
X76100000Y-46483333D02*
X76066666Y-46450000D01*
X76033333Y-46350000D01*
X76033333Y-46283333D01*
X76066666Y-46183333D01*
X76133333Y-46116666D01*
X76200000Y-46083333D01*
X76333333Y-46050000D01*
X76433333Y-46050000D01*
X76566666Y-46083333D01*
X76633333Y-46116666D01*
X76700000Y-46183333D01*
X76733333Y-46283333D01*
X76733333Y-46350000D01*
X76700000Y-46450000D01*
X76666666Y-46483333D01*
X76733333Y-46716666D02*
X76733333Y-47150000D01*
X76466666Y-46916666D01*
X76466666Y-47016666D01*
X76433333Y-47083333D01*
X76400000Y-47116666D01*
X76333333Y-47150000D01*
X76166666Y-47150000D01*
X76100000Y-47116666D01*
X76066666Y-47083333D01*
X76033333Y-47016666D01*
X76033333Y-46816666D01*
X76066666Y-46750000D01*
X76100000Y-46716666D01*
X35250000Y-54250000D02*
X35283333Y-54216666D01*
X35383333Y-54183333D01*
X35450000Y-54183333D01*
X35550000Y-54216666D01*
X35616666Y-54283333D01*
X35650000Y-54350000D01*
X35683333Y-54483333D01*
X35683333Y-54583333D01*
X35650000Y-54716666D01*
X35616666Y-54783333D01*
X35550000Y-54850000D01*
X35450000Y-54883333D01*
X35383333Y-54883333D01*
X35283333Y-54850000D01*
X35250000Y-54816666D01*
X34983333Y-54816666D02*
X34950000Y-54850000D01*
X34883333Y-54883333D01*
X34716666Y-54883333D01*
X34650000Y-54850000D01*
X34616666Y-54816666D01*
X34583333Y-54750000D01*
X34583333Y-54683333D01*
X34616666Y-54583333D01*
X35016666Y-54183333D01*
X34583333Y-54183333D01*
X34316666Y-54816666D02*
X34283333Y-54850000D01*
X34216666Y-54883333D01*
X34050000Y-54883333D01*
X33983333Y-54850000D01*
X33950000Y-54816666D01*
X33916666Y-54750000D01*
X33916666Y-54683333D01*
X33950000Y-54583333D01*
X34350000Y-54183333D01*
X33916666Y-54183333D01*
X39901666Y-63973666D02*
X39201666Y-63973666D01*
X39201666Y-63807000D01*
X39235000Y-63707000D01*
X39301666Y-63640333D01*
X39368333Y-63607000D01*
X39501666Y-63573666D01*
X39601666Y-63573666D01*
X39735000Y-63607000D01*
X39801666Y-63640333D01*
X39868333Y-63707000D01*
X39901666Y-63807000D01*
X39901666Y-63973666D01*
X39901666Y-63240333D02*
X39901666Y-63107000D01*
X39868333Y-63040333D01*
X39835000Y-63007000D01*
X39735000Y-62940333D01*
X39601666Y-62907000D01*
X39335000Y-62907000D01*
X39268333Y-62940333D01*
X39235000Y-62973666D01*
X39201666Y-63040333D01*
X39201666Y-63173666D01*
X39235000Y-63240333D01*
X39268333Y-63273666D01*
X39335000Y-63307000D01*
X39501666Y-63307000D01*
X39568333Y-63273666D01*
X39601666Y-63240333D01*
X39635000Y-63173666D01*
X39635000Y-63040333D01*
X39601666Y-62973666D01*
X39568333Y-62940333D01*
X39501666Y-62907000D01*
X37530166Y-54767166D02*
X37196833Y-55000500D01*
X37530166Y-55167166D02*
X36830166Y-55167166D01*
X36830166Y-54900500D01*
X36863500Y-54833833D01*
X36896833Y-54800500D01*
X36963500Y-54767166D01*
X37063500Y-54767166D01*
X37130166Y-54800500D01*
X37163500Y-54833833D01*
X37196833Y-54900500D01*
X37196833Y-55167166D01*
X36830166Y-54533833D02*
X36830166Y-54100500D01*
X37096833Y-54333833D01*
X37096833Y-54233833D01*
X37130166Y-54167166D01*
X37163500Y-54133833D01*
X37230166Y-54100500D01*
X37396833Y-54100500D01*
X37463500Y-54133833D01*
X37496833Y-54167166D01*
X37530166Y-54233833D01*
X37530166Y-54433833D01*
X37496833Y-54500500D01*
X37463500Y-54533833D01*
X39901666Y-54767166D02*
X39568333Y-55000500D01*
X39901666Y-55167166D02*
X39201666Y-55167166D01*
X39201666Y-54900500D01*
X39235000Y-54833833D01*
X39268333Y-54800500D01*
X39335000Y-54767166D01*
X39435000Y-54767166D01*
X39501666Y-54800500D01*
X39535000Y-54833833D01*
X39568333Y-54900500D01*
X39568333Y-55167166D01*
X39501666Y-54367166D02*
X39468333Y-54433833D01*
X39435000Y-54467166D01*
X39368333Y-54500500D01*
X39335000Y-54500500D01*
X39268333Y-54467166D01*
X39235000Y-54433833D01*
X39201666Y-54367166D01*
X39201666Y-54233833D01*
X39235000Y-54167166D01*
X39268333Y-54133833D01*
X39335000Y-54100500D01*
X39368333Y-54100500D01*
X39435000Y-54133833D01*
X39468333Y-54167166D01*
X39501666Y-54233833D01*
X39501666Y-54367166D01*
X39535000Y-54433833D01*
X39568333Y-54467166D01*
X39635000Y-54500500D01*
X39768333Y-54500500D01*
X39835000Y-54467166D01*
X39868333Y-54433833D01*
X39901666Y-54367166D01*
X39901666Y-54233833D01*
X39868333Y-54167166D01*
X39835000Y-54133833D01*
X39768333Y-54100500D01*
X39635000Y-54100500D01*
X39568333Y-54133833D01*
X39535000Y-54167166D01*
X39501666Y-54233833D01*
X37361666Y-63973666D02*
X36661666Y-63973666D01*
X36661666Y-63807000D01*
X36695000Y-63707000D01*
X36761666Y-63640333D01*
X36828333Y-63607000D01*
X36961666Y-63573666D01*
X37061666Y-63573666D01*
X37195000Y-63607000D01*
X37261666Y-63640333D01*
X37328333Y-63707000D01*
X37361666Y-63807000D01*
X37361666Y-63973666D01*
X36961666Y-63173666D02*
X36928333Y-63240333D01*
X36895000Y-63273666D01*
X36828333Y-63307000D01*
X36795000Y-63307000D01*
X36728333Y-63273666D01*
X36695000Y-63240333D01*
X36661666Y-63173666D01*
X36661666Y-63040333D01*
X36695000Y-62973666D01*
X36728333Y-62940333D01*
X36795000Y-62907000D01*
X36828333Y-62907000D01*
X36895000Y-62940333D01*
X36928333Y-62973666D01*
X36961666Y-63040333D01*
X36961666Y-63173666D01*
X36995000Y-63240333D01*
X37028333Y-63273666D01*
X37095000Y-63307000D01*
X37228333Y-63307000D01*
X37295000Y-63273666D01*
X37328333Y-63240333D01*
X37361666Y-63173666D01*
X37361666Y-63040333D01*
X37328333Y-62973666D01*
X37295000Y-62940333D01*
X37228333Y-62907000D01*
X37095000Y-62907000D01*
X37028333Y-62940333D01*
X36995000Y-62973666D01*
X36961666Y-63040333D01*
X111850000Y-60550000D02*
X111883333Y-60583333D01*
X111916666Y-60683333D01*
X111916666Y-60750000D01*
X111883333Y-60850000D01*
X111816666Y-60916666D01*
X111750000Y-60950000D01*
X111616666Y-60983333D01*
X111516666Y-60983333D01*
X111383333Y-60950000D01*
X111316666Y-60916666D01*
X111250000Y-60850000D01*
X111216666Y-60750000D01*
X111216666Y-60683333D01*
X111250000Y-60583333D01*
X111283333Y-60550000D01*
X111916666Y-59883333D02*
X111916666Y-60283333D01*
X111916666Y-60083333D02*
X111216666Y-60083333D01*
X111316666Y-60150000D01*
X111383333Y-60216666D01*
X111416666Y-60283333D01*
X111516666Y-59483333D02*
X111483333Y-59550000D01*
X111450000Y-59583333D01*
X111383333Y-59616666D01*
X111350000Y-59616666D01*
X111283333Y-59583333D01*
X111250000Y-59550000D01*
X111216666Y-59483333D01*
X111216666Y-59350000D01*
X111250000Y-59283333D01*
X111283333Y-59250000D01*
X111350000Y-59216666D01*
X111383333Y-59216666D01*
X111450000Y-59250000D01*
X111483333Y-59283333D01*
X111516666Y-59350000D01*
X111516666Y-59483333D01*
X111550000Y-59550000D01*
X111583333Y-59583333D01*
X111650000Y-59616666D01*
X111783333Y-59616666D01*
X111850000Y-59583333D01*
X111883333Y-59550000D01*
X111916666Y-59483333D01*
X111916666Y-59350000D01*
X111883333Y-59283333D01*
X111850000Y-59250000D01*
X111783333Y-59216666D01*
X111650000Y-59216666D01*
X111583333Y-59250000D01*
X111550000Y-59283333D01*
X111516666Y-59350000D01*
X34900000Y-63800000D02*
X34933333Y-63833333D01*
X34966666Y-63933333D01*
X34966666Y-64000000D01*
X34933333Y-64100000D01*
X34866666Y-64166666D01*
X34800000Y-64200000D01*
X34666666Y-64233333D01*
X34566666Y-64233333D01*
X34433333Y-64200000D01*
X34366666Y-64166666D01*
X34300000Y-64100000D01*
X34266666Y-64000000D01*
X34266666Y-63933333D01*
X34300000Y-63833333D01*
X34333333Y-63800000D01*
X34333333Y-63533333D02*
X34300000Y-63500000D01*
X34266666Y-63433333D01*
X34266666Y-63266666D01*
X34300000Y-63200000D01*
X34333333Y-63166666D01*
X34400000Y-63133333D01*
X34466666Y-63133333D01*
X34566666Y-63166666D01*
X34966666Y-63566666D01*
X34966666Y-63133333D01*
X34266666Y-62900000D02*
X34266666Y-62466666D01*
X34533333Y-62700000D01*
X34533333Y-62600000D01*
X34566666Y-62533333D01*
X34600000Y-62500000D01*
X34666666Y-62466666D01*
X34833333Y-62466666D01*
X34900000Y-62500000D01*
X34933333Y-62533333D01*
X34966666Y-62600000D01*
X34966666Y-62800000D01*
X34933333Y-62866666D01*
X34900000Y-62900000D01*
X76029400Y-52408900D02*
X75996066Y-52442233D01*
X75896066Y-52475566D01*
X75829400Y-52475566D01*
X75729400Y-52442233D01*
X75662733Y-52375566D01*
X75629400Y-52308900D01*
X75596066Y-52175566D01*
X75596066Y-52075566D01*
X75629400Y-51942233D01*
X75662733Y-51875566D01*
X75729400Y-51808900D01*
X75829400Y-51775566D01*
X75896066Y-51775566D01*
X75996066Y-51808900D01*
X76029400Y-51842233D01*
X76696066Y-52475566D02*
X76296066Y-52475566D01*
X76496066Y-52475566D02*
X76496066Y-51775566D01*
X76429400Y-51875566D01*
X76362733Y-51942233D01*
X76296066Y-51975566D01*
X77362733Y-52475566D02*
X76962733Y-52475566D01*
X77162733Y-52475566D02*
X77162733Y-51775566D01*
X77096066Y-51875566D01*
X77029400Y-51942233D01*
X76962733Y-51975566D01*
X118510000Y-58496000D02*
X118543333Y-58529333D01*
X118576666Y-58629333D01*
X118576666Y-58696000D01*
X118543333Y-58796000D01*
X118476666Y-58862666D01*
X118410000Y-58896000D01*
X118276666Y-58929333D01*
X118176666Y-58929333D01*
X118043333Y-58896000D01*
X117976666Y-58862666D01*
X117910000Y-58796000D01*
X117876666Y-58696000D01*
X117876666Y-58629333D01*
X117910000Y-58529333D01*
X117943333Y-58496000D01*
X118576666Y-57829333D02*
X118576666Y-58229333D01*
X118576666Y-58029333D02*
X117876666Y-58029333D01*
X117976666Y-58096000D01*
X118043333Y-58162666D01*
X118076666Y-58229333D01*
X118576666Y-57496000D02*
X118576666Y-57362666D01*
X118543333Y-57296000D01*
X118510000Y-57262666D01*
X118410000Y-57196000D01*
X118276666Y-57162666D01*
X118010000Y-57162666D01*
X117943333Y-57196000D01*
X117910000Y-57229333D01*
X117876666Y-57296000D01*
X117876666Y-57429333D01*
X117910000Y-57496000D01*
X117943333Y-57529333D01*
X118010000Y-57562666D01*
X118176666Y-57562666D01*
X118243333Y-57529333D01*
X118276666Y-57496000D01*
X118310000Y-57429333D01*
X118310000Y-57296000D01*
X118276666Y-57229333D01*
X118243333Y-57196000D01*
X118176666Y-57162666D01*
X113450000Y-63322000D02*
X113416666Y-63355333D01*
X113316666Y-63388666D01*
X113250000Y-63388666D01*
X113150000Y-63355333D01*
X113083333Y-63288666D01*
X113050000Y-63222000D01*
X113016666Y-63088666D01*
X113016666Y-62988666D01*
X113050000Y-62855333D01*
X113083333Y-62788666D01*
X113150000Y-62722000D01*
X113250000Y-62688666D01*
X113316666Y-62688666D01*
X113416666Y-62722000D01*
X113450000Y-62755333D01*
X113683333Y-62688666D02*
X114116666Y-62688666D01*
X113883333Y-62955333D01*
X113983333Y-62955333D01*
X114050000Y-62988666D01*
X114083333Y-63022000D01*
X114116666Y-63088666D01*
X114116666Y-63255333D01*
X114083333Y-63322000D01*
X114050000Y-63355333D01*
X113983333Y-63388666D01*
X113783333Y-63388666D01*
X113716666Y-63355333D01*
X113683333Y-63322000D01*
X114716666Y-62922000D02*
X114716666Y-63388666D01*
X114550000Y-62655333D02*
X114383333Y-63155333D01*
X114816666Y-63155333D01*
X119350000Y-21333000D02*
X119316666Y-21366333D01*
X119216666Y-21399666D01*
X119150000Y-21399666D01*
X119050000Y-21366333D01*
X118983333Y-21299666D01*
X118950000Y-21233000D01*
X118916666Y-21099666D01*
X118916666Y-20999666D01*
X118950000Y-20866333D01*
X118983333Y-20799666D01*
X119050000Y-20733000D01*
X119150000Y-20699666D01*
X119216666Y-20699666D01*
X119316666Y-20733000D01*
X119350000Y-20766333D01*
X119583333Y-20699666D02*
X120016666Y-20699666D01*
X119783333Y-20966333D01*
X119883333Y-20966333D01*
X119950000Y-20999666D01*
X119983333Y-21033000D01*
X120016666Y-21099666D01*
X120016666Y-21266333D01*
X119983333Y-21333000D01*
X119950000Y-21366333D01*
X119883333Y-21399666D01*
X119683333Y-21399666D01*
X119616666Y-21366333D01*
X119583333Y-21333000D01*
X120650000Y-20699666D02*
X120316666Y-20699666D01*
X120283333Y-21033000D01*
X120316666Y-20999666D01*
X120383333Y-20966333D01*
X120550000Y-20966333D01*
X120616666Y-20999666D01*
X120650000Y-21033000D01*
X120683333Y-21099666D01*
X120683333Y-21266333D01*
X120650000Y-21333000D01*
X120616666Y-21366333D01*
X120550000Y-21399666D01*
X120383333Y-21399666D01*
X120316666Y-21366333D01*
X120283333Y-21333000D01*
X122850000Y-53950000D02*
X122816666Y-53983333D01*
X122716666Y-54016666D01*
X122650000Y-54016666D01*
X122550000Y-53983333D01*
X122483333Y-53916666D01*
X122450000Y-53850000D01*
X122416666Y-53716666D01*
X122416666Y-53616666D01*
X122450000Y-53483333D01*
X122483333Y-53416666D01*
X122550000Y-53350000D01*
X122650000Y-53316666D01*
X122716666Y-53316666D01*
X122816666Y-53350000D01*
X122850000Y-53383333D01*
X123083333Y-53316666D02*
X123516666Y-53316666D01*
X123283333Y-53583333D01*
X123383333Y-53583333D01*
X123450000Y-53616666D01*
X123483333Y-53650000D01*
X123516666Y-53716666D01*
X123516666Y-53883333D01*
X123483333Y-53950000D01*
X123450000Y-53983333D01*
X123383333Y-54016666D01*
X123183333Y-54016666D01*
X123116666Y-53983333D01*
X123083333Y-53950000D01*
X124116666Y-53316666D02*
X123983333Y-53316666D01*
X123916666Y-53350000D01*
X123883333Y-53383333D01*
X123816666Y-53483333D01*
X123783333Y-53616666D01*
X123783333Y-53883333D01*
X123816666Y-53950000D01*
X123850000Y-53983333D01*
X123916666Y-54016666D01*
X124050000Y-54016666D01*
X124116666Y-53983333D01*
X124150000Y-53950000D01*
X124183333Y-53883333D01*
X124183333Y-53716666D01*
X124150000Y-53650000D01*
X124116666Y-53616666D01*
X124050000Y-53583333D01*
X123916666Y-53583333D01*
X123850000Y-53616666D01*
X123816666Y-53650000D01*
X123783333Y-53716666D01*
X119325000Y-25274000D02*
X119291666Y-25307333D01*
X119191666Y-25340666D01*
X119125000Y-25340666D01*
X119025000Y-25307333D01*
X118958333Y-25240666D01*
X118925000Y-25174000D01*
X118891666Y-25040666D01*
X118891666Y-24940666D01*
X118925000Y-24807333D01*
X118958333Y-24740666D01*
X119025000Y-24674000D01*
X119125000Y-24640666D01*
X119191666Y-24640666D01*
X119291666Y-24674000D01*
X119325000Y-24707333D01*
X119558333Y-24640666D02*
X119991666Y-24640666D01*
X119758333Y-24907333D01*
X119858333Y-24907333D01*
X119925000Y-24940666D01*
X119958333Y-24974000D01*
X119991666Y-25040666D01*
X119991666Y-25207333D01*
X119958333Y-25274000D01*
X119925000Y-25307333D01*
X119858333Y-25340666D01*
X119658333Y-25340666D01*
X119591666Y-25307333D01*
X119558333Y-25274000D01*
X120225000Y-24640666D02*
X120691666Y-24640666D01*
X120391666Y-25340666D01*
X57083333Y-23766666D02*
X56850000Y-23433333D01*
X56683333Y-23766666D02*
X56683333Y-23066666D01*
X56950000Y-23066666D01*
X57016666Y-23100000D01*
X57050000Y-23133333D01*
X57083333Y-23200000D01*
X57083333Y-23300000D01*
X57050000Y-23366666D01*
X57016666Y-23400000D01*
X56950000Y-23433333D01*
X56683333Y-23433333D01*
X57716666Y-23066666D02*
X57383333Y-23066666D01*
X57350000Y-23400000D01*
X57383333Y-23366666D01*
X57450000Y-23333333D01*
X57616666Y-23333333D01*
X57683333Y-23366666D01*
X57716666Y-23400000D01*
X57750000Y-23466666D01*
X57750000Y-23633333D01*
X57716666Y-23700000D01*
X57683333Y-23733333D01*
X57616666Y-23766666D01*
X57450000Y-23766666D01*
X57383333Y-23733333D01*
X57350000Y-23700000D01*
X72321666Y-59116000D02*
X71988333Y-59349333D01*
X72321666Y-59516000D02*
X71621666Y-59516000D01*
X71621666Y-59249333D01*
X71655000Y-59182666D01*
X71688333Y-59149333D01*
X71755000Y-59116000D01*
X71855000Y-59116000D01*
X71921666Y-59149333D01*
X71955000Y-59182666D01*
X71988333Y-59249333D01*
X71988333Y-59516000D01*
X72321666Y-58449333D02*
X72321666Y-58849333D01*
X72321666Y-58649333D02*
X71621666Y-58649333D01*
X71721666Y-58716000D01*
X71788333Y-58782666D01*
X71821666Y-58849333D01*
X71921666Y-58049333D02*
X71888333Y-58116000D01*
X71855000Y-58149333D01*
X71788333Y-58182666D01*
X71755000Y-58182666D01*
X71688333Y-58149333D01*
X71655000Y-58116000D01*
X71621666Y-58049333D01*
X71621666Y-57916000D01*
X71655000Y-57849333D01*
X71688333Y-57816000D01*
X71755000Y-57782666D01*
X71788333Y-57782666D01*
X71855000Y-57816000D01*
X71888333Y-57849333D01*
X71921666Y-57916000D01*
X71921666Y-58049333D01*
X71955000Y-58116000D01*
X71988333Y-58149333D01*
X72055000Y-58182666D01*
X72188333Y-58182666D01*
X72255000Y-58149333D01*
X72288333Y-58116000D01*
X72321666Y-58049333D01*
X72321666Y-57916000D01*
X72288333Y-57849333D01*
X72255000Y-57816000D01*
X72188333Y-57782666D01*
X72055000Y-57782666D01*
X71988333Y-57816000D01*
X71955000Y-57849333D01*
X71921666Y-57916000D01*
X119350000Y-61216666D02*
X119116666Y-60883333D01*
X118950000Y-61216666D02*
X118950000Y-60516666D01*
X119216666Y-60516666D01*
X119283333Y-60550000D01*
X119316666Y-60583333D01*
X119350000Y-60650000D01*
X119350000Y-60750000D01*
X119316666Y-60816666D01*
X119283333Y-60850000D01*
X119216666Y-60883333D01*
X118950000Y-60883333D01*
X119616666Y-60583333D02*
X119650000Y-60550000D01*
X119716666Y-60516666D01*
X119883333Y-60516666D01*
X119950000Y-60550000D01*
X119983333Y-60583333D01*
X120016666Y-60650000D01*
X120016666Y-60716666D01*
X119983333Y-60816666D01*
X119583333Y-61216666D01*
X120016666Y-61216666D01*
X120616666Y-60516666D02*
X120483333Y-60516666D01*
X120416666Y-60550000D01*
X120383333Y-60583333D01*
X120316666Y-60683333D01*
X120283333Y-60816666D01*
X120283333Y-61083333D01*
X120316666Y-61150000D01*
X120350000Y-61183333D01*
X120416666Y-61216666D01*
X120550000Y-61216666D01*
X120616666Y-61183333D01*
X120650000Y-61150000D01*
X120683333Y-61083333D01*
X120683333Y-60916666D01*
X120650000Y-60850000D01*
X120616666Y-60816666D01*
X120550000Y-60783333D01*
X120416666Y-60783333D01*
X120350000Y-60816666D01*
X120316666Y-60850000D01*
X120283333Y-60916666D01*
X119650000Y-19499666D02*
X119416666Y-19166333D01*
X119250000Y-19499666D02*
X119250000Y-18799666D01*
X119516666Y-18799666D01*
X119583333Y-18833000D01*
X119616666Y-18866333D01*
X119650000Y-18933000D01*
X119650000Y-19033000D01*
X119616666Y-19099666D01*
X119583333Y-19133000D01*
X119516666Y-19166333D01*
X119250000Y-19166333D01*
X119916666Y-18866333D02*
X119950000Y-18833000D01*
X120016666Y-18799666D01*
X120183333Y-18799666D01*
X120250000Y-18833000D01*
X120283333Y-18866333D01*
X120316666Y-18933000D01*
X120316666Y-18999666D01*
X120283333Y-19099666D01*
X119883333Y-19499666D01*
X120316666Y-19499666D01*
X120550000Y-18799666D02*
X121016666Y-18799666D01*
X120716666Y-19499666D01*
X121050000Y-59316666D02*
X120816666Y-58983333D01*
X120650000Y-59316666D02*
X120650000Y-58616666D01*
X120916666Y-58616666D01*
X120983333Y-58650000D01*
X121016666Y-58683333D01*
X121050000Y-58750000D01*
X121050000Y-58850000D01*
X121016666Y-58916666D01*
X120983333Y-58950000D01*
X120916666Y-58983333D01*
X120650000Y-58983333D01*
X121316666Y-58683333D02*
X121350000Y-58650000D01*
X121416666Y-58616666D01*
X121583333Y-58616666D01*
X121650000Y-58650000D01*
X121683333Y-58683333D01*
X121716666Y-58750000D01*
X121716666Y-58816666D01*
X121683333Y-58916666D01*
X121283333Y-59316666D01*
X121716666Y-59316666D01*
X122116666Y-58916666D02*
X122050000Y-58883333D01*
X122016666Y-58850000D01*
X121983333Y-58783333D01*
X121983333Y-58750000D01*
X122016666Y-58683333D01*
X122050000Y-58650000D01*
X122116666Y-58616666D01*
X122250000Y-58616666D01*
X122316666Y-58650000D01*
X122350000Y-58683333D01*
X122383333Y-58750000D01*
X122383333Y-58783333D01*
X122350000Y-58850000D01*
X122316666Y-58883333D01*
X122250000Y-58916666D01*
X122116666Y-58916666D01*
X122050000Y-58950000D01*
X122016666Y-58983333D01*
X121983333Y-59050000D01*
X121983333Y-59183333D01*
X122016666Y-59250000D01*
X122050000Y-59283333D01*
X122116666Y-59316666D01*
X122250000Y-59316666D01*
X122316666Y-59283333D01*
X122350000Y-59250000D01*
X122383333Y-59183333D01*
X122383333Y-59050000D01*
X122350000Y-58983333D01*
X122316666Y-58950000D01*
X122250000Y-58916666D01*
X119825000Y-23241666D02*
X119591666Y-22908333D01*
X119425000Y-23241666D02*
X119425000Y-22541666D01*
X119691666Y-22541666D01*
X119758333Y-22575000D01*
X119791666Y-22608333D01*
X119825000Y-22675000D01*
X119825000Y-22775000D01*
X119791666Y-22841666D01*
X119758333Y-22875000D01*
X119691666Y-22908333D01*
X119425000Y-22908333D01*
X120091666Y-22608333D02*
X120125000Y-22575000D01*
X120191666Y-22541666D01*
X120358333Y-22541666D01*
X120425000Y-22575000D01*
X120458333Y-22608333D01*
X120491666Y-22675000D01*
X120491666Y-22741666D01*
X120458333Y-22841666D01*
X120058333Y-23241666D01*
X120491666Y-23241666D01*
X120825000Y-23241666D02*
X120958333Y-23241666D01*
X121025000Y-23208333D01*
X121058333Y-23175000D01*
X121125000Y-23075000D01*
X121158333Y-22941666D01*
X121158333Y-22675000D01*
X121125000Y-22608333D01*
X121091666Y-22575000D01*
X121025000Y-22541666D01*
X120891666Y-22541666D01*
X120825000Y-22575000D01*
X120791666Y-22608333D01*
X120758333Y-22675000D01*
X120758333Y-22841666D01*
X120791666Y-22908333D01*
X120825000Y-22941666D01*
X120891666Y-22975000D01*
X121025000Y-22975000D01*
X121091666Y-22941666D01*
X121125000Y-22908333D01*
X121158333Y-22841666D01*
X73653666Y-59312000D02*
X73653666Y-58912000D01*
X74353666Y-59112000D02*
X73653666Y-59112000D01*
X74353666Y-58678666D02*
X73653666Y-58678666D01*
X73987000Y-58678666D02*
X73987000Y-58278666D01*
X74353666Y-58278666D02*
X73653666Y-58278666D01*
X74353666Y-57578666D02*
X74353666Y-57978666D01*
X74353666Y-57778666D02*
X73653666Y-57778666D01*
X73753666Y-57845333D01*
X73820333Y-57912000D01*
X73853666Y-57978666D01*
X61391666Y-23795833D02*
X61958333Y-23795833D01*
X62025000Y-23762500D01*
X62058333Y-23729166D01*
X62091666Y-23662500D01*
X62091666Y-23529166D01*
X62058333Y-23462500D01*
X62025000Y-23429166D01*
X61958333Y-23395833D01*
X61391666Y-23395833D01*
X61458333Y-23095833D02*
X61425000Y-23062500D01*
X61391666Y-22995833D01*
X61391666Y-22829166D01*
X61425000Y-22762500D01*
X61458333Y-22729166D01*
X61525000Y-22695833D01*
X61591666Y-22695833D01*
X61691666Y-22729166D01*
X62091666Y-23129166D01*
X62091666Y-22695833D01*
X71420800Y-40677966D02*
X71454133Y-40711300D01*
X71487466Y-40811300D01*
X71487466Y-40877966D01*
X71454133Y-40977966D01*
X71387466Y-41044633D01*
X71320800Y-41077966D01*
X71187466Y-41111300D01*
X71087466Y-41111300D01*
X70954133Y-41077966D01*
X70887466Y-41044633D01*
X70820800Y-40977966D01*
X70787466Y-40877966D01*
X70787466Y-40811300D01*
X70820800Y-40711300D01*
X70854133Y-40677966D01*
X70787466Y-40044633D02*
X70787466Y-40377966D01*
X71120800Y-40411300D01*
X71087466Y-40377966D01*
X71054133Y-40311300D01*
X71054133Y-40144633D01*
X71087466Y-40077966D01*
X71120800Y-40044633D01*
X71187466Y-40011300D01*
X71354133Y-40011300D01*
X71420800Y-40044633D01*
X71454133Y-40077966D01*
X71487466Y-40144633D01*
X71487466Y-40311300D01*
X71454133Y-40377966D01*
X71420800Y-40411300D01*
X116650000Y-59350000D02*
X116683333Y-59383333D01*
X116716666Y-59483333D01*
X116716666Y-59550000D01*
X116683333Y-59650000D01*
X116616666Y-59716666D01*
X116550000Y-59750000D01*
X116416666Y-59783333D01*
X116316666Y-59783333D01*
X116183333Y-59750000D01*
X116116666Y-59716666D01*
X116050000Y-59650000D01*
X116016666Y-59550000D01*
X116016666Y-59483333D01*
X116050000Y-59383333D01*
X116083333Y-59350000D01*
X116716666Y-58683333D02*
X116716666Y-59083333D01*
X116716666Y-58883333D02*
X116016666Y-58883333D01*
X116116666Y-58950000D01*
X116183333Y-59016666D01*
X116216666Y-59083333D01*
X116016666Y-58450000D02*
X116016666Y-57983333D01*
X116716666Y-58283333D01*
X73483333Y-39050000D02*
X73450000Y-39083333D01*
X73350000Y-39116666D01*
X73283333Y-39116666D01*
X73183333Y-39083333D01*
X73116666Y-39016666D01*
X73083333Y-38950000D01*
X73050000Y-38816666D01*
X73050000Y-38716666D01*
X73083333Y-38583333D01*
X73116666Y-38516666D01*
X73183333Y-38450000D01*
X73283333Y-38416666D01*
X73350000Y-38416666D01*
X73450000Y-38450000D01*
X73483333Y-38483333D01*
X73816666Y-39116666D02*
X73950000Y-39116666D01*
X74016666Y-39083333D01*
X74050000Y-39050000D01*
X74116666Y-38950000D01*
X74150000Y-38816666D01*
X74150000Y-38550000D01*
X74116666Y-38483333D01*
X74083333Y-38450000D01*
X74016666Y-38416666D01*
X73883333Y-38416666D01*
X73816666Y-38450000D01*
X73783333Y-38483333D01*
X73750000Y-38550000D01*
X73750000Y-38716666D01*
X73783333Y-38783333D01*
X73816666Y-38816666D01*
X73883333Y-38850000D01*
X74016666Y-38850000D01*
X74083333Y-38816666D01*
X74116666Y-38783333D01*
X74150000Y-38716666D01*
X46540000Y-46925666D02*
X46306666Y-46592333D01*
X46140000Y-46925666D02*
X46140000Y-46225666D01*
X46406666Y-46225666D01*
X46473333Y-46259000D01*
X46506666Y-46292333D01*
X46540000Y-46359000D01*
X46540000Y-46459000D01*
X46506666Y-46525666D01*
X46473333Y-46559000D01*
X46406666Y-46592333D01*
X46140000Y-46592333D01*
X47206666Y-46925666D02*
X46806666Y-46925666D01*
X47006666Y-46925666D02*
X47006666Y-46225666D01*
X46940000Y-46325666D01*
X46873333Y-46392333D01*
X46806666Y-46425666D01*
X47540000Y-46925666D02*
X47673333Y-46925666D01*
X47740000Y-46892333D01*
X47773333Y-46859000D01*
X47840000Y-46759000D01*
X47873333Y-46625666D01*
X47873333Y-46359000D01*
X47840000Y-46292333D01*
X47806666Y-46259000D01*
X47740000Y-46225666D01*
X47606666Y-46225666D01*
X47540000Y-46259000D01*
X47506666Y-46292333D01*
X47473333Y-46359000D01*
X47473333Y-46525666D01*
X47506666Y-46592333D01*
X47540000Y-46625666D01*
X47606666Y-46659000D01*
X47740000Y-46659000D01*
X47806666Y-46625666D01*
X47840000Y-46592333D01*
X47873333Y-46525666D01*
X61351333Y-60001666D02*
X61018000Y-60001666D01*
X61018000Y-59301666D01*
X61551333Y-59368333D02*
X61584666Y-59335000D01*
X61651333Y-59301666D01*
X61818000Y-59301666D01*
X61884666Y-59335000D01*
X61918000Y-59368333D01*
X61951333Y-59435000D01*
X61951333Y-59501666D01*
X61918000Y-59601666D01*
X61518000Y-60001666D01*
X61951333Y-60001666D01*
X54524666Y-37200666D02*
X54524666Y-37534000D01*
X53824666Y-37534000D01*
X54524666Y-36600666D02*
X54524666Y-37000666D01*
X54524666Y-36800666D02*
X53824666Y-36800666D01*
X53924666Y-36867333D01*
X53991333Y-36934000D01*
X54024666Y-37000666D01*
X44508000Y-49211666D02*
X44274666Y-48878333D01*
X44108000Y-49211666D02*
X44108000Y-48511666D01*
X44374666Y-48511666D01*
X44441333Y-48545000D01*
X44474666Y-48578333D01*
X44508000Y-48645000D01*
X44508000Y-48745000D01*
X44474666Y-48811666D01*
X44441333Y-48845000D01*
X44374666Y-48878333D01*
X44108000Y-48878333D01*
X44774666Y-48578333D02*
X44808000Y-48545000D01*
X44874666Y-48511666D01*
X45041333Y-48511666D01*
X45108000Y-48545000D01*
X45141333Y-48578333D01*
X45174666Y-48645000D01*
X45174666Y-48711666D01*
X45141333Y-48811666D01*
X44741333Y-49211666D01*
X45174666Y-49211666D01*
X45774666Y-48745000D02*
X45774666Y-49211666D01*
X45608000Y-48478333D02*
X45441333Y-48978333D01*
X45874666Y-48978333D01*
X46540000Y-49211666D02*
X46306666Y-48878333D01*
X46140000Y-49211666D02*
X46140000Y-48511666D01*
X46406666Y-48511666D01*
X46473333Y-48545000D01*
X46506666Y-48578333D01*
X46540000Y-48645000D01*
X46540000Y-48745000D01*
X46506666Y-48811666D01*
X46473333Y-48845000D01*
X46406666Y-48878333D01*
X46140000Y-48878333D01*
X46806666Y-48578333D02*
X46840000Y-48545000D01*
X46906666Y-48511666D01*
X47073333Y-48511666D01*
X47140000Y-48545000D01*
X47173333Y-48578333D01*
X47206666Y-48645000D01*
X47206666Y-48711666D01*
X47173333Y-48811666D01*
X46773333Y-49211666D01*
X47206666Y-49211666D01*
X47440000Y-48511666D02*
X47873333Y-48511666D01*
X47640000Y-48778333D01*
X47740000Y-48778333D01*
X47806666Y-48811666D01*
X47840000Y-48845000D01*
X47873333Y-48911666D01*
X47873333Y-49078333D01*
X47840000Y-49145000D01*
X47806666Y-49178333D01*
X47740000Y-49211666D01*
X47540000Y-49211666D01*
X47473333Y-49178333D01*
X47440000Y-49145000D01*
X44508000Y-46925666D02*
X44274666Y-46592333D01*
X44108000Y-46925666D02*
X44108000Y-46225666D01*
X44374666Y-46225666D01*
X44441333Y-46259000D01*
X44474666Y-46292333D01*
X44508000Y-46359000D01*
X44508000Y-46459000D01*
X44474666Y-46525666D01*
X44441333Y-46559000D01*
X44374666Y-46592333D01*
X44108000Y-46592333D01*
X44774666Y-46292333D02*
X44808000Y-46259000D01*
X44874666Y-46225666D01*
X45041333Y-46225666D01*
X45108000Y-46259000D01*
X45141333Y-46292333D01*
X45174666Y-46359000D01*
X45174666Y-46425666D01*
X45141333Y-46525666D01*
X44741333Y-46925666D01*
X45174666Y-46925666D01*
X45608000Y-46225666D02*
X45674666Y-46225666D01*
X45741333Y-46259000D01*
X45774666Y-46292333D01*
X45808000Y-46359000D01*
X45841333Y-46492333D01*
X45841333Y-46659000D01*
X45808000Y-46792333D01*
X45774666Y-46859000D01*
X45741333Y-46892333D01*
X45674666Y-46925666D01*
X45608000Y-46925666D01*
X45541333Y-46892333D01*
X45508000Y-46859000D01*
X45474666Y-46792333D01*
X45441333Y-46659000D01*
X45441333Y-46492333D01*
X45474666Y-46359000D01*
X45508000Y-46292333D01*
X45541333Y-46259000D01*
X45608000Y-46225666D01*
X66163000Y-60013000D02*
X66196333Y-60046333D01*
X66229666Y-60146333D01*
X66229666Y-60213000D01*
X66196333Y-60313000D01*
X66129666Y-60379666D01*
X66063000Y-60413000D01*
X65929666Y-60446333D01*
X65829666Y-60446333D01*
X65696333Y-60413000D01*
X65629666Y-60379666D01*
X65563000Y-60313000D01*
X65529666Y-60213000D01*
X65529666Y-60146333D01*
X65563000Y-60046333D01*
X65596333Y-60013000D01*
X65529666Y-59779666D02*
X65529666Y-59346333D01*
X65796333Y-59579666D01*
X65796333Y-59479666D01*
X65829666Y-59413000D01*
X65863000Y-59379666D01*
X65929666Y-59346333D01*
X66096333Y-59346333D01*
X66163000Y-59379666D01*
X66196333Y-59413000D01*
X66229666Y-59479666D01*
X66229666Y-59679666D01*
X66196333Y-59746333D01*
X66163000Y-59779666D01*
X65596333Y-59079666D02*
X65563000Y-59046333D01*
X65529666Y-58979666D01*
X65529666Y-58813000D01*
X65563000Y-58746333D01*
X65596333Y-58713000D01*
X65663000Y-58679666D01*
X65729666Y-58679666D01*
X65829666Y-58713000D01*
X66229666Y-59113000D01*
X66229666Y-58679666D01*
X69338000Y-57600000D02*
X69371333Y-57633333D01*
X69404666Y-57733333D01*
X69404666Y-57800000D01*
X69371333Y-57900000D01*
X69304666Y-57966666D01*
X69238000Y-58000000D01*
X69104666Y-58033333D01*
X69004666Y-58033333D01*
X68871333Y-58000000D01*
X68804666Y-57966666D01*
X68738000Y-57900000D01*
X68704666Y-57800000D01*
X68704666Y-57733333D01*
X68738000Y-57633333D01*
X68771333Y-57600000D01*
X68704666Y-57366666D02*
X68704666Y-56933333D01*
X68971333Y-57166666D01*
X68971333Y-57066666D01*
X69004666Y-57000000D01*
X69038000Y-56966666D01*
X69104666Y-56933333D01*
X69271333Y-56933333D01*
X69338000Y-56966666D01*
X69371333Y-57000000D01*
X69404666Y-57066666D01*
X69404666Y-57266666D01*
X69371333Y-57333333D01*
X69338000Y-57366666D01*
X69404666Y-56266666D02*
X69404666Y-56666666D01*
X69404666Y-56466666D02*
X68704666Y-56466666D01*
X68804666Y-56533333D01*
X68871333Y-56600000D01*
X68904666Y-56666666D01*
X58732000Y-45843000D02*
X58698666Y-45876333D01*
X58598666Y-45909666D01*
X58532000Y-45909666D01*
X58432000Y-45876333D01*
X58365333Y-45809666D01*
X58332000Y-45743000D01*
X58298666Y-45609666D01*
X58298666Y-45509666D01*
X58332000Y-45376333D01*
X58365333Y-45309666D01*
X58432000Y-45243000D01*
X58532000Y-45209666D01*
X58598666Y-45209666D01*
X58698666Y-45243000D01*
X58732000Y-45276333D01*
X58965333Y-45209666D02*
X59398666Y-45209666D01*
X59165333Y-45476333D01*
X59265333Y-45476333D01*
X59332000Y-45509666D01*
X59365333Y-45543000D01*
X59398666Y-45609666D01*
X59398666Y-45776333D01*
X59365333Y-45843000D01*
X59332000Y-45876333D01*
X59265333Y-45909666D01*
X59065333Y-45909666D01*
X58998666Y-45876333D01*
X58965333Y-45843000D01*
X59832000Y-45209666D02*
X59898666Y-45209666D01*
X59965333Y-45243000D01*
X59998666Y-45276333D01*
X60032000Y-45343000D01*
X60065333Y-45476333D01*
X60065333Y-45643000D01*
X60032000Y-45776333D01*
X59998666Y-45843000D01*
X59965333Y-45876333D01*
X59898666Y-45909666D01*
X59832000Y-45909666D01*
X59765333Y-45876333D01*
X59732000Y-45843000D01*
X59698666Y-45776333D01*
X59665333Y-45643000D01*
X59665333Y-45476333D01*
X59698666Y-45343000D01*
X59732000Y-45276333D01*
X59765333Y-45243000D01*
X59832000Y-45209666D01*
X58859000Y-48510000D02*
X58825666Y-48543333D01*
X58725666Y-48576666D01*
X58659000Y-48576666D01*
X58559000Y-48543333D01*
X58492333Y-48476666D01*
X58459000Y-48410000D01*
X58425666Y-48276666D01*
X58425666Y-48176666D01*
X58459000Y-48043333D01*
X58492333Y-47976666D01*
X58559000Y-47910000D01*
X58659000Y-47876666D01*
X58725666Y-47876666D01*
X58825666Y-47910000D01*
X58859000Y-47943333D01*
X59125666Y-47943333D02*
X59159000Y-47910000D01*
X59225666Y-47876666D01*
X59392333Y-47876666D01*
X59459000Y-47910000D01*
X59492333Y-47943333D01*
X59525666Y-48010000D01*
X59525666Y-48076666D01*
X59492333Y-48176666D01*
X59092333Y-48576666D01*
X59525666Y-48576666D01*
X59859000Y-48576666D02*
X59992333Y-48576666D01*
X60059000Y-48543333D01*
X60092333Y-48510000D01*
X60159000Y-48410000D01*
X60192333Y-48276666D01*
X60192333Y-48010000D01*
X60159000Y-47943333D01*
X60125666Y-47910000D01*
X60059000Y-47876666D01*
X59925666Y-47876666D01*
X59859000Y-47910000D01*
X59825666Y-47943333D01*
X59792333Y-48010000D01*
X59792333Y-48176666D01*
X59825666Y-48243333D01*
X59859000Y-48276666D01*
X59925666Y-48310000D01*
X60059000Y-48310000D01*
X60125666Y-48276666D01*
X60159000Y-48243333D01*
X60192333Y-48176666D01*
X112950000Y-52950000D02*
X112983333Y-52983333D01*
X113016666Y-53083333D01*
X113016666Y-53150000D01*
X112983333Y-53250000D01*
X112916666Y-53316666D01*
X112850000Y-53350000D01*
X112716666Y-53383333D01*
X112616666Y-53383333D01*
X112483333Y-53350000D01*
X112416666Y-53316666D01*
X112350000Y-53250000D01*
X112316666Y-53150000D01*
X112316666Y-53083333D01*
X112350000Y-52983333D01*
X112383333Y-52950000D01*
X113016666Y-52283333D02*
X113016666Y-52683333D01*
X113016666Y-52483333D02*
X112316666Y-52483333D01*
X112416666Y-52550000D01*
X112483333Y-52616666D01*
X112516666Y-52683333D01*
X112316666Y-51650000D02*
X112316666Y-51983333D01*
X112650000Y-52016666D01*
X112616666Y-51983333D01*
X112583333Y-51916666D01*
X112583333Y-51750000D01*
X112616666Y-51683333D01*
X112650000Y-51650000D01*
X112716666Y-51616666D01*
X112883333Y-51616666D01*
X112950000Y-51650000D01*
X112983333Y-51683333D01*
X113016666Y-51750000D01*
X113016666Y-51916666D01*
X112983333Y-51983333D01*
X112950000Y-52016666D01*
X62333333Y-42383333D02*
X62333333Y-41816666D01*
X62300000Y-41750000D01*
X62266666Y-41716666D01*
X62200000Y-41683333D01*
X62066666Y-41683333D01*
X62000000Y-41716666D01*
X61966666Y-41750000D01*
X61933333Y-41816666D01*
X61933333Y-42383333D01*
X61666666Y-42383333D02*
X61233333Y-42383333D01*
X61466666Y-42116666D01*
X61366666Y-42116666D01*
X61300000Y-42083333D01*
X61266666Y-42050000D01*
X61233333Y-41983333D01*
X61233333Y-41816666D01*
X61266666Y-41750000D01*
X61300000Y-41716666D01*
X61366666Y-41683333D01*
X61566666Y-41683333D01*
X61633333Y-41716666D01*
X61666666Y-41750000D01*
D13*
X69200000Y-48652380D02*
X69200000Y-48890476D01*
X68961904Y-48795238D02*
X69200000Y-48890476D01*
X69438095Y-48795238D01*
X69057142Y-49080952D02*
X69200000Y-48890476D01*
X69342857Y-49080952D01*
D10*
X76057933Y-50084800D02*
X76024600Y-50118133D01*
X75924600Y-50151466D01*
X75857933Y-50151466D01*
X75757933Y-50118133D01*
X75691266Y-50051466D01*
X75657933Y-49984800D01*
X75624600Y-49851466D01*
X75624600Y-49751466D01*
X75657933Y-49618133D01*
X75691266Y-49551466D01*
X75757933Y-49484800D01*
X75857933Y-49451466D01*
X75924600Y-49451466D01*
X76024600Y-49484800D01*
X76057933Y-49518133D01*
X76457933Y-49751466D02*
X76391266Y-49718133D01*
X76357933Y-49684800D01*
X76324600Y-49618133D01*
X76324600Y-49584800D01*
X76357933Y-49518133D01*
X76391266Y-49484800D01*
X76457933Y-49451466D01*
X76591266Y-49451466D01*
X76657933Y-49484800D01*
X76691266Y-49518133D01*
X76724600Y-49584800D01*
X76724600Y-49618133D01*
X76691266Y-49684800D01*
X76657933Y-49718133D01*
X76591266Y-49751466D01*
X76457933Y-49751466D01*
X76391266Y-49784800D01*
X76357933Y-49818133D01*
X76324600Y-49884800D01*
X76324600Y-50018133D01*
X76357933Y-50084800D01*
X76391266Y-50118133D01*
X76457933Y-50151466D01*
X76591266Y-50151466D01*
X76657933Y-50118133D01*
X76691266Y-50084800D01*
X76724600Y-50018133D01*
X76724600Y-49884800D01*
X76691266Y-49818133D01*
X76657933Y-49784800D01*
X76591266Y-49751466D01*
X61972000Y-36518000D02*
X62005333Y-36551333D01*
X62038666Y-36651333D01*
X62038666Y-36718000D01*
X62005333Y-36818000D01*
X61938666Y-36884666D01*
X61872000Y-36918000D01*
X61738666Y-36951333D01*
X61638666Y-36951333D01*
X61505333Y-36918000D01*
X61438666Y-36884666D01*
X61372000Y-36818000D01*
X61338666Y-36718000D01*
X61338666Y-36651333D01*
X61372000Y-36551333D01*
X61405333Y-36518000D01*
X62038666Y-35851333D02*
X62038666Y-36251333D01*
X62038666Y-36051333D02*
X61338666Y-36051333D01*
X61438666Y-36118000D01*
X61505333Y-36184666D01*
X61538666Y-36251333D01*
X61405333Y-35584666D02*
X61372000Y-35551333D01*
X61338666Y-35484666D01*
X61338666Y-35318000D01*
X61372000Y-35251333D01*
X61405333Y-35218000D01*
X61472000Y-35184666D01*
X61538666Y-35184666D01*
X61638666Y-35218000D01*
X62038666Y-35618000D01*
X62038666Y-35184666D01*
X71083333Y-43050000D02*
X71050000Y-43083333D01*
X70950000Y-43116666D01*
X70883333Y-43116666D01*
X70783333Y-43083333D01*
X70716666Y-43016666D01*
X70683333Y-42950000D01*
X70650000Y-42816666D01*
X70650000Y-42716666D01*
X70683333Y-42583333D01*
X70716666Y-42516666D01*
X70783333Y-42450000D01*
X70883333Y-42416666D01*
X70950000Y-42416666D01*
X71050000Y-42450000D01*
X71083333Y-42483333D01*
X71683333Y-42416666D02*
X71550000Y-42416666D01*
X71483333Y-42450000D01*
X71450000Y-42483333D01*
X71383333Y-42583333D01*
X71350000Y-42716666D01*
X71350000Y-42983333D01*
X71383333Y-43050000D01*
X71416666Y-43083333D01*
X71483333Y-43116666D01*
X71616666Y-43116666D01*
X71683333Y-43083333D01*
X71716666Y-43050000D01*
X71750000Y-42983333D01*
X71750000Y-42816666D01*
X71716666Y-42750000D01*
X71683333Y-42716666D01*
X71616666Y-42683333D01*
X71483333Y-42683333D01*
X71416666Y-42716666D01*
X71383333Y-42750000D01*
X71350000Y-42816666D01*
X49338666Y-54110666D02*
X48638666Y-54110666D01*
X48638666Y-53944000D01*
X48672000Y-53844000D01*
X48738666Y-53777333D01*
X48805333Y-53744000D01*
X48938666Y-53710666D01*
X49038666Y-53710666D01*
X49172000Y-53744000D01*
X49238666Y-53777333D01*
X49305333Y-53844000D01*
X49338666Y-53944000D01*
X49338666Y-54110666D01*
X48638666Y-53110666D02*
X48638666Y-53244000D01*
X48672000Y-53310666D01*
X48705333Y-53344000D01*
X48805333Y-53410666D01*
X48938666Y-53444000D01*
X49205333Y-53444000D01*
X49272000Y-53410666D01*
X49305333Y-53377333D01*
X49338666Y-53310666D01*
X49338666Y-53177333D01*
X49305333Y-53110666D01*
X49272000Y-53077333D01*
X49205333Y-53044000D01*
X49038666Y-53044000D01*
X48972000Y-53077333D01*
X48938666Y-53110666D01*
X48905333Y-53177333D01*
X48905333Y-53310666D01*
X48938666Y-53377333D01*
X48972000Y-53410666D01*
X49038666Y-53444000D01*
X53555066Y-56066466D02*
X52855066Y-56066466D01*
X52855066Y-55899800D01*
X52888400Y-55799800D01*
X52955066Y-55733133D01*
X53021733Y-55699800D01*
X53155066Y-55666466D01*
X53255066Y-55666466D01*
X53388400Y-55699800D01*
X53455066Y-55733133D01*
X53521733Y-55799800D01*
X53555066Y-55899800D01*
X53555066Y-56066466D01*
X52855066Y-55033133D02*
X52855066Y-55366466D01*
X53188400Y-55399800D01*
X53155066Y-55366466D01*
X53121733Y-55299800D01*
X53121733Y-55133133D01*
X53155066Y-55066466D01*
X53188400Y-55033133D01*
X53255066Y-54999800D01*
X53421733Y-54999800D01*
X53488400Y-55033133D01*
X53521733Y-55066466D01*
X53555066Y-55133133D01*
X53555066Y-55299800D01*
X53521733Y-55366466D01*
X53488400Y-55399800D01*
X51265866Y-39764533D02*
X51265866Y-40464533D01*
X51099200Y-40464533D01*
X50999200Y-40431200D01*
X50932533Y-40364533D01*
X50899200Y-40297866D01*
X50865866Y-40164533D01*
X50865866Y-40064533D01*
X50899200Y-39931200D01*
X50932533Y-39864533D01*
X50999200Y-39797866D01*
X51099200Y-39764533D01*
X51265866Y-39764533D01*
X50632533Y-40464533D02*
X50199200Y-40464533D01*
X50432533Y-40197866D01*
X50332533Y-40197866D01*
X50265866Y-40164533D01*
X50232533Y-40131200D01*
X50199200Y-40064533D01*
X50199200Y-39897866D01*
X50232533Y-39831200D01*
X50265866Y-39797866D01*
X50332533Y-39764533D01*
X50532533Y-39764533D01*
X50599200Y-39797866D01*
X50632533Y-39831200D01*
X53932866Y-39891533D02*
X53932866Y-40591533D01*
X53766200Y-40591533D01*
X53666200Y-40558200D01*
X53599533Y-40491533D01*
X53566200Y-40424866D01*
X53532866Y-40291533D01*
X53532866Y-40191533D01*
X53566200Y-40058200D01*
X53599533Y-39991533D01*
X53666200Y-39924866D01*
X53766200Y-39891533D01*
X53932866Y-39891533D01*
X53266200Y-40524866D02*
X53232866Y-40558200D01*
X53166200Y-40591533D01*
X52999533Y-40591533D01*
X52932866Y-40558200D01*
X52899533Y-40524866D01*
X52866200Y-40458200D01*
X52866200Y-40391533D01*
X52899533Y-40291533D01*
X53299533Y-39891533D01*
X52866200Y-39891533D01*
X46921000Y-42922000D02*
X46887666Y-42955333D01*
X46787666Y-42988666D01*
X46721000Y-42988666D01*
X46621000Y-42955333D01*
X46554333Y-42888666D01*
X46521000Y-42822000D01*
X46487666Y-42688666D01*
X46487666Y-42588666D01*
X46521000Y-42455333D01*
X46554333Y-42388666D01*
X46621000Y-42322000D01*
X46721000Y-42288666D01*
X46787666Y-42288666D01*
X46887666Y-42322000D01*
X46921000Y-42355333D01*
X47187666Y-42355333D02*
X47221000Y-42322000D01*
X47287666Y-42288666D01*
X47454333Y-42288666D01*
X47521000Y-42322000D01*
X47554333Y-42355333D01*
X47587666Y-42422000D01*
X47587666Y-42488666D01*
X47554333Y-42588666D01*
X47154333Y-42988666D01*
X47587666Y-42988666D01*
X47821000Y-42288666D02*
X48287666Y-42288666D01*
X47987666Y-42988666D01*
X66950400Y-41496400D02*
X66983733Y-41529733D01*
X67017066Y-41629733D01*
X67017066Y-41696400D01*
X66983733Y-41796400D01*
X66917066Y-41863066D01*
X66850400Y-41896400D01*
X66717066Y-41929733D01*
X66617066Y-41929733D01*
X66483733Y-41896400D01*
X66417066Y-41863066D01*
X66350400Y-41796400D01*
X66317066Y-41696400D01*
X66317066Y-41629733D01*
X66350400Y-41529733D01*
X66383733Y-41496400D01*
X66383733Y-41229733D02*
X66350400Y-41196400D01*
X66317066Y-41129733D01*
X66317066Y-40963066D01*
X66350400Y-40896400D01*
X66383733Y-40863066D01*
X66450400Y-40829733D01*
X66517066Y-40829733D01*
X66617066Y-40863066D01*
X67017066Y-41263066D01*
X67017066Y-40829733D01*
X66550400Y-40229733D02*
X67017066Y-40229733D01*
X66283733Y-40396400D02*
X66783733Y-40563066D01*
X66783733Y-40129733D01*
X71083333Y-47748000D02*
X71050000Y-47781333D01*
X70950000Y-47814666D01*
X70883333Y-47814666D01*
X70783333Y-47781333D01*
X70716666Y-47714666D01*
X70683333Y-47648000D01*
X70650000Y-47514666D01*
X70650000Y-47414666D01*
X70683333Y-47281333D01*
X70716666Y-47214666D01*
X70783333Y-47148000D01*
X70883333Y-47114666D01*
X70950000Y-47114666D01*
X71050000Y-47148000D01*
X71083333Y-47181333D01*
X71750000Y-47814666D02*
X71350000Y-47814666D01*
X71550000Y-47814666D02*
X71550000Y-47114666D01*
X71483333Y-47214666D01*
X71416666Y-47281333D01*
X71350000Y-47314666D01*
X58732000Y-43430000D02*
X58698666Y-43463333D01*
X58598666Y-43496666D01*
X58532000Y-43496666D01*
X58432000Y-43463333D01*
X58365333Y-43396666D01*
X58332000Y-43330000D01*
X58298666Y-43196666D01*
X58298666Y-43096666D01*
X58332000Y-42963333D01*
X58365333Y-42896666D01*
X58432000Y-42830000D01*
X58532000Y-42796666D01*
X58598666Y-42796666D01*
X58698666Y-42830000D01*
X58732000Y-42863333D01*
X58998666Y-42863333D02*
X59032000Y-42830000D01*
X59098666Y-42796666D01*
X59265333Y-42796666D01*
X59332000Y-42830000D01*
X59365333Y-42863333D01*
X59398666Y-42930000D01*
X59398666Y-42996666D01*
X59365333Y-43096666D01*
X58965333Y-43496666D01*
X59398666Y-43496666D01*
X59832000Y-42796666D02*
X59898666Y-42796666D01*
X59965333Y-42830000D01*
X59998666Y-42863333D01*
X60032000Y-42930000D01*
X60065333Y-43063333D01*
X60065333Y-43230000D01*
X60032000Y-43363333D01*
X59998666Y-43430000D01*
X59965333Y-43463333D01*
X59898666Y-43496666D01*
X59832000Y-43496666D01*
X59765333Y-43463333D01*
X59732000Y-43430000D01*
X59698666Y-43363333D01*
X59665333Y-43230000D01*
X59665333Y-43063333D01*
X59698666Y-42930000D01*
X59732000Y-42863333D01*
X59765333Y-42830000D01*
X59832000Y-42796666D01*
X69084000Y-40695666D02*
X69117333Y-40729000D01*
X69150666Y-40829000D01*
X69150666Y-40895666D01*
X69117333Y-40995666D01*
X69050666Y-41062333D01*
X68984000Y-41095666D01*
X68850666Y-41129000D01*
X68750666Y-41129000D01*
X68617333Y-41095666D01*
X68550666Y-41062333D01*
X68484000Y-40995666D01*
X68450666Y-40895666D01*
X68450666Y-40829000D01*
X68484000Y-40729000D01*
X68517333Y-40695666D01*
X68450666Y-40462333D02*
X68450666Y-39995666D01*
X69150666Y-40295666D01*
X58859000Y-50796000D02*
X58825666Y-50829333D01*
X58725666Y-50862666D01*
X58659000Y-50862666D01*
X58559000Y-50829333D01*
X58492333Y-50762666D01*
X58459000Y-50696000D01*
X58425666Y-50562666D01*
X58425666Y-50462666D01*
X58459000Y-50329333D01*
X58492333Y-50262666D01*
X58559000Y-50196000D01*
X58659000Y-50162666D01*
X58725666Y-50162666D01*
X58825666Y-50196000D01*
X58859000Y-50229333D01*
X59125666Y-50229333D02*
X59159000Y-50196000D01*
X59225666Y-50162666D01*
X59392333Y-50162666D01*
X59459000Y-50196000D01*
X59492333Y-50229333D01*
X59525666Y-50296000D01*
X59525666Y-50362666D01*
X59492333Y-50462666D01*
X59092333Y-50862666D01*
X59525666Y-50862666D01*
X60159000Y-50162666D02*
X59825666Y-50162666D01*
X59792333Y-50496000D01*
X59825666Y-50462666D01*
X59892333Y-50429333D01*
X60059000Y-50429333D01*
X60125666Y-50462666D01*
X60159000Y-50496000D01*
X60192333Y-50562666D01*
X60192333Y-50729333D01*
X60159000Y-50796000D01*
X60125666Y-50829333D01*
X60059000Y-50862666D01*
X59892333Y-50862666D01*
X59825666Y-50829333D01*
X59792333Y-50796000D01*
X46794000Y-52828000D02*
X46760666Y-52861333D01*
X46660666Y-52894666D01*
X46594000Y-52894666D01*
X46494000Y-52861333D01*
X46427333Y-52794666D01*
X46394000Y-52728000D01*
X46360666Y-52594666D01*
X46360666Y-52494666D01*
X46394000Y-52361333D01*
X46427333Y-52294666D01*
X46494000Y-52228000D01*
X46594000Y-52194666D01*
X46660666Y-52194666D01*
X46760666Y-52228000D01*
X46794000Y-52261333D01*
X47027333Y-52194666D02*
X47460666Y-52194666D01*
X47227333Y-52461333D01*
X47327333Y-52461333D01*
X47394000Y-52494666D01*
X47427333Y-52528000D01*
X47460666Y-52594666D01*
X47460666Y-52761333D01*
X47427333Y-52828000D01*
X47394000Y-52861333D01*
X47327333Y-52894666D01*
X47127333Y-52894666D01*
X47060666Y-52861333D01*
X47027333Y-52828000D01*
X47694000Y-52194666D02*
X48127333Y-52194666D01*
X47894000Y-52461333D01*
X47994000Y-52461333D01*
X48060666Y-52494666D01*
X48094000Y-52528000D01*
X48127333Y-52594666D01*
X48127333Y-52761333D01*
X48094000Y-52828000D01*
X48060666Y-52861333D01*
X47994000Y-52894666D01*
X47794000Y-52894666D01*
X47727333Y-52861333D01*
X47694000Y-52828000D01*
X70883333Y-45450000D02*
X70850000Y-45483333D01*
X70750000Y-45516666D01*
X70683333Y-45516666D01*
X70583333Y-45483333D01*
X70516666Y-45416666D01*
X70483333Y-45350000D01*
X70450000Y-45216666D01*
X70450000Y-45116666D01*
X70483333Y-44983333D01*
X70516666Y-44916666D01*
X70583333Y-44850000D01*
X70683333Y-44816666D01*
X70750000Y-44816666D01*
X70850000Y-44850000D01*
X70883333Y-44883333D01*
X71483333Y-45050000D02*
X71483333Y-45516666D01*
X71316666Y-44783333D02*
X71150000Y-45283333D01*
X71583333Y-45283333D01*
X67306000Y-57600000D02*
X67339333Y-57633333D01*
X67372666Y-57733333D01*
X67372666Y-57800000D01*
X67339333Y-57900000D01*
X67272666Y-57966666D01*
X67206000Y-58000000D01*
X67072666Y-58033333D01*
X66972666Y-58033333D01*
X66839333Y-58000000D01*
X66772666Y-57966666D01*
X66706000Y-57900000D01*
X66672666Y-57800000D01*
X66672666Y-57733333D01*
X66706000Y-57633333D01*
X66739333Y-57600000D01*
X66739333Y-57333333D02*
X66706000Y-57300000D01*
X66672666Y-57233333D01*
X66672666Y-57066666D01*
X66706000Y-57000000D01*
X66739333Y-56966666D01*
X66806000Y-56933333D01*
X66872666Y-56933333D01*
X66972666Y-56966666D01*
X67372666Y-57366666D01*
X67372666Y-56933333D01*
X66972666Y-56533333D02*
X66939333Y-56600000D01*
X66906000Y-56633333D01*
X66839333Y-56666666D01*
X66806000Y-56666666D01*
X66739333Y-56633333D01*
X66706000Y-56600000D01*
X66672666Y-56533333D01*
X66672666Y-56400000D01*
X66706000Y-56333333D01*
X66739333Y-56300000D01*
X66806000Y-56266666D01*
X66839333Y-56266666D01*
X66906000Y-56300000D01*
X66939333Y-56333333D01*
X66972666Y-56400000D01*
X66972666Y-56533333D01*
X67006000Y-56600000D01*
X67039333Y-56633333D01*
X67106000Y-56666666D01*
X67239333Y-56666666D01*
X67306000Y-56633333D01*
X67339333Y-56600000D01*
X67372666Y-56533333D01*
X67372666Y-56400000D01*
X67339333Y-56333333D01*
X67306000Y-56300000D01*
X67239333Y-56266666D01*
X67106000Y-56266666D01*
X67039333Y-56300000D01*
X67006000Y-56333333D01*
X66972666Y-56400000D01*
X64705666Y-52205666D02*
X64005666Y-52205666D01*
X64005666Y-52039000D01*
X64039000Y-51939000D01*
X64105666Y-51872333D01*
X64172333Y-51839000D01*
X64305666Y-51805666D01*
X64405666Y-51805666D01*
X64539000Y-51839000D01*
X64605666Y-51872333D01*
X64672333Y-51939000D01*
X64705666Y-52039000D01*
X64705666Y-52205666D01*
X64239000Y-51205666D02*
X64705666Y-51205666D01*
X63972333Y-51372333D02*
X64472333Y-51539000D01*
X64472333Y-51105666D01*
X76137000Y-39783333D02*
X76103666Y-39750000D01*
X76070333Y-39650000D01*
X76070333Y-39583333D01*
X76103666Y-39483333D01*
X76170333Y-39416666D01*
X76237000Y-39383333D01*
X76370333Y-39350000D01*
X76470333Y-39350000D01*
X76603666Y-39383333D01*
X76670333Y-39416666D01*
X76737000Y-39483333D01*
X76770333Y-39583333D01*
X76770333Y-39650000D01*
X76737000Y-39750000D01*
X76703666Y-39783333D01*
X76703666Y-40050000D02*
X76737000Y-40083333D01*
X76770333Y-40150000D01*
X76770333Y-40316666D01*
X76737000Y-40383333D01*
X76703666Y-40416666D01*
X76637000Y-40450000D01*
X76570333Y-40450000D01*
X76470333Y-40416666D01*
X76070333Y-40016666D01*
X76070333Y-40450000D01*
X119250000Y-17450000D02*
X119216666Y-17483333D01*
X119116666Y-17516666D01*
X119050000Y-17516666D01*
X118950000Y-17483333D01*
X118883333Y-17416666D01*
X118850000Y-17350000D01*
X118816666Y-17216666D01*
X118816666Y-17116666D01*
X118850000Y-16983333D01*
X118883333Y-16916666D01*
X118950000Y-16850000D01*
X119050000Y-16816666D01*
X119116666Y-16816666D01*
X119216666Y-16850000D01*
X119250000Y-16883333D01*
X119483333Y-16816666D02*
X119916666Y-16816666D01*
X119683333Y-17083333D01*
X119783333Y-17083333D01*
X119850000Y-17116666D01*
X119883333Y-17150000D01*
X119916666Y-17216666D01*
X119916666Y-17383333D01*
X119883333Y-17450000D01*
X119850000Y-17483333D01*
X119783333Y-17516666D01*
X119583333Y-17516666D01*
X119516666Y-17483333D01*
X119483333Y-17450000D01*
X120316666Y-17116666D02*
X120250000Y-17083333D01*
X120216666Y-17050000D01*
X120183333Y-16983333D01*
X120183333Y-16950000D01*
X120216666Y-16883333D01*
X120250000Y-16850000D01*
X120316666Y-16816666D01*
X120450000Y-16816666D01*
X120516666Y-16850000D01*
X120550000Y-16883333D01*
X120583333Y-16950000D01*
X120583333Y-16983333D01*
X120550000Y-17050000D01*
X120516666Y-17083333D01*
X120450000Y-17116666D01*
X120316666Y-17116666D01*
X120250000Y-17150000D01*
X120216666Y-17183333D01*
X120183333Y-17250000D01*
X120183333Y-17383333D01*
X120216666Y-17450000D01*
X120250000Y-17483333D01*
X120316666Y-17516666D01*
X120450000Y-17516666D01*
X120516666Y-17483333D01*
X120550000Y-17450000D01*
X120583333Y-17383333D01*
X120583333Y-17250000D01*
X120550000Y-17183333D01*
X120516666Y-17150000D01*
X120450000Y-17116666D01*
X119750000Y-15637666D02*
X119516666Y-15304333D01*
X119350000Y-15637666D02*
X119350000Y-14937666D01*
X119616666Y-14937666D01*
X119683333Y-14971000D01*
X119716666Y-15004333D01*
X119750000Y-15071000D01*
X119750000Y-15171000D01*
X119716666Y-15237666D01*
X119683333Y-15271000D01*
X119616666Y-15304333D01*
X119350000Y-15304333D01*
X119983333Y-14937666D02*
X120416666Y-14937666D01*
X120183333Y-15204333D01*
X120283333Y-15204333D01*
X120350000Y-15237666D01*
X120383333Y-15271000D01*
X120416666Y-15337666D01*
X120416666Y-15504333D01*
X120383333Y-15571000D01*
X120350000Y-15604333D01*
X120283333Y-15637666D01*
X120083333Y-15637666D01*
X120016666Y-15604333D01*
X119983333Y-15571000D01*
X120850000Y-14937666D02*
X120916666Y-14937666D01*
X120983333Y-14971000D01*
X121016666Y-15004333D01*
X121050000Y-15071000D01*
X121083333Y-15204333D01*
X121083333Y-15371000D01*
X121050000Y-15504333D01*
X121016666Y-15571000D01*
X120983333Y-15604333D01*
X120916666Y-15637666D01*
X120850000Y-15637666D01*
X120783333Y-15604333D01*
X120750000Y-15571000D01*
X120716666Y-15504333D01*
X120683333Y-15371000D01*
X120683333Y-15204333D01*
X120716666Y-15071000D01*
X120750000Y-15004333D01*
X120783333Y-14971000D01*
X120850000Y-14937666D01*
X64502466Y-41385266D02*
X63802466Y-41385266D01*
X63802466Y-41218600D01*
X63835800Y-41118600D01*
X63902466Y-41051933D01*
X63969133Y-41018600D01*
X64102466Y-40985266D01*
X64202466Y-40985266D01*
X64335800Y-41018600D01*
X64402466Y-41051933D01*
X64469133Y-41118600D01*
X64502466Y-41218600D01*
X64502466Y-41385266D01*
X64502466Y-40318600D02*
X64502466Y-40718600D01*
X64502466Y-40518600D02*
X63802466Y-40518600D01*
X63902466Y-40585266D01*
X63969133Y-40651933D01*
X64002466Y-40718600D01*
X32937666Y-63490000D02*
X32604333Y-63723333D01*
X32937666Y-63890000D02*
X32237666Y-63890000D01*
X32237666Y-63623333D01*
X32271000Y-63556666D01*
X32304333Y-63523333D01*
X32371000Y-63490000D01*
X32471000Y-63490000D01*
X32537666Y-63523333D01*
X32571000Y-63556666D01*
X32604333Y-63623333D01*
X32604333Y-63890000D01*
X32304333Y-63223333D02*
X32271000Y-63190000D01*
X32237666Y-63123333D01*
X32237666Y-62956666D01*
X32271000Y-62890000D01*
X32304333Y-62856666D01*
X32371000Y-62823333D01*
X32437666Y-62823333D01*
X32537666Y-62856666D01*
X32937666Y-63256666D01*
X32937666Y-62823333D01*
X32304333Y-62556666D02*
X32271000Y-62523333D01*
X32237666Y-62456666D01*
X32237666Y-62290000D01*
X32271000Y-62223333D01*
X32304333Y-62190000D01*
X32371000Y-62156666D01*
X32437666Y-62156666D01*
X32537666Y-62190000D01*
X32937666Y-62590000D01*
X32937666Y-62156666D01*
X32937666Y-55136000D02*
X32604333Y-55369333D01*
X32937666Y-55536000D02*
X32237666Y-55536000D01*
X32237666Y-55269333D01*
X32271000Y-55202666D01*
X32304333Y-55169333D01*
X32371000Y-55136000D01*
X32471000Y-55136000D01*
X32537666Y-55169333D01*
X32571000Y-55202666D01*
X32604333Y-55269333D01*
X32604333Y-55536000D01*
X32304333Y-54869333D02*
X32271000Y-54836000D01*
X32237666Y-54769333D01*
X32237666Y-54602666D01*
X32271000Y-54536000D01*
X32304333Y-54502666D01*
X32371000Y-54469333D01*
X32437666Y-54469333D01*
X32537666Y-54502666D01*
X32937666Y-54902666D01*
X32937666Y-54469333D01*
X32937666Y-53802666D02*
X32937666Y-54202666D01*
X32937666Y-54002666D02*
X32237666Y-54002666D01*
X32337666Y-54069333D01*
X32404333Y-54136000D01*
X32437666Y-54202666D01*
X52000000Y-39200000D02*
X52033333Y-39233333D01*
X52066666Y-39333333D01*
X52066666Y-39400000D01*
X52033333Y-39500000D01*
X51966666Y-39566666D01*
X51900000Y-39600000D01*
X51766666Y-39633333D01*
X51666666Y-39633333D01*
X51533333Y-39600000D01*
X51466666Y-39566666D01*
X51400000Y-39500000D01*
X51366666Y-39400000D01*
X51366666Y-39333333D01*
X51400000Y-39233333D01*
X51433333Y-39200000D01*
X52066666Y-38533333D02*
X52066666Y-38933333D01*
X52066666Y-38733333D02*
X51366666Y-38733333D01*
X51466666Y-38800000D01*
X51533333Y-38866666D01*
X51566666Y-38933333D01*
X51366666Y-38100000D02*
X51366666Y-38033333D01*
X51400000Y-37966666D01*
X51433333Y-37933333D01*
X51500000Y-37900000D01*
X51633333Y-37866666D01*
X51800000Y-37866666D01*
X51933333Y-37900000D01*
X52000000Y-37933333D01*
X52033333Y-37966666D01*
X52066666Y-38033333D01*
X52066666Y-38100000D01*
X52033333Y-38166666D01*
X52000000Y-38200000D01*
X51933333Y-38233333D01*
X51800000Y-38266666D01*
X51633333Y-38266666D01*
X51500000Y-38233333D01*
X51433333Y-38200000D01*
X51400000Y-38166666D01*
X51366666Y-38100000D01*
X56892000Y-57854000D02*
X56925333Y-57887333D01*
X56958666Y-57987333D01*
X56958666Y-58054000D01*
X56925333Y-58154000D01*
X56858666Y-58220666D01*
X56792000Y-58254000D01*
X56658666Y-58287333D01*
X56558666Y-58287333D01*
X56425333Y-58254000D01*
X56358666Y-58220666D01*
X56292000Y-58154000D01*
X56258666Y-58054000D01*
X56258666Y-57987333D01*
X56292000Y-57887333D01*
X56325333Y-57854000D01*
X56325333Y-57587333D02*
X56292000Y-57554000D01*
X56258666Y-57487333D01*
X56258666Y-57320666D01*
X56292000Y-57254000D01*
X56325333Y-57220666D01*
X56392000Y-57187333D01*
X56458666Y-57187333D01*
X56558666Y-57220666D01*
X56958666Y-57620666D01*
X56958666Y-57187333D01*
X56258666Y-56587333D02*
X56258666Y-56720666D01*
X56292000Y-56787333D01*
X56325333Y-56820666D01*
X56425333Y-56887333D01*
X56558666Y-56920666D01*
X56825333Y-56920666D01*
X56892000Y-56887333D01*
X56925333Y-56854000D01*
X56958666Y-56787333D01*
X56958666Y-56654000D01*
X56925333Y-56587333D01*
X56892000Y-56554000D01*
X56825333Y-56520666D01*
X56658666Y-56520666D01*
X56592000Y-56554000D01*
X56558666Y-56587333D01*
X56525333Y-56654000D01*
X56525333Y-56787333D01*
X56558666Y-56854000D01*
X56592000Y-56887333D01*
X56658666Y-56920666D01*
X31633333Y-45681333D02*
X31233333Y-45681333D01*
X31433333Y-44981333D02*
X31433333Y-45681333D01*
X31000000Y-44981333D02*
X31000000Y-45681333D01*
X30733333Y-45681333D01*
X30666666Y-45648000D01*
X30633333Y-45614666D01*
X30600000Y-45548000D01*
X30600000Y-45448000D01*
X30633333Y-45381333D01*
X30666666Y-45348000D01*
X30733333Y-45314666D01*
X31000000Y-45314666D01*
X30366666Y-45681333D02*
X29933333Y-45681333D01*
X30166666Y-45414666D01*
X30066666Y-45414666D01*
X30000000Y-45381333D01*
X29966666Y-45348000D01*
X29933333Y-45281333D01*
X29933333Y-45114666D01*
X29966666Y-45048000D01*
X30000000Y-45014666D01*
X30066666Y-44981333D01*
X30266666Y-44981333D01*
X30333333Y-45014666D01*
X30366666Y-45048000D01*
X76150000Y-30850000D02*
X76116666Y-30883333D01*
X76016666Y-30916666D01*
X75950000Y-30916666D01*
X75850000Y-30883333D01*
X75783333Y-30816666D01*
X75750000Y-30750000D01*
X75716666Y-30616666D01*
X75716666Y-30516666D01*
X75750000Y-30383333D01*
X75783333Y-30316666D01*
X75850000Y-30250000D01*
X75950000Y-30216666D01*
X76016666Y-30216666D01*
X76116666Y-30250000D01*
X76150000Y-30283333D01*
X76750000Y-30450000D02*
X76750000Y-30916666D01*
X76583333Y-30183333D02*
X76416666Y-30683333D01*
X76850000Y-30683333D01*
X77250000Y-30216666D02*
X77316666Y-30216666D01*
X77383333Y-30250000D01*
X77416666Y-30283333D01*
X77450000Y-30350000D01*
X77483333Y-30483333D01*
X77483333Y-30650000D01*
X77450000Y-30783333D01*
X77416666Y-30850000D01*
X77383333Y-30883333D01*
X77316666Y-30916666D01*
X77250000Y-30916666D01*
X77183333Y-30883333D01*
X77150000Y-30850000D01*
X77116666Y-30783333D01*
X77083333Y-30650000D01*
X77083333Y-30483333D01*
X77116666Y-30350000D01*
X77150000Y-30283333D01*
X77183333Y-30250000D01*
X77250000Y-30216666D01*
X111216666Y-53350000D02*
X110883333Y-53583333D01*
X111216666Y-53750000D02*
X110516666Y-53750000D01*
X110516666Y-53483333D01*
X110550000Y-53416666D01*
X110583333Y-53383333D01*
X110650000Y-53350000D01*
X110750000Y-53350000D01*
X110816666Y-53383333D01*
X110850000Y-53416666D01*
X110883333Y-53483333D01*
X110883333Y-53750000D01*
X111216666Y-52683333D02*
X111216666Y-53083333D01*
X111216666Y-52883333D02*
X110516666Y-52883333D01*
X110616666Y-52950000D01*
X110683333Y-53016666D01*
X110716666Y-53083333D01*
X110516666Y-52250000D02*
X110516666Y-52183333D01*
X110550000Y-52116666D01*
X110583333Y-52083333D01*
X110650000Y-52050000D01*
X110783333Y-52016666D01*
X110950000Y-52016666D01*
X111083333Y-52050000D01*
X111150000Y-52083333D01*
X111183333Y-52116666D01*
X111216666Y-52183333D01*
X111216666Y-52250000D01*
X111183333Y-52316666D01*
X111150000Y-52350000D01*
X111083333Y-52383333D01*
X110950000Y-52416666D01*
X110783333Y-52416666D01*
X110650000Y-52383333D01*
X110583333Y-52350000D01*
X110550000Y-52316666D01*
X110516666Y-52250000D01*
X76033333Y-28916666D02*
X75800000Y-28583333D01*
X75633333Y-28916666D02*
X75633333Y-28216666D01*
X75900000Y-28216666D01*
X75966666Y-28250000D01*
X76000000Y-28283333D01*
X76033333Y-28350000D01*
X76033333Y-28450000D01*
X76000000Y-28516666D01*
X75966666Y-28550000D01*
X75900000Y-28583333D01*
X75633333Y-28583333D01*
X76633333Y-28450000D02*
X76633333Y-28916666D01*
X76466666Y-28183333D02*
X76300000Y-28683333D01*
X76733333Y-28683333D01*
X75983333Y-27066666D02*
X75750000Y-26733333D01*
X75583333Y-27066666D02*
X75583333Y-26366666D01*
X75850000Y-26366666D01*
X75916666Y-26400000D01*
X75950000Y-26433333D01*
X75983333Y-26500000D01*
X75983333Y-26600000D01*
X75950000Y-26666666D01*
X75916666Y-26700000D01*
X75850000Y-26733333D01*
X75583333Y-26733333D01*
X76583333Y-26366666D02*
X76450000Y-26366666D01*
X76383333Y-26400000D01*
X76350000Y-26433333D01*
X76283333Y-26533333D01*
X76250000Y-26666666D01*
X76250000Y-26933333D01*
X76283333Y-27000000D01*
X76316666Y-27033333D01*
X76383333Y-27066666D01*
X76516666Y-27066666D01*
X76583333Y-27033333D01*
X76616666Y-27000000D01*
X76650000Y-26933333D01*
X76650000Y-26766666D01*
X76616666Y-26700000D01*
X76583333Y-26666666D01*
X76516666Y-26633333D01*
X76383333Y-26633333D01*
X76316666Y-26666666D01*
X76283333Y-26700000D01*
X76250000Y-26766666D01*
X56450000Y-26916666D02*
X56216666Y-26583333D01*
X56050000Y-26916666D02*
X56050000Y-26216666D01*
X56316666Y-26216666D01*
X56383333Y-26250000D01*
X56416666Y-26283333D01*
X56450000Y-26350000D01*
X56450000Y-26450000D01*
X56416666Y-26516666D01*
X56383333Y-26550000D01*
X56316666Y-26583333D01*
X56050000Y-26583333D01*
X57116666Y-26916666D02*
X56716666Y-26916666D01*
X56916666Y-26916666D02*
X56916666Y-26216666D01*
X56850000Y-26316666D01*
X56783333Y-26383333D01*
X56716666Y-26416666D01*
X57716666Y-26450000D02*
X57716666Y-26916666D01*
X57550000Y-26183333D02*
X57383333Y-26683333D01*
X57816666Y-26683333D01*
X56400000Y-25316666D02*
X56166666Y-24983333D01*
X56000000Y-25316666D02*
X56000000Y-24616666D01*
X56266666Y-24616666D01*
X56333333Y-24650000D01*
X56366666Y-24683333D01*
X56400000Y-24750000D01*
X56400000Y-24850000D01*
X56366666Y-24916666D01*
X56333333Y-24950000D01*
X56266666Y-24983333D01*
X56000000Y-24983333D01*
X57066666Y-25316666D02*
X56666666Y-25316666D01*
X56866666Y-25316666D02*
X56866666Y-24616666D01*
X56800000Y-24716666D01*
X56733333Y-24783333D01*
X56666666Y-24816666D01*
X57666666Y-24616666D02*
X57533333Y-24616666D01*
X57466666Y-24650000D01*
X57433333Y-24683333D01*
X57366666Y-24783333D01*
X57333333Y-24916666D01*
X57333333Y-25183333D01*
X57366666Y-25250000D01*
X57400000Y-25283333D01*
X57466666Y-25316666D01*
X57600000Y-25316666D01*
X57666666Y-25283333D01*
X57700000Y-25250000D01*
X57733333Y-25183333D01*
X57733333Y-25016666D01*
X57700000Y-24950000D01*
X57666666Y-24916666D01*
X57600000Y-24883333D01*
X57466666Y-24883333D01*
X57400000Y-24916666D01*
X57366666Y-24950000D01*
X57333333Y-25016666D01*
X38445666Y-51007666D02*
X39012333Y-51007666D01*
X39079000Y-50974333D01*
X39112333Y-50941000D01*
X39145666Y-50874333D01*
X39145666Y-50741000D01*
X39112333Y-50674333D01*
X39079000Y-50641000D01*
X39012333Y-50607666D01*
X38445666Y-50607666D01*
X39145666Y-49907666D02*
X39145666Y-50307666D01*
X39145666Y-50107666D02*
X38445666Y-50107666D01*
X38545666Y-50174333D01*
X38612333Y-50241000D01*
X38645666Y-50307666D01*
X39145666Y-49241000D02*
X39145666Y-49641000D01*
X39145666Y-49441000D02*
X38445666Y-49441000D01*
X38545666Y-49507666D01*
X38612333Y-49574333D01*
X38645666Y-49641000D01*
X37766666Y-42050000D02*
X37066666Y-42050000D01*
X37066666Y-41883333D01*
X37100000Y-41783333D01*
X37166666Y-41716666D01*
X37233333Y-41683333D01*
X37366666Y-41650000D01*
X37466666Y-41650000D01*
X37600000Y-41683333D01*
X37666666Y-41716666D01*
X37733333Y-41783333D01*
X37766666Y-41883333D01*
X37766666Y-42050000D01*
X37766666Y-40983333D02*
X37766666Y-41383333D01*
X37766666Y-41183333D02*
X37066666Y-41183333D01*
X37166666Y-41250000D01*
X37233333Y-41316666D01*
X37266666Y-41383333D01*
X37066666Y-40550000D02*
X37066666Y-40483333D01*
X37100000Y-40416666D01*
X37133333Y-40383333D01*
X37200000Y-40350000D01*
X37333333Y-40316666D01*
X37500000Y-40316666D01*
X37633333Y-40350000D01*
X37700000Y-40383333D01*
X37733333Y-40416666D01*
X37766666Y-40483333D01*
X37766666Y-40550000D01*
X37733333Y-40616666D01*
X37700000Y-40650000D01*
X37633333Y-40683333D01*
X37500000Y-40716666D01*
X37333333Y-40716666D01*
X37200000Y-40683333D01*
X37133333Y-40650000D01*
X37100000Y-40616666D01*
X37066666Y-40550000D01*
X38383333Y-45416666D02*
X38150000Y-45083333D01*
X37983333Y-45416666D02*
X37983333Y-44716666D01*
X38250000Y-44716666D01*
X38316666Y-44750000D01*
X38350000Y-44783333D01*
X38383333Y-44850000D01*
X38383333Y-44950000D01*
X38350000Y-45016666D01*
X38316666Y-45050000D01*
X38250000Y-45083333D01*
X37983333Y-45083333D01*
X38716666Y-45416666D02*
X38850000Y-45416666D01*
X38916666Y-45383333D01*
X38950000Y-45350000D01*
X39016666Y-45250000D01*
X39050000Y-45116666D01*
X39050000Y-44850000D01*
X39016666Y-44783333D01*
X38983333Y-44750000D01*
X38916666Y-44716666D01*
X38783333Y-44716666D01*
X38716666Y-44750000D01*
X38683333Y-44783333D01*
X38650000Y-44850000D01*
X38650000Y-45016666D01*
X38683333Y-45083333D01*
X38716666Y-45116666D01*
X38783333Y-45150000D01*
X38916666Y-45150000D01*
X38983333Y-45116666D01*
X39016666Y-45083333D01*
X39050000Y-45016666D01*
X45833333Y-39283333D02*
X45833333Y-38716666D01*
X45800000Y-38650000D01*
X45766666Y-38616666D01*
X45700000Y-38583333D01*
X45566666Y-38583333D01*
X45500000Y-38616666D01*
X45466666Y-38650000D01*
X45433333Y-38716666D01*
X45433333Y-39283333D01*
X44766666Y-39283333D02*
X45100000Y-39283333D01*
X45133333Y-38950000D01*
X45100000Y-38983333D01*
X45033333Y-39016666D01*
X44866666Y-39016666D01*
X44800000Y-38983333D01*
X44766666Y-38950000D01*
X44733333Y-38883333D01*
X44733333Y-38716666D01*
X44766666Y-38650000D01*
X44800000Y-38616666D01*
X44866666Y-38583333D01*
X45033333Y-38583333D01*
X45100000Y-38616666D01*
X45133333Y-38650000D01*
X38066666Y-26916666D02*
X38066666Y-27483333D01*
X38100000Y-27550000D01*
X38133333Y-27583333D01*
X38200000Y-27616666D01*
X38333333Y-27616666D01*
X38400000Y-27583333D01*
X38433333Y-27550000D01*
X38466666Y-27483333D01*
X38466666Y-26916666D01*
X39100000Y-27150000D02*
X39100000Y-27616666D01*
X38933333Y-26883333D02*
X38766666Y-27383333D01*
X39200000Y-27383333D01*
X37950000Y-34300000D02*
X37916666Y-34333333D01*
X37816666Y-34366666D01*
X37750000Y-34366666D01*
X37650000Y-34333333D01*
X37583333Y-34266666D01*
X37550000Y-34200000D01*
X37516666Y-34066666D01*
X37516666Y-33966666D01*
X37550000Y-33833333D01*
X37583333Y-33766666D01*
X37650000Y-33700000D01*
X37750000Y-33666666D01*
X37816666Y-33666666D01*
X37916666Y-33700000D01*
X37950000Y-33733333D01*
X38550000Y-33900000D02*
X38550000Y-34366666D01*
X38383333Y-33633333D02*
X38216666Y-34133333D01*
X38650000Y-34133333D01*
X38883333Y-33733333D02*
X38916666Y-33700000D01*
X38983333Y-33666666D01*
X39150000Y-33666666D01*
X39216666Y-33700000D01*
X39250000Y-33733333D01*
X39283333Y-33800000D01*
X39283333Y-33866666D01*
X39250000Y-33966666D01*
X38850000Y-34366666D01*
X39283333Y-34366666D01*
X32983333Y-40433333D02*
X32916666Y-40400000D01*
X32850000Y-40333333D01*
X32750000Y-40233333D01*
X32683333Y-40200000D01*
X32616666Y-40200000D01*
X32650000Y-40366666D02*
X32583333Y-40333333D01*
X32516666Y-40266666D01*
X32483333Y-40133333D01*
X32483333Y-39900000D01*
X32516666Y-39766666D01*
X32583333Y-39700000D01*
X32650000Y-39666666D01*
X32783333Y-39666666D01*
X32850000Y-39700000D01*
X32916666Y-39766666D01*
X32950000Y-39900000D01*
X32950000Y-40133333D01*
X32916666Y-40266666D01*
X32850000Y-40333333D01*
X32783333Y-40366666D01*
X32650000Y-40366666D01*
X33616666Y-40366666D02*
X33216666Y-40366666D01*
X33416666Y-40366666D02*
X33416666Y-39666666D01*
X33350000Y-39766666D01*
X33283333Y-39833333D01*
X33216666Y-39866666D01*
X88896000Y-25088000D02*
X88929333Y-25121333D01*
X88962666Y-25221333D01*
X88962666Y-25288000D01*
X88929333Y-25388000D01*
X88862666Y-25454666D01*
X88796000Y-25488000D01*
X88662666Y-25521333D01*
X88562666Y-25521333D01*
X88429333Y-25488000D01*
X88362666Y-25454666D01*
X88296000Y-25388000D01*
X88262666Y-25288000D01*
X88262666Y-25221333D01*
X88296000Y-25121333D01*
X88329333Y-25088000D01*
X88329333Y-24821333D02*
X88296000Y-24788000D01*
X88262666Y-24721333D01*
X88262666Y-24554666D01*
X88296000Y-24488000D01*
X88329333Y-24454666D01*
X88396000Y-24421333D01*
X88462666Y-24421333D01*
X88562666Y-24454666D01*
X88962666Y-24854666D01*
X88962666Y-24421333D01*
X88962666Y-23754666D02*
X88962666Y-24154666D01*
X88962666Y-23954666D02*
X88262666Y-23954666D01*
X88362666Y-24021333D01*
X88429333Y-24088000D01*
X88462666Y-24154666D01*
X84302666Y-24000666D02*
X84302666Y-24567333D01*
X84336000Y-24634000D01*
X84369333Y-24667333D01*
X84436000Y-24700666D01*
X84569333Y-24700666D01*
X84636000Y-24667333D01*
X84669333Y-24634000D01*
X84702666Y-24567333D01*
X84702666Y-24000666D01*
X84969333Y-24000666D02*
X85436000Y-24000666D01*
X85136000Y-24700666D01*
X39446666Y-24936666D02*
X39113333Y-25170000D01*
X39446666Y-25336666D02*
X38746666Y-25336666D01*
X38746666Y-25070000D01*
X38780000Y-25003333D01*
X38813333Y-24970000D01*
X38880000Y-24936666D01*
X38980000Y-24936666D01*
X39046666Y-24970000D01*
X39080000Y-25003333D01*
X39113333Y-25070000D01*
X39113333Y-25336666D01*
X38746666Y-24703333D02*
X38746666Y-24236666D01*
X39446666Y-24536666D01*
X29850000Y-37966666D02*
X29616666Y-37633333D01*
X29450000Y-37966666D02*
X29450000Y-37266666D01*
X29716666Y-37266666D01*
X29783333Y-37300000D01*
X29816666Y-37333333D01*
X29850000Y-37400000D01*
X29850000Y-37500000D01*
X29816666Y-37566666D01*
X29783333Y-37600000D01*
X29716666Y-37633333D01*
X29450000Y-37633333D01*
X30083333Y-37266666D02*
X30516666Y-37266666D01*
X30283333Y-37533333D01*
X30383333Y-37533333D01*
X30450000Y-37566666D01*
X30483333Y-37600000D01*
X30516666Y-37666666D01*
X30516666Y-37833333D01*
X30483333Y-37900000D01*
X30450000Y-37933333D01*
X30383333Y-37966666D01*
X30183333Y-37966666D01*
X30116666Y-37933333D01*
X30083333Y-37900000D01*
X31183333Y-37966666D02*
X30783333Y-37966666D01*
X30983333Y-37966666D02*
X30983333Y-37266666D01*
X30916666Y-37366666D01*
X30850000Y-37433333D01*
X30783333Y-37466666D01*
X76000000Y-23616666D02*
X75766666Y-23283333D01*
X75600000Y-23616666D02*
X75600000Y-22916666D01*
X75866666Y-22916666D01*
X75933333Y-22950000D01*
X75966666Y-22983333D01*
X76000000Y-23050000D01*
X76000000Y-23150000D01*
X75966666Y-23216666D01*
X75933333Y-23250000D01*
X75866666Y-23283333D01*
X75600000Y-23283333D01*
X76233333Y-22916666D02*
X76666666Y-22916666D01*
X76433333Y-23183333D01*
X76533333Y-23183333D01*
X76600000Y-23216666D01*
X76633333Y-23250000D01*
X76666666Y-23316666D01*
X76666666Y-23483333D01*
X76633333Y-23550000D01*
X76600000Y-23583333D01*
X76533333Y-23616666D01*
X76333333Y-23616666D01*
X76266666Y-23583333D01*
X76233333Y-23550000D01*
X76900000Y-22916666D02*
X77333333Y-22916666D01*
X77100000Y-23183333D01*
X77200000Y-23183333D01*
X77266666Y-23216666D01*
X77300000Y-23250000D01*
X77333333Y-23316666D01*
X77333333Y-23483333D01*
X77300000Y-23550000D01*
X77266666Y-23583333D01*
X77200000Y-23616666D01*
X77000000Y-23616666D01*
X76933333Y-23583333D01*
X76900000Y-23550000D01*
X80816666Y-43933333D02*
X81383333Y-43933333D01*
X81450000Y-43900000D01*
X81483333Y-43866666D01*
X81516666Y-43800000D01*
X81516666Y-43666666D01*
X81483333Y-43600000D01*
X81450000Y-43566666D01*
X81383333Y-43533333D01*
X80816666Y-43533333D01*
X81516666Y-42833333D02*
X81516666Y-43233333D01*
X81516666Y-43033333D02*
X80816666Y-43033333D01*
X80916666Y-43100000D01*
X80983333Y-43166666D01*
X81016666Y-43233333D01*
X82038000Y-25088000D02*
X82071333Y-25121333D01*
X82104666Y-25221333D01*
X82104666Y-25288000D01*
X82071333Y-25388000D01*
X82004666Y-25454666D01*
X81938000Y-25488000D01*
X81804666Y-25521333D01*
X81704666Y-25521333D01*
X81571333Y-25488000D01*
X81504666Y-25454666D01*
X81438000Y-25388000D01*
X81404666Y-25288000D01*
X81404666Y-25221333D01*
X81438000Y-25121333D01*
X81471333Y-25088000D01*
X81638000Y-24488000D02*
X82104666Y-24488000D01*
X81371333Y-24654666D02*
X81871333Y-24821333D01*
X81871333Y-24388000D01*
X82104666Y-23754666D02*
X82104666Y-24154666D01*
X82104666Y-23954666D02*
X81404666Y-23954666D01*
X81504666Y-24021333D01*
X81571333Y-24088000D01*
X81604666Y-24154666D01*
X81916666Y-31550000D02*
X81583333Y-31783333D01*
X81916666Y-31950000D02*
X81216666Y-31950000D01*
X81216666Y-31683333D01*
X81250000Y-31616666D01*
X81283333Y-31583333D01*
X81350000Y-31550000D01*
X81450000Y-31550000D01*
X81516666Y-31583333D01*
X81550000Y-31616666D01*
X81583333Y-31683333D01*
X81583333Y-31950000D01*
X81216666Y-31316666D02*
X81216666Y-30883333D01*
X81483333Y-31116666D01*
X81483333Y-31016666D01*
X81516666Y-30950000D01*
X81550000Y-30916666D01*
X81616666Y-30883333D01*
X81783333Y-30883333D01*
X81850000Y-30916666D01*
X81883333Y-30950000D01*
X81916666Y-31016666D01*
X81916666Y-31216666D01*
X81883333Y-31283333D01*
X81850000Y-31316666D01*
X81283333Y-30616666D02*
X81250000Y-30583333D01*
X81216666Y-30516666D01*
X81216666Y-30350000D01*
X81250000Y-30283333D01*
X81283333Y-30250000D01*
X81350000Y-30216666D01*
X81416666Y-30216666D01*
X81516666Y-30250000D01*
X81916666Y-30650000D01*
X81916666Y-30216666D01*
X41850000Y-43630000D02*
X41816666Y-43663333D01*
X41716666Y-43696666D01*
X41650000Y-43696666D01*
X41550000Y-43663333D01*
X41483333Y-43596666D01*
X41450000Y-43530000D01*
X41416666Y-43396666D01*
X41416666Y-43296666D01*
X41450000Y-43163333D01*
X41483333Y-43096666D01*
X41550000Y-43030000D01*
X41650000Y-42996666D01*
X41716666Y-42996666D01*
X41816666Y-43030000D01*
X41850000Y-43063333D01*
X42516666Y-43696666D02*
X42116666Y-43696666D01*
X42316666Y-43696666D02*
X42316666Y-42996666D01*
X42250000Y-43096666D01*
X42183333Y-43163333D01*
X42116666Y-43196666D01*
X42750000Y-42996666D02*
X43183333Y-42996666D01*
X42950000Y-43263333D01*
X43050000Y-43263333D01*
X43116666Y-43296666D01*
X43150000Y-43330000D01*
X43183333Y-43396666D01*
X43183333Y-43563333D01*
X43150000Y-43630000D01*
X43116666Y-43663333D01*
X43050000Y-43696666D01*
X42850000Y-43696666D01*
X42783333Y-43663333D01*
X42750000Y-43630000D01*
X30900000Y-55100000D02*
X30933333Y-55133333D01*
X30966666Y-55233333D01*
X30966666Y-55300000D01*
X30933333Y-55400000D01*
X30866666Y-55466666D01*
X30800000Y-55500000D01*
X30666666Y-55533333D01*
X30566666Y-55533333D01*
X30433333Y-55500000D01*
X30366666Y-55466666D01*
X30300000Y-55400000D01*
X30266666Y-55300000D01*
X30266666Y-55233333D01*
X30300000Y-55133333D01*
X30333333Y-55100000D01*
X30966666Y-54433333D02*
X30966666Y-54833333D01*
X30966666Y-54633333D02*
X30266666Y-54633333D01*
X30366666Y-54700000D01*
X30433333Y-54766666D01*
X30466666Y-54833333D01*
X30266666Y-53833333D02*
X30266666Y-53966666D01*
X30300000Y-54033333D01*
X30333333Y-54066666D01*
X30433333Y-54133333D01*
X30566666Y-54166666D01*
X30833333Y-54166666D01*
X30900000Y-54133333D01*
X30933333Y-54100000D01*
X30966666Y-54033333D01*
X30966666Y-53900000D01*
X30933333Y-53833333D01*
X30900000Y-53800000D01*
X30833333Y-53766666D01*
X30666666Y-53766666D01*
X30600000Y-53800000D01*
X30566666Y-53833333D01*
X30533333Y-53900000D01*
X30533333Y-54033333D01*
X30566666Y-54100000D01*
X30600000Y-54133333D01*
X30666666Y-54166666D01*
X37866666Y-38966666D02*
X37533333Y-39200000D01*
X37866666Y-39366666D02*
X37166666Y-39366666D01*
X37166666Y-39100000D01*
X37200000Y-39033333D01*
X37233333Y-39000000D01*
X37300000Y-38966666D01*
X37400000Y-38966666D01*
X37466666Y-39000000D01*
X37500000Y-39033333D01*
X37533333Y-39100000D01*
X37533333Y-39366666D01*
X37233333Y-38700000D02*
X37200000Y-38666666D01*
X37166666Y-38600000D01*
X37166666Y-38433333D01*
X37200000Y-38366666D01*
X37233333Y-38333333D01*
X37300000Y-38300000D01*
X37366666Y-38300000D01*
X37466666Y-38333333D01*
X37866666Y-38733333D01*
X37866666Y-38300000D01*
X103366666Y-36816666D02*
X103366666Y-37383333D01*
X103400000Y-37450000D01*
X103433333Y-37483333D01*
X103500000Y-37516666D01*
X103633333Y-37516666D01*
X103700000Y-37483333D01*
X103733333Y-37450000D01*
X103766666Y-37383333D01*
X103766666Y-36816666D01*
X104200000Y-37116666D02*
X104133333Y-37083333D01*
X104100000Y-37050000D01*
X104066666Y-36983333D01*
X104066666Y-36950000D01*
X104100000Y-36883333D01*
X104133333Y-36850000D01*
X104200000Y-36816666D01*
X104333333Y-36816666D01*
X104400000Y-36850000D01*
X104433333Y-36883333D01*
X104466666Y-36950000D01*
X104466666Y-36983333D01*
X104433333Y-37050000D01*
X104400000Y-37083333D01*
X104333333Y-37116666D01*
X104200000Y-37116666D01*
X104133333Y-37150000D01*
X104100000Y-37183333D01*
X104066666Y-37250000D01*
X104066666Y-37383333D01*
X104100000Y-37450000D01*
X104133333Y-37483333D01*
X104200000Y-37516666D01*
X104333333Y-37516666D01*
X104400000Y-37483333D01*
X104433333Y-37450000D01*
X104466666Y-37383333D01*
X104466666Y-37250000D01*
X104433333Y-37183333D01*
X104400000Y-37150000D01*
X104333333Y-37116666D01*
X89650000Y-28150000D02*
X89683333Y-28183333D01*
X89716666Y-28283333D01*
X89716666Y-28350000D01*
X89683333Y-28450000D01*
X89616666Y-28516666D01*
X89550000Y-28550000D01*
X89416666Y-28583333D01*
X89316666Y-28583333D01*
X89183333Y-28550000D01*
X89116666Y-28516666D01*
X89050000Y-28450000D01*
X89016666Y-28350000D01*
X89016666Y-28283333D01*
X89050000Y-28183333D01*
X89083333Y-28150000D01*
X89016666Y-27916666D02*
X89016666Y-27483333D01*
X89283333Y-27716666D01*
X89283333Y-27616666D01*
X89316666Y-27550000D01*
X89350000Y-27516666D01*
X89416666Y-27483333D01*
X89583333Y-27483333D01*
X89650000Y-27516666D01*
X89683333Y-27550000D01*
X89716666Y-27616666D01*
X89716666Y-27816666D01*
X89683333Y-27883333D01*
X89650000Y-27916666D01*
X89716666Y-27150000D02*
X89716666Y-27016666D01*
X89683333Y-26950000D01*
X89650000Y-26916666D01*
X89550000Y-26850000D01*
X89416666Y-26816666D01*
X89150000Y-26816666D01*
X89083333Y-26850000D01*
X89050000Y-26883333D01*
X89016666Y-26950000D01*
X89016666Y-27083333D01*
X89050000Y-27150000D01*
X89083333Y-27183333D01*
X89150000Y-27216666D01*
X89316666Y-27216666D01*
X89383333Y-27183333D01*
X89416666Y-27150000D01*
X89450000Y-27083333D01*
X89450000Y-26950000D01*
X89416666Y-26883333D01*
X89383333Y-26850000D01*
X89316666Y-26816666D01*
X44366666Y-20916666D02*
X44366666Y-21483333D01*
X44400000Y-21550000D01*
X44433333Y-21583333D01*
X44500000Y-21616666D01*
X44633333Y-21616666D01*
X44700000Y-21583333D01*
X44733333Y-21550000D01*
X44766666Y-21483333D01*
X44766666Y-20916666D01*
X45133333Y-21616666D02*
X45266666Y-21616666D01*
X45333333Y-21583333D01*
X45366666Y-21550000D01*
X45433333Y-21450000D01*
X45466666Y-21316666D01*
X45466666Y-21050000D01*
X45433333Y-20983333D01*
X45400000Y-20950000D01*
X45333333Y-20916666D01*
X45200000Y-20916666D01*
X45133333Y-20950000D01*
X45100000Y-20983333D01*
X45066666Y-21050000D01*
X45066666Y-21216666D01*
X45100000Y-21283333D01*
X45133333Y-21316666D01*
X45200000Y-21350000D01*
X45333333Y-21350000D01*
X45400000Y-21316666D01*
X45433333Y-21283333D01*
X45466666Y-21216666D01*
X34401666Y-30533333D02*
X34901666Y-30533333D01*
X35001666Y-30566666D01*
X35068333Y-30633333D01*
X35101666Y-30733333D01*
X35101666Y-30800000D01*
X35101666Y-29833333D02*
X35101666Y-30233333D01*
X35101666Y-30033333D02*
X34401666Y-30033333D01*
X34501666Y-30100000D01*
X34568333Y-30166666D01*
X34601666Y-30233333D01*
X41750000Y-34470000D02*
X41716666Y-34503333D01*
X41616666Y-34536666D01*
X41550000Y-34536666D01*
X41450000Y-34503333D01*
X41383333Y-34436666D01*
X41350000Y-34370000D01*
X41316666Y-34236666D01*
X41316666Y-34136666D01*
X41350000Y-34003333D01*
X41383333Y-33936666D01*
X41450000Y-33870000D01*
X41550000Y-33836666D01*
X41616666Y-33836666D01*
X41716666Y-33870000D01*
X41750000Y-33903333D01*
X42416666Y-34536666D02*
X42016666Y-34536666D01*
X42216666Y-34536666D02*
X42216666Y-33836666D01*
X42150000Y-33936666D01*
X42083333Y-34003333D01*
X42016666Y-34036666D01*
X43016666Y-34070000D02*
X43016666Y-34536666D01*
X42850000Y-33803333D02*
X42683333Y-34303333D01*
X43116666Y-34303333D01*
X28616666Y-40016666D02*
X27916666Y-40016666D01*
X27916666Y-39850000D01*
X27950000Y-39750000D01*
X28016666Y-39683333D01*
X28083333Y-39650000D01*
X28216666Y-39616666D01*
X28316666Y-39616666D01*
X28450000Y-39650000D01*
X28516666Y-39683333D01*
X28583333Y-39750000D01*
X28616666Y-39850000D01*
X28616666Y-40016666D01*
X27916666Y-39383333D02*
X27916666Y-38916666D01*
X28616666Y-39216666D01*
X84756666Y-21065333D02*
X84756666Y-21398666D01*
X84523333Y-20698666D02*
X84756666Y-21065333D01*
X84990000Y-20698666D01*
X85590000Y-21398666D02*
X85190000Y-21398666D01*
X85390000Y-21398666D02*
X85390000Y-20698666D01*
X85323333Y-20798666D01*
X85256666Y-20865333D01*
X85190000Y-20898666D01*
X73662742Y-25622500D02*
X74137258Y-25622500D01*
X73662742Y-24577500D02*
X74137258Y-24577500D01*
X53380000Y-21465000D02*
X52450000Y-21465000D01*
X50220000Y-21465000D02*
X51150000Y-21465000D01*
X53380000Y-21465000D02*
X53380000Y-22925000D01*
X50220000Y-21465000D02*
X50220000Y-23625000D01*
X51422500Y-25487742D02*
X51422500Y-25962258D01*
X50377500Y-25487742D02*
X50377500Y-25962258D01*
X53022500Y-25962258D02*
X53022500Y-25487742D01*
X51977500Y-25962258D02*
X51977500Y-25487742D01*
X53280000Y-29960000D02*
X53280000Y-27800000D01*
X50120000Y-29960000D02*
X51050000Y-29960000D01*
X50120000Y-29960000D02*
X50120000Y-28500000D01*
X53280000Y-29960000D02*
X52350000Y-29960000D01*
X79011252Y-46065000D02*
X78488748Y-46065000D01*
X79011252Y-47535000D02*
X78488748Y-47535000D01*
X33865000Y-56488748D02*
X33865000Y-57011252D01*
X35335000Y-56488748D02*
X35335000Y-57011252D01*
X38498000Y-58914500D02*
X38498000Y-61599500D01*
X40418000Y-61599500D02*
X40418000Y-58914500D01*
X40418000Y-58914500D02*
X38498000Y-58914500D01*
X36627500Y-56762742D02*
X36627500Y-57237258D01*
X37672500Y-56762742D02*
X37672500Y-57237258D01*
X39980500Y-56762742D02*
X39980500Y-57237258D01*
X38935500Y-56762742D02*
X38935500Y-57237258D01*
X38005000Y-61599500D02*
X38005000Y-58914500D01*
X36085000Y-58914500D02*
X36085000Y-61599500D01*
X38005000Y-58914500D02*
X36085000Y-58914500D01*
X112465000Y-60161252D02*
X112465000Y-59638748D01*
X113935000Y-60161252D02*
X113935000Y-59638748D01*
X35335000Y-60811252D02*
X35335000Y-60288748D01*
X33865000Y-60811252D02*
X33865000Y-60288748D01*
X73921252Y-52805000D02*
X73398748Y-52805000D01*
X73921252Y-51335000D02*
X73398748Y-51335000D01*
X117565000Y-55038748D02*
X117565000Y-55561252D01*
X119035000Y-55038748D02*
X119035000Y-55561252D01*
X117936252Y-62090000D02*
X116513748Y-62090000D01*
X117936252Y-63910000D02*
X116513748Y-63910000D01*
X122385748Y-20295000D02*
X122908252Y-20295000D01*
X122385748Y-21765000D02*
X122908252Y-21765000D01*
X121288748Y-56410000D02*
X122711252Y-56410000D01*
X121288748Y-54590000D02*
X122711252Y-54590000D01*
X122388748Y-25692000D02*
X122911252Y-25692000D01*
X122388748Y-24222000D02*
X122911252Y-24222000D01*
X59637258Y-23922500D02*
X59162742Y-23922500D01*
X59637258Y-22877500D02*
X59162742Y-22877500D01*
X72603700Y-56083858D02*
X72603700Y-55609342D01*
X71558700Y-56083858D02*
X71558700Y-55609342D01*
X117462258Y-61522500D02*
X116987742Y-61522500D01*
X117462258Y-60477500D02*
X116987742Y-60477500D01*
X122587742Y-18577500D02*
X123062258Y-18577500D01*
X122587742Y-19622500D02*
X123062258Y-19622500D01*
X121062742Y-58222500D02*
X121537258Y-58222500D01*
X121062742Y-57177500D02*
X121537258Y-57177500D01*
X122662742Y-23447500D02*
X123137258Y-23447500D01*
X122662742Y-22402500D02*
X123137258Y-22402500D01*
X74635700Y-55609342D02*
X74635700Y-56083858D01*
X73590700Y-55609342D02*
X73590700Y-56083858D01*
X70685000Y-25962500D02*
X70685000Y-22362500D01*
X62615000Y-25962500D02*
X62615000Y-28162500D01*
X62615000Y-25962500D02*
X62615000Y-23762500D01*
X70685000Y-25962500D02*
X70685000Y-28162500D01*
X71855000Y-37584748D02*
X71855000Y-38107252D01*
X70385000Y-37584748D02*
X70385000Y-38107252D01*
X113990000Y-57660000D02*
X117010000Y-57660000D01*
X113990000Y-53450000D02*
X113990000Y-57660000D01*
X117010000Y-57660000D02*
X117010000Y-53450000D01*
X73398748Y-39905000D02*
X73921252Y-39905000D01*
X73398748Y-41375000D02*
X73921252Y-41375000D01*
X53069258Y-45959500D02*
X52594742Y-45959500D01*
X53069258Y-47004500D02*
X52594742Y-47004500D01*
X62806000Y-58753000D02*
X62806000Y-52753000D01*
X58606000Y-58753000D02*
X58606000Y-52753000D01*
X55108000Y-40534000D02*
X55108000Y-33634000D01*
X60208000Y-40534000D02*
X60208000Y-33634000D01*
X49767258Y-49290500D02*
X49292742Y-49290500D01*
X49767258Y-48245500D02*
X49292742Y-48245500D01*
X53069258Y-49290500D02*
X52594742Y-49290500D01*
X53069258Y-48245500D02*
X52594742Y-48245500D01*
X49767258Y-47004500D02*
X49292742Y-47004500D01*
X49767258Y-45959500D02*
X49292742Y-45959500D01*
X63527000Y-59570252D02*
X63527000Y-59047748D01*
X64997000Y-59570252D02*
X64997000Y-59047748D01*
X68353000Y-54617252D02*
X68353000Y-54094748D01*
X69823000Y-54617252D02*
X69823000Y-54094748D01*
X56649252Y-44731000D02*
X56126748Y-44731000D01*
X56649252Y-46201000D02*
X56126748Y-46201000D01*
X56126748Y-48995000D02*
X56649252Y-48995000D01*
X56126748Y-47525000D02*
X56649252Y-47525000D01*
X113435000Y-55138748D02*
X113435000Y-55661252D01*
X111965000Y-55138748D02*
X111965000Y-55661252D01*
D14*
X68353000Y-42899000D02*
X67656741Y-42899000D01*
X61695000Y-48860741D02*
X61695000Y-49557000D01*
X61695000Y-42899000D02*
X61695000Y-43595259D01*
X63833499Y-49882001D02*
X64214499Y-49882001D01*
X68678001Y-45018500D02*
X68932001Y-45018500D01*
X64214499Y-49882001D02*
X64214499Y-50136001D01*
X61115999Y-46218500D02*
X61115999Y-45837500D01*
X63833499Y-50136001D02*
X63833499Y-49882001D01*
X64214499Y-50136001D02*
X63833499Y-50136001D01*
X64614501Y-42573999D02*
X64614501Y-42319999D01*
X68932001Y-45018500D02*
X68932001Y-44637500D01*
X62391259Y-42899000D02*
X61695000Y-42899000D01*
X64614501Y-42319999D02*
X64233501Y-42319999D01*
X68678001Y-44637500D02*
X68678001Y-45018500D01*
X68353000Y-43595259D02*
X68353000Y-42899000D01*
X61695000Y-49557000D02*
X62391259Y-49557000D01*
X61369999Y-45837500D02*
X61369999Y-46218500D01*
X68932001Y-44637500D02*
X68678001Y-44637500D01*
X67656741Y-49557000D02*
X68353000Y-49557000D01*
X68353000Y-49557000D02*
X68353000Y-48860741D01*
X64233501Y-42319999D02*
X64233501Y-42573999D01*
X61369999Y-46218500D02*
X61115999Y-46218500D01*
X61115999Y-45837500D02*
X61369999Y-45837500D01*
X64233501Y-42573999D02*
X64614501Y-42573999D01*
D10*
X73921252Y-50519000D02*
X73398748Y-50519000D01*
X73921252Y-49049000D02*
X73398748Y-49049000D01*
X62457000Y-39123252D02*
X62457000Y-38600748D01*
X60987000Y-39123252D02*
X60987000Y-38600748D01*
X73921252Y-43661000D02*
X73398748Y-43661000D01*
X73921252Y-42191000D02*
X73398748Y-42191000D01*
X51800000Y-50074000D02*
X51800000Y-53974000D01*
X49800000Y-50074000D02*
X49800000Y-53974000D01*
X51800000Y-50074000D02*
X49800000Y-50074000D01*
X52340000Y-54574000D02*
X52340000Y-50674000D01*
X52340000Y-54574000D02*
X54340000Y-54574000D01*
X54340000Y-54574000D02*
X54340000Y-50674000D01*
X49800000Y-40930000D02*
X49800000Y-44830000D01*
X51800000Y-40930000D02*
X49800000Y-40930000D01*
X51800000Y-40930000D02*
X51800000Y-44830000D01*
X52340000Y-45430000D02*
X54340000Y-45430000D01*
X54340000Y-45430000D02*
X54340000Y-41530000D01*
X52340000Y-45430000D02*
X52340000Y-41530000D01*
X47236748Y-45185000D02*
X47759252Y-45185000D01*
X47236748Y-43715000D02*
X47759252Y-43715000D01*
X65813000Y-38107252D02*
X65813000Y-37584748D01*
X67283000Y-38107252D02*
X67283000Y-37584748D01*
X73398748Y-48233000D02*
X73921252Y-48233000D01*
X73398748Y-46763000D02*
X73921252Y-46763000D01*
X56126748Y-43788000D02*
X56649252Y-43788000D01*
X56126748Y-42318000D02*
X56649252Y-42318000D01*
X68099000Y-38107252D02*
X68099000Y-37584748D01*
X69569000Y-38107252D02*
X69569000Y-37584748D01*
X56126748Y-51408000D02*
X56649252Y-51408000D01*
X56126748Y-49938000D02*
X56649252Y-49938000D01*
X47759252Y-51535000D02*
X47236748Y-51535000D01*
X47759252Y-50065000D02*
X47236748Y-50065000D01*
X73921252Y-45959700D02*
X73398748Y-45959700D01*
X73921252Y-44489700D02*
X73398748Y-44489700D01*
X66194000Y-54617252D02*
X66194000Y-54094748D01*
X67664000Y-54617252D02*
X67664000Y-54094748D01*
X65389000Y-57241000D02*
X65389000Y-53341000D01*
X63389000Y-57241000D02*
X63389000Y-53341000D01*
X63389000Y-57241000D02*
X65389000Y-57241000D01*
X78538748Y-40635000D02*
X79061252Y-40635000D01*
X78538748Y-39165000D02*
X79061252Y-39165000D01*
X122338748Y-17956000D02*
X122861252Y-17956000D01*
X122338748Y-16486000D02*
X122861252Y-16486000D01*
X122587742Y-14798500D02*
X123062258Y-14798500D01*
X122587742Y-15843500D02*
X123062258Y-15843500D01*
X65262000Y-35088000D02*
X65262000Y-38988000D01*
X65262000Y-35088000D02*
X63262000Y-35088000D01*
X63262000Y-35088000D02*
X63262000Y-38988000D01*
X33143500Y-60262742D02*
X33143500Y-60737258D01*
X32098500Y-60262742D02*
X32098500Y-60737258D01*
X33143500Y-56988742D02*
X33143500Y-57463258D01*
X32098500Y-56988742D02*
X32098500Y-57463258D01*
X51015000Y-35738748D02*
X51015000Y-36261252D01*
X52485000Y-35738748D02*
X52485000Y-36261252D01*
X57377000Y-54617252D02*
X57377000Y-54094748D01*
X55907000Y-54617252D02*
X55907000Y-54094748D01*
X53450000Y-60500000D02*
G75*
G03*
X53450000Y-60500000I-1450000J0D01*
G01*
X45450000Y-60500000D02*
G75*
G03*
X45450000Y-60500000I-1450000J0D01*
G01*
X57450000Y-60500000D02*
G75*
G03*
X57450000Y-60500000I-1450000J0D01*
G01*
X71450000Y-60500000D02*
G75*
G03*
X71450000Y-60500000I-1450000J0D01*
G01*
X73638748Y-31335000D02*
X74161252Y-31335000D01*
X73638748Y-29865000D02*
X74161252Y-29865000D01*
X111222500Y-55362742D02*
X111222500Y-55837258D01*
X110177500Y-55362742D02*
X110177500Y-55837258D01*
X74137258Y-29122500D02*
X73662742Y-29122500D01*
X74137258Y-28077500D02*
X73662742Y-28077500D01*
X74137258Y-26277500D02*
X73662742Y-26277500D01*
X74137258Y-27322500D02*
X73662742Y-27322500D01*
X59162742Y-26077500D02*
X59637258Y-26077500D01*
X59162742Y-27122500D02*
X59637258Y-27122500D01*
X59162742Y-25522500D02*
X59637258Y-25522500D01*
X59162742Y-24477500D02*
X59637258Y-24477500D01*
X49450000Y-60500000D02*
G75*
G03*
X49450000Y-60500000I-1450000J0D01*
G01*
D13*
X37975000Y-52216000D02*
X37775000Y-52216000D01*
X32825000Y-52216000D02*
X33025000Y-52216000D01*
X37775000Y-48066000D02*
X37775000Y-46766000D01*
X32825000Y-48066000D02*
X33025000Y-48066000D01*
X32825000Y-48066000D02*
X32825000Y-52216000D01*
X37975000Y-48066000D02*
X37975000Y-52216000D01*
X37975000Y-48066000D02*
X37775000Y-48066000D01*
D10*
X34700000Y-43450000D02*
X34700000Y-39550000D01*
X34700000Y-43450000D02*
X36700000Y-43450000D01*
X36700000Y-43450000D02*
X36700000Y-39550000D01*
X36587258Y-44627500D02*
X36112742Y-44627500D01*
X36587258Y-45672500D02*
X36112742Y-45672500D01*
X26020000Y-47945000D02*
X27350000Y-47945000D01*
X26020000Y-49275000D02*
X26020000Y-47945000D01*
X28680000Y-50545000D02*
X28680000Y-53145000D01*
X26020000Y-53145000D02*
X28680000Y-53145000D01*
X26020000Y-50545000D02*
X28680000Y-50545000D01*
X26020000Y-50545000D02*
X26020000Y-53145000D01*
X42200000Y-40360000D02*
X41400000Y-40360000D01*
X42200000Y-37240000D02*
X41400000Y-37240000D01*
X42200000Y-40360000D02*
X44000000Y-40360000D01*
X42200000Y-37240000D02*
X43000000Y-37240000D01*
X39200000Y-28100000D02*
X37300000Y-28100000D01*
X37600000Y-29900000D02*
X39200000Y-29900000D01*
X114150000Y-49360000D02*
X112950000Y-49360000D01*
X114150000Y-27550000D02*
X115490000Y-27550000D01*
X114150000Y-49360000D02*
X114150000Y-50850000D01*
X114150000Y-50850000D02*
X115490000Y-50850000D01*
X114150000Y-29040000D02*
X114150000Y-27550000D01*
X38138748Y-33235000D02*
X38661252Y-33235000D01*
X38138748Y-31765000D02*
X38661252Y-31765000D01*
X115000000Y-20080000D02*
X117910000Y-20080000D01*
X115000000Y-23770000D02*
X98000000Y-23770000D01*
X117910000Y-20080000D02*
X117910000Y-23240000D01*
X98000000Y-23770000D02*
X98000000Y-20080000D01*
X95090000Y-20080000D02*
X95090000Y-23240000D01*
X98000000Y-20080000D02*
X95090000Y-20080000D01*
X95090000Y-23240000D02*
X98000000Y-23240000D01*
X115000000Y-23240000D02*
X115000000Y-25430000D01*
X115000000Y-25430000D02*
X98000000Y-25430000D01*
X117910000Y-23240000D02*
X115000000Y-23240000D01*
X98000000Y-23240000D02*
X98000000Y-25430000D01*
X115000000Y-23770000D02*
X115000000Y-20080000D01*
X31950000Y-40890000D02*
X32600000Y-40890000D01*
X31950000Y-44010000D02*
X32600000Y-44010000D01*
X31950000Y-40890000D02*
X30275000Y-40890000D01*
X31950000Y-44010000D02*
X31300000Y-44010000D01*
X79772000Y-56772000D02*
X79772000Y-53972000D01*
X79772000Y-53972000D02*
X81772000Y-53972000D01*
X81772000Y-53972000D02*
X81772000Y-56772000D01*
X81772000Y-56772000D02*
X79772000Y-56772000D01*
X89035000Y-21738748D02*
X89035000Y-22261252D01*
X87565000Y-21738748D02*
X87565000Y-22261252D01*
X28430000Y-20375000D02*
X28430000Y-21705000D01*
X28430000Y-16505000D02*
X25770000Y-16505000D01*
X28430000Y-21705000D02*
X27100000Y-21705000D01*
X28430000Y-19105000D02*
X28430000Y-16505000D01*
X25770000Y-19105000D02*
X25770000Y-16505000D01*
X28430000Y-19105000D02*
X25770000Y-19105000D01*
X82590000Y-28600000D02*
X82590000Y-26650000D01*
X87710000Y-28600000D02*
X87710000Y-30550000D01*
X87710000Y-28600000D02*
X87710000Y-25150000D01*
X82590000Y-28600000D02*
X82590000Y-30550000D01*
X37077500Y-25237258D02*
X37077500Y-24762742D01*
X38122500Y-25237258D02*
X38122500Y-24762742D01*
X30487258Y-38377500D02*
X30012742Y-38377500D01*
X30487258Y-39422500D02*
X30012742Y-39422500D01*
X74137258Y-22827500D02*
X73662742Y-22827500D01*
X74137258Y-23872500D02*
X73662742Y-23872500D01*
X77240000Y-43400000D02*
X77240000Y-44200000D01*
X80360000Y-43400000D02*
X80360000Y-41600000D01*
X80360000Y-43400000D02*
X80360000Y-44200000D01*
X77240000Y-43400000D02*
X77240000Y-42600000D01*
D14*
X96678100Y-11936090D02*
X96678100Y-14892650D01*
X96678100Y-14892650D02*
X98340258Y-14892650D01*
X115259739Y-14892650D02*
X116921900Y-14892650D01*
X116921900Y-14892650D02*
X116921900Y-11936090D01*
X115401109Y-9736450D02*
X98198891Y-9736450D01*
D10*
X81065000Y-21738748D02*
X81065000Y-22261252D01*
X82535000Y-21738748D02*
X82535000Y-22261252D01*
X82022500Y-28237742D02*
X82022500Y-28712258D01*
X80977500Y-28237742D02*
X80977500Y-28712258D01*
X42561252Y-42435000D02*
X42038748Y-42435000D01*
X42561252Y-40965000D02*
X42038748Y-40965000D01*
X29865000Y-57711252D02*
X29865000Y-57188748D01*
X31335000Y-57711252D02*
X31335000Y-57188748D01*
X83500000Y-49600000D02*
X83500000Y-52400000D01*
X81500000Y-52400000D02*
X81500000Y-49600000D01*
X81500000Y-49600000D02*
X83500000Y-49600000D01*
X83500000Y-52400000D02*
X81500000Y-52400000D01*
X124266000Y-49530000D02*
X121606000Y-49530000D01*
X121606000Y-49530000D02*
X121606000Y-26610000D01*
X124266000Y-26610000D02*
X121606000Y-26610000D01*
X124266000Y-49530000D02*
X124266000Y-26610000D01*
X124266000Y-52130000D02*
X122936000Y-52130000D01*
X124266000Y-50800000D02*
X124266000Y-52130000D01*
X38122500Y-36062742D02*
X38122500Y-36537258D01*
X37077500Y-36062742D02*
X37077500Y-36537258D01*
X67270000Y-12630000D02*
X67270000Y-9970000D01*
X64670000Y-12630000D02*
X64670000Y-11300000D01*
X67270000Y-12630000D02*
X95270000Y-12630000D01*
X67270000Y-9970000D02*
X95270000Y-9970000D01*
X66000000Y-12630000D02*
X64670000Y-12630000D01*
X95270000Y-12630000D02*
X95270000Y-9970000D01*
X87725000Y-39450000D02*
X87725000Y-38700000D01*
X105725000Y-38700000D02*
X104725000Y-38700000D01*
X87725000Y-38700000D02*
X88725000Y-38700000D01*
X105725000Y-39450000D02*
X105725000Y-38700000D01*
X63685000Y-12630000D02*
X63685000Y-9970000D01*
X33145000Y-12630000D02*
X33145000Y-9970000D01*
X33145000Y-12630000D02*
X63685000Y-12630000D01*
X30545000Y-12630000D02*
X30545000Y-11300000D01*
X33145000Y-9970000D02*
X63685000Y-9970000D01*
X31875000Y-12630000D02*
X30545000Y-12630000D01*
X90135000Y-30138748D02*
X90135000Y-30661252D01*
X88665000Y-30138748D02*
X88665000Y-30661252D01*
X44900000Y-22140000D02*
X46850000Y-22140000D01*
X44900000Y-32260000D02*
X46850000Y-32260000D01*
X44900000Y-22140000D02*
X41450000Y-22140000D01*
X44900000Y-32260000D02*
X42950000Y-32260000D01*
X25240000Y-25600000D02*
X25240000Y-35000000D01*
X31040000Y-25600000D02*
X29040000Y-25600000D01*
X27140000Y-25600000D02*
X25240000Y-25600000D01*
X31040000Y-35000000D02*
X29040000Y-35000000D01*
X27140000Y-35000000D02*
X25240000Y-35000000D01*
X41938748Y-35165000D02*
X42461252Y-35165000D01*
X41938748Y-36635000D02*
X42461252Y-36635000D01*
X29500000Y-44850000D02*
X29500000Y-40950000D01*
X27500000Y-44850000D02*
X27500000Y-40950000D01*
X27500000Y-44850000D02*
X29500000Y-44850000D01*
X84375000Y-23425000D02*
X85725000Y-23425000D01*
X84375000Y-21675000D02*
X85725000Y-21675000D01*
%LPC*%
D14*
X62524038Y-48178037D02*
X62524038Y-47877961D01*
X61573961Y-44978038D02*
X62524038Y-44978038D01*
X66273962Y-49678039D02*
X66574038Y-49678039D01*
X62974037Y-49678039D02*
X62974037Y-48727962D01*
X63073963Y-42777961D02*
X63073963Y-43728038D01*
X65374037Y-48727962D02*
X65073962Y-48727962D01*
X68474039Y-45778039D02*
X68474039Y-45477963D01*
X62760501Y-46028000D02*
X62760501Y-45640600D01*
X67073963Y-48727962D02*
X67073963Y-49678039D01*
X67287499Y-48491499D02*
X66798800Y-48491499D01*
X63473962Y-43728038D02*
X63774038Y-43728038D01*
X62974037Y-42777961D02*
X62673962Y-42777961D01*
X64673963Y-48727962D02*
X64673963Y-49678039D01*
X66174038Y-48727962D02*
X65873963Y-48727962D01*
X67523962Y-47077963D02*
X67523962Y-47378038D01*
X64974038Y-49678039D02*
X64974038Y-48727962D01*
X67523962Y-48277963D02*
X67523962Y-48578038D01*
X65374037Y-42777961D02*
X65073962Y-42777961D01*
X66974037Y-43728038D02*
X66974037Y-42777961D01*
X65611400Y-48491499D02*
X65611400Y-43964501D01*
X68474039Y-47877961D02*
X67523962Y-47877961D01*
X63774038Y-49678039D02*
X63774038Y-48727962D01*
X67523962Y-46277962D02*
X67523962Y-46578037D01*
X67523962Y-44578039D02*
X68474039Y-44578039D01*
X62524038Y-44677962D02*
X61573961Y-44677962D01*
X65873963Y-43728038D02*
X66174038Y-43728038D01*
X62760501Y-48002800D02*
X67287499Y-48002800D01*
X61573961Y-47477962D02*
X61573961Y-47778038D01*
X61573961Y-47077963D02*
X61573961Y-47378038D01*
X61573961Y-46277962D02*
X61573961Y-46578037D01*
X66273962Y-42777961D02*
X66273962Y-43728038D01*
X65073962Y-48727962D02*
X65073962Y-49678039D01*
X68474039Y-44277963D02*
X67523962Y-44277963D01*
X64436600Y-48491499D02*
X64824000Y-48491499D01*
X63249200Y-43964501D02*
X63249200Y-48491499D01*
X61573961Y-44178037D02*
X62524038Y-44178037D01*
X62524038Y-45077962D02*
X61573961Y-45077962D01*
X66798800Y-43964501D02*
X67287499Y-43964501D01*
X66673961Y-42777961D02*
X66673961Y-43728038D01*
X61573961Y-44578039D02*
X62524038Y-44578039D01*
X67287499Y-43964501D02*
X67287499Y-48491499D01*
X68474039Y-46277962D02*
X67523962Y-46277962D01*
X68474039Y-47378038D02*
X68474039Y-47077963D01*
X64673963Y-49678039D02*
X64974038Y-49678039D01*
X68474039Y-46978039D02*
X68474039Y-46677961D01*
X62524038Y-44978038D02*
X62524038Y-44677962D01*
X64273961Y-48727962D02*
X64273961Y-49678039D01*
X62524038Y-45877963D02*
X61573961Y-45877963D01*
X67523962Y-47477962D02*
X67523962Y-47778038D01*
X67287499Y-48002800D02*
X67287499Y-48491499D01*
X62760501Y-46428000D02*
X67287499Y-46428000D01*
X62974037Y-48727962D02*
X62673962Y-48727962D01*
X62524038Y-45477961D02*
X61573961Y-45477961D01*
X63774038Y-42777961D02*
X63473962Y-42777961D01*
X67523962Y-43877962D02*
X67523962Y-44178037D01*
X66974037Y-49678039D02*
X66974037Y-48727962D01*
X61573961Y-46578037D02*
X62524038Y-46578037D01*
X66398800Y-48491499D02*
X66398800Y-43964501D01*
X67374038Y-43728038D02*
X67374038Y-42777961D01*
X64824000Y-43964501D02*
X64436600Y-43964501D01*
X68474039Y-46578037D02*
X68474039Y-46277962D01*
X62524038Y-44578039D02*
X62524038Y-44277963D01*
X65873963Y-49678039D02*
X66174038Y-49678039D01*
X63774038Y-43728038D02*
X63774038Y-42777961D01*
X61573961Y-47877961D02*
X61573961Y-48178037D01*
X62524038Y-47778038D02*
X62524038Y-47477962D01*
X62760501Y-47215400D02*
X67287499Y-47215400D01*
X61573961Y-44677962D02*
X61573961Y-44978038D01*
X67374038Y-49678039D02*
X67374038Y-48727962D01*
X68474039Y-47778038D02*
X68474039Y-47477962D01*
X63473962Y-42777961D02*
X63473962Y-43728038D01*
X62524038Y-46978037D02*
X62524038Y-46677961D01*
X66673961Y-43728038D02*
X66974037Y-43728038D01*
X68474039Y-45077962D02*
X67523962Y-45077962D01*
X65073962Y-49678039D02*
X65374037Y-49678039D01*
X65224000Y-43964501D02*
X65224000Y-48491499D01*
X64273963Y-42777961D02*
X64273963Y-43728038D01*
X62760501Y-45240600D02*
X62760501Y-44853200D01*
X63374039Y-48727962D02*
X63073963Y-48727962D01*
X63873962Y-49678039D02*
X64174037Y-49678039D01*
X67523962Y-47778038D02*
X68474039Y-47778038D01*
X63073963Y-43728038D02*
X63374039Y-43728038D01*
X66673961Y-48727962D02*
X66673961Y-49678039D01*
X63774038Y-48727962D02*
X63473962Y-48727962D01*
X63873962Y-48727962D02*
X63873962Y-49678039D01*
X66174038Y-49678039D02*
X66174038Y-48727962D01*
X67073963Y-42777961D02*
X67073963Y-43728038D01*
X67523962Y-45778039D02*
X68474039Y-45778039D01*
X66174038Y-42777961D02*
X65873963Y-42777961D01*
X65473961Y-43728038D02*
X65774039Y-43728038D01*
X62673962Y-48727962D02*
X62673962Y-49678039D01*
X61573961Y-45477961D02*
X61573961Y-45778039D01*
X66574038Y-49678039D02*
X66574038Y-48727962D01*
X65774039Y-42777961D02*
X65473961Y-42777961D01*
X61573961Y-48277963D02*
X61573961Y-48578038D01*
X68474039Y-44978038D02*
X68474039Y-44677962D01*
X61573961Y-46178038D02*
X62524038Y-46178038D01*
X67073963Y-43728038D02*
X67374038Y-43728038D01*
X64174037Y-49678039D02*
X64174037Y-48727962D01*
X67523962Y-45378037D02*
X68474039Y-45378037D01*
X61573961Y-43877962D02*
X61573961Y-44178037D01*
X66174038Y-43728038D02*
X66174038Y-42777961D01*
X67523962Y-46178038D02*
X68474039Y-46178038D01*
X67523962Y-44277963D02*
X67523962Y-44578039D01*
X67523962Y-48178037D02*
X68474039Y-48178037D01*
X62673962Y-49678039D02*
X62974037Y-49678039D01*
X66798800Y-48491499D02*
X66798800Y-43964501D01*
X67523962Y-47877961D02*
X67523962Y-48178037D01*
X66974037Y-48727962D02*
X66673961Y-48727962D01*
X66011400Y-48491499D02*
X66398800Y-48491499D01*
X64174037Y-48727962D02*
X63873962Y-48727962D01*
X67287499Y-46428000D02*
X67287499Y-46815400D01*
X62974037Y-43728038D02*
X62974037Y-42777961D01*
X63249200Y-48491499D02*
X62760501Y-48491499D01*
X66011400Y-43964501D02*
X66011400Y-48491499D01*
X62760501Y-46815400D02*
X62760501Y-46428000D01*
X64036600Y-48491499D02*
X64036600Y-43964501D01*
X62524038Y-46677961D02*
X61573961Y-46677961D01*
X67287499Y-45240600D02*
X62760501Y-45240600D01*
X65774037Y-49678039D02*
X65774037Y-48727962D01*
X64673963Y-43728038D02*
X64974038Y-43728038D01*
X63374039Y-49678039D02*
X63374039Y-48727962D01*
X64673963Y-42777961D02*
X64673963Y-43728038D01*
X64273963Y-43728038D02*
X64574039Y-43728038D01*
X66398800Y-43964501D02*
X66011400Y-43964501D01*
X63073963Y-49678039D02*
X63374039Y-49678039D01*
X67287499Y-46028000D02*
X62760501Y-46028000D01*
X62673962Y-43728038D02*
X62974037Y-43728038D01*
X61573961Y-48578038D02*
X62524038Y-48578038D01*
X61573961Y-46677961D02*
X61573961Y-46978037D01*
X65774039Y-43728038D02*
X65774039Y-42777961D01*
X68474039Y-44677962D02*
X67523962Y-44677962D01*
X62524038Y-43877962D02*
X61573961Y-43877962D01*
X65073962Y-42777961D02*
X65073962Y-43728038D01*
X68474039Y-45477963D02*
X67523962Y-45477963D01*
X61573961Y-46978037D02*
X62524038Y-46978037D01*
X66273962Y-43728038D02*
X66574038Y-43728038D01*
X65374037Y-43728038D02*
X65374037Y-42777961D01*
X67374038Y-42777961D02*
X67073963Y-42777961D01*
X62524038Y-48277963D02*
X61573961Y-48277963D01*
X67523962Y-44677962D02*
X67523962Y-44978038D01*
X67523962Y-47378038D02*
X68474039Y-47378038D01*
X62760501Y-45640600D02*
X67287499Y-45640600D01*
X63649200Y-43964501D02*
X63649200Y-48491499D01*
X62524038Y-46277962D02*
X61573961Y-46277962D01*
X65073962Y-43728038D02*
X65374037Y-43728038D01*
X67287499Y-43964501D02*
X67287499Y-44453200D01*
X61573961Y-45877963D02*
X61573961Y-46178038D01*
X67523962Y-46677961D02*
X67523962Y-46978039D01*
X62760501Y-44453200D02*
X62760501Y-43964501D01*
X63873962Y-42777961D02*
X63873962Y-43728038D01*
X68474039Y-44578039D02*
X68474039Y-44277963D01*
X65473961Y-49678039D02*
X65774037Y-49678039D01*
X63374039Y-42777961D02*
X63073963Y-42777961D01*
X62524038Y-47477962D02*
X61573961Y-47477962D01*
X68474039Y-45877963D02*
X67523962Y-45877963D01*
X67523962Y-45477963D02*
X67523962Y-45778039D01*
X67287499Y-45640600D02*
X67287499Y-46028000D01*
X64574039Y-42777961D02*
X64273963Y-42777961D01*
X63374039Y-43728038D02*
X63374039Y-42777961D01*
X61573961Y-48178037D02*
X62524038Y-48178037D01*
X62524038Y-46178038D02*
X62524038Y-45877963D01*
X67287499Y-44453200D02*
X62760501Y-44453200D01*
X64174037Y-42777961D02*
X63873962Y-42777961D01*
X67523962Y-45877963D02*
X67523962Y-46178038D01*
X62524038Y-44277963D02*
X61573961Y-44277963D01*
X68474039Y-48178037D02*
X68474039Y-47877961D01*
X61573961Y-45778039D02*
X62524038Y-45778039D01*
X61573961Y-45077962D02*
X61573961Y-45378037D01*
X64036600Y-43964501D02*
X63649200Y-43964501D01*
X67523962Y-48578038D02*
X68474039Y-48578038D01*
X67287499Y-47215400D02*
X67287499Y-47602800D01*
X61573961Y-47778038D02*
X62524038Y-47778038D01*
X65873963Y-48727962D02*
X65873963Y-49678039D01*
X67287499Y-46815400D02*
X62760501Y-46815400D01*
X68474039Y-48578038D02*
X68474039Y-48277963D01*
X62524038Y-47877961D02*
X61573961Y-47877961D01*
X62760501Y-43964501D02*
X67287499Y-43964501D01*
X62760501Y-47602800D02*
X62760501Y-47215400D01*
X65611400Y-43964501D02*
X65224000Y-43964501D01*
X68474039Y-47077963D02*
X67523962Y-47077963D01*
X64174037Y-43728038D02*
X64174037Y-42777961D01*
X66574038Y-43728038D02*
X66574038Y-42777961D01*
X64574039Y-49678039D02*
X64574039Y-48727962D01*
X61573961Y-44277963D02*
X61573961Y-44578039D01*
X67523962Y-46978039D02*
X68474039Y-46978039D01*
X64974038Y-42777961D02*
X64673963Y-42777961D01*
X64974038Y-48727962D02*
X64673963Y-48727962D01*
X67523962Y-46578037D02*
X68474039Y-46578037D01*
X67523962Y-44978038D02*
X68474039Y-44978038D01*
X68474039Y-48277963D02*
X67523962Y-48277963D01*
X66574038Y-48727962D02*
X66273962Y-48727962D01*
X68474039Y-44178037D02*
X68474039Y-43877962D01*
X64574039Y-43728038D02*
X64574039Y-42777961D01*
X67287499Y-44853200D02*
X67287499Y-45240600D01*
X64824000Y-48491499D02*
X64824000Y-43964501D01*
X68474039Y-46178038D02*
X68474039Y-45877963D01*
X67523962Y-44178037D02*
X68474039Y-44178037D01*
X65774037Y-48727962D02*
X65473961Y-48727962D01*
X67287499Y-48491499D02*
X62760501Y-48491499D01*
X62760501Y-48491499D02*
X62760501Y-48002800D01*
X61573961Y-47378038D02*
X62524038Y-47378038D01*
X62673962Y-42777961D02*
X62673962Y-43728038D01*
X62524038Y-46578037D02*
X62524038Y-46277962D01*
X62524038Y-45378037D02*
X62524038Y-45077962D01*
X68474039Y-45378037D02*
X68474039Y-45077962D01*
X65473961Y-48727962D02*
X65473961Y-49678039D01*
X64974038Y-43728038D02*
X64974038Y-42777961D01*
X64436600Y-43964501D02*
X64436600Y-48491499D01*
X62524038Y-44178037D02*
X62524038Y-43877962D01*
X66273962Y-48727962D02*
X66273962Y-49678039D01*
X66673961Y-49678039D02*
X66974037Y-49678039D01*
X67523962Y-45077962D02*
X67523962Y-45378037D01*
X62760501Y-43964501D02*
X63249200Y-43964501D01*
X62524038Y-48578038D02*
X62524038Y-48277963D01*
X67374038Y-48727962D02*
X67073963Y-48727962D01*
X68474039Y-46677961D02*
X67523962Y-46677961D01*
X62524038Y-47378038D02*
X62524038Y-47077963D01*
X62760501Y-48491499D02*
X62760501Y-43964501D01*
X64574039Y-48727962D02*
X64273961Y-48727962D01*
X63473962Y-49678039D02*
X63774038Y-49678039D01*
X66574038Y-42777961D02*
X66273962Y-42777961D01*
X63473962Y-48727962D02*
X63473962Y-49678039D01*
X62524038Y-47077963D02*
X61573961Y-47077963D01*
X62760501Y-44853200D02*
X67287499Y-44853200D01*
X65224000Y-48491499D02*
X65611400Y-48491499D01*
X67287499Y-47602800D02*
X62760501Y-47602800D01*
X66974037Y-42777961D02*
X66673961Y-42777961D01*
X63873962Y-43728038D02*
X64174037Y-43728038D01*
X63649200Y-48491499D02*
X64036600Y-48491499D01*
X67073963Y-49678039D02*
X67374038Y-49678039D01*
X63073963Y-48727962D02*
X63073963Y-49678039D01*
X64273961Y-49678039D02*
X64574039Y-49678039D01*
X61573961Y-45378037D02*
X62524038Y-45378037D01*
X65374037Y-49678039D02*
X65374037Y-48727962D01*
X62524038Y-45778039D02*
X62524038Y-45477961D01*
X68474039Y-47477962D02*
X67523962Y-47477962D01*
X65473961Y-42777961D02*
X65473961Y-43728038D01*
X68474039Y-43877962D02*
X67523962Y-43877962D01*
X65873963Y-42777961D02*
X65873963Y-43728038D01*
D15*
X73075000Y-25100000D03*
X74725000Y-25100000D03*
D16*
X122500000Y-12000000D03*
D17*
X50850000Y-23225000D03*
X52750000Y-23225000D03*
X51800000Y-21225000D03*
D18*
X50900000Y-24900000D03*
X50900000Y-26550000D03*
D19*
X52500000Y-26550000D03*
X52500000Y-24900000D03*
D17*
X52650000Y-28200000D03*
X50750000Y-28200000D03*
X51700000Y-30200000D03*
D20*
X79700000Y-46800000D03*
X77800000Y-46800000D03*
D21*
X34600000Y-55800000D03*
X34600000Y-57700000D03*
D22*
X39458000Y-59662000D03*
X39458000Y-61537000D03*
D18*
X37150000Y-56175000D03*
X37150000Y-57825000D03*
X39458000Y-56175000D03*
X39458000Y-57825000D03*
D22*
X37045000Y-59662000D03*
X37045000Y-61537000D03*
D23*
X113200000Y-60850000D03*
X113200000Y-58950000D03*
X34600000Y-61500000D03*
X34600000Y-59600000D03*
D20*
X74610000Y-52070000D03*
X72710000Y-52070000D03*
D21*
X118300000Y-54350000D03*
X118300000Y-56250000D03*
D24*
X118700000Y-63000000D03*
X115750000Y-63000000D03*
D25*
X121697000Y-21030000D03*
X123597000Y-21030000D03*
D26*
X120525000Y-55500000D03*
X123475000Y-55500000D03*
D25*
X121700000Y-24957000D03*
X123600000Y-24957000D03*
D27*
X60225000Y-23400000D03*
X58575000Y-23400000D03*
D19*
X72081200Y-56671600D03*
X72081200Y-55021600D03*
D27*
X118050000Y-61000000D03*
X116400000Y-61000000D03*
D15*
X122000000Y-19100000D03*
X123650000Y-19100000D03*
X120475000Y-57700000D03*
X122125000Y-57700000D03*
X122075000Y-22925000D03*
X123725000Y-22925000D03*
D18*
X74113200Y-55021600D03*
X74113200Y-56671600D03*
D28*
X70225000Y-23100000D03*
X69575000Y-23100000D03*
X68925000Y-23100000D03*
X68275000Y-23100000D03*
X67625000Y-23100000D03*
X66975000Y-23100000D03*
X66325000Y-23100000D03*
X65675000Y-23100000D03*
X65025000Y-23100000D03*
X64375000Y-23100000D03*
X63725000Y-23100000D03*
X63075000Y-23100000D03*
X63075000Y-28825000D03*
X63725000Y-28825000D03*
X64375000Y-28825000D03*
X65025000Y-28825000D03*
X65675000Y-28825000D03*
X66325000Y-28825000D03*
X66975000Y-28825000D03*
X67625000Y-28825000D03*
X68275000Y-28825000D03*
X68925000Y-28825000D03*
X69575000Y-28825000D03*
X70225000Y-28825000D03*
D21*
X71120000Y-36896000D03*
X71120000Y-38796000D03*
D29*
X115500000Y-56737500D03*
X115500000Y-53662500D03*
D25*
X72710000Y-40640000D03*
X74610000Y-40640000D03*
D27*
X53657000Y-46482000D03*
X52007000Y-46482000D03*
D30*
X60706000Y-57653000D03*
X60706000Y-53853000D03*
D31*
X57658000Y-39334000D03*
X57658000Y-34834000D03*
D27*
X50355000Y-48768000D03*
X48705000Y-48768000D03*
X53657000Y-48768000D03*
X52007000Y-48768000D03*
X50355000Y-46482000D03*
X48705000Y-46482000D03*
D23*
X64262000Y-60259000D03*
X64262000Y-58359000D03*
X69088000Y-55306000D03*
X69088000Y-53406000D03*
D20*
X57338000Y-45466000D03*
X55438000Y-45466000D03*
D25*
X55438000Y-48260000D03*
X57338000Y-48260000D03*
D21*
X112700000Y-54450000D03*
X112700000Y-56350000D03*
D32*
X67999000Y-48428001D03*
X67999000Y-48027999D03*
X67999000Y-47628000D03*
X67999000Y-47228001D03*
X67999000Y-46827999D03*
X67999000Y-46428000D03*
X67999000Y-46028000D03*
X67999000Y-45628001D03*
X67999000Y-45227999D03*
X67999000Y-44828000D03*
X67999000Y-44428001D03*
X67999000Y-44027999D03*
D33*
X67224001Y-43253000D03*
X66823999Y-43253000D03*
X66424000Y-43253000D03*
X66024001Y-43253000D03*
X65623999Y-43253000D03*
X65224000Y-43253000D03*
X64824000Y-43253000D03*
X64424001Y-43253000D03*
X64023999Y-43253000D03*
X63624000Y-43253000D03*
X63224001Y-43253000D03*
X62823999Y-43253000D03*
D32*
X62049000Y-44027999D03*
X62049000Y-44428001D03*
X62049000Y-44828000D03*
X62049000Y-45227999D03*
X62049000Y-45628001D03*
X62049000Y-46028000D03*
X62049000Y-46428000D03*
X62049000Y-46827999D03*
X62049000Y-47228001D03*
X62049000Y-47628000D03*
X62049000Y-48027999D03*
X62049000Y-48428001D03*
D33*
X62823999Y-49203000D03*
X63224001Y-49203000D03*
X63624000Y-49203000D03*
X64023999Y-49203000D03*
X64424001Y-49203000D03*
X64824000Y-49203000D03*
X65224000Y-49203000D03*
X65623999Y-49203000D03*
X66024001Y-49203000D03*
X66424000Y-49203000D03*
X66823999Y-49203000D03*
X67224001Y-49203000D03*
D34*
X65811400Y-46228000D03*
X63449200Y-46228000D03*
X65811400Y-44653200D03*
X66598800Y-46228000D03*
X65024000Y-45440600D03*
X65024000Y-44653200D03*
D35*
X65024000Y-46228000D03*
D34*
X64236600Y-45440600D03*
X66598800Y-47802800D03*
X63449200Y-47015400D03*
X65811400Y-45440600D03*
X64236600Y-44653200D03*
X65024000Y-47015400D03*
X64236600Y-47015400D03*
X66598800Y-45440600D03*
X65024000Y-46228000D03*
X65811400Y-47802800D03*
X63449200Y-45440600D03*
X64236600Y-47802800D03*
X64236600Y-46228000D03*
X65024000Y-47802800D03*
X63449200Y-44653200D03*
X65811400Y-47015400D03*
X66598800Y-44653200D03*
X63449200Y-47802800D03*
X66598800Y-47015400D03*
D20*
X74610000Y-49784000D03*
X72710000Y-49784000D03*
D23*
X61722000Y-39812000D03*
X61722000Y-37912000D03*
D20*
X74610000Y-42926000D03*
X72710000Y-42926000D03*
D36*
X50800000Y-50674000D03*
X50800000Y-53974000D03*
X53340000Y-53974000D03*
X53340000Y-50674000D03*
X50800000Y-41530000D03*
X50800000Y-44830000D03*
X53340000Y-44830000D03*
X53340000Y-41530000D03*
D25*
X46548000Y-44450000D03*
X48448000Y-44450000D03*
D23*
X66548000Y-38796000D03*
X66548000Y-36896000D03*
D25*
X72710000Y-47498000D03*
X74610000Y-47498000D03*
X55438000Y-43053000D03*
X57338000Y-43053000D03*
D23*
X68834000Y-38796000D03*
X68834000Y-36896000D03*
D25*
X55438000Y-50673000D03*
X57338000Y-50673000D03*
D20*
X48448000Y-50800000D03*
X46548000Y-50800000D03*
X74610000Y-45224700D03*
X72710000Y-45224700D03*
D23*
X66929000Y-55306000D03*
X66929000Y-53406000D03*
D36*
X64389000Y-56641000D03*
X64389000Y-53341000D03*
D25*
X77850000Y-39900000D03*
X79750000Y-39900000D03*
X121650000Y-17221000D03*
X123550000Y-17221000D03*
D15*
X122000000Y-15321000D03*
X123650000Y-15321000D03*
D36*
X64262000Y-35688000D03*
X64262000Y-38988000D03*
D18*
X32621000Y-59675000D03*
X32621000Y-61325000D03*
X32621000Y-56401000D03*
X32621000Y-58051000D03*
D21*
X51750000Y-35050000D03*
X51750000Y-36950000D03*
D23*
X56642000Y-55306000D03*
X56642000Y-53406000D03*
D37*
X52000000Y-60500000D03*
X44000000Y-60500000D03*
X56000000Y-60500000D03*
X70000000Y-60500000D03*
D16*
X122500000Y-62000000D03*
D25*
X72950000Y-30600000D03*
X74850000Y-30600000D03*
D18*
X110700000Y-54775000D03*
X110700000Y-56425000D03*
D27*
X74725000Y-28600000D03*
X73075000Y-28600000D03*
X74725000Y-26800000D03*
X73075000Y-26800000D03*
D15*
X58575000Y-26600000D03*
X60225000Y-26600000D03*
X58575000Y-25000000D03*
X60225000Y-25000000D03*
D37*
X48000000Y-60500000D03*
D38*
X37305000Y-47441000D03*
X36035000Y-47441000D03*
X34765000Y-47441000D03*
X33495000Y-47441000D03*
X33495000Y-52841000D03*
X34765000Y-52841000D03*
X36035000Y-52841000D03*
X37305000Y-52841000D03*
D39*
X35400000Y-50141000D03*
D36*
X35700000Y-42850000D03*
X35700000Y-39550000D03*
D27*
X37175000Y-45150000D03*
X35525000Y-45150000D03*
D16*
X27500000Y-62000000D03*
D40*
X27350000Y-49275000D03*
D41*
X27350000Y-51815000D03*
D42*
X43337500Y-39750000D03*
X43337500Y-37850000D03*
X41062500Y-38800000D03*
D43*
X37550000Y-28462500D03*
D44*
X37475000Y-29000000D03*
D43*
X37550000Y-29537500D03*
X39250000Y-29537500D03*
D44*
X39325000Y-29000000D03*
D43*
X39250000Y-28462500D03*
D45*
X113600000Y-48950000D03*
X113600000Y-48450000D03*
X113600000Y-47950000D03*
X113600000Y-47450000D03*
X113600000Y-46950000D03*
X113600000Y-46450000D03*
X113600000Y-45950000D03*
X113600000Y-45450000D03*
X113600000Y-44950000D03*
X113600000Y-44450000D03*
X113600000Y-43950000D03*
X113600000Y-43450000D03*
X113600000Y-42950000D03*
X113600000Y-42450000D03*
X113600000Y-41950000D03*
X113600000Y-41450000D03*
X113600000Y-40950000D03*
X113600000Y-40450000D03*
X113600000Y-39950000D03*
X113600000Y-39450000D03*
X113600000Y-38950000D03*
X113600000Y-38450000D03*
X113600000Y-37950000D03*
X113600000Y-37450000D03*
X113600000Y-36950000D03*
X113600000Y-36450000D03*
X113600000Y-35950000D03*
X113600000Y-35450000D03*
X113600000Y-34950000D03*
X113600000Y-34450000D03*
X113600000Y-33950000D03*
X113600000Y-33450000D03*
X113600000Y-32950000D03*
X113600000Y-32450000D03*
X113600000Y-31950000D03*
X113600000Y-31450000D03*
X113600000Y-30950000D03*
X113600000Y-30450000D03*
X113600000Y-29950000D03*
X113600000Y-29450000D03*
D46*
X116850000Y-50850000D03*
X116850000Y-27550000D03*
D25*
X37450000Y-32500000D03*
X39350000Y-32500000D03*
D47*
X116750000Y-21600000D03*
X96250000Y-21600000D03*
D48*
X114750000Y-24600000D03*
X114250000Y-24600000D03*
X113750000Y-24600000D03*
X113250000Y-24600000D03*
X112750000Y-24600000D03*
X112250000Y-24600000D03*
X111750000Y-24600000D03*
X111250000Y-24600000D03*
X110750000Y-24600000D03*
X110250000Y-24600000D03*
X109750000Y-24600000D03*
X109250000Y-24600000D03*
X108750000Y-24600000D03*
X108250000Y-24600000D03*
X107750000Y-24600000D03*
X107250000Y-24600000D03*
X106750000Y-24600000D03*
X106250000Y-24600000D03*
X105750000Y-24600000D03*
X105250000Y-24600000D03*
X104750000Y-24600000D03*
X104250000Y-24600000D03*
X103750000Y-24600000D03*
X103250000Y-24600000D03*
X102750000Y-24600000D03*
X102250000Y-24600000D03*
X101750000Y-24600000D03*
X101250000Y-24600000D03*
X100750000Y-24600000D03*
X100250000Y-24600000D03*
X99750000Y-24600000D03*
X99250000Y-24600000D03*
X98750000Y-24600000D03*
X98250000Y-24600000D03*
D49*
X31012500Y-41500000D03*
X31012500Y-43400000D03*
X32887500Y-42450000D03*
D50*
X80772000Y-54722000D03*
X80772000Y-56022000D03*
D21*
X88300000Y-21050000D03*
X88300000Y-22950000D03*
D40*
X27100000Y-20375000D03*
D41*
X27100000Y-17835000D03*
D51*
X87055000Y-26125000D03*
X85785000Y-26125000D03*
X84515000Y-26125000D03*
X83245000Y-26125000D03*
X83245000Y-31075000D03*
X84515000Y-31075000D03*
X85785000Y-31075000D03*
X87055000Y-31075000D03*
D19*
X37600000Y-25825000D03*
X37600000Y-24175000D03*
D27*
X31075000Y-38900000D03*
X29425000Y-38900000D03*
X74725000Y-23350000D03*
X73075000Y-23350000D03*
D52*
X79750000Y-42262500D03*
X78800000Y-42262500D03*
X77850000Y-42262500D03*
X77850000Y-44537500D03*
X79750000Y-44537500D03*
D53*
X114799999Y-14765650D03*
X114300000Y-14765650D03*
X113799999Y-14765650D03*
X113300000Y-14765650D03*
X112799998Y-14765650D03*
X112299999Y-14765650D03*
X111800000Y-14765650D03*
X111299999Y-14765650D03*
X110800000Y-14765650D03*
X110299998Y-14765650D03*
X109799999Y-14765650D03*
X109300000Y-14765650D03*
X108799999Y-14765650D03*
X108300000Y-14765650D03*
X107799998Y-14765650D03*
X107299999Y-14765650D03*
X106800000Y-14765650D03*
X106299998Y-14765650D03*
X105799999Y-14765650D03*
X105300000Y-14765650D03*
X104799999Y-14765650D03*
X104300000Y-14765650D03*
X103799998Y-14765650D03*
X103299999Y-14765650D03*
X102800000Y-14765650D03*
X102299999Y-14765650D03*
X101800000Y-14765650D03*
X101299998Y-14765650D03*
X100799999Y-14765650D03*
X100300000Y-14765650D03*
X99799999Y-14765650D03*
X99300000Y-14765650D03*
X98799998Y-14765650D03*
D54*
X97148000Y-10752450D03*
X116452000Y-10752450D03*
D21*
X81800000Y-21050000D03*
X81800000Y-22950000D03*
D18*
X81500000Y-27650000D03*
X81500000Y-29300000D03*
D20*
X43250000Y-41700000D03*
X41350000Y-41700000D03*
D23*
X30600000Y-58400000D03*
X30600000Y-56500000D03*
D50*
X82500000Y-50350000D03*
X82500000Y-51650000D03*
D40*
X122936000Y-50800000D03*
D41*
X122936000Y-48260000D03*
X122936000Y-45720000D03*
X122936000Y-43180000D03*
X122936000Y-40640000D03*
X122936000Y-38100000D03*
X122936000Y-35560000D03*
X122936000Y-33020000D03*
X122936000Y-30480000D03*
X122936000Y-27940000D03*
D18*
X37600000Y-35475000D03*
X37600000Y-37125000D03*
D40*
X66000000Y-11300000D03*
D41*
X68540000Y-11300000D03*
X71080000Y-11300000D03*
X73620000Y-11300000D03*
X76160000Y-11300000D03*
X78700000Y-11300000D03*
X81240000Y-11300000D03*
X83780000Y-11300000D03*
X86320000Y-11300000D03*
X88860000Y-11300000D03*
X91400000Y-11300000D03*
X93940000Y-11300000D03*
D55*
X105475000Y-56710000D03*
X105475000Y-55440000D03*
X105475000Y-54170000D03*
X105475000Y-52900000D03*
X105475000Y-51630000D03*
X105475000Y-50360000D03*
X105475000Y-49090000D03*
X105475000Y-47820000D03*
X105475000Y-46550000D03*
X105475000Y-45280000D03*
X105475000Y-44010000D03*
X105475000Y-42740000D03*
X105475000Y-41470000D03*
X105475000Y-40200000D03*
D56*
X103710000Y-38950000D03*
X102440000Y-38950000D03*
X101170000Y-38950000D03*
X99900000Y-38950000D03*
X98630000Y-38950000D03*
X97360000Y-38950000D03*
X96090000Y-38950000D03*
X94820000Y-38950000D03*
X93550000Y-38950000D03*
X92280000Y-38950000D03*
X91010000Y-38950000D03*
X89740000Y-38950000D03*
D55*
X87975000Y-40200000D03*
X87975000Y-41470000D03*
X87975000Y-42740000D03*
X87975000Y-44010000D03*
X87975000Y-45280000D03*
X87975000Y-46550000D03*
X87975000Y-47820000D03*
X87975000Y-49090000D03*
X87975000Y-50360000D03*
X87975000Y-51630000D03*
X87975000Y-52900000D03*
X87975000Y-54170000D03*
X87975000Y-55440000D03*
X87975000Y-56710000D03*
D57*
X98225000Y-48990000D03*
X96825000Y-48990000D03*
X99625000Y-48990000D03*
X96825000Y-50390000D03*
X98225000Y-50390000D03*
X99625000Y-47590000D03*
X98225000Y-47590000D03*
X96825000Y-47590000D03*
X99625000Y-50390000D03*
D40*
X31875000Y-11300000D03*
D41*
X34415000Y-11300000D03*
X36955000Y-11300000D03*
X39495000Y-11300000D03*
X42035000Y-11300000D03*
X44575000Y-11300000D03*
X47115000Y-11300000D03*
X49655000Y-11300000D03*
X52195000Y-11300000D03*
X54735000Y-11300000D03*
X57275000Y-11300000D03*
X59815000Y-11300000D03*
X62355000Y-11300000D03*
D16*
X27500000Y-12000000D03*
D21*
X89400000Y-29450000D03*
X89400000Y-31350000D03*
D58*
X42425000Y-22755000D03*
X42425000Y-24025000D03*
X42425000Y-25295000D03*
X42425000Y-26565000D03*
X42425000Y-27835000D03*
X42425000Y-29105000D03*
X42425000Y-30375000D03*
X42425000Y-31645000D03*
X47375000Y-31645000D03*
X47375000Y-30375000D03*
X47375000Y-29105000D03*
X47375000Y-27835000D03*
X47375000Y-26565000D03*
X47375000Y-25295000D03*
X47375000Y-24025000D03*
X47375000Y-22755000D03*
D59*
X31740000Y-33190000D03*
X31740000Y-27410000D03*
D60*
X33185000Y-27050000D03*
X33185000Y-27850000D03*
D61*
X33185000Y-29050000D03*
X33185000Y-30050000D03*
X33185000Y-30550000D03*
X33185000Y-31550000D03*
D60*
X33185000Y-32750000D03*
X33185000Y-33550000D03*
X33185000Y-33550000D03*
X33185000Y-32750000D03*
D61*
X33185000Y-32050000D03*
X33185000Y-31050000D03*
X33185000Y-29550000D03*
X33185000Y-28550000D03*
D60*
X33185000Y-27850000D03*
X33185000Y-27050000D03*
D62*
X28090000Y-34620000D03*
D63*
X32270000Y-25980000D03*
D62*
X28090000Y-25980000D03*
D63*
X32270000Y-34620000D03*
D25*
X41250000Y-35900000D03*
X43150000Y-35900000D03*
D36*
X28500000Y-44250000D03*
X28500000Y-40950000D03*
D64*
X86300000Y-22550000D03*
X83800000Y-22550000D03*
M02*
