%TF.GenerationSoftware,KiCad,Pcbnew,6.0.7+dfsg-1build1*%
%TF.CreationDate,2023-01-24T23:00:55+01:00*%
%TF.ProjectId,epaper-breakout,65706170-6572-42d6-9272-65616b6f7574,rev?*%
%TF.SameCoordinates,Original*%
%TF.FileFunction,Soldermask,Top*%
%TF.FilePolarity,Negative*%
%FSLAX46Y46*%
G04 Gerber Fmt 4.6, Leading zero omitted, Abs format (unit mm)*
G04 Created by KiCad (PCBNEW 6.0.7+dfsg-1build1) date 2023-01-24 23:00:55*
%MOMM*%
%LPD*%
G01*
G04 APERTURE LIST*
G04 Aperture macros list*
%AMRoundRect*
0 Rectangle with rounded corners*
0 $1 Rounding radius*
0 $2 $3 $4 $5 $6 $7 $8 $9 X,Y pos of 4 corners*
0 Add a 4 corners polygon primitive as box body*
4,1,4,$2,$3,$4,$5,$6,$7,$8,$9,$2,$3,0*
0 Add four circle primitives for the rounded corners*
1,1,$1+$1,$2,$3*
1,1,$1+$1,$4,$5*
1,1,$1+$1,$6,$7*
1,1,$1+$1,$8,$9*
0 Add four rect primitives between the rounded corners*
20,1,$1+$1,$2,$3,$4,$5,0*
20,1,$1+$1,$4,$5,$6,$7,0*
20,1,$1+$1,$6,$7,$8,$9,0*
20,1,$1+$1,$8,$9,$2,$3,0*%
G04 Aperture macros list end*
%TA.AperFunction,Profile*%
%ADD10C,0.050000*%
%TD*%
%ADD11C,0.152400*%
%ADD12RoundRect,0.051000X0.750000X0.450000X-0.750000X0.450000X-0.750000X-0.450000X0.750000X-0.450000X0*%
%ADD13RoundRect,0.051000X-0.450000X0.750000X-0.450000X-0.750000X0.450000X-0.750000X0.450000X0.750000X0*%
%ADD14RoundRect,0.051000X-0.750000X-0.450000X0.750000X-0.450000X0.750000X0.450000X-0.750000X0.450000X0*%
%ADD15RoundRect,0.051000X-0.450000X-0.450000X0.450000X-0.450000X0.450000X0.450000X-0.450000X0.450000X0*%
%ADD16RoundRect,0.051000X1.100000X-0.900000X1.100000X0.900000X-1.100000X0.900000X-1.100000X-0.900000X0*%
%ADD17RoundRect,0.051000X0.650000X-0.150000X0.650000X0.150000X-0.650000X0.150000X-0.650000X-0.150000X0*%
%ADD18RoundRect,0.251000X-0.200000X-0.275000X0.200000X-0.275000X0.200000X0.275000X-0.200000X0.275000X0*%
%ADD19C,2.302000*%
%ADD20RoundRect,0.051000X0.400000X-0.450000X0.400000X0.450000X-0.400000X0.450000X-0.400000X-0.450000X0*%
%ADD21RoundRect,0.251000X-0.275000X0.200000X-0.275000X-0.200000X0.275000X-0.200000X0.275000X0.200000X0*%
%ADD22RoundRect,0.251000X0.275000X-0.200000X0.275000X0.200000X-0.275000X0.200000X-0.275000X-0.200000X0*%
%ADD23RoundRect,0.051000X-0.400000X0.450000X-0.400000X-0.450000X0.400000X-0.450000X0.400000X0.450000X0*%
%ADD24RoundRect,0.301000X0.250000X0.475000X-0.250000X0.475000X-0.250000X-0.475000X0.250000X-0.475000X0*%
%ADD25RoundRect,0.301000X-0.475000X0.250000X-0.475000X-0.250000X0.475000X-0.250000X0.475000X0.250000X0*%
%ADD26RoundRect,0.294750X-0.456250X0.243750X-0.456250X-0.243750X0.456250X-0.243750X0.456250X0.243750X0*%
%ADD27RoundRect,0.301000X0.475000X-0.250000X0.475000X0.250000X-0.475000X0.250000X-0.475000X-0.250000X0*%
%ADD28RoundRect,0.300999X0.325001X0.650001X-0.325001X0.650001X-0.325001X-0.650001X0.325001X-0.650001X0*%
%ADD29RoundRect,0.301000X-0.250000X-0.475000X0.250000X-0.475000X0.250000X0.475000X-0.250000X0.475000X0*%
%ADD30RoundRect,0.300999X-0.325001X-0.650001X0.325001X-0.650001X0.325001X0.650001X-0.325001X0.650001X0*%
%ADD31RoundRect,0.251000X0.200000X0.275000X-0.200000X0.275000X-0.200000X-0.275000X0.200000X-0.275000X0*%
%ADD32RoundRect,0.151000X-0.100000X0.637500X-0.100000X-0.637500X0.100000X-0.637500X0.100000X0.637500X0*%
%ADD33RoundRect,0.300997X0.925003X-0.412503X0.925003X0.412503X-0.925003X0.412503X-0.925003X-0.412503X0*%
%ADD34RoundRect,0.051000X1.950000X-1.100000X1.950000X1.100000X-1.950000X1.100000X-1.950000X-1.100000X0*%
%ADD35RoundRect,0.051000X2.100000X-1.200000X2.100000X1.200000X-2.100000X1.200000X-2.100000X-1.200000X0*%
%ADD36RoundRect,0.051000X-0.425000X0.100000X-0.425000X-0.100000X0.425000X-0.100000X0.425000X0.100000X0*%
%ADD37RoundRect,0.051000X0.100000X0.425000X-0.100000X0.425000X-0.100000X-0.425000X0.100000X-0.425000X0*%
%ADD38C,0.610000*%
%ADD39RoundRect,0.051000X2.199999X2.199999X-2.199999X2.199999X-2.199999X-2.199999X2.199999X-2.199999X0*%
%ADD40RoundRect,0.051000X-0.600000X0.450000X-0.600000X-0.450000X0.600000X-0.450000X0.600000X0.450000X0*%
%ADD41RoundRect,0.051000X0.600000X-0.450000X0.600000X0.450000X-0.600000X0.450000X-0.600000X-0.450000X0*%
%ADD42C,2.602000*%
%ADD43RoundRect,0.051000X-0.325000X0.750000X-0.325000X-0.750000X0.325000X-0.750000X0.325000X0.750000X0*%
%ADD44RoundRect,0.051000X-1.800000X1.350000X-1.800000X-1.350000X1.800000X-1.350000X1.800000X1.350000X0*%
%ADD45RoundRect,0.051000X-0.850000X-0.850000X0.850000X-0.850000X0.850000X0.850000X-0.850000X0.850000X0*%
%ADD46O,1.802000X1.802000*%
%ADD47RoundRect,0.201000X0.512500X0.150000X-0.512500X0.150000X-0.512500X-0.150000X0.512500X-0.150000X0*%
%ADD48RoundRect,0.051000X-0.250000X-0.187500X0.250000X-0.187500X0.250000X0.187500X-0.250000X0.187500X0*%
%ADD49RoundRect,0.051000X-0.325000X-0.150000X0.325000X-0.150000X0.325000X0.150000X-0.325000X0.150000X0*%
%ADD50RoundRect,0.051000X0.800000X1.400000X-0.800000X1.400000X-0.800000X-1.400000X0.800000X-1.400000X0*%
%ADD51RoundRect,0.051000X0.125000X0.650000X-0.125000X0.650000X-0.125000X-0.650000X0.125000X-0.650000X0*%
%ADD52RoundRect,0.201000X-0.587500X-0.150000X0.587500X-0.150000X0.587500X0.150000X-0.587500X0.150000X0*%
%ADD53RoundRect,0.051000X-0.750000X0.500000X-0.750000X-0.500000X0.750000X-0.500000X0.750000X0.500000X0*%
%ADD54RoundRect,0.051000X0.850000X0.850000X-0.850000X0.850000X-0.850000X-0.850000X0.850000X-0.850000X0*%
%ADD55RoundRect,0.201000X-0.150000X0.825000X-0.150000X-0.825000X0.150000X-0.825000X0.150000X0.825000X0*%
%ADD56RoundRect,0.201000X-0.150000X0.512500X-0.150000X-0.512500X0.150000X-0.512500X0.150000X0.512500X0*%
%ADD57RoundRect,0.051000X0.127000X-0.406400X0.127000X0.406400X-0.127000X0.406400X-0.127000X-0.406400X0*%
%ADD58RoundRect,0.051000X-0.762000X-0.850900X0.762000X-0.850900X0.762000X0.850900X-0.762000X0.850900X0*%
%ADD59RoundRect,0.051000X0.850000X-0.850000X0.850000X0.850000X-0.850000X0.850000X-0.850000X-0.850000X0*%
%ADD60RoundRect,0.201000X-0.825000X-0.150000X0.825000X-0.150000X0.825000X0.150000X-0.825000X0.150000X0*%
%ADD61C,0.752000*%
%ADD62RoundRect,0.051000X-0.725000X0.300000X-0.725000X-0.300000X0.725000X-0.300000X0.725000X0.300000X0*%
%ADD63RoundRect,0.051000X-0.725000X0.150000X-0.725000X-0.150000X0.725000X-0.150000X0.725000X0.150000X0*%
%ADD64O,1.702000X1.102000*%
%ADD65O,2.202000X1.102000*%
%ADD66RoundRect,0.051000X-0.500000X-0.900000X0.500000X-0.900000X0.500000X0.900000X-0.500000X0.900000X0*%
G04 APERTURE END LIST*
D10*
X25000000Y-62500000D02*
X25000000Y-11500000D01*
X27000000Y-64500000D02*
X81300000Y-64485786D01*
X125000000Y-11500000D02*
X125000000Y-62500000D01*
X27000000Y-9500000D02*
X123000000Y-9500000D01*
X27000000Y-9500000D02*
G75*
G03*
X25000000Y-11500000I0J-2000000D01*
G01*
X85300000Y-57600000D02*
G75*
G03*
X83300000Y-59600000I0J-2000000D01*
G01*
X83300000Y-62485786D02*
X83300000Y-59600000D01*
X81300000Y-64485800D02*
G75*
G03*
X83300000Y-62485786I0J2000000D01*
G01*
X110666214Y-62485786D02*
G75*
G03*
X112666214Y-64485786I1999986J-14D01*
G01*
X88700000Y-57600000D02*
X85300000Y-57600000D01*
X125000000Y-11500000D02*
G75*
G03*
X123000000Y-9500000I-2000000J0D01*
G01*
X25000000Y-62500000D02*
G75*
G03*
X27000000Y-64500000I2000000J0D01*
G01*
X110666214Y-62485786D02*
X110685791Y-59614213D01*
X123000000Y-64500000D02*
G75*
G03*
X125000000Y-62500000I0J2000000D01*
G01*
X112666214Y-64485786D02*
X123000000Y-64500000D01*
X110685787Y-59614213D02*
G75*
G03*
X108685791Y-57614213I-1999987J13D01*
G01*
X108685791Y-57614213D02*
X88700000Y-57600000D01*
D11*
X62524038Y-48178037D02*
X62524038Y-47877961D01*
X61573961Y-44978038D02*
X62524038Y-44978038D01*
X66273962Y-49678039D02*
X66574038Y-49678039D01*
X62974037Y-49678039D02*
X62974037Y-48727962D01*
X63073963Y-42777961D02*
X63073963Y-43728038D01*
X65374037Y-48727962D02*
X65073962Y-48727962D01*
X68474039Y-45778039D02*
X68474039Y-45477963D01*
X62760501Y-46028000D02*
X62760501Y-45640600D01*
X67073963Y-48727962D02*
X67073963Y-49678039D01*
X67287499Y-48491499D02*
X66798800Y-48491499D01*
X63473962Y-43728038D02*
X63774038Y-43728038D01*
X62974037Y-42777961D02*
X62673962Y-42777961D01*
X64673963Y-48727962D02*
X64673963Y-49678039D01*
X66174038Y-48727962D02*
X65873963Y-48727962D01*
X67523962Y-47077963D02*
X67523962Y-47378038D01*
X64974038Y-49678039D02*
X64974038Y-48727962D01*
X67523962Y-48277963D02*
X67523962Y-48578038D01*
X65374037Y-42777961D02*
X65073962Y-42777961D01*
X66974037Y-43728038D02*
X66974037Y-42777961D01*
X65611400Y-48491499D02*
X65611400Y-43964501D01*
X68474039Y-47877961D02*
X67523962Y-47877961D01*
X63774038Y-49678039D02*
X63774038Y-48727962D01*
X67523962Y-46277962D02*
X67523962Y-46578037D01*
X67523962Y-44578039D02*
X68474039Y-44578039D01*
X62524038Y-44677962D02*
X61573961Y-44677962D01*
X65873963Y-43728038D02*
X66174038Y-43728038D01*
X62760501Y-48002800D02*
X67287499Y-48002800D01*
X61573961Y-47477962D02*
X61573961Y-47778038D01*
X61573961Y-47077963D02*
X61573961Y-47378038D01*
X61573961Y-46277962D02*
X61573961Y-46578037D01*
X66273962Y-42777961D02*
X66273962Y-43728038D01*
X65073962Y-48727962D02*
X65073962Y-49678039D01*
X68474039Y-44277963D02*
X67523962Y-44277963D01*
X64436600Y-48491499D02*
X64824000Y-48491499D01*
X63249200Y-43964501D02*
X63249200Y-48491499D01*
X61573961Y-44178037D02*
X62524038Y-44178037D01*
X62524038Y-45077962D02*
X61573961Y-45077962D01*
X66798800Y-43964501D02*
X67287499Y-43964501D01*
X66673961Y-42777961D02*
X66673961Y-43728038D01*
X61573961Y-44578039D02*
X62524038Y-44578039D01*
X67287499Y-43964501D02*
X67287499Y-48491499D01*
X68474039Y-46277962D02*
X67523962Y-46277962D01*
X68474039Y-47378038D02*
X68474039Y-47077963D01*
X64673963Y-49678039D02*
X64974038Y-49678039D01*
X68474039Y-46978039D02*
X68474039Y-46677961D01*
X62524038Y-44978038D02*
X62524038Y-44677962D01*
X64273961Y-48727962D02*
X64273961Y-49678039D01*
X62524038Y-45877963D02*
X61573961Y-45877963D01*
X67523962Y-47477962D02*
X67523962Y-47778038D01*
X67287499Y-48002800D02*
X67287499Y-48491499D01*
X62760501Y-46428000D02*
X67287499Y-46428000D01*
X62974037Y-48727962D02*
X62673962Y-48727962D01*
X62524038Y-45477961D02*
X61573961Y-45477961D01*
X63774038Y-42777961D02*
X63473962Y-42777961D01*
X67523962Y-43877962D02*
X67523962Y-44178037D01*
X66974037Y-49678039D02*
X66974037Y-48727962D01*
X61573961Y-46578037D02*
X62524038Y-46578037D01*
X66398800Y-48491499D02*
X66398800Y-43964501D01*
X67374038Y-43728038D02*
X67374038Y-42777961D01*
X64824000Y-43964501D02*
X64436600Y-43964501D01*
X68474039Y-46578037D02*
X68474039Y-46277962D01*
X62524038Y-44578039D02*
X62524038Y-44277963D01*
X65873963Y-49678039D02*
X66174038Y-49678039D01*
X63774038Y-43728038D02*
X63774038Y-42777961D01*
X61573961Y-47877961D02*
X61573961Y-48178037D01*
X62524038Y-47778038D02*
X62524038Y-47477962D01*
X62760501Y-47215400D02*
X67287499Y-47215400D01*
X61573961Y-44677962D02*
X61573961Y-44978038D01*
X67374038Y-49678039D02*
X67374038Y-48727962D01*
X68474039Y-47778038D02*
X68474039Y-47477962D01*
X63473962Y-42777961D02*
X63473962Y-43728038D01*
X62524038Y-46978037D02*
X62524038Y-46677961D01*
X66673961Y-43728038D02*
X66974037Y-43728038D01*
X68474039Y-45077962D02*
X67523962Y-45077962D01*
X65073962Y-49678039D02*
X65374037Y-49678039D01*
X65224000Y-43964501D02*
X65224000Y-48491499D01*
X64273963Y-42777961D02*
X64273963Y-43728038D01*
X62760501Y-45240600D02*
X62760501Y-44853200D01*
X63374039Y-48727962D02*
X63073963Y-48727962D01*
X63873962Y-49678039D02*
X64174037Y-49678039D01*
X67523962Y-47778038D02*
X68474039Y-47778038D01*
X63073963Y-43728038D02*
X63374039Y-43728038D01*
X66673961Y-48727962D02*
X66673961Y-49678039D01*
X63774038Y-48727962D02*
X63473962Y-48727962D01*
X63873962Y-48727962D02*
X63873962Y-49678039D01*
X66174038Y-49678039D02*
X66174038Y-48727962D01*
X67073963Y-42777961D02*
X67073963Y-43728038D01*
X67523962Y-45778039D02*
X68474039Y-45778039D01*
X66174038Y-42777961D02*
X65873963Y-42777961D01*
X65473961Y-43728038D02*
X65774039Y-43728038D01*
X62673962Y-48727962D02*
X62673962Y-49678039D01*
X61573961Y-45477961D02*
X61573961Y-45778039D01*
X66574038Y-49678039D02*
X66574038Y-48727962D01*
X65774039Y-42777961D02*
X65473961Y-42777961D01*
X61573961Y-48277963D02*
X61573961Y-48578038D01*
X68474039Y-44978038D02*
X68474039Y-44677962D01*
X61573961Y-46178038D02*
X62524038Y-46178038D01*
X67073963Y-43728038D02*
X67374038Y-43728038D01*
X64174037Y-49678039D02*
X64174037Y-48727962D01*
X67523962Y-45378037D02*
X68474039Y-45378037D01*
X61573961Y-43877962D02*
X61573961Y-44178037D01*
X66174038Y-43728038D02*
X66174038Y-42777961D01*
X67523962Y-46178038D02*
X68474039Y-46178038D01*
X67523962Y-44277963D02*
X67523962Y-44578039D01*
X67523962Y-48178037D02*
X68474039Y-48178037D01*
X62673962Y-49678039D02*
X62974037Y-49678039D01*
X66798800Y-48491499D02*
X66798800Y-43964501D01*
X67523962Y-47877961D02*
X67523962Y-48178037D01*
X66974037Y-48727962D02*
X66673961Y-48727962D01*
X66011400Y-48491499D02*
X66398800Y-48491499D01*
X64174037Y-48727962D02*
X63873962Y-48727962D01*
X67287499Y-46428000D02*
X67287499Y-46815400D01*
X62974037Y-43728038D02*
X62974037Y-42777961D01*
X63249200Y-48491499D02*
X62760501Y-48491499D01*
X66011400Y-43964501D02*
X66011400Y-48491499D01*
X62760501Y-46815400D02*
X62760501Y-46428000D01*
X64036600Y-48491499D02*
X64036600Y-43964501D01*
X62524038Y-46677961D02*
X61573961Y-46677961D01*
X67287499Y-45240600D02*
X62760501Y-45240600D01*
X65774037Y-49678039D02*
X65774037Y-48727962D01*
X64673963Y-43728038D02*
X64974038Y-43728038D01*
X63374039Y-49678039D02*
X63374039Y-48727962D01*
X64673963Y-42777961D02*
X64673963Y-43728038D01*
X64273963Y-43728038D02*
X64574039Y-43728038D01*
X66398800Y-43964501D02*
X66011400Y-43964501D01*
X63073963Y-49678039D02*
X63374039Y-49678039D01*
X67287499Y-46028000D02*
X62760501Y-46028000D01*
X62673962Y-43728038D02*
X62974037Y-43728038D01*
X61573961Y-48578038D02*
X62524038Y-48578038D01*
X61573961Y-46677961D02*
X61573961Y-46978037D01*
X65774039Y-43728038D02*
X65774039Y-42777961D01*
X68474039Y-44677962D02*
X67523962Y-44677962D01*
X62524038Y-43877962D02*
X61573961Y-43877962D01*
X65073962Y-42777961D02*
X65073962Y-43728038D01*
X68474039Y-45477963D02*
X67523962Y-45477963D01*
X61573961Y-46978037D02*
X62524038Y-46978037D01*
X66273962Y-43728038D02*
X66574038Y-43728038D01*
X65374037Y-43728038D02*
X65374037Y-42777961D01*
X67374038Y-42777961D02*
X67073963Y-42777961D01*
X62524038Y-48277963D02*
X61573961Y-48277963D01*
X67523962Y-44677962D02*
X67523962Y-44978038D01*
X67523962Y-47378038D02*
X68474039Y-47378038D01*
X62760501Y-45640600D02*
X67287499Y-45640600D01*
X63649200Y-43964501D02*
X63649200Y-48491499D01*
X62524038Y-46277962D02*
X61573961Y-46277962D01*
X65073962Y-43728038D02*
X65374037Y-43728038D01*
X67287499Y-43964501D02*
X67287499Y-44453200D01*
X61573961Y-45877963D02*
X61573961Y-46178038D01*
X67523962Y-46677961D02*
X67523962Y-46978039D01*
X62760501Y-44453200D02*
X62760501Y-43964501D01*
X63873962Y-42777961D02*
X63873962Y-43728038D01*
X68474039Y-44578039D02*
X68474039Y-44277963D01*
X65473961Y-49678039D02*
X65774037Y-49678039D01*
X63374039Y-42777961D02*
X63073963Y-42777961D01*
X62524038Y-47477962D02*
X61573961Y-47477962D01*
X68474039Y-45877963D02*
X67523962Y-45877963D01*
X67523962Y-45477963D02*
X67523962Y-45778039D01*
X67287499Y-45640600D02*
X67287499Y-46028000D01*
X64574039Y-42777961D02*
X64273963Y-42777961D01*
X63374039Y-43728038D02*
X63374039Y-42777961D01*
X61573961Y-48178037D02*
X62524038Y-48178037D01*
X62524038Y-46178038D02*
X62524038Y-45877963D01*
X67287499Y-44453200D02*
X62760501Y-44453200D01*
X64174037Y-42777961D02*
X63873962Y-42777961D01*
X67523962Y-45877963D02*
X67523962Y-46178038D01*
X62524038Y-44277963D02*
X61573961Y-44277963D01*
X68474039Y-48178037D02*
X68474039Y-47877961D01*
X61573961Y-45778039D02*
X62524038Y-45778039D01*
X61573961Y-45077962D02*
X61573961Y-45378037D01*
X64036600Y-43964501D02*
X63649200Y-43964501D01*
X67523962Y-48578038D02*
X68474039Y-48578038D01*
X67287499Y-47215400D02*
X67287499Y-47602800D01*
X61573961Y-47778038D02*
X62524038Y-47778038D01*
X65873963Y-48727962D02*
X65873963Y-49678039D01*
X67287499Y-46815400D02*
X62760501Y-46815400D01*
X68474039Y-48578038D02*
X68474039Y-48277963D01*
X62524038Y-47877961D02*
X61573961Y-47877961D01*
X62760501Y-43964501D02*
X67287499Y-43964501D01*
X62760501Y-47602800D02*
X62760501Y-47215400D01*
X65611400Y-43964501D02*
X65224000Y-43964501D01*
X68474039Y-47077963D02*
X67523962Y-47077963D01*
X64174037Y-43728038D02*
X64174037Y-42777961D01*
X66574038Y-43728038D02*
X66574038Y-42777961D01*
X64574039Y-49678039D02*
X64574039Y-48727962D01*
X61573961Y-44277963D02*
X61573961Y-44578039D01*
X67523962Y-46978039D02*
X68474039Y-46978039D01*
X64974038Y-42777961D02*
X64673963Y-42777961D01*
X64974038Y-48727962D02*
X64673963Y-48727962D01*
X67523962Y-46578037D02*
X68474039Y-46578037D01*
X67523962Y-44978038D02*
X68474039Y-44978038D01*
X68474039Y-48277963D02*
X67523962Y-48277963D01*
X66574038Y-48727962D02*
X66273962Y-48727962D01*
X68474039Y-44178037D02*
X68474039Y-43877962D01*
X64574039Y-43728038D02*
X64574039Y-42777961D01*
X67287499Y-44853200D02*
X67287499Y-45240600D01*
X64824000Y-48491499D02*
X64824000Y-43964501D01*
X68474039Y-46178038D02*
X68474039Y-45877963D01*
X67523962Y-44178037D02*
X68474039Y-44178037D01*
X65774037Y-48727962D02*
X65473961Y-48727962D01*
X67287499Y-48491499D02*
X62760501Y-48491499D01*
X62760501Y-48491499D02*
X62760501Y-48002800D01*
X61573961Y-47378038D02*
X62524038Y-47378038D01*
X62673962Y-42777961D02*
X62673962Y-43728038D01*
X62524038Y-46578037D02*
X62524038Y-46277962D01*
X62524038Y-45378037D02*
X62524038Y-45077962D01*
X68474039Y-45378037D02*
X68474039Y-45077962D01*
X65473961Y-48727962D02*
X65473961Y-49678039D01*
X64974038Y-43728038D02*
X64974038Y-42777961D01*
X64436600Y-43964501D02*
X64436600Y-48491499D01*
X62524038Y-44178037D02*
X62524038Y-43877962D01*
X66273962Y-48727962D02*
X66273962Y-49678039D01*
X66673961Y-49678039D02*
X66974037Y-49678039D01*
X67523962Y-45077962D02*
X67523962Y-45378037D01*
X62760501Y-43964501D02*
X63249200Y-43964501D01*
X62524038Y-48578038D02*
X62524038Y-48277963D01*
X67374038Y-48727962D02*
X67073963Y-48727962D01*
X68474039Y-46677961D02*
X67523962Y-46677961D01*
X62524038Y-47378038D02*
X62524038Y-47077963D01*
X62760501Y-48491499D02*
X62760501Y-43964501D01*
X64574039Y-48727962D02*
X64273961Y-48727962D01*
X63473962Y-49678039D02*
X63774038Y-49678039D01*
X66574038Y-42777961D02*
X66273962Y-42777961D01*
X63473962Y-48727962D02*
X63473962Y-49678039D01*
X62524038Y-47077963D02*
X61573961Y-47077963D01*
X62760501Y-44853200D02*
X67287499Y-44853200D01*
X65224000Y-48491499D02*
X65611400Y-48491499D01*
X67287499Y-47602800D02*
X62760501Y-47602800D01*
X66974037Y-42777961D02*
X66673961Y-42777961D01*
X63873962Y-43728038D02*
X64174037Y-43728038D01*
X63649200Y-48491499D02*
X64036600Y-48491499D01*
X67073963Y-49678039D02*
X67374038Y-49678039D01*
X63073963Y-48727962D02*
X63073963Y-49678039D01*
X64273961Y-49678039D02*
X64574039Y-49678039D01*
X61573961Y-45378037D02*
X62524038Y-45378037D01*
X65374037Y-49678039D02*
X65374037Y-48727962D01*
X62524038Y-45778039D02*
X62524038Y-45477961D01*
X68474039Y-47477962D02*
X67523962Y-47477962D01*
X65473961Y-42777961D02*
X65473961Y-43728038D01*
X68474039Y-43877962D02*
X67523962Y-43877962D01*
X65873963Y-42777961D02*
X65873963Y-43728038D01*
D10*
X25000000Y-62500000D02*
X25000000Y-11500000D01*
X27000000Y-64500000D02*
X81300000Y-64485786D01*
X125000000Y-11500000D02*
X125000000Y-62500000D01*
X27000000Y-9500000D02*
X123000000Y-9500000D01*
X27000000Y-9500000D02*
G75*
G03*
X25000000Y-11500000I0J-2000000D01*
G01*
X85300000Y-57600000D02*
G75*
G03*
X83300000Y-59600000I0J-2000000D01*
G01*
X83300000Y-62485786D02*
X83300000Y-59600000D01*
X81300000Y-64485800D02*
G75*
G03*
X83300000Y-62485786I0J2000000D01*
G01*
X110666214Y-62485786D02*
G75*
G03*
X112666214Y-64485786I1999986J-14D01*
G01*
X88700000Y-57600000D02*
X85300000Y-57600000D01*
X125000000Y-11500000D02*
G75*
G03*
X123000000Y-9500000I-2000000J0D01*
G01*
X25000000Y-62500000D02*
G75*
G03*
X27000000Y-64500000I2000000J0D01*
G01*
X110666214Y-62485786D02*
X110685791Y-59614213D01*
X123000000Y-64500000D02*
G75*
G03*
X125000000Y-62500000I0J2000000D01*
G01*
X112666214Y-64485786D02*
X123000000Y-64500000D01*
X110685787Y-59614213D02*
G75*
G03*
X108685791Y-57614213I-1999987J13D01*
G01*
X108685791Y-57614213D02*
X88700000Y-57600000D01*
D11*
X62524038Y-48178037D02*
X62524038Y-47877961D01*
X61573961Y-44978038D02*
X62524038Y-44978038D01*
X66273962Y-49678039D02*
X66574038Y-49678039D01*
X62974037Y-49678039D02*
X62974037Y-48727962D01*
X63073963Y-42777961D02*
X63073963Y-43728038D01*
X65374037Y-48727962D02*
X65073962Y-48727962D01*
X68474039Y-45778039D02*
X68474039Y-45477963D01*
X62760501Y-46028000D02*
X62760501Y-45640600D01*
X67073963Y-48727962D02*
X67073963Y-49678039D01*
X67287499Y-48491499D02*
X66798800Y-48491499D01*
X63473962Y-43728038D02*
X63774038Y-43728038D01*
X62974037Y-42777961D02*
X62673962Y-42777961D01*
X64673963Y-48727962D02*
X64673963Y-49678039D01*
X66174038Y-48727962D02*
X65873963Y-48727962D01*
X67523962Y-47077963D02*
X67523962Y-47378038D01*
X64974038Y-49678039D02*
X64974038Y-48727962D01*
X67523962Y-48277963D02*
X67523962Y-48578038D01*
X65374037Y-42777961D02*
X65073962Y-42777961D01*
X66974037Y-43728038D02*
X66974037Y-42777961D01*
X65611400Y-48491499D02*
X65611400Y-43964501D01*
X68474039Y-47877961D02*
X67523962Y-47877961D01*
X63774038Y-49678039D02*
X63774038Y-48727962D01*
X67523962Y-46277962D02*
X67523962Y-46578037D01*
X67523962Y-44578039D02*
X68474039Y-44578039D01*
X62524038Y-44677962D02*
X61573961Y-44677962D01*
X65873963Y-43728038D02*
X66174038Y-43728038D01*
X62760501Y-48002800D02*
X67287499Y-48002800D01*
X61573961Y-47477962D02*
X61573961Y-47778038D01*
X61573961Y-47077963D02*
X61573961Y-47378038D01*
X61573961Y-46277962D02*
X61573961Y-46578037D01*
X66273962Y-42777961D02*
X66273962Y-43728038D01*
X65073962Y-48727962D02*
X65073962Y-49678039D01*
X68474039Y-44277963D02*
X67523962Y-44277963D01*
X64436600Y-48491499D02*
X64824000Y-48491499D01*
X63249200Y-43964501D02*
X63249200Y-48491499D01*
X61573961Y-44178037D02*
X62524038Y-44178037D01*
X62524038Y-45077962D02*
X61573961Y-45077962D01*
X66798800Y-43964501D02*
X67287499Y-43964501D01*
X66673961Y-42777961D02*
X66673961Y-43728038D01*
X61573961Y-44578039D02*
X62524038Y-44578039D01*
X67287499Y-43964501D02*
X67287499Y-48491499D01*
X68474039Y-46277962D02*
X67523962Y-46277962D01*
X68474039Y-47378038D02*
X68474039Y-47077963D01*
X64673963Y-49678039D02*
X64974038Y-49678039D01*
X68474039Y-46978039D02*
X68474039Y-46677961D01*
X62524038Y-44978038D02*
X62524038Y-44677962D01*
X64273961Y-48727962D02*
X64273961Y-49678039D01*
X62524038Y-45877963D02*
X61573961Y-45877963D01*
X67523962Y-47477962D02*
X67523962Y-47778038D01*
X67287499Y-48002800D02*
X67287499Y-48491499D01*
X62760501Y-46428000D02*
X67287499Y-46428000D01*
X62974037Y-48727962D02*
X62673962Y-48727962D01*
X62524038Y-45477961D02*
X61573961Y-45477961D01*
X63774038Y-42777961D02*
X63473962Y-42777961D01*
X67523962Y-43877962D02*
X67523962Y-44178037D01*
X66974037Y-49678039D02*
X66974037Y-48727962D01*
X61573961Y-46578037D02*
X62524038Y-46578037D01*
X66398800Y-48491499D02*
X66398800Y-43964501D01*
X67374038Y-43728038D02*
X67374038Y-42777961D01*
X64824000Y-43964501D02*
X64436600Y-43964501D01*
X68474039Y-46578037D02*
X68474039Y-46277962D01*
X62524038Y-44578039D02*
X62524038Y-44277963D01*
X65873963Y-49678039D02*
X66174038Y-49678039D01*
X63774038Y-43728038D02*
X63774038Y-42777961D01*
X61573961Y-47877961D02*
X61573961Y-48178037D01*
X62524038Y-47778038D02*
X62524038Y-47477962D01*
X62760501Y-47215400D02*
X67287499Y-47215400D01*
X61573961Y-44677962D02*
X61573961Y-44978038D01*
X67374038Y-49678039D02*
X67374038Y-48727962D01*
X68474039Y-47778038D02*
X68474039Y-47477962D01*
X63473962Y-42777961D02*
X63473962Y-43728038D01*
X62524038Y-46978037D02*
X62524038Y-46677961D01*
X66673961Y-43728038D02*
X66974037Y-43728038D01*
X68474039Y-45077962D02*
X67523962Y-45077962D01*
X65073962Y-49678039D02*
X65374037Y-49678039D01*
X65224000Y-43964501D02*
X65224000Y-48491499D01*
X64273963Y-42777961D02*
X64273963Y-43728038D01*
X62760501Y-45240600D02*
X62760501Y-44853200D01*
X63374039Y-48727962D02*
X63073963Y-48727962D01*
X63873962Y-49678039D02*
X64174037Y-49678039D01*
X67523962Y-47778038D02*
X68474039Y-47778038D01*
X63073963Y-43728038D02*
X63374039Y-43728038D01*
X66673961Y-48727962D02*
X66673961Y-49678039D01*
X63774038Y-48727962D02*
X63473962Y-48727962D01*
X63873962Y-48727962D02*
X63873962Y-49678039D01*
X66174038Y-49678039D02*
X66174038Y-48727962D01*
X67073963Y-42777961D02*
X67073963Y-43728038D01*
X67523962Y-45778039D02*
X68474039Y-45778039D01*
X66174038Y-42777961D02*
X65873963Y-42777961D01*
X65473961Y-43728038D02*
X65774039Y-43728038D01*
X62673962Y-48727962D02*
X62673962Y-49678039D01*
X61573961Y-45477961D02*
X61573961Y-45778039D01*
X66574038Y-49678039D02*
X66574038Y-48727962D01*
X65774039Y-42777961D02*
X65473961Y-42777961D01*
X61573961Y-48277963D02*
X61573961Y-48578038D01*
X68474039Y-44978038D02*
X68474039Y-44677962D01*
X61573961Y-46178038D02*
X62524038Y-46178038D01*
X67073963Y-43728038D02*
X67374038Y-43728038D01*
X64174037Y-49678039D02*
X64174037Y-48727962D01*
X67523962Y-45378037D02*
X68474039Y-45378037D01*
X61573961Y-43877962D02*
X61573961Y-44178037D01*
X66174038Y-43728038D02*
X66174038Y-42777961D01*
X67523962Y-46178038D02*
X68474039Y-46178038D01*
X67523962Y-44277963D02*
X67523962Y-44578039D01*
X67523962Y-48178037D02*
X68474039Y-48178037D01*
X62673962Y-49678039D02*
X62974037Y-49678039D01*
X66798800Y-48491499D02*
X66798800Y-43964501D01*
X67523962Y-47877961D02*
X67523962Y-48178037D01*
X66974037Y-48727962D02*
X66673961Y-48727962D01*
X66011400Y-48491499D02*
X66398800Y-48491499D01*
X64174037Y-48727962D02*
X63873962Y-48727962D01*
X67287499Y-46428000D02*
X67287499Y-46815400D01*
X62974037Y-43728038D02*
X62974037Y-42777961D01*
X63249200Y-48491499D02*
X62760501Y-48491499D01*
X66011400Y-43964501D02*
X66011400Y-48491499D01*
X62760501Y-46815400D02*
X62760501Y-46428000D01*
X64036600Y-48491499D02*
X64036600Y-43964501D01*
X62524038Y-46677961D02*
X61573961Y-46677961D01*
X67287499Y-45240600D02*
X62760501Y-45240600D01*
X65774037Y-49678039D02*
X65774037Y-48727962D01*
X64673963Y-43728038D02*
X64974038Y-43728038D01*
X63374039Y-49678039D02*
X63374039Y-48727962D01*
X64673963Y-42777961D02*
X64673963Y-43728038D01*
X64273963Y-43728038D02*
X64574039Y-43728038D01*
X66398800Y-43964501D02*
X66011400Y-43964501D01*
X63073963Y-49678039D02*
X63374039Y-49678039D01*
X67287499Y-46028000D02*
X62760501Y-46028000D01*
X62673962Y-43728038D02*
X62974037Y-43728038D01*
X61573961Y-48578038D02*
X62524038Y-48578038D01*
X61573961Y-46677961D02*
X61573961Y-46978037D01*
X65774039Y-43728038D02*
X65774039Y-42777961D01*
X68474039Y-44677962D02*
X67523962Y-44677962D01*
X62524038Y-43877962D02*
X61573961Y-43877962D01*
X65073962Y-42777961D02*
X65073962Y-43728038D01*
X68474039Y-45477963D02*
X67523962Y-45477963D01*
X61573961Y-46978037D02*
X62524038Y-46978037D01*
X66273962Y-43728038D02*
X66574038Y-43728038D01*
X65374037Y-43728038D02*
X65374037Y-42777961D01*
X67374038Y-42777961D02*
X67073963Y-42777961D01*
X62524038Y-48277963D02*
X61573961Y-48277963D01*
X67523962Y-44677962D02*
X67523962Y-44978038D01*
X67523962Y-47378038D02*
X68474039Y-47378038D01*
X62760501Y-45640600D02*
X67287499Y-45640600D01*
X63649200Y-43964501D02*
X63649200Y-48491499D01*
X62524038Y-46277962D02*
X61573961Y-46277962D01*
X65073962Y-43728038D02*
X65374037Y-43728038D01*
X67287499Y-43964501D02*
X67287499Y-44453200D01*
X61573961Y-45877963D02*
X61573961Y-46178038D01*
X67523962Y-46677961D02*
X67523962Y-46978039D01*
X62760501Y-44453200D02*
X62760501Y-43964501D01*
X63873962Y-42777961D02*
X63873962Y-43728038D01*
X68474039Y-44578039D02*
X68474039Y-44277963D01*
X65473961Y-49678039D02*
X65774037Y-49678039D01*
X63374039Y-42777961D02*
X63073963Y-42777961D01*
X62524038Y-47477962D02*
X61573961Y-47477962D01*
X68474039Y-45877963D02*
X67523962Y-45877963D01*
X67523962Y-45477963D02*
X67523962Y-45778039D01*
X67287499Y-45640600D02*
X67287499Y-46028000D01*
X64574039Y-42777961D02*
X64273963Y-42777961D01*
X63374039Y-43728038D02*
X63374039Y-42777961D01*
X61573961Y-48178037D02*
X62524038Y-48178037D01*
X62524038Y-46178038D02*
X62524038Y-45877963D01*
X67287499Y-44453200D02*
X62760501Y-44453200D01*
X64174037Y-42777961D02*
X63873962Y-42777961D01*
X67523962Y-45877963D02*
X67523962Y-46178038D01*
X62524038Y-44277963D02*
X61573961Y-44277963D01*
X68474039Y-48178037D02*
X68474039Y-47877961D01*
X61573961Y-45778039D02*
X62524038Y-45778039D01*
X61573961Y-45077962D02*
X61573961Y-45378037D01*
X64036600Y-43964501D02*
X63649200Y-43964501D01*
X67523962Y-48578038D02*
X68474039Y-48578038D01*
X67287499Y-47215400D02*
X67287499Y-47602800D01*
X61573961Y-47778038D02*
X62524038Y-47778038D01*
X65873963Y-48727962D02*
X65873963Y-49678039D01*
X67287499Y-46815400D02*
X62760501Y-46815400D01*
X68474039Y-48578038D02*
X68474039Y-48277963D01*
X62524038Y-47877961D02*
X61573961Y-47877961D01*
X62760501Y-43964501D02*
X67287499Y-43964501D01*
X62760501Y-47602800D02*
X62760501Y-47215400D01*
X65611400Y-43964501D02*
X65224000Y-43964501D01*
X68474039Y-47077963D02*
X67523962Y-47077963D01*
X64174037Y-43728038D02*
X64174037Y-42777961D01*
X66574038Y-43728038D02*
X66574038Y-42777961D01*
X64574039Y-49678039D02*
X64574039Y-48727962D01*
X61573961Y-44277963D02*
X61573961Y-44578039D01*
X67523962Y-46978039D02*
X68474039Y-46978039D01*
X64974038Y-42777961D02*
X64673963Y-42777961D01*
X64974038Y-48727962D02*
X64673963Y-48727962D01*
X67523962Y-46578037D02*
X68474039Y-46578037D01*
X67523962Y-44978038D02*
X68474039Y-44978038D01*
X68474039Y-48277963D02*
X67523962Y-48277963D01*
X66574038Y-48727962D02*
X66273962Y-48727962D01*
X68474039Y-44178037D02*
X68474039Y-43877962D01*
X64574039Y-43728038D02*
X64574039Y-42777961D01*
X67287499Y-44853200D02*
X67287499Y-45240600D01*
X64824000Y-48491499D02*
X64824000Y-43964501D01*
X68474039Y-46178038D02*
X68474039Y-45877963D01*
X67523962Y-44178037D02*
X68474039Y-44178037D01*
X65774037Y-48727962D02*
X65473961Y-48727962D01*
X67287499Y-48491499D02*
X62760501Y-48491499D01*
X62760501Y-48491499D02*
X62760501Y-48002800D01*
X61573961Y-47378038D02*
X62524038Y-47378038D01*
X62673962Y-42777961D02*
X62673962Y-43728038D01*
X62524038Y-46578037D02*
X62524038Y-46277962D01*
X62524038Y-45378037D02*
X62524038Y-45077962D01*
X68474039Y-45378037D02*
X68474039Y-45077962D01*
X65473961Y-48727962D02*
X65473961Y-49678039D01*
X64974038Y-43728038D02*
X64974038Y-42777961D01*
X64436600Y-43964501D02*
X64436600Y-48491499D01*
X62524038Y-44178037D02*
X62524038Y-43877962D01*
X66273962Y-48727962D02*
X66273962Y-49678039D01*
X66673961Y-49678039D02*
X66974037Y-49678039D01*
X67523962Y-45077962D02*
X67523962Y-45378037D01*
X62760501Y-43964501D02*
X63249200Y-43964501D01*
X62524038Y-48578038D02*
X62524038Y-48277963D01*
X67374038Y-48727962D02*
X67073963Y-48727962D01*
X68474039Y-46677961D02*
X67523962Y-46677961D01*
X62524038Y-47378038D02*
X62524038Y-47077963D01*
X62760501Y-48491499D02*
X62760501Y-43964501D01*
X64574039Y-48727962D02*
X64273961Y-48727962D01*
X63473962Y-49678039D02*
X63774038Y-49678039D01*
X66574038Y-42777961D02*
X66273962Y-42777961D01*
X63473962Y-48727962D02*
X63473962Y-49678039D01*
X62524038Y-47077963D02*
X61573961Y-47077963D01*
X62760501Y-44853200D02*
X67287499Y-44853200D01*
X65224000Y-48491499D02*
X65611400Y-48491499D01*
X67287499Y-47602800D02*
X62760501Y-47602800D01*
X66974037Y-42777961D02*
X66673961Y-42777961D01*
X63873962Y-43728038D02*
X64174037Y-43728038D01*
X63649200Y-48491499D02*
X64036600Y-48491499D01*
X67073963Y-49678039D02*
X67374038Y-49678039D01*
X63073963Y-48727962D02*
X63073963Y-49678039D01*
X64273961Y-49678039D02*
X64574039Y-49678039D01*
X61573961Y-45378037D02*
X62524038Y-45378037D01*
X65374037Y-49678039D02*
X65374037Y-48727962D01*
X62524038Y-45778039D02*
X62524038Y-45477961D01*
X68474039Y-47477962D02*
X67523962Y-47477962D01*
X65473961Y-42777961D02*
X65473961Y-43728038D01*
X68474039Y-43877962D02*
X67523962Y-43877962D01*
X65873963Y-42777961D02*
X65873963Y-43728038D01*
D12*
X105475000Y-56710000D03*
X105475000Y-55440000D03*
X105475000Y-54170000D03*
X105475000Y-52900000D03*
X105475000Y-51630000D03*
X105475000Y-50360000D03*
X105475000Y-49090000D03*
X105475000Y-47820000D03*
X105475000Y-46550000D03*
X105475000Y-45280000D03*
X105475000Y-44010000D03*
X105475000Y-42740000D03*
X105475000Y-41470000D03*
X105475000Y-40200000D03*
D13*
X103710000Y-38950000D03*
X102440000Y-38950000D03*
X101170000Y-38950000D03*
X99900000Y-38950000D03*
X98630000Y-38950000D03*
X97360000Y-38950000D03*
X96090000Y-38950000D03*
X94820000Y-38950000D03*
X93550000Y-38950000D03*
X92280000Y-38950000D03*
X91010000Y-38950000D03*
X89740000Y-38950000D03*
D14*
X87975000Y-40200000D03*
X87975000Y-41470000D03*
X87975000Y-42740000D03*
X87975000Y-44010000D03*
X87975000Y-45280000D03*
X87975000Y-46550000D03*
X87975000Y-47820000D03*
X87975000Y-49090000D03*
X87975000Y-50360000D03*
X87975000Y-51630000D03*
X87975000Y-52900000D03*
X87975000Y-54170000D03*
X87975000Y-55440000D03*
X87975000Y-56710000D03*
D15*
X98225000Y-48990000D03*
X96825000Y-48990000D03*
X99625000Y-48990000D03*
X96825000Y-50390000D03*
X98225000Y-50390000D03*
X99625000Y-47590000D03*
X98225000Y-47590000D03*
X96825000Y-47590000D03*
X99625000Y-50390000D03*
D16*
X116850000Y-27550000D03*
X116850000Y-50850000D03*
D17*
X113600000Y-29450000D03*
X113600000Y-29950000D03*
X113600000Y-30450000D03*
X113600000Y-30950000D03*
X113600000Y-31450000D03*
X113600000Y-31950000D03*
X113600000Y-32450000D03*
X113600000Y-32950000D03*
X113600000Y-33450000D03*
X113600000Y-33950000D03*
X113600000Y-34450000D03*
X113600000Y-34950000D03*
X113600000Y-35450000D03*
X113600000Y-35950000D03*
X113600000Y-36450000D03*
X113600000Y-36950000D03*
X113600000Y-37450000D03*
X113600000Y-37950000D03*
X113600000Y-38450000D03*
X113600000Y-38950000D03*
X113600000Y-39450000D03*
X113600000Y-39950000D03*
X113600000Y-40450000D03*
X113600000Y-40950000D03*
X113600000Y-41450000D03*
X113600000Y-41950000D03*
X113600000Y-42450000D03*
X113600000Y-42950000D03*
X113600000Y-43450000D03*
X113600000Y-43950000D03*
X113600000Y-44450000D03*
X113600000Y-44950000D03*
X113600000Y-45450000D03*
X113600000Y-45950000D03*
X113600000Y-46450000D03*
X113600000Y-46950000D03*
X113600000Y-47450000D03*
X113600000Y-47950000D03*
X113600000Y-48450000D03*
X113600000Y-48950000D03*
D18*
X73075000Y-25100000D03*
X74725000Y-25100000D03*
D19*
X122500000Y-12000000D03*
D20*
X50850000Y-23225000D03*
X52750000Y-23225000D03*
X51800000Y-21225000D03*
D21*
X50900000Y-24900000D03*
X50900000Y-26550000D03*
D22*
X52500000Y-26550000D03*
X52500000Y-24900000D03*
D23*
X52650000Y-28200000D03*
X50750000Y-28200000D03*
X51700000Y-30200000D03*
D24*
X79700000Y-46800000D03*
X77800000Y-46800000D03*
D25*
X34600000Y-55800000D03*
X34600000Y-57700000D03*
D26*
X39458000Y-59662000D03*
X39458000Y-61537000D03*
D21*
X37150000Y-56175000D03*
X37150000Y-57825000D03*
X39458000Y-56175000D03*
X39458000Y-57825000D03*
D26*
X37045000Y-59662000D03*
X37045000Y-61537000D03*
D27*
X113200000Y-60850000D03*
X113200000Y-58950000D03*
X34600000Y-61500000D03*
X34600000Y-59600000D03*
D24*
X74610000Y-52070000D03*
X72710000Y-52070000D03*
D25*
X118300000Y-54350000D03*
X118300000Y-56250000D03*
D28*
X118700000Y-63000000D03*
X115750000Y-63000000D03*
D29*
X121697000Y-21030000D03*
X123597000Y-21030000D03*
D30*
X120525000Y-55500000D03*
X123475000Y-55500000D03*
D29*
X121700000Y-24957000D03*
X123600000Y-24957000D03*
D31*
X60225000Y-23400000D03*
X58575000Y-23400000D03*
D22*
X72081200Y-56671600D03*
X72081200Y-55021600D03*
D31*
X118050000Y-61000000D03*
X116400000Y-61000000D03*
D18*
X122000000Y-19100000D03*
X123650000Y-19100000D03*
X120475000Y-57700000D03*
X122125000Y-57700000D03*
X122075000Y-22925000D03*
X123725000Y-22925000D03*
D21*
X74113200Y-55021600D03*
X74113200Y-56671600D03*
D32*
X70225000Y-23100000D03*
X69575000Y-23100000D03*
X68925000Y-23100000D03*
X68275000Y-23100000D03*
X67625000Y-23100000D03*
X66975000Y-23100000D03*
X66325000Y-23100000D03*
X65675000Y-23100000D03*
X65025000Y-23100000D03*
X64375000Y-23100000D03*
X63725000Y-23100000D03*
X63075000Y-23100000D03*
X63075000Y-28825000D03*
X63725000Y-28825000D03*
X64375000Y-28825000D03*
X65025000Y-28825000D03*
X65675000Y-28825000D03*
X66325000Y-28825000D03*
X66975000Y-28825000D03*
X67625000Y-28825000D03*
X68275000Y-28825000D03*
X68925000Y-28825000D03*
X69575000Y-28825000D03*
X70225000Y-28825000D03*
D25*
X71120000Y-36896000D03*
X71120000Y-38796000D03*
D33*
X115500000Y-56737500D03*
X115500000Y-53662500D03*
D29*
X72710000Y-40640000D03*
X74610000Y-40640000D03*
D31*
X53657000Y-46482000D03*
X52007000Y-46482000D03*
D34*
X60706000Y-57653000D03*
X60706000Y-53853000D03*
D35*
X57658000Y-39334000D03*
X57658000Y-34834000D03*
D31*
X50355000Y-48768000D03*
X48705000Y-48768000D03*
X53657000Y-48768000D03*
X52007000Y-48768000D03*
X50355000Y-46482000D03*
X48705000Y-46482000D03*
D27*
X64262000Y-60259000D03*
X64262000Y-58359000D03*
X69088000Y-55306000D03*
X69088000Y-53406000D03*
D24*
X57338000Y-45466000D03*
X55438000Y-45466000D03*
D29*
X55438000Y-48260000D03*
X57338000Y-48260000D03*
D25*
X112700000Y-54450000D03*
X112700000Y-56350000D03*
D36*
X67999000Y-48428001D03*
X67999000Y-48027999D03*
X67999000Y-47628000D03*
X67999000Y-47228001D03*
X67999000Y-46827999D03*
X67999000Y-46428000D03*
X67999000Y-46028000D03*
X67999000Y-45628001D03*
X67999000Y-45227999D03*
X67999000Y-44828000D03*
X67999000Y-44428001D03*
X67999000Y-44027999D03*
D37*
X67224001Y-43253000D03*
X66823999Y-43253000D03*
X66424000Y-43253000D03*
X66024001Y-43253000D03*
X65623999Y-43253000D03*
X65224000Y-43253000D03*
X64824000Y-43253000D03*
X64424001Y-43253000D03*
X64023999Y-43253000D03*
X63624000Y-43253000D03*
X63224001Y-43253000D03*
X62823999Y-43253000D03*
D36*
X62049000Y-44027999D03*
X62049000Y-44428001D03*
X62049000Y-44828000D03*
X62049000Y-45227999D03*
X62049000Y-45628001D03*
X62049000Y-46028000D03*
X62049000Y-46428000D03*
X62049000Y-46827999D03*
X62049000Y-47228001D03*
X62049000Y-47628000D03*
X62049000Y-48027999D03*
X62049000Y-48428001D03*
D37*
X62823999Y-49203000D03*
X63224001Y-49203000D03*
X63624000Y-49203000D03*
X64023999Y-49203000D03*
X64424001Y-49203000D03*
X64824000Y-49203000D03*
X65224000Y-49203000D03*
X65623999Y-49203000D03*
X66024001Y-49203000D03*
X66424000Y-49203000D03*
X66823999Y-49203000D03*
X67224001Y-49203000D03*
D38*
X65811400Y-46228000D03*
X63449200Y-46228000D03*
X65811400Y-44653200D03*
X66598800Y-46228000D03*
X65024000Y-45440600D03*
X65024000Y-44653200D03*
D39*
X65024000Y-46228000D03*
D38*
X64236600Y-45440600D03*
X66598800Y-47802800D03*
X63449200Y-47015400D03*
X65811400Y-45440600D03*
X64236600Y-44653200D03*
X65024000Y-47015400D03*
X64236600Y-47015400D03*
X66598800Y-45440600D03*
X65024000Y-46228000D03*
X65811400Y-47802800D03*
X63449200Y-45440600D03*
X64236600Y-47802800D03*
X64236600Y-46228000D03*
X65024000Y-47802800D03*
X63449200Y-44653200D03*
X65811400Y-47015400D03*
X66598800Y-44653200D03*
X63449200Y-47802800D03*
X66598800Y-47015400D03*
D24*
X74610000Y-49784000D03*
X72710000Y-49784000D03*
D27*
X61722000Y-39812000D03*
X61722000Y-37912000D03*
D24*
X74610000Y-42926000D03*
X72710000Y-42926000D03*
D40*
X50800000Y-50674000D03*
X50800000Y-53974000D03*
D41*
X53340000Y-53974000D03*
X53340000Y-50674000D03*
D40*
X50800000Y-41530000D03*
X50800000Y-44830000D03*
D41*
X53340000Y-44830000D03*
X53340000Y-41530000D03*
D29*
X46548000Y-44450000D03*
X48448000Y-44450000D03*
D27*
X66548000Y-38796000D03*
X66548000Y-36896000D03*
D29*
X72710000Y-47498000D03*
X74610000Y-47498000D03*
X55438000Y-43053000D03*
X57338000Y-43053000D03*
D27*
X68834000Y-38796000D03*
X68834000Y-36896000D03*
D29*
X55438000Y-50673000D03*
X57338000Y-50673000D03*
D24*
X48448000Y-50800000D03*
X46548000Y-50800000D03*
X74610000Y-45224700D03*
X72710000Y-45224700D03*
D27*
X66929000Y-55306000D03*
X66929000Y-53406000D03*
D41*
X64389000Y-56641000D03*
X64389000Y-53341000D03*
D29*
X77850000Y-39900000D03*
X79750000Y-39900000D03*
X121650000Y-17221000D03*
X123550000Y-17221000D03*
D18*
X122000000Y-15321000D03*
X123650000Y-15321000D03*
D40*
X64262000Y-35688000D03*
X64262000Y-38988000D03*
D21*
X32621000Y-59675000D03*
X32621000Y-61325000D03*
X32621000Y-56401000D03*
X32621000Y-58051000D03*
D25*
X51750000Y-35050000D03*
X51750000Y-36950000D03*
D27*
X56642000Y-55306000D03*
X56642000Y-53406000D03*
D42*
X52000000Y-60500000D03*
X44000000Y-60500000D03*
X56000000Y-60500000D03*
X70000000Y-60500000D03*
D19*
X122500000Y-62000000D03*
D29*
X72950000Y-30600000D03*
X74850000Y-30600000D03*
D21*
X110700000Y-54775000D03*
X110700000Y-56425000D03*
D31*
X74725000Y-28600000D03*
X73075000Y-28600000D03*
X74725000Y-26800000D03*
X73075000Y-26800000D03*
D18*
X58575000Y-26600000D03*
X60225000Y-26600000D03*
X58575000Y-25000000D03*
X60225000Y-25000000D03*
D42*
X48000000Y-60500000D03*
D43*
X37305000Y-47441000D03*
X36035000Y-47441000D03*
X34765000Y-47441000D03*
X33495000Y-47441000D03*
X33495000Y-52841000D03*
X34765000Y-52841000D03*
X36035000Y-52841000D03*
X37305000Y-52841000D03*
D44*
X35400000Y-50141000D03*
D41*
X35700000Y-42850000D03*
X35700000Y-39550000D03*
D31*
X37175000Y-45150000D03*
X35525000Y-45150000D03*
D19*
X27500000Y-62000000D03*
D45*
X27350000Y-49275000D03*
D46*
X27350000Y-51815000D03*
D47*
X43337500Y-39750000D03*
X43337500Y-37850000D03*
X41062500Y-38800000D03*
D48*
X37550000Y-28462500D03*
D49*
X37475000Y-29000000D03*
D48*
X37550000Y-29537500D03*
X39250000Y-29537500D03*
D49*
X39325000Y-29000000D03*
D48*
X39250000Y-28462500D03*
D29*
X37450000Y-32500000D03*
X39350000Y-32500000D03*
D50*
X116750000Y-21600000D03*
X96250000Y-21600000D03*
D51*
X114750000Y-24600000D03*
X114250000Y-24600000D03*
X113750000Y-24600000D03*
X113250000Y-24600000D03*
X112750000Y-24600000D03*
X112250000Y-24600000D03*
X111750000Y-24600000D03*
X111250000Y-24600000D03*
X110750000Y-24600000D03*
X110250000Y-24600000D03*
X109750000Y-24600000D03*
X109250000Y-24600000D03*
X108750000Y-24600000D03*
X108250000Y-24600000D03*
X107750000Y-24600000D03*
X107250000Y-24600000D03*
X106750000Y-24600000D03*
X106250000Y-24600000D03*
X105750000Y-24600000D03*
X105250000Y-24600000D03*
X104750000Y-24600000D03*
X104250000Y-24600000D03*
X103750000Y-24600000D03*
X103250000Y-24600000D03*
X102750000Y-24600000D03*
X102250000Y-24600000D03*
X101750000Y-24600000D03*
X101250000Y-24600000D03*
X100750000Y-24600000D03*
X100250000Y-24600000D03*
X99750000Y-24600000D03*
X99250000Y-24600000D03*
X98750000Y-24600000D03*
X98250000Y-24600000D03*
D52*
X31012500Y-41500000D03*
X31012500Y-43400000D03*
X32887500Y-42450000D03*
D53*
X80772000Y-54722000D03*
X80772000Y-56022000D03*
D25*
X88300000Y-21050000D03*
X88300000Y-22950000D03*
D54*
X27100000Y-20375000D03*
D46*
X27100000Y-17835000D03*
D55*
X87055000Y-26125000D03*
X85785000Y-26125000D03*
X84515000Y-26125000D03*
X83245000Y-26125000D03*
X83245000Y-31075000D03*
X84515000Y-31075000D03*
X85785000Y-31075000D03*
X87055000Y-31075000D03*
D22*
X37600000Y-25825000D03*
X37600000Y-24175000D03*
D31*
X31075000Y-38900000D03*
X29425000Y-38900000D03*
X74725000Y-23350000D03*
X73075000Y-23350000D03*
D56*
X79750000Y-42262500D03*
X78800000Y-42262500D03*
X77850000Y-42262500D03*
X77850000Y-44537500D03*
X79750000Y-44537500D03*
D57*
X114799999Y-14765650D03*
X114300000Y-14765650D03*
X113799999Y-14765650D03*
X113300000Y-14765650D03*
X112799998Y-14765650D03*
X112299999Y-14765650D03*
X111800000Y-14765650D03*
X111299999Y-14765650D03*
X110800000Y-14765650D03*
X110299998Y-14765650D03*
X109799999Y-14765650D03*
X109300000Y-14765650D03*
X108799999Y-14765650D03*
X108300000Y-14765650D03*
X107799998Y-14765650D03*
X107299999Y-14765650D03*
X106800000Y-14765650D03*
X106299998Y-14765650D03*
X105799999Y-14765650D03*
X105300000Y-14765650D03*
X104799999Y-14765650D03*
X104300000Y-14765650D03*
X103799998Y-14765650D03*
X103299999Y-14765650D03*
X102800000Y-14765650D03*
X102299999Y-14765650D03*
X101800000Y-14765650D03*
X101299998Y-14765650D03*
X100799999Y-14765650D03*
X100300000Y-14765650D03*
X99799999Y-14765650D03*
X99300000Y-14765650D03*
X98799998Y-14765650D03*
D58*
X97148000Y-10752450D03*
X116452000Y-10752450D03*
D25*
X81800000Y-21050000D03*
X81800000Y-22950000D03*
D21*
X81500000Y-27650000D03*
X81500000Y-29300000D03*
D24*
X43250000Y-41700000D03*
X41350000Y-41700000D03*
D27*
X30600000Y-58400000D03*
X30600000Y-56500000D03*
D53*
X82500000Y-50350000D03*
X82500000Y-51650000D03*
D54*
X122936000Y-50800000D03*
D46*
X122936000Y-48260000D03*
X122936000Y-45720000D03*
X122936000Y-43180000D03*
X122936000Y-40640000D03*
X122936000Y-38100000D03*
X122936000Y-35560000D03*
X122936000Y-33020000D03*
X122936000Y-30480000D03*
X122936000Y-27940000D03*
D21*
X37600000Y-35475000D03*
X37600000Y-37125000D03*
D59*
X66000000Y-11300000D03*
D46*
X68540000Y-11300000D03*
X71080000Y-11300000D03*
X73620000Y-11300000D03*
X76160000Y-11300000D03*
X78700000Y-11300000D03*
X81240000Y-11300000D03*
X83780000Y-11300000D03*
X86320000Y-11300000D03*
X88860000Y-11300000D03*
X91400000Y-11300000D03*
X93940000Y-11300000D03*
D59*
X31875000Y-11300000D03*
D46*
X34415000Y-11300000D03*
X36955000Y-11300000D03*
X39495000Y-11300000D03*
X42035000Y-11300000D03*
X44575000Y-11300000D03*
X47115000Y-11300000D03*
X49655000Y-11300000D03*
X52195000Y-11300000D03*
X54735000Y-11300000D03*
X57275000Y-11300000D03*
X59815000Y-11300000D03*
X62355000Y-11300000D03*
D19*
X27500000Y-12000000D03*
D25*
X89400000Y-29450000D03*
X89400000Y-31350000D03*
D60*
X42425000Y-22755000D03*
X42425000Y-24025000D03*
X42425000Y-25295000D03*
X42425000Y-26565000D03*
X42425000Y-27835000D03*
X42425000Y-29105000D03*
X42425000Y-30375000D03*
X42425000Y-31645000D03*
X47375000Y-31645000D03*
X47375000Y-30375000D03*
X47375000Y-29105000D03*
X47375000Y-27835000D03*
X47375000Y-26565000D03*
X47375000Y-25295000D03*
X47375000Y-24025000D03*
X47375000Y-22755000D03*
D61*
X31740000Y-33190000D03*
X31740000Y-27410000D03*
D62*
X33185000Y-27050000D03*
X33185000Y-27850000D03*
D63*
X33185000Y-29050000D03*
X33185000Y-30050000D03*
X33185000Y-30550000D03*
X33185000Y-31550000D03*
D62*
X33185000Y-32750000D03*
X33185000Y-33550000D03*
X33185000Y-33550000D03*
X33185000Y-32750000D03*
D63*
X33185000Y-32050000D03*
X33185000Y-31050000D03*
X33185000Y-29550000D03*
X33185000Y-28550000D03*
D62*
X33185000Y-27850000D03*
X33185000Y-27050000D03*
D64*
X28090000Y-34620000D03*
D65*
X32270000Y-25980000D03*
D64*
X28090000Y-25980000D03*
D65*
X32270000Y-34620000D03*
D29*
X41250000Y-35900000D03*
X43150000Y-35900000D03*
D41*
X28500000Y-44250000D03*
X28500000Y-40950000D03*
D66*
X86300000Y-22550000D03*
X83800000Y-22550000D03*
G36*
X81538668Y-55268665D02*
G01*
X81539058Y-55270627D01*
X81538699Y-55271267D01*
X81495511Y-55322946D01*
X81486880Y-55391661D01*
X81516844Y-55454291D01*
X81537682Y-55472348D01*
X81538336Y-55474238D01*
X81537026Y-55475749D01*
X81535982Y-55475821D01*
X81521801Y-55473000D01*
X80022199Y-55473000D01*
X80007226Y-55475978D01*
X80005332Y-55475335D01*
X80004942Y-55473373D01*
X80005301Y-55472733D01*
X80048489Y-55421054D01*
X80057120Y-55352339D01*
X80027156Y-55289709D01*
X80006318Y-55271652D01*
X80005664Y-55269762D01*
X80006974Y-55268251D01*
X80008018Y-55268179D01*
X80022199Y-55271000D01*
X81521801Y-55271000D01*
X81536774Y-55268022D01*
X81538668Y-55268665D01*
G37*
G36*
X83266668Y-50896665D02*
G01*
X83267058Y-50898627D01*
X83266699Y-50899267D01*
X83223511Y-50950946D01*
X83214880Y-51019661D01*
X83244844Y-51082291D01*
X83265682Y-51100348D01*
X83266336Y-51102238D01*
X83265026Y-51103749D01*
X83263982Y-51103821D01*
X83249801Y-51101000D01*
X81750199Y-51101000D01*
X81735226Y-51103978D01*
X81733332Y-51103335D01*
X81732942Y-51101373D01*
X81733301Y-51100733D01*
X81776489Y-51049054D01*
X81785120Y-50980339D01*
X81755156Y-50917709D01*
X81734318Y-50899652D01*
X81733664Y-50897762D01*
X81734974Y-50896251D01*
X81736018Y-50896179D01*
X81750199Y-50899000D01*
X83249801Y-50899000D01*
X83264774Y-50896022D01*
X83266668Y-50896665D01*
G37*
G36*
X63888632Y-48741516D02*
G01*
X63889196Y-48743434D01*
X63888915Y-48744074D01*
X63878766Y-48759262D01*
X63874999Y-48778199D01*
X63874999Y-49627801D01*
X63878766Y-49646738D01*
X63888813Y-49661773D01*
X63888944Y-49663768D01*
X63887281Y-49664880D01*
X63886552Y-49664793D01*
X63826214Y-49645898D01*
X63761310Y-49664956D01*
X63759367Y-49664484D01*
X63758803Y-49662565D01*
X63759084Y-49661926D01*
X63769233Y-49646738D01*
X63773000Y-49627801D01*
X63773000Y-48778199D01*
X63769233Y-48759262D01*
X63759186Y-48744227D01*
X63759055Y-48742232D01*
X63760718Y-48741120D01*
X63761447Y-48741207D01*
X63821788Y-48760102D01*
X63886689Y-48741044D01*
X63888632Y-48741516D01*
G37*
G36*
X66288633Y-48741516D02*
G01*
X66289197Y-48743434D01*
X66288916Y-48744074D01*
X66278767Y-48759262D01*
X66275000Y-48778199D01*
X66275000Y-49627801D01*
X66278767Y-49646738D01*
X66288814Y-49661773D01*
X66288945Y-49663768D01*
X66287282Y-49664880D01*
X66286553Y-49664793D01*
X66226215Y-49645898D01*
X66161311Y-49664956D01*
X66159368Y-49664484D01*
X66158804Y-49662565D01*
X66159085Y-49661926D01*
X66169234Y-49646738D01*
X66173001Y-49627801D01*
X66173001Y-48778199D01*
X66169234Y-48759262D01*
X66159187Y-48744227D01*
X66159056Y-48742232D01*
X66160719Y-48741120D01*
X66161448Y-48741207D01*
X66221789Y-48760102D01*
X66286690Y-48741044D01*
X66288633Y-48741516D01*
G37*
G36*
X66688632Y-48741516D02*
G01*
X66689196Y-48743434D01*
X66688915Y-48744074D01*
X66678766Y-48759262D01*
X66674999Y-48778199D01*
X66674999Y-49627801D01*
X66678766Y-49646738D01*
X66688813Y-49661773D01*
X66688944Y-49663768D01*
X66687281Y-49664880D01*
X66686552Y-49664793D01*
X66626214Y-49645898D01*
X66561310Y-49664956D01*
X66559367Y-49664484D01*
X66558803Y-49662565D01*
X66559084Y-49661926D01*
X66569233Y-49646738D01*
X66573000Y-49627801D01*
X66573000Y-48778199D01*
X66569233Y-48759262D01*
X66559186Y-48744227D01*
X66559055Y-48742232D01*
X66560718Y-48741120D01*
X66561447Y-48741207D01*
X66621788Y-48760102D01*
X66686689Y-48741044D01*
X66688632Y-48741516D01*
G37*
G36*
X65488632Y-48741516D02*
G01*
X65489196Y-48743434D01*
X65488915Y-48744074D01*
X65478766Y-48759262D01*
X65474999Y-48778199D01*
X65474999Y-49627801D01*
X65478766Y-49646738D01*
X65488813Y-49661773D01*
X65488944Y-49663768D01*
X65487281Y-49664880D01*
X65486552Y-49664793D01*
X65426214Y-49645898D01*
X65361310Y-49664956D01*
X65359367Y-49664484D01*
X65358803Y-49662565D01*
X65359084Y-49661926D01*
X65369233Y-49646738D01*
X65373000Y-49627801D01*
X65373000Y-48778199D01*
X65369233Y-48759262D01*
X65359186Y-48744227D01*
X65359055Y-48742232D01*
X65360718Y-48741120D01*
X65361447Y-48741207D01*
X65421788Y-48760102D01*
X65486689Y-48741044D01*
X65488632Y-48741516D01*
G37*
G36*
X64688633Y-48741516D02*
G01*
X64689197Y-48743434D01*
X64688916Y-48744074D01*
X64678767Y-48759262D01*
X64675000Y-48778199D01*
X64675000Y-49627801D01*
X64678767Y-49646738D01*
X64688814Y-49661773D01*
X64688945Y-49663768D01*
X64687282Y-49664880D01*
X64686553Y-49664793D01*
X64626215Y-49645898D01*
X64561311Y-49664956D01*
X64559368Y-49664484D01*
X64558804Y-49662565D01*
X64559085Y-49661926D01*
X64569234Y-49646738D01*
X64573001Y-49627801D01*
X64573001Y-48778199D01*
X64569234Y-48759262D01*
X64559187Y-48744227D01*
X64559056Y-48742232D01*
X64560719Y-48741120D01*
X64561448Y-48741207D01*
X64621789Y-48760102D01*
X64686690Y-48741044D01*
X64688633Y-48741516D01*
G37*
G36*
X63488633Y-48741516D02*
G01*
X63489197Y-48743434D01*
X63488916Y-48744074D01*
X63478767Y-48759262D01*
X63475000Y-48778199D01*
X63475000Y-49627801D01*
X63478767Y-49646738D01*
X63488814Y-49661773D01*
X63488945Y-49663768D01*
X63487282Y-49664880D01*
X63486553Y-49664793D01*
X63426215Y-49645898D01*
X63361311Y-49664956D01*
X63359368Y-49664484D01*
X63358804Y-49662565D01*
X63359085Y-49661926D01*
X63369234Y-49646738D01*
X63373001Y-49627801D01*
X63373001Y-48778199D01*
X63369234Y-48759262D01*
X63359187Y-48744227D01*
X63359056Y-48742232D01*
X63360719Y-48741120D01*
X63361448Y-48741207D01*
X63421789Y-48760102D01*
X63486690Y-48741044D01*
X63488633Y-48741516D01*
G37*
G36*
X65088633Y-48741517D02*
G01*
X65089197Y-48743436D01*
X65088916Y-48744075D01*
X65078767Y-48759263D01*
X65075000Y-48778199D01*
X65075000Y-49627801D01*
X65078767Y-49646738D01*
X65088814Y-49661773D01*
X65088945Y-49663768D01*
X65087282Y-49664880D01*
X65086553Y-49664793D01*
X65026212Y-49645898D01*
X64961310Y-49664955D01*
X64959367Y-49664483D01*
X64958803Y-49662564D01*
X64959084Y-49661925D01*
X64969233Y-49646737D01*
X64973000Y-49627801D01*
X64973000Y-48778199D01*
X64969233Y-48759262D01*
X64959186Y-48744227D01*
X64959055Y-48742232D01*
X64960718Y-48741120D01*
X64961447Y-48741207D01*
X65021788Y-48760102D01*
X65086690Y-48741045D01*
X65088633Y-48741517D01*
G37*
G36*
X65888633Y-48741518D02*
G01*
X65889197Y-48743437D01*
X65888916Y-48744076D01*
X65878768Y-48759262D01*
X65875001Y-48778199D01*
X65875001Y-49627801D01*
X65878768Y-49646737D01*
X65888814Y-49661771D01*
X65888945Y-49663766D01*
X65887282Y-49664878D01*
X65886553Y-49664791D01*
X65826213Y-49645897D01*
X65761310Y-49664954D01*
X65759367Y-49664482D01*
X65758803Y-49662563D01*
X65759084Y-49661924D01*
X65769232Y-49646738D01*
X65772999Y-49627801D01*
X65772999Y-48778199D01*
X65769232Y-48759263D01*
X65759186Y-48744229D01*
X65759055Y-48742234D01*
X65760718Y-48741122D01*
X65761447Y-48741209D01*
X65821787Y-48760103D01*
X65886690Y-48741046D01*
X65888633Y-48741518D01*
G37*
G36*
X67088633Y-48741518D02*
G01*
X67089197Y-48743437D01*
X67088916Y-48744076D01*
X67078768Y-48759262D01*
X67075001Y-48778199D01*
X67075001Y-49627801D01*
X67078768Y-49646737D01*
X67088814Y-49661771D01*
X67088945Y-49663766D01*
X67087282Y-49664878D01*
X67086553Y-49664791D01*
X67026213Y-49645897D01*
X66961310Y-49664954D01*
X66959367Y-49664482D01*
X66958803Y-49662563D01*
X66959084Y-49661924D01*
X66969232Y-49646738D01*
X66972999Y-49627801D01*
X66972999Y-48778199D01*
X66969232Y-48759263D01*
X66959186Y-48744229D01*
X66959055Y-48742234D01*
X66960718Y-48741122D01*
X66961447Y-48741209D01*
X67021787Y-48760103D01*
X67086690Y-48741046D01*
X67088633Y-48741518D01*
G37*
G36*
X64288633Y-48741518D02*
G01*
X64289197Y-48743437D01*
X64288916Y-48744076D01*
X64278768Y-48759262D01*
X64275001Y-48778199D01*
X64275001Y-49627801D01*
X64278768Y-49646737D01*
X64288814Y-49661771D01*
X64288945Y-49663766D01*
X64287282Y-49664878D01*
X64286553Y-49664791D01*
X64226213Y-49645897D01*
X64161310Y-49664954D01*
X64159367Y-49664482D01*
X64158803Y-49662563D01*
X64159084Y-49661924D01*
X64169232Y-49646738D01*
X64172999Y-49627801D01*
X64172999Y-48778199D01*
X64169232Y-48759263D01*
X64159186Y-48744229D01*
X64159055Y-48742234D01*
X64160718Y-48741122D01*
X64161447Y-48741209D01*
X64221787Y-48760103D01*
X64286690Y-48741046D01*
X64288633Y-48741518D01*
G37*
G36*
X63088633Y-48741518D02*
G01*
X63089197Y-48743437D01*
X63088916Y-48744076D01*
X63078768Y-48759262D01*
X63075001Y-48778199D01*
X63075001Y-49627801D01*
X63078768Y-49646737D01*
X63088814Y-49661771D01*
X63088945Y-49663766D01*
X63087282Y-49664878D01*
X63086553Y-49664791D01*
X63026213Y-49645897D01*
X62961310Y-49664954D01*
X62959367Y-49664482D01*
X62958803Y-49662563D01*
X62959084Y-49661924D01*
X62969232Y-49646738D01*
X62972999Y-49627801D01*
X62972999Y-48778199D01*
X62969232Y-48759263D01*
X62959186Y-48744229D01*
X62959055Y-48742234D01*
X62960718Y-48741122D01*
X62961447Y-48741209D01*
X63021787Y-48760103D01*
X63086690Y-48741046D01*
X63088633Y-48741518D01*
G37*
G36*
X112916075Y-48635084D02*
G01*
X112931263Y-48645233D01*
X112950199Y-48649000D01*
X114249801Y-48649000D01*
X114268738Y-48645233D01*
X114283773Y-48635186D01*
X114285768Y-48635055D01*
X114286880Y-48636718D01*
X114286793Y-48637447D01*
X114267898Y-48697788D01*
X114286955Y-48762690D01*
X114286483Y-48764633D01*
X114284564Y-48765197D01*
X114283925Y-48764916D01*
X114268737Y-48754767D01*
X114249801Y-48751000D01*
X112950199Y-48751000D01*
X112931262Y-48754767D01*
X112916227Y-48764814D01*
X112914232Y-48764945D01*
X112913120Y-48763282D01*
X112913207Y-48762553D01*
X112932102Y-48702212D01*
X112913045Y-48637310D01*
X112913517Y-48635367D01*
X112915436Y-48634803D01*
X112916075Y-48635084D01*
G37*
G36*
X64935768Y-48477999D02*
G01*
X64935768Y-48479999D01*
X64934599Y-48480918D01*
X64867585Y-48500596D01*
X64824059Y-48550828D01*
X64822169Y-48551482D01*
X64820925Y-48550688D01*
X64789375Y-48506932D01*
X64724691Y-48481480D01*
X64713924Y-48480999D01*
X64534326Y-48480999D01*
X64467587Y-48500595D01*
X64424060Y-48550829D01*
X64422170Y-48551483D01*
X64420926Y-48550689D01*
X64389375Y-48506932D01*
X64324690Y-48481480D01*
X64313924Y-48480999D01*
X64134324Y-48480999D01*
X64067585Y-48500595D01*
X64024058Y-48550829D01*
X64022168Y-48551483D01*
X64020924Y-48550689D01*
X63989373Y-48506932D01*
X63924688Y-48481480D01*
X63913922Y-48480999D01*
X63734326Y-48480999D01*
X63667587Y-48500595D01*
X63624059Y-48550830D01*
X63622169Y-48551484D01*
X63620925Y-48550690D01*
X63589372Y-48506932D01*
X63524688Y-48481480D01*
X63513922Y-48480999D01*
X63334327Y-48480999D01*
X63267588Y-48500595D01*
X63224060Y-48550830D01*
X63222170Y-48551484D01*
X63220926Y-48550690D01*
X63189373Y-48506932D01*
X63124689Y-48481480D01*
X63113923Y-48480999D01*
X62934326Y-48480999D01*
X62873079Y-48498982D01*
X62871435Y-48498746D01*
X62848378Y-48483928D01*
X62837932Y-48481361D01*
X62835920Y-48480961D01*
X62834416Y-48479642D01*
X62834806Y-48477680D01*
X62836310Y-48476999D01*
X64934036Y-48476999D01*
X64935768Y-48477999D01*
G37*
G36*
X61590076Y-48163084D02*
G01*
X61605262Y-48173232D01*
X61624199Y-48176999D01*
X62473801Y-48176999D01*
X62492737Y-48173232D01*
X62507771Y-48163186D01*
X62509766Y-48163055D01*
X62510878Y-48164718D01*
X62510791Y-48165447D01*
X62491897Y-48225787D01*
X62510954Y-48290690D01*
X62510482Y-48292633D01*
X62508563Y-48293197D01*
X62507924Y-48292916D01*
X62492738Y-48282768D01*
X62473801Y-48279001D01*
X61624199Y-48279001D01*
X61605263Y-48282768D01*
X61590229Y-48292814D01*
X61588234Y-48292945D01*
X61587122Y-48291282D01*
X61587209Y-48290553D01*
X61606103Y-48230213D01*
X61587046Y-48165310D01*
X61587518Y-48163367D01*
X61589437Y-48162803D01*
X61590076Y-48163084D01*
G37*
G36*
X67540076Y-48163084D02*
G01*
X67555262Y-48173232D01*
X67574199Y-48176999D01*
X68423801Y-48176999D01*
X68442737Y-48173232D01*
X68457771Y-48163186D01*
X68459766Y-48163055D01*
X68460878Y-48164718D01*
X68460791Y-48165447D01*
X68441897Y-48225787D01*
X68460954Y-48290690D01*
X68460482Y-48292633D01*
X68458563Y-48293197D01*
X68457924Y-48292916D01*
X68442738Y-48282768D01*
X68423801Y-48279001D01*
X67574199Y-48279001D01*
X67555263Y-48282768D01*
X67540229Y-48292814D01*
X67538234Y-48292945D01*
X67537122Y-48291282D01*
X67537209Y-48290553D01*
X67556103Y-48230213D01*
X67537046Y-48165310D01*
X67537518Y-48163367D01*
X67539437Y-48162803D01*
X67540076Y-48163084D01*
G37*
G36*
X112916075Y-48135084D02*
G01*
X112931263Y-48145233D01*
X112950199Y-48149000D01*
X114249801Y-48149000D01*
X114268738Y-48145233D01*
X114283773Y-48135186D01*
X114285768Y-48135055D01*
X114286880Y-48136718D01*
X114286793Y-48137447D01*
X114267898Y-48197788D01*
X114286955Y-48262690D01*
X114286483Y-48264633D01*
X114284564Y-48265197D01*
X114283925Y-48264916D01*
X114268737Y-48254767D01*
X114249801Y-48251000D01*
X112950199Y-48251000D01*
X112931262Y-48254767D01*
X112916227Y-48264814D01*
X112914232Y-48264945D01*
X112913120Y-48263282D01*
X112913207Y-48262553D01*
X112932102Y-48202212D01*
X112913045Y-48137310D01*
X112913517Y-48135367D01*
X112915436Y-48134803D01*
X112916075Y-48135084D01*
G37*
G36*
X67540074Y-47763084D02*
G01*
X67555262Y-47773233D01*
X67574199Y-47777000D01*
X68423801Y-47777000D01*
X68442738Y-47773233D01*
X68457773Y-47763186D01*
X68459768Y-47763055D01*
X68460880Y-47764718D01*
X68460793Y-47765447D01*
X68441898Y-47825788D01*
X68460956Y-47890689D01*
X68460484Y-47892632D01*
X68458566Y-47893196D01*
X68457926Y-47892915D01*
X68442738Y-47882766D01*
X68423801Y-47878999D01*
X67574199Y-47878999D01*
X67555262Y-47882766D01*
X67540227Y-47892813D01*
X67538232Y-47892944D01*
X67537120Y-47891281D01*
X67537207Y-47890552D01*
X67556102Y-47830211D01*
X67537044Y-47765310D01*
X67537516Y-47763367D01*
X67539434Y-47762803D01*
X67540074Y-47763084D01*
G37*
G36*
X61590074Y-47763084D02*
G01*
X61605262Y-47773233D01*
X61624199Y-47777000D01*
X62473801Y-47777000D01*
X62492738Y-47773233D01*
X62507773Y-47763186D01*
X62509768Y-47763055D01*
X62510880Y-47764718D01*
X62510793Y-47765447D01*
X62491898Y-47825788D01*
X62510956Y-47890689D01*
X62510484Y-47892632D01*
X62508566Y-47893196D01*
X62507926Y-47892915D01*
X62492738Y-47882766D01*
X62473801Y-47878999D01*
X61624199Y-47878999D01*
X61605262Y-47882766D01*
X61590227Y-47892813D01*
X61588232Y-47892944D01*
X61587120Y-47891281D01*
X61587207Y-47890552D01*
X61606102Y-47830211D01*
X61587044Y-47765310D01*
X61587516Y-47763367D01*
X61589434Y-47762803D01*
X61590074Y-47763084D01*
G37*
G36*
X112916075Y-47635084D02*
G01*
X112931263Y-47645233D01*
X112950199Y-47649000D01*
X114249801Y-47649000D01*
X114268738Y-47645233D01*
X114283773Y-47635186D01*
X114285768Y-47635055D01*
X114286880Y-47636718D01*
X114286793Y-47637447D01*
X114267898Y-47697788D01*
X114286955Y-47762690D01*
X114286483Y-47764633D01*
X114284564Y-47765197D01*
X114283925Y-47764916D01*
X114268737Y-47754767D01*
X114249801Y-47751000D01*
X112950199Y-47751000D01*
X112931262Y-47754767D01*
X112916227Y-47764814D01*
X112914232Y-47764945D01*
X112913120Y-47763282D01*
X112913207Y-47762553D01*
X112932102Y-47702212D01*
X112913045Y-47637310D01*
X112913517Y-47635367D01*
X112915436Y-47634803D01*
X112916075Y-47635084D01*
G37*
G36*
X67540074Y-47363085D02*
G01*
X67555262Y-47373234D01*
X67574199Y-47377001D01*
X68423801Y-47377001D01*
X68442738Y-47373234D01*
X68457773Y-47363187D01*
X68459768Y-47363056D01*
X68460880Y-47364719D01*
X68460793Y-47365448D01*
X68441898Y-47425789D01*
X68460956Y-47490690D01*
X68460484Y-47492633D01*
X68458566Y-47493197D01*
X68457926Y-47492916D01*
X68442738Y-47482767D01*
X68423801Y-47479000D01*
X67574199Y-47479000D01*
X67555262Y-47482767D01*
X67540227Y-47492814D01*
X67538232Y-47492945D01*
X67537120Y-47491282D01*
X67537207Y-47490553D01*
X67556102Y-47430215D01*
X67537044Y-47365311D01*
X67537516Y-47363368D01*
X67539435Y-47362804D01*
X67540074Y-47363085D01*
G37*
G36*
X61590074Y-47363085D02*
G01*
X61605262Y-47373234D01*
X61624199Y-47377001D01*
X62473801Y-47377001D01*
X62492738Y-47373234D01*
X62507773Y-47363187D01*
X62509768Y-47363056D01*
X62510880Y-47364719D01*
X62510793Y-47365448D01*
X62491898Y-47425789D01*
X62510956Y-47490690D01*
X62510484Y-47492633D01*
X62508566Y-47493197D01*
X62507926Y-47492916D01*
X62492738Y-47482767D01*
X62473801Y-47479000D01*
X61624199Y-47479000D01*
X61605262Y-47482767D01*
X61590227Y-47492814D01*
X61588232Y-47492945D01*
X61587120Y-47491282D01*
X61587207Y-47490553D01*
X61606102Y-47430215D01*
X61587044Y-47365311D01*
X61587516Y-47363368D01*
X61589435Y-47362804D01*
X61590074Y-47363085D01*
G37*
G36*
X112916075Y-47135084D02*
G01*
X112931263Y-47145233D01*
X112950199Y-47149000D01*
X114249801Y-47149000D01*
X114268738Y-47145233D01*
X114283773Y-47135186D01*
X114285768Y-47135055D01*
X114286880Y-47136718D01*
X114286793Y-47137447D01*
X114267898Y-47197788D01*
X114286955Y-47262690D01*
X114286483Y-47264633D01*
X114284564Y-47265197D01*
X114283925Y-47264916D01*
X114268737Y-47254767D01*
X114249801Y-47251000D01*
X112950199Y-47251000D01*
X112931262Y-47254767D01*
X112916227Y-47264814D01*
X112914232Y-47264945D01*
X112913120Y-47263282D01*
X112913207Y-47262553D01*
X112932102Y-47202212D01*
X112913045Y-47137310D01*
X112913517Y-47135367D01*
X112915436Y-47134803D01*
X112916075Y-47135084D01*
G37*
G36*
X61590076Y-46963084D02*
G01*
X61605262Y-46973232D01*
X61624199Y-46976999D01*
X62473801Y-46976999D01*
X62492737Y-46973232D01*
X62507771Y-46963186D01*
X62509766Y-46963055D01*
X62510878Y-46964718D01*
X62510791Y-46965447D01*
X62491897Y-47025787D01*
X62510954Y-47090690D01*
X62510482Y-47092633D01*
X62508563Y-47093197D01*
X62507924Y-47092916D01*
X62492738Y-47082768D01*
X62473801Y-47079001D01*
X61624199Y-47079001D01*
X61605263Y-47082768D01*
X61590229Y-47092814D01*
X61588234Y-47092945D01*
X61587122Y-47091282D01*
X61587209Y-47090553D01*
X61606103Y-47030213D01*
X61587046Y-46965310D01*
X61587518Y-46963367D01*
X61589437Y-46962803D01*
X61590076Y-46963084D01*
G37*
G36*
X67540076Y-46963084D02*
G01*
X67555262Y-46973232D01*
X67574199Y-46976999D01*
X68423801Y-46976999D01*
X68442737Y-46973232D01*
X68457771Y-46963186D01*
X68459766Y-46963055D01*
X68460878Y-46964718D01*
X68460791Y-46965447D01*
X68441897Y-47025787D01*
X68460954Y-47090690D01*
X68460482Y-47092633D01*
X68458563Y-47093197D01*
X68457924Y-47092916D01*
X68442738Y-47082768D01*
X68423801Y-47079001D01*
X67574199Y-47079001D01*
X67555263Y-47082768D01*
X67540229Y-47092814D01*
X67538234Y-47092945D01*
X67537122Y-47091282D01*
X67537209Y-47090553D01*
X67556103Y-47030213D01*
X67537046Y-46965310D01*
X67537518Y-46963367D01*
X67539437Y-46962803D01*
X67540076Y-46963084D01*
G37*
G36*
X112916075Y-46635084D02*
G01*
X112931263Y-46645233D01*
X112950199Y-46649000D01*
X114249801Y-46649000D01*
X114268738Y-46645233D01*
X114283773Y-46635186D01*
X114285768Y-46635055D01*
X114286880Y-46636718D01*
X114286793Y-46637447D01*
X114267898Y-46697788D01*
X114286955Y-46762690D01*
X114286483Y-46764633D01*
X114284564Y-46765197D01*
X114283925Y-46764916D01*
X114268737Y-46754767D01*
X114249801Y-46751000D01*
X112950199Y-46751000D01*
X112931262Y-46754767D01*
X112916227Y-46764814D01*
X112914232Y-46764945D01*
X112913120Y-46763282D01*
X112913207Y-46762553D01*
X112932102Y-46702212D01*
X112913045Y-46637310D01*
X112913517Y-46635367D01*
X112915436Y-46634803D01*
X112916075Y-46635084D01*
G37*
G36*
X61590074Y-46563084D02*
G01*
X61605262Y-46573233D01*
X61624199Y-46577000D01*
X62473801Y-46577000D01*
X62492738Y-46573233D01*
X62507773Y-46563186D01*
X62509768Y-46563055D01*
X62510880Y-46564718D01*
X62510793Y-46565447D01*
X62491898Y-46625788D01*
X62510956Y-46690689D01*
X62510484Y-46692632D01*
X62508566Y-46693196D01*
X62507926Y-46692915D01*
X62492738Y-46682766D01*
X62473801Y-46678999D01*
X61624199Y-46678999D01*
X61605262Y-46682766D01*
X61590227Y-46692813D01*
X61588232Y-46692944D01*
X61587120Y-46691281D01*
X61587207Y-46690552D01*
X61606102Y-46630214D01*
X61587044Y-46565310D01*
X61587516Y-46563367D01*
X61589435Y-46562803D01*
X61590074Y-46563084D01*
G37*
G36*
X67540074Y-46563084D02*
G01*
X67555262Y-46573233D01*
X67574199Y-46577000D01*
X68423801Y-46577000D01*
X68442738Y-46573233D01*
X68457773Y-46563186D01*
X68459768Y-46563055D01*
X68460880Y-46564718D01*
X68460793Y-46565447D01*
X68441898Y-46625788D01*
X68460956Y-46690689D01*
X68460484Y-46692632D01*
X68458566Y-46693196D01*
X68457926Y-46692915D01*
X68442738Y-46682766D01*
X68423801Y-46678999D01*
X67574199Y-46678999D01*
X67555262Y-46682766D01*
X67540227Y-46692813D01*
X67538232Y-46692944D01*
X67537120Y-46691281D01*
X67537207Y-46690552D01*
X67556102Y-46630214D01*
X67537044Y-46565310D01*
X67537516Y-46563367D01*
X67539435Y-46562803D01*
X67540074Y-46563084D01*
G37*
G36*
X61590075Y-46163084D02*
G01*
X61605263Y-46173233D01*
X61624199Y-46177000D01*
X62473801Y-46177000D01*
X62492738Y-46173233D01*
X62507773Y-46163186D01*
X62509768Y-46163055D01*
X62510880Y-46164718D01*
X62510793Y-46165447D01*
X62491898Y-46225788D01*
X62510955Y-46290690D01*
X62510483Y-46292633D01*
X62508564Y-46293197D01*
X62507925Y-46292916D01*
X62492737Y-46282767D01*
X62473801Y-46279000D01*
X61624199Y-46279000D01*
X61605262Y-46282767D01*
X61590227Y-46292814D01*
X61588232Y-46292945D01*
X61587120Y-46291282D01*
X61587207Y-46290553D01*
X61606102Y-46230212D01*
X61587045Y-46165310D01*
X61587517Y-46163367D01*
X61589436Y-46162803D01*
X61590075Y-46163084D01*
G37*
G36*
X67540075Y-46163084D02*
G01*
X67555263Y-46173233D01*
X67574199Y-46177000D01*
X68423801Y-46177000D01*
X68442738Y-46173233D01*
X68457773Y-46163186D01*
X68459768Y-46163055D01*
X68460880Y-46164718D01*
X68460793Y-46165447D01*
X68441898Y-46225788D01*
X68460955Y-46290690D01*
X68460483Y-46292633D01*
X68458564Y-46293197D01*
X68457925Y-46292916D01*
X68442737Y-46282767D01*
X68423801Y-46279000D01*
X67574199Y-46279000D01*
X67555262Y-46282767D01*
X67540227Y-46292814D01*
X67538232Y-46292945D01*
X67537120Y-46291282D01*
X67537207Y-46290553D01*
X67556102Y-46230212D01*
X67537045Y-46165310D01*
X67537517Y-46163367D01*
X67539436Y-46162803D01*
X67540075Y-46163084D01*
G37*
G36*
X112916075Y-46135084D02*
G01*
X112931263Y-46145233D01*
X112950199Y-46149000D01*
X114249801Y-46149000D01*
X114268738Y-46145233D01*
X114283773Y-46135186D01*
X114285768Y-46135055D01*
X114286880Y-46136718D01*
X114286793Y-46137447D01*
X114267898Y-46197788D01*
X114286955Y-46262690D01*
X114286483Y-46264633D01*
X114284564Y-46265197D01*
X114283925Y-46264916D01*
X114268737Y-46254767D01*
X114249801Y-46251000D01*
X112950199Y-46251000D01*
X112931262Y-46254767D01*
X112916227Y-46264814D01*
X112914232Y-46264945D01*
X112913120Y-46263282D01*
X112913207Y-46262553D01*
X112932102Y-46202212D01*
X112913045Y-46137310D01*
X112913517Y-46135367D01*
X112915436Y-46134803D01*
X112916075Y-46135084D01*
G37*
G36*
X67540074Y-45763085D02*
G01*
X67555262Y-45773234D01*
X67574199Y-45777001D01*
X68423801Y-45777001D01*
X68442738Y-45773234D01*
X68457773Y-45763187D01*
X68459768Y-45763056D01*
X68460880Y-45764719D01*
X68460793Y-45765448D01*
X68441898Y-45825786D01*
X68460956Y-45890690D01*
X68460484Y-45892633D01*
X68458565Y-45893197D01*
X68457926Y-45892916D01*
X68442738Y-45882767D01*
X68423801Y-45879000D01*
X67574199Y-45879000D01*
X67555262Y-45882767D01*
X67540227Y-45892814D01*
X67538232Y-45892945D01*
X67537120Y-45891282D01*
X67537207Y-45890553D01*
X67556102Y-45830212D01*
X67537044Y-45765311D01*
X67537516Y-45763368D01*
X67539434Y-45762804D01*
X67540074Y-45763085D01*
G37*
G36*
X61590074Y-45763085D02*
G01*
X61605262Y-45773234D01*
X61624199Y-45777001D01*
X62473801Y-45777001D01*
X62492738Y-45773234D01*
X62507773Y-45763187D01*
X62509768Y-45763056D01*
X62510880Y-45764719D01*
X62510793Y-45765448D01*
X62491898Y-45825786D01*
X62510956Y-45890690D01*
X62510484Y-45892633D01*
X62508565Y-45893197D01*
X62507926Y-45892916D01*
X62492738Y-45882767D01*
X62473801Y-45879000D01*
X61624199Y-45879000D01*
X61605262Y-45882767D01*
X61590227Y-45892814D01*
X61588232Y-45892945D01*
X61587120Y-45891282D01*
X61587207Y-45890553D01*
X61606102Y-45830212D01*
X61587044Y-45765311D01*
X61587516Y-45763368D01*
X61589434Y-45762804D01*
X61590074Y-45763085D01*
G37*
G36*
X112916075Y-45635084D02*
G01*
X112931263Y-45645233D01*
X112950199Y-45649000D01*
X114249801Y-45649000D01*
X114268738Y-45645233D01*
X114283773Y-45635186D01*
X114285768Y-45635055D01*
X114286880Y-45636718D01*
X114286793Y-45637447D01*
X114267898Y-45697788D01*
X114286955Y-45762690D01*
X114286483Y-45764633D01*
X114284564Y-45765197D01*
X114283925Y-45764916D01*
X114268737Y-45754767D01*
X114249801Y-45751000D01*
X112950199Y-45751000D01*
X112931262Y-45754767D01*
X112916227Y-45764814D01*
X112914232Y-45764945D01*
X112913120Y-45763282D01*
X112913207Y-45762553D01*
X112932102Y-45702212D01*
X112913045Y-45637310D01*
X112913517Y-45635367D01*
X112915436Y-45634803D01*
X112916075Y-45635084D01*
G37*
G36*
X67540076Y-45363084D02*
G01*
X67555262Y-45373232D01*
X67574199Y-45376999D01*
X68423801Y-45376999D01*
X68442737Y-45373232D01*
X68457771Y-45363186D01*
X68459766Y-45363055D01*
X68460878Y-45364718D01*
X68460791Y-45365447D01*
X68441897Y-45425787D01*
X68460954Y-45490690D01*
X68460482Y-45492633D01*
X68458563Y-45493197D01*
X68457924Y-45492916D01*
X68442738Y-45482768D01*
X68423801Y-45479001D01*
X67574199Y-45479001D01*
X67555263Y-45482768D01*
X67540229Y-45492814D01*
X67538234Y-45492945D01*
X67537122Y-45491282D01*
X67537209Y-45490553D01*
X67556103Y-45430213D01*
X67537046Y-45365310D01*
X67537518Y-45363367D01*
X67539437Y-45362803D01*
X67540076Y-45363084D01*
G37*
G36*
X61590076Y-45363084D02*
G01*
X61605262Y-45373232D01*
X61624199Y-45376999D01*
X62473801Y-45376999D01*
X62492737Y-45373232D01*
X62507771Y-45363186D01*
X62509766Y-45363055D01*
X62510878Y-45364718D01*
X62510791Y-45365447D01*
X62491897Y-45425787D01*
X62510954Y-45490690D01*
X62510482Y-45492633D01*
X62508563Y-45493197D01*
X62507924Y-45492916D01*
X62492738Y-45482768D01*
X62473801Y-45479001D01*
X61624199Y-45479001D01*
X61605263Y-45482768D01*
X61590229Y-45492814D01*
X61588234Y-45492945D01*
X61587122Y-45491282D01*
X61587209Y-45490553D01*
X61606103Y-45430213D01*
X61587046Y-45365310D01*
X61587518Y-45363367D01*
X61589437Y-45362803D01*
X61590076Y-45363084D01*
G37*
G36*
X112916075Y-45135084D02*
G01*
X112931263Y-45145233D01*
X112950199Y-45149000D01*
X114249801Y-45149000D01*
X114268738Y-45145233D01*
X114283773Y-45135186D01*
X114285768Y-45135055D01*
X114286880Y-45136718D01*
X114286793Y-45137447D01*
X114267898Y-45197788D01*
X114286955Y-45262690D01*
X114286483Y-45264633D01*
X114284564Y-45265197D01*
X114283925Y-45264916D01*
X114268737Y-45254767D01*
X114249801Y-45251000D01*
X112950199Y-45251000D01*
X112931262Y-45254767D01*
X112916227Y-45264814D01*
X112914232Y-45264945D01*
X112913120Y-45263282D01*
X112913207Y-45262553D01*
X112932102Y-45202212D01*
X112913045Y-45137310D01*
X112913517Y-45135367D01*
X112915436Y-45134803D01*
X112916075Y-45135084D01*
G37*
G36*
X61590074Y-44963084D02*
G01*
X61605262Y-44973233D01*
X61624199Y-44977000D01*
X62473801Y-44977000D01*
X62492738Y-44973233D01*
X62507773Y-44963186D01*
X62509768Y-44963055D01*
X62510880Y-44964718D01*
X62510793Y-44965447D01*
X62491898Y-45025788D01*
X62510956Y-45090689D01*
X62510484Y-45092632D01*
X62508566Y-45093196D01*
X62507926Y-45092915D01*
X62492738Y-45082766D01*
X62473801Y-45078999D01*
X61624199Y-45078999D01*
X61605262Y-45082766D01*
X61590227Y-45092813D01*
X61588232Y-45092944D01*
X61587120Y-45091281D01*
X61587207Y-45090552D01*
X61606102Y-45030214D01*
X61587044Y-44965310D01*
X61587516Y-44963367D01*
X61589435Y-44962803D01*
X61590074Y-44963084D01*
G37*
G36*
X67540074Y-44963084D02*
G01*
X67555262Y-44973233D01*
X67574199Y-44977000D01*
X68423801Y-44977000D01*
X68442738Y-44973233D01*
X68457773Y-44963186D01*
X68459768Y-44963055D01*
X68460880Y-44964718D01*
X68460793Y-44965447D01*
X68441898Y-45025788D01*
X68460956Y-45090689D01*
X68460484Y-45092632D01*
X68458566Y-45093196D01*
X68457926Y-45092915D01*
X68442738Y-45082766D01*
X68423801Y-45078999D01*
X67574199Y-45078999D01*
X67555262Y-45082766D01*
X67540227Y-45092813D01*
X67538232Y-45092944D01*
X67537120Y-45091281D01*
X67537207Y-45090552D01*
X67556102Y-45030214D01*
X67537044Y-44965310D01*
X67537516Y-44963367D01*
X67539435Y-44962803D01*
X67540074Y-44963084D01*
G37*
G36*
X112916075Y-44635084D02*
G01*
X112931263Y-44645233D01*
X112950199Y-44649000D01*
X114249801Y-44649000D01*
X114268738Y-44645233D01*
X114283773Y-44635186D01*
X114285768Y-44635055D01*
X114286880Y-44636718D01*
X114286793Y-44637447D01*
X114267898Y-44697788D01*
X114286955Y-44762690D01*
X114286483Y-44764633D01*
X114284564Y-44765197D01*
X114283925Y-44764916D01*
X114268737Y-44754767D01*
X114249801Y-44751000D01*
X112950199Y-44751000D01*
X112931262Y-44754767D01*
X112916227Y-44764814D01*
X112914232Y-44764945D01*
X112913120Y-44763282D01*
X112913207Y-44762553D01*
X112932102Y-44702212D01*
X112913045Y-44637310D01*
X112913517Y-44635367D01*
X112915436Y-44634803D01*
X112916075Y-44635084D01*
G37*
G36*
X67540074Y-44563085D02*
G01*
X67555262Y-44573234D01*
X67574199Y-44577001D01*
X68423801Y-44577001D01*
X68442738Y-44573234D01*
X68457773Y-44563187D01*
X68459768Y-44563056D01*
X68460880Y-44564719D01*
X68460793Y-44565448D01*
X68441898Y-44625789D01*
X68460956Y-44690690D01*
X68460484Y-44692633D01*
X68458566Y-44693197D01*
X68457926Y-44692916D01*
X68442738Y-44682767D01*
X68423801Y-44679000D01*
X67574199Y-44679000D01*
X67555262Y-44682767D01*
X67540227Y-44692814D01*
X67538232Y-44692945D01*
X67537120Y-44691282D01*
X67537207Y-44690553D01*
X67556102Y-44630215D01*
X67537044Y-44565311D01*
X67537516Y-44563368D01*
X67539435Y-44562804D01*
X67540074Y-44563085D01*
G37*
G36*
X61590074Y-44563085D02*
G01*
X61605262Y-44573234D01*
X61624199Y-44577001D01*
X62473801Y-44577001D01*
X62492738Y-44573234D01*
X62507773Y-44563187D01*
X62509768Y-44563056D01*
X62510880Y-44564719D01*
X62510793Y-44565448D01*
X62491898Y-44625789D01*
X62510956Y-44690690D01*
X62510484Y-44692633D01*
X62508566Y-44693197D01*
X62507926Y-44692916D01*
X62492738Y-44682767D01*
X62473801Y-44679000D01*
X61624199Y-44679000D01*
X61605262Y-44682767D01*
X61590227Y-44692814D01*
X61588232Y-44692945D01*
X61587120Y-44691282D01*
X61587207Y-44690553D01*
X61606102Y-44630215D01*
X61587044Y-44565311D01*
X61587516Y-44563368D01*
X61589435Y-44562804D01*
X61590074Y-44563085D01*
G37*
G36*
X61590076Y-44163084D02*
G01*
X61605262Y-44173232D01*
X61624199Y-44176999D01*
X62473801Y-44176999D01*
X62492737Y-44173232D01*
X62507771Y-44163186D01*
X62509766Y-44163055D01*
X62510878Y-44164718D01*
X62510791Y-44165447D01*
X62491897Y-44225787D01*
X62510954Y-44290690D01*
X62510482Y-44292633D01*
X62508563Y-44293197D01*
X62507924Y-44292916D01*
X62492738Y-44282768D01*
X62473801Y-44279001D01*
X61624199Y-44279001D01*
X61605263Y-44282768D01*
X61590229Y-44292814D01*
X61588234Y-44292945D01*
X61587122Y-44291282D01*
X61587209Y-44290553D01*
X61606103Y-44230213D01*
X61587046Y-44165310D01*
X61587518Y-44163367D01*
X61589437Y-44162803D01*
X61590076Y-44163084D01*
G37*
G36*
X67540076Y-44163084D02*
G01*
X67555262Y-44173232D01*
X67574199Y-44176999D01*
X68423801Y-44176999D01*
X68442737Y-44173232D01*
X68457771Y-44163186D01*
X68459766Y-44163055D01*
X68460878Y-44164718D01*
X68460791Y-44165447D01*
X68441897Y-44225787D01*
X68460954Y-44290690D01*
X68460482Y-44292633D01*
X68458563Y-44293197D01*
X68457924Y-44292916D01*
X68442738Y-44282768D01*
X68423801Y-44279001D01*
X67574199Y-44279001D01*
X67555263Y-44282768D01*
X67540229Y-44292814D01*
X67538234Y-44292945D01*
X67537122Y-44291282D01*
X67537209Y-44290553D01*
X67556103Y-44230213D01*
X67537046Y-44165310D01*
X67537518Y-44163367D01*
X67539437Y-44162803D01*
X67540076Y-44163084D01*
G37*
G36*
X112916075Y-44135084D02*
G01*
X112931263Y-44145233D01*
X112950199Y-44149000D01*
X114249801Y-44149000D01*
X114268738Y-44145233D01*
X114283773Y-44135186D01*
X114285768Y-44135055D01*
X114286880Y-44136718D01*
X114286793Y-44137447D01*
X114267898Y-44197788D01*
X114286955Y-44262690D01*
X114286483Y-44264633D01*
X114284564Y-44265197D01*
X114283925Y-44264916D01*
X114268737Y-44254767D01*
X114249801Y-44251000D01*
X112950199Y-44251000D01*
X112931262Y-44254767D01*
X112916227Y-44264814D01*
X112914232Y-44264945D01*
X112913120Y-44263282D01*
X112913207Y-44262553D01*
X112932102Y-44202212D01*
X112913045Y-44137310D01*
X112913517Y-44135367D01*
X112915436Y-44134803D01*
X112916075Y-44135084D01*
G37*
G36*
X66427075Y-43905310D02*
G01*
X66458628Y-43949068D01*
X66523312Y-43974520D01*
X66534123Y-43975003D01*
X66535809Y-43976079D01*
X66535720Y-43978077D01*
X66534034Y-43979001D01*
X65113964Y-43979001D01*
X65112232Y-43978001D01*
X65112232Y-43976001D01*
X65113401Y-43975082D01*
X65180415Y-43955404D01*
X65223941Y-43905172D01*
X65225831Y-43904518D01*
X65227075Y-43905312D01*
X65258625Y-43949068D01*
X65323309Y-43974520D01*
X65334076Y-43975001D01*
X65513674Y-43975001D01*
X65580413Y-43955405D01*
X65623940Y-43905171D01*
X65625830Y-43904517D01*
X65627074Y-43905311D01*
X65658625Y-43949068D01*
X65723310Y-43974520D01*
X65734076Y-43975001D01*
X65913676Y-43975001D01*
X65980415Y-43955405D01*
X66023942Y-43905171D01*
X66025832Y-43904517D01*
X66027076Y-43905311D01*
X66058627Y-43949068D01*
X66123312Y-43974520D01*
X66134078Y-43975001D01*
X66313674Y-43975001D01*
X66380413Y-43955405D01*
X66423941Y-43905170D01*
X66425831Y-43904516D01*
X66427075Y-43905310D01*
G37*
G36*
X112916075Y-43635084D02*
G01*
X112931263Y-43645233D01*
X112950199Y-43649000D01*
X114249801Y-43649000D01*
X114268738Y-43645233D01*
X114283773Y-43635186D01*
X114285768Y-43635055D01*
X114286880Y-43636718D01*
X114286793Y-43637447D01*
X114267898Y-43697788D01*
X114286955Y-43762690D01*
X114286483Y-43764633D01*
X114284564Y-43765197D01*
X114283925Y-43764916D01*
X114268737Y-43754767D01*
X114249801Y-43751000D01*
X112950199Y-43751000D01*
X112931262Y-43754767D01*
X112916227Y-43764814D01*
X112914232Y-43764945D01*
X112913120Y-43763282D01*
X112913207Y-43762553D01*
X112932102Y-43702212D01*
X112913045Y-43637310D01*
X112913517Y-43635367D01*
X112915436Y-43634803D01*
X112916075Y-43635084D01*
G37*
G36*
X65488632Y-42791516D02*
G01*
X65489196Y-42793434D01*
X65488915Y-42794074D01*
X65478766Y-42809262D01*
X65474999Y-42828199D01*
X65474999Y-43677801D01*
X65478766Y-43696738D01*
X65488813Y-43711773D01*
X65488944Y-43713768D01*
X65487281Y-43714880D01*
X65486552Y-43714793D01*
X65426214Y-43695898D01*
X65361310Y-43714956D01*
X65359367Y-43714484D01*
X65358803Y-43712565D01*
X65359084Y-43711926D01*
X65369233Y-43696738D01*
X65373000Y-43677801D01*
X65373000Y-42828199D01*
X65369233Y-42809262D01*
X65359186Y-42794227D01*
X65359055Y-42792232D01*
X65360718Y-42791120D01*
X65361447Y-42791207D01*
X65421788Y-42810102D01*
X65486689Y-42791044D01*
X65488632Y-42791516D01*
G37*
G36*
X63888632Y-42791516D02*
G01*
X63889196Y-42793434D01*
X63888915Y-42794074D01*
X63878766Y-42809262D01*
X63874999Y-42828199D01*
X63874999Y-43677801D01*
X63878766Y-43696738D01*
X63888813Y-43711773D01*
X63888944Y-43713768D01*
X63887281Y-43714880D01*
X63886552Y-43714793D01*
X63826214Y-43695898D01*
X63761310Y-43714956D01*
X63759367Y-43714484D01*
X63758803Y-43712565D01*
X63759084Y-43711926D01*
X63769233Y-43696738D01*
X63773000Y-43677801D01*
X63773000Y-42828199D01*
X63769233Y-42809262D01*
X63759186Y-42794227D01*
X63759055Y-42792232D01*
X63760718Y-42791120D01*
X63761447Y-42791207D01*
X63821788Y-42810102D01*
X63886689Y-42791044D01*
X63888632Y-42791516D01*
G37*
G36*
X64688633Y-42791516D02*
G01*
X64689197Y-42793434D01*
X64688916Y-42794074D01*
X64678767Y-42809262D01*
X64675000Y-42828199D01*
X64675000Y-43677801D01*
X64678767Y-43696738D01*
X64688814Y-43711773D01*
X64688945Y-43713768D01*
X64687282Y-43714880D01*
X64686553Y-43714793D01*
X64626215Y-43695898D01*
X64561311Y-43714956D01*
X64559368Y-43714484D01*
X64558804Y-43712565D01*
X64559085Y-43711926D01*
X64569234Y-43696738D01*
X64573001Y-43677801D01*
X64573001Y-42828199D01*
X64569234Y-42809262D01*
X64559187Y-42794227D01*
X64559056Y-42792232D01*
X64560719Y-42791120D01*
X64561448Y-42791207D01*
X64621789Y-42810102D01*
X64686690Y-42791044D01*
X64688633Y-42791516D01*
G37*
G36*
X66288633Y-42791516D02*
G01*
X66289197Y-42793434D01*
X66288916Y-42794074D01*
X66278767Y-42809262D01*
X66275000Y-42828199D01*
X66275000Y-43677801D01*
X66278767Y-43696738D01*
X66288814Y-43711773D01*
X66288945Y-43713768D01*
X66287282Y-43714880D01*
X66286553Y-43714793D01*
X66226215Y-43695898D01*
X66161311Y-43714956D01*
X66159368Y-43714484D01*
X66158804Y-43712565D01*
X66159085Y-43711926D01*
X66169234Y-43696738D01*
X66173001Y-43677801D01*
X66173001Y-42828199D01*
X66169234Y-42809262D01*
X66159187Y-42794227D01*
X66159056Y-42792232D01*
X66160719Y-42791120D01*
X66161448Y-42791207D01*
X66221789Y-42810102D01*
X66286690Y-42791044D01*
X66288633Y-42791516D01*
G37*
G36*
X66688632Y-42791516D02*
G01*
X66689196Y-42793434D01*
X66688915Y-42794074D01*
X66678766Y-42809262D01*
X66674999Y-42828199D01*
X66674999Y-43677801D01*
X66678766Y-43696738D01*
X66688813Y-43711773D01*
X66688944Y-43713768D01*
X66687281Y-43714880D01*
X66686552Y-43714793D01*
X66626214Y-43695898D01*
X66561310Y-43714956D01*
X66559367Y-43714484D01*
X66558803Y-43712565D01*
X66559084Y-43711926D01*
X66569233Y-43696738D01*
X66573000Y-43677801D01*
X66573000Y-42828199D01*
X66569233Y-42809262D01*
X66559186Y-42794227D01*
X66559055Y-42792232D01*
X66560718Y-42791120D01*
X66561447Y-42791207D01*
X66621788Y-42810102D01*
X66686689Y-42791044D01*
X66688632Y-42791516D01*
G37*
G36*
X63488633Y-42791516D02*
G01*
X63489197Y-42793434D01*
X63488916Y-42794074D01*
X63478767Y-42809262D01*
X63475000Y-42828199D01*
X63475000Y-43677801D01*
X63478767Y-43696738D01*
X63488814Y-43711773D01*
X63488945Y-43713768D01*
X63487282Y-43714880D01*
X63486553Y-43714793D01*
X63426215Y-43695898D01*
X63361311Y-43714956D01*
X63359368Y-43714484D01*
X63358804Y-43712565D01*
X63359085Y-43711926D01*
X63369234Y-43696738D01*
X63373001Y-43677801D01*
X63373001Y-42828199D01*
X63369234Y-42809262D01*
X63359187Y-42794227D01*
X63359056Y-42792232D01*
X63360719Y-42791120D01*
X63361448Y-42791207D01*
X63421789Y-42810102D01*
X63486690Y-42791044D01*
X63488633Y-42791516D01*
G37*
G36*
X65088633Y-42791517D02*
G01*
X65089197Y-42793436D01*
X65088916Y-42794075D01*
X65078767Y-42809263D01*
X65075000Y-42828199D01*
X65075000Y-43677801D01*
X65078767Y-43696738D01*
X65088814Y-43711773D01*
X65088945Y-43713768D01*
X65087282Y-43714880D01*
X65086553Y-43714793D01*
X65026212Y-43695898D01*
X64961310Y-43714955D01*
X64959367Y-43714483D01*
X64958803Y-43712564D01*
X64959084Y-43711925D01*
X64969233Y-43696737D01*
X64973000Y-43677801D01*
X64973000Y-42828199D01*
X64969233Y-42809262D01*
X64959186Y-42794227D01*
X64959055Y-42792232D01*
X64960718Y-42791120D01*
X64961447Y-42791207D01*
X65021788Y-42810102D01*
X65086690Y-42791045D01*
X65088633Y-42791517D01*
G37*
G36*
X67088633Y-42791518D02*
G01*
X67089197Y-42793437D01*
X67088916Y-42794076D01*
X67078768Y-42809262D01*
X67075001Y-42828199D01*
X67075001Y-43677801D01*
X67078768Y-43696737D01*
X67088814Y-43711771D01*
X67088945Y-43713766D01*
X67087282Y-43714878D01*
X67086553Y-43714791D01*
X67026213Y-43695897D01*
X66961310Y-43714954D01*
X66959367Y-43714482D01*
X66958803Y-43712563D01*
X66959084Y-43711924D01*
X66969232Y-43696738D01*
X66972999Y-43677801D01*
X66972999Y-42828199D01*
X66969232Y-42809263D01*
X66959186Y-42794229D01*
X66959055Y-42792234D01*
X66960718Y-42791122D01*
X66961447Y-42791209D01*
X67021787Y-42810103D01*
X67086690Y-42791046D01*
X67088633Y-42791518D01*
G37*
G36*
X63088633Y-42791518D02*
G01*
X63089197Y-42793437D01*
X63088916Y-42794076D01*
X63078768Y-42809262D01*
X63075001Y-42828199D01*
X63075001Y-43677801D01*
X63078768Y-43696737D01*
X63088814Y-43711771D01*
X63088945Y-43713766D01*
X63087282Y-43714878D01*
X63086553Y-43714791D01*
X63026213Y-43695897D01*
X62961310Y-43714954D01*
X62959367Y-43714482D01*
X62958803Y-43712563D01*
X62959084Y-43711924D01*
X62969232Y-43696738D01*
X62972999Y-43677801D01*
X62972999Y-42828199D01*
X62969232Y-42809263D01*
X62959186Y-42794229D01*
X62959055Y-42792234D01*
X62960718Y-42791122D01*
X62961447Y-42791209D01*
X63021787Y-42810103D01*
X63086690Y-42791046D01*
X63088633Y-42791518D01*
G37*
G36*
X64288633Y-42791518D02*
G01*
X64289197Y-42793437D01*
X64288916Y-42794076D01*
X64278768Y-42809262D01*
X64275001Y-42828199D01*
X64275001Y-43677801D01*
X64278768Y-43696737D01*
X64288814Y-43711771D01*
X64288945Y-43713766D01*
X64287282Y-43714878D01*
X64286553Y-43714791D01*
X64226213Y-43695897D01*
X64161310Y-43714954D01*
X64159367Y-43714482D01*
X64158803Y-43712563D01*
X64159084Y-43711924D01*
X64169232Y-43696738D01*
X64172999Y-43677801D01*
X64172999Y-42828199D01*
X64169232Y-42809263D01*
X64159186Y-42794229D01*
X64159055Y-42792234D01*
X64160718Y-42791122D01*
X64161447Y-42791209D01*
X64221787Y-42810103D01*
X64286690Y-42791046D01*
X64288633Y-42791518D01*
G37*
G36*
X65888633Y-42791518D02*
G01*
X65889197Y-42793437D01*
X65888916Y-42794076D01*
X65878768Y-42809262D01*
X65875001Y-42828199D01*
X65875001Y-43677801D01*
X65878768Y-43696737D01*
X65888814Y-43711771D01*
X65888945Y-43713766D01*
X65887282Y-43714878D01*
X65886553Y-43714791D01*
X65826213Y-43695897D01*
X65761310Y-43714954D01*
X65759367Y-43714482D01*
X65758803Y-43712563D01*
X65759084Y-43711924D01*
X65769232Y-43696738D01*
X65772999Y-43677801D01*
X65772999Y-42828199D01*
X65769232Y-42809263D01*
X65759186Y-42794229D01*
X65759055Y-42792234D01*
X65760718Y-42791122D01*
X65761447Y-42791209D01*
X65821787Y-42810103D01*
X65886690Y-42791046D01*
X65888633Y-42791518D01*
G37*
G36*
X112916075Y-43135084D02*
G01*
X112931263Y-43145233D01*
X112950199Y-43149000D01*
X114249801Y-43149000D01*
X114268738Y-43145233D01*
X114283773Y-43135186D01*
X114285768Y-43135055D01*
X114286880Y-43136718D01*
X114286793Y-43137447D01*
X114267898Y-43197788D01*
X114286955Y-43262690D01*
X114286483Y-43264633D01*
X114284564Y-43265197D01*
X114283925Y-43264916D01*
X114268737Y-43254767D01*
X114249801Y-43251000D01*
X112950199Y-43251000D01*
X112931262Y-43254767D01*
X112916227Y-43264814D01*
X112914232Y-43264945D01*
X112913120Y-43263282D01*
X112913207Y-43262553D01*
X112932102Y-43202212D01*
X112913045Y-43137310D01*
X112913517Y-43135367D01*
X112915436Y-43134803D01*
X112916075Y-43135084D01*
G37*
G36*
X78450218Y-41756609D02*
G01*
X78451000Y-41758195D01*
X78451000Y-42766795D01*
X78450000Y-42768527D01*
X78448000Y-42768527D01*
X78447017Y-42767056D01*
X78446985Y-42766817D01*
X78418846Y-42703204D01*
X78361035Y-42665070D01*
X78291780Y-42664244D01*
X78233086Y-42700983D01*
X78203015Y-42766825D01*
X78202983Y-42767067D01*
X78201764Y-42768653D01*
X78199782Y-42768391D01*
X78199000Y-42766805D01*
X78199000Y-41758205D01*
X78200000Y-41756473D01*
X78202000Y-41756473D01*
X78202983Y-41757944D01*
X78203015Y-41758183D01*
X78231154Y-41821796D01*
X78288965Y-41859930D01*
X78358220Y-41860756D01*
X78416914Y-41824017D01*
X78446985Y-41758175D01*
X78447017Y-41757933D01*
X78448236Y-41756347D01*
X78450218Y-41756609D01*
G37*
G36*
X79400218Y-41756609D02*
G01*
X79401000Y-41758195D01*
X79401000Y-42766795D01*
X79400000Y-42768527D01*
X79398000Y-42768527D01*
X79397017Y-42767056D01*
X79396985Y-42766817D01*
X79368846Y-42703204D01*
X79311035Y-42665070D01*
X79241780Y-42664244D01*
X79183086Y-42700983D01*
X79153015Y-42766825D01*
X79152983Y-42767067D01*
X79151764Y-42768653D01*
X79149782Y-42768391D01*
X79149000Y-42766805D01*
X79149000Y-41758205D01*
X79150000Y-41756473D01*
X79152000Y-41756473D01*
X79152983Y-41757944D01*
X79153015Y-41758183D01*
X79181154Y-41821796D01*
X79238965Y-41859930D01*
X79308220Y-41860756D01*
X79366914Y-41824017D01*
X79396985Y-41758175D01*
X79397017Y-41757933D01*
X79398236Y-41756347D01*
X79400218Y-41756609D01*
G37*
G36*
X112916075Y-42635084D02*
G01*
X112931263Y-42645233D01*
X112950199Y-42649000D01*
X114249801Y-42649000D01*
X114268738Y-42645233D01*
X114283773Y-42635186D01*
X114285768Y-42635055D01*
X114286880Y-42636718D01*
X114286793Y-42637447D01*
X114267898Y-42697788D01*
X114286955Y-42762690D01*
X114286483Y-42764633D01*
X114284564Y-42765197D01*
X114283925Y-42764916D01*
X114268737Y-42754767D01*
X114249801Y-42751000D01*
X112950199Y-42751000D01*
X112931262Y-42754767D01*
X112916227Y-42764814D01*
X112914232Y-42764945D01*
X112913120Y-42763282D01*
X112913207Y-42762553D01*
X112932102Y-42702212D01*
X112913045Y-42637310D01*
X112913517Y-42635367D01*
X112915436Y-42634803D01*
X112916075Y-42635084D01*
G37*
G36*
X112916075Y-42135084D02*
G01*
X112931263Y-42145233D01*
X112950199Y-42149000D01*
X114249801Y-42149000D01*
X114268738Y-42145233D01*
X114283773Y-42135186D01*
X114285768Y-42135055D01*
X114286880Y-42136718D01*
X114286793Y-42137447D01*
X114267898Y-42197788D01*
X114286955Y-42262690D01*
X114286483Y-42264633D01*
X114284564Y-42265197D01*
X114283925Y-42264916D01*
X114268737Y-42254767D01*
X114249801Y-42251000D01*
X112950199Y-42251000D01*
X112931262Y-42254767D01*
X112916227Y-42264814D01*
X112914232Y-42264945D01*
X112913120Y-42263282D01*
X112913207Y-42262553D01*
X112932102Y-42202212D01*
X112913045Y-42137310D01*
X112913517Y-42135367D01*
X112915436Y-42134803D01*
X112916075Y-42135084D01*
G37*
G36*
X112916075Y-41635084D02*
G01*
X112931263Y-41645233D01*
X112950199Y-41649000D01*
X114249801Y-41649000D01*
X114268738Y-41645233D01*
X114283773Y-41635186D01*
X114285768Y-41635055D01*
X114286880Y-41636718D01*
X114286793Y-41637447D01*
X114267898Y-41697788D01*
X114286955Y-41762690D01*
X114286483Y-41764633D01*
X114284564Y-41765197D01*
X114283925Y-41764916D01*
X114268737Y-41754767D01*
X114249801Y-41751000D01*
X112950199Y-41751000D01*
X112931262Y-41754767D01*
X112916227Y-41764814D01*
X112914232Y-41764945D01*
X112913120Y-41763282D01*
X112913207Y-41762553D01*
X112932102Y-41702212D01*
X112913045Y-41637310D01*
X112913517Y-41635367D01*
X112915436Y-41634803D01*
X112916075Y-41635084D01*
G37*
G36*
X112916075Y-41135084D02*
G01*
X112931263Y-41145233D01*
X112950199Y-41149000D01*
X114249801Y-41149000D01*
X114268738Y-41145233D01*
X114283773Y-41135186D01*
X114285768Y-41135055D01*
X114286880Y-41136718D01*
X114286793Y-41137447D01*
X114267898Y-41197788D01*
X114286955Y-41262690D01*
X114286483Y-41264633D01*
X114284564Y-41265197D01*
X114283925Y-41264916D01*
X114268737Y-41254767D01*
X114249801Y-41251000D01*
X112950199Y-41251000D01*
X112931262Y-41254767D01*
X112916227Y-41264814D01*
X112914232Y-41264945D01*
X112913120Y-41263282D01*
X112913207Y-41262553D01*
X112932102Y-41202212D01*
X112913045Y-41137310D01*
X112913517Y-41135367D01*
X112915436Y-41134803D01*
X112916075Y-41135084D01*
G37*
G36*
X112916075Y-40635084D02*
G01*
X112931263Y-40645233D01*
X112950199Y-40649000D01*
X114249801Y-40649000D01*
X114268738Y-40645233D01*
X114283773Y-40635186D01*
X114285768Y-40635055D01*
X114286880Y-40636718D01*
X114286793Y-40637447D01*
X114267898Y-40697788D01*
X114286955Y-40762690D01*
X114286483Y-40764633D01*
X114284564Y-40765197D01*
X114283925Y-40764916D01*
X114268737Y-40754767D01*
X114249801Y-40751000D01*
X112950199Y-40751000D01*
X112931262Y-40754767D01*
X112916227Y-40764814D01*
X112914232Y-40764945D01*
X112913120Y-40763282D01*
X112913207Y-40762553D01*
X112932102Y-40702212D01*
X112913045Y-40637310D01*
X112913517Y-40635367D01*
X112915436Y-40634803D01*
X112916075Y-40635084D01*
G37*
G36*
X112916075Y-40135084D02*
G01*
X112931263Y-40145233D01*
X112950199Y-40149000D01*
X114249801Y-40149000D01*
X114268738Y-40145233D01*
X114283773Y-40135186D01*
X114285768Y-40135055D01*
X114286880Y-40136718D01*
X114286793Y-40137447D01*
X114267898Y-40197788D01*
X114286955Y-40262690D01*
X114286483Y-40264633D01*
X114284564Y-40265197D01*
X114283925Y-40264916D01*
X114268737Y-40254767D01*
X114249801Y-40251000D01*
X112950199Y-40251000D01*
X112931262Y-40254767D01*
X112916227Y-40264814D01*
X112914232Y-40264945D01*
X112913120Y-40263282D01*
X112913207Y-40262553D01*
X112932102Y-40202212D01*
X112913045Y-40137310D01*
X112913517Y-40135367D01*
X112915436Y-40134803D01*
X112916075Y-40135084D01*
G37*
G36*
X112916075Y-39635084D02*
G01*
X112931263Y-39645233D01*
X112950199Y-39649000D01*
X114249801Y-39649000D01*
X114268738Y-39645233D01*
X114283773Y-39635186D01*
X114285768Y-39635055D01*
X114286880Y-39636718D01*
X114286793Y-39637447D01*
X114267898Y-39697788D01*
X114286955Y-39762690D01*
X114286483Y-39764633D01*
X114284564Y-39765197D01*
X114283925Y-39764916D01*
X114268737Y-39754767D01*
X114249801Y-39751000D01*
X112950199Y-39751000D01*
X112931262Y-39754767D01*
X112916227Y-39764814D01*
X112914232Y-39764945D01*
X112913120Y-39763282D01*
X112913207Y-39762553D01*
X112932102Y-39702212D01*
X112913045Y-39637310D01*
X112913517Y-39635367D01*
X112915436Y-39634803D01*
X112916075Y-39635084D01*
G37*
G36*
X112916075Y-39135084D02*
G01*
X112931263Y-39145233D01*
X112950199Y-39149000D01*
X114249801Y-39149000D01*
X114268738Y-39145233D01*
X114283773Y-39135186D01*
X114285768Y-39135055D01*
X114286880Y-39136718D01*
X114286793Y-39137447D01*
X114267898Y-39197788D01*
X114286955Y-39262690D01*
X114286483Y-39264633D01*
X114284564Y-39265197D01*
X114283925Y-39264916D01*
X114268737Y-39254767D01*
X114249801Y-39251000D01*
X112950199Y-39251000D01*
X112931262Y-39254767D01*
X112916227Y-39264814D01*
X112914232Y-39264945D01*
X112913120Y-39263282D01*
X112913207Y-39262553D01*
X112932102Y-39202212D01*
X112913045Y-39137310D01*
X112913517Y-39135367D01*
X112915436Y-39134803D01*
X112916075Y-39135084D01*
G37*
G36*
X112916075Y-38635084D02*
G01*
X112931263Y-38645233D01*
X112950199Y-38649000D01*
X114249801Y-38649000D01*
X114268738Y-38645233D01*
X114283773Y-38635186D01*
X114285768Y-38635055D01*
X114286880Y-38636718D01*
X114286793Y-38637447D01*
X114267898Y-38697788D01*
X114286955Y-38762690D01*
X114286483Y-38764633D01*
X114284564Y-38765197D01*
X114283925Y-38764916D01*
X114268737Y-38754767D01*
X114249801Y-38751000D01*
X112950199Y-38751000D01*
X112931262Y-38754767D01*
X112916227Y-38764814D01*
X112914232Y-38764945D01*
X112913120Y-38763282D01*
X112913207Y-38762553D01*
X112932102Y-38702212D01*
X112913045Y-38637310D01*
X112913517Y-38635367D01*
X112915436Y-38634803D01*
X112916075Y-38635084D01*
G37*
G36*
X112916075Y-38135084D02*
G01*
X112931263Y-38145233D01*
X112950199Y-38149000D01*
X114249801Y-38149000D01*
X114268738Y-38145233D01*
X114283773Y-38135186D01*
X114285768Y-38135055D01*
X114286880Y-38136718D01*
X114286793Y-38137447D01*
X114267898Y-38197788D01*
X114286955Y-38262690D01*
X114286483Y-38264633D01*
X114284564Y-38265197D01*
X114283925Y-38264916D01*
X114268737Y-38254767D01*
X114249801Y-38251000D01*
X112950199Y-38251000D01*
X112931262Y-38254767D01*
X112916227Y-38264814D01*
X112914232Y-38264945D01*
X112913120Y-38263282D01*
X112913207Y-38262553D01*
X112932102Y-38202212D01*
X112913045Y-38137310D01*
X112913517Y-38135367D01*
X112915436Y-38134803D01*
X112916075Y-38135084D01*
G37*
G36*
X112916075Y-37635084D02*
G01*
X112931263Y-37645233D01*
X112950199Y-37649000D01*
X114249801Y-37649000D01*
X114268738Y-37645233D01*
X114283773Y-37635186D01*
X114285768Y-37635055D01*
X114286880Y-37636718D01*
X114286793Y-37637447D01*
X114267898Y-37697788D01*
X114286955Y-37762690D01*
X114286483Y-37764633D01*
X114284564Y-37765197D01*
X114283925Y-37764916D01*
X114268737Y-37754767D01*
X114249801Y-37751000D01*
X112950199Y-37751000D01*
X112931262Y-37754767D01*
X112916227Y-37764814D01*
X112914232Y-37764945D01*
X112913120Y-37763282D01*
X112913207Y-37762553D01*
X112932102Y-37702212D01*
X112913045Y-37637310D01*
X112913517Y-37635367D01*
X112915436Y-37634803D01*
X112916075Y-37635084D01*
G37*
G36*
X112916075Y-37135084D02*
G01*
X112931263Y-37145233D01*
X112950199Y-37149000D01*
X114249801Y-37149000D01*
X114268738Y-37145233D01*
X114283773Y-37135186D01*
X114285768Y-37135055D01*
X114286880Y-37136718D01*
X114286793Y-37137447D01*
X114267898Y-37197788D01*
X114286955Y-37262690D01*
X114286483Y-37264633D01*
X114284564Y-37265197D01*
X114283925Y-37264916D01*
X114268737Y-37254767D01*
X114249801Y-37251000D01*
X112950199Y-37251000D01*
X112931262Y-37254767D01*
X112916227Y-37264814D01*
X112914232Y-37264945D01*
X112913120Y-37263282D01*
X112913207Y-37262553D01*
X112932102Y-37202212D01*
X112913045Y-37137310D01*
X112913517Y-37135367D01*
X112915436Y-37134803D01*
X112916075Y-37135084D01*
G37*
G36*
X112916075Y-36635084D02*
G01*
X112931263Y-36645233D01*
X112950199Y-36649000D01*
X114249801Y-36649000D01*
X114268738Y-36645233D01*
X114283773Y-36635186D01*
X114285768Y-36635055D01*
X114286880Y-36636718D01*
X114286793Y-36637447D01*
X114267898Y-36697788D01*
X114286955Y-36762690D01*
X114286483Y-36764633D01*
X114284564Y-36765197D01*
X114283925Y-36764916D01*
X114268737Y-36754767D01*
X114249801Y-36751000D01*
X112950199Y-36751000D01*
X112931262Y-36754767D01*
X112916227Y-36764814D01*
X112914232Y-36764945D01*
X112913120Y-36763282D01*
X112913207Y-36762553D01*
X112932102Y-36702212D01*
X112913045Y-36637310D01*
X112913517Y-36635367D01*
X112915436Y-36634803D01*
X112916075Y-36635084D01*
G37*
G36*
X112916075Y-36135084D02*
G01*
X112931263Y-36145233D01*
X112950199Y-36149000D01*
X114249801Y-36149000D01*
X114268738Y-36145233D01*
X114283773Y-36135186D01*
X114285768Y-36135055D01*
X114286880Y-36136718D01*
X114286793Y-36137447D01*
X114267898Y-36197788D01*
X114286955Y-36262690D01*
X114286483Y-36264633D01*
X114284564Y-36265197D01*
X114283925Y-36264916D01*
X114268737Y-36254767D01*
X114249801Y-36251000D01*
X112950199Y-36251000D01*
X112931262Y-36254767D01*
X112916227Y-36264814D01*
X112914232Y-36264945D01*
X112913120Y-36263282D01*
X112913207Y-36262553D01*
X112932102Y-36202212D01*
X112913045Y-36137310D01*
X112913517Y-36135367D01*
X112915436Y-36134803D01*
X112916075Y-36135084D01*
G37*
G36*
X112916075Y-35635084D02*
G01*
X112931263Y-35645233D01*
X112950199Y-35649000D01*
X114249801Y-35649000D01*
X114268738Y-35645233D01*
X114283773Y-35635186D01*
X114285768Y-35635055D01*
X114286880Y-35636718D01*
X114286793Y-35637447D01*
X114267898Y-35697788D01*
X114286955Y-35762690D01*
X114286483Y-35764633D01*
X114284564Y-35765197D01*
X114283925Y-35764916D01*
X114268737Y-35754767D01*
X114249801Y-35751000D01*
X112950199Y-35751000D01*
X112931262Y-35754767D01*
X112916227Y-35764814D01*
X112914232Y-35764945D01*
X112913120Y-35763282D01*
X112913207Y-35762553D01*
X112932102Y-35702212D01*
X112913045Y-35637310D01*
X112913517Y-35635367D01*
X112915436Y-35634803D01*
X112916075Y-35635084D01*
G37*
G36*
X112916075Y-35135084D02*
G01*
X112931263Y-35145233D01*
X112950199Y-35149000D01*
X114249801Y-35149000D01*
X114268738Y-35145233D01*
X114283773Y-35135186D01*
X114285768Y-35135055D01*
X114286880Y-35136718D01*
X114286793Y-35137447D01*
X114267898Y-35197788D01*
X114286955Y-35262690D01*
X114286483Y-35264633D01*
X114284564Y-35265197D01*
X114283925Y-35264916D01*
X114268737Y-35254767D01*
X114249801Y-35251000D01*
X112950199Y-35251000D01*
X112931262Y-35254767D01*
X112916227Y-35264814D01*
X112914232Y-35264945D01*
X112913120Y-35263282D01*
X112913207Y-35262553D01*
X112932102Y-35202212D01*
X112913045Y-35137310D01*
X112913517Y-35135367D01*
X112915436Y-35134803D01*
X112916075Y-35135084D01*
G37*
G36*
X112916075Y-34635084D02*
G01*
X112931263Y-34645233D01*
X112950199Y-34649000D01*
X114249801Y-34649000D01*
X114268738Y-34645233D01*
X114283773Y-34635186D01*
X114285768Y-34635055D01*
X114286880Y-34636718D01*
X114286793Y-34637447D01*
X114267898Y-34697788D01*
X114286955Y-34762690D01*
X114286483Y-34764633D01*
X114284564Y-34765197D01*
X114283925Y-34764916D01*
X114268737Y-34754767D01*
X114249801Y-34751000D01*
X112950199Y-34751000D01*
X112931262Y-34754767D01*
X112916227Y-34764814D01*
X112914232Y-34764945D01*
X112913120Y-34763282D01*
X112913207Y-34762553D01*
X112932102Y-34702212D01*
X112913045Y-34637310D01*
X112913517Y-34635367D01*
X112915436Y-34634803D01*
X112916075Y-34635084D01*
G37*
G36*
X112916075Y-34135084D02*
G01*
X112931263Y-34145233D01*
X112950199Y-34149000D01*
X114249801Y-34149000D01*
X114268738Y-34145233D01*
X114283773Y-34135186D01*
X114285768Y-34135055D01*
X114286880Y-34136718D01*
X114286793Y-34137447D01*
X114267898Y-34197788D01*
X114286955Y-34262690D01*
X114286483Y-34264633D01*
X114284564Y-34265197D01*
X114283925Y-34264916D01*
X114268737Y-34254767D01*
X114249801Y-34251000D01*
X112950199Y-34251000D01*
X112931262Y-34254767D01*
X112916227Y-34264814D01*
X112914232Y-34264945D01*
X112913120Y-34263282D01*
X112913207Y-34262553D01*
X112932102Y-34202212D01*
X112913045Y-34137310D01*
X112913517Y-34135367D01*
X112915436Y-34134803D01*
X112916075Y-34135084D01*
G37*
G36*
X32424682Y-33883576D02*
G01*
X32425380Y-33884620D01*
X32441262Y-33895233D01*
X32460199Y-33899000D01*
X33141946Y-33899000D01*
X33143678Y-33900000D01*
X33143678Y-33902000D01*
X33142509Y-33902919D01*
X33075494Y-33922596D01*
X33030139Y-33974939D01*
X33020282Y-34043492D01*
X33049125Y-34106648D01*
X33071323Y-34126703D01*
X33125152Y-34164534D01*
X33125994Y-34166348D01*
X33124844Y-34167984D01*
X33122948Y-34167870D01*
X33043291Y-34118481D01*
X32900136Y-34076891D01*
X32819922Y-34071000D01*
X32315204Y-34071000D01*
X32313472Y-34070000D01*
X32313472Y-34068000D01*
X32314641Y-34067081D01*
X32381656Y-34047404D01*
X32427011Y-33995061D01*
X32436877Y-33926442D01*
X32421151Y-33885403D01*
X32421465Y-33883427D01*
X32423333Y-33882712D01*
X32424682Y-33883576D01*
G37*
G36*
X112916075Y-33635084D02*
G01*
X112931263Y-33645233D01*
X112950199Y-33649000D01*
X114249801Y-33649000D01*
X114268738Y-33645233D01*
X114283773Y-33635186D01*
X114285768Y-33635055D01*
X114286880Y-33636718D01*
X114286793Y-33637447D01*
X114267898Y-33697788D01*
X114286955Y-33762690D01*
X114286483Y-33764633D01*
X114284564Y-33765197D01*
X114283925Y-33764916D01*
X114268737Y-33754767D01*
X114249801Y-33751000D01*
X112950199Y-33751000D01*
X112931262Y-33754767D01*
X112916227Y-33764814D01*
X112914232Y-33764945D01*
X112913120Y-33763282D01*
X112913207Y-33762553D01*
X112932102Y-33702212D01*
X112913045Y-33637310D01*
X112913517Y-33635367D01*
X112915436Y-33634803D01*
X112916075Y-33635084D01*
G37*
G36*
X112916075Y-33135084D02*
G01*
X112931263Y-33145233D01*
X112950199Y-33149000D01*
X114249801Y-33149000D01*
X114268738Y-33145233D01*
X114283773Y-33135186D01*
X114285768Y-33135055D01*
X114286880Y-33136718D01*
X114286793Y-33137447D01*
X114267898Y-33197788D01*
X114286955Y-33262690D01*
X114286483Y-33264633D01*
X114284564Y-33265197D01*
X114283925Y-33264916D01*
X114268737Y-33254767D01*
X114249801Y-33251000D01*
X112950199Y-33251000D01*
X112931262Y-33254767D01*
X112916227Y-33264814D01*
X112914232Y-33264945D01*
X112913120Y-33263282D01*
X112913207Y-33262553D01*
X112932102Y-33202212D01*
X112913045Y-33137310D01*
X112913517Y-33135367D01*
X112915436Y-33134803D01*
X112916075Y-33135084D01*
G37*
G36*
X32426075Y-33085084D02*
G01*
X32441263Y-33095233D01*
X32460199Y-33099000D01*
X33909801Y-33099000D01*
X33928738Y-33095233D01*
X33943773Y-33085186D01*
X33945768Y-33085055D01*
X33946880Y-33086718D01*
X33946793Y-33087447D01*
X33927898Y-33147788D01*
X33946955Y-33212690D01*
X33946483Y-33214633D01*
X33944564Y-33215197D01*
X33943925Y-33214916D01*
X33928737Y-33204767D01*
X33909801Y-33201000D01*
X32460199Y-33201000D01*
X32441262Y-33204767D01*
X32426227Y-33214814D01*
X32424232Y-33214945D01*
X32423120Y-33213282D01*
X32423207Y-33212553D01*
X32442102Y-33152212D01*
X32423045Y-33087310D01*
X32423517Y-33085367D01*
X32425436Y-33084803D01*
X32426075Y-33085084D01*
G37*
G36*
X112916075Y-32635084D02*
G01*
X112931263Y-32645233D01*
X112950199Y-32649000D01*
X114249801Y-32649000D01*
X114268738Y-32645233D01*
X114283773Y-32635186D01*
X114285768Y-32635055D01*
X114286880Y-32636718D01*
X114286793Y-32637447D01*
X114267898Y-32697788D01*
X114286955Y-32762690D01*
X114286483Y-32764633D01*
X114284564Y-32765197D01*
X114283925Y-32764916D01*
X114268737Y-32754767D01*
X114249801Y-32751000D01*
X112950199Y-32751000D01*
X112931262Y-32754767D01*
X112916227Y-32764814D01*
X112914232Y-32764945D01*
X112913120Y-32763282D01*
X112913207Y-32762553D01*
X112932102Y-32702212D01*
X112913045Y-32637310D01*
X112913517Y-32635367D01*
X112915436Y-32634803D01*
X112916075Y-32635084D01*
G37*
G36*
X32430267Y-32237886D02*
G01*
X32441262Y-32245233D01*
X32460199Y-32249000D01*
X33909801Y-32249000D01*
X33928738Y-32245233D01*
X33939733Y-32237886D01*
X33941729Y-32237755D01*
X33942840Y-32239418D01*
X33942507Y-32240660D01*
X33933291Y-32254452D01*
X33935031Y-32255615D01*
X33935916Y-32257409D01*
X33935455Y-32258560D01*
X33920922Y-32275952D01*
X33912296Y-32344670D01*
X33935082Y-32392288D01*
X33934928Y-32394282D01*
X33934389Y-32394814D01*
X33933291Y-32395548D01*
X33942507Y-32409340D01*
X33942638Y-32411336D01*
X33940975Y-32412447D01*
X33939733Y-32412114D01*
X33928738Y-32404767D01*
X33909801Y-32401000D01*
X32460199Y-32401000D01*
X32441262Y-32404767D01*
X32430267Y-32412114D01*
X32428271Y-32412245D01*
X32427160Y-32410582D01*
X32427493Y-32409340D01*
X32436709Y-32395548D01*
X32434969Y-32394385D01*
X32434084Y-32392591D01*
X32434545Y-32391440D01*
X32449078Y-32374048D01*
X32457704Y-32305330D01*
X32434918Y-32257712D01*
X32435072Y-32255718D01*
X32435611Y-32255186D01*
X32436709Y-32254452D01*
X32427493Y-32240660D01*
X32427362Y-32238664D01*
X32429025Y-32237553D01*
X32430267Y-32237886D01*
G37*
G36*
X112916075Y-32135084D02*
G01*
X112931263Y-32145233D01*
X112950199Y-32149000D01*
X114249801Y-32149000D01*
X114268738Y-32145233D01*
X114283773Y-32135186D01*
X114285768Y-32135055D01*
X114286880Y-32136718D01*
X114286793Y-32137447D01*
X114267898Y-32197788D01*
X114286955Y-32262690D01*
X114286483Y-32264633D01*
X114284564Y-32265197D01*
X114283925Y-32264916D01*
X114268737Y-32254767D01*
X114249801Y-32251000D01*
X112950199Y-32251000D01*
X112931262Y-32254767D01*
X112916227Y-32264814D01*
X112914232Y-32264945D01*
X112913120Y-32263282D01*
X112913207Y-32262553D01*
X112932102Y-32202212D01*
X112913045Y-32137310D01*
X112913517Y-32135367D01*
X112915436Y-32134803D01*
X112916075Y-32135084D01*
G37*
G36*
X32426075Y-31735084D02*
G01*
X32441263Y-31745233D01*
X32460199Y-31749000D01*
X33909801Y-31749000D01*
X33928738Y-31745233D01*
X33943773Y-31735186D01*
X33945768Y-31735055D01*
X33946880Y-31736718D01*
X33946793Y-31737447D01*
X33927898Y-31797788D01*
X33946955Y-31862690D01*
X33946483Y-31864633D01*
X33944564Y-31865197D01*
X33943925Y-31864916D01*
X33928737Y-31854767D01*
X33909801Y-31851000D01*
X32460199Y-31851000D01*
X32441262Y-31854767D01*
X32426227Y-31864814D01*
X32424232Y-31864945D01*
X32423120Y-31863282D01*
X32423207Y-31862553D01*
X32442102Y-31802212D01*
X32423045Y-31737310D01*
X32423517Y-31735367D01*
X32425436Y-31734803D01*
X32426075Y-31735084D01*
G37*
G36*
X112916075Y-31635084D02*
G01*
X112931263Y-31645233D01*
X112950199Y-31649000D01*
X114249801Y-31649000D01*
X114268738Y-31645233D01*
X114283773Y-31635186D01*
X114285768Y-31635055D01*
X114286880Y-31636718D01*
X114286793Y-31637447D01*
X114267898Y-31697788D01*
X114286955Y-31762690D01*
X114286483Y-31764633D01*
X114284564Y-31765197D01*
X114283925Y-31764916D01*
X114268737Y-31754767D01*
X114249801Y-31751000D01*
X112950199Y-31751000D01*
X112931262Y-31754767D01*
X112916227Y-31764814D01*
X112914232Y-31764945D01*
X112913120Y-31763282D01*
X112913207Y-31762553D01*
X112932102Y-31702212D01*
X112913045Y-31637310D01*
X112913517Y-31635367D01*
X112915436Y-31634803D01*
X112916075Y-31635084D01*
G37*
G36*
X32426075Y-31235084D02*
G01*
X32441263Y-31245233D01*
X32460199Y-31249000D01*
X33909801Y-31249000D01*
X33928738Y-31245233D01*
X33943773Y-31235186D01*
X33945768Y-31235055D01*
X33946880Y-31236718D01*
X33946793Y-31237447D01*
X33927898Y-31297788D01*
X33946955Y-31362690D01*
X33946483Y-31364633D01*
X33944564Y-31365197D01*
X33943925Y-31364916D01*
X33928737Y-31354767D01*
X33909801Y-31351000D01*
X32460199Y-31351000D01*
X32441262Y-31354767D01*
X32426227Y-31364814D01*
X32424232Y-31364945D01*
X32423120Y-31363282D01*
X32423207Y-31362553D01*
X32442102Y-31302212D01*
X32423045Y-31237310D01*
X32423517Y-31235367D01*
X32425436Y-31234803D01*
X32426075Y-31235084D01*
G37*
G36*
X112916075Y-31135084D02*
G01*
X112931263Y-31145233D01*
X112950199Y-31149000D01*
X114249801Y-31149000D01*
X114268738Y-31145233D01*
X114283773Y-31135186D01*
X114285768Y-31135055D01*
X114286880Y-31136718D01*
X114286793Y-31137447D01*
X114267898Y-31197788D01*
X114286955Y-31262690D01*
X114286483Y-31264633D01*
X114284564Y-31265197D01*
X114283925Y-31264916D01*
X114268737Y-31254767D01*
X114249801Y-31251000D01*
X112950199Y-31251000D01*
X112931262Y-31254767D01*
X112916227Y-31264814D01*
X112914232Y-31264945D01*
X112913120Y-31263282D01*
X112913207Y-31262553D01*
X112932102Y-31202212D01*
X112913045Y-31137310D01*
X112913517Y-31135367D01*
X112915436Y-31134803D01*
X112916075Y-31135084D01*
G37*
G36*
X32426075Y-30735084D02*
G01*
X32441263Y-30745233D01*
X32460199Y-30749000D01*
X33909801Y-30749000D01*
X33928738Y-30745233D01*
X33943773Y-30735186D01*
X33945768Y-30735055D01*
X33946880Y-30736718D01*
X33946793Y-30737447D01*
X33927898Y-30797788D01*
X33946955Y-30862690D01*
X33946483Y-30864633D01*
X33944564Y-30865197D01*
X33943925Y-30864916D01*
X33928737Y-30854767D01*
X33909801Y-30851000D01*
X32460199Y-30851000D01*
X32441262Y-30854767D01*
X32426227Y-30864814D01*
X32424232Y-30864945D01*
X32423120Y-30863282D01*
X32423207Y-30862553D01*
X32442102Y-30802212D01*
X32423045Y-30737310D01*
X32423517Y-30735367D01*
X32425436Y-30734803D01*
X32426075Y-30735084D01*
G37*
G36*
X112916075Y-30635084D02*
G01*
X112931263Y-30645233D01*
X112950199Y-30649000D01*
X114249801Y-30649000D01*
X114268738Y-30645233D01*
X114283773Y-30635186D01*
X114285768Y-30635055D01*
X114286880Y-30636718D01*
X114286793Y-30637447D01*
X114267898Y-30697788D01*
X114286955Y-30762690D01*
X114286483Y-30764633D01*
X114284564Y-30765197D01*
X114283925Y-30764916D01*
X114268737Y-30754767D01*
X114249801Y-30751000D01*
X112950199Y-30751000D01*
X112931262Y-30754767D01*
X112916227Y-30764814D01*
X112914232Y-30764945D01*
X112913120Y-30763282D01*
X112913207Y-30762553D01*
X112932102Y-30702212D01*
X112913045Y-30637310D01*
X112913517Y-30635367D01*
X112915436Y-30634803D01*
X112916075Y-30635084D01*
G37*
G36*
X32426075Y-30235084D02*
G01*
X32441263Y-30245233D01*
X32460199Y-30249000D01*
X33909801Y-30249000D01*
X33928738Y-30245233D01*
X33943773Y-30235186D01*
X33945768Y-30235055D01*
X33946880Y-30236718D01*
X33946793Y-30237447D01*
X33927898Y-30297788D01*
X33946955Y-30362690D01*
X33946483Y-30364633D01*
X33944564Y-30365197D01*
X33943925Y-30364916D01*
X33928737Y-30354767D01*
X33909801Y-30351000D01*
X32460199Y-30351000D01*
X32441262Y-30354767D01*
X32426227Y-30364814D01*
X32424232Y-30364945D01*
X32423120Y-30363282D01*
X32423207Y-30362553D01*
X32442102Y-30302212D01*
X32423045Y-30237310D01*
X32423517Y-30235367D01*
X32425436Y-30234803D01*
X32426075Y-30235084D01*
G37*
G36*
X112916075Y-30135084D02*
G01*
X112931263Y-30145233D01*
X112950199Y-30149000D01*
X114249801Y-30149000D01*
X114268738Y-30145233D01*
X114283773Y-30135186D01*
X114285768Y-30135055D01*
X114286880Y-30136718D01*
X114286793Y-30137447D01*
X114267898Y-30197788D01*
X114286955Y-30262690D01*
X114286483Y-30264633D01*
X114284564Y-30265197D01*
X114283925Y-30264916D01*
X114268737Y-30254767D01*
X114249801Y-30251000D01*
X112950199Y-30251000D01*
X112931262Y-30254767D01*
X112916227Y-30264814D01*
X112914232Y-30264945D01*
X112913120Y-30263282D01*
X112913207Y-30262553D01*
X112932102Y-30202212D01*
X112913045Y-30137310D01*
X112913517Y-30135367D01*
X112915436Y-30134803D01*
X112916075Y-30135084D01*
G37*
G36*
X32426075Y-29735084D02*
G01*
X32441263Y-29745233D01*
X32460199Y-29749000D01*
X33909801Y-29749000D01*
X33928738Y-29745233D01*
X33943773Y-29735186D01*
X33945768Y-29735055D01*
X33946880Y-29736718D01*
X33946793Y-29737447D01*
X33927898Y-29797788D01*
X33946955Y-29862690D01*
X33946483Y-29864633D01*
X33944564Y-29865197D01*
X33943925Y-29864916D01*
X33928737Y-29854767D01*
X33909801Y-29851000D01*
X32460199Y-29851000D01*
X32441262Y-29854767D01*
X32426227Y-29864814D01*
X32424232Y-29864945D01*
X32423120Y-29863282D01*
X32423207Y-29862553D01*
X32442102Y-29802212D01*
X32423045Y-29737310D01*
X32423517Y-29735367D01*
X32425436Y-29734803D01*
X32426075Y-29735084D01*
G37*
G36*
X112916075Y-29635084D02*
G01*
X112931263Y-29645233D01*
X112950199Y-29649000D01*
X114249801Y-29649000D01*
X114268738Y-29645233D01*
X114283773Y-29635186D01*
X114285768Y-29635055D01*
X114286880Y-29636718D01*
X114286793Y-29637447D01*
X114267898Y-29697788D01*
X114286955Y-29762690D01*
X114286483Y-29764633D01*
X114284564Y-29765197D01*
X114283925Y-29764916D01*
X114268737Y-29754767D01*
X114249801Y-29751000D01*
X112950199Y-29751000D01*
X112931262Y-29754767D01*
X112916227Y-29764814D01*
X112914232Y-29764945D01*
X112913120Y-29763282D01*
X112913207Y-29762553D01*
X112932102Y-29702212D01*
X112913045Y-29637310D01*
X112913517Y-29635367D01*
X112915436Y-29634803D01*
X112916075Y-29635084D01*
G37*
G36*
X64603891Y-28110374D02*
G01*
X64650944Y-28149697D01*
X64719660Y-28158330D01*
X64782289Y-28128367D01*
X64789800Y-28119697D01*
X64791690Y-28119043D01*
X64793202Y-28120353D01*
X64792975Y-28122118D01*
X64787379Y-28130494D01*
X64776000Y-28187699D01*
X64776000Y-29462301D01*
X64787379Y-29519506D01*
X64799055Y-29536980D01*
X64799186Y-29538976D01*
X64797523Y-29540087D01*
X64796109Y-29539626D01*
X64749056Y-29500303D01*
X64680340Y-29491670D01*
X64617711Y-29521633D01*
X64610200Y-29530303D01*
X64608310Y-29530957D01*
X64606798Y-29529647D01*
X64607025Y-29527882D01*
X64612621Y-29519506D01*
X64624000Y-29462301D01*
X64624000Y-28187699D01*
X64612621Y-28130494D01*
X64600945Y-28113020D01*
X64600814Y-28111024D01*
X64602477Y-28109913D01*
X64603891Y-28110374D01*
G37*
G36*
X63953891Y-28110374D02*
G01*
X64000944Y-28149697D01*
X64069660Y-28158330D01*
X64132289Y-28128367D01*
X64139800Y-28119697D01*
X64141690Y-28119043D01*
X64143202Y-28120353D01*
X64142975Y-28122118D01*
X64137379Y-28130494D01*
X64126000Y-28187699D01*
X64126000Y-29462301D01*
X64137379Y-29519506D01*
X64149055Y-29536980D01*
X64149186Y-29538976D01*
X64147523Y-29540087D01*
X64146109Y-29539626D01*
X64099056Y-29500303D01*
X64030340Y-29491670D01*
X63967711Y-29521633D01*
X63960200Y-29530303D01*
X63958310Y-29530957D01*
X63956798Y-29529647D01*
X63957025Y-29527882D01*
X63962621Y-29519506D01*
X63974000Y-29462301D01*
X63974000Y-28187699D01*
X63962621Y-28130494D01*
X63950945Y-28113020D01*
X63950814Y-28111024D01*
X63952477Y-28109913D01*
X63953891Y-28110374D01*
G37*
G36*
X68503891Y-28110374D02*
G01*
X68550944Y-28149697D01*
X68619660Y-28158330D01*
X68682289Y-28128367D01*
X68689800Y-28119697D01*
X68691690Y-28119043D01*
X68693202Y-28120353D01*
X68692975Y-28122118D01*
X68687379Y-28130494D01*
X68676000Y-28187699D01*
X68676000Y-29462301D01*
X68687379Y-29519506D01*
X68699055Y-29536980D01*
X68699186Y-29538976D01*
X68697523Y-29540087D01*
X68696109Y-29539626D01*
X68649056Y-29500303D01*
X68580340Y-29491670D01*
X68517711Y-29521633D01*
X68510200Y-29530303D01*
X68508310Y-29530957D01*
X68506798Y-29529647D01*
X68507025Y-29527882D01*
X68512621Y-29519506D01*
X68524000Y-29462301D01*
X68524000Y-28187699D01*
X68512621Y-28130494D01*
X68500945Y-28113020D01*
X68500814Y-28111024D01*
X68502477Y-28109913D01*
X68503891Y-28110374D01*
G37*
G36*
X67203891Y-28110374D02*
G01*
X67250944Y-28149697D01*
X67319660Y-28158330D01*
X67382289Y-28128367D01*
X67389800Y-28119697D01*
X67391690Y-28119043D01*
X67393202Y-28120353D01*
X67392975Y-28122118D01*
X67387379Y-28130494D01*
X67376000Y-28187699D01*
X67376000Y-29462301D01*
X67387379Y-29519506D01*
X67399055Y-29536980D01*
X67399186Y-29538976D01*
X67397523Y-29540087D01*
X67396109Y-29539626D01*
X67349056Y-29500303D01*
X67280340Y-29491670D01*
X67217711Y-29521633D01*
X67210200Y-29530303D01*
X67208310Y-29530957D01*
X67206798Y-29529647D01*
X67207025Y-29527882D01*
X67212621Y-29519506D01*
X67224000Y-29462301D01*
X67224000Y-28187699D01*
X67212621Y-28130494D01*
X67200945Y-28113020D01*
X67200814Y-28111024D01*
X67202477Y-28109913D01*
X67203891Y-28110374D01*
G37*
G36*
X65253891Y-28110374D02*
G01*
X65300944Y-28149697D01*
X65369660Y-28158330D01*
X65432289Y-28128367D01*
X65439800Y-28119697D01*
X65441690Y-28119043D01*
X65443202Y-28120353D01*
X65442975Y-28122118D01*
X65437379Y-28130494D01*
X65426000Y-28187699D01*
X65426000Y-29462301D01*
X65437379Y-29519506D01*
X65449055Y-29536980D01*
X65449186Y-29538976D01*
X65447523Y-29540087D01*
X65446109Y-29539626D01*
X65399056Y-29500303D01*
X65330340Y-29491670D01*
X65267711Y-29521633D01*
X65260200Y-29530303D01*
X65258310Y-29530957D01*
X65256798Y-29529647D01*
X65257025Y-29527882D01*
X65262621Y-29519506D01*
X65274000Y-29462301D01*
X65274000Y-28187699D01*
X65262621Y-28130494D01*
X65250945Y-28113020D01*
X65250814Y-28111024D01*
X65252477Y-28109913D01*
X65253891Y-28110374D01*
G37*
G36*
X69803891Y-28110374D02*
G01*
X69850944Y-28149697D01*
X69919660Y-28158330D01*
X69982289Y-28128367D01*
X69989800Y-28119697D01*
X69991690Y-28119043D01*
X69993202Y-28120353D01*
X69992975Y-28122118D01*
X69987379Y-28130494D01*
X69976000Y-28187699D01*
X69976000Y-29462301D01*
X69987379Y-29519506D01*
X69999055Y-29536980D01*
X69999186Y-29538976D01*
X69997523Y-29540087D01*
X69996109Y-29539626D01*
X69949056Y-29500303D01*
X69880340Y-29491670D01*
X69817711Y-29521633D01*
X69810200Y-29530303D01*
X69808310Y-29530957D01*
X69806798Y-29529647D01*
X69807025Y-29527882D01*
X69812621Y-29519506D01*
X69824000Y-29462301D01*
X69824000Y-28187699D01*
X69812621Y-28130494D01*
X69800945Y-28113020D01*
X69800814Y-28111024D01*
X69802477Y-28109913D01*
X69803891Y-28110374D01*
G37*
G36*
X67853891Y-28110374D02*
G01*
X67900944Y-28149697D01*
X67969660Y-28158330D01*
X68032289Y-28128367D01*
X68039800Y-28119697D01*
X68041690Y-28119043D01*
X68043202Y-28120353D01*
X68042975Y-28122118D01*
X68037379Y-28130494D01*
X68026000Y-28187699D01*
X68026000Y-29462301D01*
X68037379Y-29519506D01*
X68049055Y-29536980D01*
X68049186Y-29538976D01*
X68047523Y-29540087D01*
X68046109Y-29539626D01*
X67999056Y-29500303D01*
X67930340Y-29491670D01*
X67867711Y-29521633D01*
X67860200Y-29530303D01*
X67858310Y-29530957D01*
X67856798Y-29529647D01*
X67857025Y-29527882D01*
X67862621Y-29519506D01*
X67874000Y-29462301D01*
X67874000Y-28187699D01*
X67862621Y-28130494D01*
X67850945Y-28113020D01*
X67850814Y-28111024D01*
X67852477Y-28109913D01*
X67853891Y-28110374D01*
G37*
G36*
X69153891Y-28110374D02*
G01*
X69200944Y-28149697D01*
X69269660Y-28158330D01*
X69332289Y-28128367D01*
X69339800Y-28119697D01*
X69341690Y-28119043D01*
X69343202Y-28120353D01*
X69342975Y-28122118D01*
X69337379Y-28130494D01*
X69326000Y-28187699D01*
X69326000Y-29462301D01*
X69337379Y-29519506D01*
X69349055Y-29536980D01*
X69349186Y-29538976D01*
X69347523Y-29540087D01*
X69346109Y-29539626D01*
X69299056Y-29500303D01*
X69230340Y-29491670D01*
X69167711Y-29521633D01*
X69160200Y-29530303D01*
X69158310Y-29530957D01*
X69156798Y-29529647D01*
X69157025Y-29527882D01*
X69162621Y-29519506D01*
X69174000Y-29462301D01*
X69174000Y-28187699D01*
X69162621Y-28130494D01*
X69150945Y-28113020D01*
X69150814Y-28111024D01*
X69152477Y-28109913D01*
X69153891Y-28110374D01*
G37*
G36*
X65903891Y-28110374D02*
G01*
X65950944Y-28149697D01*
X66019660Y-28158330D01*
X66082289Y-28128367D01*
X66089800Y-28119697D01*
X66091690Y-28119043D01*
X66093202Y-28120353D01*
X66092975Y-28122118D01*
X66087379Y-28130494D01*
X66076000Y-28187699D01*
X66076000Y-29462301D01*
X66087379Y-29519506D01*
X66099055Y-29536980D01*
X66099186Y-29538976D01*
X66097523Y-29540087D01*
X66096109Y-29539626D01*
X66049056Y-29500303D01*
X65980340Y-29491670D01*
X65917711Y-29521633D01*
X65910200Y-29530303D01*
X65908310Y-29530957D01*
X65906798Y-29529647D01*
X65907025Y-29527882D01*
X65912621Y-29519506D01*
X65924000Y-29462301D01*
X65924000Y-28187699D01*
X65912621Y-28130494D01*
X65900945Y-28113020D01*
X65900814Y-28111024D01*
X65902477Y-28109913D01*
X65903891Y-28110374D01*
G37*
G36*
X66553891Y-28110374D02*
G01*
X66600944Y-28149697D01*
X66669660Y-28158330D01*
X66732289Y-28128367D01*
X66739800Y-28119697D01*
X66741690Y-28119043D01*
X66743202Y-28120353D01*
X66742975Y-28122118D01*
X66737379Y-28130494D01*
X66726000Y-28187699D01*
X66726000Y-29462301D01*
X66737379Y-29519506D01*
X66749055Y-29536980D01*
X66749186Y-29538976D01*
X66747523Y-29540087D01*
X66746109Y-29539626D01*
X66699056Y-29500303D01*
X66630340Y-29491670D01*
X66567711Y-29521633D01*
X66560200Y-29530303D01*
X66558310Y-29530957D01*
X66556798Y-29529647D01*
X66557025Y-29527882D01*
X66562621Y-29519506D01*
X66574000Y-29462301D01*
X66574000Y-28187699D01*
X66562621Y-28130494D01*
X66550945Y-28113020D01*
X66550814Y-28111024D01*
X66552477Y-28109913D01*
X66553891Y-28110374D01*
G37*
G36*
X63303891Y-28110374D02*
G01*
X63350944Y-28149697D01*
X63419660Y-28158330D01*
X63482289Y-28128367D01*
X63489800Y-28119697D01*
X63491690Y-28119043D01*
X63493202Y-28120353D01*
X63492975Y-28122118D01*
X63487379Y-28130494D01*
X63476000Y-28187699D01*
X63476000Y-29462301D01*
X63487379Y-29519506D01*
X63499055Y-29536980D01*
X63499186Y-29538976D01*
X63497523Y-29540087D01*
X63496109Y-29539626D01*
X63449056Y-29500303D01*
X63380340Y-29491670D01*
X63317711Y-29521633D01*
X63310200Y-29530303D01*
X63308310Y-29530957D01*
X63306798Y-29529647D01*
X63307025Y-29527882D01*
X63312621Y-29519506D01*
X63324000Y-29462301D01*
X63324000Y-28187699D01*
X63312621Y-28130494D01*
X63300945Y-28113020D01*
X63300814Y-28111024D01*
X63302477Y-28109913D01*
X63303891Y-28110374D01*
G37*
G36*
X32426075Y-29235084D02*
G01*
X32441263Y-29245233D01*
X32460199Y-29249000D01*
X33909801Y-29249000D01*
X33928738Y-29245233D01*
X33943773Y-29235186D01*
X33945768Y-29235055D01*
X33946880Y-29236718D01*
X33946793Y-29237447D01*
X33927898Y-29297788D01*
X33946955Y-29362690D01*
X33946483Y-29364633D01*
X33944564Y-29365197D01*
X33943925Y-29364916D01*
X33928737Y-29354767D01*
X33909801Y-29351000D01*
X32460199Y-29351000D01*
X32441262Y-29354767D01*
X32426227Y-29364814D01*
X32424232Y-29364945D01*
X32423120Y-29363282D01*
X32423207Y-29362553D01*
X32442102Y-29302212D01*
X32423045Y-29237310D01*
X32423517Y-29235367D01*
X32425436Y-29234803D01*
X32426075Y-29235084D01*
G37*
G36*
X37836880Y-29186718D02*
G01*
X37836793Y-29187447D01*
X37817898Y-29247788D01*
X37836955Y-29312690D01*
X37836483Y-29314633D01*
X37834564Y-29315197D01*
X37833925Y-29314916D01*
X37818737Y-29304767D01*
X37799801Y-29301000D01*
X37300199Y-29301000D01*
X37281262Y-29304767D01*
X37265380Y-29315380D01*
X37254767Y-29331262D01*
X37253382Y-29338223D01*
X37252063Y-29339727D01*
X37250101Y-29339337D01*
X37249428Y-29338011D01*
X37243963Y-29276935D01*
X37201429Y-29222180D01*
X37156982Y-29202834D01*
X37155793Y-29201226D01*
X37156591Y-29199392D01*
X37157780Y-29199000D01*
X37799801Y-29199000D01*
X37818738Y-29195233D01*
X37833773Y-29185186D01*
X37835768Y-29185055D01*
X37836880Y-29186718D01*
G37*
G36*
X38966075Y-29185084D02*
G01*
X38981263Y-29195233D01*
X39000199Y-29199000D01*
X39642857Y-29199000D01*
X39644589Y-29200000D01*
X39644589Y-29202000D01*
X39643784Y-29202772D01*
X39585070Y-29233484D01*
X39550759Y-29293734D01*
X39550021Y-29335058D01*
X39548990Y-29336772D01*
X39546990Y-29336736D01*
X39546059Y-29335412D01*
X39545233Y-29331263D01*
X39534620Y-29315380D01*
X39518738Y-29304767D01*
X39499801Y-29301000D01*
X39000199Y-29301000D01*
X38981262Y-29304767D01*
X38966227Y-29314814D01*
X38964232Y-29314945D01*
X38963120Y-29313282D01*
X38963207Y-29312553D01*
X38982102Y-29252212D01*
X38963045Y-29187310D01*
X38963517Y-29185367D01*
X38965436Y-29184803D01*
X38966075Y-29185084D01*
G37*
G36*
X32426075Y-28735084D02*
G01*
X32441263Y-28745233D01*
X32460199Y-28749000D01*
X33909801Y-28749000D01*
X33928738Y-28745233D01*
X33943773Y-28735186D01*
X33945768Y-28735055D01*
X33946880Y-28736718D01*
X33946793Y-28737447D01*
X33927898Y-28797788D01*
X33946955Y-28862690D01*
X33946483Y-28864633D01*
X33944564Y-28865197D01*
X33943925Y-28864916D01*
X33928737Y-28854767D01*
X33909801Y-28851000D01*
X32460199Y-28851000D01*
X32441262Y-28854767D01*
X32426227Y-28864814D01*
X32424232Y-28864945D01*
X32423120Y-28863282D01*
X32423207Y-28862553D01*
X32442102Y-28802212D01*
X32423045Y-28737310D01*
X32423517Y-28735367D01*
X32425436Y-28734803D01*
X32426075Y-28735084D01*
G37*
G36*
X37253010Y-28663264D02*
G01*
X37253941Y-28664588D01*
X37254767Y-28668737D01*
X37265380Y-28684620D01*
X37281262Y-28695233D01*
X37300199Y-28699000D01*
X37799801Y-28699000D01*
X37818738Y-28695233D01*
X37833773Y-28685186D01*
X37835768Y-28685055D01*
X37836880Y-28686718D01*
X37836793Y-28687447D01*
X37817898Y-28747788D01*
X37836955Y-28812690D01*
X37836483Y-28814633D01*
X37834564Y-28815197D01*
X37833925Y-28814916D01*
X37818737Y-28804767D01*
X37799801Y-28801000D01*
X37157143Y-28801000D01*
X37155411Y-28800000D01*
X37155411Y-28798000D01*
X37156216Y-28797228D01*
X37214930Y-28766516D01*
X37249241Y-28706266D01*
X37249979Y-28664942D01*
X37251010Y-28663228D01*
X37253010Y-28663264D01*
G37*
G36*
X39549899Y-28660663D02*
G01*
X39550572Y-28661989D01*
X39556037Y-28723065D01*
X39598571Y-28777820D01*
X39643018Y-28797166D01*
X39644207Y-28798774D01*
X39643409Y-28800608D01*
X39642220Y-28801000D01*
X39000199Y-28801000D01*
X38981262Y-28804767D01*
X38966227Y-28814814D01*
X38964232Y-28814945D01*
X38963120Y-28813282D01*
X38963207Y-28812553D01*
X38982102Y-28752212D01*
X38963045Y-28687310D01*
X38963517Y-28685367D01*
X38965436Y-28684803D01*
X38966075Y-28685084D01*
X38981263Y-28695233D01*
X39000199Y-28699000D01*
X39499801Y-28699000D01*
X39518738Y-28695233D01*
X39534620Y-28684620D01*
X39545233Y-28668738D01*
X39546618Y-28661777D01*
X39547937Y-28660273D01*
X39549899Y-28660663D01*
G37*
G36*
X32430267Y-28187886D02*
G01*
X32441262Y-28195233D01*
X32460199Y-28199000D01*
X33909801Y-28199000D01*
X33928738Y-28195233D01*
X33939733Y-28187886D01*
X33941729Y-28187755D01*
X33942840Y-28189418D01*
X33942507Y-28190660D01*
X33933291Y-28204452D01*
X33935031Y-28205615D01*
X33935916Y-28207409D01*
X33935455Y-28208560D01*
X33920922Y-28225952D01*
X33912296Y-28294670D01*
X33935082Y-28342288D01*
X33934928Y-28344282D01*
X33934389Y-28344814D01*
X33933291Y-28345548D01*
X33942507Y-28359340D01*
X33942638Y-28361336D01*
X33940975Y-28362447D01*
X33939733Y-28362114D01*
X33928738Y-28354767D01*
X33909801Y-28351000D01*
X32460199Y-28351000D01*
X32441262Y-28354767D01*
X32430267Y-28362114D01*
X32428271Y-28362245D01*
X32427160Y-28360582D01*
X32427493Y-28359340D01*
X32436709Y-28345548D01*
X32434969Y-28344385D01*
X32434084Y-28342591D01*
X32434545Y-28341440D01*
X32449078Y-28324048D01*
X32457704Y-28255330D01*
X32434918Y-28207712D01*
X32435072Y-28205718D01*
X32435611Y-28205186D01*
X32436709Y-28204452D01*
X32427493Y-28190660D01*
X32427362Y-28188664D01*
X32429025Y-28187553D01*
X32430267Y-28187886D01*
G37*
G36*
X32426075Y-27385084D02*
G01*
X32441263Y-27395233D01*
X32460199Y-27399000D01*
X33909801Y-27399000D01*
X33928738Y-27395233D01*
X33943773Y-27385186D01*
X33945768Y-27385055D01*
X33946880Y-27386718D01*
X33946793Y-27387447D01*
X33927898Y-27447788D01*
X33946955Y-27512690D01*
X33946483Y-27514633D01*
X33944564Y-27515197D01*
X33943925Y-27514916D01*
X33928737Y-27504767D01*
X33909801Y-27501000D01*
X32460199Y-27501000D01*
X32441262Y-27504767D01*
X32426227Y-27514814D01*
X32424232Y-27514945D01*
X32423120Y-27513282D01*
X32423207Y-27512553D01*
X32442102Y-27452212D01*
X32423045Y-27387310D01*
X32423517Y-27385367D01*
X32425436Y-27384803D01*
X32426075Y-27385084D01*
G37*
G36*
X33087644Y-26457914D02*
G01*
X33088439Y-26459750D01*
X33087585Y-26461168D01*
X33071135Y-26472474D01*
X33027235Y-26526424D01*
X33019504Y-26595251D01*
X33050210Y-26657330D01*
X33109748Y-26693039D01*
X33140813Y-26697016D01*
X33142404Y-26698228D01*
X33142150Y-26700212D01*
X33140559Y-26701000D01*
X32460199Y-26701000D01*
X32441262Y-26704767D01*
X32425380Y-26715380D01*
X32423346Y-26718423D01*
X32421552Y-26719308D01*
X32419889Y-26718196D01*
X32419774Y-26716714D01*
X32438099Y-26658191D01*
X32419775Y-26591401D01*
X32368201Y-26545075D01*
X32314761Y-26532950D01*
X32313294Y-26531592D01*
X32313736Y-26529642D01*
X32315204Y-26529000D01*
X32819868Y-26529000D01*
X32967629Y-26508760D01*
X33085658Y-26457684D01*
X33087644Y-26457914D01*
G37*
G36*
X100415660Y-23917493D02*
G01*
X100429452Y-23926709D01*
X100430615Y-23924969D01*
X100432409Y-23924084D01*
X100433560Y-23924545D01*
X100450952Y-23939078D01*
X100519670Y-23947704D01*
X100567288Y-23924918D01*
X100569282Y-23925072D01*
X100569814Y-23925611D01*
X100570548Y-23926709D01*
X100584340Y-23917493D01*
X100586336Y-23917362D01*
X100587447Y-23919025D01*
X100587114Y-23920267D01*
X100579767Y-23931262D01*
X100576000Y-23950199D01*
X100576000Y-25249801D01*
X100579767Y-25268738D01*
X100587114Y-25279733D01*
X100587245Y-25281729D01*
X100585582Y-25282840D01*
X100584340Y-25282507D01*
X100570548Y-25273291D01*
X100569385Y-25275031D01*
X100567591Y-25275916D01*
X100566440Y-25275455D01*
X100549048Y-25260922D01*
X100480330Y-25252296D01*
X100432712Y-25275082D01*
X100430718Y-25274928D01*
X100430186Y-25274389D01*
X100429452Y-25273291D01*
X100415660Y-25282507D01*
X100413664Y-25282638D01*
X100412553Y-25280975D01*
X100412886Y-25279733D01*
X100420233Y-25268738D01*
X100424000Y-25249801D01*
X100424000Y-23950199D01*
X100420233Y-23931262D01*
X100412886Y-23920267D01*
X100412755Y-23918271D01*
X100414418Y-23917160D01*
X100415660Y-23917493D01*
G37*
G36*
X100915660Y-23917493D02*
G01*
X100929452Y-23926709D01*
X100930615Y-23924969D01*
X100932409Y-23924084D01*
X100933560Y-23924545D01*
X100950952Y-23939078D01*
X101019670Y-23947704D01*
X101067288Y-23924918D01*
X101069282Y-23925072D01*
X101069814Y-23925611D01*
X101070548Y-23926709D01*
X101084340Y-23917493D01*
X101086336Y-23917362D01*
X101087447Y-23919025D01*
X101087114Y-23920267D01*
X101079767Y-23931262D01*
X101076000Y-23950199D01*
X101076000Y-25249801D01*
X101079767Y-25268738D01*
X101087114Y-25279733D01*
X101087245Y-25281729D01*
X101085582Y-25282840D01*
X101084340Y-25282507D01*
X101070548Y-25273291D01*
X101069385Y-25275031D01*
X101067591Y-25275916D01*
X101066440Y-25275455D01*
X101049048Y-25260922D01*
X100980330Y-25252296D01*
X100932712Y-25275082D01*
X100930718Y-25274928D01*
X100930186Y-25274389D01*
X100929452Y-25273291D01*
X100915660Y-25282507D01*
X100913664Y-25282638D01*
X100912553Y-25280975D01*
X100912886Y-25279733D01*
X100920233Y-25268738D01*
X100924000Y-25249801D01*
X100924000Y-23950199D01*
X100920233Y-23931262D01*
X100912886Y-23920267D01*
X100912755Y-23918271D01*
X100914418Y-23917160D01*
X100915660Y-23917493D01*
G37*
G36*
X101915660Y-23917493D02*
G01*
X101929452Y-23926709D01*
X101930615Y-23924969D01*
X101932409Y-23924084D01*
X101933560Y-23924545D01*
X101950952Y-23939078D01*
X102019670Y-23947704D01*
X102067288Y-23924918D01*
X102069282Y-23925072D01*
X102069814Y-23925611D01*
X102070548Y-23926709D01*
X102084340Y-23917493D01*
X102086336Y-23917362D01*
X102087447Y-23919025D01*
X102087114Y-23920267D01*
X102079767Y-23931262D01*
X102076000Y-23950199D01*
X102076000Y-25249801D01*
X102079767Y-25268738D01*
X102087114Y-25279733D01*
X102087245Y-25281729D01*
X102085582Y-25282840D01*
X102084340Y-25282507D01*
X102070548Y-25273291D01*
X102069385Y-25275031D01*
X102067591Y-25275916D01*
X102066440Y-25275455D01*
X102049048Y-25260922D01*
X101980330Y-25252296D01*
X101932712Y-25275082D01*
X101930718Y-25274928D01*
X101930186Y-25274389D01*
X101929452Y-25273291D01*
X101915660Y-25282507D01*
X101913664Y-25282638D01*
X101912553Y-25280975D01*
X101912886Y-25279733D01*
X101920233Y-25268738D01*
X101924000Y-25249801D01*
X101924000Y-23950199D01*
X101920233Y-23931262D01*
X101912886Y-23920267D01*
X101912755Y-23918271D01*
X101914418Y-23917160D01*
X101915660Y-23917493D01*
G37*
G36*
X99915660Y-23917493D02*
G01*
X99929452Y-23926709D01*
X99930615Y-23924969D01*
X99932409Y-23924084D01*
X99933560Y-23924545D01*
X99950952Y-23939078D01*
X100019670Y-23947704D01*
X100067288Y-23924918D01*
X100069282Y-23925072D01*
X100069814Y-23925611D01*
X100070548Y-23926709D01*
X100084340Y-23917493D01*
X100086336Y-23917362D01*
X100087447Y-23919025D01*
X100087114Y-23920267D01*
X100079767Y-23931262D01*
X100076000Y-23950199D01*
X100076000Y-25249801D01*
X100079767Y-25268738D01*
X100087114Y-25279733D01*
X100087245Y-25281729D01*
X100085582Y-25282840D01*
X100084340Y-25282507D01*
X100070548Y-25273291D01*
X100069385Y-25275031D01*
X100067591Y-25275916D01*
X100066440Y-25275455D01*
X100049048Y-25260922D01*
X99980330Y-25252296D01*
X99932712Y-25275082D01*
X99930718Y-25274928D01*
X99930186Y-25274389D01*
X99929452Y-25273291D01*
X99915660Y-25282507D01*
X99913664Y-25282638D01*
X99912553Y-25280975D01*
X99912886Y-25279733D01*
X99920233Y-25268738D01*
X99924000Y-25249801D01*
X99924000Y-23950199D01*
X99920233Y-23931262D01*
X99912886Y-23920267D01*
X99912755Y-23918271D01*
X99914418Y-23917160D01*
X99915660Y-23917493D01*
G37*
G36*
X101415660Y-23917493D02*
G01*
X101429452Y-23926709D01*
X101430615Y-23924969D01*
X101432409Y-23924084D01*
X101433560Y-23924545D01*
X101450952Y-23939078D01*
X101519670Y-23947704D01*
X101567288Y-23924918D01*
X101569282Y-23925072D01*
X101569814Y-23925611D01*
X101570548Y-23926709D01*
X101584340Y-23917493D01*
X101586336Y-23917362D01*
X101587447Y-23919025D01*
X101587114Y-23920267D01*
X101579767Y-23931262D01*
X101576000Y-23950199D01*
X101576000Y-25249801D01*
X101579767Y-25268738D01*
X101587114Y-25279733D01*
X101587245Y-25281729D01*
X101585582Y-25282840D01*
X101584340Y-25282507D01*
X101570548Y-25273291D01*
X101569385Y-25275031D01*
X101567591Y-25275916D01*
X101566440Y-25275455D01*
X101549048Y-25260922D01*
X101480330Y-25252296D01*
X101432712Y-25275082D01*
X101430718Y-25274928D01*
X101430186Y-25274389D01*
X101429452Y-25273291D01*
X101415660Y-25282507D01*
X101413664Y-25282638D01*
X101412553Y-25280975D01*
X101412886Y-25279733D01*
X101420233Y-25268738D01*
X101424000Y-25249801D01*
X101424000Y-23950199D01*
X101420233Y-23931262D01*
X101412886Y-23920267D01*
X101412755Y-23918271D01*
X101414418Y-23917160D01*
X101415660Y-23917493D01*
G37*
G36*
X113915660Y-23917493D02*
G01*
X113929452Y-23926709D01*
X113930615Y-23924969D01*
X113932409Y-23924084D01*
X113933560Y-23924545D01*
X113950952Y-23939078D01*
X114019670Y-23947704D01*
X114067288Y-23924918D01*
X114069282Y-23925072D01*
X114069814Y-23925611D01*
X114070548Y-23926709D01*
X114084340Y-23917493D01*
X114086336Y-23917362D01*
X114087447Y-23919025D01*
X114087114Y-23920267D01*
X114079767Y-23931262D01*
X114076000Y-23950199D01*
X114076000Y-25249801D01*
X114079767Y-25268738D01*
X114087114Y-25279733D01*
X114087245Y-25281729D01*
X114085582Y-25282840D01*
X114084340Y-25282507D01*
X114070548Y-25273291D01*
X114069385Y-25275031D01*
X114067591Y-25275916D01*
X114066440Y-25275455D01*
X114049048Y-25260922D01*
X113980330Y-25252296D01*
X113932712Y-25275082D01*
X113930718Y-25274928D01*
X113930186Y-25274389D01*
X113929452Y-25273291D01*
X113915660Y-25282507D01*
X113913664Y-25282638D01*
X113912553Y-25280975D01*
X113912886Y-25279733D01*
X113920233Y-25268738D01*
X113924000Y-25249801D01*
X113924000Y-23950199D01*
X113920233Y-23931262D01*
X113912886Y-23920267D01*
X113912755Y-23918271D01*
X113914418Y-23917160D01*
X113915660Y-23917493D01*
G37*
G36*
X113415660Y-23917493D02*
G01*
X113429452Y-23926709D01*
X113430615Y-23924969D01*
X113432409Y-23924084D01*
X113433560Y-23924545D01*
X113450952Y-23939078D01*
X113519670Y-23947704D01*
X113567288Y-23924918D01*
X113569282Y-23925072D01*
X113569814Y-23925611D01*
X113570548Y-23926709D01*
X113584340Y-23917493D01*
X113586336Y-23917362D01*
X113587447Y-23919025D01*
X113587114Y-23920267D01*
X113579767Y-23931262D01*
X113576000Y-23950199D01*
X113576000Y-25249801D01*
X113579767Y-25268738D01*
X113587114Y-25279733D01*
X113587245Y-25281729D01*
X113585582Y-25282840D01*
X113584340Y-25282507D01*
X113570548Y-25273291D01*
X113569385Y-25275031D01*
X113567591Y-25275916D01*
X113566440Y-25275455D01*
X113549048Y-25260922D01*
X113480330Y-25252296D01*
X113432712Y-25275082D01*
X113430718Y-25274928D01*
X113430186Y-25274389D01*
X113429452Y-25273291D01*
X113415660Y-25282507D01*
X113413664Y-25282638D01*
X113412553Y-25280975D01*
X113412886Y-25279733D01*
X113420233Y-25268738D01*
X113424000Y-25249801D01*
X113424000Y-23950199D01*
X113420233Y-23931262D01*
X113412886Y-23920267D01*
X113412755Y-23918271D01*
X113414418Y-23917160D01*
X113415660Y-23917493D01*
G37*
G36*
X112415660Y-23917493D02*
G01*
X112429452Y-23926709D01*
X112430615Y-23924969D01*
X112432409Y-23924084D01*
X112433560Y-23924545D01*
X112450952Y-23939078D01*
X112519670Y-23947704D01*
X112567288Y-23924918D01*
X112569282Y-23925072D01*
X112569814Y-23925611D01*
X112570548Y-23926709D01*
X112584340Y-23917493D01*
X112586336Y-23917362D01*
X112587447Y-23919025D01*
X112587114Y-23920267D01*
X112579767Y-23931262D01*
X112576000Y-23950199D01*
X112576000Y-25249801D01*
X112579767Y-25268738D01*
X112587114Y-25279733D01*
X112587245Y-25281729D01*
X112585582Y-25282840D01*
X112584340Y-25282507D01*
X112570548Y-25273291D01*
X112569385Y-25275031D01*
X112567591Y-25275916D01*
X112566440Y-25275455D01*
X112549048Y-25260922D01*
X112480330Y-25252296D01*
X112432712Y-25275082D01*
X112430718Y-25274928D01*
X112430186Y-25274389D01*
X112429452Y-25273291D01*
X112415660Y-25282507D01*
X112413664Y-25282638D01*
X112412553Y-25280975D01*
X112412886Y-25279733D01*
X112420233Y-25268738D01*
X112424000Y-25249801D01*
X112424000Y-23950199D01*
X112420233Y-23931262D01*
X112412886Y-23920267D01*
X112412755Y-23918271D01*
X112414418Y-23917160D01*
X112415660Y-23917493D01*
G37*
G36*
X105915660Y-23917493D02*
G01*
X105929452Y-23926709D01*
X105930615Y-23924969D01*
X105932409Y-23924084D01*
X105933560Y-23924545D01*
X105950952Y-23939078D01*
X106019670Y-23947704D01*
X106067288Y-23924918D01*
X106069282Y-23925072D01*
X106069814Y-23925611D01*
X106070548Y-23926709D01*
X106084340Y-23917493D01*
X106086336Y-23917362D01*
X106087447Y-23919025D01*
X106087114Y-23920267D01*
X106079767Y-23931262D01*
X106076000Y-23950199D01*
X106076000Y-25249801D01*
X106079767Y-25268738D01*
X106087114Y-25279733D01*
X106087245Y-25281729D01*
X106085582Y-25282840D01*
X106084340Y-25282507D01*
X106070548Y-25273291D01*
X106069385Y-25275031D01*
X106067591Y-25275916D01*
X106066440Y-25275455D01*
X106049048Y-25260922D01*
X105980330Y-25252296D01*
X105932712Y-25275082D01*
X105930718Y-25274928D01*
X105930186Y-25274389D01*
X105929452Y-25273291D01*
X105915660Y-25282507D01*
X105913664Y-25282638D01*
X105912553Y-25280975D01*
X105912886Y-25279733D01*
X105920233Y-25268738D01*
X105924000Y-25249801D01*
X105924000Y-23950199D01*
X105920233Y-23931262D01*
X105912886Y-23920267D01*
X105912755Y-23918271D01*
X105914418Y-23917160D01*
X105915660Y-23917493D01*
G37*
G36*
X111915660Y-23917493D02*
G01*
X111929452Y-23926709D01*
X111930615Y-23924969D01*
X111932409Y-23924084D01*
X111933560Y-23924545D01*
X111950952Y-23939078D01*
X112019670Y-23947704D01*
X112067288Y-23924918D01*
X112069282Y-23925072D01*
X112069814Y-23925611D01*
X112070548Y-23926709D01*
X112084340Y-23917493D01*
X112086336Y-23917362D01*
X112087447Y-23919025D01*
X112087114Y-23920267D01*
X112079767Y-23931262D01*
X112076000Y-23950199D01*
X112076000Y-25249801D01*
X112079767Y-25268738D01*
X112087114Y-25279733D01*
X112087245Y-25281729D01*
X112085582Y-25282840D01*
X112084340Y-25282507D01*
X112070548Y-25273291D01*
X112069385Y-25275031D01*
X112067591Y-25275916D01*
X112066440Y-25275455D01*
X112049048Y-25260922D01*
X111980330Y-25252296D01*
X111932712Y-25275082D01*
X111930718Y-25274928D01*
X111930186Y-25274389D01*
X111929452Y-25273291D01*
X111915660Y-25282507D01*
X111913664Y-25282638D01*
X111912553Y-25280975D01*
X111912886Y-25279733D01*
X111920233Y-25268738D01*
X111924000Y-25249801D01*
X111924000Y-23950199D01*
X111920233Y-23931262D01*
X111912886Y-23920267D01*
X111912755Y-23918271D01*
X111914418Y-23917160D01*
X111915660Y-23917493D01*
G37*
G36*
X112915660Y-23917493D02*
G01*
X112929452Y-23926709D01*
X112930615Y-23924969D01*
X112932409Y-23924084D01*
X112933560Y-23924545D01*
X112950952Y-23939078D01*
X113019670Y-23947704D01*
X113067288Y-23924918D01*
X113069282Y-23925072D01*
X113069814Y-23925611D01*
X113070548Y-23926709D01*
X113084340Y-23917493D01*
X113086336Y-23917362D01*
X113087447Y-23919025D01*
X113087114Y-23920267D01*
X113079767Y-23931262D01*
X113076000Y-23950199D01*
X113076000Y-25249801D01*
X113079767Y-25268738D01*
X113087114Y-25279733D01*
X113087245Y-25281729D01*
X113085582Y-25282840D01*
X113084340Y-25282507D01*
X113070548Y-25273291D01*
X113069385Y-25275031D01*
X113067591Y-25275916D01*
X113066440Y-25275455D01*
X113049048Y-25260922D01*
X112980330Y-25252296D01*
X112932712Y-25275082D01*
X112930718Y-25274928D01*
X112930186Y-25274389D01*
X112929452Y-25273291D01*
X112915660Y-25282507D01*
X112913664Y-25282638D01*
X112912553Y-25280975D01*
X112912886Y-25279733D01*
X112920233Y-25268738D01*
X112924000Y-25249801D01*
X112924000Y-23950199D01*
X112920233Y-23931262D01*
X112912886Y-23920267D01*
X112912755Y-23918271D01*
X112914418Y-23917160D01*
X112915660Y-23917493D01*
G37*
G36*
X111415660Y-23917493D02*
G01*
X111429452Y-23926709D01*
X111430615Y-23924969D01*
X111432409Y-23924084D01*
X111433560Y-23924545D01*
X111450952Y-23939078D01*
X111519670Y-23947704D01*
X111567288Y-23924918D01*
X111569282Y-23925072D01*
X111569814Y-23925611D01*
X111570548Y-23926709D01*
X111584340Y-23917493D01*
X111586336Y-23917362D01*
X111587447Y-23919025D01*
X111587114Y-23920267D01*
X111579767Y-23931262D01*
X111576000Y-23950199D01*
X111576000Y-25249801D01*
X111579767Y-25268738D01*
X111587114Y-25279733D01*
X111587245Y-25281729D01*
X111585582Y-25282840D01*
X111584340Y-25282507D01*
X111570548Y-25273291D01*
X111569385Y-25275031D01*
X111567591Y-25275916D01*
X111566440Y-25275455D01*
X111549048Y-25260922D01*
X111480330Y-25252296D01*
X111432712Y-25275082D01*
X111430718Y-25274928D01*
X111430186Y-25274389D01*
X111429452Y-25273291D01*
X111415660Y-25282507D01*
X111413664Y-25282638D01*
X111412553Y-25280975D01*
X111412886Y-25279733D01*
X111420233Y-25268738D01*
X111424000Y-25249801D01*
X111424000Y-23950199D01*
X111420233Y-23931262D01*
X111412886Y-23920267D01*
X111412755Y-23918271D01*
X111414418Y-23917160D01*
X111415660Y-23917493D01*
G37*
G36*
X110915660Y-23917493D02*
G01*
X110929452Y-23926709D01*
X110930615Y-23924969D01*
X110932409Y-23924084D01*
X110933560Y-23924545D01*
X110950952Y-23939078D01*
X111019670Y-23947704D01*
X111067288Y-23924918D01*
X111069282Y-23925072D01*
X111069814Y-23925611D01*
X111070548Y-23926709D01*
X111084340Y-23917493D01*
X111086336Y-23917362D01*
X111087447Y-23919025D01*
X111087114Y-23920267D01*
X111079767Y-23931262D01*
X111076000Y-23950199D01*
X111076000Y-25249801D01*
X111079767Y-25268738D01*
X111087114Y-25279733D01*
X111087245Y-25281729D01*
X111085582Y-25282840D01*
X111084340Y-25282507D01*
X111070548Y-25273291D01*
X111069385Y-25275031D01*
X111067591Y-25275916D01*
X111066440Y-25275455D01*
X111049048Y-25260922D01*
X110980330Y-25252296D01*
X110932712Y-25275082D01*
X110930718Y-25274928D01*
X110930186Y-25274389D01*
X110929452Y-25273291D01*
X110915660Y-25282507D01*
X110913664Y-25282638D01*
X110912553Y-25280975D01*
X110912886Y-25279733D01*
X110920233Y-25268738D01*
X110924000Y-25249801D01*
X110924000Y-23950199D01*
X110920233Y-23931262D01*
X110912886Y-23920267D01*
X110912755Y-23918271D01*
X110914418Y-23917160D01*
X110915660Y-23917493D01*
G37*
G36*
X114415660Y-23917493D02*
G01*
X114429452Y-23926709D01*
X114430615Y-23924969D01*
X114432409Y-23924084D01*
X114433560Y-23924545D01*
X114450952Y-23939078D01*
X114519670Y-23947704D01*
X114567288Y-23924918D01*
X114569282Y-23925072D01*
X114569814Y-23925611D01*
X114570548Y-23926709D01*
X114584340Y-23917493D01*
X114586336Y-23917362D01*
X114587447Y-23919025D01*
X114587114Y-23920267D01*
X114579767Y-23931262D01*
X114576000Y-23950199D01*
X114576000Y-25249801D01*
X114579767Y-25268738D01*
X114587114Y-25279733D01*
X114587245Y-25281729D01*
X114585582Y-25282840D01*
X114584340Y-25282507D01*
X114570548Y-25273291D01*
X114569385Y-25275031D01*
X114567591Y-25275916D01*
X114566440Y-25275455D01*
X114549048Y-25260922D01*
X114480330Y-25252296D01*
X114432712Y-25275082D01*
X114430718Y-25274928D01*
X114430186Y-25274389D01*
X114429452Y-25273291D01*
X114415660Y-25282507D01*
X114413664Y-25282638D01*
X114412553Y-25280975D01*
X114412886Y-25279733D01*
X114420233Y-25268738D01*
X114424000Y-25249801D01*
X114424000Y-23950199D01*
X114420233Y-23931262D01*
X114412886Y-23920267D01*
X114412755Y-23918271D01*
X114414418Y-23917160D01*
X114415660Y-23917493D01*
G37*
G36*
X104915660Y-23917493D02*
G01*
X104929452Y-23926709D01*
X104930615Y-23924969D01*
X104932409Y-23924084D01*
X104933560Y-23924545D01*
X104950952Y-23939078D01*
X105019670Y-23947704D01*
X105067288Y-23924918D01*
X105069282Y-23925072D01*
X105069814Y-23925611D01*
X105070548Y-23926709D01*
X105084340Y-23917493D01*
X105086336Y-23917362D01*
X105087447Y-23919025D01*
X105087114Y-23920267D01*
X105079767Y-23931262D01*
X105076000Y-23950199D01*
X105076000Y-25249801D01*
X105079767Y-25268738D01*
X105087114Y-25279733D01*
X105087245Y-25281729D01*
X105085582Y-25282840D01*
X105084340Y-25282507D01*
X105070548Y-25273291D01*
X105069385Y-25275031D01*
X105067591Y-25275916D01*
X105066440Y-25275455D01*
X105049048Y-25260922D01*
X104980330Y-25252296D01*
X104932712Y-25275082D01*
X104930718Y-25274928D01*
X104930186Y-25274389D01*
X104929452Y-25273291D01*
X104915660Y-25282507D01*
X104913664Y-25282638D01*
X104912553Y-25280975D01*
X104912886Y-25279733D01*
X104920233Y-25268738D01*
X104924000Y-25249801D01*
X104924000Y-23950199D01*
X104920233Y-23931262D01*
X104912886Y-23920267D01*
X104912755Y-23918271D01*
X104914418Y-23917160D01*
X104915660Y-23917493D01*
G37*
G36*
X99415660Y-23917493D02*
G01*
X99429452Y-23926709D01*
X99430615Y-23924969D01*
X99432409Y-23924084D01*
X99433560Y-23924545D01*
X99450952Y-23939078D01*
X99519670Y-23947704D01*
X99567288Y-23924918D01*
X99569282Y-23925072D01*
X99569814Y-23925611D01*
X99570548Y-23926709D01*
X99584340Y-23917493D01*
X99586336Y-23917362D01*
X99587447Y-23919025D01*
X99587114Y-23920267D01*
X99579767Y-23931262D01*
X99576000Y-23950199D01*
X99576000Y-25249801D01*
X99579767Y-25268738D01*
X99587114Y-25279733D01*
X99587245Y-25281729D01*
X99585582Y-25282840D01*
X99584340Y-25282507D01*
X99570548Y-25273291D01*
X99569385Y-25275031D01*
X99567591Y-25275916D01*
X99566440Y-25275455D01*
X99549048Y-25260922D01*
X99480330Y-25252296D01*
X99432712Y-25275082D01*
X99430718Y-25274928D01*
X99430186Y-25274389D01*
X99429452Y-25273291D01*
X99415660Y-25282507D01*
X99413664Y-25282638D01*
X99412553Y-25280975D01*
X99412886Y-25279733D01*
X99420233Y-25268738D01*
X99424000Y-25249801D01*
X99424000Y-23950199D01*
X99420233Y-23931262D01*
X99412886Y-23920267D01*
X99412755Y-23918271D01*
X99414418Y-23917160D01*
X99415660Y-23917493D01*
G37*
G36*
X98415660Y-23917493D02*
G01*
X98429452Y-23926709D01*
X98430615Y-23924969D01*
X98432409Y-23924084D01*
X98433560Y-23924545D01*
X98450952Y-23939078D01*
X98519670Y-23947704D01*
X98567288Y-23924918D01*
X98569282Y-23925072D01*
X98569814Y-23925611D01*
X98570548Y-23926709D01*
X98584340Y-23917493D01*
X98586336Y-23917362D01*
X98587447Y-23919025D01*
X98587114Y-23920267D01*
X98579767Y-23931262D01*
X98576000Y-23950199D01*
X98576000Y-25249801D01*
X98579767Y-25268738D01*
X98587114Y-25279733D01*
X98587245Y-25281729D01*
X98585582Y-25282840D01*
X98584340Y-25282507D01*
X98570548Y-25273291D01*
X98569385Y-25275031D01*
X98567591Y-25275916D01*
X98566440Y-25275455D01*
X98549048Y-25260922D01*
X98480330Y-25252296D01*
X98432712Y-25275082D01*
X98430718Y-25274928D01*
X98430186Y-25274389D01*
X98429452Y-25273291D01*
X98415660Y-25282507D01*
X98413664Y-25282638D01*
X98412553Y-25280975D01*
X98412886Y-25279733D01*
X98420233Y-25268738D01*
X98424000Y-25249801D01*
X98424000Y-23950199D01*
X98420233Y-23931262D01*
X98412886Y-23920267D01*
X98412755Y-23918271D01*
X98414418Y-23917160D01*
X98415660Y-23917493D01*
G37*
G36*
X102915660Y-23917493D02*
G01*
X102929452Y-23926709D01*
X102930615Y-23924969D01*
X102932409Y-23924084D01*
X102933560Y-23924545D01*
X102950952Y-23939078D01*
X103019670Y-23947704D01*
X103067288Y-23924918D01*
X103069282Y-23925072D01*
X103069814Y-23925611D01*
X103070548Y-23926709D01*
X103084340Y-23917493D01*
X103086336Y-23917362D01*
X103087447Y-23919025D01*
X103087114Y-23920267D01*
X103079767Y-23931262D01*
X103076000Y-23950199D01*
X103076000Y-25249801D01*
X103079767Y-25268738D01*
X103087114Y-25279733D01*
X103087245Y-25281729D01*
X103085582Y-25282840D01*
X103084340Y-25282507D01*
X103070548Y-25273291D01*
X103069385Y-25275031D01*
X103067591Y-25275916D01*
X103066440Y-25275455D01*
X103049048Y-25260922D01*
X102980330Y-25252296D01*
X102932712Y-25275082D01*
X102930718Y-25274928D01*
X102930186Y-25274389D01*
X102929452Y-25273291D01*
X102915660Y-25282507D01*
X102913664Y-25282638D01*
X102912553Y-25280975D01*
X102912886Y-25279733D01*
X102920233Y-25268738D01*
X102924000Y-25249801D01*
X102924000Y-23950199D01*
X102920233Y-23931262D01*
X102912886Y-23920267D01*
X102912755Y-23918271D01*
X102914418Y-23917160D01*
X102915660Y-23917493D01*
G37*
G36*
X103415660Y-23917493D02*
G01*
X103429452Y-23926709D01*
X103430615Y-23924969D01*
X103432409Y-23924084D01*
X103433560Y-23924545D01*
X103450952Y-23939078D01*
X103519670Y-23947704D01*
X103567288Y-23924918D01*
X103569282Y-23925072D01*
X103569814Y-23925611D01*
X103570548Y-23926709D01*
X103584340Y-23917493D01*
X103586336Y-23917362D01*
X103587447Y-23919025D01*
X103587114Y-23920267D01*
X103579767Y-23931262D01*
X103576000Y-23950199D01*
X103576000Y-25249801D01*
X103579767Y-25268738D01*
X103587114Y-25279733D01*
X103587245Y-25281729D01*
X103585582Y-25282840D01*
X103584340Y-25282507D01*
X103570548Y-25273291D01*
X103569385Y-25275031D01*
X103567591Y-25275916D01*
X103566440Y-25275455D01*
X103549048Y-25260922D01*
X103480330Y-25252296D01*
X103432712Y-25275082D01*
X103430718Y-25274928D01*
X103430186Y-25274389D01*
X103429452Y-25273291D01*
X103415660Y-25282507D01*
X103413664Y-25282638D01*
X103412553Y-25280975D01*
X103412886Y-25279733D01*
X103420233Y-25268738D01*
X103424000Y-25249801D01*
X103424000Y-23950199D01*
X103420233Y-23931262D01*
X103412886Y-23920267D01*
X103412755Y-23918271D01*
X103414418Y-23917160D01*
X103415660Y-23917493D01*
G37*
G36*
X104415660Y-23917493D02*
G01*
X104429452Y-23926709D01*
X104430615Y-23924969D01*
X104432409Y-23924084D01*
X104433560Y-23924545D01*
X104450952Y-23939078D01*
X104519670Y-23947704D01*
X104567288Y-23924918D01*
X104569282Y-23925072D01*
X104569814Y-23925611D01*
X104570548Y-23926709D01*
X104584340Y-23917493D01*
X104586336Y-23917362D01*
X104587447Y-23919025D01*
X104587114Y-23920267D01*
X104579767Y-23931262D01*
X104576000Y-23950199D01*
X104576000Y-25249801D01*
X104579767Y-25268738D01*
X104587114Y-25279733D01*
X104587245Y-25281729D01*
X104585582Y-25282840D01*
X104584340Y-25282507D01*
X104570548Y-25273291D01*
X104569385Y-25275031D01*
X104567591Y-25275916D01*
X104566440Y-25275455D01*
X104549048Y-25260922D01*
X104480330Y-25252296D01*
X104432712Y-25275082D01*
X104430718Y-25274928D01*
X104430186Y-25274389D01*
X104429452Y-25273291D01*
X104415660Y-25282507D01*
X104413664Y-25282638D01*
X104412553Y-25280975D01*
X104412886Y-25279733D01*
X104420233Y-25268738D01*
X104424000Y-25249801D01*
X104424000Y-23950199D01*
X104420233Y-23931262D01*
X104412886Y-23920267D01*
X104412755Y-23918271D01*
X104414418Y-23917160D01*
X104415660Y-23917493D01*
G37*
G36*
X105415660Y-23917493D02*
G01*
X105429452Y-23926709D01*
X105430615Y-23924969D01*
X105432409Y-23924084D01*
X105433560Y-23924545D01*
X105450952Y-23939078D01*
X105519670Y-23947704D01*
X105567288Y-23924918D01*
X105569282Y-23925072D01*
X105569814Y-23925611D01*
X105570548Y-23926709D01*
X105584340Y-23917493D01*
X105586336Y-23917362D01*
X105587447Y-23919025D01*
X105587114Y-23920267D01*
X105579767Y-23931262D01*
X105576000Y-23950199D01*
X105576000Y-25249801D01*
X105579767Y-25268738D01*
X105587114Y-25279733D01*
X105587245Y-25281729D01*
X105585582Y-25282840D01*
X105584340Y-25282507D01*
X105570548Y-25273291D01*
X105569385Y-25275031D01*
X105567591Y-25275916D01*
X105566440Y-25275455D01*
X105549048Y-25260922D01*
X105480330Y-25252296D01*
X105432712Y-25275082D01*
X105430718Y-25274928D01*
X105430186Y-25274389D01*
X105429452Y-25273291D01*
X105415660Y-25282507D01*
X105413664Y-25282638D01*
X105412553Y-25280975D01*
X105412886Y-25279733D01*
X105420233Y-25268738D01*
X105424000Y-25249801D01*
X105424000Y-23950199D01*
X105420233Y-23931262D01*
X105412886Y-23920267D01*
X105412755Y-23918271D01*
X105414418Y-23917160D01*
X105415660Y-23917493D01*
G37*
G36*
X102415660Y-23917493D02*
G01*
X102429452Y-23926709D01*
X102430615Y-23924969D01*
X102432409Y-23924084D01*
X102433560Y-23924545D01*
X102450952Y-23939078D01*
X102519670Y-23947704D01*
X102567288Y-23924918D01*
X102569282Y-23925072D01*
X102569814Y-23925611D01*
X102570548Y-23926709D01*
X102584340Y-23917493D01*
X102586336Y-23917362D01*
X102587447Y-23919025D01*
X102587114Y-23920267D01*
X102579767Y-23931262D01*
X102576000Y-23950199D01*
X102576000Y-25249801D01*
X102579767Y-25268738D01*
X102587114Y-25279733D01*
X102587245Y-25281729D01*
X102585582Y-25282840D01*
X102584340Y-25282507D01*
X102570548Y-25273291D01*
X102569385Y-25275031D01*
X102567591Y-25275916D01*
X102566440Y-25275455D01*
X102549048Y-25260922D01*
X102480330Y-25252296D01*
X102432712Y-25275082D01*
X102430718Y-25274928D01*
X102430186Y-25274389D01*
X102429452Y-25273291D01*
X102415660Y-25282507D01*
X102413664Y-25282638D01*
X102412553Y-25280975D01*
X102412886Y-25279733D01*
X102420233Y-25268738D01*
X102424000Y-25249801D01*
X102424000Y-23950199D01*
X102420233Y-23931262D01*
X102412886Y-23920267D01*
X102412755Y-23918271D01*
X102414418Y-23917160D01*
X102415660Y-23917493D01*
G37*
G36*
X98915660Y-23917493D02*
G01*
X98929452Y-23926709D01*
X98930615Y-23924969D01*
X98932409Y-23924084D01*
X98933560Y-23924545D01*
X98950952Y-23939078D01*
X99019670Y-23947704D01*
X99067288Y-23924918D01*
X99069282Y-23925072D01*
X99069814Y-23925611D01*
X99070548Y-23926709D01*
X99084340Y-23917493D01*
X99086336Y-23917362D01*
X99087447Y-23919025D01*
X99087114Y-23920267D01*
X99079767Y-23931262D01*
X99076000Y-23950199D01*
X99076000Y-25249801D01*
X99079767Y-25268738D01*
X99087114Y-25279733D01*
X99087245Y-25281729D01*
X99085582Y-25282840D01*
X99084340Y-25282507D01*
X99070548Y-25273291D01*
X99069385Y-25275031D01*
X99067591Y-25275916D01*
X99066440Y-25275455D01*
X99049048Y-25260922D01*
X98980330Y-25252296D01*
X98932712Y-25275082D01*
X98930718Y-25274928D01*
X98930186Y-25274389D01*
X98929452Y-25273291D01*
X98915660Y-25282507D01*
X98913664Y-25282638D01*
X98912553Y-25280975D01*
X98912886Y-25279733D01*
X98920233Y-25268738D01*
X98924000Y-25249801D01*
X98924000Y-23950199D01*
X98920233Y-23931262D01*
X98912886Y-23920267D01*
X98912755Y-23918271D01*
X98914418Y-23917160D01*
X98915660Y-23917493D01*
G37*
G36*
X106415660Y-23917493D02*
G01*
X106429452Y-23926709D01*
X106430615Y-23924969D01*
X106432409Y-23924084D01*
X106433560Y-23924545D01*
X106450952Y-23939078D01*
X106519670Y-23947704D01*
X106567288Y-23924918D01*
X106569282Y-23925072D01*
X106569814Y-23925611D01*
X106570548Y-23926709D01*
X106584340Y-23917493D01*
X106586336Y-23917362D01*
X106587447Y-23919025D01*
X106587114Y-23920267D01*
X106579767Y-23931262D01*
X106576000Y-23950199D01*
X106576000Y-25249801D01*
X106579767Y-25268738D01*
X106587114Y-25279733D01*
X106587245Y-25281729D01*
X106585582Y-25282840D01*
X106584340Y-25282507D01*
X106570548Y-25273291D01*
X106569385Y-25275031D01*
X106567591Y-25275916D01*
X106566440Y-25275455D01*
X106549048Y-25260922D01*
X106480330Y-25252296D01*
X106432712Y-25275082D01*
X106430718Y-25274928D01*
X106430186Y-25274389D01*
X106429452Y-25273291D01*
X106415660Y-25282507D01*
X106413664Y-25282638D01*
X106412553Y-25280975D01*
X106412886Y-25279733D01*
X106420233Y-25268738D01*
X106424000Y-25249801D01*
X106424000Y-23950199D01*
X106420233Y-23931262D01*
X106412886Y-23920267D01*
X106412755Y-23918271D01*
X106414418Y-23917160D01*
X106415660Y-23917493D01*
G37*
G36*
X109915660Y-23917493D02*
G01*
X109929452Y-23926709D01*
X109930615Y-23924969D01*
X109932409Y-23924084D01*
X109933560Y-23924545D01*
X109950952Y-23939078D01*
X110019670Y-23947704D01*
X110067288Y-23924918D01*
X110069282Y-23925072D01*
X110069814Y-23925611D01*
X110070548Y-23926709D01*
X110084340Y-23917493D01*
X110086336Y-23917362D01*
X110087447Y-23919025D01*
X110087114Y-23920267D01*
X110079767Y-23931262D01*
X110076000Y-23950199D01*
X110076000Y-25249801D01*
X110079767Y-25268738D01*
X110087114Y-25279733D01*
X110087245Y-25281729D01*
X110085582Y-25282840D01*
X110084340Y-25282507D01*
X110070548Y-25273291D01*
X110069385Y-25275031D01*
X110067591Y-25275916D01*
X110066440Y-25275455D01*
X110049048Y-25260922D01*
X109980330Y-25252296D01*
X109932712Y-25275082D01*
X109930718Y-25274928D01*
X109930186Y-25274389D01*
X109929452Y-25273291D01*
X109915660Y-25282507D01*
X109913664Y-25282638D01*
X109912553Y-25280975D01*
X109912886Y-25279733D01*
X109920233Y-25268738D01*
X109924000Y-25249801D01*
X109924000Y-23950199D01*
X109920233Y-23931262D01*
X109912886Y-23920267D01*
X109912755Y-23918271D01*
X109914418Y-23917160D01*
X109915660Y-23917493D01*
G37*
G36*
X109415660Y-23917493D02*
G01*
X109429452Y-23926709D01*
X109430615Y-23924969D01*
X109432409Y-23924084D01*
X109433560Y-23924545D01*
X109450952Y-23939078D01*
X109519670Y-23947704D01*
X109567288Y-23924918D01*
X109569282Y-23925072D01*
X109569814Y-23925611D01*
X109570548Y-23926709D01*
X109584340Y-23917493D01*
X109586336Y-23917362D01*
X109587447Y-23919025D01*
X109587114Y-23920267D01*
X109579767Y-23931262D01*
X109576000Y-23950199D01*
X109576000Y-25249801D01*
X109579767Y-25268738D01*
X109587114Y-25279733D01*
X109587245Y-25281729D01*
X109585582Y-25282840D01*
X109584340Y-25282507D01*
X109570548Y-25273291D01*
X109569385Y-25275031D01*
X109567591Y-25275916D01*
X109566440Y-25275455D01*
X109549048Y-25260922D01*
X109480330Y-25252296D01*
X109432712Y-25275082D01*
X109430718Y-25274928D01*
X109430186Y-25274389D01*
X109429452Y-25273291D01*
X109415660Y-25282507D01*
X109413664Y-25282638D01*
X109412553Y-25280975D01*
X109412886Y-25279733D01*
X109420233Y-25268738D01*
X109424000Y-25249801D01*
X109424000Y-23950199D01*
X109420233Y-23931262D01*
X109412886Y-23920267D01*
X109412755Y-23918271D01*
X109414418Y-23917160D01*
X109415660Y-23917493D01*
G37*
G36*
X108915660Y-23917493D02*
G01*
X108929452Y-23926709D01*
X108930615Y-23924969D01*
X108932409Y-23924084D01*
X108933560Y-23924545D01*
X108950952Y-23939078D01*
X109019670Y-23947704D01*
X109067288Y-23924918D01*
X109069282Y-23925072D01*
X109069814Y-23925611D01*
X109070548Y-23926709D01*
X109084340Y-23917493D01*
X109086336Y-23917362D01*
X109087447Y-23919025D01*
X109087114Y-23920267D01*
X109079767Y-23931262D01*
X109076000Y-23950199D01*
X109076000Y-25249801D01*
X109079767Y-25268738D01*
X109087114Y-25279733D01*
X109087245Y-25281729D01*
X109085582Y-25282840D01*
X109084340Y-25282507D01*
X109070548Y-25273291D01*
X109069385Y-25275031D01*
X109067591Y-25275916D01*
X109066440Y-25275455D01*
X109049048Y-25260922D01*
X108980330Y-25252296D01*
X108932712Y-25275082D01*
X108930718Y-25274928D01*
X108930186Y-25274389D01*
X108929452Y-25273291D01*
X108915660Y-25282507D01*
X108913664Y-25282638D01*
X108912553Y-25280975D01*
X108912886Y-25279733D01*
X108920233Y-25268738D01*
X108924000Y-25249801D01*
X108924000Y-23950199D01*
X108920233Y-23931262D01*
X108912886Y-23920267D01*
X108912755Y-23918271D01*
X108914418Y-23917160D01*
X108915660Y-23917493D01*
G37*
G36*
X110415660Y-23917493D02*
G01*
X110429452Y-23926709D01*
X110430615Y-23924969D01*
X110432409Y-23924084D01*
X110433560Y-23924545D01*
X110450952Y-23939078D01*
X110519670Y-23947704D01*
X110567288Y-23924918D01*
X110569282Y-23925072D01*
X110569814Y-23925611D01*
X110570548Y-23926709D01*
X110584340Y-23917493D01*
X110586336Y-23917362D01*
X110587447Y-23919025D01*
X110587114Y-23920267D01*
X110579767Y-23931262D01*
X110576000Y-23950199D01*
X110576000Y-25249801D01*
X110579767Y-25268738D01*
X110587114Y-25279733D01*
X110587245Y-25281729D01*
X110585582Y-25282840D01*
X110584340Y-25282507D01*
X110570548Y-25273291D01*
X110569385Y-25275031D01*
X110567591Y-25275916D01*
X110566440Y-25275455D01*
X110549048Y-25260922D01*
X110480330Y-25252296D01*
X110432712Y-25275082D01*
X110430718Y-25274928D01*
X110430186Y-25274389D01*
X110429452Y-25273291D01*
X110415660Y-25282507D01*
X110413664Y-25282638D01*
X110412553Y-25280975D01*
X110412886Y-25279733D01*
X110420233Y-25268738D01*
X110424000Y-25249801D01*
X110424000Y-23950199D01*
X110420233Y-23931262D01*
X110412886Y-23920267D01*
X110412755Y-23918271D01*
X110414418Y-23917160D01*
X110415660Y-23917493D01*
G37*
G36*
X108415660Y-23917493D02*
G01*
X108429452Y-23926709D01*
X108430615Y-23924969D01*
X108432409Y-23924084D01*
X108433560Y-23924545D01*
X108450952Y-23939078D01*
X108519670Y-23947704D01*
X108567288Y-23924918D01*
X108569282Y-23925072D01*
X108569814Y-23925611D01*
X108570548Y-23926709D01*
X108584340Y-23917493D01*
X108586336Y-23917362D01*
X108587447Y-23919025D01*
X108587114Y-23920267D01*
X108579767Y-23931262D01*
X108576000Y-23950199D01*
X108576000Y-25249801D01*
X108579767Y-25268738D01*
X108587114Y-25279733D01*
X108587245Y-25281729D01*
X108585582Y-25282840D01*
X108584340Y-25282507D01*
X108570548Y-25273291D01*
X108569385Y-25275031D01*
X108567591Y-25275916D01*
X108566440Y-25275455D01*
X108549048Y-25260922D01*
X108480330Y-25252296D01*
X108432712Y-25275082D01*
X108430718Y-25274928D01*
X108430186Y-25274389D01*
X108429452Y-25273291D01*
X108415660Y-25282507D01*
X108413664Y-25282638D01*
X108412553Y-25280975D01*
X108412886Y-25279733D01*
X108420233Y-25268738D01*
X108424000Y-25249801D01*
X108424000Y-23950199D01*
X108420233Y-23931262D01*
X108412886Y-23920267D01*
X108412755Y-23918271D01*
X108414418Y-23917160D01*
X108415660Y-23917493D01*
G37*
G36*
X106915660Y-23917493D02*
G01*
X106929452Y-23926709D01*
X106930615Y-23924969D01*
X106932409Y-23924084D01*
X106933560Y-23924545D01*
X106950952Y-23939078D01*
X107019670Y-23947704D01*
X107067288Y-23924918D01*
X107069282Y-23925072D01*
X107069814Y-23925611D01*
X107070548Y-23926709D01*
X107084340Y-23917493D01*
X107086336Y-23917362D01*
X107087447Y-23919025D01*
X107087114Y-23920267D01*
X107079767Y-23931262D01*
X107076000Y-23950199D01*
X107076000Y-25249801D01*
X107079767Y-25268738D01*
X107087114Y-25279733D01*
X107087245Y-25281729D01*
X107085582Y-25282840D01*
X107084340Y-25282507D01*
X107070548Y-25273291D01*
X107069385Y-25275031D01*
X107067591Y-25275916D01*
X107066440Y-25275455D01*
X107049048Y-25260922D01*
X106980330Y-25252296D01*
X106932712Y-25275082D01*
X106930718Y-25274928D01*
X106930186Y-25274389D01*
X106929452Y-25273291D01*
X106915660Y-25282507D01*
X106913664Y-25282638D01*
X106912553Y-25280975D01*
X106912886Y-25279733D01*
X106920233Y-25268738D01*
X106924000Y-25249801D01*
X106924000Y-23950199D01*
X106920233Y-23931262D01*
X106912886Y-23920267D01*
X106912755Y-23918271D01*
X106914418Y-23917160D01*
X106915660Y-23917493D01*
G37*
G36*
X107415660Y-23917493D02*
G01*
X107429452Y-23926709D01*
X107430615Y-23924969D01*
X107432409Y-23924084D01*
X107433560Y-23924545D01*
X107450952Y-23939078D01*
X107519670Y-23947704D01*
X107567288Y-23924918D01*
X107569282Y-23925072D01*
X107569814Y-23925611D01*
X107570548Y-23926709D01*
X107584340Y-23917493D01*
X107586336Y-23917362D01*
X107587447Y-23919025D01*
X107587114Y-23920267D01*
X107579767Y-23931262D01*
X107576000Y-23950199D01*
X107576000Y-25249801D01*
X107579767Y-25268738D01*
X107587114Y-25279733D01*
X107587245Y-25281729D01*
X107585582Y-25282840D01*
X107584340Y-25282507D01*
X107570548Y-25273291D01*
X107569385Y-25275031D01*
X107567591Y-25275916D01*
X107566440Y-25275455D01*
X107549048Y-25260922D01*
X107480330Y-25252296D01*
X107432712Y-25275082D01*
X107430718Y-25274928D01*
X107430186Y-25274389D01*
X107429452Y-25273291D01*
X107415660Y-25282507D01*
X107413664Y-25282638D01*
X107412553Y-25280975D01*
X107412886Y-25279733D01*
X107420233Y-25268738D01*
X107424000Y-25249801D01*
X107424000Y-23950199D01*
X107420233Y-23931262D01*
X107412886Y-23920267D01*
X107412755Y-23918271D01*
X107414418Y-23917160D01*
X107415660Y-23917493D01*
G37*
G36*
X103915660Y-23917493D02*
G01*
X103929452Y-23926709D01*
X103930615Y-23924969D01*
X103932409Y-23924084D01*
X103933560Y-23924545D01*
X103950952Y-23939078D01*
X104019670Y-23947704D01*
X104067288Y-23924918D01*
X104069282Y-23925072D01*
X104069814Y-23925611D01*
X104070548Y-23926709D01*
X104084340Y-23917493D01*
X104086336Y-23917362D01*
X104087447Y-23919025D01*
X104087114Y-23920267D01*
X104079767Y-23931262D01*
X104076000Y-23950199D01*
X104076000Y-25249801D01*
X104079767Y-25268738D01*
X104087114Y-25279733D01*
X104087245Y-25281729D01*
X104085582Y-25282840D01*
X104084340Y-25282507D01*
X104070548Y-25273291D01*
X104069385Y-25275031D01*
X104067591Y-25275916D01*
X104066440Y-25275455D01*
X104049048Y-25260922D01*
X103980330Y-25252296D01*
X103932712Y-25275082D01*
X103930718Y-25274928D01*
X103930186Y-25274389D01*
X103929452Y-25273291D01*
X103915660Y-25282507D01*
X103913664Y-25282638D01*
X103912553Y-25280975D01*
X103912886Y-25279733D01*
X103920233Y-25268738D01*
X103924000Y-25249801D01*
X103924000Y-23950199D01*
X103920233Y-23931262D01*
X103912886Y-23920267D01*
X103912755Y-23918271D01*
X103914418Y-23917160D01*
X103915660Y-23917493D01*
G37*
G36*
X107915660Y-23917493D02*
G01*
X107929452Y-23926709D01*
X107930615Y-23924969D01*
X107932409Y-23924084D01*
X107933560Y-23924545D01*
X107950952Y-23939078D01*
X108019670Y-23947704D01*
X108067288Y-23924918D01*
X108069282Y-23925072D01*
X108069814Y-23925611D01*
X108070548Y-23926709D01*
X108084340Y-23917493D01*
X108086336Y-23917362D01*
X108087447Y-23919025D01*
X108087114Y-23920267D01*
X108079767Y-23931262D01*
X108076000Y-23950199D01*
X108076000Y-25249801D01*
X108079767Y-25268738D01*
X108087114Y-25279733D01*
X108087245Y-25281729D01*
X108085582Y-25282840D01*
X108084340Y-25282507D01*
X108070548Y-25273291D01*
X108069385Y-25275031D01*
X108067591Y-25275916D01*
X108066440Y-25275455D01*
X108049048Y-25260922D01*
X107980330Y-25252296D01*
X107932712Y-25275082D01*
X107930718Y-25274928D01*
X107930186Y-25274389D01*
X107929452Y-25273291D01*
X107915660Y-25282507D01*
X107913664Y-25282638D01*
X107912553Y-25280975D01*
X107912886Y-25279733D01*
X107920233Y-25268738D01*
X107924000Y-25249801D01*
X107924000Y-23950199D01*
X107920233Y-23931262D01*
X107912886Y-23920267D01*
X107912755Y-23918271D01*
X107914418Y-23917160D01*
X107915660Y-23917493D01*
G37*
G36*
X67853891Y-22385374D02*
G01*
X67900944Y-22424697D01*
X67969660Y-22433330D01*
X68032289Y-22403367D01*
X68039800Y-22394697D01*
X68041690Y-22394043D01*
X68043202Y-22395353D01*
X68042975Y-22397118D01*
X68037379Y-22405494D01*
X68026000Y-22462699D01*
X68026000Y-23737301D01*
X68037379Y-23794506D01*
X68049055Y-23811980D01*
X68049186Y-23813976D01*
X68047523Y-23815087D01*
X68046109Y-23814626D01*
X67999056Y-23775303D01*
X67930340Y-23766670D01*
X67867711Y-23796633D01*
X67860200Y-23805303D01*
X67858310Y-23805957D01*
X67856798Y-23804647D01*
X67857025Y-23802882D01*
X67862621Y-23794506D01*
X67874000Y-23737301D01*
X67874000Y-22462699D01*
X67862621Y-22405494D01*
X67850945Y-22388020D01*
X67850814Y-22386024D01*
X67852477Y-22384913D01*
X67853891Y-22385374D01*
G37*
G36*
X69153891Y-22385374D02*
G01*
X69200944Y-22424697D01*
X69269660Y-22433330D01*
X69332289Y-22403367D01*
X69339800Y-22394697D01*
X69341690Y-22394043D01*
X69343202Y-22395353D01*
X69342975Y-22397118D01*
X69337379Y-22405494D01*
X69326000Y-22462699D01*
X69326000Y-23737301D01*
X69337379Y-23794506D01*
X69349055Y-23811980D01*
X69349186Y-23813976D01*
X69347523Y-23815087D01*
X69346109Y-23814626D01*
X69299056Y-23775303D01*
X69230340Y-23766670D01*
X69167711Y-23796633D01*
X69160200Y-23805303D01*
X69158310Y-23805957D01*
X69156798Y-23804647D01*
X69157025Y-23802882D01*
X69162621Y-23794506D01*
X69174000Y-23737301D01*
X69174000Y-22462699D01*
X69162621Y-22405494D01*
X69150945Y-22388020D01*
X69150814Y-22386024D01*
X69152477Y-22384913D01*
X69153891Y-22385374D01*
G37*
G36*
X67203891Y-22385374D02*
G01*
X67250944Y-22424697D01*
X67319660Y-22433330D01*
X67382289Y-22403367D01*
X67389800Y-22394697D01*
X67391690Y-22394043D01*
X67393202Y-22395353D01*
X67392975Y-22397118D01*
X67387379Y-22405494D01*
X67376000Y-22462699D01*
X67376000Y-23737301D01*
X67387379Y-23794506D01*
X67399055Y-23811980D01*
X67399186Y-23813976D01*
X67397523Y-23815087D01*
X67396109Y-23814626D01*
X67349056Y-23775303D01*
X67280340Y-23766670D01*
X67217711Y-23796633D01*
X67210200Y-23805303D01*
X67208310Y-23805957D01*
X67206798Y-23804647D01*
X67207025Y-23802882D01*
X67212621Y-23794506D01*
X67224000Y-23737301D01*
X67224000Y-22462699D01*
X67212621Y-22405494D01*
X67200945Y-22388020D01*
X67200814Y-22386024D01*
X67202477Y-22384913D01*
X67203891Y-22385374D01*
G37*
G36*
X68503891Y-22385374D02*
G01*
X68550944Y-22424697D01*
X68619660Y-22433330D01*
X68682289Y-22403367D01*
X68689800Y-22394697D01*
X68691690Y-22394043D01*
X68693202Y-22395353D01*
X68692975Y-22397118D01*
X68687379Y-22405494D01*
X68676000Y-22462699D01*
X68676000Y-23737301D01*
X68687379Y-23794506D01*
X68699055Y-23811980D01*
X68699186Y-23813976D01*
X68697523Y-23815087D01*
X68696109Y-23814626D01*
X68649056Y-23775303D01*
X68580340Y-23766670D01*
X68517711Y-23796633D01*
X68510200Y-23805303D01*
X68508310Y-23805957D01*
X68506798Y-23804647D01*
X68507025Y-23802882D01*
X68512621Y-23794506D01*
X68524000Y-23737301D01*
X68524000Y-22462699D01*
X68512621Y-22405494D01*
X68500945Y-22388020D01*
X68500814Y-22386024D01*
X68502477Y-22384913D01*
X68503891Y-22385374D01*
G37*
G36*
X69803891Y-22385374D02*
G01*
X69850944Y-22424697D01*
X69919660Y-22433330D01*
X69982289Y-22403367D01*
X69989800Y-22394697D01*
X69991690Y-22394043D01*
X69993202Y-22395353D01*
X69992975Y-22397118D01*
X69987379Y-22405494D01*
X69976000Y-22462699D01*
X69976000Y-23737301D01*
X69987379Y-23794506D01*
X69999055Y-23811980D01*
X69999186Y-23813976D01*
X69997523Y-23815087D01*
X69996109Y-23814626D01*
X69949056Y-23775303D01*
X69880340Y-23766670D01*
X69817711Y-23796633D01*
X69810200Y-23805303D01*
X69808310Y-23805957D01*
X69806798Y-23804647D01*
X69807025Y-23802882D01*
X69812621Y-23794506D01*
X69824000Y-23737301D01*
X69824000Y-22462699D01*
X69812621Y-22405494D01*
X69800945Y-22388020D01*
X69800814Y-22386024D01*
X69802477Y-22384913D01*
X69803891Y-22385374D01*
G37*
G36*
X66553891Y-22385374D02*
G01*
X66600944Y-22424697D01*
X66669660Y-22433330D01*
X66732289Y-22403367D01*
X66739800Y-22394697D01*
X66741690Y-22394043D01*
X66743202Y-22395353D01*
X66742975Y-22397118D01*
X66737379Y-22405494D01*
X66726000Y-22462699D01*
X66726000Y-23737301D01*
X66737379Y-23794506D01*
X66749055Y-23811980D01*
X66749186Y-23813976D01*
X66747523Y-23815087D01*
X66746109Y-23814626D01*
X66699056Y-23775303D01*
X66630340Y-23766670D01*
X66567711Y-23796633D01*
X66560200Y-23805303D01*
X66558310Y-23805957D01*
X66556798Y-23804647D01*
X66557025Y-23802882D01*
X66562621Y-23794506D01*
X66574000Y-23737301D01*
X66574000Y-22462699D01*
X66562621Y-22405494D01*
X66550945Y-22388020D01*
X66550814Y-22386024D01*
X66552477Y-22384913D01*
X66553891Y-22385374D01*
G37*
G36*
X63953891Y-22385374D02*
G01*
X64000944Y-22424697D01*
X64069660Y-22433330D01*
X64132289Y-22403367D01*
X64139800Y-22394697D01*
X64141690Y-22394043D01*
X64143202Y-22395353D01*
X64142975Y-22397118D01*
X64137379Y-22405494D01*
X64126000Y-22462699D01*
X64126000Y-23737301D01*
X64137379Y-23794506D01*
X64149055Y-23811980D01*
X64149186Y-23813976D01*
X64147523Y-23815087D01*
X64146109Y-23814626D01*
X64099056Y-23775303D01*
X64030340Y-23766670D01*
X63967711Y-23796633D01*
X63960200Y-23805303D01*
X63958310Y-23805957D01*
X63956798Y-23804647D01*
X63957025Y-23802882D01*
X63962621Y-23794506D01*
X63974000Y-23737301D01*
X63974000Y-22462699D01*
X63962621Y-22405494D01*
X63950945Y-22388020D01*
X63950814Y-22386024D01*
X63952477Y-22384913D01*
X63953891Y-22385374D01*
G37*
G36*
X65903891Y-22385374D02*
G01*
X65950944Y-22424697D01*
X66019660Y-22433330D01*
X66082289Y-22403367D01*
X66089800Y-22394697D01*
X66091690Y-22394043D01*
X66093202Y-22395353D01*
X66092975Y-22397118D01*
X66087379Y-22405494D01*
X66076000Y-22462699D01*
X66076000Y-23737301D01*
X66087379Y-23794506D01*
X66099055Y-23811980D01*
X66099186Y-23813976D01*
X66097523Y-23815087D01*
X66096109Y-23814626D01*
X66049056Y-23775303D01*
X65980340Y-23766670D01*
X65917711Y-23796633D01*
X65910200Y-23805303D01*
X65908310Y-23805957D01*
X65906798Y-23804647D01*
X65907025Y-23802882D01*
X65912621Y-23794506D01*
X65924000Y-23737301D01*
X65924000Y-22462699D01*
X65912621Y-22405494D01*
X65900945Y-22388020D01*
X65900814Y-22386024D01*
X65902477Y-22384913D01*
X65903891Y-22385374D01*
G37*
G36*
X63303891Y-22385374D02*
G01*
X63350944Y-22424697D01*
X63419660Y-22433330D01*
X63482289Y-22403367D01*
X63489800Y-22394697D01*
X63491690Y-22394043D01*
X63493202Y-22395353D01*
X63492975Y-22397118D01*
X63487379Y-22405494D01*
X63476000Y-22462699D01*
X63476000Y-23737301D01*
X63487379Y-23794506D01*
X63499055Y-23811980D01*
X63499186Y-23813976D01*
X63497523Y-23815087D01*
X63496109Y-23814626D01*
X63449056Y-23775303D01*
X63380340Y-23766670D01*
X63317711Y-23796633D01*
X63310200Y-23805303D01*
X63308310Y-23805957D01*
X63306798Y-23804647D01*
X63307025Y-23802882D01*
X63312621Y-23794506D01*
X63324000Y-23737301D01*
X63324000Y-22462699D01*
X63312621Y-22405494D01*
X63300945Y-22388020D01*
X63300814Y-22386024D01*
X63302477Y-22384913D01*
X63303891Y-22385374D01*
G37*
G36*
X65253891Y-22385374D02*
G01*
X65300944Y-22424697D01*
X65369660Y-22433330D01*
X65432289Y-22403367D01*
X65439800Y-22394697D01*
X65441690Y-22394043D01*
X65443202Y-22395353D01*
X65442975Y-22397118D01*
X65437379Y-22405494D01*
X65426000Y-22462699D01*
X65426000Y-23737301D01*
X65437379Y-23794506D01*
X65449055Y-23811980D01*
X65449186Y-23813976D01*
X65447523Y-23815087D01*
X65446109Y-23814626D01*
X65399056Y-23775303D01*
X65330340Y-23766670D01*
X65267711Y-23796633D01*
X65260200Y-23805303D01*
X65258310Y-23805957D01*
X65256798Y-23804647D01*
X65257025Y-23802882D01*
X65262621Y-23794506D01*
X65274000Y-23737301D01*
X65274000Y-22462699D01*
X65262621Y-22405494D01*
X65250945Y-22388020D01*
X65250814Y-22386024D01*
X65252477Y-22384913D01*
X65253891Y-22385374D01*
G37*
G36*
X64603891Y-22385374D02*
G01*
X64650944Y-22424697D01*
X64719660Y-22433330D01*
X64782289Y-22403367D01*
X64789800Y-22394697D01*
X64791690Y-22394043D01*
X64793202Y-22395353D01*
X64792975Y-22397118D01*
X64787379Y-22405494D01*
X64776000Y-22462699D01*
X64776000Y-23737301D01*
X64787379Y-23794506D01*
X64799055Y-23811980D01*
X64799186Y-23813976D01*
X64797523Y-23815087D01*
X64796109Y-23814626D01*
X64749056Y-23775303D01*
X64680340Y-23766670D01*
X64617711Y-23796633D01*
X64610200Y-23805303D01*
X64608310Y-23805957D01*
X64606798Y-23804647D01*
X64607025Y-23802882D01*
X64612621Y-23794506D01*
X64624000Y-23737301D01*
X64624000Y-22462699D01*
X64612621Y-22405494D01*
X64600945Y-22388020D01*
X64600814Y-22386024D01*
X64602477Y-22384913D01*
X64603891Y-22385374D01*
G37*
G36*
X101467657Y-14326741D02*
G01*
X101481424Y-14335940D01*
X101547787Y-14356721D01*
X101618588Y-14335931D01*
X101632341Y-14326742D01*
X101634337Y-14326611D01*
X101635448Y-14328274D01*
X101635115Y-14329516D01*
X101627767Y-14340512D01*
X101624000Y-14359449D01*
X101624000Y-15171851D01*
X101627767Y-15190788D01*
X101635115Y-15201785D01*
X101635246Y-15203781D01*
X101633583Y-15204892D01*
X101632341Y-15204559D01*
X101618574Y-15195360D01*
X101552211Y-15174579D01*
X101481410Y-15195369D01*
X101467657Y-15204558D01*
X101465661Y-15204689D01*
X101464550Y-15203026D01*
X101464883Y-15201784D01*
X101472231Y-15190788D01*
X101475998Y-15171851D01*
X101475998Y-14359449D01*
X101472231Y-14340512D01*
X101464883Y-14329515D01*
X101464752Y-14327519D01*
X101466415Y-14326408D01*
X101467657Y-14326741D01*
G37*
G36*
X103967657Y-14326741D02*
G01*
X103981424Y-14335940D01*
X104047787Y-14356721D01*
X104118588Y-14335931D01*
X104132341Y-14326742D01*
X104134337Y-14326611D01*
X104135448Y-14328274D01*
X104135115Y-14329516D01*
X104127767Y-14340512D01*
X104124000Y-14359449D01*
X104124000Y-15171851D01*
X104127767Y-15190788D01*
X104135115Y-15201785D01*
X104135246Y-15203781D01*
X104133583Y-15204892D01*
X104132341Y-15204559D01*
X104118574Y-15195360D01*
X104052211Y-15174579D01*
X103981410Y-15195369D01*
X103967657Y-15204558D01*
X103965661Y-15204689D01*
X103964550Y-15203026D01*
X103964883Y-15201784D01*
X103972231Y-15190788D01*
X103975998Y-15171851D01*
X103975998Y-14359449D01*
X103972231Y-14340512D01*
X103964883Y-14329515D01*
X103964752Y-14327519D01*
X103966415Y-14326408D01*
X103967657Y-14326741D01*
G37*
G36*
X112967657Y-14326741D02*
G01*
X112981424Y-14335940D01*
X113047787Y-14356721D01*
X113118588Y-14335931D01*
X113132341Y-14326742D01*
X113134337Y-14326611D01*
X113135448Y-14328274D01*
X113135115Y-14329516D01*
X113127767Y-14340512D01*
X113124000Y-14359449D01*
X113124000Y-15171851D01*
X113127767Y-15190788D01*
X113135115Y-15201785D01*
X113135246Y-15203781D01*
X113133583Y-15204892D01*
X113132341Y-15204559D01*
X113118574Y-15195360D01*
X113052211Y-15174579D01*
X112981410Y-15195369D01*
X112967657Y-15204558D01*
X112965661Y-15204689D01*
X112964550Y-15203026D01*
X112964883Y-15201784D01*
X112972231Y-15190788D01*
X112975998Y-15171851D01*
X112975998Y-14359449D01*
X112972231Y-14340512D01*
X112964883Y-14329515D01*
X112964752Y-14327519D01*
X112966415Y-14326408D01*
X112967657Y-14326741D01*
G37*
G36*
X110467657Y-14326741D02*
G01*
X110481424Y-14335940D01*
X110547787Y-14356721D01*
X110618588Y-14335931D01*
X110632341Y-14326742D01*
X110634337Y-14326611D01*
X110635448Y-14328274D01*
X110635115Y-14329516D01*
X110627767Y-14340512D01*
X110624000Y-14359449D01*
X110624000Y-15171851D01*
X110627767Y-15190788D01*
X110635115Y-15201785D01*
X110635246Y-15203781D01*
X110633583Y-15204892D01*
X110632341Y-15204559D01*
X110618574Y-15195360D01*
X110552211Y-15174579D01*
X110481410Y-15195369D01*
X110467657Y-15204558D01*
X110465661Y-15204689D01*
X110464550Y-15203026D01*
X110464883Y-15201784D01*
X110472231Y-15190788D01*
X110475998Y-15171851D01*
X110475998Y-14359449D01*
X110472231Y-14340512D01*
X110464883Y-14329515D01*
X110464752Y-14327519D01*
X110466415Y-14326408D01*
X110467657Y-14326741D01*
G37*
G36*
X106467657Y-14326741D02*
G01*
X106481424Y-14335940D01*
X106547787Y-14356721D01*
X106618588Y-14335931D01*
X106632341Y-14326742D01*
X106634337Y-14326611D01*
X106635448Y-14328274D01*
X106635115Y-14329516D01*
X106627767Y-14340512D01*
X106624000Y-14359449D01*
X106624000Y-15171851D01*
X106627767Y-15190788D01*
X106635115Y-15201785D01*
X106635246Y-15203781D01*
X106633583Y-15204892D01*
X106632341Y-15204559D01*
X106618574Y-15195360D01*
X106552211Y-15174579D01*
X106481410Y-15195369D01*
X106467657Y-15204558D01*
X106465661Y-15204689D01*
X106464550Y-15203026D01*
X106464883Y-15201784D01*
X106472231Y-15190788D01*
X106475998Y-15171851D01*
X106475998Y-14359449D01*
X106472231Y-14340512D01*
X106464883Y-14329515D01*
X106464752Y-14327519D01*
X106466415Y-14326408D01*
X106467657Y-14326741D01*
G37*
G36*
X98967657Y-14326741D02*
G01*
X98981424Y-14335940D01*
X99047787Y-14356721D01*
X99118588Y-14335931D01*
X99132341Y-14326742D01*
X99134337Y-14326611D01*
X99135448Y-14328274D01*
X99135115Y-14329516D01*
X99127767Y-14340512D01*
X99124000Y-14359449D01*
X99124000Y-15171851D01*
X99127767Y-15190788D01*
X99135115Y-15201785D01*
X99135246Y-15203781D01*
X99133583Y-15204892D01*
X99132341Y-15204559D01*
X99118574Y-15195360D01*
X99052211Y-15174579D01*
X98981410Y-15195369D01*
X98967657Y-15204558D01*
X98965661Y-15204689D01*
X98964550Y-15203026D01*
X98964883Y-15201784D01*
X98972231Y-15190788D01*
X98975998Y-15171851D01*
X98975998Y-14359449D01*
X98972231Y-14340512D01*
X98964883Y-14329515D01*
X98964752Y-14327519D01*
X98966415Y-14326408D01*
X98967657Y-14326741D01*
G37*
G36*
X107967657Y-14326741D02*
G01*
X107981424Y-14335940D01*
X108047787Y-14356721D01*
X108118588Y-14335931D01*
X108132341Y-14326742D01*
X108134337Y-14326611D01*
X108135448Y-14328274D01*
X108135115Y-14329516D01*
X108127767Y-14340512D01*
X108124000Y-14359449D01*
X108124000Y-15171851D01*
X108127767Y-15190788D01*
X108135115Y-15201785D01*
X108135246Y-15203781D01*
X108133583Y-15204892D01*
X108132341Y-15204559D01*
X108118574Y-15195360D01*
X108052211Y-15174579D01*
X107981410Y-15195369D01*
X107967657Y-15204558D01*
X107965661Y-15204689D01*
X107964550Y-15203026D01*
X107964883Y-15201784D01*
X107972231Y-15190788D01*
X107975998Y-15171851D01*
X107975998Y-14359449D01*
X107972231Y-14340512D01*
X107964883Y-14329515D01*
X107964752Y-14327519D01*
X107966415Y-14326408D01*
X107967657Y-14326741D01*
G37*
G36*
X111467658Y-14326741D02*
G01*
X111481426Y-14335940D01*
X111547790Y-14356720D01*
X111618589Y-14335931D01*
X111632340Y-14326743D01*
X111634336Y-14326612D01*
X111635447Y-14328275D01*
X111635114Y-14329517D01*
X111627767Y-14340512D01*
X111624000Y-14359449D01*
X111624000Y-15171851D01*
X111627767Y-15190788D01*
X111635114Y-15201783D01*
X111635245Y-15203779D01*
X111633582Y-15204890D01*
X111632340Y-15204557D01*
X111618575Y-15195360D01*
X111552211Y-15174580D01*
X111481412Y-15195369D01*
X111467657Y-15204559D01*
X111465661Y-15204690D01*
X111464550Y-15203027D01*
X111464883Y-15201785D01*
X111472232Y-15190787D01*
X111475999Y-15171851D01*
X111475999Y-14359449D01*
X111472232Y-14340512D01*
X111464884Y-14329515D01*
X111464753Y-14327519D01*
X111466416Y-14326408D01*
X111467658Y-14326741D01*
G37*
G36*
X99967658Y-14326741D02*
G01*
X99981426Y-14335940D01*
X100047790Y-14356720D01*
X100118589Y-14335931D01*
X100132340Y-14326743D01*
X100134336Y-14326612D01*
X100135447Y-14328275D01*
X100135114Y-14329517D01*
X100127767Y-14340512D01*
X100124000Y-14359449D01*
X100124000Y-15171851D01*
X100127767Y-15190788D01*
X100135114Y-15201783D01*
X100135245Y-15203779D01*
X100133582Y-15204890D01*
X100132340Y-15204557D01*
X100118575Y-15195360D01*
X100052211Y-15174580D01*
X99981412Y-15195369D01*
X99967657Y-15204559D01*
X99965661Y-15204690D01*
X99964550Y-15203027D01*
X99964883Y-15201785D01*
X99972232Y-15190787D01*
X99975999Y-15171851D01*
X99975999Y-14359449D01*
X99972232Y-14340512D01*
X99964884Y-14329515D01*
X99964753Y-14327519D01*
X99966416Y-14326408D01*
X99967658Y-14326741D01*
G37*
G36*
X102467658Y-14326741D02*
G01*
X102481426Y-14335940D01*
X102547790Y-14356720D01*
X102618589Y-14335931D01*
X102632340Y-14326743D01*
X102634336Y-14326612D01*
X102635447Y-14328275D01*
X102635114Y-14329517D01*
X102627767Y-14340512D01*
X102624000Y-14359449D01*
X102624000Y-15171851D01*
X102627767Y-15190788D01*
X102635114Y-15201783D01*
X102635245Y-15203779D01*
X102633582Y-15204890D01*
X102632340Y-15204557D01*
X102618575Y-15195360D01*
X102552211Y-15174580D01*
X102481412Y-15195369D01*
X102467657Y-15204559D01*
X102465661Y-15204690D01*
X102464550Y-15203027D01*
X102464883Y-15201785D01*
X102472232Y-15190787D01*
X102475999Y-15171851D01*
X102475999Y-14359449D01*
X102472232Y-14340512D01*
X102464884Y-14329515D01*
X102464753Y-14327519D01*
X102466416Y-14326408D01*
X102467658Y-14326741D01*
G37*
G36*
X104467660Y-14326743D02*
G01*
X104481425Y-14335940D01*
X104547789Y-14356720D01*
X104618590Y-14335930D01*
X104632339Y-14326744D01*
X104634335Y-14326613D01*
X104635446Y-14328276D01*
X104635113Y-14329518D01*
X104627766Y-14340513D01*
X104623999Y-14359449D01*
X104623999Y-15171851D01*
X104627766Y-15190788D01*
X104635113Y-15201783D01*
X104635244Y-15203779D01*
X104633581Y-15204890D01*
X104632339Y-15204557D01*
X104618576Y-15195361D01*
X104552212Y-15174580D01*
X104481411Y-15195369D01*
X104467660Y-15204557D01*
X104465664Y-15204688D01*
X104464553Y-15203025D01*
X104464886Y-15201783D01*
X104472233Y-15190788D01*
X104476000Y-15171851D01*
X104476000Y-14359449D01*
X104472233Y-14340512D01*
X104464886Y-14329517D01*
X104464755Y-14327521D01*
X104466418Y-14326410D01*
X104467660Y-14326743D01*
G37*
G36*
X108967658Y-14326741D02*
G01*
X108981426Y-14335940D01*
X109047790Y-14356720D01*
X109118589Y-14335931D01*
X109132340Y-14326743D01*
X109134336Y-14326612D01*
X109135447Y-14328275D01*
X109135114Y-14329517D01*
X109127767Y-14340512D01*
X109124000Y-14359449D01*
X109124000Y-15171851D01*
X109127767Y-15190788D01*
X109135114Y-15201783D01*
X109135245Y-15203779D01*
X109133582Y-15204890D01*
X109132340Y-15204557D01*
X109118575Y-15195360D01*
X109052211Y-15174580D01*
X108981412Y-15195369D01*
X108967657Y-15204559D01*
X108965661Y-15204690D01*
X108964550Y-15203027D01*
X108964883Y-15201785D01*
X108972232Y-15190787D01*
X108975999Y-15171851D01*
X108975999Y-14359449D01*
X108972232Y-14340512D01*
X108964884Y-14329515D01*
X108964753Y-14327519D01*
X108966416Y-14326408D01*
X108967658Y-14326741D01*
G37*
G36*
X99467660Y-14326743D02*
G01*
X99481425Y-14335940D01*
X99547789Y-14356720D01*
X99618590Y-14335930D01*
X99632339Y-14326744D01*
X99634335Y-14326613D01*
X99635446Y-14328276D01*
X99635113Y-14329518D01*
X99627766Y-14340513D01*
X99623999Y-14359449D01*
X99623999Y-15171851D01*
X99627766Y-15190788D01*
X99635113Y-15201783D01*
X99635244Y-15203779D01*
X99633581Y-15204890D01*
X99632339Y-15204557D01*
X99618576Y-15195361D01*
X99552212Y-15174580D01*
X99481411Y-15195369D01*
X99467660Y-15204557D01*
X99465664Y-15204688D01*
X99464553Y-15203025D01*
X99464886Y-15201783D01*
X99472233Y-15190788D01*
X99476000Y-15171851D01*
X99476000Y-14359449D01*
X99472233Y-14340512D01*
X99464886Y-14329517D01*
X99464755Y-14327521D01*
X99466418Y-14326410D01*
X99467660Y-14326743D01*
G37*
G36*
X111967660Y-14326743D02*
G01*
X111981425Y-14335940D01*
X112047789Y-14356720D01*
X112118590Y-14335930D01*
X112132339Y-14326744D01*
X112134335Y-14326613D01*
X112135446Y-14328276D01*
X112135113Y-14329518D01*
X112127766Y-14340513D01*
X112123999Y-14359449D01*
X112123999Y-15171851D01*
X112127766Y-15190788D01*
X112135113Y-15201783D01*
X112135244Y-15203779D01*
X112133581Y-15204890D01*
X112132339Y-15204557D01*
X112118576Y-15195361D01*
X112052212Y-15174580D01*
X111981411Y-15195369D01*
X111967660Y-15204557D01*
X111965664Y-15204688D01*
X111964553Y-15203025D01*
X111964886Y-15201783D01*
X111972233Y-15190788D01*
X111976000Y-15171851D01*
X111976000Y-14359449D01*
X111972233Y-14340512D01*
X111964886Y-14329517D01*
X111964755Y-14327521D01*
X111966418Y-14326410D01*
X111967660Y-14326743D01*
G37*
G36*
X105967659Y-14326743D02*
G01*
X105981424Y-14335940D01*
X106047788Y-14356720D01*
X106118589Y-14335930D01*
X106132338Y-14326744D01*
X106134334Y-14326613D01*
X106135445Y-14328276D01*
X106135112Y-14329518D01*
X106127765Y-14340513D01*
X106123998Y-14359449D01*
X106123998Y-15171851D01*
X106127765Y-15190788D01*
X106135112Y-15201783D01*
X106135243Y-15203779D01*
X106133580Y-15204890D01*
X106132338Y-15204557D01*
X106118575Y-15195361D01*
X106052211Y-15174580D01*
X105981410Y-15195369D01*
X105967659Y-15204557D01*
X105965663Y-15204688D01*
X105964552Y-15203025D01*
X105964885Y-15201783D01*
X105972232Y-15190788D01*
X105975999Y-15171851D01*
X105975999Y-14359449D01*
X105972232Y-14340512D01*
X105964885Y-14329517D01*
X105964754Y-14327521D01*
X105966417Y-14326410D01*
X105967659Y-14326743D01*
G37*
G36*
X105467660Y-14326743D02*
G01*
X105481425Y-14335940D01*
X105547789Y-14356720D01*
X105618590Y-14335930D01*
X105632339Y-14326744D01*
X105634335Y-14326613D01*
X105635446Y-14328276D01*
X105635113Y-14329518D01*
X105627766Y-14340513D01*
X105623999Y-14359449D01*
X105623999Y-15171851D01*
X105627766Y-15190788D01*
X105635113Y-15201783D01*
X105635244Y-15203779D01*
X105633581Y-15204890D01*
X105632339Y-15204557D01*
X105618576Y-15195361D01*
X105552212Y-15174580D01*
X105481411Y-15195369D01*
X105467660Y-15204557D01*
X105465664Y-15204688D01*
X105464553Y-15203025D01*
X105464886Y-15201783D01*
X105472233Y-15190788D01*
X105476000Y-15171851D01*
X105476000Y-14359449D01*
X105472233Y-14340512D01*
X105464886Y-14329517D01*
X105464755Y-14327521D01*
X105466418Y-14326410D01*
X105467660Y-14326743D01*
G37*
G36*
X103467659Y-14326743D02*
G01*
X103481424Y-14335940D01*
X103547788Y-14356720D01*
X103618589Y-14335930D01*
X103632338Y-14326744D01*
X103634334Y-14326613D01*
X103635445Y-14328276D01*
X103635112Y-14329518D01*
X103627765Y-14340513D01*
X103623998Y-14359449D01*
X103623998Y-15171851D01*
X103627765Y-15190788D01*
X103635112Y-15201783D01*
X103635243Y-15203779D01*
X103633580Y-15204890D01*
X103632338Y-15204557D01*
X103618575Y-15195361D01*
X103552211Y-15174580D01*
X103481410Y-15195369D01*
X103467659Y-15204557D01*
X103465663Y-15204688D01*
X103464552Y-15203025D01*
X103464885Y-15201783D01*
X103472232Y-15190788D01*
X103475999Y-15171851D01*
X103475999Y-14359449D01*
X103472232Y-14340512D01*
X103464885Y-14329517D01*
X103464754Y-14327521D01*
X103466417Y-14326410D01*
X103467659Y-14326743D01*
G37*
G36*
X101967660Y-14326743D02*
G01*
X101981425Y-14335940D01*
X102047789Y-14356720D01*
X102118590Y-14335930D01*
X102132339Y-14326744D01*
X102134335Y-14326613D01*
X102135446Y-14328276D01*
X102135113Y-14329518D01*
X102127766Y-14340513D01*
X102123999Y-14359449D01*
X102123999Y-15171851D01*
X102127766Y-15190788D01*
X102135113Y-15201783D01*
X102135244Y-15203779D01*
X102133581Y-15204890D01*
X102132339Y-15204557D01*
X102118576Y-15195361D01*
X102052212Y-15174580D01*
X101981411Y-15195369D01*
X101967660Y-15204557D01*
X101965664Y-15204688D01*
X101964553Y-15203025D01*
X101964886Y-15201783D01*
X101972233Y-15190788D01*
X101976000Y-15171851D01*
X101976000Y-14359449D01*
X101972233Y-14340512D01*
X101964886Y-14329517D01*
X101964755Y-14327521D01*
X101966418Y-14326410D01*
X101967660Y-14326743D01*
G37*
G36*
X104967658Y-14326741D02*
G01*
X104981426Y-14335940D01*
X105047790Y-14356720D01*
X105118589Y-14335931D01*
X105132340Y-14326743D01*
X105134336Y-14326612D01*
X105135447Y-14328275D01*
X105135114Y-14329517D01*
X105127767Y-14340512D01*
X105124000Y-14359449D01*
X105124000Y-15171851D01*
X105127767Y-15190788D01*
X105135114Y-15201783D01*
X105135245Y-15203779D01*
X105133582Y-15204890D01*
X105132340Y-15204557D01*
X105118575Y-15195360D01*
X105052211Y-15174580D01*
X104981412Y-15195369D01*
X104967657Y-15204559D01*
X104965661Y-15204690D01*
X104964550Y-15203027D01*
X104964883Y-15201785D01*
X104972232Y-15190787D01*
X104975999Y-15171851D01*
X104975999Y-14359449D01*
X104972232Y-14340512D01*
X104964884Y-14329515D01*
X104964753Y-14327519D01*
X104966416Y-14326408D01*
X104967658Y-14326741D01*
G37*
G36*
X109467660Y-14326743D02*
G01*
X109481425Y-14335940D01*
X109547789Y-14356720D01*
X109618590Y-14335930D01*
X109632339Y-14326744D01*
X109634335Y-14326613D01*
X109635446Y-14328276D01*
X109635113Y-14329518D01*
X109627766Y-14340513D01*
X109623999Y-14359449D01*
X109623999Y-15171851D01*
X109627766Y-15190788D01*
X109635113Y-15201783D01*
X109635244Y-15203779D01*
X109633581Y-15204890D01*
X109632339Y-15204557D01*
X109618576Y-15195361D01*
X109552212Y-15174580D01*
X109481411Y-15195369D01*
X109467660Y-15204557D01*
X109465664Y-15204688D01*
X109464553Y-15203025D01*
X109464886Y-15201783D01*
X109472233Y-15190788D01*
X109476000Y-15171851D01*
X109476000Y-14359449D01*
X109472233Y-14340512D01*
X109464886Y-14329517D01*
X109464755Y-14327521D01*
X109466418Y-14326410D01*
X109467660Y-14326743D01*
G37*
G36*
X110967660Y-14326743D02*
G01*
X110981425Y-14335940D01*
X111047789Y-14356720D01*
X111118590Y-14335930D01*
X111132339Y-14326744D01*
X111134335Y-14326613D01*
X111135446Y-14328276D01*
X111135113Y-14329518D01*
X111127766Y-14340513D01*
X111123999Y-14359449D01*
X111123999Y-15171851D01*
X111127766Y-15190788D01*
X111135113Y-15201783D01*
X111135244Y-15203779D01*
X111133581Y-15204890D01*
X111132339Y-15204557D01*
X111118576Y-15195361D01*
X111052212Y-15174580D01*
X110981411Y-15195369D01*
X110967660Y-15204557D01*
X110965664Y-15204688D01*
X110964553Y-15203025D01*
X110964886Y-15201783D01*
X110972233Y-15190788D01*
X110976000Y-15171851D01*
X110976000Y-14359449D01*
X110972233Y-14340512D01*
X110964886Y-14329517D01*
X110964755Y-14327521D01*
X110966418Y-14326410D01*
X110967660Y-14326743D01*
G37*
G36*
X113967658Y-14326741D02*
G01*
X113981426Y-14335940D01*
X114047790Y-14356720D01*
X114118589Y-14335931D01*
X114132340Y-14326743D01*
X114134336Y-14326612D01*
X114135447Y-14328275D01*
X114135114Y-14329517D01*
X114127767Y-14340512D01*
X114124000Y-14359449D01*
X114124000Y-15171851D01*
X114127767Y-15190788D01*
X114135114Y-15201783D01*
X114135245Y-15203779D01*
X114133582Y-15204890D01*
X114132340Y-15204557D01*
X114118575Y-15195360D01*
X114052211Y-15174580D01*
X113981412Y-15195369D01*
X113967657Y-15204559D01*
X113965661Y-15204690D01*
X113964550Y-15203027D01*
X113964883Y-15201785D01*
X113972232Y-15190787D01*
X113975999Y-15171851D01*
X113975999Y-14359449D01*
X113972232Y-14340512D01*
X113964884Y-14329515D01*
X113964753Y-14327519D01*
X113966416Y-14326408D01*
X113967658Y-14326741D01*
G37*
G36*
X114467660Y-14326743D02*
G01*
X114481425Y-14335940D01*
X114547789Y-14356720D01*
X114618590Y-14335930D01*
X114632339Y-14326744D01*
X114634335Y-14326613D01*
X114635446Y-14328276D01*
X114635113Y-14329518D01*
X114627766Y-14340513D01*
X114623999Y-14359449D01*
X114623999Y-15171851D01*
X114627766Y-15190788D01*
X114635113Y-15201783D01*
X114635244Y-15203779D01*
X114633581Y-15204890D01*
X114632339Y-15204557D01*
X114618576Y-15195361D01*
X114552212Y-15174580D01*
X114481411Y-15195369D01*
X114467660Y-15204557D01*
X114465664Y-15204688D01*
X114464553Y-15203025D01*
X114464886Y-15201783D01*
X114472233Y-15190788D01*
X114476000Y-15171851D01*
X114476000Y-14359449D01*
X114472233Y-14340512D01*
X114464886Y-14329517D01*
X114464755Y-14327521D01*
X114466418Y-14326410D01*
X114467660Y-14326743D01*
G37*
G36*
X109967659Y-14326743D02*
G01*
X109981424Y-14335940D01*
X110047788Y-14356720D01*
X110118589Y-14335930D01*
X110132338Y-14326744D01*
X110134334Y-14326613D01*
X110135445Y-14328276D01*
X110135112Y-14329518D01*
X110127765Y-14340513D01*
X110123998Y-14359449D01*
X110123998Y-15171851D01*
X110127765Y-15190788D01*
X110135112Y-15201783D01*
X110135243Y-15203779D01*
X110133580Y-15204890D01*
X110132338Y-15204557D01*
X110118575Y-15195361D01*
X110052211Y-15174580D01*
X109981410Y-15195369D01*
X109967659Y-15204557D01*
X109965663Y-15204688D01*
X109964552Y-15203025D01*
X109964885Y-15201783D01*
X109972232Y-15190788D01*
X109975999Y-15171851D01*
X109975999Y-14359449D01*
X109972232Y-14340512D01*
X109964885Y-14329517D01*
X109964754Y-14327521D01*
X109966417Y-14326410D01*
X109967659Y-14326743D01*
G37*
G36*
X100467660Y-14326743D02*
G01*
X100481425Y-14335940D01*
X100547789Y-14356720D01*
X100618590Y-14335930D01*
X100632339Y-14326744D01*
X100634335Y-14326613D01*
X100635446Y-14328276D01*
X100635113Y-14329518D01*
X100627766Y-14340513D01*
X100623999Y-14359449D01*
X100623999Y-15171851D01*
X100627766Y-15190788D01*
X100635113Y-15201783D01*
X100635244Y-15203779D01*
X100633581Y-15204890D01*
X100632339Y-15204557D01*
X100618576Y-15195361D01*
X100552212Y-15174580D01*
X100481411Y-15195369D01*
X100467660Y-15204557D01*
X100465664Y-15204688D01*
X100464553Y-15203025D01*
X100464886Y-15201783D01*
X100472233Y-15190788D01*
X100476000Y-15171851D01*
X100476000Y-14359449D01*
X100472233Y-14340512D01*
X100464886Y-14329517D01*
X100464755Y-14327521D01*
X100466418Y-14326410D01*
X100467660Y-14326743D01*
G37*
G36*
X106967660Y-14326743D02*
G01*
X106981425Y-14335940D01*
X107047789Y-14356720D01*
X107118590Y-14335930D01*
X107132339Y-14326744D01*
X107134335Y-14326613D01*
X107135446Y-14328276D01*
X107135113Y-14329518D01*
X107127766Y-14340513D01*
X107123999Y-14359449D01*
X107123999Y-15171851D01*
X107127766Y-15190788D01*
X107135113Y-15201783D01*
X107135244Y-15203779D01*
X107133581Y-15204890D01*
X107132339Y-15204557D01*
X107118576Y-15195361D01*
X107052212Y-15174580D01*
X106981411Y-15195369D01*
X106967660Y-15204557D01*
X106965664Y-15204688D01*
X106964553Y-15203025D01*
X106964886Y-15201783D01*
X106972233Y-15190788D01*
X106976000Y-15171851D01*
X106976000Y-14359449D01*
X106972233Y-14340512D01*
X106964886Y-14329517D01*
X106964755Y-14327521D01*
X106966418Y-14326410D01*
X106967660Y-14326743D01*
G37*
G36*
X113467660Y-14326743D02*
G01*
X113481425Y-14335940D01*
X113547789Y-14356720D01*
X113618590Y-14335930D01*
X113632339Y-14326744D01*
X113634335Y-14326613D01*
X113635446Y-14328276D01*
X113635113Y-14329518D01*
X113627766Y-14340513D01*
X113623999Y-14359449D01*
X113623999Y-15171851D01*
X113627766Y-15190788D01*
X113635113Y-15201783D01*
X113635244Y-15203779D01*
X113633581Y-15204890D01*
X113632339Y-15204557D01*
X113618576Y-15195361D01*
X113552212Y-15174580D01*
X113481411Y-15195369D01*
X113467660Y-15204557D01*
X113465664Y-15204688D01*
X113464553Y-15203025D01*
X113464886Y-15201783D01*
X113472233Y-15190788D01*
X113476000Y-15171851D01*
X113476000Y-14359449D01*
X113472233Y-14340512D01*
X113464886Y-14329517D01*
X113464755Y-14327521D01*
X113466418Y-14326410D01*
X113467660Y-14326743D01*
G37*
G36*
X112467659Y-14326743D02*
G01*
X112481424Y-14335940D01*
X112547788Y-14356720D01*
X112618589Y-14335930D01*
X112632338Y-14326744D01*
X112634334Y-14326613D01*
X112635445Y-14328276D01*
X112635112Y-14329518D01*
X112627765Y-14340513D01*
X112623998Y-14359449D01*
X112623998Y-15171851D01*
X112627765Y-15190788D01*
X112635112Y-15201783D01*
X112635243Y-15203779D01*
X112633580Y-15204890D01*
X112632338Y-15204557D01*
X112618575Y-15195361D01*
X112552211Y-15174580D01*
X112481410Y-15195369D01*
X112467659Y-15204557D01*
X112465663Y-15204688D01*
X112464552Y-15203025D01*
X112464885Y-15201783D01*
X112472232Y-15190788D01*
X112475999Y-15171851D01*
X112475999Y-14359449D01*
X112472232Y-14340512D01*
X112464885Y-14329517D01*
X112464754Y-14327521D01*
X112466417Y-14326410D01*
X112467659Y-14326743D01*
G37*
G36*
X102967660Y-14326743D02*
G01*
X102981425Y-14335940D01*
X103047789Y-14356720D01*
X103118590Y-14335930D01*
X103132339Y-14326744D01*
X103134335Y-14326613D01*
X103135446Y-14328276D01*
X103135113Y-14329518D01*
X103127766Y-14340513D01*
X103123999Y-14359449D01*
X103123999Y-15171851D01*
X103127766Y-15190788D01*
X103135113Y-15201783D01*
X103135244Y-15203779D01*
X103133581Y-15204890D01*
X103132339Y-15204557D01*
X103118576Y-15195361D01*
X103052212Y-15174580D01*
X102981411Y-15195369D01*
X102967660Y-15204557D01*
X102965664Y-15204688D01*
X102964553Y-15203025D01*
X102964886Y-15201783D01*
X102972233Y-15190788D01*
X102976000Y-15171851D01*
X102976000Y-14359449D01*
X102972233Y-14340512D01*
X102964886Y-14329517D01*
X102964755Y-14327521D01*
X102966418Y-14326410D01*
X102967660Y-14326743D01*
G37*
G36*
X107467659Y-14326743D02*
G01*
X107481424Y-14335940D01*
X107547788Y-14356720D01*
X107618589Y-14335930D01*
X107632338Y-14326744D01*
X107634334Y-14326613D01*
X107635445Y-14328276D01*
X107635112Y-14329518D01*
X107627765Y-14340513D01*
X107623998Y-14359449D01*
X107623998Y-15171851D01*
X107627765Y-15190788D01*
X107635112Y-15201783D01*
X107635243Y-15203779D01*
X107633580Y-15204890D01*
X107632338Y-15204557D01*
X107618575Y-15195361D01*
X107552211Y-15174580D01*
X107481410Y-15195369D01*
X107467659Y-15204557D01*
X107465663Y-15204688D01*
X107464552Y-15203025D01*
X107464885Y-15201783D01*
X107472232Y-15190788D01*
X107475999Y-15171851D01*
X107475999Y-14359449D01*
X107472232Y-14340512D01*
X107464885Y-14329517D01*
X107464754Y-14327521D01*
X107466417Y-14326410D01*
X107467659Y-14326743D01*
G37*
G36*
X100967659Y-14326743D02*
G01*
X100981424Y-14335940D01*
X101047788Y-14356720D01*
X101118589Y-14335930D01*
X101132338Y-14326744D01*
X101134334Y-14326613D01*
X101135445Y-14328276D01*
X101135112Y-14329518D01*
X101127765Y-14340513D01*
X101123998Y-14359449D01*
X101123998Y-15171851D01*
X101127765Y-15190788D01*
X101135112Y-15201783D01*
X101135243Y-15203779D01*
X101133580Y-15204890D01*
X101132338Y-15204557D01*
X101118575Y-15195361D01*
X101052211Y-15174580D01*
X100981410Y-15195369D01*
X100967659Y-15204557D01*
X100965663Y-15204688D01*
X100964552Y-15203025D01*
X100964885Y-15201783D01*
X100972232Y-15190788D01*
X100975999Y-15171851D01*
X100975999Y-14359449D01*
X100972232Y-14340512D01*
X100964885Y-14329517D01*
X100964754Y-14327521D01*
X100966417Y-14326410D01*
X100967659Y-14326743D01*
G37*
G36*
X108467660Y-14326743D02*
G01*
X108481425Y-14335940D01*
X108547789Y-14356720D01*
X108618590Y-14335930D01*
X108632339Y-14326744D01*
X108634335Y-14326613D01*
X108635446Y-14328276D01*
X108635113Y-14329518D01*
X108627766Y-14340513D01*
X108623999Y-14359449D01*
X108623999Y-15171851D01*
X108627766Y-15190788D01*
X108635113Y-15201783D01*
X108635244Y-15203779D01*
X108633581Y-15204890D01*
X108632339Y-15204557D01*
X108618576Y-15195361D01*
X108552212Y-15174580D01*
X108481411Y-15195369D01*
X108467660Y-15204557D01*
X108465664Y-15204688D01*
X108464553Y-15203025D01*
X108464886Y-15201783D01*
X108472233Y-15190788D01*
X108476000Y-15171851D01*
X108476000Y-14359449D01*
X108472233Y-14340512D01*
X108464886Y-14329517D01*
X108464755Y-14327521D01*
X108466418Y-14326410D01*
X108467660Y-14326743D01*
G37*
M02*
