M48
; DRILL file {KiCad 7.0.8} date Mo 23 Okt 2023 23:13:37 CEST
; FORMAT={-:-/ absolute / metric / decimal}
; #@! TF.CreationDate,2023-10-23T23:13:37+02:00
; #@! TF.GenerationSoftware,Kicad,Pcbnew,7.0.8
; #@! TF.FileFunction,Plated,1,4,PTH
FMAT,2
METRIC
; #@! TA.AperFunction,Plated,PTH,ComponentDrill
T1C0.254
; #@! TA.AperFunction,Plated,PTH,ViaDrill
T2C0.400
; #@! TA.AperFunction,Plated,PTH,ComponentDrill
T3C0.600
; #@! TA.AperFunction,Plated,PTH,ComponentDrill
T4C1.000
%
G90
G05
T1
X63.449Y-44.653
X63.449Y-45.441
X63.449Y-46.228
X63.449Y-47.015
X63.449Y-47.803
X64.237Y-44.653
X64.237Y-45.441
X64.237Y-46.228
X64.237Y-47.015
X64.237Y-47.803
X65.024Y-44.653
X65.024Y-45.441
X65.024Y-46.228
X65.024Y-47.015
X65.024Y-47.803
X65.811Y-44.653
X65.811Y-45.441
X65.811Y-46.228
X65.811Y-47.015
X65.811Y-47.803
X66.599Y-44.653
X66.599Y-45.441
X66.599Y-46.228
X66.599Y-47.015
X66.599Y-47.803
T2
X28.5Y-38.8
X30.6Y-59.5
X31.65Y-61.25
X33.65Y-55.0
X34.3Y-33.9
X34.6Y-26.8
X34.6Y-45.9
X35.634Y-60.664
X35.65Y-62.0
X35.7Y-27.8
X35.7Y-32.8
X36.709Y-29.308
X37.5Y-31.1
X37.6Y-23.1
X37.6Y-38.2
X38.1Y-47.4
X39.8Y-24.0
X40.2Y-35.8
X40.466Y-28.866
X40.6Y-25.3
X42.4Y-21.7
X44.4Y-41.7
X44.6Y-39.9
X45.4Y-44.5
X45.5Y-50.75
X49.25Y-47.25
X49.25Y-49.5
X51.0Y-34.0
X52.0Y-38.0
X52.25Y-34.0
X52.629Y-47.048
X52.75Y-48.0
X53.0Y-37.5
X53.0Y-45.84
X53.5Y-49.664
X53.8Y-33.2
X53.8Y-35.6
X54.0Y-30.3
X54.0Y-59.25
X54.397Y-45.604
X54.4Y-32.0
X54.4Y-34.4
X55.152Y-29.952
X55.25Y-55.0
X55.25Y-56.0
X55.438Y-46.812
X55.6Y-31.4
X56.8Y-32.0
X57.0Y-57.0
X57.0Y-58.0
X57.6Y-25.0
X57.6Y-26.6
X57.8Y-31.4
X58.25Y-57.0
X58.25Y-58.0
X58.25Y-59.0
X58.497Y-47.094
X58.6Y-22.3
X58.601Y-46.101
X58.8Y-32.0
X59.315Y-47.597
X59.5Y-59.25
X60.277Y-45.337
X60.326Y-43.56
X60.452Y-48.641
X60.5Y-39.75
X60.6Y-34.6
X60.75Y-39.0
X60.75Y-59.25
X61.2Y-33.4
X61.75Y-39.0
X62.016Y-36.766
X62.25Y-59.25
X62.75Y-60.25
X62.8Y-21.6
X62.928Y-38.873
X63.0Y-57.25
X63.0Y-58.5
X63.1Y-27.284
X63.854Y-36.896
X64.0Y-37.75
X64.2Y-27.3
X64.367Y-51.585
X64.876Y-40.094
X65.0Y-31.5
X65.124Y-41.021
X65.5Y-58.25
X65.5Y-60.25
X65.828Y-40.228
X66.75Y-56.5
X66.795Y-40.193
X67.0Y-30.8
X67.25Y-58.5
X67.604Y-36.896
X67.75Y-35.75
X67.75Y-57.5
X67.9Y-25.0
X67.944Y-55.306
X67.945Y-51.333
X68.072Y-42.164
X68.25Y-38.0
X68.452Y-49.531
X68.5Y-35.75
X68.54Y-39.451
X68.659Y-56.5
X68.9Y-25.6
X68.9Y-34.2
X68.959Y-21.6
X69.0Y-32.0
X69.598Y-31.002
X69.7Y-33.5
X70.0Y-21.7
X70.514Y-32.991
X70.993Y-46.022
X70.993Y-47.498
X71.1Y-22.6
X71.1Y-49.4
X71.197Y-41.986
X71.3Y-36.0
X71.374Y-44.402
X71.388Y-42.926
X71.9Y-27.5
X71.968Y-46.342
X72.0Y-18.1
X72.092Y-39.946
X72.1Y-22.3
X72.1Y-29.8
X72.25Y-39.0
X72.5Y-37.5
X73.0Y-57.04
X73.092Y-53.39
X73.5Y-38.5
X73.9Y-33.2
X74.034Y-25.1
X74.25Y-44.0
X74.5Y-46.25
X74.5Y-48.5
X75.0Y-22.4
X75.0Y-58.1
X75.449Y-56.25
X75.7Y-24.7
X75.7Y-28.6
X75.706Y-26.8
X75.706Y-30.934
X75.8Y-33.3
X76.0Y-39.75
X76.0Y-42.0
X76.0Y-44.25
X76.0Y-46.5
X76.0Y-48.75
X76.0Y-50.5
X76.6Y-32.7
X76.75Y-53.5
X76.77Y-54.625
X77.0Y-49.75
X78.2Y-57.5
X78.459Y-35.3
X78.5Y-26.1
X78.74Y-61.3
X78.8Y-43.1
X78.9Y-44.2
X79.1Y-31.784
X79.173Y-35.941
X79.2Y-58.2
X79.715Y-29.4
X80.5Y-15.784
X80.5Y-44.2
X80.5Y-45.75
X80.54Y-46.75
X80.8Y-40.1
X81.28Y-18.874
X81.7Y-34.7
X81.9Y-19.9
X81.995Y-25.0
X82.0Y-26.6
X83.3Y-46.09
X84.681Y-40.357
X85.3Y-16.5
X85.4Y-15.2
X85.617Y-40.145
X86.0Y-56.6
X86.549Y-39.917
X89.1Y-21.8
X89.684Y-32.4
X89.7Y-40.6
X89.8Y-28.3
X89.9Y-25.6
X90.3Y-41.6
X90.7Y-47.9
X90.829Y-42.529
X91.1Y-50.3
X91.571Y-43.271
X91.65Y-48.25
X93.3Y-31.2
X93.8Y-32.2
X94.7Y-31.5
X95.6Y-32.9
X95.7Y-50.4
X96.1Y-46.9
X97.7Y-26.0
X98.1Y-19.6
X98.2Y-20.8
X98.441Y-42.966
X98.8Y-13.3
X98.9Y-26.7
X99.125Y-43.675
X99.818Y-44.482
X100.2Y-20.1
X100.234Y-18.066
X100.4Y-46.8
X100.5Y-26.4
X100.502Y-45.203
X100.6Y-13.6
X100.7Y-50.4
X101.187Y-45.884
X101.2Y-28.2
X101.576Y-26.371
X101.871Y-46.569
X102.3Y-18.4
X102.393Y-48.232
X102.491Y-49.186
X102.5Y-22.4
X102.6Y-26.9
X102.616Y-25.908
X103.0Y-50.0
X104.13Y-26.484
X104.842Y-28.093
X104.864Y-27.102
X105.812Y-28.091
X106.777Y-29.062
X106.787Y-28.084
X107.6Y-56.6
X107.736Y-29.096
X108.8Y-29.2
X108.9Y-31.268
X108.93Y-32.265
X109.661Y-27.897
X109.7Y-13.609
X109.7Y-29.7
X109.8Y-38.9
X110.434Y-26.484
X110.6Y-27.7
X111.0Y-22.7
X111.1Y-45.9
X111.5Y-45.0
X111.9Y-58.9
X112.9Y-16.0
X112.9Y-57.4
X113.0Y-19.0
X113.0Y-27.0
X113.2Y-61.8
X113.4Y-22.8
X113.9Y-19.4
X114.5Y-63.0
X114.6Y-21.6
X114.771Y-54.976
X114.85Y-16.65
X114.954Y-44.45
X115.1Y-28.2
X115.2Y-43.0
X115.418Y-34.684
X115.478Y-58.122
X115.5Y-32.5
X115.5Y-52.4
X115.5Y-55.6
X115.5Y-61.0
X116.1Y-16.7
X116.1Y-42.3
X116.115Y-38.001
X116.2Y-48.9
X116.3Y-34.0
X116.3Y-35.484
X116.3Y-45.1
X116.316Y-33.016
X116.5Y-40.4
X116.5Y-41.4
X116.615Y-36.391
X116.615Y-38.819
X117.334Y-31.266
X117.6Y-15.6
X117.6Y-57.8
X117.9Y-29.1
X118.0Y-32.4
X118.3Y-55.409
X118.6Y-53.0
X118.79Y-30.5
X120.709Y-53.9
X121.2Y-25.8
X121.8Y-55.5
X121.9Y-53.8
X123.1Y-57.7
X123.5Y-54.0
X124.1Y-26.1
X124.2Y-21.8
X124.2Y-23.7
X124.3Y-16.1
X124.3Y-18.2
X124.3Y-19.8
T4
X27.1Y-17.835
X27.1Y-20.375
X27.35Y-49.275
X27.35Y-51.815
X31.875Y-11.3
X34.415Y-11.3
X36.955Y-11.3
X39.495Y-11.3
X42.035Y-11.3
X44.575Y-11.3
X47.115Y-11.3
X49.655Y-11.3
X52.195Y-11.3
X54.735Y-11.3
X57.275Y-11.3
X59.815Y-11.3
X62.355Y-11.3
X66.0Y-11.3
X68.54Y-11.3
X71.08Y-11.3
X73.62Y-11.3
X76.16Y-11.3
X78.7Y-11.3
X81.24Y-11.3
X83.78Y-11.3
X86.32Y-11.3
X88.86Y-11.3
X91.4Y-11.3
X93.94Y-11.3
X122.936Y-27.94
X122.936Y-30.48
X122.936Y-33.02
X122.936Y-35.56
X122.936Y-38.1
X122.936Y-40.64
X122.936Y-43.18
X122.936Y-45.72
X122.936Y-48.26
X122.936Y-50.8
T3
X28.39Y-25.98G85X27.79Y-25.98
G05
X28.39Y-34.62G85X27.79Y-34.62
G05
X32.82Y-25.98G85X31.72Y-25.98
G05
X32.82Y-34.62G85X31.72Y-34.62
G05
T0
M30
