%TF.GenerationSoftware,KiCad,Pcbnew,7.0.5*%
%TF.CreationDate,2023-06-12T21:17:40+02:00*%
%TF.ProjectId,epaper-breakout,65706170-6572-42d6-9272-65616b6f7574,rev?*%
%TF.SameCoordinates,Original*%
%TF.FileFunction,Soldermask,Bot*%
%TF.FilePolarity,Negative*%
%FSLAX46Y46*%
G04 Gerber Fmt 4.6, Leading zero omitted, Abs format (unit mm)*
G04 Created by KiCad (PCBNEW 7.0.5) date 2023-06-12 21:17:40*
%MOMM*%
%LPD*%
G01*
G04 APERTURE LIST*
%ADD10C,2.200000*%
%ADD11C,0.508000*%
%ADD12O,1.700000X1.700000*%
%ADD13R,1.700000X1.700000*%
%ADD14O,2.100000X1.000000*%
%ADD15O,1.600000X1.000000*%
%ADD16C,0.650000*%
G04 APERTURE END LIST*
D10*
X122500000Y-12000000D03*
D11*
X66598800Y-47015400D03*
X63449200Y-47802800D03*
X66598800Y-44653200D03*
X65811400Y-47015400D03*
X63449200Y-44653200D03*
X65024000Y-47802800D03*
X64236600Y-46228000D03*
X64236600Y-47802800D03*
X63449200Y-45440600D03*
X65811400Y-47802800D03*
X65024000Y-46228000D03*
X66598800Y-45440600D03*
X64236600Y-47015400D03*
X65024000Y-47015400D03*
X64236600Y-44653200D03*
X65811400Y-45440600D03*
X63449200Y-47015400D03*
X66598800Y-47802800D03*
X64236600Y-45440600D03*
X65024000Y-44653200D03*
X65024000Y-45440600D03*
X66598800Y-46228000D03*
X65811400Y-44653200D03*
X63449200Y-46228000D03*
X65811400Y-46228000D03*
D10*
X122500000Y-62000000D03*
X27500000Y-62000000D03*
D12*
X27350000Y-51815000D03*
D13*
X27350000Y-49275000D03*
D12*
X27100000Y-17835000D03*
D13*
X27100000Y-20375000D03*
D12*
X122936000Y-27940000D03*
X122936000Y-30480000D03*
X122936000Y-33020000D03*
X122936000Y-35560000D03*
X122936000Y-38100000D03*
X122936000Y-40640000D03*
X122936000Y-43180000D03*
X122936000Y-45720000D03*
X122936000Y-48260000D03*
D13*
X122936000Y-50800000D03*
D12*
X93940000Y-11300000D03*
X91400000Y-11300000D03*
X88860000Y-11300000D03*
X86320000Y-11300000D03*
X83780000Y-11300000D03*
X81240000Y-11300000D03*
X78700000Y-11300000D03*
X76160000Y-11300000D03*
X73620000Y-11300000D03*
X71080000Y-11300000D03*
X68540000Y-11300000D03*
D13*
X66000000Y-11300000D03*
D12*
X62355000Y-11300000D03*
X59815000Y-11300000D03*
X57275000Y-11300000D03*
X54735000Y-11300000D03*
X52195000Y-11300000D03*
X49655000Y-11300000D03*
X47115000Y-11300000D03*
X44575000Y-11300000D03*
X42035000Y-11300000D03*
X39495000Y-11300000D03*
X36955000Y-11300000D03*
X34415000Y-11300000D03*
D13*
X31875000Y-11300000D03*
D10*
X27500000Y-12000000D03*
D14*
X32270000Y-34620000D03*
D15*
X28090000Y-25980000D03*
D14*
X32270000Y-25980000D03*
D15*
X28090000Y-34620000D03*
D16*
X31740000Y-27410000D03*
X31740000Y-33190000D03*
M02*
