%TF.GenerationSoftware,KiCad,Pcbnew,7.0.8*%
%TF.CreationDate,2023-10-23T23:14:23+02:00*%
%TF.ProjectId,epaper-breakout,65706170-6572-42d6-9272-65616b6f7574,rev?*%
%TF.SameCoordinates,Original*%
%TF.FileFunction,Copper,L3,Inr*%
%TF.FilePolarity,Positive*%
%FSLAX46Y46*%
G04 Gerber Fmt 4.6, Leading zero omitted, Abs format (unit mm)*
G04 Created by KiCad (PCBNEW 7.0.8) date 2023-10-23 23:14:23*
%MOMM*%
%LPD*%
G01*
G04 APERTURE LIST*
%TA.AperFunction,ComponentPad*%
%ADD10C,0.508000*%
%TD*%
%TA.AperFunction,ComponentPad*%
%ADD11R,1.700000X1.700000*%
%TD*%
%TA.AperFunction,ComponentPad*%
%ADD12O,1.700000X1.700000*%
%TD*%
%TA.AperFunction,ComponentPad*%
%ADD13O,2.100000X1.000000*%
%TD*%
%TA.AperFunction,ComponentPad*%
%ADD14O,1.600000X1.000000*%
%TD*%
%TA.AperFunction,ViaPad*%
%ADD15C,0.800000*%
%TD*%
%TA.AperFunction,Conductor*%
%ADD16C,1.000000*%
%TD*%
%TA.AperFunction,Conductor*%
%ADD17C,0.750000*%
%TD*%
%TA.AperFunction,Conductor*%
%ADD18C,0.500000*%
%TD*%
G04 APERTURE END LIST*
D10*
X66598800Y-47802800D03*
X66598800Y-47015400D03*
X66598800Y-46228000D03*
X66598800Y-45440600D03*
X66598800Y-44653200D03*
X65811400Y-47802800D03*
X65811400Y-47015400D03*
X65811400Y-46228000D03*
X65811400Y-45440600D03*
X65811400Y-44653200D03*
X65024000Y-47802800D03*
X65024000Y-47015400D03*
X65024000Y-46228000D03*
X65024000Y-45440600D03*
X65024000Y-44653200D03*
X64236600Y-47802800D03*
X64236600Y-47015400D03*
X64236600Y-46228000D03*
X64236600Y-45440600D03*
X64236600Y-44653200D03*
X63449200Y-47802800D03*
X63449200Y-47015400D03*
X63449200Y-46228000D03*
X63449200Y-45440600D03*
X63449200Y-44653200D03*
D11*
X27350000Y-49275000D03*
D12*
X27350000Y-51815000D03*
D11*
X27100000Y-20375000D03*
D12*
X27100000Y-17835000D03*
D11*
X122936000Y-50800000D03*
D12*
X122936000Y-48260000D03*
X122936000Y-45720000D03*
X122936000Y-43180000D03*
X122936000Y-40640000D03*
X122936000Y-38100000D03*
X122936000Y-35560000D03*
X122936000Y-33020000D03*
X122936000Y-30480000D03*
X122936000Y-27940000D03*
D11*
X66000000Y-11300000D03*
D12*
X68540000Y-11300000D03*
X71080000Y-11300000D03*
X73620000Y-11300000D03*
X76160000Y-11300000D03*
X78700000Y-11300000D03*
X81240000Y-11300000D03*
X83780000Y-11300000D03*
X86320000Y-11300000D03*
X88860000Y-11300000D03*
X91400000Y-11300000D03*
X93940000Y-11300000D03*
D11*
X31875000Y-11300000D03*
D12*
X34415000Y-11300000D03*
X36955000Y-11300000D03*
X39495000Y-11300000D03*
X42035000Y-11300000D03*
X44575000Y-11300000D03*
X47115000Y-11300000D03*
X49655000Y-11300000D03*
X52195000Y-11300000D03*
X54735000Y-11300000D03*
X57275000Y-11300000D03*
X59815000Y-11300000D03*
X62355000Y-11300000D03*
D13*
X32270000Y-25980000D03*
D14*
X28090000Y-25980000D03*
D13*
X32270000Y-34620000D03*
D14*
X28090000Y-34620000D03*
D15*
X112900000Y-57400000D03*
X68959500Y-21600000D03*
X68658999Y-56500000D03*
X97700000Y-26000000D03*
X76000000Y-48750000D03*
X70000000Y-21700000D03*
X34600000Y-26800000D03*
X61200000Y-33400000D03*
X37600000Y-38200000D03*
X115200000Y-43000000D03*
X76000000Y-44250000D03*
X70993000Y-46022000D03*
X81900000Y-19900000D03*
X67750000Y-35750000D03*
X65500000Y-60250000D03*
X37500000Y-31100000D03*
X68072000Y-42164000D03*
X28500000Y-38800000D03*
X74500000Y-46250000D03*
X58800000Y-32000000D03*
X71374000Y-44402000D03*
X89100000Y-21800000D03*
X102500000Y-22400000D03*
X68500000Y-35750000D03*
X124300000Y-19800000D03*
X40200000Y-35800000D03*
X89800000Y-28300000D03*
X124200000Y-21800000D03*
X115500000Y-52400000D03*
X78800000Y-43100000D03*
X58600000Y-22300000D03*
X76000000Y-39750000D03*
X54400000Y-32000000D03*
X30600000Y-59500000D03*
X33650000Y-55000000D03*
X100400000Y-46800000D03*
X45400000Y-44500000D03*
X67250000Y-58500000D03*
X54396686Y-45604099D03*
X81995500Y-25000000D03*
X123500000Y-54000000D03*
X57800000Y-31400000D03*
X118300000Y-55409500D03*
X114771491Y-54975564D03*
X55250000Y-55000000D03*
X56800000Y-32000000D03*
X44600000Y-39900000D03*
X36708582Y-29308012D03*
X77000000Y-49750000D03*
X68451743Y-49531257D03*
X55438000Y-46812000D03*
X113000000Y-27000000D03*
X124300000Y-18200000D03*
X80540000Y-46750000D03*
X67944000Y-55306000D03*
X107600000Y-56600000D03*
X80500000Y-45750000D03*
X100700000Y-50400000D03*
X62800000Y-21600000D03*
X53800000Y-35600000D03*
X111000000Y-22700000D03*
X73000000Y-57040000D03*
X86000000Y-56600000D03*
X58496777Y-47094403D03*
X54400000Y-34400000D03*
X115500000Y-61000000D03*
X66750000Y-56500000D03*
X123100000Y-57700000D03*
X76000000Y-46500000D03*
X52250000Y-34000000D03*
X109800000Y-38900000D03*
X55250000Y-56000000D03*
X31650000Y-61250000D03*
X64367281Y-51584663D03*
X49250000Y-49500000D03*
X113200000Y-61800000D03*
X116300000Y-45100000D03*
X124100000Y-26100000D03*
X45500000Y-50750000D03*
X42400000Y-21700000D03*
X60600000Y-34600000D03*
X67750000Y-57500000D03*
X64000000Y-37750000D03*
X67604000Y-36896000D03*
X72500000Y-37500000D03*
X55600000Y-31400000D03*
X124300000Y-16100000D03*
X114500000Y-63000000D03*
X95700000Y-50400000D03*
X37600000Y-23100000D03*
X35650000Y-62000000D03*
X75705500Y-30934015D03*
X34300000Y-33900000D03*
X124200000Y-23700000D03*
X62015534Y-36765534D03*
X113400000Y-22800000D03*
X80800000Y-40100000D03*
X63854000Y-36896000D03*
X44400000Y-41700000D03*
X53800000Y-33200000D03*
X34600000Y-45900000D03*
X62750000Y-60250000D03*
X51000000Y-34000000D03*
X112900000Y-16000000D03*
X74500000Y-48500000D03*
X76000000Y-42000000D03*
X96100000Y-46900000D03*
X38100000Y-47400000D03*
X74250000Y-44000000D03*
X49250000Y-47250000D03*
X71300000Y-36000000D03*
X76000000Y-50500000D03*
X60452000Y-48641000D03*
X117600000Y-57800000D03*
X53500000Y-49663998D03*
X113900000Y-19400000D03*
X98200000Y-20800000D03*
X78200000Y-57500000D03*
X113000000Y-19000000D03*
X121800000Y-55500000D03*
X53000000Y-45840002D03*
X102300000Y-18400000D03*
X116200000Y-48900000D03*
X60276746Y-45337029D03*
X79200000Y-58200000D03*
X115100000Y-28200000D03*
X116100000Y-16700000D03*
X76769806Y-54625000D03*
X114600000Y-21600000D03*
X121900000Y-53800000D03*
X120709500Y-53900000D03*
X75000000Y-58100000D03*
X54000000Y-59250000D03*
X121200000Y-25800000D03*
X65123990Y-41021000D03*
X114850000Y-16650000D03*
X117900000Y-29100000D03*
X98100000Y-19600000D03*
X91100000Y-50300000D03*
X55151693Y-29951693D03*
X110600000Y-27700000D03*
X75700000Y-24700000D03*
X115500000Y-32500000D03*
X63100000Y-27284500D03*
X114954092Y-44450000D03*
X117600000Y-15600000D03*
X117334015Y-31265985D03*
X72250000Y-39000000D03*
X73091535Y-53390500D03*
X98900000Y-26700000D03*
X102616000Y-25908000D03*
X64200000Y-27300000D03*
X118000000Y-32400000D03*
X67900000Y-25000000D03*
X39800000Y-24000000D03*
X76600000Y-32700000D03*
X40600000Y-25300000D03*
X75800000Y-33300000D03*
X100600000Y-13600000D03*
X118600000Y-53000000D03*
X118790500Y-30500000D03*
X75448895Y-56250000D03*
X109700000Y-13609500D03*
X35700000Y-27800000D03*
X40466337Y-28866337D03*
X35700000Y-32800000D03*
X35633940Y-60664443D03*
X78740000Y-61300000D03*
X111500000Y-45000000D03*
X100234015Y-18065985D03*
X100500000Y-26400000D03*
X108929797Y-32265500D03*
X100200000Y-20100000D03*
X93300000Y-31200000D03*
X68250000Y-38000000D03*
X70993000Y-47498000D03*
X60326257Y-43559743D03*
X68540000Y-39451000D03*
X72000000Y-18100000D03*
X69598307Y-31001693D03*
X72100000Y-22300000D03*
X65827661Y-40227659D03*
X71900000Y-27500000D03*
X66795248Y-40192747D03*
X69000000Y-32000000D03*
X67000000Y-30800000D03*
X62927794Y-38873237D03*
X70513656Y-32991465D03*
X71100000Y-49400000D03*
X80500000Y-15784500D03*
X81700000Y-34700000D03*
X71967629Y-46342244D03*
X69700000Y-33500000D03*
X68900000Y-34200000D03*
X71197092Y-41985670D03*
X64876356Y-40094004D03*
X65000000Y-31500000D03*
X73500000Y-38500000D03*
X71387944Y-42926000D03*
X65500000Y-58250000D03*
X60750000Y-39000000D03*
X57000000Y-57000000D03*
X72092259Y-39946447D03*
X59500000Y-59250000D03*
X58250000Y-59000000D03*
X71100000Y-22600000D03*
X60500000Y-39750000D03*
X73900000Y-33200000D03*
X58250000Y-57000000D03*
X62250000Y-59250000D03*
X58250000Y-58000000D03*
X63000000Y-58500000D03*
X52000000Y-38000000D03*
X61750000Y-39000000D03*
X53000000Y-37500000D03*
X57000000Y-58000000D03*
X63000000Y-57250000D03*
X60750000Y-59250000D03*
X78900000Y-44200000D03*
X67945000Y-51333000D03*
X76750000Y-53500000D03*
X57600000Y-25000000D03*
X57600000Y-26600000D03*
X89684500Y-32400000D03*
X75700000Y-28600000D03*
X75705500Y-26800000D03*
X115477597Y-58122403D03*
X80500000Y-44200000D03*
X72100000Y-29800000D03*
X79715500Y-29400000D03*
X74034500Y-25100000D03*
X111900000Y-58900000D03*
X75000000Y-22400000D03*
X115500000Y-55600000D03*
X101200000Y-28200000D03*
X102600000Y-26900000D03*
X98800000Y-13300000D03*
X91571232Y-43271232D03*
X90828768Y-42528768D03*
X78459500Y-35300000D03*
X79173237Y-35941268D03*
X89700000Y-40600000D03*
X85400000Y-15200000D03*
X84680970Y-40356952D03*
X85616735Y-40144850D03*
X86548734Y-39916764D03*
X89900000Y-25600000D03*
X82000000Y-26600000D03*
X83300000Y-46090500D03*
X54000000Y-30300000D03*
X79100000Y-31784500D03*
X68900000Y-25600000D03*
X81280000Y-18874500D03*
X78500000Y-26100000D03*
X101575564Y-26371491D03*
X108900179Y-31267852D03*
X111100000Y-45900000D03*
X95600000Y-32900000D03*
X109700000Y-29700000D03*
X103000000Y-50000000D03*
X102491465Y-49186344D03*
X108800000Y-29200000D03*
X102392974Y-48231910D03*
X107736233Y-29095737D03*
X101871500Y-46569000D03*
X106777322Y-29062072D03*
X101187000Y-45884500D03*
X106787116Y-28084247D03*
X105812480Y-28090853D03*
X100502500Y-45202500D03*
X104842351Y-28092952D03*
X99818000Y-44482000D03*
X104864218Y-27102348D03*
X99125000Y-43675000D03*
X98440500Y-42966421D03*
X104130116Y-26484500D03*
X116100000Y-42300000D03*
X116500000Y-41400000D03*
X116500000Y-40400000D03*
X116115500Y-38000548D03*
X116615500Y-38819475D03*
X116615500Y-36390646D03*
X116300000Y-35484500D03*
X115418078Y-34684500D03*
X116300000Y-34000000D03*
X109660982Y-27897208D03*
X90700000Y-47900000D03*
X93800000Y-32200000D03*
X94700000Y-31500000D03*
X116315632Y-33015632D03*
X91650000Y-48250000D03*
X110434500Y-26484500D03*
X58601000Y-46101000D03*
X52629276Y-47047619D03*
X52750000Y-48000000D03*
X59314705Y-47596994D03*
X90300000Y-41600000D03*
X85300000Y-16500000D03*
D16*
X52000000Y-38000000D02*
X53500000Y-38000000D01*
X53000000Y-37500000D02*
X55250000Y-39750000D01*
X54250000Y-37500000D02*
X53000000Y-37500000D01*
X55250000Y-39750000D02*
X60500000Y-39750000D01*
X55750000Y-39000000D02*
X54250000Y-37500000D01*
X60750000Y-39000000D02*
X55750000Y-39000000D01*
X53500000Y-38000000D02*
X55250000Y-39750000D01*
D17*
X53000000Y-18200000D02*
X57600000Y-22800000D01*
D18*
X68540000Y-11300000D02*
X75000000Y-17760000D01*
X75000000Y-17760000D02*
X75000000Y-22400000D01*
D17*
X31875000Y-11300000D02*
X38775000Y-18200000D01*
X38775000Y-18200000D02*
X53000000Y-18200000D01*
X57600000Y-22800000D02*
X57600000Y-25000000D01*
%TA.AperFunction,Conductor*%
G36*
X63250607Y-37520002D02*
G01*
X63297100Y-37573658D01*
X63307567Y-37641188D01*
X63294355Y-37749997D01*
X63294355Y-37750002D01*
X63314859Y-37918872D01*
X63314859Y-37918873D01*
X63370533Y-38065675D01*
X63375987Y-38136461D01*
X63342304Y-38198959D01*
X63280179Y-38233326D01*
X63209337Y-38228649D01*
X63194167Y-38221922D01*
X63178021Y-38213448D01*
X63178015Y-38213445D01*
X63012853Y-38172737D01*
X63012850Y-38172737D01*
X62842738Y-38172737D01*
X62842734Y-38172737D01*
X62677572Y-38213445D01*
X62677568Y-38213447D01*
X62526942Y-38292502D01*
X62526936Y-38292507D01*
X62399612Y-38405306D01*
X62399610Y-38405308D01*
X62302975Y-38545307D01*
X62302973Y-38545311D01*
X62242653Y-38704365D01*
X62222149Y-38873234D01*
X62222149Y-38873239D01*
X62242653Y-39042108D01*
X62302973Y-39201162D01*
X62302975Y-39201166D01*
X62399610Y-39341165D01*
X62399612Y-39341167D01*
X62523590Y-39451002D01*
X62526942Y-39453971D01*
X62677569Y-39533027D01*
X62677570Y-39533027D01*
X62677572Y-39533028D01*
X62818922Y-39567867D01*
X62842738Y-39573737D01*
X62842741Y-39573737D01*
X63012847Y-39573737D01*
X63012850Y-39573737D01*
X63178019Y-39533027D01*
X63328646Y-39453971D01*
X63455977Y-39341166D01*
X63552612Y-39201167D01*
X63612934Y-39042109D01*
X63620103Y-38983069D01*
X63633439Y-38873239D01*
X63633439Y-38873234D01*
X63612934Y-38704365D01*
X63557260Y-38557562D01*
X63551806Y-38486775D01*
X63585489Y-38424277D01*
X63647613Y-38389910D01*
X63718456Y-38394586D01*
X63733624Y-38401313D01*
X63749775Y-38409790D01*
X63749776Y-38409790D01*
X63749778Y-38409791D01*
X63906461Y-38448409D01*
X63914944Y-38450500D01*
X63914947Y-38450500D01*
X64085053Y-38450500D01*
X64085056Y-38450500D01*
X64250225Y-38409790D01*
X64400852Y-38330734D01*
X64528183Y-38217929D01*
X64624818Y-38077930D01*
X64685140Y-37918872D01*
X64695794Y-37831128D01*
X64705645Y-37750002D01*
X64705645Y-37749997D01*
X64692433Y-37641188D01*
X64704078Y-37571153D01*
X64751738Y-37518531D01*
X64817514Y-37500000D01*
X67216421Y-37500000D01*
X67274976Y-37514432D01*
X67353775Y-37555790D01*
X67353776Y-37555790D01*
X67353778Y-37555791D01*
X67416106Y-37571153D01*
X67504217Y-37592870D01*
X67565572Y-37628593D01*
X67597873Y-37691816D01*
X67591877Y-37759888D01*
X67564858Y-37831130D01*
X67544355Y-37999997D01*
X67544355Y-38000002D01*
X67564859Y-38168871D01*
X67625179Y-38327925D01*
X67625181Y-38327929D01*
X67721816Y-38467928D01*
X67721818Y-38467930D01*
X67809163Y-38545311D01*
X67849148Y-38580734D01*
X67999775Y-38659790D01*
X68061581Y-38675023D01*
X68122935Y-38710745D01*
X68155237Y-38773968D01*
X68148231Y-38844618D01*
X68114982Y-38891674D01*
X68011816Y-38983072D01*
X67915181Y-39123070D01*
X67915179Y-39123074D01*
X67854859Y-39282128D01*
X67834355Y-39450997D01*
X67834355Y-39451002D01*
X67854859Y-39619871D01*
X67915179Y-39778925D01*
X67915181Y-39778929D01*
X67974469Y-39864821D01*
X68011817Y-39918929D01*
X68139148Y-40031734D01*
X68289775Y-40110790D01*
X68289776Y-40110790D01*
X68289778Y-40110791D01*
X68446461Y-40149409D01*
X68454944Y-40151500D01*
X68454947Y-40151500D01*
X68625053Y-40151500D01*
X68625056Y-40151500D01*
X68790225Y-40110790D01*
X68940852Y-40031734D01*
X69068183Y-39918929D01*
X69164818Y-39778930D01*
X69225140Y-39619872D01*
X69236398Y-39527159D01*
X69245645Y-39451002D01*
X69245645Y-39450997D01*
X69225140Y-39282128D01*
X69164820Y-39123074D01*
X69164818Y-39123070D01*
X69068183Y-38983071D01*
X69068181Y-38983069D01*
X68940857Y-38870270D01*
X68940851Y-38870265D01*
X68790225Y-38791210D01*
X68790221Y-38791208D01*
X68728418Y-38775976D01*
X68667063Y-38740253D01*
X68634762Y-38677030D01*
X68641769Y-38606380D01*
X68675016Y-38559326D01*
X68778183Y-38467929D01*
X68874818Y-38327930D01*
X68935140Y-38168872D01*
X68945843Y-38080729D01*
X68955645Y-38000002D01*
X68955645Y-37999997D01*
X68935140Y-37831128D01*
X68874291Y-37670680D01*
X68868837Y-37599893D01*
X68902520Y-37537395D01*
X68964644Y-37503028D01*
X68992103Y-37500000D01*
X71682729Y-37500000D01*
X71750850Y-37520002D01*
X71797343Y-37573658D01*
X71807810Y-37610813D01*
X71814859Y-37668871D01*
X71875179Y-37827925D01*
X71875181Y-37827929D01*
X71971816Y-37967928D01*
X71971818Y-37967930D01*
X72095981Y-38077929D01*
X72099148Y-38080734D01*
X72109620Y-38086230D01*
X72160642Y-38135599D01*
X72176874Y-38204715D01*
X72153162Y-38271635D01*
X72097034Y-38315112D01*
X72081218Y-38320136D01*
X71999777Y-38340209D01*
X71999774Y-38340210D01*
X71849148Y-38419265D01*
X71849142Y-38419270D01*
X71721818Y-38532069D01*
X71721816Y-38532071D01*
X71625181Y-38672070D01*
X71625179Y-38672074D01*
X71564859Y-38831128D01*
X71544355Y-38999997D01*
X71544355Y-39000002D01*
X71564859Y-39168871D01*
X71625179Y-39327925D01*
X71625181Y-39327929D01*
X71721816Y-39467928D01*
X71721818Y-39467930D01*
X71795297Y-39533027D01*
X71849148Y-39580734D01*
X71999775Y-39659790D01*
X71999776Y-39659790D01*
X71999778Y-39659791D01*
X72156461Y-39698409D01*
X72164944Y-39700500D01*
X72164947Y-39700500D01*
X72335053Y-39700500D01*
X72335056Y-39700500D01*
X72500225Y-39659790D01*
X72650852Y-39580734D01*
X72778183Y-39467929D01*
X72874818Y-39327930D01*
X72935140Y-39168872D01*
X72955645Y-39000000D01*
X72953589Y-38983071D01*
X72935140Y-38831128D01*
X72874820Y-38672074D01*
X72874818Y-38672070D01*
X72778183Y-38532071D01*
X72778181Y-38532069D01*
X72650857Y-38419270D01*
X72650853Y-38419267D01*
X72650852Y-38419266D01*
X72640375Y-38413767D01*
X72589355Y-38364398D01*
X72573125Y-38295281D01*
X72596839Y-38228362D01*
X72652967Y-38184886D01*
X72668777Y-38179864D01*
X72750225Y-38159790D01*
X72900852Y-38080734D01*
X73028183Y-37967929D01*
X73124818Y-37827930D01*
X73185140Y-37668872D01*
X73187256Y-37651443D01*
X73192190Y-37610813D01*
X73220256Y-37545600D01*
X73279125Y-37505913D01*
X73317271Y-37500000D01*
X73447810Y-37500000D01*
X73515931Y-37520002D01*
X73536905Y-37536905D01*
X73963095Y-37963095D01*
X73997121Y-38025407D01*
X74000000Y-38052190D01*
X74000000Y-43263922D01*
X73979998Y-43332043D01*
X73932557Y-43375489D01*
X73849146Y-43419267D01*
X73849142Y-43419270D01*
X73721818Y-43532069D01*
X73721816Y-43532071D01*
X73625181Y-43672070D01*
X73625179Y-43672074D01*
X73564859Y-43831128D01*
X73544355Y-43999997D01*
X73544355Y-44000002D01*
X73564859Y-44168871D01*
X73625179Y-44327925D01*
X73625181Y-44327929D01*
X73721816Y-44467928D01*
X73721818Y-44467930D01*
X73767552Y-44508447D01*
X73849148Y-44580734D01*
X73932559Y-44624512D01*
X73983577Y-44673876D01*
X74000000Y-44736076D01*
X74000000Y-45702473D01*
X73979998Y-45770594D01*
X73976088Y-45775757D01*
X73976147Y-45775798D01*
X73875181Y-45922070D01*
X73875179Y-45922074D01*
X73814859Y-46081128D01*
X73794355Y-46249997D01*
X73794355Y-46250002D01*
X73814859Y-46418871D01*
X73875179Y-46577925D01*
X73875181Y-46577929D01*
X73976147Y-46724202D01*
X73973859Y-46725781D01*
X73998510Y-46778209D01*
X74000000Y-46797526D01*
X74000000Y-47952473D01*
X73979998Y-48020594D01*
X73976088Y-48025757D01*
X73976147Y-48025798D01*
X73875181Y-48172070D01*
X73875179Y-48172074D01*
X73814859Y-48331128D01*
X73794355Y-48499997D01*
X73794355Y-48500002D01*
X73814859Y-48668871D01*
X73875179Y-48827925D01*
X73875181Y-48827929D01*
X73976147Y-48974202D01*
X73973859Y-48975781D01*
X73998510Y-49028209D01*
X74000000Y-49047526D01*
X74000000Y-53122926D01*
X73979998Y-53191047D01*
X73926342Y-53237540D01*
X73856068Y-53247644D01*
X73791488Y-53218150D01*
X73756188Y-53167606D01*
X73716355Y-53062574D01*
X73716353Y-53062570D01*
X73619718Y-52922571D01*
X73619716Y-52922569D01*
X73492392Y-52809770D01*
X73492386Y-52809765D01*
X73341760Y-52730710D01*
X73341756Y-52730708D01*
X73176594Y-52690000D01*
X73176591Y-52690000D01*
X73006479Y-52690000D01*
X73006475Y-52690000D01*
X72841313Y-52730708D01*
X72841309Y-52730710D01*
X72690683Y-52809765D01*
X72690677Y-52809770D01*
X72563353Y-52922569D01*
X72563351Y-52922571D01*
X72466716Y-53062570D01*
X72466714Y-53062574D01*
X72406394Y-53221628D01*
X72385890Y-53390497D01*
X72385890Y-53390502D01*
X72406394Y-53559371D01*
X72466714Y-53718425D01*
X72466716Y-53718429D01*
X72466717Y-53718430D01*
X72563352Y-53858429D01*
X72690683Y-53971234D01*
X72841310Y-54050290D01*
X72841311Y-54050290D01*
X72841313Y-54050291D01*
X72997996Y-54088909D01*
X73006479Y-54091000D01*
X73006482Y-54091000D01*
X73176588Y-54091000D01*
X73176591Y-54091000D01*
X73341760Y-54050290D01*
X73492387Y-53971234D01*
X73619718Y-53858429D01*
X73716353Y-53718430D01*
X73716356Y-53718423D01*
X73756188Y-53613394D01*
X73799046Y-53556792D01*
X73865701Y-53532347D01*
X73934991Y-53547818D01*
X73984917Y-53598295D01*
X74000000Y-53658073D01*
X74000000Y-59197810D01*
X73979998Y-59265931D01*
X73963095Y-59286905D01*
X73536905Y-59713095D01*
X73474593Y-59747121D01*
X73447810Y-59750000D01*
X66039767Y-59750000D01*
X65971646Y-59729998D01*
X65956217Y-59718315D01*
X65900852Y-59669266D01*
X65900851Y-59669265D01*
X65750225Y-59590210D01*
X65750221Y-59590208D01*
X65585059Y-59549500D01*
X65585056Y-59549500D01*
X65414944Y-59549500D01*
X65414940Y-59549500D01*
X65249778Y-59590208D01*
X65249774Y-59590210D01*
X65099148Y-59669265D01*
X65099146Y-59669267D01*
X65068390Y-59696514D01*
X65043785Y-59718312D01*
X64979534Y-59748513D01*
X64960233Y-59750000D01*
X63289767Y-59750000D01*
X63221646Y-59729998D01*
X63206217Y-59718315D01*
X63150852Y-59669266D01*
X63150851Y-59669265D01*
X63000225Y-59590210D01*
X63000221Y-59590208D01*
X62835059Y-59549500D01*
X62835056Y-59549500D01*
X62664944Y-59549500D01*
X62664940Y-59549500D01*
X62499778Y-59590208D01*
X62499774Y-59590210D01*
X62349148Y-59669265D01*
X62349146Y-59669267D01*
X62318390Y-59696514D01*
X62293785Y-59718312D01*
X62229534Y-59748513D01*
X62210233Y-59750000D01*
X56302190Y-59750000D01*
X56234069Y-59729998D01*
X56213095Y-59713095D01*
X55786905Y-59286905D01*
X55752879Y-59224593D01*
X55750000Y-59197810D01*
X55750000Y-56547526D01*
X55763954Y-56500002D01*
X66044355Y-56500002D01*
X66064859Y-56668871D01*
X66125179Y-56827925D01*
X66125181Y-56827929D01*
X66221816Y-56967928D01*
X66221818Y-56967930D01*
X66303168Y-57040000D01*
X66349148Y-57080734D01*
X66499775Y-57159790D01*
X66499776Y-57159790D01*
X66499778Y-57159791D01*
X66656461Y-57198409D01*
X66664944Y-57200500D01*
X66664947Y-57200500D01*
X66835053Y-57200500D01*
X66835056Y-57200500D01*
X66911631Y-57181626D01*
X66982557Y-57184745D01*
X67040540Y-57225715D01*
X67067168Y-57291528D01*
X67064886Y-57323453D01*
X67065778Y-57323562D01*
X67044355Y-57499997D01*
X67044355Y-57500002D01*
X67064858Y-57668867D01*
X67064860Y-57668874D01*
X67068805Y-57679276D01*
X67074257Y-57750063D01*
X67040573Y-57812560D01*
X67005759Y-57835211D01*
X67006524Y-57836668D01*
X66849148Y-57919265D01*
X66849142Y-57919270D01*
X66721818Y-58032069D01*
X66721816Y-58032071D01*
X66625181Y-58172070D01*
X66625179Y-58172074D01*
X66564859Y-58331128D01*
X66544355Y-58499997D01*
X66544355Y-58500002D01*
X66564859Y-58668871D01*
X66625179Y-58827925D01*
X66625181Y-58827929D01*
X66625182Y-58827930D01*
X66721817Y-58967929D01*
X66849148Y-59080734D01*
X66999775Y-59159790D01*
X66999776Y-59159790D01*
X66999778Y-59159791D01*
X67154030Y-59197810D01*
X67164944Y-59200500D01*
X67164947Y-59200500D01*
X67335053Y-59200500D01*
X67335056Y-59200500D01*
X67500225Y-59159790D01*
X67650852Y-59080734D01*
X67778183Y-58967929D01*
X67874818Y-58827930D01*
X67935140Y-58668872D01*
X67955645Y-58500000D01*
X67935140Y-58331128D01*
X67931195Y-58320728D01*
X67925741Y-58249943D01*
X67959421Y-58187443D01*
X67994243Y-58164794D01*
X67993476Y-58163332D01*
X68000225Y-58159790D01*
X68150852Y-58080734D01*
X68278183Y-57967929D01*
X68374818Y-57827930D01*
X68435140Y-57668872D01*
X68454682Y-57507929D01*
X68455645Y-57500002D01*
X68455645Y-57499997D01*
X68436350Y-57341094D01*
X68447995Y-57271059D01*
X68495655Y-57218437D01*
X68564198Y-57199936D01*
X68572082Y-57200500D01*
X68573943Y-57200500D01*
X68744052Y-57200500D01*
X68744055Y-57200500D01*
X68909224Y-57159790D01*
X69059851Y-57080734D01*
X69105828Y-57040002D01*
X72294355Y-57040002D01*
X72314859Y-57208871D01*
X72375179Y-57367925D01*
X72375181Y-57367929D01*
X72375182Y-57367930D01*
X72471817Y-57507929D01*
X72599148Y-57620734D01*
X72749775Y-57699790D01*
X72749776Y-57699790D01*
X72749778Y-57699791D01*
X72906461Y-57738409D01*
X72914944Y-57740500D01*
X72914947Y-57740500D01*
X73085053Y-57740500D01*
X73085056Y-57740500D01*
X73250225Y-57699790D01*
X73400852Y-57620734D01*
X73528183Y-57507929D01*
X73624818Y-57367930D01*
X73685140Y-57208872D01*
X73705645Y-57040000D01*
X73704682Y-57032071D01*
X73685140Y-56871128D01*
X73624820Y-56712074D01*
X73624818Y-56712070D01*
X73528183Y-56572071D01*
X73528181Y-56572069D01*
X73400857Y-56459270D01*
X73400851Y-56459265D01*
X73250225Y-56380210D01*
X73250221Y-56380208D01*
X73085059Y-56339500D01*
X73085056Y-56339500D01*
X72914944Y-56339500D01*
X72914940Y-56339500D01*
X72749778Y-56380208D01*
X72749774Y-56380210D01*
X72599148Y-56459265D01*
X72599142Y-56459270D01*
X72471818Y-56572069D01*
X72471816Y-56572071D01*
X72375181Y-56712070D01*
X72375179Y-56712074D01*
X72314859Y-56871128D01*
X72294355Y-57039997D01*
X72294355Y-57040002D01*
X69105828Y-57040002D01*
X69187182Y-56967929D01*
X69283817Y-56827930D01*
X69287442Y-56818373D01*
X69332144Y-56700500D01*
X69344139Y-56668872D01*
X69364644Y-56500000D01*
X69362143Y-56479405D01*
X69344139Y-56331128D01*
X69283819Y-56172074D01*
X69283817Y-56172070D01*
X69187182Y-56032071D01*
X69187180Y-56032069D01*
X69059856Y-55919270D01*
X69059850Y-55919265D01*
X68909224Y-55840210D01*
X68909220Y-55840208D01*
X68744058Y-55799500D01*
X68744055Y-55799500D01*
X68688568Y-55799500D01*
X68620447Y-55779498D01*
X68573954Y-55725842D01*
X68563850Y-55655568D01*
X68570756Y-55628820D01*
X68592465Y-55571577D01*
X68629140Y-55474872D01*
X68649645Y-55306000D01*
X68632994Y-55168872D01*
X68629140Y-55137128D01*
X68568820Y-54978074D01*
X68568818Y-54978070D01*
X68472183Y-54838071D01*
X68472181Y-54838069D01*
X68344857Y-54725270D01*
X68344851Y-54725265D01*
X68194225Y-54646210D01*
X68194221Y-54646208D01*
X68029059Y-54605500D01*
X68029056Y-54605500D01*
X67858944Y-54605500D01*
X67858940Y-54605500D01*
X67693778Y-54646208D01*
X67693774Y-54646210D01*
X67543148Y-54725265D01*
X67543142Y-54725270D01*
X67415818Y-54838069D01*
X67415816Y-54838071D01*
X67319181Y-54978070D01*
X67319179Y-54978074D01*
X67258859Y-55137128D01*
X67238355Y-55305997D01*
X67238355Y-55306002D01*
X67258859Y-55474871D01*
X67319179Y-55633925D01*
X67319181Y-55633929D01*
X67415816Y-55773928D01*
X67415818Y-55773930D01*
X67507213Y-55854899D01*
X67543148Y-55886734D01*
X67693775Y-55965790D01*
X67693776Y-55965790D01*
X67693778Y-55965791D01*
X67832560Y-55999997D01*
X67858944Y-56006500D01*
X67858947Y-56006500D01*
X67914431Y-56006500D01*
X67982552Y-56026502D01*
X68029045Y-56080158D01*
X68039149Y-56150432D01*
X68032243Y-56177180D01*
X67973858Y-56331128D01*
X67953354Y-56499997D01*
X67953354Y-56500003D01*
X67972648Y-56658906D01*
X67961003Y-56728941D01*
X67913343Y-56781562D01*
X67844799Y-56800063D01*
X67836926Y-56799500D01*
X67835056Y-56799500D01*
X67664944Y-56799500D01*
X67664941Y-56799500D01*
X67664938Y-56799501D01*
X67588368Y-56818373D01*
X67517440Y-56815254D01*
X67459458Y-56774283D01*
X67432831Y-56708469D01*
X67435116Y-56676546D01*
X67434222Y-56676438D01*
X67455645Y-56500002D01*
X67455645Y-56499997D01*
X67435140Y-56331128D01*
X67374820Y-56172074D01*
X67374818Y-56172070D01*
X67278183Y-56032071D01*
X67278181Y-56032069D01*
X67150857Y-55919270D01*
X67150851Y-55919265D01*
X67000225Y-55840210D01*
X67000221Y-55840208D01*
X66835059Y-55799500D01*
X66835056Y-55799500D01*
X66664944Y-55799500D01*
X66664940Y-55799500D01*
X66499778Y-55840208D01*
X66499774Y-55840210D01*
X66349148Y-55919265D01*
X66349142Y-55919270D01*
X66221818Y-56032069D01*
X66221816Y-56032071D01*
X66125181Y-56172070D01*
X66125179Y-56172074D01*
X66064859Y-56331128D01*
X66044355Y-56499997D01*
X66044355Y-56500002D01*
X55763954Y-56500002D01*
X55770002Y-56479405D01*
X55773911Y-56474242D01*
X55773853Y-56474202D01*
X55838731Y-56380210D01*
X55874818Y-56327930D01*
X55935140Y-56168872D01*
X55955645Y-56000000D01*
X55951491Y-55965791D01*
X55935140Y-55831128D01*
X55874820Y-55672074D01*
X55874818Y-55672072D01*
X55874818Y-55672070D01*
X55805449Y-55571573D01*
X55783215Y-55504152D01*
X55800962Y-55435409D01*
X55805434Y-55428448D01*
X55874818Y-55327930D01*
X55935140Y-55168872D01*
X55955645Y-55000000D01*
X55952982Y-54978070D01*
X55935140Y-54831128D01*
X55874820Y-54672074D01*
X55874818Y-54672070D01*
X55773853Y-54525798D01*
X55776135Y-54524222D01*
X55751484Y-54471754D01*
X55750000Y-54452473D01*
X55750000Y-51584665D01*
X63661636Y-51584665D01*
X63682140Y-51753534D01*
X63742460Y-51912588D01*
X63742462Y-51912592D01*
X63825920Y-52033500D01*
X63839098Y-52052592D01*
X63966429Y-52165397D01*
X64117056Y-52244453D01*
X64117057Y-52244453D01*
X64117059Y-52244454D01*
X64273742Y-52283072D01*
X64282225Y-52285163D01*
X64282228Y-52285163D01*
X64452334Y-52285163D01*
X64452337Y-52285163D01*
X64617506Y-52244453D01*
X64768133Y-52165397D01*
X64895464Y-52052592D01*
X64992099Y-51912593D01*
X65052421Y-51753535D01*
X65072926Y-51584663D01*
X65052421Y-51415791D01*
X65021024Y-51333002D01*
X67239355Y-51333002D01*
X67259859Y-51501871D01*
X67320179Y-51660925D01*
X67320181Y-51660929D01*
X67320182Y-51660930D01*
X67416817Y-51800929D01*
X67544148Y-51913734D01*
X67694775Y-51992790D01*
X67694776Y-51992790D01*
X67694778Y-51992791D01*
X67851461Y-52031409D01*
X67859944Y-52033500D01*
X67859947Y-52033500D01*
X68030053Y-52033500D01*
X68030056Y-52033500D01*
X68195225Y-51992790D01*
X68345852Y-51913734D01*
X68473183Y-51800929D01*
X68569818Y-51660930D01*
X68630140Y-51501872D01*
X68650645Y-51333000D01*
X68641384Y-51256733D01*
X68630140Y-51164128D01*
X68569820Y-51005074D01*
X68569818Y-51005070D01*
X68473183Y-50865071D01*
X68473181Y-50865069D01*
X68345857Y-50752270D01*
X68345851Y-50752265D01*
X68195225Y-50673210D01*
X68195221Y-50673208D01*
X68030059Y-50632500D01*
X68030056Y-50632500D01*
X67859944Y-50632500D01*
X67859940Y-50632500D01*
X67694778Y-50673208D01*
X67694774Y-50673210D01*
X67544148Y-50752265D01*
X67544142Y-50752270D01*
X67416818Y-50865069D01*
X67416816Y-50865071D01*
X67320181Y-51005070D01*
X67320179Y-51005074D01*
X67259859Y-51164128D01*
X67239355Y-51332997D01*
X67239355Y-51333002D01*
X65021024Y-51333002D01*
X64992099Y-51256733D01*
X64895464Y-51116734D01*
X64895462Y-51116732D01*
X64768138Y-51003933D01*
X64768132Y-51003928D01*
X64617506Y-50924873D01*
X64617502Y-50924871D01*
X64452340Y-50884163D01*
X64452337Y-50884163D01*
X64282225Y-50884163D01*
X64282221Y-50884163D01*
X64117059Y-50924871D01*
X64117055Y-50924873D01*
X63966429Y-51003928D01*
X63966423Y-51003933D01*
X63839099Y-51116732D01*
X63839097Y-51116734D01*
X63742462Y-51256733D01*
X63742460Y-51256737D01*
X63682140Y-51415791D01*
X63661636Y-51584660D01*
X63661636Y-51584665D01*
X55750000Y-51584665D01*
X55750000Y-49531259D01*
X67746098Y-49531259D01*
X67766602Y-49700128D01*
X67826922Y-49859182D01*
X67826924Y-49859186D01*
X67832959Y-49867928D01*
X67923560Y-49999186D01*
X68050891Y-50111991D01*
X68201518Y-50191047D01*
X68201519Y-50191047D01*
X68201521Y-50191048D01*
X68358204Y-50229666D01*
X68366687Y-50231757D01*
X68366690Y-50231757D01*
X68536796Y-50231757D01*
X68536799Y-50231757D01*
X68701968Y-50191047D01*
X68852595Y-50111991D01*
X68979926Y-49999186D01*
X69076561Y-49859187D01*
X69136883Y-49700129D01*
X69157388Y-49531257D01*
X69141451Y-49400002D01*
X70394355Y-49400002D01*
X70414859Y-49568871D01*
X70475179Y-49727925D01*
X70475181Y-49727929D01*
X70565783Y-49859187D01*
X70571817Y-49867929D01*
X70699148Y-49980734D01*
X70849775Y-50059790D01*
X70849776Y-50059790D01*
X70849778Y-50059791D01*
X71006461Y-50098409D01*
X71014944Y-50100500D01*
X71014947Y-50100500D01*
X71185053Y-50100500D01*
X71185056Y-50100500D01*
X71350225Y-50059790D01*
X71500852Y-49980734D01*
X71628183Y-49867929D01*
X71724818Y-49727930D01*
X71785140Y-49568872D01*
X71805645Y-49400000D01*
X71793598Y-49300789D01*
X71785140Y-49231128D01*
X71724820Y-49072074D01*
X71724818Y-49072070D01*
X71628183Y-48932071D01*
X71628181Y-48932069D01*
X71500857Y-48819270D01*
X71500851Y-48819265D01*
X71350225Y-48740210D01*
X71350221Y-48740208D01*
X71185059Y-48699500D01*
X71185056Y-48699500D01*
X71014944Y-48699500D01*
X71014940Y-48699500D01*
X70849778Y-48740208D01*
X70849774Y-48740210D01*
X70699148Y-48819265D01*
X70699142Y-48819270D01*
X70571818Y-48932069D01*
X70571816Y-48932071D01*
X70475181Y-49072070D01*
X70475179Y-49072074D01*
X70414859Y-49231128D01*
X70394355Y-49399997D01*
X70394355Y-49400002D01*
X69141451Y-49400002D01*
X69136883Y-49362385D01*
X69136882Y-49362385D01*
X69076563Y-49203331D01*
X69076561Y-49203327D01*
X68979926Y-49063328D01*
X68979924Y-49063326D01*
X68852600Y-48950527D01*
X68852594Y-48950522D01*
X68701968Y-48871467D01*
X68701964Y-48871465D01*
X68536802Y-48830757D01*
X68536799Y-48830757D01*
X68366687Y-48830757D01*
X68366683Y-48830757D01*
X68201521Y-48871465D01*
X68201517Y-48871467D01*
X68050891Y-48950522D01*
X68050885Y-48950527D01*
X67923561Y-49063326D01*
X67923559Y-49063328D01*
X67826924Y-49203327D01*
X67826922Y-49203331D01*
X67766602Y-49362385D01*
X67746098Y-49531254D01*
X67746098Y-49531259D01*
X55750000Y-49531259D01*
X55750000Y-47515537D01*
X55770002Y-47447416D01*
X55817446Y-47403969D01*
X55838850Y-47392735D01*
X55838849Y-47392735D01*
X55838852Y-47392734D01*
X55966183Y-47279929D01*
X56062818Y-47139930D01*
X56080083Y-47094405D01*
X57791132Y-47094405D01*
X57811636Y-47263274D01*
X57871956Y-47422328D01*
X57871958Y-47422332D01*
X57968593Y-47562331D01*
X57968595Y-47562333D01*
X58086595Y-47666872D01*
X58095925Y-47675137D01*
X58246552Y-47754193D01*
X58246553Y-47754193D01*
X58246555Y-47754194D01*
X58357995Y-47781661D01*
X58411721Y-47794903D01*
X58411724Y-47794903D01*
X58553606Y-47794903D01*
X58621727Y-47814905D01*
X58668220Y-47868561D01*
X58671418Y-47876224D01*
X58689886Y-47924923D01*
X58786521Y-48064922D01*
X58786523Y-48064924D01*
X58891348Y-48157791D01*
X58913853Y-48177728D01*
X59064480Y-48256784D01*
X59064481Y-48256784D01*
X59064483Y-48256785D01*
X59218841Y-48294830D01*
X59229649Y-48297494D01*
X59229652Y-48297494D01*
X59399758Y-48297494D01*
X59399761Y-48297494D01*
X59564930Y-48256784D01*
X59624826Y-48225347D01*
X59694437Y-48211400D01*
X59760540Y-48237302D01*
X59802145Y-48294830D01*
X59806044Y-48365720D01*
X59801194Y-48381593D01*
X59766858Y-48472130D01*
X59746355Y-48640997D01*
X59746355Y-48641002D01*
X59766859Y-48809871D01*
X59827179Y-48968925D01*
X59827181Y-48968929D01*
X59923816Y-49108928D01*
X59923818Y-49108930D01*
X60030370Y-49203327D01*
X60051148Y-49221734D01*
X60201775Y-49300790D01*
X60201776Y-49300790D01*
X60201778Y-49300791D01*
X60358461Y-49339409D01*
X60366944Y-49341500D01*
X60366947Y-49341500D01*
X60537053Y-49341500D01*
X60537056Y-49341500D01*
X60702225Y-49300790D01*
X60852852Y-49221734D01*
X60980183Y-49108929D01*
X61076818Y-48968930D01*
X61137140Y-48809872D01*
X61157645Y-48641000D01*
X61137140Y-48472128D01*
X61102805Y-48381593D01*
X61076820Y-48313074D01*
X61076818Y-48313070D01*
X60980183Y-48173071D01*
X60980181Y-48173069D01*
X60852857Y-48060270D01*
X60852851Y-48060265D01*
X60702225Y-47981210D01*
X60702221Y-47981208D01*
X60537059Y-47940500D01*
X60537056Y-47940500D01*
X60366944Y-47940500D01*
X60366940Y-47940500D01*
X60201778Y-47981208D01*
X60201770Y-47981212D01*
X60141878Y-48012646D01*
X60072265Y-48026593D01*
X60006162Y-48000689D01*
X59964558Y-47943160D01*
X59960660Y-47872271D01*
X59965511Y-47856399D01*
X59985838Y-47802800D01*
X62889915Y-47802800D01*
X62908971Y-47947552D01*
X62964844Y-48082441D01*
X62964849Y-48082449D01*
X63053725Y-48198274D01*
X63169550Y-48287150D01*
X63169557Y-48287155D01*
X63304446Y-48343028D01*
X63449200Y-48362085D01*
X63593954Y-48343028D01*
X63728843Y-48287155D01*
X63766193Y-48258494D01*
X63832413Y-48232892D01*
X63901962Y-48247156D01*
X63919601Y-48258490D01*
X63956957Y-48287155D01*
X64091846Y-48343028D01*
X64236600Y-48362085D01*
X64381354Y-48343028D01*
X64516243Y-48287155D01*
X64553594Y-48258493D01*
X64619814Y-48232892D01*
X64689363Y-48247156D01*
X64707004Y-48258492D01*
X64744357Y-48287155D01*
X64879246Y-48343028D01*
X65024000Y-48362085D01*
X65168754Y-48343028D01*
X65303643Y-48287155D01*
X65340993Y-48258494D01*
X65407213Y-48232892D01*
X65476762Y-48247156D01*
X65494401Y-48258490D01*
X65531757Y-48287155D01*
X65666646Y-48343028D01*
X65811400Y-48362085D01*
X65956154Y-48343028D01*
X66091043Y-48287155D01*
X66128394Y-48258493D01*
X66194614Y-48232892D01*
X66264163Y-48247156D01*
X66281804Y-48258492D01*
X66319157Y-48287155D01*
X66454046Y-48343028D01*
X66526423Y-48352556D01*
X66598799Y-48362085D01*
X66598799Y-48362084D01*
X66598800Y-48362085D01*
X66743554Y-48343028D01*
X66878443Y-48287155D01*
X66994274Y-48198274D01*
X67083155Y-48082443D01*
X67139028Y-47947554D01*
X67158085Y-47802800D01*
X67153222Y-47765865D01*
X67139028Y-47658047D01*
X67139028Y-47658046D01*
X67083155Y-47523158D01*
X67063852Y-47498002D01*
X70287355Y-47498002D01*
X70307859Y-47666871D01*
X70368179Y-47825925D01*
X70368181Y-47825929D01*
X70464816Y-47965928D01*
X70464818Y-47965930D01*
X70576559Y-48064924D01*
X70592148Y-48078734D01*
X70742775Y-48157790D01*
X70742776Y-48157790D01*
X70742778Y-48157791D01*
X70899461Y-48196409D01*
X70907944Y-48198500D01*
X70907947Y-48198500D01*
X71078053Y-48198500D01*
X71078056Y-48198500D01*
X71243225Y-48157790D01*
X71393852Y-48078734D01*
X71521183Y-47965929D01*
X71617818Y-47825930D01*
X71678140Y-47666872D01*
X71686625Y-47596991D01*
X71698645Y-47498002D01*
X71698645Y-47497997D01*
X71678140Y-47329128D01*
X71665213Y-47295041D01*
X71622380Y-47182101D01*
X71616927Y-47111315D01*
X71650610Y-47048817D01*
X71712734Y-47014450D01*
X71770346Y-47015083D01*
X71775138Y-47016264D01*
X71882573Y-47042744D01*
X71882576Y-47042744D01*
X72052682Y-47042744D01*
X72052685Y-47042744D01*
X72217854Y-47002034D01*
X72368481Y-46922978D01*
X72495812Y-46810173D01*
X72592447Y-46670174D01*
X72652769Y-46511116D01*
X72663970Y-46418871D01*
X72673274Y-46342246D01*
X72673274Y-46342241D01*
X72652769Y-46173372D01*
X72592449Y-46014318D01*
X72592447Y-46014314D01*
X72495812Y-45874315D01*
X72495810Y-45874313D01*
X72368486Y-45761514D01*
X72368480Y-45761509D01*
X72217854Y-45682454D01*
X72217850Y-45682452D01*
X72052688Y-45641744D01*
X72052685Y-45641744D01*
X71882573Y-45641744D01*
X71882569Y-45641744D01*
X71710003Y-45684278D01*
X71709210Y-45681060D01*
X71653052Y-45685119D01*
X71590714Y-45651141D01*
X71576047Y-45633555D01*
X71521183Y-45554071D01*
X71521181Y-45554069D01*
X71393857Y-45441270D01*
X71393851Y-45441265D01*
X71243225Y-45362210D01*
X71243221Y-45362208D01*
X71078059Y-45321500D01*
X71078056Y-45321500D01*
X70907944Y-45321500D01*
X70907940Y-45321500D01*
X70742778Y-45362208D01*
X70742774Y-45362210D01*
X70592148Y-45441265D01*
X70592142Y-45441270D01*
X70464818Y-45554069D01*
X70464816Y-45554071D01*
X70368181Y-45694070D01*
X70368179Y-45694074D01*
X70307859Y-45853128D01*
X70287355Y-46021997D01*
X70287355Y-46022002D01*
X70307859Y-46190871D01*
X70368179Y-46349925D01*
X70368181Y-46349929D01*
X70464816Y-46489928D01*
X70464818Y-46489930D01*
X70592142Y-46602729D01*
X70592148Y-46602734D01*
X70679219Y-46648433D01*
X70730241Y-46697802D01*
X70746473Y-46766918D01*
X70722761Y-46833838D01*
X70679219Y-46871567D01*
X70592148Y-46917265D01*
X70592142Y-46917270D01*
X70464818Y-47030069D01*
X70464816Y-47030071D01*
X70368181Y-47170070D01*
X70368179Y-47170074D01*
X70307859Y-47329128D01*
X70287355Y-47497997D01*
X70287355Y-47498002D01*
X67063852Y-47498002D01*
X67054491Y-47485802D01*
X67028891Y-47419585D01*
X67043155Y-47350036D01*
X67054488Y-47332401D01*
X67076577Y-47303615D01*
X67083153Y-47295046D01*
X67083153Y-47295045D01*
X67083155Y-47295043D01*
X67139028Y-47160154D01*
X67158085Y-47015400D01*
X67156325Y-47002035D01*
X67139028Y-46870647D01*
X67123781Y-46833838D01*
X67083155Y-46735758D01*
X67054491Y-46698402D01*
X67028891Y-46632185D01*
X67043155Y-46562636D01*
X67054488Y-46545001D01*
X67080491Y-46511115D01*
X67083153Y-46507646D01*
X67083153Y-46507645D01*
X67083155Y-46507643D01*
X67139028Y-46372754D01*
X67158085Y-46228000D01*
X67139028Y-46083246D01*
X67083155Y-45948358D01*
X67054491Y-45911002D01*
X67028891Y-45844785D01*
X67043155Y-45775236D01*
X67054488Y-45757601D01*
X67076577Y-45728815D01*
X67083153Y-45720246D01*
X67083153Y-45720245D01*
X67083155Y-45720243D01*
X67139028Y-45585354D01*
X67158085Y-45440600D01*
X67139028Y-45295846D01*
X67083155Y-45160958D01*
X67054491Y-45123602D01*
X67028891Y-45057385D01*
X67043155Y-44987836D01*
X67054488Y-44970201D01*
X67076577Y-44941415D01*
X67083153Y-44932846D01*
X67083153Y-44932845D01*
X67083155Y-44932843D01*
X67139028Y-44797954D01*
X67158085Y-44653200D01*
X67139028Y-44508446D01*
X67094937Y-44402002D01*
X70668355Y-44402002D01*
X70688859Y-44570871D01*
X70749179Y-44729925D01*
X70749181Y-44729929D01*
X70845816Y-44869928D01*
X70845818Y-44869930D01*
X70958996Y-44970197D01*
X70973148Y-44982734D01*
X71123775Y-45061790D01*
X71123776Y-45061790D01*
X71123778Y-45061791D01*
X71280461Y-45100409D01*
X71288944Y-45102500D01*
X71288947Y-45102500D01*
X71459053Y-45102500D01*
X71459056Y-45102500D01*
X71624225Y-45061790D01*
X71774852Y-44982734D01*
X71902183Y-44869929D01*
X71998818Y-44729930D01*
X72059140Y-44570872D01*
X72079645Y-44402000D01*
X72076191Y-44373558D01*
X72059140Y-44233128D01*
X71998820Y-44074074D01*
X71998818Y-44074070D01*
X71902183Y-43934071D01*
X71902181Y-43934069D01*
X71774857Y-43821270D01*
X71774851Y-43821265D01*
X71624225Y-43742210D01*
X71624221Y-43742208D01*
X71459059Y-43701500D01*
X71459056Y-43701500D01*
X71288944Y-43701500D01*
X71288940Y-43701500D01*
X71123778Y-43742208D01*
X71123774Y-43742210D01*
X70973148Y-43821265D01*
X70973142Y-43821270D01*
X70845818Y-43934069D01*
X70845816Y-43934071D01*
X70749181Y-44074070D01*
X70749179Y-44074074D01*
X70688859Y-44233128D01*
X70668355Y-44401997D01*
X70668355Y-44402002D01*
X67094937Y-44402002D01*
X67083155Y-44373558D01*
X66994274Y-44257726D01*
X66994272Y-44257724D01*
X66994271Y-44257723D01*
X66878449Y-44168849D01*
X66878441Y-44168844D01*
X66743552Y-44112971D01*
X66598800Y-44093915D01*
X66454047Y-44112971D01*
X66387656Y-44140472D01*
X66319158Y-44168845D01*
X66319156Y-44168846D01*
X66319157Y-44168846D01*
X66319152Y-44168849D01*
X66281802Y-44197508D01*
X66215581Y-44223107D01*
X66146033Y-44208841D01*
X66128397Y-44197507D01*
X66091049Y-44168849D01*
X66091041Y-44168844D01*
X65956152Y-44112971D01*
X65811400Y-44093915D01*
X65666647Y-44112971D01*
X65600256Y-44140472D01*
X65531758Y-44168845D01*
X65531756Y-44168846D01*
X65531757Y-44168846D01*
X65531752Y-44168849D01*
X65494402Y-44197508D01*
X65428181Y-44223107D01*
X65358633Y-44208841D01*
X65340997Y-44197507D01*
X65303649Y-44168849D01*
X65303641Y-44168844D01*
X65168752Y-44112971D01*
X65024000Y-44093915D01*
X64879247Y-44112971D01*
X64812856Y-44140472D01*
X64744358Y-44168845D01*
X64744356Y-44168846D01*
X64744357Y-44168846D01*
X64744352Y-44168849D01*
X64707002Y-44197508D01*
X64640781Y-44223107D01*
X64571233Y-44208841D01*
X64553597Y-44197507D01*
X64516249Y-44168849D01*
X64516241Y-44168844D01*
X64381352Y-44112971D01*
X64236600Y-44093915D01*
X64091847Y-44112971D01*
X64025456Y-44140472D01*
X63956958Y-44168845D01*
X63956956Y-44168846D01*
X63956957Y-44168846D01*
X63956952Y-44168849D01*
X63919602Y-44197508D01*
X63853381Y-44223107D01*
X63783833Y-44208841D01*
X63766197Y-44197507D01*
X63728849Y-44168849D01*
X63728841Y-44168844D01*
X63593952Y-44112971D01*
X63449200Y-44093915D01*
X63304447Y-44112971D01*
X63238056Y-44140472D01*
X63169558Y-44168845D01*
X63169557Y-44168846D01*
X63169556Y-44168846D01*
X63053726Y-44257726D01*
X62964846Y-44373556D01*
X62964845Y-44373558D01*
X62953065Y-44401997D01*
X62908971Y-44508447D01*
X62889915Y-44653199D01*
X62889915Y-44653200D01*
X62908971Y-44797952D01*
X62964844Y-44932841D01*
X62964849Y-44932849D01*
X62993507Y-44970197D01*
X63019107Y-45036417D01*
X63004842Y-45105966D01*
X62993508Y-45123602D01*
X62964849Y-45160952D01*
X62964846Y-45160955D01*
X62964845Y-45160958D01*
X62936908Y-45228402D01*
X62908971Y-45295847D01*
X62889915Y-45440599D01*
X62889915Y-45440600D01*
X62908971Y-45585352D01*
X62964844Y-45720241D01*
X62964849Y-45720249D01*
X62993507Y-45757597D01*
X63019107Y-45823817D01*
X63004842Y-45893366D01*
X62993508Y-45911002D01*
X62964849Y-45948352D01*
X62964846Y-45948355D01*
X62964845Y-45948358D01*
X62944772Y-45996818D01*
X62908971Y-46083247D01*
X62889915Y-46227999D01*
X62889915Y-46228000D01*
X62908971Y-46372752D01*
X62964844Y-46507641D01*
X62964849Y-46507649D01*
X62993507Y-46544997D01*
X63019107Y-46611217D01*
X63004842Y-46680766D01*
X62993508Y-46698402D01*
X62964849Y-46735752D01*
X62964846Y-46735755D01*
X62964845Y-46735758D01*
X62952122Y-46766474D01*
X62908971Y-46870647D01*
X62889915Y-47015399D01*
X62889915Y-47015400D01*
X62908971Y-47160152D01*
X62964844Y-47295041D01*
X62964849Y-47295049D01*
X62993507Y-47332397D01*
X63019107Y-47398617D01*
X63004842Y-47468166D01*
X62993508Y-47485802D01*
X62964849Y-47523152D01*
X62964846Y-47523155D01*
X62964845Y-47523158D01*
X62948618Y-47562333D01*
X62908971Y-47658047D01*
X62889915Y-47802799D01*
X62889915Y-47802800D01*
X59985838Y-47802800D01*
X59999845Y-47765865D01*
X60020350Y-47596996D01*
X60020350Y-47596991D01*
X59999845Y-47428122D01*
X59939525Y-47269068D01*
X59939523Y-47269064D01*
X59842888Y-47129065D01*
X59842886Y-47129063D01*
X59715562Y-47016264D01*
X59715556Y-47016259D01*
X59564930Y-46937204D01*
X59564926Y-46937202D01*
X59399764Y-46896494D01*
X59399761Y-46896494D01*
X59257877Y-46896494D01*
X59189756Y-46876492D01*
X59143263Y-46822836D01*
X59140065Y-46815173D01*
X59121598Y-46766479D01*
X59121595Y-46766474D01*
X59121595Y-46766473D01*
X59103271Y-46739926D01*
X59081036Y-46672501D01*
X59098784Y-46603758D01*
X59123418Y-46574035D01*
X59129183Y-46568929D01*
X59225818Y-46428930D01*
X59229633Y-46418872D01*
X59258001Y-46344069D01*
X59286140Y-46269872D01*
X59297857Y-46173372D01*
X59306645Y-46101002D01*
X59306645Y-46100997D01*
X59286140Y-45932128D01*
X59225820Y-45773074D01*
X59225818Y-45773070D01*
X59129183Y-45633071D01*
X59129181Y-45633069D01*
X59001857Y-45520270D01*
X59001851Y-45520265D01*
X58851225Y-45441210D01*
X58851221Y-45441208D01*
X58686059Y-45400500D01*
X58686056Y-45400500D01*
X58515944Y-45400500D01*
X58515940Y-45400500D01*
X58350778Y-45441208D01*
X58350774Y-45441210D01*
X58200148Y-45520265D01*
X58200142Y-45520270D01*
X58072818Y-45633069D01*
X58072816Y-45633071D01*
X57976181Y-45773070D01*
X57976179Y-45773074D01*
X57915859Y-45932128D01*
X57895355Y-46100997D01*
X57895355Y-46101002D01*
X57915859Y-46269871D01*
X57976179Y-46428925D01*
X57976181Y-46428929D01*
X57994505Y-46455475D01*
X58016741Y-46522899D01*
X57998994Y-46591642D01*
X57974366Y-46621360D01*
X57968595Y-46626472D01*
X57968593Y-46626474D01*
X57871958Y-46766473D01*
X57871956Y-46766477D01*
X57811636Y-46925531D01*
X57791132Y-47094400D01*
X57791132Y-47094405D01*
X56080083Y-47094405D01*
X56123140Y-46980872D01*
X56131778Y-46909735D01*
X56143645Y-46812002D01*
X56143645Y-46811997D01*
X56123140Y-46643128D01*
X56062820Y-46484074D01*
X56062818Y-46484070D01*
X55966183Y-46344071D01*
X55966181Y-46344069D01*
X55838857Y-46231270D01*
X55838848Y-46231263D01*
X55817444Y-46220030D01*
X55766421Y-46170662D01*
X55750000Y-46108466D01*
X55750000Y-45337031D01*
X59571101Y-45337031D01*
X59591605Y-45505900D01*
X59651925Y-45664954D01*
X59651927Y-45664958D01*
X59748562Y-45804957D01*
X59748564Y-45804959D01*
X59868265Y-45911005D01*
X59875894Y-45917763D01*
X60026521Y-45996819D01*
X60026522Y-45996819D01*
X60026524Y-45996820D01*
X60183207Y-46035438D01*
X60191690Y-46037529D01*
X60191693Y-46037529D01*
X60361799Y-46037529D01*
X60361802Y-46037529D01*
X60526971Y-45996819D01*
X60677598Y-45917763D01*
X60804929Y-45804958D01*
X60901564Y-45664959D01*
X60961886Y-45505901D01*
X60974684Y-45400500D01*
X60982391Y-45337031D01*
X60982391Y-45337026D01*
X60961886Y-45168157D01*
X60901566Y-45009103D01*
X60901564Y-45009099D01*
X60804929Y-44869100D01*
X60804927Y-44869098D01*
X60677603Y-44756299D01*
X60677597Y-44756294D01*
X60526971Y-44677239D01*
X60526967Y-44677237D01*
X60361805Y-44636529D01*
X60361802Y-44636529D01*
X60191690Y-44636529D01*
X60191686Y-44636529D01*
X60026524Y-44677237D01*
X60026520Y-44677239D01*
X59875894Y-44756294D01*
X59875888Y-44756299D01*
X59748564Y-44869098D01*
X59748562Y-44869100D01*
X59651927Y-45009099D01*
X59651925Y-45009103D01*
X59591605Y-45168157D01*
X59571101Y-45337026D01*
X59571101Y-45337031D01*
X55750000Y-45337031D01*
X55750000Y-43559745D01*
X59620612Y-43559745D01*
X59641116Y-43728614D01*
X59701436Y-43887668D01*
X59701438Y-43887672D01*
X59798073Y-44027671D01*
X59798075Y-44027673D01*
X59850446Y-44074070D01*
X59925405Y-44140477D01*
X60076032Y-44219533D01*
X60076033Y-44219533D01*
X60076035Y-44219534D01*
X60225463Y-44256364D01*
X60241201Y-44260243D01*
X60241204Y-44260243D01*
X60411310Y-44260243D01*
X60411313Y-44260243D01*
X60576482Y-44219533D01*
X60727109Y-44140477D01*
X60854440Y-44027672D01*
X60951075Y-43887673D01*
X61011397Y-43728615D01*
X61031902Y-43559743D01*
X61011397Y-43390871D01*
X60976745Y-43299500D01*
X60951077Y-43231817D01*
X60951075Y-43231813D01*
X60854440Y-43091814D01*
X60854438Y-43091812D01*
X60727114Y-42979013D01*
X60727108Y-42979008D01*
X60576482Y-42899953D01*
X60576478Y-42899951D01*
X60411316Y-42859243D01*
X60411313Y-42859243D01*
X60241201Y-42859243D01*
X60241197Y-42859243D01*
X60076035Y-42899951D01*
X60076031Y-42899953D01*
X59925405Y-42979008D01*
X59925399Y-42979013D01*
X59798075Y-43091812D01*
X59798073Y-43091814D01*
X59701438Y-43231813D01*
X59701436Y-43231817D01*
X59641116Y-43390871D01*
X59620612Y-43559740D01*
X59620612Y-43559745D01*
X55750000Y-43559745D01*
X55750000Y-42164002D01*
X67366355Y-42164002D01*
X67386859Y-42332871D01*
X67447179Y-42491925D01*
X67447181Y-42491929D01*
X67543816Y-42631928D01*
X67543818Y-42631930D01*
X67605042Y-42686170D01*
X67671148Y-42744734D01*
X67821775Y-42823790D01*
X67821776Y-42823790D01*
X67821778Y-42823791D01*
X67965615Y-42859243D01*
X67986944Y-42864500D01*
X67986947Y-42864500D01*
X68157053Y-42864500D01*
X68157056Y-42864500D01*
X68322225Y-42823790D01*
X68472852Y-42744734D01*
X68600183Y-42631929D01*
X68696818Y-42491930D01*
X68757140Y-42332872D01*
X68777645Y-42164000D01*
X68776496Y-42154541D01*
X68757140Y-41995128D01*
X68753554Y-41985672D01*
X70491447Y-41985672D01*
X70511951Y-42154541D01*
X70572271Y-42313595D01*
X70572273Y-42313599D01*
X70585577Y-42332872D01*
X70668909Y-42453599D01*
X70796240Y-42566404D01*
X70946867Y-42645460D01*
X70946868Y-42645460D01*
X70946870Y-42645461D01*
X71103553Y-42684079D01*
X71112036Y-42686170D01*
X71112039Y-42686170D01*
X71282145Y-42686170D01*
X71282148Y-42686170D01*
X71447317Y-42645460D01*
X71597944Y-42566404D01*
X71725275Y-42453599D01*
X71821910Y-42313600D01*
X71882232Y-42154542D01*
X71902737Y-41985670D01*
X71882232Y-41816798D01*
X71846091Y-41721500D01*
X71821912Y-41657744D01*
X71821910Y-41657740D01*
X71725275Y-41517741D01*
X71725273Y-41517739D01*
X71597949Y-41404940D01*
X71597943Y-41404935D01*
X71447317Y-41325880D01*
X71447313Y-41325878D01*
X71282151Y-41285170D01*
X71282148Y-41285170D01*
X71112036Y-41285170D01*
X71112032Y-41285170D01*
X70946870Y-41325878D01*
X70946866Y-41325880D01*
X70796240Y-41404935D01*
X70796234Y-41404940D01*
X70668910Y-41517739D01*
X70668908Y-41517741D01*
X70572273Y-41657740D01*
X70572271Y-41657744D01*
X70511951Y-41816798D01*
X70491447Y-41985667D01*
X70491447Y-41985672D01*
X68753554Y-41985672D01*
X68696820Y-41836074D01*
X68696818Y-41836070D01*
X68600183Y-41696071D01*
X68600181Y-41696069D01*
X68472857Y-41583270D01*
X68472851Y-41583265D01*
X68322225Y-41504210D01*
X68322221Y-41504208D01*
X68157059Y-41463500D01*
X68157056Y-41463500D01*
X67986944Y-41463500D01*
X67986940Y-41463500D01*
X67821778Y-41504208D01*
X67821774Y-41504210D01*
X67671148Y-41583265D01*
X67671142Y-41583270D01*
X67543818Y-41696069D01*
X67543816Y-41696071D01*
X67447181Y-41836070D01*
X67447179Y-41836074D01*
X67386859Y-41995128D01*
X67366355Y-42163997D01*
X67366355Y-42164002D01*
X55750000Y-42164002D01*
X55750000Y-40094006D01*
X64170711Y-40094006D01*
X64191215Y-40262875D01*
X64251535Y-40421929D01*
X64251537Y-40421933D01*
X64251538Y-40421934D01*
X64348173Y-40561933D01*
X64433325Y-40637371D01*
X64471050Y-40697514D01*
X64470270Y-40768506D01*
X64467583Y-40776361D01*
X64438849Y-40852126D01*
X64438849Y-40852127D01*
X64418345Y-41020997D01*
X64418345Y-41021002D01*
X64438849Y-41189871D01*
X64499169Y-41348925D01*
X64499171Y-41348929D01*
X64595806Y-41488928D01*
X64595808Y-41488930D01*
X64702290Y-41583265D01*
X64723138Y-41601734D01*
X64873765Y-41680790D01*
X64873766Y-41680790D01*
X64873768Y-41680791D01*
X64935763Y-41696071D01*
X65038934Y-41721500D01*
X65038937Y-41721500D01*
X65209043Y-41721500D01*
X65209046Y-41721500D01*
X65374215Y-41680790D01*
X65524842Y-41601734D01*
X65652173Y-41488929D01*
X65748808Y-41348930D01*
X65809130Y-41189872D01*
X65828209Y-41032741D01*
X65856276Y-40967529D01*
X65915144Y-40927842D01*
X65923116Y-40925595D01*
X66077886Y-40887449D01*
X66228513Y-40808393D01*
X66249872Y-40789470D01*
X66314125Y-40759268D01*
X66384506Y-40768599D01*
X66391983Y-40772214D01*
X66394394Y-40773479D01*
X66394396Y-40773481D01*
X66545023Y-40852537D01*
X66545024Y-40852537D01*
X66545026Y-40852538D01*
X66686664Y-40887448D01*
X66710192Y-40893247D01*
X66710195Y-40893247D01*
X66880301Y-40893247D01*
X66880304Y-40893247D01*
X67045473Y-40852537D01*
X67196100Y-40773481D01*
X67323431Y-40660676D01*
X67420066Y-40520677D01*
X67480388Y-40361619D01*
X67500893Y-40192747D01*
X67490941Y-40110789D01*
X67480388Y-40023875D01*
X67420068Y-39864821D01*
X67420066Y-39864817D01*
X67323431Y-39724818D01*
X67323429Y-39724816D01*
X67196105Y-39612017D01*
X67196099Y-39612012D01*
X67045473Y-39532957D01*
X67045469Y-39532955D01*
X66880307Y-39492247D01*
X66880304Y-39492247D01*
X66710192Y-39492247D01*
X66710188Y-39492247D01*
X66545026Y-39532955D01*
X66545022Y-39532957D01*
X66394395Y-39612013D01*
X66373032Y-39630939D01*
X66308778Y-39661138D01*
X66238398Y-39651804D01*
X66230925Y-39648191D01*
X66077887Y-39567869D01*
X66077882Y-39567867D01*
X65912720Y-39527159D01*
X65912717Y-39527159D01*
X65742605Y-39527159D01*
X65742601Y-39527159D01*
X65577439Y-39567867D01*
X65577434Y-39567870D01*
X65504611Y-39606090D01*
X65434998Y-39620036D01*
X65368896Y-39594132D01*
X65362504Y-39588835D01*
X65292885Y-39527159D01*
X65277208Y-39513270D01*
X65277207Y-39513269D01*
X65126581Y-39434214D01*
X65126577Y-39434212D01*
X64961415Y-39393504D01*
X64961412Y-39393504D01*
X64791300Y-39393504D01*
X64791296Y-39393504D01*
X64626134Y-39434212D01*
X64626130Y-39434214D01*
X64475504Y-39513269D01*
X64475498Y-39513274D01*
X64348174Y-39626073D01*
X64348172Y-39626075D01*
X64251537Y-39766074D01*
X64251535Y-39766078D01*
X64191215Y-39925132D01*
X64170711Y-40094001D01*
X64170711Y-40094006D01*
X55750000Y-40094006D01*
X55750000Y-38052189D01*
X55770002Y-37984069D01*
X55786905Y-37963095D01*
X56213095Y-37536905D01*
X56275407Y-37502879D01*
X56302190Y-37500000D01*
X63182486Y-37500000D01*
X63250607Y-37520002D01*
G37*
%TD.AperFunction*%
%TA.AperFunction,Conductor*%
G36*
X84657894Y-16820002D02*
G01*
X84693468Y-16854423D01*
X84771814Y-16967926D01*
X84771817Y-16967929D01*
X84899148Y-17080734D01*
X85049775Y-17159790D01*
X85049776Y-17159790D01*
X85049778Y-17159791D01*
X85206461Y-17198409D01*
X85214944Y-17200500D01*
X85214947Y-17200500D01*
X85385053Y-17200500D01*
X85385056Y-17200500D01*
X85550225Y-17159790D01*
X85700852Y-17080734D01*
X85828183Y-16967929D01*
X85896558Y-16868872D01*
X85906532Y-16854423D01*
X85961690Y-16809724D01*
X86010227Y-16800000D01*
X90947810Y-16800000D01*
X91015931Y-16820002D01*
X91036899Y-16836899D01*
X91463097Y-17263097D01*
X91497120Y-17325406D01*
X91500000Y-17352189D01*
X91500000Y-36000000D01*
X91999996Y-35998181D01*
X91999997Y-35998182D01*
X111899580Y-35925819D01*
X115678901Y-35912076D01*
X115747093Y-35931830D01*
X115765762Y-35947769D01*
X115766112Y-35947375D01*
X115771817Y-35952429D01*
X115899148Y-36065234D01*
X115899150Y-36065235D01*
X115901848Y-36067625D01*
X115939574Y-36127769D01*
X115938794Y-36198761D01*
X115936108Y-36206614D01*
X115930360Y-36221771D01*
X115930359Y-36221774D01*
X115909855Y-36390643D01*
X115909855Y-36390648D01*
X115930359Y-36559517D01*
X115990679Y-36718571D01*
X115990681Y-36718575D01*
X116005222Y-36739640D01*
X116087317Y-36858575D01*
X116214648Y-36971380D01*
X116365275Y-37050436D01*
X116365276Y-37050436D01*
X116365278Y-37050437D01*
X116450383Y-37071413D01*
X116530444Y-37091146D01*
X116530447Y-37091146D01*
X116700553Y-37091146D01*
X116700556Y-37091146D01*
X116865725Y-37050436D01*
X117016352Y-36971380D01*
X117143683Y-36858575D01*
X117240318Y-36718576D01*
X117247553Y-36699500D01*
X117284886Y-36601058D01*
X117300640Y-36559518D01*
X117316935Y-36425317D01*
X117321145Y-36390648D01*
X117321145Y-36390643D01*
X117300640Y-36221774D01*
X117258303Y-36110139D01*
X117245594Y-36076630D01*
X117240141Y-36005844D01*
X117273824Y-35943346D01*
X117335948Y-35908979D01*
X117362942Y-35905952D01*
X118447678Y-35902008D01*
X118515871Y-35921762D01*
X118537069Y-35938750D01*
X118604408Y-36005844D01*
X118962933Y-36363068D01*
X118997072Y-36425317D01*
X119000000Y-36452324D01*
X119000000Y-52216298D01*
X118979998Y-52284419D01*
X118926342Y-52330912D01*
X118856068Y-52341016D01*
X118843847Y-52338637D01*
X118685059Y-52299500D01*
X118685056Y-52299500D01*
X118514944Y-52299500D01*
X118514940Y-52299500D01*
X118349778Y-52340208D01*
X118349774Y-52340210D01*
X118199148Y-52419265D01*
X118199142Y-52419270D01*
X118071818Y-52532069D01*
X118071816Y-52532071D01*
X117975181Y-52672070D01*
X117975179Y-52672074D01*
X117914859Y-52831128D01*
X117894355Y-52999997D01*
X117894355Y-53000002D01*
X117914859Y-53168871D01*
X117975179Y-53327925D01*
X117975181Y-53327929D01*
X117975182Y-53327930D01*
X118071817Y-53467929D01*
X118199148Y-53580734D01*
X118349775Y-53659790D01*
X118349776Y-53659790D01*
X118349778Y-53659791D01*
X118506461Y-53698409D01*
X118514944Y-53700500D01*
X118514947Y-53700500D01*
X118685053Y-53700500D01*
X118685056Y-53700500D01*
X118843847Y-53661362D01*
X118914775Y-53664481D01*
X118972757Y-53705451D01*
X118999385Y-53771265D01*
X119000000Y-53783701D01*
X118999999Y-54813827D01*
X118979997Y-54881948D01*
X118926341Y-54928441D01*
X118856067Y-54938544D01*
X118791486Y-54909051D01*
X118790528Y-54908212D01*
X118700852Y-54828766D01*
X118700851Y-54828765D01*
X118550225Y-54749710D01*
X118550221Y-54749708D01*
X118385059Y-54709000D01*
X118385056Y-54709000D01*
X118214944Y-54709000D01*
X118214940Y-54709000D01*
X118049778Y-54749708D01*
X118049774Y-54749710D01*
X117899148Y-54828765D01*
X117899142Y-54828770D01*
X117771818Y-54941569D01*
X117771816Y-54941571D01*
X117675181Y-55081570D01*
X117675179Y-55081574D01*
X117614859Y-55240628D01*
X117594355Y-55409497D01*
X117594355Y-55409502D01*
X117614859Y-55578371D01*
X117675179Y-55737425D01*
X117675181Y-55737429D01*
X117771816Y-55877428D01*
X117771818Y-55877430D01*
X117854974Y-55951100D01*
X117899148Y-55990234D01*
X118049775Y-56069290D01*
X118049776Y-56069290D01*
X118049778Y-56069291D01*
X118097804Y-56081128D01*
X118214944Y-56110000D01*
X118214947Y-56110000D01*
X118385053Y-56110000D01*
X118385056Y-56110000D01*
X118550225Y-56069290D01*
X118700852Y-55990234D01*
X118790448Y-55910858D01*
X118854699Y-55880659D01*
X118925080Y-55889990D01*
X118979243Y-55935891D01*
X118999992Y-56003788D01*
X119000000Y-56005172D01*
X119000000Y-59447810D01*
X118979998Y-59515931D01*
X118963095Y-59536905D01*
X118536905Y-59963095D01*
X118474593Y-59997121D01*
X118447810Y-60000000D01*
X112232101Y-60000000D01*
X112171813Y-59984641D01*
X111457123Y-59595210D01*
X111411534Y-59552877D01*
X110022583Y-57400002D01*
X112194355Y-57400002D01*
X112214859Y-57568871D01*
X112275179Y-57727925D01*
X112275181Y-57727929D01*
X112371816Y-57867928D01*
X112371818Y-57867930D01*
X112485758Y-57968872D01*
X112499148Y-57980734D01*
X112649775Y-58059790D01*
X112649776Y-58059790D01*
X112649778Y-58059791D01*
X112764598Y-58088091D01*
X112814944Y-58100500D01*
X112814947Y-58100500D01*
X112985053Y-58100500D01*
X112985056Y-58100500D01*
X113150225Y-58059790D01*
X113300852Y-57980734D01*
X113428183Y-57867929D01*
X113475070Y-57800002D01*
X116894355Y-57800002D01*
X116914859Y-57968871D01*
X116975179Y-58127925D01*
X116975181Y-58127929D01*
X117071816Y-58267928D01*
X117071818Y-58267930D01*
X117185758Y-58368872D01*
X117199148Y-58380734D01*
X117349775Y-58459790D01*
X117349776Y-58459790D01*
X117349778Y-58459791D01*
X117400441Y-58472278D01*
X117514944Y-58500500D01*
X117514947Y-58500500D01*
X117685053Y-58500500D01*
X117685056Y-58500500D01*
X117850225Y-58459790D01*
X118000852Y-58380734D01*
X118128183Y-58267929D01*
X118224818Y-58127930D01*
X118285140Y-57968872D01*
X118300763Y-57840210D01*
X118305645Y-57800002D01*
X118305645Y-57799997D01*
X118285140Y-57631128D01*
X118224820Y-57472074D01*
X118224818Y-57472070D01*
X118128183Y-57332071D01*
X118128181Y-57332069D01*
X118000857Y-57219270D01*
X118000851Y-57219265D01*
X117850225Y-57140210D01*
X117850221Y-57140208D01*
X117685059Y-57099500D01*
X117685056Y-57099500D01*
X117514944Y-57099500D01*
X117514940Y-57099500D01*
X117349778Y-57140208D01*
X117349774Y-57140210D01*
X117199148Y-57219265D01*
X117199142Y-57219270D01*
X117071818Y-57332069D01*
X117071816Y-57332071D01*
X116975181Y-57472070D01*
X116975179Y-57472074D01*
X116914859Y-57631128D01*
X116894355Y-57799997D01*
X116894355Y-57800002D01*
X113475070Y-57800002D01*
X113524818Y-57727930D01*
X113585140Y-57568872D01*
X113600763Y-57440210D01*
X113605645Y-57400002D01*
X113605645Y-57399997D01*
X113585140Y-57231128D01*
X113524820Y-57072074D01*
X113524818Y-57072070D01*
X113428183Y-56932071D01*
X113428181Y-56932069D01*
X113300857Y-56819270D01*
X113300851Y-56819265D01*
X113150225Y-56740210D01*
X113150221Y-56740208D01*
X112985059Y-56699500D01*
X112985056Y-56699500D01*
X112814944Y-56699500D01*
X112814940Y-56699500D01*
X112649778Y-56740208D01*
X112649774Y-56740210D01*
X112499148Y-56819265D01*
X112499142Y-56819270D01*
X112371818Y-56932069D01*
X112371816Y-56932071D01*
X112275181Y-57072070D01*
X112275179Y-57072074D01*
X112214859Y-57231128D01*
X112194355Y-57399997D01*
X112194355Y-57400002D01*
X110022583Y-57400002D01*
X109971064Y-57320148D01*
X109971062Y-57320147D01*
X109700000Y-56900000D01*
X109200000Y-56900000D01*
X109199999Y-56900000D01*
X108411443Y-56900000D01*
X108343322Y-56879998D01*
X108296829Y-56826342D01*
X108286362Y-56758812D01*
X108305645Y-56600002D01*
X108305645Y-56599997D01*
X108285140Y-56431128D01*
X108224820Y-56272074D01*
X108224818Y-56272070D01*
X108128183Y-56132071D01*
X108128181Y-56132069D01*
X108000857Y-56019270D01*
X108000851Y-56019265D01*
X107850225Y-55940210D01*
X107850221Y-55940208D01*
X107685059Y-55899500D01*
X107685056Y-55899500D01*
X107514944Y-55899500D01*
X107514940Y-55899500D01*
X107349778Y-55940208D01*
X107349774Y-55940210D01*
X107199148Y-56019265D01*
X107199142Y-56019270D01*
X107071818Y-56132069D01*
X107071816Y-56132071D01*
X106975181Y-56272070D01*
X106975179Y-56272074D01*
X106914859Y-56431128D01*
X106894355Y-56599997D01*
X106894355Y-56600002D01*
X106913638Y-56758812D01*
X106901993Y-56828847D01*
X106854333Y-56881469D01*
X106788557Y-56900000D01*
X86811443Y-56900000D01*
X86743322Y-56879998D01*
X86696829Y-56826342D01*
X86686362Y-56758812D01*
X86705645Y-56600002D01*
X86705645Y-56599997D01*
X86685140Y-56431128D01*
X86624820Y-56272074D01*
X86624818Y-56272070D01*
X86528183Y-56132071D01*
X86528181Y-56132069D01*
X86400857Y-56019270D01*
X86400851Y-56019265D01*
X86250225Y-55940210D01*
X86250221Y-55940208D01*
X86085059Y-55899500D01*
X86085056Y-55899500D01*
X85914944Y-55899500D01*
X85914940Y-55899500D01*
X85749778Y-55940208D01*
X85749774Y-55940210D01*
X85599148Y-56019265D01*
X85599142Y-56019270D01*
X85471818Y-56132069D01*
X85471816Y-56132071D01*
X85375181Y-56272070D01*
X85375179Y-56272074D01*
X85314859Y-56431128D01*
X85294355Y-56599997D01*
X85294355Y-56600002D01*
X85313638Y-56758812D01*
X85301993Y-56828847D01*
X85254333Y-56881469D01*
X85188557Y-56900000D01*
X78595200Y-56900000D01*
X78536645Y-56885567D01*
X78450225Y-56840210D01*
X78450221Y-56840208D01*
X78285059Y-56799500D01*
X78285056Y-56799500D01*
X78114944Y-56799500D01*
X78114940Y-56799500D01*
X77949778Y-56840208D01*
X77949774Y-56840210D01*
X77906172Y-56863095D01*
X77863354Y-56885567D01*
X77804800Y-56900000D01*
X77152190Y-56900000D01*
X77084069Y-56879998D01*
X77063095Y-56863095D01*
X76636905Y-56436905D01*
X76602879Y-56374593D01*
X76600000Y-56347810D01*
X76600000Y-55451500D01*
X76620002Y-55383379D01*
X76673658Y-55336886D01*
X76726000Y-55325500D01*
X76854859Y-55325500D01*
X76854862Y-55325500D01*
X77020031Y-55284790D01*
X77170658Y-55205734D01*
X77297989Y-55092929D01*
X77378999Y-54975566D01*
X114065846Y-54975566D01*
X114086350Y-55144435D01*
X114146670Y-55303489D01*
X114146672Y-55303493D01*
X114243307Y-55443492D01*
X114243309Y-55443494D01*
X114362965Y-55549500D01*
X114370639Y-55556298D01*
X114521266Y-55635354D01*
X114521267Y-55635354D01*
X114521269Y-55635355D01*
X114658854Y-55669266D01*
X114686435Y-55676064D01*
X114686438Y-55676064D01*
X114856544Y-55676064D01*
X114856547Y-55676064D01*
X115021716Y-55635354D01*
X115172343Y-55556298D01*
X115299674Y-55443493D01*
X115396309Y-55303494D01*
X115456631Y-55144436D01*
X115477136Y-54975564D01*
X115473008Y-54941571D01*
X115456631Y-54806692D01*
X115396311Y-54647638D01*
X115396309Y-54647634D01*
X115299674Y-54507635D01*
X115299672Y-54507633D01*
X115172348Y-54394834D01*
X115172342Y-54394829D01*
X115021716Y-54315774D01*
X115021712Y-54315772D01*
X114856550Y-54275064D01*
X114856547Y-54275064D01*
X114686435Y-54275064D01*
X114686431Y-54275064D01*
X114521269Y-54315772D01*
X114521265Y-54315774D01*
X114370639Y-54394829D01*
X114370633Y-54394834D01*
X114243309Y-54507633D01*
X114243307Y-54507635D01*
X114146672Y-54647634D01*
X114146670Y-54647638D01*
X114086350Y-54806692D01*
X114065846Y-54975561D01*
X114065846Y-54975566D01*
X77378999Y-54975566D01*
X77394624Y-54952930D01*
X77454946Y-54793872D01*
X77463276Y-54725266D01*
X77475451Y-54625002D01*
X77475451Y-54624997D01*
X77454946Y-54456128D01*
X77394626Y-54297074D01*
X77394624Y-54297070D01*
X77297989Y-54157071D01*
X77297987Y-54157069D01*
X77170663Y-54044270D01*
X77170657Y-54044265D01*
X77020031Y-53965210D01*
X77020027Y-53965208D01*
X76854865Y-53924500D01*
X76854862Y-53924500D01*
X76726000Y-53924500D01*
X76657879Y-53904498D01*
X76611386Y-53850842D01*
X76600000Y-53798500D01*
X76600000Y-52400002D01*
X114794355Y-52400002D01*
X114814859Y-52568871D01*
X114875179Y-52727925D01*
X114875181Y-52727929D01*
X114931670Y-52809766D01*
X114971817Y-52867929D01*
X115099148Y-52980734D01*
X115249775Y-53059790D01*
X115249776Y-53059790D01*
X115249778Y-53059791D01*
X115406461Y-53098409D01*
X115414944Y-53100500D01*
X115414947Y-53100500D01*
X115585053Y-53100500D01*
X115585056Y-53100500D01*
X115750225Y-53059790D01*
X115900852Y-52980734D01*
X116028183Y-52867929D01*
X116124818Y-52727930D01*
X116185140Y-52568872D01*
X116205645Y-52400000D01*
X116185140Y-52231128D01*
X116124818Y-52072070D01*
X116028183Y-51932071D01*
X115900852Y-51819266D01*
X115900851Y-51819265D01*
X115750225Y-51740210D01*
X115750221Y-51740208D01*
X115585059Y-51699500D01*
X115585056Y-51699500D01*
X115414944Y-51699500D01*
X115414940Y-51699500D01*
X115249778Y-51740208D01*
X115249774Y-51740210D01*
X115099148Y-51819265D01*
X115099142Y-51819270D01*
X114971818Y-51932069D01*
X114971816Y-51932071D01*
X114875181Y-52072070D01*
X114875179Y-52072074D01*
X114814859Y-52231128D01*
X114794355Y-52399997D01*
X114794355Y-52400002D01*
X76600000Y-52400002D01*
X76600000Y-50903148D01*
X76620002Y-50835027D01*
X76622307Y-50831568D01*
X76624817Y-50827931D01*
X76624816Y-50827931D01*
X76624818Y-50827930D01*
X76685140Y-50668872D01*
X76700419Y-50543037D01*
X76728485Y-50477825D01*
X76787354Y-50438138D01*
X76855652Y-50435886D01*
X76914944Y-50450500D01*
X76914947Y-50450500D01*
X77085053Y-50450500D01*
X77085056Y-50450500D01*
X77250225Y-50409790D01*
X77400852Y-50330734D01*
X77435541Y-50300002D01*
X90394355Y-50300002D01*
X90414859Y-50468871D01*
X90475179Y-50627925D01*
X90475181Y-50627929D01*
X90571816Y-50767928D01*
X90571818Y-50767930D01*
X90639545Y-50827931D01*
X90699148Y-50880734D01*
X90849775Y-50959790D01*
X90849776Y-50959790D01*
X90849778Y-50959791D01*
X90934749Y-50980734D01*
X91014944Y-51000500D01*
X91014947Y-51000500D01*
X91185053Y-51000500D01*
X91185056Y-51000500D01*
X91350225Y-50959790D01*
X91500852Y-50880734D01*
X91628183Y-50767929D01*
X91724818Y-50627930D01*
X91785140Y-50468872D01*
X91793502Y-50400002D01*
X94994355Y-50400002D01*
X95014859Y-50568871D01*
X95075179Y-50727925D01*
X95075181Y-50727929D01*
X95171816Y-50867928D01*
X95171818Y-50867930D01*
X95236093Y-50924873D01*
X95299148Y-50980734D01*
X95449775Y-51059790D01*
X95449776Y-51059790D01*
X95449778Y-51059791D01*
X95534749Y-51080734D01*
X95614944Y-51100500D01*
X95614947Y-51100500D01*
X95785053Y-51100500D01*
X95785056Y-51100500D01*
X95950225Y-51059790D01*
X96100852Y-50980734D01*
X96228183Y-50867929D01*
X96324818Y-50727930D01*
X96385140Y-50568872D01*
X96397282Y-50468872D01*
X96405645Y-50400002D01*
X99994355Y-50400002D01*
X100014859Y-50568871D01*
X100075179Y-50727925D01*
X100075181Y-50727929D01*
X100171816Y-50867928D01*
X100171818Y-50867930D01*
X100236093Y-50924873D01*
X100299148Y-50980734D01*
X100449775Y-51059790D01*
X100449776Y-51059790D01*
X100449778Y-51059791D01*
X100534749Y-51080734D01*
X100614944Y-51100500D01*
X100614947Y-51100500D01*
X100785053Y-51100500D01*
X100785056Y-51100500D01*
X100950225Y-51059790D01*
X101100852Y-50980734D01*
X101228183Y-50867929D01*
X101324818Y-50727930D01*
X101385140Y-50568872D01*
X101397282Y-50468872D01*
X101405645Y-50400002D01*
X101405645Y-50399997D01*
X101385140Y-50231128D01*
X101324820Y-50072074D01*
X101324818Y-50072070D01*
X101228183Y-49932071D01*
X101228181Y-49932069D01*
X101100857Y-49819270D01*
X101100851Y-49819265D01*
X100950225Y-49740210D01*
X100950221Y-49740208D01*
X100785059Y-49699500D01*
X100785056Y-49699500D01*
X100614944Y-49699500D01*
X100614940Y-49699500D01*
X100449778Y-49740208D01*
X100449774Y-49740210D01*
X100299148Y-49819265D01*
X100299142Y-49819270D01*
X100171818Y-49932069D01*
X100171816Y-49932071D01*
X100075181Y-50072070D01*
X100075179Y-50072074D01*
X100014859Y-50231128D01*
X99994355Y-50399997D01*
X99994355Y-50400002D01*
X96405645Y-50400002D01*
X96405645Y-50399997D01*
X96385140Y-50231128D01*
X96324820Y-50072074D01*
X96324818Y-50072070D01*
X96228183Y-49932071D01*
X96228181Y-49932069D01*
X96100857Y-49819270D01*
X96100851Y-49819265D01*
X95950225Y-49740210D01*
X95950221Y-49740208D01*
X95785059Y-49699500D01*
X95785056Y-49699500D01*
X95614944Y-49699500D01*
X95614940Y-49699500D01*
X95449778Y-49740208D01*
X95449774Y-49740210D01*
X95299148Y-49819265D01*
X95299142Y-49819270D01*
X95171818Y-49932069D01*
X95171816Y-49932071D01*
X95075181Y-50072070D01*
X95075179Y-50072074D01*
X95014859Y-50231128D01*
X94994355Y-50399997D01*
X94994355Y-50400002D01*
X91793502Y-50400002D01*
X91796063Y-50378911D01*
X91805645Y-50300002D01*
X91805645Y-50299997D01*
X91785140Y-50131128D01*
X91724820Y-49972074D01*
X91724818Y-49972070D01*
X91628183Y-49832071D01*
X91628181Y-49832069D01*
X91500857Y-49719270D01*
X91500851Y-49719265D01*
X91350225Y-49640210D01*
X91350221Y-49640208D01*
X91185059Y-49599500D01*
X91185056Y-49599500D01*
X91014944Y-49599500D01*
X91014940Y-49599500D01*
X90849778Y-49640208D01*
X90849774Y-49640210D01*
X90699148Y-49719265D01*
X90699142Y-49719270D01*
X90571818Y-49832069D01*
X90571816Y-49832071D01*
X90475181Y-49972070D01*
X90475179Y-49972074D01*
X90414859Y-50131128D01*
X90394355Y-50299997D01*
X90394355Y-50300002D01*
X77435541Y-50300002D01*
X77528183Y-50217929D01*
X77624818Y-50077930D01*
X77685140Y-49918872D01*
X77697234Y-49819270D01*
X77705645Y-49750002D01*
X77705645Y-49749997D01*
X77685140Y-49581128D01*
X77624820Y-49422074D01*
X77624818Y-49422070D01*
X77528183Y-49282071D01*
X77528181Y-49282069D01*
X77400857Y-49169270D01*
X77400851Y-49169265D01*
X77250225Y-49090210D01*
X77250221Y-49090208D01*
X77085059Y-49049500D01*
X77085056Y-49049500D01*
X76914944Y-49049500D01*
X76914941Y-49049500D01*
X76914938Y-49049501D01*
X76838368Y-49068373D01*
X76767440Y-49065254D01*
X76709458Y-49024283D01*
X76682831Y-48958469D01*
X76685116Y-48926546D01*
X76684222Y-48926438D01*
X76705645Y-48750002D01*
X76705645Y-48749997D01*
X76685140Y-48581128D01*
X76677047Y-48559789D01*
X76624818Y-48422070D01*
X76622611Y-48418872D01*
X76622305Y-48418428D01*
X76621285Y-48415337D01*
X76621276Y-48415319D01*
X76621279Y-48415317D01*
X76600068Y-48351004D01*
X76600000Y-48346851D01*
X76600000Y-47900002D01*
X89994355Y-47900002D01*
X90014859Y-48068871D01*
X90075179Y-48227925D01*
X90075181Y-48227929D01*
X90171816Y-48367928D01*
X90171818Y-48367930D01*
X90289433Y-48472128D01*
X90299148Y-48480734D01*
X90449775Y-48559790D01*
X90449776Y-48559790D01*
X90449778Y-48559791D01*
X90606461Y-48598409D01*
X90614944Y-48600500D01*
X90614947Y-48600500D01*
X90785053Y-48600500D01*
X90785056Y-48600500D01*
X90919142Y-48567451D01*
X90990066Y-48570570D01*
X91048049Y-48611539D01*
X91052981Y-48618203D01*
X91121817Y-48717929D01*
X91121818Y-48717930D01*
X91121819Y-48717931D01*
X91225599Y-48809872D01*
X91249148Y-48830734D01*
X91399775Y-48909790D01*
X91399776Y-48909790D01*
X91399778Y-48909791D01*
X91556461Y-48948409D01*
X91564944Y-48950500D01*
X91564947Y-48950500D01*
X91735053Y-48950500D01*
X91735056Y-48950500D01*
X91900225Y-48909790D01*
X92050852Y-48830734D01*
X92178183Y-48717929D01*
X92274818Y-48577930D01*
X92335140Y-48418872D01*
X92347234Y-48319270D01*
X92355645Y-48250002D01*
X92355645Y-48249997D01*
X92353449Y-48231912D01*
X101687329Y-48231912D01*
X101707833Y-48400781D01*
X101768153Y-48559835D01*
X101768155Y-48559839D01*
X101869121Y-48706112D01*
X101867051Y-48707540D01*
X101892097Y-48760824D01*
X101882766Y-48831205D01*
X101871282Y-48851698D01*
X101866649Y-48858409D01*
X101866644Y-48858419D01*
X101806324Y-49017472D01*
X101785820Y-49186341D01*
X101785820Y-49186346D01*
X101806324Y-49355215D01*
X101866644Y-49514269D01*
X101866646Y-49514273D01*
X101963281Y-49654272D01*
X101963283Y-49654274D01*
X102036648Y-49719270D01*
X102090613Y-49767078D01*
X102214445Y-49832071D01*
X102231727Y-49841141D01*
X102282749Y-49890509D01*
X102298981Y-49959626D01*
X102298253Y-49967893D01*
X102296694Y-49980734D01*
X102294356Y-49999997D01*
X102294355Y-50000002D01*
X102314859Y-50168871D01*
X102375179Y-50327925D01*
X102375181Y-50327929D01*
X102471816Y-50467928D01*
X102471818Y-50467930D01*
X102585758Y-50568872D01*
X102599148Y-50580734D01*
X102749775Y-50659790D01*
X102749776Y-50659790D01*
X102749778Y-50659791D01*
X102906461Y-50698409D01*
X102914944Y-50700500D01*
X102914947Y-50700500D01*
X103085053Y-50700500D01*
X103085056Y-50700500D01*
X103250225Y-50659790D01*
X103400852Y-50580734D01*
X103528183Y-50467929D01*
X103624818Y-50327930D01*
X103685140Y-50168872D01*
X103693442Y-50100500D01*
X103705645Y-50000002D01*
X103705645Y-49999997D01*
X103685140Y-49831128D01*
X103624820Y-49672074D01*
X103624818Y-49672070D01*
X103528183Y-49532071D01*
X103528181Y-49532069D01*
X103400857Y-49419270D01*
X103400851Y-49419265D01*
X103259736Y-49345202D01*
X103208714Y-49295834D01*
X103192482Y-49226718D01*
X103193207Y-49218482D01*
X103197110Y-49186344D01*
X103176605Y-49017472D01*
X103157816Y-48967929D01*
X103132055Y-48900002D01*
X115494355Y-48900002D01*
X115514859Y-49068871D01*
X115575179Y-49227925D01*
X115575181Y-49227929D01*
X115671816Y-49367928D01*
X115671818Y-49367930D01*
X115765020Y-49450500D01*
X115799148Y-49480734D01*
X115949775Y-49559790D01*
X115949776Y-49559790D01*
X115949778Y-49559791D01*
X116106461Y-49598409D01*
X116114944Y-49600500D01*
X116114947Y-49600500D01*
X116285053Y-49600500D01*
X116285056Y-49600500D01*
X116450225Y-49559790D01*
X116600852Y-49480734D01*
X116728183Y-49367929D01*
X116824818Y-49227930D01*
X116885140Y-49068872D01*
X116897397Y-48967929D01*
X116905645Y-48900002D01*
X116905645Y-48899997D01*
X116885140Y-48731128D01*
X116824820Y-48572074D01*
X116824818Y-48572070D01*
X116728183Y-48432071D01*
X116728181Y-48432069D01*
X116600857Y-48319270D01*
X116600851Y-48319265D01*
X116450225Y-48240210D01*
X116450221Y-48240208D01*
X116285059Y-48199500D01*
X116285056Y-48199500D01*
X116114944Y-48199500D01*
X116114940Y-48199500D01*
X115949778Y-48240208D01*
X115949774Y-48240210D01*
X115799148Y-48319265D01*
X115799142Y-48319270D01*
X115671818Y-48432069D01*
X115671816Y-48432071D01*
X115575181Y-48572070D01*
X115575179Y-48572074D01*
X115514859Y-48731128D01*
X115494355Y-48899997D01*
X115494355Y-48900002D01*
X103132055Y-48900002D01*
X103116285Y-48858418D01*
X103116283Y-48858414D01*
X103015318Y-48712142D01*
X103017387Y-48710713D01*
X102992342Y-48657432D01*
X103001671Y-48587051D01*
X103013157Y-48566553D01*
X103017792Y-48559840D01*
X103078114Y-48400782D01*
X103086572Y-48331128D01*
X103098619Y-48231912D01*
X103098619Y-48231907D01*
X103078114Y-48063038D01*
X103017794Y-47903984D01*
X103017792Y-47903980D01*
X102921157Y-47763981D01*
X102921155Y-47763979D01*
X102793831Y-47651180D01*
X102793825Y-47651175D01*
X102643199Y-47572120D01*
X102643195Y-47572118D01*
X102478033Y-47531410D01*
X102478030Y-47531410D01*
X102307918Y-47531410D01*
X102307914Y-47531410D01*
X102142752Y-47572118D01*
X102142748Y-47572120D01*
X101992122Y-47651175D01*
X101992116Y-47651180D01*
X101864792Y-47763979D01*
X101864790Y-47763981D01*
X101768155Y-47903980D01*
X101768153Y-47903984D01*
X101707833Y-48063038D01*
X101687329Y-48231907D01*
X101687329Y-48231912D01*
X92353449Y-48231912D01*
X92335140Y-48081128D01*
X92274820Y-47922074D01*
X92274818Y-47922070D01*
X92178183Y-47782071D01*
X92178181Y-47782069D01*
X92050857Y-47669270D01*
X92050851Y-47669265D01*
X91900225Y-47590210D01*
X91900221Y-47590208D01*
X91735059Y-47549500D01*
X91735056Y-47549500D01*
X91564944Y-47549500D01*
X91564940Y-47549500D01*
X91430860Y-47582548D01*
X91359932Y-47579429D01*
X91301950Y-47538459D01*
X91297011Y-47531785D01*
X91283699Y-47512500D01*
X91228183Y-47432071D01*
X91228181Y-47432069D01*
X91100857Y-47319270D01*
X91100851Y-47319265D01*
X90950225Y-47240210D01*
X90950221Y-47240208D01*
X90785059Y-47199500D01*
X90785056Y-47199500D01*
X90614944Y-47199500D01*
X90614940Y-47199500D01*
X90449778Y-47240208D01*
X90449774Y-47240210D01*
X90299148Y-47319265D01*
X90299142Y-47319270D01*
X90171818Y-47432069D01*
X90171816Y-47432071D01*
X90075181Y-47572070D01*
X90075179Y-47572074D01*
X90014859Y-47731128D01*
X89994355Y-47899997D01*
X89994355Y-47900002D01*
X76600000Y-47900002D01*
X76600000Y-46903148D01*
X76620002Y-46835027D01*
X76622307Y-46831568D01*
X76624817Y-46827931D01*
X76624816Y-46827931D01*
X76624818Y-46827930D01*
X76685140Y-46668872D01*
X76695794Y-46581128D01*
X76705645Y-46500002D01*
X76705645Y-46499997D01*
X76685140Y-46331128D01*
X76657926Y-46259371D01*
X76624818Y-46172070D01*
X76624817Y-46172068D01*
X76622305Y-46168428D01*
X76621285Y-46165337D01*
X76621276Y-46165319D01*
X76621279Y-46165317D01*
X76600068Y-46101004D01*
X76600000Y-46096851D01*
X76600000Y-45750002D01*
X79794355Y-45750002D01*
X79814859Y-45918871D01*
X79875179Y-46077925D01*
X79875181Y-46077929D01*
X79964548Y-46207398D01*
X79986784Y-46274822D01*
X79969037Y-46343565D01*
X79964549Y-46350549D01*
X79915180Y-46422072D01*
X79915179Y-46422074D01*
X79854859Y-46581128D01*
X79834355Y-46749997D01*
X79834355Y-46750002D01*
X79854859Y-46918871D01*
X79915179Y-47077925D01*
X79915181Y-47077929D01*
X80011816Y-47217928D01*
X80011818Y-47217930D01*
X80126207Y-47319270D01*
X80139148Y-47330734D01*
X80289775Y-47409790D01*
X80289776Y-47409790D01*
X80289778Y-47409791D01*
X80446461Y-47448409D01*
X80454944Y-47450500D01*
X80454947Y-47450500D01*
X80625053Y-47450500D01*
X80625056Y-47450500D01*
X80790225Y-47409790D01*
X80940852Y-47330734D01*
X81068183Y-47217929D01*
X81164818Y-47077930D01*
X81225140Y-46918872D01*
X81227431Y-46900002D01*
X95394355Y-46900002D01*
X95414859Y-47068871D01*
X95475179Y-47227925D01*
X95475181Y-47227929D01*
X95571816Y-47367928D01*
X95571818Y-47367930D01*
X95665020Y-47450500D01*
X95699148Y-47480734D01*
X95849775Y-47559790D01*
X95849776Y-47559790D01*
X95849778Y-47559791D01*
X95942109Y-47582548D01*
X96014944Y-47600500D01*
X96014947Y-47600500D01*
X96185053Y-47600500D01*
X96185056Y-47600500D01*
X96350225Y-47559790D01*
X96500852Y-47480734D01*
X96628183Y-47367929D01*
X96724818Y-47227930D01*
X96728611Y-47217930D01*
X96754475Y-47149729D01*
X96785140Y-47068872D01*
X96797282Y-46968872D01*
X96805645Y-46900002D01*
X96805645Y-46899997D01*
X96785140Y-46731128D01*
X96724820Y-46572074D01*
X96724818Y-46572070D01*
X96628183Y-46432071D01*
X96628181Y-46432069D01*
X96500857Y-46319270D01*
X96500851Y-46319265D01*
X96350225Y-46240210D01*
X96350221Y-46240208D01*
X96185059Y-46199500D01*
X96185056Y-46199500D01*
X96014944Y-46199500D01*
X96014940Y-46199500D01*
X95849778Y-46240208D01*
X95849774Y-46240210D01*
X95699148Y-46319265D01*
X95699142Y-46319270D01*
X95571818Y-46432069D01*
X95571816Y-46432071D01*
X95475181Y-46572070D01*
X95475179Y-46572074D01*
X95414859Y-46731128D01*
X95394355Y-46899997D01*
X95394355Y-46900002D01*
X81227431Y-46900002D01*
X81236182Y-46827931D01*
X81245645Y-46750002D01*
X81245645Y-46749997D01*
X81225140Y-46581128D01*
X81164820Y-46422074D01*
X81164818Y-46422072D01*
X81164818Y-46422070D01*
X81075450Y-46292599D01*
X81053215Y-46225177D01*
X81070962Y-46156434D01*
X81075452Y-46149448D01*
X81116140Y-46090502D01*
X82594355Y-46090502D01*
X82614859Y-46259371D01*
X82675179Y-46418425D01*
X82675181Y-46418429D01*
X82771816Y-46558428D01*
X82771818Y-46558430D01*
X82897951Y-46670174D01*
X82899148Y-46671234D01*
X83049775Y-46750290D01*
X83049776Y-46750290D01*
X83049778Y-46750291D01*
X83206461Y-46788909D01*
X83214944Y-46791000D01*
X83214947Y-46791000D01*
X83385053Y-46791000D01*
X83385056Y-46791000D01*
X83550225Y-46750290D01*
X83700852Y-46671234D01*
X83828183Y-46558429D01*
X83924818Y-46418430D01*
X83985140Y-46259372D01*
X83992410Y-46199500D01*
X84005645Y-46090502D01*
X84005645Y-46090497D01*
X83985140Y-45921628D01*
X83924820Y-45762574D01*
X83924818Y-45762570D01*
X83828183Y-45622571D01*
X83828181Y-45622569D01*
X83700857Y-45509770D01*
X83700851Y-45509765D01*
X83550225Y-45430710D01*
X83550221Y-45430708D01*
X83385059Y-45390000D01*
X83385056Y-45390000D01*
X83214944Y-45390000D01*
X83214940Y-45390000D01*
X83049778Y-45430708D01*
X83049774Y-45430710D01*
X82899148Y-45509765D01*
X82899142Y-45509770D01*
X82771818Y-45622569D01*
X82771816Y-45622571D01*
X82675181Y-45762570D01*
X82675179Y-45762574D01*
X82614859Y-45921628D01*
X82594355Y-46090497D01*
X82594355Y-46090502D01*
X81116140Y-46090502D01*
X81124818Y-46077930D01*
X81185140Y-45918872D01*
X81204119Y-45762570D01*
X81205645Y-45750002D01*
X81205645Y-45749997D01*
X81185140Y-45581128D01*
X81124820Y-45422074D01*
X81124818Y-45422070D01*
X81028183Y-45282071D01*
X81028181Y-45282069D01*
X80900857Y-45169270D01*
X80900851Y-45169265D01*
X80750225Y-45090210D01*
X80750221Y-45090208D01*
X80585059Y-45049500D01*
X80585056Y-45049500D01*
X80414944Y-45049500D01*
X80414940Y-45049500D01*
X80249778Y-45090208D01*
X80249774Y-45090210D01*
X80099148Y-45169265D01*
X80099142Y-45169270D01*
X79971818Y-45282069D01*
X79971816Y-45282071D01*
X79875181Y-45422070D01*
X79875179Y-45422074D01*
X79814859Y-45581128D01*
X79794355Y-45749997D01*
X79794355Y-45750002D01*
X76600000Y-45750002D01*
X76600000Y-44653148D01*
X76620002Y-44585027D01*
X76622307Y-44581568D01*
X76624817Y-44577931D01*
X76624816Y-44577931D01*
X76624818Y-44577930D01*
X76685140Y-44418872D01*
X76695350Y-44334789D01*
X76705645Y-44250002D01*
X76705645Y-44249997D01*
X76685140Y-44081128D01*
X76655482Y-44002925D01*
X76624818Y-43922070D01*
X76624817Y-43922068D01*
X76622305Y-43918428D01*
X76621285Y-43915337D01*
X76621276Y-43915319D01*
X76621279Y-43915317D01*
X76600068Y-43851004D01*
X76600000Y-43846851D01*
X76600000Y-43100002D01*
X78094355Y-43100002D01*
X78114859Y-43268871D01*
X78175179Y-43427925D01*
X78175181Y-43427929D01*
X78271816Y-43567928D01*
X78271818Y-43567930D01*
X78398373Y-43680048D01*
X78399148Y-43680734D01*
X78549775Y-43759790D01*
X78549776Y-43759790D01*
X78549778Y-43759791D01*
X78660983Y-43787200D01*
X78714944Y-43800500D01*
X78714947Y-43800500D01*
X78885053Y-43800500D01*
X78885056Y-43800500D01*
X79050225Y-43759790D01*
X79200852Y-43680734D01*
X79328183Y-43567929D01*
X79424818Y-43427930D01*
X79485140Y-43268872D01*
X79497282Y-43168872D01*
X79505645Y-43100002D01*
X79505645Y-43099997D01*
X79485140Y-42931128D01*
X79424820Y-42772074D01*
X79424818Y-42772070D01*
X79328183Y-42632071D01*
X79328181Y-42632069D01*
X79200857Y-42519270D01*
X79200851Y-42519265D01*
X79050225Y-42440210D01*
X79050221Y-42440208D01*
X78885059Y-42399500D01*
X78885056Y-42399500D01*
X78714944Y-42399500D01*
X78714940Y-42399500D01*
X78549778Y-42440208D01*
X78549774Y-42440210D01*
X78399148Y-42519265D01*
X78399142Y-42519270D01*
X78271818Y-42632069D01*
X78271816Y-42632071D01*
X78175181Y-42772070D01*
X78175179Y-42772074D01*
X78114859Y-42931128D01*
X78094355Y-43099997D01*
X78094355Y-43100002D01*
X76600000Y-43100002D01*
X76600000Y-42403148D01*
X76620002Y-42335027D01*
X76622307Y-42331568D01*
X76624817Y-42327931D01*
X76624816Y-42327931D01*
X76624818Y-42327930D01*
X76685140Y-42168872D01*
X76705645Y-42000000D01*
X76705053Y-41995128D01*
X76685140Y-41831128D01*
X76647848Y-41732795D01*
X76624818Y-41672070D01*
X76624817Y-41672068D01*
X76622305Y-41668428D01*
X76621285Y-41665337D01*
X76621276Y-41665319D01*
X76621279Y-41665317D01*
X76600068Y-41601004D01*
X76600000Y-41596851D01*
X76600000Y-40153148D01*
X76615605Y-40100002D01*
X80094355Y-40100002D01*
X80114859Y-40268871D01*
X80175179Y-40427925D01*
X80175181Y-40427929D01*
X80271816Y-40567928D01*
X80271818Y-40567930D01*
X80322443Y-40612780D01*
X80399148Y-40680734D01*
X80549775Y-40759790D01*
X80549776Y-40759790D01*
X80549778Y-40759791D01*
X80678928Y-40791623D01*
X80714944Y-40800500D01*
X80714947Y-40800500D01*
X80885053Y-40800500D01*
X80885056Y-40800500D01*
X81050225Y-40759790D01*
X81200852Y-40680734D01*
X81328183Y-40567929D01*
X81424818Y-40427930D01*
X81451735Y-40356954D01*
X83975325Y-40356954D01*
X83995829Y-40525823D01*
X84056149Y-40684877D01*
X84056151Y-40684881D01*
X84152786Y-40824880D01*
X84152788Y-40824882D01*
X84269105Y-40927930D01*
X84280118Y-40937686D01*
X84430745Y-41016742D01*
X84430746Y-41016742D01*
X84430748Y-41016743D01*
X84587431Y-41055361D01*
X84595914Y-41057452D01*
X84595917Y-41057452D01*
X84766023Y-41057452D01*
X84766026Y-41057452D01*
X84931195Y-41016742D01*
X85081822Y-40937686D01*
X85209153Y-40824881D01*
X85209154Y-40824880D01*
X85214858Y-40819827D01*
X85216636Y-40821835D01*
X85265989Y-40790861D01*
X85336982Y-40791623D01*
X85358741Y-40800562D01*
X85366510Y-40804640D01*
X85366512Y-40804640D01*
X85366513Y-40804641D01*
X85491346Y-40835409D01*
X85531679Y-40845350D01*
X85531682Y-40845350D01*
X85701788Y-40845350D01*
X85701791Y-40845350D01*
X85866960Y-40804640D01*
X86017587Y-40725584D01*
X86144918Y-40612779D01*
X86144921Y-40612773D01*
X86149974Y-40607072D01*
X86152550Y-40609354D01*
X86195533Y-40574319D01*
X86266079Y-40566335D01*
X86291017Y-40574823D01*
X86291386Y-40573852D01*
X86298512Y-40576555D01*
X86393622Y-40599997D01*
X86463678Y-40617264D01*
X86463681Y-40617264D01*
X86633787Y-40617264D01*
X86633790Y-40617264D01*
X86703826Y-40600002D01*
X88994355Y-40600002D01*
X89014859Y-40768871D01*
X89075179Y-40927925D01*
X89075181Y-40927929D01*
X89171816Y-41067928D01*
X89171818Y-41067930D01*
X89244218Y-41132071D01*
X89299148Y-41180734D01*
X89449775Y-41259790D01*
X89449776Y-41259790D01*
X89449778Y-41259791D01*
X89522877Y-41277808D01*
X89584232Y-41313531D01*
X89616533Y-41376754D01*
X89615251Y-41423498D01*
X89615778Y-41423562D01*
X89615095Y-41429184D01*
X89615065Y-41430290D01*
X89614860Y-41431121D01*
X89594355Y-41599997D01*
X89594355Y-41600002D01*
X89614859Y-41768871D01*
X89675179Y-41927925D01*
X89675181Y-41927929D01*
X89771816Y-42067928D01*
X89771818Y-42067930D01*
X89885758Y-42168872D01*
X89899148Y-42180734D01*
X90049775Y-42259790D01*
X90049779Y-42259791D01*
X90056905Y-42262494D01*
X90055885Y-42265181D01*
X90105667Y-42294162D01*
X90137973Y-42357382D01*
X90139246Y-42395971D01*
X90123123Y-42528763D01*
X90123123Y-42528770D01*
X90143627Y-42697639D01*
X90203947Y-42856693D01*
X90203949Y-42856697D01*
X90300584Y-42996696D01*
X90300586Y-42996698D01*
X90417192Y-43100002D01*
X90427916Y-43109502D01*
X90578543Y-43188558D01*
X90578544Y-43188558D01*
X90578546Y-43188559D01*
X90653654Y-43207071D01*
X90743712Y-43229268D01*
X90748865Y-43229268D01*
X90816986Y-43249270D01*
X90863479Y-43302926D01*
X90873946Y-43340080D01*
X90886091Y-43440103D01*
X90946411Y-43599157D01*
X90946413Y-43599161D01*
X91043048Y-43739160D01*
X91043050Y-43739162D01*
X91161243Y-43843872D01*
X91170380Y-43851966D01*
X91321007Y-43931022D01*
X91321008Y-43931022D01*
X91321010Y-43931023D01*
X91477693Y-43969641D01*
X91486176Y-43971732D01*
X91486179Y-43971732D01*
X91656285Y-43971732D01*
X91656288Y-43971732D01*
X91821457Y-43931022D01*
X91972084Y-43851966D01*
X92099415Y-43739161D01*
X92196050Y-43599162D01*
X92256372Y-43440104D01*
X92267668Y-43347074D01*
X92276877Y-43271234D01*
X92276877Y-43271229D01*
X92256372Y-43102360D01*
X92204819Y-42966423D01*
X97734855Y-42966423D01*
X97755359Y-43135292D01*
X97815679Y-43294346D01*
X97815681Y-43294350D01*
X97912316Y-43434349D01*
X97912318Y-43434351D01*
X98022621Y-43532071D01*
X98039648Y-43547155D01*
X98190275Y-43626211D01*
X98335871Y-43662096D01*
X98397225Y-43697819D01*
X98429526Y-43761042D01*
X98430798Y-43769247D01*
X98439859Y-43843871D01*
X98500179Y-44002925D01*
X98500181Y-44002929D01*
X98596816Y-44142928D01*
X98596818Y-44142930D01*
X98717675Y-44250000D01*
X98724148Y-44255734D01*
X98874775Y-44334790D01*
X98874776Y-44334790D01*
X98874778Y-44334791D01*
X99016813Y-44369799D01*
X99078168Y-44405522D01*
X99110469Y-44468745D01*
X99111741Y-44476950D01*
X99132859Y-44650871D01*
X99193179Y-44809925D01*
X99193181Y-44809929D01*
X99289816Y-44949928D01*
X99289818Y-44949930D01*
X99384290Y-45033625D01*
X99417148Y-45062734D01*
X99567775Y-45141790D01*
X99711880Y-45177308D01*
X99773233Y-45213030D01*
X99805534Y-45276252D01*
X99806806Y-45284458D01*
X99817359Y-45371371D01*
X99877679Y-45530425D01*
X99877681Y-45530429D01*
X99974316Y-45670428D01*
X99974318Y-45670430D01*
X100078327Y-45762574D01*
X100101648Y-45783234D01*
X100252275Y-45862290D01*
X100267405Y-45866019D01*
X100268459Y-45866279D01*
X100329814Y-45902002D01*
X100362115Y-45965225D01*
X100355108Y-46035875D01*
X100311018Y-46091521D01*
X100268460Y-46110957D01*
X100149776Y-46140209D01*
X100149774Y-46140210D01*
X99999148Y-46219265D01*
X99999142Y-46219270D01*
X99871818Y-46332069D01*
X99871816Y-46332071D01*
X99775181Y-46472070D01*
X99775179Y-46472074D01*
X99714859Y-46631128D01*
X99694355Y-46799997D01*
X99694355Y-46800002D01*
X99714859Y-46968871D01*
X99775179Y-47127925D01*
X99775181Y-47127929D01*
X99871816Y-47267928D01*
X99871818Y-47267930D01*
X99940896Y-47329128D01*
X99999148Y-47380734D01*
X100149775Y-47459790D01*
X100149776Y-47459790D01*
X100149778Y-47459791D01*
X100234749Y-47480734D01*
X100314944Y-47500500D01*
X100314947Y-47500500D01*
X100485053Y-47500500D01*
X100485056Y-47500500D01*
X100650225Y-47459790D01*
X100800852Y-47380734D01*
X100928183Y-47267929D01*
X101024818Y-47127930D01*
X101042717Y-47080734D01*
X101074902Y-46995869D01*
X101117759Y-46939267D01*
X101184415Y-46914822D01*
X101253705Y-46930293D01*
X101296408Y-46968970D01*
X101314975Y-46995869D01*
X101343316Y-47036928D01*
X101343318Y-47036930D01*
X101459581Y-47139930D01*
X101470648Y-47149734D01*
X101621275Y-47228790D01*
X101621276Y-47228790D01*
X101621278Y-47228791D01*
X101667608Y-47240210D01*
X101786444Y-47269500D01*
X101786447Y-47269500D01*
X101956553Y-47269500D01*
X101956556Y-47269500D01*
X102121725Y-47228790D01*
X102272352Y-47149734D01*
X102399683Y-47036929D01*
X102496318Y-46896930D01*
X102556640Y-46737872D01*
X102575202Y-46585000D01*
X102577145Y-46569002D01*
X102577145Y-46568997D01*
X102556640Y-46400128D01*
X102496320Y-46241074D01*
X102496318Y-46241070D01*
X102399683Y-46101071D01*
X102399681Y-46101069D01*
X102272357Y-45988270D01*
X102272351Y-45988265D01*
X102121725Y-45909210D01*
X102121723Y-45909209D01*
X102084368Y-45900002D01*
X110394355Y-45900002D01*
X110414859Y-46068871D01*
X110475179Y-46227925D01*
X110475181Y-46227929D01*
X110571816Y-46367928D01*
X110571818Y-46367930D01*
X110644218Y-46432071D01*
X110699148Y-46480734D01*
X110849775Y-46559790D01*
X110849776Y-46559790D01*
X110849778Y-46559791D01*
X110952057Y-46585000D01*
X111014944Y-46600500D01*
X111014947Y-46600500D01*
X111185053Y-46600500D01*
X111185056Y-46600500D01*
X111350225Y-46559790D01*
X111500852Y-46480734D01*
X111628183Y-46367929D01*
X111724818Y-46227930D01*
X111785140Y-46068872D01*
X111794927Y-45988270D01*
X111805645Y-45900002D01*
X111805645Y-45900000D01*
X111794105Y-45804958D01*
X111785389Y-45733173D01*
X111797034Y-45663137D01*
X111844694Y-45610516D01*
X111851890Y-45606431D01*
X111900852Y-45580734D01*
X112028183Y-45467929D01*
X112124818Y-45327930D01*
X112185140Y-45168872D01*
X112201913Y-45030734D01*
X112205645Y-45000002D01*
X112205645Y-44999997D01*
X112185140Y-44831128D01*
X112124820Y-44672074D01*
X112124818Y-44672070D01*
X112028183Y-44532071D01*
X112028181Y-44532069D01*
X111935546Y-44450002D01*
X114248447Y-44450002D01*
X114268951Y-44618871D01*
X114329271Y-44777925D01*
X114329273Y-44777929D01*
X114425908Y-44917928D01*
X114425910Y-44917930D01*
X114551632Y-45029310D01*
X114553240Y-45030734D01*
X114703867Y-45109790D01*
X114703868Y-45109790D01*
X114703870Y-45109791D01*
X114833698Y-45141790D01*
X114869036Y-45150500D01*
X114869039Y-45150500D01*
X115039145Y-45150500D01*
X115039148Y-45150500D01*
X115204317Y-45109790D01*
X115354944Y-45030734D01*
X115384802Y-45004282D01*
X115449050Y-44974082D01*
X115519431Y-44983411D01*
X115573595Y-45029310D01*
X115592906Y-45092498D01*
X115593436Y-45092434D01*
X115593797Y-45095413D01*
X115594346Y-45097207D01*
X115594354Y-45098580D01*
X115594354Y-45099995D01*
X115614859Y-45268871D01*
X115675179Y-45427925D01*
X115675181Y-45427929D01*
X115771816Y-45567928D01*
X115771818Y-45567930D01*
X115881341Y-45664959D01*
X115899148Y-45680734D01*
X116049775Y-45759790D01*
X116049776Y-45759790D01*
X116049778Y-45759791D01*
X116144872Y-45783229D01*
X116214944Y-45800500D01*
X116214947Y-45800500D01*
X116385053Y-45800500D01*
X116385056Y-45800500D01*
X116550225Y-45759790D01*
X116700852Y-45680734D01*
X116828183Y-45567929D01*
X116924818Y-45427930D01*
X116985140Y-45268872D01*
X116994959Y-45188004D01*
X117005645Y-45100002D01*
X117005645Y-45099997D01*
X116985140Y-44931128D01*
X116924820Y-44772074D01*
X116924818Y-44772070D01*
X116828183Y-44632071D01*
X116828181Y-44632069D01*
X116700857Y-44519270D01*
X116700851Y-44519265D01*
X116550225Y-44440210D01*
X116550221Y-44440208D01*
X116385059Y-44399500D01*
X116385056Y-44399500D01*
X116214944Y-44399500D01*
X116214940Y-44399500D01*
X116049778Y-44440208D01*
X116049774Y-44440210D01*
X115899148Y-44519265D01*
X115899147Y-44519266D01*
X115872688Y-44542708D01*
X115869290Y-44545718D01*
X115805037Y-44575918D01*
X115734656Y-44566587D01*
X115680494Y-44520686D01*
X115661185Y-44457501D01*
X115660656Y-44457566D01*
X115660294Y-44454586D01*
X115659745Y-44452789D01*
X115659737Y-44451405D01*
X115659736Y-44450008D01*
X115659737Y-44450000D01*
X115639232Y-44281128D01*
X115578912Y-44122074D01*
X115578910Y-44122070D01*
X115482275Y-43982071D01*
X115482273Y-43982069D01*
X115370396Y-43882955D01*
X115332670Y-43822811D01*
X115333450Y-43751819D01*
X115372487Y-43692518D01*
X115423796Y-43666304D01*
X115450225Y-43659790D01*
X115600852Y-43580734D01*
X115728183Y-43467929D01*
X115824818Y-43327930D01*
X115885140Y-43168872D01*
X115885993Y-43161845D01*
X115892130Y-43111312D01*
X115920197Y-43046099D01*
X115979066Y-43006413D01*
X116017211Y-43000500D01*
X116185053Y-43000500D01*
X116185056Y-43000500D01*
X116350225Y-42959790D01*
X116500852Y-42880734D01*
X116628183Y-42767929D01*
X116724818Y-42627930D01*
X116785140Y-42468872D01*
X116798372Y-42359896D01*
X116805645Y-42300002D01*
X116805645Y-42300000D01*
X116793605Y-42200842D01*
X116785389Y-42133173D01*
X116797034Y-42063137D01*
X116844694Y-42010516D01*
X116851890Y-42006431D01*
X116900852Y-41980734D01*
X117028183Y-41867929D01*
X117124818Y-41727930D01*
X117185140Y-41568872D01*
X117197935Y-41463500D01*
X117205645Y-41400002D01*
X117205645Y-41399997D01*
X117185140Y-41231128D01*
X117124820Y-41072074D01*
X117124818Y-41072072D01*
X117124818Y-41072070D01*
X117055449Y-40971573D01*
X117033215Y-40904152D01*
X117050962Y-40835409D01*
X117055434Y-40828448D01*
X117124818Y-40727930D01*
X117185140Y-40568872D01*
X117192245Y-40510360D01*
X117205645Y-40400002D01*
X117205645Y-40399997D01*
X117185140Y-40231128D01*
X117124820Y-40072074D01*
X117124818Y-40072070D01*
X117028183Y-39932071D01*
X117028181Y-39932069D01*
X116900857Y-39819270D01*
X116900851Y-39819265D01*
X116768872Y-39749997D01*
X116750225Y-39740210D01*
X116750224Y-39740209D01*
X116743476Y-39736668D01*
X116744996Y-39733770D01*
X116700192Y-39699869D01*
X116675723Y-39633222D01*
X116691170Y-39563927D01*
X116741629Y-39513983D01*
X116771293Y-39502540D01*
X116865721Y-39479266D01*
X116865721Y-39479265D01*
X116865725Y-39479265D01*
X117016352Y-39400209D01*
X117143683Y-39287404D01*
X117240318Y-39147405D01*
X117300640Y-38988347D01*
X117319730Y-38831128D01*
X117321145Y-38819477D01*
X117321145Y-38819472D01*
X117300640Y-38650603D01*
X117240320Y-38491549D01*
X117240318Y-38491545D01*
X117143683Y-38351546D01*
X117143681Y-38351544D01*
X117016357Y-38238745D01*
X117016351Y-38238740D01*
X116882658Y-38168572D01*
X116831636Y-38119203D01*
X116815404Y-38050087D01*
X116816130Y-38041845D01*
X116821145Y-38000548D01*
X116821078Y-38000000D01*
X116800640Y-37831677D01*
X116740320Y-37672622D01*
X116740318Y-37672618D01*
X116643683Y-37532619D01*
X116643681Y-37532617D01*
X116516357Y-37419818D01*
X116516351Y-37419813D01*
X116365725Y-37340758D01*
X116365721Y-37340756D01*
X116200559Y-37300048D01*
X116200556Y-37300048D01*
X116030444Y-37300048D01*
X116030440Y-37300048D01*
X115865278Y-37340756D01*
X115865274Y-37340758D01*
X115714648Y-37419813D01*
X115714642Y-37419818D01*
X115587318Y-37532617D01*
X115587316Y-37532619D01*
X115490681Y-37672618D01*
X115490679Y-37672622D01*
X115430359Y-37831676D01*
X115409855Y-38000545D01*
X115409855Y-38000550D01*
X115430359Y-38169419D01*
X115490679Y-38328473D01*
X115490681Y-38328477D01*
X115587316Y-38468476D01*
X115587318Y-38468478D01*
X115714642Y-38581277D01*
X115714651Y-38581284D01*
X115848339Y-38651449D01*
X115899362Y-38700817D01*
X115915594Y-38769933D01*
X115914866Y-38778201D01*
X115909855Y-38819476D01*
X115909855Y-38819477D01*
X115930359Y-38988346D01*
X115990679Y-39147400D01*
X115990681Y-39147404D01*
X116087316Y-39287403D01*
X116087318Y-39287405D01*
X116213847Y-39399500D01*
X116214648Y-39400209D01*
X116343676Y-39467929D01*
X116372024Y-39482807D01*
X116370493Y-39485722D01*
X116415238Y-39519511D01*
X116439769Y-39586135D01*
X116424386Y-39655445D01*
X116373973Y-39705435D01*
X116344208Y-39716933D01*
X116249783Y-39740207D01*
X116249774Y-39740210D01*
X116099148Y-39819265D01*
X116099142Y-39819270D01*
X115971818Y-39932069D01*
X115971816Y-39932071D01*
X115875181Y-40072070D01*
X115875179Y-40072074D01*
X115814859Y-40231128D01*
X115794355Y-40399997D01*
X115794355Y-40400002D01*
X115814859Y-40568871D01*
X115875179Y-40727925D01*
X115875181Y-40727929D01*
X115944548Y-40828424D01*
X115966784Y-40895849D01*
X115949037Y-40964592D01*
X115944548Y-40971576D01*
X115875181Y-41072070D01*
X115875179Y-41072074D01*
X115814859Y-41231128D01*
X115794355Y-41399997D01*
X115794355Y-41400004D01*
X115814610Y-41566827D01*
X115802965Y-41636862D01*
X115755304Y-41689483D01*
X115748086Y-41693580D01*
X115699152Y-41719263D01*
X115699142Y-41719270D01*
X115571818Y-41832069D01*
X115571816Y-41832071D01*
X115475181Y-41972070D01*
X115475179Y-41972074D01*
X115414859Y-42131128D01*
X115407870Y-42188688D01*
X115379803Y-42253901D01*
X115320934Y-42293587D01*
X115282789Y-42299500D01*
X115114940Y-42299500D01*
X114949778Y-42340208D01*
X114949774Y-42340210D01*
X114799148Y-42419265D01*
X114799142Y-42419270D01*
X114671818Y-42532069D01*
X114671816Y-42532071D01*
X114575181Y-42672070D01*
X114575179Y-42672074D01*
X114514859Y-42831128D01*
X114494355Y-42999997D01*
X114494355Y-43000002D01*
X114514859Y-43168871D01*
X114575179Y-43327925D01*
X114575181Y-43327929D01*
X114583658Y-43340210D01*
X114671817Y-43467929D01*
X114783696Y-43567044D01*
X114821421Y-43627188D01*
X114820641Y-43698180D01*
X114781604Y-43757481D01*
X114730299Y-43783694D01*
X114703872Y-43790208D01*
X114703866Y-43790210D01*
X114553240Y-43869265D01*
X114553234Y-43869270D01*
X114425910Y-43982069D01*
X114425908Y-43982071D01*
X114329273Y-44122070D01*
X114329271Y-44122074D01*
X114268951Y-44281128D01*
X114248447Y-44449997D01*
X114248447Y-44450002D01*
X111935546Y-44450002D01*
X111900857Y-44419270D01*
X111900851Y-44419265D01*
X111750225Y-44340210D01*
X111750221Y-44340208D01*
X111585059Y-44299500D01*
X111585056Y-44299500D01*
X111414944Y-44299500D01*
X111414940Y-44299500D01*
X111249778Y-44340208D01*
X111249774Y-44340210D01*
X111099148Y-44419265D01*
X111099142Y-44419270D01*
X110971818Y-44532069D01*
X110971816Y-44532071D01*
X110875181Y-44672070D01*
X110875179Y-44672074D01*
X110814859Y-44831128D01*
X110794355Y-44999997D01*
X110794355Y-45000004D01*
X110814610Y-45166827D01*
X110802965Y-45236862D01*
X110755304Y-45289483D01*
X110748086Y-45293580D01*
X110699152Y-45319263D01*
X110699142Y-45319270D01*
X110571818Y-45432069D01*
X110571816Y-45432071D01*
X110475181Y-45572070D01*
X110475179Y-45572074D01*
X110414859Y-45731128D01*
X110394355Y-45899997D01*
X110394355Y-45900002D01*
X102084368Y-45900002D01*
X101973114Y-45872581D01*
X101911760Y-45836858D01*
X101879459Y-45773635D01*
X101878189Y-45765451D01*
X101872140Y-45715628D01*
X101854999Y-45670430D01*
X101811820Y-45556574D01*
X101811818Y-45556570D01*
X101715183Y-45416571D01*
X101715181Y-45416569D01*
X101587857Y-45303770D01*
X101587851Y-45303765D01*
X101437225Y-45224710D01*
X101437221Y-45224708D01*
X101288302Y-45188004D01*
X101226947Y-45152281D01*
X101194646Y-45089058D01*
X101193377Y-45080882D01*
X101187640Y-45033628D01*
X101187639Y-45033625D01*
X101127320Y-44874574D01*
X101127318Y-44874570D01*
X101030683Y-44734571D01*
X101030681Y-44734569D01*
X100903357Y-44621770D01*
X100903351Y-44621765D01*
X100752725Y-44542710D01*
X100752721Y-44542708D01*
X100608621Y-44507192D01*
X100547266Y-44471469D01*
X100514965Y-44408246D01*
X100513693Y-44400040D01*
X100513627Y-44399500D01*
X100503140Y-44313128D01*
X100479198Y-44249997D01*
X100442820Y-44154074D01*
X100442818Y-44154070D01*
X100346183Y-44014071D01*
X100346181Y-44014069D01*
X100218857Y-43901270D01*
X100218851Y-43901265D01*
X100068225Y-43822210D01*
X100068222Y-43822209D01*
X99926185Y-43787200D01*
X99864831Y-43751476D01*
X99832529Y-43688253D01*
X99831258Y-43680048D01*
X99821436Y-43599157D01*
X99810140Y-43506128D01*
X99767589Y-43393929D01*
X99749820Y-43347074D01*
X99749818Y-43347070D01*
X99653183Y-43207071D01*
X99653181Y-43207069D01*
X99525857Y-43094270D01*
X99525851Y-43094265D01*
X99375225Y-43015210D01*
X99375221Y-43015208D01*
X99229629Y-42979324D01*
X99168274Y-42943601D01*
X99135973Y-42880378D01*
X99134701Y-42872172D01*
X99125640Y-42797549D01*
X99065320Y-42638495D01*
X99065318Y-42638491D01*
X98968683Y-42498492D01*
X98968681Y-42498490D01*
X98841357Y-42385691D01*
X98841351Y-42385686D01*
X98690725Y-42306631D01*
X98690721Y-42306629D01*
X98525559Y-42265921D01*
X98525556Y-42265921D01*
X98355444Y-42265921D01*
X98355440Y-42265921D01*
X98190278Y-42306629D01*
X98190274Y-42306631D01*
X98039648Y-42385686D01*
X98039642Y-42385691D01*
X97912318Y-42498490D01*
X97912316Y-42498492D01*
X97815681Y-42638491D01*
X97815679Y-42638495D01*
X97755359Y-42797549D01*
X97734855Y-42966418D01*
X97734855Y-42966423D01*
X92204819Y-42966423D01*
X92196052Y-42943306D01*
X92196050Y-42943302D01*
X92099415Y-42803303D01*
X92099413Y-42803301D01*
X91972089Y-42690502D01*
X91972083Y-42690497D01*
X91821457Y-42611442D01*
X91821453Y-42611440D01*
X91656291Y-42570732D01*
X91656288Y-42570732D01*
X91651135Y-42570732D01*
X91583014Y-42550730D01*
X91536521Y-42497074D01*
X91526054Y-42459920D01*
X91513908Y-42359896D01*
X91453588Y-42200842D01*
X91453586Y-42200838D01*
X91356951Y-42060839D01*
X91356949Y-42060837D01*
X91229625Y-41948038D01*
X91229619Y-41948033D01*
X91078993Y-41868978D01*
X91071863Y-41866274D01*
X91072879Y-41863593D01*
X91023069Y-41834572D01*
X90990786Y-41771339D01*
X90989521Y-41732795D01*
X91005645Y-41600002D01*
X91005645Y-41599997D01*
X90985140Y-41431128D01*
X90924820Y-41272074D01*
X90924818Y-41272070D01*
X90828183Y-41132071D01*
X90828181Y-41132069D01*
X90700857Y-41019270D01*
X90700851Y-41019265D01*
X90550225Y-40940210D01*
X90550216Y-40940207D01*
X90477120Y-40922190D01*
X90415766Y-40886467D01*
X90383465Y-40823244D01*
X90384750Y-40776502D01*
X90384222Y-40776438D01*
X90384907Y-40770789D01*
X90384938Y-40769692D01*
X90385141Y-40768867D01*
X90405645Y-40600002D01*
X90405645Y-40599997D01*
X90385140Y-40431128D01*
X90324820Y-40272074D01*
X90324818Y-40272070D01*
X90228183Y-40132071D01*
X90228181Y-40132069D01*
X90100857Y-40019270D01*
X90100851Y-40019265D01*
X89950225Y-39940210D01*
X89950221Y-39940208D01*
X89785059Y-39899500D01*
X89785056Y-39899500D01*
X89614944Y-39899500D01*
X89614940Y-39899500D01*
X89449778Y-39940208D01*
X89449774Y-39940210D01*
X89299148Y-40019265D01*
X89299142Y-40019270D01*
X89171818Y-40132069D01*
X89171816Y-40132071D01*
X89075181Y-40272070D01*
X89075179Y-40272074D01*
X89014859Y-40431128D01*
X88994355Y-40599997D01*
X88994355Y-40600002D01*
X86703826Y-40600002D01*
X86798959Y-40576554D01*
X86949586Y-40497498D01*
X87076917Y-40384693D01*
X87173552Y-40244694D01*
X87233874Y-40085636D01*
X87251532Y-39940210D01*
X87254379Y-39916766D01*
X87254379Y-39916761D01*
X87233874Y-39747892D01*
X87173554Y-39588838D01*
X87173552Y-39588834D01*
X87076917Y-39448835D01*
X87076915Y-39448833D01*
X86949591Y-39336034D01*
X86949585Y-39336029D01*
X86798959Y-39256974D01*
X86798955Y-39256972D01*
X86633793Y-39216264D01*
X86633790Y-39216264D01*
X86463678Y-39216264D01*
X86463674Y-39216264D01*
X86298512Y-39256972D01*
X86298508Y-39256974D01*
X86147882Y-39336029D01*
X86147880Y-39336031D01*
X86020548Y-39448837D01*
X86015495Y-39454541D01*
X86013039Y-39452365D01*
X85969019Y-39487675D01*
X85898413Y-39495104D01*
X85874434Y-39486836D01*
X85874083Y-39487762D01*
X85866956Y-39485058D01*
X85701794Y-39444350D01*
X85701791Y-39444350D01*
X85531679Y-39444350D01*
X85531675Y-39444350D01*
X85366513Y-39485058D01*
X85366509Y-39485060D01*
X85215883Y-39564115D01*
X85215881Y-39564117D01*
X85082847Y-39681975D01*
X85081071Y-39679970D01*
X85031681Y-39710949D01*
X84960689Y-39710168D01*
X84938960Y-39701237D01*
X84931199Y-39697164D01*
X84931191Y-39697160D01*
X84766029Y-39656452D01*
X84766026Y-39656452D01*
X84595914Y-39656452D01*
X84595910Y-39656452D01*
X84430748Y-39697160D01*
X84430744Y-39697162D01*
X84280118Y-39776217D01*
X84280112Y-39776222D01*
X84152788Y-39889021D01*
X84152786Y-39889023D01*
X84056151Y-40029022D01*
X84056149Y-40029026D01*
X83995829Y-40188080D01*
X83975325Y-40356949D01*
X83975325Y-40356954D01*
X81451735Y-40356954D01*
X81485140Y-40268872D01*
X81505645Y-40100000D01*
X81502965Y-40077931D01*
X81485140Y-39931128D01*
X81424820Y-39772074D01*
X81424818Y-39772070D01*
X81328183Y-39632071D01*
X81328181Y-39632069D01*
X81200857Y-39519270D01*
X81200851Y-39519265D01*
X81050225Y-39440210D01*
X81050221Y-39440208D01*
X80885059Y-39399500D01*
X80885056Y-39399500D01*
X80714944Y-39399500D01*
X80714940Y-39399500D01*
X80549778Y-39440208D01*
X80549774Y-39440210D01*
X80399148Y-39519265D01*
X80399142Y-39519270D01*
X80271818Y-39632069D01*
X80271816Y-39632071D01*
X80175181Y-39772070D01*
X80175179Y-39772074D01*
X80114859Y-39931128D01*
X80094355Y-40099997D01*
X80094355Y-40100002D01*
X76615605Y-40100002D01*
X76620002Y-40085027D01*
X76622307Y-40081568D01*
X76624817Y-40077931D01*
X76624816Y-40077931D01*
X76624818Y-40077930D01*
X76685140Y-39918872D01*
X76697234Y-39819270D01*
X76705645Y-39750002D01*
X76705645Y-39749997D01*
X76685140Y-39581128D01*
X76666871Y-39532957D01*
X76624818Y-39422070D01*
X76624817Y-39422068D01*
X76622305Y-39418428D01*
X76621285Y-39415337D01*
X76621276Y-39415319D01*
X76621279Y-39415317D01*
X76600068Y-39351004D01*
X76600000Y-39346851D01*
X76600000Y-38900002D01*
X109094355Y-38900002D01*
X109114859Y-39068871D01*
X109175179Y-39227925D01*
X109175181Y-39227929D01*
X109271816Y-39367928D01*
X109271818Y-39367930D01*
X109397489Y-39479265D01*
X109399148Y-39480734D01*
X109549775Y-39559790D01*
X109549776Y-39559790D01*
X109549778Y-39559791D01*
X109667629Y-39588838D01*
X109714944Y-39600500D01*
X109714947Y-39600500D01*
X109885053Y-39600500D01*
X109885056Y-39600500D01*
X110050225Y-39559790D01*
X110200852Y-39480734D01*
X110328183Y-39367929D01*
X110424818Y-39227930D01*
X110485140Y-39068872D01*
X110505645Y-38900000D01*
X110502395Y-38873237D01*
X110485140Y-38731128D01*
X110424820Y-38572074D01*
X110424818Y-38572070D01*
X110328183Y-38432071D01*
X110328181Y-38432069D01*
X110200857Y-38319270D01*
X110200851Y-38319265D01*
X110050225Y-38240210D01*
X110050221Y-38240208D01*
X109885059Y-38199500D01*
X109885056Y-38199500D01*
X109714944Y-38199500D01*
X109714940Y-38199500D01*
X109549778Y-38240208D01*
X109549774Y-38240210D01*
X109399148Y-38319265D01*
X109399142Y-38319270D01*
X109271818Y-38432069D01*
X109271816Y-38432071D01*
X109175181Y-38572070D01*
X109175179Y-38572074D01*
X109114859Y-38731128D01*
X109094355Y-38899997D01*
X109094355Y-38900002D01*
X76600000Y-38900002D01*
X76600000Y-35300002D01*
X77753855Y-35300002D01*
X77774359Y-35468871D01*
X77834679Y-35627925D01*
X77834681Y-35627929D01*
X77931316Y-35767928D01*
X77931318Y-35767930D01*
X77933951Y-35770263D01*
X78058648Y-35880734D01*
X78209275Y-35959790D01*
X78209276Y-35959790D01*
X78209278Y-35959791D01*
X78265343Y-35973609D01*
X78374444Y-36000500D01*
X78374450Y-36000500D01*
X78378284Y-36000966D01*
X78380897Y-36002090D01*
X78381844Y-36002324D01*
X78381805Y-36002481D01*
X78443498Y-36029030D01*
X78483187Y-36087897D01*
X78487514Y-36107777D01*
X78488095Y-36110138D01*
X78548416Y-36269193D01*
X78548418Y-36269197D01*
X78645053Y-36409196D01*
X78645055Y-36409198D01*
X78693734Y-36452324D01*
X78772385Y-36522002D01*
X78923012Y-36601058D01*
X78923013Y-36601058D01*
X78923015Y-36601059D01*
X79079698Y-36639677D01*
X79088181Y-36641768D01*
X79088184Y-36641768D01*
X79258290Y-36641768D01*
X79258293Y-36641768D01*
X79423462Y-36601058D01*
X79574089Y-36522002D01*
X79701420Y-36409197D01*
X79798055Y-36269198D01*
X79858377Y-36110140D01*
X79871971Y-35998182D01*
X79878882Y-35941270D01*
X79878882Y-35941265D01*
X79858377Y-35772396D01*
X79798057Y-35613342D01*
X79798055Y-35613338D01*
X79701420Y-35473339D01*
X79701418Y-35473337D01*
X79574094Y-35360538D01*
X79574088Y-35360533D01*
X79423462Y-35281478D01*
X79423458Y-35281476D01*
X79258290Y-35240767D01*
X79254443Y-35240300D01*
X79251828Y-35239174D01*
X79250893Y-35238944D01*
X79250931Y-35238788D01*
X79189231Y-35212231D01*
X79149546Y-35153361D01*
X79145226Y-35133502D01*
X79144641Y-35131129D01*
X79084320Y-34972074D01*
X79084318Y-34972070D01*
X78987683Y-34832071D01*
X78987681Y-34832069D01*
X78860357Y-34719270D01*
X78860351Y-34719265D01*
X78823649Y-34700002D01*
X80994355Y-34700002D01*
X81014859Y-34868871D01*
X81075179Y-35027925D01*
X81075181Y-35027929D01*
X81171816Y-35167928D01*
X81171818Y-35167930D01*
X81254035Y-35240768D01*
X81299148Y-35280734D01*
X81449775Y-35359790D01*
X81449776Y-35359790D01*
X81449778Y-35359791D01*
X81552057Y-35385000D01*
X81614944Y-35400500D01*
X81614947Y-35400500D01*
X81785053Y-35400500D01*
X81785056Y-35400500D01*
X81947206Y-35360534D01*
X81950221Y-35359791D01*
X81950221Y-35359790D01*
X81950225Y-35359790D01*
X82100852Y-35280734D01*
X82228183Y-35167929D01*
X82324818Y-35027930D01*
X82385140Y-34868872D01*
X82392258Y-34810247D01*
X82405645Y-34700002D01*
X82405645Y-34699997D01*
X82385140Y-34531128D01*
X82324820Y-34372074D01*
X82324818Y-34372070D01*
X82228183Y-34232071D01*
X82228181Y-34232069D01*
X82100857Y-34119270D01*
X82100851Y-34119265D01*
X81950225Y-34040210D01*
X81950221Y-34040208D01*
X81785059Y-33999500D01*
X81785056Y-33999500D01*
X81614944Y-33999500D01*
X81614940Y-33999500D01*
X81449778Y-34040208D01*
X81449774Y-34040210D01*
X81299148Y-34119265D01*
X81299142Y-34119270D01*
X81171818Y-34232069D01*
X81171816Y-34232071D01*
X81075181Y-34372070D01*
X81075179Y-34372074D01*
X81014859Y-34531128D01*
X80994355Y-34699997D01*
X80994355Y-34700002D01*
X78823649Y-34700002D01*
X78709725Y-34640210D01*
X78709721Y-34640208D01*
X78544559Y-34599500D01*
X78544556Y-34599500D01*
X78374444Y-34599500D01*
X78374440Y-34599500D01*
X78209278Y-34640208D01*
X78209274Y-34640210D01*
X78058648Y-34719265D01*
X78058642Y-34719270D01*
X77931318Y-34832069D01*
X77931316Y-34832071D01*
X77834681Y-34972070D01*
X77834679Y-34972074D01*
X77774359Y-35131128D01*
X77753855Y-35299997D01*
X77753855Y-35300002D01*
X76600000Y-35300002D01*
X76600000Y-33520179D01*
X76620002Y-33452058D01*
X76673658Y-33405565D01*
X76695844Y-33397840D01*
X76850225Y-33359790D01*
X77000852Y-33280734D01*
X77128183Y-33167929D01*
X77224818Y-33027930D01*
X77285140Y-32868872D01*
X77301751Y-32732071D01*
X77305645Y-32700002D01*
X77305645Y-32699997D01*
X77285140Y-32531128D01*
X77224820Y-32372074D01*
X77224818Y-32372070D01*
X77128183Y-32232071D01*
X77128181Y-32232069D01*
X77000857Y-32119270D01*
X77000851Y-32119265D01*
X76850225Y-32040210D01*
X76850222Y-32040209D01*
X76695846Y-32002159D01*
X76634492Y-31966435D01*
X76602190Y-31903212D01*
X76600000Y-31879820D01*
X76600000Y-31784502D01*
X78394355Y-31784502D01*
X78414859Y-31953371D01*
X78475179Y-32112425D01*
X78475181Y-32112429D01*
X78571816Y-32252428D01*
X78571818Y-32252430D01*
X78688546Y-32355842D01*
X78699148Y-32365234D01*
X78849775Y-32444290D01*
X78849776Y-32444290D01*
X78849778Y-32444291D01*
X78945683Y-32467929D01*
X79014944Y-32485000D01*
X79014947Y-32485000D01*
X79185053Y-32485000D01*
X79185056Y-32485000D01*
X79350225Y-32444290D01*
X79500852Y-32365234D01*
X79628183Y-32252429D01*
X79724818Y-32112430D01*
X79785140Y-31953372D01*
X79805645Y-31784500D01*
X79799729Y-31735781D01*
X79785140Y-31615628D01*
X79724820Y-31456574D01*
X79724818Y-31456570D01*
X79628183Y-31316571D01*
X79628181Y-31316569D01*
X79500857Y-31203770D01*
X79500851Y-31203765D01*
X79350225Y-31124710D01*
X79350221Y-31124708D01*
X79185059Y-31084000D01*
X79185056Y-31084000D01*
X79014944Y-31084000D01*
X79014940Y-31084000D01*
X78849778Y-31124708D01*
X78849774Y-31124710D01*
X78699148Y-31203765D01*
X78699142Y-31203770D01*
X78571818Y-31316569D01*
X78571816Y-31316571D01*
X78475181Y-31456570D01*
X78475179Y-31456574D01*
X78414859Y-31615628D01*
X78394355Y-31784497D01*
X78394355Y-31784502D01*
X76600000Y-31784502D01*
X76600000Y-31500000D01*
X76600000Y-31499999D01*
X76600000Y-31000000D01*
X76403133Y-31000000D01*
X76411145Y-30934017D01*
X76411145Y-30934012D01*
X76390640Y-30765143D01*
X76330320Y-30606089D01*
X76330318Y-30606085D01*
X76233683Y-30466086D01*
X76233681Y-30466084D01*
X76106357Y-30353285D01*
X76106351Y-30353280D01*
X75955725Y-30274225D01*
X75955721Y-30274223D01*
X75790559Y-30233515D01*
X75790556Y-30233515D01*
X75620444Y-30233515D01*
X75620440Y-30233515D01*
X75455278Y-30274223D01*
X75455274Y-30274225D01*
X75304648Y-30353280D01*
X75304642Y-30353285D01*
X75177318Y-30466084D01*
X75177316Y-30466086D01*
X75080681Y-30606085D01*
X75080679Y-30606089D01*
X75020359Y-30765144D01*
X75005298Y-30889187D01*
X74977231Y-30954400D01*
X74918363Y-30994087D01*
X74880217Y-31000000D01*
X70415372Y-31000000D01*
X70347251Y-30979998D01*
X70300758Y-30926342D01*
X70290291Y-30889186D01*
X70283447Y-30832823D01*
X70283447Y-30832821D01*
X70223125Y-30673763D01*
X70126490Y-30533764D01*
X70126488Y-30533762D01*
X69999164Y-30420963D01*
X69999158Y-30420958D01*
X69848532Y-30341903D01*
X69848528Y-30341901D01*
X69683366Y-30301193D01*
X69683363Y-30301193D01*
X69513251Y-30301193D01*
X69513247Y-30301193D01*
X69348085Y-30341901D01*
X69348081Y-30341903D01*
X69197455Y-30420958D01*
X69197449Y-30420963D01*
X69070125Y-30533762D01*
X69070123Y-30533764D01*
X68973488Y-30673763D01*
X68973486Y-30673767D01*
X68913166Y-30832823D01*
X68906323Y-30889186D01*
X68878257Y-30954400D01*
X68819389Y-30994087D01*
X68781242Y-31000000D01*
X67823585Y-31000000D01*
X67755464Y-30979998D01*
X67708971Y-30926342D01*
X67698504Y-30858812D01*
X67705645Y-30800002D01*
X67705645Y-30799997D01*
X67685140Y-30631128D01*
X67624820Y-30472074D01*
X67624818Y-30472070D01*
X67528183Y-30332071D01*
X67528181Y-30332069D01*
X67400857Y-30219270D01*
X67400851Y-30219265D01*
X67250225Y-30140210D01*
X67250221Y-30140208D01*
X67085059Y-30099500D01*
X67085056Y-30099500D01*
X66914944Y-30099500D01*
X66914940Y-30099500D01*
X66749778Y-30140208D01*
X66749774Y-30140210D01*
X66599148Y-30219265D01*
X66599142Y-30219270D01*
X66471818Y-30332069D01*
X66471816Y-30332071D01*
X66375181Y-30472070D01*
X66375179Y-30472074D01*
X66314859Y-30631128D01*
X66294355Y-30799997D01*
X66294355Y-30800002D01*
X66301496Y-30858812D01*
X66289851Y-30928847D01*
X66242191Y-30981469D01*
X66176415Y-31000000D01*
X65539767Y-31000000D01*
X65471646Y-30979998D01*
X65456217Y-30968315D01*
X65400852Y-30919266D01*
X65400851Y-30919265D01*
X65250225Y-30840210D01*
X65250221Y-30840208D01*
X65085059Y-30799500D01*
X65085056Y-30799500D01*
X64914944Y-30799500D01*
X64914940Y-30799500D01*
X64749778Y-30840208D01*
X64749774Y-30840210D01*
X64599148Y-30919265D01*
X64599146Y-30919267D01*
X64575832Y-30939922D01*
X64543785Y-30968312D01*
X64479534Y-30998513D01*
X64460233Y-31000000D01*
X58441201Y-31000000D01*
X58373080Y-30979998D01*
X58337506Y-30945577D01*
X58328185Y-30932073D01*
X58328181Y-30932069D01*
X58200857Y-30819270D01*
X58200851Y-30819265D01*
X58050225Y-30740210D01*
X58050221Y-30740208D01*
X57885059Y-30699500D01*
X57885056Y-30699500D01*
X57714944Y-30699500D01*
X57714940Y-30699500D01*
X57549778Y-30740208D01*
X57549774Y-30740210D01*
X57399148Y-30819265D01*
X57399142Y-30819270D01*
X57271818Y-30932069D01*
X57271814Y-30932073D01*
X57262494Y-30945577D01*
X57207336Y-30990276D01*
X57158799Y-31000000D01*
X56552190Y-31000000D01*
X56484069Y-30979998D01*
X56463095Y-30963095D01*
X56036905Y-30536905D01*
X56002879Y-30474593D01*
X56000000Y-30447810D01*
X56000000Y-28300002D01*
X89094355Y-28300002D01*
X89114859Y-28468871D01*
X89175179Y-28627925D01*
X89175181Y-28627929D01*
X89271816Y-28767928D01*
X89271818Y-28767930D01*
X89300626Y-28793452D01*
X89399148Y-28880734D01*
X89549775Y-28959790D01*
X89549776Y-28959790D01*
X89549778Y-28959791D01*
X89706461Y-28998409D01*
X89714944Y-29000500D01*
X89714947Y-29000500D01*
X89885053Y-29000500D01*
X89885056Y-29000500D01*
X90050225Y-28959790D01*
X90200852Y-28880734D01*
X90328183Y-28767929D01*
X90424818Y-28627930D01*
X90485140Y-28468872D01*
X90505645Y-28300000D01*
X90493563Y-28200500D01*
X90485140Y-28131128D01*
X90424820Y-27972074D01*
X90424818Y-27972070D01*
X90328183Y-27832071D01*
X90328181Y-27832069D01*
X90200857Y-27719270D01*
X90200851Y-27719265D01*
X90050225Y-27640210D01*
X90050221Y-27640208D01*
X89885059Y-27599500D01*
X89885056Y-27599500D01*
X89714944Y-27599500D01*
X89714940Y-27599500D01*
X89549778Y-27640208D01*
X89549774Y-27640210D01*
X89399148Y-27719265D01*
X89399142Y-27719270D01*
X89271818Y-27832069D01*
X89271816Y-27832071D01*
X89175181Y-27972070D01*
X89175179Y-27972074D01*
X89114859Y-28131128D01*
X89094355Y-28299997D01*
X89094355Y-28300002D01*
X56000000Y-28300002D01*
X56000000Y-27284502D01*
X62394355Y-27284502D01*
X62414859Y-27453371D01*
X62475179Y-27612425D01*
X62475181Y-27612429D01*
X62571816Y-27752428D01*
X62571818Y-27752430D01*
X62661714Y-27832071D01*
X62699148Y-27865234D01*
X62849775Y-27944290D01*
X62849776Y-27944290D01*
X62849778Y-27944291D01*
X63006461Y-27982909D01*
X63014944Y-27985000D01*
X63014947Y-27985000D01*
X63185053Y-27985000D01*
X63185056Y-27985000D01*
X63350225Y-27944290D01*
X63500852Y-27865234D01*
X63557700Y-27814870D01*
X63621951Y-27784671D01*
X63692332Y-27794002D01*
X63724801Y-27814869D01*
X63799148Y-27880734D01*
X63949775Y-27959790D01*
X63949776Y-27959790D01*
X63949778Y-27959791D01*
X64052053Y-27984999D01*
X64114944Y-28000500D01*
X64114947Y-28000500D01*
X64285053Y-28000500D01*
X64285056Y-28000500D01*
X64450225Y-27959790D01*
X64600852Y-27880734D01*
X64728183Y-27767929D01*
X64824818Y-27627930D01*
X64825921Y-27625023D01*
X64869497Y-27510119D01*
X64873334Y-27500002D01*
X71194355Y-27500002D01*
X71214859Y-27668871D01*
X71275179Y-27827925D01*
X71275181Y-27827929D01*
X71366200Y-27959791D01*
X71371817Y-27967929D01*
X71499148Y-28080734D01*
X71649775Y-28159790D01*
X71649776Y-28159790D01*
X71649778Y-28159791D01*
X71806461Y-28198409D01*
X71814944Y-28200500D01*
X71814947Y-28200500D01*
X71985053Y-28200500D01*
X71985056Y-28200500D01*
X72150225Y-28159790D01*
X72300852Y-28080734D01*
X72428183Y-27967929D01*
X72524818Y-27827930D01*
X72585140Y-27668872D01*
X72600763Y-27540210D01*
X72605645Y-27500002D01*
X72605645Y-27499997D01*
X72585140Y-27331128D01*
X72524820Y-27172074D01*
X72524818Y-27172070D01*
X72428183Y-27032071D01*
X72428181Y-27032069D01*
X72300857Y-26919270D01*
X72300851Y-26919265D01*
X72150225Y-26840210D01*
X72150221Y-26840208D01*
X71985059Y-26799500D01*
X71985056Y-26799500D01*
X71814944Y-26799500D01*
X71814940Y-26799500D01*
X71649778Y-26840208D01*
X71649774Y-26840210D01*
X71499148Y-26919265D01*
X71499142Y-26919270D01*
X71371818Y-27032069D01*
X71371816Y-27032071D01*
X71275181Y-27172070D01*
X71275179Y-27172074D01*
X71214859Y-27331128D01*
X71194355Y-27499997D01*
X71194355Y-27500002D01*
X64873334Y-27500002D01*
X64885140Y-27468872D01*
X64898385Y-27359790D01*
X64905645Y-27300002D01*
X64905645Y-27299997D01*
X64885140Y-27131128D01*
X64824820Y-26972074D01*
X64824818Y-26972070D01*
X64728183Y-26832071D01*
X64728181Y-26832069D01*
X64600857Y-26719270D01*
X64600851Y-26719265D01*
X64450225Y-26640210D01*
X64450221Y-26640208D01*
X64285059Y-26599500D01*
X64285056Y-26599500D01*
X64114944Y-26599500D01*
X64114940Y-26599500D01*
X63949778Y-26640208D01*
X63949774Y-26640210D01*
X63799148Y-26719265D01*
X63799142Y-26719270D01*
X63742299Y-26769628D01*
X63678046Y-26799828D01*
X63607666Y-26790496D01*
X63575195Y-26769628D01*
X63500852Y-26703766D01*
X63500851Y-26703765D01*
X63350225Y-26624710D01*
X63350221Y-26624708D01*
X63185059Y-26584000D01*
X63185056Y-26584000D01*
X63014944Y-26584000D01*
X63014940Y-26584000D01*
X62849778Y-26624708D01*
X62849774Y-26624710D01*
X62699148Y-26703765D01*
X62699142Y-26703770D01*
X62571818Y-26816569D01*
X62571816Y-26816571D01*
X62475181Y-26956570D01*
X62475179Y-26956574D01*
X62414859Y-27115628D01*
X62394355Y-27284497D01*
X62394355Y-27284502D01*
X56000000Y-27284502D01*
X56000000Y-25000002D01*
X67194355Y-25000002D01*
X67214859Y-25168871D01*
X67275179Y-25327925D01*
X67275181Y-25327929D01*
X67371816Y-25467928D01*
X67371818Y-25467930D01*
X67444218Y-25532071D01*
X67499148Y-25580734D01*
X67649775Y-25659790D01*
X67649776Y-25659790D01*
X67649778Y-25659791D01*
X67806461Y-25698409D01*
X67814944Y-25700500D01*
X67814947Y-25700500D01*
X67985053Y-25700500D01*
X67985056Y-25700500D01*
X68063473Y-25681172D01*
X68134400Y-25684291D01*
X68192383Y-25725261D01*
X68210570Y-25762347D01*
X68212157Y-25761746D01*
X68275179Y-25927925D01*
X68275181Y-25927929D01*
X68371816Y-26067928D01*
X68371818Y-26067930D01*
X68485758Y-26168872D01*
X68499148Y-26180734D01*
X68649775Y-26259790D01*
X68649776Y-26259790D01*
X68649778Y-26259791D01*
X68806461Y-26298409D01*
X68814944Y-26300500D01*
X68814947Y-26300500D01*
X68985053Y-26300500D01*
X68985056Y-26300500D01*
X69150225Y-26259790D01*
X69300852Y-26180734D01*
X69391980Y-26100002D01*
X77794355Y-26100002D01*
X77814859Y-26268871D01*
X77875179Y-26427925D01*
X77875181Y-26427929D01*
X77971816Y-26567928D01*
X77971818Y-26567930D01*
X78068262Y-26653372D01*
X78099148Y-26680734D01*
X78249775Y-26759790D01*
X78249776Y-26759790D01*
X78249778Y-26759791D01*
X78406461Y-26798409D01*
X78414944Y-26800500D01*
X78414947Y-26800500D01*
X78585053Y-26800500D01*
X78585056Y-26800500D01*
X78750225Y-26759790D01*
X78900852Y-26680734D01*
X79028183Y-26567929D01*
X79124818Y-26427930D01*
X79134710Y-26401848D01*
X79158085Y-26340210D01*
X79185140Y-26268872D01*
X79205645Y-26100000D01*
X79195842Y-26019270D01*
X79185140Y-25931128D01*
X79124820Y-25772074D01*
X79124818Y-25772070D01*
X79028183Y-25632071D01*
X79028181Y-25632069D01*
X78900857Y-25519270D01*
X78900851Y-25519265D01*
X78750225Y-25440210D01*
X78750221Y-25440208D01*
X78585059Y-25399500D01*
X78585056Y-25399500D01*
X78414944Y-25399500D01*
X78414940Y-25399500D01*
X78249778Y-25440208D01*
X78249774Y-25440210D01*
X78099148Y-25519265D01*
X78099142Y-25519270D01*
X77971818Y-25632069D01*
X77971816Y-25632071D01*
X77875181Y-25772070D01*
X77875179Y-25772074D01*
X77814859Y-25931128D01*
X77794355Y-26099997D01*
X77794355Y-26100002D01*
X69391980Y-26100002D01*
X69428183Y-26067929D01*
X69524818Y-25927930D01*
X69585140Y-25768872D01*
X69605645Y-25600000D01*
X69595842Y-25519270D01*
X69585140Y-25431128D01*
X69524820Y-25272074D01*
X69524818Y-25272070D01*
X69428183Y-25132071D01*
X69428181Y-25132069D01*
X69300857Y-25019270D01*
X69300851Y-25019265D01*
X69150225Y-24940210D01*
X69150221Y-24940208D01*
X68985059Y-24899500D01*
X68985056Y-24899500D01*
X68814944Y-24899500D01*
X68814941Y-24899500D01*
X68814938Y-24899501D01*
X68736525Y-24918827D01*
X68665597Y-24915708D01*
X68607615Y-24874737D01*
X68589432Y-24837652D01*
X68587843Y-24838255D01*
X68535412Y-24700002D01*
X74994355Y-24700002D01*
X75014859Y-24868871D01*
X75075179Y-25027925D01*
X75075181Y-25027929D01*
X75171816Y-25167928D01*
X75171818Y-25167930D01*
X75216483Y-25207500D01*
X75299148Y-25280734D01*
X75449775Y-25359790D01*
X75449776Y-25359790D01*
X75449778Y-25359791D01*
X75606461Y-25398409D01*
X75614944Y-25400500D01*
X75614947Y-25400500D01*
X75785053Y-25400500D01*
X75785056Y-25400500D01*
X75950225Y-25359790D01*
X76100852Y-25280734D01*
X76228183Y-25167929D01*
X76324818Y-25027930D01*
X76335410Y-25000002D01*
X81289855Y-25000002D01*
X81310359Y-25168871D01*
X81370679Y-25327925D01*
X81370681Y-25327929D01*
X81467316Y-25467928D01*
X81467318Y-25467930D01*
X81539718Y-25532071D01*
X81594648Y-25580734D01*
X81745275Y-25659790D01*
X81820030Y-25678215D01*
X81881385Y-25713938D01*
X81913686Y-25777161D01*
X81906679Y-25847811D01*
X81862589Y-25903457D01*
X81820032Y-25922892D01*
X81749783Y-25940207D01*
X81749774Y-25940210D01*
X81599148Y-26019265D01*
X81599142Y-26019270D01*
X81471818Y-26132069D01*
X81471816Y-26132071D01*
X81375181Y-26272070D01*
X81375179Y-26272074D01*
X81314859Y-26431128D01*
X81294355Y-26599997D01*
X81294355Y-26600002D01*
X81314859Y-26768871D01*
X81375179Y-26927925D01*
X81375181Y-26927929D01*
X81471816Y-27067928D01*
X81471818Y-27067930D01*
X81585758Y-27168872D01*
X81599148Y-27180734D01*
X81749775Y-27259790D01*
X81749776Y-27259790D01*
X81749778Y-27259791D01*
X81904290Y-27297874D01*
X81914944Y-27300500D01*
X81914947Y-27300500D01*
X82085053Y-27300500D01*
X82085056Y-27300500D01*
X82250225Y-27259790D01*
X82400852Y-27180734D01*
X82528183Y-27067929D01*
X82624818Y-26927930D01*
X82685140Y-26768872D01*
X82698385Y-26659790D01*
X82705645Y-26600002D01*
X82705645Y-26599997D01*
X82685140Y-26431128D01*
X82624820Y-26272074D01*
X82624818Y-26272070D01*
X82528183Y-26132071D01*
X82528181Y-26132069D01*
X82400857Y-26019270D01*
X82400851Y-26019265D01*
X82250225Y-25940210D01*
X82250222Y-25940209D01*
X82175468Y-25921784D01*
X82114114Y-25886060D01*
X82081812Y-25822837D01*
X82088820Y-25752187D01*
X82132911Y-25696541D01*
X82175467Y-25677106D01*
X82245725Y-25659790D01*
X82359640Y-25600002D01*
X89194355Y-25600002D01*
X89214859Y-25768871D01*
X89275179Y-25927925D01*
X89275181Y-25927929D01*
X89371816Y-26067928D01*
X89371818Y-26067930D01*
X89485758Y-26168872D01*
X89499148Y-26180734D01*
X89649775Y-26259790D01*
X89649776Y-26259790D01*
X89649778Y-26259791D01*
X89806461Y-26298409D01*
X89814944Y-26300500D01*
X89814947Y-26300500D01*
X89985053Y-26300500D01*
X89985056Y-26300500D01*
X90150225Y-26259790D01*
X90300852Y-26180734D01*
X90428183Y-26067929D01*
X90524818Y-25927930D01*
X90585140Y-25768872D01*
X90605645Y-25600000D01*
X90595842Y-25519270D01*
X90585140Y-25431128D01*
X90524820Y-25272074D01*
X90524818Y-25272070D01*
X90428183Y-25132071D01*
X90428181Y-25132069D01*
X90300857Y-25019270D01*
X90300851Y-25019265D01*
X90150225Y-24940210D01*
X90150221Y-24940208D01*
X89985059Y-24899500D01*
X89985056Y-24899500D01*
X89814944Y-24899500D01*
X89814940Y-24899500D01*
X89649778Y-24940208D01*
X89649774Y-24940210D01*
X89499148Y-25019265D01*
X89499142Y-25019270D01*
X89371818Y-25132069D01*
X89371816Y-25132071D01*
X89275181Y-25272070D01*
X89275179Y-25272074D01*
X89214859Y-25431128D01*
X89194355Y-25599997D01*
X89194355Y-25600002D01*
X82359640Y-25600002D01*
X82396352Y-25580734D01*
X82523683Y-25467929D01*
X82620318Y-25327930D01*
X82680640Y-25168872D01*
X82701145Y-25000000D01*
X82680640Y-24831128D01*
X82630911Y-24700002D01*
X82620320Y-24672074D01*
X82620318Y-24672070D01*
X82523683Y-24532071D01*
X82523681Y-24532069D01*
X82396357Y-24419270D01*
X82396351Y-24419265D01*
X82245725Y-24340210D01*
X82245721Y-24340208D01*
X82080559Y-24299500D01*
X82080556Y-24299500D01*
X81910444Y-24299500D01*
X81910440Y-24299500D01*
X81745278Y-24340208D01*
X81745274Y-24340210D01*
X81594648Y-24419265D01*
X81594642Y-24419270D01*
X81467318Y-24532069D01*
X81467316Y-24532071D01*
X81370681Y-24672070D01*
X81370679Y-24672074D01*
X81310359Y-24831128D01*
X81289855Y-24999997D01*
X81289855Y-25000002D01*
X76335410Y-25000002D01*
X76385140Y-24868872D01*
X76405645Y-24700000D01*
X76385140Y-24531128D01*
X76385139Y-24531127D01*
X76324820Y-24372074D01*
X76324818Y-24372070D01*
X76228183Y-24232071D01*
X76228181Y-24232069D01*
X76100857Y-24119270D01*
X76100851Y-24119265D01*
X75950225Y-24040210D01*
X75950221Y-24040208D01*
X75785059Y-23999500D01*
X75785056Y-23999500D01*
X75614944Y-23999500D01*
X75614940Y-23999500D01*
X75449778Y-24040208D01*
X75449774Y-24040210D01*
X75299148Y-24119265D01*
X75299142Y-24119270D01*
X75171818Y-24232069D01*
X75171816Y-24232071D01*
X75075181Y-24372070D01*
X75075179Y-24372074D01*
X75014859Y-24531128D01*
X74994355Y-24699997D01*
X74994355Y-24700002D01*
X68535412Y-24700002D01*
X68524820Y-24672074D01*
X68524818Y-24672070D01*
X68428183Y-24532071D01*
X68428181Y-24532069D01*
X68300857Y-24419270D01*
X68300851Y-24419265D01*
X68150225Y-24340210D01*
X68150221Y-24340208D01*
X67985059Y-24299500D01*
X67985056Y-24299500D01*
X67814944Y-24299500D01*
X67814940Y-24299500D01*
X67649778Y-24340208D01*
X67649774Y-24340210D01*
X67499148Y-24419265D01*
X67499142Y-24419270D01*
X67371818Y-24532069D01*
X67371816Y-24532071D01*
X67275181Y-24672070D01*
X67275179Y-24672074D01*
X67214859Y-24831128D01*
X67194355Y-24999997D01*
X67194355Y-25000002D01*
X56000000Y-25000002D01*
X56000000Y-22300002D01*
X57894355Y-22300002D01*
X57914859Y-22468871D01*
X57975179Y-22627925D01*
X57975181Y-22627929D01*
X58071816Y-22767928D01*
X58071818Y-22767930D01*
X58185758Y-22868872D01*
X58199148Y-22880734D01*
X58349775Y-22959790D01*
X58349776Y-22959790D01*
X58349778Y-22959791D01*
X58434749Y-22980734D01*
X58514944Y-23000500D01*
X58514947Y-23000500D01*
X58685053Y-23000500D01*
X58685056Y-23000500D01*
X58850225Y-22959790D01*
X59000852Y-22880734D01*
X59128183Y-22767929D01*
X59224818Y-22627930D01*
X59285140Y-22468872D01*
X59301751Y-22332071D01*
X59305645Y-22300002D01*
X59305645Y-22299997D01*
X59285140Y-22131128D01*
X59224820Y-21972074D01*
X59224818Y-21972070D01*
X59128183Y-21832071D01*
X59128181Y-21832069D01*
X59000857Y-21719270D01*
X59000851Y-21719265D01*
X58850225Y-21640210D01*
X58850221Y-21640208D01*
X58687096Y-21600002D01*
X62094355Y-21600002D01*
X62114859Y-21768871D01*
X62175179Y-21927925D01*
X62175181Y-21927929D01*
X62271816Y-22067928D01*
X62271818Y-22067930D01*
X62353405Y-22140210D01*
X62399148Y-22180734D01*
X62549775Y-22259790D01*
X62549776Y-22259790D01*
X62549778Y-22259791D01*
X62634741Y-22280732D01*
X62714944Y-22300500D01*
X62714947Y-22300500D01*
X62885053Y-22300500D01*
X62885056Y-22300500D01*
X63050225Y-22259790D01*
X63200852Y-22180734D01*
X63328183Y-22067929D01*
X63424818Y-21927930D01*
X63485140Y-21768872D01*
X63500763Y-21640208D01*
X63505645Y-21600002D01*
X68253855Y-21600002D01*
X68274359Y-21768871D01*
X68334679Y-21927925D01*
X68334681Y-21927929D01*
X68431316Y-22067928D01*
X68431318Y-22067930D01*
X68512905Y-22140210D01*
X68558648Y-22180734D01*
X68709275Y-22259790D01*
X68709276Y-22259790D01*
X68709278Y-22259791D01*
X68794241Y-22280732D01*
X68874444Y-22300500D01*
X68874447Y-22300500D01*
X69044553Y-22300500D01*
X69044556Y-22300500D01*
X69209725Y-22259790D01*
X69360352Y-22180734D01*
X69360355Y-22180730D01*
X69362415Y-22179650D01*
X69432028Y-22165703D01*
X69498131Y-22191606D01*
X69504513Y-22196895D01*
X69599148Y-22280734D01*
X69749775Y-22359790D01*
X69749776Y-22359790D01*
X69749778Y-22359791D01*
X69834749Y-22380734D01*
X69914944Y-22400500D01*
X69914947Y-22400500D01*
X70085053Y-22400500D01*
X70085056Y-22400500D01*
X70250225Y-22359790D01*
X70250228Y-22359788D01*
X70251629Y-22359443D01*
X70322557Y-22362562D01*
X70380540Y-22403532D01*
X70407168Y-22469346D01*
X70406864Y-22496969D01*
X70394355Y-22599995D01*
X70394355Y-22600002D01*
X70414859Y-22768871D01*
X70475179Y-22927925D01*
X70475181Y-22927929D01*
X70525274Y-23000500D01*
X70571817Y-23067929D01*
X70699148Y-23180734D01*
X70849775Y-23259790D01*
X70849776Y-23259790D01*
X70849778Y-23259791D01*
X70934749Y-23280734D01*
X71014944Y-23300500D01*
X71014947Y-23300500D01*
X71185053Y-23300500D01*
X71185056Y-23300500D01*
X71350225Y-23259790D01*
X71500852Y-23180734D01*
X71628183Y-23067929D01*
X71678495Y-22995039D01*
X71733651Y-22950341D01*
X71804219Y-22942558D01*
X71840743Y-22955049D01*
X71849775Y-22959790D01*
X71849777Y-22959790D01*
X71849778Y-22959791D01*
X71934749Y-22980734D01*
X72014944Y-23000500D01*
X72014947Y-23000500D01*
X72185053Y-23000500D01*
X72185056Y-23000500D01*
X72350225Y-22959790D01*
X72500852Y-22880734D01*
X72628183Y-22767929D01*
X72724818Y-22627930D01*
X72785140Y-22468872D01*
X72801751Y-22332071D01*
X72805645Y-22300002D01*
X72805645Y-22299997D01*
X72785140Y-22131128D01*
X72724820Y-21972074D01*
X72724818Y-21972070D01*
X72628183Y-21832071D01*
X72628181Y-21832069D01*
X72591985Y-21800002D01*
X88394355Y-21800002D01*
X88414859Y-21968871D01*
X88475179Y-22127925D01*
X88475181Y-22127929D01*
X88571816Y-22267928D01*
X88571818Y-22267930D01*
X88644218Y-22332071D01*
X88699148Y-22380734D01*
X88849775Y-22459790D01*
X88849776Y-22459790D01*
X88849778Y-22459791D01*
X89000618Y-22496969D01*
X89014944Y-22500500D01*
X89014947Y-22500500D01*
X89185053Y-22500500D01*
X89185056Y-22500500D01*
X89350225Y-22459790D01*
X89500852Y-22380734D01*
X89628183Y-22267929D01*
X89724818Y-22127930D01*
X89729875Y-22114597D01*
X89758085Y-22040210D01*
X89785140Y-21968872D01*
X89805645Y-21800000D01*
X89801865Y-21768872D01*
X89785140Y-21631128D01*
X89724820Y-21472074D01*
X89724818Y-21472070D01*
X89628183Y-21332071D01*
X89628181Y-21332069D01*
X89500857Y-21219270D01*
X89500851Y-21219265D01*
X89350225Y-21140210D01*
X89350221Y-21140208D01*
X89185059Y-21099500D01*
X89185056Y-21099500D01*
X89014944Y-21099500D01*
X89014940Y-21099500D01*
X88849778Y-21140208D01*
X88849774Y-21140210D01*
X88699148Y-21219265D01*
X88699142Y-21219270D01*
X88571818Y-21332069D01*
X88571816Y-21332071D01*
X88475181Y-21472070D01*
X88475179Y-21472074D01*
X88414859Y-21631128D01*
X88394355Y-21799997D01*
X88394355Y-21800002D01*
X72591985Y-21800002D01*
X72500857Y-21719270D01*
X72500851Y-21719265D01*
X72350225Y-21640210D01*
X72350221Y-21640208D01*
X72185059Y-21599500D01*
X72185056Y-21599500D01*
X72014944Y-21599500D01*
X72014940Y-21599500D01*
X71849778Y-21640208D01*
X71849774Y-21640210D01*
X71699148Y-21719265D01*
X71699142Y-21719270D01*
X71571818Y-21832069D01*
X71571814Y-21832073D01*
X71521505Y-21904959D01*
X71466347Y-21949658D01*
X71395778Y-21957441D01*
X71359255Y-21944949D01*
X71350229Y-21940212D01*
X71350221Y-21940208D01*
X71185059Y-21899500D01*
X71185056Y-21899500D01*
X71014944Y-21899500D01*
X71014940Y-21899500D01*
X70848369Y-21940556D01*
X70777441Y-21937437D01*
X70719459Y-21896467D01*
X70692831Y-21830653D01*
X70693135Y-21803029D01*
X70705645Y-21700002D01*
X70705645Y-21699997D01*
X70685140Y-21531128D01*
X70624820Y-21372074D01*
X70624818Y-21372070D01*
X70528183Y-21232071D01*
X70528181Y-21232069D01*
X70400857Y-21119270D01*
X70400851Y-21119265D01*
X70250225Y-21040210D01*
X70250221Y-21040208D01*
X70085059Y-20999500D01*
X70085056Y-20999500D01*
X69914944Y-20999500D01*
X69914940Y-20999500D01*
X69749778Y-21040208D01*
X69749770Y-21040212D01*
X69597083Y-21120349D01*
X69527470Y-21134296D01*
X69461368Y-21108393D01*
X69454975Y-21103094D01*
X69360357Y-21019270D01*
X69360351Y-21019265D01*
X69209725Y-20940210D01*
X69209721Y-20940208D01*
X69044559Y-20899500D01*
X69044556Y-20899500D01*
X68874444Y-20899500D01*
X68874440Y-20899500D01*
X68709278Y-20940208D01*
X68709274Y-20940210D01*
X68558648Y-21019265D01*
X68558642Y-21019270D01*
X68431318Y-21132069D01*
X68431316Y-21132071D01*
X68334681Y-21272070D01*
X68334679Y-21272074D01*
X68274359Y-21431128D01*
X68253855Y-21599997D01*
X68253855Y-21600002D01*
X63505645Y-21600002D01*
X63505645Y-21599997D01*
X63485140Y-21431128D01*
X63424820Y-21272074D01*
X63424818Y-21272070D01*
X63328183Y-21132071D01*
X63328181Y-21132069D01*
X63200857Y-21019270D01*
X63200851Y-21019265D01*
X63050225Y-20940210D01*
X63050221Y-20940208D01*
X62885059Y-20899500D01*
X62885056Y-20899500D01*
X62714944Y-20899500D01*
X62714940Y-20899500D01*
X62549778Y-20940208D01*
X62549774Y-20940210D01*
X62399148Y-21019265D01*
X62399142Y-21019270D01*
X62271818Y-21132069D01*
X62271816Y-21132071D01*
X62175181Y-21272070D01*
X62175179Y-21272074D01*
X62114859Y-21431128D01*
X62094355Y-21599997D01*
X62094355Y-21600002D01*
X58687096Y-21600002D01*
X58685059Y-21599500D01*
X58685056Y-21599500D01*
X58514944Y-21599500D01*
X58514940Y-21599500D01*
X58349778Y-21640208D01*
X58349774Y-21640210D01*
X58199148Y-21719265D01*
X58199142Y-21719270D01*
X58071818Y-21832069D01*
X58071816Y-21832071D01*
X57975181Y-21972070D01*
X57975179Y-21972074D01*
X57914859Y-22131128D01*
X57894355Y-22299997D01*
X57894355Y-22300002D01*
X56000000Y-22300002D01*
X56000000Y-18874502D01*
X80574355Y-18874502D01*
X80594859Y-19043371D01*
X80655179Y-19202425D01*
X80655181Y-19202429D01*
X80735829Y-19319266D01*
X80751817Y-19342429D01*
X80879148Y-19455234D01*
X81029775Y-19534290D01*
X81129214Y-19558799D01*
X81190569Y-19594522D01*
X81222870Y-19657745D01*
X81216874Y-19725815D01*
X81214859Y-19731127D01*
X81194355Y-19899997D01*
X81194355Y-19900002D01*
X81214859Y-20068871D01*
X81275179Y-20227925D01*
X81275181Y-20227929D01*
X81275182Y-20227930D01*
X81371817Y-20367929D01*
X81499148Y-20480734D01*
X81649775Y-20559790D01*
X81649776Y-20559790D01*
X81649778Y-20559791D01*
X81806461Y-20598409D01*
X81814944Y-20600500D01*
X81814947Y-20600500D01*
X81985053Y-20600500D01*
X81985056Y-20600500D01*
X82150225Y-20559790D01*
X82300852Y-20480734D01*
X82428183Y-20367929D01*
X82524818Y-20227930D01*
X82585140Y-20068872D01*
X82595842Y-19980734D01*
X82605645Y-19900002D01*
X82605645Y-19899997D01*
X82585140Y-19731128D01*
X82524820Y-19572074D01*
X82524818Y-19572070D01*
X82428183Y-19432071D01*
X82428181Y-19432069D01*
X82300857Y-19319270D01*
X82300851Y-19319265D01*
X82150225Y-19240210D01*
X82150222Y-19240209D01*
X82050784Y-19215700D01*
X81989430Y-19179976D01*
X81957128Y-19116753D01*
X81963128Y-19048675D01*
X81965140Y-19043372D01*
X81970407Y-19000000D01*
X81985645Y-18874502D01*
X81985645Y-18874497D01*
X81965140Y-18705628D01*
X81904820Y-18546574D01*
X81904818Y-18546570D01*
X81808183Y-18406571D01*
X81808181Y-18406569D01*
X81680857Y-18293770D01*
X81680851Y-18293765D01*
X81530225Y-18214710D01*
X81530221Y-18214708D01*
X81365059Y-18174000D01*
X81365056Y-18174000D01*
X81194944Y-18174000D01*
X81194940Y-18174000D01*
X81029778Y-18214708D01*
X81029774Y-18214710D01*
X80879148Y-18293765D01*
X80879142Y-18293770D01*
X80751818Y-18406569D01*
X80751816Y-18406571D01*
X80655181Y-18546570D01*
X80655179Y-18546574D01*
X80594859Y-18705628D01*
X80574355Y-18874497D01*
X80574355Y-18874502D01*
X56000000Y-18874502D01*
X56000000Y-18100002D01*
X71294355Y-18100002D01*
X71314859Y-18268871D01*
X71375179Y-18427925D01*
X71375181Y-18427929D01*
X71457077Y-18546574D01*
X71471817Y-18567929D01*
X71599148Y-18680734D01*
X71749775Y-18759790D01*
X71749776Y-18759790D01*
X71749778Y-18759791D01*
X71906461Y-18798409D01*
X71914944Y-18800500D01*
X71914947Y-18800500D01*
X72085053Y-18800500D01*
X72085056Y-18800500D01*
X72250225Y-18759790D01*
X72400852Y-18680734D01*
X72528183Y-18567929D01*
X72624818Y-18427930D01*
X72685140Y-18268872D01*
X72705645Y-18100000D01*
X72685140Y-17931128D01*
X72624818Y-17772070D01*
X72528183Y-17632071D01*
X72400852Y-17519266D01*
X72400851Y-17519265D01*
X72250225Y-17440210D01*
X72250221Y-17440208D01*
X72085059Y-17399500D01*
X72085056Y-17399500D01*
X71914944Y-17399500D01*
X71914940Y-17399500D01*
X71749778Y-17440208D01*
X71749774Y-17440210D01*
X71599148Y-17519265D01*
X71599142Y-17519270D01*
X71471818Y-17632069D01*
X71471816Y-17632071D01*
X71375181Y-17772070D01*
X71375179Y-17772074D01*
X71314859Y-17931128D01*
X71294355Y-18099997D01*
X71294355Y-18100002D01*
X56000000Y-18100002D01*
X56000000Y-17352189D01*
X56020002Y-17284068D01*
X56036896Y-17263103D01*
X56463097Y-16836902D01*
X56525407Y-16802879D01*
X56552190Y-16800000D01*
X84589773Y-16800000D01*
X84657894Y-16820002D01*
G37*
%TD.AperFunction*%
M02*
