%TF.GenerationSoftware,KiCad,Pcbnew,(6.0.11)*%
%TF.CreationDate,2023-02-05T23:01:42+01:00*%
%TF.ProjectId,epaper-breakout,65706170-6572-42d6-9272-65616b6f7574,rev?*%
%TF.SameCoordinates,Original*%
%TF.FileFunction,Drillmap*%
%TF.FilePolarity,Positive*%
%FSLAX45Y45*%
G04 Gerber Fmt 4.5, Leading zero omitted, Abs format (unit mm)*
G04 Created by KiCad (PCBNEW (6.0.11)) date 2023-02-05 23:01:42*
%MOMM*%
%LPD*%
G01*
G04 APERTURE LIST*
%ADD10C,0.050000*%
%ADD11C,0.200000*%
%ADD12C,0.065000*%
%ADD13C,0.220000*%
G04 APERTURE END LIST*
D10*
X2500000Y-6250000D02*
X2500000Y-1150000D01*
X2700000Y-6450000D02*
X8130000Y-6448579D01*
X12500000Y-1150000D02*
X12500000Y-6250000D01*
X2700000Y-950000D02*
X12300000Y-950000D01*
X2700000Y-950000D02*
G75*
G03*
X2500000Y-1150000I0J-200000D01*
G01*
X8530000Y-5760000D02*
G75*
G03*
X8330000Y-5960000I0J-200000D01*
G01*
X8330000Y-6248579D02*
X8330000Y-5960000D01*
X8130000Y-6448580D02*
G75*
G03*
X8330000Y-6248579I0J200000D01*
G01*
X11066621Y-6248579D02*
G75*
G03*
X11266621Y-6448579I199999J-1D01*
G01*
X8870000Y-5760000D02*
X8530000Y-5760000D01*
X12500000Y-1150000D02*
G75*
G03*
X12300000Y-950000I-200000J0D01*
G01*
X2500000Y-6250000D02*
G75*
G03*
X2700000Y-6450000I200000J0D01*
G01*
X11066621Y-6248579D02*
X11068579Y-5961421D01*
X12300000Y-6450000D02*
G75*
G03*
X12500000Y-6250000I0J200000D01*
G01*
X11266621Y-6448579D02*
X12300000Y-6450000D01*
X11068579Y-5961421D02*
G75*
G03*
X10868579Y-5761421I-199999J1D01*
G01*
X10868579Y-5761421D02*
X8870000Y-5760000D01*
D11*
D12*
X3141500Y-2708500D02*
X3206500Y-2773500D01*
X3206500Y-2708500D02*
X3141500Y-2773500D01*
X3141500Y-3286500D02*
X3206500Y-3351500D01*
X3206500Y-3286500D02*
X3141500Y-3351500D01*
D13*
X2860000Y-1200000D02*
G75*
G03*
X2860000Y-1200000I-110000J0D01*
G01*
X2860000Y-6200000D02*
G75*
G03*
X2860000Y-6200000I-110000J0D01*
G01*
X12360000Y-1200000D02*
G75*
G03*
X12360000Y-1200000I-110000J0D01*
G01*
X12360000Y-6200000D02*
G75*
G03*
X12360000Y-6200000I-110000J0D01*
G01*
D11*
X2755119Y-6762976D02*
X2755119Y-6562976D01*
X2802738Y-6562976D01*
X2831309Y-6572500D01*
X2850357Y-6591548D01*
X2859881Y-6610595D01*
X2869405Y-6648690D01*
X2869405Y-6677262D01*
X2859881Y-6715357D01*
X2850357Y-6734405D01*
X2831309Y-6753452D01*
X2802738Y-6762976D01*
X2755119Y-6762976D01*
X2955119Y-6762976D02*
X2955119Y-6629643D01*
X2955119Y-6667738D02*
X2964643Y-6648690D01*
X2974167Y-6639167D01*
X2993214Y-6629643D01*
X3012262Y-6629643D01*
X3078928Y-6762976D02*
X3078928Y-6629643D01*
X3078928Y-6562976D02*
X3069405Y-6572500D01*
X3078928Y-6582024D01*
X3088452Y-6572500D01*
X3078928Y-6562976D01*
X3078928Y-6582024D01*
X3202738Y-6762976D02*
X3183690Y-6753452D01*
X3174167Y-6734405D01*
X3174167Y-6562976D01*
X3307500Y-6762976D02*
X3288452Y-6753452D01*
X3278928Y-6734405D01*
X3278928Y-6562976D01*
X3536071Y-6762976D02*
X3536071Y-6562976D01*
X3602738Y-6705833D01*
X3669405Y-6562976D01*
X3669405Y-6762976D01*
X3850357Y-6762976D02*
X3850357Y-6658214D01*
X3840833Y-6639167D01*
X3821786Y-6629643D01*
X3783690Y-6629643D01*
X3764643Y-6639167D01*
X3850357Y-6753452D02*
X3831309Y-6762976D01*
X3783690Y-6762976D01*
X3764643Y-6753452D01*
X3755119Y-6734405D01*
X3755119Y-6715357D01*
X3764643Y-6696309D01*
X3783690Y-6686786D01*
X3831309Y-6686786D01*
X3850357Y-6677262D01*
X3945595Y-6629643D02*
X3945595Y-6829643D01*
X3945595Y-6639167D02*
X3964643Y-6629643D01*
X4002738Y-6629643D01*
X4021786Y-6639167D01*
X4031309Y-6648690D01*
X4040833Y-6667738D01*
X4040833Y-6724881D01*
X4031309Y-6743928D01*
X4021786Y-6753452D01*
X4002738Y-6762976D01*
X3964643Y-6762976D01*
X3945595Y-6753452D01*
X4126548Y-6743928D02*
X4136071Y-6753452D01*
X4126548Y-6762976D01*
X4117024Y-6753452D01*
X4126548Y-6743928D01*
X4126548Y-6762976D01*
X4126548Y-6639167D02*
X4136071Y-6648690D01*
X4126548Y-6658214D01*
X4117024Y-6648690D01*
X4126548Y-6639167D01*
X4126548Y-6658214D01*
D12*
X2432500Y-7060000D02*
X2497500Y-7125000D01*
X2497500Y-7060000D02*
X2432500Y-7125000D01*
D11*
X2793214Y-6982976D02*
X2812262Y-6982976D01*
X2831309Y-6992500D01*
X2840833Y-7002024D01*
X2850357Y-7021071D01*
X2859881Y-7059167D01*
X2859881Y-7106786D01*
X2850357Y-7144881D01*
X2840833Y-7163928D01*
X2831309Y-7173452D01*
X2812262Y-7182976D01*
X2793214Y-7182976D01*
X2774167Y-7173452D01*
X2764643Y-7163928D01*
X2755119Y-7144881D01*
X2745595Y-7106786D01*
X2745595Y-7059167D01*
X2755119Y-7021071D01*
X2764643Y-7002024D01*
X2774167Y-6992500D01*
X2793214Y-6982976D01*
X2945595Y-7163928D02*
X2955119Y-7173452D01*
X2945595Y-7182976D01*
X2936071Y-7173452D01*
X2945595Y-7163928D01*
X2945595Y-7182976D01*
X3126548Y-6982976D02*
X3088452Y-6982976D01*
X3069405Y-6992500D01*
X3059881Y-7002024D01*
X3040833Y-7030595D01*
X3031309Y-7068690D01*
X3031309Y-7144881D01*
X3040833Y-7163928D01*
X3050357Y-7173452D01*
X3069405Y-7182976D01*
X3107500Y-7182976D01*
X3126548Y-7173452D01*
X3136071Y-7163928D01*
X3145595Y-7144881D01*
X3145595Y-7097262D01*
X3136071Y-7078214D01*
X3126548Y-7068690D01*
X3107500Y-7059167D01*
X3069405Y-7059167D01*
X3050357Y-7068690D01*
X3040833Y-7078214D01*
X3031309Y-7097262D01*
X3326548Y-6982976D02*
X3231309Y-6982976D01*
X3221786Y-7078214D01*
X3231309Y-7068690D01*
X3250357Y-7059167D01*
X3297976Y-7059167D01*
X3317024Y-7068690D01*
X3326548Y-7078214D01*
X3336071Y-7097262D01*
X3336071Y-7144881D01*
X3326548Y-7163928D01*
X3317024Y-7173452D01*
X3297976Y-7182976D01*
X3250357Y-7182976D01*
X3231309Y-7173452D01*
X3221786Y-7163928D01*
X3459881Y-6982976D02*
X3478928Y-6982976D01*
X3497976Y-6992500D01*
X3507500Y-7002024D01*
X3517024Y-7021071D01*
X3526548Y-7059167D01*
X3526548Y-7106786D01*
X3517024Y-7144881D01*
X3507500Y-7163928D01*
X3497976Y-7173452D01*
X3478928Y-7182976D01*
X3459881Y-7182976D01*
X3440833Y-7173452D01*
X3431309Y-7163928D01*
X3421786Y-7144881D01*
X3412262Y-7106786D01*
X3412262Y-7059167D01*
X3421786Y-7021071D01*
X3431309Y-7002024D01*
X3440833Y-6992500D01*
X3459881Y-6982976D01*
X3612262Y-7182976D02*
X3612262Y-7049643D01*
X3612262Y-7068690D02*
X3621786Y-7059167D01*
X3640833Y-7049643D01*
X3669405Y-7049643D01*
X3688452Y-7059167D01*
X3697976Y-7078214D01*
X3697976Y-7182976D01*
X3697976Y-7078214D02*
X3707500Y-7059167D01*
X3726548Y-7049643D01*
X3755119Y-7049643D01*
X3774167Y-7059167D01*
X3783690Y-7078214D01*
X3783690Y-7182976D01*
X3878928Y-7182976D02*
X3878928Y-7049643D01*
X3878928Y-7068690D02*
X3888452Y-7059167D01*
X3907500Y-7049643D01*
X3936071Y-7049643D01*
X3955119Y-7059167D01*
X3964643Y-7078214D01*
X3964643Y-7182976D01*
X3964643Y-7078214D02*
X3974167Y-7059167D01*
X3993214Y-7049643D01*
X4021786Y-7049643D01*
X4040833Y-7059167D01*
X4050357Y-7078214D01*
X4050357Y-7182976D01*
X4440833Y-6973452D02*
X4269405Y-7230595D01*
X4697976Y-6982976D02*
X4717024Y-6982976D01*
X4736071Y-6992500D01*
X4745595Y-7002024D01*
X4755119Y-7021071D01*
X4764643Y-7059167D01*
X4764643Y-7106786D01*
X4755119Y-7144881D01*
X4745595Y-7163928D01*
X4736071Y-7173452D01*
X4717024Y-7182976D01*
X4697976Y-7182976D01*
X4678929Y-7173452D01*
X4669405Y-7163928D01*
X4659881Y-7144881D01*
X4650357Y-7106786D01*
X4650357Y-7059167D01*
X4659881Y-7021071D01*
X4669405Y-7002024D01*
X4678929Y-6992500D01*
X4697976Y-6982976D01*
X4850357Y-7163928D02*
X4859881Y-7173452D01*
X4850357Y-7182976D01*
X4840833Y-7173452D01*
X4850357Y-7163928D01*
X4850357Y-7182976D01*
X4983690Y-6982976D02*
X5002738Y-6982976D01*
X5021786Y-6992500D01*
X5031310Y-7002024D01*
X5040833Y-7021071D01*
X5050357Y-7059167D01*
X5050357Y-7106786D01*
X5040833Y-7144881D01*
X5031310Y-7163928D01*
X5021786Y-7173452D01*
X5002738Y-7182976D01*
X4983690Y-7182976D01*
X4964643Y-7173452D01*
X4955119Y-7163928D01*
X4945595Y-7144881D01*
X4936071Y-7106786D01*
X4936071Y-7059167D01*
X4945595Y-7021071D01*
X4955119Y-7002024D01*
X4964643Y-6992500D01*
X4983690Y-6982976D01*
X5126548Y-7002024D02*
X5136071Y-6992500D01*
X5155119Y-6982976D01*
X5202738Y-6982976D01*
X5221786Y-6992500D01*
X5231310Y-7002024D01*
X5240833Y-7021071D01*
X5240833Y-7040119D01*
X5231310Y-7068690D01*
X5117024Y-7182976D01*
X5240833Y-7182976D01*
X5421786Y-6982976D02*
X5326548Y-6982976D01*
X5317024Y-7078214D01*
X5326548Y-7068690D01*
X5345595Y-7059167D01*
X5393214Y-7059167D01*
X5412262Y-7068690D01*
X5421786Y-7078214D01*
X5431310Y-7097262D01*
X5431310Y-7144881D01*
X5421786Y-7163928D01*
X5412262Y-7173452D01*
X5393214Y-7182976D01*
X5345595Y-7182976D01*
X5326548Y-7173452D01*
X5317024Y-7163928D01*
X5602738Y-6982976D02*
X5564643Y-6982976D01*
X5545595Y-6992500D01*
X5536071Y-7002024D01*
X5517024Y-7030595D01*
X5507500Y-7068690D01*
X5507500Y-7144881D01*
X5517024Y-7163928D01*
X5526548Y-7173452D01*
X5545595Y-7182976D01*
X5583690Y-7182976D01*
X5602738Y-7173452D01*
X5612262Y-7163928D01*
X5621786Y-7144881D01*
X5621786Y-7097262D01*
X5612262Y-7078214D01*
X5602738Y-7068690D01*
X5583690Y-7059167D01*
X5545595Y-7059167D01*
X5526548Y-7068690D01*
X5517024Y-7078214D01*
X5507500Y-7097262D01*
X5697976Y-6982976D02*
X5697976Y-7021071D01*
X5774167Y-6982976D02*
X5774167Y-7021071D01*
X6069405Y-7259167D02*
X6059881Y-7249643D01*
X6040833Y-7221071D01*
X6031309Y-7202024D01*
X6021786Y-7173452D01*
X6012262Y-7125833D01*
X6012262Y-7087738D01*
X6021786Y-7040119D01*
X6031309Y-7011548D01*
X6040833Y-6992500D01*
X6059881Y-6963928D01*
X6069405Y-6954405D01*
X6136071Y-7002024D02*
X6145595Y-6992500D01*
X6164643Y-6982976D01*
X6212262Y-6982976D01*
X6231309Y-6992500D01*
X6240833Y-7002024D01*
X6250357Y-7021071D01*
X6250357Y-7040119D01*
X6240833Y-7068690D01*
X6126548Y-7182976D01*
X6250357Y-7182976D01*
X6488452Y-7182976D02*
X6488452Y-6982976D01*
X6574167Y-7182976D02*
X6574167Y-7078214D01*
X6564643Y-7059167D01*
X6545595Y-7049643D01*
X6517024Y-7049643D01*
X6497976Y-7059167D01*
X6488452Y-7068690D01*
X6697976Y-7182976D02*
X6678928Y-7173452D01*
X6669405Y-7163928D01*
X6659881Y-7144881D01*
X6659881Y-7087738D01*
X6669405Y-7068690D01*
X6678928Y-7059167D01*
X6697976Y-7049643D01*
X6726548Y-7049643D01*
X6745595Y-7059167D01*
X6755119Y-7068690D01*
X6764643Y-7087738D01*
X6764643Y-7144881D01*
X6755119Y-7163928D01*
X6745595Y-7173452D01*
X6726548Y-7182976D01*
X6697976Y-7182976D01*
X6878928Y-7182976D02*
X6859881Y-7173452D01*
X6850357Y-7154405D01*
X6850357Y-6982976D01*
X7031309Y-7173452D02*
X7012262Y-7182976D01*
X6974167Y-7182976D01*
X6955119Y-7173452D01*
X6945595Y-7154405D01*
X6945595Y-7078214D01*
X6955119Y-7059167D01*
X6974167Y-7049643D01*
X7012262Y-7049643D01*
X7031309Y-7059167D01*
X7040833Y-7078214D01*
X7040833Y-7097262D01*
X6945595Y-7116309D01*
X7117024Y-7173452D02*
X7136071Y-7182976D01*
X7174167Y-7182976D01*
X7193214Y-7173452D01*
X7202738Y-7154405D01*
X7202738Y-7144881D01*
X7193214Y-7125833D01*
X7174167Y-7116309D01*
X7145595Y-7116309D01*
X7126548Y-7106786D01*
X7117024Y-7087738D01*
X7117024Y-7078214D01*
X7126548Y-7059167D01*
X7145595Y-7049643D01*
X7174167Y-7049643D01*
X7193214Y-7059167D01*
X7269405Y-7259167D02*
X7278928Y-7249643D01*
X7297976Y-7221071D01*
X7307500Y-7202024D01*
X7317024Y-7173452D01*
X7326548Y-7125833D01*
X7326548Y-7087738D01*
X7317024Y-7040119D01*
X7307500Y-7011548D01*
X7297976Y-6992500D01*
X7278928Y-6963928D01*
X7269405Y-6954405D01*
X7631309Y-7259167D02*
X7621786Y-7249643D01*
X7602738Y-7221071D01*
X7593214Y-7202024D01*
X7583690Y-7173452D01*
X7574167Y-7125833D01*
X7574167Y-7087738D01*
X7583690Y-7040119D01*
X7593214Y-7011548D01*
X7602738Y-6992500D01*
X7621786Y-6963928D01*
X7631309Y-6954405D01*
X7707500Y-7049643D02*
X7707500Y-7182976D01*
X7707500Y-7068690D02*
X7717024Y-7059167D01*
X7736071Y-7049643D01*
X7764643Y-7049643D01*
X7783690Y-7059167D01*
X7793214Y-7078214D01*
X7793214Y-7182976D01*
X7917024Y-7182976D02*
X7897976Y-7173452D01*
X7888452Y-7163928D01*
X7878928Y-7144881D01*
X7878928Y-7087738D01*
X7888452Y-7068690D01*
X7897976Y-7059167D01*
X7917024Y-7049643D01*
X7945595Y-7049643D01*
X7964643Y-7059167D01*
X7974167Y-7068690D01*
X7983690Y-7087738D01*
X7983690Y-7144881D01*
X7974167Y-7163928D01*
X7964643Y-7173452D01*
X7945595Y-7182976D01*
X7917024Y-7182976D01*
X8040833Y-7049643D02*
X8117024Y-7049643D01*
X8069405Y-6982976D02*
X8069405Y-7154405D01*
X8078928Y-7173452D01*
X8097976Y-7182976D01*
X8117024Y-7182976D01*
X8336071Y-7049643D02*
X8336071Y-7249643D01*
X8336071Y-7059167D02*
X8355119Y-7049643D01*
X8393214Y-7049643D01*
X8412262Y-7059167D01*
X8421786Y-7068690D01*
X8431310Y-7087738D01*
X8431310Y-7144881D01*
X8421786Y-7163928D01*
X8412262Y-7173452D01*
X8393214Y-7182976D01*
X8355119Y-7182976D01*
X8336071Y-7173452D01*
X8545595Y-7182976D02*
X8526548Y-7173452D01*
X8517024Y-7154405D01*
X8517024Y-6982976D01*
X8707500Y-7182976D02*
X8707500Y-7078214D01*
X8697976Y-7059167D01*
X8678929Y-7049643D01*
X8640833Y-7049643D01*
X8621786Y-7059167D01*
X8707500Y-7173452D02*
X8688452Y-7182976D01*
X8640833Y-7182976D01*
X8621786Y-7173452D01*
X8612262Y-7154405D01*
X8612262Y-7135357D01*
X8621786Y-7116309D01*
X8640833Y-7106786D01*
X8688452Y-7106786D01*
X8707500Y-7097262D01*
X8774167Y-7049643D02*
X8850357Y-7049643D01*
X8802738Y-6982976D02*
X8802738Y-7154405D01*
X8812262Y-7173452D01*
X8831310Y-7182976D01*
X8850357Y-7182976D01*
X8993214Y-7173452D02*
X8974167Y-7182976D01*
X8936071Y-7182976D01*
X8917024Y-7173452D01*
X8907500Y-7154405D01*
X8907500Y-7078214D01*
X8917024Y-7059167D01*
X8936071Y-7049643D01*
X8974167Y-7049643D01*
X8993214Y-7059167D01*
X9002738Y-7078214D01*
X9002738Y-7097262D01*
X8907500Y-7116309D01*
X9174167Y-7182976D02*
X9174167Y-6982976D01*
X9174167Y-7173452D02*
X9155119Y-7182976D01*
X9117024Y-7182976D01*
X9097976Y-7173452D01*
X9088452Y-7163928D01*
X9078929Y-7144881D01*
X9078929Y-7087738D01*
X9088452Y-7068690D01*
X9097976Y-7059167D01*
X9117024Y-7049643D01*
X9155119Y-7049643D01*
X9174167Y-7059167D01*
X9250357Y-7259167D02*
X9259881Y-7249643D01*
X9278929Y-7221071D01*
X9288452Y-7202024D01*
X9297976Y-7173452D01*
X9307500Y-7125833D01*
X9307500Y-7087738D01*
X9297976Y-7040119D01*
X9288452Y-7011548D01*
X9278929Y-6992500D01*
X9259881Y-6963928D01*
X9250357Y-6954405D01*
X2497500Y-7356500D02*
G75*
G03*
X2497500Y-7356500I-100000J0D01*
G01*
X2745595Y-7266024D02*
X2755119Y-7256500D01*
X2774167Y-7246976D01*
X2821786Y-7246976D01*
X2840833Y-7256500D01*
X2850357Y-7266024D01*
X2859881Y-7285071D01*
X2859881Y-7304119D01*
X2850357Y-7332690D01*
X2736071Y-7446976D01*
X2859881Y-7446976D01*
X2945595Y-7427928D02*
X2955119Y-7437452D01*
X2945595Y-7446976D01*
X2936071Y-7437452D01*
X2945595Y-7427928D01*
X2945595Y-7446976D01*
X3031309Y-7266024D02*
X3040833Y-7256500D01*
X3059881Y-7246976D01*
X3107500Y-7246976D01*
X3126548Y-7256500D01*
X3136071Y-7266024D01*
X3145595Y-7285071D01*
X3145595Y-7304119D01*
X3136071Y-7332690D01*
X3021786Y-7446976D01*
X3145595Y-7446976D01*
X3269405Y-7246976D02*
X3288452Y-7246976D01*
X3307500Y-7256500D01*
X3317024Y-7266024D01*
X3326548Y-7285071D01*
X3336071Y-7323167D01*
X3336071Y-7370786D01*
X3326548Y-7408881D01*
X3317024Y-7427928D01*
X3307500Y-7437452D01*
X3288452Y-7446976D01*
X3269405Y-7446976D01*
X3250357Y-7437452D01*
X3240833Y-7427928D01*
X3231309Y-7408881D01*
X3221786Y-7370786D01*
X3221786Y-7323167D01*
X3231309Y-7285071D01*
X3240833Y-7266024D01*
X3250357Y-7256500D01*
X3269405Y-7246976D01*
X3459881Y-7246976D02*
X3478928Y-7246976D01*
X3497976Y-7256500D01*
X3507500Y-7266024D01*
X3517024Y-7285071D01*
X3526548Y-7323167D01*
X3526548Y-7370786D01*
X3517024Y-7408881D01*
X3507500Y-7427928D01*
X3497976Y-7437452D01*
X3478928Y-7446976D01*
X3459881Y-7446976D01*
X3440833Y-7437452D01*
X3431309Y-7427928D01*
X3421786Y-7408881D01*
X3412262Y-7370786D01*
X3412262Y-7323167D01*
X3421786Y-7285071D01*
X3431309Y-7266024D01*
X3440833Y-7256500D01*
X3459881Y-7246976D01*
X3612262Y-7446976D02*
X3612262Y-7313643D01*
X3612262Y-7332690D02*
X3621786Y-7323167D01*
X3640833Y-7313643D01*
X3669405Y-7313643D01*
X3688452Y-7323167D01*
X3697976Y-7342214D01*
X3697976Y-7446976D01*
X3697976Y-7342214D02*
X3707500Y-7323167D01*
X3726548Y-7313643D01*
X3755119Y-7313643D01*
X3774167Y-7323167D01*
X3783690Y-7342214D01*
X3783690Y-7446976D01*
X3878928Y-7446976D02*
X3878928Y-7313643D01*
X3878928Y-7332690D02*
X3888452Y-7323167D01*
X3907500Y-7313643D01*
X3936071Y-7313643D01*
X3955119Y-7323167D01*
X3964643Y-7342214D01*
X3964643Y-7446976D01*
X3964643Y-7342214D02*
X3974167Y-7323167D01*
X3993214Y-7313643D01*
X4021786Y-7313643D01*
X4040833Y-7323167D01*
X4050357Y-7342214D01*
X4050357Y-7446976D01*
X4440833Y-7237452D02*
X4269405Y-7494595D01*
X4697976Y-7246976D02*
X4717024Y-7246976D01*
X4736071Y-7256500D01*
X4745595Y-7266024D01*
X4755119Y-7285071D01*
X4764643Y-7323167D01*
X4764643Y-7370786D01*
X4755119Y-7408881D01*
X4745595Y-7427928D01*
X4736071Y-7437452D01*
X4717024Y-7446976D01*
X4697976Y-7446976D01*
X4678929Y-7437452D01*
X4669405Y-7427928D01*
X4659881Y-7408881D01*
X4650357Y-7370786D01*
X4650357Y-7323167D01*
X4659881Y-7285071D01*
X4669405Y-7266024D01*
X4678929Y-7256500D01*
X4697976Y-7246976D01*
X4850357Y-7427928D02*
X4859881Y-7437452D01*
X4850357Y-7446976D01*
X4840833Y-7437452D01*
X4850357Y-7427928D01*
X4850357Y-7446976D01*
X4983690Y-7246976D02*
X5002738Y-7246976D01*
X5021786Y-7256500D01*
X5031310Y-7266024D01*
X5040833Y-7285071D01*
X5050357Y-7323167D01*
X5050357Y-7370786D01*
X5040833Y-7408881D01*
X5031310Y-7427928D01*
X5021786Y-7437452D01*
X5002738Y-7446976D01*
X4983690Y-7446976D01*
X4964643Y-7437452D01*
X4955119Y-7427928D01*
X4945595Y-7408881D01*
X4936071Y-7370786D01*
X4936071Y-7323167D01*
X4945595Y-7285071D01*
X4955119Y-7266024D01*
X4964643Y-7256500D01*
X4983690Y-7246976D01*
X5164643Y-7332690D02*
X5145595Y-7323167D01*
X5136071Y-7313643D01*
X5126548Y-7294595D01*
X5126548Y-7285071D01*
X5136071Y-7266024D01*
X5145595Y-7256500D01*
X5164643Y-7246976D01*
X5202738Y-7246976D01*
X5221786Y-7256500D01*
X5231310Y-7266024D01*
X5240833Y-7285071D01*
X5240833Y-7294595D01*
X5231310Y-7313643D01*
X5221786Y-7323167D01*
X5202738Y-7332690D01*
X5164643Y-7332690D01*
X5145595Y-7342214D01*
X5136071Y-7351738D01*
X5126548Y-7370786D01*
X5126548Y-7408881D01*
X5136071Y-7427928D01*
X5145595Y-7437452D01*
X5164643Y-7446976D01*
X5202738Y-7446976D01*
X5221786Y-7437452D01*
X5231310Y-7427928D01*
X5240833Y-7408881D01*
X5240833Y-7370786D01*
X5231310Y-7351738D01*
X5221786Y-7342214D01*
X5202738Y-7332690D01*
X5412262Y-7246976D02*
X5374167Y-7246976D01*
X5355119Y-7256500D01*
X5345595Y-7266024D01*
X5326548Y-7294595D01*
X5317024Y-7332690D01*
X5317024Y-7408881D01*
X5326548Y-7427928D01*
X5336071Y-7437452D01*
X5355119Y-7446976D01*
X5393214Y-7446976D01*
X5412262Y-7437452D01*
X5421786Y-7427928D01*
X5431310Y-7408881D01*
X5431310Y-7361262D01*
X5421786Y-7342214D01*
X5412262Y-7332690D01*
X5393214Y-7323167D01*
X5355119Y-7323167D01*
X5336071Y-7332690D01*
X5326548Y-7342214D01*
X5317024Y-7361262D01*
X5602738Y-7246976D02*
X5564643Y-7246976D01*
X5545595Y-7256500D01*
X5536071Y-7266024D01*
X5517024Y-7294595D01*
X5507500Y-7332690D01*
X5507500Y-7408881D01*
X5517024Y-7427928D01*
X5526548Y-7437452D01*
X5545595Y-7446976D01*
X5583690Y-7446976D01*
X5602738Y-7437452D01*
X5612262Y-7427928D01*
X5621786Y-7408881D01*
X5621786Y-7361262D01*
X5612262Y-7342214D01*
X5602738Y-7332690D01*
X5583690Y-7323167D01*
X5545595Y-7323167D01*
X5526548Y-7332690D01*
X5517024Y-7342214D01*
X5507500Y-7361262D01*
X5697976Y-7246976D02*
X5697976Y-7285071D01*
X5774167Y-7246976D02*
X5774167Y-7285071D01*
X6069405Y-7523167D02*
X6059881Y-7513643D01*
X6040833Y-7485071D01*
X6031309Y-7466024D01*
X6021786Y-7437452D01*
X6012262Y-7389833D01*
X6012262Y-7351738D01*
X6021786Y-7304119D01*
X6031309Y-7275548D01*
X6040833Y-7256500D01*
X6059881Y-7227928D01*
X6069405Y-7218405D01*
X6231309Y-7313643D02*
X6231309Y-7446976D01*
X6183690Y-7237452D02*
X6136071Y-7380309D01*
X6259881Y-7380309D01*
X6488452Y-7446976D02*
X6488452Y-7246976D01*
X6574167Y-7446976D02*
X6574167Y-7342214D01*
X6564643Y-7323167D01*
X6545595Y-7313643D01*
X6517024Y-7313643D01*
X6497976Y-7323167D01*
X6488452Y-7332690D01*
X6697976Y-7446976D02*
X6678928Y-7437452D01*
X6669405Y-7427928D01*
X6659881Y-7408881D01*
X6659881Y-7351738D01*
X6669405Y-7332690D01*
X6678928Y-7323167D01*
X6697976Y-7313643D01*
X6726548Y-7313643D01*
X6745595Y-7323167D01*
X6755119Y-7332690D01*
X6764643Y-7351738D01*
X6764643Y-7408881D01*
X6755119Y-7427928D01*
X6745595Y-7437452D01*
X6726548Y-7446976D01*
X6697976Y-7446976D01*
X6878928Y-7446976D02*
X6859881Y-7437452D01*
X6850357Y-7418405D01*
X6850357Y-7246976D01*
X7031309Y-7437452D02*
X7012262Y-7446976D01*
X6974167Y-7446976D01*
X6955119Y-7437452D01*
X6945595Y-7418405D01*
X6945595Y-7342214D01*
X6955119Y-7323167D01*
X6974167Y-7313643D01*
X7012262Y-7313643D01*
X7031309Y-7323167D01*
X7040833Y-7342214D01*
X7040833Y-7361262D01*
X6945595Y-7380309D01*
X7117024Y-7437452D02*
X7136071Y-7446976D01*
X7174167Y-7446976D01*
X7193214Y-7437452D01*
X7202738Y-7418405D01*
X7202738Y-7408881D01*
X7193214Y-7389833D01*
X7174167Y-7380309D01*
X7145595Y-7380309D01*
X7126548Y-7370786D01*
X7117024Y-7351738D01*
X7117024Y-7342214D01*
X7126548Y-7323167D01*
X7145595Y-7313643D01*
X7174167Y-7313643D01*
X7193214Y-7323167D01*
X7269405Y-7523167D02*
X7278928Y-7513643D01*
X7297976Y-7485071D01*
X7307500Y-7466024D01*
X7317024Y-7437452D01*
X7326548Y-7389833D01*
X7326548Y-7351738D01*
X7317024Y-7304119D01*
X7307500Y-7275548D01*
X7297976Y-7256500D01*
X7278928Y-7227928D01*
X7269405Y-7218405D01*
X7631309Y-7523167D02*
X7621786Y-7513643D01*
X7602738Y-7485071D01*
X7593214Y-7466024D01*
X7583690Y-7437452D01*
X7574167Y-7389833D01*
X7574167Y-7351738D01*
X7583690Y-7304119D01*
X7593214Y-7275548D01*
X7602738Y-7256500D01*
X7621786Y-7227928D01*
X7631309Y-7218405D01*
X7707500Y-7313643D02*
X7707500Y-7446976D01*
X7707500Y-7332690D02*
X7717024Y-7323167D01*
X7736071Y-7313643D01*
X7764643Y-7313643D01*
X7783690Y-7323167D01*
X7793214Y-7342214D01*
X7793214Y-7446976D01*
X7917024Y-7446976D02*
X7897976Y-7437452D01*
X7888452Y-7427928D01*
X7878928Y-7408881D01*
X7878928Y-7351738D01*
X7888452Y-7332690D01*
X7897976Y-7323167D01*
X7917024Y-7313643D01*
X7945595Y-7313643D01*
X7964643Y-7323167D01*
X7974167Y-7332690D01*
X7983690Y-7351738D01*
X7983690Y-7408881D01*
X7974167Y-7427928D01*
X7964643Y-7437452D01*
X7945595Y-7446976D01*
X7917024Y-7446976D01*
X8040833Y-7313643D02*
X8117024Y-7313643D01*
X8069405Y-7246976D02*
X8069405Y-7418405D01*
X8078928Y-7437452D01*
X8097976Y-7446976D01*
X8117024Y-7446976D01*
X8336071Y-7313643D02*
X8336071Y-7513643D01*
X8336071Y-7323167D02*
X8355119Y-7313643D01*
X8393214Y-7313643D01*
X8412262Y-7323167D01*
X8421786Y-7332690D01*
X8431310Y-7351738D01*
X8431310Y-7408881D01*
X8421786Y-7427928D01*
X8412262Y-7437452D01*
X8393214Y-7446976D01*
X8355119Y-7446976D01*
X8336071Y-7437452D01*
X8545595Y-7446976D02*
X8526548Y-7437452D01*
X8517024Y-7418405D01*
X8517024Y-7246976D01*
X8707500Y-7446976D02*
X8707500Y-7342214D01*
X8697976Y-7323167D01*
X8678929Y-7313643D01*
X8640833Y-7313643D01*
X8621786Y-7323167D01*
X8707500Y-7437452D02*
X8688452Y-7446976D01*
X8640833Y-7446976D01*
X8621786Y-7437452D01*
X8612262Y-7418405D01*
X8612262Y-7399357D01*
X8621786Y-7380309D01*
X8640833Y-7370786D01*
X8688452Y-7370786D01*
X8707500Y-7361262D01*
X8774167Y-7313643D02*
X8850357Y-7313643D01*
X8802738Y-7246976D02*
X8802738Y-7418405D01*
X8812262Y-7437452D01*
X8831310Y-7446976D01*
X8850357Y-7446976D01*
X8993214Y-7437452D02*
X8974167Y-7446976D01*
X8936071Y-7446976D01*
X8917024Y-7437452D01*
X8907500Y-7418405D01*
X8907500Y-7342214D01*
X8917024Y-7323167D01*
X8936071Y-7313643D01*
X8974167Y-7313643D01*
X8993214Y-7323167D01*
X9002738Y-7342214D01*
X9002738Y-7361262D01*
X8907500Y-7380309D01*
X9174167Y-7446976D02*
X9174167Y-7246976D01*
X9174167Y-7437452D02*
X9155119Y-7446976D01*
X9117024Y-7446976D01*
X9097976Y-7437452D01*
X9088452Y-7427928D01*
X9078929Y-7408881D01*
X9078929Y-7351738D01*
X9088452Y-7332690D01*
X9097976Y-7323167D01*
X9117024Y-7313643D01*
X9155119Y-7313643D01*
X9174167Y-7323167D01*
X9250357Y-7523167D02*
X9259881Y-7513643D01*
X9278929Y-7485071D01*
X9288452Y-7466024D01*
X9297976Y-7437452D01*
X9307500Y-7389833D01*
X9307500Y-7351738D01*
X9297976Y-7304119D01*
X9288452Y-7275548D01*
X9278929Y-7256500D01*
X9259881Y-7227928D01*
X9250357Y-7218405D01*
M02*
