%TF.GenerationSoftware,KiCad,Pcbnew,6.0.7+dfsg-1build1*%
%TF.CreationDate,2023-01-24T23:00:55+01:00*%
%TF.ProjectId,epaper-breakout,65706170-6572-42d6-9272-65616b6f7574,rev?*%
%TF.SameCoordinates,Original*%
%TF.FileFunction,Soldermask,Bot*%
%TF.FilePolarity,Negative*%
%FSLAX46Y46*%
G04 Gerber Fmt 4.6, Leading zero omitted, Abs format (unit mm)*
G04 Created by KiCad (PCBNEW 6.0.7+dfsg-1build1) date 2023-01-24 23:00:55*
%MOMM*%
%LPD*%
G01*
G04 APERTURE LIST*
G04 Aperture macros list*
%AMRoundRect*
0 Rectangle with rounded corners*
0 $1 Rounding radius*
0 $2 $3 $4 $5 $6 $7 $8 $9 X,Y pos of 4 corners*
0 Add a 4 corners polygon primitive as box body*
4,1,4,$2,$3,$4,$5,$6,$7,$8,$9,$2,$3,0*
0 Add four circle primitives for the rounded corners*
1,1,$1+$1,$2,$3*
1,1,$1+$1,$4,$5*
1,1,$1+$1,$6,$7*
1,1,$1+$1,$8,$9*
0 Add four rect primitives between the rounded corners*
20,1,$1+$1,$2,$3,$4,$5,0*
20,1,$1+$1,$4,$5,$6,$7,0*
20,1,$1+$1,$6,$7,$8,$9,0*
20,1,$1+$1,$8,$9,$2,$3,0*%
G04 Aperture macros list end*
%TA.AperFunction,Profile*%
%ADD10C,0.050000*%
%TD*%
%ADD11C,2.302000*%
%ADD12C,0.610000*%
%ADD13RoundRect,0.051000X-0.850000X-0.850000X0.850000X-0.850000X0.850000X0.850000X-0.850000X0.850000X0*%
%ADD14O,1.802000X1.802000*%
%ADD15RoundRect,0.051000X0.850000X0.850000X-0.850000X0.850000X-0.850000X-0.850000X0.850000X-0.850000X0*%
%ADD16RoundRect,0.051000X0.850000X-0.850000X0.850000X0.850000X-0.850000X0.850000X-0.850000X-0.850000X0*%
%ADD17C,0.752000*%
%ADD18O,1.702000X1.102000*%
%ADD19O,2.202000X1.102000*%
G04 APERTURE END LIST*
D10*
X25000000Y-62500000D02*
X25000000Y-11500000D01*
X27000000Y-64500000D02*
X81300000Y-64485786D01*
X125000000Y-11500000D02*
X125000000Y-62500000D01*
X27000000Y-9500000D02*
X123000000Y-9500000D01*
X27000000Y-9500000D02*
G75*
G03*
X25000000Y-11500000I0J-2000000D01*
G01*
X85300000Y-57600000D02*
G75*
G03*
X83300000Y-59600000I0J-2000000D01*
G01*
X83300000Y-62485786D02*
X83300000Y-59600000D01*
X81300000Y-64485800D02*
G75*
G03*
X83300000Y-62485786I0J2000000D01*
G01*
X110666214Y-62485786D02*
G75*
G03*
X112666214Y-64485786I1999986J-14D01*
G01*
X88700000Y-57600000D02*
X85300000Y-57600000D01*
X125000000Y-11500000D02*
G75*
G03*
X123000000Y-9500000I-2000000J0D01*
G01*
X25000000Y-62500000D02*
G75*
G03*
X27000000Y-64500000I2000000J0D01*
G01*
X110666214Y-62485786D02*
X110685791Y-59614213D01*
X123000000Y-64500000D02*
G75*
G03*
X125000000Y-62500000I0J2000000D01*
G01*
X112666214Y-64485786D02*
X123000000Y-64500000D01*
X110685787Y-59614213D02*
G75*
G03*
X108685791Y-57614213I-1999987J13D01*
G01*
X108685791Y-57614213D02*
X88700000Y-57600000D01*
X25000000Y-62500000D02*
X25000000Y-11500000D01*
X27000000Y-64500000D02*
X81300000Y-64485786D01*
X125000000Y-11500000D02*
X125000000Y-62500000D01*
X27000000Y-9500000D02*
X123000000Y-9500000D01*
X27000000Y-9500000D02*
G75*
G03*
X25000000Y-11500000I0J-2000000D01*
G01*
X85300000Y-57600000D02*
G75*
G03*
X83300000Y-59600000I0J-2000000D01*
G01*
X83300000Y-62485786D02*
X83300000Y-59600000D01*
X81300000Y-64485800D02*
G75*
G03*
X83300000Y-62485786I0J2000000D01*
G01*
X110666214Y-62485786D02*
G75*
G03*
X112666214Y-64485786I1999986J-14D01*
G01*
X88700000Y-57600000D02*
X85300000Y-57600000D01*
X125000000Y-11500000D02*
G75*
G03*
X123000000Y-9500000I-2000000J0D01*
G01*
X25000000Y-62500000D02*
G75*
G03*
X27000000Y-64500000I2000000J0D01*
G01*
X110666214Y-62485786D02*
X110685791Y-59614213D01*
X123000000Y-64500000D02*
G75*
G03*
X125000000Y-62500000I0J2000000D01*
G01*
X112666214Y-64485786D02*
X123000000Y-64500000D01*
X110685787Y-59614213D02*
G75*
G03*
X108685791Y-57614213I-1999987J13D01*
G01*
X108685791Y-57614213D02*
X88700000Y-57600000D01*
D11*
X122500000Y-12000000D03*
D12*
X65811400Y-46228000D03*
X63449200Y-46228000D03*
X65811400Y-44653200D03*
X66598800Y-46228000D03*
X65024000Y-45440600D03*
X65024000Y-44653200D03*
X64236600Y-45440600D03*
X66598800Y-47802800D03*
X63449200Y-47015400D03*
X65811400Y-45440600D03*
X64236600Y-44653200D03*
X65024000Y-47015400D03*
X64236600Y-47015400D03*
X66598800Y-45440600D03*
X65024000Y-46228000D03*
X65811400Y-47802800D03*
X63449200Y-45440600D03*
X64236600Y-47802800D03*
X64236600Y-46228000D03*
X65024000Y-47802800D03*
X63449200Y-44653200D03*
X65811400Y-47015400D03*
X66598800Y-44653200D03*
X63449200Y-47802800D03*
X66598800Y-47015400D03*
D11*
X122500000Y-62000000D03*
X27500000Y-62000000D03*
D13*
X27350000Y-49275000D03*
D14*
X27350000Y-51815000D03*
D15*
X27100000Y-20375000D03*
D14*
X27100000Y-17835000D03*
D15*
X122936000Y-50800000D03*
D14*
X122936000Y-48260000D03*
X122936000Y-45720000D03*
X122936000Y-43180000D03*
X122936000Y-40640000D03*
X122936000Y-38100000D03*
X122936000Y-35560000D03*
X122936000Y-33020000D03*
X122936000Y-30480000D03*
X122936000Y-27940000D03*
D16*
X66000000Y-11300000D03*
D14*
X68540000Y-11300000D03*
X71080000Y-11300000D03*
X73620000Y-11300000D03*
X76160000Y-11300000D03*
X78700000Y-11300000D03*
X81240000Y-11300000D03*
X83780000Y-11300000D03*
X86320000Y-11300000D03*
X88860000Y-11300000D03*
X91400000Y-11300000D03*
X93940000Y-11300000D03*
D16*
X31875000Y-11300000D03*
D14*
X34415000Y-11300000D03*
X36955000Y-11300000D03*
X39495000Y-11300000D03*
X42035000Y-11300000D03*
X44575000Y-11300000D03*
X47115000Y-11300000D03*
X49655000Y-11300000D03*
X52195000Y-11300000D03*
X54735000Y-11300000D03*
X57275000Y-11300000D03*
X59815000Y-11300000D03*
X62355000Y-11300000D03*
D11*
X27500000Y-12000000D03*
D17*
X31740000Y-33190000D03*
X31740000Y-27410000D03*
D18*
X28090000Y-34620000D03*
D19*
X32270000Y-25980000D03*
D18*
X28090000Y-25980000D03*
D19*
X32270000Y-34620000D03*
G36*
X63737581Y-47698655D02*
G01*
X63776157Y-47743326D01*
X63842578Y-47762950D01*
X63909067Y-47743547D01*
X63948173Y-47698971D01*
X63950067Y-47698328D01*
X63951570Y-47699647D01*
X63951646Y-47700637D01*
X63933631Y-47802800D01*
X63951777Y-47905711D01*
X63951093Y-47907590D01*
X63949123Y-47907937D01*
X63948277Y-47907347D01*
X63911129Y-47863252D01*
X63844956Y-47842819D01*
X63778232Y-47861409D01*
X63737625Y-47906573D01*
X63735724Y-47907193D01*
X63734236Y-47905855D01*
X63734168Y-47904889D01*
X63752169Y-47802800D01*
X63734097Y-47700309D01*
X63734781Y-47698430D01*
X63736751Y-47698083D01*
X63737581Y-47698655D01*
G37*
G36*
X64524981Y-47698655D02*
G01*
X64563557Y-47743326D01*
X64629978Y-47762950D01*
X64696467Y-47743547D01*
X64735573Y-47698971D01*
X64737467Y-47698328D01*
X64738970Y-47699647D01*
X64739046Y-47700637D01*
X64721031Y-47802800D01*
X64739177Y-47905711D01*
X64738493Y-47907590D01*
X64736523Y-47907937D01*
X64735677Y-47907347D01*
X64698529Y-47863252D01*
X64632356Y-47842819D01*
X64565632Y-47861409D01*
X64525025Y-47906573D01*
X64523124Y-47907193D01*
X64521636Y-47905855D01*
X64521568Y-47904889D01*
X64539569Y-47802800D01*
X64521497Y-47700309D01*
X64522181Y-47698430D01*
X64524151Y-47698083D01*
X64524981Y-47698655D01*
G37*
G36*
X66099781Y-47698655D02*
G01*
X66138357Y-47743326D01*
X66204778Y-47762950D01*
X66271267Y-47743547D01*
X66310373Y-47698971D01*
X66312267Y-47698328D01*
X66313770Y-47699647D01*
X66313846Y-47700637D01*
X66295831Y-47802800D01*
X66313977Y-47905711D01*
X66313293Y-47907590D01*
X66311323Y-47907937D01*
X66310477Y-47907347D01*
X66273329Y-47863252D01*
X66207156Y-47842819D01*
X66140432Y-47861409D01*
X66099825Y-47906573D01*
X66097924Y-47907193D01*
X66096436Y-47905855D01*
X66096368Y-47904889D01*
X66114369Y-47802800D01*
X66096297Y-47700309D01*
X66096981Y-47698430D01*
X66098951Y-47698083D01*
X66099781Y-47698655D01*
G37*
G36*
X65312381Y-47698655D02*
G01*
X65350957Y-47743326D01*
X65417378Y-47762950D01*
X65483867Y-47743547D01*
X65522973Y-47698971D01*
X65524867Y-47698328D01*
X65526370Y-47699647D01*
X65526446Y-47700637D01*
X65508431Y-47802800D01*
X65526577Y-47905711D01*
X65525893Y-47907590D01*
X65523923Y-47907937D01*
X65523077Y-47907347D01*
X65485929Y-47863252D01*
X65419756Y-47842819D01*
X65353032Y-47861409D01*
X65312425Y-47906573D01*
X65310524Y-47907193D01*
X65309036Y-47905855D01*
X65308968Y-47904889D01*
X65326969Y-47802800D01*
X65308897Y-47700309D01*
X65309581Y-47698430D01*
X65311551Y-47698083D01*
X65312381Y-47698655D01*
G37*
G36*
X64971389Y-47313766D02*
G01*
X65076611Y-47313766D01*
X65155961Y-47284886D01*
X65157931Y-47285233D01*
X65158615Y-47287112D01*
X65157691Y-47288469D01*
X65131147Y-47304766D01*
X65084527Y-47356388D01*
X65073264Y-47424724D01*
X65100731Y-47488293D01*
X65138888Y-47513509D01*
X65139781Y-47515299D01*
X65139463Y-47516266D01*
X65139143Y-47516760D01*
X65161071Y-47530973D01*
X65161980Y-47532754D01*
X65160893Y-47534432D01*
X65159299Y-47534530D01*
X65076611Y-47504434D01*
X64971389Y-47504434D01*
X64890374Y-47533920D01*
X64888404Y-47533573D01*
X64887720Y-47531694D01*
X64888623Y-47530350D01*
X64912361Y-47515373D01*
X64911717Y-47514353D01*
X64911638Y-47512355D01*
X64912339Y-47511596D01*
X64947061Y-47489637D01*
X64976289Y-47426849D01*
X64966931Y-47358226D01*
X64921857Y-47305435D01*
X64893383Y-47292008D01*
X64893128Y-47291864D01*
X64885220Y-47286600D01*
X64884332Y-47284808D01*
X64885440Y-47283143D01*
X64887012Y-47283056D01*
X64971389Y-47313766D01*
G37*
G36*
X63396589Y-47313766D02*
G01*
X63501811Y-47313766D01*
X63581161Y-47284886D01*
X63583131Y-47285233D01*
X63583815Y-47287112D01*
X63582891Y-47288469D01*
X63556347Y-47304766D01*
X63509727Y-47356388D01*
X63498464Y-47424724D01*
X63525931Y-47488293D01*
X63564088Y-47513509D01*
X63564981Y-47515299D01*
X63564663Y-47516266D01*
X63564343Y-47516760D01*
X63586271Y-47530973D01*
X63587180Y-47532754D01*
X63586093Y-47534432D01*
X63584499Y-47534530D01*
X63501811Y-47504434D01*
X63396589Y-47504434D01*
X63315574Y-47533920D01*
X63313604Y-47533573D01*
X63312920Y-47531694D01*
X63313823Y-47530350D01*
X63337561Y-47515373D01*
X63336917Y-47514353D01*
X63336838Y-47512355D01*
X63337539Y-47511596D01*
X63372261Y-47489637D01*
X63401489Y-47426849D01*
X63392131Y-47358226D01*
X63347057Y-47305435D01*
X63318583Y-47292008D01*
X63318328Y-47291864D01*
X63310420Y-47286600D01*
X63309532Y-47284808D01*
X63310640Y-47283143D01*
X63312212Y-47283056D01*
X63396589Y-47313766D01*
G37*
G36*
X65758789Y-47313766D02*
G01*
X65864011Y-47313766D01*
X65943361Y-47284886D01*
X65945331Y-47285233D01*
X65946015Y-47287112D01*
X65945091Y-47288469D01*
X65918547Y-47304766D01*
X65871927Y-47356388D01*
X65860664Y-47424724D01*
X65888131Y-47488293D01*
X65926288Y-47513509D01*
X65927181Y-47515299D01*
X65926863Y-47516266D01*
X65926543Y-47516760D01*
X65948471Y-47530973D01*
X65949380Y-47532754D01*
X65948293Y-47534432D01*
X65946699Y-47534530D01*
X65864011Y-47504434D01*
X65758789Y-47504434D01*
X65677774Y-47533920D01*
X65675804Y-47533573D01*
X65675120Y-47531694D01*
X65676023Y-47530350D01*
X65699761Y-47515373D01*
X65699117Y-47514353D01*
X65699038Y-47512355D01*
X65699739Y-47511596D01*
X65734461Y-47489637D01*
X65763689Y-47426849D01*
X65754331Y-47358226D01*
X65709257Y-47305435D01*
X65680783Y-47292008D01*
X65680528Y-47291864D01*
X65672620Y-47286600D01*
X65671732Y-47284808D01*
X65672840Y-47283143D01*
X65674412Y-47283056D01*
X65758789Y-47313766D01*
G37*
G36*
X66546189Y-47313766D02*
G01*
X66651411Y-47313766D01*
X66730761Y-47284886D01*
X66732731Y-47285233D01*
X66733415Y-47287112D01*
X66732491Y-47288469D01*
X66705947Y-47304766D01*
X66659327Y-47356388D01*
X66648064Y-47424724D01*
X66675531Y-47488293D01*
X66713688Y-47513509D01*
X66714581Y-47515299D01*
X66714263Y-47516266D01*
X66713943Y-47516760D01*
X66735871Y-47530973D01*
X66736780Y-47532754D01*
X66735693Y-47534432D01*
X66734099Y-47534530D01*
X66651411Y-47504434D01*
X66546189Y-47504434D01*
X66465174Y-47533920D01*
X66463204Y-47533573D01*
X66462520Y-47531694D01*
X66463423Y-47530350D01*
X66487161Y-47515373D01*
X66486517Y-47514353D01*
X66486438Y-47512355D01*
X66487139Y-47511596D01*
X66521861Y-47489637D01*
X66551089Y-47426849D01*
X66541731Y-47358226D01*
X66496657Y-47305435D01*
X66468183Y-47292008D01*
X66467928Y-47291864D01*
X66460020Y-47286600D01*
X66459132Y-47284808D01*
X66460240Y-47283143D01*
X66461812Y-47283056D01*
X66546189Y-47313766D01*
G37*
G36*
X64183989Y-47313766D02*
G01*
X64289211Y-47313766D01*
X64368561Y-47284886D01*
X64370531Y-47285233D01*
X64371215Y-47287112D01*
X64370291Y-47288469D01*
X64343747Y-47304766D01*
X64297127Y-47356388D01*
X64285864Y-47424724D01*
X64313331Y-47488293D01*
X64351488Y-47513509D01*
X64352381Y-47515299D01*
X64352063Y-47516266D01*
X64351743Y-47516760D01*
X64373671Y-47530973D01*
X64374580Y-47532754D01*
X64373493Y-47534432D01*
X64371899Y-47534530D01*
X64289211Y-47504434D01*
X64183989Y-47504434D01*
X64102974Y-47533920D01*
X64101004Y-47533573D01*
X64100320Y-47531694D01*
X64101223Y-47530350D01*
X64124961Y-47515373D01*
X64124317Y-47514353D01*
X64124238Y-47512355D01*
X64124939Y-47511596D01*
X64159661Y-47489637D01*
X64188889Y-47426849D01*
X64179531Y-47358226D01*
X64134457Y-47305435D01*
X64105983Y-47292008D01*
X64105728Y-47291864D01*
X64097820Y-47286600D01*
X64096932Y-47284808D01*
X64098040Y-47283143D01*
X64099612Y-47283056D01*
X64183989Y-47313766D01*
G37*
G36*
X65312381Y-46911255D02*
G01*
X65350957Y-46955926D01*
X65417378Y-46975550D01*
X65483867Y-46956147D01*
X65522973Y-46911571D01*
X65524867Y-46910928D01*
X65526370Y-46912247D01*
X65526446Y-46913237D01*
X65508431Y-47015400D01*
X65526577Y-47118311D01*
X65525893Y-47120190D01*
X65523923Y-47120537D01*
X65523077Y-47119947D01*
X65485929Y-47075852D01*
X65419756Y-47055419D01*
X65353032Y-47074009D01*
X65312425Y-47119173D01*
X65310524Y-47119793D01*
X65309036Y-47118455D01*
X65308968Y-47117489D01*
X65326969Y-47015400D01*
X65308897Y-46912909D01*
X65309581Y-46911030D01*
X65311551Y-46910683D01*
X65312381Y-46911255D01*
G37*
G36*
X63737581Y-46911255D02*
G01*
X63776157Y-46955926D01*
X63842578Y-46975550D01*
X63909067Y-46956147D01*
X63948173Y-46911571D01*
X63950067Y-46910928D01*
X63951570Y-46912247D01*
X63951646Y-46913237D01*
X63933631Y-47015400D01*
X63951777Y-47118311D01*
X63951093Y-47120190D01*
X63949123Y-47120537D01*
X63948277Y-47119947D01*
X63911129Y-47075852D01*
X63844956Y-47055419D01*
X63778232Y-47074009D01*
X63737625Y-47119173D01*
X63735724Y-47119793D01*
X63734236Y-47118455D01*
X63734168Y-47117489D01*
X63752169Y-47015400D01*
X63734097Y-46912909D01*
X63734781Y-46911030D01*
X63736751Y-46910683D01*
X63737581Y-46911255D01*
G37*
G36*
X64524981Y-46911255D02*
G01*
X64563557Y-46955926D01*
X64629978Y-46975550D01*
X64696467Y-46956147D01*
X64735573Y-46911571D01*
X64737467Y-46910928D01*
X64738970Y-46912247D01*
X64739046Y-46913237D01*
X64721031Y-47015400D01*
X64739177Y-47118311D01*
X64738493Y-47120190D01*
X64736523Y-47120537D01*
X64735677Y-47119947D01*
X64698529Y-47075852D01*
X64632356Y-47055419D01*
X64565632Y-47074009D01*
X64525025Y-47119173D01*
X64523124Y-47119793D01*
X64521636Y-47118455D01*
X64521568Y-47117489D01*
X64539569Y-47015400D01*
X64521497Y-46912909D01*
X64522181Y-46911030D01*
X64524151Y-46910683D01*
X64524981Y-46911255D01*
G37*
G36*
X66099781Y-46911255D02*
G01*
X66138357Y-46955926D01*
X66204778Y-46975550D01*
X66271267Y-46956147D01*
X66310373Y-46911571D01*
X66312267Y-46910928D01*
X66313770Y-46912247D01*
X66313846Y-46913237D01*
X66295831Y-47015400D01*
X66313977Y-47118311D01*
X66313293Y-47120190D01*
X66311323Y-47120537D01*
X66310477Y-47119947D01*
X66273329Y-47075852D01*
X66207156Y-47055419D01*
X66140432Y-47074009D01*
X66099825Y-47119173D01*
X66097924Y-47119793D01*
X66096436Y-47118455D01*
X66096368Y-47117489D01*
X66114369Y-47015400D01*
X66096297Y-46912909D01*
X66096981Y-46911030D01*
X66098951Y-46910683D01*
X66099781Y-46911255D01*
G37*
G36*
X66546189Y-46526366D02*
G01*
X66651411Y-46526366D01*
X66730761Y-46497486D01*
X66732731Y-46497833D01*
X66733415Y-46499712D01*
X66732491Y-46501069D01*
X66705947Y-46517366D01*
X66659327Y-46568988D01*
X66648064Y-46637324D01*
X66675531Y-46700893D01*
X66713688Y-46726109D01*
X66714581Y-46727899D01*
X66714263Y-46728866D01*
X66713943Y-46729360D01*
X66735871Y-46743573D01*
X66736780Y-46745354D01*
X66735693Y-46747032D01*
X66734099Y-46747130D01*
X66651411Y-46717034D01*
X66546189Y-46717034D01*
X66465174Y-46746520D01*
X66463204Y-46746173D01*
X66462520Y-46744294D01*
X66463423Y-46742950D01*
X66487161Y-46727973D01*
X66486517Y-46726953D01*
X66486438Y-46724955D01*
X66487139Y-46724196D01*
X66521861Y-46702237D01*
X66551089Y-46639449D01*
X66541731Y-46570826D01*
X66496657Y-46518035D01*
X66468183Y-46504608D01*
X66467928Y-46504464D01*
X66460020Y-46499200D01*
X66459132Y-46497408D01*
X66460240Y-46495743D01*
X66461812Y-46495656D01*
X66546189Y-46526366D01*
G37*
G36*
X64971389Y-46526366D02*
G01*
X65076611Y-46526366D01*
X65155961Y-46497486D01*
X65157931Y-46497833D01*
X65158615Y-46499712D01*
X65157691Y-46501069D01*
X65131147Y-46517366D01*
X65084527Y-46568988D01*
X65073264Y-46637324D01*
X65100731Y-46700893D01*
X65138888Y-46726109D01*
X65139781Y-46727899D01*
X65139463Y-46728866D01*
X65139143Y-46729360D01*
X65161071Y-46743573D01*
X65161980Y-46745354D01*
X65160893Y-46747032D01*
X65159299Y-46747130D01*
X65076611Y-46717034D01*
X64971389Y-46717034D01*
X64890374Y-46746520D01*
X64888404Y-46746173D01*
X64887720Y-46744294D01*
X64888623Y-46742950D01*
X64912361Y-46727973D01*
X64911717Y-46726953D01*
X64911638Y-46724955D01*
X64912339Y-46724196D01*
X64947061Y-46702237D01*
X64976289Y-46639449D01*
X64966931Y-46570826D01*
X64921857Y-46518035D01*
X64893383Y-46504608D01*
X64893128Y-46504464D01*
X64885220Y-46499200D01*
X64884332Y-46497408D01*
X64885440Y-46495743D01*
X64887012Y-46495656D01*
X64971389Y-46526366D01*
G37*
G36*
X64183989Y-46526366D02*
G01*
X64289211Y-46526366D01*
X64368561Y-46497486D01*
X64370531Y-46497833D01*
X64371215Y-46499712D01*
X64370291Y-46501069D01*
X64343747Y-46517366D01*
X64297127Y-46568988D01*
X64285864Y-46637324D01*
X64313331Y-46700893D01*
X64351488Y-46726109D01*
X64352381Y-46727899D01*
X64352063Y-46728866D01*
X64351743Y-46729360D01*
X64373671Y-46743573D01*
X64374580Y-46745354D01*
X64373493Y-46747032D01*
X64371899Y-46747130D01*
X64289211Y-46717034D01*
X64183989Y-46717034D01*
X64102974Y-46746520D01*
X64101004Y-46746173D01*
X64100320Y-46744294D01*
X64101223Y-46742950D01*
X64124961Y-46727973D01*
X64124317Y-46726953D01*
X64124238Y-46724955D01*
X64124939Y-46724196D01*
X64159661Y-46702237D01*
X64188889Y-46639449D01*
X64179531Y-46570826D01*
X64134457Y-46518035D01*
X64105983Y-46504608D01*
X64105728Y-46504464D01*
X64097820Y-46499200D01*
X64096932Y-46497408D01*
X64098040Y-46495743D01*
X64099612Y-46495656D01*
X64183989Y-46526366D01*
G37*
G36*
X65758789Y-46526366D02*
G01*
X65864011Y-46526366D01*
X65943361Y-46497486D01*
X65945331Y-46497833D01*
X65946015Y-46499712D01*
X65945091Y-46501069D01*
X65918547Y-46517366D01*
X65871927Y-46568988D01*
X65860664Y-46637324D01*
X65888131Y-46700893D01*
X65926288Y-46726109D01*
X65927181Y-46727899D01*
X65926863Y-46728866D01*
X65926543Y-46729360D01*
X65948471Y-46743573D01*
X65949380Y-46745354D01*
X65948293Y-46747032D01*
X65946699Y-46747130D01*
X65864011Y-46717034D01*
X65758789Y-46717034D01*
X65677774Y-46746520D01*
X65675804Y-46746173D01*
X65675120Y-46744294D01*
X65676023Y-46742950D01*
X65699761Y-46727973D01*
X65699117Y-46726953D01*
X65699038Y-46724955D01*
X65699739Y-46724196D01*
X65734461Y-46702237D01*
X65763689Y-46639449D01*
X65754331Y-46570826D01*
X65709257Y-46518035D01*
X65680783Y-46504608D01*
X65680528Y-46504464D01*
X65672620Y-46499200D01*
X65671732Y-46497408D01*
X65672840Y-46495743D01*
X65674412Y-46495656D01*
X65758789Y-46526366D01*
G37*
G36*
X63396589Y-46526366D02*
G01*
X63501811Y-46526366D01*
X63581161Y-46497486D01*
X63583131Y-46497833D01*
X63583815Y-46499712D01*
X63582891Y-46501069D01*
X63556347Y-46517366D01*
X63509727Y-46568988D01*
X63498464Y-46637324D01*
X63525931Y-46700893D01*
X63564088Y-46726109D01*
X63564981Y-46727899D01*
X63564663Y-46728866D01*
X63564343Y-46729360D01*
X63586271Y-46743573D01*
X63587180Y-46745354D01*
X63586093Y-46747032D01*
X63584499Y-46747130D01*
X63501811Y-46717034D01*
X63396589Y-46717034D01*
X63315574Y-46746520D01*
X63313604Y-46746173D01*
X63312920Y-46744294D01*
X63313823Y-46742950D01*
X63337561Y-46727973D01*
X63336917Y-46726953D01*
X63336838Y-46724955D01*
X63337539Y-46724196D01*
X63372261Y-46702237D01*
X63401489Y-46639449D01*
X63392131Y-46570826D01*
X63347057Y-46518035D01*
X63318583Y-46504608D01*
X63318328Y-46504464D01*
X63310420Y-46499200D01*
X63309532Y-46497408D01*
X63310640Y-46495743D01*
X63312212Y-46495656D01*
X63396589Y-46526366D01*
G37*
G36*
X65312381Y-46123855D02*
G01*
X65350957Y-46168526D01*
X65417378Y-46188150D01*
X65483867Y-46168747D01*
X65522973Y-46124171D01*
X65524867Y-46123528D01*
X65526370Y-46124847D01*
X65526446Y-46125837D01*
X65508431Y-46228000D01*
X65526577Y-46330911D01*
X65525893Y-46332790D01*
X65523923Y-46333137D01*
X65523077Y-46332547D01*
X65485929Y-46288452D01*
X65419756Y-46268019D01*
X65353032Y-46286609D01*
X65312425Y-46331773D01*
X65310524Y-46332393D01*
X65309036Y-46331055D01*
X65308968Y-46330089D01*
X65326969Y-46228000D01*
X65308897Y-46125509D01*
X65309581Y-46123630D01*
X65311551Y-46123283D01*
X65312381Y-46123855D01*
G37*
G36*
X63737581Y-46123855D02*
G01*
X63776157Y-46168526D01*
X63842578Y-46188150D01*
X63909067Y-46168747D01*
X63948173Y-46124171D01*
X63950067Y-46123528D01*
X63951570Y-46124847D01*
X63951646Y-46125837D01*
X63933631Y-46228000D01*
X63951777Y-46330911D01*
X63951093Y-46332790D01*
X63949123Y-46333137D01*
X63948277Y-46332547D01*
X63911129Y-46288452D01*
X63844956Y-46268019D01*
X63778232Y-46286609D01*
X63737625Y-46331773D01*
X63735724Y-46332393D01*
X63734236Y-46331055D01*
X63734168Y-46330089D01*
X63752169Y-46228000D01*
X63734097Y-46125509D01*
X63734781Y-46123630D01*
X63736751Y-46123283D01*
X63737581Y-46123855D01*
G37*
G36*
X64524981Y-46123855D02*
G01*
X64563557Y-46168526D01*
X64629978Y-46188150D01*
X64696467Y-46168747D01*
X64735573Y-46124171D01*
X64737467Y-46123528D01*
X64738970Y-46124847D01*
X64739046Y-46125837D01*
X64721031Y-46228000D01*
X64739177Y-46330911D01*
X64738493Y-46332790D01*
X64736523Y-46333137D01*
X64735677Y-46332547D01*
X64698529Y-46288452D01*
X64632356Y-46268019D01*
X64565632Y-46286609D01*
X64525025Y-46331773D01*
X64523124Y-46332393D01*
X64521636Y-46331055D01*
X64521568Y-46330089D01*
X64539569Y-46228000D01*
X64521497Y-46125509D01*
X64522181Y-46123630D01*
X64524151Y-46123283D01*
X64524981Y-46123855D01*
G37*
G36*
X66099781Y-46123855D02*
G01*
X66138357Y-46168526D01*
X66204778Y-46188150D01*
X66271267Y-46168747D01*
X66310373Y-46124171D01*
X66312267Y-46123528D01*
X66313770Y-46124847D01*
X66313846Y-46125837D01*
X66295831Y-46228000D01*
X66313977Y-46330911D01*
X66313293Y-46332790D01*
X66311323Y-46333137D01*
X66310477Y-46332547D01*
X66273329Y-46288452D01*
X66207156Y-46268019D01*
X66140432Y-46286609D01*
X66099825Y-46331773D01*
X66097924Y-46332393D01*
X66096436Y-46331055D01*
X66096368Y-46330089D01*
X66114369Y-46228000D01*
X66096297Y-46125509D01*
X66096981Y-46123630D01*
X66098951Y-46123283D01*
X66099781Y-46123855D01*
G37*
G36*
X66546189Y-45738966D02*
G01*
X66651411Y-45738966D01*
X66730761Y-45710086D01*
X66732731Y-45710433D01*
X66733415Y-45712312D01*
X66732491Y-45713669D01*
X66705947Y-45729966D01*
X66659327Y-45781588D01*
X66648064Y-45849924D01*
X66675531Y-45913493D01*
X66713688Y-45938709D01*
X66714581Y-45940499D01*
X66714263Y-45941466D01*
X66713943Y-45941960D01*
X66735871Y-45956173D01*
X66736780Y-45957954D01*
X66735693Y-45959632D01*
X66734099Y-45959730D01*
X66651411Y-45929634D01*
X66546189Y-45929634D01*
X66465174Y-45959120D01*
X66463204Y-45958773D01*
X66462520Y-45956894D01*
X66463423Y-45955550D01*
X66487161Y-45940573D01*
X66486517Y-45939553D01*
X66486438Y-45937555D01*
X66487139Y-45936796D01*
X66521861Y-45914837D01*
X66551089Y-45852049D01*
X66541731Y-45783426D01*
X66496657Y-45730635D01*
X66468183Y-45717208D01*
X66467928Y-45717064D01*
X66460020Y-45711800D01*
X66459132Y-45710008D01*
X66460240Y-45708343D01*
X66461812Y-45708256D01*
X66546189Y-45738966D01*
G37*
G36*
X65758789Y-45738966D02*
G01*
X65864011Y-45738966D01*
X65943361Y-45710086D01*
X65945331Y-45710433D01*
X65946015Y-45712312D01*
X65945091Y-45713669D01*
X65918547Y-45729966D01*
X65871927Y-45781588D01*
X65860664Y-45849924D01*
X65888131Y-45913493D01*
X65926288Y-45938709D01*
X65927181Y-45940499D01*
X65926863Y-45941466D01*
X65926543Y-45941960D01*
X65948471Y-45956173D01*
X65949380Y-45957954D01*
X65948293Y-45959632D01*
X65946699Y-45959730D01*
X65864011Y-45929634D01*
X65758789Y-45929634D01*
X65677774Y-45959120D01*
X65675804Y-45958773D01*
X65675120Y-45956894D01*
X65676023Y-45955550D01*
X65699761Y-45940573D01*
X65699117Y-45939553D01*
X65699038Y-45937555D01*
X65699739Y-45936796D01*
X65734461Y-45914837D01*
X65763689Y-45852049D01*
X65754331Y-45783426D01*
X65709257Y-45730635D01*
X65680783Y-45717208D01*
X65680528Y-45717064D01*
X65672620Y-45711800D01*
X65671732Y-45710008D01*
X65672840Y-45708343D01*
X65674412Y-45708256D01*
X65758789Y-45738966D01*
G37*
G36*
X64971389Y-45738966D02*
G01*
X65076611Y-45738966D01*
X65155961Y-45710086D01*
X65157931Y-45710433D01*
X65158615Y-45712312D01*
X65157691Y-45713669D01*
X65131147Y-45729966D01*
X65084527Y-45781588D01*
X65073264Y-45849924D01*
X65100731Y-45913493D01*
X65138888Y-45938709D01*
X65139781Y-45940499D01*
X65139463Y-45941466D01*
X65139143Y-45941960D01*
X65161071Y-45956173D01*
X65161980Y-45957954D01*
X65160893Y-45959632D01*
X65159299Y-45959730D01*
X65076611Y-45929634D01*
X64971389Y-45929634D01*
X64890374Y-45959120D01*
X64888404Y-45958773D01*
X64887720Y-45956894D01*
X64888623Y-45955550D01*
X64912361Y-45940573D01*
X64911717Y-45939553D01*
X64911638Y-45937555D01*
X64912339Y-45936796D01*
X64947061Y-45914837D01*
X64976289Y-45852049D01*
X64966931Y-45783426D01*
X64921857Y-45730635D01*
X64893383Y-45717208D01*
X64893128Y-45717064D01*
X64885220Y-45711800D01*
X64884332Y-45710008D01*
X64885440Y-45708343D01*
X64887012Y-45708256D01*
X64971389Y-45738966D01*
G37*
G36*
X63396589Y-45738966D02*
G01*
X63501811Y-45738966D01*
X63581161Y-45710086D01*
X63583131Y-45710433D01*
X63583815Y-45712312D01*
X63582891Y-45713669D01*
X63556347Y-45729966D01*
X63509727Y-45781588D01*
X63498464Y-45849924D01*
X63525931Y-45913493D01*
X63564088Y-45938709D01*
X63564981Y-45940499D01*
X63564663Y-45941466D01*
X63564343Y-45941960D01*
X63586271Y-45956173D01*
X63587180Y-45957954D01*
X63586093Y-45959632D01*
X63584499Y-45959730D01*
X63501811Y-45929634D01*
X63396589Y-45929634D01*
X63315574Y-45959120D01*
X63313604Y-45958773D01*
X63312920Y-45956894D01*
X63313823Y-45955550D01*
X63337561Y-45940573D01*
X63336917Y-45939553D01*
X63336838Y-45937555D01*
X63337539Y-45936796D01*
X63372261Y-45914837D01*
X63401489Y-45852049D01*
X63392131Y-45783426D01*
X63347057Y-45730635D01*
X63318583Y-45717208D01*
X63318328Y-45717064D01*
X63310420Y-45711800D01*
X63309532Y-45710008D01*
X63310640Y-45708343D01*
X63312212Y-45708256D01*
X63396589Y-45738966D01*
G37*
G36*
X64183989Y-45738966D02*
G01*
X64289211Y-45738966D01*
X64368561Y-45710086D01*
X64370531Y-45710433D01*
X64371215Y-45712312D01*
X64370291Y-45713669D01*
X64343747Y-45729966D01*
X64297127Y-45781588D01*
X64285864Y-45849924D01*
X64313331Y-45913493D01*
X64351488Y-45938709D01*
X64352381Y-45940499D01*
X64352063Y-45941466D01*
X64351743Y-45941960D01*
X64373671Y-45956173D01*
X64374580Y-45957954D01*
X64373493Y-45959632D01*
X64371899Y-45959730D01*
X64289211Y-45929634D01*
X64183989Y-45929634D01*
X64102974Y-45959120D01*
X64101004Y-45958773D01*
X64100320Y-45956894D01*
X64101223Y-45955550D01*
X64124961Y-45940573D01*
X64124317Y-45939553D01*
X64124238Y-45937555D01*
X64124939Y-45936796D01*
X64159661Y-45914837D01*
X64188889Y-45852049D01*
X64179531Y-45783426D01*
X64134457Y-45730635D01*
X64105983Y-45717208D01*
X64105728Y-45717064D01*
X64097820Y-45711800D01*
X64096932Y-45710008D01*
X64098040Y-45708343D01*
X64099612Y-45708256D01*
X64183989Y-45738966D01*
G37*
G36*
X66099781Y-45336455D02*
G01*
X66138357Y-45381126D01*
X66204778Y-45400750D01*
X66271267Y-45381347D01*
X66310373Y-45336771D01*
X66312267Y-45336128D01*
X66313770Y-45337447D01*
X66313846Y-45338437D01*
X66295831Y-45440600D01*
X66313977Y-45543511D01*
X66313293Y-45545390D01*
X66311323Y-45545737D01*
X66310477Y-45545147D01*
X66273329Y-45501052D01*
X66207156Y-45480619D01*
X66140432Y-45499209D01*
X66099825Y-45544373D01*
X66097924Y-45544993D01*
X66096436Y-45543655D01*
X66096368Y-45542689D01*
X66114369Y-45440600D01*
X66096297Y-45338109D01*
X66096981Y-45336230D01*
X66098951Y-45335883D01*
X66099781Y-45336455D01*
G37*
G36*
X65312381Y-45336455D02*
G01*
X65350957Y-45381126D01*
X65417378Y-45400750D01*
X65483867Y-45381347D01*
X65522973Y-45336771D01*
X65524867Y-45336128D01*
X65526370Y-45337447D01*
X65526446Y-45338437D01*
X65508431Y-45440600D01*
X65526577Y-45543511D01*
X65525893Y-45545390D01*
X65523923Y-45545737D01*
X65523077Y-45545147D01*
X65485929Y-45501052D01*
X65419756Y-45480619D01*
X65353032Y-45499209D01*
X65312425Y-45544373D01*
X65310524Y-45544993D01*
X65309036Y-45543655D01*
X65308968Y-45542689D01*
X65326969Y-45440600D01*
X65308897Y-45338109D01*
X65309581Y-45336230D01*
X65311551Y-45335883D01*
X65312381Y-45336455D01*
G37*
G36*
X63737581Y-45336455D02*
G01*
X63776157Y-45381126D01*
X63842578Y-45400750D01*
X63909067Y-45381347D01*
X63948173Y-45336771D01*
X63950067Y-45336128D01*
X63951570Y-45337447D01*
X63951646Y-45338437D01*
X63933631Y-45440600D01*
X63951777Y-45543511D01*
X63951093Y-45545390D01*
X63949123Y-45545737D01*
X63948277Y-45545147D01*
X63911129Y-45501052D01*
X63844956Y-45480619D01*
X63778232Y-45499209D01*
X63737625Y-45544373D01*
X63735724Y-45544993D01*
X63734236Y-45543655D01*
X63734168Y-45542689D01*
X63752169Y-45440600D01*
X63734097Y-45338109D01*
X63734781Y-45336230D01*
X63736751Y-45335883D01*
X63737581Y-45336455D01*
G37*
G36*
X64524981Y-45336455D02*
G01*
X64563557Y-45381126D01*
X64629978Y-45400750D01*
X64696467Y-45381347D01*
X64735573Y-45336771D01*
X64737467Y-45336128D01*
X64738970Y-45337447D01*
X64739046Y-45338437D01*
X64721031Y-45440600D01*
X64739177Y-45543511D01*
X64738493Y-45545390D01*
X64736523Y-45545737D01*
X64735677Y-45545147D01*
X64698529Y-45501052D01*
X64632356Y-45480619D01*
X64565632Y-45499209D01*
X64525025Y-45544373D01*
X64523124Y-45544993D01*
X64521636Y-45543655D01*
X64521568Y-45542689D01*
X64539569Y-45440600D01*
X64521497Y-45338109D01*
X64522181Y-45336230D01*
X64524151Y-45335883D01*
X64524981Y-45336455D01*
G37*
G36*
X66546189Y-44951566D02*
G01*
X66651411Y-44951566D01*
X66730761Y-44922686D01*
X66732731Y-44923033D01*
X66733415Y-44924912D01*
X66732491Y-44926269D01*
X66705947Y-44942566D01*
X66659327Y-44994188D01*
X66648064Y-45062524D01*
X66675531Y-45126093D01*
X66713688Y-45151309D01*
X66714581Y-45153099D01*
X66714263Y-45154066D01*
X66713943Y-45154560D01*
X66735871Y-45168773D01*
X66736780Y-45170554D01*
X66735693Y-45172232D01*
X66734099Y-45172330D01*
X66651411Y-45142234D01*
X66546189Y-45142234D01*
X66465174Y-45171720D01*
X66463204Y-45171373D01*
X66462520Y-45169494D01*
X66463423Y-45168150D01*
X66487161Y-45153173D01*
X66486517Y-45152153D01*
X66486438Y-45150155D01*
X66487139Y-45149396D01*
X66521861Y-45127437D01*
X66551089Y-45064649D01*
X66541731Y-44996026D01*
X66496657Y-44943235D01*
X66468183Y-44929808D01*
X66467928Y-44929664D01*
X66460020Y-44924400D01*
X66459132Y-44922608D01*
X66460240Y-44920943D01*
X66461812Y-44920856D01*
X66546189Y-44951566D01*
G37*
G36*
X63396589Y-44951566D02*
G01*
X63501811Y-44951566D01*
X63581161Y-44922686D01*
X63583131Y-44923033D01*
X63583815Y-44924912D01*
X63582891Y-44926269D01*
X63556347Y-44942566D01*
X63509727Y-44994188D01*
X63498464Y-45062524D01*
X63525931Y-45126093D01*
X63564088Y-45151309D01*
X63564981Y-45153099D01*
X63564663Y-45154066D01*
X63564343Y-45154560D01*
X63586271Y-45168773D01*
X63587180Y-45170554D01*
X63586093Y-45172232D01*
X63584499Y-45172330D01*
X63501811Y-45142234D01*
X63396589Y-45142234D01*
X63315574Y-45171720D01*
X63313604Y-45171373D01*
X63312920Y-45169494D01*
X63313823Y-45168150D01*
X63337561Y-45153173D01*
X63336917Y-45152153D01*
X63336838Y-45150155D01*
X63337539Y-45149396D01*
X63372261Y-45127437D01*
X63401489Y-45064649D01*
X63392131Y-44996026D01*
X63347057Y-44943235D01*
X63318583Y-44929808D01*
X63318328Y-44929664D01*
X63310420Y-44924400D01*
X63309532Y-44922608D01*
X63310640Y-44920943D01*
X63312212Y-44920856D01*
X63396589Y-44951566D01*
G37*
G36*
X65758789Y-44951566D02*
G01*
X65864011Y-44951566D01*
X65943361Y-44922686D01*
X65945331Y-44923033D01*
X65946015Y-44924912D01*
X65945091Y-44926269D01*
X65918547Y-44942566D01*
X65871927Y-44994188D01*
X65860664Y-45062524D01*
X65888131Y-45126093D01*
X65926288Y-45151309D01*
X65927181Y-45153099D01*
X65926863Y-45154066D01*
X65926543Y-45154560D01*
X65948471Y-45168773D01*
X65949380Y-45170554D01*
X65948293Y-45172232D01*
X65946699Y-45172330D01*
X65864011Y-45142234D01*
X65758789Y-45142234D01*
X65677774Y-45171720D01*
X65675804Y-45171373D01*
X65675120Y-45169494D01*
X65676023Y-45168150D01*
X65699761Y-45153173D01*
X65699117Y-45152153D01*
X65699038Y-45150155D01*
X65699739Y-45149396D01*
X65734461Y-45127437D01*
X65763689Y-45064649D01*
X65754331Y-44996026D01*
X65709257Y-44943235D01*
X65680783Y-44929808D01*
X65680528Y-44929664D01*
X65672620Y-44924400D01*
X65671732Y-44922608D01*
X65672840Y-44920943D01*
X65674412Y-44920856D01*
X65758789Y-44951566D01*
G37*
G36*
X64971389Y-44951566D02*
G01*
X65076611Y-44951566D01*
X65155961Y-44922686D01*
X65157931Y-44923033D01*
X65158615Y-44924912D01*
X65157691Y-44926269D01*
X65131147Y-44942566D01*
X65084527Y-44994188D01*
X65073264Y-45062524D01*
X65100731Y-45126093D01*
X65138888Y-45151309D01*
X65139781Y-45153099D01*
X65139463Y-45154066D01*
X65139143Y-45154560D01*
X65161071Y-45168773D01*
X65161980Y-45170554D01*
X65160893Y-45172232D01*
X65159299Y-45172330D01*
X65076611Y-45142234D01*
X64971389Y-45142234D01*
X64890374Y-45171720D01*
X64888404Y-45171373D01*
X64887720Y-45169494D01*
X64888623Y-45168150D01*
X64912361Y-45153173D01*
X64911717Y-45152153D01*
X64911638Y-45150155D01*
X64912339Y-45149396D01*
X64947061Y-45127437D01*
X64976289Y-45064649D01*
X64966931Y-44996026D01*
X64921857Y-44943235D01*
X64893383Y-44929808D01*
X64893128Y-44929664D01*
X64885220Y-44924400D01*
X64884332Y-44922608D01*
X64885440Y-44920943D01*
X64887012Y-44920856D01*
X64971389Y-44951566D01*
G37*
G36*
X64183989Y-44951566D02*
G01*
X64289211Y-44951566D01*
X64368561Y-44922686D01*
X64370531Y-44923033D01*
X64371215Y-44924912D01*
X64370291Y-44926269D01*
X64343747Y-44942566D01*
X64297127Y-44994188D01*
X64285864Y-45062524D01*
X64313331Y-45126093D01*
X64351488Y-45151309D01*
X64352381Y-45153099D01*
X64352063Y-45154066D01*
X64351743Y-45154560D01*
X64373671Y-45168773D01*
X64374580Y-45170554D01*
X64373493Y-45172232D01*
X64371899Y-45172330D01*
X64289211Y-45142234D01*
X64183989Y-45142234D01*
X64102974Y-45171720D01*
X64101004Y-45171373D01*
X64100320Y-45169494D01*
X64101223Y-45168150D01*
X64124961Y-45153173D01*
X64124317Y-45152153D01*
X64124238Y-45150155D01*
X64124939Y-45149396D01*
X64159661Y-45127437D01*
X64188889Y-45064649D01*
X64179531Y-44996026D01*
X64134457Y-44943235D01*
X64105983Y-44929808D01*
X64105728Y-44929664D01*
X64097820Y-44924400D01*
X64096932Y-44922608D01*
X64098040Y-44920943D01*
X64099612Y-44920856D01*
X64183989Y-44951566D01*
G37*
G36*
X66099781Y-44549055D02*
G01*
X66138357Y-44593726D01*
X66204778Y-44613350D01*
X66271267Y-44593947D01*
X66310373Y-44549371D01*
X66312267Y-44548728D01*
X66313770Y-44550047D01*
X66313846Y-44551037D01*
X66295831Y-44653200D01*
X66313977Y-44756111D01*
X66313293Y-44757990D01*
X66311323Y-44758337D01*
X66310477Y-44757747D01*
X66273329Y-44713652D01*
X66207156Y-44693219D01*
X66140432Y-44711809D01*
X66099825Y-44756973D01*
X66097924Y-44757593D01*
X66096436Y-44756255D01*
X66096368Y-44755289D01*
X66114369Y-44653200D01*
X66096297Y-44550709D01*
X66096981Y-44548830D01*
X66098951Y-44548483D01*
X66099781Y-44549055D01*
G37*
G36*
X63737581Y-44549055D02*
G01*
X63776157Y-44593726D01*
X63842578Y-44613350D01*
X63909067Y-44593947D01*
X63948173Y-44549371D01*
X63950067Y-44548728D01*
X63951570Y-44550047D01*
X63951646Y-44551037D01*
X63933631Y-44653200D01*
X63951777Y-44756111D01*
X63951093Y-44757990D01*
X63949123Y-44758337D01*
X63948277Y-44757747D01*
X63911129Y-44713652D01*
X63844956Y-44693219D01*
X63778232Y-44711809D01*
X63737625Y-44756973D01*
X63735724Y-44757593D01*
X63734236Y-44756255D01*
X63734168Y-44755289D01*
X63752169Y-44653200D01*
X63734097Y-44550709D01*
X63734781Y-44548830D01*
X63736751Y-44548483D01*
X63737581Y-44549055D01*
G37*
G36*
X65312381Y-44549055D02*
G01*
X65350957Y-44593726D01*
X65417378Y-44613350D01*
X65483867Y-44593947D01*
X65522973Y-44549371D01*
X65524867Y-44548728D01*
X65526370Y-44550047D01*
X65526446Y-44551037D01*
X65508431Y-44653200D01*
X65526577Y-44756111D01*
X65525893Y-44757990D01*
X65523923Y-44758337D01*
X65523077Y-44757747D01*
X65485929Y-44713652D01*
X65419756Y-44693219D01*
X65353032Y-44711809D01*
X65312425Y-44756973D01*
X65310524Y-44757593D01*
X65309036Y-44756255D01*
X65308968Y-44755289D01*
X65326969Y-44653200D01*
X65308897Y-44550709D01*
X65309581Y-44548830D01*
X65311551Y-44548483D01*
X65312381Y-44549055D01*
G37*
G36*
X64524981Y-44549055D02*
G01*
X64563557Y-44593726D01*
X64629978Y-44613350D01*
X64696467Y-44593947D01*
X64735573Y-44549371D01*
X64737467Y-44548728D01*
X64738970Y-44550047D01*
X64739046Y-44551037D01*
X64721031Y-44653200D01*
X64739177Y-44756111D01*
X64738493Y-44757990D01*
X64736523Y-44758337D01*
X64735677Y-44757747D01*
X64698529Y-44713652D01*
X64632356Y-44693219D01*
X64565632Y-44711809D01*
X64525025Y-44756973D01*
X64523124Y-44757593D01*
X64521636Y-44756255D01*
X64521568Y-44755289D01*
X64539569Y-44653200D01*
X64521497Y-44550709D01*
X64522181Y-44548830D01*
X64524151Y-44548483D01*
X64524981Y-44549055D01*
G37*
M02*
