%TF.GenerationSoftware,KiCad,Pcbnew,6.0.7+dfsg-1build1*%
%TF.CreationDate,2023-01-24T23:00:55+01:00*%
%TF.ProjectId,epaper-breakout,65706170-6572-42d6-9272-65616b6f7574,rev?*%
%TF.SameCoordinates,Original*%
%TF.FileFunction,Legend,Bot*%
%TF.FilePolarity,Positive*%
%FSLAX46Y46*%
G04 Gerber Fmt 4.6, Leading zero omitted, Abs format (unit mm)*
G04 Created by KiCad (PCBNEW 6.0.7+dfsg-1build1) date 2023-01-24 23:00:55*
%MOMM*%
%LPD*%
G01*
G04 APERTURE LIST*
G04 Aperture macros list*
%AMRoundRect*
0 Rectangle with rounded corners*
0 $1 Rounding radius*
0 $2 $3 $4 $5 $6 $7 $8 $9 X,Y pos of 4 corners*
0 Add a 4 corners polygon primitive as box body*
4,1,4,$2,$3,$4,$5,$6,$7,$8,$9,$2,$3,0*
0 Add four circle primitives for the rounded corners*
1,1,$1+$1,$2,$3*
1,1,$1+$1,$4,$5*
1,1,$1+$1,$6,$7*
1,1,$1+$1,$8,$9*
0 Add four rect primitives between the rounded corners*
20,1,$1+$1,$2,$3,$4,$5,0*
20,1,$1+$1,$4,$5,$6,$7,0*
20,1,$1+$1,$6,$7,$8,$9,0*
20,1,$1+$1,$8,$9,$2,$3,0*%
G04 Aperture macros list end*
%ADD10C,0.100000*%
%TA.AperFunction,Profile*%
%ADD11C,0.050000*%
%TD*%
%ADD12C,0.150000*%
%ADD13C,0.010000*%
%ADD14C,2.302000*%
%ADD15C,0.610000*%
%ADD16RoundRect,0.051000X-0.850000X-0.850000X0.850000X-0.850000X0.850000X0.850000X-0.850000X0.850000X0*%
%ADD17O,1.802000X1.802000*%
%ADD18RoundRect,0.051000X0.850000X0.850000X-0.850000X0.850000X-0.850000X-0.850000X0.850000X-0.850000X0*%
%ADD19RoundRect,0.051000X0.850000X-0.850000X0.850000X0.850000X-0.850000X0.850000X-0.850000X-0.850000X0*%
%ADD20C,0.752000*%
%ADD21O,1.702000X1.102000*%
%ADD22O,2.202000X1.102000*%
G04 APERTURE END LIST*
D10*
X46528002Y-33257997D02*
X44008004Y-29118001D01*
X48868000Y-30378000D02*
X50487998Y-26598003D01*
X38788009Y-27498002D02*
X37888010Y-24618005D01*
X43468005Y-32357998D02*
X40948007Y-29298001D01*
X50127999Y-31817998D02*
X50847998Y-29838000D01*
X39688008Y-32537998D02*
X38788009Y-27498002D01*
X46528002Y-33077997D02*
X50127999Y-31817998D01*
X44188004Y-43517987D02*
X44368004Y-36677994D01*
X39688008Y-32537998D02*
X36808011Y-32897997D01*
X40948007Y-29298001D02*
X40768007Y-25698004D01*
X44368004Y-36677994D02*
X39688008Y-32537998D01*
X48868000Y-30378000D02*
X47608001Y-27498002D01*
X37348010Y-30198000D02*
X35008012Y-30018000D01*
X44008004Y-29118001D02*
X42748005Y-26598003D01*
X46528002Y-33257997D02*
X48868000Y-30378000D01*
X44188004Y-43517987D02*
X36268011Y-44237987D01*
X39688008Y-32537998D02*
X37348010Y-30198000D01*
X44008004Y-29118001D02*
X45448003Y-26238003D01*
X43468005Y-32357998D02*
X43648005Y-30378000D01*
X44368004Y-36677994D02*
X43468005Y-32357998D01*
X44188004Y-43517987D02*
X53907995Y-44237987D01*
X44368004Y-36677994D02*
X46528002Y-33257997D01*
D11*
X25000000Y-62500000D02*
X25000000Y-11500000D01*
X27000000Y-64500000D02*
X81300000Y-64485786D01*
X125000000Y-11500000D02*
X125000000Y-62500000D01*
X27000000Y-9500000D02*
X123000000Y-9500000D01*
X27000000Y-9500000D02*
G75*
G03*
X25000000Y-11500000I0J-2000000D01*
G01*
X85300000Y-57600000D02*
G75*
G03*
X83300000Y-59600000I0J-2000000D01*
G01*
X83300000Y-62485786D02*
X83300000Y-59600000D01*
X81300000Y-64485800D02*
G75*
G03*
X83300000Y-62485786I0J2000000D01*
G01*
X110666214Y-62485786D02*
G75*
G03*
X112666214Y-64485786I1999986J-14D01*
G01*
X88700000Y-57600000D02*
X85300000Y-57600000D01*
X125000000Y-11500000D02*
G75*
G03*
X123000000Y-9500000I-2000000J0D01*
G01*
X25000000Y-62500000D02*
G75*
G03*
X27000000Y-64500000I2000000J0D01*
G01*
X110666214Y-62485786D02*
X110685791Y-59614213D01*
X123000000Y-64500000D02*
G75*
G03*
X125000000Y-62500000I0J2000000D01*
G01*
X112666214Y-64485786D02*
X123000000Y-64500000D01*
X110685787Y-59614213D02*
G75*
G03*
X108685791Y-57614213I-1999987J13D01*
G01*
X108685791Y-57614213D02*
X88700000Y-57600000D01*
D12*
X48592857Y-46247190D02*
X48716666Y-46309095D01*
X48964285Y-46309095D01*
X49088095Y-46247190D01*
X49150000Y-46123380D01*
X49150000Y-45628142D01*
X49088095Y-45504333D01*
X48964285Y-45442428D01*
X48716666Y-45442428D01*
X48592857Y-45504333D01*
X48530952Y-45628142D01*
X48530952Y-45751952D01*
X49150000Y-45875761D01*
X47973809Y-45442428D02*
X47973809Y-46742428D01*
X47973809Y-45504333D02*
X47850000Y-45442428D01*
X47602380Y-45442428D01*
X47478571Y-45504333D01*
X47416666Y-45566238D01*
X47354761Y-45690047D01*
X47354761Y-46061476D01*
X47416666Y-46185285D01*
X47478571Y-46247190D01*
X47602380Y-46309095D01*
X47850000Y-46309095D01*
X47973809Y-46247190D01*
X46240476Y-46309095D02*
X46240476Y-45009095D01*
X46240476Y-46247190D02*
X46364285Y-46309095D01*
X46611904Y-46309095D01*
X46735714Y-46247190D01*
X46797619Y-46185285D01*
X46859523Y-46061476D01*
X46859523Y-45690047D01*
X46797619Y-45566238D01*
X46735714Y-45504333D01*
X46611904Y-45442428D01*
X46364285Y-45442428D01*
X46240476Y-45504333D01*
X45621428Y-46309095D02*
X45621428Y-45442428D01*
X45621428Y-45009095D02*
X45683333Y-45071000D01*
X45621428Y-45132904D01*
X45559523Y-45071000D01*
X45621428Y-45009095D01*
X45621428Y-45132904D01*
X45126190Y-45442428D02*
X44816666Y-46309095D01*
X44507142Y-45442428D02*
X44816666Y-46309095D01*
X44940476Y-46618619D01*
X45002380Y-46680523D01*
X45126190Y-46742428D01*
X43145238Y-45442428D02*
X42835714Y-46309095D01*
X42526190Y-45442428D01*
X42154761Y-45009095D02*
X41288095Y-45009095D01*
X41845238Y-46309095D01*
X57228571Y-48402095D02*
X57228571Y-47102095D01*
X57228571Y-47597333D02*
X57104761Y-47535428D01*
X56857142Y-47535428D01*
X56733333Y-47597333D01*
X56671428Y-47659238D01*
X56609523Y-47783047D01*
X56609523Y-48154476D01*
X56671428Y-48278285D01*
X56733333Y-48340190D01*
X56857142Y-48402095D01*
X57104761Y-48402095D01*
X57228571Y-48340190D01*
X56176190Y-47535428D02*
X55866666Y-48402095D01*
X55557142Y-47535428D02*
X55866666Y-48402095D01*
X55990476Y-48711619D01*
X56052380Y-48773523D01*
X56176190Y-48835428D01*
X54257142Y-47102095D02*
X53823809Y-48402095D01*
X53390476Y-47102095D01*
X52400000Y-48402095D02*
X52400000Y-47721142D01*
X52461904Y-47597333D01*
X52585714Y-47535428D01*
X52833333Y-47535428D01*
X52957142Y-47597333D01*
X52400000Y-48340190D02*
X52523809Y-48402095D01*
X52833333Y-48402095D01*
X52957142Y-48340190D01*
X53019047Y-48216380D01*
X53019047Y-48092571D01*
X52957142Y-47968761D01*
X52833333Y-47906857D01*
X52523809Y-47906857D01*
X52400000Y-47844952D01*
X51595238Y-48402095D02*
X51719047Y-48340190D01*
X51780952Y-48216380D01*
X51780952Y-47102095D01*
X50604761Y-48340190D02*
X50728571Y-48402095D01*
X50976190Y-48402095D01*
X51100000Y-48340190D01*
X51161904Y-48216380D01*
X51161904Y-47721142D01*
X51100000Y-47597333D01*
X50976190Y-47535428D01*
X50728571Y-47535428D01*
X50604761Y-47597333D01*
X50542857Y-47721142D01*
X50542857Y-47844952D01*
X51161904Y-47968761D01*
X49985714Y-47535428D02*
X49985714Y-48402095D01*
X49985714Y-47659238D02*
X49923809Y-47597333D01*
X49800000Y-47535428D01*
X49614285Y-47535428D01*
X49490476Y-47597333D01*
X49428571Y-47721142D01*
X49428571Y-48402095D01*
X48995238Y-47535428D02*
X48500000Y-47535428D01*
X48809523Y-47102095D02*
X48809523Y-48216380D01*
X48747619Y-48340190D01*
X48623809Y-48402095D01*
X48500000Y-48402095D01*
X48066666Y-48402095D02*
X48066666Y-47535428D01*
X48066666Y-47102095D02*
X48128571Y-47164000D01*
X48066666Y-47225904D01*
X48004761Y-47164000D01*
X48066666Y-47102095D01*
X48066666Y-47225904D01*
X47447619Y-47535428D02*
X47447619Y-48402095D01*
X47447619Y-47659238D02*
X47385714Y-47597333D01*
X47261904Y-47535428D01*
X47076190Y-47535428D01*
X46952380Y-47597333D01*
X46890476Y-47721142D01*
X46890476Y-48402095D01*
X44538095Y-48402095D02*
X44971428Y-47783047D01*
X45280952Y-48402095D02*
X45280952Y-47102095D01*
X44785714Y-47102095D01*
X44661904Y-47164000D01*
X44600000Y-47225904D01*
X44538095Y-47349714D01*
X44538095Y-47535428D01*
X44600000Y-47659238D01*
X44661904Y-47721142D01*
X44785714Y-47783047D01*
X45280952Y-47783047D01*
X43795238Y-48402095D02*
X43919047Y-48340190D01*
X43980952Y-48278285D01*
X44042857Y-48154476D01*
X44042857Y-47783047D01*
X43980952Y-47659238D01*
X43919047Y-47597333D01*
X43795238Y-47535428D01*
X43609523Y-47535428D01*
X43485714Y-47597333D01*
X43423809Y-47659238D01*
X43361904Y-47783047D01*
X43361904Y-48154476D01*
X43423809Y-48278285D01*
X43485714Y-48340190D01*
X43609523Y-48402095D01*
X43795238Y-48402095D01*
X42619047Y-48402095D02*
X42742857Y-48340190D01*
X42804761Y-48216380D01*
X42804761Y-47102095D01*
X41566666Y-48402095D02*
X41566666Y-47721142D01*
X41628571Y-47597333D01*
X41752380Y-47535428D01*
X42000000Y-47535428D01*
X42123809Y-47597333D01*
X41566666Y-48340190D02*
X41690476Y-48402095D01*
X42000000Y-48402095D01*
X42123809Y-48340190D01*
X42185714Y-48216380D01*
X42185714Y-48092571D01*
X42123809Y-47968761D01*
X42000000Y-47906857D01*
X41690476Y-47906857D01*
X41566666Y-47844952D01*
X40947619Y-47535428D02*
X40947619Y-48402095D01*
X40947619Y-47659238D02*
X40885714Y-47597333D01*
X40761904Y-47535428D01*
X40576190Y-47535428D01*
X40452380Y-47597333D01*
X40390476Y-47721142D01*
X40390476Y-48402095D01*
X39214285Y-48402095D02*
X39214285Y-47102095D01*
X39214285Y-48340190D02*
X39338095Y-48402095D01*
X39585714Y-48402095D01*
X39709523Y-48340190D01*
X39771428Y-48278285D01*
X39833333Y-48154476D01*
X39833333Y-47783047D01*
X39771428Y-47659238D01*
X39709523Y-47597333D01*
X39585714Y-47535428D01*
X39338095Y-47535428D01*
X39214285Y-47597333D01*
X37666666Y-47225904D02*
X37604761Y-47164000D01*
X37480952Y-47102095D01*
X37171428Y-47102095D01*
X37047619Y-47164000D01*
X36985714Y-47225904D01*
X36923809Y-47349714D01*
X36923809Y-47473523D01*
X36985714Y-47659238D01*
X37728571Y-48402095D01*
X36923809Y-48402095D01*
X36119047Y-47102095D02*
X35995238Y-47102095D01*
X35871428Y-47164000D01*
X35809523Y-47225904D01*
X35747619Y-47349714D01*
X35685714Y-47597333D01*
X35685714Y-47906857D01*
X35747619Y-48154476D01*
X35809523Y-48278285D01*
X35871428Y-48340190D01*
X35995238Y-48402095D01*
X36119047Y-48402095D01*
X36242857Y-48340190D01*
X36304761Y-48278285D01*
X36366666Y-48154476D01*
X36428571Y-47906857D01*
X36428571Y-47597333D01*
X36366666Y-47349714D01*
X36304761Y-47225904D01*
X36242857Y-47164000D01*
X36119047Y-47102095D01*
X35190476Y-47225904D02*
X35128571Y-47164000D01*
X35004761Y-47102095D01*
X34695238Y-47102095D01*
X34571428Y-47164000D01*
X34509523Y-47225904D01*
X34447619Y-47349714D01*
X34447619Y-47473523D01*
X34509523Y-47659238D01*
X35252380Y-48402095D01*
X34447619Y-48402095D01*
X34014285Y-47102095D02*
X33209523Y-47102095D01*
X33642857Y-47597333D01*
X33457142Y-47597333D01*
X33333333Y-47659238D01*
X33271428Y-47721142D01*
X33209523Y-47844952D01*
X33209523Y-48154476D01*
X33271428Y-48278285D01*
X33333333Y-48340190D01*
X33457142Y-48402095D01*
X33828571Y-48402095D01*
X33952380Y-48340190D01*
X34014285Y-48278285D01*
X61623809Y-51288095D02*
X60880952Y-51288095D01*
X61252380Y-52588095D02*
X61252380Y-51288095D01*
X60447619Y-52588095D02*
X60447619Y-51288095D01*
X59890476Y-52588095D02*
X59890476Y-51907142D01*
X59952380Y-51783333D01*
X60076190Y-51721428D01*
X60261904Y-51721428D01*
X60385714Y-51783333D01*
X60447619Y-51845238D01*
X58714285Y-52588095D02*
X58714285Y-51907142D01*
X58776190Y-51783333D01*
X58900000Y-51721428D01*
X59147619Y-51721428D01*
X59271428Y-51783333D01*
X58714285Y-52526190D02*
X58838095Y-52588095D01*
X59147619Y-52588095D01*
X59271428Y-52526190D01*
X59333333Y-52402380D01*
X59333333Y-52278571D01*
X59271428Y-52154761D01*
X59147619Y-52092857D01*
X58838095Y-52092857D01*
X58714285Y-52030952D01*
X58095238Y-51721428D02*
X58095238Y-52588095D01*
X58095238Y-51845238D02*
X58033333Y-51783333D01*
X57909523Y-51721428D01*
X57723809Y-51721428D01*
X57600000Y-51783333D01*
X57538095Y-51907142D01*
X57538095Y-52588095D01*
X56919047Y-52588095D02*
X56919047Y-51288095D01*
X56795238Y-52092857D02*
X56423809Y-52588095D01*
X56423809Y-51721428D02*
X56919047Y-52216666D01*
X55928571Y-52526190D02*
X55804761Y-52588095D01*
X55557142Y-52588095D01*
X55433333Y-52526190D01*
X55371428Y-52402380D01*
X55371428Y-52340476D01*
X55433333Y-52216666D01*
X55557142Y-52154761D01*
X55742857Y-52154761D01*
X55866666Y-52092857D01*
X55928571Y-51969047D01*
X55928571Y-51907142D01*
X55866666Y-51783333D01*
X55742857Y-51721428D01*
X55557142Y-51721428D01*
X55433333Y-51783333D01*
X54009523Y-51721428D02*
X53514285Y-51721428D01*
X53823809Y-51288095D02*
X53823809Y-52402380D01*
X53761904Y-52526190D01*
X53638095Y-52588095D01*
X53514285Y-52588095D01*
X52895238Y-52588095D02*
X53019047Y-52526190D01*
X53080952Y-52464285D01*
X53142857Y-52340476D01*
X53142857Y-51969047D01*
X53080952Y-51845238D01*
X53019047Y-51783333D01*
X52895238Y-51721428D01*
X52709523Y-51721428D01*
X52585714Y-51783333D01*
X52523809Y-51845238D01*
X52461904Y-51969047D01*
X52461904Y-52340476D01*
X52523809Y-52464285D01*
X52585714Y-52526190D01*
X52709523Y-52588095D01*
X52895238Y-52588095D01*
X51100000Y-51721428D02*
X50604761Y-51721428D01*
X50914285Y-51288095D02*
X50914285Y-52402380D01*
X50852380Y-52526190D01*
X50728571Y-52588095D01*
X50604761Y-52588095D01*
X50171428Y-52588095D02*
X50171428Y-51288095D01*
X49614285Y-52588095D02*
X49614285Y-51907142D01*
X49676190Y-51783333D01*
X49800000Y-51721428D01*
X49985714Y-51721428D01*
X50109523Y-51783333D01*
X50171428Y-51845238D01*
X48500000Y-52526190D02*
X48623809Y-52588095D01*
X48871428Y-52588095D01*
X48995238Y-52526190D01*
X49057142Y-52402380D01*
X49057142Y-51907142D01*
X48995238Y-51783333D01*
X48871428Y-51721428D01*
X48623809Y-51721428D01*
X48500000Y-51783333D01*
X48438095Y-51907142D01*
X48438095Y-52030952D01*
X49057142Y-52154761D01*
X46395238Y-52526190D02*
X46519047Y-52588095D01*
X46766666Y-52588095D01*
X46890476Y-52526190D01*
X46952380Y-52402380D01*
X46952380Y-51907142D01*
X46890476Y-51783333D01*
X46766666Y-51721428D01*
X46519047Y-51721428D01*
X46395238Y-51783333D01*
X46333333Y-51907142D01*
X46333333Y-52030952D01*
X46952380Y-52154761D01*
X45776190Y-51721428D02*
X45776190Y-53021428D01*
X45776190Y-51783333D02*
X45652380Y-51721428D01*
X45404761Y-51721428D01*
X45280952Y-51783333D01*
X45219047Y-51845238D01*
X45157142Y-51969047D01*
X45157142Y-52340476D01*
X45219047Y-52464285D01*
X45280952Y-52526190D01*
X45404761Y-52588095D01*
X45652380Y-52588095D01*
X45776190Y-52526190D01*
X44042857Y-52588095D02*
X44042857Y-51288095D01*
X44042857Y-52526190D02*
X44166666Y-52588095D01*
X44414285Y-52588095D01*
X44538095Y-52526190D01*
X44600000Y-52464285D01*
X44661904Y-52340476D01*
X44661904Y-51969047D01*
X44600000Y-51845238D01*
X44538095Y-51783333D01*
X44414285Y-51721428D01*
X44166666Y-51721428D01*
X44042857Y-51783333D01*
X43423809Y-52588095D02*
X43423809Y-51721428D01*
X43423809Y-51288095D02*
X43485714Y-51350000D01*
X43423809Y-51411904D01*
X43361904Y-51350000D01*
X43423809Y-51288095D01*
X43423809Y-51411904D01*
X42928571Y-51721428D02*
X42619047Y-52588095D01*
X42309523Y-51721428D02*
X42619047Y-52588095D01*
X42742857Y-52897619D01*
X42804761Y-52959523D01*
X42928571Y-53021428D01*
X40266666Y-52526190D02*
X40390476Y-52588095D01*
X40638095Y-52588095D01*
X40761904Y-52526190D01*
X40823809Y-52464285D01*
X40885714Y-52340476D01*
X40885714Y-51969047D01*
X40823809Y-51845238D01*
X40761904Y-51783333D01*
X40638095Y-51721428D01*
X40390476Y-51721428D01*
X40266666Y-51783333D01*
X39523809Y-52588095D02*
X39647619Y-52526190D01*
X39709523Y-52464285D01*
X39771428Y-52340476D01*
X39771428Y-51969047D01*
X39709523Y-51845238D01*
X39647619Y-51783333D01*
X39523809Y-51721428D01*
X39338095Y-51721428D01*
X39214285Y-51783333D01*
X39152380Y-51845238D01*
X39090476Y-51969047D01*
X39090476Y-52340476D01*
X39152380Y-52464285D01*
X39214285Y-52526190D01*
X39338095Y-52588095D01*
X39523809Y-52588095D01*
X38533333Y-51721428D02*
X38533333Y-52588095D01*
X38533333Y-51845238D02*
X38471428Y-51783333D01*
X38347619Y-51721428D01*
X38161904Y-51721428D01*
X38038095Y-51783333D01*
X37976190Y-51907142D01*
X37976190Y-52588095D01*
X37542857Y-51721428D02*
X37047619Y-51721428D01*
X37357142Y-51288095D02*
X37357142Y-52402380D01*
X37295238Y-52526190D01*
X37171428Y-52588095D01*
X37047619Y-52588095D01*
X36614285Y-52588095D02*
X36614285Y-51721428D01*
X36614285Y-51969047D02*
X36552380Y-51845238D01*
X36490476Y-51783333D01*
X36366666Y-51721428D01*
X36242857Y-51721428D01*
X35809523Y-52588095D02*
X35809523Y-51721428D01*
X35809523Y-51288095D02*
X35871428Y-51350000D01*
X35809523Y-51411904D01*
X35747619Y-51350000D01*
X35809523Y-51288095D01*
X35809523Y-51411904D01*
X35190476Y-52588095D02*
X35190476Y-51288095D01*
X35190476Y-51783333D02*
X35066666Y-51721428D01*
X34819047Y-51721428D01*
X34695238Y-51783333D01*
X34633333Y-51845238D01*
X34571428Y-51969047D01*
X34571428Y-52340476D01*
X34633333Y-52464285D01*
X34695238Y-52526190D01*
X34819047Y-52588095D01*
X35066666Y-52588095D01*
X35190476Y-52526190D01*
X33457142Y-51721428D02*
X33457142Y-52588095D01*
X34014285Y-51721428D02*
X34014285Y-52402380D01*
X33952380Y-52526190D01*
X33828571Y-52588095D01*
X33642857Y-52588095D01*
X33519047Y-52526190D01*
X33457142Y-52464285D01*
X33023809Y-51721428D02*
X32528571Y-51721428D01*
X32838095Y-51288095D02*
X32838095Y-52402380D01*
X32776190Y-52526190D01*
X32652380Y-52588095D01*
X32528571Y-52588095D01*
X31909523Y-52588095D02*
X32033333Y-52526190D01*
X32095238Y-52464285D01*
X32157142Y-52340476D01*
X32157142Y-51969047D01*
X32095238Y-51845238D01*
X32033333Y-51783333D01*
X31909523Y-51721428D01*
X31723809Y-51721428D01*
X31600000Y-51783333D01*
X31538095Y-51845238D01*
X31476190Y-51969047D01*
X31476190Y-52340476D01*
X31538095Y-52464285D01*
X31600000Y-52526190D01*
X31723809Y-52588095D01*
X31909523Y-52588095D01*
X30919047Y-52588095D02*
X30919047Y-51721428D01*
X30919047Y-51969047D02*
X30857142Y-51845238D01*
X30795238Y-51783333D01*
X30671428Y-51721428D01*
X30547619Y-51721428D01*
X30176190Y-52526190D02*
X30052380Y-52588095D01*
X29804761Y-52588095D01*
X29680952Y-52526190D01*
X29619047Y-52402380D01*
X29619047Y-52340476D01*
X29680952Y-52216666D01*
X29804761Y-52154761D01*
X29990476Y-52154761D01*
X30114285Y-52092857D01*
X30176190Y-51969047D01*
X30176190Y-51907142D01*
X30114285Y-51783333D01*
X29990476Y-51721428D01*
X29804761Y-51721428D01*
X29680952Y-51783333D01*
X29061904Y-52464285D02*
X29000000Y-52526190D01*
X29061904Y-52588095D01*
X29123809Y-52526190D01*
X29061904Y-52464285D01*
X29061904Y-52588095D01*
X29061904Y-52092857D02*
X29123809Y-51350000D01*
X29061904Y-51288095D01*
X29000000Y-51350000D01*
X29061904Y-52092857D01*
X29061904Y-51288095D01*
X62707142Y-56093142D02*
X63140476Y-56093142D01*
X63140476Y-56774095D02*
X63140476Y-55474095D01*
X62521428Y-55474095D01*
X61840476Y-56774095D02*
X61964285Y-56712190D01*
X62026190Y-56650285D01*
X62088095Y-56526476D01*
X62088095Y-56155047D01*
X62026190Y-56031238D01*
X61964285Y-55969333D01*
X61840476Y-55907428D01*
X61654761Y-55907428D01*
X61530952Y-55969333D01*
X61469047Y-56031238D01*
X61407142Y-56155047D01*
X61407142Y-56526476D01*
X61469047Y-56650285D01*
X61530952Y-56712190D01*
X61654761Y-56774095D01*
X61840476Y-56774095D01*
X60850000Y-56774095D02*
X60850000Y-55907428D01*
X60850000Y-56155047D02*
X60788095Y-56031238D01*
X60726190Y-55969333D01*
X60602380Y-55907428D01*
X60478571Y-55907428D01*
X59116666Y-56712190D02*
X58992857Y-56774095D01*
X58745238Y-56774095D01*
X58621428Y-56712190D01*
X58559523Y-56588380D01*
X58559523Y-56526476D01*
X58621428Y-56402666D01*
X58745238Y-56340761D01*
X58930952Y-56340761D01*
X59054761Y-56278857D01*
X59116666Y-56155047D01*
X59116666Y-56093142D01*
X59054761Y-55969333D01*
X58930952Y-55907428D01*
X58745238Y-55907428D01*
X58621428Y-55969333D01*
X57816666Y-56774095D02*
X57940476Y-56712190D01*
X58002380Y-56650285D01*
X58064285Y-56526476D01*
X58064285Y-56155047D01*
X58002380Y-56031238D01*
X57940476Y-55969333D01*
X57816666Y-55907428D01*
X57630952Y-55907428D01*
X57507142Y-55969333D01*
X57445238Y-56031238D01*
X57383333Y-56155047D01*
X57383333Y-56526476D01*
X57445238Y-56650285D01*
X57507142Y-56712190D01*
X57630952Y-56774095D01*
X57816666Y-56774095D01*
X56269047Y-55907428D02*
X56269047Y-56774095D01*
X56826190Y-55907428D02*
X56826190Y-56588380D01*
X56764285Y-56712190D01*
X56640476Y-56774095D01*
X56454761Y-56774095D01*
X56330952Y-56712190D01*
X56269047Y-56650285D01*
X55650000Y-56774095D02*
X55650000Y-55907428D01*
X55650000Y-56155047D02*
X55588095Y-56031238D01*
X55526190Y-55969333D01*
X55402380Y-55907428D01*
X55278571Y-55907428D01*
X54288095Y-56712190D02*
X54411904Y-56774095D01*
X54659523Y-56774095D01*
X54783333Y-56712190D01*
X54845238Y-56650285D01*
X54907142Y-56526476D01*
X54907142Y-56155047D01*
X54845238Y-56031238D01*
X54783333Y-55969333D01*
X54659523Y-55907428D01*
X54411904Y-55907428D01*
X54288095Y-55969333D01*
X53235714Y-56712190D02*
X53359523Y-56774095D01*
X53607142Y-56774095D01*
X53730952Y-56712190D01*
X53792857Y-56588380D01*
X53792857Y-56093142D01*
X53730952Y-55969333D01*
X53607142Y-55907428D01*
X53359523Y-55907428D01*
X53235714Y-55969333D01*
X53173809Y-56093142D01*
X53173809Y-56216952D01*
X53792857Y-56340761D01*
X52678571Y-56712190D02*
X52554761Y-56774095D01*
X52307142Y-56774095D01*
X52183333Y-56712190D01*
X52121428Y-56588380D01*
X52121428Y-56526476D01*
X52183333Y-56402666D01*
X52307142Y-56340761D01*
X52492857Y-56340761D01*
X52616666Y-56278857D01*
X52678571Y-56155047D01*
X52678571Y-56093142D01*
X52616666Y-55969333D01*
X52492857Y-55907428D01*
X52307142Y-55907428D01*
X52183333Y-55969333D01*
X50016666Y-56774095D02*
X50016666Y-56093142D01*
X50078571Y-55969333D01*
X50202380Y-55907428D01*
X50450000Y-55907428D01*
X50573809Y-55969333D01*
X50016666Y-56712190D02*
X50140476Y-56774095D01*
X50450000Y-56774095D01*
X50573809Y-56712190D01*
X50635714Y-56588380D01*
X50635714Y-56464571D01*
X50573809Y-56340761D01*
X50450000Y-56278857D01*
X50140476Y-56278857D01*
X50016666Y-56216952D01*
X49397619Y-55907428D02*
X49397619Y-56774095D01*
X49397619Y-56031238D02*
X49335714Y-55969333D01*
X49211904Y-55907428D01*
X49026190Y-55907428D01*
X48902380Y-55969333D01*
X48840476Y-56093142D01*
X48840476Y-56774095D01*
X47664285Y-56774095D02*
X47664285Y-55474095D01*
X47664285Y-56712190D02*
X47788095Y-56774095D01*
X48035714Y-56774095D01*
X48159523Y-56712190D01*
X48221428Y-56650285D01*
X48283333Y-56526476D01*
X48283333Y-56155047D01*
X48221428Y-56031238D01*
X48159523Y-55969333D01*
X48035714Y-55907428D01*
X47788095Y-55907428D01*
X47664285Y-55969333D01*
X45497619Y-56774095D02*
X45497619Y-55474095D01*
X45497619Y-56712190D02*
X45621428Y-56774095D01*
X45869047Y-56774095D01*
X45992857Y-56712190D01*
X46054761Y-56650285D01*
X46116666Y-56526476D01*
X46116666Y-56155047D01*
X46054761Y-56031238D01*
X45992857Y-55969333D01*
X45869047Y-55907428D01*
X45621428Y-55907428D01*
X45497619Y-55969333D01*
X44692857Y-56774095D02*
X44816666Y-56712190D01*
X44878571Y-56650285D01*
X44940476Y-56526476D01*
X44940476Y-56155047D01*
X44878571Y-56031238D01*
X44816666Y-55969333D01*
X44692857Y-55907428D01*
X44507142Y-55907428D01*
X44383333Y-55969333D01*
X44321428Y-56031238D01*
X44259523Y-56155047D01*
X44259523Y-56526476D01*
X44321428Y-56650285D01*
X44383333Y-56712190D01*
X44507142Y-56774095D01*
X44692857Y-56774095D01*
X43145238Y-56712190D02*
X43269047Y-56774095D01*
X43516666Y-56774095D01*
X43640476Y-56712190D01*
X43702380Y-56650285D01*
X43764285Y-56526476D01*
X43764285Y-56155047D01*
X43702380Y-56031238D01*
X43640476Y-55969333D01*
X43516666Y-55907428D01*
X43269047Y-55907428D01*
X43145238Y-55969333D01*
X42030952Y-55907428D02*
X42030952Y-56774095D01*
X42588095Y-55907428D02*
X42588095Y-56588380D01*
X42526190Y-56712190D01*
X42402380Y-56774095D01*
X42216666Y-56774095D01*
X42092857Y-56712190D01*
X42030952Y-56650285D01*
X41411904Y-56774095D02*
X41411904Y-55907428D01*
X41411904Y-56031238D02*
X41350000Y-55969333D01*
X41226190Y-55907428D01*
X41040476Y-55907428D01*
X40916666Y-55969333D01*
X40854761Y-56093142D01*
X40854761Y-56774095D01*
X40854761Y-56093142D02*
X40792857Y-55969333D01*
X40669047Y-55907428D01*
X40483333Y-55907428D01*
X40359523Y-55969333D01*
X40297619Y-56093142D01*
X40297619Y-56774095D01*
X39183333Y-56712190D02*
X39307142Y-56774095D01*
X39554761Y-56774095D01*
X39678571Y-56712190D01*
X39740476Y-56588380D01*
X39740476Y-56093142D01*
X39678571Y-55969333D01*
X39554761Y-55907428D01*
X39307142Y-55907428D01*
X39183333Y-55969333D01*
X39121428Y-56093142D01*
X39121428Y-56216952D01*
X39740476Y-56340761D01*
X38564285Y-55907428D02*
X38564285Y-56774095D01*
X38564285Y-56031238D02*
X38502380Y-55969333D01*
X38378571Y-55907428D01*
X38192857Y-55907428D01*
X38069047Y-55969333D01*
X38007142Y-56093142D01*
X38007142Y-56774095D01*
X37573809Y-55907428D02*
X37078571Y-55907428D01*
X37388095Y-55474095D02*
X37388095Y-56588380D01*
X37326190Y-56712190D01*
X37202380Y-56774095D01*
X37078571Y-56774095D01*
X36088095Y-56774095D02*
X36088095Y-56093142D01*
X36150000Y-55969333D01*
X36273809Y-55907428D01*
X36521428Y-55907428D01*
X36645238Y-55969333D01*
X36088095Y-56712190D02*
X36211904Y-56774095D01*
X36521428Y-56774095D01*
X36645238Y-56712190D01*
X36707142Y-56588380D01*
X36707142Y-56464571D01*
X36645238Y-56340761D01*
X36521428Y-56278857D01*
X36211904Y-56278857D01*
X36088095Y-56216952D01*
X35654761Y-55907428D02*
X35159523Y-55907428D01*
X35469047Y-55474095D02*
X35469047Y-56588380D01*
X35407142Y-56712190D01*
X35283333Y-56774095D01*
X35159523Y-56774095D01*
X34726190Y-56774095D02*
X34726190Y-55907428D01*
X34726190Y-55474095D02*
X34788095Y-55536000D01*
X34726190Y-55597904D01*
X34664285Y-55536000D01*
X34726190Y-55474095D01*
X34726190Y-55597904D01*
X33921428Y-56774095D02*
X34045238Y-56712190D01*
X34107142Y-56650285D01*
X34169047Y-56526476D01*
X34169047Y-56155047D01*
X34107142Y-56031238D01*
X34045238Y-55969333D01*
X33921428Y-55907428D01*
X33735714Y-55907428D01*
X33611904Y-55969333D01*
X33550000Y-56031238D01*
X33488095Y-56155047D01*
X33488095Y-56526476D01*
X33550000Y-56650285D01*
X33611904Y-56712190D01*
X33735714Y-56774095D01*
X33921428Y-56774095D01*
X32930952Y-55907428D02*
X32930952Y-56774095D01*
X32930952Y-56031238D02*
X32869047Y-55969333D01*
X32745238Y-55907428D01*
X32559523Y-55907428D01*
X32435714Y-55969333D01*
X32373809Y-56093142D01*
X32373809Y-56774095D01*
X30888095Y-55907428D02*
X30578571Y-56774095D01*
X30269047Y-55907428D01*
X29773809Y-56774095D02*
X29773809Y-55907428D01*
X29773809Y-55474095D02*
X29835714Y-55536000D01*
X29773809Y-55597904D01*
X29711904Y-55536000D01*
X29773809Y-55474095D01*
X29773809Y-55597904D01*
X29216666Y-56712190D02*
X29092857Y-56774095D01*
X28845238Y-56774095D01*
X28721428Y-56712190D01*
X28659523Y-56588380D01*
X28659523Y-56526476D01*
X28721428Y-56402666D01*
X28845238Y-56340761D01*
X29030952Y-56340761D01*
X29154761Y-56278857D01*
X29216666Y-56155047D01*
X29216666Y-56093142D01*
X29154761Y-55969333D01*
X29030952Y-55907428D01*
X28845238Y-55907428D01*
X28721428Y-55969333D01*
X28102380Y-56774095D02*
X28102380Y-55907428D01*
X28102380Y-55474095D02*
X28164285Y-55536000D01*
X28102380Y-55597904D01*
X28040476Y-55536000D01*
X28102380Y-55474095D01*
X28102380Y-55597904D01*
X27669047Y-55907428D02*
X27173809Y-55907428D01*
X27483333Y-55474095D02*
X27483333Y-56588380D01*
X27421428Y-56712190D01*
X27297619Y-56774095D01*
X27173809Y-56774095D01*
X61902380Y-58867095D02*
X61902380Y-57567095D01*
X61345238Y-58867095D02*
X61345238Y-58186142D01*
X61407142Y-58062333D01*
X61530952Y-58000428D01*
X61716666Y-58000428D01*
X61840476Y-58062333D01*
X61902380Y-58124238D01*
X60911904Y-58000428D02*
X60416666Y-58000428D01*
X60726190Y-57567095D02*
X60726190Y-58681380D01*
X60664285Y-58805190D01*
X60540476Y-58867095D01*
X60416666Y-58867095D01*
X60169047Y-58000428D02*
X59673809Y-58000428D01*
X59983333Y-57567095D02*
X59983333Y-58681380D01*
X59921428Y-58805190D01*
X59797619Y-58867095D01*
X59673809Y-58867095D01*
X59240476Y-58000428D02*
X59240476Y-59300428D01*
X59240476Y-58062333D02*
X59116666Y-58000428D01*
X58869047Y-58000428D01*
X58745238Y-58062333D01*
X58683333Y-58124238D01*
X58621428Y-58248047D01*
X58621428Y-58619476D01*
X58683333Y-58743285D01*
X58745238Y-58805190D01*
X58869047Y-58867095D01*
X59116666Y-58867095D01*
X59240476Y-58805190D01*
X58126190Y-58805190D02*
X58002380Y-58867095D01*
X57754761Y-58867095D01*
X57630952Y-58805190D01*
X57569047Y-58681380D01*
X57569047Y-58619476D01*
X57630952Y-58495666D01*
X57754761Y-58433761D01*
X57940476Y-58433761D01*
X58064285Y-58371857D01*
X58126190Y-58248047D01*
X58126190Y-58186142D01*
X58064285Y-58062333D01*
X57940476Y-58000428D01*
X57754761Y-58000428D01*
X57630952Y-58062333D01*
X57011904Y-58743285D02*
X56950000Y-58805190D01*
X57011904Y-58867095D01*
X57073809Y-58805190D01*
X57011904Y-58743285D01*
X57011904Y-58867095D01*
X57011904Y-58062333D02*
X56950000Y-58124238D01*
X57011904Y-58186142D01*
X57073809Y-58124238D01*
X57011904Y-58062333D01*
X57011904Y-58186142D01*
X55464285Y-57505190D02*
X56578571Y-59176619D01*
X54102380Y-57505190D02*
X55216666Y-59176619D01*
X53111904Y-58000428D02*
X53111904Y-59052809D01*
X53173809Y-59176619D01*
X53235714Y-59238523D01*
X53359523Y-59300428D01*
X53545238Y-59300428D01*
X53669047Y-59238523D01*
X53111904Y-58805190D02*
X53235714Y-58867095D01*
X53483333Y-58867095D01*
X53607142Y-58805190D01*
X53669047Y-58743285D01*
X53730952Y-58619476D01*
X53730952Y-58248047D01*
X53669047Y-58124238D01*
X53607142Y-58062333D01*
X53483333Y-58000428D01*
X53235714Y-58000428D01*
X53111904Y-58062333D01*
X52492857Y-58867095D02*
X52492857Y-58000428D01*
X52492857Y-57567095D02*
X52554761Y-57629000D01*
X52492857Y-57690904D01*
X52430952Y-57629000D01*
X52492857Y-57567095D01*
X52492857Y-57690904D01*
X52059523Y-58000428D02*
X51564285Y-58000428D01*
X51873809Y-57567095D02*
X51873809Y-58681380D01*
X51811904Y-58805190D01*
X51688095Y-58867095D01*
X51564285Y-58867095D01*
X51130952Y-58867095D02*
X51130952Y-57567095D01*
X50573809Y-58867095D02*
X50573809Y-58186142D01*
X50635714Y-58062333D01*
X50759523Y-58000428D01*
X50945238Y-58000428D01*
X51069047Y-58062333D01*
X51130952Y-58124238D01*
X49397619Y-58000428D02*
X49397619Y-58867095D01*
X49954761Y-58000428D02*
X49954761Y-58681380D01*
X49892857Y-58805190D01*
X49769047Y-58867095D01*
X49583333Y-58867095D01*
X49459523Y-58805190D01*
X49397619Y-58743285D01*
X48778571Y-58867095D02*
X48778571Y-57567095D01*
X48778571Y-58062333D02*
X48654761Y-58000428D01*
X48407142Y-58000428D01*
X48283333Y-58062333D01*
X48221428Y-58124238D01*
X48159523Y-58248047D01*
X48159523Y-58619476D01*
X48221428Y-58743285D01*
X48283333Y-58805190D01*
X48407142Y-58867095D01*
X48654761Y-58867095D01*
X48778571Y-58805190D01*
X47602380Y-58743285D02*
X47540476Y-58805190D01*
X47602380Y-58867095D01*
X47664285Y-58805190D01*
X47602380Y-58743285D01*
X47602380Y-58867095D01*
X46426190Y-58805190D02*
X46550000Y-58867095D01*
X46797619Y-58867095D01*
X46921428Y-58805190D01*
X46983333Y-58743285D01*
X47045238Y-58619476D01*
X47045238Y-58248047D01*
X46983333Y-58124238D01*
X46921428Y-58062333D01*
X46797619Y-58000428D01*
X46550000Y-58000428D01*
X46426190Y-58062333D01*
X45683333Y-58867095D02*
X45807142Y-58805190D01*
X45869047Y-58743285D01*
X45930952Y-58619476D01*
X45930952Y-58248047D01*
X45869047Y-58124238D01*
X45807142Y-58062333D01*
X45683333Y-58000428D01*
X45497619Y-58000428D01*
X45373809Y-58062333D01*
X45311904Y-58124238D01*
X45250000Y-58248047D01*
X45250000Y-58619476D01*
X45311904Y-58743285D01*
X45373809Y-58805190D01*
X45497619Y-58867095D01*
X45683333Y-58867095D01*
X44692857Y-58867095D02*
X44692857Y-58000428D01*
X44692857Y-58124238D02*
X44630952Y-58062333D01*
X44507142Y-58000428D01*
X44321428Y-58000428D01*
X44197619Y-58062333D01*
X44135714Y-58186142D01*
X44135714Y-58867095D01*
X44135714Y-58186142D02*
X44073809Y-58062333D01*
X43950000Y-58000428D01*
X43764285Y-58000428D01*
X43640476Y-58062333D01*
X43578571Y-58186142D01*
X43578571Y-58867095D01*
X42030952Y-57505190D02*
X43145238Y-59176619D01*
X41721428Y-58000428D02*
X41411904Y-58867095D01*
X41102380Y-58000428D01*
X40607142Y-58867095D02*
X40607142Y-58000428D01*
X40607142Y-58248047D02*
X40545238Y-58124238D01*
X40483333Y-58062333D01*
X40359523Y-58000428D01*
X40235714Y-58000428D01*
X39616666Y-58867095D02*
X39740476Y-58805190D01*
X39802380Y-58743285D01*
X39864285Y-58619476D01*
X39864285Y-58248047D01*
X39802380Y-58124238D01*
X39740476Y-58062333D01*
X39616666Y-58000428D01*
X39430952Y-58000428D01*
X39307142Y-58062333D01*
X39245238Y-58124238D01*
X39183333Y-58248047D01*
X39183333Y-58619476D01*
X39245238Y-58743285D01*
X39307142Y-58805190D01*
X39430952Y-58867095D01*
X39616666Y-58867095D01*
X38440476Y-58867095D02*
X38564285Y-58805190D01*
X38626190Y-58681380D01*
X38626190Y-57567095D01*
X37388095Y-58867095D02*
X37388095Y-58186142D01*
X37450000Y-58062333D01*
X37573809Y-58000428D01*
X37821428Y-58000428D01*
X37945238Y-58062333D01*
X37388095Y-58805190D02*
X37511904Y-58867095D01*
X37821428Y-58867095D01*
X37945238Y-58805190D01*
X38007142Y-58681380D01*
X38007142Y-58557571D01*
X37945238Y-58433761D01*
X37821428Y-58371857D01*
X37511904Y-58371857D01*
X37388095Y-58309952D01*
X36769047Y-58000428D02*
X36769047Y-58867095D01*
X36769047Y-58124238D02*
X36707142Y-58062333D01*
X36583333Y-58000428D01*
X36397619Y-58000428D01*
X36273809Y-58062333D01*
X36211904Y-58186142D01*
X36211904Y-58867095D01*
X35035714Y-58867095D02*
X35035714Y-57567095D01*
X35035714Y-58805190D02*
X35159523Y-58867095D01*
X35407142Y-58867095D01*
X35530952Y-58805190D01*
X35592857Y-58743285D01*
X35654761Y-58619476D01*
X35654761Y-58248047D01*
X35592857Y-58124238D01*
X35530952Y-58062333D01*
X35407142Y-58000428D01*
X35159523Y-58000428D01*
X35035714Y-58062333D01*
X33488095Y-57505190D02*
X34602380Y-59176619D01*
X32559523Y-58805190D02*
X32683333Y-58867095D01*
X32930952Y-58867095D01*
X33054761Y-58805190D01*
X33116666Y-58681380D01*
X33116666Y-58186142D01*
X33054761Y-58062333D01*
X32930952Y-58000428D01*
X32683333Y-58000428D01*
X32559523Y-58062333D01*
X32497619Y-58186142D01*
X32497619Y-58309952D01*
X33116666Y-58433761D01*
X31940476Y-58000428D02*
X31940476Y-59300428D01*
X31940476Y-58062333D02*
X31816666Y-58000428D01*
X31569047Y-58000428D01*
X31445238Y-58062333D01*
X31383333Y-58124238D01*
X31321428Y-58248047D01*
X31321428Y-58619476D01*
X31383333Y-58743285D01*
X31445238Y-58805190D01*
X31569047Y-58867095D01*
X31816666Y-58867095D01*
X31940476Y-58805190D01*
X30207142Y-58867095D02*
X30207142Y-57567095D01*
X30207142Y-58805190D02*
X30330952Y-58867095D01*
X30578571Y-58867095D01*
X30702380Y-58805190D01*
X30764285Y-58743285D01*
X30826190Y-58619476D01*
X30826190Y-58248047D01*
X30764285Y-58124238D01*
X30702380Y-58062333D01*
X30578571Y-58000428D01*
X30330952Y-58000428D01*
X30207142Y-58062333D01*
X29588095Y-58867095D02*
X29588095Y-58000428D01*
X29588095Y-57567095D02*
X29650000Y-57629000D01*
X29588095Y-57690904D01*
X29526190Y-57629000D01*
X29588095Y-57567095D01*
X29588095Y-57690904D01*
X29092857Y-58000428D02*
X28783333Y-58867095D01*
X28473809Y-58000428D02*
X28783333Y-58867095D01*
X28907142Y-59176619D01*
X28969047Y-59238523D01*
X29092857Y-59300428D01*
G36*
X119782372Y-57953684D02*
G01*
X119873629Y-57996569D01*
X119948416Y-58070729D01*
X119963917Y-58093944D01*
X119976774Y-58120256D01*
X119985893Y-58153420D01*
X119992102Y-58199881D01*
X119996233Y-58266082D01*
X119999116Y-58358468D01*
X120001579Y-58483485D01*
X120007697Y-58830278D01*
X119956303Y-58810738D01*
X119909246Y-58792787D01*
X119874015Y-58775511D01*
X119851017Y-58753242D01*
X119837655Y-58719165D01*
X119831328Y-58666463D01*
X119829437Y-58588323D01*
X119829385Y-58477928D01*
X119829117Y-58389935D01*
X119827521Y-58305502D01*
X119823712Y-58247834D01*
X119816820Y-58209988D01*
X119805975Y-58185024D01*
X119790308Y-58166000D01*
X119751792Y-58139153D01*
X119687091Y-58129034D01*
X119623081Y-58154606D01*
X119618856Y-58157880D01*
X119605689Y-58173007D01*
X119595975Y-58197268D01*
X119588903Y-58236650D01*
X119583656Y-58297141D01*
X119579421Y-58384729D01*
X119575385Y-58505402D01*
X119565615Y-58828515D01*
X119399539Y-58754065D01*
X119399539Y-58459062D01*
X119399883Y-58378919D01*
X119402847Y-58267431D01*
X119410351Y-58184421D01*
X119424190Y-58123199D01*
X119446155Y-58077075D01*
X119478039Y-58039358D01*
X119521633Y-58003358D01*
X119584336Y-57967089D01*
X119683117Y-57943412D01*
X119782372Y-57953684D01*
G37*
D13*
X119782372Y-57953684D02*
X119873629Y-57996569D01*
X119948416Y-58070729D01*
X119963917Y-58093944D01*
X119976774Y-58120256D01*
X119985893Y-58153420D01*
X119992102Y-58199881D01*
X119996233Y-58266082D01*
X119999116Y-58358468D01*
X120001579Y-58483485D01*
X120007697Y-58830278D01*
X119956303Y-58810738D01*
X119909246Y-58792787D01*
X119874015Y-58775511D01*
X119851017Y-58753242D01*
X119837655Y-58719165D01*
X119831328Y-58666463D01*
X119829437Y-58588323D01*
X119829385Y-58477928D01*
X119829117Y-58389935D01*
X119827521Y-58305502D01*
X119823712Y-58247834D01*
X119816820Y-58209988D01*
X119805975Y-58185024D01*
X119790308Y-58166000D01*
X119751792Y-58139153D01*
X119687091Y-58129034D01*
X119623081Y-58154606D01*
X119618856Y-58157880D01*
X119605689Y-58173007D01*
X119595975Y-58197268D01*
X119588903Y-58236650D01*
X119583656Y-58297141D01*
X119579421Y-58384729D01*
X119575385Y-58505402D01*
X119565615Y-58828515D01*
X119399539Y-58754065D01*
X119399539Y-58459062D01*
X119399883Y-58378919D01*
X119402847Y-58267431D01*
X119410351Y-58184421D01*
X119424190Y-58123199D01*
X119446155Y-58077075D01*
X119478039Y-58039358D01*
X119521633Y-58003358D01*
X119584336Y-57967089D01*
X119683117Y-57943412D01*
X119782372Y-57953684D01*
G36*
X116818839Y-58476652D02*
G01*
X116807810Y-58580507D01*
X116783814Y-58658333D01*
X116744043Y-58717760D01*
X116685688Y-58766418D01*
X116630100Y-58794546D01*
X116536751Y-58810199D01*
X116443530Y-58793084D01*
X116359272Y-58745388D01*
X116292818Y-58669294D01*
X116284793Y-58655262D01*
X116274196Y-58630679D01*
X116266335Y-58599309D01*
X116260807Y-58555769D01*
X116257206Y-58494678D01*
X116255128Y-58410655D01*
X116255064Y-58403200D01*
X116390615Y-58403200D01*
X116391077Y-58474316D01*
X116393999Y-58538641D01*
X116401221Y-58580166D01*
X116414561Y-58608067D01*
X116435836Y-58631517D01*
X116440821Y-58636025D01*
X116504863Y-58669295D01*
X116572625Y-58665890D01*
X116635734Y-58626042D01*
X116654526Y-58605398D01*
X116670254Y-58578029D01*
X116679039Y-58540192D01*
X116682859Y-58482355D01*
X116683692Y-58394986D01*
X116683281Y-58328319D01*
X116680434Y-58263245D01*
X116673256Y-58221251D01*
X116659889Y-58193063D01*
X116638472Y-58169406D01*
X116625890Y-58158753D01*
X116560699Y-58130057D01*
X116492400Y-58134575D01*
X116433098Y-58172144D01*
X116420333Y-58187040D01*
X116404764Y-58215089D01*
X116395762Y-58254258D01*
X116391617Y-58313858D01*
X116390615Y-58403200D01*
X116255064Y-58403200D01*
X116254167Y-58298320D01*
X116253919Y-58152289D01*
X116253846Y-57698963D01*
X116317346Y-57725564D01*
X116334136Y-57732845D01*
X116360859Y-57749287D01*
X116376156Y-57774187D01*
X116384563Y-57817732D01*
X116390615Y-57890106D01*
X116396144Y-57955089D01*
X116403450Y-57997750D01*
X116413918Y-58013670D01*
X116429692Y-58009400D01*
X116469890Y-57994397D01*
X116541728Y-57990678D01*
X116619010Y-58004572D01*
X116685688Y-58034505D01*
X116722371Y-58062211D01*
X116769472Y-58116269D01*
X116799638Y-58185577D01*
X116815678Y-58277765D01*
X116820191Y-58394986D01*
X116820401Y-58400462D01*
X116818839Y-58476652D01*
G37*
X116818839Y-58476652D02*
X116807810Y-58580507D01*
X116783814Y-58658333D01*
X116744043Y-58717760D01*
X116685688Y-58766418D01*
X116630100Y-58794546D01*
X116536751Y-58810199D01*
X116443530Y-58793084D01*
X116359272Y-58745388D01*
X116292818Y-58669294D01*
X116284793Y-58655262D01*
X116274196Y-58630679D01*
X116266335Y-58599309D01*
X116260807Y-58555769D01*
X116257206Y-58494678D01*
X116255128Y-58410655D01*
X116255064Y-58403200D01*
X116390615Y-58403200D01*
X116391077Y-58474316D01*
X116393999Y-58538641D01*
X116401221Y-58580166D01*
X116414561Y-58608067D01*
X116435836Y-58631517D01*
X116440821Y-58636025D01*
X116504863Y-58669295D01*
X116572625Y-58665890D01*
X116635734Y-58626042D01*
X116654526Y-58605398D01*
X116670254Y-58578029D01*
X116679039Y-58540192D01*
X116682859Y-58482355D01*
X116683692Y-58394986D01*
X116683281Y-58328319D01*
X116680434Y-58263245D01*
X116673256Y-58221251D01*
X116659889Y-58193063D01*
X116638472Y-58169406D01*
X116625890Y-58158753D01*
X116560699Y-58130057D01*
X116492400Y-58134575D01*
X116433098Y-58172144D01*
X116420333Y-58187040D01*
X116404764Y-58215089D01*
X116395762Y-58254258D01*
X116391617Y-58313858D01*
X116390615Y-58403200D01*
X116255064Y-58403200D01*
X116254167Y-58298320D01*
X116253919Y-58152289D01*
X116253846Y-57698963D01*
X116317346Y-57725564D01*
X116334136Y-57732845D01*
X116360859Y-57749287D01*
X116376156Y-57774187D01*
X116384563Y-57817732D01*
X116390615Y-57890106D01*
X116396144Y-57955089D01*
X116403450Y-57997750D01*
X116413918Y-58013670D01*
X116429692Y-58009400D01*
X116469890Y-57994397D01*
X116541728Y-57990678D01*
X116619010Y-58004572D01*
X116685688Y-58034505D01*
X116722371Y-58062211D01*
X116769472Y-58116269D01*
X116799638Y-58185577D01*
X116815678Y-58277765D01*
X116820191Y-58394986D01*
X116820401Y-58400462D01*
X116818839Y-58476652D01*
G36*
X118832923Y-57753806D02*
G01*
X118832923Y-58288455D01*
X118832660Y-58427094D01*
X118831958Y-58551805D01*
X118830883Y-58657557D01*
X118829500Y-58739322D01*
X118827874Y-58792069D01*
X118826070Y-58810769D01*
X118825364Y-58810706D01*
X118801387Y-58803912D01*
X118757685Y-58789320D01*
X118696154Y-58767870D01*
X118696154Y-58492617D01*
X118695763Y-58384466D01*
X118693946Y-58306026D01*
X118689767Y-58252647D01*
X118682286Y-58217256D01*
X118670567Y-58192779D01*
X118653671Y-58172144D01*
X118642152Y-58161170D01*
X118579864Y-58130775D01*
X118511211Y-58133466D01*
X118448298Y-58169406D01*
X118439139Y-58178325D01*
X118424471Y-58196844D01*
X118414433Y-58221326D01*
X118408151Y-58258393D01*
X118404748Y-58314667D01*
X118403349Y-58396771D01*
X118403077Y-58511329D01*
X118402947Y-58569430D01*
X118402099Y-58664993D01*
X118400594Y-58741526D01*
X118398585Y-58792345D01*
X118396223Y-58810769D01*
X118395518Y-58810706D01*
X118371541Y-58803912D01*
X118327839Y-58789320D01*
X118266308Y-58767870D01*
X118266338Y-58491358D01*
X118266384Y-58466742D01*
X118268970Y-58338419D01*
X118276913Y-58241384D01*
X118292155Y-58169057D01*
X118316636Y-58114855D01*
X118352298Y-58072198D01*
X118401082Y-58034505D01*
X118448661Y-58010910D01*
X118524732Y-57992672D01*
X118599556Y-57991636D01*
X118657077Y-58009378D01*
X118661402Y-58011829D01*
X118674738Y-58011566D01*
X118683851Y-57991039D01*
X118690428Y-57943980D01*
X118696154Y-57864120D01*
X118705923Y-57700236D01*
X118832923Y-57753806D01*
G37*
X118832923Y-57753806D02*
X118832923Y-58288455D01*
X118832660Y-58427094D01*
X118831958Y-58551805D01*
X118830883Y-58657557D01*
X118829500Y-58739322D01*
X118827874Y-58792069D01*
X118826070Y-58810769D01*
X118825364Y-58810706D01*
X118801387Y-58803912D01*
X118757685Y-58789320D01*
X118696154Y-58767870D01*
X118696154Y-58492617D01*
X118695763Y-58384466D01*
X118693946Y-58306026D01*
X118689767Y-58252647D01*
X118682286Y-58217256D01*
X118670567Y-58192779D01*
X118653671Y-58172144D01*
X118642152Y-58161170D01*
X118579864Y-58130775D01*
X118511211Y-58133466D01*
X118448298Y-58169406D01*
X118439139Y-58178325D01*
X118424471Y-58196844D01*
X118414433Y-58221326D01*
X118408151Y-58258393D01*
X118404748Y-58314667D01*
X118403349Y-58396771D01*
X118403077Y-58511329D01*
X118402947Y-58569430D01*
X118402099Y-58664993D01*
X118400594Y-58741526D01*
X118398585Y-58792345D01*
X118396223Y-58810769D01*
X118395518Y-58810706D01*
X118371541Y-58803912D01*
X118327839Y-58789320D01*
X118266308Y-58767870D01*
X118266338Y-58491358D01*
X118266384Y-58466742D01*
X118268970Y-58338419D01*
X118276913Y-58241384D01*
X118292155Y-58169057D01*
X118316636Y-58114855D01*
X118352298Y-58072198D01*
X118401082Y-58034505D01*
X118448661Y-58010910D01*
X118524732Y-57992672D01*
X118599556Y-57991636D01*
X118657077Y-58009378D01*
X118661402Y-58011829D01*
X118674738Y-58011566D01*
X118683851Y-57991039D01*
X118690428Y-57943980D01*
X118696154Y-57864120D01*
X118705923Y-57700236D01*
X118832923Y-57753806D01*
G36*
X117976458Y-58011228D02*
G01*
X118043622Y-58050389D01*
X118073169Y-58080902D01*
X118129948Y-58172110D01*
X118149077Y-58271548D01*
X118149077Y-58339960D01*
X118086191Y-58313518D01*
X118042700Y-58286837D01*
X118008426Y-58231446D01*
X118004907Y-58220024D01*
X117967028Y-58161838D01*
X117909936Y-58130407D01*
X117844383Y-58129058D01*
X117781117Y-58161116D01*
X117771672Y-58169383D01*
X117740087Y-58205311D01*
X117734871Y-58236635D01*
X117758765Y-58267391D01*
X117814510Y-58301617D01*
X117904846Y-58343350D01*
X117910956Y-58345993D01*
X118011241Y-58392755D01*
X118079735Y-58434181D01*
X118121899Y-58475542D01*
X118143193Y-58522111D01*
X118149077Y-58579160D01*
X118141366Y-58642408D01*
X118102430Y-58723364D01*
X118033932Y-58781522D01*
X117984388Y-58798983D01*
X117914469Y-58808537D01*
X117846575Y-58806496D01*
X117798093Y-58792082D01*
X117792943Y-58788493D01*
X117779267Y-58763416D01*
X117788757Y-58719218D01*
X117805246Y-58684527D01*
X117831687Y-58670084D01*
X117881834Y-58670803D01*
X117951453Y-58666660D01*
X117996943Y-58638054D01*
X118012308Y-58585104D01*
X118012294Y-58583582D01*
X118002983Y-58552845D01*
X117971311Y-58524643D01*
X117909731Y-58492136D01*
X117825986Y-58452998D01*
X117770518Y-58431706D01*
X117738497Y-58433079D01*
X117723534Y-58461203D01*
X117719242Y-58520170D01*
X117719231Y-58614068D01*
X117718752Y-58672031D01*
X117716556Y-58743612D01*
X117712986Y-58792606D01*
X117708491Y-58810769D01*
X117707290Y-58810646D01*
X117681319Y-58800802D01*
X117638305Y-58780028D01*
X117578859Y-58749287D01*
X117585923Y-58472298D01*
X117586414Y-58453928D01*
X117592025Y-58324992D01*
X117601938Y-58227814D01*
X117618175Y-58155925D01*
X117642759Y-58102852D01*
X117677715Y-58062127D01*
X117725064Y-58027279D01*
X117725940Y-58026733D01*
X117802499Y-57998303D01*
X117891044Y-57993500D01*
X117976458Y-58011228D01*
G37*
X117976458Y-58011228D02*
X118043622Y-58050389D01*
X118073169Y-58080902D01*
X118129948Y-58172110D01*
X118149077Y-58271548D01*
X118149077Y-58339960D01*
X118086191Y-58313518D01*
X118042700Y-58286837D01*
X118008426Y-58231446D01*
X118004907Y-58220024D01*
X117967028Y-58161838D01*
X117909936Y-58130407D01*
X117844383Y-58129058D01*
X117781117Y-58161116D01*
X117771672Y-58169383D01*
X117740087Y-58205311D01*
X117734871Y-58236635D01*
X117758765Y-58267391D01*
X117814510Y-58301617D01*
X117904846Y-58343350D01*
X117910956Y-58345993D01*
X118011241Y-58392755D01*
X118079735Y-58434181D01*
X118121899Y-58475542D01*
X118143193Y-58522111D01*
X118149077Y-58579160D01*
X118141366Y-58642408D01*
X118102430Y-58723364D01*
X118033932Y-58781522D01*
X117984388Y-58798983D01*
X117914469Y-58808537D01*
X117846575Y-58806496D01*
X117798093Y-58792082D01*
X117792943Y-58788493D01*
X117779267Y-58763416D01*
X117788757Y-58719218D01*
X117805246Y-58684527D01*
X117831687Y-58670084D01*
X117881834Y-58670803D01*
X117951453Y-58666660D01*
X117996943Y-58638054D01*
X118012308Y-58585104D01*
X118012294Y-58583582D01*
X118002983Y-58552845D01*
X117971311Y-58524643D01*
X117909731Y-58492136D01*
X117825986Y-58452998D01*
X117770518Y-58431706D01*
X117738497Y-58433079D01*
X117723534Y-58461203D01*
X117719242Y-58520170D01*
X117719231Y-58614068D01*
X117718752Y-58672031D01*
X117716556Y-58743612D01*
X117712986Y-58792606D01*
X117708491Y-58810769D01*
X117707290Y-58810646D01*
X117681319Y-58800802D01*
X117638305Y-58780028D01*
X117578859Y-58749287D01*
X117585923Y-58472298D01*
X117586414Y-58453928D01*
X117592025Y-58324992D01*
X117601938Y-58227814D01*
X117618175Y-58155925D01*
X117642759Y-58102852D01*
X117677715Y-58062127D01*
X117725064Y-58027279D01*
X117725940Y-58026733D01*
X117802499Y-57998303D01*
X117891044Y-57993500D01*
X117976458Y-58011228D01*
G36*
X121505763Y-58620269D02*
G01*
X121506300Y-58663802D01*
X121508019Y-58809344D01*
X121508365Y-58920711D01*
X121506277Y-59001804D01*
X121500698Y-59056522D01*
X121490567Y-59088761D01*
X121474826Y-59102422D01*
X121452417Y-59101403D01*
X121422280Y-59089603D01*
X121383355Y-59070920D01*
X121375038Y-59066933D01*
X121340402Y-59047419D01*
X121322314Y-59024202D01*
X121315392Y-58985492D01*
X121314256Y-58919497D01*
X121314205Y-58801000D01*
X121192141Y-58801000D01*
X121117055Y-58797712D01*
X121058015Y-58784377D01*
X121008986Y-58757423D01*
X121005330Y-58754788D01*
X120955581Y-58710286D01*
X120920959Y-58656523D01*
X120899123Y-58586154D01*
X120887737Y-58491830D01*
X120884959Y-58385271D01*
X121079846Y-58385271D01*
X121079880Y-58403131D01*
X121081735Y-58483748D01*
X121087693Y-58536447D01*
X121099506Y-58570668D01*
X121118923Y-58595846D01*
X121120133Y-58597049D01*
X121167858Y-58629628D01*
X121214110Y-58626417D01*
X121266350Y-58586965D01*
X121279128Y-58573482D01*
X121297949Y-58545837D01*
X121308562Y-58509880D01*
X121313252Y-58455364D01*
X121314308Y-58372042D01*
X121313394Y-58321598D01*
X121303477Y-58229857D01*
X121280842Y-58169752D01*
X121243238Y-58136900D01*
X121188416Y-58126923D01*
X121165317Y-58129050D01*
X121125350Y-58150147D01*
X121098926Y-58197161D01*
X121084330Y-58274175D01*
X121079846Y-58385271D01*
X120884959Y-58385271D01*
X120884462Y-58366206D01*
X120885187Y-58274536D01*
X120888490Y-58205098D01*
X120895828Y-58156945D01*
X120908655Y-58120866D01*
X120928423Y-58087648D01*
X120946569Y-58062261D01*
X121012461Y-57993727D01*
X121087114Y-57956505D01*
X121180904Y-57944722D01*
X121288240Y-57956467D01*
X121381031Y-57998595D01*
X121454421Y-58072898D01*
X121459954Y-58080764D01*
X121472857Y-58101668D01*
X121482742Y-58125555D01*
X121490093Y-58157582D01*
X121495394Y-58202905D01*
X121499127Y-58266679D01*
X121501778Y-58354060D01*
X121502096Y-58372042D01*
X121503828Y-58470205D01*
X121505763Y-58620269D01*
G37*
X121505763Y-58620269D02*
X121506300Y-58663802D01*
X121508019Y-58809344D01*
X121508365Y-58920711D01*
X121506277Y-59001804D01*
X121500698Y-59056522D01*
X121490567Y-59088761D01*
X121474826Y-59102422D01*
X121452417Y-59101403D01*
X121422280Y-59089603D01*
X121383355Y-59070920D01*
X121375038Y-59066933D01*
X121340402Y-59047419D01*
X121322314Y-59024202D01*
X121315392Y-58985492D01*
X121314256Y-58919497D01*
X121314205Y-58801000D01*
X121192141Y-58801000D01*
X121117055Y-58797712D01*
X121058015Y-58784377D01*
X121008986Y-58757423D01*
X121005330Y-58754788D01*
X120955581Y-58710286D01*
X120920959Y-58656523D01*
X120899123Y-58586154D01*
X120887737Y-58491830D01*
X120884959Y-58385271D01*
X121079846Y-58385271D01*
X121079880Y-58403131D01*
X121081735Y-58483748D01*
X121087693Y-58536447D01*
X121099506Y-58570668D01*
X121118923Y-58595846D01*
X121120133Y-58597049D01*
X121167858Y-58629628D01*
X121214110Y-58626417D01*
X121266350Y-58586965D01*
X121279128Y-58573482D01*
X121297949Y-58545837D01*
X121308562Y-58509880D01*
X121313252Y-58455364D01*
X121314308Y-58372042D01*
X121313394Y-58321598D01*
X121303477Y-58229857D01*
X121280842Y-58169752D01*
X121243238Y-58136900D01*
X121188416Y-58126923D01*
X121165317Y-58129050D01*
X121125350Y-58150147D01*
X121098926Y-58197161D01*
X121084330Y-58274175D01*
X121079846Y-58385271D01*
X120884959Y-58385271D01*
X120884462Y-58366206D01*
X120885187Y-58274536D01*
X120888490Y-58205098D01*
X120895828Y-58156945D01*
X120908655Y-58120866D01*
X120928423Y-58087648D01*
X120946569Y-58062261D01*
X121012461Y-57993727D01*
X121087114Y-57956505D01*
X121180904Y-57944722D01*
X121288240Y-57956467D01*
X121381031Y-57998595D01*
X121454421Y-58072898D01*
X121459954Y-58080764D01*
X121472857Y-58101668D01*
X121482742Y-58125555D01*
X121490093Y-58157582D01*
X121495394Y-58202905D01*
X121499127Y-58266679D01*
X121501778Y-58354060D01*
X121502096Y-58372042D01*
X121503828Y-58470205D01*
X121505763Y-58620269D01*
G36*
X122252135Y-58402105D02*
G01*
X122251076Y-58496584D01*
X122247436Y-58562414D01*
X122239892Y-58608394D01*
X122227122Y-58643321D01*
X122207803Y-58675995D01*
X122203050Y-58682775D01*
X122152759Y-58736231D01*
X122095457Y-58776547D01*
X122066032Y-58789629D01*
X121960299Y-58811450D01*
X121855734Y-58797336D01*
X121759368Y-58749105D01*
X121678235Y-58668579D01*
X121671385Y-58657791D01*
X121649097Y-58595153D01*
X121634079Y-58507935D01*
X121626792Y-58407210D01*
X121627611Y-58314037D01*
X121824796Y-58314037D01*
X121826349Y-58443114D01*
X121826974Y-58451420D01*
X121836077Y-58522643D01*
X121852288Y-58567809D01*
X121879660Y-58598752D01*
X121925553Y-58627737D01*
X121970942Y-58629261D01*
X122017692Y-58595846D01*
X122025824Y-58587053D01*
X122041754Y-58560741D01*
X122051159Y-58522520D01*
X122055632Y-58463349D01*
X122056769Y-58374182D01*
X122054822Y-58290664D01*
X122045105Y-58211095D01*
X122025047Y-58160808D01*
X121992240Y-58134513D01*
X121944280Y-58126923D01*
X121926016Y-58128432D01*
X121874848Y-58156107D01*
X121841035Y-58218172D01*
X121824796Y-58314037D01*
X121627611Y-58314037D01*
X121627699Y-58304052D01*
X121637262Y-58209533D01*
X121655943Y-58134727D01*
X121679951Y-58084905D01*
X121747536Y-58007409D01*
X121839114Y-57959256D01*
X121951213Y-57942703D01*
X121981151Y-57943599D01*
X122069315Y-57961929D01*
X122141733Y-58008104D01*
X122208192Y-58087648D01*
X122212147Y-58093548D01*
X122230040Y-58125288D01*
X122241678Y-58161163D01*
X122248371Y-58209906D01*
X122251426Y-58280249D01*
X122252106Y-58374182D01*
X122252154Y-58380923D01*
X122252135Y-58402105D01*
G37*
X122252135Y-58402105D02*
X122251076Y-58496584D01*
X122247436Y-58562414D01*
X122239892Y-58608394D01*
X122227122Y-58643321D01*
X122207803Y-58675995D01*
X122203050Y-58682775D01*
X122152759Y-58736231D01*
X122095457Y-58776547D01*
X122066032Y-58789629D01*
X121960299Y-58811450D01*
X121855734Y-58797336D01*
X121759368Y-58749105D01*
X121678235Y-58668579D01*
X121671385Y-58657791D01*
X121649097Y-58595153D01*
X121634079Y-58507935D01*
X121626792Y-58407210D01*
X121627611Y-58314037D01*
X121824796Y-58314037D01*
X121826349Y-58443114D01*
X121826974Y-58451420D01*
X121836077Y-58522643D01*
X121852288Y-58567809D01*
X121879660Y-58598752D01*
X121925553Y-58627737D01*
X121970942Y-58629261D01*
X122017692Y-58595846D01*
X122025824Y-58587053D01*
X122041754Y-58560741D01*
X122051159Y-58522520D01*
X122055632Y-58463349D01*
X122056769Y-58374182D01*
X122054822Y-58290664D01*
X122045105Y-58211095D01*
X122025047Y-58160808D01*
X121992240Y-58134513D01*
X121944280Y-58126923D01*
X121926016Y-58128432D01*
X121874848Y-58156107D01*
X121841035Y-58218172D01*
X121824796Y-58314037D01*
X121627611Y-58314037D01*
X121627699Y-58304052D01*
X121637262Y-58209533D01*
X121655943Y-58134727D01*
X121679951Y-58084905D01*
X121747536Y-58007409D01*
X121839114Y-57959256D01*
X121951213Y-57942703D01*
X121981151Y-57943599D01*
X122069315Y-57961929D01*
X122141733Y-58008104D01*
X122208192Y-58087648D01*
X122212147Y-58093548D01*
X122230040Y-58125288D01*
X122241678Y-58161163D01*
X122248371Y-58209906D01*
X122251426Y-58280249D01*
X122252106Y-58374182D01*
X122252154Y-58380923D01*
X122252135Y-58402105D01*
G36*
X117873575Y-51659693D02*
G01*
X118009371Y-51659807D01*
X118111576Y-51660472D01*
X118185122Y-51662182D01*
X118234942Y-51665429D01*
X118265967Y-51670706D01*
X118283129Y-51678507D01*
X118291361Y-51689325D01*
X118295594Y-51703654D01*
X118295716Y-51704168D01*
X118302672Y-51737851D01*
X118315320Y-51802917D01*
X118332360Y-51892542D01*
X118352496Y-51999904D01*
X118374429Y-52118178D01*
X118376218Y-52127856D01*
X118398083Y-52242650D01*
X118418430Y-52343480D01*
X118435934Y-52424217D01*
X118449271Y-52478734D01*
X118457116Y-52500901D01*
X118457158Y-52500936D01*
X118481884Y-52513200D01*
X118532631Y-52533576D01*
X118598462Y-52557674D01*
X118602169Y-52558983D01*
X118686331Y-52590791D01*
X118784230Y-52630685D01*
X118875435Y-52670353D01*
X119025407Y-52738420D01*
X119357499Y-52511639D01*
X119380889Y-52495688D01*
X119481080Y-52427890D01*
X119570480Y-52368208D01*
X119643745Y-52320156D01*
X119695527Y-52287250D01*
X119720480Y-52273004D01*
X119737577Y-52276270D01*
X119776395Y-52301571D01*
X119836385Y-52351675D01*
X119919210Y-52427989D01*
X120026535Y-52531922D01*
X120036139Y-52541382D01*
X120121302Y-52626145D01*
X120196949Y-52702937D01*
X120258449Y-52766947D01*
X120301173Y-52813361D01*
X120320489Y-52837369D01*
X120320552Y-52837485D01*
X120323006Y-52855763D01*
X120313956Y-52885411D01*
X120291119Y-52930486D01*
X120252213Y-52995044D01*
X120194954Y-53083140D01*
X120117059Y-53198830D01*
X120103785Y-53218357D01*
X120036652Y-53317278D01*
X119977410Y-53404848D01*
X119929588Y-53475831D01*
X119896715Y-53524991D01*
X119882318Y-53547095D01*
X119881232Y-53551777D01*
X119888044Y-53586710D01*
X119908450Y-53643753D01*
X119939123Y-53713172D01*
X119980808Y-53803959D01*
X120027352Y-53911686D01*
X120066877Y-54009192D01*
X120076676Y-54034430D01*
X120102340Y-54098870D01*
X120121193Y-54143763D01*
X120129710Y-54160616D01*
X120139111Y-54161875D01*
X120181363Y-54169159D01*
X120250521Y-54181739D01*
X120339387Y-54198246D01*
X120440768Y-54217312D01*
X120547467Y-54237569D01*
X120652288Y-54257647D01*
X120748036Y-54276179D01*
X120827516Y-54291795D01*
X120883530Y-54303127D01*
X120908885Y-54308807D01*
X120913088Y-54310408D01*
X120923334Y-54319045D01*
X120930957Y-54337433D01*
X120936338Y-54370460D01*
X120939859Y-54423013D01*
X120941901Y-54499979D01*
X120942847Y-54606246D01*
X120943077Y-54746701D01*
X120943077Y-55173845D01*
X120840500Y-55194091D01*
X120828092Y-55196518D01*
X120762199Y-55209088D01*
X120671084Y-55226170D01*
X120565104Y-55245829D01*
X120454615Y-55266132D01*
X120411105Y-55274299D01*
X120313882Y-55294167D01*
X120232858Y-55312954D01*
X120175477Y-55328859D01*
X120149187Y-55340079D01*
X120137273Y-55358411D01*
X120115583Y-55406916D01*
X120093395Y-55469692D01*
X120085585Y-55493200D01*
X120056835Y-55570366D01*
X120019752Y-55661694D01*
X119980375Y-55752093D01*
X119959315Y-55799310D01*
X119929311Y-55869837D01*
X119908692Y-55922655D01*
X119901026Y-55948912D01*
X119901452Y-55950894D01*
X119915993Y-55978751D01*
X119948783Y-56032510D01*
X119996493Y-56106963D01*
X120055798Y-56196897D01*
X120123369Y-56297104D01*
X120345713Y-56623416D01*
X120053601Y-56916016D01*
X120025349Y-56944171D01*
X119938961Y-57028449D01*
X119861756Y-57101128D01*
X119798258Y-57158112D01*
X119752990Y-57195307D01*
X119730474Y-57208616D01*
X119706023Y-57198490D01*
X119654819Y-57169421D01*
X119582747Y-57124896D01*
X119495460Y-57068411D01*
X119398612Y-57003462D01*
X119303486Y-56939314D01*
X119217669Y-56882827D01*
X119147652Y-56838184D01*
X119098876Y-56808855D01*
X119076783Y-56798308D01*
X119075488Y-56798404D01*
X119046139Y-56808802D01*
X118994093Y-56833012D01*
X118929708Y-56866249D01*
X118929032Y-56866613D01*
X118843521Y-56909441D01*
X118784926Y-56930365D01*
X118748571Y-56930423D01*
X118729775Y-56910654D01*
X118721819Y-56891195D01*
X118700347Y-56839080D01*
X118667273Y-56758964D01*
X118624356Y-56655107D01*
X118573356Y-56531767D01*
X118516033Y-56393201D01*
X118454146Y-56243670D01*
X118398052Y-56107636D01*
X118340977Y-55968050D01*
X118290479Y-55843315D01*
X118248254Y-55737672D01*
X118215995Y-55655365D01*
X118195397Y-55600635D01*
X118188154Y-55577726D01*
X118201986Y-55556718D01*
X118240412Y-55521642D01*
X118294807Y-55480887D01*
X118425395Y-55374267D01*
X118542260Y-55238025D01*
X118627780Y-55088118D01*
X118681431Y-54928971D01*
X118702684Y-54765012D01*
X118691014Y-54600667D01*
X118645894Y-54440361D01*
X118566797Y-54288520D01*
X118453197Y-54149572D01*
X118393965Y-54095460D01*
X118252054Y-53999782D01*
X118100206Y-53937405D01*
X117942861Y-53906844D01*
X117784456Y-53906615D01*
X117629429Y-53935232D01*
X117482220Y-53991210D01*
X117347266Y-54073064D01*
X117229005Y-54179309D01*
X117131877Y-54308459D01*
X117060318Y-54459031D01*
X117018769Y-54629539D01*
X117011143Y-54711722D01*
X117021634Y-54889775D01*
X117068882Y-55058704D01*
X117151489Y-55215522D01*
X117268059Y-55357245D01*
X117417193Y-55480887D01*
X117469561Y-55519982D01*
X117508832Y-55555443D01*
X117523846Y-55577692D01*
X117517859Y-55597088D01*
X117498432Y-55649059D01*
X117467194Y-55729002D01*
X117425839Y-55832673D01*
X117376061Y-55955832D01*
X117319553Y-56094234D01*
X117258009Y-56243637D01*
X117202008Y-56379020D01*
X117144184Y-56518852D01*
X117092500Y-56643872D01*
X117048718Y-56749822D01*
X117014597Y-56832441D01*
X116991898Y-56887472D01*
X116982380Y-56910654D01*
X116982269Y-56910928D01*
X116963228Y-56930503D01*
X116926694Y-56930279D01*
X116867954Y-56909210D01*
X116782292Y-56866249D01*
X116775549Y-56862631D01*
X116711938Y-56830087D01*
X116661707Y-56807050D01*
X116635218Y-56798308D01*
X116613506Y-56808639D01*
X116564984Y-56837788D01*
X116495163Y-56882287D01*
X116409484Y-56938668D01*
X116313388Y-57003462D01*
X116218706Y-57066984D01*
X116131132Y-57123705D01*
X116058642Y-57168547D01*
X116006889Y-57198016D01*
X115981526Y-57208616D01*
X115977206Y-57207270D01*
X115947092Y-57186056D01*
X115895640Y-57142237D01*
X115827375Y-57079909D01*
X115746820Y-57003170D01*
X115658500Y-56916116D01*
X115366488Y-56623617D01*
X115821360Y-55954525D01*
X115752208Y-55804916D01*
X115752003Y-55804473D01*
X115710477Y-55709101D01*
X115668044Y-55602896D01*
X115633858Y-55508769D01*
X115628684Y-55493588D01*
X115602601Y-55423109D01*
X115579081Y-55368342D01*
X115562677Y-55340079D01*
X115555996Y-55336088D01*
X115515892Y-55322697D01*
X115447795Y-55305373D01*
X115359145Y-55285917D01*
X115257385Y-55266132D01*
X115226904Y-55260551D01*
X115116628Y-55240233D01*
X115013731Y-55221095D01*
X114928569Y-55205070D01*
X114871500Y-55194091D01*
X114768923Y-55173845D01*
X114768923Y-54746701D01*
X114768946Y-54694180D01*
X114769379Y-54566047D01*
X114770659Y-54470420D01*
X114773168Y-54402411D01*
X114777286Y-54357133D01*
X114783395Y-54329697D01*
X114791878Y-54315218D01*
X114803115Y-54308807D01*
X114813994Y-54306209D01*
X114858347Y-54297022D01*
X114929106Y-54282991D01*
X115019074Y-54265486D01*
X115121056Y-54245874D01*
X115227857Y-54225525D01*
X115332281Y-54205807D01*
X115427132Y-54188089D01*
X115505214Y-54173738D01*
X115559332Y-54164124D01*
X115582291Y-54160616D01*
X115583842Y-54158497D01*
X115596325Y-54131006D01*
X115617927Y-54078406D01*
X115645123Y-54009192D01*
X115682866Y-53915937D01*
X115729328Y-53808159D01*
X115772878Y-53713172D01*
X115782858Y-53691851D01*
X115810862Y-53625086D01*
X115827641Y-53573590D01*
X115829854Y-53547095D01*
X115828713Y-53545218D01*
X115810584Y-53517565D01*
X115774644Y-53463849D01*
X115724418Y-53389303D01*
X115663430Y-53299162D01*
X115595205Y-53198657D01*
X115518330Y-53084470D01*
X115460663Y-52995770D01*
X115421426Y-52930721D01*
X115398350Y-52885295D01*
X115389166Y-52855463D01*
X115391604Y-52837195D01*
X115392424Y-52835825D01*
X115414477Y-52809205D01*
X115459436Y-52760697D01*
X115522673Y-52695108D01*
X115599559Y-52617247D01*
X115685465Y-52531922D01*
X115774579Y-52445334D01*
X115861872Y-52363947D01*
X115926018Y-52309035D01*
X115968679Y-52279190D01*
X115991521Y-52273004D01*
X115994505Y-52274394D01*
X116025936Y-52293127D01*
X116082997Y-52329733D01*
X116160343Y-52380697D01*
X116252626Y-52442504D01*
X116354502Y-52511639D01*
X116686593Y-52738420D01*
X116836566Y-52670353D01*
X116840923Y-52668381D01*
X116933000Y-52628491D01*
X117030683Y-52588818D01*
X117113539Y-52557674D01*
X117113905Y-52557545D01*
X117179685Y-52533456D01*
X117230323Y-52513110D01*
X117254884Y-52500901D01*
X117255282Y-52500458D01*
X117263619Y-52475456D01*
X117277341Y-52418598D01*
X117295123Y-52336014D01*
X117315641Y-52233831D01*
X117337571Y-52118178D01*
X117338336Y-52114033D01*
X117360229Y-51996019D01*
X117380281Y-51889151D01*
X117397192Y-51800252D01*
X117409667Y-51736145D01*
X117416406Y-51703654D01*
X117416837Y-51701853D01*
X117421273Y-51687944D01*
X117430263Y-51677489D01*
X117448737Y-51669996D01*
X117481628Y-51664972D01*
X117533868Y-51661922D01*
X117610388Y-51660355D01*
X117716122Y-51659776D01*
X117856000Y-51659692D01*
X117873575Y-51659693D01*
G37*
X117873575Y-51659693D02*
X118009371Y-51659807D01*
X118111576Y-51660472D01*
X118185122Y-51662182D01*
X118234942Y-51665429D01*
X118265967Y-51670706D01*
X118283129Y-51678507D01*
X118291361Y-51689325D01*
X118295594Y-51703654D01*
X118295716Y-51704168D01*
X118302672Y-51737851D01*
X118315320Y-51802917D01*
X118332360Y-51892542D01*
X118352496Y-51999904D01*
X118374429Y-52118178D01*
X118376218Y-52127856D01*
X118398083Y-52242650D01*
X118418430Y-52343480D01*
X118435934Y-52424217D01*
X118449271Y-52478734D01*
X118457116Y-52500901D01*
X118457158Y-52500936D01*
X118481884Y-52513200D01*
X118532631Y-52533576D01*
X118598462Y-52557674D01*
X118602169Y-52558983D01*
X118686331Y-52590791D01*
X118784230Y-52630685D01*
X118875435Y-52670353D01*
X119025407Y-52738420D01*
X119357499Y-52511639D01*
X119380889Y-52495688D01*
X119481080Y-52427890D01*
X119570480Y-52368208D01*
X119643745Y-52320156D01*
X119695527Y-52287250D01*
X119720480Y-52273004D01*
X119737577Y-52276270D01*
X119776395Y-52301571D01*
X119836385Y-52351675D01*
X119919210Y-52427989D01*
X120026535Y-52531922D01*
X120036139Y-52541382D01*
X120121302Y-52626145D01*
X120196949Y-52702937D01*
X120258449Y-52766947D01*
X120301173Y-52813361D01*
X120320489Y-52837369D01*
X120320552Y-52837485D01*
X120323006Y-52855763D01*
X120313956Y-52885411D01*
X120291119Y-52930486D01*
X120252213Y-52995044D01*
X120194954Y-53083140D01*
X120117059Y-53198830D01*
X120103785Y-53218357D01*
X120036652Y-53317278D01*
X119977410Y-53404848D01*
X119929588Y-53475831D01*
X119896715Y-53524991D01*
X119882318Y-53547095D01*
X119881232Y-53551777D01*
X119888044Y-53586710D01*
X119908450Y-53643753D01*
X119939123Y-53713172D01*
X119980808Y-53803959D01*
X120027352Y-53911686D01*
X120066877Y-54009192D01*
X120076676Y-54034430D01*
X120102340Y-54098870D01*
X120121193Y-54143763D01*
X120129710Y-54160616D01*
X120139111Y-54161875D01*
X120181363Y-54169159D01*
X120250521Y-54181739D01*
X120339387Y-54198246D01*
X120440768Y-54217312D01*
X120547467Y-54237569D01*
X120652288Y-54257647D01*
X120748036Y-54276179D01*
X120827516Y-54291795D01*
X120883530Y-54303127D01*
X120908885Y-54308807D01*
X120913088Y-54310408D01*
X120923334Y-54319045D01*
X120930957Y-54337433D01*
X120936338Y-54370460D01*
X120939859Y-54423013D01*
X120941901Y-54499979D01*
X120942847Y-54606246D01*
X120943077Y-54746701D01*
X120943077Y-55173845D01*
X120840500Y-55194091D01*
X120828092Y-55196518D01*
X120762199Y-55209088D01*
X120671084Y-55226170D01*
X120565104Y-55245829D01*
X120454615Y-55266132D01*
X120411105Y-55274299D01*
X120313882Y-55294167D01*
X120232858Y-55312954D01*
X120175477Y-55328859D01*
X120149187Y-55340079D01*
X120137273Y-55358411D01*
X120115583Y-55406916D01*
X120093395Y-55469692D01*
X120085585Y-55493200D01*
X120056835Y-55570366D01*
X120019752Y-55661694D01*
X119980375Y-55752093D01*
X119959315Y-55799310D01*
X119929311Y-55869837D01*
X119908692Y-55922655D01*
X119901026Y-55948912D01*
X119901452Y-55950894D01*
X119915993Y-55978751D01*
X119948783Y-56032510D01*
X119996493Y-56106963D01*
X120055798Y-56196897D01*
X120123369Y-56297104D01*
X120345713Y-56623416D01*
X120053601Y-56916016D01*
X120025349Y-56944171D01*
X119938961Y-57028449D01*
X119861756Y-57101128D01*
X119798258Y-57158112D01*
X119752990Y-57195307D01*
X119730474Y-57208616D01*
X119706023Y-57198490D01*
X119654819Y-57169421D01*
X119582747Y-57124896D01*
X119495460Y-57068411D01*
X119398612Y-57003462D01*
X119303486Y-56939314D01*
X119217669Y-56882827D01*
X119147652Y-56838184D01*
X119098876Y-56808855D01*
X119076783Y-56798308D01*
X119075488Y-56798404D01*
X119046139Y-56808802D01*
X118994093Y-56833012D01*
X118929708Y-56866249D01*
X118929032Y-56866613D01*
X118843521Y-56909441D01*
X118784926Y-56930365D01*
X118748571Y-56930423D01*
X118729775Y-56910654D01*
X118721819Y-56891195D01*
X118700347Y-56839080D01*
X118667273Y-56758964D01*
X118624356Y-56655107D01*
X118573356Y-56531767D01*
X118516033Y-56393201D01*
X118454146Y-56243670D01*
X118398052Y-56107636D01*
X118340977Y-55968050D01*
X118290479Y-55843315D01*
X118248254Y-55737672D01*
X118215995Y-55655365D01*
X118195397Y-55600635D01*
X118188154Y-55577726D01*
X118201986Y-55556718D01*
X118240412Y-55521642D01*
X118294807Y-55480887D01*
X118425395Y-55374267D01*
X118542260Y-55238025D01*
X118627780Y-55088118D01*
X118681431Y-54928971D01*
X118702684Y-54765012D01*
X118691014Y-54600667D01*
X118645894Y-54440361D01*
X118566797Y-54288520D01*
X118453197Y-54149572D01*
X118393965Y-54095460D01*
X118252054Y-53999782D01*
X118100206Y-53937405D01*
X117942861Y-53906844D01*
X117784456Y-53906615D01*
X117629429Y-53935232D01*
X117482220Y-53991210D01*
X117347266Y-54073064D01*
X117229005Y-54179309D01*
X117131877Y-54308459D01*
X117060318Y-54459031D01*
X117018769Y-54629539D01*
X117011143Y-54711722D01*
X117021634Y-54889775D01*
X117068882Y-55058704D01*
X117151489Y-55215522D01*
X117268059Y-55357245D01*
X117417193Y-55480887D01*
X117469561Y-55519982D01*
X117508832Y-55555443D01*
X117523846Y-55577692D01*
X117517859Y-55597088D01*
X117498432Y-55649059D01*
X117467194Y-55729002D01*
X117425839Y-55832673D01*
X117376061Y-55955832D01*
X117319553Y-56094234D01*
X117258009Y-56243637D01*
X117202008Y-56379020D01*
X117144184Y-56518852D01*
X117092500Y-56643872D01*
X117048718Y-56749822D01*
X117014597Y-56832441D01*
X116991898Y-56887472D01*
X116982380Y-56910654D01*
X116982269Y-56910928D01*
X116963228Y-56930503D01*
X116926694Y-56930279D01*
X116867954Y-56909210D01*
X116782292Y-56866249D01*
X116775549Y-56862631D01*
X116711938Y-56830087D01*
X116661707Y-56807050D01*
X116635218Y-56798308D01*
X116613506Y-56808639D01*
X116564984Y-56837788D01*
X116495163Y-56882287D01*
X116409484Y-56938668D01*
X116313388Y-57003462D01*
X116218706Y-57066984D01*
X116131132Y-57123705D01*
X116058642Y-57168547D01*
X116006889Y-57198016D01*
X115981526Y-57208616D01*
X115977206Y-57207270D01*
X115947092Y-57186056D01*
X115895640Y-57142237D01*
X115827375Y-57079909D01*
X115746820Y-57003170D01*
X115658500Y-56916116D01*
X115366488Y-56623617D01*
X115821360Y-55954525D01*
X115752208Y-55804916D01*
X115752003Y-55804473D01*
X115710477Y-55709101D01*
X115668044Y-55602896D01*
X115633858Y-55508769D01*
X115628684Y-55493588D01*
X115602601Y-55423109D01*
X115579081Y-55368342D01*
X115562677Y-55340079D01*
X115555996Y-55336088D01*
X115515892Y-55322697D01*
X115447795Y-55305373D01*
X115359145Y-55285917D01*
X115257385Y-55266132D01*
X115226904Y-55260551D01*
X115116628Y-55240233D01*
X115013731Y-55221095D01*
X114928569Y-55205070D01*
X114871500Y-55194091D01*
X114768923Y-55173845D01*
X114768923Y-54746701D01*
X114768946Y-54694180D01*
X114769379Y-54566047D01*
X114770659Y-54470420D01*
X114773168Y-54402411D01*
X114777286Y-54357133D01*
X114783395Y-54329697D01*
X114791878Y-54315218D01*
X114803115Y-54308807D01*
X114813994Y-54306209D01*
X114858347Y-54297022D01*
X114929106Y-54282991D01*
X115019074Y-54265486D01*
X115121056Y-54245874D01*
X115227857Y-54225525D01*
X115332281Y-54205807D01*
X115427132Y-54188089D01*
X115505214Y-54173738D01*
X115559332Y-54164124D01*
X115582291Y-54160616D01*
X115583842Y-54158497D01*
X115596325Y-54131006D01*
X115617927Y-54078406D01*
X115645123Y-54009192D01*
X115682866Y-53915937D01*
X115729328Y-53808159D01*
X115772878Y-53713172D01*
X115782858Y-53691851D01*
X115810862Y-53625086D01*
X115827641Y-53573590D01*
X115829854Y-53547095D01*
X115828713Y-53545218D01*
X115810584Y-53517565D01*
X115774644Y-53463849D01*
X115724418Y-53389303D01*
X115663430Y-53299162D01*
X115595205Y-53198657D01*
X115518330Y-53084470D01*
X115460663Y-52995770D01*
X115421426Y-52930721D01*
X115398350Y-52885295D01*
X115389166Y-52855463D01*
X115391604Y-52837195D01*
X115392424Y-52835825D01*
X115414477Y-52809205D01*
X115459436Y-52760697D01*
X115522673Y-52695108D01*
X115599559Y-52617247D01*
X115685465Y-52531922D01*
X115774579Y-52445334D01*
X115861872Y-52363947D01*
X115926018Y-52309035D01*
X115968679Y-52279190D01*
X115991521Y-52273004D01*
X115994505Y-52274394D01*
X116025936Y-52293127D01*
X116082997Y-52329733D01*
X116160343Y-52380697D01*
X116252626Y-52442504D01*
X116354502Y-52511639D01*
X116686593Y-52738420D01*
X116836566Y-52670353D01*
X116840923Y-52668381D01*
X116933000Y-52628491D01*
X117030683Y-52588818D01*
X117113539Y-52557674D01*
X117113905Y-52557545D01*
X117179685Y-52533456D01*
X117230323Y-52513110D01*
X117254884Y-52500901D01*
X117255282Y-52500458D01*
X117263619Y-52475456D01*
X117277341Y-52418598D01*
X117295123Y-52336014D01*
X117315641Y-52233831D01*
X117337571Y-52118178D01*
X117338336Y-52114033D01*
X117360229Y-51996019D01*
X117380281Y-51889151D01*
X117397192Y-51800252D01*
X117409667Y-51736145D01*
X117416406Y-51703654D01*
X117416837Y-51701853D01*
X117421273Y-51687944D01*
X117430263Y-51677489D01*
X117448737Y-51669996D01*
X117481628Y-51664972D01*
X117533868Y-51661922D01*
X117610388Y-51660355D01*
X117716122Y-51659776D01*
X117856000Y-51659692D01*
X117873575Y-51659693D01*
G36*
X116043998Y-57996034D02*
G01*
X116086850Y-58012829D01*
X116136615Y-58035503D01*
X116136615Y-58690533D01*
X116074785Y-58752363D01*
X116060662Y-58766228D01*
X116021536Y-58797046D01*
X115982078Y-58807028D01*
X115923362Y-58802433D01*
X115899456Y-58799462D01*
X115837801Y-58793176D01*
X115794692Y-58790672D01*
X115781905Y-58791055D01*
X115729446Y-58795200D01*
X115666022Y-58802433D01*
X115645730Y-58804918D01*
X115594610Y-58805895D01*
X115557207Y-58790462D01*
X115514599Y-58752363D01*
X115452769Y-58690533D01*
X115452769Y-58340343D01*
X115453251Y-58236857D01*
X115454753Y-58138192D01*
X115457089Y-58060068D01*
X115460071Y-58008662D01*
X115463509Y-57990154D01*
X115464230Y-57990204D01*
X115489203Y-57999413D01*
X115531399Y-58019707D01*
X115588549Y-58049261D01*
X115593928Y-58356746D01*
X115599308Y-58664231D01*
X115716539Y-58664231D01*
X115721885Y-58327192D01*
X115723579Y-58235574D01*
X115726005Y-58137649D01*
X115728634Y-58059906D01*
X115731246Y-58008642D01*
X115733623Y-57990154D01*
X115734306Y-57990219D01*
X115757996Y-57997020D01*
X115801546Y-58011604D01*
X115863077Y-58033054D01*
X115863376Y-58329104D01*
X115863676Y-58380532D01*
X115865754Y-58480466D01*
X115869470Y-58563925D01*
X115874430Y-58623377D01*
X115880240Y-58651287D01*
X115901024Y-58666214D01*
X115943440Y-58670825D01*
X115990077Y-58664231D01*
X115995423Y-58327192D01*
X115997336Y-58241546D01*
X116001303Y-58140172D01*
X116006491Y-58060655D01*
X116012499Y-58008736D01*
X116018927Y-57990154D01*
X116043998Y-57996034D01*
G37*
X116043998Y-57996034D02*
X116086850Y-58012829D01*
X116136615Y-58035503D01*
X116136615Y-58690533D01*
X116074785Y-58752363D01*
X116060662Y-58766228D01*
X116021536Y-58797046D01*
X115982078Y-58807028D01*
X115923362Y-58802433D01*
X115899456Y-58799462D01*
X115837801Y-58793176D01*
X115794692Y-58790672D01*
X115781905Y-58791055D01*
X115729446Y-58795200D01*
X115666022Y-58802433D01*
X115645730Y-58804918D01*
X115594610Y-58805895D01*
X115557207Y-58790462D01*
X115514599Y-58752363D01*
X115452769Y-58690533D01*
X115452769Y-58340343D01*
X115453251Y-58236857D01*
X115454753Y-58138192D01*
X115457089Y-58060068D01*
X115460071Y-58008662D01*
X115463509Y-57990154D01*
X115464230Y-57990204D01*
X115489203Y-57999413D01*
X115531399Y-58019707D01*
X115588549Y-58049261D01*
X115593928Y-58356746D01*
X115599308Y-58664231D01*
X115716539Y-58664231D01*
X115721885Y-58327192D01*
X115723579Y-58235574D01*
X115726005Y-58137649D01*
X115728634Y-58059906D01*
X115731246Y-58008642D01*
X115733623Y-57990154D01*
X115734306Y-57990219D01*
X115757996Y-57997020D01*
X115801546Y-58011604D01*
X115863077Y-58033054D01*
X115863376Y-58329104D01*
X115863676Y-58380532D01*
X115865754Y-58480466D01*
X115869470Y-58563925D01*
X115874430Y-58623377D01*
X115880240Y-58651287D01*
X115901024Y-58666214D01*
X115943440Y-58670825D01*
X115990077Y-58664231D01*
X115995423Y-58327192D01*
X115997336Y-58241546D01*
X116001303Y-58140172D01*
X116006491Y-58060655D01*
X116012499Y-58008736D01*
X116018927Y-57990154D01*
X116043998Y-57996034D01*
G36*
X115119936Y-57991911D02*
G01*
X115161807Y-58002547D01*
X115200791Y-58029062D01*
X115250965Y-58078420D01*
X115283232Y-58113279D01*
X115316844Y-58158534D01*
X115332003Y-58200951D01*
X115335539Y-58254768D01*
X115335539Y-58342850D01*
X115275470Y-58311787D01*
X115227867Y-58273936D01*
X115195261Y-58222950D01*
X115189661Y-58209088D01*
X115146992Y-58155358D01*
X115087707Y-58128417D01*
X115023061Y-58131039D01*
X114964308Y-58166000D01*
X114939450Y-58194394D01*
X114924970Y-58230718D01*
X114940470Y-58263046D01*
X114988667Y-58295565D01*
X115072274Y-58332461D01*
X115084962Y-58337557D01*
X115161078Y-58370907D01*
X115226396Y-58403793D01*
X115267953Y-58429769D01*
X115309576Y-58476167D01*
X115337247Y-58550211D01*
X115334310Y-58629670D01*
X115301571Y-58704868D01*
X115239841Y-58766131D01*
X115189858Y-58792210D01*
X115093303Y-58810470D01*
X115039647Y-58808007D01*
X114989976Y-58794687D01*
X114970919Y-58766739D01*
X114978045Y-58720710D01*
X114980118Y-58714624D01*
X114996556Y-58682349D01*
X115023926Y-58670133D01*
X115076068Y-58670950D01*
X115112884Y-58672061D01*
X115155961Y-58662528D01*
X115185475Y-58634026D01*
X115202286Y-58598935D01*
X115204161Y-58562175D01*
X115204074Y-58561961D01*
X115182279Y-58542098D01*
X115135632Y-58513192D01*
X115075278Y-58480886D01*
X115012360Y-58450823D01*
X114958023Y-58428646D01*
X114923410Y-58420000D01*
X114918260Y-58428467D01*
X114911778Y-58468309D01*
X114907339Y-58533371D01*
X114905692Y-58615385D01*
X114905309Y-58672153D01*
X114903505Y-58743648D01*
X114900558Y-58792610D01*
X114896843Y-58810769D01*
X114877424Y-58804667D01*
X114838227Y-58788095D01*
X114788462Y-58765420D01*
X114788462Y-58474509D01*
X114788780Y-58399940D01*
X114791789Y-58286701D01*
X114799454Y-58202692D01*
X114813562Y-58141520D01*
X114835899Y-58096795D01*
X114868253Y-58062124D01*
X114912410Y-58031117D01*
X114968667Y-58005528D01*
X115072540Y-57990154D01*
X115119936Y-57991911D01*
G37*
X115119936Y-57991911D02*
X115161807Y-58002547D01*
X115200791Y-58029062D01*
X115250965Y-58078420D01*
X115283232Y-58113279D01*
X115316844Y-58158534D01*
X115332003Y-58200951D01*
X115335539Y-58254768D01*
X115335539Y-58342850D01*
X115275470Y-58311787D01*
X115227867Y-58273936D01*
X115195261Y-58222950D01*
X115189661Y-58209088D01*
X115146992Y-58155358D01*
X115087707Y-58128417D01*
X115023061Y-58131039D01*
X114964308Y-58166000D01*
X114939450Y-58194394D01*
X114924970Y-58230718D01*
X114940470Y-58263046D01*
X114988667Y-58295565D01*
X115072274Y-58332461D01*
X115084962Y-58337557D01*
X115161078Y-58370907D01*
X115226396Y-58403793D01*
X115267953Y-58429769D01*
X115309576Y-58476167D01*
X115337247Y-58550211D01*
X115334310Y-58629670D01*
X115301571Y-58704868D01*
X115239841Y-58766131D01*
X115189858Y-58792210D01*
X115093303Y-58810470D01*
X115039647Y-58808007D01*
X114989976Y-58794687D01*
X114970919Y-58766739D01*
X114978045Y-58720710D01*
X114980118Y-58714624D01*
X114996556Y-58682349D01*
X115023926Y-58670133D01*
X115076068Y-58670950D01*
X115112884Y-58672061D01*
X115155961Y-58662528D01*
X115185475Y-58634026D01*
X115202286Y-58598935D01*
X115204161Y-58562175D01*
X115204074Y-58561961D01*
X115182279Y-58542098D01*
X115135632Y-58513192D01*
X115075278Y-58480886D01*
X115012360Y-58450823D01*
X114958023Y-58428646D01*
X114923410Y-58420000D01*
X114918260Y-58428467D01*
X114911778Y-58468309D01*
X114907339Y-58533371D01*
X114905692Y-58615385D01*
X114905309Y-58672153D01*
X114903505Y-58743648D01*
X114900558Y-58792610D01*
X114896843Y-58810769D01*
X114877424Y-58804667D01*
X114838227Y-58788095D01*
X114788462Y-58765420D01*
X114788462Y-58474509D01*
X114788780Y-58399940D01*
X114791789Y-58286701D01*
X114799454Y-58202692D01*
X114813562Y-58141520D01*
X114835899Y-58096795D01*
X114868253Y-58062124D01*
X114912410Y-58031117D01*
X114968667Y-58005528D01*
X115072540Y-57990154D01*
X115119936Y-57991911D01*
G36*
X120760574Y-58473643D02*
G01*
X120757066Y-58505021D01*
X120730927Y-58616705D01*
X120683694Y-58701642D01*
X120611862Y-58766741D01*
X120607802Y-58769428D01*
X120516487Y-58807634D01*
X120421144Y-58811034D01*
X120329274Y-58781939D01*
X120248379Y-58722660D01*
X120185962Y-58635510D01*
X120184914Y-58633409D01*
X120164173Y-58579289D01*
X120148980Y-58517781D01*
X120140921Y-58460039D01*
X120141582Y-58417215D01*
X120152548Y-58400462D01*
X120162290Y-58401480D01*
X120208877Y-58420009D01*
X120261682Y-58454081D01*
X120306603Y-58493522D01*
X120329535Y-58528155D01*
X120353373Y-58575133D01*
X120402230Y-58617862D01*
X120458963Y-58634923D01*
X120479758Y-58629990D01*
X120520804Y-58605157D01*
X120556557Y-58570685D01*
X120571846Y-58539411D01*
X120571842Y-58539295D01*
X120554495Y-58524933D01*
X120508247Y-58499025D01*
X120440067Y-58465210D01*
X120356923Y-58427129D01*
X120356466Y-58426927D01*
X120266138Y-58386709D01*
X120205592Y-58357733D01*
X120168888Y-58335474D01*
X120150086Y-58315407D01*
X120143246Y-58293009D01*
X120142429Y-58263756D01*
X120148113Y-58208363D01*
X120341000Y-58208363D01*
X120360911Y-58225777D01*
X120410521Y-58251872D01*
X120411976Y-58252610D01*
X120470506Y-58280483D01*
X120522868Y-58302719D01*
X120556086Y-58312126D01*
X120569410Y-58299552D01*
X120571846Y-58256468D01*
X120561724Y-58202847D01*
X120526631Y-58154119D01*
X120475823Y-58128856D01*
X120419181Y-58131406D01*
X120366584Y-58166120D01*
X120345910Y-58190107D01*
X120341000Y-58208363D01*
X120148113Y-58208363D01*
X120149622Y-58193654D01*
X120185184Y-58098412D01*
X120244714Y-58023567D01*
X120321746Y-57971745D01*
X120409815Y-57945573D01*
X120502454Y-57947676D01*
X120593198Y-57980681D01*
X120675579Y-58047215D01*
X120721222Y-58113055D01*
X120754008Y-58207036D01*
X120759339Y-58256468D01*
X120766787Y-58325536D01*
X120760574Y-58473643D01*
G37*
X120760574Y-58473643D02*
X120757066Y-58505021D01*
X120730927Y-58616705D01*
X120683694Y-58701642D01*
X120611862Y-58766741D01*
X120607802Y-58769428D01*
X120516487Y-58807634D01*
X120421144Y-58811034D01*
X120329274Y-58781939D01*
X120248379Y-58722660D01*
X120185962Y-58635510D01*
X120184914Y-58633409D01*
X120164173Y-58579289D01*
X120148980Y-58517781D01*
X120140921Y-58460039D01*
X120141582Y-58417215D01*
X120152548Y-58400462D01*
X120162290Y-58401480D01*
X120208877Y-58420009D01*
X120261682Y-58454081D01*
X120306603Y-58493522D01*
X120329535Y-58528155D01*
X120353373Y-58575133D01*
X120402230Y-58617862D01*
X120458963Y-58634923D01*
X120479758Y-58629990D01*
X120520804Y-58605157D01*
X120556557Y-58570685D01*
X120571846Y-58539411D01*
X120571842Y-58539295D01*
X120554495Y-58524933D01*
X120508247Y-58499025D01*
X120440067Y-58465210D01*
X120356923Y-58427129D01*
X120356466Y-58426927D01*
X120266138Y-58386709D01*
X120205592Y-58357733D01*
X120168888Y-58335474D01*
X120150086Y-58315407D01*
X120143246Y-58293009D01*
X120142429Y-58263756D01*
X120148113Y-58208363D01*
X120341000Y-58208363D01*
X120360911Y-58225777D01*
X120410521Y-58251872D01*
X120411976Y-58252610D01*
X120470506Y-58280483D01*
X120522868Y-58302719D01*
X120556086Y-58312126D01*
X120569410Y-58299552D01*
X120571846Y-58256468D01*
X120561724Y-58202847D01*
X120526631Y-58154119D01*
X120475823Y-58128856D01*
X120419181Y-58131406D01*
X120366584Y-58166120D01*
X120345910Y-58190107D01*
X120341000Y-58208363D01*
X120148113Y-58208363D01*
X120149622Y-58193654D01*
X120185184Y-58098412D01*
X120244714Y-58023567D01*
X120321746Y-57971745D01*
X120409815Y-57945573D01*
X120502454Y-57947676D01*
X120593198Y-57980681D01*
X120675579Y-58047215D01*
X120721222Y-58113055D01*
X120754008Y-58207036D01*
X120759339Y-58256468D01*
X120766787Y-58325536D01*
X120760574Y-58473643D01*
G36*
X117327892Y-58019167D02*
G01*
X117334060Y-58022581D01*
X117384447Y-58061692D01*
X117429498Y-58111975D01*
X117437355Y-58123339D01*
X117452376Y-58149860D01*
X117463107Y-58181336D01*
X117470486Y-58224591D01*
X117475452Y-58286449D01*
X117478942Y-58373733D01*
X117481893Y-58493269D01*
X117482311Y-58513478D01*
X117483654Y-58644499D01*
X117481761Y-58737296D01*
X117476605Y-58792507D01*
X117468158Y-58810769D01*
X117442594Y-58805301D01*
X117399166Y-58788733D01*
X117388940Y-58783888D01*
X117372967Y-58772920D01*
X117361954Y-58754890D01*
X117354750Y-58723396D01*
X117350208Y-58672036D01*
X117347180Y-58594410D01*
X117344516Y-58484115D01*
X117343785Y-58451875D01*
X117340965Y-58350050D01*
X117337304Y-58278788D01*
X117331694Y-58231332D01*
X117323029Y-58200925D01*
X117310202Y-58180810D01*
X117292105Y-58164229D01*
X117238525Y-58135161D01*
X117172612Y-58129564D01*
X117113635Y-58151807D01*
X117071203Y-58197859D01*
X117054923Y-58263692D01*
X117054470Y-58281587D01*
X117045578Y-58313982D01*
X117019325Y-58318925D01*
X116967919Y-58299633D01*
X116956013Y-58293446D01*
X116923835Y-58257058D01*
X116923198Y-58202954D01*
X116953856Y-58128128D01*
X116981978Y-58087350D01*
X117053883Y-58029421D01*
X117142638Y-57996670D01*
X117237542Y-57992212D01*
X117327892Y-58019167D01*
G37*
X117327892Y-58019167D02*
X117334060Y-58022581D01*
X117384447Y-58061692D01*
X117429498Y-58111975D01*
X117437355Y-58123339D01*
X117452376Y-58149860D01*
X117463107Y-58181336D01*
X117470486Y-58224591D01*
X117475452Y-58286449D01*
X117478942Y-58373733D01*
X117481893Y-58493269D01*
X117482311Y-58513478D01*
X117483654Y-58644499D01*
X117481761Y-58737296D01*
X117476605Y-58792507D01*
X117468158Y-58810769D01*
X117442594Y-58805301D01*
X117399166Y-58788733D01*
X117388940Y-58783888D01*
X117372967Y-58772920D01*
X117361954Y-58754890D01*
X117354750Y-58723396D01*
X117350208Y-58672036D01*
X117347180Y-58594410D01*
X117344516Y-58484115D01*
X117343785Y-58451875D01*
X117340965Y-58350050D01*
X117337304Y-58278788D01*
X117331694Y-58231332D01*
X117323029Y-58200925D01*
X117310202Y-58180810D01*
X117292105Y-58164229D01*
X117238525Y-58135161D01*
X117172612Y-58129564D01*
X117113635Y-58151807D01*
X117071203Y-58197859D01*
X117054923Y-58263692D01*
X117054470Y-58281587D01*
X117045578Y-58313982D01*
X117019325Y-58318925D01*
X116967919Y-58299633D01*
X116956013Y-58293446D01*
X116923835Y-58257058D01*
X116923198Y-58202954D01*
X116953856Y-58128128D01*
X116981978Y-58087350D01*
X117053883Y-58029421D01*
X117142638Y-57996670D01*
X117237542Y-57992212D01*
X117327892Y-58019167D01*
G36*
X114467501Y-57998476D02*
G01*
X114548167Y-58028440D01*
X114581714Y-58050954D01*
X114615687Y-58083212D01*
X114639919Y-58124246D01*
X114656001Y-58180108D01*
X114665521Y-58256851D01*
X114670068Y-58360525D01*
X114671231Y-58497184D01*
X114671003Y-58567805D01*
X114669860Y-58664308D01*
X114667919Y-58741323D01*
X114665365Y-58792319D01*
X114662381Y-58810769D01*
X114642962Y-58804667D01*
X114603766Y-58788095D01*
X114602589Y-58787558D01*
X114582235Y-58776903D01*
X114568546Y-58762282D01*
X114560199Y-58736673D01*
X114555874Y-58693054D01*
X114554248Y-58624403D01*
X114554000Y-58523698D01*
X114553500Y-58459813D01*
X114548164Y-58339751D01*
X114535945Y-58251809D01*
X114515552Y-58191375D01*
X114485695Y-58153836D01*
X114445082Y-58134581D01*
X114439448Y-58133239D01*
X114363378Y-58132191D01*
X114304052Y-58166271D01*
X114263077Y-58234598D01*
X114255770Y-58254351D01*
X114239114Y-58298066D01*
X114230679Y-58318155D01*
X114213356Y-58315387D01*
X114175525Y-58300365D01*
X114140240Y-58275556D01*
X114124154Y-58228670D01*
X114128952Y-58195087D01*
X114158431Y-58126967D01*
X114206098Y-58063134D01*
X114261839Y-58018988D01*
X114285193Y-58008782D01*
X114373619Y-57991718D01*
X114467501Y-57998476D01*
G37*
X114467501Y-57998476D02*
X114548167Y-58028440D01*
X114581714Y-58050954D01*
X114615687Y-58083212D01*
X114639919Y-58124246D01*
X114656001Y-58180108D01*
X114665521Y-58256851D01*
X114670068Y-58360525D01*
X114671231Y-58497184D01*
X114671003Y-58567805D01*
X114669860Y-58664308D01*
X114667919Y-58741323D01*
X114665365Y-58792319D01*
X114662381Y-58810769D01*
X114642962Y-58804667D01*
X114603766Y-58788095D01*
X114602589Y-58787558D01*
X114582235Y-58776903D01*
X114568546Y-58762282D01*
X114560199Y-58736673D01*
X114555874Y-58693054D01*
X114554248Y-58624403D01*
X114554000Y-58523698D01*
X114553500Y-58459813D01*
X114548164Y-58339751D01*
X114535945Y-58251809D01*
X114515552Y-58191375D01*
X114485695Y-58153836D01*
X114445082Y-58134581D01*
X114439448Y-58133239D01*
X114363378Y-58132191D01*
X114304052Y-58166271D01*
X114263077Y-58234598D01*
X114255770Y-58254351D01*
X114239114Y-58298066D01*
X114230679Y-58318155D01*
X114213356Y-58315387D01*
X114175525Y-58300365D01*
X114140240Y-58275556D01*
X114124154Y-58228670D01*
X114128952Y-58195087D01*
X114158431Y-58126967D01*
X114206098Y-58063134D01*
X114261839Y-58018988D01*
X114285193Y-58008782D01*
X114373619Y-57991718D01*
X114467501Y-57998476D01*
G36*
X114006413Y-58456449D02*
G01*
X114001641Y-58559047D01*
X113989150Y-58634126D01*
X113966121Y-58689748D01*
X113929732Y-58733975D01*
X113877162Y-58774869D01*
X113843714Y-58793466D01*
X113790098Y-58805991D01*
X113714780Y-58805003D01*
X113672672Y-58801035D01*
X113621879Y-58788920D01*
X113581280Y-58762585D01*
X113534049Y-58713514D01*
X113527738Y-58706346D01*
X113485277Y-58651189D01*
X113465018Y-58603150D01*
X113459846Y-58546184D01*
X113459846Y-58462471D01*
X113518346Y-58484552D01*
X113560994Y-58510364D01*
X113598064Y-58570928D01*
X113605803Y-58590320D01*
X113649074Y-58645235D01*
X113707976Y-58672879D01*
X113772111Y-58670393D01*
X113831077Y-58634923D01*
X113851342Y-58612805D01*
X113869720Y-58579436D01*
X113863971Y-58549117D01*
X113830887Y-58517913D01*
X113767261Y-58481887D01*
X113669885Y-58437103D01*
X113469615Y-58349445D01*
X113464301Y-58262607D01*
X113466299Y-58207296D01*
X113596783Y-58207296D01*
X113606688Y-58241538D01*
X113651756Y-58278096D01*
X113733557Y-58319692D01*
X113747092Y-58325718D01*
X113811818Y-58353753D01*
X113860247Y-58373472D01*
X113882751Y-58380923D01*
X113886161Y-58375438D01*
X113887529Y-58341948D01*
X113882651Y-58288116D01*
X113870364Y-58235473D01*
X113832041Y-58169151D01*
X113776720Y-58131780D01*
X113710640Y-58126721D01*
X113640040Y-58157339D01*
X113620474Y-58172648D01*
X113596783Y-58207296D01*
X113466299Y-58207296D01*
X113466647Y-58197663D01*
X113496186Y-58115590D01*
X113533472Y-58070361D01*
X113610776Y-58019838D01*
X113702478Y-57994316D01*
X113797274Y-57996336D01*
X113883859Y-58028440D01*
X113902920Y-58040767D01*
X113946640Y-58078912D01*
X113976540Y-58127167D01*
X113994968Y-58192710D01*
X114004270Y-58282720D01*
X114005499Y-58341948D01*
X114006794Y-58404376D01*
X114006413Y-58456449D01*
G37*
X114006413Y-58456449D02*
X114001641Y-58559047D01*
X113989150Y-58634126D01*
X113966121Y-58689748D01*
X113929732Y-58733975D01*
X113877162Y-58774869D01*
X113843714Y-58793466D01*
X113790098Y-58805991D01*
X113714780Y-58805003D01*
X113672672Y-58801035D01*
X113621879Y-58788920D01*
X113581280Y-58762585D01*
X113534049Y-58713514D01*
X113527738Y-58706346D01*
X113485277Y-58651189D01*
X113465018Y-58603150D01*
X113459846Y-58546184D01*
X113459846Y-58462471D01*
X113518346Y-58484552D01*
X113560994Y-58510364D01*
X113598064Y-58570928D01*
X113605803Y-58590320D01*
X113649074Y-58645235D01*
X113707976Y-58672879D01*
X113772111Y-58670393D01*
X113831077Y-58634923D01*
X113851342Y-58612805D01*
X113869720Y-58579436D01*
X113863971Y-58549117D01*
X113830887Y-58517913D01*
X113767261Y-58481887D01*
X113669885Y-58437103D01*
X113469615Y-58349445D01*
X113464301Y-58262607D01*
X113466299Y-58207296D01*
X113596783Y-58207296D01*
X113606688Y-58241538D01*
X113651756Y-58278096D01*
X113733557Y-58319692D01*
X113747092Y-58325718D01*
X113811818Y-58353753D01*
X113860247Y-58373472D01*
X113882751Y-58380923D01*
X113886161Y-58375438D01*
X113887529Y-58341948D01*
X113882651Y-58288116D01*
X113870364Y-58235473D01*
X113832041Y-58169151D01*
X113776720Y-58131780D01*
X113710640Y-58126721D01*
X113640040Y-58157339D01*
X113620474Y-58172648D01*
X113596783Y-58207296D01*
X113466299Y-58207296D01*
X113466647Y-58197663D01*
X113496186Y-58115590D01*
X113533472Y-58070361D01*
X113610776Y-58019838D01*
X113702478Y-57994316D01*
X113797274Y-57996336D01*
X113883859Y-58028440D01*
X113902920Y-58040767D01*
X113946640Y-58078912D01*
X113976540Y-58127167D01*
X113994968Y-58192710D01*
X114004270Y-58282720D01*
X114005499Y-58341948D01*
X114006794Y-58404376D01*
X114006413Y-58456449D01*
%LPC*%
D14*
X122500000Y-12000000D03*
D15*
X65811400Y-46228000D03*
X63449200Y-46228000D03*
X65811400Y-44653200D03*
X66598800Y-46228000D03*
X65024000Y-45440600D03*
X65024000Y-44653200D03*
X64236600Y-45440600D03*
X66598800Y-47802800D03*
X63449200Y-47015400D03*
X65811400Y-45440600D03*
X64236600Y-44653200D03*
X65024000Y-47015400D03*
X64236600Y-47015400D03*
X66598800Y-45440600D03*
X65024000Y-46228000D03*
X65811400Y-47802800D03*
X63449200Y-45440600D03*
X64236600Y-47802800D03*
X64236600Y-46228000D03*
X65024000Y-47802800D03*
X63449200Y-44653200D03*
X65811400Y-47015400D03*
X66598800Y-44653200D03*
X63449200Y-47802800D03*
X66598800Y-47015400D03*
D14*
X122500000Y-62000000D03*
X27500000Y-62000000D03*
D16*
X27350000Y-49275000D03*
D17*
X27350000Y-51815000D03*
D18*
X27100000Y-20375000D03*
D17*
X27100000Y-17835000D03*
D18*
X122936000Y-50800000D03*
D17*
X122936000Y-48260000D03*
X122936000Y-45720000D03*
X122936000Y-43180000D03*
X122936000Y-40640000D03*
X122936000Y-38100000D03*
X122936000Y-35560000D03*
X122936000Y-33020000D03*
X122936000Y-30480000D03*
X122936000Y-27940000D03*
D19*
X66000000Y-11300000D03*
D17*
X68540000Y-11300000D03*
X71080000Y-11300000D03*
X73620000Y-11300000D03*
X76160000Y-11300000D03*
X78700000Y-11300000D03*
X81240000Y-11300000D03*
X83780000Y-11300000D03*
X86320000Y-11300000D03*
X88860000Y-11300000D03*
X91400000Y-11300000D03*
X93940000Y-11300000D03*
D19*
X31875000Y-11300000D03*
D17*
X34415000Y-11300000D03*
X36955000Y-11300000D03*
X39495000Y-11300000D03*
X42035000Y-11300000D03*
X44575000Y-11300000D03*
X47115000Y-11300000D03*
X49655000Y-11300000D03*
X52195000Y-11300000D03*
X54735000Y-11300000D03*
X57275000Y-11300000D03*
X59815000Y-11300000D03*
X62355000Y-11300000D03*
D14*
X27500000Y-12000000D03*
D20*
X31740000Y-33190000D03*
X31740000Y-27410000D03*
D21*
X28090000Y-34620000D03*
D22*
X32270000Y-25980000D03*
D21*
X28090000Y-25980000D03*
D22*
X32270000Y-34620000D03*
M02*
