%TF.GenerationSoftware,KiCad,Pcbnew,7.0.8*%
%TF.CreationDate,2023-10-23T23:13:35+02:00*%
%TF.ProjectId,epaper-breakout,65706170-6572-42d6-9272-65616b6f7574,rev?*%
%TF.SameCoordinates,Original*%
%TF.FileFunction,Drillmap*%
%TF.FilePolarity,Positive*%
%FSLAX45Y45*%
G04 Gerber Fmt 4.5, Leading zero omitted, Abs format (unit mm)*
G04 Created by KiCad (PCBNEW 7.0.8) date 2023-10-23 23:13:35*
%MOMM*%
%LPD*%
G01*
G04 APERTURE LIST*
%ADD10C,0.050000*%
%ADD11C,0.200000*%
%ADD12C,0.025400*%
%ADD13C,0.040000*%
%ADD14C,0.060000*%
%ADD15C,0.100000*%
G04 APERTURE END LIST*
D10*
X2500000Y-6250000D02*
X2500000Y-1150000D01*
X2700000Y-6450000D02*
X8130000Y-6448579D01*
X12500000Y-1150000D02*
X12500000Y-6250000D01*
X2700000Y-950000D02*
X12300000Y-950000D01*
X2700000Y-950000D02*
G75*
G03*
X2500000Y-1150000I0J-200000D01*
G01*
X8530000Y-5760000D02*
G75*
G03*
X8330000Y-5960000I0J-200000D01*
G01*
X8330000Y-6248579D02*
X8330000Y-5960000D01*
X8130000Y-6448580D02*
G75*
G03*
X8330000Y-6248579I0J200000D01*
G01*
X11066621Y-6248579D02*
G75*
G03*
X11266621Y-6448579I199999J-1D01*
G01*
X8870000Y-5760000D02*
X8530000Y-5760000D01*
X12500000Y-1150000D02*
G75*
G03*
X12300000Y-950000I-200000J0D01*
G01*
X2500000Y-6250000D02*
G75*
G03*
X2700000Y-6450000I200000J0D01*
G01*
X11066621Y-6248579D02*
X11068579Y-5961421D01*
X12300000Y-6450000D02*
G75*
G03*
X12500000Y-6250000I0J200000D01*
G01*
X11266621Y-6448579D02*
X12300000Y-6450000D01*
X11068579Y-5961421D02*
G75*
G03*
X10868579Y-5761421I-199999J1D01*
G01*
X10868579Y-5761421D02*
X8870000Y-5760000D01*
D11*
D12*
X6332220Y-4452620D02*
X6357620Y-4478020D01*
X6357620Y-4452620D02*
X6332220Y-4478020D01*
X6332220Y-4531360D02*
X6357620Y-4556760D01*
X6357620Y-4531360D02*
X6332220Y-4556760D01*
X6332220Y-4610100D02*
X6357620Y-4635500D01*
X6357620Y-4610100D02*
X6332220Y-4635500D01*
X6332220Y-4688840D02*
X6357620Y-4714240D01*
X6357620Y-4688840D02*
X6332220Y-4714240D01*
X6332220Y-4767580D02*
X6357620Y-4792980D01*
X6357620Y-4767580D02*
X6332220Y-4792980D01*
X6410960Y-4452620D02*
X6436360Y-4478020D01*
X6436360Y-4452620D02*
X6410960Y-4478020D01*
X6410960Y-4531360D02*
X6436360Y-4556760D01*
X6436360Y-4531360D02*
X6410960Y-4556760D01*
X6410960Y-4610100D02*
X6436360Y-4635500D01*
X6436360Y-4610100D02*
X6410960Y-4635500D01*
X6410960Y-4688840D02*
X6436360Y-4714240D01*
X6436360Y-4688840D02*
X6410960Y-4714240D01*
X6410960Y-4767580D02*
X6436360Y-4792980D01*
X6436360Y-4767580D02*
X6410960Y-4792980D01*
X6489700Y-4452620D02*
X6515100Y-4478020D01*
X6515100Y-4452620D02*
X6489700Y-4478020D01*
X6489700Y-4531360D02*
X6515100Y-4556760D01*
X6515100Y-4531360D02*
X6489700Y-4556760D01*
X6489700Y-4610100D02*
X6515100Y-4635500D01*
X6515100Y-4610100D02*
X6489700Y-4635500D01*
X6489700Y-4688840D02*
X6515100Y-4714240D01*
X6515100Y-4688840D02*
X6489700Y-4714240D01*
X6489700Y-4767580D02*
X6515100Y-4792980D01*
X6515100Y-4767580D02*
X6489700Y-4792980D01*
X6568440Y-4452620D02*
X6593840Y-4478020D01*
X6593840Y-4452620D02*
X6568440Y-4478020D01*
X6568440Y-4531360D02*
X6593840Y-4556760D01*
X6593840Y-4531360D02*
X6568440Y-4556760D01*
X6568440Y-4610100D02*
X6593840Y-4635500D01*
X6593840Y-4610100D02*
X6568440Y-4635500D01*
X6568440Y-4688840D02*
X6593840Y-4714240D01*
X6593840Y-4688840D02*
X6568440Y-4714240D01*
X6568440Y-4767580D02*
X6593840Y-4792980D01*
X6593840Y-4767580D02*
X6568440Y-4792980D01*
X6647180Y-4452620D02*
X6672580Y-4478020D01*
X6672580Y-4452620D02*
X6647180Y-4478020D01*
X6647180Y-4531360D02*
X6672580Y-4556760D01*
X6672580Y-4531360D02*
X6647180Y-4556760D01*
X6647180Y-4610100D02*
X6672580Y-4635500D01*
X6672580Y-4610100D02*
X6647180Y-4635500D01*
X6647180Y-4688840D02*
X6672580Y-4714240D01*
X6672580Y-4688840D02*
X6647180Y-4714240D01*
X6647180Y-4767580D02*
X6672580Y-4792980D01*
X6672580Y-4767580D02*
X6647180Y-4792980D01*
D13*
X2870000Y-3880000D02*
G75*
G03*
X2870000Y-3880000I-20000J0D01*
G01*
X3080000Y-5950000D02*
G75*
G03*
X3080000Y-5950000I-20000J0D01*
G01*
X3185000Y-6125000D02*
G75*
G03*
X3185000Y-6125000I-20000J0D01*
G01*
X3385000Y-5500000D02*
G75*
G03*
X3385000Y-5500000I-20000J0D01*
G01*
X3450000Y-3390000D02*
G75*
G03*
X3450000Y-3390000I-20000J0D01*
G01*
X3480000Y-2680000D02*
G75*
G03*
X3480000Y-2680000I-20000J0D01*
G01*
X3480000Y-4590000D02*
G75*
G03*
X3480000Y-4590000I-20000J0D01*
G01*
X3583394Y-6066444D02*
G75*
G03*
X3583394Y-6066444I-20000J0D01*
G01*
X3585000Y-6200000D02*
G75*
G03*
X3585000Y-6200000I-20000J0D01*
G01*
X3590000Y-2780000D02*
G75*
G03*
X3590000Y-2780000I-20000J0D01*
G01*
X3590000Y-3280000D02*
G75*
G03*
X3590000Y-3280000I-20000J0D01*
G01*
X3690858Y-2930801D02*
G75*
G03*
X3690858Y-2930801I-20000J0D01*
G01*
X3770000Y-3110000D02*
G75*
G03*
X3770000Y-3110000I-20000J0D01*
G01*
X3780000Y-2310000D02*
G75*
G03*
X3780000Y-2310000I-20000J0D01*
G01*
X3780000Y-3820000D02*
G75*
G03*
X3780000Y-3820000I-20000J0D01*
G01*
X3830000Y-4740000D02*
G75*
G03*
X3830000Y-4740000I-20000J0D01*
G01*
X4000000Y-2400000D02*
G75*
G03*
X4000000Y-2400000I-20000J0D01*
G01*
X4040000Y-3580000D02*
G75*
G03*
X4040000Y-3580000I-20000J0D01*
G01*
X4066634Y-2886634D02*
G75*
G03*
X4066634Y-2886634I-20000J0D01*
G01*
X4080000Y-2530000D02*
G75*
G03*
X4080000Y-2530000I-20000J0D01*
G01*
X4260000Y-2170000D02*
G75*
G03*
X4260000Y-2170000I-20000J0D01*
G01*
X4460000Y-4170000D02*
G75*
G03*
X4460000Y-4170000I-20000J0D01*
G01*
X4480000Y-3990000D02*
G75*
G03*
X4480000Y-3990000I-20000J0D01*
G01*
X4560000Y-4450000D02*
G75*
G03*
X4560000Y-4450000I-20000J0D01*
G01*
X4570000Y-5075000D02*
G75*
G03*
X4570000Y-5075000I-20000J0D01*
G01*
X4945000Y-4725000D02*
G75*
G03*
X4945000Y-4725000I-20000J0D01*
G01*
X4945000Y-4950000D02*
G75*
G03*
X4945000Y-4950000I-20000J0D01*
G01*
X5120000Y-3400000D02*
G75*
G03*
X5120000Y-3400000I-20000J0D01*
G01*
X5220000Y-3800000D02*
G75*
G03*
X5220000Y-3800000I-20000J0D01*
G01*
X5245000Y-3400000D02*
G75*
G03*
X5245000Y-3400000I-20000J0D01*
G01*
X5282928Y-4704762D02*
G75*
G03*
X5282928Y-4704762I-20000J0D01*
G01*
X5295000Y-4800000D02*
G75*
G03*
X5295000Y-4800000I-20000J0D01*
G01*
X5320000Y-3750000D02*
G75*
G03*
X5320000Y-3750000I-20000J0D01*
G01*
X5320000Y-4584000D02*
G75*
G03*
X5320000Y-4584000I-20000J0D01*
G01*
X5370000Y-4966400D02*
G75*
G03*
X5370000Y-4966400I-20000J0D01*
G01*
X5400000Y-3320000D02*
G75*
G03*
X5400000Y-3320000I-20000J0D01*
G01*
X5400000Y-3560000D02*
G75*
G03*
X5400000Y-3560000I-20000J0D01*
G01*
X5420000Y-3030000D02*
G75*
G03*
X5420000Y-3030000I-20000J0D01*
G01*
X5420000Y-5925000D02*
G75*
G03*
X5420000Y-5925000I-20000J0D01*
G01*
X5459669Y-4560410D02*
G75*
G03*
X5459669Y-4560410I-20000J0D01*
G01*
X5460000Y-3200000D02*
G75*
G03*
X5460000Y-3200000I-20000J0D01*
G01*
X5460000Y-3440000D02*
G75*
G03*
X5460000Y-3440000I-20000J0D01*
G01*
X5535169Y-2995169D02*
G75*
G03*
X5535169Y-2995169I-20000J0D01*
G01*
X5545000Y-5500000D02*
G75*
G03*
X5545000Y-5500000I-20000J0D01*
G01*
X5545000Y-5600000D02*
G75*
G03*
X5545000Y-5600000I-20000J0D01*
G01*
X5563800Y-4681200D02*
G75*
G03*
X5563800Y-4681200I-20000J0D01*
G01*
X5580000Y-3140000D02*
G75*
G03*
X5580000Y-3140000I-20000J0D01*
G01*
X5700000Y-3200000D02*
G75*
G03*
X5700000Y-3200000I-20000J0D01*
G01*
X5720000Y-5700000D02*
G75*
G03*
X5720000Y-5700000I-20000J0D01*
G01*
X5720000Y-5800000D02*
G75*
G03*
X5720000Y-5800000I-20000J0D01*
G01*
X5780000Y-2500000D02*
G75*
G03*
X5780000Y-2500000I-20000J0D01*
G01*
X5780000Y-2660000D02*
G75*
G03*
X5780000Y-2660000I-20000J0D01*
G01*
X5800000Y-3140000D02*
G75*
G03*
X5800000Y-3140000I-20000J0D01*
G01*
X5845000Y-5700000D02*
G75*
G03*
X5845000Y-5700000I-20000J0D01*
G01*
X5845000Y-5800000D02*
G75*
G03*
X5845000Y-5800000I-20000J0D01*
G01*
X5845000Y-5900000D02*
G75*
G03*
X5845000Y-5900000I-20000J0D01*
G01*
X5869678Y-4709440D02*
G75*
G03*
X5869678Y-4709440I-20000J0D01*
G01*
X5880000Y-2230000D02*
G75*
G03*
X5880000Y-2230000I-20000J0D01*
G01*
X5880100Y-4610100D02*
G75*
G03*
X5880100Y-4610100I-20000J0D01*
G01*
X5900000Y-3200000D02*
G75*
G03*
X5900000Y-3200000I-20000J0D01*
G01*
X5951470Y-4759699D02*
G75*
G03*
X5951470Y-4759699I-20000J0D01*
G01*
X5970000Y-5925000D02*
G75*
G03*
X5970000Y-5925000I-20000J0D01*
G01*
X6047675Y-4533703D02*
G75*
G03*
X6047675Y-4533703I-20000J0D01*
G01*
X6052626Y-4355974D02*
G75*
G03*
X6052626Y-4355974I-20000J0D01*
G01*
X6065200Y-4864100D02*
G75*
G03*
X6065200Y-4864100I-20000J0D01*
G01*
X6070000Y-3975000D02*
G75*
G03*
X6070000Y-3975000I-20000J0D01*
G01*
X6080000Y-3460000D02*
G75*
G03*
X6080000Y-3460000I-20000J0D01*
G01*
X6095000Y-3900000D02*
G75*
G03*
X6095000Y-3900000I-20000J0D01*
G01*
X6095000Y-5925000D02*
G75*
G03*
X6095000Y-5925000I-20000J0D01*
G01*
X6140000Y-3340000D02*
G75*
G03*
X6140000Y-3340000I-20000J0D01*
G01*
X6195000Y-3900000D02*
G75*
G03*
X6195000Y-3900000I-20000J0D01*
G01*
X6221553Y-3676553D02*
G75*
G03*
X6221553Y-3676553I-20000J0D01*
G01*
X6245000Y-5925000D02*
G75*
G03*
X6245000Y-5925000I-20000J0D01*
G01*
X6295000Y-6025000D02*
G75*
G03*
X6295000Y-6025000I-20000J0D01*
G01*
X6300000Y-2160000D02*
G75*
G03*
X6300000Y-2160000I-20000J0D01*
G01*
X6312779Y-3887324D02*
G75*
G03*
X6312779Y-3887324I-20000J0D01*
G01*
X6320000Y-5725000D02*
G75*
G03*
X6320000Y-5725000I-20000J0D01*
G01*
X6320000Y-5850000D02*
G75*
G03*
X6320000Y-5850000I-20000J0D01*
G01*
X6330000Y-2728450D02*
G75*
G03*
X6330000Y-2728450I-20000J0D01*
G01*
X6405400Y-3689600D02*
G75*
G03*
X6405400Y-3689600I-20000J0D01*
G01*
X6420000Y-3775000D02*
G75*
G03*
X6420000Y-3775000I-20000J0D01*
G01*
X6440000Y-2730000D02*
G75*
G03*
X6440000Y-2730000I-20000J0D01*
G01*
X6456728Y-5158466D02*
G75*
G03*
X6456728Y-5158466I-20000J0D01*
G01*
X6507636Y-4009400D02*
G75*
G03*
X6507636Y-4009400I-20000J0D01*
G01*
X6520000Y-3150000D02*
G75*
G03*
X6520000Y-3150000I-20000J0D01*
G01*
X6532399Y-4102100D02*
G75*
G03*
X6532399Y-4102100I-20000J0D01*
G01*
X6570000Y-5825000D02*
G75*
G03*
X6570000Y-5825000I-20000J0D01*
G01*
X6570000Y-6025000D02*
G75*
G03*
X6570000Y-6025000I-20000J0D01*
G01*
X6602766Y-4022766D02*
G75*
G03*
X6602766Y-4022766I-20000J0D01*
G01*
X6695000Y-5650000D02*
G75*
G03*
X6695000Y-5650000I-20000J0D01*
G01*
X6699525Y-4019275D02*
G75*
G03*
X6699525Y-4019275I-20000J0D01*
G01*
X6720000Y-3080000D02*
G75*
G03*
X6720000Y-3080000I-20000J0D01*
G01*
X6745000Y-5850000D02*
G75*
G03*
X6745000Y-5850000I-20000J0D01*
G01*
X6780400Y-3689600D02*
G75*
G03*
X6780400Y-3689600I-20000J0D01*
G01*
X6795000Y-3575000D02*
G75*
G03*
X6795000Y-3575000I-20000J0D01*
G01*
X6795000Y-5750000D02*
G75*
G03*
X6795000Y-5750000I-20000J0D01*
G01*
X6810000Y-2500000D02*
G75*
G03*
X6810000Y-2500000I-20000J0D01*
G01*
X6814400Y-5530600D02*
G75*
G03*
X6814400Y-5530600I-20000J0D01*
G01*
X6814500Y-5133300D02*
G75*
G03*
X6814500Y-5133300I-20000J0D01*
G01*
X6827200Y-4216400D02*
G75*
G03*
X6827200Y-4216400I-20000J0D01*
G01*
X6845000Y-3800000D02*
G75*
G03*
X6845000Y-3800000I-20000J0D01*
G01*
X6865174Y-4953126D02*
G75*
G03*
X6865174Y-4953126I-20000J0D01*
G01*
X6870000Y-3575000D02*
G75*
G03*
X6870000Y-3575000I-20000J0D01*
G01*
X6874000Y-3945100D02*
G75*
G03*
X6874000Y-3945100I-20000J0D01*
G01*
X6885900Y-5650000D02*
G75*
G03*
X6885900Y-5650000I-20000J0D01*
G01*
X6910000Y-2560000D02*
G75*
G03*
X6910000Y-2560000I-20000J0D01*
G01*
X6910000Y-3420000D02*
G75*
G03*
X6910000Y-3420000I-20000J0D01*
G01*
X6915950Y-2160000D02*
G75*
G03*
X6915950Y-2160000I-20000J0D01*
G01*
X6920000Y-3200000D02*
G75*
G03*
X6920000Y-3200000I-20000J0D01*
G01*
X6979831Y-3100169D02*
G75*
G03*
X6979831Y-3100169I-20000J0D01*
G01*
X6990000Y-3350000D02*
G75*
G03*
X6990000Y-3350000I-20000J0D01*
G01*
X7020000Y-2170000D02*
G75*
G03*
X7020000Y-2170000I-20000J0D01*
G01*
X7071366Y-3299146D02*
G75*
G03*
X7071366Y-3299146I-20000J0D01*
G01*
X7119300Y-4602200D02*
G75*
G03*
X7119300Y-4602200I-20000J0D01*
G01*
X7119300Y-4749800D02*
G75*
G03*
X7119300Y-4749800I-20000J0D01*
G01*
X7130000Y-2260000D02*
G75*
G03*
X7130000Y-2260000I-20000J0D01*
G01*
X7130000Y-4940000D02*
G75*
G03*
X7130000Y-4940000I-20000J0D01*
G01*
X7139709Y-4198567D02*
G75*
G03*
X7139709Y-4198567I-20000J0D01*
G01*
X7150000Y-3600000D02*
G75*
G03*
X7150000Y-3600000I-20000J0D01*
G01*
X7157400Y-4440200D02*
G75*
G03*
X7157400Y-4440200I-20000J0D01*
G01*
X7158794Y-4292600D02*
G75*
G03*
X7158794Y-4292600I-20000J0D01*
G01*
X7210000Y-2750000D02*
G75*
G03*
X7210000Y-2750000I-20000J0D01*
G01*
X7216763Y-4634224D02*
G75*
G03*
X7216763Y-4634224I-20000J0D01*
G01*
X7220000Y-1810000D02*
G75*
G03*
X7220000Y-1810000I-20000J0D01*
G01*
X7229226Y-3994645D02*
G75*
G03*
X7229226Y-3994645I-20000J0D01*
G01*
X7230000Y-2230000D02*
G75*
G03*
X7230000Y-2230000I-20000J0D01*
G01*
X7230000Y-2980000D02*
G75*
G03*
X7230000Y-2980000I-20000J0D01*
G01*
X7245000Y-3900000D02*
G75*
G03*
X7245000Y-3900000I-20000J0D01*
G01*
X7270000Y-3750000D02*
G75*
G03*
X7270000Y-3750000I-20000J0D01*
G01*
X7320000Y-5704000D02*
G75*
G03*
X7320000Y-5704000I-20000J0D01*
G01*
X7329153Y-5339050D02*
G75*
G03*
X7329153Y-5339050I-20000J0D01*
G01*
X7370000Y-3850000D02*
G75*
G03*
X7370000Y-3850000I-20000J0D01*
G01*
X7410000Y-3320000D02*
G75*
G03*
X7410000Y-3320000I-20000J0D01*
G01*
X7423450Y-2510000D02*
G75*
G03*
X7423450Y-2510000I-20000J0D01*
G01*
X7445000Y-4400000D02*
G75*
G03*
X7445000Y-4400000I-20000J0D01*
G01*
X7470000Y-4625000D02*
G75*
G03*
X7470000Y-4625000I-20000J0D01*
G01*
X7470000Y-4850000D02*
G75*
G03*
X7470000Y-4850000I-20000J0D01*
G01*
X7520000Y-2240000D02*
G75*
G03*
X7520000Y-2240000I-20000J0D01*
G01*
X7520000Y-5810000D02*
G75*
G03*
X7520000Y-5810000I-20000J0D01*
G01*
X7564889Y-5625000D02*
G75*
G03*
X7564889Y-5625000I-20000J0D01*
G01*
X7590000Y-2470000D02*
G75*
G03*
X7590000Y-2470000I-20000J0D01*
G01*
X7590000Y-2860000D02*
G75*
G03*
X7590000Y-2860000I-20000J0D01*
G01*
X7590550Y-2680000D02*
G75*
G03*
X7590550Y-2680000I-20000J0D01*
G01*
X7590550Y-3093401D02*
G75*
G03*
X7590550Y-3093401I-20000J0D01*
G01*
X7600000Y-3330000D02*
G75*
G03*
X7600000Y-3330000I-20000J0D01*
G01*
X7620000Y-3975000D02*
G75*
G03*
X7620000Y-3975000I-20000J0D01*
G01*
X7620000Y-4200000D02*
G75*
G03*
X7620000Y-4200000I-20000J0D01*
G01*
X7620000Y-4425000D02*
G75*
G03*
X7620000Y-4425000I-20000J0D01*
G01*
X7620000Y-4650000D02*
G75*
G03*
X7620000Y-4650000I-20000J0D01*
G01*
X7620000Y-4875000D02*
G75*
G03*
X7620000Y-4875000I-20000J0D01*
G01*
X7620000Y-5050000D02*
G75*
G03*
X7620000Y-5050000I-20000J0D01*
G01*
X7680000Y-3270000D02*
G75*
G03*
X7680000Y-3270000I-20000J0D01*
G01*
X7695000Y-5350000D02*
G75*
G03*
X7695000Y-5350000I-20000J0D01*
G01*
X7696981Y-5462500D02*
G75*
G03*
X7696981Y-5462500I-20000J0D01*
G01*
X7720000Y-4975000D02*
G75*
G03*
X7720000Y-4975000I-20000J0D01*
G01*
X7840000Y-5750000D02*
G75*
G03*
X7840000Y-5750000I-20000J0D01*
G01*
X7865950Y-3530000D02*
G75*
G03*
X7865950Y-3530000I-20000J0D01*
G01*
X7870000Y-2610000D02*
G75*
G03*
X7870000Y-2610000I-20000J0D01*
G01*
X7894000Y-6130000D02*
G75*
G03*
X7894000Y-6130000I-20000J0D01*
G01*
X7900000Y-4310000D02*
G75*
G03*
X7900000Y-4310000I-20000J0D01*
G01*
X7910000Y-4420000D02*
G75*
G03*
X7910000Y-4420000I-20000J0D01*
G01*
X7930000Y-3178450D02*
G75*
G03*
X7930000Y-3178450I-20000J0D01*
G01*
X7937324Y-3594127D02*
G75*
G03*
X7937324Y-3594127I-20000J0D01*
G01*
X7940000Y-5820000D02*
G75*
G03*
X7940000Y-5820000I-20000J0D01*
G01*
X7991550Y-2940000D02*
G75*
G03*
X7991550Y-2940000I-20000J0D01*
G01*
X8070000Y-1578450D02*
G75*
G03*
X8070000Y-1578450I-20000J0D01*
G01*
X8070000Y-4420000D02*
G75*
G03*
X8070000Y-4420000I-20000J0D01*
G01*
X8070000Y-4575000D02*
G75*
G03*
X8070000Y-4575000I-20000J0D01*
G01*
X8074000Y-4675000D02*
G75*
G03*
X8074000Y-4675000I-20000J0D01*
G01*
X8100000Y-4010000D02*
G75*
G03*
X8100000Y-4010000I-20000J0D01*
G01*
X8148000Y-1887450D02*
G75*
G03*
X8148000Y-1887450I-20000J0D01*
G01*
X8190000Y-3470000D02*
G75*
G03*
X8190000Y-3470000I-20000J0D01*
G01*
X8210000Y-1990000D02*
G75*
G03*
X8210000Y-1990000I-20000J0D01*
G01*
X8219550Y-2500000D02*
G75*
G03*
X8219550Y-2500000I-20000J0D01*
G01*
X8220000Y-2660000D02*
G75*
G03*
X8220000Y-2660000I-20000J0D01*
G01*
X8350000Y-4609050D02*
G75*
G03*
X8350000Y-4609050I-20000J0D01*
G01*
X8488097Y-4035695D02*
G75*
G03*
X8488097Y-4035695I-20000J0D01*
G01*
X8550000Y-1650000D02*
G75*
G03*
X8550000Y-1650000I-20000J0D01*
G01*
X8560000Y-1520000D02*
G75*
G03*
X8560000Y-1520000I-20000J0D01*
G01*
X8581674Y-4014485D02*
G75*
G03*
X8581674Y-4014485I-20000J0D01*
G01*
X8620000Y-5660000D02*
G75*
G03*
X8620000Y-5660000I-20000J0D01*
G01*
X8674873Y-3991676D02*
G75*
G03*
X8674873Y-3991676I-20000J0D01*
G01*
X8930000Y-2180000D02*
G75*
G03*
X8930000Y-2180000I-20000J0D01*
G01*
X8988450Y-3240000D02*
G75*
G03*
X8988450Y-3240000I-20000J0D01*
G01*
X8990000Y-4060000D02*
G75*
G03*
X8990000Y-4060000I-20000J0D01*
G01*
X9000000Y-2830000D02*
G75*
G03*
X9000000Y-2830000I-20000J0D01*
G01*
X9010000Y-2560000D02*
G75*
G03*
X9010000Y-2560000I-20000J0D01*
G01*
X9050000Y-4160000D02*
G75*
G03*
X9050000Y-4160000I-20000J0D01*
G01*
X9090000Y-4790000D02*
G75*
G03*
X9090000Y-4790000I-20000J0D01*
G01*
X9102877Y-4252877D02*
G75*
G03*
X9102877Y-4252877I-20000J0D01*
G01*
X9130000Y-5030000D02*
G75*
G03*
X9130000Y-5030000I-20000J0D01*
G01*
X9177123Y-4327123D02*
G75*
G03*
X9177123Y-4327123I-20000J0D01*
G01*
X9185000Y-4825000D02*
G75*
G03*
X9185000Y-4825000I-20000J0D01*
G01*
X9350000Y-3120000D02*
G75*
G03*
X9350000Y-3120000I-20000J0D01*
G01*
X9400000Y-3220000D02*
G75*
G03*
X9400000Y-3220000I-20000J0D01*
G01*
X9490000Y-3150000D02*
G75*
G03*
X9490000Y-3150000I-20000J0D01*
G01*
X9580000Y-3290000D02*
G75*
G03*
X9580000Y-3290000I-20000J0D01*
G01*
X9590000Y-5040000D02*
G75*
G03*
X9590000Y-5040000I-20000J0D01*
G01*
X9630000Y-4690000D02*
G75*
G03*
X9630000Y-4690000I-20000J0D01*
G01*
X9790000Y-2600000D02*
G75*
G03*
X9790000Y-2600000I-20000J0D01*
G01*
X9830000Y-1960000D02*
G75*
G03*
X9830000Y-1960000I-20000J0D01*
G01*
X9840000Y-2080000D02*
G75*
G03*
X9840000Y-2080000I-20000J0D01*
G01*
X9864050Y-4296642D02*
G75*
G03*
X9864050Y-4296642I-20000J0D01*
G01*
X9900000Y-1330000D02*
G75*
G03*
X9900000Y-1330000I-20000J0D01*
G01*
X9910000Y-2670000D02*
G75*
G03*
X9910000Y-2670000I-20000J0D01*
G01*
X9932500Y-4367500D02*
G75*
G03*
X9932500Y-4367500I-20000J0D01*
G01*
X10001800Y-4448200D02*
G75*
G03*
X10001800Y-4448200I-20000J0D01*
G01*
X10040000Y-2010000D02*
G75*
G03*
X10040000Y-2010000I-20000J0D01*
G01*
X10043402Y-1806598D02*
G75*
G03*
X10043402Y-1806598I-20000J0D01*
G01*
X10060000Y-4680000D02*
G75*
G03*
X10060000Y-4680000I-20000J0D01*
G01*
X10070000Y-2640000D02*
G75*
G03*
X10070000Y-2640000I-20000J0D01*
G01*
X10070250Y-4520250D02*
G75*
G03*
X10070250Y-4520250I-20000J0D01*
G01*
X10080000Y-1360000D02*
G75*
G03*
X10080000Y-1360000I-20000J0D01*
G01*
X10090000Y-5040000D02*
G75*
G03*
X10090000Y-5040000I-20000J0D01*
G01*
X10138700Y-4588450D02*
G75*
G03*
X10138700Y-4588450I-20000J0D01*
G01*
X10140000Y-2820000D02*
G75*
G03*
X10140000Y-2820000I-20000J0D01*
G01*
X10177556Y-2637149D02*
G75*
G03*
X10177556Y-2637149I-20000J0D01*
G01*
X10207150Y-4656900D02*
G75*
G03*
X10207150Y-4656900I-20000J0D01*
G01*
X10250000Y-1840000D02*
G75*
G03*
X10250000Y-1840000I-20000J0D01*
G01*
X10259297Y-4823191D02*
G75*
G03*
X10259297Y-4823191I-20000J0D01*
G01*
X10269147Y-4918634D02*
G75*
G03*
X10269147Y-4918634I-20000J0D01*
G01*
X10270000Y-2240000D02*
G75*
G03*
X10270000Y-2240000I-20000J0D01*
G01*
X10280000Y-2690000D02*
G75*
G03*
X10280000Y-2690000I-20000J0D01*
G01*
X10281600Y-2590800D02*
G75*
G03*
X10281600Y-2590800I-20000J0D01*
G01*
X10320000Y-5000000D02*
G75*
G03*
X10320000Y-5000000I-20000J0D01*
G01*
X10433012Y-2648450D02*
G75*
G03*
X10433012Y-2648450I-20000J0D01*
G01*
X10504235Y-2809295D02*
G75*
G03*
X10504235Y-2809295I-20000J0D01*
G01*
X10506422Y-2710235D02*
G75*
G03*
X10506422Y-2710235I-20000J0D01*
G01*
X10601248Y-2809085D02*
G75*
G03*
X10601248Y-2809085I-20000J0D01*
G01*
X10697732Y-2906207D02*
G75*
G03*
X10697732Y-2906207I-20000J0D01*
G01*
X10698712Y-2808425D02*
G75*
G03*
X10698712Y-2808425I-20000J0D01*
G01*
X10780000Y-5660000D02*
G75*
G03*
X10780000Y-5660000I-20000J0D01*
G01*
X10793623Y-2909574D02*
G75*
G03*
X10793623Y-2909574I-20000J0D01*
G01*
X10900000Y-2920000D02*
G75*
G03*
X10900000Y-2920000I-20000J0D01*
G01*
X10910018Y-3126785D02*
G75*
G03*
X10910018Y-3126785I-20000J0D01*
G01*
X10912980Y-3226550D02*
G75*
G03*
X10912980Y-3226550I-20000J0D01*
G01*
X10986098Y-2789721D02*
G75*
G03*
X10986098Y-2789721I-20000J0D01*
G01*
X10990000Y-1360950D02*
G75*
G03*
X10990000Y-1360950I-20000J0D01*
G01*
X10990000Y-2970000D02*
G75*
G03*
X10990000Y-2970000I-20000J0D01*
G01*
X11000000Y-3890000D02*
G75*
G03*
X11000000Y-3890000I-20000J0D01*
G01*
X11063450Y-2648450D02*
G75*
G03*
X11063450Y-2648450I-20000J0D01*
G01*
X11080000Y-2770000D02*
G75*
G03*
X11080000Y-2770000I-20000J0D01*
G01*
X11120000Y-2270000D02*
G75*
G03*
X11120000Y-2270000I-20000J0D01*
G01*
X11130000Y-4590000D02*
G75*
G03*
X11130000Y-4590000I-20000J0D01*
G01*
X11170000Y-4500000D02*
G75*
G03*
X11170000Y-4500000I-20000J0D01*
G01*
X11210000Y-5890000D02*
G75*
G03*
X11210000Y-5890000I-20000J0D01*
G01*
X11310000Y-1600000D02*
G75*
G03*
X11310000Y-1600000I-20000J0D01*
G01*
X11310000Y-5740000D02*
G75*
G03*
X11310000Y-5740000I-20000J0D01*
G01*
X11320000Y-1900000D02*
G75*
G03*
X11320000Y-1900000I-20000J0D01*
G01*
X11320000Y-2700000D02*
G75*
G03*
X11320000Y-2700000I-20000J0D01*
G01*
X11340000Y-6180000D02*
G75*
G03*
X11340000Y-6180000I-20000J0D01*
G01*
X11360000Y-2280000D02*
G75*
G03*
X11360000Y-2280000I-20000J0D01*
G01*
X11410000Y-1940000D02*
G75*
G03*
X11410000Y-1940000I-20000J0D01*
G01*
X11470000Y-6300000D02*
G75*
G03*
X11470000Y-6300000I-20000J0D01*
G01*
X11480000Y-2160000D02*
G75*
G03*
X11480000Y-2160000I-20000J0D01*
G01*
X11497149Y-5497556D02*
G75*
G03*
X11497149Y-5497556I-20000J0D01*
G01*
X11505000Y-1665000D02*
G75*
G03*
X11505000Y-1665000I-20000J0D01*
G01*
X11515409Y-4445000D02*
G75*
G03*
X11515409Y-4445000I-20000J0D01*
G01*
X11530000Y-2820000D02*
G75*
G03*
X11530000Y-2820000I-20000J0D01*
G01*
X11540000Y-4300000D02*
G75*
G03*
X11540000Y-4300000I-20000J0D01*
G01*
X11561808Y-3468450D02*
G75*
G03*
X11561808Y-3468450I-20000J0D01*
G01*
X11567760Y-5812240D02*
G75*
G03*
X11567760Y-5812240I-20000J0D01*
G01*
X11570000Y-3250000D02*
G75*
G03*
X11570000Y-3250000I-20000J0D01*
G01*
X11570000Y-5240000D02*
G75*
G03*
X11570000Y-5240000I-20000J0D01*
G01*
X11570000Y-5560000D02*
G75*
G03*
X11570000Y-5560000I-20000J0D01*
G01*
X11570000Y-6100000D02*
G75*
G03*
X11570000Y-6100000I-20000J0D01*
G01*
X11630000Y-1670000D02*
G75*
G03*
X11630000Y-1670000I-20000J0D01*
G01*
X11630000Y-4230000D02*
G75*
G03*
X11630000Y-4230000I-20000J0D01*
G01*
X11631550Y-3800055D02*
G75*
G03*
X11631550Y-3800055I-20000J0D01*
G01*
X11640000Y-4890000D02*
G75*
G03*
X11640000Y-4890000I-20000J0D01*
G01*
X11650000Y-3400000D02*
G75*
G03*
X11650000Y-3400000I-20000J0D01*
G01*
X11650000Y-3548450D02*
G75*
G03*
X11650000Y-3548450I-20000J0D01*
G01*
X11650000Y-4510000D02*
G75*
G03*
X11650000Y-4510000I-20000J0D01*
G01*
X11651563Y-3301563D02*
G75*
G03*
X11651563Y-3301563I-20000J0D01*
G01*
X11670000Y-4040000D02*
G75*
G03*
X11670000Y-4040000I-20000J0D01*
G01*
X11670000Y-4140000D02*
G75*
G03*
X11670000Y-4140000I-20000J0D01*
G01*
X11681550Y-3639065D02*
G75*
G03*
X11681550Y-3639065I-20000J0D01*
G01*
X11681550Y-3881947D02*
G75*
G03*
X11681550Y-3881947I-20000J0D01*
G01*
X11753401Y-3126598D02*
G75*
G03*
X11753401Y-3126598I-20000J0D01*
G01*
X11780000Y-1560000D02*
G75*
G03*
X11780000Y-1560000I-20000J0D01*
G01*
X11780000Y-5780000D02*
G75*
G03*
X11780000Y-5780000I-20000J0D01*
G01*
X11810000Y-2910000D02*
G75*
G03*
X11810000Y-2910000I-20000J0D01*
G01*
X11820000Y-3240000D02*
G75*
G03*
X11820000Y-3240000I-20000J0D01*
G01*
X11850000Y-5540950D02*
G75*
G03*
X11850000Y-5540950I-20000J0D01*
G01*
X11880000Y-5300000D02*
G75*
G03*
X11880000Y-5300000I-20000J0D01*
G01*
X11899050Y-3050000D02*
G75*
G03*
X11899050Y-3050000I-20000J0D01*
G01*
X12090950Y-5390000D02*
G75*
G03*
X12090950Y-5390000I-20000J0D01*
G01*
X12140000Y-2580000D02*
G75*
G03*
X12140000Y-2580000I-20000J0D01*
G01*
X12200000Y-5550000D02*
G75*
G03*
X12200000Y-5550000I-20000J0D01*
G01*
X12210000Y-5380000D02*
G75*
G03*
X12210000Y-5380000I-20000J0D01*
G01*
X12330000Y-5770000D02*
G75*
G03*
X12330000Y-5770000I-20000J0D01*
G01*
X12370000Y-5400000D02*
G75*
G03*
X12370000Y-5400000I-20000J0D01*
G01*
X12430000Y-2610000D02*
G75*
G03*
X12430000Y-2610000I-20000J0D01*
G01*
X12440000Y-2180000D02*
G75*
G03*
X12440000Y-2180000I-20000J0D01*
G01*
X12440000Y-2370000D02*
G75*
G03*
X12440000Y-2370000I-20000J0D01*
G01*
X12450000Y-1610000D02*
G75*
G03*
X12450000Y-1610000I-20000J0D01*
G01*
X12450000Y-1820000D02*
G75*
G03*
X12450000Y-1820000I-20000J0D01*
G01*
X12450000Y-1980000D02*
G75*
G03*
X12450000Y-1980000I-20000J0D01*
G01*
D14*
X2809000Y-2568000D02*
X2809000Y-2628000D01*
X2779000Y-2598000D02*
X2839000Y-2598000D01*
D11*
X2839000Y-2568000D02*
X2779000Y-2568000D01*
X2779000Y-2568000D02*
G75*
G03*
X2779000Y-2628000I0J-30000D01*
G01*
X2779000Y-2628000D02*
X2839000Y-2628000D01*
X2839000Y-2628000D02*
G75*
G03*
X2839000Y-2568000I0J30000D01*
G01*
D14*
X2809000Y-3432000D02*
X2809000Y-3492000D01*
X2779000Y-3462000D02*
X2839000Y-3462000D01*
D11*
X2839000Y-3432000D02*
X2779000Y-3432000D01*
X2779000Y-3432000D02*
G75*
G03*
X2779000Y-3492000I0J-30000D01*
G01*
X2779000Y-3492000D02*
X2839000Y-3492000D01*
X2839000Y-3492000D02*
G75*
G03*
X2839000Y-3432000I0J30000D01*
G01*
D14*
X3227000Y-2568000D02*
X3227000Y-2628000D01*
X3197000Y-2598000D02*
X3257000Y-2598000D01*
D11*
X3282000Y-2568000D02*
X3172000Y-2568000D01*
X3172000Y-2568000D02*
G75*
G03*
X3172000Y-2628000I0J-30000D01*
G01*
X3172000Y-2628000D02*
X3282000Y-2628000D01*
X3282000Y-2628000D02*
G75*
G03*
X3282000Y-2568000I0J30000D01*
G01*
D14*
X3227000Y-3432000D02*
X3227000Y-3492000D01*
X3197000Y-3462000D02*
X3257000Y-3462000D01*
D11*
X3282000Y-3432000D02*
X3172000Y-3432000D01*
X3172000Y-3432000D02*
G75*
G03*
X3172000Y-3492000I0J-30000D01*
G01*
X3172000Y-3492000D02*
X3282000Y-3492000D01*
X3282000Y-3492000D02*
G75*
G03*
X3282000Y-3432000I0J30000D01*
G01*
D15*
X2745356Y-1818856D02*
X2745356Y-1748144D01*
X2674644Y-1748144D01*
X2674644Y-1818856D01*
X2745356Y-1818856D01*
X2745356Y-2072856D02*
X2745356Y-2002144D01*
X2674644Y-2002144D01*
X2674644Y-2072856D01*
X2745356Y-2072856D01*
X2770356Y-4962856D02*
X2770356Y-4892144D01*
X2699644Y-4892144D01*
X2699644Y-4962856D01*
X2770356Y-4962856D01*
X2770356Y-5216856D02*
X2770356Y-5146144D01*
X2699644Y-5146144D01*
X2699644Y-5216856D01*
X2770356Y-5216856D01*
X3222856Y-1165356D02*
X3222856Y-1094644D01*
X3152144Y-1094644D01*
X3152144Y-1165356D01*
X3222856Y-1165356D01*
X3476856Y-1165356D02*
X3476856Y-1094644D01*
X3406144Y-1094644D01*
X3406144Y-1165356D01*
X3476856Y-1165356D01*
X3730856Y-1165356D02*
X3730856Y-1094644D01*
X3660144Y-1094644D01*
X3660144Y-1165356D01*
X3730856Y-1165356D01*
X3984856Y-1165356D02*
X3984856Y-1094644D01*
X3914144Y-1094644D01*
X3914144Y-1165356D01*
X3984856Y-1165356D01*
X4238856Y-1165356D02*
X4238856Y-1094644D01*
X4168144Y-1094644D01*
X4168144Y-1165356D01*
X4238856Y-1165356D01*
X4492856Y-1165356D02*
X4492856Y-1094644D01*
X4422144Y-1094644D01*
X4422144Y-1165356D01*
X4492856Y-1165356D01*
X4746856Y-1165356D02*
X4746856Y-1094644D01*
X4676144Y-1094644D01*
X4676144Y-1165356D01*
X4746856Y-1165356D01*
X5000856Y-1165356D02*
X5000856Y-1094644D01*
X4930144Y-1094644D01*
X4930144Y-1165356D01*
X5000856Y-1165356D01*
X5254856Y-1165356D02*
X5254856Y-1094644D01*
X5184144Y-1094644D01*
X5184144Y-1165356D01*
X5254856Y-1165356D01*
X5508856Y-1165356D02*
X5508856Y-1094644D01*
X5438144Y-1094644D01*
X5438144Y-1165356D01*
X5508856Y-1165356D01*
X5762856Y-1165356D02*
X5762856Y-1094644D01*
X5692144Y-1094644D01*
X5692144Y-1165356D01*
X5762856Y-1165356D01*
X6016856Y-1165356D02*
X6016856Y-1094644D01*
X5946144Y-1094644D01*
X5946144Y-1165356D01*
X6016856Y-1165356D01*
X6270856Y-1165356D02*
X6270856Y-1094644D01*
X6200144Y-1094644D01*
X6200144Y-1165356D01*
X6270856Y-1165356D01*
X6635356Y-1165356D02*
X6635356Y-1094644D01*
X6564644Y-1094644D01*
X6564644Y-1165356D01*
X6635356Y-1165356D01*
X6889356Y-1165356D02*
X6889356Y-1094644D01*
X6818644Y-1094644D01*
X6818644Y-1165356D01*
X6889356Y-1165356D01*
X7143356Y-1165356D02*
X7143356Y-1094644D01*
X7072644Y-1094644D01*
X7072644Y-1165356D01*
X7143356Y-1165356D01*
X7397356Y-1165356D02*
X7397356Y-1094644D01*
X7326644Y-1094644D01*
X7326644Y-1165356D01*
X7397356Y-1165356D01*
X7651356Y-1165356D02*
X7651356Y-1094644D01*
X7580644Y-1094644D01*
X7580644Y-1165356D01*
X7651356Y-1165356D01*
X7905356Y-1165356D02*
X7905356Y-1094644D01*
X7834644Y-1094644D01*
X7834644Y-1165356D01*
X7905356Y-1165356D01*
X8159356Y-1165356D02*
X8159356Y-1094644D01*
X8088644Y-1094644D01*
X8088644Y-1165356D01*
X8159356Y-1165356D01*
X8413356Y-1165356D02*
X8413356Y-1094644D01*
X8342644Y-1094644D01*
X8342644Y-1165356D01*
X8413356Y-1165356D01*
X8667356Y-1165356D02*
X8667356Y-1094644D01*
X8596644Y-1094644D01*
X8596644Y-1165356D01*
X8667356Y-1165356D01*
X8921356Y-1165356D02*
X8921356Y-1094644D01*
X8850644Y-1094644D01*
X8850644Y-1165356D01*
X8921356Y-1165356D01*
X9175356Y-1165356D02*
X9175356Y-1094644D01*
X9104644Y-1094644D01*
X9104644Y-1165356D01*
X9175356Y-1165356D01*
X9429356Y-1165356D02*
X9429356Y-1094644D01*
X9358644Y-1094644D01*
X9358644Y-1165356D01*
X9429356Y-1165356D01*
X12328956Y-2829356D02*
X12328956Y-2758644D01*
X12258244Y-2758644D01*
X12258244Y-2829356D01*
X12328956Y-2829356D01*
X12328956Y-3083356D02*
X12328956Y-3012644D01*
X12258244Y-3012644D01*
X12258244Y-3083356D01*
X12328956Y-3083356D01*
X12328956Y-3337356D02*
X12328956Y-3266644D01*
X12258244Y-3266644D01*
X12258244Y-3337356D01*
X12328956Y-3337356D01*
X12328956Y-3591356D02*
X12328956Y-3520644D01*
X12258244Y-3520644D01*
X12258244Y-3591356D01*
X12328956Y-3591356D01*
X12328956Y-3845356D02*
X12328956Y-3774644D01*
X12258244Y-3774644D01*
X12258244Y-3845356D01*
X12328956Y-3845356D01*
X12328956Y-4099356D02*
X12328956Y-4028644D01*
X12258244Y-4028644D01*
X12258244Y-4099356D01*
X12328956Y-4099356D01*
X12328956Y-4353356D02*
X12328956Y-4282644D01*
X12258244Y-4282644D01*
X12258244Y-4353356D01*
X12328956Y-4353356D01*
X12328956Y-4607356D02*
X12328956Y-4536644D01*
X12258244Y-4536644D01*
X12258244Y-4607356D01*
X12328956Y-4607356D01*
X12328956Y-4861356D02*
X12328956Y-4790644D01*
X12258244Y-4790644D01*
X12258244Y-4861356D01*
X12328956Y-4861356D01*
X12328956Y-5115356D02*
X12328956Y-5044644D01*
X12258244Y-5044644D01*
X12258244Y-5115356D01*
X12328956Y-5115356D01*
D11*
X2758277Y-6763984D02*
X2758277Y-6563984D01*
X2758277Y-6563984D02*
X2805896Y-6563984D01*
X2805896Y-6563984D02*
X2834467Y-6573508D01*
X2834467Y-6573508D02*
X2853515Y-6592555D01*
X2853515Y-6592555D02*
X2863039Y-6611603D01*
X2863039Y-6611603D02*
X2872562Y-6649698D01*
X2872562Y-6649698D02*
X2872562Y-6678269D01*
X2872562Y-6678269D02*
X2863039Y-6716365D01*
X2863039Y-6716365D02*
X2853515Y-6735412D01*
X2853515Y-6735412D02*
X2834467Y-6754460D01*
X2834467Y-6754460D02*
X2805896Y-6763984D01*
X2805896Y-6763984D02*
X2758277Y-6763984D01*
X2958277Y-6763984D02*
X2958277Y-6630650D01*
X2958277Y-6668746D02*
X2967801Y-6649698D01*
X2967801Y-6649698D02*
X2977324Y-6640174D01*
X2977324Y-6640174D02*
X2996372Y-6630650D01*
X2996372Y-6630650D02*
X3015420Y-6630650D01*
X3082086Y-6763984D02*
X3082086Y-6630650D01*
X3082086Y-6563984D02*
X3072562Y-6573508D01*
X3072562Y-6573508D02*
X3082086Y-6583031D01*
X3082086Y-6583031D02*
X3091610Y-6573508D01*
X3091610Y-6573508D02*
X3082086Y-6563984D01*
X3082086Y-6563984D02*
X3082086Y-6583031D01*
X3205896Y-6763984D02*
X3186848Y-6754460D01*
X3186848Y-6754460D02*
X3177324Y-6735412D01*
X3177324Y-6735412D02*
X3177324Y-6563984D01*
X3310658Y-6763984D02*
X3291610Y-6754460D01*
X3291610Y-6754460D02*
X3282086Y-6735412D01*
X3282086Y-6735412D02*
X3282086Y-6563984D01*
X3539229Y-6763984D02*
X3539229Y-6563984D01*
X3539229Y-6563984D02*
X3605896Y-6706841D01*
X3605896Y-6706841D02*
X3672562Y-6563984D01*
X3672562Y-6563984D02*
X3672562Y-6763984D01*
X3853515Y-6763984D02*
X3853515Y-6659222D01*
X3853515Y-6659222D02*
X3843991Y-6640174D01*
X3843991Y-6640174D02*
X3824943Y-6630650D01*
X3824943Y-6630650D02*
X3786848Y-6630650D01*
X3786848Y-6630650D02*
X3767801Y-6640174D01*
X3853515Y-6754460D02*
X3834467Y-6763984D01*
X3834467Y-6763984D02*
X3786848Y-6763984D01*
X3786848Y-6763984D02*
X3767801Y-6754460D01*
X3767801Y-6754460D02*
X3758277Y-6735412D01*
X3758277Y-6735412D02*
X3758277Y-6716365D01*
X3758277Y-6716365D02*
X3767801Y-6697317D01*
X3767801Y-6697317D02*
X3786848Y-6687793D01*
X3786848Y-6687793D02*
X3834467Y-6687793D01*
X3834467Y-6687793D02*
X3853515Y-6678269D01*
X3948753Y-6630650D02*
X3948753Y-6830650D01*
X3948753Y-6640174D02*
X3967801Y-6630650D01*
X3967801Y-6630650D02*
X4005896Y-6630650D01*
X4005896Y-6630650D02*
X4024943Y-6640174D01*
X4024943Y-6640174D02*
X4034467Y-6649698D01*
X4034467Y-6649698D02*
X4043991Y-6668746D01*
X4043991Y-6668746D02*
X4043991Y-6725888D01*
X4043991Y-6725888D02*
X4034467Y-6744936D01*
X4034467Y-6744936D02*
X4024943Y-6754460D01*
X4024943Y-6754460D02*
X4005896Y-6763984D01*
X4005896Y-6763984D02*
X3967801Y-6763984D01*
X3967801Y-6763984D02*
X3948753Y-6754460D01*
X4129705Y-6744936D02*
X4139229Y-6754460D01*
X4139229Y-6754460D02*
X4129705Y-6763984D01*
X4129705Y-6763984D02*
X4120182Y-6754460D01*
X4120182Y-6754460D02*
X4129705Y-6744936D01*
X4129705Y-6744936D02*
X4129705Y-6763984D01*
X4129705Y-6640174D02*
X4139229Y-6649698D01*
X4139229Y-6649698D02*
X4129705Y-6659222D01*
X4129705Y-6659222D02*
X4120182Y-6649698D01*
X4120182Y-6649698D02*
X4129705Y-6640174D01*
X4129705Y-6640174D02*
X4129705Y-6659222D01*
D12*
X2472100Y-7079800D02*
X2497500Y-7105200D01*
X2497500Y-7079800D02*
X2472100Y-7105200D01*
D11*
X2796372Y-6983984D02*
X2815420Y-6983984D01*
X2815420Y-6983984D02*
X2834467Y-6993508D01*
X2834467Y-6993508D02*
X2843991Y-7003031D01*
X2843991Y-7003031D02*
X2853515Y-7022079D01*
X2853515Y-7022079D02*
X2863039Y-7060174D01*
X2863039Y-7060174D02*
X2863039Y-7107793D01*
X2863039Y-7107793D02*
X2853515Y-7145888D01*
X2853515Y-7145888D02*
X2843991Y-7164936D01*
X2843991Y-7164936D02*
X2834467Y-7174460D01*
X2834467Y-7174460D02*
X2815420Y-7183984D01*
X2815420Y-7183984D02*
X2796372Y-7183984D01*
X2796372Y-7183984D02*
X2777324Y-7174460D01*
X2777324Y-7174460D02*
X2767801Y-7164936D01*
X2767801Y-7164936D02*
X2758277Y-7145888D01*
X2758277Y-7145888D02*
X2748753Y-7107793D01*
X2748753Y-7107793D02*
X2748753Y-7060174D01*
X2748753Y-7060174D02*
X2758277Y-7022079D01*
X2758277Y-7022079D02*
X2767801Y-7003031D01*
X2767801Y-7003031D02*
X2777324Y-6993508D01*
X2777324Y-6993508D02*
X2796372Y-6983984D01*
X2948753Y-7164936D02*
X2958277Y-7174460D01*
X2958277Y-7174460D02*
X2948753Y-7183984D01*
X2948753Y-7183984D02*
X2939229Y-7174460D01*
X2939229Y-7174460D02*
X2948753Y-7164936D01*
X2948753Y-7164936D02*
X2948753Y-7183984D01*
X3034467Y-7003031D02*
X3043991Y-6993508D01*
X3043991Y-6993508D02*
X3063039Y-6983984D01*
X3063039Y-6983984D02*
X3110658Y-6983984D01*
X3110658Y-6983984D02*
X3129705Y-6993508D01*
X3129705Y-6993508D02*
X3139229Y-7003031D01*
X3139229Y-7003031D02*
X3148753Y-7022079D01*
X3148753Y-7022079D02*
X3148753Y-7041127D01*
X3148753Y-7041127D02*
X3139229Y-7069698D01*
X3139229Y-7069698D02*
X3024943Y-7183984D01*
X3024943Y-7183984D02*
X3148753Y-7183984D01*
X3329705Y-6983984D02*
X3234467Y-6983984D01*
X3234467Y-6983984D02*
X3224943Y-7079222D01*
X3224943Y-7079222D02*
X3234467Y-7069698D01*
X3234467Y-7069698D02*
X3253515Y-7060174D01*
X3253515Y-7060174D02*
X3301134Y-7060174D01*
X3301134Y-7060174D02*
X3320182Y-7069698D01*
X3320182Y-7069698D02*
X3329705Y-7079222D01*
X3329705Y-7079222D02*
X3339229Y-7098269D01*
X3339229Y-7098269D02*
X3339229Y-7145888D01*
X3339229Y-7145888D02*
X3329705Y-7164936D01*
X3329705Y-7164936D02*
X3320182Y-7174460D01*
X3320182Y-7174460D02*
X3301134Y-7183984D01*
X3301134Y-7183984D02*
X3253515Y-7183984D01*
X3253515Y-7183984D02*
X3234467Y-7174460D01*
X3234467Y-7174460D02*
X3224943Y-7164936D01*
X3510658Y-7050650D02*
X3510658Y-7183984D01*
X3463039Y-6974460D02*
X3415420Y-7117317D01*
X3415420Y-7117317D02*
X3539229Y-7117317D01*
X3615420Y-7183984D02*
X3615420Y-7050650D01*
X3615420Y-7069698D02*
X3624943Y-7060174D01*
X3624943Y-7060174D02*
X3643991Y-7050650D01*
X3643991Y-7050650D02*
X3672563Y-7050650D01*
X3672563Y-7050650D02*
X3691610Y-7060174D01*
X3691610Y-7060174D02*
X3701134Y-7079222D01*
X3701134Y-7079222D02*
X3701134Y-7183984D01*
X3701134Y-7079222D02*
X3710658Y-7060174D01*
X3710658Y-7060174D02*
X3729705Y-7050650D01*
X3729705Y-7050650D02*
X3758277Y-7050650D01*
X3758277Y-7050650D02*
X3777324Y-7060174D01*
X3777324Y-7060174D02*
X3786848Y-7079222D01*
X3786848Y-7079222D02*
X3786848Y-7183984D01*
X3882086Y-7183984D02*
X3882086Y-7050650D01*
X3882086Y-7069698D02*
X3891610Y-7060174D01*
X3891610Y-7060174D02*
X3910658Y-7050650D01*
X3910658Y-7050650D02*
X3939229Y-7050650D01*
X3939229Y-7050650D02*
X3958277Y-7060174D01*
X3958277Y-7060174D02*
X3967801Y-7079222D01*
X3967801Y-7079222D02*
X3967801Y-7183984D01*
X3967801Y-7079222D02*
X3977324Y-7060174D01*
X3977324Y-7060174D02*
X3996372Y-7050650D01*
X3996372Y-7050650D02*
X4024943Y-7050650D01*
X4024943Y-7050650D02*
X4043991Y-7060174D01*
X4043991Y-7060174D02*
X4053515Y-7079222D01*
X4053515Y-7079222D02*
X4053515Y-7183984D01*
X4443991Y-6974460D02*
X4272563Y-7231603D01*
X4701134Y-6983984D02*
X4720182Y-6983984D01*
X4720182Y-6983984D02*
X4739229Y-6993508D01*
X4739229Y-6993508D02*
X4748753Y-7003031D01*
X4748753Y-7003031D02*
X4758277Y-7022079D01*
X4758277Y-7022079D02*
X4767801Y-7060174D01*
X4767801Y-7060174D02*
X4767801Y-7107793D01*
X4767801Y-7107793D02*
X4758277Y-7145888D01*
X4758277Y-7145888D02*
X4748753Y-7164936D01*
X4748753Y-7164936D02*
X4739229Y-7174460D01*
X4739229Y-7174460D02*
X4720182Y-7183984D01*
X4720182Y-7183984D02*
X4701134Y-7183984D01*
X4701134Y-7183984D02*
X4682087Y-7174460D01*
X4682087Y-7174460D02*
X4672563Y-7164936D01*
X4672563Y-7164936D02*
X4663039Y-7145888D01*
X4663039Y-7145888D02*
X4653515Y-7107793D01*
X4653515Y-7107793D02*
X4653515Y-7060174D01*
X4653515Y-7060174D02*
X4663039Y-7022079D01*
X4663039Y-7022079D02*
X4672563Y-7003031D01*
X4672563Y-7003031D02*
X4682087Y-6993508D01*
X4682087Y-6993508D02*
X4701134Y-6983984D01*
X4853515Y-7164936D02*
X4863039Y-7174460D01*
X4863039Y-7174460D02*
X4853515Y-7183984D01*
X4853515Y-7183984D02*
X4843991Y-7174460D01*
X4843991Y-7174460D02*
X4853515Y-7164936D01*
X4853515Y-7164936D02*
X4853515Y-7183984D01*
X4986848Y-6983984D02*
X5005896Y-6983984D01*
X5005896Y-6983984D02*
X5024944Y-6993508D01*
X5024944Y-6993508D02*
X5034468Y-7003031D01*
X5034468Y-7003031D02*
X5043991Y-7022079D01*
X5043991Y-7022079D02*
X5053515Y-7060174D01*
X5053515Y-7060174D02*
X5053515Y-7107793D01*
X5053515Y-7107793D02*
X5043991Y-7145888D01*
X5043991Y-7145888D02*
X5034468Y-7164936D01*
X5034468Y-7164936D02*
X5024944Y-7174460D01*
X5024944Y-7174460D02*
X5005896Y-7183984D01*
X5005896Y-7183984D02*
X4986848Y-7183984D01*
X4986848Y-7183984D02*
X4967801Y-7174460D01*
X4967801Y-7174460D02*
X4958277Y-7164936D01*
X4958277Y-7164936D02*
X4948753Y-7145888D01*
X4948753Y-7145888D02*
X4939229Y-7107793D01*
X4939229Y-7107793D02*
X4939229Y-7060174D01*
X4939229Y-7060174D02*
X4948753Y-7022079D01*
X4948753Y-7022079D02*
X4958277Y-7003031D01*
X4958277Y-7003031D02*
X4967801Y-6993508D01*
X4967801Y-6993508D02*
X4986848Y-6983984D01*
X5243991Y-7183984D02*
X5129706Y-7183984D01*
X5186848Y-7183984D02*
X5186848Y-6983984D01*
X5186848Y-6983984D02*
X5167801Y-7012555D01*
X5167801Y-7012555D02*
X5148753Y-7031603D01*
X5148753Y-7031603D02*
X5129706Y-7041127D01*
X5367801Y-6983984D02*
X5386849Y-6983984D01*
X5386849Y-6983984D02*
X5405896Y-6993508D01*
X5405896Y-6993508D02*
X5415420Y-7003031D01*
X5415420Y-7003031D02*
X5424944Y-7022079D01*
X5424944Y-7022079D02*
X5434468Y-7060174D01*
X5434468Y-7060174D02*
X5434468Y-7107793D01*
X5434468Y-7107793D02*
X5424944Y-7145888D01*
X5424944Y-7145888D02*
X5415420Y-7164936D01*
X5415420Y-7164936D02*
X5405896Y-7174460D01*
X5405896Y-7174460D02*
X5386849Y-7183984D01*
X5386849Y-7183984D02*
X5367801Y-7183984D01*
X5367801Y-7183984D02*
X5348753Y-7174460D01*
X5348753Y-7174460D02*
X5339229Y-7164936D01*
X5339229Y-7164936D02*
X5329706Y-7145888D01*
X5329706Y-7145888D02*
X5320182Y-7107793D01*
X5320182Y-7107793D02*
X5320182Y-7060174D01*
X5320182Y-7060174D02*
X5329706Y-7022079D01*
X5329706Y-7022079D02*
X5339229Y-7003031D01*
X5339229Y-7003031D02*
X5348753Y-6993508D01*
X5348753Y-6993508D02*
X5367801Y-6983984D01*
X5558277Y-6983984D02*
X5577325Y-6983984D01*
X5577325Y-6983984D02*
X5596372Y-6993508D01*
X5596372Y-6993508D02*
X5605896Y-7003031D01*
X5605896Y-7003031D02*
X5615420Y-7022079D01*
X5615420Y-7022079D02*
X5624944Y-7060174D01*
X5624944Y-7060174D02*
X5624944Y-7107793D01*
X5624944Y-7107793D02*
X5615420Y-7145888D01*
X5615420Y-7145888D02*
X5605896Y-7164936D01*
X5605896Y-7164936D02*
X5596372Y-7174460D01*
X5596372Y-7174460D02*
X5577325Y-7183984D01*
X5577325Y-7183984D02*
X5558277Y-7183984D01*
X5558277Y-7183984D02*
X5539229Y-7174460D01*
X5539229Y-7174460D02*
X5529706Y-7164936D01*
X5529706Y-7164936D02*
X5520182Y-7145888D01*
X5520182Y-7145888D02*
X5510658Y-7107793D01*
X5510658Y-7107793D02*
X5510658Y-7060174D01*
X5510658Y-7060174D02*
X5520182Y-7022079D01*
X5520182Y-7022079D02*
X5529706Y-7003031D01*
X5529706Y-7003031D02*
X5539229Y-6993508D01*
X5539229Y-6993508D02*
X5558277Y-6983984D01*
X5701134Y-6983984D02*
X5701134Y-7022079D01*
X5777325Y-6983984D02*
X5777325Y-7022079D01*
X6072563Y-7260174D02*
X6063039Y-7250650D01*
X6063039Y-7250650D02*
X6043991Y-7222079D01*
X6043991Y-7222079D02*
X6034468Y-7203031D01*
X6034468Y-7203031D02*
X6024944Y-7174460D01*
X6024944Y-7174460D02*
X6015420Y-7126841D01*
X6015420Y-7126841D02*
X6015420Y-7088746D01*
X6015420Y-7088746D02*
X6024944Y-7041127D01*
X6024944Y-7041127D02*
X6034468Y-7012555D01*
X6034468Y-7012555D02*
X6043991Y-6993508D01*
X6043991Y-6993508D02*
X6063039Y-6964936D01*
X6063039Y-6964936D02*
X6072563Y-6955412D01*
X6139229Y-7003031D02*
X6148753Y-6993508D01*
X6148753Y-6993508D02*
X6167801Y-6983984D01*
X6167801Y-6983984D02*
X6215420Y-6983984D01*
X6215420Y-6983984D02*
X6234468Y-6993508D01*
X6234468Y-6993508D02*
X6243991Y-7003031D01*
X6243991Y-7003031D02*
X6253515Y-7022079D01*
X6253515Y-7022079D02*
X6253515Y-7041127D01*
X6253515Y-7041127D02*
X6243991Y-7069698D01*
X6243991Y-7069698D02*
X6129706Y-7183984D01*
X6129706Y-7183984D02*
X6253515Y-7183984D01*
X6434468Y-6983984D02*
X6339229Y-6983984D01*
X6339229Y-6983984D02*
X6329706Y-7079222D01*
X6329706Y-7079222D02*
X6339229Y-7069698D01*
X6339229Y-7069698D02*
X6358277Y-7060174D01*
X6358277Y-7060174D02*
X6405896Y-7060174D01*
X6405896Y-7060174D02*
X6424944Y-7069698D01*
X6424944Y-7069698D02*
X6434468Y-7079222D01*
X6434468Y-7079222D02*
X6443991Y-7098269D01*
X6443991Y-7098269D02*
X6443991Y-7145888D01*
X6443991Y-7145888D02*
X6434468Y-7164936D01*
X6434468Y-7164936D02*
X6424944Y-7174460D01*
X6424944Y-7174460D02*
X6405896Y-7183984D01*
X6405896Y-7183984D02*
X6358277Y-7183984D01*
X6358277Y-7183984D02*
X6339229Y-7174460D01*
X6339229Y-7174460D02*
X6329706Y-7164936D01*
X6682087Y-7183984D02*
X6682087Y-6983984D01*
X6767801Y-7183984D02*
X6767801Y-7079222D01*
X6767801Y-7079222D02*
X6758277Y-7060174D01*
X6758277Y-7060174D02*
X6739230Y-7050650D01*
X6739230Y-7050650D02*
X6710658Y-7050650D01*
X6710658Y-7050650D02*
X6691610Y-7060174D01*
X6691610Y-7060174D02*
X6682087Y-7069698D01*
X6891610Y-7183984D02*
X6872563Y-7174460D01*
X6872563Y-7174460D02*
X6863039Y-7164936D01*
X6863039Y-7164936D02*
X6853515Y-7145888D01*
X6853515Y-7145888D02*
X6853515Y-7088746D01*
X6853515Y-7088746D02*
X6863039Y-7069698D01*
X6863039Y-7069698D02*
X6872563Y-7060174D01*
X6872563Y-7060174D02*
X6891610Y-7050650D01*
X6891610Y-7050650D02*
X6920182Y-7050650D01*
X6920182Y-7050650D02*
X6939230Y-7060174D01*
X6939230Y-7060174D02*
X6948753Y-7069698D01*
X6948753Y-7069698D02*
X6958277Y-7088746D01*
X6958277Y-7088746D02*
X6958277Y-7145888D01*
X6958277Y-7145888D02*
X6948753Y-7164936D01*
X6948753Y-7164936D02*
X6939230Y-7174460D01*
X6939230Y-7174460D02*
X6920182Y-7183984D01*
X6920182Y-7183984D02*
X6891610Y-7183984D01*
X7072563Y-7183984D02*
X7053515Y-7174460D01*
X7053515Y-7174460D02*
X7043991Y-7155412D01*
X7043991Y-7155412D02*
X7043991Y-6983984D01*
X7224944Y-7174460D02*
X7205896Y-7183984D01*
X7205896Y-7183984D02*
X7167801Y-7183984D01*
X7167801Y-7183984D02*
X7148753Y-7174460D01*
X7148753Y-7174460D02*
X7139230Y-7155412D01*
X7139230Y-7155412D02*
X7139230Y-7079222D01*
X7139230Y-7079222D02*
X7148753Y-7060174D01*
X7148753Y-7060174D02*
X7167801Y-7050650D01*
X7167801Y-7050650D02*
X7205896Y-7050650D01*
X7205896Y-7050650D02*
X7224944Y-7060174D01*
X7224944Y-7060174D02*
X7234468Y-7079222D01*
X7234468Y-7079222D02*
X7234468Y-7098269D01*
X7234468Y-7098269D02*
X7139230Y-7117317D01*
X7310658Y-7174460D02*
X7329706Y-7183984D01*
X7329706Y-7183984D02*
X7367801Y-7183984D01*
X7367801Y-7183984D02*
X7386849Y-7174460D01*
X7386849Y-7174460D02*
X7396372Y-7155412D01*
X7396372Y-7155412D02*
X7396372Y-7145888D01*
X7396372Y-7145888D02*
X7386849Y-7126841D01*
X7386849Y-7126841D02*
X7367801Y-7117317D01*
X7367801Y-7117317D02*
X7339230Y-7117317D01*
X7339230Y-7117317D02*
X7320182Y-7107793D01*
X7320182Y-7107793D02*
X7310658Y-7088746D01*
X7310658Y-7088746D02*
X7310658Y-7079222D01*
X7310658Y-7079222D02*
X7320182Y-7060174D01*
X7320182Y-7060174D02*
X7339230Y-7050650D01*
X7339230Y-7050650D02*
X7367801Y-7050650D01*
X7367801Y-7050650D02*
X7386849Y-7060174D01*
X7463039Y-7260174D02*
X7472563Y-7250650D01*
X7472563Y-7250650D02*
X7491611Y-7222079D01*
X7491611Y-7222079D02*
X7501134Y-7203031D01*
X7501134Y-7203031D02*
X7510658Y-7174460D01*
X7510658Y-7174460D02*
X7520182Y-7126841D01*
X7520182Y-7126841D02*
X7520182Y-7088746D01*
X7520182Y-7088746D02*
X7510658Y-7041127D01*
X7510658Y-7041127D02*
X7501134Y-7012555D01*
X7501134Y-7012555D02*
X7491611Y-6993508D01*
X7491611Y-6993508D02*
X7472563Y-6964936D01*
X7472563Y-6964936D02*
X7463039Y-6955412D01*
D13*
X2497500Y-7356500D02*
G75*
G03*
X2497500Y-7356500I-20000J0D01*
G01*
D11*
X2796372Y-7247984D02*
X2815420Y-7247984D01*
X2815420Y-7247984D02*
X2834467Y-7257508D01*
X2834467Y-7257508D02*
X2843991Y-7267031D01*
X2843991Y-7267031D02*
X2853515Y-7286079D01*
X2853515Y-7286079D02*
X2863039Y-7324174D01*
X2863039Y-7324174D02*
X2863039Y-7371793D01*
X2863039Y-7371793D02*
X2853515Y-7409888D01*
X2853515Y-7409888D02*
X2843991Y-7428936D01*
X2843991Y-7428936D02*
X2834467Y-7438460D01*
X2834467Y-7438460D02*
X2815420Y-7447984D01*
X2815420Y-7447984D02*
X2796372Y-7447984D01*
X2796372Y-7447984D02*
X2777324Y-7438460D01*
X2777324Y-7438460D02*
X2767801Y-7428936D01*
X2767801Y-7428936D02*
X2758277Y-7409888D01*
X2758277Y-7409888D02*
X2748753Y-7371793D01*
X2748753Y-7371793D02*
X2748753Y-7324174D01*
X2748753Y-7324174D02*
X2758277Y-7286079D01*
X2758277Y-7286079D02*
X2767801Y-7267031D01*
X2767801Y-7267031D02*
X2777324Y-7257508D01*
X2777324Y-7257508D02*
X2796372Y-7247984D01*
X2948753Y-7428936D02*
X2958277Y-7438460D01*
X2958277Y-7438460D02*
X2948753Y-7447984D01*
X2948753Y-7447984D02*
X2939229Y-7438460D01*
X2939229Y-7438460D02*
X2948753Y-7428936D01*
X2948753Y-7428936D02*
X2948753Y-7447984D01*
X3129705Y-7314650D02*
X3129705Y-7447984D01*
X3082086Y-7238460D02*
X3034467Y-7381317D01*
X3034467Y-7381317D02*
X3158277Y-7381317D01*
X3272562Y-7247984D02*
X3291610Y-7247984D01*
X3291610Y-7247984D02*
X3310658Y-7257508D01*
X3310658Y-7257508D02*
X3320182Y-7267031D01*
X3320182Y-7267031D02*
X3329705Y-7286079D01*
X3329705Y-7286079D02*
X3339229Y-7324174D01*
X3339229Y-7324174D02*
X3339229Y-7371793D01*
X3339229Y-7371793D02*
X3329705Y-7409888D01*
X3329705Y-7409888D02*
X3320182Y-7428936D01*
X3320182Y-7428936D02*
X3310658Y-7438460D01*
X3310658Y-7438460D02*
X3291610Y-7447984D01*
X3291610Y-7447984D02*
X3272562Y-7447984D01*
X3272562Y-7447984D02*
X3253515Y-7438460D01*
X3253515Y-7438460D02*
X3243991Y-7428936D01*
X3243991Y-7428936D02*
X3234467Y-7409888D01*
X3234467Y-7409888D02*
X3224943Y-7371793D01*
X3224943Y-7371793D02*
X3224943Y-7324174D01*
X3224943Y-7324174D02*
X3234467Y-7286079D01*
X3234467Y-7286079D02*
X3243991Y-7267031D01*
X3243991Y-7267031D02*
X3253515Y-7257508D01*
X3253515Y-7257508D02*
X3272562Y-7247984D01*
X3463039Y-7247984D02*
X3482086Y-7247984D01*
X3482086Y-7247984D02*
X3501134Y-7257508D01*
X3501134Y-7257508D02*
X3510658Y-7267031D01*
X3510658Y-7267031D02*
X3520182Y-7286079D01*
X3520182Y-7286079D02*
X3529705Y-7324174D01*
X3529705Y-7324174D02*
X3529705Y-7371793D01*
X3529705Y-7371793D02*
X3520182Y-7409888D01*
X3520182Y-7409888D02*
X3510658Y-7428936D01*
X3510658Y-7428936D02*
X3501134Y-7438460D01*
X3501134Y-7438460D02*
X3482086Y-7447984D01*
X3482086Y-7447984D02*
X3463039Y-7447984D01*
X3463039Y-7447984D02*
X3443991Y-7438460D01*
X3443991Y-7438460D02*
X3434467Y-7428936D01*
X3434467Y-7428936D02*
X3424943Y-7409888D01*
X3424943Y-7409888D02*
X3415420Y-7371793D01*
X3415420Y-7371793D02*
X3415420Y-7324174D01*
X3415420Y-7324174D02*
X3424943Y-7286079D01*
X3424943Y-7286079D02*
X3434467Y-7267031D01*
X3434467Y-7267031D02*
X3443991Y-7257508D01*
X3443991Y-7257508D02*
X3463039Y-7247984D01*
X3615420Y-7447984D02*
X3615420Y-7314650D01*
X3615420Y-7333698D02*
X3624943Y-7324174D01*
X3624943Y-7324174D02*
X3643991Y-7314650D01*
X3643991Y-7314650D02*
X3672563Y-7314650D01*
X3672563Y-7314650D02*
X3691610Y-7324174D01*
X3691610Y-7324174D02*
X3701134Y-7343222D01*
X3701134Y-7343222D02*
X3701134Y-7447984D01*
X3701134Y-7343222D02*
X3710658Y-7324174D01*
X3710658Y-7324174D02*
X3729705Y-7314650D01*
X3729705Y-7314650D02*
X3758277Y-7314650D01*
X3758277Y-7314650D02*
X3777324Y-7324174D01*
X3777324Y-7324174D02*
X3786848Y-7343222D01*
X3786848Y-7343222D02*
X3786848Y-7447984D01*
X3882086Y-7447984D02*
X3882086Y-7314650D01*
X3882086Y-7333698D02*
X3891610Y-7324174D01*
X3891610Y-7324174D02*
X3910658Y-7314650D01*
X3910658Y-7314650D02*
X3939229Y-7314650D01*
X3939229Y-7314650D02*
X3958277Y-7324174D01*
X3958277Y-7324174D02*
X3967801Y-7343222D01*
X3967801Y-7343222D02*
X3967801Y-7447984D01*
X3967801Y-7343222D02*
X3977324Y-7324174D01*
X3977324Y-7324174D02*
X3996372Y-7314650D01*
X3996372Y-7314650D02*
X4024943Y-7314650D01*
X4024943Y-7314650D02*
X4043991Y-7324174D01*
X4043991Y-7324174D02*
X4053515Y-7343222D01*
X4053515Y-7343222D02*
X4053515Y-7447984D01*
X4443991Y-7238460D02*
X4272563Y-7495603D01*
X4701134Y-7247984D02*
X4720182Y-7247984D01*
X4720182Y-7247984D02*
X4739229Y-7257508D01*
X4739229Y-7257508D02*
X4748753Y-7267031D01*
X4748753Y-7267031D02*
X4758277Y-7286079D01*
X4758277Y-7286079D02*
X4767801Y-7324174D01*
X4767801Y-7324174D02*
X4767801Y-7371793D01*
X4767801Y-7371793D02*
X4758277Y-7409888D01*
X4758277Y-7409888D02*
X4748753Y-7428936D01*
X4748753Y-7428936D02*
X4739229Y-7438460D01*
X4739229Y-7438460D02*
X4720182Y-7447984D01*
X4720182Y-7447984D02*
X4701134Y-7447984D01*
X4701134Y-7447984D02*
X4682087Y-7438460D01*
X4682087Y-7438460D02*
X4672563Y-7428936D01*
X4672563Y-7428936D02*
X4663039Y-7409888D01*
X4663039Y-7409888D02*
X4653515Y-7371793D01*
X4653515Y-7371793D02*
X4653515Y-7324174D01*
X4653515Y-7324174D02*
X4663039Y-7286079D01*
X4663039Y-7286079D02*
X4672563Y-7267031D01*
X4672563Y-7267031D02*
X4682087Y-7257508D01*
X4682087Y-7257508D02*
X4701134Y-7247984D01*
X4853515Y-7428936D02*
X4863039Y-7438460D01*
X4863039Y-7438460D02*
X4853515Y-7447984D01*
X4853515Y-7447984D02*
X4843991Y-7438460D01*
X4843991Y-7438460D02*
X4853515Y-7428936D01*
X4853515Y-7428936D02*
X4853515Y-7447984D01*
X4986848Y-7247984D02*
X5005896Y-7247984D01*
X5005896Y-7247984D02*
X5024944Y-7257508D01*
X5024944Y-7257508D02*
X5034468Y-7267031D01*
X5034468Y-7267031D02*
X5043991Y-7286079D01*
X5043991Y-7286079D02*
X5053515Y-7324174D01*
X5053515Y-7324174D02*
X5053515Y-7371793D01*
X5053515Y-7371793D02*
X5043991Y-7409888D01*
X5043991Y-7409888D02*
X5034468Y-7428936D01*
X5034468Y-7428936D02*
X5024944Y-7438460D01*
X5024944Y-7438460D02*
X5005896Y-7447984D01*
X5005896Y-7447984D02*
X4986848Y-7447984D01*
X4986848Y-7447984D02*
X4967801Y-7438460D01*
X4967801Y-7438460D02*
X4958277Y-7428936D01*
X4958277Y-7428936D02*
X4948753Y-7409888D01*
X4948753Y-7409888D02*
X4939229Y-7371793D01*
X4939229Y-7371793D02*
X4939229Y-7324174D01*
X4939229Y-7324174D02*
X4948753Y-7286079D01*
X4948753Y-7286079D02*
X4958277Y-7267031D01*
X4958277Y-7267031D02*
X4967801Y-7257508D01*
X4967801Y-7257508D02*
X4986848Y-7247984D01*
X5243991Y-7447984D02*
X5129706Y-7447984D01*
X5186848Y-7447984D02*
X5186848Y-7247984D01*
X5186848Y-7247984D02*
X5167801Y-7276555D01*
X5167801Y-7276555D02*
X5148753Y-7295603D01*
X5148753Y-7295603D02*
X5129706Y-7305127D01*
X5424944Y-7247984D02*
X5329706Y-7247984D01*
X5329706Y-7247984D02*
X5320182Y-7343222D01*
X5320182Y-7343222D02*
X5329706Y-7333698D01*
X5329706Y-7333698D02*
X5348753Y-7324174D01*
X5348753Y-7324174D02*
X5396372Y-7324174D01*
X5396372Y-7324174D02*
X5415420Y-7333698D01*
X5415420Y-7333698D02*
X5424944Y-7343222D01*
X5424944Y-7343222D02*
X5434468Y-7362269D01*
X5434468Y-7362269D02*
X5434468Y-7409888D01*
X5434468Y-7409888D02*
X5424944Y-7428936D01*
X5424944Y-7428936D02*
X5415420Y-7438460D01*
X5415420Y-7438460D02*
X5396372Y-7447984D01*
X5396372Y-7447984D02*
X5348753Y-7447984D01*
X5348753Y-7447984D02*
X5329706Y-7438460D01*
X5329706Y-7438460D02*
X5320182Y-7428936D01*
X5501134Y-7247984D02*
X5634467Y-7247984D01*
X5634467Y-7247984D02*
X5548753Y-7447984D01*
X5701134Y-7247984D02*
X5701134Y-7286079D01*
X5777325Y-7247984D02*
X5777325Y-7286079D01*
X6072563Y-7524174D02*
X6063039Y-7514650D01*
X6063039Y-7514650D02*
X6043991Y-7486079D01*
X6043991Y-7486079D02*
X6034468Y-7467031D01*
X6034468Y-7467031D02*
X6024944Y-7438460D01*
X6024944Y-7438460D02*
X6015420Y-7390841D01*
X6015420Y-7390841D02*
X6015420Y-7352746D01*
X6015420Y-7352746D02*
X6024944Y-7305127D01*
X6024944Y-7305127D02*
X6034468Y-7276555D01*
X6034468Y-7276555D02*
X6043991Y-7257508D01*
X6043991Y-7257508D02*
X6063039Y-7228936D01*
X6063039Y-7228936D02*
X6072563Y-7219412D01*
X6139229Y-7267031D02*
X6148753Y-7257508D01*
X6148753Y-7257508D02*
X6167801Y-7247984D01*
X6167801Y-7247984D02*
X6215420Y-7247984D01*
X6215420Y-7247984D02*
X6234468Y-7257508D01*
X6234468Y-7257508D02*
X6243991Y-7267031D01*
X6243991Y-7267031D02*
X6253515Y-7286079D01*
X6253515Y-7286079D02*
X6253515Y-7305127D01*
X6253515Y-7305127D02*
X6243991Y-7333698D01*
X6243991Y-7333698D02*
X6129706Y-7447984D01*
X6129706Y-7447984D02*
X6253515Y-7447984D01*
X6348753Y-7447984D02*
X6386848Y-7447984D01*
X6386848Y-7447984D02*
X6405896Y-7438460D01*
X6405896Y-7438460D02*
X6415420Y-7428936D01*
X6415420Y-7428936D02*
X6434468Y-7400365D01*
X6434468Y-7400365D02*
X6443991Y-7362269D01*
X6443991Y-7362269D02*
X6443991Y-7286079D01*
X6443991Y-7286079D02*
X6434468Y-7267031D01*
X6434468Y-7267031D02*
X6424944Y-7257508D01*
X6424944Y-7257508D02*
X6405896Y-7247984D01*
X6405896Y-7247984D02*
X6367801Y-7247984D01*
X6367801Y-7247984D02*
X6348753Y-7257508D01*
X6348753Y-7257508D02*
X6339229Y-7267031D01*
X6339229Y-7267031D02*
X6329706Y-7286079D01*
X6329706Y-7286079D02*
X6329706Y-7333698D01*
X6329706Y-7333698D02*
X6339229Y-7352746D01*
X6339229Y-7352746D02*
X6348753Y-7362269D01*
X6348753Y-7362269D02*
X6367801Y-7371793D01*
X6367801Y-7371793D02*
X6405896Y-7371793D01*
X6405896Y-7371793D02*
X6424944Y-7362269D01*
X6424944Y-7362269D02*
X6434468Y-7352746D01*
X6434468Y-7352746D02*
X6443991Y-7333698D01*
X6558277Y-7333698D02*
X6539229Y-7324174D01*
X6539229Y-7324174D02*
X6529706Y-7314650D01*
X6529706Y-7314650D02*
X6520182Y-7295603D01*
X6520182Y-7295603D02*
X6520182Y-7286079D01*
X6520182Y-7286079D02*
X6529706Y-7267031D01*
X6529706Y-7267031D02*
X6539229Y-7257508D01*
X6539229Y-7257508D02*
X6558277Y-7247984D01*
X6558277Y-7247984D02*
X6596372Y-7247984D01*
X6596372Y-7247984D02*
X6615420Y-7257508D01*
X6615420Y-7257508D02*
X6624944Y-7267031D01*
X6624944Y-7267031D02*
X6634468Y-7286079D01*
X6634468Y-7286079D02*
X6634468Y-7295603D01*
X6634468Y-7295603D02*
X6624944Y-7314650D01*
X6624944Y-7314650D02*
X6615420Y-7324174D01*
X6615420Y-7324174D02*
X6596372Y-7333698D01*
X6596372Y-7333698D02*
X6558277Y-7333698D01*
X6558277Y-7333698D02*
X6539229Y-7343222D01*
X6539229Y-7343222D02*
X6529706Y-7352746D01*
X6529706Y-7352746D02*
X6520182Y-7371793D01*
X6520182Y-7371793D02*
X6520182Y-7409888D01*
X6520182Y-7409888D02*
X6529706Y-7428936D01*
X6529706Y-7428936D02*
X6539229Y-7438460D01*
X6539229Y-7438460D02*
X6558277Y-7447984D01*
X6558277Y-7447984D02*
X6596372Y-7447984D01*
X6596372Y-7447984D02*
X6615420Y-7438460D01*
X6615420Y-7438460D02*
X6624944Y-7428936D01*
X6624944Y-7428936D02*
X6634468Y-7409888D01*
X6634468Y-7409888D02*
X6634468Y-7371793D01*
X6634468Y-7371793D02*
X6624944Y-7352746D01*
X6624944Y-7352746D02*
X6615420Y-7343222D01*
X6615420Y-7343222D02*
X6596372Y-7333698D01*
X6872563Y-7447984D02*
X6872563Y-7247984D01*
X6958277Y-7447984D02*
X6958277Y-7343222D01*
X6958277Y-7343222D02*
X6948753Y-7324174D01*
X6948753Y-7324174D02*
X6929706Y-7314650D01*
X6929706Y-7314650D02*
X6901134Y-7314650D01*
X6901134Y-7314650D02*
X6882087Y-7324174D01*
X6882087Y-7324174D02*
X6872563Y-7333698D01*
X7082087Y-7447984D02*
X7063039Y-7438460D01*
X7063039Y-7438460D02*
X7053515Y-7428936D01*
X7053515Y-7428936D02*
X7043991Y-7409888D01*
X7043991Y-7409888D02*
X7043991Y-7352746D01*
X7043991Y-7352746D02*
X7053515Y-7333698D01*
X7053515Y-7333698D02*
X7063039Y-7324174D01*
X7063039Y-7324174D02*
X7082087Y-7314650D01*
X7082087Y-7314650D02*
X7110658Y-7314650D01*
X7110658Y-7314650D02*
X7129706Y-7324174D01*
X7129706Y-7324174D02*
X7139230Y-7333698D01*
X7139230Y-7333698D02*
X7148753Y-7352746D01*
X7148753Y-7352746D02*
X7148753Y-7409888D01*
X7148753Y-7409888D02*
X7139230Y-7428936D01*
X7139230Y-7428936D02*
X7129706Y-7438460D01*
X7129706Y-7438460D02*
X7110658Y-7447984D01*
X7110658Y-7447984D02*
X7082087Y-7447984D01*
X7263039Y-7447984D02*
X7243991Y-7438460D01*
X7243991Y-7438460D02*
X7234468Y-7419412D01*
X7234468Y-7419412D02*
X7234468Y-7247984D01*
X7415420Y-7438460D02*
X7396372Y-7447984D01*
X7396372Y-7447984D02*
X7358277Y-7447984D01*
X7358277Y-7447984D02*
X7339230Y-7438460D01*
X7339230Y-7438460D02*
X7329706Y-7419412D01*
X7329706Y-7419412D02*
X7329706Y-7343222D01*
X7329706Y-7343222D02*
X7339230Y-7324174D01*
X7339230Y-7324174D02*
X7358277Y-7314650D01*
X7358277Y-7314650D02*
X7396372Y-7314650D01*
X7396372Y-7314650D02*
X7415420Y-7324174D01*
X7415420Y-7324174D02*
X7424944Y-7343222D01*
X7424944Y-7343222D02*
X7424944Y-7362269D01*
X7424944Y-7362269D02*
X7329706Y-7381317D01*
X7501134Y-7438460D02*
X7520182Y-7447984D01*
X7520182Y-7447984D02*
X7558277Y-7447984D01*
X7558277Y-7447984D02*
X7577325Y-7438460D01*
X7577325Y-7438460D02*
X7586849Y-7419412D01*
X7586849Y-7419412D02*
X7586849Y-7409888D01*
X7586849Y-7409888D02*
X7577325Y-7390841D01*
X7577325Y-7390841D02*
X7558277Y-7381317D01*
X7558277Y-7381317D02*
X7529706Y-7381317D01*
X7529706Y-7381317D02*
X7510658Y-7371793D01*
X7510658Y-7371793D02*
X7501134Y-7352746D01*
X7501134Y-7352746D02*
X7501134Y-7343222D01*
X7501134Y-7343222D02*
X7510658Y-7324174D01*
X7510658Y-7324174D02*
X7529706Y-7314650D01*
X7529706Y-7314650D02*
X7558277Y-7314650D01*
X7558277Y-7314650D02*
X7577325Y-7324174D01*
X7653515Y-7524174D02*
X7663039Y-7514650D01*
X7663039Y-7514650D02*
X7682087Y-7486079D01*
X7682087Y-7486079D02*
X7691611Y-7467031D01*
X7691611Y-7467031D02*
X7701134Y-7438460D01*
X7701134Y-7438460D02*
X7710658Y-7390841D01*
X7710658Y-7390841D02*
X7710658Y-7352746D01*
X7710658Y-7352746D02*
X7701134Y-7305127D01*
X7701134Y-7305127D02*
X7691611Y-7276555D01*
X7691611Y-7276555D02*
X7682087Y-7257508D01*
X7682087Y-7257508D02*
X7663039Y-7228936D01*
X7663039Y-7228936D02*
X7653515Y-7219412D01*
D14*
X2467500Y-7590500D02*
X2467500Y-7650500D01*
X2437500Y-7620500D02*
X2497500Y-7620500D01*
D11*
X2796372Y-7511984D02*
X2815420Y-7511984D01*
X2815420Y-7511984D02*
X2834467Y-7521508D01*
X2834467Y-7521508D02*
X2843991Y-7531031D01*
X2843991Y-7531031D02*
X2853515Y-7550079D01*
X2853515Y-7550079D02*
X2863039Y-7588174D01*
X2863039Y-7588174D02*
X2863039Y-7635793D01*
X2863039Y-7635793D02*
X2853515Y-7673888D01*
X2853515Y-7673888D02*
X2843991Y-7692936D01*
X2843991Y-7692936D02*
X2834467Y-7702460D01*
X2834467Y-7702460D02*
X2815420Y-7711984D01*
X2815420Y-7711984D02*
X2796372Y-7711984D01*
X2796372Y-7711984D02*
X2777324Y-7702460D01*
X2777324Y-7702460D02*
X2767801Y-7692936D01*
X2767801Y-7692936D02*
X2758277Y-7673888D01*
X2758277Y-7673888D02*
X2748753Y-7635793D01*
X2748753Y-7635793D02*
X2748753Y-7588174D01*
X2748753Y-7588174D02*
X2758277Y-7550079D01*
X2758277Y-7550079D02*
X2767801Y-7531031D01*
X2767801Y-7531031D02*
X2777324Y-7521508D01*
X2777324Y-7521508D02*
X2796372Y-7511984D01*
X2948753Y-7692936D02*
X2958277Y-7702460D01*
X2958277Y-7702460D02*
X2948753Y-7711984D01*
X2948753Y-7711984D02*
X2939229Y-7702460D01*
X2939229Y-7702460D02*
X2948753Y-7692936D01*
X2948753Y-7692936D02*
X2948753Y-7711984D01*
X3129705Y-7511984D02*
X3091610Y-7511984D01*
X3091610Y-7511984D02*
X3072562Y-7521508D01*
X3072562Y-7521508D02*
X3063039Y-7531031D01*
X3063039Y-7531031D02*
X3043991Y-7559603D01*
X3043991Y-7559603D02*
X3034467Y-7597698D01*
X3034467Y-7597698D02*
X3034467Y-7673888D01*
X3034467Y-7673888D02*
X3043991Y-7692936D01*
X3043991Y-7692936D02*
X3053515Y-7702460D01*
X3053515Y-7702460D02*
X3072562Y-7711984D01*
X3072562Y-7711984D02*
X3110658Y-7711984D01*
X3110658Y-7711984D02*
X3129705Y-7702460D01*
X3129705Y-7702460D02*
X3139229Y-7692936D01*
X3139229Y-7692936D02*
X3148753Y-7673888D01*
X3148753Y-7673888D02*
X3148753Y-7626269D01*
X3148753Y-7626269D02*
X3139229Y-7607222D01*
X3139229Y-7607222D02*
X3129705Y-7597698D01*
X3129705Y-7597698D02*
X3110658Y-7588174D01*
X3110658Y-7588174D02*
X3072562Y-7588174D01*
X3072562Y-7588174D02*
X3053515Y-7597698D01*
X3053515Y-7597698D02*
X3043991Y-7607222D01*
X3043991Y-7607222D02*
X3034467Y-7626269D01*
X3272562Y-7511984D02*
X3291610Y-7511984D01*
X3291610Y-7511984D02*
X3310658Y-7521508D01*
X3310658Y-7521508D02*
X3320182Y-7531031D01*
X3320182Y-7531031D02*
X3329705Y-7550079D01*
X3329705Y-7550079D02*
X3339229Y-7588174D01*
X3339229Y-7588174D02*
X3339229Y-7635793D01*
X3339229Y-7635793D02*
X3329705Y-7673888D01*
X3329705Y-7673888D02*
X3320182Y-7692936D01*
X3320182Y-7692936D02*
X3310658Y-7702460D01*
X3310658Y-7702460D02*
X3291610Y-7711984D01*
X3291610Y-7711984D02*
X3272562Y-7711984D01*
X3272562Y-7711984D02*
X3253515Y-7702460D01*
X3253515Y-7702460D02*
X3243991Y-7692936D01*
X3243991Y-7692936D02*
X3234467Y-7673888D01*
X3234467Y-7673888D02*
X3224943Y-7635793D01*
X3224943Y-7635793D02*
X3224943Y-7588174D01*
X3224943Y-7588174D02*
X3234467Y-7550079D01*
X3234467Y-7550079D02*
X3243991Y-7531031D01*
X3243991Y-7531031D02*
X3253515Y-7521508D01*
X3253515Y-7521508D02*
X3272562Y-7511984D01*
X3463039Y-7511984D02*
X3482086Y-7511984D01*
X3482086Y-7511984D02*
X3501134Y-7521508D01*
X3501134Y-7521508D02*
X3510658Y-7531031D01*
X3510658Y-7531031D02*
X3520182Y-7550079D01*
X3520182Y-7550079D02*
X3529705Y-7588174D01*
X3529705Y-7588174D02*
X3529705Y-7635793D01*
X3529705Y-7635793D02*
X3520182Y-7673888D01*
X3520182Y-7673888D02*
X3510658Y-7692936D01*
X3510658Y-7692936D02*
X3501134Y-7702460D01*
X3501134Y-7702460D02*
X3482086Y-7711984D01*
X3482086Y-7711984D02*
X3463039Y-7711984D01*
X3463039Y-7711984D02*
X3443991Y-7702460D01*
X3443991Y-7702460D02*
X3434467Y-7692936D01*
X3434467Y-7692936D02*
X3424943Y-7673888D01*
X3424943Y-7673888D02*
X3415420Y-7635793D01*
X3415420Y-7635793D02*
X3415420Y-7588174D01*
X3415420Y-7588174D02*
X3424943Y-7550079D01*
X3424943Y-7550079D02*
X3434467Y-7531031D01*
X3434467Y-7531031D02*
X3443991Y-7521508D01*
X3443991Y-7521508D02*
X3463039Y-7511984D01*
X3615420Y-7711984D02*
X3615420Y-7578650D01*
X3615420Y-7597698D02*
X3624943Y-7588174D01*
X3624943Y-7588174D02*
X3643991Y-7578650D01*
X3643991Y-7578650D02*
X3672563Y-7578650D01*
X3672563Y-7578650D02*
X3691610Y-7588174D01*
X3691610Y-7588174D02*
X3701134Y-7607222D01*
X3701134Y-7607222D02*
X3701134Y-7711984D01*
X3701134Y-7607222D02*
X3710658Y-7588174D01*
X3710658Y-7588174D02*
X3729705Y-7578650D01*
X3729705Y-7578650D02*
X3758277Y-7578650D01*
X3758277Y-7578650D02*
X3777324Y-7588174D01*
X3777324Y-7588174D02*
X3786848Y-7607222D01*
X3786848Y-7607222D02*
X3786848Y-7711984D01*
X3882086Y-7711984D02*
X3882086Y-7578650D01*
X3882086Y-7597698D02*
X3891610Y-7588174D01*
X3891610Y-7588174D02*
X3910658Y-7578650D01*
X3910658Y-7578650D02*
X3939229Y-7578650D01*
X3939229Y-7578650D02*
X3958277Y-7588174D01*
X3958277Y-7588174D02*
X3967801Y-7607222D01*
X3967801Y-7607222D02*
X3967801Y-7711984D01*
X3967801Y-7607222D02*
X3977324Y-7588174D01*
X3977324Y-7588174D02*
X3996372Y-7578650D01*
X3996372Y-7578650D02*
X4024943Y-7578650D01*
X4024943Y-7578650D02*
X4043991Y-7588174D01*
X4043991Y-7588174D02*
X4053515Y-7607222D01*
X4053515Y-7607222D02*
X4053515Y-7711984D01*
X4443991Y-7502460D02*
X4272563Y-7759603D01*
X4701134Y-7511984D02*
X4720182Y-7511984D01*
X4720182Y-7511984D02*
X4739229Y-7521508D01*
X4739229Y-7521508D02*
X4748753Y-7531031D01*
X4748753Y-7531031D02*
X4758277Y-7550079D01*
X4758277Y-7550079D02*
X4767801Y-7588174D01*
X4767801Y-7588174D02*
X4767801Y-7635793D01*
X4767801Y-7635793D02*
X4758277Y-7673888D01*
X4758277Y-7673888D02*
X4748753Y-7692936D01*
X4748753Y-7692936D02*
X4739229Y-7702460D01*
X4739229Y-7702460D02*
X4720182Y-7711984D01*
X4720182Y-7711984D02*
X4701134Y-7711984D01*
X4701134Y-7711984D02*
X4682087Y-7702460D01*
X4682087Y-7702460D02*
X4672563Y-7692936D01*
X4672563Y-7692936D02*
X4663039Y-7673888D01*
X4663039Y-7673888D02*
X4653515Y-7635793D01*
X4653515Y-7635793D02*
X4653515Y-7588174D01*
X4653515Y-7588174D02*
X4663039Y-7550079D01*
X4663039Y-7550079D02*
X4672563Y-7531031D01*
X4672563Y-7531031D02*
X4682087Y-7521508D01*
X4682087Y-7521508D02*
X4701134Y-7511984D01*
X4853515Y-7692936D02*
X4863039Y-7702460D01*
X4863039Y-7702460D02*
X4853515Y-7711984D01*
X4853515Y-7711984D02*
X4843991Y-7702460D01*
X4843991Y-7702460D02*
X4853515Y-7692936D01*
X4853515Y-7692936D02*
X4853515Y-7711984D01*
X4986848Y-7511984D02*
X5005896Y-7511984D01*
X5005896Y-7511984D02*
X5024944Y-7521508D01*
X5024944Y-7521508D02*
X5034468Y-7531031D01*
X5034468Y-7531031D02*
X5043991Y-7550079D01*
X5043991Y-7550079D02*
X5053515Y-7588174D01*
X5053515Y-7588174D02*
X5053515Y-7635793D01*
X5053515Y-7635793D02*
X5043991Y-7673888D01*
X5043991Y-7673888D02*
X5034468Y-7692936D01*
X5034468Y-7692936D02*
X5024944Y-7702460D01*
X5024944Y-7702460D02*
X5005896Y-7711984D01*
X5005896Y-7711984D02*
X4986848Y-7711984D01*
X4986848Y-7711984D02*
X4967801Y-7702460D01*
X4967801Y-7702460D02*
X4958277Y-7692936D01*
X4958277Y-7692936D02*
X4948753Y-7673888D01*
X4948753Y-7673888D02*
X4939229Y-7635793D01*
X4939229Y-7635793D02*
X4939229Y-7588174D01*
X4939229Y-7588174D02*
X4948753Y-7550079D01*
X4948753Y-7550079D02*
X4958277Y-7531031D01*
X4958277Y-7531031D02*
X4967801Y-7521508D01*
X4967801Y-7521508D02*
X4986848Y-7511984D01*
X5129706Y-7531031D02*
X5139229Y-7521508D01*
X5139229Y-7521508D02*
X5158277Y-7511984D01*
X5158277Y-7511984D02*
X5205896Y-7511984D01*
X5205896Y-7511984D02*
X5224944Y-7521508D01*
X5224944Y-7521508D02*
X5234468Y-7531031D01*
X5234468Y-7531031D02*
X5243991Y-7550079D01*
X5243991Y-7550079D02*
X5243991Y-7569127D01*
X5243991Y-7569127D02*
X5234468Y-7597698D01*
X5234468Y-7597698D02*
X5120182Y-7711984D01*
X5120182Y-7711984D02*
X5243991Y-7711984D01*
X5310658Y-7511984D02*
X5434468Y-7511984D01*
X5434468Y-7511984D02*
X5367801Y-7588174D01*
X5367801Y-7588174D02*
X5396372Y-7588174D01*
X5396372Y-7588174D02*
X5415420Y-7597698D01*
X5415420Y-7597698D02*
X5424944Y-7607222D01*
X5424944Y-7607222D02*
X5434468Y-7626269D01*
X5434468Y-7626269D02*
X5434468Y-7673888D01*
X5434468Y-7673888D02*
X5424944Y-7692936D01*
X5424944Y-7692936D02*
X5415420Y-7702460D01*
X5415420Y-7702460D02*
X5396372Y-7711984D01*
X5396372Y-7711984D02*
X5339229Y-7711984D01*
X5339229Y-7711984D02*
X5320182Y-7702460D01*
X5320182Y-7702460D02*
X5310658Y-7692936D01*
X5605896Y-7511984D02*
X5567801Y-7511984D01*
X5567801Y-7511984D02*
X5548753Y-7521508D01*
X5548753Y-7521508D02*
X5539229Y-7531031D01*
X5539229Y-7531031D02*
X5520182Y-7559603D01*
X5520182Y-7559603D02*
X5510658Y-7597698D01*
X5510658Y-7597698D02*
X5510658Y-7673888D01*
X5510658Y-7673888D02*
X5520182Y-7692936D01*
X5520182Y-7692936D02*
X5529706Y-7702460D01*
X5529706Y-7702460D02*
X5548753Y-7711984D01*
X5548753Y-7711984D02*
X5586849Y-7711984D01*
X5586849Y-7711984D02*
X5605896Y-7702460D01*
X5605896Y-7702460D02*
X5615420Y-7692936D01*
X5615420Y-7692936D02*
X5624944Y-7673888D01*
X5624944Y-7673888D02*
X5624944Y-7626269D01*
X5624944Y-7626269D02*
X5615420Y-7607222D01*
X5615420Y-7607222D02*
X5605896Y-7597698D01*
X5605896Y-7597698D02*
X5586849Y-7588174D01*
X5586849Y-7588174D02*
X5548753Y-7588174D01*
X5548753Y-7588174D02*
X5529706Y-7597698D01*
X5529706Y-7597698D02*
X5520182Y-7607222D01*
X5520182Y-7607222D02*
X5510658Y-7626269D01*
X5701134Y-7511984D02*
X5701134Y-7550079D01*
X5777325Y-7511984D02*
X5777325Y-7550079D01*
X6072563Y-7788174D02*
X6063039Y-7778650D01*
X6063039Y-7778650D02*
X6043991Y-7750079D01*
X6043991Y-7750079D02*
X6034468Y-7731031D01*
X6034468Y-7731031D02*
X6024944Y-7702460D01*
X6024944Y-7702460D02*
X6015420Y-7654841D01*
X6015420Y-7654841D02*
X6015420Y-7616746D01*
X6015420Y-7616746D02*
X6024944Y-7569127D01*
X6024944Y-7569127D02*
X6034468Y-7540555D01*
X6034468Y-7540555D02*
X6043991Y-7521508D01*
X6043991Y-7521508D02*
X6063039Y-7492936D01*
X6063039Y-7492936D02*
X6072563Y-7483412D01*
X6186848Y-7511984D02*
X6205896Y-7511984D01*
X6205896Y-7511984D02*
X6224944Y-7521508D01*
X6224944Y-7521508D02*
X6234468Y-7531031D01*
X6234468Y-7531031D02*
X6243991Y-7550079D01*
X6243991Y-7550079D02*
X6253515Y-7588174D01*
X6253515Y-7588174D02*
X6253515Y-7635793D01*
X6253515Y-7635793D02*
X6243991Y-7673888D01*
X6243991Y-7673888D02*
X6234468Y-7692936D01*
X6234468Y-7692936D02*
X6224944Y-7702460D01*
X6224944Y-7702460D02*
X6205896Y-7711984D01*
X6205896Y-7711984D02*
X6186848Y-7711984D01*
X6186848Y-7711984D02*
X6167801Y-7702460D01*
X6167801Y-7702460D02*
X6158277Y-7692936D01*
X6158277Y-7692936D02*
X6148753Y-7673888D01*
X6148753Y-7673888D02*
X6139229Y-7635793D01*
X6139229Y-7635793D02*
X6139229Y-7588174D01*
X6139229Y-7588174D02*
X6148753Y-7550079D01*
X6148753Y-7550079D02*
X6158277Y-7531031D01*
X6158277Y-7531031D02*
X6167801Y-7521508D01*
X6167801Y-7521508D02*
X6186848Y-7511984D01*
X6491610Y-7711984D02*
X6491610Y-7511984D01*
X6577325Y-7711984D02*
X6577325Y-7607222D01*
X6577325Y-7607222D02*
X6567801Y-7588174D01*
X6567801Y-7588174D02*
X6548753Y-7578650D01*
X6548753Y-7578650D02*
X6520182Y-7578650D01*
X6520182Y-7578650D02*
X6501134Y-7588174D01*
X6501134Y-7588174D02*
X6491610Y-7597698D01*
X6701134Y-7711984D02*
X6682087Y-7702460D01*
X6682087Y-7702460D02*
X6672563Y-7692936D01*
X6672563Y-7692936D02*
X6663039Y-7673888D01*
X6663039Y-7673888D02*
X6663039Y-7616746D01*
X6663039Y-7616746D02*
X6672563Y-7597698D01*
X6672563Y-7597698D02*
X6682087Y-7588174D01*
X6682087Y-7588174D02*
X6701134Y-7578650D01*
X6701134Y-7578650D02*
X6729706Y-7578650D01*
X6729706Y-7578650D02*
X6748753Y-7588174D01*
X6748753Y-7588174D02*
X6758277Y-7597698D01*
X6758277Y-7597698D02*
X6767801Y-7616746D01*
X6767801Y-7616746D02*
X6767801Y-7673888D01*
X6767801Y-7673888D02*
X6758277Y-7692936D01*
X6758277Y-7692936D02*
X6748753Y-7702460D01*
X6748753Y-7702460D02*
X6729706Y-7711984D01*
X6729706Y-7711984D02*
X6701134Y-7711984D01*
X6882087Y-7711984D02*
X6863039Y-7702460D01*
X6863039Y-7702460D02*
X6853515Y-7683412D01*
X6853515Y-7683412D02*
X6853515Y-7511984D01*
X7034468Y-7702460D02*
X7015420Y-7711984D01*
X7015420Y-7711984D02*
X6977325Y-7711984D01*
X6977325Y-7711984D02*
X6958277Y-7702460D01*
X6958277Y-7702460D02*
X6948753Y-7683412D01*
X6948753Y-7683412D02*
X6948753Y-7607222D01*
X6948753Y-7607222D02*
X6958277Y-7588174D01*
X6958277Y-7588174D02*
X6977325Y-7578650D01*
X6977325Y-7578650D02*
X7015420Y-7578650D01*
X7015420Y-7578650D02*
X7034468Y-7588174D01*
X7034468Y-7588174D02*
X7043991Y-7607222D01*
X7043991Y-7607222D02*
X7043991Y-7626269D01*
X7043991Y-7626269D02*
X6948753Y-7645317D01*
X7120182Y-7702460D02*
X7139230Y-7711984D01*
X7139230Y-7711984D02*
X7177325Y-7711984D01*
X7177325Y-7711984D02*
X7196372Y-7702460D01*
X7196372Y-7702460D02*
X7205896Y-7683412D01*
X7205896Y-7683412D02*
X7205896Y-7673888D01*
X7205896Y-7673888D02*
X7196372Y-7654841D01*
X7196372Y-7654841D02*
X7177325Y-7645317D01*
X7177325Y-7645317D02*
X7148753Y-7645317D01*
X7148753Y-7645317D02*
X7129706Y-7635793D01*
X7129706Y-7635793D02*
X7120182Y-7616746D01*
X7120182Y-7616746D02*
X7120182Y-7607222D01*
X7120182Y-7607222D02*
X7129706Y-7588174D01*
X7129706Y-7588174D02*
X7148753Y-7578650D01*
X7148753Y-7578650D02*
X7177325Y-7578650D01*
X7177325Y-7578650D02*
X7196372Y-7588174D01*
X7443992Y-7635793D02*
X7596373Y-7635793D01*
X7520182Y-7711984D02*
X7520182Y-7559603D01*
X7929706Y-7578650D02*
X7929706Y-7711984D01*
X7882087Y-7502460D02*
X7834468Y-7645317D01*
X7834468Y-7645317D02*
X7958277Y-7645317D01*
X8177325Y-7702460D02*
X8196373Y-7711984D01*
X8196373Y-7711984D02*
X8234468Y-7711984D01*
X8234468Y-7711984D02*
X8253515Y-7702460D01*
X8253515Y-7702460D02*
X8263039Y-7683412D01*
X8263039Y-7683412D02*
X8263039Y-7673888D01*
X8263039Y-7673888D02*
X8253515Y-7654841D01*
X8253515Y-7654841D02*
X8234468Y-7645317D01*
X8234468Y-7645317D02*
X8205896Y-7645317D01*
X8205896Y-7645317D02*
X8186849Y-7635793D01*
X8186849Y-7635793D02*
X8177325Y-7616746D01*
X8177325Y-7616746D02*
X8177325Y-7607222D01*
X8177325Y-7607222D02*
X8186849Y-7588174D01*
X8186849Y-7588174D02*
X8205896Y-7578650D01*
X8205896Y-7578650D02*
X8234468Y-7578650D01*
X8234468Y-7578650D02*
X8253515Y-7588174D01*
X8377325Y-7711984D02*
X8358277Y-7702460D01*
X8358277Y-7702460D02*
X8348754Y-7683412D01*
X8348754Y-7683412D02*
X8348754Y-7511984D01*
X8482087Y-7711984D02*
X8463039Y-7702460D01*
X8463039Y-7702460D02*
X8453516Y-7692936D01*
X8453516Y-7692936D02*
X8443992Y-7673888D01*
X8443992Y-7673888D02*
X8443992Y-7616746D01*
X8443992Y-7616746D02*
X8453516Y-7597698D01*
X8453516Y-7597698D02*
X8463039Y-7588174D01*
X8463039Y-7588174D02*
X8482087Y-7578650D01*
X8482087Y-7578650D02*
X8510658Y-7578650D01*
X8510658Y-7578650D02*
X8529706Y-7588174D01*
X8529706Y-7588174D02*
X8539230Y-7597698D01*
X8539230Y-7597698D02*
X8548754Y-7616746D01*
X8548754Y-7616746D02*
X8548754Y-7673888D01*
X8548754Y-7673888D02*
X8539230Y-7692936D01*
X8539230Y-7692936D02*
X8529706Y-7702460D01*
X8529706Y-7702460D02*
X8510658Y-7711984D01*
X8510658Y-7711984D02*
X8482087Y-7711984D01*
X8605897Y-7578650D02*
X8682087Y-7578650D01*
X8634468Y-7511984D02*
X8634468Y-7683412D01*
X8634468Y-7683412D02*
X8643992Y-7702460D01*
X8643992Y-7702460D02*
X8663039Y-7711984D01*
X8663039Y-7711984D02*
X8682087Y-7711984D01*
X8739230Y-7702460D02*
X8758277Y-7711984D01*
X8758277Y-7711984D02*
X8796373Y-7711984D01*
X8796373Y-7711984D02*
X8815420Y-7702460D01*
X8815420Y-7702460D02*
X8824944Y-7683412D01*
X8824944Y-7683412D02*
X8824944Y-7673888D01*
X8824944Y-7673888D02*
X8815420Y-7654841D01*
X8815420Y-7654841D02*
X8796373Y-7645317D01*
X8796373Y-7645317D02*
X8767801Y-7645317D01*
X8767801Y-7645317D02*
X8748754Y-7635793D01*
X8748754Y-7635793D02*
X8739230Y-7616746D01*
X8739230Y-7616746D02*
X8739230Y-7607222D01*
X8739230Y-7607222D02*
X8748754Y-7588174D01*
X8748754Y-7588174D02*
X8767801Y-7578650D01*
X8767801Y-7578650D02*
X8796373Y-7578650D01*
X8796373Y-7578650D02*
X8815420Y-7588174D01*
X8891611Y-7788174D02*
X8901135Y-7778650D01*
X8901135Y-7778650D02*
X8920182Y-7750079D01*
X8920182Y-7750079D02*
X8929706Y-7731031D01*
X8929706Y-7731031D02*
X8939230Y-7702460D01*
X8939230Y-7702460D02*
X8948754Y-7654841D01*
X8948754Y-7654841D02*
X8948754Y-7616746D01*
X8948754Y-7616746D02*
X8939230Y-7569127D01*
X8939230Y-7569127D02*
X8929706Y-7540555D01*
X8929706Y-7540555D02*
X8920182Y-7521508D01*
X8920182Y-7521508D02*
X8901135Y-7492936D01*
X8901135Y-7492936D02*
X8891611Y-7483412D01*
D15*
X2482856Y-7919856D02*
X2482856Y-7849144D01*
X2412144Y-7849144D01*
X2412144Y-7919856D01*
X2482856Y-7919856D01*
D11*
X2863039Y-7975984D02*
X2748753Y-7975984D01*
X2805896Y-7975984D02*
X2805896Y-7775984D01*
X2805896Y-7775984D02*
X2786848Y-7804555D01*
X2786848Y-7804555D02*
X2767801Y-7823603D01*
X2767801Y-7823603D02*
X2748753Y-7833127D01*
X2948753Y-7956936D02*
X2958277Y-7966460D01*
X2958277Y-7966460D02*
X2948753Y-7975984D01*
X2948753Y-7975984D02*
X2939229Y-7966460D01*
X2939229Y-7966460D02*
X2948753Y-7956936D01*
X2948753Y-7956936D02*
X2948753Y-7975984D01*
X3082086Y-7775984D02*
X3101134Y-7775984D01*
X3101134Y-7775984D02*
X3120182Y-7785508D01*
X3120182Y-7785508D02*
X3129705Y-7795031D01*
X3129705Y-7795031D02*
X3139229Y-7814079D01*
X3139229Y-7814079D02*
X3148753Y-7852174D01*
X3148753Y-7852174D02*
X3148753Y-7899793D01*
X3148753Y-7899793D02*
X3139229Y-7937888D01*
X3139229Y-7937888D02*
X3129705Y-7956936D01*
X3129705Y-7956936D02*
X3120182Y-7966460D01*
X3120182Y-7966460D02*
X3101134Y-7975984D01*
X3101134Y-7975984D02*
X3082086Y-7975984D01*
X3082086Y-7975984D02*
X3063039Y-7966460D01*
X3063039Y-7966460D02*
X3053515Y-7956936D01*
X3053515Y-7956936D02*
X3043991Y-7937888D01*
X3043991Y-7937888D02*
X3034467Y-7899793D01*
X3034467Y-7899793D02*
X3034467Y-7852174D01*
X3034467Y-7852174D02*
X3043991Y-7814079D01*
X3043991Y-7814079D02*
X3053515Y-7795031D01*
X3053515Y-7795031D02*
X3063039Y-7785508D01*
X3063039Y-7785508D02*
X3082086Y-7775984D01*
X3272562Y-7775984D02*
X3291610Y-7775984D01*
X3291610Y-7775984D02*
X3310658Y-7785508D01*
X3310658Y-7785508D02*
X3320182Y-7795031D01*
X3320182Y-7795031D02*
X3329705Y-7814079D01*
X3329705Y-7814079D02*
X3339229Y-7852174D01*
X3339229Y-7852174D02*
X3339229Y-7899793D01*
X3339229Y-7899793D02*
X3329705Y-7937888D01*
X3329705Y-7937888D02*
X3320182Y-7956936D01*
X3320182Y-7956936D02*
X3310658Y-7966460D01*
X3310658Y-7966460D02*
X3291610Y-7975984D01*
X3291610Y-7975984D02*
X3272562Y-7975984D01*
X3272562Y-7975984D02*
X3253515Y-7966460D01*
X3253515Y-7966460D02*
X3243991Y-7956936D01*
X3243991Y-7956936D02*
X3234467Y-7937888D01*
X3234467Y-7937888D02*
X3224943Y-7899793D01*
X3224943Y-7899793D02*
X3224943Y-7852174D01*
X3224943Y-7852174D02*
X3234467Y-7814079D01*
X3234467Y-7814079D02*
X3243991Y-7795031D01*
X3243991Y-7795031D02*
X3253515Y-7785508D01*
X3253515Y-7785508D02*
X3272562Y-7775984D01*
X3463039Y-7775984D02*
X3482086Y-7775984D01*
X3482086Y-7775984D02*
X3501134Y-7785508D01*
X3501134Y-7785508D02*
X3510658Y-7795031D01*
X3510658Y-7795031D02*
X3520182Y-7814079D01*
X3520182Y-7814079D02*
X3529705Y-7852174D01*
X3529705Y-7852174D02*
X3529705Y-7899793D01*
X3529705Y-7899793D02*
X3520182Y-7937888D01*
X3520182Y-7937888D02*
X3510658Y-7956936D01*
X3510658Y-7956936D02*
X3501134Y-7966460D01*
X3501134Y-7966460D02*
X3482086Y-7975984D01*
X3482086Y-7975984D02*
X3463039Y-7975984D01*
X3463039Y-7975984D02*
X3443991Y-7966460D01*
X3443991Y-7966460D02*
X3434467Y-7956936D01*
X3434467Y-7956936D02*
X3424943Y-7937888D01*
X3424943Y-7937888D02*
X3415420Y-7899793D01*
X3415420Y-7899793D02*
X3415420Y-7852174D01*
X3415420Y-7852174D02*
X3424943Y-7814079D01*
X3424943Y-7814079D02*
X3434467Y-7795031D01*
X3434467Y-7795031D02*
X3443991Y-7785508D01*
X3443991Y-7785508D02*
X3463039Y-7775984D01*
X3615420Y-7975984D02*
X3615420Y-7842650D01*
X3615420Y-7861698D02*
X3624943Y-7852174D01*
X3624943Y-7852174D02*
X3643991Y-7842650D01*
X3643991Y-7842650D02*
X3672563Y-7842650D01*
X3672563Y-7842650D02*
X3691610Y-7852174D01*
X3691610Y-7852174D02*
X3701134Y-7871222D01*
X3701134Y-7871222D02*
X3701134Y-7975984D01*
X3701134Y-7871222D02*
X3710658Y-7852174D01*
X3710658Y-7852174D02*
X3729705Y-7842650D01*
X3729705Y-7842650D02*
X3758277Y-7842650D01*
X3758277Y-7842650D02*
X3777324Y-7852174D01*
X3777324Y-7852174D02*
X3786848Y-7871222D01*
X3786848Y-7871222D02*
X3786848Y-7975984D01*
X3882086Y-7975984D02*
X3882086Y-7842650D01*
X3882086Y-7861698D02*
X3891610Y-7852174D01*
X3891610Y-7852174D02*
X3910658Y-7842650D01*
X3910658Y-7842650D02*
X3939229Y-7842650D01*
X3939229Y-7842650D02*
X3958277Y-7852174D01*
X3958277Y-7852174D02*
X3967801Y-7871222D01*
X3967801Y-7871222D02*
X3967801Y-7975984D01*
X3967801Y-7871222D02*
X3977324Y-7852174D01*
X3977324Y-7852174D02*
X3996372Y-7842650D01*
X3996372Y-7842650D02*
X4024943Y-7842650D01*
X4024943Y-7842650D02*
X4043991Y-7852174D01*
X4043991Y-7852174D02*
X4053515Y-7871222D01*
X4053515Y-7871222D02*
X4053515Y-7975984D01*
X4443991Y-7766460D02*
X4272563Y-8023603D01*
X4701134Y-7775984D02*
X4720182Y-7775984D01*
X4720182Y-7775984D02*
X4739229Y-7785508D01*
X4739229Y-7785508D02*
X4748753Y-7795031D01*
X4748753Y-7795031D02*
X4758277Y-7814079D01*
X4758277Y-7814079D02*
X4767801Y-7852174D01*
X4767801Y-7852174D02*
X4767801Y-7899793D01*
X4767801Y-7899793D02*
X4758277Y-7937888D01*
X4758277Y-7937888D02*
X4748753Y-7956936D01*
X4748753Y-7956936D02*
X4739229Y-7966460D01*
X4739229Y-7966460D02*
X4720182Y-7975984D01*
X4720182Y-7975984D02*
X4701134Y-7975984D01*
X4701134Y-7975984D02*
X4682087Y-7966460D01*
X4682087Y-7966460D02*
X4672563Y-7956936D01*
X4672563Y-7956936D02*
X4663039Y-7937888D01*
X4663039Y-7937888D02*
X4653515Y-7899793D01*
X4653515Y-7899793D02*
X4653515Y-7852174D01*
X4653515Y-7852174D02*
X4663039Y-7814079D01*
X4663039Y-7814079D02*
X4672563Y-7795031D01*
X4672563Y-7795031D02*
X4682087Y-7785508D01*
X4682087Y-7785508D02*
X4701134Y-7775984D01*
X4853515Y-7956936D02*
X4863039Y-7966460D01*
X4863039Y-7966460D02*
X4853515Y-7975984D01*
X4853515Y-7975984D02*
X4843991Y-7966460D01*
X4843991Y-7966460D02*
X4853515Y-7956936D01*
X4853515Y-7956936D02*
X4853515Y-7975984D01*
X4986848Y-7775984D02*
X5005896Y-7775984D01*
X5005896Y-7775984D02*
X5024944Y-7785508D01*
X5024944Y-7785508D02*
X5034468Y-7795031D01*
X5034468Y-7795031D02*
X5043991Y-7814079D01*
X5043991Y-7814079D02*
X5053515Y-7852174D01*
X5053515Y-7852174D02*
X5053515Y-7899793D01*
X5053515Y-7899793D02*
X5043991Y-7937888D01*
X5043991Y-7937888D02*
X5034468Y-7956936D01*
X5034468Y-7956936D02*
X5024944Y-7966460D01*
X5024944Y-7966460D02*
X5005896Y-7975984D01*
X5005896Y-7975984D02*
X4986848Y-7975984D01*
X4986848Y-7975984D02*
X4967801Y-7966460D01*
X4967801Y-7966460D02*
X4958277Y-7956936D01*
X4958277Y-7956936D02*
X4948753Y-7937888D01*
X4948753Y-7937888D02*
X4939229Y-7899793D01*
X4939229Y-7899793D02*
X4939229Y-7852174D01*
X4939229Y-7852174D02*
X4948753Y-7814079D01*
X4948753Y-7814079D02*
X4958277Y-7795031D01*
X4958277Y-7795031D02*
X4967801Y-7785508D01*
X4967801Y-7785508D02*
X4986848Y-7775984D01*
X5120182Y-7775984D02*
X5243991Y-7775984D01*
X5243991Y-7775984D02*
X5177325Y-7852174D01*
X5177325Y-7852174D02*
X5205896Y-7852174D01*
X5205896Y-7852174D02*
X5224944Y-7861698D01*
X5224944Y-7861698D02*
X5234468Y-7871222D01*
X5234468Y-7871222D02*
X5243991Y-7890269D01*
X5243991Y-7890269D02*
X5243991Y-7937888D01*
X5243991Y-7937888D02*
X5234468Y-7956936D01*
X5234468Y-7956936D02*
X5224944Y-7966460D01*
X5224944Y-7966460D02*
X5205896Y-7975984D01*
X5205896Y-7975984D02*
X5148753Y-7975984D01*
X5148753Y-7975984D02*
X5129706Y-7966460D01*
X5129706Y-7966460D02*
X5120182Y-7956936D01*
X5339229Y-7975984D02*
X5377325Y-7975984D01*
X5377325Y-7975984D02*
X5396372Y-7966460D01*
X5396372Y-7966460D02*
X5405896Y-7956936D01*
X5405896Y-7956936D02*
X5424944Y-7928365D01*
X5424944Y-7928365D02*
X5434468Y-7890269D01*
X5434468Y-7890269D02*
X5434468Y-7814079D01*
X5434468Y-7814079D02*
X5424944Y-7795031D01*
X5424944Y-7795031D02*
X5415420Y-7785508D01*
X5415420Y-7785508D02*
X5396372Y-7775984D01*
X5396372Y-7775984D02*
X5358277Y-7775984D01*
X5358277Y-7775984D02*
X5339229Y-7785508D01*
X5339229Y-7785508D02*
X5329706Y-7795031D01*
X5329706Y-7795031D02*
X5320182Y-7814079D01*
X5320182Y-7814079D02*
X5320182Y-7861698D01*
X5320182Y-7861698D02*
X5329706Y-7880746D01*
X5329706Y-7880746D02*
X5339229Y-7890269D01*
X5339229Y-7890269D02*
X5358277Y-7899793D01*
X5358277Y-7899793D02*
X5396372Y-7899793D01*
X5396372Y-7899793D02*
X5415420Y-7890269D01*
X5415420Y-7890269D02*
X5424944Y-7880746D01*
X5424944Y-7880746D02*
X5434468Y-7861698D01*
X5605896Y-7842650D02*
X5605896Y-7975984D01*
X5558277Y-7766460D02*
X5510658Y-7909317D01*
X5510658Y-7909317D02*
X5634467Y-7909317D01*
X5701134Y-7775984D02*
X5701134Y-7814079D01*
X5777325Y-7775984D02*
X5777325Y-7814079D01*
X6072563Y-8052174D02*
X6063039Y-8042650D01*
X6063039Y-8042650D02*
X6043991Y-8014079D01*
X6043991Y-8014079D02*
X6034468Y-7995031D01*
X6034468Y-7995031D02*
X6024944Y-7966460D01*
X6024944Y-7966460D02*
X6015420Y-7918841D01*
X6015420Y-7918841D02*
X6015420Y-7880746D01*
X6015420Y-7880746D02*
X6024944Y-7833127D01*
X6024944Y-7833127D02*
X6034468Y-7804555D01*
X6034468Y-7804555D02*
X6043991Y-7785508D01*
X6043991Y-7785508D02*
X6063039Y-7756936D01*
X6063039Y-7756936D02*
X6072563Y-7747412D01*
X6129706Y-7775984D02*
X6253515Y-7775984D01*
X6253515Y-7775984D02*
X6186848Y-7852174D01*
X6186848Y-7852174D02*
X6215420Y-7852174D01*
X6215420Y-7852174D02*
X6234468Y-7861698D01*
X6234468Y-7861698D02*
X6243991Y-7871222D01*
X6243991Y-7871222D02*
X6253515Y-7890269D01*
X6253515Y-7890269D02*
X6253515Y-7937888D01*
X6253515Y-7937888D02*
X6243991Y-7956936D01*
X6243991Y-7956936D02*
X6234468Y-7966460D01*
X6234468Y-7966460D02*
X6215420Y-7975984D01*
X6215420Y-7975984D02*
X6158277Y-7975984D01*
X6158277Y-7975984D02*
X6139229Y-7966460D01*
X6139229Y-7966460D02*
X6129706Y-7956936D01*
X6348753Y-7975984D02*
X6386848Y-7975984D01*
X6386848Y-7975984D02*
X6405896Y-7966460D01*
X6405896Y-7966460D02*
X6415420Y-7956936D01*
X6415420Y-7956936D02*
X6434468Y-7928365D01*
X6434468Y-7928365D02*
X6443991Y-7890269D01*
X6443991Y-7890269D02*
X6443991Y-7814079D01*
X6443991Y-7814079D02*
X6434468Y-7795031D01*
X6434468Y-7795031D02*
X6424944Y-7785508D01*
X6424944Y-7785508D02*
X6405896Y-7775984D01*
X6405896Y-7775984D02*
X6367801Y-7775984D01*
X6367801Y-7775984D02*
X6348753Y-7785508D01*
X6348753Y-7785508D02*
X6339229Y-7795031D01*
X6339229Y-7795031D02*
X6329706Y-7814079D01*
X6329706Y-7814079D02*
X6329706Y-7861698D01*
X6329706Y-7861698D02*
X6339229Y-7880746D01*
X6339229Y-7880746D02*
X6348753Y-7890269D01*
X6348753Y-7890269D02*
X6367801Y-7899793D01*
X6367801Y-7899793D02*
X6405896Y-7899793D01*
X6405896Y-7899793D02*
X6424944Y-7890269D01*
X6424944Y-7890269D02*
X6434468Y-7880746D01*
X6434468Y-7880746D02*
X6443991Y-7861698D01*
X6682087Y-7975984D02*
X6682087Y-7775984D01*
X6767801Y-7975984D02*
X6767801Y-7871222D01*
X6767801Y-7871222D02*
X6758277Y-7852174D01*
X6758277Y-7852174D02*
X6739230Y-7842650D01*
X6739230Y-7842650D02*
X6710658Y-7842650D01*
X6710658Y-7842650D02*
X6691610Y-7852174D01*
X6691610Y-7852174D02*
X6682087Y-7861698D01*
X6891610Y-7975984D02*
X6872563Y-7966460D01*
X6872563Y-7966460D02*
X6863039Y-7956936D01*
X6863039Y-7956936D02*
X6853515Y-7937888D01*
X6853515Y-7937888D02*
X6853515Y-7880746D01*
X6853515Y-7880746D02*
X6863039Y-7861698D01*
X6863039Y-7861698D02*
X6872563Y-7852174D01*
X6872563Y-7852174D02*
X6891610Y-7842650D01*
X6891610Y-7842650D02*
X6920182Y-7842650D01*
X6920182Y-7842650D02*
X6939230Y-7852174D01*
X6939230Y-7852174D02*
X6948753Y-7861698D01*
X6948753Y-7861698D02*
X6958277Y-7880746D01*
X6958277Y-7880746D02*
X6958277Y-7937888D01*
X6958277Y-7937888D02*
X6948753Y-7956936D01*
X6948753Y-7956936D02*
X6939230Y-7966460D01*
X6939230Y-7966460D02*
X6920182Y-7975984D01*
X6920182Y-7975984D02*
X6891610Y-7975984D01*
X7072563Y-7975984D02*
X7053515Y-7966460D01*
X7053515Y-7966460D02*
X7043991Y-7947412D01*
X7043991Y-7947412D02*
X7043991Y-7775984D01*
X7224944Y-7966460D02*
X7205896Y-7975984D01*
X7205896Y-7975984D02*
X7167801Y-7975984D01*
X7167801Y-7975984D02*
X7148753Y-7966460D01*
X7148753Y-7966460D02*
X7139230Y-7947412D01*
X7139230Y-7947412D02*
X7139230Y-7871222D01*
X7139230Y-7871222D02*
X7148753Y-7852174D01*
X7148753Y-7852174D02*
X7167801Y-7842650D01*
X7167801Y-7842650D02*
X7205896Y-7842650D01*
X7205896Y-7842650D02*
X7224944Y-7852174D01*
X7224944Y-7852174D02*
X7234468Y-7871222D01*
X7234468Y-7871222D02*
X7234468Y-7890269D01*
X7234468Y-7890269D02*
X7139230Y-7909317D01*
X7310658Y-7966460D02*
X7329706Y-7975984D01*
X7329706Y-7975984D02*
X7367801Y-7975984D01*
X7367801Y-7975984D02*
X7386849Y-7966460D01*
X7386849Y-7966460D02*
X7396372Y-7947412D01*
X7396372Y-7947412D02*
X7396372Y-7937888D01*
X7396372Y-7937888D02*
X7386849Y-7918841D01*
X7386849Y-7918841D02*
X7367801Y-7909317D01*
X7367801Y-7909317D02*
X7339230Y-7909317D01*
X7339230Y-7909317D02*
X7320182Y-7899793D01*
X7320182Y-7899793D02*
X7310658Y-7880746D01*
X7310658Y-7880746D02*
X7310658Y-7871222D01*
X7310658Y-7871222D02*
X7320182Y-7852174D01*
X7320182Y-7852174D02*
X7339230Y-7842650D01*
X7339230Y-7842650D02*
X7367801Y-7842650D01*
X7367801Y-7842650D02*
X7386849Y-7852174D01*
X7463039Y-8052174D02*
X7472563Y-8042650D01*
X7472563Y-8042650D02*
X7491611Y-8014079D01*
X7491611Y-8014079D02*
X7501134Y-7995031D01*
X7501134Y-7995031D02*
X7510658Y-7966460D01*
X7510658Y-7966460D02*
X7520182Y-7918841D01*
X7520182Y-7918841D02*
X7520182Y-7880746D01*
X7520182Y-7880746D02*
X7510658Y-7833127D01*
X7510658Y-7833127D02*
X7501134Y-7804555D01*
X7501134Y-7804555D02*
X7491611Y-7785508D01*
X7491611Y-7785508D02*
X7472563Y-7756936D01*
X7472563Y-7756936D02*
X7463039Y-7747412D01*
M02*
