%TF.GenerationSoftware,KiCad,Pcbnew,6.0.7+dfsg-1build1*%
%TF.CreationDate,2023-01-24T23:00:55+01:00*%
%TF.ProjectId,epaper-breakout,65706170-6572-42d6-9272-65616b6f7574,rev?*%
%TF.SameCoordinates,Original*%
%TF.FileFunction,AssemblyDrawing,Top*%
%FSLAX46Y46*%
G04 Gerber Fmt 4.6, Leading zero omitted, Abs format (unit mm)*
G04 Created by KiCad (PCBNEW 6.0.7+dfsg-1build1) date 2023-01-24 23:00:55*
%MOMM*%
%LPD*%
G01*
G04 APERTURE LIST*
%TA.AperFunction,Profile*%
%ADD10C,0.050000*%
%TD*%
%ADD11C,0.150000*%
%ADD12C,0.080000*%
%ADD13C,0.060000*%
%ADD14C,0.075000*%
%ADD15C,0.050000*%
%ADD16C,0.100000*%
%ADD17C,0.152400*%
G04 APERTURE END LIST*
D10*
X25000000Y-62500000D02*
X25000000Y-11500000D01*
X27000000Y-64500000D02*
X81300000Y-64485786D01*
X125000000Y-11500000D02*
X125000000Y-62500000D01*
X27000000Y-9500000D02*
X123000000Y-9500000D01*
X27000000Y-9500000D02*
G75*
G03*
X25000000Y-11500000I0J-2000000D01*
G01*
X85300000Y-57600000D02*
G75*
G03*
X83300000Y-59600000I0J-2000000D01*
G01*
X83300000Y-62485786D02*
X83300000Y-59600000D01*
X81300000Y-64485800D02*
G75*
G03*
X83300000Y-62485786I0J2000000D01*
G01*
X110666214Y-62485786D02*
G75*
G03*
X112666214Y-64485786I1999986J-14D01*
G01*
X88700000Y-57600000D02*
X85300000Y-57600000D01*
X125000000Y-11500000D02*
G75*
G03*
X123000000Y-9500000I-2000000J0D01*
G01*
X25000000Y-62500000D02*
G75*
G03*
X27000000Y-64500000I2000000J0D01*
G01*
X110666214Y-62485786D02*
X110685791Y-59614213D01*
X123000000Y-64500000D02*
G75*
G03*
X125000000Y-62500000I0J2000000D01*
G01*
X112666214Y-64485786D02*
X123000000Y-64500000D01*
X110685787Y-59614213D02*
G75*
G03*
X108685791Y-57614213I-1999987J13D01*
G01*
X108685791Y-57614213D02*
X88700000Y-57600000D01*
D11*
X95963095Y-47902380D02*
X95963095Y-48711904D01*
X96010714Y-48807142D01*
X96058333Y-48854761D01*
X96153571Y-48902380D01*
X96344047Y-48902380D01*
X96439285Y-48854761D01*
X96486904Y-48807142D01*
X96534523Y-48711904D01*
X96534523Y-47902380D01*
X97153571Y-48330952D02*
X97058333Y-48283333D01*
X97010714Y-48235714D01*
X96963095Y-48140476D01*
X96963095Y-48092857D01*
X97010714Y-47997619D01*
X97058333Y-47950000D01*
X97153571Y-47902380D01*
X97344047Y-47902380D01*
X97439285Y-47950000D01*
X97486904Y-47997619D01*
X97534523Y-48092857D01*
X97534523Y-48140476D01*
X97486904Y-48235714D01*
X97439285Y-48283333D01*
X97344047Y-48330952D01*
X97153571Y-48330952D01*
X97058333Y-48378571D01*
X97010714Y-48426190D01*
X96963095Y-48521428D01*
X96963095Y-48711904D01*
X97010714Y-48807142D01*
X97058333Y-48854761D01*
X97153571Y-48902380D01*
X97344047Y-48902380D01*
X97439285Y-48854761D01*
X97486904Y-48807142D01*
X97534523Y-48711904D01*
X97534523Y-48521428D01*
X97486904Y-48426190D01*
X97439285Y-48378571D01*
X97344047Y-48330952D01*
X118602380Y-39961904D02*
X119411904Y-39961904D01*
X119507142Y-39914285D01*
X119554761Y-39866666D01*
X119602380Y-39771428D01*
X119602380Y-39580952D01*
X119554761Y-39485714D01*
X119507142Y-39438095D01*
X119411904Y-39390476D01*
X118602380Y-39390476D01*
X118602380Y-38485714D02*
X118602380Y-38676190D01*
X118650000Y-38771428D01*
X118697619Y-38819047D01*
X118840476Y-38914285D01*
X119030952Y-38961904D01*
X119411904Y-38961904D01*
X119507142Y-38914285D01*
X119554761Y-38866666D01*
X119602380Y-38771428D01*
X119602380Y-38580952D01*
X119554761Y-38485714D01*
X119507142Y-38438095D01*
X119411904Y-38390476D01*
X119173809Y-38390476D01*
X119078571Y-38438095D01*
X119030952Y-38485714D01*
X118983333Y-38580952D01*
X118983333Y-38771428D01*
X119030952Y-38866666D01*
X119078571Y-38914285D01*
X119173809Y-38961904D01*
X73257142Y-25552380D02*
X72923809Y-25076190D01*
X72685714Y-25552380D02*
X72685714Y-24552380D01*
X73066666Y-24552380D01*
X73161904Y-24600000D01*
X73209523Y-24647619D01*
X73257142Y-24742857D01*
X73257142Y-24885714D01*
X73209523Y-24980952D01*
X73161904Y-25028571D01*
X73066666Y-25076190D01*
X72685714Y-25076190D01*
X74209523Y-25552380D02*
X73638095Y-25552380D01*
X73923809Y-25552380D02*
X73923809Y-24552380D01*
X73828571Y-24695238D01*
X73733333Y-24790476D01*
X73638095Y-24838095D01*
X75114285Y-24552380D02*
X74638095Y-24552380D01*
X74590476Y-25028571D01*
X74638095Y-24980952D01*
X74733333Y-24933333D01*
X74971428Y-24933333D01*
X75066666Y-24980952D01*
X75114285Y-25028571D01*
X75161904Y-25123809D01*
X75161904Y-25361904D01*
X75114285Y-25457142D01*
X75066666Y-25504761D01*
X74971428Y-25552380D01*
X74733333Y-25552380D01*
X74638095Y-25504761D01*
X74590476Y-25457142D01*
X122038095Y-12452380D02*
X122038095Y-11452380D01*
X122038095Y-11928571D02*
X122609523Y-11928571D01*
X122609523Y-12452380D02*
X122609523Y-11452380D01*
X123609523Y-12452380D02*
X123038095Y-12452380D01*
X123323809Y-12452380D02*
X123323809Y-11452380D01*
X123228571Y-11595238D01*
X123133333Y-11690476D01*
X123038095Y-11738095D01*
X51704761Y-22772619D02*
X51609523Y-22725000D01*
X51514285Y-22629761D01*
X51371428Y-22486904D01*
X51276190Y-22439285D01*
X51180952Y-22439285D01*
X51228571Y-22677380D02*
X51133333Y-22629761D01*
X51038095Y-22534523D01*
X50990476Y-22344047D01*
X50990476Y-22010714D01*
X51038095Y-21820238D01*
X51133333Y-21725000D01*
X51228571Y-21677380D01*
X51419047Y-21677380D01*
X51514285Y-21725000D01*
X51609523Y-21820238D01*
X51657142Y-22010714D01*
X51657142Y-22344047D01*
X51609523Y-22534523D01*
X51514285Y-22629761D01*
X51419047Y-22677380D01*
X51228571Y-22677380D01*
X51990476Y-21677380D02*
X52609523Y-21677380D01*
X52276190Y-22058333D01*
X52419047Y-22058333D01*
X52514285Y-22105952D01*
X52561904Y-22153571D01*
X52609523Y-22248809D01*
X52609523Y-22486904D01*
X52561904Y-22582142D01*
X52514285Y-22629761D01*
X52419047Y-22677380D01*
X52133333Y-22677380D01*
X52038095Y-22629761D01*
X51990476Y-22582142D01*
X51352380Y-25891666D02*
X50876190Y-26225000D01*
X51352380Y-26463095D02*
X50352380Y-26463095D01*
X50352380Y-26082142D01*
X50400000Y-25986904D01*
X50447619Y-25939285D01*
X50542857Y-25891666D01*
X50685714Y-25891666D01*
X50780952Y-25939285D01*
X50828571Y-25986904D01*
X50876190Y-26082142D01*
X50876190Y-26463095D01*
X51352380Y-24939285D02*
X51352380Y-25510714D01*
X51352380Y-25225000D02*
X50352380Y-25225000D01*
X50495238Y-25320238D01*
X50590476Y-25415476D01*
X50638095Y-25510714D01*
X52952380Y-26367857D02*
X52476190Y-26701190D01*
X52952380Y-26939285D02*
X51952380Y-26939285D01*
X51952380Y-26558333D01*
X52000000Y-26463095D01*
X52047619Y-26415476D01*
X52142857Y-26367857D01*
X52285714Y-26367857D01*
X52380952Y-26415476D01*
X52428571Y-26463095D01*
X52476190Y-26558333D01*
X52476190Y-26939285D01*
X52952380Y-25415476D02*
X52952380Y-25986904D01*
X52952380Y-25701190D02*
X51952380Y-25701190D01*
X52095238Y-25796428D01*
X52190476Y-25891666D01*
X52238095Y-25986904D01*
X52952380Y-24463095D02*
X52952380Y-25034523D01*
X52952380Y-24748809D02*
X51952380Y-24748809D01*
X52095238Y-24844047D01*
X52190476Y-24939285D01*
X52238095Y-25034523D01*
X51604761Y-29747619D02*
X51509523Y-29700000D01*
X51414285Y-29604761D01*
X51271428Y-29461904D01*
X51176190Y-29414285D01*
X51080952Y-29414285D01*
X51128571Y-29652380D02*
X51033333Y-29604761D01*
X50938095Y-29509523D01*
X50890476Y-29319047D01*
X50890476Y-28985714D01*
X50938095Y-28795238D01*
X51033333Y-28700000D01*
X51128571Y-28652380D01*
X51319047Y-28652380D01*
X51414285Y-28700000D01*
X51509523Y-28795238D01*
X51557142Y-28985714D01*
X51557142Y-29319047D01*
X51509523Y-29509523D01*
X51414285Y-29604761D01*
X51319047Y-29652380D01*
X51128571Y-29652380D01*
X52414285Y-28985714D02*
X52414285Y-29652380D01*
X52176190Y-28604761D02*
X51938095Y-29319047D01*
X52557142Y-29319047D01*
X78583333Y-47157142D02*
X78535714Y-47204761D01*
X78392857Y-47252380D01*
X78297619Y-47252380D01*
X78154761Y-47204761D01*
X78059523Y-47109523D01*
X78011904Y-47014285D01*
X77964285Y-46823809D01*
X77964285Y-46680952D01*
X78011904Y-46490476D01*
X78059523Y-46395238D01*
X78154761Y-46300000D01*
X78297619Y-46252380D01*
X78392857Y-46252380D01*
X78535714Y-46300000D01*
X78583333Y-46347619D01*
X78916666Y-46252380D02*
X79535714Y-46252380D01*
X79202380Y-46633333D01*
X79345238Y-46633333D01*
X79440476Y-46680952D01*
X79488095Y-46728571D01*
X79535714Y-46823809D01*
X79535714Y-47061904D01*
X79488095Y-47157142D01*
X79440476Y-47204761D01*
X79345238Y-47252380D01*
X79059523Y-47252380D01*
X78964285Y-47204761D01*
X78916666Y-47157142D01*
X34957142Y-57392857D02*
X35004761Y-57440476D01*
X35052380Y-57583333D01*
X35052380Y-57678571D01*
X35004761Y-57821428D01*
X34909523Y-57916666D01*
X34814285Y-57964285D01*
X34623809Y-58011904D01*
X34480952Y-58011904D01*
X34290476Y-57964285D01*
X34195238Y-57916666D01*
X34100000Y-57821428D01*
X34052380Y-57678571D01*
X34052380Y-57583333D01*
X34100000Y-57440476D01*
X34147619Y-57392857D01*
X34147619Y-57011904D02*
X34100000Y-56964285D01*
X34052380Y-56869047D01*
X34052380Y-56630952D01*
X34100000Y-56535714D01*
X34147619Y-56488095D01*
X34242857Y-56440476D01*
X34338095Y-56440476D01*
X34480952Y-56488095D01*
X35052380Y-57059523D01*
X35052380Y-56440476D01*
X34147619Y-56059523D02*
X34100000Y-56011904D01*
X34052380Y-55916666D01*
X34052380Y-55678571D01*
X34100000Y-55583333D01*
X34147619Y-55535714D01*
X34242857Y-55488095D01*
X34338095Y-55488095D01*
X34480952Y-55535714D01*
X35052380Y-56107142D01*
X35052380Y-55488095D01*
X39910380Y-61337595D02*
X38910380Y-61337595D01*
X38910380Y-61099500D01*
X38958000Y-60956642D01*
X39053238Y-60861404D01*
X39148476Y-60813785D01*
X39338952Y-60766166D01*
X39481809Y-60766166D01*
X39672285Y-60813785D01*
X39767523Y-60861404D01*
X39862761Y-60956642D01*
X39910380Y-61099500D01*
X39910380Y-61337595D01*
X39910380Y-60289976D02*
X39910380Y-60099500D01*
X39862761Y-60004261D01*
X39815142Y-59956642D01*
X39672285Y-59861404D01*
X39481809Y-59813785D01*
X39100857Y-59813785D01*
X39005619Y-59861404D01*
X38958000Y-59909023D01*
X38910380Y-60004261D01*
X38910380Y-60194738D01*
X38958000Y-60289976D01*
X39005619Y-60337595D01*
X39100857Y-60385214D01*
X39338952Y-60385214D01*
X39434190Y-60337595D01*
X39481809Y-60289976D01*
X39529428Y-60194738D01*
X39529428Y-60004261D01*
X39481809Y-59909023D01*
X39434190Y-59861404D01*
X39338952Y-59813785D01*
X37602380Y-57166666D02*
X37126190Y-57500000D01*
X37602380Y-57738095D02*
X36602380Y-57738095D01*
X36602380Y-57357142D01*
X36650000Y-57261904D01*
X36697619Y-57214285D01*
X36792857Y-57166666D01*
X36935714Y-57166666D01*
X37030952Y-57214285D01*
X37078571Y-57261904D01*
X37126190Y-57357142D01*
X37126190Y-57738095D01*
X36602380Y-56833333D02*
X36602380Y-56214285D01*
X36983333Y-56547619D01*
X36983333Y-56404761D01*
X37030952Y-56309523D01*
X37078571Y-56261904D01*
X37173809Y-56214285D01*
X37411904Y-56214285D01*
X37507142Y-56261904D01*
X37554761Y-56309523D01*
X37602380Y-56404761D01*
X37602380Y-56690476D01*
X37554761Y-56785714D01*
X37507142Y-56833333D01*
X39910380Y-57166666D02*
X39434190Y-57500000D01*
X39910380Y-57738095D02*
X38910380Y-57738095D01*
X38910380Y-57357142D01*
X38958000Y-57261904D01*
X39005619Y-57214285D01*
X39100857Y-57166666D01*
X39243714Y-57166666D01*
X39338952Y-57214285D01*
X39386571Y-57261904D01*
X39434190Y-57357142D01*
X39434190Y-57738095D01*
X39338952Y-56595238D02*
X39291333Y-56690476D01*
X39243714Y-56738095D01*
X39148476Y-56785714D01*
X39100857Y-56785714D01*
X39005619Y-56738095D01*
X38958000Y-56690476D01*
X38910380Y-56595238D01*
X38910380Y-56404761D01*
X38958000Y-56309523D01*
X39005619Y-56261904D01*
X39100857Y-56214285D01*
X39148476Y-56214285D01*
X39243714Y-56261904D01*
X39291333Y-56309523D01*
X39338952Y-56404761D01*
X39338952Y-56595238D01*
X39386571Y-56690476D01*
X39434190Y-56738095D01*
X39529428Y-56785714D01*
X39719904Y-56785714D01*
X39815142Y-56738095D01*
X39862761Y-56690476D01*
X39910380Y-56595238D01*
X39910380Y-56404761D01*
X39862761Y-56309523D01*
X39815142Y-56261904D01*
X39719904Y-56214285D01*
X39529428Y-56214285D01*
X39434190Y-56261904D01*
X39386571Y-56309523D01*
X39338952Y-56404761D01*
X37497380Y-61337595D02*
X36497380Y-61337595D01*
X36497380Y-61099500D01*
X36545000Y-60956642D01*
X36640238Y-60861404D01*
X36735476Y-60813785D01*
X36925952Y-60766166D01*
X37068809Y-60766166D01*
X37259285Y-60813785D01*
X37354523Y-60861404D01*
X37449761Y-60956642D01*
X37497380Y-61099500D01*
X37497380Y-61337595D01*
X36925952Y-60194738D02*
X36878333Y-60289976D01*
X36830714Y-60337595D01*
X36735476Y-60385214D01*
X36687857Y-60385214D01*
X36592619Y-60337595D01*
X36545000Y-60289976D01*
X36497380Y-60194738D01*
X36497380Y-60004261D01*
X36545000Y-59909023D01*
X36592619Y-59861404D01*
X36687857Y-59813785D01*
X36735476Y-59813785D01*
X36830714Y-59861404D01*
X36878333Y-59909023D01*
X36925952Y-60004261D01*
X36925952Y-60194738D01*
X36973571Y-60289976D01*
X37021190Y-60337595D01*
X37116428Y-60385214D01*
X37306904Y-60385214D01*
X37402142Y-60337595D01*
X37449761Y-60289976D01*
X37497380Y-60194738D01*
X37497380Y-60004261D01*
X37449761Y-59909023D01*
X37402142Y-59861404D01*
X37306904Y-59813785D01*
X37116428Y-59813785D01*
X37021190Y-59861404D01*
X36973571Y-59909023D01*
X36925952Y-60004261D01*
X113557142Y-60542857D02*
X113604761Y-60590476D01*
X113652380Y-60733333D01*
X113652380Y-60828571D01*
X113604761Y-60971428D01*
X113509523Y-61066666D01*
X113414285Y-61114285D01*
X113223809Y-61161904D01*
X113080952Y-61161904D01*
X112890476Y-61114285D01*
X112795238Y-61066666D01*
X112700000Y-60971428D01*
X112652380Y-60828571D01*
X112652380Y-60733333D01*
X112700000Y-60590476D01*
X112747619Y-60542857D01*
X113652380Y-59590476D02*
X113652380Y-60161904D01*
X113652380Y-59876190D02*
X112652380Y-59876190D01*
X112795238Y-59971428D01*
X112890476Y-60066666D01*
X112938095Y-60161904D01*
X113080952Y-59019047D02*
X113033333Y-59114285D01*
X112985714Y-59161904D01*
X112890476Y-59209523D01*
X112842857Y-59209523D01*
X112747619Y-59161904D01*
X112700000Y-59114285D01*
X112652380Y-59019047D01*
X112652380Y-58828571D01*
X112700000Y-58733333D01*
X112747619Y-58685714D01*
X112842857Y-58638095D01*
X112890476Y-58638095D01*
X112985714Y-58685714D01*
X113033333Y-58733333D01*
X113080952Y-58828571D01*
X113080952Y-59019047D01*
X113128571Y-59114285D01*
X113176190Y-59161904D01*
X113271428Y-59209523D01*
X113461904Y-59209523D01*
X113557142Y-59161904D01*
X113604761Y-59114285D01*
X113652380Y-59019047D01*
X113652380Y-58828571D01*
X113604761Y-58733333D01*
X113557142Y-58685714D01*
X113461904Y-58638095D01*
X113271428Y-58638095D01*
X113176190Y-58685714D01*
X113128571Y-58733333D01*
X113080952Y-58828571D01*
X34957142Y-61192857D02*
X35004761Y-61240476D01*
X35052380Y-61383333D01*
X35052380Y-61478571D01*
X35004761Y-61621428D01*
X34909523Y-61716666D01*
X34814285Y-61764285D01*
X34623809Y-61811904D01*
X34480952Y-61811904D01*
X34290476Y-61764285D01*
X34195238Y-61716666D01*
X34100000Y-61621428D01*
X34052380Y-61478571D01*
X34052380Y-61383333D01*
X34100000Y-61240476D01*
X34147619Y-61192857D01*
X34147619Y-60811904D02*
X34100000Y-60764285D01*
X34052380Y-60669047D01*
X34052380Y-60430952D01*
X34100000Y-60335714D01*
X34147619Y-60288095D01*
X34242857Y-60240476D01*
X34338095Y-60240476D01*
X34480952Y-60288095D01*
X35052380Y-60859523D01*
X35052380Y-60240476D01*
X34052380Y-59907142D02*
X34052380Y-59288095D01*
X34433333Y-59621428D01*
X34433333Y-59478571D01*
X34480952Y-59383333D01*
X34528571Y-59335714D01*
X34623809Y-59288095D01*
X34861904Y-59288095D01*
X34957142Y-59335714D01*
X35004761Y-59383333D01*
X35052380Y-59478571D01*
X35052380Y-59764285D01*
X35004761Y-59859523D01*
X34957142Y-59907142D01*
X73017142Y-52427142D02*
X72969523Y-52474761D01*
X72826666Y-52522380D01*
X72731428Y-52522380D01*
X72588571Y-52474761D01*
X72493333Y-52379523D01*
X72445714Y-52284285D01*
X72398095Y-52093809D01*
X72398095Y-51950952D01*
X72445714Y-51760476D01*
X72493333Y-51665238D01*
X72588571Y-51570000D01*
X72731428Y-51522380D01*
X72826666Y-51522380D01*
X72969523Y-51570000D01*
X73017142Y-51617619D01*
X73969523Y-52522380D02*
X73398095Y-52522380D01*
X73683809Y-52522380D02*
X73683809Y-51522380D01*
X73588571Y-51665238D01*
X73493333Y-51760476D01*
X73398095Y-51808095D01*
X74921904Y-52522380D02*
X74350476Y-52522380D01*
X74636190Y-52522380D02*
X74636190Y-51522380D01*
X74540952Y-51665238D01*
X74445714Y-51760476D01*
X74350476Y-51808095D01*
X118657142Y-55942857D02*
X118704761Y-55990476D01*
X118752380Y-56133333D01*
X118752380Y-56228571D01*
X118704761Y-56371428D01*
X118609523Y-56466666D01*
X118514285Y-56514285D01*
X118323809Y-56561904D01*
X118180952Y-56561904D01*
X117990476Y-56514285D01*
X117895238Y-56466666D01*
X117800000Y-56371428D01*
X117752380Y-56228571D01*
X117752380Y-56133333D01*
X117800000Y-55990476D01*
X117847619Y-55942857D01*
X118752380Y-54990476D02*
X118752380Y-55561904D01*
X118752380Y-55276190D02*
X117752380Y-55276190D01*
X117895238Y-55371428D01*
X117990476Y-55466666D01*
X118038095Y-55561904D01*
X118752380Y-54514285D02*
X118752380Y-54323809D01*
X118704761Y-54228571D01*
X118657142Y-54180952D01*
X118514285Y-54085714D01*
X118323809Y-54038095D01*
X117942857Y-54038095D01*
X117847619Y-54085714D01*
X117800000Y-54133333D01*
X117752380Y-54228571D01*
X117752380Y-54419047D01*
X117800000Y-54514285D01*
X117847619Y-54561904D01*
X117942857Y-54609523D01*
X118180952Y-54609523D01*
X118276190Y-54561904D01*
X118323809Y-54514285D01*
X118371428Y-54419047D01*
X118371428Y-54228571D01*
X118323809Y-54133333D01*
X118276190Y-54085714D01*
X118180952Y-54038095D01*
X116582142Y-63357142D02*
X116534523Y-63404761D01*
X116391666Y-63452380D01*
X116296428Y-63452380D01*
X116153571Y-63404761D01*
X116058333Y-63309523D01*
X116010714Y-63214285D01*
X115963095Y-63023809D01*
X115963095Y-62880952D01*
X116010714Y-62690476D01*
X116058333Y-62595238D01*
X116153571Y-62500000D01*
X116296428Y-62452380D01*
X116391666Y-62452380D01*
X116534523Y-62500000D01*
X116582142Y-62547619D01*
X116915476Y-62452380D02*
X117534523Y-62452380D01*
X117201190Y-62833333D01*
X117344047Y-62833333D01*
X117439285Y-62880952D01*
X117486904Y-62928571D01*
X117534523Y-63023809D01*
X117534523Y-63261904D01*
X117486904Y-63357142D01*
X117439285Y-63404761D01*
X117344047Y-63452380D01*
X117058333Y-63452380D01*
X116963095Y-63404761D01*
X116915476Y-63357142D01*
X118391666Y-62785714D02*
X118391666Y-63452380D01*
X118153571Y-62404761D02*
X117915476Y-63119047D01*
X118534523Y-63119047D01*
X122004142Y-21387142D02*
X121956523Y-21434761D01*
X121813666Y-21482380D01*
X121718428Y-21482380D01*
X121575571Y-21434761D01*
X121480333Y-21339523D01*
X121432714Y-21244285D01*
X121385095Y-21053809D01*
X121385095Y-20910952D01*
X121432714Y-20720476D01*
X121480333Y-20625238D01*
X121575571Y-20530000D01*
X121718428Y-20482380D01*
X121813666Y-20482380D01*
X121956523Y-20530000D01*
X122004142Y-20577619D01*
X122337476Y-20482380D02*
X122956523Y-20482380D01*
X122623190Y-20863333D01*
X122766047Y-20863333D01*
X122861285Y-20910952D01*
X122908904Y-20958571D01*
X122956523Y-21053809D01*
X122956523Y-21291904D01*
X122908904Y-21387142D01*
X122861285Y-21434761D01*
X122766047Y-21482380D01*
X122480333Y-21482380D01*
X122385095Y-21434761D01*
X122337476Y-21387142D01*
X123861285Y-20482380D02*
X123385095Y-20482380D01*
X123337476Y-20958571D01*
X123385095Y-20910952D01*
X123480333Y-20863333D01*
X123718428Y-20863333D01*
X123813666Y-20910952D01*
X123861285Y-20958571D01*
X123908904Y-21053809D01*
X123908904Y-21291904D01*
X123861285Y-21387142D01*
X123813666Y-21434761D01*
X123718428Y-21482380D01*
X123480333Y-21482380D01*
X123385095Y-21434761D01*
X123337476Y-21387142D01*
X121357142Y-55857142D02*
X121309523Y-55904761D01*
X121166666Y-55952380D01*
X121071428Y-55952380D01*
X120928571Y-55904761D01*
X120833333Y-55809523D01*
X120785714Y-55714285D01*
X120738095Y-55523809D01*
X120738095Y-55380952D01*
X120785714Y-55190476D01*
X120833333Y-55095238D01*
X120928571Y-55000000D01*
X121071428Y-54952380D01*
X121166666Y-54952380D01*
X121309523Y-55000000D01*
X121357142Y-55047619D01*
X121690476Y-54952380D02*
X122309523Y-54952380D01*
X121976190Y-55333333D01*
X122119047Y-55333333D01*
X122214285Y-55380952D01*
X122261904Y-55428571D01*
X122309523Y-55523809D01*
X122309523Y-55761904D01*
X122261904Y-55857142D01*
X122214285Y-55904761D01*
X122119047Y-55952380D01*
X121833333Y-55952380D01*
X121738095Y-55904761D01*
X121690476Y-55857142D01*
X123166666Y-54952380D02*
X122976190Y-54952380D01*
X122880952Y-55000000D01*
X122833333Y-55047619D01*
X122738095Y-55190476D01*
X122690476Y-55380952D01*
X122690476Y-55761904D01*
X122738095Y-55857142D01*
X122785714Y-55904761D01*
X122880952Y-55952380D01*
X123071428Y-55952380D01*
X123166666Y-55904761D01*
X123214285Y-55857142D01*
X123261904Y-55761904D01*
X123261904Y-55523809D01*
X123214285Y-55428571D01*
X123166666Y-55380952D01*
X123071428Y-55333333D01*
X122880952Y-55333333D01*
X122785714Y-55380952D01*
X122738095Y-55428571D01*
X122690476Y-55523809D01*
X122007142Y-25314142D02*
X121959523Y-25361761D01*
X121816666Y-25409380D01*
X121721428Y-25409380D01*
X121578571Y-25361761D01*
X121483333Y-25266523D01*
X121435714Y-25171285D01*
X121388095Y-24980809D01*
X121388095Y-24837952D01*
X121435714Y-24647476D01*
X121483333Y-24552238D01*
X121578571Y-24457000D01*
X121721428Y-24409380D01*
X121816666Y-24409380D01*
X121959523Y-24457000D01*
X122007142Y-24504619D01*
X122340476Y-24409380D02*
X122959523Y-24409380D01*
X122626190Y-24790333D01*
X122769047Y-24790333D01*
X122864285Y-24837952D01*
X122911904Y-24885571D01*
X122959523Y-24980809D01*
X122959523Y-25218904D01*
X122911904Y-25314142D01*
X122864285Y-25361761D01*
X122769047Y-25409380D01*
X122483333Y-25409380D01*
X122388095Y-25361761D01*
X122340476Y-25314142D01*
X123292857Y-24409380D02*
X123959523Y-24409380D01*
X123530952Y-25409380D01*
X59233333Y-23852380D02*
X58900000Y-23376190D01*
X58661904Y-23852380D02*
X58661904Y-22852380D01*
X59042857Y-22852380D01*
X59138095Y-22900000D01*
X59185714Y-22947619D01*
X59233333Y-23042857D01*
X59233333Y-23185714D01*
X59185714Y-23280952D01*
X59138095Y-23328571D01*
X59042857Y-23376190D01*
X58661904Y-23376190D01*
X60138095Y-22852380D02*
X59661904Y-22852380D01*
X59614285Y-23328571D01*
X59661904Y-23280952D01*
X59757142Y-23233333D01*
X59995238Y-23233333D01*
X60090476Y-23280952D01*
X60138095Y-23328571D01*
X60185714Y-23423809D01*
X60185714Y-23661904D01*
X60138095Y-23757142D01*
X60090476Y-23804761D01*
X59995238Y-23852380D01*
X59757142Y-23852380D01*
X59661904Y-23804761D01*
X59614285Y-23757142D01*
X72533580Y-56489457D02*
X72057390Y-56822790D01*
X72533580Y-57060885D02*
X71533580Y-57060885D01*
X71533580Y-56679933D01*
X71581200Y-56584695D01*
X71628819Y-56537076D01*
X71724057Y-56489457D01*
X71866914Y-56489457D01*
X71962152Y-56537076D01*
X72009771Y-56584695D01*
X72057390Y-56679933D01*
X72057390Y-57060885D01*
X72533580Y-55537076D02*
X72533580Y-56108504D01*
X72533580Y-55822790D02*
X71533580Y-55822790D01*
X71676438Y-55918028D01*
X71771676Y-56013266D01*
X71819295Y-56108504D01*
X71962152Y-54965647D02*
X71914533Y-55060885D01*
X71866914Y-55108504D01*
X71771676Y-55156123D01*
X71724057Y-55156123D01*
X71628819Y-55108504D01*
X71581200Y-55060885D01*
X71533580Y-54965647D01*
X71533580Y-54775171D01*
X71581200Y-54679933D01*
X71628819Y-54632314D01*
X71724057Y-54584695D01*
X71771676Y-54584695D01*
X71866914Y-54632314D01*
X71914533Y-54679933D01*
X71962152Y-54775171D01*
X71962152Y-54965647D01*
X72009771Y-55060885D01*
X72057390Y-55108504D01*
X72152628Y-55156123D01*
X72343104Y-55156123D01*
X72438342Y-55108504D01*
X72485961Y-55060885D01*
X72533580Y-54965647D01*
X72533580Y-54775171D01*
X72485961Y-54679933D01*
X72438342Y-54632314D01*
X72343104Y-54584695D01*
X72152628Y-54584695D01*
X72057390Y-54632314D01*
X72009771Y-54679933D01*
X71962152Y-54775171D01*
X116582142Y-61452380D02*
X116248809Y-60976190D01*
X116010714Y-61452380D02*
X116010714Y-60452380D01*
X116391666Y-60452380D01*
X116486904Y-60500000D01*
X116534523Y-60547619D01*
X116582142Y-60642857D01*
X116582142Y-60785714D01*
X116534523Y-60880952D01*
X116486904Y-60928571D01*
X116391666Y-60976190D01*
X116010714Y-60976190D01*
X116963095Y-60547619D02*
X117010714Y-60500000D01*
X117105952Y-60452380D01*
X117344047Y-60452380D01*
X117439285Y-60500000D01*
X117486904Y-60547619D01*
X117534523Y-60642857D01*
X117534523Y-60738095D01*
X117486904Y-60880952D01*
X116915476Y-61452380D01*
X117534523Y-61452380D01*
X118391666Y-60452380D02*
X118201190Y-60452380D01*
X118105952Y-60500000D01*
X118058333Y-60547619D01*
X117963095Y-60690476D01*
X117915476Y-60880952D01*
X117915476Y-61261904D01*
X117963095Y-61357142D01*
X118010714Y-61404761D01*
X118105952Y-61452380D01*
X118296428Y-61452380D01*
X118391666Y-61404761D01*
X118439285Y-61357142D01*
X118486904Y-61261904D01*
X118486904Y-61023809D01*
X118439285Y-60928571D01*
X118391666Y-60880952D01*
X118296428Y-60833333D01*
X118105952Y-60833333D01*
X118010714Y-60880952D01*
X117963095Y-60928571D01*
X117915476Y-61023809D01*
X122182142Y-19552380D02*
X121848809Y-19076190D01*
X121610714Y-19552380D02*
X121610714Y-18552380D01*
X121991666Y-18552380D01*
X122086904Y-18600000D01*
X122134523Y-18647619D01*
X122182142Y-18742857D01*
X122182142Y-18885714D01*
X122134523Y-18980952D01*
X122086904Y-19028571D01*
X121991666Y-19076190D01*
X121610714Y-19076190D01*
X122563095Y-18647619D02*
X122610714Y-18600000D01*
X122705952Y-18552380D01*
X122944047Y-18552380D01*
X123039285Y-18600000D01*
X123086904Y-18647619D01*
X123134523Y-18742857D01*
X123134523Y-18838095D01*
X123086904Y-18980952D01*
X122515476Y-19552380D01*
X123134523Y-19552380D01*
X123467857Y-18552380D02*
X124134523Y-18552380D01*
X123705952Y-19552380D01*
X120657142Y-58152380D02*
X120323809Y-57676190D01*
X120085714Y-58152380D02*
X120085714Y-57152380D01*
X120466666Y-57152380D01*
X120561904Y-57200000D01*
X120609523Y-57247619D01*
X120657142Y-57342857D01*
X120657142Y-57485714D01*
X120609523Y-57580952D01*
X120561904Y-57628571D01*
X120466666Y-57676190D01*
X120085714Y-57676190D01*
X121038095Y-57247619D02*
X121085714Y-57200000D01*
X121180952Y-57152380D01*
X121419047Y-57152380D01*
X121514285Y-57200000D01*
X121561904Y-57247619D01*
X121609523Y-57342857D01*
X121609523Y-57438095D01*
X121561904Y-57580952D01*
X120990476Y-58152380D01*
X121609523Y-58152380D01*
X122180952Y-57580952D02*
X122085714Y-57533333D01*
X122038095Y-57485714D01*
X121990476Y-57390476D01*
X121990476Y-57342857D01*
X122038095Y-57247619D01*
X122085714Y-57200000D01*
X122180952Y-57152380D01*
X122371428Y-57152380D01*
X122466666Y-57200000D01*
X122514285Y-57247619D01*
X122561904Y-57342857D01*
X122561904Y-57390476D01*
X122514285Y-57485714D01*
X122466666Y-57533333D01*
X122371428Y-57580952D01*
X122180952Y-57580952D01*
X122085714Y-57628571D01*
X122038095Y-57676190D01*
X121990476Y-57771428D01*
X121990476Y-57961904D01*
X122038095Y-58057142D01*
X122085714Y-58104761D01*
X122180952Y-58152380D01*
X122371428Y-58152380D01*
X122466666Y-58104761D01*
X122514285Y-58057142D01*
X122561904Y-57961904D01*
X122561904Y-57771428D01*
X122514285Y-57676190D01*
X122466666Y-57628571D01*
X122371428Y-57580952D01*
X122257142Y-23377380D02*
X121923809Y-22901190D01*
X121685714Y-23377380D02*
X121685714Y-22377380D01*
X122066666Y-22377380D01*
X122161904Y-22425000D01*
X122209523Y-22472619D01*
X122257142Y-22567857D01*
X122257142Y-22710714D01*
X122209523Y-22805952D01*
X122161904Y-22853571D01*
X122066666Y-22901190D01*
X121685714Y-22901190D01*
X122638095Y-22472619D02*
X122685714Y-22425000D01*
X122780952Y-22377380D01*
X123019047Y-22377380D01*
X123114285Y-22425000D01*
X123161904Y-22472619D01*
X123209523Y-22567857D01*
X123209523Y-22663095D01*
X123161904Y-22805952D01*
X122590476Y-23377380D01*
X123209523Y-23377380D01*
X123685714Y-23377380D02*
X123876190Y-23377380D01*
X123971428Y-23329761D01*
X124019047Y-23282142D01*
X124114285Y-23139285D01*
X124161904Y-22948809D01*
X124161904Y-22567857D01*
X124114285Y-22472619D01*
X124066666Y-22425000D01*
X123971428Y-22377380D01*
X123780952Y-22377380D01*
X123685714Y-22425000D01*
X123638095Y-22472619D01*
X123590476Y-22567857D01*
X123590476Y-22805952D01*
X123638095Y-22901190D01*
X123685714Y-22948809D01*
X123780952Y-22996428D01*
X123971428Y-22996428D01*
X124066666Y-22948809D01*
X124114285Y-22901190D01*
X124161904Y-22805952D01*
X73565580Y-57132314D02*
X73565580Y-56560885D01*
X74565580Y-56846600D02*
X73565580Y-56846600D01*
X74565580Y-56227552D02*
X73565580Y-56227552D01*
X74041771Y-56227552D02*
X74041771Y-55656123D01*
X74565580Y-55656123D02*
X73565580Y-55656123D01*
X74565580Y-54656123D02*
X74565580Y-55227552D01*
X74565580Y-54941838D02*
X73565580Y-54941838D01*
X73708438Y-55037076D01*
X73803676Y-55132314D01*
X73851295Y-55227552D01*
X66102380Y-26724404D02*
X66911904Y-26724404D01*
X67007142Y-26676785D01*
X67054761Y-26629166D01*
X67102380Y-26533928D01*
X67102380Y-26343452D01*
X67054761Y-26248214D01*
X67007142Y-26200595D01*
X66911904Y-26152976D01*
X66102380Y-26152976D01*
X66197619Y-25724404D02*
X66150000Y-25676785D01*
X66102380Y-25581547D01*
X66102380Y-25343452D01*
X66150000Y-25248214D01*
X66197619Y-25200595D01*
X66292857Y-25152976D01*
X66388095Y-25152976D01*
X66530952Y-25200595D01*
X67102380Y-25772023D01*
X67102380Y-25152976D01*
X71477142Y-38012666D02*
X71524761Y-38060285D01*
X71572380Y-38203142D01*
X71572380Y-38298380D01*
X71524761Y-38441238D01*
X71429523Y-38536476D01*
X71334285Y-38584095D01*
X71143809Y-38631714D01*
X71000952Y-38631714D01*
X70810476Y-38584095D01*
X70715238Y-38536476D01*
X70620000Y-38441238D01*
X70572380Y-38298380D01*
X70572380Y-38203142D01*
X70620000Y-38060285D01*
X70667619Y-38012666D01*
X70572380Y-37107904D02*
X70572380Y-37584095D01*
X71048571Y-37631714D01*
X71000952Y-37584095D01*
X70953333Y-37488857D01*
X70953333Y-37250761D01*
X71000952Y-37155523D01*
X71048571Y-37107904D01*
X71143809Y-37060285D01*
X71381904Y-37060285D01*
X71477142Y-37107904D01*
X71524761Y-37155523D01*
X71572380Y-37250761D01*
X71572380Y-37488857D01*
X71524761Y-37584095D01*
X71477142Y-37631714D01*
X115857142Y-55842857D02*
X115904761Y-55890476D01*
X115952380Y-56033333D01*
X115952380Y-56128571D01*
X115904761Y-56271428D01*
X115809523Y-56366666D01*
X115714285Y-56414285D01*
X115523809Y-56461904D01*
X115380952Y-56461904D01*
X115190476Y-56414285D01*
X115095238Y-56366666D01*
X115000000Y-56271428D01*
X114952380Y-56128571D01*
X114952380Y-56033333D01*
X115000000Y-55890476D01*
X115047619Y-55842857D01*
X115952380Y-54890476D02*
X115952380Y-55461904D01*
X115952380Y-55176190D02*
X114952380Y-55176190D01*
X115095238Y-55271428D01*
X115190476Y-55366666D01*
X115238095Y-55461904D01*
X114952380Y-54557142D02*
X114952380Y-53890476D01*
X115952380Y-54319047D01*
X73493333Y-40997142D02*
X73445714Y-41044761D01*
X73302857Y-41092380D01*
X73207619Y-41092380D01*
X73064761Y-41044761D01*
X72969523Y-40949523D01*
X72921904Y-40854285D01*
X72874285Y-40663809D01*
X72874285Y-40520952D01*
X72921904Y-40330476D01*
X72969523Y-40235238D01*
X73064761Y-40140000D01*
X73207619Y-40092380D01*
X73302857Y-40092380D01*
X73445714Y-40140000D01*
X73493333Y-40187619D01*
X73969523Y-41092380D02*
X74160000Y-41092380D01*
X74255238Y-41044761D01*
X74302857Y-40997142D01*
X74398095Y-40854285D01*
X74445714Y-40663809D01*
X74445714Y-40282857D01*
X74398095Y-40187619D01*
X74350476Y-40140000D01*
X74255238Y-40092380D01*
X74064761Y-40092380D01*
X73969523Y-40140000D01*
X73921904Y-40187619D01*
X73874285Y-40282857D01*
X73874285Y-40520952D01*
X73921904Y-40616190D01*
X73969523Y-40663809D01*
X74064761Y-40711428D01*
X74255238Y-40711428D01*
X74350476Y-40663809D01*
X74398095Y-40616190D01*
X74445714Y-40520952D01*
X52189142Y-46934380D02*
X51855809Y-46458190D01*
X51617714Y-46934380D02*
X51617714Y-45934380D01*
X51998666Y-45934380D01*
X52093904Y-45982000D01*
X52141523Y-46029619D01*
X52189142Y-46124857D01*
X52189142Y-46267714D01*
X52141523Y-46362952D01*
X52093904Y-46410571D01*
X51998666Y-46458190D01*
X51617714Y-46458190D01*
X53141523Y-46934380D02*
X52570095Y-46934380D01*
X52855809Y-46934380D02*
X52855809Y-45934380D01*
X52760571Y-46077238D01*
X52665333Y-46172476D01*
X52570095Y-46220095D01*
X53617714Y-46934380D02*
X53808190Y-46934380D01*
X53903428Y-46886761D01*
X53951047Y-46839142D01*
X54046285Y-46696285D01*
X54093904Y-46505809D01*
X54093904Y-46124857D01*
X54046285Y-46029619D01*
X53998666Y-45982000D01*
X53903428Y-45934380D01*
X53712952Y-45934380D01*
X53617714Y-45982000D01*
X53570095Y-46029619D01*
X53522476Y-46124857D01*
X53522476Y-46362952D01*
X53570095Y-46458190D01*
X53617714Y-46505809D01*
X53712952Y-46553428D01*
X53903428Y-46553428D01*
X53998666Y-46505809D01*
X54046285Y-46458190D01*
X54093904Y-46362952D01*
X61158380Y-55919666D02*
X61158380Y-56395857D01*
X60158380Y-56395857D01*
X60253619Y-55633952D02*
X60206000Y-55586333D01*
X60158380Y-55491095D01*
X60158380Y-55253000D01*
X60206000Y-55157761D01*
X60253619Y-55110142D01*
X60348857Y-55062523D01*
X60444095Y-55062523D01*
X60586952Y-55110142D01*
X61158380Y-55681571D01*
X61158380Y-55062523D01*
X58110380Y-37250666D02*
X58110380Y-37726857D01*
X57110380Y-37726857D01*
X58110380Y-36393523D02*
X58110380Y-36964952D01*
X58110380Y-36679238D02*
X57110380Y-36679238D01*
X57253238Y-36774476D01*
X57348476Y-36869714D01*
X57396095Y-36964952D01*
X48887142Y-49220380D02*
X48553809Y-48744190D01*
X48315714Y-49220380D02*
X48315714Y-48220380D01*
X48696666Y-48220380D01*
X48791904Y-48268000D01*
X48839523Y-48315619D01*
X48887142Y-48410857D01*
X48887142Y-48553714D01*
X48839523Y-48648952D01*
X48791904Y-48696571D01*
X48696666Y-48744190D01*
X48315714Y-48744190D01*
X49268095Y-48315619D02*
X49315714Y-48268000D01*
X49410952Y-48220380D01*
X49649047Y-48220380D01*
X49744285Y-48268000D01*
X49791904Y-48315619D01*
X49839523Y-48410857D01*
X49839523Y-48506095D01*
X49791904Y-48648952D01*
X49220476Y-49220380D01*
X49839523Y-49220380D01*
X50696666Y-48553714D02*
X50696666Y-49220380D01*
X50458571Y-48172761D02*
X50220476Y-48887047D01*
X50839523Y-48887047D01*
X52189142Y-49220380D02*
X51855809Y-48744190D01*
X51617714Y-49220380D02*
X51617714Y-48220380D01*
X51998666Y-48220380D01*
X52093904Y-48268000D01*
X52141523Y-48315619D01*
X52189142Y-48410857D01*
X52189142Y-48553714D01*
X52141523Y-48648952D01*
X52093904Y-48696571D01*
X51998666Y-48744190D01*
X51617714Y-48744190D01*
X52570095Y-48315619D02*
X52617714Y-48268000D01*
X52712952Y-48220380D01*
X52951047Y-48220380D01*
X53046285Y-48268000D01*
X53093904Y-48315619D01*
X53141523Y-48410857D01*
X53141523Y-48506095D01*
X53093904Y-48648952D01*
X52522476Y-49220380D01*
X53141523Y-49220380D01*
X53474857Y-48220380D02*
X54093904Y-48220380D01*
X53760571Y-48601333D01*
X53903428Y-48601333D01*
X53998666Y-48648952D01*
X54046285Y-48696571D01*
X54093904Y-48791809D01*
X54093904Y-49029904D01*
X54046285Y-49125142D01*
X53998666Y-49172761D01*
X53903428Y-49220380D01*
X53617714Y-49220380D01*
X53522476Y-49172761D01*
X53474857Y-49125142D01*
X48887142Y-46934380D02*
X48553809Y-46458190D01*
X48315714Y-46934380D02*
X48315714Y-45934380D01*
X48696666Y-45934380D01*
X48791904Y-45982000D01*
X48839523Y-46029619D01*
X48887142Y-46124857D01*
X48887142Y-46267714D01*
X48839523Y-46362952D01*
X48791904Y-46410571D01*
X48696666Y-46458190D01*
X48315714Y-46458190D01*
X49268095Y-46029619D02*
X49315714Y-45982000D01*
X49410952Y-45934380D01*
X49649047Y-45934380D01*
X49744285Y-45982000D01*
X49791904Y-46029619D01*
X49839523Y-46124857D01*
X49839523Y-46220095D01*
X49791904Y-46362952D01*
X49220476Y-46934380D01*
X49839523Y-46934380D01*
X50458571Y-45934380D02*
X50553809Y-45934380D01*
X50649047Y-45982000D01*
X50696666Y-46029619D01*
X50744285Y-46124857D01*
X50791904Y-46315333D01*
X50791904Y-46553428D01*
X50744285Y-46743904D01*
X50696666Y-46839142D01*
X50649047Y-46886761D01*
X50553809Y-46934380D01*
X50458571Y-46934380D01*
X50363333Y-46886761D01*
X50315714Y-46839142D01*
X50268095Y-46743904D01*
X50220476Y-46553428D01*
X50220476Y-46315333D01*
X50268095Y-46124857D01*
X50315714Y-46029619D01*
X50363333Y-45982000D01*
X50458571Y-45934380D01*
X64619142Y-59951857D02*
X64666761Y-59999476D01*
X64714380Y-60142333D01*
X64714380Y-60237571D01*
X64666761Y-60380428D01*
X64571523Y-60475666D01*
X64476285Y-60523285D01*
X64285809Y-60570904D01*
X64142952Y-60570904D01*
X63952476Y-60523285D01*
X63857238Y-60475666D01*
X63762000Y-60380428D01*
X63714380Y-60237571D01*
X63714380Y-60142333D01*
X63762000Y-59999476D01*
X63809619Y-59951857D01*
X63714380Y-59618523D02*
X63714380Y-58999476D01*
X64095333Y-59332809D01*
X64095333Y-59189952D01*
X64142952Y-59094714D01*
X64190571Y-59047095D01*
X64285809Y-58999476D01*
X64523904Y-58999476D01*
X64619142Y-59047095D01*
X64666761Y-59094714D01*
X64714380Y-59189952D01*
X64714380Y-59475666D01*
X64666761Y-59570904D01*
X64619142Y-59618523D01*
X63809619Y-58618523D02*
X63762000Y-58570904D01*
X63714380Y-58475666D01*
X63714380Y-58237571D01*
X63762000Y-58142333D01*
X63809619Y-58094714D01*
X63904857Y-58047095D01*
X64000095Y-58047095D01*
X64142952Y-58094714D01*
X64714380Y-58666142D01*
X64714380Y-58047095D01*
X69445142Y-54998857D02*
X69492761Y-55046476D01*
X69540380Y-55189333D01*
X69540380Y-55284571D01*
X69492761Y-55427428D01*
X69397523Y-55522666D01*
X69302285Y-55570285D01*
X69111809Y-55617904D01*
X68968952Y-55617904D01*
X68778476Y-55570285D01*
X68683238Y-55522666D01*
X68588000Y-55427428D01*
X68540380Y-55284571D01*
X68540380Y-55189333D01*
X68588000Y-55046476D01*
X68635619Y-54998857D01*
X68540380Y-54665523D02*
X68540380Y-54046476D01*
X68921333Y-54379809D01*
X68921333Y-54236952D01*
X68968952Y-54141714D01*
X69016571Y-54094095D01*
X69111809Y-54046476D01*
X69349904Y-54046476D01*
X69445142Y-54094095D01*
X69492761Y-54141714D01*
X69540380Y-54236952D01*
X69540380Y-54522666D01*
X69492761Y-54617904D01*
X69445142Y-54665523D01*
X69540380Y-53094095D02*
X69540380Y-53665523D01*
X69540380Y-53379809D02*
X68540380Y-53379809D01*
X68683238Y-53475047D01*
X68778476Y-53570285D01*
X68826095Y-53665523D01*
X55745142Y-45823142D02*
X55697523Y-45870761D01*
X55554666Y-45918380D01*
X55459428Y-45918380D01*
X55316571Y-45870761D01*
X55221333Y-45775523D01*
X55173714Y-45680285D01*
X55126095Y-45489809D01*
X55126095Y-45346952D01*
X55173714Y-45156476D01*
X55221333Y-45061238D01*
X55316571Y-44966000D01*
X55459428Y-44918380D01*
X55554666Y-44918380D01*
X55697523Y-44966000D01*
X55745142Y-45013619D01*
X56078476Y-44918380D02*
X56697523Y-44918380D01*
X56364190Y-45299333D01*
X56507047Y-45299333D01*
X56602285Y-45346952D01*
X56649904Y-45394571D01*
X56697523Y-45489809D01*
X56697523Y-45727904D01*
X56649904Y-45823142D01*
X56602285Y-45870761D01*
X56507047Y-45918380D01*
X56221333Y-45918380D01*
X56126095Y-45870761D01*
X56078476Y-45823142D01*
X57316571Y-44918380D02*
X57411809Y-44918380D01*
X57507047Y-44966000D01*
X57554666Y-45013619D01*
X57602285Y-45108857D01*
X57649904Y-45299333D01*
X57649904Y-45537428D01*
X57602285Y-45727904D01*
X57554666Y-45823142D01*
X57507047Y-45870761D01*
X57411809Y-45918380D01*
X57316571Y-45918380D01*
X57221333Y-45870761D01*
X57173714Y-45823142D01*
X57126095Y-45727904D01*
X57078476Y-45537428D01*
X57078476Y-45299333D01*
X57126095Y-45108857D01*
X57173714Y-45013619D01*
X57221333Y-44966000D01*
X57316571Y-44918380D01*
X55745142Y-48617142D02*
X55697523Y-48664761D01*
X55554666Y-48712380D01*
X55459428Y-48712380D01*
X55316571Y-48664761D01*
X55221333Y-48569523D01*
X55173714Y-48474285D01*
X55126095Y-48283809D01*
X55126095Y-48140952D01*
X55173714Y-47950476D01*
X55221333Y-47855238D01*
X55316571Y-47760000D01*
X55459428Y-47712380D01*
X55554666Y-47712380D01*
X55697523Y-47760000D01*
X55745142Y-47807619D01*
X56126095Y-47807619D02*
X56173714Y-47760000D01*
X56268952Y-47712380D01*
X56507047Y-47712380D01*
X56602285Y-47760000D01*
X56649904Y-47807619D01*
X56697523Y-47902857D01*
X56697523Y-47998095D01*
X56649904Y-48140952D01*
X56078476Y-48712380D01*
X56697523Y-48712380D01*
X57173714Y-48712380D02*
X57364190Y-48712380D01*
X57459428Y-48664761D01*
X57507047Y-48617142D01*
X57602285Y-48474285D01*
X57649904Y-48283809D01*
X57649904Y-47902857D01*
X57602285Y-47807619D01*
X57554666Y-47760000D01*
X57459428Y-47712380D01*
X57268952Y-47712380D01*
X57173714Y-47760000D01*
X57126095Y-47807619D01*
X57078476Y-47902857D01*
X57078476Y-48140952D01*
X57126095Y-48236190D01*
X57173714Y-48283809D01*
X57268952Y-48331428D01*
X57459428Y-48331428D01*
X57554666Y-48283809D01*
X57602285Y-48236190D01*
X57649904Y-48140952D01*
X113057142Y-56042857D02*
X113104761Y-56090476D01*
X113152380Y-56233333D01*
X113152380Y-56328571D01*
X113104761Y-56471428D01*
X113009523Y-56566666D01*
X112914285Y-56614285D01*
X112723809Y-56661904D01*
X112580952Y-56661904D01*
X112390476Y-56614285D01*
X112295238Y-56566666D01*
X112200000Y-56471428D01*
X112152380Y-56328571D01*
X112152380Y-56233333D01*
X112200000Y-56090476D01*
X112247619Y-56042857D01*
X113152380Y-55090476D02*
X113152380Y-55661904D01*
X113152380Y-55376190D02*
X112152380Y-55376190D01*
X112295238Y-55471428D01*
X112390476Y-55566666D01*
X112438095Y-55661904D01*
X112152380Y-54185714D02*
X112152380Y-54661904D01*
X112628571Y-54709523D01*
X112580952Y-54661904D01*
X112533333Y-54566666D01*
X112533333Y-54328571D01*
X112580952Y-54233333D01*
X112628571Y-54185714D01*
X112723809Y-54138095D01*
X112961904Y-54138095D01*
X113057142Y-54185714D01*
X113104761Y-54233333D01*
X113152380Y-54328571D01*
X113152380Y-54566666D01*
X113104761Y-54661904D01*
X113057142Y-54709523D01*
X69059001Y-48461380D02*
X69059001Y-48699476D01*
X68820905Y-48604238D02*
X69059001Y-48699476D01*
X69297096Y-48604238D01*
X68916143Y-48889952D02*
X69059001Y-48699476D01*
X69201858Y-48889952D01*
X69059001Y-48461380D02*
X69059001Y-48699476D01*
X68820905Y-48604238D02*
X69059001Y-48699476D01*
X69297096Y-48604238D01*
X68916143Y-48889952D02*
X69059001Y-48699476D01*
X69201858Y-48889952D01*
X73493333Y-50141142D02*
X73445714Y-50188761D01*
X73302857Y-50236380D01*
X73207619Y-50236380D01*
X73064761Y-50188761D01*
X72969523Y-50093523D01*
X72921904Y-49998285D01*
X72874285Y-49807809D01*
X72874285Y-49664952D01*
X72921904Y-49474476D01*
X72969523Y-49379238D01*
X73064761Y-49284000D01*
X73207619Y-49236380D01*
X73302857Y-49236380D01*
X73445714Y-49284000D01*
X73493333Y-49331619D01*
X74064761Y-49664952D02*
X73969523Y-49617333D01*
X73921904Y-49569714D01*
X73874285Y-49474476D01*
X73874285Y-49426857D01*
X73921904Y-49331619D01*
X73969523Y-49284000D01*
X74064761Y-49236380D01*
X74255238Y-49236380D01*
X74350476Y-49284000D01*
X74398095Y-49331619D01*
X74445714Y-49426857D01*
X74445714Y-49474476D01*
X74398095Y-49569714D01*
X74350476Y-49617333D01*
X74255238Y-49664952D01*
X74064761Y-49664952D01*
X73969523Y-49712571D01*
X73921904Y-49760190D01*
X73874285Y-49855428D01*
X73874285Y-50045904D01*
X73921904Y-50141142D01*
X73969523Y-50188761D01*
X74064761Y-50236380D01*
X74255238Y-50236380D01*
X74350476Y-50188761D01*
X74398095Y-50141142D01*
X74445714Y-50045904D01*
X74445714Y-49855428D01*
X74398095Y-49760190D01*
X74350476Y-49712571D01*
X74255238Y-49664952D01*
X62079142Y-39504857D02*
X62126761Y-39552476D01*
X62174380Y-39695333D01*
X62174380Y-39790571D01*
X62126761Y-39933428D01*
X62031523Y-40028666D01*
X61936285Y-40076285D01*
X61745809Y-40123904D01*
X61602952Y-40123904D01*
X61412476Y-40076285D01*
X61317238Y-40028666D01*
X61222000Y-39933428D01*
X61174380Y-39790571D01*
X61174380Y-39695333D01*
X61222000Y-39552476D01*
X61269619Y-39504857D01*
X62174380Y-38552476D02*
X62174380Y-39123904D01*
X62174380Y-38838190D02*
X61174380Y-38838190D01*
X61317238Y-38933428D01*
X61412476Y-39028666D01*
X61460095Y-39123904D01*
X61269619Y-38171523D02*
X61222000Y-38123904D01*
X61174380Y-38028666D01*
X61174380Y-37790571D01*
X61222000Y-37695333D01*
X61269619Y-37647714D01*
X61364857Y-37600095D01*
X61460095Y-37600095D01*
X61602952Y-37647714D01*
X62174380Y-38219142D01*
X62174380Y-37600095D01*
X73493333Y-43283142D02*
X73445714Y-43330761D01*
X73302857Y-43378380D01*
X73207619Y-43378380D01*
X73064761Y-43330761D01*
X72969523Y-43235523D01*
X72921904Y-43140285D01*
X72874285Y-42949809D01*
X72874285Y-42806952D01*
X72921904Y-42616476D01*
X72969523Y-42521238D01*
X73064761Y-42426000D01*
X73207619Y-42378380D01*
X73302857Y-42378380D01*
X73445714Y-42426000D01*
X73493333Y-42473619D01*
X74350476Y-42378380D02*
X74160000Y-42378380D01*
X74064761Y-42426000D01*
X74017142Y-42473619D01*
X73921904Y-42616476D01*
X73874285Y-42806952D01*
X73874285Y-43187904D01*
X73921904Y-43283142D01*
X73969523Y-43330761D01*
X74064761Y-43378380D01*
X74255238Y-43378380D01*
X74350476Y-43330761D01*
X74398095Y-43283142D01*
X74445714Y-43187904D01*
X74445714Y-42949809D01*
X74398095Y-42854571D01*
X74350476Y-42806952D01*
X74255238Y-42759333D01*
X74064761Y-42759333D01*
X73969523Y-42806952D01*
X73921904Y-42854571D01*
X73874285Y-42949809D01*
X53252380Y-53062095D02*
X52252380Y-53062095D01*
X52252380Y-52824000D01*
X52300000Y-52681142D01*
X52395238Y-52585904D01*
X52490476Y-52538285D01*
X52680952Y-52490666D01*
X52823809Y-52490666D01*
X53014285Y-52538285D01*
X53109523Y-52585904D01*
X53204761Y-52681142D01*
X53252380Y-52824000D01*
X53252380Y-53062095D01*
X52252380Y-51633523D02*
X52252380Y-51824000D01*
X52300000Y-51919238D01*
X52347619Y-51966857D01*
X52490476Y-52062095D01*
X52680952Y-52109714D01*
X53061904Y-52109714D01*
X53157142Y-52062095D01*
X53204761Y-52014476D01*
X53252380Y-51919238D01*
X53252380Y-51728761D01*
X53204761Y-51633523D01*
X53157142Y-51585904D01*
X53061904Y-51538285D01*
X52823809Y-51538285D01*
X52728571Y-51585904D01*
X52680952Y-51633523D01*
X52633333Y-51728761D01*
X52633333Y-51919238D01*
X52680952Y-52014476D01*
X52728571Y-52062095D01*
X52823809Y-52109714D01*
X51792380Y-53062095D02*
X50792380Y-53062095D01*
X50792380Y-52824000D01*
X50840000Y-52681142D01*
X50935238Y-52585904D01*
X51030476Y-52538285D01*
X51220952Y-52490666D01*
X51363809Y-52490666D01*
X51554285Y-52538285D01*
X51649523Y-52585904D01*
X51744761Y-52681142D01*
X51792380Y-52824000D01*
X51792380Y-53062095D01*
X50792380Y-51585904D02*
X50792380Y-52062095D01*
X51268571Y-52109714D01*
X51220952Y-52062095D01*
X51173333Y-51966857D01*
X51173333Y-51728761D01*
X51220952Y-51633523D01*
X51268571Y-51585904D01*
X51363809Y-51538285D01*
X51601904Y-51538285D01*
X51697142Y-51585904D01*
X51744761Y-51633523D01*
X51792380Y-51728761D01*
X51792380Y-51966857D01*
X51744761Y-52062095D01*
X51697142Y-52109714D01*
X53252380Y-43918095D02*
X52252380Y-43918095D01*
X52252380Y-43680000D01*
X52300000Y-43537142D01*
X52395238Y-43441904D01*
X52490476Y-43394285D01*
X52680952Y-43346666D01*
X52823809Y-43346666D01*
X53014285Y-43394285D01*
X53109523Y-43441904D01*
X53204761Y-43537142D01*
X53252380Y-43680000D01*
X53252380Y-43918095D01*
X52252380Y-43013333D02*
X52252380Y-42394285D01*
X52633333Y-42727619D01*
X52633333Y-42584761D01*
X52680952Y-42489523D01*
X52728571Y-42441904D01*
X52823809Y-42394285D01*
X53061904Y-42394285D01*
X53157142Y-42441904D01*
X53204761Y-42489523D01*
X53252380Y-42584761D01*
X53252380Y-42870476D01*
X53204761Y-42965714D01*
X53157142Y-43013333D01*
X51792380Y-43918095D02*
X50792380Y-43918095D01*
X50792380Y-43680000D01*
X50840000Y-43537142D01*
X50935238Y-43441904D01*
X51030476Y-43394285D01*
X51220952Y-43346666D01*
X51363809Y-43346666D01*
X51554285Y-43394285D01*
X51649523Y-43441904D01*
X51744761Y-43537142D01*
X51792380Y-43680000D01*
X51792380Y-43918095D01*
X50887619Y-42965714D02*
X50840000Y-42918095D01*
X50792380Y-42822857D01*
X50792380Y-42584761D01*
X50840000Y-42489523D01*
X50887619Y-42441904D01*
X50982857Y-42394285D01*
X51078095Y-42394285D01*
X51220952Y-42441904D01*
X51792380Y-43013333D01*
X51792380Y-42394285D01*
X46855142Y-44807142D02*
X46807523Y-44854761D01*
X46664666Y-44902380D01*
X46569428Y-44902380D01*
X46426571Y-44854761D01*
X46331333Y-44759523D01*
X46283714Y-44664285D01*
X46236095Y-44473809D01*
X46236095Y-44330952D01*
X46283714Y-44140476D01*
X46331333Y-44045238D01*
X46426571Y-43950000D01*
X46569428Y-43902380D01*
X46664666Y-43902380D01*
X46807523Y-43950000D01*
X46855142Y-43997619D01*
X47236095Y-43997619D02*
X47283714Y-43950000D01*
X47378952Y-43902380D01*
X47617047Y-43902380D01*
X47712285Y-43950000D01*
X47759904Y-43997619D01*
X47807523Y-44092857D01*
X47807523Y-44188095D01*
X47759904Y-44330952D01*
X47188476Y-44902380D01*
X47807523Y-44902380D01*
X48140857Y-43902380D02*
X48807523Y-43902380D01*
X48378952Y-44902380D01*
X66905142Y-38488857D02*
X66952761Y-38536476D01*
X67000380Y-38679333D01*
X67000380Y-38774571D01*
X66952761Y-38917428D01*
X66857523Y-39012666D01*
X66762285Y-39060285D01*
X66571809Y-39107904D01*
X66428952Y-39107904D01*
X66238476Y-39060285D01*
X66143238Y-39012666D01*
X66048000Y-38917428D01*
X66000380Y-38774571D01*
X66000380Y-38679333D01*
X66048000Y-38536476D01*
X66095619Y-38488857D01*
X66095619Y-38107904D02*
X66048000Y-38060285D01*
X66000380Y-37965047D01*
X66000380Y-37726952D01*
X66048000Y-37631714D01*
X66095619Y-37584095D01*
X66190857Y-37536476D01*
X66286095Y-37536476D01*
X66428952Y-37584095D01*
X67000380Y-38155523D01*
X67000380Y-37536476D01*
X66333714Y-36679333D02*
X67000380Y-36679333D01*
X65952761Y-36917428D02*
X66667047Y-37155523D01*
X66667047Y-36536476D01*
X73493333Y-47855142D02*
X73445714Y-47902761D01*
X73302857Y-47950380D01*
X73207619Y-47950380D01*
X73064761Y-47902761D01*
X72969523Y-47807523D01*
X72921904Y-47712285D01*
X72874285Y-47521809D01*
X72874285Y-47378952D01*
X72921904Y-47188476D01*
X72969523Y-47093238D01*
X73064761Y-46998000D01*
X73207619Y-46950380D01*
X73302857Y-46950380D01*
X73445714Y-46998000D01*
X73493333Y-47045619D01*
X74445714Y-47950380D02*
X73874285Y-47950380D01*
X74160000Y-47950380D02*
X74160000Y-46950380D01*
X74064761Y-47093238D01*
X73969523Y-47188476D01*
X73874285Y-47236095D01*
X55745142Y-43410142D02*
X55697523Y-43457761D01*
X55554666Y-43505380D01*
X55459428Y-43505380D01*
X55316571Y-43457761D01*
X55221333Y-43362523D01*
X55173714Y-43267285D01*
X55126095Y-43076809D01*
X55126095Y-42933952D01*
X55173714Y-42743476D01*
X55221333Y-42648238D01*
X55316571Y-42553000D01*
X55459428Y-42505380D01*
X55554666Y-42505380D01*
X55697523Y-42553000D01*
X55745142Y-42600619D01*
X56126095Y-42600619D02*
X56173714Y-42553000D01*
X56268952Y-42505380D01*
X56507047Y-42505380D01*
X56602285Y-42553000D01*
X56649904Y-42600619D01*
X56697523Y-42695857D01*
X56697523Y-42791095D01*
X56649904Y-42933952D01*
X56078476Y-43505380D01*
X56697523Y-43505380D01*
X57316571Y-42505380D02*
X57411809Y-42505380D01*
X57507047Y-42553000D01*
X57554666Y-42600619D01*
X57602285Y-42695857D01*
X57649904Y-42886333D01*
X57649904Y-43124428D01*
X57602285Y-43314904D01*
X57554666Y-43410142D01*
X57507047Y-43457761D01*
X57411809Y-43505380D01*
X57316571Y-43505380D01*
X57221333Y-43457761D01*
X57173714Y-43410142D01*
X57126095Y-43314904D01*
X57078476Y-43124428D01*
X57078476Y-42886333D01*
X57126095Y-42695857D01*
X57173714Y-42600619D01*
X57221333Y-42553000D01*
X57316571Y-42505380D01*
X69191142Y-38012666D02*
X69238761Y-38060285D01*
X69286380Y-38203142D01*
X69286380Y-38298380D01*
X69238761Y-38441238D01*
X69143523Y-38536476D01*
X69048285Y-38584095D01*
X68857809Y-38631714D01*
X68714952Y-38631714D01*
X68524476Y-38584095D01*
X68429238Y-38536476D01*
X68334000Y-38441238D01*
X68286380Y-38298380D01*
X68286380Y-38203142D01*
X68334000Y-38060285D01*
X68381619Y-38012666D01*
X68286380Y-37679333D02*
X68286380Y-37012666D01*
X69286380Y-37441238D01*
X55745142Y-51030142D02*
X55697523Y-51077761D01*
X55554666Y-51125380D01*
X55459428Y-51125380D01*
X55316571Y-51077761D01*
X55221333Y-50982523D01*
X55173714Y-50887285D01*
X55126095Y-50696809D01*
X55126095Y-50553952D01*
X55173714Y-50363476D01*
X55221333Y-50268238D01*
X55316571Y-50173000D01*
X55459428Y-50125380D01*
X55554666Y-50125380D01*
X55697523Y-50173000D01*
X55745142Y-50220619D01*
X56126095Y-50220619D02*
X56173714Y-50173000D01*
X56268952Y-50125380D01*
X56507047Y-50125380D01*
X56602285Y-50173000D01*
X56649904Y-50220619D01*
X56697523Y-50315857D01*
X56697523Y-50411095D01*
X56649904Y-50553952D01*
X56078476Y-51125380D01*
X56697523Y-51125380D01*
X57602285Y-50125380D02*
X57126095Y-50125380D01*
X57078476Y-50601571D01*
X57126095Y-50553952D01*
X57221333Y-50506333D01*
X57459428Y-50506333D01*
X57554666Y-50553952D01*
X57602285Y-50601571D01*
X57649904Y-50696809D01*
X57649904Y-50934904D01*
X57602285Y-51030142D01*
X57554666Y-51077761D01*
X57459428Y-51125380D01*
X57221333Y-51125380D01*
X57126095Y-51077761D01*
X57078476Y-51030142D01*
X46855142Y-51157142D02*
X46807523Y-51204761D01*
X46664666Y-51252380D01*
X46569428Y-51252380D01*
X46426571Y-51204761D01*
X46331333Y-51109523D01*
X46283714Y-51014285D01*
X46236095Y-50823809D01*
X46236095Y-50680952D01*
X46283714Y-50490476D01*
X46331333Y-50395238D01*
X46426571Y-50300000D01*
X46569428Y-50252380D01*
X46664666Y-50252380D01*
X46807523Y-50300000D01*
X46855142Y-50347619D01*
X47188476Y-50252380D02*
X47807523Y-50252380D01*
X47474190Y-50633333D01*
X47617047Y-50633333D01*
X47712285Y-50680952D01*
X47759904Y-50728571D01*
X47807523Y-50823809D01*
X47807523Y-51061904D01*
X47759904Y-51157142D01*
X47712285Y-51204761D01*
X47617047Y-51252380D01*
X47331333Y-51252380D01*
X47236095Y-51204761D01*
X47188476Y-51157142D01*
X48140857Y-50252380D02*
X48759904Y-50252380D01*
X48426571Y-50633333D01*
X48569428Y-50633333D01*
X48664666Y-50680952D01*
X48712285Y-50728571D01*
X48759904Y-50823809D01*
X48759904Y-51061904D01*
X48712285Y-51157142D01*
X48664666Y-51204761D01*
X48569428Y-51252380D01*
X48283714Y-51252380D01*
X48188476Y-51204761D01*
X48140857Y-51157142D01*
X73493333Y-45581842D02*
X73445714Y-45629461D01*
X73302857Y-45677080D01*
X73207619Y-45677080D01*
X73064761Y-45629461D01*
X72969523Y-45534223D01*
X72921904Y-45438985D01*
X72874285Y-45248509D01*
X72874285Y-45105652D01*
X72921904Y-44915176D01*
X72969523Y-44819938D01*
X73064761Y-44724700D01*
X73207619Y-44677080D01*
X73302857Y-44677080D01*
X73445714Y-44724700D01*
X73493333Y-44772319D01*
X74350476Y-45010414D02*
X74350476Y-45677080D01*
X74112380Y-44629461D02*
X73874285Y-45343747D01*
X74493333Y-45343747D01*
X67286142Y-54998857D02*
X67333761Y-55046476D01*
X67381380Y-55189333D01*
X67381380Y-55284571D01*
X67333761Y-55427428D01*
X67238523Y-55522666D01*
X67143285Y-55570285D01*
X66952809Y-55617904D01*
X66809952Y-55617904D01*
X66619476Y-55570285D01*
X66524238Y-55522666D01*
X66429000Y-55427428D01*
X66381380Y-55284571D01*
X66381380Y-55189333D01*
X66429000Y-55046476D01*
X66476619Y-54998857D01*
X66476619Y-54617904D02*
X66429000Y-54570285D01*
X66381380Y-54475047D01*
X66381380Y-54236952D01*
X66429000Y-54141714D01*
X66476619Y-54094095D01*
X66571857Y-54046476D01*
X66667095Y-54046476D01*
X66809952Y-54094095D01*
X67381380Y-54665523D01*
X67381380Y-54046476D01*
X66809952Y-53475047D02*
X66762333Y-53570285D01*
X66714714Y-53617904D01*
X66619476Y-53665523D01*
X66571857Y-53665523D01*
X66476619Y-53617904D01*
X66429000Y-53570285D01*
X66381380Y-53475047D01*
X66381380Y-53284571D01*
X66429000Y-53189333D01*
X66476619Y-53141714D01*
X66571857Y-53094095D01*
X66619476Y-53094095D01*
X66714714Y-53141714D01*
X66762333Y-53189333D01*
X66809952Y-53284571D01*
X66809952Y-53475047D01*
X66857571Y-53570285D01*
X66905190Y-53617904D01*
X67000428Y-53665523D01*
X67190904Y-53665523D01*
X67286142Y-53617904D01*
X67333761Y-53570285D01*
X67381380Y-53475047D01*
X67381380Y-53284571D01*
X67333761Y-53189333D01*
X67286142Y-53141714D01*
X67190904Y-53094095D01*
X67000428Y-53094095D01*
X66905190Y-53141714D01*
X66857571Y-53189333D01*
X66809952Y-53284571D01*
X62841380Y-55729095D02*
X61841380Y-55729095D01*
X61841380Y-55491000D01*
X61889000Y-55348142D01*
X61984238Y-55252904D01*
X62079476Y-55205285D01*
X62269952Y-55157666D01*
X62412809Y-55157666D01*
X62603285Y-55205285D01*
X62698523Y-55252904D01*
X62793761Y-55348142D01*
X62841380Y-55491000D01*
X62841380Y-55729095D01*
X62174714Y-54300523D02*
X62841380Y-54300523D01*
X61793761Y-54538619D02*
X62508047Y-54776714D01*
X62508047Y-54157666D01*
X78633333Y-40257142D02*
X78585714Y-40304761D01*
X78442857Y-40352380D01*
X78347619Y-40352380D01*
X78204761Y-40304761D01*
X78109523Y-40209523D01*
X78061904Y-40114285D01*
X78014285Y-39923809D01*
X78014285Y-39780952D01*
X78061904Y-39590476D01*
X78109523Y-39495238D01*
X78204761Y-39400000D01*
X78347619Y-39352380D01*
X78442857Y-39352380D01*
X78585714Y-39400000D01*
X78633333Y-39447619D01*
X79014285Y-39447619D02*
X79061904Y-39400000D01*
X79157142Y-39352380D01*
X79395238Y-39352380D01*
X79490476Y-39400000D01*
X79538095Y-39447619D01*
X79585714Y-39542857D01*
X79585714Y-39638095D01*
X79538095Y-39780952D01*
X78966666Y-40352380D01*
X79585714Y-40352380D01*
X121957142Y-17578142D02*
X121909523Y-17625761D01*
X121766666Y-17673380D01*
X121671428Y-17673380D01*
X121528571Y-17625761D01*
X121433333Y-17530523D01*
X121385714Y-17435285D01*
X121338095Y-17244809D01*
X121338095Y-17101952D01*
X121385714Y-16911476D01*
X121433333Y-16816238D01*
X121528571Y-16721000D01*
X121671428Y-16673380D01*
X121766666Y-16673380D01*
X121909523Y-16721000D01*
X121957142Y-16768619D01*
X122290476Y-16673380D02*
X122909523Y-16673380D01*
X122576190Y-17054333D01*
X122719047Y-17054333D01*
X122814285Y-17101952D01*
X122861904Y-17149571D01*
X122909523Y-17244809D01*
X122909523Y-17482904D01*
X122861904Y-17578142D01*
X122814285Y-17625761D01*
X122719047Y-17673380D01*
X122433333Y-17673380D01*
X122338095Y-17625761D01*
X122290476Y-17578142D01*
X123480952Y-17101952D02*
X123385714Y-17054333D01*
X123338095Y-17006714D01*
X123290476Y-16911476D01*
X123290476Y-16863857D01*
X123338095Y-16768619D01*
X123385714Y-16721000D01*
X123480952Y-16673380D01*
X123671428Y-16673380D01*
X123766666Y-16721000D01*
X123814285Y-16768619D01*
X123861904Y-16863857D01*
X123861904Y-16911476D01*
X123814285Y-17006714D01*
X123766666Y-17054333D01*
X123671428Y-17101952D01*
X123480952Y-17101952D01*
X123385714Y-17149571D01*
X123338095Y-17197190D01*
X123290476Y-17292428D01*
X123290476Y-17482904D01*
X123338095Y-17578142D01*
X123385714Y-17625761D01*
X123480952Y-17673380D01*
X123671428Y-17673380D01*
X123766666Y-17625761D01*
X123814285Y-17578142D01*
X123861904Y-17482904D01*
X123861904Y-17292428D01*
X123814285Y-17197190D01*
X123766666Y-17149571D01*
X123671428Y-17101952D01*
X122182142Y-15773380D02*
X121848809Y-15297190D01*
X121610714Y-15773380D02*
X121610714Y-14773380D01*
X121991666Y-14773380D01*
X122086904Y-14821000D01*
X122134523Y-14868619D01*
X122182142Y-14963857D01*
X122182142Y-15106714D01*
X122134523Y-15201952D01*
X122086904Y-15249571D01*
X121991666Y-15297190D01*
X121610714Y-15297190D01*
X122515476Y-14773380D02*
X123134523Y-14773380D01*
X122801190Y-15154333D01*
X122944047Y-15154333D01*
X123039285Y-15201952D01*
X123086904Y-15249571D01*
X123134523Y-15344809D01*
X123134523Y-15582904D01*
X123086904Y-15678142D01*
X123039285Y-15725761D01*
X122944047Y-15773380D01*
X122658333Y-15773380D01*
X122563095Y-15725761D01*
X122515476Y-15678142D01*
X123753571Y-14773380D02*
X123848809Y-14773380D01*
X123944047Y-14821000D01*
X123991666Y-14868619D01*
X124039285Y-14963857D01*
X124086904Y-15154333D01*
X124086904Y-15392428D01*
X124039285Y-15582904D01*
X123991666Y-15678142D01*
X123944047Y-15725761D01*
X123848809Y-15773380D01*
X123753571Y-15773380D01*
X123658333Y-15725761D01*
X123610714Y-15678142D01*
X123563095Y-15582904D01*
X123515476Y-15392428D01*
X123515476Y-15154333D01*
X123563095Y-14963857D01*
X123610714Y-14868619D01*
X123658333Y-14821000D01*
X123753571Y-14773380D01*
X66714380Y-38076095D02*
X65714380Y-38076095D01*
X65714380Y-37838000D01*
X65762000Y-37695142D01*
X65857238Y-37599904D01*
X65952476Y-37552285D01*
X66142952Y-37504666D01*
X66285809Y-37504666D01*
X66476285Y-37552285D01*
X66571523Y-37599904D01*
X66666761Y-37695142D01*
X66714380Y-37838000D01*
X66714380Y-38076095D01*
X66714380Y-36552285D02*
X66714380Y-37123714D01*
X66714380Y-36838000D02*
X65714380Y-36838000D01*
X65857238Y-36933238D01*
X65952476Y-37028476D01*
X66000095Y-37123714D01*
X33073380Y-61142857D02*
X32597190Y-61476190D01*
X33073380Y-61714285D02*
X32073380Y-61714285D01*
X32073380Y-61333333D01*
X32121000Y-61238095D01*
X32168619Y-61190476D01*
X32263857Y-61142857D01*
X32406714Y-61142857D01*
X32501952Y-61190476D01*
X32549571Y-61238095D01*
X32597190Y-61333333D01*
X32597190Y-61714285D01*
X32168619Y-60761904D02*
X32121000Y-60714285D01*
X32073380Y-60619047D01*
X32073380Y-60380952D01*
X32121000Y-60285714D01*
X32168619Y-60238095D01*
X32263857Y-60190476D01*
X32359095Y-60190476D01*
X32501952Y-60238095D01*
X33073380Y-60809523D01*
X33073380Y-60190476D01*
X32168619Y-59809523D02*
X32121000Y-59761904D01*
X32073380Y-59666666D01*
X32073380Y-59428571D01*
X32121000Y-59333333D01*
X32168619Y-59285714D01*
X32263857Y-59238095D01*
X32359095Y-59238095D01*
X32501952Y-59285714D01*
X33073380Y-59857142D01*
X33073380Y-59238095D01*
X33073380Y-57868857D02*
X32597190Y-58202190D01*
X33073380Y-58440285D02*
X32073380Y-58440285D01*
X32073380Y-58059333D01*
X32121000Y-57964095D01*
X32168619Y-57916476D01*
X32263857Y-57868857D01*
X32406714Y-57868857D01*
X32501952Y-57916476D01*
X32549571Y-57964095D01*
X32597190Y-58059333D01*
X32597190Y-58440285D01*
X32168619Y-57487904D02*
X32121000Y-57440285D01*
X32073380Y-57345047D01*
X32073380Y-57106952D01*
X32121000Y-57011714D01*
X32168619Y-56964095D01*
X32263857Y-56916476D01*
X32359095Y-56916476D01*
X32501952Y-56964095D01*
X33073380Y-57535523D01*
X33073380Y-56916476D01*
X33073380Y-55964095D02*
X33073380Y-56535523D01*
X33073380Y-56249809D02*
X32073380Y-56249809D01*
X32216238Y-56345047D01*
X32311476Y-56440285D01*
X32359095Y-56535523D01*
X52107142Y-36642857D02*
X52154761Y-36690476D01*
X52202380Y-36833333D01*
X52202380Y-36928571D01*
X52154761Y-37071428D01*
X52059523Y-37166666D01*
X51964285Y-37214285D01*
X51773809Y-37261904D01*
X51630952Y-37261904D01*
X51440476Y-37214285D01*
X51345238Y-37166666D01*
X51250000Y-37071428D01*
X51202380Y-36928571D01*
X51202380Y-36833333D01*
X51250000Y-36690476D01*
X51297619Y-36642857D01*
X52202380Y-35690476D02*
X52202380Y-36261904D01*
X52202380Y-35976190D02*
X51202380Y-35976190D01*
X51345238Y-36071428D01*
X51440476Y-36166666D01*
X51488095Y-36261904D01*
X51202380Y-35071428D02*
X51202380Y-34976190D01*
X51250000Y-34880952D01*
X51297619Y-34833333D01*
X51392857Y-34785714D01*
X51583333Y-34738095D01*
X51821428Y-34738095D01*
X52011904Y-34785714D01*
X52107142Y-34833333D01*
X52154761Y-34880952D01*
X52202380Y-34976190D01*
X52202380Y-35071428D01*
X52154761Y-35166666D01*
X52107142Y-35214285D01*
X52011904Y-35261904D01*
X51821428Y-35309523D01*
X51583333Y-35309523D01*
X51392857Y-35261904D01*
X51297619Y-35214285D01*
X51250000Y-35166666D01*
X51202380Y-35071428D01*
X56999142Y-54998857D02*
X57046761Y-55046476D01*
X57094380Y-55189333D01*
X57094380Y-55284571D01*
X57046761Y-55427428D01*
X56951523Y-55522666D01*
X56856285Y-55570285D01*
X56665809Y-55617904D01*
X56522952Y-55617904D01*
X56332476Y-55570285D01*
X56237238Y-55522666D01*
X56142000Y-55427428D01*
X56094380Y-55284571D01*
X56094380Y-55189333D01*
X56142000Y-55046476D01*
X56189619Y-54998857D01*
X56189619Y-54617904D02*
X56142000Y-54570285D01*
X56094380Y-54475047D01*
X56094380Y-54236952D01*
X56142000Y-54141714D01*
X56189619Y-54094095D01*
X56284857Y-54046476D01*
X56380095Y-54046476D01*
X56522952Y-54094095D01*
X57094380Y-54665523D01*
X57094380Y-54046476D01*
X56094380Y-53189333D02*
X56094380Y-53379809D01*
X56142000Y-53475047D01*
X56189619Y-53522666D01*
X56332476Y-53617904D01*
X56522952Y-53665523D01*
X56903904Y-53665523D01*
X56999142Y-53617904D01*
X57046761Y-53570285D01*
X57094380Y-53475047D01*
X57094380Y-53284571D01*
X57046761Y-53189333D01*
X56999142Y-53141714D01*
X56903904Y-53094095D01*
X56665809Y-53094095D01*
X56570571Y-53141714D01*
X56522952Y-53189333D01*
X56475333Y-53284571D01*
X56475333Y-53475047D01*
X56522952Y-53570285D01*
X56570571Y-53617904D01*
X56665809Y-53665523D01*
X50738095Y-57802380D02*
X51309523Y-57802380D01*
X51023809Y-58802380D02*
X51023809Y-57802380D01*
X51642857Y-58802380D02*
X51642857Y-57802380D01*
X52023809Y-57802380D01*
X52119047Y-57850000D01*
X52166666Y-57897619D01*
X52214285Y-57992857D01*
X52214285Y-58135714D01*
X52166666Y-58230952D01*
X52119047Y-58278571D01*
X52023809Y-58326190D01*
X51642857Y-58326190D01*
X52595238Y-57897619D02*
X52642857Y-57850000D01*
X52738095Y-57802380D01*
X52976190Y-57802380D01*
X53071428Y-57850000D01*
X53119047Y-57897619D01*
X53166666Y-57992857D01*
X53166666Y-58088095D01*
X53119047Y-58230952D01*
X52547619Y-58802380D01*
X53166666Y-58802380D01*
X42738095Y-57802380D02*
X43309523Y-57802380D01*
X43023809Y-58802380D02*
X43023809Y-57802380D01*
X43642857Y-58802380D02*
X43642857Y-57802380D01*
X44023809Y-57802380D01*
X44119047Y-57850000D01*
X44166666Y-57897619D01*
X44214285Y-57992857D01*
X44214285Y-58135714D01*
X44166666Y-58230952D01*
X44119047Y-58278571D01*
X44023809Y-58326190D01*
X43642857Y-58326190D01*
X44547619Y-57802380D02*
X45166666Y-57802380D01*
X44833333Y-58183333D01*
X44976190Y-58183333D01*
X45071428Y-58230952D01*
X45119047Y-58278571D01*
X45166666Y-58373809D01*
X45166666Y-58611904D01*
X45119047Y-58707142D01*
X45071428Y-58754761D01*
X44976190Y-58802380D01*
X44690476Y-58802380D01*
X44595238Y-58754761D01*
X44547619Y-58707142D01*
X54738095Y-57802380D02*
X55309523Y-57802380D01*
X55023809Y-58802380D02*
X55023809Y-57802380D01*
X55642857Y-58802380D02*
X55642857Y-57802380D01*
X56023809Y-57802380D01*
X56119047Y-57850000D01*
X56166666Y-57897619D01*
X56214285Y-57992857D01*
X56214285Y-58135714D01*
X56166666Y-58230952D01*
X56119047Y-58278571D01*
X56023809Y-58326190D01*
X55642857Y-58326190D01*
X57071428Y-58135714D02*
X57071428Y-58802380D01*
X56833333Y-57754761D02*
X56595238Y-58469047D01*
X57214285Y-58469047D01*
X68738095Y-57802380D02*
X69309523Y-57802380D01*
X69023809Y-58802380D02*
X69023809Y-57802380D01*
X69642857Y-58802380D02*
X69642857Y-57802380D01*
X70023809Y-57802380D01*
X70119047Y-57850000D01*
X70166666Y-57897619D01*
X70214285Y-57992857D01*
X70214285Y-58135714D01*
X70166666Y-58230952D01*
X70119047Y-58278571D01*
X70023809Y-58326190D01*
X69642857Y-58326190D01*
X71119047Y-57802380D02*
X70642857Y-57802380D01*
X70595238Y-58278571D01*
X70642857Y-58230952D01*
X70738095Y-58183333D01*
X70976190Y-58183333D01*
X71071428Y-58230952D01*
X71119047Y-58278571D01*
X71166666Y-58373809D01*
X71166666Y-58611904D01*
X71119047Y-58707142D01*
X71071428Y-58754761D01*
X70976190Y-58802380D01*
X70738095Y-58802380D01*
X70642857Y-58754761D01*
X70595238Y-58707142D01*
X122038095Y-62452380D02*
X122038095Y-61452380D01*
X122038095Y-61928571D02*
X122609523Y-61928571D01*
X122609523Y-62452380D02*
X122609523Y-61452380D01*
X122990476Y-61452380D02*
X123609523Y-61452380D01*
X123276190Y-61833333D01*
X123419047Y-61833333D01*
X123514285Y-61880952D01*
X123561904Y-61928571D01*
X123609523Y-62023809D01*
X123609523Y-62261904D01*
X123561904Y-62357142D01*
X123514285Y-62404761D01*
X123419047Y-62452380D01*
X123133333Y-62452380D01*
X123038095Y-62404761D01*
X122990476Y-62357142D01*
D12*
X73578571Y-30778571D02*
X73554761Y-30802380D01*
X73483333Y-30826190D01*
X73435714Y-30826190D01*
X73364285Y-30802380D01*
X73316666Y-30754761D01*
X73292857Y-30707142D01*
X73269047Y-30611904D01*
X73269047Y-30540476D01*
X73292857Y-30445238D01*
X73316666Y-30397619D01*
X73364285Y-30350000D01*
X73435714Y-30326190D01*
X73483333Y-30326190D01*
X73554761Y-30350000D01*
X73578571Y-30373809D01*
X74007142Y-30492857D02*
X74007142Y-30826190D01*
X73888095Y-30302380D02*
X73769047Y-30659523D01*
X74078571Y-30659523D01*
X74364285Y-30326190D02*
X74411904Y-30326190D01*
X74459523Y-30350000D01*
X74483333Y-30373809D01*
X74507142Y-30421428D01*
X74530952Y-30516666D01*
X74530952Y-30635714D01*
X74507142Y-30730952D01*
X74483333Y-30778571D01*
X74459523Y-30802380D01*
X74411904Y-30826190D01*
X74364285Y-30826190D01*
X74316666Y-30802380D01*
X74292857Y-30778571D01*
X74269047Y-30730952D01*
X74245238Y-30635714D01*
X74245238Y-30516666D01*
X74269047Y-30421428D01*
X74292857Y-30373809D01*
X74316666Y-30350000D01*
X74364285Y-30326190D01*
D11*
X111152380Y-56242857D02*
X110676190Y-56576190D01*
X111152380Y-56814285D02*
X110152380Y-56814285D01*
X110152380Y-56433333D01*
X110200000Y-56338095D01*
X110247619Y-56290476D01*
X110342857Y-56242857D01*
X110485714Y-56242857D01*
X110580952Y-56290476D01*
X110628571Y-56338095D01*
X110676190Y-56433333D01*
X110676190Y-56814285D01*
X111152380Y-55290476D02*
X111152380Y-55861904D01*
X111152380Y-55576190D02*
X110152380Y-55576190D01*
X110295238Y-55671428D01*
X110390476Y-55766666D01*
X110438095Y-55861904D01*
X110152380Y-54671428D02*
X110152380Y-54576190D01*
X110200000Y-54480952D01*
X110247619Y-54433333D01*
X110342857Y-54385714D01*
X110533333Y-54338095D01*
X110771428Y-54338095D01*
X110961904Y-54385714D01*
X111057142Y-54433333D01*
X111104761Y-54480952D01*
X111152380Y-54576190D01*
X111152380Y-54671428D01*
X111104761Y-54766666D01*
X111057142Y-54814285D01*
X110961904Y-54861904D01*
X110771428Y-54909523D01*
X110533333Y-54909523D01*
X110342857Y-54861904D01*
X110247619Y-54814285D01*
X110200000Y-54766666D01*
X110152380Y-54671428D01*
X73733333Y-29052380D02*
X73400000Y-28576190D01*
X73161904Y-29052380D02*
X73161904Y-28052380D01*
X73542857Y-28052380D01*
X73638095Y-28100000D01*
X73685714Y-28147619D01*
X73733333Y-28242857D01*
X73733333Y-28385714D01*
X73685714Y-28480952D01*
X73638095Y-28528571D01*
X73542857Y-28576190D01*
X73161904Y-28576190D01*
X74590476Y-28385714D02*
X74590476Y-29052380D01*
X74352380Y-28004761D02*
X74114285Y-28719047D01*
X74733333Y-28719047D01*
X73733333Y-27252380D02*
X73400000Y-26776190D01*
X73161904Y-27252380D02*
X73161904Y-26252380D01*
X73542857Y-26252380D01*
X73638095Y-26300000D01*
X73685714Y-26347619D01*
X73733333Y-26442857D01*
X73733333Y-26585714D01*
X73685714Y-26680952D01*
X73638095Y-26728571D01*
X73542857Y-26776190D01*
X73161904Y-26776190D01*
X74590476Y-26252380D02*
X74400000Y-26252380D01*
X74304761Y-26300000D01*
X74257142Y-26347619D01*
X74161904Y-26490476D01*
X74114285Y-26680952D01*
X74114285Y-27061904D01*
X74161904Y-27157142D01*
X74209523Y-27204761D01*
X74304761Y-27252380D01*
X74495238Y-27252380D01*
X74590476Y-27204761D01*
X74638095Y-27157142D01*
X74685714Y-27061904D01*
X74685714Y-26823809D01*
X74638095Y-26728571D01*
X74590476Y-26680952D01*
X74495238Y-26633333D01*
X74304761Y-26633333D01*
X74209523Y-26680952D01*
X74161904Y-26728571D01*
X74114285Y-26823809D01*
X58757142Y-27052380D02*
X58423809Y-26576190D01*
X58185714Y-27052380D02*
X58185714Y-26052380D01*
X58566666Y-26052380D01*
X58661904Y-26100000D01*
X58709523Y-26147619D01*
X58757142Y-26242857D01*
X58757142Y-26385714D01*
X58709523Y-26480952D01*
X58661904Y-26528571D01*
X58566666Y-26576190D01*
X58185714Y-26576190D01*
X59709523Y-27052380D02*
X59138095Y-27052380D01*
X59423809Y-27052380D02*
X59423809Y-26052380D01*
X59328571Y-26195238D01*
X59233333Y-26290476D01*
X59138095Y-26338095D01*
X60566666Y-26385714D02*
X60566666Y-27052380D01*
X60328571Y-26004761D02*
X60090476Y-26719047D01*
X60709523Y-26719047D01*
X58757142Y-25452380D02*
X58423809Y-24976190D01*
X58185714Y-25452380D02*
X58185714Y-24452380D01*
X58566666Y-24452380D01*
X58661904Y-24500000D01*
X58709523Y-24547619D01*
X58757142Y-24642857D01*
X58757142Y-24785714D01*
X58709523Y-24880952D01*
X58661904Y-24928571D01*
X58566666Y-24976190D01*
X58185714Y-24976190D01*
X59709523Y-25452380D02*
X59138095Y-25452380D01*
X59423809Y-25452380D02*
X59423809Y-24452380D01*
X59328571Y-24595238D01*
X59233333Y-24690476D01*
X59138095Y-24738095D01*
X60566666Y-24452380D02*
X60376190Y-24452380D01*
X60280952Y-24500000D01*
X60233333Y-24547619D01*
X60138095Y-24690476D01*
X60090476Y-24880952D01*
X60090476Y-25261904D01*
X60138095Y-25357142D01*
X60185714Y-25404761D01*
X60280952Y-25452380D01*
X60471428Y-25452380D01*
X60566666Y-25404761D01*
X60614285Y-25357142D01*
X60661904Y-25261904D01*
X60661904Y-25023809D01*
X60614285Y-24928571D01*
X60566666Y-24880952D01*
X60471428Y-24833333D01*
X60280952Y-24833333D01*
X60185714Y-24880952D01*
X60138095Y-24928571D01*
X60090476Y-25023809D01*
X46738095Y-57802380D02*
X47309523Y-57802380D01*
X47023809Y-58802380D02*
X47023809Y-57802380D01*
X47642857Y-58802380D02*
X47642857Y-57802380D01*
X48023809Y-57802380D01*
X48119047Y-57850000D01*
X48166666Y-57897619D01*
X48214285Y-57992857D01*
X48214285Y-58135714D01*
X48166666Y-58230952D01*
X48119047Y-58278571D01*
X48023809Y-58326190D01*
X47642857Y-58326190D01*
X49166666Y-58802380D02*
X48595238Y-58802380D01*
X48880952Y-58802380D02*
X48880952Y-57802380D01*
X48785714Y-57945238D01*
X48690476Y-58040476D01*
X48595238Y-58088095D01*
X34852380Y-51379095D02*
X35661904Y-51379095D01*
X35757142Y-51331476D01*
X35804761Y-51283857D01*
X35852380Y-51188619D01*
X35852380Y-50998142D01*
X35804761Y-50902904D01*
X35757142Y-50855285D01*
X35661904Y-50807666D01*
X34852380Y-50807666D01*
X35852380Y-49807666D02*
X35852380Y-50379095D01*
X35852380Y-50093380D02*
X34852380Y-50093380D01*
X34995238Y-50188619D01*
X35090476Y-50283857D01*
X35138095Y-50379095D01*
X35852380Y-48855285D02*
X35852380Y-49426714D01*
X35852380Y-49141000D02*
X34852380Y-49141000D01*
X34995238Y-49236238D01*
X35090476Y-49331476D01*
X35138095Y-49426714D01*
X34152380Y-42414285D02*
X33152380Y-42414285D01*
X33152380Y-42176190D01*
X33200000Y-42033333D01*
X33295238Y-41938095D01*
X33390476Y-41890476D01*
X33580952Y-41842857D01*
X33723809Y-41842857D01*
X33914285Y-41890476D01*
X34009523Y-41938095D01*
X34104761Y-42033333D01*
X34152380Y-42176190D01*
X34152380Y-42414285D01*
X34152380Y-40890476D02*
X34152380Y-41461904D01*
X34152380Y-41176190D02*
X33152380Y-41176190D01*
X33295238Y-41271428D01*
X33390476Y-41366666D01*
X33438095Y-41461904D01*
X33152380Y-40271428D02*
X33152380Y-40176190D01*
X33200000Y-40080952D01*
X33247619Y-40033333D01*
X33342857Y-39985714D01*
X33533333Y-39938095D01*
X33771428Y-39938095D01*
X33961904Y-39985714D01*
X34057142Y-40033333D01*
X34104761Y-40080952D01*
X34152380Y-40176190D01*
X34152380Y-40271428D01*
X34104761Y-40366666D01*
X34057142Y-40414285D01*
X33961904Y-40461904D01*
X33771428Y-40509523D01*
X33533333Y-40509523D01*
X33342857Y-40461904D01*
X33247619Y-40414285D01*
X33200000Y-40366666D01*
X33152380Y-40271428D01*
X36183333Y-45602380D02*
X35850000Y-45126190D01*
X35611904Y-45602380D02*
X35611904Y-44602380D01*
X35992857Y-44602380D01*
X36088095Y-44650000D01*
X36135714Y-44697619D01*
X36183333Y-44792857D01*
X36183333Y-44935714D01*
X36135714Y-45030952D01*
X36088095Y-45078571D01*
X35992857Y-45126190D01*
X35611904Y-45126190D01*
X36659523Y-45602380D02*
X36850000Y-45602380D01*
X36945238Y-45554761D01*
X36992857Y-45507142D01*
X37088095Y-45364285D01*
X37135714Y-45173809D01*
X37135714Y-44792857D01*
X37088095Y-44697619D01*
X37040476Y-44650000D01*
X36945238Y-44602380D01*
X36754761Y-44602380D01*
X36659523Y-44650000D01*
X36611904Y-44697619D01*
X36564285Y-44792857D01*
X36564285Y-45030952D01*
X36611904Y-45126190D01*
X36659523Y-45173809D01*
X36754761Y-45221428D01*
X36945238Y-45221428D01*
X37040476Y-45173809D01*
X37088095Y-45126190D01*
X37135714Y-45030952D01*
X27038095Y-62452380D02*
X27038095Y-61452380D01*
X27038095Y-61928571D02*
X27609523Y-61928571D01*
X27609523Y-62452380D02*
X27609523Y-61452380D01*
X28038095Y-61547619D02*
X28085714Y-61500000D01*
X28180952Y-61452380D01*
X28419047Y-61452380D01*
X28514285Y-61500000D01*
X28561904Y-61547619D01*
X28609523Y-61642857D01*
X28609523Y-61738095D01*
X28561904Y-61880952D01*
X27990476Y-62452380D01*
X28609523Y-62452380D01*
X26802380Y-50878333D02*
X27516666Y-50878333D01*
X27659523Y-50925952D01*
X27754761Y-51021190D01*
X27802380Y-51164047D01*
X27802380Y-51259285D01*
X26802380Y-49925952D02*
X26802380Y-50402142D01*
X27278571Y-50449761D01*
X27230952Y-50402142D01*
X27183333Y-50306904D01*
X27183333Y-50068809D01*
X27230952Y-49973571D01*
X27278571Y-49925952D01*
X27373809Y-49878333D01*
X27611904Y-49878333D01*
X27707142Y-49925952D01*
X27754761Y-49973571D01*
X27802380Y-50068809D01*
X27802380Y-50306904D01*
X27754761Y-50402142D01*
X27707142Y-50449761D01*
D13*
X41895238Y-38580952D02*
X41895238Y-38904761D01*
X41914285Y-38942857D01*
X41933333Y-38961904D01*
X41971428Y-38980952D01*
X42047619Y-38980952D01*
X42085714Y-38961904D01*
X42104761Y-38942857D01*
X42123809Y-38904761D01*
X42123809Y-38580952D01*
X42504761Y-38580952D02*
X42314285Y-38580952D01*
X42295238Y-38771428D01*
X42314285Y-38752380D01*
X42352380Y-38733333D01*
X42447619Y-38733333D01*
X42485714Y-38752380D01*
X42504761Y-38771428D01*
X42523809Y-38809523D01*
X42523809Y-38904761D01*
X42504761Y-38942857D01*
X42485714Y-38961904D01*
X42447619Y-38980952D01*
X42352380Y-38980952D01*
X42314285Y-38961904D01*
X42295238Y-38942857D01*
D14*
X38126190Y-29380952D02*
X38530952Y-29380952D01*
X38578571Y-29357142D01*
X38602380Y-29333333D01*
X38626190Y-29285714D01*
X38626190Y-29190476D01*
X38602380Y-29142857D01*
X38578571Y-29119047D01*
X38530952Y-29095238D01*
X38126190Y-29095238D01*
X38292857Y-28642857D02*
X38626190Y-28642857D01*
X38102380Y-28761904D02*
X38459523Y-28880952D01*
X38459523Y-28571428D01*
D12*
X38078571Y-32678571D02*
X38054761Y-32702380D01*
X37983333Y-32726190D01*
X37935714Y-32726190D01*
X37864285Y-32702380D01*
X37816666Y-32654761D01*
X37792857Y-32607142D01*
X37769047Y-32511904D01*
X37769047Y-32440476D01*
X37792857Y-32345238D01*
X37816666Y-32297619D01*
X37864285Y-32250000D01*
X37935714Y-32226190D01*
X37983333Y-32226190D01*
X38054761Y-32250000D01*
X38078571Y-32273809D01*
X38507142Y-32392857D02*
X38507142Y-32726190D01*
X38388095Y-32202380D02*
X38269047Y-32559523D01*
X38578571Y-32559523D01*
X38745238Y-32273809D02*
X38769047Y-32250000D01*
X38816666Y-32226190D01*
X38935714Y-32226190D01*
X38983333Y-32250000D01*
X39007142Y-32273809D01*
X39030952Y-32321428D01*
X39030952Y-32369047D01*
X39007142Y-32440476D01*
X38721428Y-32726190D01*
X39030952Y-32726190D01*
D15*
X31919523Y-42625238D02*
X31889047Y-42610000D01*
X31858571Y-42579523D01*
X31812857Y-42533809D01*
X31782380Y-42518571D01*
X31751904Y-42518571D01*
X31767142Y-42594761D02*
X31736666Y-42579523D01*
X31706190Y-42549047D01*
X31690952Y-42488095D01*
X31690952Y-42381428D01*
X31706190Y-42320476D01*
X31736666Y-42290000D01*
X31767142Y-42274761D01*
X31828095Y-42274761D01*
X31858571Y-42290000D01*
X31889047Y-42320476D01*
X31904285Y-42381428D01*
X31904285Y-42488095D01*
X31889047Y-42549047D01*
X31858571Y-42579523D01*
X31828095Y-42594761D01*
X31767142Y-42594761D01*
X32209047Y-42594761D02*
X32026190Y-42594761D01*
X32117619Y-42594761D02*
X32117619Y-42274761D01*
X32087142Y-42320476D01*
X32056666Y-42350952D01*
X32026190Y-42366190D01*
D12*
X88478571Y-22321428D02*
X88502380Y-22345238D01*
X88526190Y-22416666D01*
X88526190Y-22464285D01*
X88502380Y-22535714D01*
X88454761Y-22583333D01*
X88407142Y-22607142D01*
X88311904Y-22630952D01*
X88240476Y-22630952D01*
X88145238Y-22607142D01*
X88097619Y-22583333D01*
X88050000Y-22535714D01*
X88026190Y-22464285D01*
X88026190Y-22416666D01*
X88050000Y-22345238D01*
X88073809Y-22321428D01*
X88073809Y-22130952D02*
X88050000Y-22107142D01*
X88026190Y-22059523D01*
X88026190Y-21940476D01*
X88050000Y-21892857D01*
X88073809Y-21869047D01*
X88121428Y-21845238D01*
X88169047Y-21845238D01*
X88240476Y-21869047D01*
X88526190Y-22154761D01*
X88526190Y-21845238D01*
X88526190Y-21369047D02*
X88526190Y-21654761D01*
X88526190Y-21511904D02*
X88026190Y-21511904D01*
X88097619Y-21559523D01*
X88145238Y-21607142D01*
X88169047Y-21654761D01*
D11*
X26552380Y-19438333D02*
X27266666Y-19438333D01*
X27409523Y-19485952D01*
X27504761Y-19581190D01*
X27552380Y-19724047D01*
X27552380Y-19819285D01*
X26552380Y-19057380D02*
X26552380Y-18438333D01*
X26933333Y-18771666D01*
X26933333Y-18628809D01*
X26980952Y-18533571D01*
X27028571Y-18485952D01*
X27123809Y-18438333D01*
X27361904Y-18438333D01*
X27457142Y-18485952D01*
X27504761Y-18533571D01*
X27552380Y-18628809D01*
X27552380Y-18914523D01*
X27504761Y-19009761D01*
X27457142Y-19057380D01*
X84613333Y-29346666D02*
X85406666Y-29346666D01*
X85500000Y-29300000D01*
X85546666Y-29253333D01*
X85593333Y-29160000D01*
X85593333Y-28973333D01*
X85546666Y-28880000D01*
X85500000Y-28833333D01*
X85406666Y-28786666D01*
X84613333Y-28786666D01*
X84613333Y-28413333D02*
X84613333Y-27760000D01*
X85593333Y-28180000D01*
D13*
X37780952Y-25066666D02*
X37590476Y-25200000D01*
X37780952Y-25295238D02*
X37380952Y-25295238D01*
X37380952Y-25142857D01*
X37400000Y-25104761D01*
X37419047Y-25085714D01*
X37457142Y-25066666D01*
X37514285Y-25066666D01*
X37552380Y-25085714D01*
X37571428Y-25104761D01*
X37590476Y-25142857D01*
X37590476Y-25295238D01*
X37380952Y-24933333D02*
X37380952Y-24666666D01*
X37780952Y-24838095D01*
X29992857Y-39080952D02*
X29859523Y-38890476D01*
X29764285Y-39080952D02*
X29764285Y-38680952D01*
X29916666Y-38680952D01*
X29954761Y-38700000D01*
X29973809Y-38719047D01*
X29992857Y-38757142D01*
X29992857Y-38814285D01*
X29973809Y-38852380D01*
X29954761Y-38871428D01*
X29916666Y-38890476D01*
X29764285Y-38890476D01*
X30126190Y-38680952D02*
X30373809Y-38680952D01*
X30240476Y-38833333D01*
X30297619Y-38833333D01*
X30335714Y-38852380D01*
X30354761Y-38871428D01*
X30373809Y-38909523D01*
X30373809Y-39004761D01*
X30354761Y-39042857D01*
X30335714Y-39061904D01*
X30297619Y-39080952D01*
X30183333Y-39080952D01*
X30145238Y-39061904D01*
X30126190Y-39042857D01*
X30754761Y-39080952D02*
X30526190Y-39080952D01*
X30640476Y-39080952D02*
X30640476Y-38680952D01*
X30602380Y-38738095D01*
X30564285Y-38776190D01*
X30526190Y-38795238D01*
X73642857Y-23530952D02*
X73509523Y-23340476D01*
X73414285Y-23530952D02*
X73414285Y-23130952D01*
X73566666Y-23130952D01*
X73604761Y-23150000D01*
X73623809Y-23169047D01*
X73642857Y-23207142D01*
X73642857Y-23264285D01*
X73623809Y-23302380D01*
X73604761Y-23321428D01*
X73566666Y-23340476D01*
X73414285Y-23340476D01*
X73776190Y-23130952D02*
X74023809Y-23130952D01*
X73890476Y-23283333D01*
X73947619Y-23283333D01*
X73985714Y-23302380D01*
X74004761Y-23321428D01*
X74023809Y-23359523D01*
X74023809Y-23454761D01*
X74004761Y-23492857D01*
X73985714Y-23511904D01*
X73947619Y-23530952D01*
X73833333Y-23530952D01*
X73795238Y-23511904D01*
X73776190Y-23492857D01*
X74157142Y-23130952D02*
X74404761Y-23130952D01*
X74271428Y-23283333D01*
X74328571Y-23283333D01*
X74366666Y-23302380D01*
X74385714Y-23321428D01*
X74404761Y-23359523D01*
X74404761Y-23454761D01*
X74385714Y-23492857D01*
X74366666Y-23511904D01*
X74328571Y-23530952D01*
X74214285Y-23530952D01*
X74176190Y-23511904D01*
X74157142Y-23492857D01*
X78580952Y-43704761D02*
X78904761Y-43704761D01*
X78942857Y-43685714D01*
X78961904Y-43666666D01*
X78980952Y-43628571D01*
X78980952Y-43552380D01*
X78961904Y-43514285D01*
X78942857Y-43495238D01*
X78904761Y-43476190D01*
X78580952Y-43476190D01*
X78980952Y-43076190D02*
X78980952Y-43304761D01*
X78980952Y-43190476D02*
X78580952Y-43190476D01*
X78638095Y-43228571D01*
X78676190Y-43266666D01*
X78695238Y-43304761D01*
D12*
X81978571Y-22321428D02*
X82002380Y-22345238D01*
X82026190Y-22416666D01*
X82026190Y-22464285D01*
X82002380Y-22535714D01*
X81954761Y-22583333D01*
X81907142Y-22607142D01*
X81811904Y-22630952D01*
X81740476Y-22630952D01*
X81645238Y-22607142D01*
X81597619Y-22583333D01*
X81550000Y-22535714D01*
X81526190Y-22464285D01*
X81526190Y-22416666D01*
X81550000Y-22345238D01*
X81573809Y-22321428D01*
X81692857Y-21892857D02*
X82026190Y-21892857D01*
X81502380Y-22011904D02*
X81859523Y-22130952D01*
X81859523Y-21821428D01*
X82026190Y-21369047D02*
X82026190Y-21654761D01*
X82026190Y-21511904D02*
X81526190Y-21511904D01*
X81597619Y-21559523D01*
X81645238Y-21607142D01*
X81669047Y-21654761D01*
D13*
X81680952Y-28732142D02*
X81490476Y-28865476D01*
X81680952Y-28960714D02*
X81280952Y-28960714D01*
X81280952Y-28808333D01*
X81300000Y-28770238D01*
X81319047Y-28751190D01*
X81357142Y-28732142D01*
X81414285Y-28732142D01*
X81452380Y-28751190D01*
X81471428Y-28770238D01*
X81490476Y-28808333D01*
X81490476Y-28960714D01*
X81280952Y-28598809D02*
X81280952Y-28351190D01*
X81433333Y-28484523D01*
X81433333Y-28427380D01*
X81452380Y-28389285D01*
X81471428Y-28370238D01*
X81509523Y-28351190D01*
X81604761Y-28351190D01*
X81642857Y-28370238D01*
X81661904Y-28389285D01*
X81680952Y-28427380D01*
X81680952Y-28541666D01*
X81661904Y-28579761D01*
X81642857Y-28598809D01*
X81319047Y-28198809D02*
X81300000Y-28179761D01*
X81280952Y-28141666D01*
X81280952Y-28046428D01*
X81300000Y-28008333D01*
X81319047Y-27989285D01*
X81357142Y-27970238D01*
X81395238Y-27970238D01*
X81452380Y-27989285D01*
X81680952Y-28217857D01*
X81680952Y-27970238D01*
D12*
X41978571Y-41878571D02*
X41954761Y-41902380D01*
X41883333Y-41926190D01*
X41835714Y-41926190D01*
X41764285Y-41902380D01*
X41716666Y-41854761D01*
X41692857Y-41807142D01*
X41669047Y-41711904D01*
X41669047Y-41640476D01*
X41692857Y-41545238D01*
X41716666Y-41497619D01*
X41764285Y-41450000D01*
X41835714Y-41426190D01*
X41883333Y-41426190D01*
X41954761Y-41450000D01*
X41978571Y-41473809D01*
X42454761Y-41926190D02*
X42169047Y-41926190D01*
X42311904Y-41926190D02*
X42311904Y-41426190D01*
X42264285Y-41497619D01*
X42216666Y-41545238D01*
X42169047Y-41569047D01*
X42621428Y-41426190D02*
X42930952Y-41426190D01*
X42764285Y-41616666D01*
X42835714Y-41616666D01*
X42883333Y-41640476D01*
X42907142Y-41664285D01*
X42930952Y-41711904D01*
X42930952Y-41830952D01*
X42907142Y-41878571D01*
X42883333Y-41902380D01*
X42835714Y-41926190D01*
X42692857Y-41926190D01*
X42645238Y-41902380D01*
X42621428Y-41878571D01*
X30778571Y-57771428D02*
X30802380Y-57795238D01*
X30826190Y-57866666D01*
X30826190Y-57914285D01*
X30802380Y-57985714D01*
X30754761Y-58033333D01*
X30707142Y-58057142D01*
X30611904Y-58080952D01*
X30540476Y-58080952D01*
X30445238Y-58057142D01*
X30397619Y-58033333D01*
X30350000Y-57985714D01*
X30326190Y-57914285D01*
X30326190Y-57866666D01*
X30350000Y-57795238D01*
X30373809Y-57771428D01*
X30826190Y-57295238D02*
X30826190Y-57580952D01*
X30826190Y-57438095D02*
X30326190Y-57438095D01*
X30397619Y-57485714D01*
X30445238Y-57533333D01*
X30469047Y-57580952D01*
X30326190Y-56866666D02*
X30326190Y-56961904D01*
X30350000Y-57009523D01*
X30373809Y-57033333D01*
X30445238Y-57080952D01*
X30540476Y-57104761D01*
X30730952Y-57104761D01*
X30778571Y-57080952D01*
X30802380Y-57057142D01*
X30826190Y-57009523D01*
X30826190Y-56914285D01*
X30802380Y-56866666D01*
X30778571Y-56842857D01*
X30730952Y-56819047D01*
X30611904Y-56819047D01*
X30564285Y-56842857D01*
X30540476Y-56866666D01*
X30516666Y-56914285D01*
X30516666Y-57009523D01*
X30540476Y-57057142D01*
X30564285Y-57080952D01*
X30611904Y-57104761D01*
D11*
X122388380Y-39703333D02*
X123102666Y-39703333D01*
X123245523Y-39750952D01*
X123340761Y-39846190D01*
X123388380Y-39989047D01*
X123388380Y-40084285D01*
X122388380Y-38798571D02*
X122388380Y-38989047D01*
X122436000Y-39084285D01*
X122483619Y-39131904D01*
X122626476Y-39227142D01*
X122816952Y-39274761D01*
X123197904Y-39274761D01*
X123293142Y-39227142D01*
X123340761Y-39179523D01*
X123388380Y-39084285D01*
X123388380Y-38893809D01*
X123340761Y-38798571D01*
X123293142Y-38750952D01*
X123197904Y-38703333D01*
X122959809Y-38703333D01*
X122864571Y-38750952D01*
X122816952Y-38798571D01*
X122769333Y-38893809D01*
X122769333Y-39084285D01*
X122816952Y-39179523D01*
X122864571Y-39227142D01*
X122959809Y-39274761D01*
D13*
X37780952Y-36366666D02*
X37590476Y-36500000D01*
X37780952Y-36595238D02*
X37380952Y-36595238D01*
X37380952Y-36442857D01*
X37400000Y-36404761D01*
X37419047Y-36385714D01*
X37457142Y-36366666D01*
X37514285Y-36366666D01*
X37552380Y-36385714D01*
X37571428Y-36404761D01*
X37590476Y-36442857D01*
X37590476Y-36595238D01*
X37419047Y-36214285D02*
X37400000Y-36195238D01*
X37380952Y-36157142D01*
X37380952Y-36061904D01*
X37400000Y-36023809D01*
X37419047Y-36004761D01*
X37457142Y-35985714D01*
X37495238Y-35985714D01*
X37552380Y-36004761D01*
X37780952Y-36233333D01*
X37780952Y-35985714D01*
D11*
X79636666Y-10752380D02*
X79636666Y-11466666D01*
X79589047Y-11609523D01*
X79493809Y-11704761D01*
X79350952Y-11752380D01*
X79255714Y-11752380D01*
X80017619Y-10752380D02*
X80684285Y-10752380D01*
X80255714Y-11752380D01*
X46781666Y-10752380D02*
X46781666Y-11466666D01*
X46734047Y-11609523D01*
X46638809Y-11704761D01*
X46495952Y-11752380D01*
X46400714Y-11752380D01*
X47210238Y-10847619D02*
X47257857Y-10800000D01*
X47353095Y-10752380D01*
X47591190Y-10752380D01*
X47686428Y-10800000D01*
X47734047Y-10847619D01*
X47781666Y-10942857D01*
X47781666Y-11038095D01*
X47734047Y-11180952D01*
X47162619Y-11752380D01*
X47781666Y-11752380D01*
X26738095Y-12452380D02*
X26738095Y-11452380D01*
X26738095Y-11928571D02*
X27309523Y-11928571D01*
X27309523Y-12452380D02*
X27309523Y-11452380D01*
X28214285Y-11785714D02*
X28214285Y-12452380D01*
X27976190Y-11404761D02*
X27738095Y-12119047D01*
X28357142Y-12119047D01*
D12*
X89578571Y-30721428D02*
X89602380Y-30745238D01*
X89626190Y-30816666D01*
X89626190Y-30864285D01*
X89602380Y-30935714D01*
X89554761Y-30983333D01*
X89507142Y-31007142D01*
X89411904Y-31030952D01*
X89340476Y-31030952D01*
X89245238Y-31007142D01*
X89197619Y-30983333D01*
X89150000Y-30935714D01*
X89126190Y-30864285D01*
X89126190Y-30816666D01*
X89150000Y-30745238D01*
X89173809Y-30721428D01*
X89126190Y-30554761D02*
X89126190Y-30245238D01*
X89316666Y-30411904D01*
X89316666Y-30340476D01*
X89340476Y-30292857D01*
X89364285Y-30269047D01*
X89411904Y-30245238D01*
X89530952Y-30245238D01*
X89578571Y-30269047D01*
X89602380Y-30292857D01*
X89626190Y-30340476D01*
X89626190Y-30483333D01*
X89602380Y-30530952D01*
X89578571Y-30554761D01*
X89626190Y-30007142D02*
X89626190Y-29911904D01*
X89602380Y-29864285D01*
X89578571Y-29840476D01*
X89507142Y-29792857D01*
X89411904Y-29769047D01*
X89221428Y-29769047D01*
X89173809Y-29792857D01*
X89150000Y-29816666D01*
X89126190Y-29864285D01*
X89126190Y-29959523D01*
X89150000Y-30007142D01*
X89173809Y-30030952D01*
X89221428Y-30054761D01*
X89340476Y-30054761D01*
X89388095Y-30030952D01*
X89411904Y-30007142D01*
X89435714Y-29959523D01*
X89435714Y-29864285D01*
X89411904Y-29816666D01*
X89388095Y-29792857D01*
X89340476Y-29769047D01*
D11*
X44153333Y-26663333D02*
X44153333Y-27456666D01*
X44200000Y-27550000D01*
X44246666Y-27596666D01*
X44340000Y-27643333D01*
X44526666Y-27643333D01*
X44620000Y-27596666D01*
X44666666Y-27550000D01*
X44713333Y-27456666D01*
X44713333Y-26663333D01*
X45226666Y-27643333D02*
X45413333Y-27643333D01*
X45506666Y-27596666D01*
X45553333Y-27550000D01*
X45646666Y-27410000D01*
X45693333Y-27223333D01*
X45693333Y-26850000D01*
X45646666Y-26756666D01*
X45600000Y-26710000D01*
X45506666Y-26663333D01*
X45320000Y-26663333D01*
X45226666Y-26710000D01*
X45180000Y-26756666D01*
X45133333Y-26850000D01*
X45133333Y-27083333D01*
X45180000Y-27176666D01*
X45226666Y-27223333D01*
X45320000Y-27270000D01*
X45506666Y-27270000D01*
X45600000Y-27223333D01*
X45646666Y-27176666D01*
X45693333Y-27083333D01*
X28592380Y-30633333D02*
X29306666Y-30633333D01*
X29449523Y-30680952D01*
X29544761Y-30776190D01*
X29592380Y-30919047D01*
X29592380Y-31014285D01*
X29592380Y-29633333D02*
X29592380Y-30204761D01*
X29592380Y-29919047D02*
X28592380Y-29919047D01*
X28735238Y-30014285D01*
X28830476Y-30109523D01*
X28878095Y-30204761D01*
D12*
X41878571Y-36078571D02*
X41854761Y-36102380D01*
X41783333Y-36126190D01*
X41735714Y-36126190D01*
X41664285Y-36102380D01*
X41616666Y-36054761D01*
X41592857Y-36007142D01*
X41569047Y-35911904D01*
X41569047Y-35840476D01*
X41592857Y-35745238D01*
X41616666Y-35697619D01*
X41664285Y-35650000D01*
X41735714Y-35626190D01*
X41783333Y-35626190D01*
X41854761Y-35650000D01*
X41878571Y-35673809D01*
X42354761Y-36126190D02*
X42069047Y-36126190D01*
X42211904Y-36126190D02*
X42211904Y-35626190D01*
X42164285Y-35697619D01*
X42116666Y-35745238D01*
X42069047Y-35769047D01*
X42783333Y-35792857D02*
X42783333Y-36126190D01*
X42664285Y-35602380D02*
X42545238Y-35959523D01*
X42854761Y-35959523D01*
D11*
X26952380Y-43338095D02*
X25952380Y-43338095D01*
X25952380Y-43100000D01*
X26000000Y-42957142D01*
X26095238Y-42861904D01*
X26190476Y-42814285D01*
X26380952Y-42766666D01*
X26523809Y-42766666D01*
X26714285Y-42814285D01*
X26809523Y-42861904D01*
X26904761Y-42957142D01*
X26952380Y-43100000D01*
X26952380Y-43338095D01*
X25952380Y-42433333D02*
X25952380Y-41766666D01*
X26952380Y-42195238D01*
X84573809Y-20526190D02*
X84573809Y-21002380D01*
X84240476Y-20002380D02*
X84573809Y-20526190D01*
X84907142Y-20002380D01*
X85764285Y-21002380D02*
X85192857Y-21002380D01*
X85478571Y-21002380D02*
X85478571Y-20002380D01*
X85383333Y-20145238D01*
X85288095Y-20240476D01*
X85192857Y-20288095D01*
D16*
X119150000Y-50150000D02*
X119150000Y-50650000D01*
X119150000Y-27750000D02*
X119850000Y-27750000D01*
X119850000Y-27750000D02*
X119850000Y-39200000D01*
X114250000Y-39200000D02*
X114250000Y-27650000D01*
X114250000Y-39200000D02*
X114250000Y-50750000D01*
X118850000Y-50750000D02*
X118850000Y-50150000D01*
X119850000Y-50650000D02*
X119850000Y-39200000D01*
X119150000Y-50650000D02*
X119850000Y-50650000D01*
X118850000Y-27650000D02*
X118850000Y-28250000D01*
X118850000Y-50150000D02*
X119150000Y-50150000D01*
X114250000Y-50750000D02*
X118850000Y-50750000D01*
X114250000Y-27650000D02*
X118850000Y-27650000D01*
X114250000Y-49450000D02*
X114957107Y-48950000D01*
X114957107Y-48950000D02*
X114250000Y-48450000D01*
X118850000Y-28250000D02*
X119150000Y-28250000D01*
X119150000Y-28250000D02*
X119150000Y-27750000D01*
X74700000Y-24687500D02*
X74700000Y-25512500D01*
X73100000Y-24687500D02*
X74700000Y-24687500D01*
X74700000Y-25512500D02*
X73100000Y-25512500D01*
X73100000Y-25512500D02*
X73100000Y-24687500D01*
X50280000Y-22375000D02*
X50280000Y-21525000D01*
X50850000Y-22925000D02*
X53300000Y-22925000D01*
X50850000Y-22925000D02*
X50280000Y-22375000D01*
X53320000Y-22925000D02*
X53320000Y-21525000D01*
X50280000Y-21525000D02*
X53320000Y-21525000D01*
X51312500Y-24925000D02*
X51312500Y-26525000D01*
X50487500Y-24925000D02*
X51312500Y-24925000D01*
X50487500Y-26525000D02*
X50487500Y-24925000D01*
X51312500Y-26525000D02*
X50487500Y-26525000D01*
X52912500Y-26525000D02*
X52087500Y-26525000D01*
X52912500Y-24925000D02*
X52912500Y-26525000D01*
X52087500Y-24925000D02*
X52912500Y-24925000D01*
X52087500Y-26525000D02*
X52087500Y-24925000D01*
X52650000Y-28500000D02*
X53220000Y-29050000D01*
X52650000Y-28500000D02*
X50200000Y-28500000D01*
X53220000Y-29900000D02*
X50180000Y-29900000D01*
X50180000Y-28500000D02*
X50180000Y-29900000D01*
X53220000Y-29050000D02*
X53220000Y-29900000D01*
X79750000Y-46175000D02*
X79750000Y-47425000D01*
X77750000Y-46175000D02*
X79750000Y-46175000D01*
X77750000Y-47425000D02*
X77750000Y-46175000D01*
X79750000Y-47425000D02*
X77750000Y-47425000D01*
X35225000Y-55750000D02*
X35225000Y-57750000D01*
X35225000Y-57750000D02*
X33975000Y-57750000D01*
X33975000Y-57750000D02*
X33975000Y-55750000D01*
X33975000Y-55750000D02*
X35225000Y-55750000D01*
X38858000Y-59599500D02*
X38858000Y-61599500D01*
X39758000Y-59599500D02*
X38858000Y-59599500D01*
X40058000Y-59899500D02*
X39758000Y-59599500D01*
X40058000Y-61599500D02*
X40058000Y-59899500D01*
X38858000Y-61599500D02*
X40058000Y-61599500D01*
X37562500Y-56200000D02*
X37562500Y-57800000D01*
X36737500Y-56200000D02*
X37562500Y-56200000D01*
X36737500Y-57800000D02*
X36737500Y-56200000D01*
X37562500Y-57800000D02*
X36737500Y-57800000D01*
X39045500Y-57800000D02*
X39045500Y-56200000D01*
X39045500Y-56200000D02*
X39870500Y-56200000D01*
X39870500Y-56200000D02*
X39870500Y-57800000D01*
X39870500Y-57800000D02*
X39045500Y-57800000D01*
X36445000Y-61599500D02*
X37645000Y-61599500D01*
X36445000Y-59599500D02*
X36445000Y-61599500D01*
X37345000Y-59599500D02*
X36445000Y-59599500D01*
X37645000Y-59899500D02*
X37345000Y-59599500D01*
X37645000Y-61599500D02*
X37645000Y-59899500D01*
X112575000Y-58900000D02*
X113825000Y-58900000D01*
X112575000Y-60900000D02*
X112575000Y-58900000D01*
X113825000Y-60900000D02*
X112575000Y-60900000D01*
X113825000Y-58900000D02*
X113825000Y-60900000D01*
X35225000Y-61550000D02*
X33975000Y-61550000D01*
X33975000Y-59550000D02*
X35225000Y-59550000D01*
X35225000Y-59550000D02*
X35225000Y-61550000D01*
X33975000Y-61550000D02*
X33975000Y-59550000D01*
X74660000Y-51445000D02*
X74660000Y-52695000D01*
X74660000Y-52695000D02*
X72660000Y-52695000D01*
X72660000Y-51445000D02*
X74660000Y-51445000D01*
X72660000Y-52695000D02*
X72660000Y-51445000D01*
X118925000Y-54300000D02*
X118925000Y-56300000D01*
X117675000Y-56300000D02*
X117675000Y-54300000D01*
X118925000Y-56300000D02*
X117675000Y-56300000D01*
X117675000Y-54300000D02*
X118925000Y-54300000D01*
X115625000Y-63800000D02*
X115625000Y-62200000D01*
X115625000Y-62200000D02*
X118825000Y-62200000D01*
X118825000Y-62200000D02*
X118825000Y-63800000D01*
X118825000Y-63800000D02*
X115625000Y-63800000D01*
X121647000Y-21655000D02*
X121647000Y-20405000D01*
X123647000Y-20405000D02*
X123647000Y-21655000D01*
X121647000Y-20405000D02*
X123647000Y-20405000D01*
X123647000Y-21655000D02*
X121647000Y-21655000D01*
X123600000Y-54700000D02*
X123600000Y-56300000D01*
X120400000Y-56300000D02*
X120400000Y-54700000D01*
X120400000Y-54700000D02*
X123600000Y-54700000D01*
X123600000Y-56300000D02*
X120400000Y-56300000D01*
X123650000Y-25582000D02*
X121650000Y-25582000D01*
X121650000Y-24332000D02*
X123650000Y-24332000D01*
X121650000Y-25582000D02*
X121650000Y-24332000D01*
X123650000Y-24332000D02*
X123650000Y-25582000D01*
X60200000Y-22987500D02*
X60200000Y-23812500D01*
X58600000Y-22987500D02*
X60200000Y-22987500D01*
X60200000Y-23812500D02*
X58600000Y-23812500D01*
X58600000Y-23812500D02*
X58600000Y-22987500D01*
X71668700Y-56646600D02*
X71668700Y-55046600D01*
X72493700Y-56646600D02*
X71668700Y-56646600D01*
X72493700Y-55046600D02*
X72493700Y-56646600D01*
X71668700Y-55046600D02*
X72493700Y-55046600D01*
X116425000Y-60587500D02*
X118025000Y-60587500D01*
X118025000Y-61412500D02*
X116425000Y-61412500D01*
X118025000Y-60587500D02*
X118025000Y-61412500D01*
X116425000Y-61412500D02*
X116425000Y-60587500D01*
X123625000Y-18687500D02*
X123625000Y-19512500D01*
X122025000Y-18687500D02*
X123625000Y-18687500D01*
X123625000Y-19512500D02*
X122025000Y-19512500D01*
X122025000Y-19512500D02*
X122025000Y-18687500D01*
X122100000Y-57287500D02*
X122100000Y-58112500D01*
X122100000Y-58112500D02*
X120500000Y-58112500D01*
X120500000Y-58112500D02*
X120500000Y-57287500D01*
X120500000Y-57287500D02*
X122100000Y-57287500D01*
X122100000Y-23337500D02*
X122100000Y-22512500D01*
X123700000Y-23337500D02*
X122100000Y-23337500D01*
X122100000Y-22512500D02*
X123700000Y-22512500D01*
X123700000Y-22512500D02*
X123700000Y-23337500D01*
X74525700Y-55046600D02*
X74525700Y-56646600D01*
X73700700Y-56646600D02*
X73700700Y-55046600D01*
X74525700Y-56646600D02*
X73700700Y-56646600D01*
X73700700Y-55046600D02*
X74525700Y-55046600D01*
X70550000Y-28162500D02*
X62750000Y-28162500D01*
X70550000Y-24762500D02*
X70550000Y-28162500D01*
X69550000Y-23762500D02*
X70550000Y-24762500D01*
X62750000Y-28162500D02*
X62750000Y-23762500D01*
X62750000Y-23762500D02*
X69550000Y-23762500D01*
X70495000Y-38846000D02*
X70495000Y-36846000D01*
X71745000Y-38846000D02*
X70495000Y-38846000D01*
X71745000Y-36846000D02*
X71745000Y-38846000D01*
X70495000Y-36846000D02*
X71745000Y-36846000D01*
X114100000Y-53450000D02*
X114100000Y-56250000D01*
X116900000Y-53450000D02*
X114100000Y-53450000D01*
X114100000Y-56250000D02*
X114800000Y-56950000D01*
X114800000Y-56950000D02*
X116900000Y-56950000D01*
X116900000Y-56950000D02*
X116900000Y-53450000D01*
X74660000Y-40015000D02*
X74660000Y-41265000D01*
X72660000Y-40015000D02*
X74660000Y-40015000D01*
X74660000Y-41265000D02*
X72660000Y-41265000D01*
X72660000Y-41265000D02*
X72660000Y-40015000D01*
X52032000Y-46894500D02*
X52032000Y-46069500D01*
X53632000Y-46894500D02*
X52032000Y-46894500D01*
X53632000Y-46069500D02*
X53632000Y-46894500D01*
X52032000Y-46069500D02*
X53632000Y-46069500D01*
X60706000Y-57753000D02*
X61956000Y-57753000D01*
X61956000Y-53753000D02*
X62706000Y-54503000D01*
X62706000Y-54503000D02*
X62706000Y-55753000D01*
X61956000Y-57753000D02*
X62706000Y-57003000D01*
X60706000Y-53753000D02*
X61956000Y-53753000D01*
X58706000Y-54503000D02*
X58706000Y-55753000D01*
X58706000Y-57003000D02*
X58706000Y-55753000D01*
X60706000Y-57753000D02*
X59456000Y-57753000D01*
X59456000Y-53753000D02*
X58706000Y-54503000D01*
X62706000Y-57003000D02*
X62706000Y-55753000D01*
X59456000Y-57753000D02*
X58706000Y-57003000D01*
X60706000Y-53753000D02*
X59456000Y-53753000D01*
X56008000Y-39534000D02*
X55208000Y-38734000D01*
X55208000Y-38734000D02*
X55208000Y-37084000D01*
X56008000Y-34634000D02*
X55208000Y-35434000D01*
X57658000Y-34634000D02*
X56008000Y-34634000D01*
X60108000Y-35434000D02*
X60108000Y-37084000D01*
X59308000Y-39534000D02*
X60108000Y-38734000D01*
X55208000Y-35434000D02*
X55208000Y-37084000D01*
X59308000Y-34634000D02*
X60108000Y-35434000D01*
X57658000Y-39534000D02*
X59308000Y-39534000D01*
X57658000Y-39534000D02*
X56008000Y-39534000D01*
X60108000Y-38734000D02*
X60108000Y-37084000D01*
X57658000Y-34634000D02*
X59308000Y-34634000D01*
X50330000Y-49180500D02*
X48730000Y-49180500D01*
X48730000Y-49180500D02*
X48730000Y-48355500D01*
X50330000Y-48355500D02*
X50330000Y-49180500D01*
X48730000Y-48355500D02*
X50330000Y-48355500D01*
X53632000Y-48355500D02*
X53632000Y-49180500D01*
X52032000Y-48355500D02*
X53632000Y-48355500D01*
X53632000Y-49180500D02*
X52032000Y-49180500D01*
X52032000Y-49180500D02*
X52032000Y-48355500D01*
X48730000Y-46069500D02*
X50330000Y-46069500D01*
X50330000Y-46894500D02*
X48730000Y-46894500D01*
X50330000Y-46069500D02*
X50330000Y-46894500D01*
X48730000Y-46894500D02*
X48730000Y-46069500D01*
X63637000Y-60309000D02*
X63637000Y-58309000D01*
X64887000Y-60309000D02*
X63637000Y-60309000D01*
X64887000Y-58309000D02*
X64887000Y-60309000D01*
X63637000Y-58309000D02*
X64887000Y-58309000D01*
X68463000Y-53356000D02*
X69713000Y-53356000D01*
X69713000Y-53356000D02*
X69713000Y-55356000D01*
X69713000Y-55356000D02*
X68463000Y-55356000D01*
X68463000Y-55356000D02*
X68463000Y-53356000D01*
X55388000Y-46091000D02*
X55388000Y-44841000D01*
X55388000Y-44841000D02*
X57388000Y-44841000D01*
X57388000Y-46091000D02*
X55388000Y-46091000D01*
X57388000Y-44841000D02*
X57388000Y-46091000D01*
X57388000Y-47635000D02*
X57388000Y-48885000D01*
X55388000Y-48885000D02*
X55388000Y-47635000D01*
X55388000Y-47635000D02*
X57388000Y-47635000D01*
X57388000Y-48885000D02*
X55388000Y-48885000D01*
X112075000Y-54400000D02*
X113325000Y-54400000D01*
X113325000Y-54400000D02*
X113325000Y-56400000D01*
X113325000Y-56400000D02*
X112075000Y-56400000D01*
X112075000Y-56400000D02*
X112075000Y-54400000D01*
D17*
X64954000Y-43153000D02*
X64694000Y-43153000D01*
X65094000Y-43153000D02*
X65094000Y-43153000D01*
X66294000Y-43153000D02*
X66554000Y-43153000D01*
X62694000Y-49303000D02*
X62694000Y-49303000D01*
X68099000Y-45498000D02*
X68099000Y-45758000D01*
X61949000Y-45498000D02*
X61949000Y-45758000D01*
X67354000Y-49303000D02*
X67094000Y-49303000D01*
X66954000Y-43153000D02*
X66954000Y-43153000D01*
X63094000Y-49303000D02*
X63094000Y-49303000D01*
X65094000Y-49303000D02*
X65354000Y-49303000D01*
X68099000Y-46958000D02*
X68099000Y-46958000D01*
X67094000Y-43153000D02*
X67094000Y-43153000D01*
X68099000Y-46558000D02*
X68099000Y-46558000D01*
X66154000Y-49303000D02*
X65894000Y-49303000D01*
X63354000Y-49303000D02*
X63354000Y-49303000D01*
X65354000Y-43153000D02*
X65094000Y-43153000D01*
X68099000Y-45358000D02*
X68099000Y-45098000D01*
X64554000Y-43153000D02*
X64554000Y-43153000D01*
X63894000Y-49303000D02*
X64154000Y-49303000D01*
X61949000Y-47498000D02*
X61949000Y-47758000D01*
X68099000Y-45358000D02*
X68099000Y-45358000D01*
X61949000Y-43898000D02*
X61949000Y-44158000D01*
X65354000Y-49303000D02*
X65354000Y-49303000D01*
X68099000Y-44558000D02*
X68099000Y-44298000D01*
X61949000Y-47358000D02*
X61949000Y-47098000D01*
X66954000Y-43153000D02*
X66694000Y-43153000D01*
X68099000Y-46698000D02*
X68099000Y-46958000D01*
X63494000Y-49303000D02*
X63754000Y-49303000D01*
X68099000Y-46558000D02*
X68099000Y-46298000D01*
X64554000Y-49303000D02*
X64294000Y-49303000D01*
X61949000Y-47098000D02*
X61949000Y-47358000D01*
X65094000Y-49303000D02*
X65094000Y-49303000D01*
X68099000Y-47098000D02*
X68099000Y-47098000D01*
X68099000Y-48298000D02*
X68099000Y-48558000D01*
X61949000Y-46558000D02*
X61949000Y-46298000D01*
X68099000Y-45898000D02*
X68099000Y-45898000D01*
X68099000Y-47498000D02*
X68099000Y-47758000D01*
X61949000Y-47898000D02*
X61949000Y-48158000D01*
X68099000Y-46158000D02*
X68099000Y-45898000D01*
X63494000Y-43153000D02*
X63754000Y-43153000D01*
X61949000Y-46698000D02*
X61949000Y-46958000D01*
X68099000Y-46698000D02*
X68099000Y-46698000D01*
X68099000Y-44158000D02*
X68099000Y-43898000D01*
X65494000Y-43153000D02*
X65494000Y-43153000D01*
X62694000Y-49303000D02*
X62954000Y-49303000D01*
X63754000Y-43153000D02*
X63494000Y-43153000D01*
X61949000Y-44158000D02*
X61949000Y-43898000D01*
X68099000Y-45758000D02*
X68099000Y-45498000D01*
X61949000Y-43898000D02*
X61949000Y-43898000D01*
X68099000Y-46958000D02*
X68099000Y-46698000D01*
X61949000Y-47758000D02*
X61949000Y-47758000D01*
X61949000Y-47898000D02*
X61949000Y-47898000D01*
X64294000Y-49303000D02*
X64294000Y-49303000D01*
X68099000Y-47358000D02*
X68099000Y-47358000D01*
X68099000Y-45898000D02*
X68099000Y-46158000D01*
X61949000Y-45898000D02*
X61949000Y-45898000D01*
X65094000Y-43153000D02*
X65354000Y-43153000D01*
X61949000Y-44698000D02*
X61949000Y-44958000D01*
X65354000Y-49303000D02*
X65094000Y-49303000D01*
X64154000Y-49303000D02*
X63894000Y-49303000D01*
X68099000Y-43898000D02*
X68099000Y-44158000D01*
X63494000Y-49303000D02*
X63494000Y-49303000D01*
X66154000Y-49303000D02*
X66154000Y-49303000D01*
X66694000Y-43153000D02*
X66954000Y-43153000D01*
X61949000Y-45098000D02*
X61949000Y-45098000D01*
X64694000Y-43153000D02*
X64694000Y-43153000D01*
X68099000Y-44698000D02*
X68099000Y-44698000D01*
X61949000Y-47498000D02*
X61949000Y-47498000D01*
X63354000Y-43153000D02*
X63354000Y-43153000D01*
X68099000Y-47898000D02*
X68099000Y-48158000D01*
X62954000Y-49303000D02*
X62694000Y-49303000D01*
X66694000Y-43153000D02*
X66694000Y-43153000D01*
X65894000Y-49303000D02*
X65894000Y-49303000D01*
X66554000Y-49303000D02*
X66554000Y-49303000D01*
X61949000Y-43153000D02*
X61949000Y-49303000D01*
X68099000Y-44958000D02*
X68099000Y-44958000D01*
X61949000Y-45098000D02*
X61949000Y-45358000D01*
X61949000Y-48558000D02*
X61949000Y-48558000D01*
X62694000Y-43153000D02*
X62694000Y-43153000D01*
X64154000Y-43153000D02*
X63894000Y-43153000D01*
X68099000Y-47758000D02*
X68099000Y-47758000D01*
X61949000Y-48158000D02*
X61949000Y-47898000D01*
X61949000Y-48298000D02*
X61949000Y-48298000D01*
X65494000Y-49303000D02*
X65754000Y-49303000D01*
X61949000Y-47098000D02*
X61949000Y-47098000D01*
X68099000Y-46298000D02*
X68099000Y-46298000D01*
X68099000Y-47098000D02*
X68099000Y-47358000D01*
X66554000Y-43153000D02*
X66294000Y-43153000D01*
X63754000Y-43153000D02*
X63754000Y-43153000D01*
X63094000Y-49303000D02*
X63354000Y-49303000D01*
X62694000Y-43153000D02*
X62954000Y-43153000D01*
X62954000Y-49303000D02*
X62954000Y-49303000D01*
X68099000Y-45498000D02*
X68099000Y-45498000D01*
X65894000Y-43153000D02*
X65894000Y-43153000D01*
X61949000Y-44558000D02*
X61949000Y-44298000D01*
X66294000Y-49303000D02*
X66294000Y-49303000D01*
X65494000Y-43153000D02*
X65754000Y-43153000D01*
X66294000Y-43153000D02*
X66294000Y-43153000D01*
X67354000Y-43153000D02*
X67354000Y-43153000D01*
X68099000Y-45758000D02*
X68099000Y-45758000D01*
X68099000Y-44298000D02*
X68099000Y-44558000D01*
X63494000Y-43153000D02*
X63494000Y-43153000D01*
X63094000Y-43153000D02*
X63094000Y-43153000D01*
X62954000Y-43153000D02*
X62954000Y-43153000D01*
X65894000Y-49303000D02*
X66154000Y-49303000D01*
X61949000Y-44298000D02*
X61949000Y-44298000D01*
X63354000Y-49303000D02*
X63094000Y-49303000D01*
X68099000Y-44558000D02*
X68099000Y-44558000D01*
X68099000Y-44158000D02*
X68099000Y-44158000D01*
X64294000Y-43153000D02*
X64294000Y-43153000D01*
X68099000Y-47758000D02*
X68099000Y-47498000D01*
X64954000Y-43153000D02*
X64954000Y-43153000D01*
X61949000Y-47758000D02*
X61949000Y-47498000D01*
X66554000Y-43153000D02*
X66554000Y-43153000D01*
X67354000Y-49303000D02*
X67354000Y-49303000D01*
X68099000Y-48298000D02*
X68099000Y-48298000D01*
X65494000Y-49303000D02*
X65494000Y-49303000D01*
X61949000Y-46158000D02*
X61949000Y-45898000D01*
X64294000Y-49303000D02*
X64554000Y-49303000D01*
X68099000Y-48158000D02*
X68099000Y-48158000D01*
X61949000Y-46158000D02*
X61949000Y-46158000D01*
X61949000Y-46298000D02*
X61949000Y-46298000D01*
X65754000Y-49303000D02*
X65494000Y-49303000D01*
X66154000Y-43153000D02*
X65894000Y-43153000D01*
X64554000Y-43153000D02*
X64294000Y-43153000D01*
X64694000Y-43153000D02*
X64954000Y-43153000D01*
X64954000Y-49303000D02*
X64694000Y-49303000D01*
X61949000Y-46958000D02*
X61949000Y-46698000D01*
X68099000Y-47498000D02*
X68099000Y-47498000D01*
X65894000Y-43153000D02*
X66154000Y-43153000D01*
X62954000Y-43153000D02*
X62694000Y-43153000D01*
X68099000Y-45098000D02*
X68099000Y-45358000D01*
X61949000Y-44958000D02*
X61949000Y-44958000D01*
X63094000Y-43153000D02*
X63354000Y-43153000D01*
X63894000Y-43153000D02*
X64154000Y-43153000D01*
X64154000Y-43153000D02*
X64154000Y-43153000D01*
X63894000Y-43153000D02*
X63894000Y-43153000D01*
X68099000Y-49303000D02*
X68099000Y-43153000D01*
X68099000Y-47898000D02*
X68099000Y-47898000D01*
X63354000Y-43153000D02*
X63094000Y-43153000D01*
X64554000Y-49303000D02*
X64554000Y-49303000D01*
X68099000Y-47358000D02*
X68099000Y-47098000D01*
X65754000Y-43153000D02*
X65754000Y-43153000D01*
X61949000Y-47358000D02*
X61949000Y-47358000D01*
X67094000Y-49303000D02*
X67094000Y-49303000D01*
X66294000Y-49303000D02*
X66554000Y-49303000D01*
X68099000Y-44698000D02*
X68099000Y-44958000D01*
X67094000Y-49303000D02*
X67354000Y-49303000D01*
X68099000Y-48158000D02*
X68099000Y-47898000D01*
X66694000Y-49303000D02*
X66694000Y-49303000D01*
X61949000Y-44958000D02*
X61949000Y-44698000D01*
X61949000Y-45358000D02*
X61949000Y-45098000D01*
X61949000Y-48558000D02*
X61949000Y-48298000D01*
X61949000Y-45758000D02*
X61949000Y-45758000D01*
X68099000Y-43153000D02*
X61949000Y-43153000D01*
X63754000Y-49303000D02*
X63494000Y-49303000D01*
X68099000Y-44298000D02*
X68099000Y-44298000D01*
X61949000Y-44298000D02*
X61949000Y-44558000D01*
X67354000Y-43153000D02*
X67094000Y-43153000D01*
X66554000Y-49303000D02*
X66294000Y-49303000D01*
X64694000Y-49303000D02*
X64694000Y-49303000D01*
X61949000Y-46558000D02*
X61949000Y-46558000D01*
X61949000Y-45898000D02*
X61949000Y-46158000D01*
X64694000Y-49303000D02*
X64954000Y-49303000D01*
X61949000Y-48158000D02*
X61949000Y-48158000D01*
X61949000Y-44158000D02*
X61949000Y-44158000D01*
X63894000Y-49303000D02*
X63894000Y-49303000D01*
X61949000Y-44558000D02*
X61949000Y-44558000D01*
X61949000Y-46698000D02*
X61949000Y-46698000D01*
X66954000Y-49303000D02*
X66954000Y-49303000D01*
X61949000Y-45758000D02*
X61949000Y-45498000D01*
X61949000Y-49303000D02*
X68099000Y-49303000D01*
X68099000Y-45098000D02*
X68099000Y-45098000D01*
X61949000Y-44698000D02*
X61949000Y-44698000D01*
X68099000Y-44958000D02*
X68099000Y-44698000D01*
X61949000Y-45358000D02*
X61949000Y-45358000D01*
X68099000Y-48558000D02*
X68099000Y-48298000D01*
X68099000Y-48033000D02*
X66829000Y-49303000D01*
X61949000Y-45498000D02*
X61949000Y-45498000D01*
X61949000Y-46958000D02*
X61949000Y-46958000D01*
X65354000Y-43153000D02*
X65354000Y-43153000D01*
X61949000Y-46298000D02*
X61949000Y-46558000D01*
X64954000Y-49303000D02*
X64954000Y-49303000D01*
X68099000Y-43898000D02*
X68099000Y-43898000D01*
X66694000Y-49303000D02*
X66954000Y-49303000D01*
X65754000Y-49303000D02*
X65754000Y-49303000D01*
X68099000Y-46298000D02*
X68099000Y-46558000D01*
X63754000Y-49303000D02*
X63754000Y-49303000D01*
X66954000Y-49303000D02*
X66694000Y-49303000D01*
X64154000Y-49303000D02*
X64154000Y-49303000D01*
X67094000Y-43153000D02*
X67354000Y-43153000D01*
X68099000Y-48558000D02*
X68099000Y-48558000D01*
X68099000Y-46158000D02*
X68099000Y-46158000D01*
X61949000Y-48298000D02*
X61949000Y-48558000D01*
X66154000Y-43153000D02*
X66154000Y-43153000D01*
X65754000Y-43153000D02*
X65494000Y-43153000D01*
X64294000Y-43153000D02*
X64554000Y-43153000D01*
D16*
X72660000Y-50409000D02*
X72660000Y-49159000D01*
X74660000Y-50409000D02*
X72660000Y-50409000D01*
X74660000Y-49159000D02*
X74660000Y-50409000D01*
X72660000Y-49159000D02*
X74660000Y-49159000D01*
X61097000Y-37862000D02*
X62347000Y-37862000D01*
X61097000Y-39862000D02*
X61097000Y-37862000D01*
X62347000Y-37862000D02*
X62347000Y-39862000D01*
X62347000Y-39862000D02*
X61097000Y-39862000D01*
X72660000Y-43551000D02*
X72660000Y-42301000D01*
X74660000Y-42301000D02*
X74660000Y-43551000D01*
X72660000Y-42301000D02*
X74660000Y-42301000D01*
X74660000Y-43551000D02*
X72660000Y-43551000D01*
X51700000Y-53724000D02*
X49900000Y-53724000D01*
X51200000Y-52574000D02*
X50400000Y-52574000D01*
X50800000Y-51974000D02*
X51200000Y-52574000D01*
X50800000Y-51574000D02*
X50800000Y-51974000D01*
X50800000Y-51974000D02*
X50250000Y-51974000D01*
X49900000Y-50924000D02*
X51700000Y-50924000D01*
X51700000Y-50924000D02*
X51700000Y-53724000D01*
X50800000Y-52574000D02*
X50800000Y-53074000D01*
X49900000Y-53724000D02*
X49900000Y-50924000D01*
X50800000Y-51974000D02*
X51350000Y-51974000D01*
X50400000Y-52574000D02*
X50800000Y-51974000D01*
X54240000Y-50924000D02*
X54240000Y-53724000D01*
X52440000Y-50924000D02*
X54240000Y-50924000D01*
X53740000Y-52074000D02*
X53340000Y-52674000D01*
X52440000Y-53724000D02*
X52440000Y-50924000D01*
X53340000Y-53074000D02*
X53340000Y-52674000D01*
X53340000Y-52674000D02*
X53890000Y-52674000D01*
X53340000Y-52674000D02*
X52940000Y-52074000D01*
X53340000Y-52674000D02*
X52790000Y-52674000D01*
X53340000Y-52074000D02*
X53340000Y-51574000D01*
X52940000Y-52074000D02*
X53740000Y-52074000D01*
X54240000Y-53724000D02*
X52440000Y-53724000D01*
X51700000Y-44580000D02*
X49900000Y-44580000D01*
X51200000Y-43430000D02*
X50400000Y-43430000D01*
X50800000Y-42830000D02*
X50250000Y-42830000D01*
X51700000Y-41780000D02*
X51700000Y-44580000D01*
X49900000Y-41780000D02*
X51700000Y-41780000D01*
X50800000Y-43430000D02*
X50800000Y-43930000D01*
X50800000Y-42830000D02*
X51200000Y-43430000D01*
X50400000Y-43430000D02*
X50800000Y-42830000D01*
X49900000Y-44580000D02*
X49900000Y-41780000D01*
X50800000Y-42830000D02*
X51350000Y-42830000D01*
X50800000Y-42430000D02*
X50800000Y-42830000D01*
X54240000Y-44580000D02*
X52440000Y-44580000D01*
X53340000Y-42930000D02*
X53340000Y-42430000D01*
X53340000Y-43530000D02*
X53890000Y-43530000D01*
X54240000Y-41780000D02*
X54240000Y-44580000D01*
X52440000Y-44580000D02*
X52440000Y-41780000D01*
X53340000Y-43530000D02*
X52790000Y-43530000D01*
X53340000Y-43930000D02*
X53340000Y-43530000D01*
X52940000Y-42930000D02*
X53740000Y-42930000D01*
X52440000Y-41780000D02*
X54240000Y-41780000D01*
X53340000Y-43530000D02*
X52940000Y-42930000D01*
X53740000Y-42930000D02*
X53340000Y-43530000D01*
X48498000Y-45075000D02*
X46498000Y-45075000D01*
X48498000Y-43825000D02*
X48498000Y-45075000D01*
X46498000Y-45075000D02*
X46498000Y-43825000D01*
X46498000Y-43825000D02*
X48498000Y-43825000D01*
X67173000Y-36846000D02*
X67173000Y-38846000D01*
X65923000Y-38846000D02*
X65923000Y-36846000D01*
X67173000Y-38846000D02*
X65923000Y-38846000D01*
X65923000Y-36846000D02*
X67173000Y-36846000D01*
X74660000Y-48123000D02*
X72660000Y-48123000D01*
X72660000Y-46873000D02*
X74660000Y-46873000D01*
X72660000Y-48123000D02*
X72660000Y-46873000D01*
X74660000Y-46873000D02*
X74660000Y-48123000D01*
X55388000Y-42428000D02*
X57388000Y-42428000D01*
X57388000Y-42428000D02*
X57388000Y-43678000D01*
X55388000Y-43678000D02*
X55388000Y-42428000D01*
X57388000Y-43678000D02*
X55388000Y-43678000D01*
X69459000Y-38846000D02*
X68209000Y-38846000D01*
X68209000Y-36846000D02*
X69459000Y-36846000D01*
X68209000Y-38846000D02*
X68209000Y-36846000D01*
X69459000Y-36846000D02*
X69459000Y-38846000D01*
X55388000Y-51298000D02*
X55388000Y-50048000D01*
X57388000Y-51298000D02*
X55388000Y-51298000D01*
X55388000Y-50048000D02*
X57388000Y-50048000D01*
X57388000Y-50048000D02*
X57388000Y-51298000D01*
X48498000Y-51425000D02*
X46498000Y-51425000D01*
X46498000Y-50175000D02*
X48498000Y-50175000D01*
X48498000Y-50175000D02*
X48498000Y-51425000D01*
X46498000Y-51425000D02*
X46498000Y-50175000D01*
X74660000Y-45849700D02*
X72660000Y-45849700D01*
X72660000Y-44599700D02*
X74660000Y-44599700D01*
X74660000Y-44599700D02*
X74660000Y-45849700D01*
X72660000Y-45849700D02*
X72660000Y-44599700D01*
X67554000Y-53356000D02*
X67554000Y-55356000D01*
X67554000Y-55356000D02*
X66304000Y-55356000D01*
X66304000Y-55356000D02*
X66304000Y-53356000D01*
X66304000Y-53356000D02*
X67554000Y-53356000D01*
X63489000Y-56391000D02*
X63489000Y-53591000D01*
X65289000Y-56391000D02*
X63489000Y-56391000D01*
X64389000Y-55341000D02*
X64939000Y-55341000D01*
X64389000Y-55341000D02*
X63839000Y-55341000D01*
X63989000Y-54741000D02*
X64789000Y-54741000D01*
X64789000Y-54741000D02*
X64389000Y-55341000D01*
X64389000Y-55741000D02*
X64389000Y-55341000D01*
X65289000Y-53591000D02*
X65289000Y-56391000D01*
X63489000Y-53591000D02*
X65289000Y-53591000D01*
X64389000Y-54741000D02*
X64389000Y-54241000D01*
X64389000Y-55341000D02*
X63989000Y-54741000D01*
X79800000Y-39275000D02*
X79800000Y-40525000D01*
X79800000Y-40525000D02*
X77800000Y-40525000D01*
X77800000Y-40525000D02*
X77800000Y-39275000D01*
X77800000Y-39275000D02*
X79800000Y-39275000D01*
X121600000Y-17846000D02*
X121600000Y-16596000D01*
X123600000Y-17846000D02*
X121600000Y-17846000D01*
X121600000Y-16596000D02*
X123600000Y-16596000D01*
X123600000Y-16596000D02*
X123600000Y-17846000D01*
X122025000Y-15733500D02*
X122025000Y-14908500D01*
X123625000Y-14908500D02*
X123625000Y-15733500D01*
X122025000Y-14908500D02*
X123625000Y-14908500D01*
X123625000Y-15733500D02*
X122025000Y-15733500D01*
X63362000Y-38738000D02*
X63362000Y-35938000D01*
X65162000Y-35938000D02*
X65162000Y-38738000D01*
X65162000Y-38738000D02*
X63362000Y-38738000D01*
X64262000Y-36588000D02*
X64262000Y-36988000D01*
X64262000Y-37588000D02*
X64262000Y-38088000D01*
X63362000Y-35938000D02*
X65162000Y-35938000D01*
X64662000Y-37588000D02*
X63862000Y-37588000D01*
X64262000Y-36988000D02*
X63712000Y-36988000D01*
X64262000Y-36988000D02*
X64812000Y-36988000D01*
X63862000Y-37588000D02*
X64262000Y-36988000D01*
X64262000Y-36988000D02*
X64662000Y-37588000D01*
X33033500Y-59700000D02*
X33033500Y-61300000D01*
X33033500Y-61300000D02*
X32208500Y-61300000D01*
X32208500Y-61300000D02*
X32208500Y-59700000D01*
X32208500Y-59700000D02*
X33033500Y-59700000D01*
X33033500Y-56426000D02*
X33033500Y-58026000D01*
X33033500Y-58026000D02*
X32208500Y-58026000D01*
X32208500Y-58026000D02*
X32208500Y-56426000D01*
X32208500Y-56426000D02*
X33033500Y-56426000D01*
X52375000Y-37000000D02*
X51125000Y-37000000D01*
X51125000Y-35000000D02*
X52375000Y-35000000D01*
X51125000Y-37000000D02*
X51125000Y-35000000D01*
X52375000Y-35000000D02*
X52375000Y-37000000D01*
X56017000Y-55356000D02*
X56017000Y-53356000D01*
X56017000Y-53356000D02*
X57267000Y-53356000D01*
X57267000Y-53356000D02*
X57267000Y-55356000D01*
X57267000Y-55356000D02*
X56017000Y-55356000D01*
X72900000Y-31225000D02*
X72900000Y-29975000D01*
X74900000Y-29975000D02*
X74900000Y-31225000D01*
X72900000Y-29975000D02*
X74900000Y-29975000D01*
X74900000Y-31225000D02*
X72900000Y-31225000D01*
X110287500Y-54800000D02*
X111112500Y-54800000D01*
X111112500Y-56400000D02*
X110287500Y-56400000D01*
X111112500Y-54800000D02*
X111112500Y-56400000D01*
X110287500Y-56400000D02*
X110287500Y-54800000D01*
X74700000Y-29012500D02*
X73100000Y-29012500D01*
X74700000Y-28187500D02*
X74700000Y-29012500D01*
X73100000Y-28187500D02*
X74700000Y-28187500D01*
X73100000Y-29012500D02*
X73100000Y-28187500D01*
X74700000Y-26387500D02*
X74700000Y-27212500D01*
X73100000Y-27212500D02*
X73100000Y-26387500D01*
X73100000Y-26387500D02*
X74700000Y-26387500D01*
X74700000Y-27212500D02*
X73100000Y-27212500D01*
X60200000Y-26187500D02*
X60200000Y-27012500D01*
X60200000Y-27012500D02*
X58600000Y-27012500D01*
X58600000Y-27012500D02*
X58600000Y-26187500D01*
X58600000Y-26187500D02*
X60200000Y-26187500D01*
X58600000Y-25412500D02*
X58600000Y-24587500D01*
X60200000Y-25412500D02*
X58600000Y-25412500D01*
X58600000Y-24587500D02*
X60200000Y-24587500D01*
X60200000Y-24587500D02*
X60200000Y-25412500D01*
D11*
X37850000Y-52091000D02*
X32950000Y-52091000D01*
X36850000Y-48191000D02*
X37850000Y-49191000D01*
X32950000Y-52091000D02*
X32950000Y-48191000D01*
X37850000Y-49191000D02*
X37850000Y-52091000D01*
X32950000Y-48191000D02*
X36850000Y-48191000D01*
D16*
X36600000Y-39800000D02*
X36600000Y-42600000D01*
X35700000Y-41550000D02*
X36250000Y-41550000D01*
X35700000Y-41550000D02*
X35300000Y-40950000D01*
X35700000Y-41950000D02*
X35700000Y-41550000D01*
X34800000Y-42600000D02*
X34800000Y-39800000D01*
X36600000Y-42600000D02*
X34800000Y-42600000D01*
X36100000Y-40950000D02*
X35700000Y-41550000D01*
X35700000Y-40950000D02*
X35700000Y-40450000D01*
X34800000Y-39800000D02*
X36600000Y-39800000D01*
X35700000Y-41550000D02*
X35150000Y-41550000D01*
X35300000Y-40950000D02*
X36100000Y-40950000D01*
X37150000Y-45562500D02*
X35550000Y-45562500D01*
X35550000Y-45562500D02*
X35550000Y-44737500D01*
X35550000Y-44737500D02*
X37150000Y-44737500D01*
X37150000Y-44737500D02*
X37150000Y-45562500D01*
X28620000Y-48005000D02*
X28620000Y-53085000D01*
X26715000Y-48005000D02*
X28620000Y-48005000D01*
X28620000Y-53085000D02*
X26080000Y-53085000D01*
X26080000Y-53085000D02*
X26080000Y-48640000D01*
X26080000Y-48640000D02*
X26715000Y-48005000D01*
X43000000Y-37350000D02*
X43000000Y-39850000D01*
X42600000Y-40250000D02*
X41400000Y-40250000D01*
X41400000Y-40250000D02*
X41400000Y-37350000D01*
X43000000Y-39850000D02*
X42600000Y-40250000D01*
X41400000Y-37350000D02*
X43000000Y-37350000D01*
X39050000Y-28150000D02*
X39050000Y-29850000D01*
X39050000Y-29850000D02*
X37750000Y-29850000D01*
X37750000Y-28470000D02*
X38070000Y-28150000D01*
X39050000Y-28150000D02*
X38070000Y-28150000D01*
X37750000Y-28470000D02*
X37750000Y-29850000D01*
X39400000Y-33125000D02*
X37400000Y-33125000D01*
X37400000Y-31875000D02*
X39400000Y-31875000D01*
X37400000Y-33125000D02*
X37400000Y-31875000D01*
X39400000Y-31875000D02*
X39400000Y-33125000D01*
X31300000Y-43900000D02*
X31300000Y-41325000D01*
X32600000Y-41000000D02*
X32600000Y-43900000D01*
X31625000Y-41000000D02*
X32600000Y-41000000D01*
X31300000Y-41325000D02*
X31625000Y-41000000D01*
X32600000Y-43900000D02*
X31300000Y-43900000D01*
X88925000Y-21000000D02*
X88925000Y-23000000D01*
X87675000Y-23000000D02*
X87675000Y-21000000D01*
X87675000Y-21000000D02*
X88925000Y-21000000D01*
X88925000Y-23000000D02*
X87675000Y-23000000D01*
X28370000Y-21010000D02*
X27735000Y-21645000D01*
X25830000Y-16565000D02*
X28370000Y-16565000D01*
X28370000Y-16565000D02*
X28370000Y-21010000D01*
X25830000Y-21645000D02*
X25830000Y-16565000D01*
X27735000Y-21645000D02*
X25830000Y-21645000D01*
X87600000Y-27625000D02*
X87600000Y-30550000D01*
X86625000Y-26650000D02*
X87600000Y-27625000D01*
X82700000Y-30550000D02*
X82700000Y-26650000D01*
X87600000Y-30550000D02*
X82700000Y-30550000D01*
X82700000Y-26650000D02*
X86625000Y-26650000D01*
X37187500Y-25800000D02*
X37187500Y-24200000D01*
X38012500Y-24200000D02*
X38012500Y-25800000D01*
X37187500Y-24200000D02*
X38012500Y-24200000D01*
X38012500Y-25800000D02*
X37187500Y-25800000D01*
X29450000Y-39312500D02*
X29450000Y-38487500D01*
X31050000Y-39312500D02*
X29450000Y-39312500D01*
X29450000Y-38487500D02*
X31050000Y-38487500D01*
X31050000Y-38487500D02*
X31050000Y-39312500D01*
X73100000Y-22937500D02*
X74700000Y-22937500D01*
X74700000Y-22937500D02*
X74700000Y-23762500D01*
X74700000Y-23762500D02*
X73100000Y-23762500D01*
X73100000Y-23762500D02*
X73100000Y-22937500D01*
X80250000Y-44200000D02*
X77350000Y-44200000D01*
X77350000Y-42600000D02*
X79850000Y-42600000D01*
X79850000Y-42600000D02*
X80250000Y-43000000D01*
X80250000Y-43000000D02*
X80250000Y-44200000D01*
X77350000Y-44200000D02*
X77350000Y-42600000D01*
D17*
X116794900Y-9863450D02*
X96805100Y-9863450D01*
X114164999Y-14765650D02*
X114799999Y-16035650D01*
X96805100Y-14765650D02*
X116794900Y-14765650D01*
X116794900Y-14765650D02*
X116794900Y-9863450D01*
X115434999Y-14765650D02*
X114799999Y-16035650D01*
X96805100Y-9863450D02*
X96805100Y-14765650D01*
D16*
X81175000Y-23000000D02*
X81175000Y-21000000D01*
X82425000Y-23000000D02*
X81175000Y-23000000D01*
X81175000Y-21000000D02*
X82425000Y-21000000D01*
X82425000Y-21000000D02*
X82425000Y-23000000D01*
X81912500Y-29275000D02*
X81087500Y-29275000D01*
X81087500Y-29275000D02*
X81087500Y-27675000D01*
X81912500Y-27675000D02*
X81912500Y-29275000D01*
X81087500Y-27675000D02*
X81912500Y-27675000D01*
X41300000Y-41075000D02*
X43300000Y-41075000D01*
X43300000Y-41075000D02*
X43300000Y-42325000D01*
X41300000Y-42325000D02*
X41300000Y-41075000D01*
X43300000Y-42325000D02*
X41300000Y-42325000D01*
X29975000Y-58450000D02*
X29975000Y-56450000D01*
X31225000Y-58450000D02*
X29975000Y-58450000D01*
X31225000Y-56450000D02*
X31225000Y-58450000D01*
X29975000Y-56450000D02*
X31225000Y-56450000D01*
X124206000Y-51435000D02*
X123571000Y-52070000D01*
X121666000Y-26670000D02*
X124206000Y-26670000D01*
X123571000Y-52070000D02*
X121666000Y-52070000D01*
X121666000Y-52070000D02*
X121666000Y-26670000D01*
X124206000Y-26670000D02*
X124206000Y-51435000D01*
X38012500Y-35500000D02*
X38012500Y-37100000D01*
X37187500Y-37100000D02*
X37187500Y-35500000D01*
X37187500Y-35500000D02*
X38012500Y-35500000D01*
X38012500Y-37100000D02*
X37187500Y-37100000D01*
X95210000Y-10030000D02*
X95210000Y-12570000D01*
X95210000Y-12570000D02*
X65365000Y-12570000D01*
X64730000Y-11935000D02*
X64730000Y-10030000D01*
X64730000Y-10030000D02*
X95210000Y-10030000D01*
X65365000Y-12570000D02*
X64730000Y-11935000D01*
X63625000Y-12570000D02*
X31240000Y-12570000D01*
X30605000Y-11935000D02*
X30605000Y-10030000D01*
X63625000Y-10030000D02*
X63625000Y-12570000D01*
X30605000Y-10030000D02*
X63625000Y-10030000D01*
X31240000Y-12570000D02*
X30605000Y-11935000D01*
X90025000Y-31400000D02*
X88775000Y-31400000D01*
X88775000Y-29400000D02*
X90025000Y-29400000D01*
X90025000Y-29400000D02*
X90025000Y-31400000D01*
X88775000Y-31400000D02*
X88775000Y-29400000D01*
X46850000Y-22250000D02*
X46850000Y-32150000D01*
X42950000Y-32150000D02*
X42950000Y-23225000D01*
X43925000Y-22250000D02*
X46850000Y-22250000D01*
X46850000Y-32150000D02*
X42950000Y-32150000D01*
X42950000Y-23225000D02*
X43925000Y-22250000D01*
X32790000Y-34770000D02*
X25490000Y-34770000D01*
X25490000Y-25830000D02*
X25490000Y-34770000D01*
X32790000Y-25830000D02*
X32790000Y-34770000D01*
X32790000Y-25830000D02*
X25490000Y-25830000D01*
X41200000Y-35275000D02*
X43200000Y-35275000D01*
X43200000Y-35275000D02*
X43200000Y-36525000D01*
X41200000Y-36525000D02*
X41200000Y-35275000D01*
X43200000Y-36525000D02*
X41200000Y-36525000D01*
X28500000Y-43350000D02*
X28500000Y-42950000D01*
X27600000Y-41200000D02*
X29400000Y-41200000D01*
X28500000Y-42950000D02*
X28100000Y-42350000D01*
X29400000Y-41200000D02*
X29400000Y-44000000D01*
X29400000Y-44000000D02*
X27600000Y-44000000D01*
X28900000Y-42350000D02*
X28500000Y-42950000D01*
X28500000Y-42950000D02*
X29050000Y-42950000D01*
X28100000Y-42350000D02*
X28900000Y-42350000D01*
X27600000Y-44000000D02*
X27600000Y-41200000D01*
X28500000Y-42350000D02*
X28500000Y-41850000D01*
X28500000Y-42950000D02*
X27950000Y-42950000D01*
X83450000Y-21800000D02*
X83450000Y-23300000D01*
X83450000Y-21800000D02*
X86650000Y-21800000D01*
X86650000Y-21800000D02*
X86650000Y-23300000D01*
X83450000Y-23300000D02*
X86650000Y-23300000D01*
M02*
