%TF.GenerationSoftware,KiCad,Pcbnew,7.0.8*%
%TF.CreationDate,2023-10-23T23:14:23+02:00*%
%TF.ProjectId,epaper-breakout,65706170-6572-42d6-9272-65616b6f7574,rev?*%
%TF.SameCoordinates,Original*%
%TF.FileFunction,Copper,L4,Bot*%
%TF.FilePolarity,Positive*%
%FSLAX46Y46*%
G04 Gerber Fmt 4.6, Leading zero omitted, Abs format (unit mm)*
G04 Created by KiCad (PCBNEW 7.0.8) date 2023-10-23 23:14:23*
%MOMM*%
%LPD*%
G01*
G04 APERTURE LIST*
%TA.AperFunction,ComponentPad*%
%ADD10C,0.508000*%
%TD*%
%TA.AperFunction,ComponentPad*%
%ADD11R,1.700000X1.700000*%
%TD*%
%TA.AperFunction,ComponentPad*%
%ADD12O,1.700000X1.700000*%
%TD*%
%TA.AperFunction,ComponentPad*%
%ADD13O,2.100000X1.000000*%
%TD*%
%TA.AperFunction,ComponentPad*%
%ADD14O,1.600000X1.000000*%
%TD*%
%TA.AperFunction,ViaPad*%
%ADD15C,0.800000*%
%TD*%
%TA.AperFunction,Conductor*%
%ADD16C,0.500000*%
%TD*%
%TA.AperFunction,Conductor*%
%ADD17C,0.300000*%
%TD*%
%TA.AperFunction,Conductor*%
%ADD18C,0.250000*%
%TD*%
%TA.AperFunction,Conductor*%
%ADD19C,0.750000*%
%TD*%
%TA.AperFunction,Conductor*%
%ADD20C,0.200000*%
%TD*%
G04 APERTURE END LIST*
D10*
X66598800Y-47802800D03*
X66598800Y-47015400D03*
X66598800Y-46228000D03*
X66598800Y-45440600D03*
X66598800Y-44653200D03*
X65811400Y-47802800D03*
X65811400Y-47015400D03*
X65811400Y-46228000D03*
X65811400Y-45440600D03*
X65811400Y-44653200D03*
X65024000Y-47802800D03*
X65024000Y-47015400D03*
X65024000Y-46228000D03*
X65024000Y-45440600D03*
X65024000Y-44653200D03*
X64236600Y-47802800D03*
X64236600Y-47015400D03*
X64236600Y-46228000D03*
X64236600Y-45440600D03*
X64236600Y-44653200D03*
X63449200Y-47802800D03*
X63449200Y-47015400D03*
X63449200Y-46228000D03*
X63449200Y-45440600D03*
X63449200Y-44653200D03*
D11*
X27350000Y-49275000D03*
D12*
X27350000Y-51815000D03*
D11*
X27100000Y-20375000D03*
D12*
X27100000Y-17835000D03*
D11*
X122936000Y-50800000D03*
D12*
X122936000Y-48260000D03*
X122936000Y-45720000D03*
X122936000Y-43180000D03*
X122936000Y-40640000D03*
X122936000Y-38100000D03*
X122936000Y-35560000D03*
X122936000Y-33020000D03*
X122936000Y-30480000D03*
X122936000Y-27940000D03*
D11*
X66000000Y-11300000D03*
D12*
X68540000Y-11300000D03*
X71080000Y-11300000D03*
X73620000Y-11300000D03*
X76160000Y-11300000D03*
X78700000Y-11300000D03*
X81240000Y-11300000D03*
X83780000Y-11300000D03*
X86320000Y-11300000D03*
X88860000Y-11300000D03*
X91400000Y-11300000D03*
X93940000Y-11300000D03*
D11*
X31875000Y-11300000D03*
D12*
X34415000Y-11300000D03*
X36955000Y-11300000D03*
X39495000Y-11300000D03*
X42035000Y-11300000D03*
X44575000Y-11300000D03*
X47115000Y-11300000D03*
X49655000Y-11300000D03*
X52195000Y-11300000D03*
X54735000Y-11300000D03*
X57275000Y-11300000D03*
X59815000Y-11300000D03*
X62355000Y-11300000D03*
D13*
X32270000Y-25980000D03*
D14*
X28090000Y-25980000D03*
D13*
X32270000Y-34620000D03*
D14*
X28090000Y-34620000D03*
D15*
X112900000Y-57400000D03*
X68959500Y-21600000D03*
X68658999Y-56500000D03*
X97700000Y-26000000D03*
X76000000Y-48750000D03*
X70000000Y-21700000D03*
X34600000Y-26800000D03*
X61200000Y-33400000D03*
X37600000Y-38200000D03*
X115200000Y-43000000D03*
X76000000Y-44250000D03*
X70993000Y-46022000D03*
X81900000Y-19900000D03*
X67750000Y-35750000D03*
X65500000Y-60250000D03*
X37500000Y-31100000D03*
X68072000Y-42164000D03*
X28500000Y-38800000D03*
X74500000Y-46250000D03*
X58800000Y-32000000D03*
X71374000Y-44402000D03*
X89100000Y-21800000D03*
X102500000Y-22400000D03*
X68500000Y-35750000D03*
X124300000Y-19800000D03*
X40200000Y-35800000D03*
X89800000Y-28300000D03*
X124200000Y-21800000D03*
X115500000Y-52400000D03*
X78800000Y-43100000D03*
X58600000Y-22300000D03*
X76000000Y-39750000D03*
X54400000Y-32000000D03*
X30600000Y-59500000D03*
X33650000Y-55000000D03*
X100400000Y-46800000D03*
X45400000Y-44500000D03*
X67250000Y-58500000D03*
X54396686Y-45604099D03*
X81995500Y-25000000D03*
X123500000Y-54000000D03*
X57800000Y-31400000D03*
X118300000Y-55409500D03*
X114771491Y-54975564D03*
X55250000Y-55000000D03*
X56800000Y-32000000D03*
X44600000Y-39900000D03*
X36708582Y-29308012D03*
X77000000Y-49750000D03*
X68451743Y-49531257D03*
X55438000Y-46812000D03*
X113000000Y-27000000D03*
X124300000Y-18200000D03*
X80540000Y-46750000D03*
X67944000Y-55306000D03*
X107600000Y-56600000D03*
X80500000Y-45750000D03*
X100700000Y-50400000D03*
X62800000Y-21600000D03*
X53800000Y-35600000D03*
X111000000Y-22700000D03*
X73000000Y-57040000D03*
X86000000Y-56600000D03*
X58496777Y-47094403D03*
X54400000Y-34400000D03*
X115500000Y-61000000D03*
X66750000Y-56500000D03*
X123100000Y-57700000D03*
X76000000Y-46500000D03*
X52250000Y-34000000D03*
X109800000Y-38900000D03*
X55250000Y-56000000D03*
X31650000Y-61250000D03*
X64367281Y-51584663D03*
X49250000Y-49500000D03*
X113200000Y-61800000D03*
X116300000Y-45100000D03*
X124100000Y-26100000D03*
X45500000Y-50750000D03*
X42400000Y-21700000D03*
X60600000Y-34600000D03*
X67750000Y-57500000D03*
X64000000Y-37750000D03*
X67604000Y-36896000D03*
X72500000Y-37500000D03*
X55600000Y-31400000D03*
X124300000Y-16100000D03*
X114500000Y-63000000D03*
X95700000Y-50400000D03*
X37600000Y-23100000D03*
X35650000Y-62000000D03*
X75705500Y-30934015D03*
X34300000Y-33900000D03*
X124200000Y-23700000D03*
X62015534Y-36765534D03*
X113400000Y-22800000D03*
X80800000Y-40100000D03*
X63854000Y-36896000D03*
X44400000Y-41700000D03*
X53800000Y-33200000D03*
X34600000Y-45900000D03*
X62750000Y-60250000D03*
X51000000Y-34000000D03*
X112900000Y-16000000D03*
X74500000Y-48500000D03*
X76000000Y-42000000D03*
X96100000Y-46900000D03*
X38100000Y-47400000D03*
X74250000Y-44000000D03*
X49250000Y-47250000D03*
X71300000Y-36000000D03*
X76000000Y-50500000D03*
X60452000Y-48641000D03*
X117600000Y-57800000D03*
X53500000Y-49663998D03*
X113900000Y-19400000D03*
X98200000Y-20800000D03*
X78200000Y-57500000D03*
X113000000Y-19000000D03*
X121800000Y-55500000D03*
X53000000Y-45840002D03*
X102300000Y-18400000D03*
X116200000Y-48900000D03*
X60276746Y-45337029D03*
X79200000Y-58200000D03*
X115100000Y-28200000D03*
X116100000Y-16700000D03*
X76769806Y-54625000D03*
X114600000Y-21600000D03*
X121900000Y-53800000D03*
X120709500Y-53900000D03*
X75000000Y-58100000D03*
X54000000Y-59250000D03*
X121200000Y-25800000D03*
X65123990Y-41021000D03*
X114850000Y-16650000D03*
X117900000Y-29100000D03*
X98100000Y-19600000D03*
X91100000Y-50300000D03*
X55151693Y-29951693D03*
X110600000Y-27700000D03*
X75700000Y-24700000D03*
X115500000Y-32500000D03*
X63100000Y-27284500D03*
X114954092Y-44450000D03*
X117600000Y-15600000D03*
X117334015Y-31265985D03*
X72250000Y-39000000D03*
X73091535Y-53390500D03*
X98900000Y-26700000D03*
X102616000Y-25908000D03*
X64200000Y-27300000D03*
X118000000Y-32400000D03*
X67900000Y-25000000D03*
X39800000Y-24000000D03*
X76600000Y-32700000D03*
X40600000Y-25300000D03*
X75800000Y-33300000D03*
X100600000Y-13600000D03*
X118600000Y-53000000D03*
X118790500Y-30500000D03*
X75448895Y-56250000D03*
X109700000Y-13609500D03*
X35700000Y-27800000D03*
X40466337Y-28866337D03*
X35700000Y-32800000D03*
X35633940Y-60664443D03*
X78740000Y-61300000D03*
X111500000Y-45000000D03*
X100234015Y-18065985D03*
X100500000Y-26400000D03*
X108929797Y-32265500D03*
X100200000Y-20100000D03*
X93300000Y-31200000D03*
X68250000Y-38000000D03*
X70993000Y-47498000D03*
X60326257Y-43559743D03*
X68540000Y-39451000D03*
X72000000Y-18100000D03*
X69598307Y-31001693D03*
X72100000Y-22300000D03*
X65827661Y-40227659D03*
X71900000Y-27500000D03*
X66795248Y-40192747D03*
X69000000Y-32000000D03*
X67000000Y-30800000D03*
X62927794Y-38873237D03*
X70513656Y-32991465D03*
X71100000Y-49400000D03*
X80500000Y-15784500D03*
X81700000Y-34700000D03*
X71967629Y-46342244D03*
X69700000Y-33500000D03*
X68900000Y-34200000D03*
X71197092Y-41985670D03*
X64876356Y-40094004D03*
X65000000Y-31500000D03*
X73500000Y-38500000D03*
X71387944Y-42926000D03*
X65500000Y-58250000D03*
X60750000Y-39000000D03*
X57000000Y-57000000D03*
X72092259Y-39946447D03*
X59500000Y-59250000D03*
X58250000Y-59000000D03*
X71100000Y-22600000D03*
X60500000Y-39750000D03*
X73900000Y-33200000D03*
X58250000Y-57000000D03*
X62250000Y-59250000D03*
X58250000Y-58000000D03*
X63000000Y-58500000D03*
X52000000Y-38000000D03*
X61750000Y-39000000D03*
X53000000Y-37500000D03*
X57000000Y-58000000D03*
X63000000Y-57250000D03*
X60750000Y-59250000D03*
X78900000Y-44200000D03*
X67945000Y-51333000D03*
X76750000Y-53500000D03*
X57600000Y-25000000D03*
X57600000Y-26600000D03*
X89684500Y-32400000D03*
X75700000Y-28600000D03*
X75705500Y-26800000D03*
X115477597Y-58122403D03*
X80500000Y-44200000D03*
X72100000Y-29800000D03*
X79715500Y-29400000D03*
X74034500Y-25100000D03*
X111900000Y-58900000D03*
X75000000Y-22400000D03*
X115500000Y-55600000D03*
X101200000Y-28200000D03*
X102600000Y-26900000D03*
X98800000Y-13300000D03*
X91571232Y-43271232D03*
X90828768Y-42528768D03*
X78459500Y-35300000D03*
X79173237Y-35941268D03*
X89700000Y-40600000D03*
X85400000Y-15200000D03*
X84680970Y-40356952D03*
X85616735Y-40144850D03*
X86548734Y-39916764D03*
X89900000Y-25600000D03*
X82000000Y-26600000D03*
X83300000Y-46090500D03*
X54000000Y-30300000D03*
X79100000Y-31784500D03*
X68900000Y-25600000D03*
X81280000Y-18874500D03*
X78500000Y-26100000D03*
X101575564Y-26371491D03*
X108900179Y-31267852D03*
X111100000Y-45900000D03*
X95600000Y-32900000D03*
X109700000Y-29700000D03*
X103000000Y-50000000D03*
X102491465Y-49186344D03*
X108800000Y-29200000D03*
X102392974Y-48231910D03*
X107736233Y-29095737D03*
X101871500Y-46569000D03*
X106777322Y-29062072D03*
X101187000Y-45884500D03*
X106787116Y-28084247D03*
X105812480Y-28090853D03*
X100502500Y-45202500D03*
X104842351Y-28092952D03*
X99818000Y-44482000D03*
X104864218Y-27102348D03*
X99125000Y-43675000D03*
X98440500Y-42966421D03*
X104130116Y-26484500D03*
X116100000Y-42300000D03*
X116500000Y-41400000D03*
X116500000Y-40400000D03*
X116115500Y-38000548D03*
X116615500Y-38819475D03*
X116615500Y-36390646D03*
X116300000Y-35484500D03*
X115418078Y-34684500D03*
X116300000Y-34000000D03*
X109660982Y-27897208D03*
X90700000Y-47900000D03*
X93800000Y-32200000D03*
X94700000Y-31500000D03*
X116315632Y-33015632D03*
X91650000Y-48250000D03*
X110434500Y-26484500D03*
X58601000Y-46101000D03*
X52629276Y-47047619D03*
X52750000Y-48000000D03*
X59314705Y-47596994D03*
X90300000Y-41600000D03*
X85300000Y-16500000D03*
D16*
X63854000Y-37604000D02*
X64000000Y-37750000D01*
X63854000Y-36896000D02*
X63854000Y-37604000D01*
D17*
X59429002Y-49663998D02*
X60452000Y-48641000D01*
D16*
X116240000Y-54040000D02*
X117490000Y-55290000D01*
X117490000Y-55290000D02*
X117490000Y-55745013D01*
D17*
X112490000Y-20810000D02*
X98210000Y-20810000D01*
D16*
X117490000Y-55745013D02*
X117600000Y-55855013D01*
D17*
X98210000Y-20810000D02*
X98200000Y-20800000D01*
D16*
X81660000Y-54040000D02*
X116240000Y-54040000D01*
D17*
X113900000Y-19400000D02*
X112490000Y-20810000D01*
X53500000Y-49663998D02*
X59429002Y-49663998D01*
D16*
X78200000Y-57500000D02*
X81660000Y-54040000D01*
X117600000Y-55855013D02*
X117600000Y-57800000D01*
X82700000Y-54700000D02*
X113200000Y-54700000D01*
X79200000Y-58200000D02*
X82700000Y-54700000D01*
D17*
X54090002Y-44750000D02*
X59689717Y-44750000D01*
X113000000Y-19000000D02*
X102900000Y-19000000D01*
X121800000Y-55500000D02*
X122610000Y-54690000D01*
D16*
X117300000Y-58800000D02*
X118500000Y-58800000D01*
X113200000Y-54700000D02*
X117300000Y-58800000D01*
D17*
X118004092Y-48900000D02*
X116200000Y-48900000D01*
X122610000Y-54690000D02*
X122610000Y-53505908D01*
X102900000Y-19000000D02*
X102300000Y-18400000D01*
X122610000Y-53505908D02*
X118004092Y-48900000D01*
X59689717Y-44750000D02*
X60276746Y-45337029D01*
X53000000Y-45840002D02*
X54090002Y-44750000D01*
D16*
X118500000Y-58800000D02*
X121800000Y-55500000D01*
X116545513Y-49700000D02*
X116535513Y-49710000D01*
X115854487Y-49700000D02*
X113933380Y-49700000D01*
X113933380Y-49700000D02*
X111573380Y-52060000D01*
D17*
X116100000Y-18040000D02*
X116100000Y-16700000D01*
D16*
X116535513Y-49710000D02*
X115864487Y-49710000D01*
D17*
X114600000Y-19540000D02*
X116100000Y-18040000D01*
X114600000Y-21600000D02*
X115100000Y-22100000D01*
X114600000Y-21600000D02*
X114600000Y-19540000D01*
D16*
X79340000Y-52060000D02*
X76775000Y-54625000D01*
X76775000Y-54625000D02*
X76769806Y-54625000D01*
X117800000Y-49700000D02*
X116545513Y-49700000D01*
X121900000Y-53800000D02*
X117800000Y-49700000D01*
D17*
X115100000Y-22100000D02*
X115100000Y-28200000D01*
D16*
X115864487Y-49710000D02*
X115854487Y-49700000D01*
X111573380Y-52060000D02*
X79340000Y-52060000D01*
D17*
X51750000Y-45250000D02*
X51750000Y-57000000D01*
D16*
X80620000Y-53380000D02*
X75900000Y-58100000D01*
X112120140Y-53380000D02*
X80620000Y-53380000D01*
D17*
X64468990Y-40968990D02*
X64000000Y-40500000D01*
X65123990Y-41021000D02*
X65071980Y-40968990D01*
D16*
X114200140Y-51300000D02*
X112120140Y-53380000D01*
X117790000Y-52590000D02*
X116500000Y-51300000D01*
X116500000Y-51300000D02*
X114200140Y-51300000D01*
D17*
X99800000Y-17200000D02*
X114300000Y-17200000D01*
X117900000Y-29100000D02*
X121200000Y-25800000D01*
D16*
X118354487Y-53900000D02*
X117790000Y-53335513D01*
D17*
X56500000Y-40500000D02*
X64000000Y-40500000D01*
D16*
X75900000Y-58100000D02*
X75000000Y-58100000D01*
D17*
X114300000Y-17200000D02*
X114850000Y-16650000D01*
D16*
X120709500Y-53900000D02*
X118354487Y-53900000D01*
D17*
X56500000Y-40500000D02*
X51750000Y-45250000D01*
X65071980Y-40968990D02*
X64468990Y-40968990D01*
X51750000Y-57000000D02*
X54000000Y-59250000D01*
X98100000Y-18900000D02*
X99800000Y-17200000D01*
D16*
X117790000Y-53335513D02*
X117790000Y-52590000D01*
D17*
X98100000Y-19600000D02*
X98100000Y-18900000D01*
X81300000Y-42400000D02*
X70308307Y-31408307D01*
X70308307Y-31408307D02*
X70308307Y-30707601D01*
X91100000Y-50300000D02*
X84800000Y-50300000D01*
X81300000Y-46800000D02*
X81300000Y-42400000D01*
X84800000Y-50300000D02*
X81300000Y-46800000D01*
X70308307Y-30707601D02*
X69552399Y-29951693D01*
X69552399Y-29951693D02*
X55151693Y-29951693D01*
D18*
X110600000Y-27700000D02*
X115400000Y-32500000D01*
X115400000Y-32500000D02*
X115500000Y-32500000D01*
X67900000Y-20800000D02*
X63100000Y-25600000D01*
X71800000Y-20800000D02*
X67900000Y-20800000D01*
X63100000Y-25600000D02*
X63100000Y-27284500D01*
X75700000Y-24700000D02*
X71800000Y-20800000D01*
D16*
X73440000Y-53042035D02*
X73091535Y-53390500D01*
X111300000Y-51400000D02*
X114954092Y-47745908D01*
D17*
X117600000Y-19000000D02*
X117600000Y-15600000D01*
X116700000Y-30631970D02*
X116700000Y-19900000D01*
D16*
X72300000Y-39000000D02*
X73440000Y-40140000D01*
X75082035Y-51400000D02*
X111300000Y-51400000D01*
D17*
X117334015Y-31265985D02*
X116700000Y-30631970D01*
D16*
X114954092Y-47745908D02*
X114954092Y-44450000D01*
X72250000Y-39000000D02*
X72300000Y-39000000D01*
D17*
X116700000Y-19900000D02*
X117600000Y-19000000D01*
D16*
X73091535Y-53390500D02*
X75082035Y-51400000D01*
X73440000Y-40140000D02*
X73440000Y-53042035D01*
D18*
X110718737Y-25800000D02*
X111119500Y-26200763D01*
X111119500Y-26200763D02*
X111119500Y-26219500D01*
X99913509Y-25686491D02*
X98900000Y-26700000D01*
X102616000Y-25908000D02*
X102394491Y-25686491D01*
X102724000Y-25800000D02*
X110718737Y-25800000D01*
X102616000Y-25908000D02*
X102724000Y-25800000D01*
X67900000Y-25000000D02*
X66500000Y-25000000D01*
X66500000Y-25000000D02*
X64200000Y-27300000D01*
X102394491Y-25686491D02*
X99913509Y-25686491D01*
X117300000Y-32400000D02*
X118000000Y-32400000D01*
X111119500Y-26219500D02*
X117300000Y-32400000D01*
X76800000Y-22200000D02*
X76800000Y-32500000D01*
X39800000Y-21800000D02*
X41800000Y-19800000D01*
X76800000Y-32500000D02*
X76600000Y-32700000D01*
X41800000Y-19800000D02*
X74400000Y-19800000D01*
X74400000Y-19800000D02*
X76800000Y-22200000D01*
X39800000Y-24000000D02*
X39800000Y-21800000D01*
X40600000Y-21900000D02*
X40600000Y-25300000D01*
X76390000Y-22690000D02*
X73910000Y-20210000D01*
X75800000Y-31900000D02*
X76390000Y-31310000D01*
X76390000Y-31310000D02*
X76390000Y-22690000D01*
X73910000Y-20210000D02*
X42290000Y-20210000D01*
X75800000Y-33300000D02*
X75800000Y-31900000D01*
X42290000Y-20210000D02*
X40600000Y-21900000D01*
D17*
X100600000Y-13600000D02*
X109690500Y-13600000D01*
D16*
X118600000Y-53000000D02*
X118600000Y-52200000D01*
D17*
X118810500Y-30480000D02*
X122936000Y-30480000D01*
D16*
X118600000Y-52200000D02*
X116800000Y-50400000D01*
X79820319Y-52720000D02*
X76290319Y-56250000D01*
X111846760Y-52720000D02*
X79820319Y-52720000D01*
X114166760Y-50400000D02*
X111846760Y-52720000D01*
X76290319Y-56250000D02*
X75448895Y-56250000D01*
X116800000Y-50400000D02*
X114166760Y-50400000D01*
D17*
X109690500Y-13600000D02*
X109700000Y-13609500D01*
X118790500Y-30500000D02*
X118810500Y-30480000D01*
D16*
X39400000Y-27800000D02*
X40466337Y-28866337D01*
X35700000Y-27800000D02*
X39400000Y-27800000D01*
X35700000Y-27800000D02*
X35700000Y-32800000D01*
D17*
X78730000Y-61290000D02*
X36259497Y-61290000D01*
X78740000Y-61300000D02*
X78730000Y-61290000D01*
X36259497Y-61290000D02*
X35633940Y-60664443D01*
D18*
X111259594Y-45000000D02*
X108929797Y-42670203D01*
X94100000Y-30400000D02*
X96500000Y-30400000D01*
X111500000Y-45000000D02*
X111259594Y-45000000D01*
X93300000Y-31200000D02*
X94100000Y-30400000D01*
X108929797Y-42670203D02*
X108929797Y-32265500D01*
X100200000Y-20100000D02*
X100200000Y-18100000D01*
X100200000Y-18100000D02*
X100234015Y-18065985D01*
X96500000Y-30400000D02*
X100500000Y-26400000D01*
D16*
X70104000Y-41656000D02*
X70104000Y-46609000D01*
X60326257Y-42035743D02*
X60833000Y-41529000D01*
D19*
X68250000Y-39161000D02*
X68540000Y-39451000D01*
D16*
X64433188Y-41529000D02*
X64735189Y-41831001D01*
X68599000Y-39510000D02*
X68540000Y-39451000D01*
D19*
X68250000Y-38000000D02*
X68250000Y-39161000D01*
D16*
X60833000Y-41529000D02*
X64433188Y-41529000D01*
X60326257Y-43559743D02*
X60326257Y-42035743D01*
X68540000Y-39592802D02*
X68540000Y-39451000D01*
X68599000Y-40151000D02*
X68599000Y-39510000D01*
X70104000Y-46609000D02*
X70993000Y-47498000D01*
X68599000Y-40151000D02*
X70104000Y-41656000D01*
X66301801Y-41831001D02*
X68540000Y-39592802D01*
X64735189Y-41831001D02*
X66301801Y-41831001D01*
D18*
X72000000Y-18100000D02*
X46295000Y-18100000D01*
D20*
X68998307Y-31001693D02*
X66200000Y-33800000D01*
X66200000Y-39472161D02*
X65827661Y-39844500D01*
D18*
X46295000Y-18100000D02*
X39495000Y-11300000D01*
D20*
X66200000Y-33800000D02*
X66200000Y-39472161D01*
X69598307Y-31001693D02*
X68998307Y-31001693D01*
D18*
X72100000Y-27300000D02*
X72100000Y-22300000D01*
X71900000Y-27500000D02*
X72100000Y-27300000D01*
D20*
X65827661Y-39844500D02*
X65827661Y-40227659D01*
X66643997Y-40041496D02*
X66643997Y-34356003D01*
X66795248Y-40192747D02*
X66643997Y-40041496D01*
X66643997Y-34356003D02*
X69000000Y-32000000D01*
X65200000Y-37900000D02*
X64226763Y-38873237D01*
X64226763Y-38873237D02*
X62927794Y-38873237D01*
X64726619Y-30840000D02*
X64340000Y-31226619D01*
X66960000Y-30840000D02*
X64726619Y-30840000D01*
X65200000Y-32633381D02*
X65200000Y-37900000D01*
X67000000Y-30800000D02*
X66960000Y-30840000D01*
X64340000Y-31773381D02*
X65200000Y-32633381D01*
X64340000Y-31226619D02*
X64340000Y-31773381D01*
X70500000Y-39400000D02*
X72700000Y-41600000D01*
X70500000Y-33005121D02*
X70500000Y-39400000D01*
X70513656Y-32991465D02*
X70500000Y-33005121D01*
X72700000Y-41600000D02*
X72700000Y-47800000D01*
X72700000Y-47800000D02*
X71100000Y-49400000D01*
D18*
X80500000Y-15784500D02*
X80400000Y-15884500D01*
X81700000Y-27300000D02*
X81700000Y-34700000D01*
X80400000Y-26000000D02*
X81700000Y-27300000D01*
X80400000Y-15884500D02*
X80400000Y-26000000D01*
D20*
X70900000Y-40700000D02*
X70000000Y-39800000D01*
X70000000Y-33800000D02*
X69700000Y-33500000D01*
X72047944Y-46261929D02*
X72047944Y-41847944D01*
X70000000Y-39800000D02*
X70000000Y-33800000D01*
X71967629Y-46342244D02*
X72047944Y-46261929D01*
X72047944Y-41847944D02*
X70900000Y-40700000D01*
X68900000Y-34200000D02*
X69500000Y-34800000D01*
X69500000Y-40288578D02*
X71197092Y-41985670D01*
X69500000Y-34800000D02*
X69500000Y-40288578D01*
X65000000Y-31500000D02*
X65700000Y-32200000D01*
X65700000Y-32200000D02*
X65700000Y-39270360D01*
X65700000Y-39270360D02*
X64876356Y-40094004D01*
D16*
X71000000Y-22700000D02*
X71000000Y-30300000D01*
X71000000Y-30300000D02*
X73900000Y-33200000D01*
X71100000Y-22600000D02*
X71000000Y-22700000D01*
X76750000Y-53500000D02*
X76050000Y-54200000D01*
X76050000Y-54200000D02*
X71450000Y-54200000D01*
X71450000Y-54200000D02*
X68583000Y-51333000D01*
X68583000Y-51333000D02*
X67945000Y-51333000D01*
D17*
X36955000Y-11300000D02*
X38115000Y-10140000D01*
X38115000Y-10140000D02*
X95640000Y-10140000D01*
D18*
X102600000Y-26900000D02*
X102500000Y-26900000D01*
X102500000Y-26900000D02*
X101200000Y-28200000D01*
D17*
X95640000Y-10140000D02*
X98800000Y-13300000D01*
D20*
X74830001Y-19330001D02*
X28144999Y-19330001D01*
X81875000Y-46393200D02*
X81875000Y-40184116D01*
X83006800Y-47525000D02*
X81875000Y-46393200D01*
X77300000Y-21800000D02*
X74830001Y-19330001D01*
X86893199Y-47525000D02*
X83006800Y-47525000D01*
X77300000Y-35609116D02*
X77300000Y-21800000D01*
X81875000Y-40184116D02*
X77300000Y-35609116D01*
X91571232Y-43271232D02*
X91146967Y-43271232D01*
X91146967Y-43271232D02*
X86893199Y-47525000D01*
X28144999Y-19330001D02*
X27100000Y-20375000D01*
X83193200Y-47075000D02*
X82325000Y-46206800D01*
X90828768Y-42953033D02*
X86706801Y-47075000D01*
X28144999Y-18879999D02*
X27100000Y-17835000D01*
X77800000Y-21600000D02*
X75079999Y-18879999D01*
X82325000Y-40125000D02*
X77800000Y-35600000D01*
X90828768Y-42528768D02*
X90828768Y-42953033D01*
X86706801Y-47075000D02*
X83193200Y-47075000D01*
X75079999Y-18879999D02*
X28144999Y-18879999D01*
X77800000Y-35600000D02*
X77800000Y-21600000D01*
X82325000Y-46206800D02*
X82325000Y-40125000D01*
D18*
X79185000Y-26164828D02*
X79185000Y-17585000D01*
X75400000Y-13800000D02*
X73580000Y-13800000D01*
X79185000Y-17585000D02*
X75400000Y-13800000D01*
X78459500Y-35300000D02*
X80400000Y-33359500D01*
X73580000Y-13800000D02*
X71080000Y-11300000D01*
X80400000Y-33359500D02*
X80400000Y-27379828D01*
X80400000Y-27379828D02*
X79185000Y-26164828D01*
X80950000Y-34164505D02*
X80950000Y-27350000D01*
X79173237Y-35941268D02*
X80950000Y-34164505D01*
X80950000Y-27350000D02*
X79800000Y-26200000D01*
X76200000Y-13300000D02*
X75620000Y-13300000D01*
X75620000Y-13300000D02*
X73620000Y-11300000D01*
X79800000Y-16900000D02*
X76200000Y-13300000D01*
X79800000Y-26200000D02*
X79800000Y-16900000D01*
X86100000Y-24200000D02*
X86100000Y-15900000D01*
X86100000Y-15900000D02*
X85400000Y-15200000D01*
X89700000Y-40600000D02*
X87900000Y-38800000D01*
X87900000Y-26000000D02*
X86100000Y-24200000D01*
X87900000Y-38800000D02*
X87900000Y-26000000D01*
X84680970Y-40356952D02*
X83900000Y-39575982D01*
X83900000Y-39575982D02*
X83900000Y-26900000D01*
X82680000Y-12400000D02*
X83780000Y-11300000D01*
X82680000Y-25680000D02*
X82680000Y-12400000D01*
X83900000Y-26900000D02*
X82680000Y-25680000D01*
X83600000Y-13620000D02*
X85920000Y-11300000D01*
X85920000Y-11300000D02*
X86320000Y-11300000D01*
X85616735Y-40144850D02*
X84900000Y-39428115D01*
X84900000Y-26700000D02*
X83600000Y-25400000D01*
X83600000Y-25400000D02*
X83600000Y-13620000D01*
X84900000Y-39428115D02*
X84900000Y-26700000D01*
X84500000Y-25000000D02*
X84500000Y-14559293D01*
X86000000Y-26500000D02*
X84500000Y-25000000D01*
X86000000Y-39368030D02*
X86000000Y-26500000D01*
X88860000Y-12140000D02*
X88860000Y-11300000D01*
X84500000Y-14559293D02*
X85630278Y-13429015D01*
X86548734Y-39916764D02*
X86000000Y-39368030D01*
X87570985Y-13429015D02*
X88860000Y-12140000D01*
X85630278Y-13429015D02*
X87570985Y-13429015D01*
X87900000Y-15200000D02*
X91400000Y-11700000D01*
X91400000Y-11700000D02*
X91400000Y-11300000D01*
X87900000Y-23600000D02*
X87900000Y-15200000D01*
X89900000Y-25600000D02*
X87900000Y-23600000D01*
X83200000Y-45990500D02*
X83300000Y-46090500D01*
X82700000Y-37300000D02*
X83200000Y-37800000D01*
X82000000Y-26600000D02*
X82700000Y-27300000D01*
X82700000Y-27300000D02*
X82700000Y-37300000D01*
X83200000Y-37800000D02*
X83200000Y-45990500D01*
D17*
X79100000Y-31784500D02*
X79100000Y-31200000D01*
X55700000Y-28400000D02*
X54000000Y-30100000D01*
X68700000Y-25800000D02*
X66800000Y-25800000D01*
X68900000Y-25600000D02*
X68700000Y-25800000D01*
X66800000Y-25800000D02*
X64200000Y-28400000D01*
X79100000Y-31200000D02*
X78500000Y-30600000D01*
X81280000Y-18874500D02*
X81240000Y-18834500D01*
X81240000Y-18834500D02*
X81240000Y-11300000D01*
X78500000Y-30600000D02*
X78500000Y-26100000D01*
X54000000Y-30100000D02*
X54000000Y-30300000D01*
X64200000Y-28400000D02*
X55700000Y-28400000D01*
D18*
X95600000Y-32347055D02*
X101575564Y-26371491D01*
X108245297Y-43045297D02*
X111100000Y-45900000D01*
X108245297Y-31922734D02*
X108245297Y-43045297D01*
X95600000Y-32900000D02*
X95600000Y-32347055D01*
X108900179Y-31267852D02*
X108245297Y-31922734D01*
X109500000Y-29700000D02*
X109700000Y-29700000D01*
X103925000Y-49075000D02*
X103925000Y-35275000D01*
X103000000Y-50000000D02*
X103925000Y-49075000D01*
X103925000Y-35275000D02*
X109500000Y-29700000D01*
X102491465Y-49186344D02*
X103240500Y-48437309D01*
X103240500Y-48437309D02*
X103240500Y-34759500D01*
X103240500Y-34759500D02*
X108800000Y-29200000D01*
X102556000Y-48068884D02*
X102556000Y-34275970D01*
X102556000Y-34275970D02*
X107736233Y-29095737D01*
X102392974Y-48231910D02*
X102556000Y-48068884D01*
X101871500Y-46569000D02*
X101871500Y-33967894D01*
X101871500Y-33967894D02*
X106777322Y-29062072D01*
X101187000Y-33684363D02*
X106787116Y-28084247D01*
X101187000Y-45884500D02*
X101187000Y-33684363D01*
X100502500Y-33400833D02*
X105812480Y-28090853D01*
X100502500Y-45202500D02*
X100502500Y-33400833D01*
X99818000Y-44482000D02*
X99818000Y-33117303D01*
X99818000Y-33117303D02*
X104842351Y-28092952D01*
X99125000Y-32841566D02*
X104864218Y-27102348D01*
X99125000Y-43675000D02*
X99125000Y-32841566D01*
X104130116Y-26484500D02*
X104130116Y-26868418D01*
X98440500Y-32558034D02*
X98440500Y-42966421D01*
X104130116Y-26868418D02*
X98440500Y-32558034D01*
X120200000Y-48500000D02*
X120200000Y-46400000D01*
X120200000Y-46400000D02*
X116100000Y-42300000D01*
X122500000Y-50800000D02*
X120200000Y-48500000D01*
X122936000Y-50800000D02*
X122500000Y-50800000D01*
X116500000Y-41400000D02*
X121020000Y-45920000D01*
X121020000Y-46344000D02*
X122936000Y-48260000D01*
X121020000Y-45920000D02*
X121020000Y-46344000D01*
X116500000Y-40400000D02*
X117180000Y-40400000D01*
X122500000Y-45720000D02*
X122936000Y-45720000D01*
X117180000Y-40400000D02*
X122500000Y-45720000D01*
X122500000Y-43180000D02*
X122936000Y-43180000D01*
X116115500Y-38000548D02*
X115930500Y-38185548D01*
X115930500Y-38185548D02*
X115930500Y-39103212D01*
X115930500Y-39103212D02*
X116527288Y-39700000D01*
X116527288Y-39700000D02*
X119020000Y-39700000D01*
X119020000Y-39700000D02*
X122500000Y-43180000D01*
X121115475Y-38819475D02*
X122936000Y-40640000D01*
X116615500Y-38819475D02*
X121115475Y-38819475D01*
X116615500Y-36390646D02*
X121226646Y-36390646D01*
X121226646Y-36390646D02*
X122936000Y-38100000D01*
X116300000Y-35484500D02*
X116375500Y-35560000D01*
X116375500Y-35560000D02*
X122936000Y-35560000D01*
X115418078Y-34684500D02*
X115533578Y-34800000D01*
X115533578Y-34800000D02*
X121156000Y-34800000D01*
X121156000Y-34800000D02*
X122936000Y-33020000D01*
X115788000Y-34000000D02*
X116300000Y-34000000D01*
X93800000Y-44800000D02*
X93800000Y-32200000D01*
X109685208Y-27897208D02*
X115788000Y-34000000D01*
X90700000Y-47900000D02*
X93800000Y-44800000D01*
X109660982Y-27897208D02*
X109685208Y-27897208D01*
X116315632Y-32315632D02*
X116315632Y-33015632D01*
X110484500Y-26484500D02*
X116315632Y-32315632D01*
X110434500Y-26484500D02*
X110484500Y-26484500D01*
X91650000Y-48250000D02*
X94700000Y-45200000D01*
X94700000Y-45200000D02*
X94700000Y-31500000D01*
D17*
X52629276Y-47047619D02*
X54003968Y-47047619D01*
X58194900Y-45944900D02*
X58351000Y-46101000D01*
X58351000Y-46101000D02*
X58601000Y-46101000D01*
X55106687Y-45944900D02*
X58194900Y-45944900D01*
X54003968Y-47047619D02*
X55106687Y-45944900D01*
X58911699Y-48000000D02*
X59314705Y-47596994D01*
X52750000Y-48000000D02*
X58911699Y-48000000D01*
D18*
X90300000Y-41600000D02*
X89200000Y-41600000D01*
X85300000Y-24700000D02*
X85300000Y-16500000D01*
X86900000Y-26300000D02*
X85300000Y-24700000D01*
X89200000Y-41600000D02*
X86900000Y-39300000D01*
X86900000Y-39300000D02*
X86900000Y-26300000D01*
%TA.AperFunction,Conductor*%
G36*
X67322850Y-42184002D02*
G01*
X67369343Y-42237658D01*
X67379810Y-42274813D01*
X67386859Y-42332871D01*
X67447179Y-42491925D01*
X67447181Y-42491929D01*
X67511075Y-42584494D01*
X67543817Y-42631929D01*
X67671148Y-42744734D01*
X67821775Y-42823790D01*
X67821776Y-42823790D01*
X67821778Y-42823791D01*
X67978461Y-42862409D01*
X67986944Y-42864500D01*
X67986947Y-42864500D01*
X68157053Y-42864500D01*
X68157056Y-42864500D01*
X68322225Y-42823790D01*
X68472852Y-42744734D01*
X68600183Y-42631929D01*
X68600186Y-42631923D01*
X68605240Y-42626221D01*
X68607517Y-42628238D01*
X68651749Y-42592334D01*
X68722312Y-42584494D01*
X68785911Y-42616048D01*
X68789476Y-42619476D01*
X68797095Y-42627095D01*
X68831121Y-42689407D01*
X68834000Y-42716190D01*
X68834000Y-48743182D01*
X68813998Y-48811303D01*
X68760342Y-48857796D01*
X68690068Y-48867900D01*
X68677847Y-48865521D01*
X68536802Y-48830757D01*
X68536799Y-48830757D01*
X68366687Y-48830757D01*
X68366683Y-48830757D01*
X68201521Y-48871465D01*
X68201517Y-48871467D01*
X68050891Y-48950522D01*
X68050885Y-48950527D01*
X67923561Y-49063326D01*
X67923559Y-49063328D01*
X67826924Y-49203327D01*
X67826922Y-49203331D01*
X67766602Y-49362385D01*
X67746098Y-49531254D01*
X67746098Y-49531259D01*
X67766602Y-49700128D01*
X67826922Y-49859182D01*
X67826924Y-49859186D01*
X67826925Y-49859187D01*
X67923560Y-49999186D01*
X68050891Y-50111991D01*
X68183201Y-50181433D01*
X68234223Y-50230801D01*
X68250455Y-50299917D01*
X68226743Y-50366837D01*
X68170616Y-50410314D01*
X68124645Y-50419000D01*
X61512190Y-50419000D01*
X61444069Y-50398998D01*
X61423095Y-50382095D01*
X60996905Y-49955905D01*
X60962879Y-49893593D01*
X60960000Y-49866810D01*
X60960000Y-49177432D01*
X60980002Y-49109311D01*
X60982304Y-49105856D01*
X61011659Y-49063328D01*
X61076818Y-48968930D01*
X61137140Y-48809872D01*
X61157645Y-48641000D01*
X61137140Y-48472128D01*
X61076818Y-48313070D01*
X61076817Y-48313069D01*
X60982304Y-48176143D01*
X60960068Y-48108718D01*
X60960000Y-48104567D01*
X60960000Y-45528853D01*
X60961862Y-45513575D01*
X60960968Y-45513467D01*
X60982391Y-45337031D01*
X60982391Y-45337026D01*
X60960968Y-45160593D01*
X60961853Y-45160485D01*
X60960000Y-45145206D01*
X60960000Y-42716190D01*
X60980002Y-42648069D01*
X60996905Y-42627095D01*
X61423095Y-42200905D01*
X61485407Y-42166879D01*
X61512190Y-42164000D01*
X67254729Y-42164000D01*
X67322850Y-42184002D01*
G37*
%TD.AperFunction*%
M02*
