G04 #@! TF.GenerationSoftware,KiCad,Pcbnew,5.1.7*
G04 #@! TF.CreationDate,2020-10-28T19:58:48+01:00*
G04 #@! TF.ProjectId,epaper-breakout,65706170-6572-42d6-9272-65616b6f7574,rev?*
G04 #@! TF.SameCoordinates,Original*
G04 #@! TF.FileFunction,Soldermask,Top*
G04 #@! TF.FilePolarity,Negative*
%FSLAX46Y46*%
G04 Gerber Fmt 4.6, Leading zero omitted, Abs format (unit mm)*
G04 Created by KiCad (PCBNEW 5.1.7) date 2020-10-28 19:58:48*
%MOMM*%
%LPD*%
G01*
G04 APERTURE LIST*
%ADD10O,1.802000X1.802000*%
%ADD11C,1.102000*%
%ADD12C,1.392000*%
%ADD13C,1.802000*%
%ADD14C,2.302000*%
%ADD15C,0.902000*%
%ADD16O,1.002000X3.102000*%
%ADD17C,0.100000*%
G04 APERTURE END LIST*
D10*
X27160000Y-36000000D03*
X29700000Y-36000000D03*
X27160000Y-38540000D03*
X29700000Y-38540000D03*
X27160000Y-41080000D03*
X29700000Y-41080000D03*
X27160000Y-43620000D03*
X29700000Y-43620000D03*
X27160000Y-46160000D03*
X29700000Y-46160000D03*
X27160000Y-48700000D03*
G36*
G01*
X30601000Y-47850000D02*
X30601000Y-49550000D01*
G75*
G02*
X30550000Y-49601000I-51000J0D01*
G01*
X28850000Y-49601000D01*
G75*
G02*
X28799000Y-49550000I0J51000D01*
G01*
X28799000Y-47850000D01*
G75*
G02*
X28850000Y-47799000I51000J0D01*
G01*
X30550000Y-47799000D01*
G75*
G02*
X30601000Y-47850000I0J-51000D01*
G01*
G37*
G36*
G01*
X64181750Y-21301000D02*
X63218250Y-21301000D01*
G75*
G02*
X62949000Y-21031750I0J269250D01*
G01*
X62949000Y-20493250D01*
G75*
G02*
X63218250Y-20224000I269250J0D01*
G01*
X64181750Y-20224000D01*
G75*
G02*
X64451000Y-20493250I0J-269250D01*
G01*
X64451000Y-21031750D01*
G75*
G02*
X64181750Y-21301000I-269250J0D01*
G01*
G37*
G36*
G01*
X64181750Y-23176000D02*
X63218250Y-23176000D01*
G75*
G02*
X62949000Y-22906750I0J269250D01*
G01*
X62949000Y-22368250D01*
G75*
G02*
X63218250Y-22099000I269250J0D01*
G01*
X64181750Y-22099000D01*
G75*
G02*
X64451000Y-22368250I0J-269250D01*
G01*
X64451000Y-22906750D01*
G75*
G02*
X64181750Y-23176000I-269250J0D01*
G01*
G37*
D11*
X65900000Y-30100000D03*
G36*
G01*
X30264000Y-20215000D02*
X30264000Y-21915000D01*
G75*
G02*
X30213000Y-21966000I-51000J0D01*
G01*
X28713000Y-21966000D01*
G75*
G02*
X28662000Y-21915000I0J51000D01*
G01*
X28662000Y-20215000D01*
G75*
G02*
X28713000Y-20164000I51000J0D01*
G01*
X30213000Y-20164000D01*
G75*
G02*
X30264000Y-20215000I0J-51000D01*
G01*
G37*
D12*
X32888000Y-23765000D03*
G36*
G01*
X31364000Y-23140000D02*
X31364000Y-24390000D01*
G75*
G02*
X31313000Y-24441000I-51000J0D01*
G01*
X30913000Y-24441000D01*
G75*
G02*
X30862000Y-24390000I0J51000D01*
G01*
X30862000Y-23140000D01*
G75*
G02*
X30913000Y-23089000I51000J0D01*
G01*
X31313000Y-23089000D01*
G75*
G02*
X31364000Y-23140000I0J-51000D01*
G01*
G37*
G36*
G01*
X32014000Y-23140000D02*
X32014000Y-24390000D01*
G75*
G02*
X31963000Y-24441000I-51000J0D01*
G01*
X31563000Y-24441000D01*
G75*
G02*
X31512000Y-24390000I0J51000D01*
G01*
X31512000Y-23140000D01*
G75*
G02*
X31563000Y-23089000I51000J0D01*
G01*
X31963000Y-23089000D01*
G75*
G02*
X32014000Y-23140000I0J-51000D01*
G01*
G37*
G36*
G01*
X29414000Y-23140000D02*
X29414000Y-24390000D01*
G75*
G02*
X29363000Y-24441000I-51000J0D01*
G01*
X28963000Y-24441000D01*
G75*
G02*
X28912000Y-24390000I0J51000D01*
G01*
X28912000Y-23140000D01*
G75*
G02*
X28963000Y-23089000I51000J0D01*
G01*
X29363000Y-23089000D01*
G75*
G02*
X29414000Y-23140000I0J-51000D01*
G01*
G37*
G36*
G01*
X30064000Y-23140000D02*
X30064000Y-24390000D01*
G75*
G02*
X30013000Y-24441000I-51000J0D01*
G01*
X29613000Y-24441000D01*
G75*
G02*
X29562000Y-24390000I0J51000D01*
G01*
X29562000Y-23140000D01*
G75*
G02*
X29613000Y-23089000I51000J0D01*
G01*
X30013000Y-23089000D01*
G75*
G02*
X30064000Y-23140000I0J-51000D01*
G01*
G37*
G36*
G01*
X30714000Y-23140000D02*
X30714000Y-24390000D01*
G75*
G02*
X30663000Y-24441000I-51000J0D01*
G01*
X30263000Y-24441000D01*
G75*
G02*
X30212000Y-24390000I0J51000D01*
G01*
X30212000Y-23140000D01*
G75*
G02*
X30263000Y-23089000I51000J0D01*
G01*
X30663000Y-23089000D01*
G75*
G02*
X30714000Y-23140000I0J-51000D01*
G01*
G37*
X28038000Y-23765000D03*
G36*
G01*
X32264000Y-20215000D02*
X32264000Y-21915000D01*
G75*
G02*
X32213000Y-21966000I-51000J0D01*
G01*
X30713000Y-21966000D01*
G75*
G02*
X30662000Y-21915000I0J51000D01*
G01*
X30662000Y-20215000D01*
G75*
G02*
X30713000Y-20164000I51000J0D01*
G01*
X32213000Y-20164000D01*
G75*
G02*
X32264000Y-20215000I0J-51000D01*
G01*
G37*
D13*
X34063000Y-21065000D03*
X26863000Y-21065000D03*
G36*
G01*
X28214000Y-20214999D02*
X28214000Y-21915001D01*
G75*
G02*
X28163001Y-21966000I-50999J0D01*
G01*
X26962999Y-21966000D01*
G75*
G02*
X26912000Y-21915001I0J50999D01*
G01*
X26912000Y-20214999D01*
G75*
G02*
X26962999Y-20164000I50999J0D01*
G01*
X28163001Y-20164000D01*
G75*
G02*
X28214000Y-20214999I0J-50999D01*
G01*
G37*
G36*
G01*
X34014000Y-20214999D02*
X34014000Y-21915001D01*
G75*
G02*
X33963001Y-21966000I-50999J0D01*
G01*
X32762999Y-21966000D01*
G75*
G02*
X32712000Y-21915001I0J50999D01*
G01*
X32712000Y-20214999D01*
G75*
G02*
X32762999Y-20164000I50999J0D01*
G01*
X33963001Y-20164000D01*
G75*
G02*
X34014000Y-20214999I0J-50999D01*
G01*
G37*
G36*
G01*
X52849000Y-39350000D02*
X52849000Y-39050000D01*
G75*
G02*
X52900000Y-38999000I51000J0D01*
G01*
X54300000Y-38999000D01*
G75*
G02*
X54351000Y-39050000I0J-51000D01*
G01*
X54351000Y-39350000D01*
G75*
G02*
X54300000Y-39401000I-51000J0D01*
G01*
X52900000Y-39401000D01*
G75*
G02*
X52849000Y-39350000I0J51000D01*
G01*
G37*
G36*
G01*
X52849000Y-39850000D02*
X52849000Y-39550000D01*
G75*
G02*
X52900000Y-39499000I51000J0D01*
G01*
X54300000Y-39499000D01*
G75*
G02*
X54351000Y-39550000I0J-51000D01*
G01*
X54351000Y-39850000D01*
G75*
G02*
X54300000Y-39901000I-51000J0D01*
G01*
X52900000Y-39901000D01*
G75*
G02*
X52849000Y-39850000I0J51000D01*
G01*
G37*
G36*
G01*
X52849000Y-40350000D02*
X52849000Y-40050000D01*
G75*
G02*
X52900000Y-39999000I51000J0D01*
G01*
X54300000Y-39999000D01*
G75*
G02*
X54351000Y-40050000I0J-51000D01*
G01*
X54351000Y-40350000D01*
G75*
G02*
X54300000Y-40401000I-51000J0D01*
G01*
X52900000Y-40401000D01*
G75*
G02*
X52849000Y-40350000I0J51000D01*
G01*
G37*
G36*
G01*
X52849000Y-40850000D02*
X52849000Y-40550000D01*
G75*
G02*
X52900000Y-40499000I51000J0D01*
G01*
X54300000Y-40499000D01*
G75*
G02*
X54351000Y-40550000I0J-51000D01*
G01*
X54351000Y-40850000D01*
G75*
G02*
X54300000Y-40901000I-51000J0D01*
G01*
X52900000Y-40901000D01*
G75*
G02*
X52849000Y-40850000I0J51000D01*
G01*
G37*
G36*
G01*
X52849000Y-41350000D02*
X52849000Y-41050000D01*
G75*
G02*
X52900000Y-40999000I51000J0D01*
G01*
X54300000Y-40999000D01*
G75*
G02*
X54351000Y-41050000I0J-51000D01*
G01*
X54351000Y-41350000D01*
G75*
G02*
X54300000Y-41401000I-51000J0D01*
G01*
X52900000Y-41401000D01*
G75*
G02*
X52849000Y-41350000I0J51000D01*
G01*
G37*
G36*
G01*
X48449000Y-41350000D02*
X48449000Y-41050000D01*
G75*
G02*
X48500000Y-40999000I51000J0D01*
G01*
X49900000Y-40999000D01*
G75*
G02*
X49951000Y-41050000I0J-51000D01*
G01*
X49951000Y-41350000D01*
G75*
G02*
X49900000Y-41401000I-51000J0D01*
G01*
X48500000Y-41401000D01*
G75*
G02*
X48449000Y-41350000I0J51000D01*
G01*
G37*
G36*
G01*
X48449000Y-40850000D02*
X48449000Y-40550000D01*
G75*
G02*
X48500000Y-40499000I51000J0D01*
G01*
X49900000Y-40499000D01*
G75*
G02*
X49951000Y-40550000I0J-51000D01*
G01*
X49951000Y-40850000D01*
G75*
G02*
X49900000Y-40901000I-51000J0D01*
G01*
X48500000Y-40901000D01*
G75*
G02*
X48449000Y-40850000I0J51000D01*
G01*
G37*
G36*
G01*
X48449000Y-40350000D02*
X48449000Y-40050000D01*
G75*
G02*
X48500000Y-39999000I51000J0D01*
G01*
X49900000Y-39999000D01*
G75*
G02*
X49951000Y-40050000I0J-51000D01*
G01*
X49951000Y-40350000D01*
G75*
G02*
X49900000Y-40401000I-51000J0D01*
G01*
X48500000Y-40401000D01*
G75*
G02*
X48449000Y-40350000I0J51000D01*
G01*
G37*
G36*
G01*
X48449000Y-39850000D02*
X48449000Y-39550000D01*
G75*
G02*
X48500000Y-39499000I51000J0D01*
G01*
X49900000Y-39499000D01*
G75*
G02*
X49951000Y-39550000I0J-51000D01*
G01*
X49951000Y-39850000D01*
G75*
G02*
X49900000Y-39901000I-51000J0D01*
G01*
X48500000Y-39901000D01*
G75*
G02*
X48449000Y-39850000I0J51000D01*
G01*
G37*
G36*
G01*
X48449000Y-39350000D02*
X48449000Y-39050000D01*
G75*
G02*
X48500000Y-38999000I51000J0D01*
G01*
X49900000Y-38999000D01*
G75*
G02*
X49951000Y-39050000I0J-51000D01*
G01*
X49951000Y-39350000D01*
G75*
G02*
X49900000Y-39401000I-51000J0D01*
G01*
X48500000Y-39401000D01*
G75*
G02*
X48449000Y-39350000I0J51000D01*
G01*
G37*
G36*
G01*
X57600000Y-21301000D02*
X56800000Y-21301000D01*
G75*
G02*
X56749000Y-21250000I0J51000D01*
G01*
X56749000Y-20350000D01*
G75*
G02*
X56800000Y-20299000I51000J0D01*
G01*
X57600000Y-20299000D01*
G75*
G02*
X57651000Y-20350000I0J-51000D01*
G01*
X57651000Y-21250000D01*
G75*
G02*
X57600000Y-21301000I-51000J0D01*
G01*
G37*
G36*
G01*
X58550000Y-23301000D02*
X57750000Y-23301000D01*
G75*
G02*
X57699000Y-23250000I0J51000D01*
G01*
X57699000Y-22350000D01*
G75*
G02*
X57750000Y-22299000I51000J0D01*
G01*
X58550000Y-22299000D01*
G75*
G02*
X58601000Y-22350000I0J-51000D01*
G01*
X58601000Y-23250000D01*
G75*
G02*
X58550000Y-23301000I-51000J0D01*
G01*
G37*
G36*
G01*
X56650000Y-23301000D02*
X55850000Y-23301000D01*
G75*
G02*
X55799000Y-23250000I0J51000D01*
G01*
X55799000Y-22350000D01*
G75*
G02*
X55850000Y-22299000I51000J0D01*
G01*
X56650000Y-22299000D01*
G75*
G02*
X56701000Y-22350000I0J-51000D01*
G01*
X56701000Y-23250000D01*
G75*
G02*
X56650000Y-23301000I-51000J0D01*
G01*
G37*
G36*
G01*
X63981750Y-38901000D02*
X63018250Y-38901000D01*
G75*
G02*
X62749000Y-38631750I0J269250D01*
G01*
X62749000Y-38093250D01*
G75*
G02*
X63018250Y-37824000I269250J0D01*
G01*
X63981750Y-37824000D01*
G75*
G02*
X64251000Y-38093250I0J-269250D01*
G01*
X64251000Y-38631750D01*
G75*
G02*
X63981750Y-38901000I-269250J0D01*
G01*
G37*
G36*
G01*
X63981750Y-40776000D02*
X63018250Y-40776000D01*
G75*
G02*
X62749000Y-40506750I0J269250D01*
G01*
X62749000Y-39968250D01*
G75*
G02*
X63018250Y-39699000I269250J0D01*
G01*
X63981750Y-39699000D01*
G75*
G02*
X64251000Y-39968250I0J-269250D01*
G01*
X64251000Y-40506750D01*
G75*
G02*
X63981750Y-40776000I-269250J0D01*
G01*
G37*
G36*
G01*
X60818250Y-39699000D02*
X61781750Y-39699000D01*
G75*
G02*
X62051000Y-39968250I0J-269250D01*
G01*
X62051000Y-40506750D01*
G75*
G02*
X61781750Y-40776000I-269250J0D01*
G01*
X60818250Y-40776000D01*
G75*
G02*
X60549000Y-40506750I0J269250D01*
G01*
X60549000Y-39968250D01*
G75*
G02*
X60818250Y-39699000I269250J0D01*
G01*
G37*
G36*
G01*
X60818250Y-37824000D02*
X61781750Y-37824000D01*
G75*
G02*
X62051000Y-38093250I0J-269250D01*
G01*
X62051000Y-38631750D01*
G75*
G02*
X61781750Y-38901000I-269250J0D01*
G01*
X60818250Y-38901000D01*
G75*
G02*
X60549000Y-38631750I0J269250D01*
G01*
X60549000Y-38093250D01*
G75*
G02*
X60818250Y-37824000I269250J0D01*
G01*
G37*
G36*
G01*
X44018250Y-45161500D02*
X44981750Y-45161500D01*
G75*
G02*
X45251000Y-45430750I0J-269250D01*
G01*
X45251000Y-45969250D01*
G75*
G02*
X44981750Y-46238500I-269250J0D01*
G01*
X44018250Y-46238500D01*
G75*
G02*
X43749000Y-45969250I0J269250D01*
G01*
X43749000Y-45430750D01*
G75*
G02*
X44018250Y-45161500I269250J0D01*
G01*
G37*
G36*
G01*
X44018250Y-43286500D02*
X44981750Y-43286500D01*
G75*
G02*
X45251000Y-43555750I0J-269250D01*
G01*
X45251000Y-44094250D01*
G75*
G02*
X44981750Y-44363500I-269250J0D01*
G01*
X44018250Y-44363500D01*
G75*
G02*
X43749000Y-44094250I0J269250D01*
G01*
X43749000Y-43555750D01*
G75*
G02*
X44018250Y-43286500I269250J0D01*
G01*
G37*
G36*
G01*
X42681750Y-44363500D02*
X41718250Y-44363500D01*
G75*
G02*
X41449000Y-44094250I0J269250D01*
G01*
X41449000Y-43555750D01*
G75*
G02*
X41718250Y-43286500I269250J0D01*
G01*
X42681750Y-43286500D01*
G75*
G02*
X42951000Y-43555750I0J-269250D01*
G01*
X42951000Y-44094250D01*
G75*
G02*
X42681750Y-44363500I-269250J0D01*
G01*
G37*
G36*
G01*
X42681750Y-46238500D02*
X41718250Y-46238500D01*
G75*
G02*
X41449000Y-45969250I0J269250D01*
G01*
X41449000Y-45430750D01*
G75*
G02*
X41718250Y-45161500I269250J0D01*
G01*
X42681750Y-45161500D01*
G75*
G02*
X42951000Y-45430750I0J-269250D01*
G01*
X42951000Y-45969250D01*
G75*
G02*
X42681750Y-46238500I-269250J0D01*
G01*
G37*
G36*
G01*
X50281750Y-34501000D02*
X49318250Y-34501000D01*
G75*
G02*
X49049000Y-34231750I0J269250D01*
G01*
X49049000Y-33693250D01*
G75*
G02*
X49318250Y-33424000I269250J0D01*
G01*
X50281750Y-33424000D01*
G75*
G02*
X50551000Y-33693250I0J-269250D01*
G01*
X50551000Y-34231750D01*
G75*
G02*
X50281750Y-34501000I-269250J0D01*
G01*
G37*
G36*
G01*
X50281750Y-36376000D02*
X49318250Y-36376000D01*
G75*
G02*
X49049000Y-36106750I0J269250D01*
G01*
X49049000Y-35568250D01*
G75*
G02*
X49318250Y-35299000I269250J0D01*
G01*
X50281750Y-35299000D01*
G75*
G02*
X50551000Y-35568250I0J-269250D01*
G01*
X50551000Y-36106750D01*
G75*
G02*
X50281750Y-36376000I-269250J0D01*
G01*
G37*
G36*
G01*
X52381750Y-34501000D02*
X51418250Y-34501000D01*
G75*
G02*
X51149000Y-34231750I0J269250D01*
G01*
X51149000Y-33693250D01*
G75*
G02*
X51418250Y-33424000I269250J0D01*
G01*
X52381750Y-33424000D01*
G75*
G02*
X52651000Y-33693250I0J-269250D01*
G01*
X52651000Y-34231750D01*
G75*
G02*
X52381750Y-34501000I-269250J0D01*
G01*
G37*
G36*
G01*
X52381750Y-36376000D02*
X51418250Y-36376000D01*
G75*
G02*
X51149000Y-36106750I0J269250D01*
G01*
X51149000Y-35568250D01*
G75*
G02*
X51418250Y-35299000I269250J0D01*
G01*
X52381750Y-35299000D01*
G75*
G02*
X52651000Y-35568250I0J-269250D01*
G01*
X52651000Y-36106750D01*
G75*
G02*
X52381750Y-36376000I-269250J0D01*
G01*
G37*
G36*
G01*
X54601000Y-34600000D02*
X54601000Y-35400000D01*
G75*
G02*
X54550000Y-35451000I-51000J0D01*
G01*
X53650000Y-35451000D01*
G75*
G02*
X53599000Y-35400000I0J51000D01*
G01*
X53599000Y-34600000D01*
G75*
G02*
X53650000Y-34549000I51000J0D01*
G01*
X54550000Y-34549000D01*
G75*
G02*
X54601000Y-34600000I0J-51000D01*
G01*
G37*
G36*
G01*
X56601000Y-33650000D02*
X56601000Y-34450000D01*
G75*
G02*
X56550000Y-34501000I-51000J0D01*
G01*
X55650000Y-34501000D01*
G75*
G02*
X55599000Y-34450000I0J51000D01*
G01*
X55599000Y-33650000D01*
G75*
G02*
X55650000Y-33599000I51000J0D01*
G01*
X56550000Y-33599000D01*
G75*
G02*
X56601000Y-33650000I0J-51000D01*
G01*
G37*
G36*
G01*
X56601000Y-35550000D02*
X56601000Y-36350000D01*
G75*
G02*
X56550000Y-36401000I-51000J0D01*
G01*
X55650000Y-36401000D01*
G75*
G02*
X55599000Y-36350000I0J51000D01*
G01*
X55599000Y-35550000D01*
G75*
G02*
X55650000Y-35499000I51000J0D01*
G01*
X56550000Y-35499000D01*
G75*
G02*
X56601000Y-35550000I0J-51000D01*
G01*
G37*
G36*
G01*
X35600000Y-48649000D02*
X38000000Y-48649000D01*
G75*
G02*
X38051000Y-48700000I0J-51000D01*
G01*
X38051000Y-50200000D01*
G75*
G02*
X38000000Y-50251000I-51000J0D01*
G01*
X35600000Y-50251000D01*
G75*
G02*
X35549000Y-50200000I0J51000D01*
G01*
X35549000Y-48700000D01*
G75*
G02*
X35600000Y-48649000I51000J0D01*
G01*
G37*
G36*
G01*
X35600000Y-43149000D02*
X38000000Y-43149000D01*
G75*
G02*
X38051000Y-43200000I0J-51000D01*
G01*
X38051000Y-44700000D01*
G75*
G02*
X38000000Y-44751000I-51000J0D01*
G01*
X35600000Y-44751000D01*
G75*
G02*
X35549000Y-44700000I0J51000D01*
G01*
X35549000Y-43200000D01*
G75*
G02*
X35600000Y-43149000I51000J0D01*
G01*
G37*
G36*
G01*
X49651000Y-45700000D02*
X49651000Y-48100000D01*
G75*
G02*
X49600000Y-48151000I-51000J0D01*
G01*
X48100000Y-48151000D01*
G75*
G02*
X48049000Y-48100000I0J51000D01*
G01*
X48049000Y-45700000D01*
G75*
G02*
X48100000Y-45649000I51000J0D01*
G01*
X49600000Y-45649000D01*
G75*
G02*
X49651000Y-45700000I0J-51000D01*
G01*
G37*
G36*
G01*
X55151000Y-45700000D02*
X55151000Y-48100000D01*
G75*
G02*
X55100000Y-48151000I-51000J0D01*
G01*
X53600000Y-48151000D01*
G75*
G02*
X53549000Y-48100000I0J51000D01*
G01*
X53549000Y-45700000D01*
G75*
G02*
X53600000Y-45649000I51000J0D01*
G01*
X55100000Y-45649000D01*
G75*
G02*
X55151000Y-45700000I0J-51000D01*
G01*
G37*
G36*
G01*
X57700000Y-39951000D02*
X56500000Y-39951000D01*
G75*
G02*
X56449000Y-39900000I0J51000D01*
G01*
X56449000Y-39000000D01*
G75*
G02*
X56500000Y-38949000I51000J0D01*
G01*
X57700000Y-38949000D01*
G75*
G02*
X57751000Y-39000000I0J-51000D01*
G01*
X57751000Y-39900000D01*
G75*
G02*
X57700000Y-39951000I-51000J0D01*
G01*
G37*
G36*
G01*
X57700000Y-43251000D02*
X56500000Y-43251000D01*
G75*
G02*
X56449000Y-43200000I0J51000D01*
G01*
X56449000Y-42300000D01*
G75*
G02*
X56500000Y-42249000I51000J0D01*
G01*
X57700000Y-42249000D01*
G75*
G02*
X57751000Y-42300000I0J-51000D01*
G01*
X57751000Y-43200000D01*
G75*
G02*
X57700000Y-43251000I-51000J0D01*
G01*
G37*
G36*
G01*
X60551000Y-41700000D02*
X60551000Y-42900000D01*
G75*
G02*
X60500000Y-42951000I-51000J0D01*
G01*
X59600000Y-42951000D01*
G75*
G02*
X59549000Y-42900000I0J51000D01*
G01*
X59549000Y-41700000D01*
G75*
G02*
X59600000Y-41649000I51000J0D01*
G01*
X60500000Y-41649000D01*
G75*
G02*
X60551000Y-41700000I0J-51000D01*
G01*
G37*
G36*
G01*
X63851000Y-41700000D02*
X63851000Y-42900000D01*
G75*
G02*
X63800000Y-42951000I-51000J0D01*
G01*
X62900000Y-42951000D01*
G75*
G02*
X62849000Y-42900000I0J51000D01*
G01*
X62849000Y-41700000D01*
G75*
G02*
X62900000Y-41649000I51000J0D01*
G01*
X63800000Y-41649000D01*
G75*
G02*
X63851000Y-41700000I0J-51000D01*
G01*
G37*
G36*
G01*
X41751000Y-47200000D02*
X41751000Y-48400000D01*
G75*
G02*
X41700000Y-48451000I-51000J0D01*
G01*
X40800000Y-48451000D01*
G75*
G02*
X40749000Y-48400000I0J51000D01*
G01*
X40749000Y-47200000D01*
G75*
G02*
X40800000Y-47149000I51000J0D01*
G01*
X41700000Y-47149000D01*
G75*
G02*
X41751000Y-47200000I0J-51000D01*
G01*
G37*
G36*
G01*
X45051000Y-47200000D02*
X45051000Y-48400000D01*
G75*
G02*
X45000000Y-48451000I-51000J0D01*
G01*
X44100000Y-48451000D01*
G75*
G02*
X44049000Y-48400000I0J51000D01*
G01*
X44049000Y-47200000D01*
G75*
G02*
X44100000Y-47149000I51000J0D01*
G01*
X45000000Y-47149000D01*
G75*
G02*
X45051000Y-47200000I0J-51000D01*
G01*
G37*
G36*
G01*
X57818250Y-35999000D02*
X58381750Y-35999000D01*
G75*
G02*
X58626000Y-36243250I0J-244250D01*
G01*
X58626000Y-36731750D01*
G75*
G02*
X58381750Y-36976000I-244250J0D01*
G01*
X57818250Y-36976000D01*
G75*
G02*
X57574000Y-36731750I0J244250D01*
G01*
X57574000Y-36243250D01*
G75*
G02*
X57818250Y-35999000I244250J0D01*
G01*
G37*
G36*
G01*
X57818250Y-34424000D02*
X58381750Y-34424000D01*
G75*
G02*
X58626000Y-34668250I0J-244250D01*
G01*
X58626000Y-35156750D01*
G75*
G02*
X58381750Y-35401000I-244250J0D01*
G01*
X57818250Y-35401000D01*
G75*
G02*
X57574000Y-35156750I0J244250D01*
G01*
X57574000Y-34668250D01*
G75*
G02*
X57818250Y-34424000I244250J0D01*
G01*
G37*
G36*
G01*
X46781750Y-44501000D02*
X46218250Y-44501000D01*
G75*
G02*
X45974000Y-44256750I0J244250D01*
G01*
X45974000Y-43768250D01*
G75*
G02*
X46218250Y-43524000I244250J0D01*
G01*
X46781750Y-43524000D01*
G75*
G02*
X47026000Y-43768250I0J-244250D01*
G01*
X47026000Y-44256750D01*
G75*
G02*
X46781750Y-44501000I-244250J0D01*
G01*
G37*
G36*
G01*
X46781750Y-46076000D02*
X46218250Y-46076000D01*
G75*
G02*
X45974000Y-45831750I0J244250D01*
G01*
X45974000Y-45343250D01*
G75*
G02*
X46218250Y-45099000I244250J0D01*
G01*
X46781750Y-45099000D01*
G75*
G02*
X47026000Y-45343250I0J-244250D01*
G01*
X47026000Y-45831750D01*
G75*
G02*
X46781750Y-46076000I-244250J0D01*
G01*
G37*
G36*
G01*
X59581750Y-39101000D02*
X59018250Y-39101000D01*
G75*
G02*
X58774000Y-38856750I0J244250D01*
G01*
X58774000Y-38368250D01*
G75*
G02*
X59018250Y-38124000I244250J0D01*
G01*
X59581750Y-38124000D01*
G75*
G02*
X59826000Y-38368250I0J-244250D01*
G01*
X59826000Y-38856750D01*
G75*
G02*
X59581750Y-39101000I-244250J0D01*
G01*
G37*
G36*
G01*
X59581750Y-40676000D02*
X59018250Y-40676000D01*
G75*
G02*
X58774000Y-40431750I0J244250D01*
G01*
X58774000Y-39943250D01*
G75*
G02*
X59018250Y-39699000I244250J0D01*
G01*
X59581750Y-39699000D01*
G75*
G02*
X59826000Y-39943250I0J-244250D01*
G01*
X59826000Y-40431750D01*
G75*
G02*
X59581750Y-40676000I-244250J0D01*
G01*
G37*
G36*
G01*
X46218250Y-41999000D02*
X46781750Y-41999000D01*
G75*
G02*
X47026000Y-42243250I0J-244250D01*
G01*
X47026000Y-42731750D01*
G75*
G02*
X46781750Y-42976000I-244250J0D01*
G01*
X46218250Y-42976000D01*
G75*
G02*
X45974000Y-42731750I0J244250D01*
G01*
X45974000Y-42243250D01*
G75*
G02*
X46218250Y-41999000I244250J0D01*
G01*
G37*
G36*
G01*
X46218250Y-40424000D02*
X46781750Y-40424000D01*
G75*
G02*
X47026000Y-40668250I0J-244250D01*
G01*
X47026000Y-41156750D01*
G75*
G02*
X46781750Y-41401000I-244250J0D01*
G01*
X46218250Y-41401000D01*
G75*
G02*
X45974000Y-41156750I0J244250D01*
G01*
X45974000Y-40668250D01*
G75*
G02*
X46218250Y-40424000I244250J0D01*
G01*
G37*
G36*
G01*
X56018250Y-45599000D02*
X56581750Y-45599000D01*
G75*
G02*
X56826000Y-45843250I0J-244250D01*
G01*
X56826000Y-46331750D01*
G75*
G02*
X56581750Y-46576000I-244250J0D01*
G01*
X56018250Y-46576000D01*
G75*
G02*
X55774000Y-46331750I0J244250D01*
G01*
X55774000Y-45843250D01*
G75*
G02*
X56018250Y-45599000I244250J0D01*
G01*
G37*
G36*
G01*
X56018250Y-44024000D02*
X56581750Y-44024000D01*
G75*
G02*
X56826000Y-44268250I0J-244250D01*
G01*
X56826000Y-44756750D01*
G75*
G02*
X56581750Y-45001000I-244250J0D01*
G01*
X56018250Y-45001000D01*
G75*
G02*
X55774000Y-44756750I0J244250D01*
G01*
X55774000Y-44268250D01*
G75*
G02*
X56018250Y-44024000I244250J0D01*
G01*
G37*
G36*
G01*
X55199000Y-32281750D02*
X55199000Y-31718250D01*
G75*
G02*
X55443250Y-31474000I244250J0D01*
G01*
X55931750Y-31474000D01*
G75*
G02*
X56176000Y-31718250I0J-244250D01*
G01*
X56176000Y-32281750D01*
G75*
G02*
X55931750Y-32526000I-244250J0D01*
G01*
X55443250Y-32526000D01*
G75*
G02*
X55199000Y-32281750I0J244250D01*
G01*
G37*
G36*
G01*
X53624000Y-32281750D02*
X53624000Y-31718250D01*
G75*
G02*
X53868250Y-31474000I244250J0D01*
G01*
X54356750Y-31474000D01*
G75*
G02*
X54601000Y-31718250I0J-244250D01*
G01*
X54601000Y-32281750D01*
G75*
G02*
X54356750Y-32526000I-244250J0D01*
G01*
X53868250Y-32526000D01*
G75*
G02*
X53624000Y-32281750I0J244250D01*
G01*
G37*
D14*
X111400000Y-47200000D03*
X61400000Y-32200000D03*
X111400000Y-22200000D03*
G36*
G01*
X118130900Y-45854400D02*
X118130900Y-45600398D01*
G75*
G02*
X118181899Y-45549399I50999J0D01*
G01*
X118994701Y-45549399D01*
G75*
G02*
X119045700Y-45600398I0J-50999D01*
G01*
X119045700Y-45854400D01*
G75*
G02*
X118994701Y-45905399I-50999J0D01*
G01*
X118181899Y-45905399D01*
G75*
G02*
X118130900Y-45854400I0J50999D01*
G01*
G37*
G36*
G01*
X118130900Y-45354401D02*
X118130900Y-45100399D01*
G75*
G02*
X118181899Y-45049400I50999J0D01*
G01*
X118994701Y-45049400D01*
G75*
G02*
X119045700Y-45100399I0J-50999D01*
G01*
X119045700Y-45354401D01*
G75*
G02*
X118994701Y-45405400I-50999J0D01*
G01*
X118181899Y-45405400D01*
G75*
G02*
X118130900Y-45354401I0J50999D01*
G01*
G37*
G36*
G01*
X118130900Y-44854400D02*
X118130900Y-44600398D01*
G75*
G02*
X118181899Y-44549399I50999J0D01*
G01*
X118994701Y-44549399D01*
G75*
G02*
X119045700Y-44600398I0J-50999D01*
G01*
X119045700Y-44854400D01*
G75*
G02*
X118994701Y-44905399I-50999J0D01*
G01*
X118181899Y-44905399D01*
G75*
G02*
X118130900Y-44854400I0J50999D01*
G01*
G37*
G36*
G01*
X118130900Y-44354401D02*
X118130900Y-44100399D01*
G75*
G02*
X118181899Y-44049400I50999J0D01*
G01*
X118994701Y-44049400D01*
G75*
G02*
X119045700Y-44100399I0J-50999D01*
G01*
X119045700Y-44354401D01*
G75*
G02*
X118994701Y-44405400I-50999J0D01*
G01*
X118181899Y-44405400D01*
G75*
G02*
X118130900Y-44354401I0J50999D01*
G01*
G37*
G36*
G01*
X118130900Y-43854399D02*
X118130900Y-43600397D01*
G75*
G02*
X118181899Y-43549398I50999J0D01*
G01*
X118994701Y-43549398D01*
G75*
G02*
X119045700Y-43600397I0J-50999D01*
G01*
X119045700Y-43854399D01*
G75*
G02*
X118994701Y-43905398I-50999J0D01*
G01*
X118181899Y-43905398D01*
G75*
G02*
X118130900Y-43854399I0J50999D01*
G01*
G37*
G36*
G01*
X118130900Y-43354400D02*
X118130900Y-43100398D01*
G75*
G02*
X118181899Y-43049399I50999J0D01*
G01*
X118994701Y-43049399D01*
G75*
G02*
X119045700Y-43100398I0J-50999D01*
G01*
X119045700Y-43354400D01*
G75*
G02*
X118994701Y-43405399I-50999J0D01*
G01*
X118181899Y-43405399D01*
G75*
G02*
X118130900Y-43354400I0J50999D01*
G01*
G37*
G36*
G01*
X118130900Y-42854401D02*
X118130900Y-42600399D01*
G75*
G02*
X118181899Y-42549400I50999J0D01*
G01*
X118994701Y-42549400D01*
G75*
G02*
X119045700Y-42600399I0J-50999D01*
G01*
X119045700Y-42854401D01*
G75*
G02*
X118994701Y-42905400I-50999J0D01*
G01*
X118181899Y-42905400D01*
G75*
G02*
X118130900Y-42854401I0J50999D01*
G01*
G37*
G36*
G01*
X118130900Y-42354400D02*
X118130900Y-42100398D01*
G75*
G02*
X118181899Y-42049399I50999J0D01*
G01*
X118994701Y-42049399D01*
G75*
G02*
X119045700Y-42100398I0J-50999D01*
G01*
X119045700Y-42354400D01*
G75*
G02*
X118994701Y-42405399I-50999J0D01*
G01*
X118181899Y-42405399D01*
G75*
G02*
X118130900Y-42354400I0J50999D01*
G01*
G37*
G36*
G01*
X118130900Y-41854401D02*
X118130900Y-41600399D01*
G75*
G02*
X118181899Y-41549400I50999J0D01*
G01*
X118994701Y-41549400D01*
G75*
G02*
X119045700Y-41600399I0J-50999D01*
G01*
X119045700Y-41854401D01*
G75*
G02*
X118994701Y-41905400I-50999J0D01*
G01*
X118181899Y-41905400D01*
G75*
G02*
X118130900Y-41854401I0J50999D01*
G01*
G37*
G36*
G01*
X118130900Y-41354399D02*
X118130900Y-41100397D01*
G75*
G02*
X118181899Y-41049398I50999J0D01*
G01*
X118994701Y-41049398D01*
G75*
G02*
X119045700Y-41100397I0J-50999D01*
G01*
X119045700Y-41354399D01*
G75*
G02*
X118994701Y-41405398I-50999J0D01*
G01*
X118181899Y-41405398D01*
G75*
G02*
X118130900Y-41354399I0J50999D01*
G01*
G37*
G36*
G01*
X118130900Y-40854400D02*
X118130900Y-40600398D01*
G75*
G02*
X118181899Y-40549399I50999J0D01*
G01*
X118994701Y-40549399D01*
G75*
G02*
X119045700Y-40600398I0J-50999D01*
G01*
X119045700Y-40854400D01*
G75*
G02*
X118994701Y-40905399I-50999J0D01*
G01*
X118181899Y-40905399D01*
G75*
G02*
X118130900Y-40854400I0J50999D01*
G01*
G37*
G36*
G01*
X118130900Y-40354401D02*
X118130900Y-40100399D01*
G75*
G02*
X118181899Y-40049400I50999J0D01*
G01*
X118994701Y-40049400D01*
G75*
G02*
X119045700Y-40100399I0J-50999D01*
G01*
X119045700Y-40354401D01*
G75*
G02*
X118994701Y-40405400I-50999J0D01*
G01*
X118181899Y-40405400D01*
G75*
G02*
X118130900Y-40354401I0J50999D01*
G01*
G37*
G36*
G01*
X118130900Y-39854400D02*
X118130900Y-39600398D01*
G75*
G02*
X118181899Y-39549399I50999J0D01*
G01*
X118994701Y-39549399D01*
G75*
G02*
X119045700Y-39600398I0J-50999D01*
G01*
X119045700Y-39854400D01*
G75*
G02*
X118994701Y-39905399I-50999J0D01*
G01*
X118181899Y-39905399D01*
G75*
G02*
X118130900Y-39854400I0J50999D01*
G01*
G37*
G36*
G01*
X118130900Y-39354401D02*
X118130900Y-39100399D01*
G75*
G02*
X118181899Y-39049400I50999J0D01*
G01*
X118994701Y-39049400D01*
G75*
G02*
X119045700Y-39100399I0J-50999D01*
G01*
X119045700Y-39354401D01*
G75*
G02*
X118994701Y-39405400I-50999J0D01*
G01*
X118181899Y-39405400D01*
G75*
G02*
X118130900Y-39354401I0J50999D01*
G01*
G37*
G36*
G01*
X118130900Y-38854399D02*
X118130900Y-38600397D01*
G75*
G02*
X118181899Y-38549398I50999J0D01*
G01*
X118994701Y-38549398D01*
G75*
G02*
X119045700Y-38600397I0J-50999D01*
G01*
X119045700Y-38854399D01*
G75*
G02*
X118994701Y-38905398I-50999J0D01*
G01*
X118181899Y-38905398D01*
G75*
G02*
X118130900Y-38854399I0J50999D01*
G01*
G37*
G36*
G01*
X118130900Y-38354400D02*
X118130900Y-38100398D01*
G75*
G02*
X118181899Y-38049399I50999J0D01*
G01*
X118994701Y-38049399D01*
G75*
G02*
X119045700Y-38100398I0J-50999D01*
G01*
X119045700Y-38354400D01*
G75*
G02*
X118994701Y-38405399I-50999J0D01*
G01*
X118181899Y-38405399D01*
G75*
G02*
X118130900Y-38354400I0J50999D01*
G01*
G37*
G36*
G01*
X118130900Y-37854401D02*
X118130900Y-37600399D01*
G75*
G02*
X118181899Y-37549400I50999J0D01*
G01*
X118994701Y-37549400D01*
G75*
G02*
X119045700Y-37600399I0J-50999D01*
G01*
X119045700Y-37854401D01*
G75*
G02*
X118994701Y-37905400I-50999J0D01*
G01*
X118181899Y-37905400D01*
G75*
G02*
X118130900Y-37854401I0J50999D01*
G01*
G37*
G36*
G01*
X118130900Y-37354399D02*
X118130900Y-37100397D01*
G75*
G02*
X118181899Y-37049398I50999J0D01*
G01*
X118994701Y-37049398D01*
G75*
G02*
X119045700Y-37100397I0J-50999D01*
G01*
X119045700Y-37354399D01*
G75*
G02*
X118994701Y-37405398I-50999J0D01*
G01*
X118181899Y-37405398D01*
G75*
G02*
X118130900Y-37354399I0J50999D01*
G01*
G37*
G36*
G01*
X118130900Y-36854400D02*
X118130900Y-36600398D01*
G75*
G02*
X118181899Y-36549399I50999J0D01*
G01*
X118994701Y-36549399D01*
G75*
G02*
X119045700Y-36600398I0J-50999D01*
G01*
X119045700Y-36854400D01*
G75*
G02*
X118994701Y-36905399I-50999J0D01*
G01*
X118181899Y-36905399D01*
G75*
G02*
X118130900Y-36854400I0J50999D01*
G01*
G37*
G36*
G01*
X118130900Y-36354401D02*
X118130900Y-36100399D01*
G75*
G02*
X118181899Y-36049400I50999J0D01*
G01*
X118994701Y-36049400D01*
G75*
G02*
X119045700Y-36100399I0J-50999D01*
G01*
X119045700Y-36354401D01*
G75*
G02*
X118994701Y-36405400I-50999J0D01*
G01*
X118181899Y-36405400D01*
G75*
G02*
X118130900Y-36354401I0J50999D01*
G01*
G37*
G36*
G01*
X118130900Y-35854400D02*
X118130900Y-35600398D01*
G75*
G02*
X118181899Y-35549399I50999J0D01*
G01*
X118994701Y-35549399D01*
G75*
G02*
X119045700Y-35600398I0J-50999D01*
G01*
X119045700Y-35854400D01*
G75*
G02*
X118994701Y-35905399I-50999J0D01*
G01*
X118181899Y-35905399D01*
G75*
G02*
X118130900Y-35854400I0J50999D01*
G01*
G37*
G36*
G01*
X118130900Y-35354401D02*
X118130900Y-35100399D01*
G75*
G02*
X118181899Y-35049400I50999J0D01*
G01*
X118994701Y-35049400D01*
G75*
G02*
X119045700Y-35100399I0J-50999D01*
G01*
X119045700Y-35354401D01*
G75*
G02*
X118994701Y-35405400I-50999J0D01*
G01*
X118181899Y-35405400D01*
G75*
G02*
X118130900Y-35354401I0J50999D01*
G01*
G37*
G36*
G01*
X118130900Y-34854399D02*
X118130900Y-34600397D01*
G75*
G02*
X118181899Y-34549398I50999J0D01*
G01*
X118994701Y-34549398D01*
G75*
G02*
X119045700Y-34600397I0J-50999D01*
G01*
X119045700Y-34854399D01*
G75*
G02*
X118994701Y-34905398I-50999J0D01*
G01*
X118181899Y-34905398D01*
G75*
G02*
X118130900Y-34854399I0J50999D01*
G01*
G37*
G36*
G01*
X118130900Y-34354400D02*
X118130900Y-34100398D01*
G75*
G02*
X118181899Y-34049399I50999J0D01*
G01*
X118994701Y-34049399D01*
G75*
G02*
X119045700Y-34100398I0J-50999D01*
G01*
X119045700Y-34354400D01*
G75*
G02*
X118994701Y-34405399I-50999J0D01*
G01*
X118181899Y-34405399D01*
G75*
G02*
X118130900Y-34354400I0J50999D01*
G01*
G37*
G36*
G01*
X118130900Y-33854401D02*
X118130900Y-33600399D01*
G75*
G02*
X118181899Y-33549400I50999J0D01*
G01*
X118994701Y-33549400D01*
G75*
G02*
X119045700Y-33600399I0J-50999D01*
G01*
X119045700Y-33854401D01*
G75*
G02*
X118994701Y-33905400I-50999J0D01*
G01*
X118181899Y-33905400D01*
G75*
G02*
X118130900Y-33854401I0J50999D01*
G01*
G37*
G36*
G01*
X118130900Y-33354400D02*
X118130900Y-33100398D01*
G75*
G02*
X118181899Y-33049399I50999J0D01*
G01*
X118994701Y-33049399D01*
G75*
G02*
X119045700Y-33100398I0J-50999D01*
G01*
X119045700Y-33354400D01*
G75*
G02*
X118994701Y-33405399I-50999J0D01*
G01*
X118181899Y-33405399D01*
G75*
G02*
X118130900Y-33354400I0J50999D01*
G01*
G37*
G36*
G01*
X118130900Y-32854401D02*
X118130900Y-32600399D01*
G75*
G02*
X118181899Y-32549400I50999J0D01*
G01*
X118994701Y-32549400D01*
G75*
G02*
X119045700Y-32600399I0J-50999D01*
G01*
X119045700Y-32854401D01*
G75*
G02*
X118994701Y-32905400I-50999J0D01*
G01*
X118181899Y-32905400D01*
G75*
G02*
X118130900Y-32854401I0J50999D01*
G01*
G37*
G36*
G01*
X118130900Y-32354399D02*
X118130900Y-32100397D01*
G75*
G02*
X118181899Y-32049398I50999J0D01*
G01*
X118994701Y-32049398D01*
G75*
G02*
X119045700Y-32100397I0J-50999D01*
G01*
X119045700Y-32354399D01*
G75*
G02*
X118994701Y-32405398I-50999J0D01*
G01*
X118181899Y-32405398D01*
G75*
G02*
X118130900Y-32354399I0J50999D01*
G01*
G37*
G36*
G01*
X118130900Y-31854400D02*
X118130900Y-31600398D01*
G75*
G02*
X118181899Y-31549399I50999J0D01*
G01*
X118994701Y-31549399D01*
G75*
G02*
X119045700Y-31600398I0J-50999D01*
G01*
X119045700Y-31854400D01*
G75*
G02*
X118994701Y-31905399I-50999J0D01*
G01*
X118181899Y-31905399D01*
G75*
G02*
X118130900Y-31854400I0J50999D01*
G01*
G37*
G36*
G01*
X118130900Y-31354401D02*
X118130900Y-31100399D01*
G75*
G02*
X118181899Y-31049400I50999J0D01*
G01*
X118994701Y-31049400D01*
G75*
G02*
X119045700Y-31100399I0J-50999D01*
G01*
X119045700Y-31354401D01*
G75*
G02*
X118994701Y-31405400I-50999J0D01*
G01*
X118181899Y-31405400D01*
G75*
G02*
X118130900Y-31354401I0J50999D01*
G01*
G37*
G36*
G01*
X118130900Y-30854400D02*
X118130900Y-30600398D01*
G75*
G02*
X118181899Y-30549399I50999J0D01*
G01*
X118994701Y-30549399D01*
G75*
G02*
X119045700Y-30600398I0J-50999D01*
G01*
X119045700Y-30854400D01*
G75*
G02*
X118994701Y-30905399I-50999J0D01*
G01*
X118181899Y-30905399D01*
G75*
G02*
X118130900Y-30854400I0J50999D01*
G01*
G37*
G36*
G01*
X118130900Y-30354401D02*
X118130900Y-30100399D01*
G75*
G02*
X118181899Y-30049400I50999J0D01*
G01*
X118994701Y-30049400D01*
G75*
G02*
X119045700Y-30100399I0J-50999D01*
G01*
X119045700Y-30354401D01*
G75*
G02*
X118994701Y-30405400I-50999J0D01*
G01*
X118181899Y-30405400D01*
G75*
G02*
X118130900Y-30354401I0J50999D01*
G01*
G37*
G36*
G01*
X118130900Y-29854399D02*
X118130900Y-29600397D01*
G75*
G02*
X118181899Y-29549398I50999J0D01*
G01*
X118994701Y-29549398D01*
G75*
G02*
X119045700Y-29600397I0J-50999D01*
G01*
X119045700Y-29854399D01*
G75*
G02*
X118994701Y-29905398I-50999J0D01*
G01*
X118181899Y-29905398D01*
G75*
G02*
X118130900Y-29854399I0J50999D01*
G01*
G37*
G36*
G01*
X121750600Y-27262400D02*
X123452400Y-27262400D01*
G75*
G02*
X123503400Y-27313400I0J-51000D01*
G01*
X123503400Y-28837400D01*
G75*
G02*
X123452400Y-28888400I-51000J0D01*
G01*
X121750600Y-28888400D01*
G75*
G02*
X121699600Y-28837400I0J51000D01*
G01*
X121699600Y-27313400D01*
G75*
G02*
X121750600Y-27262400I51000J0D01*
G01*
G37*
G36*
G01*
X121750600Y-46566400D02*
X123452400Y-46566400D01*
G75*
G02*
X123503400Y-46617400I0J-51000D01*
G01*
X123503400Y-48141400D01*
G75*
G02*
X123452400Y-48192400I-51000J0D01*
G01*
X121750600Y-48192400D01*
G75*
G02*
X121699600Y-48141400I0J51000D01*
G01*
X121699600Y-46617400D01*
G75*
G02*
X121750600Y-46566400I51000J0D01*
G01*
G37*
G36*
G01*
X52280750Y-28667000D02*
X51317250Y-28667000D01*
G75*
G02*
X51048000Y-28397750I0J269250D01*
G01*
X51048000Y-27859250D01*
G75*
G02*
X51317250Y-27590000I269250J0D01*
G01*
X52280750Y-27590000D01*
G75*
G02*
X52550000Y-27859250I0J-269250D01*
G01*
X52550000Y-28397750D01*
G75*
G02*
X52280750Y-28667000I-269250J0D01*
G01*
G37*
G36*
G01*
X52280750Y-30542000D02*
X51317250Y-30542000D01*
G75*
G02*
X51048000Y-30272750I0J269250D01*
G01*
X51048000Y-29734250D01*
G75*
G02*
X51317250Y-29465000I269250J0D01*
G01*
X52280750Y-29465000D01*
G75*
G02*
X52550000Y-29734250I0J-269250D01*
G01*
X52550000Y-30272750D01*
G75*
G02*
X52280750Y-30542000I-269250J0D01*
G01*
G37*
D15*
X82079200Y-40127400D03*
G36*
G01*
X86589200Y-40678400D02*
X81589200Y-40678400D01*
G75*
G02*
X81538200Y-40627400I0J51000D01*
G01*
X81538200Y-35627400D01*
G75*
G02*
X81589200Y-35576400I51000J0D01*
G01*
X86589200Y-35576400D01*
G75*
G02*
X86640200Y-35627400I0J-51000D01*
G01*
X86640200Y-40627400D01*
G75*
G02*
X86589200Y-40678400I-51000J0D01*
G01*
G37*
D16*
X77169200Y-46727400D03*
X78439200Y-46727400D03*
X79709200Y-46727400D03*
X80979200Y-46727400D03*
X82249200Y-46727400D03*
X83519200Y-46727400D03*
X84789200Y-46727400D03*
X86059200Y-46727400D03*
X87329200Y-46727400D03*
X88599200Y-46727400D03*
X89869200Y-46727400D03*
X91139200Y-46727400D03*
X92409200Y-46727400D03*
X93679200Y-46727400D03*
X94979200Y-46727400D03*
X96249200Y-46727400D03*
X97519200Y-46727400D03*
X98789200Y-46727400D03*
X100059200Y-46727400D03*
X100059200Y-28727400D03*
X98789200Y-28727400D03*
X97519200Y-28727400D03*
X96249200Y-28727400D03*
X94979200Y-28727400D03*
X93679200Y-28697400D03*
X92409200Y-28697400D03*
X91139200Y-28697400D03*
X89869200Y-28697400D03*
X88599200Y-28697400D03*
X87329200Y-28697400D03*
X86059200Y-28697400D03*
X84789200Y-28697400D03*
X83519200Y-28697400D03*
X82249200Y-28697400D03*
X80979200Y-28697400D03*
X79709200Y-28697400D03*
X78439200Y-28697400D03*
X77169200Y-28697400D03*
D15*
X83079200Y-40127400D03*
X84079200Y-40127400D03*
X85079200Y-40127400D03*
X86079200Y-40127400D03*
X86079200Y-39127400D03*
X85079200Y-39127400D03*
X84079200Y-39127400D03*
X83079200Y-39127400D03*
X82079200Y-39127400D03*
X82079200Y-37127400D03*
X83079200Y-37127400D03*
X84079200Y-37127400D03*
X85079200Y-37127400D03*
X86079200Y-37127400D03*
X86079200Y-38127400D03*
X85079200Y-38127400D03*
X84079200Y-38127400D03*
X83079200Y-38127400D03*
X82079200Y-38127400D03*
X86079200Y-36127400D03*
X85079200Y-36127400D03*
X84079200Y-36127400D03*
X83079200Y-36127400D03*
X82079200Y-36127400D03*
G36*
G01*
X120200000Y-22301000D02*
X119400000Y-22301000D01*
G75*
G02*
X119349000Y-22250000I0J51000D01*
G01*
X119349000Y-21350000D01*
G75*
G02*
X119400000Y-21299000I51000J0D01*
G01*
X120200000Y-21299000D01*
G75*
G02*
X120251000Y-21350000I0J-51000D01*
G01*
X120251000Y-22250000D01*
G75*
G02*
X120200000Y-22301000I-51000J0D01*
G01*
G37*
G36*
G01*
X121150000Y-24301000D02*
X120350000Y-24301000D01*
G75*
G02*
X120299000Y-24250000I0J51000D01*
G01*
X120299000Y-23350000D01*
G75*
G02*
X120350000Y-23299000I51000J0D01*
G01*
X121150000Y-23299000D01*
G75*
G02*
X121201000Y-23350000I0J-51000D01*
G01*
X121201000Y-24250000D01*
G75*
G02*
X121150000Y-24301000I-51000J0D01*
G01*
G37*
G36*
G01*
X119250000Y-24301000D02*
X118450000Y-24301000D01*
G75*
G02*
X118399000Y-24250000I0J51000D01*
G01*
X118399000Y-23350000D01*
G75*
G02*
X118450000Y-23299000I51000J0D01*
G01*
X119250000Y-23299000D01*
G75*
G02*
X119301000Y-23350000I0J-51000D01*
G01*
X119301000Y-24250000D01*
G75*
G02*
X119250000Y-24301000I-51000J0D01*
G01*
G37*
G36*
G01*
X108696200Y-27869900D02*
X108696200Y-27518900D01*
G75*
G02*
X108871700Y-27343400I175500J0D01*
G01*
X110572700Y-27343400D01*
G75*
G02*
X110748200Y-27518900I0J-175500D01*
G01*
X110748200Y-27869900D01*
G75*
G02*
X110572700Y-28045400I-175500J0D01*
G01*
X108871700Y-28045400D01*
G75*
G02*
X108696200Y-27869900I0J175500D01*
G01*
G37*
G36*
G01*
X108696200Y-29139900D02*
X108696200Y-28788900D01*
G75*
G02*
X108871700Y-28613400I175500J0D01*
G01*
X110572700Y-28613400D01*
G75*
G02*
X110748200Y-28788900I0J-175500D01*
G01*
X110748200Y-29139900D01*
G75*
G02*
X110572700Y-29315400I-175500J0D01*
G01*
X108871700Y-29315400D01*
G75*
G02*
X108696200Y-29139900I0J175500D01*
G01*
G37*
G36*
G01*
X108696200Y-30409900D02*
X108696200Y-30058900D01*
G75*
G02*
X108871700Y-29883400I175500J0D01*
G01*
X110572700Y-29883400D01*
G75*
G02*
X110748200Y-30058900I0J-175500D01*
G01*
X110748200Y-30409900D01*
G75*
G02*
X110572700Y-30585400I-175500J0D01*
G01*
X108871700Y-30585400D01*
G75*
G02*
X108696200Y-30409900I0J175500D01*
G01*
G37*
G36*
G01*
X108696200Y-31679900D02*
X108696200Y-31328900D01*
G75*
G02*
X108871700Y-31153400I175500J0D01*
G01*
X110572700Y-31153400D01*
G75*
G02*
X110748200Y-31328900I0J-175500D01*
G01*
X110748200Y-31679900D01*
G75*
G02*
X110572700Y-31855400I-175500J0D01*
G01*
X108871700Y-31855400D01*
G75*
G02*
X108696200Y-31679900I0J175500D01*
G01*
G37*
G36*
G01*
X108696200Y-32949900D02*
X108696200Y-32598900D01*
G75*
G02*
X108871700Y-32423400I175500J0D01*
G01*
X110572700Y-32423400D01*
G75*
G02*
X110748200Y-32598900I0J-175500D01*
G01*
X110748200Y-32949900D01*
G75*
G02*
X110572700Y-33125400I-175500J0D01*
G01*
X108871700Y-33125400D01*
G75*
G02*
X108696200Y-32949900I0J175500D01*
G01*
G37*
G36*
G01*
X108696200Y-34219900D02*
X108696200Y-33868900D01*
G75*
G02*
X108871700Y-33693400I175500J0D01*
G01*
X110572700Y-33693400D01*
G75*
G02*
X110748200Y-33868900I0J-175500D01*
G01*
X110748200Y-34219900D01*
G75*
G02*
X110572700Y-34395400I-175500J0D01*
G01*
X108871700Y-34395400D01*
G75*
G02*
X108696200Y-34219900I0J175500D01*
G01*
G37*
G36*
G01*
X108696200Y-35489900D02*
X108696200Y-35138900D01*
G75*
G02*
X108871700Y-34963400I175500J0D01*
G01*
X110572700Y-34963400D01*
G75*
G02*
X110748200Y-35138900I0J-175500D01*
G01*
X110748200Y-35489900D01*
G75*
G02*
X110572700Y-35665400I-175500J0D01*
G01*
X108871700Y-35665400D01*
G75*
G02*
X108696200Y-35489900I0J175500D01*
G01*
G37*
G36*
G01*
X108696200Y-36759900D02*
X108696200Y-36408900D01*
G75*
G02*
X108871700Y-36233400I175500J0D01*
G01*
X110572700Y-36233400D01*
G75*
G02*
X110748200Y-36408900I0J-175500D01*
G01*
X110748200Y-36759900D01*
G75*
G02*
X110572700Y-36935400I-175500J0D01*
G01*
X108871700Y-36935400D01*
G75*
G02*
X108696200Y-36759900I0J175500D01*
G01*
G37*
G36*
G01*
X103746200Y-36759900D02*
X103746200Y-36408900D01*
G75*
G02*
X103921700Y-36233400I175500J0D01*
G01*
X105622700Y-36233400D01*
G75*
G02*
X105798200Y-36408900I0J-175500D01*
G01*
X105798200Y-36759900D01*
G75*
G02*
X105622700Y-36935400I-175500J0D01*
G01*
X103921700Y-36935400D01*
G75*
G02*
X103746200Y-36759900I0J175500D01*
G01*
G37*
G36*
G01*
X103746200Y-35489900D02*
X103746200Y-35138900D01*
G75*
G02*
X103921700Y-34963400I175500J0D01*
G01*
X105622700Y-34963400D01*
G75*
G02*
X105798200Y-35138900I0J-175500D01*
G01*
X105798200Y-35489900D01*
G75*
G02*
X105622700Y-35665400I-175500J0D01*
G01*
X103921700Y-35665400D01*
G75*
G02*
X103746200Y-35489900I0J175500D01*
G01*
G37*
G36*
G01*
X103746200Y-34219900D02*
X103746200Y-33868900D01*
G75*
G02*
X103921700Y-33693400I175500J0D01*
G01*
X105622700Y-33693400D01*
G75*
G02*
X105798200Y-33868900I0J-175500D01*
G01*
X105798200Y-34219900D01*
G75*
G02*
X105622700Y-34395400I-175500J0D01*
G01*
X103921700Y-34395400D01*
G75*
G02*
X103746200Y-34219900I0J175500D01*
G01*
G37*
G36*
G01*
X103746200Y-32949900D02*
X103746200Y-32598900D01*
G75*
G02*
X103921700Y-32423400I175500J0D01*
G01*
X105622700Y-32423400D01*
G75*
G02*
X105798200Y-32598900I0J-175500D01*
G01*
X105798200Y-32949900D01*
G75*
G02*
X105622700Y-33125400I-175500J0D01*
G01*
X103921700Y-33125400D01*
G75*
G02*
X103746200Y-32949900I0J175500D01*
G01*
G37*
G36*
G01*
X103746200Y-31679900D02*
X103746200Y-31328900D01*
G75*
G02*
X103921700Y-31153400I175500J0D01*
G01*
X105622700Y-31153400D01*
G75*
G02*
X105798200Y-31328900I0J-175500D01*
G01*
X105798200Y-31679900D01*
G75*
G02*
X105622700Y-31855400I-175500J0D01*
G01*
X103921700Y-31855400D01*
G75*
G02*
X103746200Y-31679900I0J175500D01*
G01*
G37*
G36*
G01*
X103746200Y-30409900D02*
X103746200Y-30058900D01*
G75*
G02*
X103921700Y-29883400I175500J0D01*
G01*
X105622700Y-29883400D01*
G75*
G02*
X105798200Y-30058900I0J-175500D01*
G01*
X105798200Y-30409900D01*
G75*
G02*
X105622700Y-30585400I-175500J0D01*
G01*
X103921700Y-30585400D01*
G75*
G02*
X103746200Y-30409900I0J175500D01*
G01*
G37*
G36*
G01*
X103746200Y-29139900D02*
X103746200Y-28788900D01*
G75*
G02*
X103921700Y-28613400I175500J0D01*
G01*
X105622700Y-28613400D01*
G75*
G02*
X105798200Y-28788900I0J-175500D01*
G01*
X105798200Y-29139900D01*
G75*
G02*
X105622700Y-29315400I-175500J0D01*
G01*
X103921700Y-29315400D01*
G75*
G02*
X103746200Y-29139900I0J175500D01*
G01*
G37*
G36*
G01*
X103746200Y-27869900D02*
X103746200Y-27518900D01*
G75*
G02*
X103921700Y-27343400I175500J0D01*
G01*
X105622700Y-27343400D01*
G75*
G02*
X105798200Y-27518900I0J-175500D01*
G01*
X105798200Y-27869900D01*
G75*
G02*
X105622700Y-28045400I-175500J0D01*
G01*
X103921700Y-28045400D01*
G75*
G02*
X103746200Y-27869900I0J175500D01*
G01*
G37*
G36*
G01*
X62661500Y-25178000D02*
X62661500Y-24802000D01*
G75*
G02*
X62849500Y-24614000I188000J0D01*
G01*
X64550500Y-24614000D01*
G75*
G02*
X64738500Y-24802000I0J-188000D01*
G01*
X64738500Y-25178000D01*
G75*
G02*
X64550500Y-25366000I-188000J0D01*
G01*
X62849500Y-25366000D01*
G75*
G02*
X62661500Y-25178000I0J188000D01*
G01*
G37*
G36*
G01*
X62661500Y-26448000D02*
X62661500Y-26072000D01*
G75*
G02*
X62849500Y-25884000I188000J0D01*
G01*
X64550500Y-25884000D01*
G75*
G02*
X64738500Y-26072000I0J-188000D01*
G01*
X64738500Y-26448000D01*
G75*
G02*
X64550500Y-26636000I-188000J0D01*
G01*
X62849500Y-26636000D01*
G75*
G02*
X62661500Y-26448000I0J188000D01*
G01*
G37*
G36*
G01*
X62661500Y-27718000D02*
X62661500Y-27342000D01*
G75*
G02*
X62849500Y-27154000I188000J0D01*
G01*
X64550500Y-27154000D01*
G75*
G02*
X64738500Y-27342000I0J-188000D01*
G01*
X64738500Y-27718000D01*
G75*
G02*
X64550500Y-27906000I-188000J0D01*
G01*
X62849500Y-27906000D01*
G75*
G02*
X62661500Y-27718000I0J188000D01*
G01*
G37*
G36*
G01*
X62661500Y-28988000D02*
X62661500Y-28612000D01*
G75*
G02*
X62849500Y-28424000I188000J0D01*
G01*
X64550500Y-28424000D01*
G75*
G02*
X64738500Y-28612000I0J-188000D01*
G01*
X64738500Y-28988000D01*
G75*
G02*
X64550500Y-29176000I-188000J0D01*
G01*
X62849500Y-29176000D01*
G75*
G02*
X62661500Y-28988000I0J188000D01*
G01*
G37*
G36*
G01*
X57586500Y-28988000D02*
X57586500Y-28612000D01*
G75*
G02*
X57774500Y-28424000I188000J0D01*
G01*
X59475500Y-28424000D01*
G75*
G02*
X59663500Y-28612000I0J-188000D01*
G01*
X59663500Y-28988000D01*
G75*
G02*
X59475500Y-29176000I-188000J0D01*
G01*
X57774500Y-29176000D01*
G75*
G02*
X57586500Y-28988000I0J188000D01*
G01*
G37*
G36*
G01*
X57586500Y-27718000D02*
X57586500Y-27342000D01*
G75*
G02*
X57774500Y-27154000I188000J0D01*
G01*
X59475500Y-27154000D01*
G75*
G02*
X59663500Y-27342000I0J-188000D01*
G01*
X59663500Y-27718000D01*
G75*
G02*
X59475500Y-27906000I-188000J0D01*
G01*
X57774500Y-27906000D01*
G75*
G02*
X57586500Y-27718000I0J188000D01*
G01*
G37*
G36*
G01*
X57586500Y-26448000D02*
X57586500Y-26072000D01*
G75*
G02*
X57774500Y-25884000I188000J0D01*
G01*
X59475500Y-25884000D01*
G75*
G02*
X59663500Y-26072000I0J-188000D01*
G01*
X59663500Y-26448000D01*
G75*
G02*
X59475500Y-26636000I-188000J0D01*
G01*
X57774500Y-26636000D01*
G75*
G02*
X57586500Y-26448000I0J188000D01*
G01*
G37*
G36*
G01*
X57586500Y-25178000D02*
X57586500Y-24802000D01*
G75*
G02*
X57774500Y-24614000I188000J0D01*
G01*
X59475500Y-24614000D01*
G75*
G02*
X59663500Y-24802000I0J-188000D01*
G01*
X59663500Y-25178000D01*
G75*
G02*
X59475500Y-25366000I-188000J0D01*
G01*
X57774500Y-25366000D01*
G75*
G02*
X57586500Y-25178000I0J188000D01*
G01*
G37*
G36*
G01*
X30414500Y-30261000D02*
X30765500Y-30261000D01*
G75*
G02*
X30941000Y-30436500I0J-175500D01*
G01*
X30941000Y-32137500D01*
G75*
G02*
X30765500Y-32313000I-175500J0D01*
G01*
X30414500Y-32313000D01*
G75*
G02*
X30239000Y-32137500I0J175500D01*
G01*
X30239000Y-30436500D01*
G75*
G02*
X30414500Y-30261000I175500J0D01*
G01*
G37*
G36*
G01*
X29144500Y-30261000D02*
X29495500Y-30261000D01*
G75*
G02*
X29671000Y-30436500I0J-175500D01*
G01*
X29671000Y-32137500D01*
G75*
G02*
X29495500Y-32313000I-175500J0D01*
G01*
X29144500Y-32313000D01*
G75*
G02*
X28969000Y-32137500I0J175500D01*
G01*
X28969000Y-30436500D01*
G75*
G02*
X29144500Y-30261000I175500J0D01*
G01*
G37*
G36*
G01*
X27874500Y-30261000D02*
X28225500Y-30261000D01*
G75*
G02*
X28401000Y-30436500I0J-175500D01*
G01*
X28401000Y-32137500D01*
G75*
G02*
X28225500Y-32313000I-175500J0D01*
G01*
X27874500Y-32313000D01*
G75*
G02*
X27699000Y-32137500I0J175500D01*
G01*
X27699000Y-30436500D01*
G75*
G02*
X27874500Y-30261000I175500J0D01*
G01*
G37*
G36*
G01*
X26604500Y-30261000D02*
X26955500Y-30261000D01*
G75*
G02*
X27131000Y-30436500I0J-175500D01*
G01*
X27131000Y-32137500D01*
G75*
G02*
X26955500Y-32313000I-175500J0D01*
G01*
X26604500Y-32313000D01*
G75*
G02*
X26429000Y-32137500I0J175500D01*
G01*
X26429000Y-30436500D01*
G75*
G02*
X26604500Y-30261000I175500J0D01*
G01*
G37*
G36*
G01*
X26604500Y-25311000D02*
X26955500Y-25311000D01*
G75*
G02*
X27131000Y-25486500I0J-175500D01*
G01*
X27131000Y-27187500D01*
G75*
G02*
X26955500Y-27363000I-175500J0D01*
G01*
X26604500Y-27363000D01*
G75*
G02*
X26429000Y-27187500I0J175500D01*
G01*
X26429000Y-25486500D01*
G75*
G02*
X26604500Y-25311000I175500J0D01*
G01*
G37*
G36*
G01*
X27874500Y-25311000D02*
X28225500Y-25311000D01*
G75*
G02*
X28401000Y-25486500I0J-175500D01*
G01*
X28401000Y-27187500D01*
G75*
G02*
X28225500Y-27363000I-175500J0D01*
G01*
X27874500Y-27363000D01*
G75*
G02*
X27699000Y-27187500I0J175500D01*
G01*
X27699000Y-25486500D01*
G75*
G02*
X27874500Y-25311000I175500J0D01*
G01*
G37*
G36*
G01*
X29144500Y-25311000D02*
X29495500Y-25311000D01*
G75*
G02*
X29671000Y-25486500I0J-175500D01*
G01*
X29671000Y-27187500D01*
G75*
G02*
X29495500Y-27363000I-175500J0D01*
G01*
X29144500Y-27363000D01*
G75*
G02*
X28969000Y-27187500I0J175500D01*
G01*
X28969000Y-25486500D01*
G75*
G02*
X29144500Y-25311000I175500J0D01*
G01*
G37*
G36*
G01*
X30414500Y-25311000D02*
X30765500Y-25311000D01*
G75*
G02*
X30941000Y-25486500I0J-175500D01*
G01*
X30941000Y-27187500D01*
G75*
G02*
X30765500Y-27363000I-175500J0D01*
G01*
X30414500Y-27363000D01*
G75*
G02*
X30239000Y-27187500I0J175500D01*
G01*
X30239000Y-25486500D01*
G75*
G02*
X30414500Y-25311000I175500J0D01*
G01*
G37*
G36*
G01*
X44584200Y-29966800D02*
X44584200Y-30266800D01*
G75*
G02*
X44533200Y-30317800I-51000J0D01*
G01*
X43133200Y-30317800D01*
G75*
G02*
X43082200Y-30266800I0J51000D01*
G01*
X43082200Y-29966800D01*
G75*
G02*
X43133200Y-29915800I51000J0D01*
G01*
X44533200Y-29915800D01*
G75*
G02*
X44584200Y-29966800I0J-51000D01*
G01*
G37*
G36*
G01*
X44584200Y-29466800D02*
X44584200Y-29766800D01*
G75*
G02*
X44533200Y-29817800I-51000J0D01*
G01*
X43133200Y-29817800D01*
G75*
G02*
X43082200Y-29766800I0J51000D01*
G01*
X43082200Y-29466800D01*
G75*
G02*
X43133200Y-29415800I51000J0D01*
G01*
X44533200Y-29415800D01*
G75*
G02*
X44584200Y-29466800I0J-51000D01*
G01*
G37*
G36*
G01*
X44584200Y-28966800D02*
X44584200Y-29266800D01*
G75*
G02*
X44533200Y-29317800I-51000J0D01*
G01*
X43133200Y-29317800D01*
G75*
G02*
X43082200Y-29266800I0J51000D01*
G01*
X43082200Y-28966800D01*
G75*
G02*
X43133200Y-28915800I51000J0D01*
G01*
X44533200Y-28915800D01*
G75*
G02*
X44584200Y-28966800I0J-51000D01*
G01*
G37*
G36*
G01*
X44584200Y-28466800D02*
X44584200Y-28766800D01*
G75*
G02*
X44533200Y-28817800I-51000J0D01*
G01*
X43133200Y-28817800D01*
G75*
G02*
X43082200Y-28766800I0J51000D01*
G01*
X43082200Y-28466800D01*
G75*
G02*
X43133200Y-28415800I51000J0D01*
G01*
X44533200Y-28415800D01*
G75*
G02*
X44584200Y-28466800I0J-51000D01*
G01*
G37*
G36*
G01*
X44584200Y-27966800D02*
X44584200Y-28266800D01*
G75*
G02*
X44533200Y-28317800I-51000J0D01*
G01*
X43133200Y-28317800D01*
G75*
G02*
X43082200Y-28266800I0J51000D01*
G01*
X43082200Y-27966800D01*
G75*
G02*
X43133200Y-27915800I51000J0D01*
G01*
X44533200Y-27915800D01*
G75*
G02*
X44584200Y-27966800I0J-51000D01*
G01*
G37*
G36*
G01*
X48984200Y-27966800D02*
X48984200Y-28266800D01*
G75*
G02*
X48933200Y-28317800I-51000J0D01*
G01*
X47533200Y-28317800D01*
G75*
G02*
X47482200Y-28266800I0J51000D01*
G01*
X47482200Y-27966800D01*
G75*
G02*
X47533200Y-27915800I51000J0D01*
G01*
X48933200Y-27915800D01*
G75*
G02*
X48984200Y-27966800I0J-51000D01*
G01*
G37*
G36*
G01*
X48984200Y-28466800D02*
X48984200Y-28766800D01*
G75*
G02*
X48933200Y-28817800I-51000J0D01*
G01*
X47533200Y-28817800D01*
G75*
G02*
X47482200Y-28766800I0J51000D01*
G01*
X47482200Y-28466800D01*
G75*
G02*
X47533200Y-28415800I51000J0D01*
G01*
X48933200Y-28415800D01*
G75*
G02*
X48984200Y-28466800I0J-51000D01*
G01*
G37*
G36*
G01*
X48984200Y-28966800D02*
X48984200Y-29266800D01*
G75*
G02*
X48933200Y-29317800I-51000J0D01*
G01*
X47533200Y-29317800D01*
G75*
G02*
X47482200Y-29266800I0J51000D01*
G01*
X47482200Y-28966800D01*
G75*
G02*
X47533200Y-28915800I51000J0D01*
G01*
X48933200Y-28915800D01*
G75*
G02*
X48984200Y-28966800I0J-51000D01*
G01*
G37*
G36*
G01*
X48984200Y-29466800D02*
X48984200Y-29766800D01*
G75*
G02*
X48933200Y-29817800I-51000J0D01*
G01*
X47533200Y-29817800D01*
G75*
G02*
X47482200Y-29766800I0J51000D01*
G01*
X47482200Y-29466800D01*
G75*
G02*
X47533200Y-29415800I51000J0D01*
G01*
X48933200Y-29415800D01*
G75*
G02*
X48984200Y-29466800I0J-51000D01*
G01*
G37*
G36*
G01*
X48984200Y-29966800D02*
X48984200Y-30266800D01*
G75*
G02*
X48933200Y-30317800I-51000J0D01*
G01*
X47533200Y-30317800D01*
G75*
G02*
X47482200Y-30266800I0J51000D01*
G01*
X47482200Y-29966800D01*
G75*
G02*
X47533200Y-29915800I51000J0D01*
G01*
X48933200Y-29915800D01*
G75*
G02*
X48984200Y-29966800I0J-51000D01*
G01*
G37*
G36*
G01*
X66199999Y-24149000D02*
X67400001Y-24149000D01*
G75*
G02*
X67451000Y-24199999I0J-50999D01*
G01*
X67451000Y-25400001D01*
G75*
G02*
X67400001Y-25451000I-50999J0D01*
G01*
X66199999Y-25451000D01*
G75*
G02*
X66149000Y-25400001I0J50999D01*
G01*
X66149000Y-24199999D01*
G75*
G02*
X66199999Y-24149000I50999J0D01*
G01*
G37*
G36*
G01*
X67000000Y-20749000D02*
X68600000Y-20749000D01*
G75*
G02*
X68651000Y-20800000I0J-51000D01*
G01*
X68651000Y-22300000D01*
G75*
G02*
X68600000Y-22351000I-51000J0D01*
G01*
X67000000Y-22351000D01*
G75*
G02*
X66949000Y-22300000I0J51000D01*
G01*
X66949000Y-20800000D01*
G75*
G02*
X67000000Y-20749000I51000J0D01*
G01*
G37*
G36*
G01*
X68199999Y-24149000D02*
X69400001Y-24149000D01*
G75*
G02*
X69451000Y-24199999I0J-50999D01*
G01*
X69451000Y-25400001D01*
G75*
G02*
X69400001Y-25451000I-50999J0D01*
G01*
X68199999Y-25451000D01*
G75*
G02*
X68149000Y-25400001I0J50999D01*
G01*
X68149000Y-24199999D01*
G75*
G02*
X68199999Y-24149000I50999J0D01*
G01*
G37*
G36*
G01*
X64599000Y-49850000D02*
X64599000Y-49100000D01*
G75*
G02*
X64650000Y-49049000I51000J0D01*
G01*
X66150000Y-49049000D01*
G75*
G02*
X66201000Y-49100000I0J-51000D01*
G01*
X66201000Y-49850000D01*
G75*
G02*
X66150000Y-49901000I-51000J0D01*
G01*
X64650000Y-49901000D01*
G75*
G02*
X64599000Y-49850000I0J51000D01*
G01*
G37*
G36*
G01*
X58599000Y-49850000D02*
X58599000Y-49100000D01*
G75*
G02*
X58650000Y-49049000I51000J0D01*
G01*
X60150000Y-49049000D01*
G75*
G02*
X60201000Y-49100000I0J-51000D01*
G01*
X60201000Y-49850000D01*
G75*
G02*
X60150000Y-49901000I-51000J0D01*
G01*
X58650000Y-49901000D01*
G75*
G02*
X58599000Y-49850000I0J51000D01*
G01*
G37*
G36*
G01*
X58599000Y-46100000D02*
X58599000Y-45350000D01*
G75*
G02*
X58650000Y-45299000I51000J0D01*
G01*
X60150000Y-45299000D01*
G75*
G02*
X60201000Y-45350000I0J-51000D01*
G01*
X60201000Y-46100000D01*
G75*
G02*
X60150000Y-46151000I-51000J0D01*
G01*
X58650000Y-46151000D01*
G75*
G02*
X58599000Y-46100000I0J51000D01*
G01*
G37*
G36*
G01*
X64599000Y-46100000D02*
X64599000Y-45350000D01*
G75*
G02*
X64650000Y-45299000I51000J0D01*
G01*
X66150000Y-45299000D01*
G75*
G02*
X66201000Y-45350000I0J-51000D01*
G01*
X66201000Y-46100000D01*
G75*
G02*
X66150000Y-46151000I-51000J0D01*
G01*
X64650000Y-46151000D01*
G75*
G02*
X64599000Y-46100000I0J51000D01*
G01*
G37*
G36*
G01*
X94123000Y-24912250D02*
X94123000Y-23948750D01*
G75*
G02*
X94392250Y-23679500I269250J0D01*
G01*
X94930750Y-23679500D01*
G75*
G02*
X95200000Y-23948750I0J-269250D01*
G01*
X95200000Y-24912250D01*
G75*
G02*
X94930750Y-25181500I-269250J0D01*
G01*
X94392250Y-25181500D01*
G75*
G02*
X94123000Y-24912250I0J269250D01*
G01*
G37*
G36*
G01*
X92248000Y-24912250D02*
X92248000Y-23948750D01*
G75*
G02*
X92517250Y-23679500I269250J0D01*
G01*
X93055750Y-23679500D01*
G75*
G02*
X93325000Y-23948750I0J-269250D01*
G01*
X93325000Y-24912250D01*
G75*
G02*
X93055750Y-25181500I-269250J0D01*
G01*
X92517250Y-25181500D01*
G75*
G02*
X92248000Y-24912250I0J269250D01*
G01*
G37*
G36*
G01*
X98172000Y-24912250D02*
X98172000Y-23948750D01*
G75*
G02*
X98441250Y-23679500I269250J0D01*
G01*
X98979750Y-23679500D01*
G75*
G02*
X99249000Y-23948750I0J-269250D01*
G01*
X99249000Y-24912250D01*
G75*
G02*
X98979750Y-25181500I-269250J0D01*
G01*
X98441250Y-25181500D01*
G75*
G02*
X98172000Y-24912250I0J269250D01*
G01*
G37*
G36*
G01*
X96297000Y-24912250D02*
X96297000Y-23948750D01*
G75*
G02*
X96566250Y-23679500I269250J0D01*
G01*
X97104750Y-23679500D01*
G75*
G02*
X97374000Y-23948750I0J-269250D01*
G01*
X97374000Y-24912250D01*
G75*
G02*
X97104750Y-25181500I-269250J0D01*
G01*
X96566250Y-25181500D01*
G75*
G02*
X96297000Y-24912250I0J269250D01*
G01*
G37*
G36*
G01*
X68881750Y-48001000D02*
X67918250Y-48001000D01*
G75*
G02*
X67649000Y-47731750I0J269250D01*
G01*
X67649000Y-47193250D01*
G75*
G02*
X67918250Y-46924000I269250J0D01*
G01*
X68881750Y-46924000D01*
G75*
G02*
X69151000Y-47193250I0J-269250D01*
G01*
X69151000Y-47731750D01*
G75*
G02*
X68881750Y-48001000I-269250J0D01*
G01*
G37*
G36*
G01*
X68881750Y-49876000D02*
X67918250Y-49876000D01*
G75*
G02*
X67649000Y-49606750I0J269250D01*
G01*
X67649000Y-49068250D01*
G75*
G02*
X67918250Y-48799000I269250J0D01*
G01*
X68881750Y-48799000D01*
G75*
G02*
X69151000Y-49068250I0J-269250D01*
G01*
X69151000Y-49606750D01*
G75*
G02*
X68881750Y-49876000I-269250J0D01*
G01*
G37*
G36*
G01*
X81001000Y-20818250D02*
X81001000Y-21781750D01*
G75*
G02*
X80731750Y-22051000I-269250J0D01*
G01*
X80193250Y-22051000D01*
G75*
G02*
X79924000Y-21781750I0J269250D01*
G01*
X79924000Y-20818250D01*
G75*
G02*
X80193250Y-20549000I269250J0D01*
G01*
X80731750Y-20549000D01*
G75*
G02*
X81001000Y-20818250I0J-269250D01*
G01*
G37*
G36*
G01*
X82876000Y-20818250D02*
X82876000Y-21781750D01*
G75*
G02*
X82606750Y-22051000I-269250J0D01*
G01*
X82068250Y-22051000D01*
G75*
G02*
X81799000Y-21781750I0J269250D01*
G01*
X81799000Y-20818250D01*
G75*
G02*
X82068250Y-20549000I269250J0D01*
G01*
X82606750Y-20549000D01*
G75*
G02*
X82876000Y-20818250I0J-269250D01*
G01*
G37*
G36*
G01*
X80061500Y-49981750D02*
X80061500Y-49018250D01*
G75*
G02*
X80330750Y-48749000I269250J0D01*
G01*
X80869250Y-48749000D01*
G75*
G02*
X81138500Y-49018250I0J-269250D01*
G01*
X81138500Y-49981750D01*
G75*
G02*
X80869250Y-50251000I-269250J0D01*
G01*
X80330750Y-50251000D01*
G75*
G02*
X80061500Y-49981750I0J269250D01*
G01*
G37*
G36*
G01*
X78186500Y-49981750D02*
X78186500Y-49018250D01*
G75*
G02*
X78455750Y-48749000I269250J0D01*
G01*
X78994250Y-48749000D01*
G75*
G02*
X79263500Y-49018250I0J-269250D01*
G01*
X79263500Y-49981750D01*
G75*
G02*
X78994250Y-50251000I-269250J0D01*
G01*
X78455750Y-50251000D01*
G75*
G02*
X78186500Y-49981750I0J269250D01*
G01*
G37*
G36*
G01*
X43136750Y-32781800D02*
X42173250Y-32781800D01*
G75*
G02*
X41904000Y-32512550I0J269250D01*
G01*
X41904000Y-31974050D01*
G75*
G02*
X42173250Y-31704800I269250J0D01*
G01*
X43136750Y-31704800D01*
G75*
G02*
X43406000Y-31974050I0J-269250D01*
G01*
X43406000Y-32512550D01*
G75*
G02*
X43136750Y-32781800I-269250J0D01*
G01*
G37*
G36*
G01*
X43136750Y-34656800D02*
X42173250Y-34656800D01*
G75*
G02*
X41904000Y-34387550I0J269250D01*
G01*
X41904000Y-33849050D01*
G75*
G02*
X42173250Y-33579800I269250J0D01*
G01*
X43136750Y-33579800D01*
G75*
G02*
X43406000Y-33849050I0J-269250D01*
G01*
X43406000Y-34387550D01*
G75*
G02*
X43136750Y-34656800I-269250J0D01*
G01*
G37*
G36*
G01*
X43136750Y-36289300D02*
X42173250Y-36289300D01*
G75*
G02*
X41904000Y-36020050I0J269250D01*
G01*
X41904000Y-35481550D01*
G75*
G02*
X42173250Y-35212300I269250J0D01*
G01*
X43136750Y-35212300D01*
G75*
G02*
X43406000Y-35481550I0J-269250D01*
G01*
X43406000Y-36020050D01*
G75*
G02*
X43136750Y-36289300I-269250J0D01*
G01*
G37*
G36*
G01*
X43136750Y-38164300D02*
X42173250Y-38164300D01*
G75*
G02*
X41904000Y-37895050I0J269250D01*
G01*
X41904000Y-37356550D01*
G75*
G02*
X42173250Y-37087300I269250J0D01*
G01*
X43136750Y-37087300D01*
G75*
G02*
X43406000Y-37356550I0J-269250D01*
G01*
X43406000Y-37895050D01*
G75*
G02*
X43136750Y-38164300I-269250J0D01*
G01*
G37*
G36*
G01*
X50606050Y-25629600D02*
X51569550Y-25629600D01*
G75*
G02*
X51838800Y-25898850I0J-269250D01*
G01*
X51838800Y-26437350D01*
G75*
G02*
X51569550Y-26706600I-269250J0D01*
G01*
X50606050Y-26706600D01*
G75*
G02*
X50336800Y-26437350I0J269250D01*
G01*
X50336800Y-25898850D01*
G75*
G02*
X50606050Y-25629600I269250J0D01*
G01*
G37*
G36*
G01*
X50606050Y-23754600D02*
X51569550Y-23754600D01*
G75*
G02*
X51838800Y-24023850I0J-269250D01*
G01*
X51838800Y-24562350D01*
G75*
G02*
X51569550Y-24831600I-269250J0D01*
G01*
X50606050Y-24831600D01*
G75*
G02*
X50336800Y-24562350I0J269250D01*
G01*
X50336800Y-24023850D01*
G75*
G02*
X50606050Y-23754600I269250J0D01*
G01*
G37*
G36*
G01*
X50606050Y-22137100D02*
X51569550Y-22137100D01*
G75*
G02*
X51838800Y-22406350I0J-269250D01*
G01*
X51838800Y-22944850D01*
G75*
G02*
X51569550Y-23214100I-269250J0D01*
G01*
X50606050Y-23214100D01*
G75*
G02*
X50336800Y-22944850I0J269250D01*
G01*
X50336800Y-22406350D01*
G75*
G02*
X50606050Y-22137100I269250J0D01*
G01*
G37*
G36*
G01*
X50606050Y-20262100D02*
X51569550Y-20262100D01*
G75*
G02*
X51838800Y-20531350I0J-269250D01*
G01*
X51838800Y-21069850D01*
G75*
G02*
X51569550Y-21339100I-269250J0D01*
G01*
X50606050Y-21339100D01*
G75*
G02*
X50336800Y-21069850I0J269250D01*
G01*
X50336800Y-20531350D01*
G75*
G02*
X50606050Y-20262100I269250J0D01*
G01*
G37*
G36*
G01*
X54693750Y-28667000D02*
X53730250Y-28667000D01*
G75*
G02*
X53461000Y-28397750I0J269250D01*
G01*
X53461000Y-27859250D01*
G75*
G02*
X53730250Y-27590000I269250J0D01*
G01*
X54693750Y-27590000D01*
G75*
G02*
X54963000Y-27859250I0J-269250D01*
G01*
X54963000Y-28397750D01*
G75*
G02*
X54693750Y-28667000I-269250J0D01*
G01*
G37*
G36*
G01*
X54693750Y-30542000D02*
X53730250Y-30542000D01*
G75*
G02*
X53461000Y-30272750I0J269250D01*
G01*
X53461000Y-29734250D01*
G75*
G02*
X53730250Y-29465000I269250J0D01*
G01*
X54693750Y-29465000D01*
G75*
G02*
X54963000Y-29734250I0J-269250D01*
G01*
X54963000Y-30272750D01*
G75*
G02*
X54693750Y-30542000I-269250J0D01*
G01*
G37*
G36*
G01*
X37226200Y-21973200D02*
X37226200Y-24373200D01*
G75*
G02*
X37175200Y-24424200I-51000J0D01*
G01*
X35675200Y-24424200D01*
G75*
G02*
X35624200Y-24373200I0J51000D01*
G01*
X35624200Y-21973200D01*
G75*
G02*
X35675200Y-21922200I51000J0D01*
G01*
X37175200Y-21922200D01*
G75*
G02*
X37226200Y-21973200I0J-51000D01*
G01*
G37*
G36*
G01*
X42726200Y-21973200D02*
X42726200Y-24373200D01*
G75*
G02*
X42675200Y-24424200I-51000J0D01*
G01*
X41175200Y-24424200D01*
G75*
G02*
X41124200Y-24373200I0J51000D01*
G01*
X41124200Y-21973200D01*
G75*
G02*
X41175200Y-21922200I51000J0D01*
G01*
X42675200Y-21922200D01*
G75*
G02*
X42726200Y-21973200I0J-51000D01*
G01*
G37*
G36*
G01*
X38775000Y-28768000D02*
X36375000Y-28768000D01*
G75*
G02*
X36324000Y-28717000I0J51000D01*
G01*
X36324000Y-27217000D01*
G75*
G02*
X36375000Y-27166000I51000J0D01*
G01*
X38775000Y-27166000D01*
G75*
G02*
X38826000Y-27217000I0J-51000D01*
G01*
X38826000Y-28717000D01*
G75*
G02*
X38775000Y-28768000I-51000J0D01*
G01*
G37*
G36*
G01*
X38775000Y-34268000D02*
X36375000Y-34268000D01*
G75*
G02*
X36324000Y-34217000I0J51000D01*
G01*
X36324000Y-32717000D01*
G75*
G02*
X36375000Y-32666000I51000J0D01*
G01*
X38775000Y-32666000D01*
G75*
G02*
X38826000Y-32717000I0J-51000D01*
G01*
X38826000Y-34217000D01*
G75*
G02*
X38775000Y-34268000I-51000J0D01*
G01*
G37*
G36*
G01*
X40692500Y-40257800D02*
X40692500Y-39057800D01*
G75*
G02*
X40743500Y-39006800I51000J0D01*
G01*
X41643500Y-39006800D01*
G75*
G02*
X41694500Y-39057800I0J-51000D01*
G01*
X41694500Y-40257800D01*
G75*
G02*
X41643500Y-40308800I-51000J0D01*
G01*
X40743500Y-40308800D01*
G75*
G02*
X40692500Y-40257800I0J51000D01*
G01*
G37*
G36*
G01*
X37392500Y-40257800D02*
X37392500Y-39057800D01*
G75*
G02*
X37443500Y-39006800I51000J0D01*
G01*
X38343500Y-39006800D01*
G75*
G02*
X38394500Y-39057800I0J-51000D01*
G01*
X38394500Y-40257800D01*
G75*
G02*
X38343500Y-40308800I-51000J0D01*
G01*
X37443500Y-40308800D01*
G75*
G02*
X37392500Y-40257800I0J51000D01*
G01*
G37*
G36*
G01*
X35396600Y-40207000D02*
X35396600Y-39007000D01*
G75*
G02*
X35447600Y-38956000I51000J0D01*
G01*
X36347600Y-38956000D01*
G75*
G02*
X36398600Y-39007000I0J-51000D01*
G01*
X36398600Y-40207000D01*
G75*
G02*
X36347600Y-40258000I-51000J0D01*
G01*
X35447600Y-40258000D01*
G75*
G02*
X35396600Y-40207000I0J51000D01*
G01*
G37*
G36*
G01*
X32096600Y-40207000D02*
X32096600Y-39007000D01*
G75*
G02*
X32147600Y-38956000I51000J0D01*
G01*
X33047600Y-38956000D01*
G75*
G02*
X33098600Y-39007000I0J-51000D01*
G01*
X33098600Y-40207000D01*
G75*
G02*
X33047600Y-40258000I-51000J0D01*
G01*
X32147600Y-40258000D01*
G75*
G02*
X32096600Y-40207000I0J51000D01*
G01*
G37*
G36*
G01*
X44414300Y-20439600D02*
X44414300Y-21639600D01*
G75*
G02*
X44363300Y-21690600I-51000J0D01*
G01*
X43463300Y-21690600D01*
G75*
G02*
X43412300Y-21639600I0J51000D01*
G01*
X43412300Y-20439600D01*
G75*
G02*
X43463300Y-20388600I51000J0D01*
G01*
X44363300Y-20388600D01*
G75*
G02*
X44414300Y-20439600I0J-51000D01*
G01*
G37*
G36*
G01*
X47714300Y-20439600D02*
X47714300Y-21639600D01*
G75*
G02*
X47663300Y-21690600I-51000J0D01*
G01*
X46763300Y-21690600D01*
G75*
G02*
X46712300Y-21639600I0J51000D01*
G01*
X46712300Y-20439600D01*
G75*
G02*
X46763300Y-20388600I51000J0D01*
G01*
X47663300Y-20388600D01*
G75*
G02*
X47714300Y-20439600I0J-51000D01*
G01*
G37*
G36*
G01*
X71518250Y-48899000D02*
X72081750Y-48899000D01*
G75*
G02*
X72326000Y-49143250I0J-244250D01*
G01*
X72326000Y-49631750D01*
G75*
G02*
X72081750Y-49876000I-244250J0D01*
G01*
X71518250Y-49876000D01*
G75*
G02*
X71274000Y-49631750I0J244250D01*
G01*
X71274000Y-49143250D01*
G75*
G02*
X71518250Y-48899000I244250J0D01*
G01*
G37*
G36*
G01*
X71518250Y-47324000D02*
X72081750Y-47324000D01*
G75*
G02*
X72326000Y-47568250I0J-244250D01*
G01*
X72326000Y-48056750D01*
G75*
G02*
X72081750Y-48301000I-244250J0D01*
G01*
X71518250Y-48301000D01*
G75*
G02*
X71274000Y-48056750I0J244250D01*
G01*
X71274000Y-47568250D01*
G75*
G02*
X71518250Y-47324000I244250J0D01*
G01*
G37*
G36*
G01*
X74281750Y-48301000D02*
X73718250Y-48301000D01*
G75*
G02*
X73474000Y-48056750I0J244250D01*
G01*
X73474000Y-47568250D01*
G75*
G02*
X73718250Y-47324000I244250J0D01*
G01*
X74281750Y-47324000D01*
G75*
G02*
X74526000Y-47568250I0J-244250D01*
G01*
X74526000Y-48056750D01*
G75*
G02*
X74281750Y-48301000I-244250J0D01*
G01*
G37*
G36*
G01*
X74281750Y-49876000D02*
X73718250Y-49876000D01*
G75*
G02*
X73474000Y-49631750I0J244250D01*
G01*
X73474000Y-49143250D01*
G75*
G02*
X73718250Y-48899000I244250J0D01*
G01*
X74281750Y-48899000D01*
G75*
G02*
X74526000Y-49143250I0J-244250D01*
G01*
X74526000Y-49631750D01*
G75*
G02*
X74281750Y-49876000I-244250J0D01*
G01*
G37*
G36*
G01*
X57118250Y-48899000D02*
X57681750Y-48899000D01*
G75*
G02*
X57926000Y-49143250I0J-244250D01*
G01*
X57926000Y-49631750D01*
G75*
G02*
X57681750Y-49876000I-244250J0D01*
G01*
X57118250Y-49876000D01*
G75*
G02*
X56874000Y-49631750I0J244250D01*
G01*
X56874000Y-49143250D01*
G75*
G02*
X57118250Y-48899000I244250J0D01*
G01*
G37*
G36*
G01*
X57118250Y-47324000D02*
X57681750Y-47324000D01*
G75*
G02*
X57926000Y-47568250I0J-244250D01*
G01*
X57926000Y-48056750D01*
G75*
G02*
X57681750Y-48301000I-244250J0D01*
G01*
X57118250Y-48301000D01*
G75*
G02*
X56874000Y-48056750I0J244250D01*
G01*
X56874000Y-47568250D01*
G75*
G02*
X57118250Y-47324000I244250J0D01*
G01*
G37*
G36*
G01*
X84401000Y-49218250D02*
X84401000Y-49781750D01*
G75*
G02*
X84156750Y-50026000I-244250J0D01*
G01*
X83668250Y-50026000D01*
G75*
G02*
X83424000Y-49781750I0J244250D01*
G01*
X83424000Y-49218250D01*
G75*
G02*
X83668250Y-48974000I244250J0D01*
G01*
X84156750Y-48974000D01*
G75*
G02*
X84401000Y-49218250I0J-244250D01*
G01*
G37*
G36*
G01*
X85976000Y-49218250D02*
X85976000Y-49781750D01*
G75*
G02*
X85731750Y-50026000I-244250J0D01*
G01*
X85243250Y-50026000D01*
G75*
G02*
X84999000Y-49781750I0J244250D01*
G01*
X84999000Y-49218250D01*
G75*
G02*
X85243250Y-48974000I244250J0D01*
G01*
X85731750Y-48974000D01*
G75*
G02*
X85976000Y-49218250I0J-244250D01*
G01*
G37*
G36*
G01*
X26501000Y-33018250D02*
X26501000Y-33581750D01*
G75*
G02*
X26256750Y-33826000I-244250J0D01*
G01*
X25768250Y-33826000D01*
G75*
G02*
X25524000Y-33581750I0J244250D01*
G01*
X25524000Y-33018250D01*
G75*
G02*
X25768250Y-32774000I244250J0D01*
G01*
X26256750Y-32774000D01*
G75*
G02*
X26501000Y-33018250I0J-244250D01*
G01*
G37*
G36*
G01*
X28076000Y-33018250D02*
X28076000Y-33581750D01*
G75*
G02*
X27831750Y-33826000I-244250J0D01*
G01*
X27343250Y-33826000D01*
G75*
G02*
X27099000Y-33581750I0J244250D01*
G01*
X27099000Y-33018250D01*
G75*
G02*
X27343250Y-32774000I244250J0D01*
G01*
X27831750Y-32774000D01*
G75*
G02*
X28076000Y-33018250I0J-244250D01*
G01*
G37*
G36*
G01*
X32318250Y-36799000D02*
X32881750Y-36799000D01*
G75*
G02*
X33126000Y-37043250I0J-244250D01*
G01*
X33126000Y-37531750D01*
G75*
G02*
X32881750Y-37776000I-244250J0D01*
G01*
X32318250Y-37776000D01*
G75*
G02*
X32074000Y-37531750I0J244250D01*
G01*
X32074000Y-37043250D01*
G75*
G02*
X32318250Y-36799000I244250J0D01*
G01*
G37*
G36*
G01*
X32318250Y-35224000D02*
X32881750Y-35224000D01*
G75*
G02*
X33126000Y-35468250I0J-244250D01*
G01*
X33126000Y-35956750D01*
G75*
G02*
X32881750Y-36201000I-244250J0D01*
G01*
X32318250Y-36201000D01*
G75*
G02*
X32074000Y-35956750I0J244250D01*
G01*
X32074000Y-35468250D01*
G75*
G02*
X32318250Y-35224000I244250J0D01*
G01*
G37*
G36*
G01*
X45001000Y-35018250D02*
X45001000Y-35581750D01*
G75*
G02*
X44756750Y-35826000I-244250J0D01*
G01*
X44268250Y-35826000D01*
G75*
G02*
X44024000Y-35581750I0J244250D01*
G01*
X44024000Y-35018250D01*
G75*
G02*
X44268250Y-34774000I244250J0D01*
G01*
X44756750Y-34774000D01*
G75*
G02*
X45001000Y-35018250I0J-244250D01*
G01*
G37*
G36*
G01*
X46576000Y-35018250D02*
X46576000Y-35581750D01*
G75*
G02*
X46331750Y-35826000I-244250J0D01*
G01*
X45843250Y-35826000D01*
G75*
G02*
X45599000Y-35581750I0J244250D01*
G01*
X45599000Y-35018250D01*
G75*
G02*
X45843250Y-34774000I244250J0D01*
G01*
X46331750Y-34774000D01*
G75*
G02*
X46576000Y-35018250I0J-244250D01*
G01*
G37*
G36*
G01*
X53501000Y-25918250D02*
X53501000Y-26481750D01*
G75*
G02*
X53256750Y-26726000I-244250J0D01*
G01*
X52768250Y-26726000D01*
G75*
G02*
X52524000Y-26481750I0J244250D01*
G01*
X52524000Y-25918250D01*
G75*
G02*
X52768250Y-25674000I244250J0D01*
G01*
X53256750Y-25674000D01*
G75*
G02*
X53501000Y-25918250I0J-244250D01*
G01*
G37*
G36*
G01*
X55076000Y-25918250D02*
X55076000Y-26481750D01*
G75*
G02*
X54831750Y-26726000I-244250J0D01*
G01*
X54343250Y-26726000D01*
G75*
G02*
X54099000Y-26481750I0J244250D01*
G01*
X54099000Y-25918250D01*
G75*
G02*
X54343250Y-25674000I244250J0D01*
G01*
X54831750Y-25674000D01*
G75*
G02*
X55076000Y-25918250I0J-244250D01*
G01*
G37*
G36*
G01*
X40468250Y-37239000D02*
X41031750Y-37239000D01*
G75*
G02*
X41276000Y-37483250I0J-244250D01*
G01*
X41276000Y-37971750D01*
G75*
G02*
X41031750Y-38216000I-244250J0D01*
G01*
X40468250Y-38216000D01*
G75*
G02*
X40224000Y-37971750I0J244250D01*
G01*
X40224000Y-37483250D01*
G75*
G02*
X40468250Y-37239000I244250J0D01*
G01*
G37*
G36*
G01*
X40468250Y-35664000D02*
X41031750Y-35664000D01*
G75*
G02*
X41276000Y-35908250I0J-244250D01*
G01*
X41276000Y-36396750D01*
G75*
G02*
X41031750Y-36641000I-244250J0D01*
G01*
X40468250Y-36641000D01*
G75*
G02*
X40224000Y-36396750I0J244250D01*
G01*
X40224000Y-35908250D01*
G75*
G02*
X40468250Y-35664000I244250J0D01*
G01*
G37*
G36*
G01*
X49274050Y-21439100D02*
X48710550Y-21439100D01*
G75*
G02*
X48466300Y-21194850I0J244250D01*
G01*
X48466300Y-20706350D01*
G75*
G02*
X48710550Y-20462100I244250J0D01*
G01*
X49274050Y-20462100D01*
G75*
G02*
X49518300Y-20706350I0J-244250D01*
G01*
X49518300Y-21194850D01*
G75*
G02*
X49274050Y-21439100I-244250J0D01*
G01*
G37*
G36*
G01*
X49274050Y-23014100D02*
X48710550Y-23014100D01*
G75*
G02*
X48466300Y-22769850I0J244250D01*
G01*
X48466300Y-22281350D01*
G75*
G02*
X48710550Y-22037100I244250J0D01*
G01*
X49274050Y-22037100D01*
G75*
G02*
X49518300Y-22281350I0J-244250D01*
G01*
X49518300Y-22769850D01*
G75*
G02*
X49274050Y-23014100I-244250J0D01*
G01*
G37*
G36*
G01*
X36840750Y-36133000D02*
X36277250Y-36133000D01*
G75*
G02*
X36033000Y-35888750I0J244250D01*
G01*
X36033000Y-35400250D01*
G75*
G02*
X36277250Y-35156000I244250J0D01*
G01*
X36840750Y-35156000D01*
G75*
G02*
X37085000Y-35400250I0J-244250D01*
G01*
X37085000Y-35888750D01*
G75*
G02*
X36840750Y-36133000I-244250J0D01*
G01*
G37*
G36*
G01*
X36840750Y-37708000D02*
X36277250Y-37708000D01*
G75*
G02*
X36033000Y-37463750I0J244250D01*
G01*
X36033000Y-36975250D01*
G75*
G02*
X36277250Y-36731000I244250J0D01*
G01*
X36840750Y-36731000D01*
G75*
G02*
X37085000Y-36975250I0J-244250D01*
G01*
X37085000Y-37463750D01*
G75*
G02*
X36840750Y-37708000I-244250J0D01*
G01*
G37*
G36*
G01*
X60418250Y-22199000D02*
X60981750Y-22199000D01*
G75*
G02*
X61226000Y-22443250I0J-244250D01*
G01*
X61226000Y-22931750D01*
G75*
G02*
X60981750Y-23176000I-244250J0D01*
G01*
X60418250Y-23176000D01*
G75*
G02*
X60174000Y-22931750I0J244250D01*
G01*
X60174000Y-22443250D01*
G75*
G02*
X60418250Y-22199000I244250J0D01*
G01*
G37*
G36*
G01*
X60418250Y-20624000D02*
X60981750Y-20624000D01*
G75*
G02*
X61226000Y-20868250I0J-244250D01*
G01*
X61226000Y-21356750D01*
G75*
G02*
X60981750Y-21601000I-244250J0D01*
G01*
X60418250Y-21601000D01*
G75*
G02*
X60174000Y-21356750I0J244250D01*
G01*
X60174000Y-20868250D01*
G75*
G02*
X60418250Y-20624000I244250J0D01*
G01*
G37*
G36*
G01*
X54081750Y-21701000D02*
X53518250Y-21701000D01*
G75*
G02*
X53274000Y-21456750I0J244250D01*
G01*
X53274000Y-20968250D01*
G75*
G02*
X53518250Y-20724000I244250J0D01*
G01*
X54081750Y-20724000D01*
G75*
G02*
X54326000Y-20968250I0J-244250D01*
G01*
X54326000Y-21456750D01*
G75*
G02*
X54081750Y-21701000I-244250J0D01*
G01*
G37*
G36*
G01*
X54081750Y-23276000D02*
X53518250Y-23276000D01*
G75*
G02*
X53274000Y-23031750I0J244250D01*
G01*
X53274000Y-22543250D01*
G75*
G02*
X53518250Y-22299000I244250J0D01*
G01*
X54081750Y-22299000D01*
G75*
G02*
X54326000Y-22543250I0J-244250D01*
G01*
X54326000Y-23031750D01*
G75*
G02*
X54081750Y-23276000I-244250J0D01*
G01*
G37*
G36*
G01*
X32340250Y-26952000D02*
X32903750Y-26952000D01*
G75*
G02*
X33148000Y-27196250I0J-244250D01*
G01*
X33148000Y-27684750D01*
G75*
G02*
X32903750Y-27929000I-244250J0D01*
G01*
X32340250Y-27929000D01*
G75*
G02*
X32096000Y-27684750I0J244250D01*
G01*
X32096000Y-27196250D01*
G75*
G02*
X32340250Y-26952000I244250J0D01*
G01*
G37*
G36*
G01*
X32340250Y-25377000D02*
X32903750Y-25377000D01*
G75*
G02*
X33148000Y-25621250I0J-244250D01*
G01*
X33148000Y-26109750D01*
G75*
G02*
X32903750Y-26354000I-244250J0D01*
G01*
X32340250Y-26354000D01*
G75*
G02*
X32096000Y-26109750I0J244250D01*
G01*
X32096000Y-25621250D01*
G75*
G02*
X32340250Y-25377000I244250J0D01*
G01*
G37*
G36*
G01*
X72901000Y-20550000D02*
X72901000Y-21300000D01*
G75*
G02*
X72850000Y-21351000I-51000J0D01*
G01*
X71350000Y-21351000D01*
G75*
G02*
X71299000Y-21300000I0J51000D01*
G01*
X71299000Y-20550000D01*
G75*
G02*
X71350000Y-20499000I51000J0D01*
G01*
X72850000Y-20499000D01*
G75*
G02*
X72901000Y-20550000I0J-51000D01*
G01*
G37*
G36*
G01*
X78901000Y-20550000D02*
X78901000Y-21300000D01*
G75*
G02*
X78850000Y-21351000I-51000J0D01*
G01*
X77350000Y-21351000D01*
G75*
G02*
X77299000Y-21300000I0J51000D01*
G01*
X77299000Y-20550000D01*
G75*
G02*
X77350000Y-20499000I51000J0D01*
G01*
X78850000Y-20499000D01*
G75*
G02*
X78901000Y-20550000I0J-51000D01*
G01*
G37*
G36*
G01*
X78901000Y-24300000D02*
X78901000Y-25050000D01*
G75*
G02*
X78850000Y-25101000I-51000J0D01*
G01*
X77350000Y-25101000D01*
G75*
G02*
X77299000Y-25050000I0J51000D01*
G01*
X77299000Y-24300000D01*
G75*
G02*
X77350000Y-24249000I51000J0D01*
G01*
X78850000Y-24249000D01*
G75*
G02*
X78901000Y-24300000I0J-51000D01*
G01*
G37*
G36*
G01*
X72901000Y-24300000D02*
X72901000Y-25050000D01*
G75*
G02*
X72850000Y-25101000I-51000J0D01*
G01*
X71350000Y-25101000D01*
G75*
G02*
X71299000Y-25050000I0J51000D01*
G01*
X71299000Y-24300000D01*
G75*
G02*
X71350000Y-24249000I51000J0D01*
G01*
X72850000Y-24249000D01*
G75*
G02*
X72901000Y-24300000I0J-51000D01*
G01*
G37*
D17*
G36*
X119047432Y-45404400D02*
G01*
X119047700Y-45405400D01*
X119047700Y-45549399D01*
X119046700Y-45551131D01*
X119045700Y-45551399D01*
X118130900Y-45551399D01*
X118129168Y-45550399D01*
X118128900Y-45549399D01*
X118128900Y-45405400D01*
X118129900Y-45403668D01*
X118130900Y-45403400D01*
X119045700Y-45403400D01*
X119047432Y-45404400D01*
G37*
G36*
X119047432Y-44904399D02*
G01*
X119047700Y-44905399D01*
X119047700Y-45049400D01*
X119046700Y-45051132D01*
X119045700Y-45051400D01*
X118130900Y-45051400D01*
X118129168Y-45050400D01*
X118128900Y-45049400D01*
X118128900Y-44905399D01*
X118129900Y-44903667D01*
X118130900Y-44903399D01*
X119045700Y-44903399D01*
X119047432Y-44904399D01*
G37*
G36*
X119047432Y-44404400D02*
G01*
X119047700Y-44405400D01*
X119047700Y-44549399D01*
X119046700Y-44551131D01*
X119045700Y-44551399D01*
X118130900Y-44551399D01*
X118129168Y-44550399D01*
X118128900Y-44549399D01*
X118128900Y-44405400D01*
X118129900Y-44403668D01*
X118130900Y-44403400D01*
X119045700Y-44403400D01*
X119047432Y-44404400D01*
G37*
G36*
X119047432Y-43904398D02*
G01*
X119047700Y-43905398D01*
X119047700Y-44049400D01*
X119046700Y-44051132D01*
X119045700Y-44051400D01*
X118130900Y-44051400D01*
X118129168Y-44050400D01*
X118128900Y-44049400D01*
X118128900Y-43905398D01*
X118129900Y-43903666D01*
X118130900Y-43903398D01*
X119045700Y-43903398D01*
X119047432Y-43904398D01*
G37*
G36*
X119047432Y-43404399D02*
G01*
X119047700Y-43405399D01*
X119047700Y-43549398D01*
X119046700Y-43551130D01*
X119045700Y-43551398D01*
X118130900Y-43551398D01*
X118129168Y-43550398D01*
X118128900Y-43549398D01*
X118128900Y-43405399D01*
X118129900Y-43403667D01*
X118130900Y-43403399D01*
X119045700Y-43403399D01*
X119047432Y-43404399D01*
G37*
G36*
X119047432Y-42904400D02*
G01*
X119047700Y-42905400D01*
X119047700Y-43049399D01*
X119046700Y-43051131D01*
X119045700Y-43051399D01*
X118130900Y-43051399D01*
X118129168Y-43050399D01*
X118128900Y-43049399D01*
X118128900Y-42905400D01*
X118129900Y-42903668D01*
X118130900Y-42903400D01*
X119045700Y-42903400D01*
X119047432Y-42904400D01*
G37*
G36*
X119047432Y-42404399D02*
G01*
X119047700Y-42405399D01*
X119047700Y-42549400D01*
X119046700Y-42551132D01*
X119045700Y-42551400D01*
X118130900Y-42551400D01*
X118129168Y-42550400D01*
X118128900Y-42549400D01*
X118128900Y-42405399D01*
X118129900Y-42403667D01*
X118130900Y-42403399D01*
X119045700Y-42403399D01*
X119047432Y-42404399D01*
G37*
G36*
X119047432Y-41904400D02*
G01*
X119047700Y-41905400D01*
X119047700Y-42049399D01*
X119046700Y-42051131D01*
X119045700Y-42051399D01*
X118130900Y-42051399D01*
X118129168Y-42050399D01*
X118128900Y-42049399D01*
X118128900Y-41905400D01*
X118129900Y-41903668D01*
X118130900Y-41903400D01*
X119045700Y-41903400D01*
X119047432Y-41904400D01*
G37*
G36*
X119047432Y-41404398D02*
G01*
X119047700Y-41405398D01*
X119047700Y-41549400D01*
X119046700Y-41551132D01*
X119045700Y-41551400D01*
X118130900Y-41551400D01*
X118129168Y-41550400D01*
X118128900Y-41549400D01*
X118128900Y-41405398D01*
X118129900Y-41403666D01*
X118130900Y-41403398D01*
X119045700Y-41403398D01*
X119047432Y-41404398D01*
G37*
G36*
X119047432Y-40904399D02*
G01*
X119047700Y-40905399D01*
X119047700Y-41049398D01*
X119046700Y-41051130D01*
X119045700Y-41051398D01*
X118130900Y-41051398D01*
X118129168Y-41050398D01*
X118128900Y-41049398D01*
X118128900Y-40905399D01*
X118129900Y-40903667D01*
X118130900Y-40903399D01*
X119045700Y-40903399D01*
X119047432Y-40904399D01*
G37*
G36*
X49952732Y-40900000D02*
G01*
X49953000Y-40901000D01*
X49953000Y-40999000D01*
X49952000Y-41000732D01*
X49951000Y-41001000D01*
X48449000Y-41001000D01*
X48447268Y-41000000D01*
X48447000Y-40999000D01*
X48447000Y-40901000D01*
X48448000Y-40899268D01*
X48449000Y-40899000D01*
X49951000Y-40899000D01*
X49952732Y-40900000D01*
G37*
G36*
X54352732Y-40900000D02*
G01*
X54353000Y-40901000D01*
X54353000Y-40999000D01*
X54352000Y-41000732D01*
X54351000Y-41001000D01*
X52849000Y-41001000D01*
X52847268Y-41000000D01*
X52847000Y-40999000D01*
X52847000Y-40901000D01*
X52848000Y-40899268D01*
X52849000Y-40899000D01*
X54351000Y-40899000D01*
X54352732Y-40900000D01*
G37*
G36*
X119047432Y-40404400D02*
G01*
X119047700Y-40405400D01*
X119047700Y-40549399D01*
X119046700Y-40551131D01*
X119045700Y-40551399D01*
X118130900Y-40551399D01*
X118129168Y-40550399D01*
X118128900Y-40549399D01*
X118128900Y-40405400D01*
X118129900Y-40403668D01*
X118130900Y-40403400D01*
X119045700Y-40403400D01*
X119047432Y-40404400D01*
G37*
G36*
X54352732Y-40400000D02*
G01*
X54353000Y-40401000D01*
X54353000Y-40499000D01*
X54352000Y-40500732D01*
X54351000Y-40501000D01*
X52849000Y-40501000D01*
X52847268Y-40500000D01*
X52847000Y-40499000D01*
X52847000Y-40401000D01*
X52848000Y-40399268D01*
X52849000Y-40399000D01*
X54351000Y-40399000D01*
X54352732Y-40400000D01*
G37*
G36*
X49952732Y-40400000D02*
G01*
X49953000Y-40401000D01*
X49953000Y-40499000D01*
X49952000Y-40500732D01*
X49951000Y-40501000D01*
X48449000Y-40501000D01*
X48447268Y-40500000D01*
X48447000Y-40499000D01*
X48447000Y-40401000D01*
X48448000Y-40399268D01*
X48449000Y-40399000D01*
X49951000Y-40399000D01*
X49952732Y-40400000D01*
G37*
G36*
X119047432Y-39904399D02*
G01*
X119047700Y-39905399D01*
X119047700Y-40049400D01*
X119046700Y-40051132D01*
X119045700Y-40051400D01*
X118130900Y-40051400D01*
X118129168Y-40050400D01*
X118128900Y-40049400D01*
X118128900Y-39905399D01*
X118129900Y-39903667D01*
X118130900Y-39903399D01*
X119045700Y-39903399D01*
X119047432Y-39904399D01*
G37*
G36*
X49952732Y-39900000D02*
G01*
X49953000Y-39901000D01*
X49953000Y-39999000D01*
X49952000Y-40000732D01*
X49951000Y-40001000D01*
X48449000Y-40001000D01*
X48447268Y-40000000D01*
X48447000Y-39999000D01*
X48447000Y-39901000D01*
X48448000Y-39899268D01*
X48449000Y-39899000D01*
X49951000Y-39899000D01*
X49952732Y-39900000D01*
G37*
G36*
X54352732Y-39900000D02*
G01*
X54353000Y-39901000D01*
X54353000Y-39999000D01*
X54352000Y-40000732D01*
X54351000Y-40001000D01*
X52849000Y-40001000D01*
X52847268Y-40000000D01*
X52847000Y-39999000D01*
X52847000Y-39901000D01*
X52848000Y-39899268D01*
X52849000Y-39899000D01*
X54351000Y-39899000D01*
X54352732Y-39900000D01*
G37*
G36*
X119047432Y-39404400D02*
G01*
X119047700Y-39405400D01*
X119047700Y-39549399D01*
X119046700Y-39551131D01*
X119045700Y-39551399D01*
X118130900Y-39551399D01*
X118129168Y-39550399D01*
X118128900Y-39549399D01*
X118128900Y-39405400D01*
X118129900Y-39403668D01*
X118130900Y-39403400D01*
X119045700Y-39403400D01*
X119047432Y-39404400D01*
G37*
G36*
X49952732Y-39400000D02*
G01*
X49953000Y-39401000D01*
X49953000Y-39499000D01*
X49952000Y-39500732D01*
X49951000Y-39501000D01*
X48449000Y-39501000D01*
X48447268Y-39500000D01*
X48447000Y-39499000D01*
X48447000Y-39401000D01*
X48448000Y-39399268D01*
X48449000Y-39399000D01*
X49951000Y-39399000D01*
X49952732Y-39400000D01*
G37*
G36*
X54352732Y-39400000D02*
G01*
X54353000Y-39401000D01*
X54353000Y-39499000D01*
X54352000Y-39500732D01*
X54351000Y-39501000D01*
X52849000Y-39501000D01*
X52847268Y-39500000D01*
X52847000Y-39499000D01*
X52847000Y-39401000D01*
X52848000Y-39399268D01*
X52849000Y-39399000D01*
X54351000Y-39399000D01*
X54352732Y-39400000D01*
G37*
G36*
X119047432Y-38904398D02*
G01*
X119047700Y-38905398D01*
X119047700Y-39049400D01*
X119046700Y-39051132D01*
X119045700Y-39051400D01*
X118130900Y-39051400D01*
X118129168Y-39050400D01*
X118128900Y-39049400D01*
X118128900Y-38905398D01*
X118129900Y-38903666D01*
X118130900Y-38903398D01*
X119045700Y-38903398D01*
X119047432Y-38904398D01*
G37*
G36*
X119047432Y-38404399D02*
G01*
X119047700Y-38405399D01*
X119047700Y-38549398D01*
X119046700Y-38551130D01*
X119045700Y-38551398D01*
X118130900Y-38551398D01*
X118129168Y-38550398D01*
X118128900Y-38549398D01*
X118128900Y-38405399D01*
X118129900Y-38403667D01*
X118130900Y-38403399D01*
X119045700Y-38403399D01*
X119047432Y-38404399D01*
G37*
G36*
X119047432Y-37904400D02*
G01*
X119047700Y-37905400D01*
X119047700Y-38049399D01*
X119046700Y-38051131D01*
X119045700Y-38051399D01*
X118130900Y-38051399D01*
X118129168Y-38050399D01*
X118128900Y-38049399D01*
X118128900Y-37905400D01*
X118129900Y-37903668D01*
X118130900Y-37903400D01*
X119045700Y-37903400D01*
X119047432Y-37904400D01*
G37*
G36*
X119047432Y-37404398D02*
G01*
X119047700Y-37405398D01*
X119047700Y-37549400D01*
X119046700Y-37551132D01*
X119045700Y-37551400D01*
X118130900Y-37551400D01*
X118129168Y-37550400D01*
X118128900Y-37549400D01*
X118128900Y-37405398D01*
X118129900Y-37403666D01*
X118130900Y-37403398D01*
X119045700Y-37403398D01*
X119047432Y-37404398D01*
G37*
G36*
X119047432Y-36904399D02*
G01*
X119047700Y-36905399D01*
X119047700Y-37049398D01*
X119046700Y-37051130D01*
X119045700Y-37051398D01*
X118130900Y-37051398D01*
X118129168Y-37050398D01*
X118128900Y-37049398D01*
X118128900Y-36905399D01*
X118129900Y-36903667D01*
X118130900Y-36903399D01*
X119045700Y-36903399D01*
X119047432Y-36904399D01*
G37*
G36*
X119047432Y-36404400D02*
G01*
X119047700Y-36405400D01*
X119047700Y-36549399D01*
X119046700Y-36551131D01*
X119045700Y-36551399D01*
X118130900Y-36551399D01*
X118129168Y-36550399D01*
X118128900Y-36549399D01*
X118128900Y-36405400D01*
X118129900Y-36403668D01*
X118130900Y-36403400D01*
X119045700Y-36403400D01*
X119047432Y-36404400D01*
G37*
G36*
X119047432Y-35904399D02*
G01*
X119047700Y-35905399D01*
X119047700Y-36049400D01*
X119046700Y-36051132D01*
X119045700Y-36051400D01*
X118130900Y-36051400D01*
X118129168Y-36050400D01*
X118128900Y-36049400D01*
X118128900Y-35905399D01*
X118129900Y-35903667D01*
X118130900Y-35903399D01*
X119045700Y-35903399D01*
X119047432Y-35904399D01*
G37*
G36*
X119047432Y-35404400D02*
G01*
X119047700Y-35405400D01*
X119047700Y-35549399D01*
X119046700Y-35551131D01*
X119045700Y-35551399D01*
X118130900Y-35551399D01*
X118129168Y-35550399D01*
X118128900Y-35549399D01*
X118128900Y-35405400D01*
X118129900Y-35403668D01*
X118130900Y-35403400D01*
X119045700Y-35403400D01*
X119047432Y-35404400D01*
G37*
G36*
X119047432Y-34904398D02*
G01*
X119047700Y-34905398D01*
X119047700Y-35049400D01*
X119046700Y-35051132D01*
X119045700Y-35051400D01*
X118130900Y-35051400D01*
X118129168Y-35050400D01*
X118128900Y-35049400D01*
X118128900Y-34905398D01*
X118129900Y-34903666D01*
X118130900Y-34903398D01*
X119045700Y-34903398D01*
X119047432Y-34904398D01*
G37*
G36*
X119047432Y-34404399D02*
G01*
X119047700Y-34405399D01*
X119047700Y-34549398D01*
X119046700Y-34551130D01*
X119045700Y-34551398D01*
X118130900Y-34551398D01*
X118129168Y-34550398D01*
X118128900Y-34549398D01*
X118128900Y-34405399D01*
X118129900Y-34403667D01*
X118130900Y-34403399D01*
X119045700Y-34403399D01*
X119047432Y-34404399D01*
G37*
G36*
X119047432Y-33904400D02*
G01*
X119047700Y-33905400D01*
X119047700Y-34049399D01*
X119046700Y-34051131D01*
X119045700Y-34051399D01*
X118130900Y-34051399D01*
X118129168Y-34050399D01*
X118128900Y-34049399D01*
X118128900Y-33905400D01*
X118129900Y-33903668D01*
X118130900Y-33903400D01*
X119045700Y-33903400D01*
X119047432Y-33904400D01*
G37*
G36*
X119047432Y-33404399D02*
G01*
X119047700Y-33405399D01*
X119047700Y-33549400D01*
X119046700Y-33551132D01*
X119045700Y-33551400D01*
X118130900Y-33551400D01*
X118129168Y-33550400D01*
X118128900Y-33549400D01*
X118128900Y-33405399D01*
X118129900Y-33403667D01*
X118130900Y-33403399D01*
X119045700Y-33403399D01*
X119047432Y-33404399D01*
G37*
G36*
X119047432Y-32904400D02*
G01*
X119047700Y-32905400D01*
X119047700Y-33049399D01*
X119046700Y-33051131D01*
X119045700Y-33051399D01*
X118130900Y-33051399D01*
X118129168Y-33050399D01*
X118128900Y-33049399D01*
X118128900Y-32905400D01*
X118129900Y-32903668D01*
X118130900Y-32903400D01*
X119045700Y-32903400D01*
X119047432Y-32904400D01*
G37*
G36*
X119047432Y-32404398D02*
G01*
X119047700Y-32405398D01*
X119047700Y-32549400D01*
X119046700Y-32551132D01*
X119045700Y-32551400D01*
X118130900Y-32551400D01*
X118129168Y-32550400D01*
X118128900Y-32549400D01*
X118128900Y-32405398D01*
X118129900Y-32403666D01*
X118130900Y-32403398D01*
X119045700Y-32403398D01*
X119047432Y-32404398D01*
G37*
G36*
X119047432Y-31904399D02*
G01*
X119047700Y-31905399D01*
X119047700Y-32049398D01*
X119046700Y-32051130D01*
X119045700Y-32051398D01*
X118130900Y-32051398D01*
X118129168Y-32050398D01*
X118128900Y-32049398D01*
X118128900Y-31905399D01*
X118129900Y-31903667D01*
X118130900Y-31903399D01*
X119045700Y-31903399D01*
X119047432Y-31904399D01*
G37*
G36*
X119047432Y-31404400D02*
G01*
X119047700Y-31405400D01*
X119047700Y-31549399D01*
X119046700Y-31551131D01*
X119045700Y-31551399D01*
X118130900Y-31551399D01*
X118129168Y-31550399D01*
X118128900Y-31549399D01*
X118128900Y-31405400D01*
X118129900Y-31403668D01*
X118130900Y-31403400D01*
X119045700Y-31403400D01*
X119047432Y-31404400D01*
G37*
G36*
X119047432Y-30904399D02*
G01*
X119047700Y-30905399D01*
X119047700Y-31049400D01*
X119046700Y-31051132D01*
X119045700Y-31051400D01*
X118130900Y-31051400D01*
X118129168Y-31050400D01*
X118128900Y-31049400D01*
X118128900Y-30905399D01*
X118129900Y-30903667D01*
X118130900Y-30903399D01*
X119045700Y-30903399D01*
X119047432Y-30904399D01*
G37*
G36*
X119047432Y-30404400D02*
G01*
X119047700Y-30405400D01*
X119047700Y-30549399D01*
X119046700Y-30551131D01*
X119045700Y-30551399D01*
X118130900Y-30551399D01*
X118129168Y-30550399D01*
X118128900Y-30549399D01*
X118128900Y-30405400D01*
X118129900Y-30403668D01*
X118130900Y-30403400D01*
X119045700Y-30403400D01*
X119047432Y-30404400D01*
G37*
G36*
X119047432Y-29904398D02*
G01*
X119047700Y-29905398D01*
X119047700Y-30049400D01*
X119046700Y-30051132D01*
X119045700Y-30051400D01*
X118130900Y-30051400D01*
X118129168Y-30050400D01*
X118128900Y-30049400D01*
X118128900Y-29905398D01*
X118129900Y-29903666D01*
X118130900Y-29903398D01*
X119045700Y-29903398D01*
X119047432Y-29904398D01*
G37*
G36*
X48985932Y-29816800D02*
G01*
X48986200Y-29817800D01*
X48986200Y-29915800D01*
X48985200Y-29917532D01*
X48984200Y-29917800D01*
X47482200Y-29917800D01*
X47480468Y-29916800D01*
X47480200Y-29915800D01*
X47480200Y-29817800D01*
X47481200Y-29816068D01*
X47482200Y-29815800D01*
X48984200Y-29815800D01*
X48985932Y-29816800D01*
G37*
G36*
X44585932Y-29816800D02*
G01*
X44586200Y-29817800D01*
X44586200Y-29915800D01*
X44585200Y-29917532D01*
X44584200Y-29917800D01*
X43082200Y-29917800D01*
X43080468Y-29916800D01*
X43080200Y-29915800D01*
X43080200Y-29817800D01*
X43081200Y-29816068D01*
X43082200Y-29815800D01*
X44584200Y-29815800D01*
X44585932Y-29816800D01*
G37*
G36*
X44585932Y-29316800D02*
G01*
X44586200Y-29317800D01*
X44586200Y-29415800D01*
X44585200Y-29417532D01*
X44584200Y-29417800D01*
X43082200Y-29417800D01*
X43080468Y-29416800D01*
X43080200Y-29415800D01*
X43080200Y-29317800D01*
X43081200Y-29316068D01*
X43082200Y-29315800D01*
X44584200Y-29315800D01*
X44585932Y-29316800D01*
G37*
G36*
X48985932Y-29316800D02*
G01*
X48986200Y-29317800D01*
X48986200Y-29415800D01*
X48985200Y-29417532D01*
X48984200Y-29417800D01*
X47482200Y-29417800D01*
X47480468Y-29416800D01*
X47480200Y-29415800D01*
X47480200Y-29317800D01*
X47481200Y-29316068D01*
X47482200Y-29315800D01*
X48984200Y-29315800D01*
X48985932Y-29316800D01*
G37*
G36*
X48985932Y-28816800D02*
G01*
X48986200Y-28817800D01*
X48986200Y-28915800D01*
X48985200Y-28917532D01*
X48984200Y-28917800D01*
X47482200Y-28917800D01*
X47480468Y-28916800D01*
X47480200Y-28915800D01*
X47480200Y-28817800D01*
X47481200Y-28816068D01*
X47482200Y-28815800D01*
X48984200Y-28815800D01*
X48985932Y-28816800D01*
G37*
G36*
X44585932Y-28816800D02*
G01*
X44586200Y-28817800D01*
X44586200Y-28915800D01*
X44585200Y-28917532D01*
X44584200Y-28917800D01*
X43082200Y-28917800D01*
X43080468Y-28916800D01*
X43080200Y-28915800D01*
X43080200Y-28817800D01*
X43081200Y-28816068D01*
X43082200Y-28815800D01*
X44584200Y-28815800D01*
X44585932Y-28816800D01*
G37*
G36*
X44585932Y-28316800D02*
G01*
X44586200Y-28317800D01*
X44586200Y-28415800D01*
X44585200Y-28417532D01*
X44584200Y-28417800D01*
X43082200Y-28417800D01*
X43080468Y-28416800D01*
X43080200Y-28415800D01*
X43080200Y-28317800D01*
X43081200Y-28316068D01*
X43082200Y-28315800D01*
X44584200Y-28315800D01*
X44585932Y-28316800D01*
G37*
G36*
X48985932Y-28316800D02*
G01*
X48986200Y-28317800D01*
X48986200Y-28415800D01*
X48985200Y-28417532D01*
X48984200Y-28417800D01*
X47482200Y-28417800D01*
X47480468Y-28416800D01*
X47480200Y-28415800D01*
X47480200Y-28317800D01*
X47481200Y-28316068D01*
X47482200Y-28315800D01*
X48984200Y-28315800D01*
X48985932Y-28316800D01*
G37*
G36*
X31513732Y-23088000D02*
G01*
X31514000Y-23089000D01*
X31514000Y-24441000D01*
X31513000Y-24442732D01*
X31512000Y-24443000D01*
X31364000Y-24443000D01*
X31362268Y-24442000D01*
X31362000Y-24441000D01*
X31362000Y-23091000D01*
X30864000Y-23091000D01*
X30864000Y-24441000D01*
X30863000Y-24442732D01*
X30862000Y-24443000D01*
X30714000Y-24443000D01*
X30712268Y-24442000D01*
X30712000Y-24441000D01*
X30712000Y-23091000D01*
X30214000Y-23091000D01*
X30214000Y-24441000D01*
X30213000Y-24442732D01*
X30212000Y-24443000D01*
X30064000Y-24443000D01*
X30062268Y-24442000D01*
X30062000Y-24441000D01*
X30062000Y-23091000D01*
X29564000Y-23091000D01*
X29564000Y-24441000D01*
X29563000Y-24442732D01*
X29562000Y-24443000D01*
X29414000Y-24443000D01*
X29412268Y-24442000D01*
X29412000Y-24441000D01*
X29412000Y-23089000D01*
X29413000Y-23087268D01*
X29414000Y-23087000D01*
X31512000Y-23087000D01*
X31513732Y-23088000D01*
G37*
G36*
X32015990Y-23438010D02*
G01*
X32018372Y-23462197D01*
X32025372Y-23485272D01*
X32036737Y-23506536D01*
X32052032Y-23525173D01*
X32070669Y-23540468D01*
X32091933Y-23551833D01*
X32115008Y-23558833D01*
X32138999Y-23561196D01*
X32162990Y-23558833D01*
X32186065Y-23551833D01*
X32207329Y-23540468D01*
X32225966Y-23525173D01*
X32241261Y-23506536D01*
X32249824Y-23490514D01*
X32251523Y-23489458D01*
X32253286Y-23490401D01*
X32253436Y-23492222D01*
X32223894Y-23563544D01*
X32197351Y-23696979D01*
X32197351Y-23833021D01*
X32223894Y-23966456D01*
X32253436Y-24037778D01*
X32253175Y-24039761D01*
X32251327Y-24040526D01*
X32249824Y-24039486D01*
X32241261Y-24023464D01*
X32225965Y-24004827D01*
X32207328Y-23989532D01*
X32186065Y-23978167D01*
X32162990Y-23971167D01*
X32138999Y-23968804D01*
X32115008Y-23971167D01*
X32091933Y-23978167D01*
X32070669Y-23989532D01*
X32052032Y-24004828D01*
X32036737Y-24023465D01*
X32025372Y-24044728D01*
X32018372Y-24067803D01*
X32015990Y-24091990D01*
X32014825Y-24093616D01*
X32012835Y-24093420D01*
X32012000Y-24091794D01*
X32012000Y-23438206D01*
X32013000Y-23436474D01*
X32015000Y-23436474D01*
X32015990Y-23438010D01*
G37*
G36*
X28913165Y-23436580D02*
G01*
X28914000Y-23438206D01*
X28914000Y-24091794D01*
X28913000Y-24093526D01*
X28911000Y-24093526D01*
X28910010Y-24091990D01*
X28907628Y-24067803D01*
X28900628Y-24044728D01*
X28889263Y-24023464D01*
X28873968Y-24004827D01*
X28855331Y-23989532D01*
X28834067Y-23978167D01*
X28810992Y-23971167D01*
X28787001Y-23968804D01*
X28763010Y-23971167D01*
X28739935Y-23978167D01*
X28718671Y-23989532D01*
X28700034Y-24004827D01*
X28684739Y-24023464D01*
X28676176Y-24039486D01*
X28674477Y-24040542D01*
X28672714Y-24039599D01*
X28672564Y-24037778D01*
X28702106Y-23966456D01*
X28728649Y-23833021D01*
X28728649Y-23696979D01*
X28702106Y-23563544D01*
X28672564Y-23492222D01*
X28672825Y-23490239D01*
X28674673Y-23489474D01*
X28676176Y-23490514D01*
X28684739Y-23506536D01*
X28700035Y-23525173D01*
X28718672Y-23540468D01*
X28739935Y-23551833D01*
X28763010Y-23558833D01*
X28787001Y-23561196D01*
X28810992Y-23558833D01*
X28834067Y-23551833D01*
X28855331Y-23540468D01*
X28873968Y-23525172D01*
X28889263Y-23506535D01*
X28900628Y-23485272D01*
X28907628Y-23462197D01*
X28910010Y-23438010D01*
X28911175Y-23436384D01*
X28913165Y-23436580D01*
G37*
M02*
