G04 #@! TF.GenerationSoftware,KiCad,Pcbnew,5.1.6*
G04 #@! TF.CreationDate,2020-06-25T17:00:21+02:00*
G04 #@! TF.ProjectId,epaper-breakout,65706170-6572-42d6-9272-65616b6f7574,rev?*
G04 #@! TF.SameCoordinates,Original*
G04 #@! TF.FileFunction,Copper,L2,Bot*
G04 #@! TF.FilePolarity,Positive*
%FSLAX46Y46*%
G04 Gerber Fmt 4.6, Leading zero omitted, Abs format (unit mm)*
G04 Created by KiCad (PCBNEW 5.1.6) date 2020-06-25 17:00:21*
%MOMM*%
%LPD*%
G01*
G04 APERTURE LIST*
G04 #@! TA.AperFunction,EtchedComponent*
%ADD10C,0.100000*%
G04 #@! TD*
G04 #@! TA.AperFunction,SMDPad,CuDef*
%ADD11C,0.100000*%
G04 #@! TD*
G04 #@! TA.AperFunction,SMDPad,CuDef*
%ADD12R,1.000000X1.500000*%
G04 #@! TD*
G04 #@! TA.AperFunction,ComponentPad*
%ADD13C,1.290000*%
G04 #@! TD*
G04 #@! TA.AperFunction,ComponentPad*
%ADD14O,1.100000X1.700000*%
G04 #@! TD*
G04 #@! TA.AperFunction,ComponentPad*
%ADD15C,0.800000*%
G04 #@! TD*
G04 #@! TA.AperFunction,SMDPad,CuDef*
%ADD16R,0.950000X0.400000*%
G04 #@! TD*
G04 #@! TA.AperFunction,SMDPad,CuDef*
%ADD17R,0.800000X0.300000*%
G04 #@! TD*
G04 #@! TA.AperFunction,SMDPad,CuDef*
%ADD18R,0.650000X0.300000*%
G04 #@! TD*
G04 #@! TA.AperFunction,ComponentPad*
%ADD19O,1.700000X1.700000*%
G04 #@! TD*
G04 #@! TA.AperFunction,ComponentPad*
%ADD20R,1.700000X1.700000*%
G04 #@! TD*
G04 #@! TA.AperFunction,ViaPad*
%ADD21C,0.800000*%
G04 #@! TD*
G04 #@! TA.AperFunction,Conductor*
%ADD22C,0.250000*%
G04 #@! TD*
G04 #@! TA.AperFunction,Conductor*
%ADD23C,0.500000*%
G04 #@! TD*
G04 #@! TA.AperFunction,Conductor*
%ADD24C,0.200000*%
G04 #@! TD*
G04 #@! TA.AperFunction,Conductor*
%ADD25C,0.254000*%
G04 #@! TD*
G04 APERTURE END LIST*
D10*
G36*
X43753200Y-27973300D02*
G01*
X44253200Y-27973300D01*
X44253200Y-27373300D01*
X43753200Y-27373300D01*
X43753200Y-27973300D01*
G37*
G04 #@! TA.AperFunction,SMDPad,CuDef*
D11*
G36*
X43903200Y-28423300D02*
G01*
X43353200Y-28423300D01*
X43353200Y-28422698D01*
X43328666Y-28422698D01*
X43279835Y-28417888D01*
X43231710Y-28408316D01*
X43184755Y-28394072D01*
X43139422Y-28375295D01*
X43096149Y-28352164D01*
X43055350Y-28324904D01*
X43017421Y-28293776D01*
X42982724Y-28259079D01*
X42951596Y-28221150D01*
X42924336Y-28180351D01*
X42901205Y-28137078D01*
X42882428Y-28091745D01*
X42868184Y-28044790D01*
X42858612Y-27996665D01*
X42853802Y-27947834D01*
X42853802Y-27923300D01*
X42853200Y-27923300D01*
X42853200Y-27423300D01*
X42853802Y-27423300D01*
X42853802Y-27398766D01*
X42858612Y-27349935D01*
X42868184Y-27301810D01*
X42882428Y-27254855D01*
X42901205Y-27209522D01*
X42924336Y-27166249D01*
X42951596Y-27125450D01*
X42982724Y-27087521D01*
X43017421Y-27052824D01*
X43055350Y-27021696D01*
X43096149Y-26994436D01*
X43139422Y-26971305D01*
X43184755Y-26952528D01*
X43231710Y-26938284D01*
X43279835Y-26928712D01*
X43328666Y-26923902D01*
X43353200Y-26923902D01*
X43353200Y-26923300D01*
X43903200Y-26923300D01*
X43903200Y-28423300D01*
G37*
G04 #@! TD.AperFunction*
D12*
X44653200Y-27673300D03*
G04 #@! TA.AperFunction,SMDPad,CuDef*
D11*
G36*
X45953200Y-26923902D02*
G01*
X45977734Y-26923902D01*
X46026565Y-26928712D01*
X46074690Y-26938284D01*
X46121645Y-26952528D01*
X46166978Y-26971305D01*
X46210251Y-26994436D01*
X46251050Y-27021696D01*
X46288979Y-27052824D01*
X46323676Y-27087521D01*
X46354804Y-27125450D01*
X46382064Y-27166249D01*
X46405195Y-27209522D01*
X46423972Y-27254855D01*
X46438216Y-27301810D01*
X46447788Y-27349935D01*
X46452598Y-27398766D01*
X46452598Y-27423300D01*
X46453200Y-27423300D01*
X46453200Y-27923300D01*
X46452598Y-27923300D01*
X46452598Y-27947834D01*
X46447788Y-27996665D01*
X46438216Y-28044790D01*
X46423972Y-28091745D01*
X46405195Y-28137078D01*
X46382064Y-28180351D01*
X46354804Y-28221150D01*
X46323676Y-28259079D01*
X46288979Y-28293776D01*
X46251050Y-28324904D01*
X46210251Y-28352164D01*
X46166978Y-28375295D01*
X46121645Y-28394072D01*
X46074690Y-28408316D01*
X46026565Y-28417888D01*
X45977734Y-28422698D01*
X45953200Y-28422698D01*
X45953200Y-28423300D01*
X45403200Y-28423300D01*
X45403200Y-26923300D01*
X45953200Y-26923300D01*
X45953200Y-26923902D01*
G37*
G04 #@! TD.AperFunction*
D13*
X32888000Y-23765000D03*
X28038000Y-23765000D03*
D14*
X34063000Y-21065000D03*
X26863000Y-21065000D03*
D15*
X82079200Y-40127400D03*
X83079200Y-40127400D03*
X84079200Y-40127400D03*
X85079200Y-40127400D03*
X86079200Y-40127400D03*
X86079200Y-39127400D03*
X85079200Y-39127400D03*
X84079200Y-39127400D03*
X83079200Y-39127400D03*
X82079200Y-39127400D03*
X82079200Y-37127400D03*
X83079200Y-37127400D03*
X84079200Y-37127400D03*
X85079200Y-37127400D03*
X86079200Y-37127400D03*
X86079200Y-38127400D03*
X85079200Y-38127400D03*
X84079200Y-38127400D03*
X83079200Y-38127400D03*
X82079200Y-38127400D03*
X86079200Y-36127400D03*
X85079200Y-36127400D03*
X84079200Y-36127400D03*
X83079200Y-36127400D03*
X82079200Y-36127400D03*
D16*
X119802200Y-43365400D03*
X119802200Y-30565400D03*
D17*
X120077200Y-42665400D03*
D18*
X117202200Y-42365400D03*
D17*
X120077200Y-42065400D03*
D18*
X117202200Y-41765400D03*
D17*
X120077200Y-41465400D03*
D18*
X117202200Y-41165400D03*
D17*
X120077200Y-40865400D03*
D18*
X117202200Y-40565400D03*
D17*
X120077200Y-40265400D03*
D18*
X117202200Y-39965400D03*
D17*
X120077200Y-39665400D03*
D18*
X117202200Y-39365400D03*
D17*
X120077200Y-39065400D03*
D18*
X117202200Y-38765400D03*
D17*
X120077200Y-38465400D03*
D18*
X117202200Y-38165400D03*
D17*
X120077200Y-37865400D03*
D18*
X117202200Y-37565400D03*
D17*
X120077200Y-37265400D03*
D18*
X117202200Y-36965400D03*
D17*
X120077200Y-36665400D03*
D18*
X117202200Y-36365400D03*
D17*
X120077200Y-36065400D03*
D18*
X117202200Y-35765400D03*
D17*
X120077200Y-35465400D03*
D18*
X117202200Y-35165400D03*
D17*
X120077200Y-34865400D03*
D18*
X117202200Y-34565400D03*
D17*
X120077200Y-34265400D03*
D18*
X117202200Y-33965400D03*
D17*
X120077200Y-33665400D03*
D18*
X117202200Y-33365400D03*
D17*
X120077200Y-33065400D03*
D18*
X117202200Y-32765400D03*
D17*
X120077200Y-32465400D03*
D18*
X117202200Y-32165400D03*
D17*
X120077200Y-31865400D03*
D18*
X117202200Y-31565400D03*
D17*
X120077200Y-31265400D03*
D19*
X27161000Y-38591000D03*
X29701000Y-38591000D03*
X27161000Y-41131000D03*
X29701000Y-41131000D03*
X27161000Y-43671000D03*
X29701000Y-43671000D03*
X27161000Y-46211000D03*
X29701000Y-46211000D03*
X27161000Y-48751000D03*
D20*
X29701000Y-48751000D03*
D21*
X33997900Y-49542700D03*
X117381800Y-43213800D03*
X26145000Y-29066000D03*
X26018000Y-28177000D03*
X27034000Y-28558000D03*
X34400000Y-24621000D03*
X26145000Y-24367000D03*
X31733000Y-29828000D03*
X34654000Y-26907000D03*
X33765000Y-27415000D03*
X32241000Y-37194000D03*
X33003000Y-37829000D03*
X31733000Y-37956000D03*
X32876000Y-43925000D03*
X33765000Y-43798000D03*
X32876000Y-44814000D03*
X53577000Y-44306000D03*
X53577000Y-45449000D03*
X45195000Y-42274000D03*
X45195000Y-44179000D03*
X44814000Y-43163000D03*
X54974000Y-40115000D03*
X55863000Y-38972000D03*
X56752000Y-40115000D03*
X58657000Y-40115000D03*
X64499000Y-43671000D03*
X65515000Y-43671000D03*
X66594500Y-43607500D03*
X96249000Y-44179000D03*
X53831000Y-20684000D03*
X53323000Y-21827000D03*
X122792000Y-41512000D03*
X108600000Y-49800000D03*
X116000000Y-49200000D03*
X120760000Y-46846000D03*
X122919000Y-49386000D03*
X121014000Y-49386000D03*
X107600000Y-21200000D03*
X106800000Y-22400000D03*
X108400000Y-22400000D03*
X103200000Y-24800000D03*
X101600000Y-24800000D03*
X102400000Y-24200000D03*
X108600000Y-26600000D03*
X122200000Y-22400000D03*
X45600000Y-21000000D03*
X45600000Y-22000000D03*
X38800000Y-20600000D03*
X38800000Y-21800000D03*
X39800000Y-21200000D03*
X122200000Y-23800000D03*
X123200000Y-23000000D03*
X68200000Y-20600000D03*
X69000000Y-21600000D03*
X85800000Y-20800000D03*
X86600000Y-21800000D03*
X90566402Y-38127400D03*
X40640000Y-25273000D03*
X43230800Y-25971500D03*
X47485300Y-25869900D03*
X53454300Y-25450800D03*
X63500000Y-27597100D03*
X63296800Y-32626300D03*
X59486800Y-32473900D03*
X56934100Y-30073600D03*
X55228000Y-33003000D03*
X49352200Y-31470600D03*
X40728900Y-31318200D03*
X40906700Y-34594800D03*
X38125400Y-36779200D03*
X44729400Y-37846000D03*
X47117000Y-34556700D03*
X43942000Y-45783500D03*
X43611800Y-49606200D03*
X59677300Y-49352200D03*
X64960500Y-49377600D03*
X79590900Y-31965900D03*
X85521800Y-43561000D03*
X87960200Y-49060100D03*
X91782900Y-49072800D03*
X95072200Y-38620700D03*
X97282000Y-37896800D03*
X101993700Y-27114500D03*
X83604100Y-26314400D03*
X100634800Y-43472100D03*
X104051100Y-42608500D03*
X102285800Y-38227000D03*
X88861900Y-25247600D03*
X91503500Y-25247600D03*
X93472000Y-20800000D03*
X63200000Y-30000000D03*
X79819500Y-37503100D03*
X112352600Y-33180800D03*
X55736000Y-31733000D03*
X113597200Y-33155400D03*
X57800000Y-33000000D03*
X121471200Y-29497800D03*
X116000000Y-46000000D03*
X64600000Y-33000000D03*
X118146061Y-27211800D03*
X58022000Y-36432000D03*
X107777012Y-44715988D03*
X68309000Y-49386000D03*
X80501000Y-49005000D03*
X115629200Y-43315400D03*
X98992200Y-39505400D03*
X108263200Y-38235400D03*
X108771200Y-43315400D03*
X116543600Y-27796000D03*
X109406200Y-38235400D03*
X122855500Y-31694900D03*
X110307900Y-43074100D03*
X121654190Y-34115410D03*
X113597200Y-40267400D03*
X121776000Y-39480000D03*
X114264211Y-38775411D03*
X121445800Y-38489400D03*
X83739500Y-21255500D03*
X91744800Y-23990300D03*
X115248200Y-37600400D03*
X121090200Y-37498800D03*
X110549200Y-38184600D03*
X98890600Y-42680400D03*
X93785200Y-36711400D03*
X116010200Y-36203400D03*
X111489000Y-37143200D03*
X92007200Y-35949400D03*
X121217200Y-36457400D03*
X111311200Y-35949400D03*
X112579209Y-34677409D03*
X65400000Y-32000000D03*
X112925002Y-32227398D03*
X122385600Y-33231600D03*
X121014000Y-43467800D03*
X114486200Y-40902400D03*
X114359200Y-29802600D03*
X93328000Y-44560000D03*
X94852000Y-43671000D03*
X31733000Y-46592000D03*
X96249000Y-49132000D03*
X96249000Y-30844000D03*
X80755000Y-43036000D03*
X82249200Y-44530200D03*
X80979200Y-44462800D03*
X104453200Y-38235400D03*
X100313000Y-34908000D03*
X46719000Y-32495000D03*
X105723200Y-38235400D03*
X101710000Y-34273000D03*
X44560000Y-31352000D03*
X79993705Y-39860295D03*
X76056705Y-35923295D03*
X34400000Y-31754000D03*
X82279000Y-26399000D03*
X34400000Y-30484000D03*
X81009000Y-26399000D03*
X35421546Y-29373854D03*
X121776000Y-42680400D03*
X114384600Y-28761200D03*
X113267000Y-42655000D03*
X94598000Y-26145000D03*
X32303000Y-35346300D03*
X42909000Y-41004000D03*
X116400000Y-23200000D03*
X108300000Y-29300000D03*
X43671000Y-24494000D03*
X106993200Y-38235400D03*
X105774000Y-42655000D03*
X48878000Y-23986000D03*
X101964000Y-28431000D03*
D22*
X120654380Y-31865400D02*
X123274600Y-29245180D01*
X120077200Y-31865400D02*
X120654380Y-31865400D01*
X117852201Y-42775401D02*
X117413802Y-43213800D01*
X117852201Y-41240401D02*
X117852201Y-42775401D01*
X117202200Y-41165400D02*
X117777200Y-41165400D01*
X117777200Y-41165400D02*
X117852201Y-41240401D01*
X117413802Y-43213800D02*
X117381800Y-43213800D01*
X117381800Y-43213800D02*
X117254800Y-43213800D01*
X121741820Y-41207200D02*
X120800020Y-40265400D01*
X120800020Y-40265400D02*
X120077200Y-40265400D01*
X123274600Y-29245180D02*
X123274600Y-25738600D01*
X122919000Y-41385000D02*
X122919000Y-41512000D01*
X122919000Y-41512000D02*
X122792000Y-41512000D01*
X122869610Y-41335610D02*
X122919000Y-41385000D01*
X122792000Y-41512000D02*
X122792000Y-41512000D01*
X122580189Y-41300189D02*
X122792000Y-41512000D01*
X121945189Y-41300189D02*
X122580189Y-41300189D01*
X121852200Y-41207200D02*
X121945189Y-41300189D01*
X121741820Y-41207200D02*
X121852200Y-41207200D01*
X123721112Y-40582888D02*
X122792000Y-41512000D01*
X123721112Y-33580197D02*
X123721112Y-40582888D01*
X120763610Y-33665400D02*
X121962441Y-32466569D01*
X120077200Y-33665400D02*
X120763610Y-33665400D01*
X121962441Y-32466569D02*
X123082749Y-32466569D01*
X123082749Y-32466569D02*
X123719055Y-33102875D01*
X123719055Y-33102875D02*
X123721112Y-33580197D01*
X120654380Y-31865400D02*
X123173000Y-29346780D01*
D23*
X90566402Y-38127400D02*
X84644885Y-38127400D01*
X84644885Y-38127400D02*
X84079200Y-38127400D01*
X95849001Y-43409999D02*
X90566402Y-38127400D01*
X95849001Y-43779001D02*
X95849001Y-43409999D01*
X96249000Y-44179000D02*
X95849001Y-43779001D01*
X97360998Y-45290998D02*
X105800000Y-45290998D01*
X96249000Y-44179000D02*
X97360998Y-45290998D01*
X105800000Y-47000000D02*
X108600000Y-49800000D01*
X105800000Y-45290998D02*
X105800000Y-47000000D01*
X90566402Y-38127400D02*
X90566402Y-38127400D01*
D24*
X119027230Y-30792333D02*
X119007400Y-30772503D01*
X120077200Y-37865400D02*
X119477200Y-37865400D01*
X119477200Y-37865400D02*
X119377199Y-37765399D01*
X119027231Y-31219431D02*
X119027230Y-30792333D01*
X119027231Y-34369031D02*
X119337600Y-34679400D01*
X119027231Y-31219431D02*
X119027231Y-34369031D01*
X119337600Y-35619200D02*
X119337600Y-34679400D01*
X119377199Y-35658799D02*
X119337600Y-35619200D01*
X119377199Y-37765399D02*
X119377199Y-35658799D01*
X114232200Y-25306800D02*
X115603800Y-25306800D01*
X111952601Y-27586399D02*
X114232200Y-25306800D01*
X111952601Y-32780801D02*
X111952601Y-27586399D01*
X115615134Y-25311769D02*
X119033066Y-25311769D01*
X119033066Y-25311769D02*
X120046092Y-26324795D01*
X120046092Y-26324795D02*
X120046092Y-28522106D01*
X115603800Y-25306800D02*
X115615134Y-25311769D01*
X120046092Y-28522106D02*
X118804200Y-29763995D01*
X118804200Y-29763995D02*
X118804200Y-30564600D01*
X119027230Y-30787630D02*
X119027230Y-30792333D01*
X118804200Y-30564600D02*
X119027230Y-30787630D01*
D22*
X55736000Y-31733000D02*
X55736000Y-31733000D01*
X55736000Y-31733000D02*
X55736000Y-27264000D01*
X55736000Y-27264000D02*
X57000000Y-26000000D01*
X57000000Y-26000000D02*
X57213960Y-25786040D01*
X57213960Y-25786040D02*
X77400000Y-25786040D01*
X111952601Y-32780801D02*
X112352600Y-33180800D01*
X83327180Y-31600000D02*
X110771800Y-31600000D01*
X77513220Y-25786040D02*
X83327180Y-31600000D01*
X110771800Y-31600000D02*
X111952601Y-32780801D01*
X77400000Y-25786040D02*
X77513220Y-25786040D01*
D24*
X117727200Y-38165400D02*
X118227211Y-37665389D01*
X118227211Y-31123713D02*
X118227209Y-31123711D01*
X117202200Y-38165400D02*
X117727200Y-38165400D01*
X118227211Y-37665389D02*
X118227211Y-31123713D01*
X118227211Y-31123712D02*
X118227211Y-31123713D01*
X113259189Y-30462088D02*
X113259189Y-27411207D01*
X114126890Y-31329788D02*
X113259189Y-30462088D01*
X118701688Y-26111789D02*
X119246072Y-26656173D01*
X113259189Y-27411207D02*
X114558607Y-26111789D01*
X114126890Y-32625710D02*
X114126890Y-31329788D01*
X119246072Y-26656173D02*
X119246072Y-28190728D01*
X117807212Y-30703713D02*
X118227211Y-31123712D01*
X117807212Y-29629587D02*
X117807212Y-30703713D01*
X114558607Y-26111789D02*
X118701688Y-26111789D01*
X113597200Y-33155400D02*
X114126890Y-32625710D01*
X119246072Y-28190728D02*
X117807212Y-29629587D01*
D22*
X109954630Y-32050010D02*
X83140779Y-32050009D01*
X111810421Y-33905801D02*
X109954630Y-32050010D01*
X113597200Y-33155400D02*
X112846799Y-33905801D01*
X112846799Y-33905801D02*
X111810421Y-33905801D01*
X83140779Y-32050009D02*
X77326820Y-26236050D01*
X77326820Y-26236050D02*
X58363950Y-26236050D01*
X58363950Y-26236050D02*
X57800000Y-26800000D01*
X57800000Y-26800000D02*
X57800000Y-33000000D01*
X57800000Y-33000000D02*
X57800000Y-33000000D01*
X121471200Y-30063485D02*
X121471200Y-29497800D01*
X121471200Y-30121400D02*
X121471200Y-30063485D01*
X120327200Y-31265400D02*
X121471200Y-30121400D01*
X120077200Y-31265400D02*
X120327200Y-31265400D01*
X112214001Y-37491201D02*
X111870001Y-37835201D01*
X112214001Y-35779199D02*
X112214001Y-37491201D01*
X109924232Y-33489430D02*
X112214001Y-35779199D01*
X111870001Y-37835201D02*
X111870001Y-43239201D01*
X115600001Y-45600001D02*
X116000000Y-46000000D01*
X114375010Y-44375010D02*
X115600001Y-45600001D01*
X113005810Y-44375010D02*
X114375010Y-44375010D01*
X111870001Y-43239201D02*
X113005810Y-44375010D01*
X66289430Y-33489430D02*
X65489430Y-33489430D01*
X66289430Y-33489430D02*
X109924232Y-33489430D01*
X65489430Y-33489430D02*
X65000000Y-33000000D01*
X65000000Y-33000000D02*
X64600000Y-33000000D01*
X64600000Y-33000000D02*
X64600000Y-33000000D01*
D24*
X117842613Y-28462790D02*
X118146061Y-28159342D01*
X118146061Y-28159342D02*
X118146061Y-27211800D01*
X117202200Y-31230098D02*
X117007192Y-31035090D01*
X117007192Y-31035090D02*
X117007192Y-29213508D01*
X117007192Y-29213508D02*
X117757911Y-28462790D01*
X117202200Y-31565400D02*
X117202200Y-31230098D01*
X117757911Y-28462790D02*
X117842613Y-28462790D01*
D22*
X58022000Y-36432000D02*
X58022000Y-36432000D01*
X58587685Y-36432000D02*
X58022000Y-36432000D01*
X74600000Y-36800000D02*
X74402010Y-36997990D01*
X74600000Y-36306998D02*
X74600000Y-36800000D01*
X59153675Y-36997990D02*
X58587685Y-36432000D01*
X74402010Y-36997990D02*
X59153675Y-36997990D01*
X107777012Y-44715988D02*
X99700786Y-44715988D01*
X99700786Y-44715988D02*
X89942809Y-34958011D01*
X75948987Y-34958011D02*
X74600000Y-36306998D01*
X89942809Y-34958011D02*
X75948987Y-34958011D01*
X68708999Y-49785999D02*
X79720001Y-49785999D01*
X68309000Y-49386000D02*
X68708999Y-49785999D01*
X79720001Y-49785999D02*
X80501000Y-49005000D01*
X80501000Y-49005000D02*
X80501000Y-49005000D01*
X124214400Y-43620200D02*
X124163600Y-31834600D01*
X123808000Y-44026600D02*
X124214400Y-43620200D01*
X123071400Y-44788600D02*
X123808000Y-44026600D01*
X115629200Y-43315400D02*
X117102400Y-44788600D01*
X117102400Y-44788600D02*
X123071400Y-44788600D01*
X123298899Y-30969899D02*
X124163600Y-31834600D01*
X122186291Y-30969899D02*
X123298899Y-30969899D01*
X120690790Y-32465400D02*
X122186291Y-30969899D01*
X120077200Y-32465400D02*
X120690790Y-32465400D01*
X117102400Y-45970602D02*
X117102400Y-44788600D01*
X98992200Y-39505400D02*
X102878400Y-43391600D01*
X116348001Y-46725001D02*
X117102400Y-45970602D01*
X115525001Y-46725001D02*
X116348001Y-46725001D01*
X113625020Y-44825020D02*
X115525001Y-46725001D01*
X102878400Y-43391600D02*
X107591600Y-43391600D01*
X112819409Y-44825019D02*
X113625020Y-44825020D01*
X112034791Y-44040401D02*
X112819409Y-44825019D01*
X107591600Y-43391600D02*
X108240401Y-44040401D01*
X108240401Y-44040401D02*
X112034791Y-44040401D01*
X108390200Y-38362400D02*
X108263200Y-38235400D01*
X108390200Y-42553400D02*
X108390200Y-38362400D01*
X108371201Y-42572399D02*
X108390200Y-42553400D01*
X108371201Y-42915401D02*
X108371201Y-42572399D01*
X108771200Y-43315400D02*
X108371201Y-42915401D01*
D24*
X117202200Y-32765400D02*
X116677200Y-32765400D01*
X115826930Y-31915130D02*
X115826930Y-28781130D01*
X116677200Y-32765400D02*
X115826930Y-31915130D01*
X115826930Y-28781130D02*
X115837870Y-28781130D01*
X116543600Y-27796000D02*
X116543600Y-27796000D01*
X115826930Y-28512670D02*
X116543600Y-27796000D01*
X115826930Y-28781130D02*
X115826930Y-28512670D01*
D22*
X109406200Y-38235400D02*
X109406200Y-38235400D01*
X120727200Y-33065400D02*
X121776041Y-32016559D01*
X120077200Y-33065400D02*
X120727200Y-33065400D01*
X121776041Y-32016559D02*
X122533841Y-32016559D01*
X122533841Y-32016559D02*
X122855500Y-31694900D01*
X122855500Y-31694900D02*
X122893600Y-31656800D01*
X109660200Y-42426400D02*
X110307900Y-43074100D01*
X109660200Y-38489400D02*
X109660200Y-42426400D01*
X109406200Y-38235400D02*
X109660200Y-38489400D01*
X120077200Y-34265400D02*
X120727200Y-34265400D01*
X120727200Y-34265400D02*
X120877190Y-34115410D01*
X120877190Y-34115410D02*
X121654190Y-34115410D01*
X116627200Y-34565400D02*
X117202200Y-34565400D01*
X113597200Y-40267400D02*
X113597200Y-39181402D01*
X113539210Y-39123412D02*
X113539210Y-36328568D01*
X113597200Y-39181402D02*
X113539210Y-39123412D01*
X115302378Y-34565400D02*
X116627200Y-34565400D01*
X113539210Y-36328568D02*
X115302378Y-34565400D01*
D24*
X121792600Y-34865400D02*
X120677200Y-34865400D01*
X120677200Y-34865400D02*
X120077200Y-34865400D01*
X122354560Y-38901440D02*
X122354560Y-37487439D01*
X121776000Y-39480000D02*
X122354560Y-38901440D01*
X122717221Y-35790021D02*
X121792600Y-34865400D01*
X122354560Y-37487439D02*
X122717221Y-37124779D01*
X122717221Y-37124779D02*
X122717221Y-35790021D01*
D22*
X116605187Y-35028389D02*
X116742198Y-35165400D01*
X115475799Y-35028389D02*
X116605187Y-35028389D01*
X116742198Y-35165400D02*
X117202200Y-35165400D01*
X114264211Y-36239977D02*
X115475799Y-35028389D01*
X114264211Y-38775411D02*
X114264211Y-36239977D01*
D24*
X120607499Y-35465400D02*
X120077200Y-35465400D01*
X121954550Y-37980650D02*
X121954550Y-37321750D01*
X121445800Y-38489400D02*
X121954550Y-37980650D01*
X121954550Y-37321750D02*
X122317211Y-36959090D01*
X122317211Y-35955710D02*
X121718890Y-35357389D01*
X120715510Y-35357389D02*
X120607499Y-35465400D01*
X121718890Y-35357389D02*
X120715510Y-35357389D01*
X122317211Y-36959090D02*
X122317211Y-35955710D01*
D22*
X86283800Y-23990300D02*
X83739500Y-21255500D01*
X91744800Y-23990300D02*
X86283800Y-23990300D01*
X116627200Y-35765400D02*
X117202200Y-35765400D01*
X115662199Y-35478399D02*
X116340199Y-35478399D01*
X115248200Y-35892398D02*
X115662199Y-35478399D01*
X116340199Y-35478399D02*
X116627200Y-35765400D01*
X115248200Y-37600400D02*
X115248200Y-35892398D01*
D24*
X120881199Y-35757399D02*
X120573198Y-36065400D01*
X120573198Y-36065400D02*
X120077200Y-36065400D01*
X121553201Y-35757399D02*
X120881199Y-35757399D01*
X121917201Y-36121399D02*
X121553201Y-35757399D01*
X121917201Y-36793401D02*
X121917201Y-36121399D01*
X121211802Y-37498800D02*
X121917201Y-36793401D01*
X121090200Y-37498800D02*
X121211802Y-37498800D01*
D22*
X98490601Y-42280401D02*
X98890600Y-42680400D01*
X98267199Y-42056999D02*
X98490601Y-42280401D01*
X110549200Y-38184600D02*
X109838000Y-37473400D01*
X109838000Y-37473400D02*
X99754200Y-37473400D01*
X99754200Y-37473400D02*
X98267199Y-38960401D01*
X98267199Y-38960401D02*
X98267199Y-42056999D01*
X116172200Y-36365400D02*
X117202200Y-36365400D01*
X116010200Y-36203400D02*
X116172200Y-36365400D01*
X93801199Y-36727399D02*
X93785200Y-36711400D01*
X110946199Y-36727399D02*
X93801199Y-36727399D01*
X110971599Y-36752799D02*
X110946199Y-36727399D01*
X111489000Y-37143200D02*
X111489000Y-37143200D01*
X111098599Y-36752799D02*
X110971599Y-36752799D01*
X111489000Y-37143200D02*
X111098599Y-36752799D01*
X121009200Y-36665400D02*
X120077200Y-36665400D01*
X121217200Y-36457400D02*
X121009200Y-36665400D01*
X111311200Y-35949400D02*
X111565200Y-35949400D01*
X111311200Y-35949400D02*
X110803200Y-35949400D01*
X92007200Y-35949400D02*
X110803200Y-35949400D01*
D24*
X113528302Y-34260300D02*
X114526900Y-33261702D01*
X113144894Y-34677409D02*
X114526900Y-33295403D01*
X114526900Y-33295403D02*
X114526900Y-33119900D01*
X112579209Y-34677409D02*
X113144894Y-34677409D01*
X114526900Y-33261702D02*
X114526900Y-33119900D01*
X117727200Y-37565400D02*
X117202200Y-37565400D01*
X117827201Y-31289401D02*
X117827201Y-37465399D01*
X117407200Y-30869400D02*
X117827201Y-31289401D01*
X117407202Y-30869398D02*
X117407200Y-30869400D01*
X114724295Y-26511799D02*
X118535999Y-26511799D01*
X113659199Y-27576895D02*
X114724295Y-26511799D01*
X118846062Y-26821862D02*
X118846062Y-28025039D01*
X113659199Y-30296399D02*
X113659199Y-27576895D01*
X114526900Y-33119900D02*
X114526900Y-31164100D01*
X118535999Y-26511799D02*
X118846062Y-26821862D01*
X114526900Y-31164100D02*
X113659199Y-30296399D01*
X118008301Y-28862800D02*
X117923600Y-28862800D01*
X118846062Y-28025039D02*
X118008301Y-28862800D01*
X117407202Y-29379198D02*
X117407202Y-30869398D01*
X117827201Y-37465399D02*
X117727200Y-37565400D01*
X117923600Y-28862800D02*
X117407202Y-29379198D01*
D22*
X111945619Y-34677409D02*
X110307630Y-33039420D01*
X112579209Y-34677409D02*
X111945619Y-34677409D01*
X67560580Y-33039420D02*
X110307630Y-33039420D01*
X67560580Y-33039420D02*
X67239420Y-33039420D01*
X67239420Y-33039420D02*
X66200000Y-32000000D01*
X66200000Y-32000000D02*
X65400000Y-32000000D01*
X65400000Y-32000000D02*
X65400000Y-32000000D01*
X119352199Y-39365400D02*
X119652199Y-39065400D01*
X119652199Y-39065400D02*
X120077200Y-39065400D01*
X117202200Y-39365400D02*
X119352199Y-39365400D01*
D24*
X119477200Y-39065400D02*
X120077200Y-39065400D01*
X119646082Y-26490484D02*
X119646082Y-28356417D01*
X114392919Y-25711779D02*
X118867377Y-25711779D01*
X112859179Y-27245519D02*
X114392919Y-25711779D01*
X118867377Y-25711779D02*
X119646082Y-26490484D01*
X112859179Y-32214179D02*
X112859179Y-27245519D01*
X118207222Y-29795275D02*
X118207222Y-30526422D01*
X119646082Y-28356417D02*
X118207222Y-29795275D01*
X118335396Y-30654596D02*
X118335396Y-30666200D01*
X118207222Y-30526422D02*
X118335396Y-30654596D01*
X118627221Y-38215421D02*
X119477200Y-39065400D01*
X118335396Y-30666200D02*
X118627221Y-30958024D01*
X118627221Y-30958024D02*
X118627221Y-38215421D01*
D22*
X122690400Y-40724600D02*
X122690400Y-40724600D01*
X122385600Y-33231600D02*
X122385600Y-33231600D01*
X123142231Y-33988231D02*
X123142231Y-40298169D01*
X122715800Y-40724600D02*
X121895630Y-40724600D01*
X122385600Y-33231600D02*
X123142231Y-33988231D01*
X120836430Y-39665400D02*
X120077200Y-39665400D01*
X123142231Y-40298169D02*
X122715800Y-40724600D01*
X121895630Y-40724600D02*
X120836430Y-39665400D01*
X117777200Y-40565400D02*
X117202200Y-40565400D01*
X117927200Y-40565400D02*
X117777200Y-40565400D01*
X119427200Y-42065400D02*
X117927200Y-40565400D01*
X120077200Y-42065400D02*
X119427200Y-42065400D01*
X120612202Y-42065400D02*
X121014000Y-42467198D01*
X120077200Y-42065400D02*
X120612202Y-42065400D01*
X121014000Y-42467198D02*
X121014000Y-43086800D01*
X121014000Y-43086800D02*
X121014000Y-43467800D01*
X121014000Y-43467800D02*
X121014000Y-43467800D01*
X114951910Y-30715375D02*
X114951910Y-31377400D01*
X115949200Y-42365400D02*
X117202200Y-42365400D01*
X114951910Y-30715375D02*
X114941775Y-30715375D01*
X114941775Y-30715375D02*
X114359200Y-30132800D01*
X114359200Y-30132800D02*
X114359200Y-29802600D01*
X114359200Y-29802600D02*
X114359200Y-29802600D01*
X120763610Y-40865400D02*
X120077200Y-40865400D01*
X121648409Y-41750199D02*
X120763610Y-40865400D01*
X121995001Y-41750199D02*
X121648409Y-41750199D01*
X113089200Y-35505758D02*
X114951910Y-33643048D01*
X113089200Y-39657800D02*
X113089200Y-35505758D01*
X114086201Y-41302399D02*
X113559197Y-41302399D01*
X114486200Y-40902400D02*
X114086201Y-41302399D01*
X114951910Y-33643048D02*
X114951910Y-31217720D01*
X113559197Y-41302399D02*
X112872199Y-40615401D01*
X112872199Y-39874801D02*
X113089200Y-39657800D01*
X112872199Y-40615401D02*
X112872199Y-39874801D01*
X115553000Y-42401000D02*
X115506198Y-42365400D01*
X112872199Y-39874801D02*
X112872199Y-39876211D01*
X115470598Y-42401000D02*
X115553000Y-42401000D01*
X112872199Y-39876211D02*
X112320010Y-40428400D01*
X112320010Y-40428400D02*
X112320010Y-43052800D01*
X113192210Y-43925000D02*
X113946598Y-43925000D01*
X115506198Y-42365400D02*
X115949200Y-42365400D01*
X113946598Y-43925000D02*
X115470598Y-42401000D01*
X112320010Y-43052800D02*
X113192210Y-43925000D01*
X116354201Y-42770401D02*
X115949200Y-42365400D01*
X116354201Y-43259203D02*
X116354201Y-42770401D01*
X117287799Y-44192801D02*
X116354201Y-43259203D01*
X121362001Y-44192801D02*
X117287799Y-44192801D01*
X122501001Y-43053801D02*
X121362001Y-44192801D01*
X122501001Y-42256199D02*
X122501001Y-43053801D01*
X121995001Y-41750199D02*
X122501001Y-42256199D01*
X89916379Y-41860989D02*
X92615390Y-44560000D01*
X77489587Y-44592001D02*
X80220599Y-41860989D01*
X80220599Y-41860989D02*
X89916379Y-41860989D01*
X92615390Y-44560000D02*
X93328000Y-44560000D01*
X75304598Y-46776990D02*
X80220599Y-41860989D01*
X25985999Y-39766001D02*
X25985999Y-44235001D01*
X31250001Y-45035999D02*
X32990992Y-46776990D01*
X27161000Y-38591000D02*
X25985999Y-39766001D01*
X32990992Y-46776990D02*
X75304598Y-46776990D01*
X25985999Y-44235001D02*
X26786997Y-45035999D01*
X26786997Y-45035999D02*
X31250001Y-45035999D01*
X94852000Y-43671000D02*
X94852000Y-43671000D01*
X92591980Y-41410980D02*
X94852000Y-43671000D01*
X80272980Y-41410980D02*
X92591980Y-41410980D01*
X80200000Y-41400000D02*
X80272980Y-41410980D01*
X76248000Y-37448000D02*
X80200000Y-41400000D01*
X48244410Y-37448000D02*
X76248000Y-37448000D01*
X29701000Y-38591000D02*
X28525999Y-39766001D01*
X28525999Y-39766001D02*
X28525999Y-41695001D01*
X29262006Y-42431008D02*
X43261402Y-42431008D01*
X28525999Y-41695001D02*
X29262006Y-42431008D01*
X43261402Y-42431008D02*
X48244410Y-37448000D01*
X89427999Y-42310999D02*
X96249000Y-49132000D01*
X80406999Y-42310999D02*
X89427999Y-42310999D01*
X32132999Y-46991999D02*
X32132999Y-47118999D01*
X31733000Y-46592000D02*
X32132999Y-46991999D01*
X75490998Y-47227000D02*
X80406999Y-42310999D01*
X32132999Y-47118999D02*
X32240999Y-47226999D01*
X32240999Y-47226999D02*
X75490998Y-47227000D01*
X96249000Y-30844000D02*
X96249000Y-30844000D01*
X83207590Y-30844000D02*
X96249000Y-30844000D01*
X30550999Y-41980999D02*
X43075001Y-41980999D01*
X39099000Y-31733000D02*
X40604491Y-30227509D01*
X77699620Y-25336030D02*
X83207590Y-30844000D01*
X44179000Y-40877000D02*
X44179000Y-39861000D01*
X43075001Y-41980999D02*
X44179000Y-40877000D01*
X39099000Y-34781000D02*
X39099000Y-31733000D01*
X51972491Y-30227509D02*
X56863970Y-25336030D01*
X29701000Y-41131000D02*
X30550999Y-41980999D01*
X40604491Y-30227509D02*
X51972491Y-30227509D01*
X44179000Y-39861000D02*
X39099000Y-34781000D01*
X56863970Y-25336030D02*
X77699620Y-25336030D01*
X80755000Y-43036000D02*
X80755000Y-43036000D01*
X29701000Y-46211000D02*
X31167009Y-47677009D01*
X76125009Y-47665991D02*
X76125009Y-47677009D01*
X80755000Y-43036000D02*
X76125009Y-47665991D01*
X31167009Y-47677009D02*
X76125009Y-47677009D01*
X28010999Y-49600999D02*
X27161000Y-48751000D01*
X28336001Y-49926001D02*
X28010999Y-49600999D01*
X30811001Y-49926001D02*
X28336001Y-49926001D01*
X31606000Y-48878000D02*
X31606000Y-49131002D01*
X31906970Y-48577030D02*
X31606000Y-48878000D01*
X31606000Y-49131002D02*
X30811001Y-49926001D01*
X78202370Y-48577030D02*
X31906970Y-48577030D01*
X82249200Y-44530200D02*
X78202370Y-48577030D01*
X30801000Y-48751000D02*
X31352000Y-48200000D01*
X31395000Y-48200000D02*
X31467981Y-48127019D01*
X31352000Y-48200000D02*
X31395000Y-48200000D01*
X31424980Y-48127020D02*
X30801000Y-48751000D01*
X77314980Y-48127020D02*
X31424980Y-48127020D01*
X30801000Y-48751000D02*
X29701000Y-48751000D01*
X80979200Y-44462800D02*
X77314980Y-48127020D01*
X46719000Y-32495000D02*
X46719000Y-32495000D01*
X99913001Y-34508001D02*
X100313000Y-34908000D01*
X48704028Y-34480028D02*
X57272123Y-34480028D01*
X46719000Y-32495000D02*
X48704028Y-34480028D01*
X59340075Y-36547980D02*
X73722608Y-36547980D01*
X57272123Y-34480028D02*
X59340075Y-36547980D01*
X75762587Y-34508001D02*
X99913001Y-34508001D01*
X73722608Y-36547980D02*
X75762587Y-34508001D01*
X44560000Y-31352000D02*
X44560000Y-31352000D01*
X47608000Y-31352000D02*
X50275000Y-34019000D01*
X44560000Y-31352000D02*
X47608000Y-31352000D01*
X57379454Y-34030018D02*
X57458524Y-34030019D01*
X57379454Y-34020546D02*
X57379454Y-34030018D01*
X50275000Y-34019000D02*
X57379454Y-34020546D01*
X57458524Y-34030019D02*
X59526475Y-36097970D01*
X101144315Y-34273000D02*
X101710000Y-34273000D01*
X100901333Y-34030018D02*
X101144315Y-34273000D01*
X73536208Y-36097970D02*
X75604160Y-34030018D01*
X75604160Y-34030018D02*
X100901333Y-34030018D01*
X59526475Y-36097970D02*
X73536208Y-36097970D01*
X79993705Y-39860295D02*
X76056705Y-35923295D01*
X82279000Y-26399000D02*
X82279000Y-26272000D01*
X81553999Y-27124001D02*
X82279000Y-26399000D01*
X56550390Y-24886020D02*
X77886020Y-24886020D01*
X80124001Y-27124001D02*
X81553999Y-27124001D01*
X34965685Y-31754000D02*
X36942186Y-29777499D01*
X34400000Y-31754000D02*
X34965685Y-31754000D01*
X77886020Y-24886020D02*
X80124001Y-27124001D01*
X36942186Y-29777499D02*
X51777499Y-29777499D01*
X51777499Y-29777499D02*
X51777499Y-29658911D01*
X51777499Y-29658911D02*
X56550390Y-24886020D01*
X81009000Y-26399000D02*
X81009000Y-26399000D01*
X79046010Y-24436010D02*
X81009000Y-26399000D01*
X56363990Y-24436010D02*
X79046010Y-24436010D01*
X51472511Y-29327489D02*
X56363990Y-24436010D01*
X35496500Y-30505400D02*
X36779200Y-29311600D01*
X36779200Y-29311600D02*
X51472511Y-29327489D01*
X34421400Y-30505400D02*
X34400000Y-30484000D01*
X35496500Y-30505400D02*
X34421400Y-30505400D01*
X37122100Y-27673300D02*
X43353200Y-27673300D01*
X35421546Y-29373854D02*
X37122100Y-27673300D01*
X119542198Y-41465400D02*
X120077200Y-41465400D01*
X118042198Y-39965400D02*
X119542198Y-41465400D01*
X117202200Y-39965400D02*
X118042198Y-39965400D01*
X116552199Y-40155399D02*
X116694198Y-40013400D01*
X116552199Y-41575401D02*
X116552199Y-40155399D01*
X117202200Y-41765400D02*
X116742198Y-41765400D01*
X116742198Y-41765400D02*
X116552199Y-41575401D01*
X117154200Y-40013400D02*
X117202200Y-39965400D01*
X116694198Y-40013400D02*
X117154200Y-40013400D01*
X117202200Y-33365400D02*
X117202200Y-33965400D01*
X120727200Y-41465400D02*
X121776000Y-42514200D01*
X120077200Y-41465400D02*
X120727200Y-41465400D01*
X121776000Y-42514200D02*
X121776000Y-42680400D01*
X121776000Y-42680400D02*
X121776000Y-42680400D01*
D24*
X117243601Y-27459999D02*
X116879601Y-27095999D01*
X117142001Y-28233601D02*
X117243601Y-28132001D01*
X116049801Y-27095999D02*
X114384600Y-28761200D01*
X116787198Y-32165400D02*
X116226940Y-31605142D01*
X117202200Y-32165400D02*
X116787198Y-32165400D01*
X117243601Y-28132001D02*
X117243601Y-27459999D01*
X116226940Y-29428062D02*
X117142001Y-28513001D01*
X116879601Y-27095999D02*
X116049801Y-27095999D01*
X116226940Y-31605142D02*
X116226940Y-29428062D01*
X117142001Y-28513001D02*
X117142001Y-28233601D01*
D22*
X116627200Y-33965400D02*
X117202200Y-33965400D01*
X115401920Y-32740120D02*
X116627200Y-33965400D01*
X115401920Y-29772318D02*
X115401920Y-32740120D01*
X114707201Y-29077599D02*
X115401920Y-29772318D01*
X114396199Y-29077599D02*
X114707201Y-29077599D01*
X114384600Y-29066000D02*
X114396199Y-29077599D01*
X114384600Y-28761200D02*
X114384600Y-29066000D01*
X116742198Y-39965400D02*
X114560598Y-42147000D01*
X117202200Y-39965400D02*
X116742198Y-39965400D01*
X114560598Y-42147000D02*
X113775000Y-42147000D01*
X113775000Y-42147000D02*
X113394000Y-42528000D01*
X113394000Y-42528000D02*
X113267000Y-42655000D01*
X113267000Y-42655000D02*
X113267000Y-42655000D01*
X94598000Y-26145000D02*
X94598000Y-26145000D01*
X32303000Y-35346300D02*
X32303000Y-35351000D01*
D23*
X37960700Y-41004000D02*
X32303000Y-35346300D01*
X42909000Y-41004000D02*
X37960700Y-41004000D01*
X32303000Y-35346300D02*
X32303000Y-31322998D01*
X32303000Y-31290000D02*
X32303000Y-31322998D01*
X37956000Y-25637000D02*
X32303000Y-31290000D01*
X40457001Y-23135999D02*
X37956000Y-25637000D01*
X85505186Y-26145000D02*
X82496185Y-23135999D01*
X94598000Y-26145000D02*
X85505186Y-26145000D01*
D22*
X116400000Y-23200000D02*
X116400000Y-23200000D01*
D23*
X94598000Y-26145000D02*
X107255000Y-26145000D01*
D22*
X45953200Y-27673300D02*
X45953200Y-23715500D01*
D23*
X82496185Y-23135999D02*
X45373699Y-23135999D01*
D22*
X45953200Y-23715500D02*
X45373699Y-23135999D01*
D23*
X45373699Y-23135999D02*
X40457001Y-23135999D01*
X115561170Y-23200000D02*
X109626400Y-29134770D01*
X116400000Y-23200000D02*
X115561170Y-23200000D01*
X108465230Y-29134770D02*
X108300000Y-29300000D01*
X109626400Y-29134770D02*
X108465230Y-29134770D01*
X107255000Y-28255000D02*
X107255000Y-26145000D01*
X108300000Y-29300000D02*
X107255000Y-28255000D01*
D22*
X43671000Y-24494000D02*
X43671000Y-24494000D01*
X44653200Y-25476200D02*
X43671000Y-24494000D01*
X44653200Y-27673300D02*
X44653200Y-25476200D01*
D24*
X106593201Y-38635399D02*
X106593201Y-41835799D01*
X106993200Y-38235400D02*
X106593201Y-38635399D01*
X106593201Y-41835799D02*
X105901000Y-42528000D01*
X105901000Y-42528000D02*
X105774000Y-42655000D01*
X105774000Y-42655000D02*
X105774000Y-42655000D01*
D22*
X101964000Y-28431000D02*
X101964000Y-28431000D01*
X82533000Y-23986000D02*
X48878000Y-23986000D01*
X101964000Y-28431000D02*
X86978000Y-28431000D01*
X86978000Y-28431000D02*
X82533000Y-23986000D01*
D25*
G36*
X99291294Y-45087142D02*
G01*
X99308575Y-45108199D01*
X99329631Y-45125479D01*
X99392627Y-45177179D01*
X99439761Y-45202372D01*
X99488523Y-45228436D01*
X99592575Y-45260000D01*
X99673677Y-45267988D01*
X99673687Y-45267988D01*
X99700785Y-45270657D01*
X99727883Y-45267988D01*
X107159459Y-45267988D01*
X107249831Y-45358360D01*
X107385281Y-45448865D01*
X107535785Y-45511206D01*
X107695560Y-45542988D01*
X107858464Y-45542988D01*
X108018239Y-45511206D01*
X108168743Y-45448865D01*
X108304193Y-45358360D01*
X108419384Y-45243169D01*
X108509889Y-45107719D01*
X108572230Y-44957215D01*
X108604012Y-44797440D01*
X108604012Y-44634536D01*
X108595631Y-44592401D01*
X111806147Y-44592401D01*
X112409922Y-45196178D01*
X112427198Y-45217229D01*
X112448249Y-45234505D01*
X112448254Y-45234510D01*
X112511250Y-45286210D01*
X112607145Y-45337466D01*
X112711198Y-45369030D01*
X112819408Y-45379688D01*
X112846515Y-45377018D01*
X113396375Y-45377019D01*
X115115505Y-47096150D01*
X115132790Y-47117212D01*
X115216843Y-47186192D01*
X115312738Y-47237449D01*
X115416790Y-47269013D01*
X115497892Y-47277001D01*
X115497895Y-47277001D01*
X115525001Y-47279671D01*
X115552107Y-47277001D01*
X116320895Y-47277001D01*
X116348001Y-47279671D01*
X116375107Y-47277001D01*
X116375110Y-47277001D01*
X116456212Y-47269013D01*
X116560264Y-47237449D01*
X116656159Y-47186192D01*
X116740212Y-47117212D01*
X116757501Y-47096145D01*
X117473554Y-46380094D01*
X117494611Y-46362813D01*
X117559420Y-46283843D01*
X117563591Y-46278761D01*
X117599135Y-46212262D01*
X117614848Y-46182865D01*
X117646412Y-46078813D01*
X117654400Y-45997711D01*
X117654400Y-45997701D01*
X117657069Y-45970603D01*
X117654400Y-45943505D01*
X117654400Y-45340600D01*
X123048986Y-45340600D01*
X123080799Y-45343190D01*
X123130116Y-45337487D01*
X123179611Y-45332612D01*
X123184133Y-45331240D01*
X123188814Y-45330699D01*
X123236064Y-45315487D01*
X123283663Y-45301048D01*
X123287827Y-45298822D01*
X123292316Y-45297377D01*
X123335703Y-45273232D01*
X123379558Y-45249791D01*
X123383209Y-45246795D01*
X123387329Y-45244502D01*
X123425177Y-45212353D01*
X123463611Y-45180811D01*
X123483867Y-45156129D01*
X124118001Y-44500129D01*
X124118001Y-50331000D01*
X79818171Y-50331000D01*
X79828212Y-50330011D01*
X79932264Y-50298447D01*
X80028159Y-50247190D01*
X80112212Y-50178210D01*
X80129501Y-50157143D01*
X80454645Y-49832000D01*
X80582452Y-49832000D01*
X80742227Y-49800218D01*
X80892731Y-49737877D01*
X81028181Y-49647372D01*
X81143372Y-49532181D01*
X81233877Y-49396731D01*
X81296218Y-49246227D01*
X81328000Y-49086452D01*
X81328000Y-48923548D01*
X81296218Y-48763773D01*
X81233877Y-48613269D01*
X81143372Y-48477819D01*
X81028181Y-48362628D01*
X80892731Y-48272123D01*
X80742227Y-48209782D01*
X80582452Y-48178000D01*
X80419548Y-48178000D01*
X80259773Y-48209782D01*
X80109269Y-48272123D01*
X79973819Y-48362628D01*
X79858628Y-48477819D01*
X79768123Y-48613269D01*
X79705782Y-48763773D01*
X79674000Y-48923548D01*
X79674000Y-49051355D01*
X79491357Y-49233999D01*
X78816200Y-49233999D01*
X78816200Y-48743844D01*
X82202845Y-45357200D01*
X82330652Y-45357200D01*
X82490427Y-45325418D01*
X82640931Y-45263077D01*
X82776381Y-45172572D01*
X82891572Y-45057381D01*
X82982077Y-44921931D01*
X83044418Y-44771427D01*
X83076200Y-44611652D01*
X83076200Y-44448748D01*
X83044418Y-44288973D01*
X82982077Y-44138469D01*
X82891572Y-44003019D01*
X82776381Y-43887828D01*
X82640931Y-43797323D01*
X82490427Y-43734982D01*
X82330652Y-43703200D01*
X82167748Y-43703200D01*
X82007973Y-43734982D01*
X81857469Y-43797323D01*
X81722019Y-43887828D01*
X81642663Y-43967184D01*
X81621572Y-43935619D01*
X81506381Y-43820428D01*
X81370931Y-43729923D01*
X81268517Y-43687502D01*
X81282181Y-43678372D01*
X81397372Y-43563181D01*
X81487877Y-43427731D01*
X81550218Y-43277227D01*
X81582000Y-43117452D01*
X81582000Y-42954548D01*
X81563789Y-42862999D01*
X89199355Y-42862999D01*
X95422000Y-49085646D01*
X95422000Y-49213452D01*
X95453782Y-49373227D01*
X95516123Y-49523731D01*
X95606628Y-49659181D01*
X95721819Y-49774372D01*
X95857269Y-49864877D01*
X96007773Y-49927218D01*
X96167548Y-49959000D01*
X96330452Y-49959000D01*
X96490227Y-49927218D01*
X96640731Y-49864877D01*
X96776181Y-49774372D01*
X96891372Y-49659181D01*
X96981877Y-49523731D01*
X97044218Y-49373227D01*
X97076000Y-49213452D01*
X97076000Y-49050548D01*
X97044218Y-48890773D01*
X96981877Y-48740269D01*
X96891372Y-48604819D01*
X96776181Y-48489628D01*
X96640731Y-48399123D01*
X96490227Y-48336782D01*
X96330452Y-48305000D01*
X96202646Y-48305000D01*
X94947250Y-47049604D01*
X109873000Y-47049604D01*
X109873000Y-47350396D01*
X109931681Y-47645410D01*
X110046790Y-47923306D01*
X110213901Y-48173406D01*
X110426594Y-48386099D01*
X110676694Y-48553210D01*
X110954590Y-48668319D01*
X111249604Y-48727000D01*
X111550396Y-48727000D01*
X111845410Y-48668319D01*
X112123306Y-48553210D01*
X112373406Y-48386099D01*
X112586099Y-48173406D01*
X112753210Y-47923306D01*
X112868319Y-47645410D01*
X112927000Y-47350396D01*
X112927000Y-47049604D01*
X112868319Y-46754590D01*
X112753210Y-46476694D01*
X112586099Y-46226594D01*
X112373406Y-46013901D01*
X112123306Y-45846790D01*
X111845410Y-45731681D01*
X111550396Y-45673000D01*
X111249604Y-45673000D01*
X110954590Y-45731681D01*
X110676694Y-45846790D01*
X110426594Y-46013901D01*
X110213901Y-46226594D01*
X110046790Y-46476694D01*
X109931681Y-46754590D01*
X109873000Y-47049604D01*
X94947250Y-47049604D01*
X93284645Y-45387000D01*
X93409452Y-45387000D01*
X93569227Y-45355218D01*
X93719731Y-45292877D01*
X93855181Y-45202372D01*
X93970372Y-45087181D01*
X94060877Y-44951731D01*
X94123218Y-44801227D01*
X94155000Y-44641452D01*
X94155000Y-44478548D01*
X94123218Y-44318773D01*
X94060877Y-44168269D01*
X93970372Y-44032819D01*
X93855181Y-43917628D01*
X93719731Y-43827123D01*
X93569227Y-43764782D01*
X93409452Y-43733000D01*
X93246548Y-43733000D01*
X93086773Y-43764782D01*
X92936269Y-43827123D01*
X92800819Y-43917628D01*
X92777241Y-43941206D01*
X90799014Y-41962980D01*
X92363336Y-41962980D01*
X94025000Y-43624645D01*
X94025000Y-43752452D01*
X94056782Y-43912227D01*
X94119123Y-44062731D01*
X94209628Y-44198181D01*
X94324819Y-44313372D01*
X94460269Y-44403877D01*
X94610773Y-44466218D01*
X94770548Y-44498000D01*
X94933452Y-44498000D01*
X95093227Y-44466218D01*
X95243731Y-44403877D01*
X95379181Y-44313372D01*
X95494372Y-44198181D01*
X95584877Y-44062731D01*
X95647218Y-43912227D01*
X95679000Y-43752452D01*
X95679000Y-43589548D01*
X95647218Y-43429773D01*
X95584877Y-43279269D01*
X95494372Y-43143819D01*
X95379181Y-43028628D01*
X95243731Y-42938123D01*
X95093227Y-42875782D01*
X94933452Y-42844000D01*
X94805645Y-42844000D01*
X93001481Y-41039837D01*
X92984191Y-41018769D01*
X92900138Y-40949789D01*
X92804243Y-40898532D01*
X92700191Y-40866968D01*
X92619089Y-40858980D01*
X92619086Y-40858980D01*
X92591980Y-40856310D01*
X92564874Y-40858980D01*
X86817544Y-40858980D01*
X86903966Y-40772558D01*
X86785644Y-40654236D01*
X86988936Y-40631381D01*
X87069777Y-40444216D01*
X87112551Y-40244877D01*
X87115613Y-40041023D01*
X87078847Y-39840488D01*
X87003666Y-39650980D01*
X86990838Y-39626978D01*
X87069777Y-39444216D01*
X87112551Y-39244877D01*
X87115613Y-39041023D01*
X87078847Y-38840488D01*
X87003666Y-38650980D01*
X86990838Y-38626978D01*
X87069777Y-38444216D01*
X87112551Y-38244877D01*
X87115613Y-38041023D01*
X87078847Y-37840488D01*
X87003666Y-37650980D01*
X86990838Y-37626978D01*
X87069777Y-37444216D01*
X87112551Y-37244877D01*
X87115613Y-37041023D01*
X87078847Y-36840488D01*
X87003666Y-36650980D01*
X86990838Y-36626978D01*
X87069777Y-36444216D01*
X87112551Y-36244877D01*
X87115613Y-36041023D01*
X87078847Y-35840488D01*
X87003666Y-35650980D01*
X86988936Y-35623419D01*
X86785644Y-35600564D01*
X86876197Y-35510011D01*
X89714165Y-35510011D01*
X99291294Y-45087142D01*
G37*
X99291294Y-45087142D02*
X99308575Y-45108199D01*
X99329631Y-45125479D01*
X99392627Y-45177179D01*
X99439761Y-45202372D01*
X99488523Y-45228436D01*
X99592575Y-45260000D01*
X99673677Y-45267988D01*
X99673687Y-45267988D01*
X99700785Y-45270657D01*
X99727883Y-45267988D01*
X107159459Y-45267988D01*
X107249831Y-45358360D01*
X107385281Y-45448865D01*
X107535785Y-45511206D01*
X107695560Y-45542988D01*
X107858464Y-45542988D01*
X108018239Y-45511206D01*
X108168743Y-45448865D01*
X108304193Y-45358360D01*
X108419384Y-45243169D01*
X108509889Y-45107719D01*
X108572230Y-44957215D01*
X108604012Y-44797440D01*
X108604012Y-44634536D01*
X108595631Y-44592401D01*
X111806147Y-44592401D01*
X112409922Y-45196178D01*
X112427198Y-45217229D01*
X112448249Y-45234505D01*
X112448254Y-45234510D01*
X112511250Y-45286210D01*
X112607145Y-45337466D01*
X112711198Y-45369030D01*
X112819408Y-45379688D01*
X112846515Y-45377018D01*
X113396375Y-45377019D01*
X115115505Y-47096150D01*
X115132790Y-47117212D01*
X115216843Y-47186192D01*
X115312738Y-47237449D01*
X115416790Y-47269013D01*
X115497892Y-47277001D01*
X115497895Y-47277001D01*
X115525001Y-47279671D01*
X115552107Y-47277001D01*
X116320895Y-47277001D01*
X116348001Y-47279671D01*
X116375107Y-47277001D01*
X116375110Y-47277001D01*
X116456212Y-47269013D01*
X116560264Y-47237449D01*
X116656159Y-47186192D01*
X116740212Y-47117212D01*
X116757501Y-47096145D01*
X117473554Y-46380094D01*
X117494611Y-46362813D01*
X117559420Y-46283843D01*
X117563591Y-46278761D01*
X117599135Y-46212262D01*
X117614848Y-46182865D01*
X117646412Y-46078813D01*
X117654400Y-45997711D01*
X117654400Y-45997701D01*
X117657069Y-45970603D01*
X117654400Y-45943505D01*
X117654400Y-45340600D01*
X123048986Y-45340600D01*
X123080799Y-45343190D01*
X123130116Y-45337487D01*
X123179611Y-45332612D01*
X123184133Y-45331240D01*
X123188814Y-45330699D01*
X123236064Y-45315487D01*
X123283663Y-45301048D01*
X123287827Y-45298822D01*
X123292316Y-45297377D01*
X123335703Y-45273232D01*
X123379558Y-45249791D01*
X123383209Y-45246795D01*
X123387329Y-45244502D01*
X123425177Y-45212353D01*
X123463611Y-45180811D01*
X123483867Y-45156129D01*
X124118001Y-44500129D01*
X124118001Y-50331000D01*
X79818171Y-50331000D01*
X79828212Y-50330011D01*
X79932264Y-50298447D01*
X80028159Y-50247190D01*
X80112212Y-50178210D01*
X80129501Y-50157143D01*
X80454645Y-49832000D01*
X80582452Y-49832000D01*
X80742227Y-49800218D01*
X80892731Y-49737877D01*
X81028181Y-49647372D01*
X81143372Y-49532181D01*
X81233877Y-49396731D01*
X81296218Y-49246227D01*
X81328000Y-49086452D01*
X81328000Y-48923548D01*
X81296218Y-48763773D01*
X81233877Y-48613269D01*
X81143372Y-48477819D01*
X81028181Y-48362628D01*
X80892731Y-48272123D01*
X80742227Y-48209782D01*
X80582452Y-48178000D01*
X80419548Y-48178000D01*
X80259773Y-48209782D01*
X80109269Y-48272123D01*
X79973819Y-48362628D01*
X79858628Y-48477819D01*
X79768123Y-48613269D01*
X79705782Y-48763773D01*
X79674000Y-48923548D01*
X79674000Y-49051355D01*
X79491357Y-49233999D01*
X78816200Y-49233999D01*
X78816200Y-48743844D01*
X82202845Y-45357200D01*
X82330652Y-45357200D01*
X82490427Y-45325418D01*
X82640931Y-45263077D01*
X82776381Y-45172572D01*
X82891572Y-45057381D01*
X82982077Y-44921931D01*
X83044418Y-44771427D01*
X83076200Y-44611652D01*
X83076200Y-44448748D01*
X83044418Y-44288973D01*
X82982077Y-44138469D01*
X82891572Y-44003019D01*
X82776381Y-43887828D01*
X82640931Y-43797323D01*
X82490427Y-43734982D01*
X82330652Y-43703200D01*
X82167748Y-43703200D01*
X82007973Y-43734982D01*
X81857469Y-43797323D01*
X81722019Y-43887828D01*
X81642663Y-43967184D01*
X81621572Y-43935619D01*
X81506381Y-43820428D01*
X81370931Y-43729923D01*
X81268517Y-43687502D01*
X81282181Y-43678372D01*
X81397372Y-43563181D01*
X81487877Y-43427731D01*
X81550218Y-43277227D01*
X81582000Y-43117452D01*
X81582000Y-42954548D01*
X81563789Y-42862999D01*
X89199355Y-42862999D01*
X95422000Y-49085646D01*
X95422000Y-49213452D01*
X95453782Y-49373227D01*
X95516123Y-49523731D01*
X95606628Y-49659181D01*
X95721819Y-49774372D01*
X95857269Y-49864877D01*
X96007773Y-49927218D01*
X96167548Y-49959000D01*
X96330452Y-49959000D01*
X96490227Y-49927218D01*
X96640731Y-49864877D01*
X96776181Y-49774372D01*
X96891372Y-49659181D01*
X96981877Y-49523731D01*
X97044218Y-49373227D01*
X97076000Y-49213452D01*
X97076000Y-49050548D01*
X97044218Y-48890773D01*
X96981877Y-48740269D01*
X96891372Y-48604819D01*
X96776181Y-48489628D01*
X96640731Y-48399123D01*
X96490227Y-48336782D01*
X96330452Y-48305000D01*
X96202646Y-48305000D01*
X94947250Y-47049604D01*
X109873000Y-47049604D01*
X109873000Y-47350396D01*
X109931681Y-47645410D01*
X110046790Y-47923306D01*
X110213901Y-48173406D01*
X110426594Y-48386099D01*
X110676694Y-48553210D01*
X110954590Y-48668319D01*
X111249604Y-48727000D01*
X111550396Y-48727000D01*
X111845410Y-48668319D01*
X112123306Y-48553210D01*
X112373406Y-48386099D01*
X112586099Y-48173406D01*
X112753210Y-47923306D01*
X112868319Y-47645410D01*
X112927000Y-47350396D01*
X112927000Y-47049604D01*
X112868319Y-46754590D01*
X112753210Y-46476694D01*
X112586099Y-46226594D01*
X112373406Y-46013901D01*
X112123306Y-45846790D01*
X111845410Y-45731681D01*
X111550396Y-45673000D01*
X111249604Y-45673000D01*
X110954590Y-45731681D01*
X110676694Y-45846790D01*
X110426594Y-46013901D01*
X110213901Y-46226594D01*
X110046790Y-46476694D01*
X109931681Y-46754590D01*
X109873000Y-47049604D01*
X94947250Y-47049604D01*
X93284645Y-45387000D01*
X93409452Y-45387000D01*
X93569227Y-45355218D01*
X93719731Y-45292877D01*
X93855181Y-45202372D01*
X93970372Y-45087181D01*
X94060877Y-44951731D01*
X94123218Y-44801227D01*
X94155000Y-44641452D01*
X94155000Y-44478548D01*
X94123218Y-44318773D01*
X94060877Y-44168269D01*
X93970372Y-44032819D01*
X93855181Y-43917628D01*
X93719731Y-43827123D01*
X93569227Y-43764782D01*
X93409452Y-43733000D01*
X93246548Y-43733000D01*
X93086773Y-43764782D01*
X92936269Y-43827123D01*
X92800819Y-43917628D01*
X92777241Y-43941206D01*
X90799014Y-41962980D01*
X92363336Y-41962980D01*
X94025000Y-43624645D01*
X94025000Y-43752452D01*
X94056782Y-43912227D01*
X94119123Y-44062731D01*
X94209628Y-44198181D01*
X94324819Y-44313372D01*
X94460269Y-44403877D01*
X94610773Y-44466218D01*
X94770548Y-44498000D01*
X94933452Y-44498000D01*
X95093227Y-44466218D01*
X95243731Y-44403877D01*
X95379181Y-44313372D01*
X95494372Y-44198181D01*
X95584877Y-44062731D01*
X95647218Y-43912227D01*
X95679000Y-43752452D01*
X95679000Y-43589548D01*
X95647218Y-43429773D01*
X95584877Y-43279269D01*
X95494372Y-43143819D01*
X95379181Y-43028628D01*
X95243731Y-42938123D01*
X95093227Y-42875782D01*
X94933452Y-42844000D01*
X94805645Y-42844000D01*
X93001481Y-41039837D01*
X92984191Y-41018769D01*
X92900138Y-40949789D01*
X92804243Y-40898532D01*
X92700191Y-40866968D01*
X92619089Y-40858980D01*
X92619086Y-40858980D01*
X92591980Y-40856310D01*
X92564874Y-40858980D01*
X86817544Y-40858980D01*
X86903966Y-40772558D01*
X86785644Y-40654236D01*
X86988936Y-40631381D01*
X87069777Y-40444216D01*
X87112551Y-40244877D01*
X87115613Y-40041023D01*
X87078847Y-39840488D01*
X87003666Y-39650980D01*
X86990838Y-39626978D01*
X87069777Y-39444216D01*
X87112551Y-39244877D01*
X87115613Y-39041023D01*
X87078847Y-38840488D01*
X87003666Y-38650980D01*
X86990838Y-38626978D01*
X87069777Y-38444216D01*
X87112551Y-38244877D01*
X87115613Y-38041023D01*
X87078847Y-37840488D01*
X87003666Y-37650980D01*
X86990838Y-37626978D01*
X87069777Y-37444216D01*
X87112551Y-37244877D01*
X87115613Y-37041023D01*
X87078847Y-36840488D01*
X87003666Y-36650980D01*
X86990838Y-36626978D01*
X87069777Y-36444216D01*
X87112551Y-36244877D01*
X87115613Y-36041023D01*
X87078847Y-35840488D01*
X87003666Y-35650980D01*
X86988936Y-35623419D01*
X86785644Y-35600564D01*
X86876197Y-35510011D01*
X89714165Y-35510011D01*
X99291294Y-45087142D01*
G36*
X67039000Y-50331000D02*
G01*
X31187630Y-50331000D01*
X31203212Y-50318212D01*
X31220501Y-50297145D01*
X31977154Y-49540494D01*
X31998211Y-49523213D01*
X32043973Y-49467452D01*
X32067191Y-49439161D01*
X32118447Y-49343266D01*
X32118448Y-49343264D01*
X32150012Y-49239212D01*
X32158000Y-49158110D01*
X32158000Y-49158101D01*
X32160669Y-49131003D01*
X32160475Y-49129030D01*
X67039000Y-49129030D01*
X67039000Y-50331000D01*
G37*
X67039000Y-50331000D02*
X31187630Y-50331000D01*
X31203212Y-50318212D01*
X31220501Y-50297145D01*
X31977154Y-49540494D01*
X31998211Y-49523213D01*
X32043973Y-49467452D01*
X32067191Y-49439161D01*
X32118447Y-49343266D01*
X32118448Y-49343264D01*
X32150012Y-49239212D01*
X32158000Y-49158110D01*
X32158000Y-49158101D01*
X32160669Y-49131003D01*
X32160475Y-49129030D01*
X67039000Y-49129030D01*
X67039000Y-50331000D01*
G36*
X67039000Y-46224990D02*
G01*
X33219638Y-46224990D01*
X31659501Y-44664855D01*
X31642212Y-44643788D01*
X31558159Y-44574808D01*
X31462264Y-44523551D01*
X31358212Y-44491987D01*
X31277110Y-44483999D01*
X31277107Y-44483999D01*
X31250001Y-44481329D01*
X31222895Y-44483999D01*
X30938271Y-44483999D01*
X30972641Y-44437920D01*
X31097825Y-44175099D01*
X31142476Y-44027890D01*
X31021155Y-43798000D01*
X29828000Y-43798000D01*
X29828000Y-43818000D01*
X29574000Y-43818000D01*
X29574000Y-43798000D01*
X29554000Y-43798000D01*
X29554000Y-43544000D01*
X29574000Y-43544000D01*
X29574000Y-43524000D01*
X29828000Y-43524000D01*
X29828000Y-43544000D01*
X31021155Y-43544000D01*
X31142476Y-43314110D01*
X31097825Y-43166901D01*
X31010235Y-42983008D01*
X43234296Y-42983008D01*
X43261402Y-42985678D01*
X43288508Y-42983008D01*
X43288511Y-42983008D01*
X43369613Y-42975020D01*
X43473665Y-42943456D01*
X43569560Y-42892199D01*
X43653613Y-42823219D01*
X43670903Y-42802151D01*
X48473056Y-38000000D01*
X67039000Y-38000000D01*
X67039000Y-46224990D01*
G37*
X67039000Y-46224990D02*
X33219638Y-46224990D01*
X31659501Y-44664855D01*
X31642212Y-44643788D01*
X31558159Y-44574808D01*
X31462264Y-44523551D01*
X31358212Y-44491987D01*
X31277110Y-44483999D01*
X31277107Y-44483999D01*
X31250001Y-44481329D01*
X31222895Y-44483999D01*
X30938271Y-44483999D01*
X30972641Y-44437920D01*
X31097825Y-44175099D01*
X31142476Y-44027890D01*
X31021155Y-43798000D01*
X29828000Y-43798000D01*
X29828000Y-43818000D01*
X29574000Y-43818000D01*
X29574000Y-43798000D01*
X29554000Y-43798000D01*
X29554000Y-43544000D01*
X29574000Y-43544000D01*
X29574000Y-43524000D01*
X29828000Y-43524000D01*
X29828000Y-43544000D01*
X31021155Y-43544000D01*
X31142476Y-43314110D01*
X31097825Y-43166901D01*
X31010235Y-42983008D01*
X43234296Y-42983008D01*
X43261402Y-42985678D01*
X43288508Y-42983008D01*
X43288511Y-42983008D01*
X43369613Y-42975020D01*
X43473665Y-42943456D01*
X43569560Y-42892199D01*
X43653613Y-42823219D01*
X43670903Y-42802151D01*
X48473056Y-38000000D01*
X67039000Y-38000000D01*
X67039000Y-46224990D01*
G36*
X123661414Y-43392541D02*
G01*
X123433538Y-43620418D01*
X123429959Y-43623458D01*
X123414330Y-43639625D01*
X123398509Y-43655447D01*
X123395544Y-43659059D01*
X122837256Y-44236600D01*
X122098847Y-44236600D01*
X122872155Y-43463293D01*
X122893212Y-43446012D01*
X122925101Y-43407155D01*
X122962192Y-43361960D01*
X122996105Y-43298513D01*
X123013449Y-43266064D01*
X123045013Y-43162012D01*
X123053001Y-43080910D01*
X123053001Y-43080900D01*
X123055670Y-43053802D01*
X123053001Y-43026704D01*
X123053001Y-42283304D01*
X123055671Y-42256198D01*
X123052735Y-42226389D01*
X123045013Y-42147988D01*
X123013449Y-42043936D01*
X122962192Y-41948041D01*
X122893212Y-41863988D01*
X122872155Y-41846707D01*
X122404501Y-41379055D01*
X122387212Y-41357988D01*
X122303159Y-41289008D01*
X122279945Y-41276600D01*
X122688694Y-41276600D01*
X122715800Y-41279270D01*
X122742906Y-41276600D01*
X122742909Y-41276600D01*
X122824011Y-41268612D01*
X122928063Y-41237048D01*
X123023958Y-41185791D01*
X123108011Y-41116811D01*
X123125300Y-41095744D01*
X123513385Y-40707661D01*
X123534442Y-40690380D01*
X123565006Y-40653138D01*
X123603422Y-40606327D01*
X123649036Y-40520989D01*
X123661414Y-43392541D01*
G37*
X123661414Y-43392541D02*
X123433538Y-43620418D01*
X123429959Y-43623458D01*
X123414330Y-43639625D01*
X123398509Y-43655447D01*
X123395544Y-43659059D01*
X122837256Y-44236600D01*
X122098847Y-44236600D01*
X122872155Y-43463293D01*
X122893212Y-43446012D01*
X122925101Y-43407155D01*
X122962192Y-43361960D01*
X122996105Y-43298513D01*
X123013449Y-43266064D01*
X123045013Y-43162012D01*
X123053001Y-43080910D01*
X123053001Y-43080900D01*
X123055670Y-43053802D01*
X123053001Y-43026704D01*
X123053001Y-42283304D01*
X123055671Y-42256198D01*
X123052735Y-42226389D01*
X123045013Y-42147988D01*
X123013449Y-42043936D01*
X122962192Y-41948041D01*
X122893212Y-41863988D01*
X122872155Y-41846707D01*
X122404501Y-41379055D01*
X122387212Y-41357988D01*
X122303159Y-41289008D01*
X122279945Y-41276600D01*
X122688694Y-41276600D01*
X122715800Y-41279270D01*
X122742906Y-41276600D01*
X122742909Y-41276600D01*
X122824011Y-41268612D01*
X122928063Y-41237048D01*
X123023958Y-41185791D01*
X123108011Y-41116811D01*
X123125300Y-41095744D01*
X123513385Y-40707661D01*
X123534442Y-40690380D01*
X123565006Y-40653138D01*
X123603422Y-40606327D01*
X123649036Y-40520989D01*
X123661414Y-43392541D01*
G36*
X98910748Y-40332400D02*
G01*
X99038556Y-40332400D01*
X102468907Y-43762753D01*
X102486189Y-43783811D01*
X102507245Y-43801091D01*
X102507246Y-43801092D01*
X102570242Y-43852791D01*
X102666137Y-43904048D01*
X102770189Y-43935612D01*
X102878400Y-43946270D01*
X102905508Y-43943600D01*
X107362955Y-43943600D01*
X107397433Y-43978078D01*
X107385281Y-43983111D01*
X107249831Y-44073616D01*
X107159459Y-44163988D01*
X99929432Y-44163988D01*
X99209068Y-43443624D01*
X99282331Y-43413277D01*
X99417781Y-43322772D01*
X99532972Y-43207581D01*
X99623477Y-43072131D01*
X99685818Y-42921627D01*
X99717600Y-42761852D01*
X99717600Y-42598948D01*
X99685818Y-42439173D01*
X99623477Y-42288669D01*
X99532972Y-42153219D01*
X99417781Y-42038028D01*
X99282331Y-41947523D01*
X99131827Y-41885182D01*
X98972052Y-41853400D01*
X98844245Y-41853400D01*
X98819199Y-41828354D01*
X98819199Y-40314189D01*
X98910748Y-40332400D01*
G37*
X98910748Y-40332400D02*
X99038556Y-40332400D01*
X102468907Y-43762753D01*
X102486189Y-43783811D01*
X102507245Y-43801091D01*
X102507246Y-43801092D01*
X102570242Y-43852791D01*
X102666137Y-43904048D01*
X102770189Y-43935612D01*
X102878400Y-43946270D01*
X102905508Y-43943600D01*
X107362955Y-43943600D01*
X107397433Y-43978078D01*
X107385281Y-43983111D01*
X107249831Y-44073616D01*
X107159459Y-44163988D01*
X99929432Y-44163988D01*
X99209068Y-43443624D01*
X99282331Y-43413277D01*
X99417781Y-43322772D01*
X99532972Y-43207581D01*
X99623477Y-43072131D01*
X99685818Y-42921627D01*
X99717600Y-42761852D01*
X99717600Y-42598948D01*
X99685818Y-42439173D01*
X99623477Y-42288669D01*
X99532972Y-42153219D01*
X99417781Y-42038028D01*
X99282331Y-41947523D01*
X99131827Y-41885182D01*
X98972052Y-41853400D01*
X98844245Y-41853400D01*
X98819199Y-41828354D01*
X98819199Y-40314189D01*
X98910748Y-40332400D01*
G36*
X119017707Y-42436553D02*
G01*
X119034989Y-42457611D01*
X119056045Y-42474891D01*
X119119041Y-42526591D01*
X119157073Y-42546919D01*
X119214937Y-42577848D01*
X119248134Y-42587918D01*
X119248134Y-42744121D01*
X119243493Y-42744578D01*
X119163004Y-42768995D01*
X119088824Y-42808645D01*
X119023805Y-42862005D01*
X118970445Y-42927024D01*
X118930795Y-43001204D01*
X118906378Y-43081693D01*
X118898134Y-43165400D01*
X118898134Y-43565400D01*
X118905560Y-43640801D01*
X117516444Y-43640801D01*
X116906201Y-43030559D01*
X116906201Y-42944466D01*
X117527200Y-42944466D01*
X117610907Y-42936222D01*
X117691396Y-42911805D01*
X117765576Y-42872155D01*
X117830595Y-42818795D01*
X117883955Y-42753776D01*
X117923605Y-42679596D01*
X117948022Y-42599107D01*
X117956266Y-42515400D01*
X117956266Y-42215400D01*
X117948022Y-42131693D01*
X117927911Y-42065400D01*
X117948022Y-41999107D01*
X117956266Y-41915400D01*
X117956266Y-41786046D01*
X117967103Y-41777592D01*
X118048819Y-41682890D01*
X118110490Y-41574066D01*
X118121602Y-41540447D01*
X119017707Y-42436553D01*
G37*
X119017707Y-42436553D02*
X119034989Y-42457611D01*
X119056045Y-42474891D01*
X119119041Y-42526591D01*
X119157073Y-42546919D01*
X119214937Y-42577848D01*
X119248134Y-42587918D01*
X119248134Y-42744121D01*
X119243493Y-42744578D01*
X119163004Y-42768995D01*
X119088824Y-42808645D01*
X119023805Y-42862005D01*
X118970445Y-42927024D01*
X118930795Y-43001204D01*
X118906378Y-43081693D01*
X118898134Y-43165400D01*
X118898134Y-43565400D01*
X118905560Y-43640801D01*
X117516444Y-43640801D01*
X116906201Y-43030559D01*
X116906201Y-42944466D01*
X117527200Y-42944466D01*
X117610907Y-42936222D01*
X117691396Y-42911805D01*
X117765576Y-42872155D01*
X117830595Y-42818795D01*
X117883955Y-42753776D01*
X117923605Y-42679596D01*
X117948022Y-42599107D01*
X117956266Y-42515400D01*
X117956266Y-42215400D01*
X117948022Y-42131693D01*
X117927911Y-42065400D01*
X117948022Y-41999107D01*
X117956266Y-41915400D01*
X117956266Y-41786046D01*
X117967103Y-41777592D01*
X118048819Y-41682890D01*
X118110490Y-41574066D01*
X118121602Y-41540447D01*
X119017707Y-42436553D01*
G36*
X103626200Y-38153948D02*
G01*
X103626200Y-38316852D01*
X103657982Y-38476627D01*
X103720323Y-38627131D01*
X103810828Y-38762581D01*
X103926019Y-38877772D01*
X104061469Y-38968277D01*
X104211973Y-39030618D01*
X104371748Y-39062400D01*
X104534652Y-39062400D01*
X104694427Y-39030618D01*
X104844931Y-38968277D01*
X104980381Y-38877772D01*
X105088200Y-38769953D01*
X105196019Y-38877772D01*
X105331469Y-38968277D01*
X105481973Y-39030618D01*
X105641748Y-39062400D01*
X105804652Y-39062400D01*
X105964427Y-39030618D01*
X106066201Y-38988462D01*
X106066202Y-41617508D01*
X105855668Y-41828043D01*
X105855452Y-41828000D01*
X105692548Y-41828000D01*
X105532773Y-41859782D01*
X105382269Y-41922123D01*
X105246819Y-42012628D01*
X105131628Y-42127819D01*
X105041123Y-42263269D01*
X104978782Y-42413773D01*
X104947000Y-42573548D01*
X104947000Y-42736452D01*
X104967518Y-42839600D01*
X103107046Y-42839600D01*
X99819200Y-39551756D01*
X99819200Y-39423948D01*
X99787418Y-39264173D01*
X99725077Y-39113669D01*
X99634572Y-38978219D01*
X99519381Y-38863028D01*
X99383931Y-38772523D01*
X99279131Y-38729113D01*
X99982845Y-38025400D01*
X103651770Y-38025400D01*
X103626200Y-38153948D01*
G37*
X103626200Y-38153948D02*
X103626200Y-38316852D01*
X103657982Y-38476627D01*
X103720323Y-38627131D01*
X103810828Y-38762581D01*
X103926019Y-38877772D01*
X104061469Y-38968277D01*
X104211973Y-39030618D01*
X104371748Y-39062400D01*
X104534652Y-39062400D01*
X104694427Y-39030618D01*
X104844931Y-38968277D01*
X104980381Y-38877772D01*
X105088200Y-38769953D01*
X105196019Y-38877772D01*
X105331469Y-38968277D01*
X105481973Y-39030618D01*
X105641748Y-39062400D01*
X105804652Y-39062400D01*
X105964427Y-39030618D01*
X106066201Y-38988462D01*
X106066202Y-41617508D01*
X105855668Y-41828043D01*
X105855452Y-41828000D01*
X105692548Y-41828000D01*
X105532773Y-41859782D01*
X105382269Y-41922123D01*
X105246819Y-42012628D01*
X105131628Y-42127819D01*
X105041123Y-42263269D01*
X104978782Y-42413773D01*
X104947000Y-42573548D01*
X104947000Y-42736452D01*
X104967518Y-42839600D01*
X103107046Y-42839600D01*
X99819200Y-39551756D01*
X99819200Y-39423948D01*
X99787418Y-39264173D01*
X99725077Y-39113669D01*
X99634572Y-38978219D01*
X99519381Y-38863028D01*
X99383931Y-38772523D01*
X99279131Y-38729113D01*
X99982845Y-38025400D01*
X103651770Y-38025400D01*
X103626200Y-38153948D01*
G36*
X92958200Y-36629948D02*
G01*
X92958200Y-36792852D01*
X92989982Y-36952627D01*
X93052323Y-37103131D01*
X93142828Y-37238581D01*
X93258019Y-37353772D01*
X93393469Y-37444277D01*
X93543973Y-37506618D01*
X93703748Y-37538400D01*
X93866652Y-37538400D01*
X94026427Y-37506618D01*
X94176931Y-37444277D01*
X94312381Y-37353772D01*
X94386754Y-37279399D01*
X99167556Y-37279399D01*
X97896055Y-38550900D01*
X97874988Y-38568190D01*
X97806008Y-38652243D01*
X97754751Y-38748139D01*
X97723187Y-38852191D01*
X97715199Y-38933292D01*
X97712529Y-38960401D01*
X97715199Y-38987507D01*
X97715200Y-41949756D01*
X92428178Y-36662735D01*
X92534381Y-36591772D01*
X92624753Y-36501400D01*
X92983770Y-36501400D01*
X92958200Y-36629948D01*
G37*
X92958200Y-36629948D02*
X92958200Y-36792852D01*
X92989982Y-36952627D01*
X93052323Y-37103131D01*
X93142828Y-37238581D01*
X93258019Y-37353772D01*
X93393469Y-37444277D01*
X93543973Y-37506618D01*
X93703748Y-37538400D01*
X93866652Y-37538400D01*
X94026427Y-37506618D01*
X94176931Y-37444277D01*
X94312381Y-37353772D01*
X94386754Y-37279399D01*
X99167556Y-37279399D01*
X97896055Y-38550900D01*
X97874988Y-38568190D01*
X97806008Y-38652243D01*
X97754751Y-38748139D01*
X97723187Y-38852191D01*
X97715199Y-38933292D01*
X97712529Y-38960401D01*
X97715199Y-38987507D01*
X97715200Y-41949756D01*
X92428178Y-36662735D01*
X92534381Y-36591772D01*
X92624753Y-36501400D01*
X92983770Y-36501400D01*
X92958200Y-36629948D01*
G36*
X26168815Y-20070814D02*
G01*
X26046725Y-20219582D01*
X25956004Y-20389309D01*
X25900137Y-20573475D01*
X25886000Y-20717007D01*
X25886000Y-21412992D01*
X25900137Y-21556524D01*
X25956003Y-21740690D01*
X26046724Y-21910418D01*
X26168814Y-22059186D01*
X26317582Y-22181276D01*
X26487309Y-22271997D01*
X26671475Y-22327863D01*
X26863000Y-22346727D01*
X27054524Y-22327863D01*
X27238690Y-22271997D01*
X27408418Y-22181276D01*
X27557186Y-22059186D01*
X27679276Y-21910418D01*
X27769997Y-21740691D01*
X27825863Y-21556525D01*
X27840000Y-21412993D01*
X27840000Y-20717008D01*
X27825863Y-20573476D01*
X27769997Y-20389309D01*
X27679276Y-20219582D01*
X27557186Y-20070814D01*
X27462369Y-19993000D01*
X33463631Y-19993000D01*
X33368814Y-20070814D01*
X33246724Y-20219582D01*
X33156003Y-20389310D01*
X33100137Y-20573476D01*
X33086000Y-20717008D01*
X33086000Y-21412993D01*
X33100137Y-21556525D01*
X33156004Y-21740691D01*
X33246725Y-21910418D01*
X33368815Y-22059186D01*
X33517583Y-22181276D01*
X33687310Y-22271997D01*
X33871476Y-22327863D01*
X34063000Y-22346727D01*
X34254525Y-22327863D01*
X34438691Y-22271997D01*
X34608418Y-22181276D01*
X34757186Y-22059186D01*
X34879276Y-21910418D01*
X34969997Y-21740691D01*
X35025863Y-21556524D01*
X35040000Y-21412992D01*
X35040000Y-21174048D01*
X82912500Y-21174048D01*
X82912500Y-21336952D01*
X82944282Y-21496727D01*
X83006623Y-21647231D01*
X83097128Y-21782681D01*
X83212319Y-21897872D01*
X83347769Y-21988377D01*
X83498273Y-22050718D01*
X83658048Y-22082500D01*
X83754946Y-22082500D01*
X85867981Y-24353745D01*
X85891589Y-24382511D01*
X85925922Y-24410687D01*
X85959210Y-24440078D01*
X85967886Y-24445126D01*
X85975642Y-24451491D01*
X86014805Y-24472424D01*
X86053195Y-24494760D01*
X86062687Y-24498017D01*
X86071537Y-24502748D01*
X86114046Y-24515643D01*
X86156041Y-24530055D01*
X86165982Y-24531398D01*
X86175589Y-24534312D01*
X86219798Y-24538666D01*
X86263797Y-24544609D01*
X86300926Y-24542300D01*
X91127247Y-24542300D01*
X91217619Y-24632672D01*
X91353069Y-24723177D01*
X91503573Y-24785518D01*
X91663348Y-24817300D01*
X91826252Y-24817300D01*
X91986027Y-24785518D01*
X92136531Y-24723177D01*
X92271981Y-24632672D01*
X92387172Y-24517481D01*
X92477677Y-24382031D01*
X92540018Y-24231527D01*
X92571800Y-24071752D01*
X92571800Y-23908848D01*
X92540018Y-23749073D01*
X92477677Y-23598569D01*
X92387172Y-23463119D01*
X92271981Y-23347928D01*
X92136531Y-23257423D01*
X91986027Y-23195082D01*
X91826252Y-23163300D01*
X91663348Y-23163300D01*
X91503573Y-23195082D01*
X91353069Y-23257423D01*
X91217619Y-23347928D01*
X91127247Y-23438300D01*
X86524199Y-23438300D01*
X85232236Y-22049604D01*
X109873000Y-22049604D01*
X109873000Y-22350396D01*
X109931681Y-22645410D01*
X110046790Y-22923306D01*
X110213901Y-23173406D01*
X110426594Y-23386099D01*
X110676694Y-23553210D01*
X110954590Y-23668319D01*
X111249604Y-23727000D01*
X111550396Y-23727000D01*
X111845410Y-23668319D01*
X112123306Y-23553210D01*
X112373406Y-23386099D01*
X112586099Y-23173406D01*
X112753210Y-22923306D01*
X112868319Y-22645410D01*
X112927000Y-22350396D01*
X112927000Y-22049604D01*
X112868319Y-21754590D01*
X112753210Y-21476694D01*
X112586099Y-21226594D01*
X112373406Y-21013901D01*
X112123306Y-20846790D01*
X111845410Y-20731681D01*
X111550396Y-20673000D01*
X111249604Y-20673000D01*
X110954590Y-20731681D01*
X110676694Y-20846790D01*
X110426594Y-21013901D01*
X110213901Y-21226594D01*
X110046790Y-21476694D01*
X109931681Y-21754590D01*
X109873000Y-22049604D01*
X85232236Y-22049604D01*
X84566500Y-21334024D01*
X84566500Y-21174048D01*
X84534718Y-21014273D01*
X84472377Y-20863769D01*
X84381872Y-20728319D01*
X84266681Y-20613128D01*
X84131231Y-20522623D01*
X83980727Y-20460282D01*
X83820952Y-20428500D01*
X83658048Y-20428500D01*
X83498273Y-20460282D01*
X83347769Y-20522623D01*
X83212319Y-20613128D01*
X83097128Y-20728319D01*
X83006623Y-20863769D01*
X82944282Y-21014273D01*
X82912500Y-21174048D01*
X35040000Y-21174048D01*
X35040000Y-20717007D01*
X35025863Y-20573475D01*
X34969997Y-20389309D01*
X34879276Y-20219582D01*
X34757186Y-20070814D01*
X34662369Y-19993000D01*
X124118000Y-19993000D01*
X124118000Y-31008356D01*
X123708399Y-30598755D01*
X123691110Y-30577688D01*
X123607057Y-30508708D01*
X123511162Y-30457451D01*
X123407110Y-30425887D01*
X123326008Y-30417899D01*
X123326005Y-30417899D01*
X123298899Y-30415229D01*
X123271793Y-30417899D01*
X122213399Y-30417899D01*
X122186291Y-30415229D01*
X122159182Y-30417899D01*
X122078080Y-30425887D01*
X121974028Y-30457451D01*
X121878133Y-30508708D01*
X121802321Y-30570925D01*
X121842354Y-30530892D01*
X121863411Y-30513611D01*
X121896866Y-30472846D01*
X121932391Y-30429559D01*
X121972457Y-30354600D01*
X121983648Y-30333663D01*
X122015212Y-30229611D01*
X122023200Y-30148509D01*
X122023200Y-30148499D01*
X122025869Y-30121401D01*
X122025087Y-30113466D01*
X122113572Y-30024981D01*
X122204077Y-29889531D01*
X122266418Y-29739027D01*
X122298200Y-29579252D01*
X122298200Y-29416348D01*
X122266418Y-29256573D01*
X122204077Y-29106069D01*
X122113572Y-28970619D01*
X121998381Y-28855428D01*
X121862931Y-28764923D01*
X121712427Y-28702582D01*
X121552652Y-28670800D01*
X121389748Y-28670800D01*
X121229973Y-28702582D01*
X121079469Y-28764923D01*
X120944019Y-28855428D01*
X120828828Y-28970619D01*
X120738323Y-29106069D01*
X120675982Y-29256573D01*
X120644200Y-29416348D01*
X120644200Y-29579252D01*
X120675982Y-29739027D01*
X120738323Y-29889531D01*
X120812063Y-29999891D01*
X120651711Y-30160244D01*
X120633955Y-30127024D01*
X120580595Y-30062005D01*
X120515576Y-30008645D01*
X120441396Y-29968995D01*
X120360907Y-29944578D01*
X120277200Y-29936334D01*
X119377152Y-29936334D01*
X120400436Y-28913053D01*
X120420540Y-28896554D01*
X120486396Y-28816308D01*
X120535331Y-28724756D01*
X120565466Y-28625416D01*
X120573092Y-28547987D01*
X120573092Y-28547985D01*
X120575641Y-28522107D01*
X120573092Y-28496226D01*
X120573092Y-26350675D01*
X120575641Y-26324794D01*
X120565466Y-26221485D01*
X120535331Y-26122145D01*
X120486396Y-26030593D01*
X120480810Y-26023787D01*
X120420540Y-25950347D01*
X120400431Y-25933844D01*
X119424021Y-24957435D01*
X119407514Y-24937321D01*
X119327268Y-24871465D01*
X119235716Y-24822530D01*
X119136376Y-24792395D01*
X119058947Y-24784769D01*
X119033066Y-24782220D01*
X119007185Y-24784769D01*
X115680133Y-24784769D01*
X115660781Y-24782863D01*
X115614643Y-24777363D01*
X115583339Y-24779800D01*
X114938792Y-24779800D01*
X115841592Y-23877000D01*
X115924643Y-23877000D01*
X116008269Y-23932877D01*
X116158773Y-23995218D01*
X116318548Y-24027000D01*
X116481452Y-24027000D01*
X116641227Y-23995218D01*
X116791731Y-23932877D01*
X116927181Y-23842372D01*
X117042372Y-23727181D01*
X117132877Y-23591731D01*
X117195218Y-23441227D01*
X117227000Y-23281452D01*
X117227000Y-23118548D01*
X117195218Y-22958773D01*
X117132877Y-22808269D01*
X117042372Y-22672819D01*
X116927181Y-22557628D01*
X116791731Y-22467123D01*
X116641227Y-22404782D01*
X116481452Y-22373000D01*
X116318548Y-22373000D01*
X116158773Y-22404782D01*
X116008269Y-22467123D01*
X115924643Y-22523000D01*
X115594411Y-22523000D01*
X115561169Y-22519726D01*
X115527927Y-22523000D01*
X115527918Y-22523000D01*
X115428455Y-22532796D01*
X115300840Y-22571508D01*
X115183229Y-22634372D01*
X115080143Y-22718973D01*
X115058944Y-22744804D01*
X109345978Y-28457770D01*
X108498482Y-28457770D01*
X108465230Y-28454495D01*
X108416697Y-28459275D01*
X107932000Y-27974578D01*
X107932000Y-26178251D01*
X107935275Y-26145000D01*
X107922204Y-26012285D01*
X107883492Y-25884670D01*
X107820628Y-25767059D01*
X107736027Y-25663973D01*
X107632941Y-25579372D01*
X107515330Y-25516508D01*
X107387715Y-25477796D01*
X107288252Y-25468000D01*
X107255000Y-25464725D01*
X107221748Y-25468000D01*
X95073357Y-25468000D01*
X94989731Y-25412123D01*
X94839227Y-25349782D01*
X94679452Y-25318000D01*
X94516548Y-25318000D01*
X94356773Y-25349782D01*
X94206269Y-25412123D01*
X94122643Y-25468000D01*
X85785608Y-25468000D01*
X82998411Y-22680803D01*
X82977212Y-22654972D01*
X82874126Y-22570371D01*
X82756515Y-22507507D01*
X82628900Y-22468795D01*
X82529437Y-22458999D01*
X82529430Y-22458999D01*
X82496185Y-22455725D01*
X82462940Y-22458999D01*
X40490253Y-22458999D01*
X40457001Y-22455724D01*
X40324286Y-22468795D01*
X40196671Y-22507507D01*
X40079060Y-22570371D01*
X40033017Y-22608158D01*
X39975974Y-22654972D01*
X39954779Y-22680798D01*
X37500801Y-25134777D01*
X31847800Y-30787778D01*
X31821973Y-30808974D01*
X31800778Y-30834800D01*
X31800776Y-30834802D01*
X31767168Y-30875754D01*
X31737372Y-30912060D01*
X31674508Y-31029671D01*
X31635796Y-31157286D01*
X31626000Y-31256749D01*
X31626000Y-31256755D01*
X31622726Y-31290000D01*
X31626000Y-31323245D01*
X31626000Y-31356250D01*
X31626001Y-31356260D01*
X31626000Y-34870943D01*
X31570123Y-34954569D01*
X31507782Y-35105073D01*
X31476000Y-35264848D01*
X31476000Y-35427752D01*
X31507782Y-35587527D01*
X31570123Y-35738031D01*
X31660628Y-35873481D01*
X31775819Y-35988672D01*
X31911269Y-36079177D01*
X32061773Y-36141518D01*
X32160418Y-36161140D01*
X37428277Y-41428999D01*
X30943743Y-41428999D01*
X30978000Y-41256774D01*
X30978000Y-41005226D01*
X30928926Y-40758513D01*
X30832663Y-40526114D01*
X30692911Y-40316960D01*
X30515040Y-40139089D01*
X30305886Y-39999337D01*
X30073487Y-39903074D01*
X29861966Y-39861000D01*
X30073487Y-39818926D01*
X30305886Y-39722663D01*
X30515040Y-39582911D01*
X30692911Y-39405040D01*
X30832663Y-39195886D01*
X30928926Y-38963487D01*
X30978000Y-38716774D01*
X30978000Y-38465226D01*
X30928926Y-38218513D01*
X30832663Y-37986114D01*
X30692911Y-37776960D01*
X30515040Y-37599089D01*
X30305886Y-37459337D01*
X30073487Y-37363074D01*
X29826774Y-37314000D01*
X29575226Y-37314000D01*
X29328513Y-37363074D01*
X29096114Y-37459337D01*
X28886960Y-37599089D01*
X28709089Y-37776960D01*
X28569337Y-37986114D01*
X28473074Y-38218513D01*
X28431000Y-38430034D01*
X28388926Y-38218513D01*
X28292663Y-37986114D01*
X28152911Y-37776960D01*
X27975040Y-37599089D01*
X27765886Y-37459337D01*
X27533487Y-37363074D01*
X27286774Y-37314000D01*
X27035226Y-37314000D01*
X26788513Y-37363074D01*
X26556114Y-37459337D01*
X26346960Y-37599089D01*
X26169089Y-37776960D01*
X26029337Y-37986114D01*
X25933074Y-38218513D01*
X25884000Y-38465226D01*
X25884000Y-38716774D01*
X25933074Y-38963487D01*
X25954981Y-39016375D01*
X25614855Y-39356501D01*
X25593788Y-39373790D01*
X25524808Y-39457843D01*
X25473551Y-39553739D01*
X25454000Y-39618190D01*
X25454000Y-24646951D01*
X27335654Y-24646951D01*
X27388434Y-24875116D01*
X27617488Y-24980509D01*
X27862702Y-25039192D01*
X28114652Y-25048907D01*
X28363658Y-25009283D01*
X28600148Y-24921842D01*
X28687566Y-24875116D01*
X28740346Y-24646951D01*
X32185654Y-24646951D01*
X32238434Y-24875116D01*
X32467488Y-24980509D01*
X32712702Y-25039192D01*
X32964652Y-25048907D01*
X33213658Y-25009283D01*
X33450148Y-24921842D01*
X33537566Y-24875116D01*
X33590346Y-24646951D01*
X32888000Y-23944605D01*
X32185654Y-24646951D01*
X28740346Y-24646951D01*
X28038000Y-23944605D01*
X27335654Y-24646951D01*
X25454000Y-24646951D01*
X25454000Y-23841652D01*
X26754093Y-23841652D01*
X26793717Y-24090658D01*
X26881158Y-24327148D01*
X26927884Y-24414566D01*
X27156049Y-24467346D01*
X27858395Y-23765000D01*
X28217605Y-23765000D01*
X28919951Y-24467346D01*
X29148116Y-24414566D01*
X29253509Y-24185512D01*
X29312192Y-23940298D01*
X29315995Y-23841652D01*
X31604093Y-23841652D01*
X31643717Y-24090658D01*
X31731158Y-24327148D01*
X31777884Y-24414566D01*
X32006049Y-24467346D01*
X32708395Y-23765000D01*
X33067605Y-23765000D01*
X33769951Y-24467346D01*
X33998116Y-24414566D01*
X34103509Y-24185512D01*
X34162192Y-23940298D01*
X34171907Y-23688348D01*
X34132283Y-23439342D01*
X34044842Y-23202852D01*
X33998116Y-23115434D01*
X33769951Y-23062654D01*
X33067605Y-23765000D01*
X32708395Y-23765000D01*
X32006049Y-23062654D01*
X31777884Y-23115434D01*
X31672491Y-23344488D01*
X31613808Y-23589702D01*
X31604093Y-23841652D01*
X29315995Y-23841652D01*
X29321907Y-23688348D01*
X29282283Y-23439342D01*
X29194842Y-23202852D01*
X29148116Y-23115434D01*
X28919951Y-23062654D01*
X28217605Y-23765000D01*
X27858395Y-23765000D01*
X27156049Y-23062654D01*
X26927884Y-23115434D01*
X26822491Y-23344488D01*
X26763808Y-23589702D01*
X26754093Y-23841652D01*
X25454000Y-23841652D01*
X25454000Y-22883049D01*
X27335654Y-22883049D01*
X28038000Y-23585395D01*
X28740346Y-22883049D01*
X32185654Y-22883049D01*
X32888000Y-23585395D01*
X33590346Y-22883049D01*
X33537566Y-22654884D01*
X33308512Y-22549491D01*
X33063298Y-22490808D01*
X32811348Y-22481093D01*
X32562342Y-22520717D01*
X32325852Y-22608158D01*
X32238434Y-22654884D01*
X32185654Y-22883049D01*
X28740346Y-22883049D01*
X28687566Y-22654884D01*
X28458512Y-22549491D01*
X28213298Y-22490808D01*
X27961348Y-22481093D01*
X27712342Y-22520717D01*
X27475852Y-22608158D01*
X27388434Y-22654884D01*
X27335654Y-22883049D01*
X25454000Y-22883049D01*
X25454000Y-19993000D01*
X26263632Y-19993000D01*
X26168815Y-20070814D01*
G37*
X26168815Y-20070814D02*
X26046725Y-20219582D01*
X25956004Y-20389309D01*
X25900137Y-20573475D01*
X25886000Y-20717007D01*
X25886000Y-21412992D01*
X25900137Y-21556524D01*
X25956003Y-21740690D01*
X26046724Y-21910418D01*
X26168814Y-22059186D01*
X26317582Y-22181276D01*
X26487309Y-22271997D01*
X26671475Y-22327863D01*
X26863000Y-22346727D01*
X27054524Y-22327863D01*
X27238690Y-22271997D01*
X27408418Y-22181276D01*
X27557186Y-22059186D01*
X27679276Y-21910418D01*
X27769997Y-21740691D01*
X27825863Y-21556525D01*
X27840000Y-21412993D01*
X27840000Y-20717008D01*
X27825863Y-20573476D01*
X27769997Y-20389309D01*
X27679276Y-20219582D01*
X27557186Y-20070814D01*
X27462369Y-19993000D01*
X33463631Y-19993000D01*
X33368814Y-20070814D01*
X33246724Y-20219582D01*
X33156003Y-20389310D01*
X33100137Y-20573476D01*
X33086000Y-20717008D01*
X33086000Y-21412993D01*
X33100137Y-21556525D01*
X33156004Y-21740691D01*
X33246725Y-21910418D01*
X33368815Y-22059186D01*
X33517583Y-22181276D01*
X33687310Y-22271997D01*
X33871476Y-22327863D01*
X34063000Y-22346727D01*
X34254525Y-22327863D01*
X34438691Y-22271997D01*
X34608418Y-22181276D01*
X34757186Y-22059186D01*
X34879276Y-21910418D01*
X34969997Y-21740691D01*
X35025863Y-21556524D01*
X35040000Y-21412992D01*
X35040000Y-21174048D01*
X82912500Y-21174048D01*
X82912500Y-21336952D01*
X82944282Y-21496727D01*
X83006623Y-21647231D01*
X83097128Y-21782681D01*
X83212319Y-21897872D01*
X83347769Y-21988377D01*
X83498273Y-22050718D01*
X83658048Y-22082500D01*
X83754946Y-22082500D01*
X85867981Y-24353745D01*
X85891589Y-24382511D01*
X85925922Y-24410687D01*
X85959210Y-24440078D01*
X85967886Y-24445126D01*
X85975642Y-24451491D01*
X86014805Y-24472424D01*
X86053195Y-24494760D01*
X86062687Y-24498017D01*
X86071537Y-24502748D01*
X86114046Y-24515643D01*
X86156041Y-24530055D01*
X86165982Y-24531398D01*
X86175589Y-24534312D01*
X86219798Y-24538666D01*
X86263797Y-24544609D01*
X86300926Y-24542300D01*
X91127247Y-24542300D01*
X91217619Y-24632672D01*
X91353069Y-24723177D01*
X91503573Y-24785518D01*
X91663348Y-24817300D01*
X91826252Y-24817300D01*
X91986027Y-24785518D01*
X92136531Y-24723177D01*
X92271981Y-24632672D01*
X92387172Y-24517481D01*
X92477677Y-24382031D01*
X92540018Y-24231527D01*
X92571800Y-24071752D01*
X92571800Y-23908848D01*
X92540018Y-23749073D01*
X92477677Y-23598569D01*
X92387172Y-23463119D01*
X92271981Y-23347928D01*
X92136531Y-23257423D01*
X91986027Y-23195082D01*
X91826252Y-23163300D01*
X91663348Y-23163300D01*
X91503573Y-23195082D01*
X91353069Y-23257423D01*
X91217619Y-23347928D01*
X91127247Y-23438300D01*
X86524199Y-23438300D01*
X85232236Y-22049604D01*
X109873000Y-22049604D01*
X109873000Y-22350396D01*
X109931681Y-22645410D01*
X110046790Y-22923306D01*
X110213901Y-23173406D01*
X110426594Y-23386099D01*
X110676694Y-23553210D01*
X110954590Y-23668319D01*
X111249604Y-23727000D01*
X111550396Y-23727000D01*
X111845410Y-23668319D01*
X112123306Y-23553210D01*
X112373406Y-23386099D01*
X112586099Y-23173406D01*
X112753210Y-22923306D01*
X112868319Y-22645410D01*
X112927000Y-22350396D01*
X112927000Y-22049604D01*
X112868319Y-21754590D01*
X112753210Y-21476694D01*
X112586099Y-21226594D01*
X112373406Y-21013901D01*
X112123306Y-20846790D01*
X111845410Y-20731681D01*
X111550396Y-20673000D01*
X111249604Y-20673000D01*
X110954590Y-20731681D01*
X110676694Y-20846790D01*
X110426594Y-21013901D01*
X110213901Y-21226594D01*
X110046790Y-21476694D01*
X109931681Y-21754590D01*
X109873000Y-22049604D01*
X85232236Y-22049604D01*
X84566500Y-21334024D01*
X84566500Y-21174048D01*
X84534718Y-21014273D01*
X84472377Y-20863769D01*
X84381872Y-20728319D01*
X84266681Y-20613128D01*
X84131231Y-20522623D01*
X83980727Y-20460282D01*
X83820952Y-20428500D01*
X83658048Y-20428500D01*
X83498273Y-20460282D01*
X83347769Y-20522623D01*
X83212319Y-20613128D01*
X83097128Y-20728319D01*
X83006623Y-20863769D01*
X82944282Y-21014273D01*
X82912500Y-21174048D01*
X35040000Y-21174048D01*
X35040000Y-20717007D01*
X35025863Y-20573475D01*
X34969997Y-20389309D01*
X34879276Y-20219582D01*
X34757186Y-20070814D01*
X34662369Y-19993000D01*
X124118000Y-19993000D01*
X124118000Y-31008356D01*
X123708399Y-30598755D01*
X123691110Y-30577688D01*
X123607057Y-30508708D01*
X123511162Y-30457451D01*
X123407110Y-30425887D01*
X123326008Y-30417899D01*
X123326005Y-30417899D01*
X123298899Y-30415229D01*
X123271793Y-30417899D01*
X122213399Y-30417899D01*
X122186291Y-30415229D01*
X122159182Y-30417899D01*
X122078080Y-30425887D01*
X121974028Y-30457451D01*
X121878133Y-30508708D01*
X121802321Y-30570925D01*
X121842354Y-30530892D01*
X121863411Y-30513611D01*
X121896866Y-30472846D01*
X121932391Y-30429559D01*
X121972457Y-30354600D01*
X121983648Y-30333663D01*
X122015212Y-30229611D01*
X122023200Y-30148509D01*
X122023200Y-30148499D01*
X122025869Y-30121401D01*
X122025087Y-30113466D01*
X122113572Y-30024981D01*
X122204077Y-29889531D01*
X122266418Y-29739027D01*
X122298200Y-29579252D01*
X122298200Y-29416348D01*
X122266418Y-29256573D01*
X122204077Y-29106069D01*
X122113572Y-28970619D01*
X121998381Y-28855428D01*
X121862931Y-28764923D01*
X121712427Y-28702582D01*
X121552652Y-28670800D01*
X121389748Y-28670800D01*
X121229973Y-28702582D01*
X121079469Y-28764923D01*
X120944019Y-28855428D01*
X120828828Y-28970619D01*
X120738323Y-29106069D01*
X120675982Y-29256573D01*
X120644200Y-29416348D01*
X120644200Y-29579252D01*
X120675982Y-29739027D01*
X120738323Y-29889531D01*
X120812063Y-29999891D01*
X120651711Y-30160244D01*
X120633955Y-30127024D01*
X120580595Y-30062005D01*
X120515576Y-30008645D01*
X120441396Y-29968995D01*
X120360907Y-29944578D01*
X120277200Y-29936334D01*
X119377152Y-29936334D01*
X120400436Y-28913053D01*
X120420540Y-28896554D01*
X120486396Y-28816308D01*
X120535331Y-28724756D01*
X120565466Y-28625416D01*
X120573092Y-28547987D01*
X120573092Y-28547985D01*
X120575641Y-28522107D01*
X120573092Y-28496226D01*
X120573092Y-26350675D01*
X120575641Y-26324794D01*
X120565466Y-26221485D01*
X120535331Y-26122145D01*
X120486396Y-26030593D01*
X120480810Y-26023787D01*
X120420540Y-25950347D01*
X120400431Y-25933844D01*
X119424021Y-24957435D01*
X119407514Y-24937321D01*
X119327268Y-24871465D01*
X119235716Y-24822530D01*
X119136376Y-24792395D01*
X119058947Y-24784769D01*
X119033066Y-24782220D01*
X119007185Y-24784769D01*
X115680133Y-24784769D01*
X115660781Y-24782863D01*
X115614643Y-24777363D01*
X115583339Y-24779800D01*
X114938792Y-24779800D01*
X115841592Y-23877000D01*
X115924643Y-23877000D01*
X116008269Y-23932877D01*
X116158773Y-23995218D01*
X116318548Y-24027000D01*
X116481452Y-24027000D01*
X116641227Y-23995218D01*
X116791731Y-23932877D01*
X116927181Y-23842372D01*
X117042372Y-23727181D01*
X117132877Y-23591731D01*
X117195218Y-23441227D01*
X117227000Y-23281452D01*
X117227000Y-23118548D01*
X117195218Y-22958773D01*
X117132877Y-22808269D01*
X117042372Y-22672819D01*
X116927181Y-22557628D01*
X116791731Y-22467123D01*
X116641227Y-22404782D01*
X116481452Y-22373000D01*
X116318548Y-22373000D01*
X116158773Y-22404782D01*
X116008269Y-22467123D01*
X115924643Y-22523000D01*
X115594411Y-22523000D01*
X115561169Y-22519726D01*
X115527927Y-22523000D01*
X115527918Y-22523000D01*
X115428455Y-22532796D01*
X115300840Y-22571508D01*
X115183229Y-22634372D01*
X115080143Y-22718973D01*
X115058944Y-22744804D01*
X109345978Y-28457770D01*
X108498482Y-28457770D01*
X108465230Y-28454495D01*
X108416697Y-28459275D01*
X107932000Y-27974578D01*
X107932000Y-26178251D01*
X107935275Y-26145000D01*
X107922204Y-26012285D01*
X107883492Y-25884670D01*
X107820628Y-25767059D01*
X107736027Y-25663973D01*
X107632941Y-25579372D01*
X107515330Y-25516508D01*
X107387715Y-25477796D01*
X107288252Y-25468000D01*
X107255000Y-25464725D01*
X107221748Y-25468000D01*
X95073357Y-25468000D01*
X94989731Y-25412123D01*
X94839227Y-25349782D01*
X94679452Y-25318000D01*
X94516548Y-25318000D01*
X94356773Y-25349782D01*
X94206269Y-25412123D01*
X94122643Y-25468000D01*
X85785608Y-25468000D01*
X82998411Y-22680803D01*
X82977212Y-22654972D01*
X82874126Y-22570371D01*
X82756515Y-22507507D01*
X82628900Y-22468795D01*
X82529437Y-22458999D01*
X82529430Y-22458999D01*
X82496185Y-22455725D01*
X82462940Y-22458999D01*
X40490253Y-22458999D01*
X40457001Y-22455724D01*
X40324286Y-22468795D01*
X40196671Y-22507507D01*
X40079060Y-22570371D01*
X40033017Y-22608158D01*
X39975974Y-22654972D01*
X39954779Y-22680798D01*
X37500801Y-25134777D01*
X31847800Y-30787778D01*
X31821973Y-30808974D01*
X31800778Y-30834800D01*
X31800776Y-30834802D01*
X31767168Y-30875754D01*
X31737372Y-30912060D01*
X31674508Y-31029671D01*
X31635796Y-31157286D01*
X31626000Y-31256749D01*
X31626000Y-31256755D01*
X31622726Y-31290000D01*
X31626000Y-31323245D01*
X31626000Y-31356250D01*
X31626001Y-31356260D01*
X31626000Y-34870943D01*
X31570123Y-34954569D01*
X31507782Y-35105073D01*
X31476000Y-35264848D01*
X31476000Y-35427752D01*
X31507782Y-35587527D01*
X31570123Y-35738031D01*
X31660628Y-35873481D01*
X31775819Y-35988672D01*
X31911269Y-36079177D01*
X32061773Y-36141518D01*
X32160418Y-36161140D01*
X37428277Y-41428999D01*
X30943743Y-41428999D01*
X30978000Y-41256774D01*
X30978000Y-41005226D01*
X30928926Y-40758513D01*
X30832663Y-40526114D01*
X30692911Y-40316960D01*
X30515040Y-40139089D01*
X30305886Y-39999337D01*
X30073487Y-39903074D01*
X29861966Y-39861000D01*
X30073487Y-39818926D01*
X30305886Y-39722663D01*
X30515040Y-39582911D01*
X30692911Y-39405040D01*
X30832663Y-39195886D01*
X30928926Y-38963487D01*
X30978000Y-38716774D01*
X30978000Y-38465226D01*
X30928926Y-38218513D01*
X30832663Y-37986114D01*
X30692911Y-37776960D01*
X30515040Y-37599089D01*
X30305886Y-37459337D01*
X30073487Y-37363074D01*
X29826774Y-37314000D01*
X29575226Y-37314000D01*
X29328513Y-37363074D01*
X29096114Y-37459337D01*
X28886960Y-37599089D01*
X28709089Y-37776960D01*
X28569337Y-37986114D01*
X28473074Y-38218513D01*
X28431000Y-38430034D01*
X28388926Y-38218513D01*
X28292663Y-37986114D01*
X28152911Y-37776960D01*
X27975040Y-37599089D01*
X27765886Y-37459337D01*
X27533487Y-37363074D01*
X27286774Y-37314000D01*
X27035226Y-37314000D01*
X26788513Y-37363074D01*
X26556114Y-37459337D01*
X26346960Y-37599089D01*
X26169089Y-37776960D01*
X26029337Y-37986114D01*
X25933074Y-38218513D01*
X25884000Y-38465226D01*
X25884000Y-38716774D01*
X25933074Y-38963487D01*
X25954981Y-39016375D01*
X25614855Y-39356501D01*
X25593788Y-39373790D01*
X25524808Y-39457843D01*
X25473551Y-39553739D01*
X25454000Y-39618190D01*
X25454000Y-24646951D01*
X27335654Y-24646951D01*
X27388434Y-24875116D01*
X27617488Y-24980509D01*
X27862702Y-25039192D01*
X28114652Y-25048907D01*
X28363658Y-25009283D01*
X28600148Y-24921842D01*
X28687566Y-24875116D01*
X28740346Y-24646951D01*
X32185654Y-24646951D01*
X32238434Y-24875116D01*
X32467488Y-24980509D01*
X32712702Y-25039192D01*
X32964652Y-25048907D01*
X33213658Y-25009283D01*
X33450148Y-24921842D01*
X33537566Y-24875116D01*
X33590346Y-24646951D01*
X32888000Y-23944605D01*
X32185654Y-24646951D01*
X28740346Y-24646951D01*
X28038000Y-23944605D01*
X27335654Y-24646951D01*
X25454000Y-24646951D01*
X25454000Y-23841652D01*
X26754093Y-23841652D01*
X26793717Y-24090658D01*
X26881158Y-24327148D01*
X26927884Y-24414566D01*
X27156049Y-24467346D01*
X27858395Y-23765000D01*
X28217605Y-23765000D01*
X28919951Y-24467346D01*
X29148116Y-24414566D01*
X29253509Y-24185512D01*
X29312192Y-23940298D01*
X29315995Y-23841652D01*
X31604093Y-23841652D01*
X31643717Y-24090658D01*
X31731158Y-24327148D01*
X31777884Y-24414566D01*
X32006049Y-24467346D01*
X32708395Y-23765000D01*
X33067605Y-23765000D01*
X33769951Y-24467346D01*
X33998116Y-24414566D01*
X34103509Y-24185512D01*
X34162192Y-23940298D01*
X34171907Y-23688348D01*
X34132283Y-23439342D01*
X34044842Y-23202852D01*
X33998116Y-23115434D01*
X33769951Y-23062654D01*
X33067605Y-23765000D01*
X32708395Y-23765000D01*
X32006049Y-23062654D01*
X31777884Y-23115434D01*
X31672491Y-23344488D01*
X31613808Y-23589702D01*
X31604093Y-23841652D01*
X29315995Y-23841652D01*
X29321907Y-23688348D01*
X29282283Y-23439342D01*
X29194842Y-23202852D01*
X29148116Y-23115434D01*
X28919951Y-23062654D01*
X28217605Y-23765000D01*
X27858395Y-23765000D01*
X27156049Y-23062654D01*
X26927884Y-23115434D01*
X26822491Y-23344488D01*
X26763808Y-23589702D01*
X26754093Y-23841652D01*
X25454000Y-23841652D01*
X25454000Y-22883049D01*
X27335654Y-22883049D01*
X28038000Y-23585395D01*
X28740346Y-22883049D01*
X32185654Y-22883049D01*
X32888000Y-23585395D01*
X33590346Y-22883049D01*
X33537566Y-22654884D01*
X33308512Y-22549491D01*
X33063298Y-22490808D01*
X32811348Y-22481093D01*
X32562342Y-22520717D01*
X32325852Y-22608158D01*
X32238434Y-22654884D01*
X32185654Y-22883049D01*
X28740346Y-22883049D01*
X28687566Y-22654884D01*
X28458512Y-22549491D01*
X28213298Y-22490808D01*
X27961348Y-22481093D01*
X27712342Y-22520717D01*
X27475852Y-22608158D01*
X27388434Y-22654884D01*
X27335654Y-22883049D01*
X25454000Y-22883049D01*
X25454000Y-19993000D01*
X26263632Y-19993000D01*
X26168815Y-20070814D01*
G36*
X117349200Y-41186334D02*
G01*
X117104199Y-41186334D01*
X117104199Y-41144466D01*
X117349200Y-41144466D01*
X117349200Y-41186334D01*
G37*
X117349200Y-41186334D02*
X117104199Y-41186334D01*
X117104199Y-41144466D01*
X117349200Y-41144466D01*
X117349200Y-41186334D01*
G36*
X81372756Y-35600564D02*
G01*
X81169464Y-35623419D01*
X81088623Y-35810584D01*
X81045849Y-36009923D01*
X81042787Y-36213777D01*
X81079553Y-36414312D01*
X81154734Y-36603820D01*
X81167562Y-36627822D01*
X81088623Y-36810584D01*
X81045849Y-37009923D01*
X81042787Y-37213777D01*
X81079553Y-37414312D01*
X81154734Y-37603820D01*
X81167562Y-37627822D01*
X81088623Y-37810584D01*
X81045849Y-38009923D01*
X81042787Y-38213777D01*
X81079553Y-38414312D01*
X81154734Y-38603820D01*
X81167562Y-38627822D01*
X81088623Y-38810584D01*
X81045849Y-39009923D01*
X81042787Y-39213777D01*
X81079553Y-39414312D01*
X81154734Y-39603820D01*
X81167562Y-39627822D01*
X81088623Y-39810584D01*
X81045849Y-40009923D01*
X81042787Y-40213777D01*
X81079553Y-40414312D01*
X81154734Y-40603820D01*
X81169464Y-40631381D01*
X81372756Y-40654236D01*
X81254434Y-40772558D01*
X81340856Y-40858980D01*
X80439625Y-40858980D01*
X80235799Y-40655154D01*
X80385436Y-40593172D01*
X80520886Y-40502667D01*
X80636077Y-40387476D01*
X80726582Y-40252026D01*
X80788923Y-40101522D01*
X80820705Y-39941747D01*
X80820705Y-39778843D01*
X80788923Y-39619068D01*
X80726582Y-39468564D01*
X80636077Y-39333114D01*
X80520886Y-39217923D01*
X80385436Y-39127418D01*
X80234932Y-39065077D01*
X80075157Y-39033295D01*
X79947351Y-39033295D01*
X78816200Y-37902145D01*
X78816200Y-35510011D01*
X81282203Y-35510011D01*
X81372756Y-35600564D01*
G37*
X81372756Y-35600564D02*
X81169464Y-35623419D01*
X81088623Y-35810584D01*
X81045849Y-36009923D01*
X81042787Y-36213777D01*
X81079553Y-36414312D01*
X81154734Y-36603820D01*
X81167562Y-36627822D01*
X81088623Y-36810584D01*
X81045849Y-37009923D01*
X81042787Y-37213777D01*
X81079553Y-37414312D01*
X81154734Y-37603820D01*
X81167562Y-37627822D01*
X81088623Y-37810584D01*
X81045849Y-38009923D01*
X81042787Y-38213777D01*
X81079553Y-38414312D01*
X81154734Y-38603820D01*
X81167562Y-38627822D01*
X81088623Y-38810584D01*
X81045849Y-39009923D01*
X81042787Y-39213777D01*
X81079553Y-39414312D01*
X81154734Y-39603820D01*
X81167562Y-39627822D01*
X81088623Y-39810584D01*
X81045849Y-40009923D01*
X81042787Y-40213777D01*
X81079553Y-40414312D01*
X81154734Y-40603820D01*
X81169464Y-40631381D01*
X81372756Y-40654236D01*
X81254434Y-40772558D01*
X81340856Y-40858980D01*
X80439625Y-40858980D01*
X80235799Y-40655154D01*
X80385436Y-40593172D01*
X80520886Y-40502667D01*
X80636077Y-40387476D01*
X80726582Y-40252026D01*
X80788923Y-40101522D01*
X80820705Y-39941747D01*
X80820705Y-39778843D01*
X80788923Y-39619068D01*
X80726582Y-39468564D01*
X80636077Y-39333114D01*
X80520886Y-39217923D01*
X80385436Y-39127418D01*
X80234932Y-39065077D01*
X80075157Y-39033295D01*
X79947351Y-39033295D01*
X78816200Y-37902145D01*
X78816200Y-35510011D01*
X81282203Y-35510011D01*
X81372756Y-35600564D01*
G36*
X38727852Y-31323504D02*
G01*
X38706790Y-31340789D01*
X38659060Y-31398949D01*
X38637809Y-31424843D01*
X38586552Y-31520738D01*
X38568698Y-31579596D01*
X38555123Y-31624349D01*
X38554989Y-31624790D01*
X38544330Y-31733000D01*
X38547001Y-31760116D01*
X38547000Y-34753894D01*
X38544330Y-34781000D01*
X38547000Y-34808106D01*
X38547000Y-34808108D01*
X38554988Y-34889210D01*
X38586552Y-34993262D01*
X38637809Y-35089158D01*
X38706789Y-35173211D01*
X38727857Y-35190501D01*
X43627001Y-40089646D01*
X43627000Y-40590004D01*
X43551372Y-40476819D01*
X43436181Y-40361628D01*
X43300731Y-40271123D01*
X43150227Y-40208782D01*
X42990452Y-40177000D01*
X42827548Y-40177000D01*
X42667773Y-40208782D01*
X42517269Y-40271123D01*
X42433643Y-40327000D01*
X38241122Y-40327000D01*
X33117840Y-35203718D01*
X33098218Y-35105073D01*
X33035877Y-34954569D01*
X32980000Y-34870943D01*
X32980000Y-31570422D01*
X33670154Y-30880268D01*
X33757628Y-31011181D01*
X33865447Y-31119000D01*
X33757628Y-31226819D01*
X33667123Y-31362269D01*
X33604782Y-31512773D01*
X33573000Y-31672548D01*
X33573000Y-31835452D01*
X33604782Y-31995227D01*
X33667123Y-32145731D01*
X33757628Y-32281181D01*
X33872819Y-32396372D01*
X34008269Y-32486877D01*
X34158773Y-32549218D01*
X34318548Y-32581000D01*
X34481452Y-32581000D01*
X34641227Y-32549218D01*
X34791731Y-32486877D01*
X34927181Y-32396372D01*
X35020258Y-32303295D01*
X35073896Y-32298012D01*
X35177948Y-32266448D01*
X35273843Y-32215191D01*
X35357896Y-32146211D01*
X35375185Y-32125144D01*
X37170832Y-30329499D01*
X39721856Y-30329499D01*
X38727852Y-31323504D01*
G37*
X38727852Y-31323504D02*
X38706790Y-31340789D01*
X38659060Y-31398949D01*
X38637809Y-31424843D01*
X38586552Y-31520738D01*
X38568698Y-31579596D01*
X38555123Y-31624349D01*
X38554989Y-31624790D01*
X38544330Y-31733000D01*
X38547001Y-31760116D01*
X38547000Y-34753894D01*
X38544330Y-34781000D01*
X38547000Y-34808106D01*
X38547000Y-34808108D01*
X38554988Y-34889210D01*
X38586552Y-34993262D01*
X38637809Y-35089158D01*
X38706789Y-35173211D01*
X38727857Y-35190501D01*
X43627001Y-40089646D01*
X43627000Y-40590004D01*
X43551372Y-40476819D01*
X43436181Y-40361628D01*
X43300731Y-40271123D01*
X43150227Y-40208782D01*
X42990452Y-40177000D01*
X42827548Y-40177000D01*
X42667773Y-40208782D01*
X42517269Y-40271123D01*
X42433643Y-40327000D01*
X38241122Y-40327000D01*
X33117840Y-35203718D01*
X33098218Y-35105073D01*
X33035877Y-34954569D01*
X32980000Y-34870943D01*
X32980000Y-31570422D01*
X33670154Y-30880268D01*
X33757628Y-31011181D01*
X33865447Y-31119000D01*
X33757628Y-31226819D01*
X33667123Y-31362269D01*
X33604782Y-31512773D01*
X33573000Y-31672548D01*
X33573000Y-31835452D01*
X33604782Y-31995227D01*
X33667123Y-32145731D01*
X33757628Y-32281181D01*
X33872819Y-32396372D01*
X34008269Y-32486877D01*
X34158773Y-32549218D01*
X34318548Y-32581000D01*
X34481452Y-32581000D01*
X34641227Y-32549218D01*
X34791731Y-32486877D01*
X34927181Y-32396372D01*
X35020258Y-32303295D01*
X35073896Y-32298012D01*
X35177948Y-32266448D01*
X35273843Y-32215191D01*
X35357896Y-32146211D01*
X35375185Y-32125144D01*
X37170832Y-30329499D01*
X39721856Y-30329499D01*
X38727852Y-31323504D01*
G36*
X81961723Y-40160751D02*
G01*
X82043565Y-40161980D01*
X82042787Y-40213777D01*
X82061892Y-40317982D01*
X81889072Y-40145162D01*
X81961723Y-40160751D01*
G37*
X81961723Y-40160751D02*
X82043565Y-40161980D01*
X82042787Y-40213777D01*
X82061892Y-40317982D01*
X81889072Y-40145162D01*
X81961723Y-40160751D01*
G36*
X86096962Y-40317528D02*
G01*
X86112551Y-40244877D01*
X86113780Y-40163035D01*
X86165577Y-40163813D01*
X86269782Y-40144708D01*
X86096962Y-40317528D01*
G37*
X86096962Y-40317528D02*
X86112551Y-40244877D01*
X86113780Y-40163035D01*
X86165577Y-40163813D01*
X86269782Y-40144708D01*
X86096962Y-40317528D01*
G36*
X120224200Y-40286334D02*
G01*
X119930200Y-40286334D01*
X119930200Y-40244466D01*
X120224200Y-40244466D01*
X120224200Y-40286334D01*
G37*
X120224200Y-40286334D02*
X119930200Y-40286334D01*
X119930200Y-40244466D01*
X120224200Y-40244466D01*
X120224200Y-40286334D01*
G36*
X43917628Y-30824819D02*
G01*
X43827123Y-30960269D01*
X43764782Y-31110773D01*
X43733000Y-31270548D01*
X43733000Y-31433452D01*
X43764782Y-31593227D01*
X43827123Y-31743731D01*
X43917628Y-31879181D01*
X44032819Y-31994372D01*
X44168269Y-32084877D01*
X44318773Y-32147218D01*
X44478548Y-32179000D01*
X44641452Y-32179000D01*
X44801227Y-32147218D01*
X44951731Y-32084877D01*
X45087181Y-31994372D01*
X45177553Y-31904000D01*
X46140447Y-31904000D01*
X46076628Y-31967819D01*
X45986123Y-32103269D01*
X45923782Y-32253773D01*
X45892000Y-32413548D01*
X45892000Y-32576452D01*
X45923782Y-32736227D01*
X45986123Y-32886731D01*
X46076628Y-33022181D01*
X46191819Y-33137372D01*
X46327269Y-33227877D01*
X46477773Y-33290218D01*
X46637548Y-33322000D01*
X46765356Y-33322000D01*
X48294535Y-34851181D01*
X48311817Y-34872239D01*
X48395870Y-34941219D01*
X48491765Y-34992476D01*
X48595817Y-35024040D01*
X48639983Y-35028390D01*
X48704028Y-35034698D01*
X48731137Y-35032028D01*
X57043479Y-35032028D01*
X57687053Y-35675602D01*
X57630269Y-35699123D01*
X57494819Y-35789628D01*
X57379628Y-35904819D01*
X57289123Y-36040269D01*
X57226782Y-36190773D01*
X57195000Y-36350548D01*
X57195000Y-36513452D01*
X57226782Y-36673227D01*
X57289123Y-36823731D01*
X57337412Y-36896000D01*
X48271507Y-36896000D01*
X48244409Y-36893331D01*
X48217311Y-36896000D01*
X48217301Y-36896000D01*
X48136199Y-36903988D01*
X48032147Y-36935552D01*
X47936252Y-36986809D01*
X47852199Y-37055789D01*
X47834918Y-37076846D01*
X44731000Y-40180765D01*
X44731000Y-39888106D01*
X44733670Y-39861000D01*
X44729513Y-39818795D01*
X44723012Y-39752789D01*
X44691448Y-39648737D01*
X44640191Y-39552842D01*
X44571211Y-39468789D01*
X44550149Y-39451504D01*
X39651000Y-34552356D01*
X39651000Y-31961644D01*
X40833137Y-30779509D01*
X43962938Y-30779509D01*
X43917628Y-30824819D01*
G37*
X43917628Y-30824819D02*
X43827123Y-30960269D01*
X43764782Y-31110773D01*
X43733000Y-31270548D01*
X43733000Y-31433452D01*
X43764782Y-31593227D01*
X43827123Y-31743731D01*
X43917628Y-31879181D01*
X44032819Y-31994372D01*
X44168269Y-32084877D01*
X44318773Y-32147218D01*
X44478548Y-32179000D01*
X44641452Y-32179000D01*
X44801227Y-32147218D01*
X44951731Y-32084877D01*
X45087181Y-31994372D01*
X45177553Y-31904000D01*
X46140447Y-31904000D01*
X46076628Y-31967819D01*
X45986123Y-32103269D01*
X45923782Y-32253773D01*
X45892000Y-32413548D01*
X45892000Y-32576452D01*
X45923782Y-32736227D01*
X45986123Y-32886731D01*
X46076628Y-33022181D01*
X46191819Y-33137372D01*
X46327269Y-33227877D01*
X46477773Y-33290218D01*
X46637548Y-33322000D01*
X46765356Y-33322000D01*
X48294535Y-34851181D01*
X48311817Y-34872239D01*
X48395870Y-34941219D01*
X48491765Y-34992476D01*
X48595817Y-35024040D01*
X48639983Y-35028390D01*
X48704028Y-35034698D01*
X48731137Y-35032028D01*
X57043479Y-35032028D01*
X57687053Y-35675602D01*
X57630269Y-35699123D01*
X57494819Y-35789628D01*
X57379628Y-35904819D01*
X57289123Y-36040269D01*
X57226782Y-36190773D01*
X57195000Y-36350548D01*
X57195000Y-36513452D01*
X57226782Y-36673227D01*
X57289123Y-36823731D01*
X57337412Y-36896000D01*
X48271507Y-36896000D01*
X48244409Y-36893331D01*
X48217311Y-36896000D01*
X48217301Y-36896000D01*
X48136199Y-36903988D01*
X48032147Y-36935552D01*
X47936252Y-36986809D01*
X47852199Y-37055789D01*
X47834918Y-37076846D01*
X44731000Y-40180765D01*
X44731000Y-39888106D01*
X44733670Y-39861000D01*
X44729513Y-39818795D01*
X44723012Y-39752789D01*
X44691448Y-39648737D01*
X44640191Y-39552842D01*
X44571211Y-39468789D01*
X44550149Y-39451504D01*
X39651000Y-34552356D01*
X39651000Y-31961644D01*
X40833137Y-30779509D01*
X43962938Y-30779509D01*
X43917628Y-30824819D01*
G36*
X82045849Y-36009923D02*
G01*
X82044620Y-36091765D01*
X81992823Y-36090987D01*
X81888618Y-36110092D01*
X82061438Y-35937272D01*
X82045849Y-36009923D01*
G37*
X82045849Y-36009923D02*
X82044620Y-36091765D01*
X81992823Y-36090987D01*
X81888618Y-36110092D01*
X82061438Y-35937272D01*
X82045849Y-36009923D01*
G36*
X86269328Y-36109638D02*
G01*
X86196677Y-36094049D01*
X86114835Y-36092820D01*
X86115613Y-36041023D01*
X86096508Y-35936818D01*
X86269328Y-36109638D01*
G37*
X86269328Y-36109638D02*
X86196677Y-36094049D01*
X86114835Y-36092820D01*
X86115613Y-36041023D01*
X86096508Y-35936818D01*
X86269328Y-36109638D01*
G36*
X67039000Y-32058356D02*
G01*
X66609500Y-31628856D01*
X66592211Y-31607789D01*
X66508158Y-31538809D01*
X66412263Y-31487552D01*
X66308211Y-31455988D01*
X66227109Y-31448000D01*
X66227106Y-31448000D01*
X66200000Y-31445330D01*
X66172894Y-31448000D01*
X66017553Y-31448000D01*
X65927181Y-31357628D01*
X65791731Y-31267123D01*
X65641227Y-31204782D01*
X65481452Y-31173000D01*
X65318548Y-31173000D01*
X65158773Y-31204782D01*
X65008269Y-31267123D01*
X64872819Y-31357628D01*
X64757628Y-31472819D01*
X64667123Y-31608269D01*
X64604782Y-31758773D01*
X64573000Y-31918548D01*
X64573000Y-32081452D01*
X64591210Y-32173000D01*
X64518548Y-32173000D01*
X64358773Y-32204782D01*
X64208269Y-32267123D01*
X64072819Y-32357628D01*
X63957628Y-32472819D01*
X63867123Y-32608269D01*
X63804782Y-32758773D01*
X63773000Y-32918548D01*
X63773000Y-33081452D01*
X63804782Y-33241227D01*
X63867123Y-33391731D01*
X63957628Y-33527181D01*
X64072819Y-33642372D01*
X64208269Y-33732877D01*
X64358773Y-33795218D01*
X64518548Y-33827000D01*
X64681452Y-33827000D01*
X64841227Y-33795218D01*
X64963801Y-33744446D01*
X65079937Y-33860583D01*
X65097219Y-33881641D01*
X65118275Y-33898921D01*
X65118276Y-33898922D01*
X65181272Y-33950621D01*
X65277167Y-34001878D01*
X65381219Y-34033442D01*
X65489430Y-34044100D01*
X65516538Y-34041430D01*
X67039000Y-34041430D01*
X67039000Y-35545970D01*
X59755121Y-35545970D01*
X58010483Y-33801334D01*
X58041227Y-33795218D01*
X58191731Y-33732877D01*
X58327181Y-33642372D01*
X58442372Y-33527181D01*
X58532877Y-33391731D01*
X58595218Y-33241227D01*
X58627000Y-33081452D01*
X58627000Y-32918548D01*
X58595218Y-32758773D01*
X58532877Y-32608269D01*
X58442372Y-32472819D01*
X58352000Y-32382447D01*
X58352000Y-32049604D01*
X59873000Y-32049604D01*
X59873000Y-32350396D01*
X59931681Y-32645410D01*
X60046790Y-32923306D01*
X60213901Y-33173406D01*
X60426594Y-33386099D01*
X60676694Y-33553210D01*
X60954590Y-33668319D01*
X61249604Y-33727000D01*
X61550396Y-33727000D01*
X61845410Y-33668319D01*
X62123306Y-33553210D01*
X62373406Y-33386099D01*
X62586099Y-33173406D01*
X62753210Y-32923306D01*
X62868319Y-32645410D01*
X62927000Y-32350396D01*
X62927000Y-32049604D01*
X62868319Y-31754590D01*
X62753210Y-31476694D01*
X62586099Y-31226594D01*
X62373406Y-31013901D01*
X62123306Y-30846790D01*
X61845410Y-30731681D01*
X61550396Y-30673000D01*
X61249604Y-30673000D01*
X60954590Y-30731681D01*
X60676694Y-30846790D01*
X60426594Y-31013901D01*
X60213901Y-31226594D01*
X60046790Y-31476694D01*
X59931681Y-31754590D01*
X59873000Y-32049604D01*
X58352000Y-32049604D01*
X58352000Y-27028645D01*
X58592595Y-26788050D01*
X67039000Y-26788050D01*
X67039000Y-32058356D01*
G37*
X67039000Y-32058356D02*
X66609500Y-31628856D01*
X66592211Y-31607789D01*
X66508158Y-31538809D01*
X66412263Y-31487552D01*
X66308211Y-31455988D01*
X66227109Y-31448000D01*
X66227106Y-31448000D01*
X66200000Y-31445330D01*
X66172894Y-31448000D01*
X66017553Y-31448000D01*
X65927181Y-31357628D01*
X65791731Y-31267123D01*
X65641227Y-31204782D01*
X65481452Y-31173000D01*
X65318548Y-31173000D01*
X65158773Y-31204782D01*
X65008269Y-31267123D01*
X64872819Y-31357628D01*
X64757628Y-31472819D01*
X64667123Y-31608269D01*
X64604782Y-31758773D01*
X64573000Y-31918548D01*
X64573000Y-32081452D01*
X64591210Y-32173000D01*
X64518548Y-32173000D01*
X64358773Y-32204782D01*
X64208269Y-32267123D01*
X64072819Y-32357628D01*
X63957628Y-32472819D01*
X63867123Y-32608269D01*
X63804782Y-32758773D01*
X63773000Y-32918548D01*
X63773000Y-33081452D01*
X63804782Y-33241227D01*
X63867123Y-33391731D01*
X63957628Y-33527181D01*
X64072819Y-33642372D01*
X64208269Y-33732877D01*
X64358773Y-33795218D01*
X64518548Y-33827000D01*
X64681452Y-33827000D01*
X64841227Y-33795218D01*
X64963801Y-33744446D01*
X65079937Y-33860583D01*
X65097219Y-33881641D01*
X65118275Y-33898921D01*
X65118276Y-33898922D01*
X65181272Y-33950621D01*
X65277167Y-34001878D01*
X65381219Y-34033442D01*
X65489430Y-34044100D01*
X65516538Y-34041430D01*
X67039000Y-34041430D01*
X67039000Y-35545970D01*
X59755121Y-35545970D01*
X58010483Y-33801334D01*
X58041227Y-33795218D01*
X58191731Y-33732877D01*
X58327181Y-33642372D01*
X58442372Y-33527181D01*
X58532877Y-33391731D01*
X58595218Y-33241227D01*
X58627000Y-33081452D01*
X58627000Y-32918548D01*
X58595218Y-32758773D01*
X58532877Y-32608269D01*
X58442372Y-32472819D01*
X58352000Y-32382447D01*
X58352000Y-32049604D01*
X59873000Y-32049604D01*
X59873000Y-32350396D01*
X59931681Y-32645410D01*
X60046790Y-32923306D01*
X60213901Y-33173406D01*
X60426594Y-33386099D01*
X60676694Y-33553210D01*
X60954590Y-33668319D01*
X61249604Y-33727000D01*
X61550396Y-33727000D01*
X61845410Y-33668319D01*
X62123306Y-33553210D01*
X62373406Y-33386099D01*
X62586099Y-33173406D01*
X62753210Y-32923306D01*
X62868319Y-32645410D01*
X62927000Y-32350396D01*
X62927000Y-32049604D01*
X62868319Y-31754590D01*
X62753210Y-31476694D01*
X62586099Y-31226594D01*
X62373406Y-31013901D01*
X62123306Y-30846790D01*
X61845410Y-30731681D01*
X61550396Y-30673000D01*
X61249604Y-30673000D01*
X60954590Y-30731681D01*
X60676694Y-30846790D01*
X60426594Y-31013901D01*
X60213901Y-31226594D01*
X60046790Y-31476694D01*
X59931681Y-31754590D01*
X59873000Y-32049604D01*
X58352000Y-32049604D01*
X58352000Y-27028645D01*
X58592595Y-26788050D01*
X67039000Y-26788050D01*
X67039000Y-32058356D01*
G36*
X123612585Y-32064230D02*
G01*
X123619681Y-33710492D01*
X123603422Y-33680073D01*
X123568736Y-33637808D01*
X123551723Y-33617077D01*
X123551722Y-33617076D01*
X123534442Y-33596020D01*
X123513385Y-33578739D01*
X123212600Y-33277955D01*
X123212600Y-33150148D01*
X123180818Y-32990373D01*
X123118477Y-32839869D01*
X123027972Y-32704419D01*
X122912781Y-32589228D01*
X122812018Y-32521900D01*
X122936952Y-32521900D01*
X123096727Y-32490118D01*
X123247231Y-32427777D01*
X123382681Y-32337272D01*
X123497872Y-32222081D01*
X123588377Y-32086631D01*
X123602029Y-32053673D01*
X123612585Y-32064230D01*
G37*
X123612585Y-32064230D02*
X123619681Y-33710492D01*
X123603422Y-33680073D01*
X123568736Y-33637808D01*
X123551723Y-33617077D01*
X123551722Y-33617076D01*
X123534442Y-33596020D01*
X123513385Y-33578739D01*
X123212600Y-33277955D01*
X123212600Y-33150148D01*
X123180818Y-32990373D01*
X123118477Y-32839869D01*
X123027972Y-32704419D01*
X122912781Y-32589228D01*
X122812018Y-32521900D01*
X122936952Y-32521900D01*
X123096727Y-32490118D01*
X123247231Y-32427777D01*
X123382681Y-32337272D01*
X123497872Y-32222081D01*
X123588377Y-32086631D01*
X123602029Y-32053673D01*
X123612585Y-32064230D01*
G36*
X120224200Y-33686334D02*
G01*
X119930200Y-33686334D01*
X119930200Y-33644466D01*
X120224200Y-33644466D01*
X120224200Y-33686334D01*
G37*
X120224200Y-33686334D02*
X119930200Y-33686334D01*
X119930200Y-33644466D01*
X120224200Y-33644466D01*
X120224200Y-33686334D01*
G36*
X57428856Y-26390500D02*
G01*
X57407789Y-26407789D01*
X57338809Y-26491842D01*
X57287552Y-26587738D01*
X57255988Y-26691790D01*
X57248000Y-26772891D01*
X57245330Y-26800000D01*
X57248000Y-26827106D01*
X57248001Y-32382446D01*
X57157628Y-32472819D01*
X57067123Y-32608269D01*
X57004782Y-32758773D01*
X56973000Y-32918548D01*
X56973000Y-33081452D01*
X57004782Y-33241227D01*
X57067123Y-33391731D01*
X57118411Y-33468489D01*
X50503696Y-33467051D01*
X48017500Y-30980856D01*
X48000211Y-30959789D01*
X47916158Y-30890809D01*
X47820263Y-30839552D01*
X47716211Y-30807988D01*
X47635109Y-30800000D01*
X47635106Y-30800000D01*
X47608000Y-30797330D01*
X47580894Y-30800000D01*
X45177553Y-30800000D01*
X45157062Y-30779509D01*
X51945385Y-30779509D01*
X51972491Y-30782179D01*
X51999597Y-30779509D01*
X51999600Y-30779509D01*
X52080702Y-30771521D01*
X52184754Y-30739957D01*
X52280649Y-30688700D01*
X52364702Y-30619720D01*
X52381992Y-30598652D01*
X55184001Y-27796644D01*
X55184000Y-31115447D01*
X55093628Y-31205819D01*
X55003123Y-31341269D01*
X54940782Y-31491773D01*
X54909000Y-31651548D01*
X54909000Y-31814452D01*
X54940782Y-31974227D01*
X55003123Y-32124731D01*
X55093628Y-32260181D01*
X55208819Y-32375372D01*
X55344269Y-32465877D01*
X55494773Y-32528218D01*
X55654548Y-32560000D01*
X55817452Y-32560000D01*
X55977227Y-32528218D01*
X56127731Y-32465877D01*
X56263181Y-32375372D01*
X56378372Y-32260181D01*
X56468877Y-32124731D01*
X56531218Y-31974227D01*
X56563000Y-31814452D01*
X56563000Y-31651548D01*
X56531218Y-31491773D01*
X56468877Y-31341269D01*
X56378372Y-31205819D01*
X56288000Y-31115447D01*
X56288000Y-27492644D01*
X57409491Y-26371154D01*
X57409495Y-26371149D01*
X57442604Y-26338040D01*
X57481316Y-26338040D01*
X57428856Y-26390500D01*
G37*
X57428856Y-26390500D02*
X57407789Y-26407789D01*
X57338809Y-26491842D01*
X57287552Y-26587738D01*
X57255988Y-26691790D01*
X57248000Y-26772891D01*
X57245330Y-26800000D01*
X57248000Y-26827106D01*
X57248001Y-32382446D01*
X57157628Y-32472819D01*
X57067123Y-32608269D01*
X57004782Y-32758773D01*
X56973000Y-32918548D01*
X56973000Y-33081452D01*
X57004782Y-33241227D01*
X57067123Y-33391731D01*
X57118411Y-33468489D01*
X50503696Y-33467051D01*
X48017500Y-30980856D01*
X48000211Y-30959789D01*
X47916158Y-30890809D01*
X47820263Y-30839552D01*
X47716211Y-30807988D01*
X47635109Y-30800000D01*
X47635106Y-30800000D01*
X47608000Y-30797330D01*
X47580894Y-30800000D01*
X45177553Y-30800000D01*
X45157062Y-30779509D01*
X51945385Y-30779509D01*
X51972491Y-30782179D01*
X51999597Y-30779509D01*
X51999600Y-30779509D01*
X52080702Y-30771521D01*
X52184754Y-30739957D01*
X52280649Y-30688700D01*
X52364702Y-30619720D01*
X52381992Y-30598652D01*
X55184001Y-27796644D01*
X55184000Y-31115447D01*
X55093628Y-31205819D01*
X55003123Y-31341269D01*
X54940782Y-31491773D01*
X54909000Y-31651548D01*
X54909000Y-31814452D01*
X54940782Y-31974227D01*
X55003123Y-32124731D01*
X55093628Y-32260181D01*
X55208819Y-32375372D01*
X55344269Y-32465877D01*
X55494773Y-32528218D01*
X55654548Y-32560000D01*
X55817452Y-32560000D01*
X55977227Y-32528218D01*
X56127731Y-32465877D01*
X56263181Y-32375372D01*
X56378372Y-32260181D01*
X56468877Y-32124731D01*
X56531218Y-31974227D01*
X56563000Y-31814452D01*
X56563000Y-31651548D01*
X56531218Y-31491773D01*
X56468877Y-31341269D01*
X56378372Y-31205819D01*
X56288000Y-31115447D01*
X56288000Y-27492644D01*
X57409491Y-26371154D01*
X57409495Y-26371149D01*
X57442604Y-26338040D01*
X57481316Y-26338040D01*
X57428856Y-26390500D01*
G36*
X82731292Y-32421168D02*
G01*
X82748568Y-32442219D01*
X82769619Y-32459495D01*
X82769625Y-32459501D01*
X82803645Y-32487420D01*
X78816200Y-32487420D01*
X78816200Y-28506075D01*
X82731292Y-32421168D01*
G37*
X82731292Y-32421168D02*
X82748568Y-32442219D01*
X82769619Y-32459495D01*
X82769625Y-32459501D01*
X82803645Y-32487420D01*
X78816200Y-32487420D01*
X78816200Y-28506075D01*
X82731292Y-32421168D01*
G36*
X120224200Y-31886334D02*
G01*
X119930200Y-31886334D01*
X119930200Y-31844466D01*
X120224200Y-31844466D01*
X120224200Y-31886334D01*
G37*
X120224200Y-31886334D02*
X119930200Y-31886334D01*
X119930200Y-31844466D01*
X120224200Y-31844466D01*
X120224200Y-31886334D01*
G36*
X86568508Y-28802154D02*
G01*
X86585789Y-28823211D01*
X86606845Y-28840491D01*
X86669841Y-28892191D01*
X86719934Y-28918966D01*
X86765737Y-28943448D01*
X86869789Y-28975012D01*
X86950891Y-28983000D01*
X86950901Y-28983000D01*
X86977999Y-28985669D01*
X87005097Y-28983000D01*
X101346447Y-28983000D01*
X101436819Y-29073372D01*
X101572269Y-29163877D01*
X101722773Y-29226218D01*
X101882548Y-29258000D01*
X102045452Y-29258000D01*
X102205227Y-29226218D01*
X102355731Y-29163877D01*
X102491181Y-29073372D01*
X102606372Y-28958181D01*
X102696877Y-28822731D01*
X102759218Y-28672227D01*
X102791000Y-28512452D01*
X102791000Y-28349548D01*
X102759218Y-28189773D01*
X102696877Y-28039269D01*
X102606372Y-27903819D01*
X102491181Y-27788628D01*
X102355731Y-27698123D01*
X102205227Y-27635782D01*
X102045452Y-27604000D01*
X101882548Y-27604000D01*
X101722773Y-27635782D01*
X101572269Y-27698123D01*
X101436819Y-27788628D01*
X101346447Y-27879000D01*
X87206646Y-27879000D01*
X86149645Y-26822000D01*
X94122643Y-26822000D01*
X94206269Y-26877877D01*
X94356773Y-26940218D01*
X94516548Y-26972000D01*
X94679452Y-26972000D01*
X94839227Y-26940218D01*
X94989731Y-26877877D01*
X95073357Y-26822000D01*
X106578001Y-26822000D01*
X106578000Y-28221755D01*
X106574726Y-28255000D01*
X106578000Y-28288245D01*
X106578000Y-28288251D01*
X106585263Y-28361991D01*
X106587796Y-28387714D01*
X106626508Y-28515329D01*
X106689372Y-28632940D01*
X106752698Y-28710102D01*
X106773973Y-28736026D01*
X106799800Y-28757222D01*
X107485160Y-29442582D01*
X107504782Y-29541227D01*
X107567123Y-29691731D01*
X107657628Y-29827181D01*
X107772819Y-29942372D01*
X107908269Y-30032877D01*
X108058773Y-30095218D01*
X108218548Y-30127000D01*
X108381452Y-30127000D01*
X108541227Y-30095218D01*
X108691731Y-30032877D01*
X108827181Y-29942372D01*
X108942372Y-29827181D01*
X108952669Y-29811770D01*
X109593155Y-29811770D01*
X109626400Y-29815044D01*
X109659645Y-29811770D01*
X109659652Y-29811770D01*
X109759115Y-29801974D01*
X109886730Y-29763262D01*
X110004341Y-29700398D01*
X110107427Y-29615797D01*
X110128626Y-29589966D01*
X111425602Y-28292990D01*
X111425601Y-31473157D01*
X111181300Y-31228856D01*
X111164011Y-31207789D01*
X111079958Y-31138809D01*
X110984063Y-31087552D01*
X110880011Y-31055988D01*
X110798909Y-31048000D01*
X110798906Y-31048000D01*
X110771800Y-31045330D01*
X110744694Y-31048000D01*
X97051623Y-31048000D01*
X97076000Y-30925452D01*
X97076000Y-30762548D01*
X97044218Y-30602773D01*
X96981877Y-30452269D01*
X96891372Y-30316819D01*
X96776181Y-30201628D01*
X96640731Y-30111123D01*
X96490227Y-30048782D01*
X96330452Y-30017000D01*
X96167548Y-30017000D01*
X96007773Y-30048782D01*
X95857269Y-30111123D01*
X95721819Y-30201628D01*
X95631447Y-30292000D01*
X83436235Y-30292000D01*
X80820235Y-27676001D01*
X81526893Y-27676001D01*
X81553999Y-27678671D01*
X81581105Y-27676001D01*
X81581108Y-27676001D01*
X81662210Y-27668013D01*
X81766262Y-27636449D01*
X81862157Y-27585192D01*
X81946210Y-27516212D01*
X81963499Y-27495145D01*
X82232645Y-27226000D01*
X82360452Y-27226000D01*
X82520227Y-27194218D01*
X82670731Y-27131877D01*
X82806181Y-27041372D01*
X82921372Y-26926181D01*
X83011877Y-26790731D01*
X83074218Y-26640227D01*
X83106000Y-26480452D01*
X83106000Y-26317548D01*
X83074218Y-26157773D01*
X83011877Y-26007269D01*
X82921372Y-25871819D01*
X82806181Y-25756628D01*
X82670731Y-25666123D01*
X82520227Y-25603782D01*
X82360452Y-25572000D01*
X82197548Y-25572000D01*
X82037773Y-25603782D01*
X81887269Y-25666123D01*
X81751819Y-25756628D01*
X81644000Y-25864447D01*
X81536181Y-25756628D01*
X81400731Y-25666123D01*
X81250227Y-25603782D01*
X81090452Y-25572000D01*
X80962646Y-25572000D01*
X79928645Y-24538000D01*
X82304356Y-24538000D01*
X86568508Y-28802154D01*
G37*
X86568508Y-28802154D02*
X86585789Y-28823211D01*
X86606845Y-28840491D01*
X86669841Y-28892191D01*
X86719934Y-28918966D01*
X86765737Y-28943448D01*
X86869789Y-28975012D01*
X86950891Y-28983000D01*
X86950901Y-28983000D01*
X86977999Y-28985669D01*
X87005097Y-28983000D01*
X101346447Y-28983000D01*
X101436819Y-29073372D01*
X101572269Y-29163877D01*
X101722773Y-29226218D01*
X101882548Y-29258000D01*
X102045452Y-29258000D01*
X102205227Y-29226218D01*
X102355731Y-29163877D01*
X102491181Y-29073372D01*
X102606372Y-28958181D01*
X102696877Y-28822731D01*
X102759218Y-28672227D01*
X102791000Y-28512452D01*
X102791000Y-28349548D01*
X102759218Y-28189773D01*
X102696877Y-28039269D01*
X102606372Y-27903819D01*
X102491181Y-27788628D01*
X102355731Y-27698123D01*
X102205227Y-27635782D01*
X102045452Y-27604000D01*
X101882548Y-27604000D01*
X101722773Y-27635782D01*
X101572269Y-27698123D01*
X101436819Y-27788628D01*
X101346447Y-27879000D01*
X87206646Y-27879000D01*
X86149645Y-26822000D01*
X94122643Y-26822000D01*
X94206269Y-26877877D01*
X94356773Y-26940218D01*
X94516548Y-26972000D01*
X94679452Y-26972000D01*
X94839227Y-26940218D01*
X94989731Y-26877877D01*
X95073357Y-26822000D01*
X106578001Y-26822000D01*
X106578000Y-28221755D01*
X106574726Y-28255000D01*
X106578000Y-28288245D01*
X106578000Y-28288251D01*
X106585263Y-28361991D01*
X106587796Y-28387714D01*
X106626508Y-28515329D01*
X106689372Y-28632940D01*
X106752698Y-28710102D01*
X106773973Y-28736026D01*
X106799800Y-28757222D01*
X107485160Y-29442582D01*
X107504782Y-29541227D01*
X107567123Y-29691731D01*
X107657628Y-29827181D01*
X107772819Y-29942372D01*
X107908269Y-30032877D01*
X108058773Y-30095218D01*
X108218548Y-30127000D01*
X108381452Y-30127000D01*
X108541227Y-30095218D01*
X108691731Y-30032877D01*
X108827181Y-29942372D01*
X108942372Y-29827181D01*
X108952669Y-29811770D01*
X109593155Y-29811770D01*
X109626400Y-29815044D01*
X109659645Y-29811770D01*
X109659652Y-29811770D01*
X109759115Y-29801974D01*
X109886730Y-29763262D01*
X110004341Y-29700398D01*
X110107427Y-29615797D01*
X110128626Y-29589966D01*
X111425602Y-28292990D01*
X111425601Y-31473157D01*
X111181300Y-31228856D01*
X111164011Y-31207789D01*
X111079958Y-31138809D01*
X110984063Y-31087552D01*
X110880011Y-31055988D01*
X110798909Y-31048000D01*
X110798906Y-31048000D01*
X110771800Y-31045330D01*
X110744694Y-31048000D01*
X97051623Y-31048000D01*
X97076000Y-30925452D01*
X97076000Y-30762548D01*
X97044218Y-30602773D01*
X96981877Y-30452269D01*
X96891372Y-30316819D01*
X96776181Y-30201628D01*
X96640731Y-30111123D01*
X96490227Y-30048782D01*
X96330452Y-30017000D01*
X96167548Y-30017000D01*
X96007773Y-30048782D01*
X95857269Y-30111123D01*
X95721819Y-30201628D01*
X95631447Y-30292000D01*
X83436235Y-30292000D01*
X80820235Y-27676001D01*
X81526893Y-27676001D01*
X81553999Y-27678671D01*
X81581105Y-27676001D01*
X81581108Y-27676001D01*
X81662210Y-27668013D01*
X81766262Y-27636449D01*
X81862157Y-27585192D01*
X81946210Y-27516212D01*
X81963499Y-27495145D01*
X82232645Y-27226000D01*
X82360452Y-27226000D01*
X82520227Y-27194218D01*
X82670731Y-27131877D01*
X82806181Y-27041372D01*
X82921372Y-26926181D01*
X83011877Y-26790731D01*
X83074218Y-26640227D01*
X83106000Y-26480452D01*
X83106000Y-26317548D01*
X83074218Y-26157773D01*
X83011877Y-26007269D01*
X82921372Y-25871819D01*
X82806181Y-25756628D01*
X82670731Y-25666123D01*
X82520227Y-25603782D01*
X82360452Y-25572000D01*
X82197548Y-25572000D01*
X82037773Y-25603782D01*
X81887269Y-25666123D01*
X81751819Y-25756628D01*
X81644000Y-25864447D01*
X81536181Y-25756628D01*
X81400731Y-25666123D01*
X81250227Y-25603782D01*
X81090452Y-25572000D01*
X80962646Y-25572000D01*
X79928645Y-24538000D01*
X82304356Y-24538000D01*
X86568508Y-28802154D01*
G36*
X48051000Y-23904548D02*
G01*
X48051000Y-24067452D01*
X48082782Y-24227227D01*
X48145123Y-24377731D01*
X48235628Y-24513181D01*
X48350819Y-24628372D01*
X48486269Y-24718877D01*
X48636773Y-24781218D01*
X48796548Y-24813000D01*
X48959452Y-24813000D01*
X49119227Y-24781218D01*
X49269731Y-24718877D01*
X49405181Y-24628372D01*
X49495553Y-24538000D01*
X55481355Y-24538000D01*
X51244114Y-28775242D01*
X46330731Y-28769929D01*
X46353092Y-28760667D01*
X46427275Y-28721016D01*
X46508774Y-28666560D01*
X46573792Y-28613200D01*
X46643100Y-28543892D01*
X46696460Y-28478874D01*
X46750916Y-28397375D01*
X46790567Y-28323192D01*
X46828076Y-28232636D01*
X46852492Y-28152148D01*
X46871614Y-28056015D01*
X46879858Y-27972309D01*
X46879858Y-27947750D01*
X46882266Y-27923300D01*
X46882266Y-27423300D01*
X46879858Y-27398850D01*
X46879858Y-27374291D01*
X46871614Y-27290585D01*
X46852492Y-27194452D01*
X46828076Y-27113964D01*
X46790567Y-27023408D01*
X46750916Y-26949225D01*
X46696460Y-26867726D01*
X46643100Y-26802708D01*
X46573792Y-26733400D01*
X46508774Y-26680040D01*
X46505200Y-26677652D01*
X46505200Y-23812999D01*
X48069211Y-23812999D01*
X48051000Y-23904548D01*
G37*
X48051000Y-23904548D02*
X48051000Y-24067452D01*
X48082782Y-24227227D01*
X48145123Y-24377731D01*
X48235628Y-24513181D01*
X48350819Y-24628372D01*
X48486269Y-24718877D01*
X48636773Y-24781218D01*
X48796548Y-24813000D01*
X48959452Y-24813000D01*
X49119227Y-24781218D01*
X49269731Y-24718877D01*
X49405181Y-24628372D01*
X49495553Y-24538000D01*
X55481355Y-24538000D01*
X51244114Y-28775242D01*
X46330731Y-28769929D01*
X46353092Y-28760667D01*
X46427275Y-28721016D01*
X46508774Y-28666560D01*
X46573792Y-28613200D01*
X46643100Y-28543892D01*
X46696460Y-28478874D01*
X46750916Y-28397375D01*
X46790567Y-28323192D01*
X46828076Y-28232636D01*
X46852492Y-28152148D01*
X46871614Y-28056015D01*
X46879858Y-27972309D01*
X46879858Y-27947750D01*
X46882266Y-27923300D01*
X46882266Y-27423300D01*
X46879858Y-27398850D01*
X46879858Y-27374291D01*
X46871614Y-27290585D01*
X46852492Y-27194452D01*
X46828076Y-27113964D01*
X46790567Y-27023408D01*
X46750916Y-26949225D01*
X46696460Y-26867726D01*
X46643100Y-26802708D01*
X46573792Y-26733400D01*
X46508774Y-26680040D01*
X46505200Y-26677652D01*
X46505200Y-23812999D01*
X48069211Y-23812999D01*
X48051000Y-23904548D01*
G36*
X43143819Y-23851628D02*
G01*
X43028628Y-23966819D01*
X42938123Y-24102269D01*
X42875782Y-24252773D01*
X42844000Y-24412548D01*
X42844000Y-24575452D01*
X42875782Y-24735227D01*
X42938123Y-24885731D01*
X43028628Y-25021181D01*
X43143819Y-25136372D01*
X43279269Y-25226877D01*
X43429773Y-25289218D01*
X43589548Y-25321000D01*
X43717355Y-25321000D01*
X44101201Y-25704847D01*
X44101201Y-26499355D01*
X44069493Y-26502478D01*
X44028200Y-26515005D01*
X43986907Y-26502478D01*
X43903200Y-26494234D01*
X43353200Y-26494234D01*
X43328750Y-26496642D01*
X43304191Y-26496642D01*
X43220485Y-26504886D01*
X43124352Y-26524008D01*
X43043864Y-26548424D01*
X42953308Y-26585933D01*
X42879125Y-26625584D01*
X42797626Y-26680040D01*
X42732608Y-26733400D01*
X42663300Y-26802708D01*
X42609940Y-26867726D01*
X42555484Y-26949225D01*
X42515833Y-27023408D01*
X42478324Y-27113964D01*
X42476099Y-27121300D01*
X37429122Y-27121300D01*
X38458223Y-26092199D01*
X40737424Y-23812999D01*
X43201631Y-23812999D01*
X43143819Y-23851628D01*
G37*
X43143819Y-23851628D02*
X43028628Y-23966819D01*
X42938123Y-24102269D01*
X42875782Y-24252773D01*
X42844000Y-24412548D01*
X42844000Y-24575452D01*
X42875782Y-24735227D01*
X42938123Y-24885731D01*
X43028628Y-25021181D01*
X43143819Y-25136372D01*
X43279269Y-25226877D01*
X43429773Y-25289218D01*
X43589548Y-25321000D01*
X43717355Y-25321000D01*
X44101201Y-25704847D01*
X44101201Y-26499355D01*
X44069493Y-26502478D01*
X44028200Y-26515005D01*
X43986907Y-26502478D01*
X43903200Y-26494234D01*
X43353200Y-26494234D01*
X43328750Y-26496642D01*
X43304191Y-26496642D01*
X43220485Y-26504886D01*
X43124352Y-26524008D01*
X43043864Y-26548424D01*
X42953308Y-26585933D01*
X42879125Y-26625584D01*
X42797626Y-26680040D01*
X42732608Y-26733400D01*
X42663300Y-26802708D01*
X42609940Y-26867726D01*
X42555484Y-26949225D01*
X42515833Y-27023408D01*
X42478324Y-27113964D01*
X42476099Y-27121300D01*
X37429122Y-27121300D01*
X38458223Y-26092199D01*
X40737424Y-23812999D01*
X43201631Y-23812999D01*
X43143819Y-23851628D01*
M02*
