G04 #@! TF.GenerationSoftware,KiCad,Pcbnew,5.1.5*
G04 #@! TF.CreationDate,2020-03-20T15:58:10+01:00*
G04 #@! TF.ProjectId,epaper-breakout,65706170-6572-42d6-9272-65616b6f7574,rev?*
G04 #@! TF.SameCoordinates,Original*
G04 #@! TF.FileFunction,Legend,Bot*
G04 #@! TF.FilePolarity,Positive*
%FSLAX46Y46*%
G04 Gerber Fmt 4.6, Leading zero omitted, Abs format (unit mm)*
G04 Created by KiCad (PCBNEW 5.1.5) date 2020-03-20 15:58:10*
%MOMM*%
%LPD*%
G04 APERTURE LIST*
%ADD10C,0.150000*%
%ADD11C,0.100000*%
%ADD12C,0.010000*%
%ADD13C,0.200000*%
%ADD14C,0.127000*%
G04 APERTURE END LIST*
D10*
X86138095Y-26121428D02*
X86471428Y-26121428D01*
X86614285Y-25597619D02*
X86138095Y-25597619D01*
X86138095Y-26597619D01*
X86614285Y-26597619D01*
X87042857Y-25597619D02*
X87042857Y-26597619D01*
X87423809Y-26597619D01*
X87519047Y-26550000D01*
X87566666Y-26502380D01*
X87614285Y-26407142D01*
X87614285Y-26264285D01*
X87566666Y-26169047D01*
X87519047Y-26121428D01*
X87423809Y-26073809D01*
X87042857Y-26073809D01*
X88471428Y-25597619D02*
X88471428Y-26121428D01*
X88423809Y-26216666D01*
X88328571Y-26264285D01*
X88138095Y-26264285D01*
X88042857Y-26216666D01*
X88471428Y-25645238D02*
X88376190Y-25597619D01*
X88138095Y-25597619D01*
X88042857Y-25645238D01*
X87995238Y-25740476D01*
X87995238Y-25835714D01*
X88042857Y-25930952D01*
X88138095Y-25978571D01*
X88376190Y-25978571D01*
X88471428Y-26026190D01*
X88947619Y-26264285D02*
X88947619Y-25264285D01*
X88947619Y-26216666D02*
X89042857Y-26264285D01*
X89233333Y-26264285D01*
X89328571Y-26216666D01*
X89376190Y-26169047D01*
X89423809Y-26073809D01*
X89423809Y-25788095D01*
X89376190Y-25692857D01*
X89328571Y-25645238D01*
X89233333Y-25597619D01*
X89042857Y-25597619D01*
X88947619Y-25645238D01*
X90233333Y-25645238D02*
X90138095Y-25597619D01*
X89947619Y-25597619D01*
X89852380Y-25645238D01*
X89804761Y-25740476D01*
X89804761Y-26121428D01*
X89852380Y-26216666D01*
X89947619Y-26264285D01*
X90138095Y-26264285D01*
X90233333Y-26216666D01*
X90280952Y-26121428D01*
X90280952Y-26026190D01*
X89804761Y-25930952D01*
X90709523Y-25597619D02*
X90709523Y-26264285D01*
X90709523Y-26073809D02*
X90757142Y-26169047D01*
X90804761Y-26216666D01*
X90900000Y-26264285D01*
X90995238Y-26264285D01*
X92423809Y-26121428D02*
X92566666Y-26073809D01*
X92614285Y-26026190D01*
X92661904Y-25930952D01*
X92661904Y-25788095D01*
X92614285Y-25692857D01*
X92566666Y-25645238D01*
X92471428Y-25597619D01*
X92090476Y-25597619D01*
X92090476Y-26597619D01*
X92423809Y-26597619D01*
X92519047Y-26550000D01*
X92566666Y-26502380D01*
X92614285Y-26407142D01*
X92614285Y-26311904D01*
X92566666Y-26216666D01*
X92519047Y-26169047D01*
X92423809Y-26121428D01*
X92090476Y-26121428D01*
X93090476Y-25597619D02*
X93090476Y-26264285D01*
X93090476Y-26073809D02*
X93138095Y-26169047D01*
X93185714Y-26216666D01*
X93280952Y-26264285D01*
X93376190Y-26264285D01*
X94090476Y-25645238D02*
X93995238Y-25597619D01*
X93804761Y-25597619D01*
X93709523Y-25645238D01*
X93661904Y-25740476D01*
X93661904Y-26121428D01*
X93709523Y-26216666D01*
X93804761Y-26264285D01*
X93995238Y-26264285D01*
X94090476Y-26216666D01*
X94138095Y-26121428D01*
X94138095Y-26026190D01*
X93661904Y-25930952D01*
X94995238Y-25597619D02*
X94995238Y-26121428D01*
X94947619Y-26216666D01*
X94852380Y-26264285D01*
X94661904Y-26264285D01*
X94566666Y-26216666D01*
X94995238Y-25645238D02*
X94900000Y-25597619D01*
X94661904Y-25597619D01*
X94566666Y-25645238D01*
X94519047Y-25740476D01*
X94519047Y-25835714D01*
X94566666Y-25930952D01*
X94661904Y-25978571D01*
X94900000Y-25978571D01*
X94995238Y-26026190D01*
X95471428Y-25597619D02*
X95471428Y-26597619D01*
X95566666Y-25978571D02*
X95852380Y-25597619D01*
X95852380Y-26264285D02*
X95471428Y-25883333D01*
X96423809Y-25597619D02*
X96328571Y-25645238D01*
X96280952Y-25692857D01*
X96233333Y-25788095D01*
X96233333Y-26073809D01*
X96280952Y-26169047D01*
X96328571Y-26216666D01*
X96423809Y-26264285D01*
X96566666Y-26264285D01*
X96661904Y-26216666D01*
X96709523Y-26169047D01*
X96757142Y-26073809D01*
X96757142Y-25788095D01*
X96709523Y-25692857D01*
X96661904Y-25645238D01*
X96566666Y-25597619D01*
X96423809Y-25597619D01*
X97614285Y-26264285D02*
X97614285Y-25597619D01*
X97185714Y-26264285D02*
X97185714Y-25740476D01*
X97233333Y-25645238D01*
X97328571Y-25597619D01*
X97471428Y-25597619D01*
X97566666Y-25645238D01*
X97614285Y-25692857D01*
X97947619Y-26264285D02*
X98328571Y-26264285D01*
X98090476Y-26597619D02*
X98090476Y-25740476D01*
X98138095Y-25645238D01*
X98233333Y-25597619D01*
X98328571Y-25597619D01*
X99328571Y-26264285D02*
X99566666Y-25597619D01*
X99804761Y-26264285D01*
X100138095Y-26502380D02*
X100185714Y-26550000D01*
X100280952Y-26597619D01*
X100519047Y-26597619D01*
X100614285Y-26550000D01*
X100661904Y-26502380D01*
X100709523Y-26407142D01*
X100709523Y-26311904D01*
X100661904Y-26169047D01*
X100090476Y-25597619D01*
X100709523Y-25597619D01*
X85400000Y-24471428D02*
X85733333Y-24471428D01*
X85876190Y-23947619D02*
X85400000Y-23947619D01*
X85400000Y-24947619D01*
X85876190Y-24947619D01*
X86304761Y-23947619D02*
X86304761Y-24947619D01*
X86542857Y-24947619D01*
X86685714Y-24900000D01*
X86780952Y-24804761D01*
X86828571Y-24709523D01*
X86876190Y-24519047D01*
X86876190Y-24376190D01*
X86828571Y-24185714D01*
X86780952Y-24090476D01*
X86685714Y-23995238D01*
X86542857Y-23947619D01*
X86304761Y-23947619D01*
X87495238Y-24947619D02*
X87590476Y-24947619D01*
X87685714Y-24900000D01*
X87733333Y-24852380D01*
X87780952Y-24757142D01*
X87828571Y-24566666D01*
X87828571Y-24328571D01*
X87780952Y-24138095D01*
X87733333Y-24042857D01*
X87685714Y-23995238D01*
X87590476Y-23947619D01*
X87495238Y-23947619D01*
X87400000Y-23995238D01*
X87352380Y-24042857D01*
X87304761Y-24138095D01*
X87257142Y-24328571D01*
X87257142Y-24566666D01*
X87304761Y-24757142D01*
X87352380Y-24852380D01*
X87400000Y-24900000D01*
X87495238Y-24947619D01*
X88304761Y-23947619D02*
X88495238Y-23947619D01*
X88590476Y-23995238D01*
X88638095Y-24042857D01*
X88733333Y-24185714D01*
X88780952Y-24376190D01*
X88780952Y-24757142D01*
X88733333Y-24852380D01*
X88685714Y-24900000D01*
X88590476Y-24947619D01*
X88400000Y-24947619D01*
X88304761Y-24900000D01*
X88257142Y-24852380D01*
X88209523Y-24757142D01*
X88209523Y-24519047D01*
X88257142Y-24423809D01*
X88304761Y-24376190D01*
X88400000Y-24328571D01*
X88590476Y-24328571D01*
X88685714Y-24376190D01*
X88733333Y-24423809D01*
X88780952Y-24519047D01*
X89114285Y-24947619D02*
X89780952Y-24947619D01*
X89352380Y-23947619D01*
X90352380Y-24947619D02*
X90542857Y-24947619D01*
X90638095Y-24900000D01*
X90733333Y-24804761D01*
X90780952Y-24614285D01*
X90780952Y-24280952D01*
X90733333Y-24090476D01*
X90638095Y-23995238D01*
X90542857Y-23947619D01*
X90352380Y-23947619D01*
X90257142Y-23995238D01*
X90161904Y-24090476D01*
X90114285Y-24280952D01*
X90114285Y-24614285D01*
X90161904Y-24804761D01*
X90257142Y-24900000D01*
X90352380Y-24947619D01*
X91780952Y-24042857D02*
X91733333Y-23995238D01*
X91590476Y-23947619D01*
X91495238Y-23947619D01*
X91352380Y-23995238D01*
X91257142Y-24090476D01*
X91209523Y-24185714D01*
X91161904Y-24376190D01*
X91161904Y-24519047D01*
X91209523Y-24709523D01*
X91257142Y-24804761D01*
X91352380Y-24900000D01*
X91495238Y-24947619D01*
X91590476Y-24947619D01*
X91733333Y-24900000D01*
X91780952Y-24852380D01*
X92638095Y-24614285D02*
X92638095Y-23947619D01*
X92400000Y-24995238D02*
X92161904Y-24280952D01*
X92780952Y-24280952D01*
X93876190Y-24995238D02*
X93019047Y-23709523D01*
X94209523Y-24471428D02*
X94542857Y-24471428D01*
X94685714Y-23947619D02*
X94209523Y-23947619D01*
X94209523Y-24947619D01*
X94685714Y-24947619D01*
X95114285Y-23947619D02*
X95114285Y-24947619D01*
X95352380Y-24947619D01*
X95495238Y-24900000D01*
X95590476Y-24804761D01*
X95638095Y-24709523D01*
X95685714Y-24519047D01*
X95685714Y-24376190D01*
X95638095Y-24185714D01*
X95590476Y-24090476D01*
X95495238Y-23995238D01*
X95352380Y-23947619D01*
X95114285Y-23947619D01*
X96304761Y-24947619D02*
X96400000Y-24947619D01*
X96495238Y-24900000D01*
X96542857Y-24852380D01*
X96590476Y-24757142D01*
X96638095Y-24566666D01*
X96638095Y-24328571D01*
X96590476Y-24138095D01*
X96542857Y-24042857D01*
X96495238Y-23995238D01*
X96400000Y-23947619D01*
X96304761Y-23947619D01*
X96209523Y-23995238D01*
X96161904Y-24042857D01*
X96114285Y-24138095D01*
X96066666Y-24328571D01*
X96066666Y-24566666D01*
X96114285Y-24757142D01*
X96161904Y-24852380D01*
X96209523Y-24900000D01*
X96304761Y-24947619D01*
X97495238Y-24947619D02*
X97304761Y-24947619D01*
X97209523Y-24900000D01*
X97161904Y-24852380D01*
X97066666Y-24709523D01*
X97019047Y-24519047D01*
X97019047Y-24138095D01*
X97066666Y-24042857D01*
X97114285Y-23995238D01*
X97209523Y-23947619D01*
X97400000Y-23947619D01*
X97495238Y-23995238D01*
X97542857Y-24042857D01*
X97590476Y-24138095D01*
X97590476Y-24376190D01*
X97542857Y-24471428D01*
X97495238Y-24519047D01*
X97400000Y-24566666D01*
X97209523Y-24566666D01*
X97114285Y-24519047D01*
X97066666Y-24471428D01*
X97019047Y-24376190D01*
X98209523Y-24947619D02*
X98304761Y-24947619D01*
X98400000Y-24900000D01*
X98447619Y-24852380D01*
X98495238Y-24757142D01*
X98542857Y-24566666D01*
X98542857Y-24328571D01*
X98495238Y-24138095D01*
X98447619Y-24042857D01*
X98400000Y-23995238D01*
X98304761Y-23947619D01*
X98209523Y-23947619D01*
X98114285Y-23995238D01*
X98066666Y-24042857D01*
X98019047Y-24138095D01*
X97971428Y-24328571D01*
X97971428Y-24566666D01*
X98019047Y-24757142D01*
X98066666Y-24852380D01*
X98114285Y-24900000D01*
X98209523Y-24947619D01*
X98923809Y-23995238D02*
X99066666Y-23947619D01*
X99304761Y-23947619D01*
X99400000Y-23995238D01*
X99447619Y-24042857D01*
X99495238Y-24138095D01*
X99495238Y-24233333D01*
X99447619Y-24328571D01*
X99400000Y-24376190D01*
X99304761Y-24423809D01*
X99114285Y-24471428D01*
X99019047Y-24519047D01*
X98971428Y-24566666D01*
X98923809Y-24661904D01*
X98923809Y-24757142D01*
X98971428Y-24852380D01*
X99019047Y-24900000D01*
X99114285Y-24947619D01*
X99352380Y-24947619D01*
X99495238Y-24900000D01*
X100495238Y-24042857D02*
X100447619Y-23995238D01*
X100304761Y-23947619D01*
X100209523Y-23947619D01*
X100066666Y-23995238D01*
X99971428Y-24090476D01*
X99923809Y-24185714D01*
X99876190Y-24376190D01*
X99876190Y-24519047D01*
X99923809Y-24709523D01*
X99971428Y-24804761D01*
X100066666Y-24900000D01*
X100209523Y-24947619D01*
X100304761Y-24947619D01*
X100447619Y-24900000D01*
X100495238Y-24852380D01*
X101352380Y-24614285D02*
X101352380Y-23947619D01*
X101114285Y-24995238D02*
X100876190Y-24280952D01*
X101495238Y-24280952D01*
X84185714Y-22297619D02*
X84185714Y-23297619D01*
X84185714Y-22916666D02*
X84280952Y-22964285D01*
X84471428Y-22964285D01*
X84566666Y-22916666D01*
X84614285Y-22869047D01*
X84661904Y-22773809D01*
X84661904Y-22488095D01*
X84614285Y-22392857D01*
X84566666Y-22345238D01*
X84471428Y-22297619D01*
X84280952Y-22297619D01*
X84185714Y-22345238D01*
X84995238Y-22964285D02*
X85233333Y-22297619D01*
X85471428Y-22964285D02*
X85233333Y-22297619D01*
X85138095Y-22059523D01*
X85090476Y-22011904D01*
X84995238Y-21964285D01*
X86471428Y-23297619D02*
X86804761Y-22297619D01*
X87138095Y-23297619D01*
X87900000Y-22297619D02*
X87900000Y-22821428D01*
X87852380Y-22916666D01*
X87757142Y-22964285D01*
X87566666Y-22964285D01*
X87471428Y-22916666D01*
X87900000Y-22345238D02*
X87804761Y-22297619D01*
X87566666Y-22297619D01*
X87471428Y-22345238D01*
X87423809Y-22440476D01*
X87423809Y-22535714D01*
X87471428Y-22630952D01*
X87566666Y-22678571D01*
X87804761Y-22678571D01*
X87900000Y-22726190D01*
X88519047Y-22297619D02*
X88423809Y-22345238D01*
X88376190Y-22440476D01*
X88376190Y-23297619D01*
X89280952Y-22345238D02*
X89185714Y-22297619D01*
X88995238Y-22297619D01*
X88900000Y-22345238D01*
X88852380Y-22440476D01*
X88852380Y-22821428D01*
X88900000Y-22916666D01*
X88995238Y-22964285D01*
X89185714Y-22964285D01*
X89280952Y-22916666D01*
X89328571Y-22821428D01*
X89328571Y-22726190D01*
X88852380Y-22630952D01*
X89757142Y-22964285D02*
X89757142Y-22297619D01*
X89757142Y-22869047D02*
X89804761Y-22916666D01*
X89900000Y-22964285D01*
X90042857Y-22964285D01*
X90138095Y-22916666D01*
X90185714Y-22821428D01*
X90185714Y-22297619D01*
X90519047Y-22964285D02*
X90900000Y-22964285D01*
X90661904Y-23297619D02*
X90661904Y-22440476D01*
X90709523Y-22345238D01*
X90804761Y-22297619D01*
X90900000Y-22297619D01*
X91233333Y-22297619D02*
X91233333Y-22964285D01*
X91233333Y-23297619D02*
X91185714Y-23250000D01*
X91233333Y-23202380D01*
X91280952Y-23250000D01*
X91233333Y-23297619D01*
X91233333Y-23202380D01*
X91709523Y-22964285D02*
X91709523Y-22297619D01*
X91709523Y-22869047D02*
X91757142Y-22916666D01*
X91852380Y-22964285D01*
X91995238Y-22964285D01*
X92090476Y-22916666D01*
X92138095Y-22821428D01*
X92138095Y-22297619D01*
X93947619Y-22297619D02*
X93614285Y-22773809D01*
X93376190Y-22297619D02*
X93376190Y-23297619D01*
X93757142Y-23297619D01*
X93852380Y-23250000D01*
X93900000Y-23202380D01*
X93947619Y-23107142D01*
X93947619Y-22964285D01*
X93900000Y-22869047D01*
X93852380Y-22821428D01*
X93757142Y-22773809D01*
X93376190Y-22773809D01*
X94519047Y-22297619D02*
X94423809Y-22345238D01*
X94376190Y-22392857D01*
X94328571Y-22488095D01*
X94328571Y-22773809D01*
X94376190Y-22869047D01*
X94423809Y-22916666D01*
X94519047Y-22964285D01*
X94661904Y-22964285D01*
X94757142Y-22916666D01*
X94804761Y-22869047D01*
X94852380Y-22773809D01*
X94852380Y-22488095D01*
X94804761Y-22392857D01*
X94757142Y-22345238D01*
X94661904Y-22297619D01*
X94519047Y-22297619D01*
X95423809Y-22297619D02*
X95328571Y-22345238D01*
X95280952Y-22440476D01*
X95280952Y-23297619D01*
X96233333Y-22297619D02*
X96233333Y-22821428D01*
X96185714Y-22916666D01*
X96090476Y-22964285D01*
X95900000Y-22964285D01*
X95804761Y-22916666D01*
X96233333Y-22345238D02*
X96138095Y-22297619D01*
X95900000Y-22297619D01*
X95804761Y-22345238D01*
X95757142Y-22440476D01*
X95757142Y-22535714D01*
X95804761Y-22630952D01*
X95900000Y-22678571D01*
X96138095Y-22678571D01*
X96233333Y-22726190D01*
X96709523Y-22964285D02*
X96709523Y-22297619D01*
X96709523Y-22869047D02*
X96757142Y-22916666D01*
X96852380Y-22964285D01*
X96995238Y-22964285D01*
X97090476Y-22916666D01*
X97138095Y-22821428D01*
X97138095Y-22297619D01*
X98042857Y-22297619D02*
X98042857Y-23297619D01*
X98042857Y-22345238D02*
X97947619Y-22297619D01*
X97757142Y-22297619D01*
X97661904Y-22345238D01*
X97614285Y-22392857D01*
X97566666Y-22488095D01*
X97566666Y-22773809D01*
X97614285Y-22869047D01*
X97661904Y-22916666D01*
X97757142Y-22964285D01*
X97947619Y-22964285D01*
X98042857Y-22916666D01*
X99233333Y-23202380D02*
X99280952Y-23250000D01*
X99376190Y-23297619D01*
X99614285Y-23297619D01*
X99709523Y-23250000D01*
X99757142Y-23202380D01*
X99804761Y-23107142D01*
X99804761Y-23011904D01*
X99757142Y-22869047D01*
X99185714Y-22297619D01*
X99804761Y-22297619D01*
X100423809Y-23297619D02*
X100519047Y-23297619D01*
X100614285Y-23250000D01*
X100661904Y-23202380D01*
X100709523Y-23107142D01*
X100757142Y-22916666D01*
X100757142Y-22678571D01*
X100709523Y-22488095D01*
X100661904Y-22392857D01*
X100614285Y-22345238D01*
X100519047Y-22297619D01*
X100423809Y-22297619D01*
X100328571Y-22345238D01*
X100280952Y-22392857D01*
X100233333Y-22488095D01*
X100185714Y-22678571D01*
X100185714Y-22916666D01*
X100233333Y-23107142D01*
X100280952Y-23202380D01*
X100328571Y-23250000D01*
X100423809Y-23297619D01*
X101138095Y-23202380D02*
X101185714Y-23250000D01*
X101280952Y-23297619D01*
X101519047Y-23297619D01*
X101614285Y-23250000D01*
X101661904Y-23202380D01*
X101709523Y-23107142D01*
X101709523Y-23011904D01*
X101661904Y-22869047D01*
X101090476Y-22297619D01*
X101709523Y-22297619D01*
X102328571Y-23297619D02*
X102423809Y-23297619D01*
X102519047Y-23250000D01*
X102566666Y-23202380D01*
X102614285Y-23107142D01*
X102661904Y-22916666D01*
X102661904Y-22678571D01*
X102614285Y-22488095D01*
X102566666Y-22392857D01*
X102519047Y-22345238D01*
X102423809Y-22297619D01*
X102328571Y-22297619D01*
X102233333Y-22345238D01*
X102185714Y-22392857D01*
X102138095Y-22488095D01*
X102090476Y-22678571D01*
X102090476Y-22916666D01*
X102138095Y-23107142D01*
X102185714Y-23202380D01*
X102233333Y-23250000D01*
X102328571Y-23297619D01*
D11*
X98579992Y-39440002D02*
X100919990Y-41780000D01*
X93899996Y-35300006D02*
X94799995Y-39620002D01*
X93899996Y-35300006D02*
X91739998Y-38720003D01*
X94799995Y-39620002D02*
X94619995Y-41600000D01*
X89400000Y-41600000D02*
X87780002Y-45379997D01*
X94079996Y-28460013D02*
X101999989Y-27740013D01*
X99479991Y-44479998D02*
X97679993Y-48799993D01*
X94799995Y-39620002D02*
X97319993Y-42679999D01*
X100919990Y-41780000D02*
X103259988Y-41960000D01*
X94259996Y-42859999D02*
X95519995Y-45379997D01*
X98579992Y-39440002D02*
X99479991Y-44479998D01*
X94079996Y-28460013D02*
X84360005Y-27740013D01*
X94259996Y-42859999D02*
X92819997Y-45739997D01*
X91739998Y-38720003D02*
X94259996Y-42859999D01*
X91739998Y-38720003D02*
X89400000Y-41600000D01*
X94079996Y-28460013D02*
X93899996Y-35300006D01*
X91739998Y-38900003D02*
X88140001Y-40160002D01*
X98579992Y-39440002D02*
X101459989Y-39080003D01*
X93899996Y-35300006D02*
X98579992Y-39440002D01*
X97319993Y-42679999D02*
X97499993Y-46279996D01*
X99479991Y-44479998D02*
X100379990Y-47359995D01*
X88140001Y-40160002D02*
X87420002Y-42140000D01*
X89400000Y-41600000D02*
X90659999Y-44479998D01*
D10*
X57588000Y-44600000D02*
G75*
G03X57588000Y-44600000I-5588000J0D01*
G01*
X57180604Y-44600000D02*
G75*
G03X57180604Y-44600000I-5180604J0D01*
G01*
X49002800Y-43401120D02*
X49401580Y-43401120D01*
X50803660Y-42001580D02*
X51304040Y-41899980D01*
X50102620Y-42199700D02*
X50803660Y-42001580D01*
X49503180Y-42601020D02*
X50102620Y-42199700D01*
X49101860Y-43101400D02*
X49503180Y-42601020D01*
X48700540Y-43799900D02*
X49000260Y-43200460D01*
X48700540Y-44198680D02*
X48799600Y-43599240D01*
X48700540Y-44899720D02*
X48700540Y-44198680D01*
X48901200Y-45499160D02*
X48700540Y-44899720D01*
X49401580Y-46200200D02*
X48901200Y-45499160D01*
X49899420Y-46698040D02*
X49401580Y-46299260D01*
X50501400Y-46997760D02*
X49899420Y-46698040D01*
X50999240Y-47099360D02*
X50501400Y-46997760D01*
X51400560Y-47099360D02*
X50999240Y-47099360D01*
X51799340Y-46997760D02*
X51400560Y-47099360D01*
X51700280Y-46799640D02*
X51799340Y-46997760D01*
X51301500Y-46799640D02*
X51700280Y-46799640D01*
X50801120Y-46799640D02*
X51301500Y-46799640D01*
X50300740Y-46598980D02*
X50801120Y-46799640D01*
X49800360Y-46299260D02*
X50300740Y-46598980D01*
X49299980Y-45699820D02*
X49800360Y-46200200D01*
X49000260Y-45400100D02*
X49299980Y-45900480D01*
X48901200Y-44600000D02*
X49000260Y-45199440D01*
X49000260Y-43898960D02*
X48901200Y-44600000D01*
X49200920Y-43200460D02*
X49000260Y-43898960D01*
X49703840Y-42801680D02*
X49203460Y-43302060D01*
X50402340Y-42301300D02*
X49703840Y-42801680D01*
X51103380Y-42100640D02*
X50402340Y-42301300D01*
X51702820Y-42199700D02*
X51103380Y-42100640D01*
X51801880Y-42501960D02*
X51702820Y-42199700D01*
X51502160Y-42400360D02*
X51801880Y-42501960D01*
X51103380Y-42400360D02*
X51502160Y-42400360D01*
X50702060Y-42501960D02*
X51103380Y-42400360D01*
X50204220Y-42700080D02*
X50702060Y-42501960D01*
X49703840Y-43101400D02*
X50204220Y-42700080D01*
X49302520Y-43599240D02*
X49602240Y-43200460D01*
X49200920Y-44399340D02*
X49401580Y-43599240D01*
X49200920Y-44899720D02*
X49200920Y-44399340D01*
X49299980Y-45400100D02*
X49200920Y-44899720D01*
X49599700Y-45900480D02*
X49299980Y-45400100D01*
X50100080Y-46197660D02*
X49599700Y-45798880D01*
X50600460Y-46497380D02*
X50100080Y-46197660D01*
X51100840Y-46598980D02*
X50600460Y-46497380D01*
X51601220Y-46598980D02*
X51100840Y-46598980D01*
X52802640Y-45699820D02*
X52601980Y-45301040D01*
X53102360Y-46200200D02*
X52802640Y-45699820D01*
X53501140Y-46601520D02*
X53102360Y-46200200D01*
X54001520Y-46802180D02*
X53501140Y-46601520D01*
X54402840Y-47000300D02*
X54001520Y-46802180D01*
X55002280Y-47000300D02*
X54402840Y-47000300D01*
X55401060Y-42501960D02*
X55700780Y-42601020D01*
X54900680Y-42501960D02*
X55401060Y-42501960D01*
X54301240Y-42601020D02*
X54900680Y-42501960D01*
X53701800Y-42900740D02*
X54301240Y-42601020D01*
X53300480Y-43401120D02*
X53701800Y-42900740D01*
X53000760Y-43901500D02*
X53300480Y-43401120D01*
X53000760Y-44500940D02*
X53000760Y-43901500D01*
X53000760Y-45001320D02*
X53000760Y-44500940D01*
X53300480Y-45600760D02*
X53000760Y-45001320D01*
X53800860Y-46200200D02*
X53300480Y-45600760D01*
X54501900Y-46499920D02*
X53800860Y-46200200D01*
X55101340Y-46499920D02*
X54501900Y-46499920D01*
X55002280Y-46700580D02*
X55101340Y-46499920D01*
X54301240Y-46700580D02*
X55002280Y-46700580D01*
X53602740Y-46301800D02*
X54301240Y-46700580D01*
X53000760Y-45600760D02*
X53602740Y-46301800D01*
X52701040Y-44899720D02*
X53000760Y-45600760D01*
X52802640Y-43901500D02*
X52701040Y-44899720D01*
X53201420Y-42999800D02*
X52802640Y-43901500D01*
X53800860Y-42501960D02*
X53201420Y-42999800D01*
X54801620Y-42199700D02*
X53800860Y-42501960D01*
X55700780Y-42301300D02*
X54801620Y-42199700D01*
X55802380Y-42100640D02*
X55700780Y-42301300D01*
X55401060Y-42001580D02*
X55802380Y-42100640D01*
X55002280Y-42001580D02*
X55401060Y-42001580D01*
X54600960Y-42001580D02*
X55002280Y-42001580D01*
X54100580Y-42100640D02*
X54600960Y-42001580D01*
X53501140Y-42400360D02*
X54100580Y-42100640D01*
X53000760Y-42900740D02*
X53501140Y-42400360D01*
X52601980Y-43500180D02*
X53000760Y-42900740D01*
X52502920Y-44102160D02*
X52601980Y-43500180D01*
X52502920Y-44800660D02*
X52502920Y-44102160D01*
X52601980Y-45301040D02*
X52502920Y-44800660D01*
X53399540Y-49799380D02*
X52000000Y-49900980D01*
X54400300Y-49400600D02*
X53399540Y-49799380D01*
X55401060Y-48699560D02*
X54400300Y-49400600D01*
X56699000Y-47099360D02*
X55401060Y-48699560D01*
X57199380Y-45999540D02*
X56699000Y-47099360D01*
X57400040Y-44300280D02*
X57199380Y-45999540D01*
X57001260Y-42799140D02*
X57400040Y-44300280D01*
X56201160Y-41198940D02*
X57001260Y-42799140D01*
X54600960Y-39901000D02*
X56201160Y-41198940D01*
X53600200Y-39400620D02*
X54600960Y-39901000D01*
X52099060Y-39299020D02*
X53600200Y-39400620D01*
X50699520Y-39299020D02*
X52099060Y-39299020D01*
X49399040Y-39799400D02*
X50699520Y-39299020D01*
X48200160Y-40701100D02*
X49399040Y-39799400D01*
X47199400Y-42199700D02*
X48200160Y-40701100D01*
X46800620Y-43299520D02*
X47199400Y-42199700D01*
X46599960Y-44500940D02*
X46800620Y-43299520D01*
X46699020Y-45699820D02*
X46599960Y-44500940D01*
X46998740Y-46700580D02*
X46699020Y-45699820D01*
X47499120Y-47599740D02*
X46998740Y-46700580D01*
X47999500Y-48199180D02*
X47499120Y-47599740D01*
X48700540Y-48801160D02*
X47999500Y-48199180D01*
X49299980Y-49299000D02*
X48700540Y-48801160D01*
X50001020Y-49499660D02*
X49299980Y-49299000D01*
X50699520Y-49700320D02*
X50001020Y-49499660D01*
X51499620Y-50000040D02*
X50699520Y-49700320D01*
X52000000Y-50000040D02*
X51499620Y-50000040D01*
X55299460Y-46901240D02*
X55098800Y-46598980D01*
X54999740Y-47000300D02*
X55299460Y-46901240D01*
X55700780Y-42499420D02*
X55799840Y-42199700D01*
X51801880Y-42199700D02*
X51702820Y-42001580D01*
X48598940Y-44201220D02*
X48700540Y-43700840D01*
X48700540Y-45100380D02*
X48598940Y-44201220D01*
X48901200Y-45600760D02*
X48700540Y-45100380D01*
X49299980Y-46200200D02*
X48901200Y-45600760D01*
X49500640Y-46299260D02*
X49299980Y-46200200D01*
X51700280Y-41999040D02*
X51799340Y-42499420D01*
X51298960Y-41899980D02*
X51700280Y-41999040D01*
D12*
G36*
X33771900Y-40138097D02*
G01*
X33883450Y-40082478D01*
X33981908Y-39980069D01*
X34009023Y-39942136D01*
X34038562Y-39892500D01*
X34057728Y-39838588D01*
X34068693Y-39766636D01*
X34073629Y-39662878D01*
X34074713Y-39525899D01*
X34069818Y-39338185D01*
X34052804Y-39197242D01*
X34020177Y-39092092D01*
X33968442Y-39011757D01*
X33894104Y-38945259D01*
X33888642Y-38941322D01*
X33815380Y-38901047D01*
X33727160Y-38881120D01*
X33614962Y-38876207D01*
X33432567Y-38876207D01*
X33432491Y-38699143D01*
X33430793Y-38600530D01*
X33420450Y-38542686D01*
X33393422Y-38507994D01*
X33341668Y-38478836D01*
X33329239Y-38472879D01*
X33271077Y-38444961D01*
X33226044Y-38427328D01*
X33192559Y-38425806D01*
X33169038Y-38446219D01*
X33153900Y-38494393D01*
X33145563Y-38576154D01*
X33142444Y-38697328D01*
X33142960Y-38863740D01*
X33145529Y-39081215D01*
X33146332Y-39146264D01*
X33149222Y-39370498D01*
X33151812Y-39517179D01*
X33432414Y-39517179D01*
X33433991Y-39392674D01*
X33441000Y-39311213D01*
X33456858Y-39257485D01*
X33484981Y-39216177D01*
X33504075Y-39196029D01*
X33582135Y-39137079D01*
X33651247Y-39132280D01*
X33722560Y-39180962D01*
X33724368Y-39182759D01*
X33753383Y-39220382D01*
X33771033Y-39271516D01*
X33779936Y-39350262D01*
X33782709Y-39470724D01*
X33782759Y-39497412D01*
X33776058Y-39663417D01*
X33754248Y-39778495D01*
X33714765Y-39848746D01*
X33655044Y-39880271D01*
X33620528Y-39883448D01*
X33538611Y-39868540D01*
X33482421Y-39819452D01*
X33448598Y-39729638D01*
X33433780Y-39592555D01*
X33432414Y-39517179D01*
X33151812Y-39517179D01*
X33152287Y-39544048D01*
X33156247Y-39674618D01*
X33161826Y-39769913D01*
X33169746Y-39837636D01*
X33180731Y-39885493D01*
X33195501Y-39921187D01*
X33214782Y-39952422D01*
X33223049Y-39964176D01*
X33332712Y-40075203D01*
X33471365Y-40138153D01*
X33631754Y-40155703D01*
X33771900Y-40138097D01*
G37*
X33771900Y-40138097D02*
X33883450Y-40082478D01*
X33981908Y-39980069D01*
X34009023Y-39942136D01*
X34038562Y-39892500D01*
X34057728Y-39838588D01*
X34068693Y-39766636D01*
X34073629Y-39662878D01*
X34074713Y-39525899D01*
X34069818Y-39338185D01*
X34052804Y-39197242D01*
X34020177Y-39092092D01*
X33968442Y-39011757D01*
X33894104Y-38945259D01*
X33888642Y-38941322D01*
X33815380Y-38901047D01*
X33727160Y-38881120D01*
X33614962Y-38876207D01*
X33432567Y-38876207D01*
X33432491Y-38699143D01*
X33430793Y-38600530D01*
X33420450Y-38542686D01*
X33393422Y-38507994D01*
X33341668Y-38478836D01*
X33329239Y-38472879D01*
X33271077Y-38444961D01*
X33226044Y-38427328D01*
X33192559Y-38425806D01*
X33169038Y-38446219D01*
X33153900Y-38494393D01*
X33145563Y-38576154D01*
X33142444Y-38697328D01*
X33142960Y-38863740D01*
X33145529Y-39081215D01*
X33146332Y-39146264D01*
X33149222Y-39370498D01*
X33151812Y-39517179D01*
X33432414Y-39517179D01*
X33433991Y-39392674D01*
X33441000Y-39311213D01*
X33456858Y-39257485D01*
X33484981Y-39216177D01*
X33504075Y-39196029D01*
X33582135Y-39137079D01*
X33651247Y-39132280D01*
X33722560Y-39180962D01*
X33724368Y-39182759D01*
X33753383Y-39220382D01*
X33771033Y-39271516D01*
X33779936Y-39350262D01*
X33782709Y-39470724D01*
X33782759Y-39497412D01*
X33776058Y-39663417D01*
X33754248Y-39778495D01*
X33714765Y-39848746D01*
X33655044Y-39880271D01*
X33620528Y-39883448D01*
X33538611Y-39868540D01*
X33482421Y-39819452D01*
X33448598Y-39729638D01*
X33433780Y-39592555D01*
X33432414Y-39517179D01*
X33151812Y-39517179D01*
X33152287Y-39544048D01*
X33156247Y-39674618D01*
X33161826Y-39769913D01*
X33169746Y-39837636D01*
X33180731Y-39885493D01*
X33195501Y-39921187D01*
X33214782Y-39952422D01*
X33223049Y-39964176D01*
X33332712Y-40075203D01*
X33471365Y-40138153D01*
X33631754Y-40155703D01*
X33771900Y-40138097D01*
G36*
X36017429Y-40122281D02*
G01*
X36111123Y-40068086D01*
X36176264Y-40014293D01*
X36223907Y-39957934D01*
X36256728Y-39889013D01*
X36277406Y-39797532D01*
X36288620Y-39673494D01*
X36293049Y-39506902D01*
X36293563Y-39387149D01*
X36293563Y-38946341D01*
X36169483Y-38890717D01*
X36045402Y-38835093D01*
X36030805Y-39317905D01*
X36024773Y-39498221D01*
X36018445Y-39629099D01*
X36010606Y-39719489D01*
X36000037Y-39778336D01*
X35985523Y-39814587D01*
X35965848Y-39837190D01*
X35959535Y-39842083D01*
X35863888Y-39880294D01*
X35767207Y-39865173D01*
X35709655Y-39825057D01*
X35686245Y-39796630D01*
X35670039Y-39759328D01*
X35659741Y-39702777D01*
X35654049Y-39616606D01*
X35651664Y-39490442D01*
X35651264Y-39358958D01*
X35651186Y-39194001D01*
X35648361Y-39077239D01*
X35638907Y-38998490D01*
X35618940Y-38947569D01*
X35584576Y-38914294D01*
X35531932Y-38888480D01*
X35461617Y-38861656D01*
X35384820Y-38832458D01*
X35393962Y-39350654D01*
X35397643Y-39537461D01*
X35401950Y-39675510D01*
X35408123Y-39774432D01*
X35417402Y-39843855D01*
X35431027Y-39893410D01*
X35450239Y-39932727D01*
X35473402Y-39967416D01*
X35585152Y-40078230D01*
X35721513Y-40142311D01*
X35869825Y-40157661D01*
X36017429Y-40122281D01*
G37*
X36017429Y-40122281D02*
X36111123Y-40068086D01*
X36176264Y-40014293D01*
X36223907Y-39957934D01*
X36256728Y-39889013D01*
X36277406Y-39797532D01*
X36288620Y-39673494D01*
X36293049Y-39506902D01*
X36293563Y-39387149D01*
X36293563Y-38946341D01*
X36169483Y-38890717D01*
X36045402Y-38835093D01*
X36030805Y-39317905D01*
X36024773Y-39498221D01*
X36018445Y-39629099D01*
X36010606Y-39719489D01*
X36000037Y-39778336D01*
X35985523Y-39814587D01*
X35965848Y-39837190D01*
X35959535Y-39842083D01*
X35863888Y-39880294D01*
X35767207Y-39865173D01*
X35709655Y-39825057D01*
X35686245Y-39796630D01*
X35670039Y-39759328D01*
X35659741Y-39702777D01*
X35654049Y-39616606D01*
X35651664Y-39490442D01*
X35651264Y-39358958D01*
X35651186Y-39194001D01*
X35648361Y-39077239D01*
X35638907Y-38998490D01*
X35618940Y-38947569D01*
X35584576Y-38914294D01*
X35531932Y-38888480D01*
X35461617Y-38861656D01*
X35384820Y-38832458D01*
X35393962Y-39350654D01*
X35397643Y-39537461D01*
X35401950Y-39675510D01*
X35408123Y-39774432D01*
X35417402Y-39843855D01*
X35431027Y-39893410D01*
X35450239Y-39932727D01*
X35473402Y-39967416D01*
X35585152Y-40078230D01*
X35721513Y-40142311D01*
X35869825Y-40157661D01*
X36017429Y-40122281D01*
G36*
X32648221Y-40133985D02*
G01*
X32785061Y-40062032D01*
X32886051Y-39946234D01*
X32921925Y-39871787D01*
X32949839Y-39760008D01*
X32964129Y-39618773D01*
X32965484Y-39464629D01*
X32954595Y-39314121D01*
X32932153Y-39183795D01*
X32898850Y-39090197D01*
X32888615Y-39074078D01*
X32767382Y-38953751D01*
X32623387Y-38881683D01*
X32467139Y-38860592D01*
X32309148Y-38893198D01*
X32265180Y-38912747D01*
X32179556Y-38972988D01*
X32104408Y-39052865D01*
X32097306Y-39062996D01*
X32068439Y-39111819D01*
X32049357Y-39164010D01*
X32038084Y-39232715D01*
X32032645Y-39331082D01*
X32031062Y-39472256D01*
X32031035Y-39503908D01*
X32031107Y-39513981D01*
X32322989Y-39513981D01*
X32324687Y-39380744D01*
X32331372Y-39292326D01*
X32345425Y-39235215D01*
X32369229Y-39195898D01*
X32381379Y-39182759D01*
X32451236Y-39132828D01*
X32519059Y-39135105D01*
X32587635Y-39178416D01*
X32628535Y-39224654D01*
X32652758Y-39292143D01*
X32666361Y-39398567D01*
X32667294Y-39410980D01*
X32669616Y-39603853D01*
X32645350Y-39747100D01*
X32594824Y-39839840D01*
X32518368Y-39881193D01*
X32491076Y-39883448D01*
X32419411Y-39872107D01*
X32370390Y-39832816D01*
X32340418Y-39757674D01*
X32325899Y-39638778D01*
X32322989Y-39513981D01*
X32031107Y-39513981D01*
X32032122Y-39654341D01*
X32036688Y-39759451D01*
X32046688Y-39832286D01*
X32064079Y-39885892D01*
X32090816Y-39933319D01*
X32096724Y-39942136D01*
X32196032Y-40060993D01*
X32304242Y-40129992D01*
X32435981Y-40157381D01*
X32480717Y-40158719D01*
X32648221Y-40133985D01*
G37*
X32648221Y-40133985D02*
X32785061Y-40062032D01*
X32886051Y-39946234D01*
X32921925Y-39871787D01*
X32949839Y-39760008D01*
X32964129Y-39618773D01*
X32965484Y-39464629D01*
X32954595Y-39314121D01*
X32932153Y-39183795D01*
X32898850Y-39090197D01*
X32888615Y-39074078D01*
X32767382Y-38953751D01*
X32623387Y-38881683D01*
X32467139Y-38860592D01*
X32309148Y-38893198D01*
X32265180Y-38912747D01*
X32179556Y-38972988D01*
X32104408Y-39052865D01*
X32097306Y-39062996D01*
X32068439Y-39111819D01*
X32049357Y-39164010D01*
X32038084Y-39232715D01*
X32032645Y-39331082D01*
X32031062Y-39472256D01*
X32031035Y-39503908D01*
X32031107Y-39513981D01*
X32322989Y-39513981D01*
X32324687Y-39380744D01*
X32331372Y-39292326D01*
X32345425Y-39235215D01*
X32369229Y-39195898D01*
X32381379Y-39182759D01*
X32451236Y-39132828D01*
X32519059Y-39135105D01*
X32587635Y-39178416D01*
X32628535Y-39224654D01*
X32652758Y-39292143D01*
X32666361Y-39398567D01*
X32667294Y-39410980D01*
X32669616Y-39603853D01*
X32645350Y-39747100D01*
X32594824Y-39839840D01*
X32518368Y-39881193D01*
X32491076Y-39883448D01*
X32419411Y-39872107D01*
X32370390Y-39832816D01*
X32340418Y-39757674D01*
X32325899Y-39638778D01*
X32322989Y-39513981D01*
X32031107Y-39513981D01*
X32032122Y-39654341D01*
X32036688Y-39759451D01*
X32046688Y-39832286D01*
X32064079Y-39885892D01*
X32090816Y-39933319D01*
X32096724Y-39942136D01*
X32196032Y-40060993D01*
X32304242Y-40129992D01*
X32435981Y-40157381D01*
X32480717Y-40158719D01*
X32648221Y-40133985D01*
G36*
X34915552Y-40115324D02*
G01*
X35030658Y-40037889D01*
X35119611Y-39926051D01*
X35172749Y-39783735D01*
X35183497Y-39678985D01*
X35182276Y-39635274D01*
X35172056Y-39601806D01*
X35143961Y-39571821D01*
X35089116Y-39538560D01*
X34998645Y-39495262D01*
X34863672Y-39435167D01*
X34862989Y-39434866D01*
X34738751Y-39377963D01*
X34636873Y-39327435D01*
X34567767Y-39288720D01*
X34541846Y-39267260D01*
X34541839Y-39267087D01*
X34564685Y-39220356D01*
X34618109Y-39168846D01*
X34679442Y-39131739D01*
X34710515Y-39124368D01*
X34795289Y-39149862D01*
X34868293Y-39213709D01*
X34903913Y-39283906D01*
X34938180Y-39335657D01*
X35005303Y-39394591D01*
X35084208Y-39445504D01*
X35153821Y-39473191D01*
X35168377Y-39474713D01*
X35184763Y-39449679D01*
X35185750Y-39385689D01*
X35173708Y-39299407D01*
X35151007Y-39207499D01*
X35120014Y-39126631D01*
X35118448Y-39123491D01*
X35025181Y-38993266D01*
X34904304Y-38904689D01*
X34767027Y-38861214D01*
X34624560Y-38866294D01*
X34488112Y-38923384D01*
X34482045Y-38927398D01*
X34374710Y-39024674D01*
X34304132Y-39151591D01*
X34265074Y-39318474D01*
X34259832Y-39365361D01*
X34250548Y-39586671D01*
X34261678Y-39689876D01*
X34541839Y-39689876D01*
X34545479Y-39625497D01*
X34565389Y-39606709D01*
X34615026Y-39620765D01*
X34693267Y-39653991D01*
X34780726Y-39695641D01*
X34782899Y-39696744D01*
X34857030Y-39735735D01*
X34886781Y-39761756D01*
X34879445Y-39789035D01*
X34848553Y-39824879D01*
X34769960Y-39876749D01*
X34685323Y-39880561D01*
X34609403Y-39842811D01*
X34556965Y-39769999D01*
X34541839Y-39689876D01*
X34261678Y-39689876D01*
X34269644Y-39763739D01*
X34318634Y-39904171D01*
X34386836Y-40002553D01*
X34509935Y-40101970D01*
X34645528Y-40151289D01*
X34783955Y-40154432D01*
X34915552Y-40115324D01*
G37*
X34915552Y-40115324D02*
X35030658Y-40037889D01*
X35119611Y-39926051D01*
X35172749Y-39783735D01*
X35183497Y-39678985D01*
X35182276Y-39635274D01*
X35172056Y-39601806D01*
X35143961Y-39571821D01*
X35089116Y-39538560D01*
X34998645Y-39495262D01*
X34863672Y-39435167D01*
X34862989Y-39434866D01*
X34738751Y-39377963D01*
X34636873Y-39327435D01*
X34567767Y-39288720D01*
X34541846Y-39267260D01*
X34541839Y-39267087D01*
X34564685Y-39220356D01*
X34618109Y-39168846D01*
X34679442Y-39131739D01*
X34710515Y-39124368D01*
X34795289Y-39149862D01*
X34868293Y-39213709D01*
X34903913Y-39283906D01*
X34938180Y-39335657D01*
X35005303Y-39394591D01*
X35084208Y-39445504D01*
X35153821Y-39473191D01*
X35168377Y-39474713D01*
X35184763Y-39449679D01*
X35185750Y-39385689D01*
X35173708Y-39299407D01*
X35151007Y-39207499D01*
X35120014Y-39126631D01*
X35118448Y-39123491D01*
X35025181Y-38993266D01*
X34904304Y-38904689D01*
X34767027Y-38861214D01*
X34624560Y-38866294D01*
X34488112Y-38923384D01*
X34482045Y-38927398D01*
X34374710Y-39024674D01*
X34304132Y-39151591D01*
X34265074Y-39318474D01*
X34259832Y-39365361D01*
X34250548Y-39586671D01*
X34261678Y-39689876D01*
X34541839Y-39689876D01*
X34545479Y-39625497D01*
X34565389Y-39606709D01*
X34615026Y-39620765D01*
X34693267Y-39653991D01*
X34780726Y-39695641D01*
X34782899Y-39696744D01*
X34857030Y-39735735D01*
X34886781Y-39761756D01*
X34879445Y-39789035D01*
X34848553Y-39824879D01*
X34769960Y-39876749D01*
X34685323Y-39880561D01*
X34609403Y-39842811D01*
X34556965Y-39769999D01*
X34541839Y-39689876D01*
X34261678Y-39689876D01*
X34269644Y-39763739D01*
X34318634Y-39904171D01*
X34386836Y-40002553D01*
X34509935Y-40101970D01*
X34645528Y-40151289D01*
X34783955Y-40154432D01*
X34915552Y-40115324D01*
G36*
X37344598Y-40276143D02*
G01*
X37353154Y-40156812D01*
X37362981Y-40086494D01*
X37376599Y-40055821D01*
X37396527Y-40055429D01*
X37402989Y-40059090D01*
X37488940Y-40085602D01*
X37600745Y-40084054D01*
X37714414Y-40056801D01*
X37785510Y-40021545D01*
X37858405Y-39965222D01*
X37911693Y-39901481D01*
X37948275Y-39820490D01*
X37971050Y-39712414D01*
X37982919Y-39567420D01*
X37986782Y-39375674D01*
X37986851Y-39338891D01*
X37986897Y-38925712D01*
X37894954Y-38893661D01*
X37829652Y-38871856D01*
X37793824Y-38861703D01*
X37792770Y-38861609D01*
X37789242Y-38889140D01*
X37786239Y-38965077D01*
X37783990Y-39079435D01*
X37782724Y-39222231D01*
X37782529Y-39309049D01*
X37782123Y-39480227D01*
X37780032Y-39602912D01*
X37774947Y-39687000D01*
X37765560Y-39742386D01*
X37750561Y-39778968D01*
X37728642Y-39806641D01*
X37714957Y-39819968D01*
X37620949Y-39873672D01*
X37518364Y-39877693D01*
X37425290Y-39832275D01*
X37408078Y-39815877D01*
X37382832Y-39785043D01*
X37365320Y-39748469D01*
X37354142Y-39695585D01*
X37347896Y-39615823D01*
X37345182Y-39498615D01*
X37344598Y-39337009D01*
X37344598Y-38925712D01*
X37252655Y-38893661D01*
X37187353Y-38871856D01*
X37151525Y-38861703D01*
X37150471Y-38861609D01*
X37147775Y-38889552D01*
X37145345Y-38968370D01*
X37143278Y-39090547D01*
X37141671Y-39248568D01*
X37140623Y-39434917D01*
X37140231Y-39642080D01*
X37140230Y-39651294D01*
X37140230Y-40440980D01*
X37235115Y-40481003D01*
X37330000Y-40521027D01*
X37344598Y-40276143D01*
G37*
X37344598Y-40276143D02*
X37353154Y-40156812D01*
X37362981Y-40086494D01*
X37376599Y-40055821D01*
X37396527Y-40055429D01*
X37402989Y-40059090D01*
X37488940Y-40085602D01*
X37600745Y-40084054D01*
X37714414Y-40056801D01*
X37785510Y-40021545D01*
X37858405Y-39965222D01*
X37911693Y-39901481D01*
X37948275Y-39820490D01*
X37971050Y-39712414D01*
X37982919Y-39567420D01*
X37986782Y-39375674D01*
X37986851Y-39338891D01*
X37986897Y-38925712D01*
X37894954Y-38893661D01*
X37829652Y-38871856D01*
X37793824Y-38861703D01*
X37792770Y-38861609D01*
X37789242Y-38889140D01*
X37786239Y-38965077D01*
X37783990Y-39079435D01*
X37782724Y-39222231D01*
X37782529Y-39309049D01*
X37782123Y-39480227D01*
X37780032Y-39602912D01*
X37774947Y-39687000D01*
X37765560Y-39742386D01*
X37750561Y-39778968D01*
X37728642Y-39806641D01*
X37714957Y-39819968D01*
X37620949Y-39873672D01*
X37518364Y-39877693D01*
X37425290Y-39832275D01*
X37408078Y-39815877D01*
X37382832Y-39785043D01*
X37365320Y-39748469D01*
X37354142Y-39695585D01*
X37347896Y-39615823D01*
X37345182Y-39498615D01*
X37344598Y-39337009D01*
X37344598Y-38925712D01*
X37252655Y-38893661D01*
X37187353Y-38871856D01*
X37151525Y-38861703D01*
X37150471Y-38861609D01*
X37147775Y-38889552D01*
X37145345Y-38968370D01*
X37143278Y-39090547D01*
X37141671Y-39248568D01*
X37140623Y-39434917D01*
X37140231Y-39642080D01*
X37140230Y-39651294D01*
X37140230Y-40440980D01*
X37235115Y-40481003D01*
X37330000Y-40521027D01*
X37344598Y-40276143D01*
G36*
X38679944Y-40075640D02*
G01*
X38794343Y-40033158D01*
X38795652Y-40032342D01*
X38866403Y-39980270D01*
X38918636Y-39919416D01*
X38955371Y-39840113D01*
X38979634Y-39732691D01*
X38994445Y-39587483D01*
X39002829Y-39394821D01*
X39003564Y-39367372D01*
X39014120Y-38953479D01*
X38925291Y-38907544D01*
X38861018Y-38876502D01*
X38822210Y-38861794D01*
X38820415Y-38861609D01*
X38813700Y-38888750D01*
X38808365Y-38961959D01*
X38805083Y-39068919D01*
X38804368Y-39155531D01*
X38804351Y-39295838D01*
X38797937Y-39383949D01*
X38775580Y-39425975D01*
X38727732Y-39428025D01*
X38644849Y-39396210D01*
X38519713Y-39337728D01*
X38427697Y-39289155D01*
X38380371Y-39247014D01*
X38366458Y-39201084D01*
X38366437Y-39198811D01*
X38389395Y-39119689D01*
X38457370Y-39076945D01*
X38561398Y-39070754D01*
X38636330Y-39071828D01*
X38675839Y-39050247D01*
X38700478Y-38998409D01*
X38714659Y-38932368D01*
X38694223Y-38894896D01*
X38686528Y-38889533D01*
X38614083Y-38867994D01*
X38512633Y-38864945D01*
X38408157Y-38879222D01*
X38334125Y-38905312D01*
X38231772Y-38992215D01*
X38173591Y-39113184D01*
X38162069Y-39207692D01*
X38170862Y-39292938D01*
X38202680Y-39362524D01*
X38265684Y-39424328D01*
X38368031Y-39486228D01*
X38517882Y-39556103D01*
X38527012Y-39560052D01*
X38661997Y-39622412D01*
X38745294Y-39673554D01*
X38780997Y-39719512D01*
X38773203Y-39766317D01*
X38726007Y-39820002D01*
X38711894Y-39832356D01*
X38617359Y-39880259D01*
X38519406Y-39878242D01*
X38434097Y-39831276D01*
X38377496Y-39744331D01*
X38372237Y-39727266D01*
X38321023Y-39644496D01*
X38256037Y-39604628D01*
X38162069Y-39565118D01*
X38162069Y-39667342D01*
X38190653Y-39815928D01*
X38275495Y-39952216D01*
X38319645Y-39997809D01*
X38420005Y-40056326D01*
X38547635Y-40082816D01*
X38679944Y-40075640D01*
G37*
X38679944Y-40075640D02*
X38794343Y-40033158D01*
X38795652Y-40032342D01*
X38866403Y-39980270D01*
X38918636Y-39919416D01*
X38955371Y-39840113D01*
X38979634Y-39732691D01*
X38994445Y-39587483D01*
X39002829Y-39394821D01*
X39003564Y-39367372D01*
X39014120Y-38953479D01*
X38925291Y-38907544D01*
X38861018Y-38876502D01*
X38822210Y-38861794D01*
X38820415Y-38861609D01*
X38813700Y-38888750D01*
X38808365Y-38961959D01*
X38805083Y-39068919D01*
X38804368Y-39155531D01*
X38804351Y-39295838D01*
X38797937Y-39383949D01*
X38775580Y-39425975D01*
X38727732Y-39428025D01*
X38644849Y-39396210D01*
X38519713Y-39337728D01*
X38427697Y-39289155D01*
X38380371Y-39247014D01*
X38366458Y-39201084D01*
X38366437Y-39198811D01*
X38389395Y-39119689D01*
X38457370Y-39076945D01*
X38561398Y-39070754D01*
X38636330Y-39071828D01*
X38675839Y-39050247D01*
X38700478Y-38998409D01*
X38714659Y-38932368D01*
X38694223Y-38894896D01*
X38686528Y-38889533D01*
X38614083Y-38867994D01*
X38512633Y-38864945D01*
X38408157Y-38879222D01*
X38334125Y-38905312D01*
X38231772Y-38992215D01*
X38173591Y-39113184D01*
X38162069Y-39207692D01*
X38170862Y-39292938D01*
X38202680Y-39362524D01*
X38265684Y-39424328D01*
X38368031Y-39486228D01*
X38517882Y-39556103D01*
X38527012Y-39560052D01*
X38661997Y-39622412D01*
X38745294Y-39673554D01*
X38780997Y-39719512D01*
X38773203Y-39766317D01*
X38726007Y-39820002D01*
X38711894Y-39832356D01*
X38617359Y-39880259D01*
X38519406Y-39878242D01*
X38434097Y-39831276D01*
X38377496Y-39744331D01*
X38372237Y-39727266D01*
X38321023Y-39644496D01*
X38256037Y-39604628D01*
X38162069Y-39565118D01*
X38162069Y-39667342D01*
X38190653Y-39815928D01*
X38275495Y-39952216D01*
X38319645Y-39997809D01*
X38420005Y-40056326D01*
X38547635Y-40082816D01*
X38679944Y-40075640D01*
G36*
X39665943Y-40078080D02*
G01*
X39798565Y-40029141D01*
X39906010Y-39942581D01*
X39948032Y-39881648D01*
X39993843Y-39769839D01*
X39992891Y-39688994D01*
X39944808Y-39634622D01*
X39927017Y-39625376D01*
X39850204Y-39596550D01*
X39810976Y-39603935D01*
X39797689Y-39652342D01*
X39797012Y-39679080D01*
X39772686Y-39777452D01*
X39709281Y-39846266D01*
X39621154Y-39879502D01*
X39522663Y-39871139D01*
X39442602Y-39827704D01*
X39415561Y-39802928D01*
X39396394Y-39772871D01*
X39383446Y-39727435D01*
X39375064Y-39656524D01*
X39369593Y-39550040D01*
X39365378Y-39397888D01*
X39364287Y-39349713D01*
X39360307Y-39184905D01*
X39355781Y-39068912D01*
X39348995Y-38992167D01*
X39338231Y-38945107D01*
X39321773Y-38918165D01*
X39297906Y-38901777D01*
X39282626Y-38894537D01*
X39217733Y-38869780D01*
X39179534Y-38861609D01*
X39166912Y-38888897D01*
X39159208Y-38971397D01*
X39156380Y-39110059D01*
X39158386Y-39305838D01*
X39159011Y-39336035D01*
X39163421Y-39514651D01*
X39168635Y-39645077D01*
X39176055Y-39737508D01*
X39187082Y-39802142D01*
X39203117Y-39849175D01*
X39225561Y-39888804D01*
X39237302Y-39905785D01*
X39304619Y-39980920D01*
X39379910Y-40039362D01*
X39389128Y-40044464D01*
X39524133Y-40084740D01*
X39665943Y-40078080D01*
G37*
X39665943Y-40078080D02*
X39798565Y-40029141D01*
X39906010Y-39942581D01*
X39948032Y-39881648D01*
X39993843Y-39769839D01*
X39992891Y-39688994D01*
X39944808Y-39634622D01*
X39927017Y-39625376D01*
X39850204Y-39596550D01*
X39810976Y-39603935D01*
X39797689Y-39652342D01*
X39797012Y-39679080D01*
X39772686Y-39777452D01*
X39709281Y-39846266D01*
X39621154Y-39879502D01*
X39522663Y-39871139D01*
X39442602Y-39827704D01*
X39415561Y-39802928D01*
X39396394Y-39772871D01*
X39383446Y-39727435D01*
X39375064Y-39656524D01*
X39369593Y-39550040D01*
X39365378Y-39397888D01*
X39364287Y-39349713D01*
X39360307Y-39184905D01*
X39355781Y-39068912D01*
X39348995Y-38992167D01*
X39338231Y-38945107D01*
X39321773Y-38918165D01*
X39297906Y-38901777D01*
X39282626Y-38894537D01*
X39217733Y-38869780D01*
X39179534Y-38861609D01*
X39166912Y-38888897D01*
X39159208Y-38971397D01*
X39156380Y-39110059D01*
X39158386Y-39305838D01*
X39159011Y-39336035D01*
X39163421Y-39514651D01*
X39168635Y-39645077D01*
X39176055Y-39737508D01*
X39187082Y-39802142D01*
X39203117Y-39849175D01*
X39225561Y-39888804D01*
X39237302Y-39905785D01*
X39304619Y-39980920D01*
X39379910Y-40039362D01*
X39389128Y-40044464D01*
X39524133Y-40084740D01*
X39665943Y-40078080D01*
G36*
X40993914Y-39845545D02*
G01*
X40993543Y-39627339D01*
X40992108Y-39459481D01*
X40989002Y-39333930D01*
X40983622Y-39242645D01*
X40975362Y-39177585D01*
X40963616Y-39130709D01*
X40947781Y-39093976D01*
X40935790Y-39073009D01*
X40836490Y-38959306D01*
X40710588Y-38888035D01*
X40571291Y-38862462D01*
X40431805Y-38885850D01*
X40348743Y-38927881D01*
X40261545Y-39000589D01*
X40202117Y-39089388D01*
X40166261Y-39205680D01*
X40149781Y-39360865D01*
X40147447Y-39474713D01*
X40147761Y-39482894D01*
X40351724Y-39482894D01*
X40352970Y-39352343D01*
X40358678Y-39265920D01*
X40371804Y-39209382D01*
X40395306Y-39168486D01*
X40423386Y-39137638D01*
X40517688Y-39078095D01*
X40618940Y-39073008D01*
X40714636Y-39122721D01*
X40722084Y-39129457D01*
X40753874Y-39164498D01*
X40773808Y-39206189D01*
X40784600Y-39268238D01*
X40788965Y-39364356D01*
X40789655Y-39470621D01*
X40788159Y-39604120D01*
X40781964Y-39693178D01*
X40768514Y-39751707D01*
X40745251Y-39793618D01*
X40726175Y-39815877D01*
X40637563Y-39872015D01*
X40535508Y-39878765D01*
X40438095Y-39835886D01*
X40419296Y-39819968D01*
X40387293Y-39784618D01*
X40367318Y-39742498D01*
X40356593Y-39679749D01*
X40352339Y-39582513D01*
X40351724Y-39482894D01*
X40147761Y-39482894D01*
X40154504Y-39658053D01*
X40178472Y-39795805D01*
X40223548Y-39899368D01*
X40293928Y-39980144D01*
X40348743Y-40021545D01*
X40448376Y-40066272D01*
X40563855Y-40087033D01*
X40671199Y-40081475D01*
X40731264Y-40059057D01*
X40754835Y-40052677D01*
X40770477Y-40076465D01*
X40781395Y-40140212D01*
X40789655Y-40237313D01*
X40798699Y-40345459D01*
X40811261Y-40410525D01*
X40834119Y-40447732D01*
X40874051Y-40472301D01*
X40899138Y-40483181D01*
X40994023Y-40522928D01*
X40993914Y-39845545D01*
G37*
X40993914Y-39845545D02*
X40993543Y-39627339D01*
X40992108Y-39459481D01*
X40989002Y-39333930D01*
X40983622Y-39242645D01*
X40975362Y-39177585D01*
X40963616Y-39130709D01*
X40947781Y-39093976D01*
X40935790Y-39073009D01*
X40836490Y-38959306D01*
X40710588Y-38888035D01*
X40571291Y-38862462D01*
X40431805Y-38885850D01*
X40348743Y-38927881D01*
X40261545Y-39000589D01*
X40202117Y-39089388D01*
X40166261Y-39205680D01*
X40149781Y-39360865D01*
X40147447Y-39474713D01*
X40147761Y-39482894D01*
X40351724Y-39482894D01*
X40352970Y-39352343D01*
X40358678Y-39265920D01*
X40371804Y-39209382D01*
X40395306Y-39168486D01*
X40423386Y-39137638D01*
X40517688Y-39078095D01*
X40618940Y-39073008D01*
X40714636Y-39122721D01*
X40722084Y-39129457D01*
X40753874Y-39164498D01*
X40773808Y-39206189D01*
X40784600Y-39268238D01*
X40788965Y-39364356D01*
X40789655Y-39470621D01*
X40788159Y-39604120D01*
X40781964Y-39693178D01*
X40768514Y-39751707D01*
X40745251Y-39793618D01*
X40726175Y-39815877D01*
X40637563Y-39872015D01*
X40535508Y-39878765D01*
X40438095Y-39835886D01*
X40419296Y-39819968D01*
X40387293Y-39784618D01*
X40367318Y-39742498D01*
X40356593Y-39679749D01*
X40352339Y-39582513D01*
X40351724Y-39482894D01*
X40147761Y-39482894D01*
X40154504Y-39658053D01*
X40178472Y-39795805D01*
X40223548Y-39899368D01*
X40293928Y-39980144D01*
X40348743Y-40021545D01*
X40448376Y-40066272D01*
X40563855Y-40087033D01*
X40671199Y-40081475D01*
X40731264Y-40059057D01*
X40754835Y-40052677D01*
X40770477Y-40076465D01*
X40781395Y-40140212D01*
X40789655Y-40237313D01*
X40798699Y-40345459D01*
X40811261Y-40410525D01*
X40834119Y-40447732D01*
X40874051Y-40472301D01*
X40899138Y-40483181D01*
X40994023Y-40522928D01*
X40993914Y-39845545D01*
G36*
X42180124Y-40060160D02*
G01*
X42184579Y-39983347D01*
X42188071Y-39866609D01*
X42190315Y-39719179D01*
X42191035Y-39564545D01*
X42191035Y-39041273D01*
X42098645Y-38948883D01*
X42034978Y-38891953D01*
X41979089Y-38868893D01*
X41902702Y-38870353D01*
X41872380Y-38874066D01*
X41777610Y-38884874D01*
X41699222Y-38891067D01*
X41680115Y-38891639D01*
X41615699Y-38887898D01*
X41523571Y-38878506D01*
X41487850Y-38874066D01*
X41400114Y-38867199D01*
X41341153Y-38882115D01*
X41282690Y-38928165D01*
X41261585Y-38948883D01*
X41169195Y-39041273D01*
X41169195Y-40020053D01*
X41243558Y-40053934D01*
X41307590Y-40079030D01*
X41345052Y-40087816D01*
X41354657Y-40060050D01*
X41363635Y-39982470D01*
X41371386Y-39863652D01*
X41377314Y-39712172D01*
X41380173Y-39584195D01*
X41388161Y-39080575D01*
X41457848Y-39070722D01*
X41521229Y-39077611D01*
X41552286Y-39099917D01*
X41560967Y-39141621D01*
X41568378Y-39230456D01*
X41573931Y-39355166D01*
X41577036Y-39504493D01*
X41577484Y-39581339D01*
X41577931Y-40023713D01*
X41669874Y-40055765D01*
X41734949Y-40077557D01*
X41770347Y-40087719D01*
X41771368Y-40087816D01*
X41774920Y-40060191D01*
X41778823Y-39983589D01*
X41782751Y-39867421D01*
X41786376Y-39721096D01*
X41788908Y-39584195D01*
X41796897Y-39080575D01*
X41972069Y-39080575D01*
X41980107Y-39540035D01*
X41988146Y-39999495D01*
X42073543Y-40043656D01*
X42136593Y-40073981D01*
X42173910Y-40087742D01*
X42174987Y-40087816D01*
X42180124Y-40060160D01*
G37*
X42180124Y-40060160D02*
X42184579Y-39983347D01*
X42188071Y-39866609D01*
X42190315Y-39719179D01*
X42191035Y-39564545D01*
X42191035Y-39041273D01*
X42098645Y-38948883D01*
X42034978Y-38891953D01*
X41979089Y-38868893D01*
X41902702Y-38870353D01*
X41872380Y-38874066D01*
X41777610Y-38884874D01*
X41699222Y-38891067D01*
X41680115Y-38891639D01*
X41615699Y-38887898D01*
X41523571Y-38878506D01*
X41487850Y-38874066D01*
X41400114Y-38867199D01*
X41341153Y-38882115D01*
X41282690Y-38928165D01*
X41261585Y-38948883D01*
X41169195Y-39041273D01*
X41169195Y-40020053D01*
X41243558Y-40053934D01*
X41307590Y-40079030D01*
X41345052Y-40087816D01*
X41354657Y-40060050D01*
X41363635Y-39982470D01*
X41371386Y-39863652D01*
X41377314Y-39712172D01*
X41380173Y-39584195D01*
X41388161Y-39080575D01*
X41457848Y-39070722D01*
X41521229Y-39077611D01*
X41552286Y-39099917D01*
X41560967Y-39141621D01*
X41568378Y-39230456D01*
X41573931Y-39355166D01*
X41577036Y-39504493D01*
X41577484Y-39581339D01*
X41577931Y-40023713D01*
X41669874Y-40055765D01*
X41734949Y-40077557D01*
X41770347Y-40087719D01*
X41771368Y-40087816D01*
X41774920Y-40060191D01*
X41778823Y-39983589D01*
X41782751Y-39867421D01*
X41786376Y-39721096D01*
X41788908Y-39584195D01*
X41796897Y-39080575D01*
X41972069Y-39080575D01*
X41980107Y-39540035D01*
X41988146Y-39999495D01*
X42073543Y-40043656D01*
X42136593Y-40073981D01*
X42173910Y-40087742D01*
X42174987Y-40087816D01*
X42180124Y-40060160D01*
G36*
X42914406Y-40064844D02*
G01*
X42998469Y-40026607D01*
X43064450Y-39980274D01*
X43112794Y-39928468D01*
X43146172Y-39861637D01*
X43167253Y-39770231D01*
X43178707Y-39644699D01*
X43183203Y-39475492D01*
X43183678Y-39364067D01*
X43183678Y-38929373D01*
X43109316Y-38895491D01*
X43050746Y-38870728D01*
X43021730Y-38861609D01*
X43016179Y-38888743D01*
X43011775Y-38961906D01*
X43009078Y-39068737D01*
X43008506Y-39153563D01*
X43006046Y-39276113D01*
X42999412Y-39373332D01*
X42989726Y-39432866D01*
X42982032Y-39445517D01*
X42930311Y-39432598D01*
X42849117Y-39399461D01*
X42755102Y-39354539D01*
X42664917Y-39306265D01*
X42595215Y-39263072D01*
X42562648Y-39233392D01*
X42562519Y-39233071D01*
X42565320Y-39178143D01*
X42590439Y-39125708D01*
X42634541Y-39083119D01*
X42698909Y-39068874D01*
X42753921Y-39070534D01*
X42831835Y-39071755D01*
X42872732Y-39053502D01*
X42897295Y-39005274D01*
X42900392Y-38996180D01*
X42911040Y-38927402D01*
X42882565Y-38885640D01*
X42808344Y-38865737D01*
X42728168Y-38862056D01*
X42583890Y-38889342D01*
X42509203Y-38928310D01*
X42416963Y-39019852D01*
X42368043Y-39132218D01*
X42363654Y-39250949D01*
X42405001Y-39361589D01*
X42467197Y-39430920D01*
X42529294Y-39469735D01*
X42626895Y-39518875D01*
X42740632Y-39568708D01*
X42759590Y-39576323D01*
X42884521Y-39631455D01*
X42956539Y-39680046D01*
X42979700Y-39728353D01*
X42958064Y-39782630D01*
X42920920Y-39825057D01*
X42833127Y-39877298D01*
X42736530Y-39881216D01*
X42647944Y-39840959D01*
X42584186Y-39760674D01*
X42575817Y-39739960D01*
X42527096Y-39663775D01*
X42455965Y-39607215D01*
X42366207Y-39560799D01*
X42366207Y-39692416D01*
X42371490Y-39772832D01*
X42394142Y-39836214D01*
X42444367Y-39903837D01*
X42492582Y-39955924D01*
X42567554Y-40029678D01*
X42625806Y-40069298D01*
X42688372Y-40085190D01*
X42759193Y-40087816D01*
X42914406Y-40064844D01*
G37*
X42914406Y-40064844D02*
X42998469Y-40026607D01*
X43064450Y-39980274D01*
X43112794Y-39928468D01*
X43146172Y-39861637D01*
X43167253Y-39770231D01*
X43178707Y-39644699D01*
X43183203Y-39475492D01*
X43183678Y-39364067D01*
X43183678Y-38929373D01*
X43109316Y-38895491D01*
X43050746Y-38870728D01*
X43021730Y-38861609D01*
X43016179Y-38888743D01*
X43011775Y-38961906D01*
X43009078Y-39068737D01*
X43008506Y-39153563D01*
X43006046Y-39276113D01*
X42999412Y-39373332D01*
X42989726Y-39432866D01*
X42982032Y-39445517D01*
X42930311Y-39432598D01*
X42849117Y-39399461D01*
X42755102Y-39354539D01*
X42664917Y-39306265D01*
X42595215Y-39263072D01*
X42562648Y-39233392D01*
X42562519Y-39233071D01*
X42565320Y-39178143D01*
X42590439Y-39125708D01*
X42634541Y-39083119D01*
X42698909Y-39068874D01*
X42753921Y-39070534D01*
X42831835Y-39071755D01*
X42872732Y-39053502D01*
X42897295Y-39005274D01*
X42900392Y-38996180D01*
X42911040Y-38927402D01*
X42882565Y-38885640D01*
X42808344Y-38865737D01*
X42728168Y-38862056D01*
X42583890Y-38889342D01*
X42509203Y-38928310D01*
X42416963Y-39019852D01*
X42368043Y-39132218D01*
X42363654Y-39250949D01*
X42405001Y-39361589D01*
X42467197Y-39430920D01*
X42529294Y-39469735D01*
X42626895Y-39518875D01*
X42740632Y-39568708D01*
X42759590Y-39576323D01*
X42884521Y-39631455D01*
X42956539Y-39680046D01*
X42979700Y-39728353D01*
X42958064Y-39782630D01*
X42920920Y-39825057D01*
X42833127Y-39877298D01*
X42736530Y-39881216D01*
X42647944Y-39840959D01*
X42584186Y-39760674D01*
X42575817Y-39739960D01*
X42527096Y-39663775D01*
X42455965Y-39607215D01*
X42366207Y-39560799D01*
X42366207Y-39692416D01*
X42371490Y-39772832D01*
X42394142Y-39836214D01*
X42444367Y-39903837D01*
X42492582Y-39955924D01*
X42567554Y-40029678D01*
X42625806Y-40069298D01*
X42688372Y-40085190D01*
X42759193Y-40087816D01*
X42914406Y-40064844D01*
G36*
X43935690Y-40059982D02*
G01*
X43970585Y-40044731D01*
X44053877Y-39978765D01*
X44125103Y-39883382D01*
X44169153Y-39781594D01*
X44176322Y-39731413D01*
X44152285Y-39661353D01*
X44099561Y-39624283D01*
X44043031Y-39601836D01*
X44017146Y-39597700D01*
X44004542Y-39627717D01*
X43979654Y-39693039D01*
X43968735Y-39722555D01*
X43907508Y-39824652D01*
X43818861Y-39875577D01*
X43705193Y-39874011D01*
X43696774Y-39872006D01*
X43636088Y-39843233D01*
X43591474Y-39787141D01*
X43561002Y-39696837D01*
X43542744Y-39565429D01*
X43534771Y-39386026D01*
X43534023Y-39290567D01*
X43533652Y-39140087D01*
X43531223Y-39037505D01*
X43524760Y-38972328D01*
X43512288Y-38934062D01*
X43491833Y-38912215D01*
X43461419Y-38896293D01*
X43459661Y-38895491D01*
X43401091Y-38870728D01*
X43372075Y-38861609D01*
X43367616Y-38889178D01*
X43363799Y-38965380D01*
X43360899Y-39080459D01*
X43359191Y-39224659D01*
X43358851Y-39330186D01*
X43360588Y-39534387D01*
X43367382Y-39689303D01*
X43381607Y-39803976D01*
X43405638Y-39887449D01*
X43441848Y-39948764D01*
X43492612Y-39996966D01*
X43542739Y-40030607D01*
X43663275Y-40075381D01*
X43803557Y-40085479D01*
X43935690Y-40059982D01*
G37*
X43935690Y-40059982D02*
X43970585Y-40044731D01*
X44053877Y-39978765D01*
X44125103Y-39883382D01*
X44169153Y-39781594D01*
X44176322Y-39731413D01*
X44152285Y-39661353D01*
X44099561Y-39624283D01*
X44043031Y-39601836D01*
X44017146Y-39597700D01*
X44004542Y-39627717D01*
X43979654Y-39693039D01*
X43968735Y-39722555D01*
X43907508Y-39824652D01*
X43818861Y-39875577D01*
X43705193Y-39874011D01*
X43696774Y-39872006D01*
X43636088Y-39843233D01*
X43591474Y-39787141D01*
X43561002Y-39696837D01*
X43542744Y-39565429D01*
X43534771Y-39386026D01*
X43534023Y-39290567D01*
X43533652Y-39140087D01*
X43531223Y-39037505D01*
X43524760Y-38972328D01*
X43512288Y-38934062D01*
X43491833Y-38912215D01*
X43461419Y-38896293D01*
X43459661Y-38895491D01*
X43401091Y-38870728D01*
X43372075Y-38861609D01*
X43367616Y-38889178D01*
X43363799Y-38965380D01*
X43360899Y-39080459D01*
X43359191Y-39224659D01*
X43358851Y-39330186D01*
X43360588Y-39534387D01*
X43367382Y-39689303D01*
X43381607Y-39803976D01*
X43405638Y-39887449D01*
X43441848Y-39948764D01*
X43492612Y-39996966D01*
X43542739Y-40030607D01*
X43663275Y-40075381D01*
X43803557Y-40085479D01*
X43935690Y-40059982D01*
G36*
X44943439Y-40043460D02*
G01*
X45058950Y-39967966D01*
X45114664Y-39900383D01*
X45158804Y-39777745D01*
X45162309Y-39680702D01*
X45154368Y-39550944D01*
X44855115Y-39419961D01*
X44709611Y-39353042D01*
X44614537Y-39299210D01*
X44565101Y-39252584D01*
X44556511Y-39207280D01*
X44583972Y-39157418D01*
X44614253Y-39124368D01*
X44702363Y-39071367D01*
X44798196Y-39067653D01*
X44886212Y-39108959D01*
X44950869Y-39191017D01*
X44962433Y-39219992D01*
X45017825Y-39310491D01*
X45081553Y-39349060D01*
X45168966Y-39382054D01*
X45168966Y-39256966D01*
X45161238Y-39171844D01*
X45130966Y-39100062D01*
X45067518Y-39017644D01*
X45058088Y-39006934D01*
X44987513Y-38933609D01*
X44926847Y-38894258D01*
X44850950Y-38876155D01*
X44788030Y-38870226D01*
X44675487Y-38868749D01*
X44595370Y-38887465D01*
X44545390Y-38915253D01*
X44466838Y-38976359D01*
X44412463Y-39042446D01*
X44378052Y-39125559D01*
X44359388Y-39237746D01*
X44352256Y-39391054D01*
X44351687Y-39468864D01*
X44353622Y-39562147D01*
X44529899Y-39562147D01*
X44531944Y-39512104D01*
X44537039Y-39503908D01*
X44570666Y-39515042D01*
X44643030Y-39544507D01*
X44739747Y-39586399D01*
X44759973Y-39595403D01*
X44882203Y-39657558D01*
X44949547Y-39712185D01*
X44964348Y-39763351D01*
X44928947Y-39815124D01*
X44899711Y-39838000D01*
X44794216Y-39883750D01*
X44695476Y-39876192D01*
X44612812Y-39820349D01*
X44555548Y-39721247D01*
X44537188Y-39642586D01*
X44529899Y-39562147D01*
X44353622Y-39562147D01*
X44355459Y-39650649D01*
X44369359Y-39785147D01*
X44396894Y-39883084D01*
X44441572Y-39955189D01*
X44506901Y-40012187D01*
X44535383Y-40030607D01*
X44664763Y-40078578D01*
X44806412Y-40081597D01*
X44943439Y-40043460D01*
G37*
X44943439Y-40043460D02*
X45058950Y-39967966D01*
X45114664Y-39900383D01*
X45158804Y-39777745D01*
X45162309Y-39680702D01*
X45154368Y-39550944D01*
X44855115Y-39419961D01*
X44709611Y-39353042D01*
X44614537Y-39299210D01*
X44565101Y-39252584D01*
X44556511Y-39207280D01*
X44583972Y-39157418D01*
X44614253Y-39124368D01*
X44702363Y-39071367D01*
X44798196Y-39067653D01*
X44886212Y-39108959D01*
X44950869Y-39191017D01*
X44962433Y-39219992D01*
X45017825Y-39310491D01*
X45081553Y-39349060D01*
X45168966Y-39382054D01*
X45168966Y-39256966D01*
X45161238Y-39171844D01*
X45130966Y-39100062D01*
X45067518Y-39017644D01*
X45058088Y-39006934D01*
X44987513Y-38933609D01*
X44926847Y-38894258D01*
X44850950Y-38876155D01*
X44788030Y-38870226D01*
X44675487Y-38868749D01*
X44595370Y-38887465D01*
X44545390Y-38915253D01*
X44466838Y-38976359D01*
X44412463Y-39042446D01*
X44378052Y-39125559D01*
X44359388Y-39237746D01*
X44352256Y-39391054D01*
X44351687Y-39468864D01*
X44353622Y-39562147D01*
X44529899Y-39562147D01*
X44531944Y-39512104D01*
X44537039Y-39503908D01*
X44570666Y-39515042D01*
X44643030Y-39544507D01*
X44739747Y-39586399D01*
X44759973Y-39595403D01*
X44882203Y-39657558D01*
X44949547Y-39712185D01*
X44964348Y-39763351D01*
X44928947Y-39815124D01*
X44899711Y-39838000D01*
X44794216Y-39883750D01*
X44695476Y-39876192D01*
X44612812Y-39820349D01*
X44555548Y-39721247D01*
X44537188Y-39642586D01*
X44529899Y-39562147D01*
X44353622Y-39562147D01*
X44355459Y-39650649D01*
X44369359Y-39785147D01*
X44396894Y-39883084D01*
X44441572Y-39955189D01*
X44506901Y-40012187D01*
X44535383Y-40030607D01*
X44664763Y-40078578D01*
X44806412Y-40081597D01*
X44943439Y-40043460D01*
G36*
X38809014Y-49547002D02*
G01*
X38967006Y-49546137D01*
X39081347Y-49543795D01*
X39159407Y-49539238D01*
X39208554Y-49531730D01*
X39236159Y-49520534D01*
X39249592Y-49504912D01*
X39256221Y-49484127D01*
X39256865Y-49481437D01*
X39266935Y-49432887D01*
X39285575Y-49337095D01*
X39310845Y-49204257D01*
X39340807Y-49044569D01*
X39373522Y-48868226D01*
X39374664Y-48862033D01*
X39407433Y-48689218D01*
X39438093Y-48536531D01*
X39464664Y-48413129D01*
X39485167Y-48328169D01*
X39497626Y-48290810D01*
X39498220Y-48290148D01*
X39534919Y-48271905D01*
X39610586Y-48241503D01*
X39708878Y-48205507D01*
X39709425Y-48205315D01*
X39833233Y-48158778D01*
X39979196Y-48099496D01*
X40116781Y-48039891D01*
X40123293Y-48036944D01*
X40347390Y-47935235D01*
X40843619Y-48274103D01*
X40995846Y-48377408D01*
X41133741Y-48469763D01*
X41249315Y-48545916D01*
X41334579Y-48600615D01*
X41381544Y-48628607D01*
X41386004Y-48630683D01*
X41420134Y-48621440D01*
X41483881Y-48576844D01*
X41579731Y-48494791D01*
X41710169Y-48373179D01*
X41843328Y-48243795D01*
X41971694Y-48116298D01*
X42086581Y-47999954D01*
X42181073Y-47901948D01*
X42248253Y-47829464D01*
X42281206Y-47789687D01*
X42282432Y-47787639D01*
X42286074Y-47760344D01*
X42272350Y-47715766D01*
X42237869Y-47647888D01*
X42179239Y-47550689D01*
X42093070Y-47418149D01*
X41978200Y-47247524D01*
X41876254Y-47097345D01*
X41785123Y-46962650D01*
X41710073Y-46851260D01*
X41656369Y-46770995D01*
X41629280Y-46729675D01*
X41627574Y-46726870D01*
X41630882Y-46687279D01*
X41655953Y-46610331D01*
X41697798Y-46510568D01*
X41712712Y-46478709D01*
X41777786Y-46336774D01*
X41847212Y-46175727D01*
X41903609Y-46036379D01*
X41944247Y-45932956D01*
X41976526Y-45854358D01*
X41995178Y-45813280D01*
X41997497Y-45810115D01*
X42031803Y-45804872D01*
X42112669Y-45790506D01*
X42229343Y-45769063D01*
X42371075Y-45742587D01*
X42527110Y-45713123D01*
X42686698Y-45682717D01*
X42839085Y-45653412D01*
X42973521Y-45627255D01*
X43079252Y-45606290D01*
X43145526Y-45592561D01*
X43161782Y-45588680D01*
X43178573Y-45579100D01*
X43191249Y-45557464D01*
X43200378Y-45516469D01*
X43206531Y-45448811D01*
X43210280Y-45347188D01*
X43212192Y-45204297D01*
X43212840Y-45012835D01*
X43212874Y-44934355D01*
X43212874Y-44296094D01*
X43059598Y-44265840D01*
X42974322Y-44249436D01*
X42847070Y-44225491D01*
X42693315Y-44196893D01*
X42528534Y-44166533D01*
X42482989Y-44158194D01*
X42330932Y-44128630D01*
X42198468Y-44099558D01*
X42096714Y-44073671D01*
X42036788Y-44053663D01*
X42026805Y-44047699D01*
X42002293Y-44005466D01*
X41967148Y-43923630D01*
X41928173Y-43818317D01*
X41920442Y-43795632D01*
X41869360Y-43654982D01*
X41805954Y-43496286D01*
X41743904Y-43353775D01*
X41743598Y-43353114D01*
X41640267Y-43129560D01*
X42319961Y-42129768D01*
X41883621Y-41692700D01*
X41751649Y-41562619D01*
X41631279Y-41447952D01*
X41529273Y-41354819D01*
X41452391Y-41289342D01*
X41407393Y-41257643D01*
X41400938Y-41255632D01*
X41363040Y-41271471D01*
X41285708Y-41315504D01*
X41177389Y-41382510D01*
X41046532Y-41467266D01*
X40905052Y-41562184D01*
X40761461Y-41659002D01*
X40633435Y-41743249D01*
X40529105Y-41809742D01*
X40456600Y-41853298D01*
X40424158Y-41868736D01*
X40384576Y-41855672D01*
X40309519Y-41821250D01*
X40214468Y-41772620D01*
X40204392Y-41767215D01*
X40076391Y-41703020D01*
X39988618Y-41671537D01*
X39934028Y-41671202D01*
X39905575Y-41700452D01*
X39905410Y-41700862D01*
X39891188Y-41735502D01*
X39857269Y-41817731D01*
X39806284Y-41941186D01*
X39740862Y-42099502D01*
X39663634Y-42286314D01*
X39577229Y-42495258D01*
X39493551Y-42697554D01*
X39401588Y-42920800D01*
X39317150Y-43127608D01*
X39242769Y-43311638D01*
X39180974Y-43466549D01*
X39134297Y-43586004D01*
X39105268Y-43663661D01*
X39096322Y-43692644D01*
X39118756Y-43725890D01*
X39177439Y-43778877D01*
X39255689Y-43837296D01*
X39478534Y-44022048D01*
X39652718Y-44233818D01*
X39776154Y-44468144D01*
X39846754Y-44720566D01*
X39862431Y-44986623D01*
X39851036Y-45109425D01*
X39788950Y-45364207D01*
X39682023Y-45589199D01*
X39536889Y-45782183D01*
X39360178Y-45940939D01*
X39158522Y-46063250D01*
X38938554Y-46146895D01*
X38706906Y-46189656D01*
X38470209Y-46189313D01*
X38235095Y-46143648D01*
X38008196Y-46050441D01*
X37796144Y-45907473D01*
X37707636Y-45826617D01*
X37537889Y-45618993D01*
X37419699Y-45392105D01*
X37352278Y-45152567D01*
X37334840Y-44906993D01*
X37366598Y-44661997D01*
X37446765Y-44424192D01*
X37574555Y-44200193D01*
X37749180Y-43996613D01*
X37944312Y-43837296D01*
X38025591Y-43776398D01*
X38083009Y-43723985D01*
X38103678Y-43692594D01*
X38092856Y-43658361D01*
X38062077Y-43576581D01*
X38013874Y-43453593D01*
X37950778Y-43295737D01*
X37875322Y-43109351D01*
X37790038Y-42900774D01*
X37706219Y-42697504D01*
X37613745Y-42474067D01*
X37528089Y-42267016D01*
X37451882Y-42082714D01*
X37387753Y-41927525D01*
X37338332Y-41807812D01*
X37306248Y-41729939D01*
X37294359Y-41700862D01*
X37266274Y-41671323D01*
X37211949Y-41671409D01*
X37124395Y-41702674D01*
X36996619Y-41766671D01*
X36995608Y-41767215D01*
X36899402Y-41816879D01*
X36821631Y-41853055D01*
X36777777Y-41868592D01*
X36775842Y-41868736D01*
X36742829Y-41852976D01*
X36669946Y-41809150D01*
X36565322Y-41742443D01*
X36437090Y-41658036D01*
X36294948Y-41562184D01*
X36150233Y-41465133D01*
X36019804Y-41380730D01*
X35912110Y-41314199D01*
X35835598Y-41270762D01*
X35799062Y-41255632D01*
X35765418Y-41275518D01*
X35697776Y-41331097D01*
X35602893Y-41416246D01*
X35487530Y-41524847D01*
X35358445Y-41650779D01*
X35316229Y-41692851D01*
X34879739Y-42130069D01*
X35211977Y-42617660D01*
X35312946Y-42767395D01*
X35401562Y-42901780D01*
X35472854Y-43013031D01*
X35521850Y-43093361D01*
X35543578Y-43134986D01*
X35544215Y-43137947D01*
X35532760Y-43177182D01*
X35501949Y-43256105D01*
X35457116Y-43361491D01*
X35425647Y-43432046D01*
X35366808Y-43567124D01*
X35311396Y-43703591D01*
X35268436Y-43818897D01*
X35256766Y-43854023D01*
X35223611Y-43947826D01*
X35191201Y-44020306D01*
X35173399Y-44047699D01*
X35134114Y-44064464D01*
X35048374Y-44088230D01*
X34927303Y-44116303D01*
X34782027Y-44145991D01*
X34717012Y-44158194D01*
X34551913Y-44188532D01*
X34393552Y-44217907D01*
X34257404Y-44243431D01*
X34158943Y-44262215D01*
X34140402Y-44265840D01*
X33987127Y-44296094D01*
X33987127Y-44934355D01*
X33987471Y-45144230D01*
X33988884Y-45303020D01*
X33991936Y-45418027D01*
X33997197Y-45496554D01*
X34005237Y-45545904D01*
X34016627Y-45573381D01*
X34031937Y-45586287D01*
X34038218Y-45588680D01*
X34076104Y-45597167D01*
X34159805Y-45614100D01*
X34278567Y-45637434D01*
X34421639Y-45665125D01*
X34578268Y-45695127D01*
X34737703Y-45725396D01*
X34889191Y-45753885D01*
X35021981Y-45778551D01*
X35125319Y-45797349D01*
X35188455Y-45808233D01*
X35202503Y-45810115D01*
X35215230Y-45835296D01*
X35243400Y-45902378D01*
X35281748Y-45998667D01*
X35296391Y-46036379D01*
X35355452Y-46182079D01*
X35425000Y-46343049D01*
X35487288Y-46478709D01*
X35533121Y-46582439D01*
X35563613Y-46667674D01*
X35573792Y-46719874D01*
X35572169Y-46726870D01*
X35550657Y-46759898D01*
X35501535Y-46833357D01*
X35430077Y-46939423D01*
X35341555Y-47070274D01*
X35241241Y-47218088D01*
X35221406Y-47247266D01*
X35105012Y-47420137D01*
X35019452Y-47551774D01*
X34961316Y-47648239D01*
X34927192Y-47715592D01*
X34913669Y-47759894D01*
X34917336Y-47787206D01*
X34917430Y-47787380D01*
X34946293Y-47823254D01*
X35010133Y-47892609D01*
X35102031Y-47988255D01*
X35215067Y-48103001D01*
X35342321Y-48229659D01*
X35356672Y-48243795D01*
X35517043Y-48399097D01*
X35640805Y-48513130D01*
X35730445Y-48587998D01*
X35788448Y-48625804D01*
X35813996Y-48630683D01*
X35851282Y-48609397D01*
X35928657Y-48560227D01*
X36038133Y-48488425D01*
X36171720Y-48399245D01*
X36321430Y-48297937D01*
X36356382Y-48274103D01*
X36852610Y-47935235D01*
X37076707Y-48036944D01*
X37212989Y-48096217D01*
X37359276Y-48155830D01*
X37485035Y-48203360D01*
X37490575Y-48205315D01*
X37588943Y-48241323D01*
X37664771Y-48271771D01*
X37701718Y-48290095D01*
X37701780Y-48290148D01*
X37713504Y-48323271D01*
X37733432Y-48404733D01*
X37759587Y-48525375D01*
X37789990Y-48676041D01*
X37822663Y-48847572D01*
X37825336Y-48862033D01*
X37858110Y-49038765D01*
X37888198Y-49199190D01*
X37913661Y-49333112D01*
X37932559Y-49430337D01*
X37942953Y-49480668D01*
X37943135Y-49481437D01*
X37949461Y-49502847D01*
X37961761Y-49519012D01*
X37987406Y-49530669D01*
X38033765Y-49538555D01*
X38108208Y-49543407D01*
X38218105Y-49545961D01*
X38370825Y-49546955D01*
X38573738Y-49547126D01*
X38600000Y-49547126D01*
X38809014Y-49547002D01*
G37*
X38809014Y-49547002D02*
X38967006Y-49546137D01*
X39081347Y-49543795D01*
X39159407Y-49539238D01*
X39208554Y-49531730D01*
X39236159Y-49520534D01*
X39249592Y-49504912D01*
X39256221Y-49484127D01*
X39256865Y-49481437D01*
X39266935Y-49432887D01*
X39285575Y-49337095D01*
X39310845Y-49204257D01*
X39340807Y-49044569D01*
X39373522Y-48868226D01*
X39374664Y-48862033D01*
X39407433Y-48689218D01*
X39438093Y-48536531D01*
X39464664Y-48413129D01*
X39485167Y-48328169D01*
X39497626Y-48290810D01*
X39498220Y-48290148D01*
X39534919Y-48271905D01*
X39610586Y-48241503D01*
X39708878Y-48205507D01*
X39709425Y-48205315D01*
X39833233Y-48158778D01*
X39979196Y-48099496D01*
X40116781Y-48039891D01*
X40123293Y-48036944D01*
X40347390Y-47935235D01*
X40843619Y-48274103D01*
X40995846Y-48377408D01*
X41133741Y-48469763D01*
X41249315Y-48545916D01*
X41334579Y-48600615D01*
X41381544Y-48628607D01*
X41386004Y-48630683D01*
X41420134Y-48621440D01*
X41483881Y-48576844D01*
X41579731Y-48494791D01*
X41710169Y-48373179D01*
X41843328Y-48243795D01*
X41971694Y-48116298D01*
X42086581Y-47999954D01*
X42181073Y-47901948D01*
X42248253Y-47829464D01*
X42281206Y-47789687D01*
X42282432Y-47787639D01*
X42286074Y-47760344D01*
X42272350Y-47715766D01*
X42237869Y-47647888D01*
X42179239Y-47550689D01*
X42093070Y-47418149D01*
X41978200Y-47247524D01*
X41876254Y-47097345D01*
X41785123Y-46962650D01*
X41710073Y-46851260D01*
X41656369Y-46770995D01*
X41629280Y-46729675D01*
X41627574Y-46726870D01*
X41630882Y-46687279D01*
X41655953Y-46610331D01*
X41697798Y-46510568D01*
X41712712Y-46478709D01*
X41777786Y-46336774D01*
X41847212Y-46175727D01*
X41903609Y-46036379D01*
X41944247Y-45932956D01*
X41976526Y-45854358D01*
X41995178Y-45813280D01*
X41997497Y-45810115D01*
X42031803Y-45804872D01*
X42112669Y-45790506D01*
X42229343Y-45769063D01*
X42371075Y-45742587D01*
X42527110Y-45713123D01*
X42686698Y-45682717D01*
X42839085Y-45653412D01*
X42973521Y-45627255D01*
X43079252Y-45606290D01*
X43145526Y-45592561D01*
X43161782Y-45588680D01*
X43178573Y-45579100D01*
X43191249Y-45557464D01*
X43200378Y-45516469D01*
X43206531Y-45448811D01*
X43210280Y-45347188D01*
X43212192Y-45204297D01*
X43212840Y-45012835D01*
X43212874Y-44934355D01*
X43212874Y-44296094D01*
X43059598Y-44265840D01*
X42974322Y-44249436D01*
X42847070Y-44225491D01*
X42693315Y-44196893D01*
X42528534Y-44166533D01*
X42482989Y-44158194D01*
X42330932Y-44128630D01*
X42198468Y-44099558D01*
X42096714Y-44073671D01*
X42036788Y-44053663D01*
X42026805Y-44047699D01*
X42002293Y-44005466D01*
X41967148Y-43923630D01*
X41928173Y-43818317D01*
X41920442Y-43795632D01*
X41869360Y-43654982D01*
X41805954Y-43496286D01*
X41743904Y-43353775D01*
X41743598Y-43353114D01*
X41640267Y-43129560D01*
X42319961Y-42129768D01*
X41883621Y-41692700D01*
X41751649Y-41562619D01*
X41631279Y-41447952D01*
X41529273Y-41354819D01*
X41452391Y-41289342D01*
X41407393Y-41257643D01*
X41400938Y-41255632D01*
X41363040Y-41271471D01*
X41285708Y-41315504D01*
X41177389Y-41382510D01*
X41046532Y-41467266D01*
X40905052Y-41562184D01*
X40761461Y-41659002D01*
X40633435Y-41743249D01*
X40529105Y-41809742D01*
X40456600Y-41853298D01*
X40424158Y-41868736D01*
X40384576Y-41855672D01*
X40309519Y-41821250D01*
X40214468Y-41772620D01*
X40204392Y-41767215D01*
X40076391Y-41703020D01*
X39988618Y-41671537D01*
X39934028Y-41671202D01*
X39905575Y-41700452D01*
X39905410Y-41700862D01*
X39891188Y-41735502D01*
X39857269Y-41817731D01*
X39806284Y-41941186D01*
X39740862Y-42099502D01*
X39663634Y-42286314D01*
X39577229Y-42495258D01*
X39493551Y-42697554D01*
X39401588Y-42920800D01*
X39317150Y-43127608D01*
X39242769Y-43311638D01*
X39180974Y-43466549D01*
X39134297Y-43586004D01*
X39105268Y-43663661D01*
X39096322Y-43692644D01*
X39118756Y-43725890D01*
X39177439Y-43778877D01*
X39255689Y-43837296D01*
X39478534Y-44022048D01*
X39652718Y-44233818D01*
X39776154Y-44468144D01*
X39846754Y-44720566D01*
X39862431Y-44986623D01*
X39851036Y-45109425D01*
X39788950Y-45364207D01*
X39682023Y-45589199D01*
X39536889Y-45782183D01*
X39360178Y-45940939D01*
X39158522Y-46063250D01*
X38938554Y-46146895D01*
X38706906Y-46189656D01*
X38470209Y-46189313D01*
X38235095Y-46143648D01*
X38008196Y-46050441D01*
X37796144Y-45907473D01*
X37707636Y-45826617D01*
X37537889Y-45618993D01*
X37419699Y-45392105D01*
X37352278Y-45152567D01*
X37334840Y-44906993D01*
X37366598Y-44661997D01*
X37446765Y-44424192D01*
X37574555Y-44200193D01*
X37749180Y-43996613D01*
X37944312Y-43837296D01*
X38025591Y-43776398D01*
X38083009Y-43723985D01*
X38103678Y-43692594D01*
X38092856Y-43658361D01*
X38062077Y-43576581D01*
X38013874Y-43453593D01*
X37950778Y-43295737D01*
X37875322Y-43109351D01*
X37790038Y-42900774D01*
X37706219Y-42697504D01*
X37613745Y-42474067D01*
X37528089Y-42267016D01*
X37451882Y-42082714D01*
X37387753Y-41927525D01*
X37338332Y-41807812D01*
X37306248Y-41729939D01*
X37294359Y-41700862D01*
X37266274Y-41671323D01*
X37211949Y-41671409D01*
X37124395Y-41702674D01*
X36996619Y-41766671D01*
X36995608Y-41767215D01*
X36899402Y-41816879D01*
X36821631Y-41853055D01*
X36777777Y-41868592D01*
X36775842Y-41868736D01*
X36742829Y-41852976D01*
X36669946Y-41809150D01*
X36565322Y-41742443D01*
X36437090Y-41658036D01*
X36294948Y-41562184D01*
X36150233Y-41465133D01*
X36019804Y-41380730D01*
X35912110Y-41314199D01*
X35835598Y-41270762D01*
X35799062Y-41255632D01*
X35765418Y-41275518D01*
X35697776Y-41331097D01*
X35602893Y-41416246D01*
X35487530Y-41524847D01*
X35358445Y-41650779D01*
X35316229Y-41692851D01*
X34879739Y-42130069D01*
X35211977Y-42617660D01*
X35312946Y-42767395D01*
X35401562Y-42901780D01*
X35472854Y-43013031D01*
X35521850Y-43093361D01*
X35543578Y-43134986D01*
X35544215Y-43137947D01*
X35532760Y-43177182D01*
X35501949Y-43256105D01*
X35457116Y-43361491D01*
X35425647Y-43432046D01*
X35366808Y-43567124D01*
X35311396Y-43703591D01*
X35268436Y-43818897D01*
X35256766Y-43854023D01*
X35223611Y-43947826D01*
X35191201Y-44020306D01*
X35173399Y-44047699D01*
X35134114Y-44064464D01*
X35048374Y-44088230D01*
X34927303Y-44116303D01*
X34782027Y-44145991D01*
X34717012Y-44158194D01*
X34551913Y-44188532D01*
X34393552Y-44217907D01*
X34257404Y-44243431D01*
X34158943Y-44262215D01*
X34140402Y-44265840D01*
X33987127Y-44296094D01*
X33987127Y-44934355D01*
X33987471Y-45144230D01*
X33988884Y-45303020D01*
X33991936Y-45418027D01*
X33997197Y-45496554D01*
X34005237Y-45545904D01*
X34016627Y-45573381D01*
X34031937Y-45586287D01*
X34038218Y-45588680D01*
X34076104Y-45597167D01*
X34159805Y-45614100D01*
X34278567Y-45637434D01*
X34421639Y-45665125D01*
X34578268Y-45695127D01*
X34737703Y-45725396D01*
X34889191Y-45753885D01*
X35021981Y-45778551D01*
X35125319Y-45797349D01*
X35188455Y-45808233D01*
X35202503Y-45810115D01*
X35215230Y-45835296D01*
X35243400Y-45902378D01*
X35281748Y-45998667D01*
X35296391Y-46036379D01*
X35355452Y-46182079D01*
X35425000Y-46343049D01*
X35487288Y-46478709D01*
X35533121Y-46582439D01*
X35563613Y-46667674D01*
X35573792Y-46719874D01*
X35572169Y-46726870D01*
X35550657Y-46759898D01*
X35501535Y-46833357D01*
X35430077Y-46939423D01*
X35341555Y-47070274D01*
X35241241Y-47218088D01*
X35221406Y-47247266D01*
X35105012Y-47420137D01*
X35019452Y-47551774D01*
X34961316Y-47648239D01*
X34927192Y-47715592D01*
X34913669Y-47759894D01*
X34917336Y-47787206D01*
X34917430Y-47787380D01*
X34946293Y-47823254D01*
X35010133Y-47892609D01*
X35102031Y-47988255D01*
X35215067Y-48103001D01*
X35342321Y-48229659D01*
X35356672Y-48243795D01*
X35517043Y-48399097D01*
X35640805Y-48513130D01*
X35730445Y-48587998D01*
X35788448Y-48625804D01*
X35813996Y-48630683D01*
X35851282Y-48609397D01*
X35928657Y-48560227D01*
X36038133Y-48488425D01*
X36171720Y-48399245D01*
X36321430Y-48297937D01*
X36356382Y-48274103D01*
X36852610Y-47935235D01*
X37076707Y-48036944D01*
X37212989Y-48096217D01*
X37359276Y-48155830D01*
X37485035Y-48203360D01*
X37490575Y-48205315D01*
X37588943Y-48241323D01*
X37664771Y-48271771D01*
X37701718Y-48290095D01*
X37701780Y-48290148D01*
X37713504Y-48323271D01*
X37733432Y-48404733D01*
X37759587Y-48525375D01*
X37789990Y-48676041D01*
X37822663Y-48847572D01*
X37825336Y-48862033D01*
X37858110Y-49038765D01*
X37888198Y-49199190D01*
X37913661Y-49333112D01*
X37932559Y-49430337D01*
X37942953Y-49480668D01*
X37943135Y-49481437D01*
X37949461Y-49502847D01*
X37961761Y-49519012D01*
X37987406Y-49530669D01*
X38033765Y-49538555D01*
X38108208Y-49543407D01*
X38218105Y-49545961D01*
X38370825Y-49546955D01*
X38573738Y-49547126D01*
X38600000Y-49547126D01*
X38809014Y-49547002D01*
D13*
X121077200Y-31215400D02*
G75*
G03X121077200Y-31215400I-100000J0D01*
G01*
D14*
X117327200Y-43565400D02*
X117327200Y-42965400D01*
X118877200Y-43565400D02*
X117327200Y-43565400D01*
X117327200Y-30365400D02*
X117327200Y-30965400D01*
X118877200Y-30365400D02*
X117327200Y-30365400D01*
D10*
X115528571Y-32804761D02*
X115528571Y-33138095D01*
X116052380Y-33280952D02*
X116052380Y-32804761D01*
X115052380Y-32804761D01*
X115052380Y-33280952D01*
X116052380Y-33709523D02*
X115052380Y-33709523D01*
X115052380Y-33947619D01*
X115100000Y-34090476D01*
X115195238Y-34185714D01*
X115290476Y-34233333D01*
X115480952Y-34280952D01*
X115623809Y-34280952D01*
X115814285Y-34233333D01*
X115909523Y-34185714D01*
X116004761Y-34090476D01*
X116052380Y-33947619D01*
X116052380Y-33709523D01*
X115052380Y-34900000D02*
X115052380Y-34995238D01*
X115100000Y-35090476D01*
X115147619Y-35138095D01*
X115242857Y-35185714D01*
X115433333Y-35233333D01*
X115671428Y-35233333D01*
X115861904Y-35185714D01*
X115957142Y-35138095D01*
X116004761Y-35090476D01*
X116052380Y-34995238D01*
X116052380Y-34900000D01*
X116004761Y-34804761D01*
X115957142Y-34757142D01*
X115861904Y-34709523D01*
X115671428Y-34661904D01*
X115433333Y-34661904D01*
X115242857Y-34709523D01*
X115147619Y-34757142D01*
X115100000Y-34804761D01*
X115052380Y-34900000D01*
X115052380Y-36090476D02*
X115052380Y-35900000D01*
X115100000Y-35804761D01*
X115147619Y-35757142D01*
X115290476Y-35661904D01*
X115480952Y-35614285D01*
X115861904Y-35614285D01*
X115957142Y-35661904D01*
X116004761Y-35709523D01*
X116052380Y-35804761D01*
X116052380Y-35995238D01*
X116004761Y-36090476D01*
X115957142Y-36138095D01*
X115861904Y-36185714D01*
X115623809Y-36185714D01*
X115528571Y-36138095D01*
X115480952Y-36090476D01*
X115433333Y-35995238D01*
X115433333Y-35804761D01*
X115480952Y-35709523D01*
X115528571Y-35661904D01*
X115623809Y-35614285D01*
X115052380Y-36804761D02*
X115052380Y-36900000D01*
X115100000Y-36995238D01*
X115147619Y-37042857D01*
X115242857Y-37090476D01*
X115433333Y-37138095D01*
X115671428Y-37138095D01*
X115861904Y-37090476D01*
X115957142Y-37042857D01*
X116004761Y-36995238D01*
X116052380Y-36900000D01*
X116052380Y-36804761D01*
X116004761Y-36709523D01*
X115957142Y-36661904D01*
X115861904Y-36614285D01*
X115671428Y-36566666D01*
X115433333Y-36566666D01*
X115242857Y-36614285D01*
X115147619Y-36661904D01*
X115100000Y-36709523D01*
X115052380Y-36804761D01*
X116004761Y-37519047D02*
X116052380Y-37661904D01*
X116052380Y-37900000D01*
X116004761Y-37995238D01*
X115957142Y-38042857D01*
X115861904Y-38090476D01*
X115766666Y-38090476D01*
X115671428Y-38042857D01*
X115623809Y-37995238D01*
X115576190Y-37900000D01*
X115528571Y-37709523D01*
X115480952Y-37614285D01*
X115433333Y-37566666D01*
X115338095Y-37519047D01*
X115242857Y-37519047D01*
X115147619Y-37566666D01*
X115100000Y-37614285D01*
X115052380Y-37709523D01*
X115052380Y-37947619D01*
X115100000Y-38090476D01*
X115957142Y-39090476D02*
X116004761Y-39042857D01*
X116052380Y-38900000D01*
X116052380Y-38804761D01*
X116004761Y-38661904D01*
X115909523Y-38566666D01*
X115814285Y-38519047D01*
X115623809Y-38471428D01*
X115480952Y-38471428D01*
X115290476Y-38519047D01*
X115195238Y-38566666D01*
X115100000Y-38661904D01*
X115052380Y-38804761D01*
X115052380Y-38900000D01*
X115100000Y-39042857D01*
X115147619Y-39090476D01*
X115385714Y-39947619D02*
X116052380Y-39947619D01*
X115004761Y-39709523D02*
X115719047Y-39471428D01*
X115719047Y-40090476D01*
M02*
