G04 #@! TF.GenerationSoftware,KiCad,Pcbnew,5.1.6-c6e7f7d~86~ubuntu18.04.1*
G04 #@! TF.CreationDate,2020-05-28T17:45:01+02:00*
G04 #@! TF.ProjectId,epaper-breakout,65706170-6572-42d6-9272-65616b6f7574,rev?*
G04 #@! TF.SameCoordinates,Original*
G04 #@! TF.FileFunction,Copper,L2,Bot*
G04 #@! TF.FilePolarity,Positive*
%FSLAX46Y46*%
G04 Gerber Fmt 4.6, Leading zero omitted, Abs format (unit mm)*
G04 Created by KiCad (PCBNEW 5.1.6-c6e7f7d~86~ubuntu18.04.1) date 2020-05-28 17:45:01*
%MOMM*%
%LPD*%
G01*
G04 APERTURE LIST*
G04 #@! TA.AperFunction,EtchedComponent*
%ADD10C,0.100000*%
G04 #@! TD*
G04 #@! TA.AperFunction,SMDPad,CuDef*
%ADD11C,0.100000*%
G04 #@! TD*
G04 #@! TA.AperFunction,SMDPad,CuDef*
%ADD12R,1.000000X1.500000*%
G04 #@! TD*
G04 #@! TA.AperFunction,ComponentPad*
%ADD13C,1.290000*%
G04 #@! TD*
G04 #@! TA.AperFunction,ComponentPad*
%ADD14O,1.100000X1.700000*%
G04 #@! TD*
G04 #@! TA.AperFunction,ComponentPad*
%ADD15C,0.800000*%
G04 #@! TD*
G04 #@! TA.AperFunction,SMDPad,CuDef*
%ADD16R,0.950000X0.400000*%
G04 #@! TD*
G04 #@! TA.AperFunction,SMDPad,CuDef*
%ADD17R,0.800000X0.300000*%
G04 #@! TD*
G04 #@! TA.AperFunction,SMDPad,CuDef*
%ADD18R,0.650000X0.300000*%
G04 #@! TD*
G04 #@! TA.AperFunction,ComponentPad*
%ADD19O,1.700000X1.700000*%
G04 #@! TD*
G04 #@! TA.AperFunction,ComponentPad*
%ADD20R,1.700000X1.700000*%
G04 #@! TD*
G04 #@! TA.AperFunction,ViaPad*
%ADD21C,0.800000*%
G04 #@! TD*
G04 #@! TA.AperFunction,Conductor*
%ADD22C,0.250000*%
G04 #@! TD*
G04 #@! TA.AperFunction,Conductor*
%ADD23C,0.500000*%
G04 #@! TD*
G04 #@! TA.AperFunction,Conductor*
%ADD24C,0.200000*%
G04 #@! TD*
G04 #@! TA.AperFunction,Conductor*
%ADD25C,0.254000*%
G04 #@! TD*
G04 APERTURE END LIST*
D10*
G36*
X43753200Y-27973300D02*
G01*
X44253200Y-27973300D01*
X44253200Y-27373300D01*
X43753200Y-27373300D01*
X43753200Y-27973300D01*
G37*
G04 #@! TA.AperFunction,SMDPad,CuDef*
D11*
G36*
X43903200Y-28423300D02*
G01*
X43353200Y-28423300D01*
X43353200Y-28422698D01*
X43328666Y-28422698D01*
X43279835Y-28417888D01*
X43231710Y-28408316D01*
X43184755Y-28394072D01*
X43139422Y-28375295D01*
X43096149Y-28352164D01*
X43055350Y-28324904D01*
X43017421Y-28293776D01*
X42982724Y-28259079D01*
X42951596Y-28221150D01*
X42924336Y-28180351D01*
X42901205Y-28137078D01*
X42882428Y-28091745D01*
X42868184Y-28044790D01*
X42858612Y-27996665D01*
X42853802Y-27947834D01*
X42853802Y-27923300D01*
X42853200Y-27923300D01*
X42853200Y-27423300D01*
X42853802Y-27423300D01*
X42853802Y-27398766D01*
X42858612Y-27349935D01*
X42868184Y-27301810D01*
X42882428Y-27254855D01*
X42901205Y-27209522D01*
X42924336Y-27166249D01*
X42951596Y-27125450D01*
X42982724Y-27087521D01*
X43017421Y-27052824D01*
X43055350Y-27021696D01*
X43096149Y-26994436D01*
X43139422Y-26971305D01*
X43184755Y-26952528D01*
X43231710Y-26938284D01*
X43279835Y-26928712D01*
X43328666Y-26923902D01*
X43353200Y-26923902D01*
X43353200Y-26923300D01*
X43903200Y-26923300D01*
X43903200Y-28423300D01*
G37*
G04 #@! TD.AperFunction*
D12*
X44653200Y-27673300D03*
G04 #@! TA.AperFunction,SMDPad,CuDef*
D11*
G36*
X45953200Y-26923902D02*
G01*
X45977734Y-26923902D01*
X46026565Y-26928712D01*
X46074690Y-26938284D01*
X46121645Y-26952528D01*
X46166978Y-26971305D01*
X46210251Y-26994436D01*
X46251050Y-27021696D01*
X46288979Y-27052824D01*
X46323676Y-27087521D01*
X46354804Y-27125450D01*
X46382064Y-27166249D01*
X46405195Y-27209522D01*
X46423972Y-27254855D01*
X46438216Y-27301810D01*
X46447788Y-27349935D01*
X46452598Y-27398766D01*
X46452598Y-27423300D01*
X46453200Y-27423300D01*
X46453200Y-27923300D01*
X46452598Y-27923300D01*
X46452598Y-27947834D01*
X46447788Y-27996665D01*
X46438216Y-28044790D01*
X46423972Y-28091745D01*
X46405195Y-28137078D01*
X46382064Y-28180351D01*
X46354804Y-28221150D01*
X46323676Y-28259079D01*
X46288979Y-28293776D01*
X46251050Y-28324904D01*
X46210251Y-28352164D01*
X46166978Y-28375295D01*
X46121645Y-28394072D01*
X46074690Y-28408316D01*
X46026565Y-28417888D01*
X45977734Y-28422698D01*
X45953200Y-28422698D01*
X45953200Y-28423300D01*
X45403200Y-28423300D01*
X45403200Y-26923300D01*
X45953200Y-26923300D01*
X45953200Y-26923902D01*
G37*
G04 #@! TD.AperFunction*
D13*
X32888000Y-23765000D03*
X28038000Y-23765000D03*
D14*
X34063000Y-21065000D03*
X26863000Y-21065000D03*
D15*
X82079200Y-40127400D03*
X83079200Y-40127400D03*
X84079200Y-40127400D03*
X85079200Y-40127400D03*
X86079200Y-40127400D03*
X86079200Y-39127400D03*
X85079200Y-39127400D03*
X84079200Y-39127400D03*
X83079200Y-39127400D03*
X82079200Y-39127400D03*
X82079200Y-37127400D03*
X83079200Y-37127400D03*
X84079200Y-37127400D03*
X85079200Y-37127400D03*
X86079200Y-37127400D03*
X86079200Y-38127400D03*
X85079200Y-38127400D03*
X84079200Y-38127400D03*
X83079200Y-38127400D03*
X82079200Y-38127400D03*
X86079200Y-36127400D03*
X85079200Y-36127400D03*
X84079200Y-36127400D03*
X83079200Y-36127400D03*
X82079200Y-36127400D03*
D16*
X119802200Y-43365400D03*
X119802200Y-30565400D03*
D17*
X120077200Y-42665400D03*
D18*
X117202200Y-42365400D03*
D17*
X120077200Y-42065400D03*
D18*
X117202200Y-41765400D03*
D17*
X120077200Y-41465400D03*
D18*
X117202200Y-41165400D03*
D17*
X120077200Y-40865400D03*
D18*
X117202200Y-40565400D03*
D17*
X120077200Y-40265400D03*
D18*
X117202200Y-39965400D03*
D17*
X120077200Y-39665400D03*
D18*
X117202200Y-39365400D03*
D17*
X120077200Y-39065400D03*
D18*
X117202200Y-38765400D03*
D17*
X120077200Y-38465400D03*
D18*
X117202200Y-38165400D03*
D17*
X120077200Y-37865400D03*
D18*
X117202200Y-37565400D03*
D17*
X120077200Y-37265400D03*
D18*
X117202200Y-36965400D03*
D17*
X120077200Y-36665400D03*
D18*
X117202200Y-36365400D03*
D17*
X120077200Y-36065400D03*
D18*
X117202200Y-35765400D03*
D17*
X120077200Y-35465400D03*
D18*
X117202200Y-35165400D03*
D17*
X120077200Y-34865400D03*
D18*
X117202200Y-34565400D03*
D17*
X120077200Y-34265400D03*
D18*
X117202200Y-33965400D03*
D17*
X120077200Y-33665400D03*
D18*
X117202200Y-33365400D03*
D17*
X120077200Y-33065400D03*
D18*
X117202200Y-32765400D03*
D17*
X120077200Y-32465400D03*
D18*
X117202200Y-32165400D03*
D17*
X120077200Y-31865400D03*
D18*
X117202200Y-31565400D03*
D17*
X120077200Y-31265400D03*
D19*
X27161000Y-38591000D03*
X29701000Y-38591000D03*
X27161000Y-41131000D03*
X29701000Y-41131000D03*
X27161000Y-43671000D03*
X29701000Y-43671000D03*
X27161000Y-46211000D03*
X29701000Y-46211000D03*
X27161000Y-48751000D03*
D20*
X29701000Y-48751000D03*
D21*
X33997900Y-49542700D03*
X117381800Y-43213800D03*
X26145000Y-29066000D03*
X26018000Y-28177000D03*
X27034000Y-28558000D03*
X34400000Y-24621000D03*
X26145000Y-24367000D03*
X31733000Y-29828000D03*
X34654000Y-26907000D03*
X33765000Y-27415000D03*
X32241000Y-37194000D03*
X33003000Y-37829000D03*
X31733000Y-37956000D03*
X32876000Y-43925000D03*
X33765000Y-43798000D03*
X32876000Y-44814000D03*
X53577000Y-44306000D03*
X53577000Y-45449000D03*
X45195000Y-42274000D03*
X45195000Y-44179000D03*
X44814000Y-43163000D03*
X54974000Y-40115000D03*
X55863000Y-38972000D03*
X56752000Y-40115000D03*
X58657000Y-40115000D03*
X64499000Y-43671000D03*
X65515000Y-43671000D03*
X66594500Y-43607500D03*
X96249000Y-44179000D03*
X53831000Y-20684000D03*
X53323000Y-21827000D03*
X122792000Y-41512000D03*
X108600000Y-49800000D03*
X116000000Y-49200000D03*
X120760000Y-46846000D03*
X122919000Y-49386000D03*
X121014000Y-49386000D03*
X107600000Y-21200000D03*
X106800000Y-22400000D03*
X108400000Y-22400000D03*
X103200000Y-24800000D03*
X101600000Y-24800000D03*
X102400000Y-24200000D03*
X108600000Y-26600000D03*
X122200000Y-22400000D03*
X45600000Y-21000000D03*
X45600000Y-22000000D03*
X38800000Y-20600000D03*
X38800000Y-21800000D03*
X39800000Y-21200000D03*
X122200000Y-23800000D03*
X123200000Y-23000000D03*
X68200000Y-20600000D03*
X69000000Y-21600000D03*
X85800000Y-20800000D03*
X86600000Y-21800000D03*
X90566402Y-38127400D03*
X39712900Y-28308300D03*
X40640000Y-25273000D03*
X43230800Y-25971500D03*
X47485300Y-25869900D03*
X53454300Y-25450800D03*
X63500000Y-27597100D03*
X63296800Y-32626300D03*
X59486800Y-32473900D03*
X56934100Y-30073600D03*
X55228000Y-33003000D03*
X49352200Y-31470600D03*
X40728900Y-31318200D03*
X40906700Y-34594800D03*
X38125400Y-36779200D03*
X44729400Y-37846000D03*
X47117000Y-34556700D03*
X44081700Y-45783500D03*
X43611800Y-49606200D03*
X59677300Y-49352200D03*
X64960500Y-49377600D03*
X79590900Y-31965900D03*
X85521800Y-43561000D03*
X87960200Y-49060100D03*
X91782900Y-49072800D03*
X95072200Y-38620700D03*
X97472500Y-37896800D03*
X101993700Y-27114500D03*
X83604100Y-26314400D03*
X100634800Y-43472100D03*
X104051100Y-42608500D03*
X102222300Y-38176200D03*
X88861900Y-25247600D03*
X91503500Y-25247600D03*
X93472000Y-20800000D03*
X112352600Y-33180800D03*
X55736000Y-31733000D03*
X113597200Y-33155400D03*
X57800000Y-33000000D03*
X121471200Y-29497800D03*
X116000000Y-46000000D03*
X64600000Y-33000000D03*
X118146061Y-27211800D03*
X58022000Y-36432000D03*
X107777012Y-44715988D03*
X68309000Y-49386000D03*
X80501000Y-49005000D03*
X115629200Y-43315400D03*
X98992200Y-39505400D03*
X108263200Y-38235400D03*
X108771200Y-43315400D03*
X116543600Y-27796000D03*
X109406200Y-38235400D03*
X122855500Y-31694900D03*
X110307900Y-43074100D03*
X121654190Y-34115410D03*
X113597200Y-40267400D03*
X121776000Y-39480000D03*
X114264211Y-38775411D03*
X121445800Y-38489400D03*
X83739500Y-21255500D03*
X91744800Y-23990300D03*
X115248200Y-37600400D03*
X121090200Y-37498800D03*
X110549200Y-38184600D03*
X98890600Y-42680400D03*
X93785200Y-36711400D03*
X116010200Y-36203400D03*
X111489000Y-37143200D03*
X92007200Y-35949400D03*
X121217200Y-36457400D03*
X111311200Y-35949400D03*
X112579209Y-34677409D03*
X65400000Y-32000000D03*
X112925002Y-32227398D03*
X122385600Y-33231600D03*
X121014000Y-43467800D03*
X114486200Y-40902400D03*
X114359200Y-29802600D03*
X93328000Y-44560000D03*
X94852000Y-43671000D03*
X31733000Y-46592000D03*
X96249000Y-49132000D03*
X96249000Y-30844000D03*
X80755000Y-43036000D03*
X82249200Y-44530200D03*
X80979200Y-44462800D03*
X104453200Y-38235400D03*
X100313000Y-34908000D03*
X46719000Y-32495000D03*
X105723200Y-38235400D03*
X101710000Y-34273000D03*
X44560000Y-31352000D03*
X79993705Y-39860295D03*
X76056705Y-35923295D03*
X34400000Y-31754000D03*
X82279000Y-26399000D03*
X34400000Y-30484000D03*
X81009000Y-26399000D03*
X35421546Y-29373854D03*
X121776000Y-42680400D03*
X114384600Y-28761200D03*
X113267000Y-42655000D03*
X94598000Y-26145000D03*
X32303000Y-35346300D03*
X42909000Y-41004000D03*
X116400000Y-23200000D03*
X108300000Y-29300000D03*
X43671000Y-24494000D03*
X106993200Y-38235400D03*
X105774000Y-42655000D03*
X48878000Y-23986000D03*
X101964000Y-28431000D03*
D22*
X120654380Y-31865400D02*
X123274600Y-29245180D01*
X120077200Y-31865400D02*
X120654380Y-31865400D01*
X117852201Y-42775401D02*
X117413802Y-43213800D01*
X117852201Y-41240401D02*
X117852201Y-42775401D01*
X117202200Y-41165400D02*
X117777200Y-41165400D01*
X117777200Y-41165400D02*
X117852201Y-41240401D01*
X117413802Y-43213800D02*
X117381800Y-43213800D01*
X117381800Y-43213800D02*
X117254800Y-43213800D01*
X121741820Y-41207200D02*
X120800020Y-40265400D01*
X120800020Y-40265400D02*
X120077200Y-40265400D01*
X123274600Y-29245180D02*
X123274600Y-25738600D01*
X122919000Y-41385000D02*
X122919000Y-41512000D01*
X122919000Y-41512000D02*
X122792000Y-41512000D01*
X122869610Y-41335610D02*
X122919000Y-41385000D01*
X122792000Y-41512000D02*
X122792000Y-41512000D01*
X122580189Y-41300189D02*
X122792000Y-41512000D01*
X121945189Y-41300189D02*
X122580189Y-41300189D01*
X121852200Y-41207200D02*
X121945189Y-41300189D01*
X121741820Y-41207200D02*
X121852200Y-41207200D01*
X123721112Y-40582888D02*
X122792000Y-41512000D01*
X123721112Y-33580197D02*
X123721112Y-40582888D01*
X120763610Y-33665400D02*
X121962441Y-32466569D01*
X120077200Y-33665400D02*
X120763610Y-33665400D01*
X121962441Y-32466569D02*
X123082749Y-32466569D01*
X123082749Y-32466569D02*
X123719055Y-33102875D01*
X123719055Y-33102875D02*
X123721112Y-33580197D01*
X120654380Y-31865400D02*
X123173000Y-29346780D01*
D23*
X90566402Y-38127400D02*
X84644885Y-38127400D01*
X84644885Y-38127400D02*
X84079200Y-38127400D01*
X95849001Y-43409999D02*
X90566402Y-38127400D01*
X95849001Y-43779001D02*
X95849001Y-43409999D01*
X96249000Y-44179000D02*
X95849001Y-43779001D01*
X97360998Y-45290998D02*
X105800000Y-45290998D01*
X96249000Y-44179000D02*
X97360998Y-45290998D01*
X105800000Y-47000000D02*
X108600000Y-49800000D01*
X105800000Y-45290998D02*
X105800000Y-47000000D01*
X90566402Y-38127400D02*
X90566402Y-38127400D01*
D24*
X119027230Y-30792333D02*
X119007400Y-30772503D01*
X120077200Y-37865400D02*
X119477200Y-37865400D01*
X119477200Y-37865400D02*
X119377199Y-37765399D01*
X119027231Y-31219431D02*
X119027230Y-30792333D01*
X119027231Y-34369031D02*
X119337600Y-34679400D01*
X119027231Y-31219431D02*
X119027231Y-34369031D01*
X119337600Y-35619200D02*
X119337600Y-34679400D01*
X119377199Y-35658799D02*
X119337600Y-35619200D01*
X119377199Y-37765399D02*
X119377199Y-35658799D01*
X114232200Y-25306800D02*
X115603800Y-25306800D01*
X111952601Y-27586399D02*
X114232200Y-25306800D01*
X111952601Y-32780801D02*
X111952601Y-27586399D01*
X115615134Y-25311769D02*
X119033066Y-25311769D01*
X119033066Y-25311769D02*
X120046092Y-26324795D01*
X120046092Y-26324795D02*
X120046092Y-28522106D01*
X115603800Y-25306800D02*
X115615134Y-25311769D01*
X120046092Y-28522106D02*
X118804200Y-29763995D01*
X118804200Y-29763995D02*
X118804200Y-30564600D01*
X119027230Y-30787630D02*
X119027230Y-30792333D01*
X118804200Y-30564600D02*
X119027230Y-30787630D01*
D22*
X55736000Y-31733000D02*
X55736000Y-31733000D01*
X55736000Y-31733000D02*
X55736000Y-27264000D01*
X55736000Y-27264000D02*
X57000000Y-26000000D01*
X57000000Y-26000000D02*
X57213960Y-25786040D01*
X57213960Y-25786040D02*
X77400000Y-25786040D01*
X111952601Y-32780801D02*
X112352600Y-33180800D01*
X83327180Y-31600000D02*
X110771800Y-31600000D01*
X77513220Y-25786040D02*
X83327180Y-31600000D01*
X110771800Y-31600000D02*
X111952601Y-32780801D01*
X77400000Y-25786040D02*
X77513220Y-25786040D01*
D24*
X117727200Y-38165400D02*
X118227211Y-37665389D01*
X118227211Y-31123713D02*
X118227209Y-31123711D01*
X117202200Y-38165400D02*
X117727200Y-38165400D01*
X118227211Y-37665389D02*
X118227211Y-31123713D01*
X118227211Y-31123712D02*
X118227211Y-31123713D01*
X113259189Y-30462088D02*
X113259189Y-27411207D01*
X114126890Y-31329788D02*
X113259189Y-30462088D01*
X118701688Y-26111789D02*
X119246072Y-26656173D01*
X113259189Y-27411207D02*
X114558607Y-26111789D01*
X114126890Y-32625710D02*
X114126890Y-31329788D01*
X119246072Y-26656173D02*
X119246072Y-28190728D01*
X117807212Y-30703713D02*
X118227211Y-31123712D01*
X117807212Y-29629587D02*
X117807212Y-30703713D01*
X114558607Y-26111789D02*
X118701688Y-26111789D01*
X113597200Y-33155400D02*
X114126890Y-32625710D01*
X119246072Y-28190728D02*
X117807212Y-29629587D01*
D22*
X109954630Y-32050010D02*
X83140779Y-32050009D01*
X111810421Y-33905801D02*
X109954630Y-32050010D01*
X113597200Y-33155400D02*
X112846799Y-33905801D01*
X112846799Y-33905801D02*
X111810421Y-33905801D01*
X83140779Y-32050009D02*
X77326820Y-26236050D01*
X77326820Y-26236050D02*
X58363950Y-26236050D01*
X58363950Y-26236050D02*
X57800000Y-26800000D01*
X57800000Y-26800000D02*
X57800000Y-33000000D01*
X57800000Y-33000000D02*
X57800000Y-33000000D01*
X121471200Y-30063485D02*
X121471200Y-29497800D01*
X121471200Y-30121400D02*
X121471200Y-30063485D01*
X120327200Y-31265400D02*
X121471200Y-30121400D01*
X120077200Y-31265400D02*
X120327200Y-31265400D01*
X112214001Y-37491201D02*
X111870001Y-37835201D01*
X112214001Y-35779199D02*
X112214001Y-37491201D01*
X109924232Y-33489430D02*
X112214001Y-35779199D01*
X111870001Y-37835201D02*
X111870001Y-43239201D01*
X115600001Y-45600001D02*
X116000000Y-46000000D01*
X114375010Y-44375010D02*
X115600001Y-45600001D01*
X113005810Y-44375010D02*
X114375010Y-44375010D01*
X111870001Y-43239201D02*
X113005810Y-44375010D01*
X66289430Y-33489430D02*
X65489430Y-33489430D01*
X66289430Y-33489430D02*
X109924232Y-33489430D01*
X65489430Y-33489430D02*
X65000000Y-33000000D01*
X65000000Y-33000000D02*
X64600000Y-33000000D01*
X64600000Y-33000000D02*
X64600000Y-33000000D01*
D24*
X117842613Y-28462790D02*
X118146061Y-28159342D01*
X118146061Y-28159342D02*
X118146061Y-27211800D01*
X117202200Y-31230098D02*
X117007192Y-31035090D01*
X117007192Y-31035090D02*
X117007192Y-29213508D01*
X117007192Y-29213508D02*
X117757911Y-28462790D01*
X117202200Y-31565400D02*
X117202200Y-31230098D01*
X117757911Y-28462790D02*
X117842613Y-28462790D01*
D22*
X58022000Y-36432000D02*
X58022000Y-36432000D01*
X58587685Y-36432000D02*
X58022000Y-36432000D01*
X74600000Y-36800000D02*
X74402010Y-36997990D01*
X74600000Y-36306998D02*
X74600000Y-36800000D01*
X59153675Y-36997990D02*
X58587685Y-36432000D01*
X74402010Y-36997990D02*
X59153675Y-36997990D01*
X107777012Y-44715988D02*
X99700786Y-44715988D01*
X99700786Y-44715988D02*
X89942809Y-34958011D01*
X75948987Y-34958011D02*
X74600000Y-36306998D01*
X89942809Y-34958011D02*
X75948987Y-34958011D01*
X68708999Y-49785999D02*
X79720001Y-49785999D01*
X68309000Y-49386000D02*
X68708999Y-49785999D01*
X79720001Y-49785999D02*
X80501000Y-49005000D01*
X80501000Y-49005000D02*
X80501000Y-49005000D01*
X124214400Y-43620200D02*
X124163600Y-31834600D01*
X123808000Y-44026600D02*
X124214400Y-43620200D01*
X123071400Y-44788600D02*
X123808000Y-44026600D01*
X115629200Y-43315400D02*
X117102400Y-44788600D01*
X117102400Y-44788600D02*
X123071400Y-44788600D01*
X123298899Y-30969899D02*
X124163600Y-31834600D01*
X122186291Y-30969899D02*
X123298899Y-30969899D01*
X120690790Y-32465400D02*
X122186291Y-30969899D01*
X120077200Y-32465400D02*
X120690790Y-32465400D01*
X117102400Y-45970602D02*
X117102400Y-44788600D01*
X98992200Y-39505400D02*
X102878400Y-43391600D01*
X116348001Y-46725001D02*
X117102400Y-45970602D01*
X115525001Y-46725001D02*
X116348001Y-46725001D01*
X113625020Y-44825020D02*
X115525001Y-46725001D01*
X102878400Y-43391600D02*
X107591600Y-43391600D01*
X112819409Y-44825019D02*
X113625020Y-44825020D01*
X112034791Y-44040401D02*
X112819409Y-44825019D01*
X107591600Y-43391600D02*
X108240401Y-44040401D01*
X108240401Y-44040401D02*
X112034791Y-44040401D01*
X108390200Y-38362400D02*
X108263200Y-38235400D01*
X108390200Y-42553400D02*
X108390200Y-38362400D01*
X108371201Y-42572399D02*
X108390200Y-42553400D01*
X108371201Y-42915401D02*
X108371201Y-42572399D01*
X108771200Y-43315400D02*
X108371201Y-42915401D01*
D24*
X117202200Y-32765400D02*
X116677200Y-32765400D01*
X115826930Y-31915130D02*
X115826930Y-28781130D01*
X116677200Y-32765400D02*
X115826930Y-31915130D01*
X115826930Y-28781130D02*
X115837870Y-28781130D01*
X116543600Y-27796000D02*
X116543600Y-27796000D01*
X115826930Y-28512670D02*
X116543600Y-27796000D01*
X115826930Y-28781130D02*
X115826930Y-28512670D01*
D22*
X109406200Y-38235400D02*
X109406200Y-38235400D01*
X120727200Y-33065400D02*
X121776041Y-32016559D01*
X120077200Y-33065400D02*
X120727200Y-33065400D01*
X121776041Y-32016559D02*
X122533841Y-32016559D01*
X122533841Y-32016559D02*
X122855500Y-31694900D01*
X122855500Y-31694900D02*
X122893600Y-31656800D01*
X109660200Y-42426400D02*
X110307900Y-43074100D01*
X109660200Y-38489400D02*
X109660200Y-42426400D01*
X109406200Y-38235400D02*
X109660200Y-38489400D01*
X120077200Y-34265400D02*
X120727200Y-34265400D01*
X120727200Y-34265400D02*
X120877190Y-34115410D01*
X120877190Y-34115410D02*
X121654190Y-34115410D01*
X116627200Y-34565400D02*
X117202200Y-34565400D01*
X113597200Y-40267400D02*
X113597200Y-39181402D01*
X113539210Y-39123412D02*
X113539210Y-36328568D01*
X113597200Y-39181402D02*
X113539210Y-39123412D01*
X115302378Y-34565400D02*
X116627200Y-34565400D01*
X113539210Y-36328568D02*
X115302378Y-34565400D01*
D24*
X121792600Y-34865400D02*
X120677200Y-34865400D01*
X120677200Y-34865400D02*
X120077200Y-34865400D01*
X122354560Y-38901440D02*
X122354560Y-37487439D01*
X121776000Y-39480000D02*
X122354560Y-38901440D01*
X122717221Y-35790021D02*
X121792600Y-34865400D01*
X122354560Y-37487439D02*
X122717221Y-37124779D01*
X122717221Y-37124779D02*
X122717221Y-35790021D01*
D22*
X116605187Y-35028389D02*
X116742198Y-35165400D01*
X115475799Y-35028389D02*
X116605187Y-35028389D01*
X116742198Y-35165400D02*
X117202200Y-35165400D01*
X114264211Y-36239977D02*
X115475799Y-35028389D01*
X114264211Y-38775411D02*
X114264211Y-36239977D01*
D24*
X120607499Y-35465400D02*
X120077200Y-35465400D01*
X121954550Y-37980650D02*
X121954550Y-37321750D01*
X121445800Y-38489400D02*
X121954550Y-37980650D01*
X121954550Y-37321750D02*
X122317211Y-36959090D01*
X122317211Y-35955710D02*
X121718890Y-35357389D01*
X120715510Y-35357389D02*
X120607499Y-35465400D01*
X121718890Y-35357389D02*
X120715510Y-35357389D01*
X122317211Y-36959090D02*
X122317211Y-35955710D01*
D22*
X86283800Y-23990300D02*
X83739500Y-21255500D01*
X91744800Y-23990300D02*
X86283800Y-23990300D01*
X116627200Y-35765400D02*
X117202200Y-35765400D01*
X115662199Y-35478399D02*
X116340199Y-35478399D01*
X115248200Y-35892398D02*
X115662199Y-35478399D01*
X116340199Y-35478399D02*
X116627200Y-35765400D01*
X115248200Y-37600400D02*
X115248200Y-35892398D01*
D24*
X120881199Y-35757399D02*
X120573198Y-36065400D01*
X120573198Y-36065400D02*
X120077200Y-36065400D01*
X121553201Y-35757399D02*
X120881199Y-35757399D01*
X121917201Y-36121399D02*
X121553201Y-35757399D01*
X121917201Y-36793401D02*
X121917201Y-36121399D01*
X121211802Y-37498800D02*
X121917201Y-36793401D01*
X121090200Y-37498800D02*
X121211802Y-37498800D01*
D22*
X98490601Y-42280401D02*
X98890600Y-42680400D01*
X98267199Y-42056999D02*
X98490601Y-42280401D01*
X110549200Y-38184600D02*
X109838000Y-37473400D01*
X109838000Y-37473400D02*
X99754200Y-37473400D01*
X99754200Y-37473400D02*
X98267199Y-38960401D01*
X98267199Y-38960401D02*
X98267199Y-42056999D01*
X116172200Y-36365400D02*
X117202200Y-36365400D01*
X116010200Y-36203400D02*
X116172200Y-36365400D01*
X93801199Y-36727399D02*
X93785200Y-36711400D01*
X110946199Y-36727399D02*
X93801199Y-36727399D01*
X110971599Y-36752799D02*
X110946199Y-36727399D01*
X111489000Y-37143200D02*
X111489000Y-37143200D01*
X111098599Y-36752799D02*
X110971599Y-36752799D01*
X111489000Y-37143200D02*
X111098599Y-36752799D01*
X121009200Y-36665400D02*
X120077200Y-36665400D01*
X121217200Y-36457400D02*
X121009200Y-36665400D01*
X111311200Y-35949400D02*
X111565200Y-35949400D01*
X111311200Y-35949400D02*
X110803200Y-35949400D01*
X92007200Y-35949400D02*
X110803200Y-35949400D01*
D24*
X113528302Y-34260300D02*
X114526900Y-33261702D01*
X113144894Y-34677409D02*
X114526900Y-33295403D01*
X114526900Y-33295403D02*
X114526900Y-33119900D01*
X112579209Y-34677409D02*
X113144894Y-34677409D01*
X114526900Y-33261702D02*
X114526900Y-33119900D01*
X117727200Y-37565400D02*
X117202200Y-37565400D01*
X117827201Y-31289401D02*
X117827201Y-37465399D01*
X117407200Y-30869400D02*
X117827201Y-31289401D01*
X117407202Y-30869398D02*
X117407200Y-30869400D01*
X114724295Y-26511799D02*
X118535999Y-26511799D01*
X113659199Y-27576895D02*
X114724295Y-26511799D01*
X118846062Y-26821862D02*
X118846062Y-28025039D01*
X113659199Y-30296399D02*
X113659199Y-27576895D01*
X114526900Y-33119900D02*
X114526900Y-31164100D01*
X118535999Y-26511799D02*
X118846062Y-26821862D01*
X114526900Y-31164100D02*
X113659199Y-30296399D01*
X118008301Y-28862800D02*
X117923600Y-28862800D01*
X118846062Y-28025039D02*
X118008301Y-28862800D01*
X117407202Y-29379198D02*
X117407202Y-30869398D01*
X117827201Y-37465399D02*
X117727200Y-37565400D01*
X117923600Y-28862800D02*
X117407202Y-29379198D01*
D22*
X111945619Y-34677409D02*
X110307630Y-33039420D01*
X112579209Y-34677409D02*
X111945619Y-34677409D01*
X67560580Y-33039420D02*
X110307630Y-33039420D01*
X67560580Y-33039420D02*
X67239420Y-33039420D01*
X67239420Y-33039420D02*
X66200000Y-32000000D01*
X66200000Y-32000000D02*
X65400000Y-32000000D01*
X65400000Y-32000000D02*
X65400000Y-32000000D01*
X119352199Y-39365400D02*
X119652199Y-39065400D01*
X119652199Y-39065400D02*
X120077200Y-39065400D01*
X117202200Y-39365400D02*
X119352199Y-39365400D01*
D24*
X119477200Y-39065400D02*
X120077200Y-39065400D01*
X119646082Y-26490484D02*
X119646082Y-28356417D01*
X114392919Y-25711779D02*
X118867377Y-25711779D01*
X112859179Y-27245519D02*
X114392919Y-25711779D01*
X118867377Y-25711779D02*
X119646082Y-26490484D01*
X112859179Y-32214179D02*
X112859179Y-27245519D01*
X118207222Y-29795275D02*
X118207222Y-30526422D01*
X119646082Y-28356417D02*
X118207222Y-29795275D01*
X118335396Y-30654596D02*
X118335396Y-30666200D01*
X118207222Y-30526422D02*
X118335396Y-30654596D01*
X118627221Y-38215421D02*
X119477200Y-39065400D01*
X118335396Y-30666200D02*
X118627221Y-30958024D01*
X118627221Y-30958024D02*
X118627221Y-38215421D01*
D22*
X122690400Y-40724600D02*
X122690400Y-40724600D01*
X122385600Y-33231600D02*
X122385600Y-33231600D01*
X123142231Y-33988231D02*
X123142231Y-40298169D01*
X122715800Y-40724600D02*
X121895630Y-40724600D01*
X122385600Y-33231600D02*
X123142231Y-33988231D01*
X120836430Y-39665400D02*
X120077200Y-39665400D01*
X123142231Y-40298169D02*
X122715800Y-40724600D01*
X121895630Y-40724600D02*
X120836430Y-39665400D01*
X117777200Y-40565400D02*
X117202200Y-40565400D01*
X117927200Y-40565400D02*
X117777200Y-40565400D01*
X119427200Y-42065400D02*
X117927200Y-40565400D01*
X120077200Y-42065400D02*
X119427200Y-42065400D01*
X120612202Y-42065400D02*
X121014000Y-42467198D01*
X120077200Y-42065400D02*
X120612202Y-42065400D01*
X121014000Y-42467198D02*
X121014000Y-43086800D01*
X121014000Y-43086800D02*
X121014000Y-43467800D01*
X121014000Y-43467800D02*
X121014000Y-43467800D01*
X114951910Y-30715375D02*
X114951910Y-31377400D01*
X115949200Y-42365400D02*
X117202200Y-42365400D01*
X114951910Y-30715375D02*
X114941775Y-30715375D01*
X114941775Y-30715375D02*
X114359200Y-30132800D01*
X114359200Y-30132800D02*
X114359200Y-29802600D01*
X114359200Y-29802600D02*
X114359200Y-29802600D01*
X120763610Y-40865400D02*
X120077200Y-40865400D01*
X121648409Y-41750199D02*
X120763610Y-40865400D01*
X121995001Y-41750199D02*
X121648409Y-41750199D01*
X113089200Y-35505758D02*
X114951910Y-33643048D01*
X113089200Y-39657800D02*
X113089200Y-35505758D01*
X114086201Y-41302399D02*
X113559197Y-41302399D01*
X114486200Y-40902400D02*
X114086201Y-41302399D01*
X114951910Y-33643048D02*
X114951910Y-31217720D01*
X113559197Y-41302399D02*
X112872199Y-40615401D01*
X112872199Y-39874801D02*
X113089200Y-39657800D01*
X112872199Y-40615401D02*
X112872199Y-39874801D01*
X115553000Y-42401000D02*
X115506198Y-42365400D01*
X112872199Y-39874801D02*
X112872199Y-39876211D01*
X115470598Y-42401000D02*
X115553000Y-42401000D01*
X112872199Y-39876211D02*
X112320010Y-40428400D01*
X112320010Y-40428400D02*
X112320010Y-43052800D01*
X113192210Y-43925000D02*
X113946598Y-43925000D01*
X115506198Y-42365400D02*
X115949200Y-42365400D01*
X113946598Y-43925000D02*
X115470598Y-42401000D01*
X112320010Y-43052800D02*
X113192210Y-43925000D01*
X116354201Y-42770401D02*
X115949200Y-42365400D01*
X116354201Y-43259203D02*
X116354201Y-42770401D01*
X117287799Y-44192801D02*
X116354201Y-43259203D01*
X121362001Y-44192801D02*
X117287799Y-44192801D01*
X122501001Y-43053801D02*
X121362001Y-44192801D01*
X122501001Y-42256199D02*
X122501001Y-43053801D01*
X121995001Y-41750199D02*
X122501001Y-42256199D01*
X89916379Y-41860989D02*
X92615390Y-44560000D01*
X77489587Y-44592001D02*
X80220599Y-41860989D01*
X80220599Y-41860989D02*
X89916379Y-41860989D01*
X92615390Y-44560000D02*
X93328000Y-44560000D01*
X75304598Y-46776990D02*
X80220599Y-41860989D01*
X25985999Y-39766001D02*
X25985999Y-44235001D01*
X31250001Y-45035999D02*
X32990992Y-46776990D01*
X27161000Y-38591000D02*
X25985999Y-39766001D01*
X32990992Y-46776990D02*
X75304598Y-46776990D01*
X25985999Y-44235001D02*
X26786997Y-45035999D01*
X26786997Y-45035999D02*
X31250001Y-45035999D01*
X94852000Y-43671000D02*
X94852000Y-43671000D01*
X92591980Y-41410980D02*
X94852000Y-43671000D01*
X80272980Y-41410980D02*
X92591980Y-41410980D01*
X80200000Y-41400000D02*
X80272980Y-41410980D01*
X76248000Y-37448000D02*
X80200000Y-41400000D01*
X48244410Y-37448000D02*
X76248000Y-37448000D01*
X29701000Y-38591000D02*
X28525999Y-39766001D01*
X28525999Y-39766001D02*
X28525999Y-41695001D01*
X29262006Y-42431008D02*
X43261402Y-42431008D01*
X28525999Y-41695001D02*
X29262006Y-42431008D01*
X43261402Y-42431008D02*
X48244410Y-37448000D01*
X89427999Y-42310999D02*
X96249000Y-49132000D01*
X80406999Y-42310999D02*
X89427999Y-42310999D01*
X32132999Y-46991999D02*
X32132999Y-47118999D01*
X31733000Y-46592000D02*
X32132999Y-46991999D01*
X75490998Y-47227000D02*
X80406999Y-42310999D01*
X32132999Y-47118999D02*
X32240999Y-47226999D01*
X32240999Y-47226999D02*
X75490998Y-47227000D01*
X96249000Y-30844000D02*
X96249000Y-30844000D01*
X83207590Y-30844000D02*
X96249000Y-30844000D01*
X30550999Y-41980999D02*
X43075001Y-41980999D01*
X39099000Y-31733000D02*
X40604491Y-30227509D01*
X77699620Y-25336030D02*
X83207590Y-30844000D01*
X44179000Y-40877000D02*
X44179000Y-39861000D01*
X43075001Y-41980999D02*
X44179000Y-40877000D01*
X39099000Y-34781000D02*
X39099000Y-31733000D01*
X51972491Y-30227509D02*
X56863970Y-25336030D01*
X29701000Y-41131000D02*
X30550999Y-41980999D01*
X40604491Y-30227509D02*
X51972491Y-30227509D01*
X44179000Y-39861000D02*
X39099000Y-34781000D01*
X56863970Y-25336030D02*
X77699620Y-25336030D01*
X80755000Y-43036000D02*
X80755000Y-43036000D01*
X29701000Y-46211000D02*
X31167009Y-47677009D01*
X76125009Y-47665991D02*
X76125009Y-47677009D01*
X80755000Y-43036000D02*
X76125009Y-47665991D01*
X31167009Y-47677009D02*
X76125009Y-47677009D01*
X28010999Y-49600999D02*
X27161000Y-48751000D01*
X28336001Y-49926001D02*
X28010999Y-49600999D01*
X30811001Y-49926001D02*
X28336001Y-49926001D01*
X31606000Y-48878000D02*
X31606000Y-49131002D01*
X31906970Y-48577030D02*
X31606000Y-48878000D01*
X31606000Y-49131002D02*
X30811001Y-49926001D01*
X78202370Y-48577030D02*
X31906970Y-48577030D01*
X82249200Y-44530200D02*
X78202370Y-48577030D01*
X30801000Y-48751000D02*
X31352000Y-48200000D01*
X31395000Y-48200000D02*
X31467981Y-48127019D01*
X31352000Y-48200000D02*
X31395000Y-48200000D01*
X31424980Y-48127020D02*
X30801000Y-48751000D01*
X77314980Y-48127020D02*
X31424980Y-48127020D01*
X30801000Y-48751000D02*
X29701000Y-48751000D01*
X80979200Y-44462800D02*
X77314980Y-48127020D01*
X46719000Y-32495000D02*
X46719000Y-32495000D01*
X99913001Y-34508001D02*
X100313000Y-34908000D01*
X48704028Y-34480028D02*
X57272123Y-34480028D01*
X46719000Y-32495000D02*
X48704028Y-34480028D01*
X59340075Y-36547980D02*
X73722608Y-36547980D01*
X57272123Y-34480028D02*
X59340075Y-36547980D01*
X75762587Y-34508001D02*
X99913001Y-34508001D01*
X73722608Y-36547980D02*
X75762587Y-34508001D01*
X44560000Y-31352000D02*
X44560000Y-31352000D01*
X47608000Y-31352000D02*
X50275000Y-34019000D01*
X44560000Y-31352000D02*
X47608000Y-31352000D01*
X57379454Y-34030018D02*
X57458524Y-34030019D01*
X57379454Y-34020546D02*
X57379454Y-34030018D01*
X50275000Y-34019000D02*
X57379454Y-34020546D01*
X57458524Y-34030019D02*
X59526475Y-36097970D01*
X101144315Y-34273000D02*
X101710000Y-34273000D01*
X100901333Y-34030018D02*
X101144315Y-34273000D01*
X73536208Y-36097970D02*
X75604160Y-34030018D01*
X75604160Y-34030018D02*
X100901333Y-34030018D01*
X59526475Y-36097970D02*
X73536208Y-36097970D01*
X79993705Y-39860295D02*
X76056705Y-35923295D01*
X82279000Y-26399000D02*
X82279000Y-26272000D01*
X81553999Y-27124001D02*
X82279000Y-26399000D01*
X56550390Y-24886020D02*
X77886020Y-24886020D01*
X80124001Y-27124001D02*
X81553999Y-27124001D01*
X34965685Y-31754000D02*
X36942186Y-29777499D01*
X34400000Y-31754000D02*
X34965685Y-31754000D01*
X77886020Y-24886020D02*
X80124001Y-27124001D01*
X36942186Y-29777499D02*
X51777499Y-29777499D01*
X51777499Y-29777499D02*
X51777499Y-29658911D01*
X51777499Y-29658911D02*
X56550390Y-24886020D01*
X81009000Y-26399000D02*
X81009000Y-26399000D01*
X79046010Y-24436010D02*
X81009000Y-26399000D01*
X56363990Y-24436010D02*
X79046010Y-24436010D01*
X51472511Y-29327489D02*
X56363990Y-24436010D01*
X35496500Y-30505400D02*
X36779200Y-29311600D01*
X36779200Y-29311600D02*
X51472511Y-29327489D01*
X34421400Y-30505400D02*
X34400000Y-30484000D01*
X35496500Y-30505400D02*
X34421400Y-30505400D01*
X37122100Y-27673300D02*
X43353200Y-27673300D01*
X35421546Y-29373854D02*
X37122100Y-27673300D01*
X119542198Y-41465400D02*
X120077200Y-41465400D01*
X118042198Y-39965400D02*
X119542198Y-41465400D01*
X117202200Y-39965400D02*
X118042198Y-39965400D01*
X116552199Y-40155399D02*
X116694198Y-40013400D01*
X116552199Y-41575401D02*
X116552199Y-40155399D01*
X117202200Y-41765400D02*
X116742198Y-41765400D01*
X116742198Y-41765400D02*
X116552199Y-41575401D01*
X117154200Y-40013400D02*
X117202200Y-39965400D01*
X116694198Y-40013400D02*
X117154200Y-40013400D01*
X117202200Y-33365400D02*
X117202200Y-33965400D01*
X120727200Y-41465400D02*
X121776000Y-42514200D01*
X120077200Y-41465400D02*
X120727200Y-41465400D01*
X121776000Y-42514200D02*
X121776000Y-42680400D01*
X121776000Y-42680400D02*
X121776000Y-42680400D01*
D24*
X117243601Y-27459999D02*
X116879601Y-27095999D01*
X117142001Y-28233601D02*
X117243601Y-28132001D01*
X116049801Y-27095999D02*
X114384600Y-28761200D01*
X116787198Y-32165400D02*
X116226940Y-31605142D01*
X117202200Y-32165400D02*
X116787198Y-32165400D01*
X117243601Y-28132001D02*
X117243601Y-27459999D01*
X116226940Y-29428062D02*
X117142001Y-28513001D01*
X116879601Y-27095999D02*
X116049801Y-27095999D01*
X116226940Y-31605142D02*
X116226940Y-29428062D01*
X117142001Y-28513001D02*
X117142001Y-28233601D01*
D22*
X116627200Y-33965400D02*
X117202200Y-33965400D01*
X115401920Y-32740120D02*
X116627200Y-33965400D01*
X115401920Y-29772318D02*
X115401920Y-32740120D01*
X114707201Y-29077599D02*
X115401920Y-29772318D01*
X114396199Y-29077599D02*
X114707201Y-29077599D01*
X114384600Y-29066000D02*
X114396199Y-29077599D01*
X114384600Y-28761200D02*
X114384600Y-29066000D01*
X116742198Y-39965400D02*
X114560598Y-42147000D01*
X117202200Y-39965400D02*
X116742198Y-39965400D01*
X114560598Y-42147000D02*
X113775000Y-42147000D01*
X113775000Y-42147000D02*
X113394000Y-42528000D01*
X113394000Y-42528000D02*
X113267000Y-42655000D01*
X113267000Y-42655000D02*
X113267000Y-42655000D01*
X94598000Y-26145000D02*
X94598000Y-26145000D01*
X32303000Y-35346300D02*
X32303000Y-35351000D01*
D23*
X37960700Y-41004000D02*
X32303000Y-35346300D01*
X42909000Y-41004000D02*
X37960700Y-41004000D01*
X32303000Y-35346300D02*
X32303000Y-31322998D01*
X32303000Y-31290000D02*
X32303000Y-31322998D01*
X37956000Y-25637000D02*
X32303000Y-31290000D01*
X40457001Y-23135999D02*
X37956000Y-25637000D01*
X85505186Y-26145000D02*
X82496185Y-23135999D01*
X94598000Y-26145000D02*
X85505186Y-26145000D01*
D22*
X116400000Y-23200000D02*
X116400000Y-23200000D01*
D23*
X94598000Y-26145000D02*
X107255000Y-26145000D01*
D22*
X45953200Y-27673300D02*
X45953200Y-23715500D01*
D23*
X82496185Y-23135999D02*
X45373699Y-23135999D01*
D22*
X45953200Y-23715500D02*
X45373699Y-23135999D01*
D23*
X45373699Y-23135999D02*
X40457001Y-23135999D01*
X115561170Y-23200000D02*
X109626400Y-29134770D01*
X116400000Y-23200000D02*
X115561170Y-23200000D01*
X108465230Y-29134770D02*
X108300000Y-29300000D01*
X109626400Y-29134770D02*
X108465230Y-29134770D01*
X107255000Y-28255000D02*
X107255000Y-26145000D01*
X108300000Y-29300000D02*
X107255000Y-28255000D01*
D22*
X43671000Y-24494000D02*
X43671000Y-24494000D01*
X44653200Y-25476200D02*
X43671000Y-24494000D01*
X44653200Y-27673300D02*
X44653200Y-25476200D01*
D24*
X106593201Y-38635399D02*
X106593201Y-41835799D01*
X106993200Y-38235400D02*
X106593201Y-38635399D01*
X106593201Y-41835799D02*
X105901000Y-42528000D01*
X105901000Y-42528000D02*
X105774000Y-42655000D01*
X105774000Y-42655000D02*
X105774000Y-42655000D01*
D22*
X101964000Y-28431000D02*
X101964000Y-28431000D01*
X82533000Y-23986000D02*
X48878000Y-23986000D01*
X101964000Y-28431000D02*
X86978000Y-28431000D01*
X86978000Y-28431000D02*
X82533000Y-23986000D01*
D25*
G36*
X99136991Y-45226996D02*
G01*
X99160785Y-45255989D01*
X99189778Y-45279783D01*
X99189782Y-45279787D01*
X99243262Y-45323676D01*
X99276510Y-45350962D01*
X99408539Y-45421534D01*
X99551800Y-45464991D01*
X99663453Y-45475988D01*
X99663462Y-45475988D01*
X99700785Y-45479664D01*
X99738108Y-45475988D01*
X107073301Y-45475988D01*
X107117238Y-45519925D01*
X107286756Y-45633193D01*
X107475114Y-45711214D01*
X107675073Y-45750988D01*
X107878951Y-45750988D01*
X108078910Y-45711214D01*
X108267268Y-45633193D01*
X108436786Y-45519925D01*
X108580949Y-45375762D01*
X108694217Y-45206244D01*
X108772238Y-45017886D01*
X108812012Y-44817927D01*
X108812012Y-44800401D01*
X111719989Y-44800401D01*
X112255618Y-45336031D01*
X112279408Y-45365019D01*
X112308395Y-45388808D01*
X112308405Y-45388818D01*
X112395132Y-45459992D01*
X112527162Y-45530564D01*
X112670422Y-45574021D01*
X112819408Y-45588695D01*
X112856739Y-45585018D01*
X113310218Y-45585019D01*
X114961202Y-47236004D01*
X114985000Y-47265002D01*
X115013998Y-47288800D01*
X115100724Y-47359975D01*
X115168004Y-47395937D01*
X115232754Y-47430547D01*
X115376015Y-47474004D01*
X115487668Y-47485001D01*
X115487678Y-47485001D01*
X115525001Y-47488677D01*
X115562324Y-47485001D01*
X116310679Y-47485001D01*
X116348001Y-47488677D01*
X116385323Y-47485001D01*
X116385334Y-47485001D01*
X116496987Y-47474004D01*
X116640248Y-47430547D01*
X116772277Y-47359975D01*
X116888002Y-47265002D01*
X116911804Y-47235999D01*
X117613404Y-46534400D01*
X117642401Y-46510603D01*
X117737374Y-46394878D01*
X117807946Y-46262849D01*
X117851403Y-46119588D01*
X117862400Y-46007935D01*
X117862400Y-46007926D01*
X117866076Y-45970603D01*
X117862400Y-45933280D01*
X117862400Y-45548600D01*
X123040524Y-45548600D01*
X123084341Y-45552167D01*
X123152270Y-45544312D01*
X123220386Y-45537603D01*
X123226607Y-45535716D01*
X123233057Y-45534970D01*
X123298144Y-45514016D01*
X123363647Y-45494146D01*
X123369378Y-45491082D01*
X123375561Y-45489092D01*
X123435310Y-45455841D01*
X123495676Y-45423574D01*
X123500703Y-45419449D01*
X123506375Y-45416292D01*
X123558472Y-45372039D01*
X123611401Y-45328601D01*
X123639299Y-45294607D01*
X123910001Y-45014572D01*
X123910001Y-50123000D01*
X96561100Y-50123000D01*
X96739256Y-50049205D01*
X96908774Y-49935937D01*
X97052937Y-49791774D01*
X97166205Y-49622256D01*
X97244226Y-49433898D01*
X97284000Y-49233939D01*
X97284000Y-49030061D01*
X97244226Y-48830102D01*
X97166205Y-48641744D01*
X97052937Y-48472226D01*
X96908774Y-48328063D01*
X96739256Y-48214795D01*
X96550898Y-48136774D01*
X96350939Y-48097000D01*
X96288802Y-48097000D01*
X93712721Y-45520919D01*
X93818256Y-45477205D01*
X93987774Y-45363937D01*
X94131937Y-45219774D01*
X94245205Y-45050256D01*
X94323226Y-44861898D01*
X94363000Y-44661939D01*
X94363000Y-44588725D01*
X94550102Y-44666226D01*
X94750061Y-44706000D01*
X94953939Y-44706000D01*
X95153898Y-44666226D01*
X95342256Y-44588205D01*
X95511774Y-44474937D01*
X95655937Y-44330774D01*
X95769205Y-44161256D01*
X95847226Y-43972898D01*
X95887000Y-43772939D01*
X95887000Y-43569061D01*
X95847226Y-43369102D01*
X95769205Y-43180744D01*
X95655937Y-43011226D01*
X95511774Y-42867063D01*
X95342256Y-42753795D01*
X95153898Y-42675774D01*
X94953939Y-42636000D01*
X94891802Y-42636000D01*
X93155784Y-40899983D01*
X93131981Y-40870979D01*
X93016256Y-40776006D01*
X92884227Y-40705434D01*
X92740966Y-40661977D01*
X92629313Y-40650980D01*
X92629302Y-40650980D01*
X92591980Y-40647304D01*
X92554658Y-40650980D01*
X86814603Y-40650980D01*
X86988936Y-40631381D01*
X87069777Y-40444216D01*
X87112551Y-40244877D01*
X87115613Y-40041023D01*
X87078847Y-39840488D01*
X87003666Y-39650980D01*
X86990838Y-39626978D01*
X87069777Y-39444216D01*
X87112551Y-39244877D01*
X87115613Y-39041023D01*
X87078847Y-38840488D01*
X87003666Y-38650980D01*
X86990838Y-38626978D01*
X87069777Y-38444216D01*
X87112551Y-38244877D01*
X87115613Y-38041023D01*
X87078847Y-37840488D01*
X87003666Y-37650980D01*
X86990838Y-37626978D01*
X87069777Y-37444216D01*
X87112551Y-37244877D01*
X87115613Y-37041023D01*
X87078847Y-36840488D01*
X87003666Y-36650980D01*
X86990838Y-36626978D01*
X87069777Y-36444216D01*
X87112551Y-36244877D01*
X87115613Y-36041023D01*
X87078847Y-35840488D01*
X87030258Y-35718011D01*
X89628008Y-35718011D01*
X99136991Y-45226996D01*
G37*
X99136991Y-45226996D02*
X99160785Y-45255989D01*
X99189778Y-45279783D01*
X99189782Y-45279787D01*
X99243262Y-45323676D01*
X99276510Y-45350962D01*
X99408539Y-45421534D01*
X99551800Y-45464991D01*
X99663453Y-45475988D01*
X99663462Y-45475988D01*
X99700785Y-45479664D01*
X99738108Y-45475988D01*
X107073301Y-45475988D01*
X107117238Y-45519925D01*
X107286756Y-45633193D01*
X107475114Y-45711214D01*
X107675073Y-45750988D01*
X107878951Y-45750988D01*
X108078910Y-45711214D01*
X108267268Y-45633193D01*
X108436786Y-45519925D01*
X108580949Y-45375762D01*
X108694217Y-45206244D01*
X108772238Y-45017886D01*
X108812012Y-44817927D01*
X108812012Y-44800401D01*
X111719989Y-44800401D01*
X112255618Y-45336031D01*
X112279408Y-45365019D01*
X112308395Y-45388808D01*
X112308405Y-45388818D01*
X112395132Y-45459992D01*
X112527162Y-45530564D01*
X112670422Y-45574021D01*
X112819408Y-45588695D01*
X112856739Y-45585018D01*
X113310218Y-45585019D01*
X114961202Y-47236004D01*
X114985000Y-47265002D01*
X115013998Y-47288800D01*
X115100724Y-47359975D01*
X115168004Y-47395937D01*
X115232754Y-47430547D01*
X115376015Y-47474004D01*
X115487668Y-47485001D01*
X115487678Y-47485001D01*
X115525001Y-47488677D01*
X115562324Y-47485001D01*
X116310679Y-47485001D01*
X116348001Y-47488677D01*
X116385323Y-47485001D01*
X116385334Y-47485001D01*
X116496987Y-47474004D01*
X116640248Y-47430547D01*
X116772277Y-47359975D01*
X116888002Y-47265002D01*
X116911804Y-47235999D01*
X117613404Y-46534400D01*
X117642401Y-46510603D01*
X117737374Y-46394878D01*
X117807946Y-46262849D01*
X117851403Y-46119588D01*
X117862400Y-46007935D01*
X117862400Y-46007926D01*
X117866076Y-45970603D01*
X117862400Y-45933280D01*
X117862400Y-45548600D01*
X123040524Y-45548600D01*
X123084341Y-45552167D01*
X123152270Y-45544312D01*
X123220386Y-45537603D01*
X123226607Y-45535716D01*
X123233057Y-45534970D01*
X123298144Y-45514016D01*
X123363647Y-45494146D01*
X123369378Y-45491082D01*
X123375561Y-45489092D01*
X123435310Y-45455841D01*
X123495676Y-45423574D01*
X123500703Y-45419449D01*
X123506375Y-45416292D01*
X123558472Y-45372039D01*
X123611401Y-45328601D01*
X123639299Y-45294607D01*
X123910001Y-45014572D01*
X123910001Y-50123000D01*
X96561100Y-50123000D01*
X96739256Y-50049205D01*
X96908774Y-49935937D01*
X97052937Y-49791774D01*
X97166205Y-49622256D01*
X97244226Y-49433898D01*
X97284000Y-49233939D01*
X97284000Y-49030061D01*
X97244226Y-48830102D01*
X97166205Y-48641744D01*
X97052937Y-48472226D01*
X96908774Y-48328063D01*
X96739256Y-48214795D01*
X96550898Y-48136774D01*
X96350939Y-48097000D01*
X96288802Y-48097000D01*
X93712721Y-45520919D01*
X93818256Y-45477205D01*
X93987774Y-45363937D01*
X94131937Y-45219774D01*
X94245205Y-45050256D01*
X94323226Y-44861898D01*
X94363000Y-44661939D01*
X94363000Y-44588725D01*
X94550102Y-44666226D01*
X94750061Y-44706000D01*
X94953939Y-44706000D01*
X95153898Y-44666226D01*
X95342256Y-44588205D01*
X95511774Y-44474937D01*
X95655937Y-44330774D01*
X95769205Y-44161256D01*
X95847226Y-43972898D01*
X95887000Y-43772939D01*
X95887000Y-43569061D01*
X95847226Y-43369102D01*
X95769205Y-43180744D01*
X95655937Y-43011226D01*
X95511774Y-42867063D01*
X95342256Y-42753795D01*
X95153898Y-42675774D01*
X94953939Y-42636000D01*
X94891802Y-42636000D01*
X93155784Y-40899983D01*
X93131981Y-40870979D01*
X93016256Y-40776006D01*
X92884227Y-40705434D01*
X92740966Y-40661977D01*
X92629313Y-40650980D01*
X92629302Y-40650980D01*
X92591980Y-40647304D01*
X92554658Y-40650980D01*
X86814603Y-40650980D01*
X86988936Y-40631381D01*
X87069777Y-40444216D01*
X87112551Y-40244877D01*
X87115613Y-40041023D01*
X87078847Y-39840488D01*
X87003666Y-39650980D01*
X86990838Y-39626978D01*
X87069777Y-39444216D01*
X87112551Y-39244877D01*
X87115613Y-39041023D01*
X87078847Y-38840488D01*
X87003666Y-38650980D01*
X86990838Y-38626978D01*
X87069777Y-38444216D01*
X87112551Y-38244877D01*
X87115613Y-38041023D01*
X87078847Y-37840488D01*
X87003666Y-37650980D01*
X86990838Y-37626978D01*
X87069777Y-37444216D01*
X87112551Y-37244877D01*
X87115613Y-37041023D01*
X87078847Y-36840488D01*
X87003666Y-36650980D01*
X86990838Y-36626978D01*
X87069777Y-36444216D01*
X87112551Y-36244877D01*
X87115613Y-36041023D01*
X87078847Y-35840488D01*
X87030258Y-35718011D01*
X89628008Y-35718011D01*
X99136991Y-45226996D01*
G36*
X95214000Y-49171802D02*
G01*
X95214000Y-49233939D01*
X95253774Y-49433898D01*
X95331795Y-49622256D01*
X95445063Y-49791774D01*
X95589226Y-49935937D01*
X95758744Y-50049205D01*
X95936900Y-50123000D01*
X80457802Y-50123000D01*
X80540802Y-50040000D01*
X80602939Y-50040000D01*
X80802898Y-50000226D01*
X80991256Y-49922205D01*
X81160774Y-49808937D01*
X81304937Y-49664774D01*
X81418205Y-49495256D01*
X81496226Y-49306898D01*
X81536000Y-49106939D01*
X81536000Y-48903061D01*
X81496226Y-48703102D01*
X81418205Y-48514744D01*
X81304937Y-48345226D01*
X81160774Y-48201063D01*
X80991256Y-48087795D01*
X80802898Y-48009774D01*
X80602939Y-47970000D01*
X80399061Y-47970000D01*
X80199102Y-48009774D01*
X80010744Y-48087795D01*
X79841226Y-48201063D01*
X79697063Y-48345226D01*
X79583795Y-48514744D01*
X79505774Y-48703102D01*
X79466000Y-48903061D01*
X79466000Y-48965198D01*
X79405199Y-49025999D01*
X78828202Y-49025999D01*
X82289002Y-45565200D01*
X82351139Y-45565200D01*
X82551098Y-45525426D01*
X82739456Y-45447405D01*
X82908974Y-45334137D01*
X83053137Y-45189974D01*
X83166405Y-45020456D01*
X83244426Y-44832098D01*
X83284200Y-44632139D01*
X83284200Y-44428261D01*
X83244426Y-44228302D01*
X83166405Y-44039944D01*
X83053137Y-43870426D01*
X82908974Y-43726263D01*
X82739456Y-43612995D01*
X82551098Y-43534974D01*
X82351139Y-43495200D01*
X82147261Y-43495200D01*
X81947302Y-43534974D01*
X81758944Y-43612995D01*
X81659531Y-43679420D01*
X81638974Y-43658863D01*
X81600692Y-43633284D01*
X81672205Y-43526256D01*
X81750226Y-43337898D01*
X81790000Y-43137939D01*
X81790000Y-43070999D01*
X89113198Y-43070999D01*
X95214000Y-49171802D01*
G37*
X95214000Y-49171802D02*
X95214000Y-49233939D01*
X95253774Y-49433898D01*
X95331795Y-49622256D01*
X95445063Y-49791774D01*
X95589226Y-49935937D01*
X95758744Y-50049205D01*
X95936900Y-50123000D01*
X80457802Y-50123000D01*
X80540802Y-50040000D01*
X80602939Y-50040000D01*
X80802898Y-50000226D01*
X80991256Y-49922205D01*
X81160774Y-49808937D01*
X81304937Y-49664774D01*
X81418205Y-49495256D01*
X81496226Y-49306898D01*
X81536000Y-49106939D01*
X81536000Y-48903061D01*
X81496226Y-48703102D01*
X81418205Y-48514744D01*
X81304937Y-48345226D01*
X81160774Y-48201063D01*
X80991256Y-48087795D01*
X80802898Y-48009774D01*
X80602939Y-47970000D01*
X80399061Y-47970000D01*
X80199102Y-48009774D01*
X80010744Y-48087795D01*
X79841226Y-48201063D01*
X79697063Y-48345226D01*
X79583795Y-48514744D01*
X79505774Y-48703102D01*
X79466000Y-48903061D01*
X79466000Y-48965198D01*
X79405199Y-49025999D01*
X78828202Y-49025999D01*
X82289002Y-45565200D01*
X82351139Y-45565200D01*
X82551098Y-45525426D01*
X82739456Y-45447405D01*
X82908974Y-45334137D01*
X83053137Y-45189974D01*
X83166405Y-45020456D01*
X83244426Y-44832098D01*
X83284200Y-44632139D01*
X83284200Y-44428261D01*
X83244426Y-44228302D01*
X83166405Y-44039944D01*
X83053137Y-43870426D01*
X82908974Y-43726263D01*
X82739456Y-43612995D01*
X82551098Y-43534974D01*
X82351139Y-43495200D01*
X82147261Y-43495200D01*
X81947302Y-43534974D01*
X81758944Y-43612995D01*
X81659531Y-43679420D01*
X81638974Y-43658863D01*
X81600692Y-43633284D01*
X81672205Y-43526256D01*
X81750226Y-43337898D01*
X81790000Y-43137939D01*
X81790000Y-43070999D01*
X89113198Y-43070999D01*
X95214000Y-49171802D01*
G36*
X67039000Y-50123000D02*
G01*
X31688803Y-50123000D01*
X32117002Y-49694801D01*
X32146001Y-49671003D01*
X32240974Y-49555278D01*
X32311546Y-49423249D01*
X32337700Y-49337030D01*
X67039000Y-49337030D01*
X67039000Y-50123000D01*
G37*
X67039000Y-50123000D02*
X31688803Y-50123000D01*
X32117002Y-49694801D01*
X32146001Y-49671003D01*
X32240974Y-49555278D01*
X32311546Y-49423249D01*
X32337700Y-49337030D01*
X67039000Y-49337030D01*
X67039000Y-50123000D01*
G36*
X67039000Y-46016990D02*
G01*
X33305794Y-46016990D01*
X31813805Y-44525002D01*
X31790002Y-44495998D01*
X31674277Y-44401025D01*
X31542248Y-44330453D01*
X31398987Y-44286996D01*
X31287334Y-44275999D01*
X31287323Y-44275999D01*
X31250001Y-44272323D01*
X31212679Y-44275999D01*
X31049765Y-44275999D01*
X31097825Y-44175099D01*
X31142476Y-44027890D01*
X31021155Y-43798000D01*
X29828000Y-43798000D01*
X29828000Y-43818000D01*
X29574000Y-43818000D01*
X29574000Y-43798000D01*
X29554000Y-43798000D01*
X29554000Y-43544000D01*
X29574000Y-43544000D01*
X29574000Y-43524000D01*
X29828000Y-43524000D01*
X29828000Y-43544000D01*
X31021155Y-43544000D01*
X31142476Y-43314110D01*
X31105137Y-43191008D01*
X43224080Y-43191008D01*
X43261402Y-43194684D01*
X43298724Y-43191008D01*
X43298735Y-43191008D01*
X43410388Y-43180011D01*
X43553649Y-43136554D01*
X43685678Y-43065982D01*
X43801403Y-42971009D01*
X43825206Y-42942005D01*
X48559213Y-38208000D01*
X67039000Y-38208000D01*
X67039000Y-46016990D01*
G37*
X67039000Y-46016990D02*
X33305794Y-46016990D01*
X31813805Y-44525002D01*
X31790002Y-44495998D01*
X31674277Y-44401025D01*
X31542248Y-44330453D01*
X31398987Y-44286996D01*
X31287334Y-44275999D01*
X31287323Y-44275999D01*
X31250001Y-44272323D01*
X31212679Y-44275999D01*
X31049765Y-44275999D01*
X31097825Y-44175099D01*
X31142476Y-44027890D01*
X31021155Y-43798000D01*
X29828000Y-43798000D01*
X29828000Y-43818000D01*
X29574000Y-43818000D01*
X29574000Y-43798000D01*
X29554000Y-43798000D01*
X29554000Y-43544000D01*
X29574000Y-43544000D01*
X29574000Y-43524000D01*
X29828000Y-43524000D01*
X29828000Y-43544000D01*
X31021155Y-43544000D01*
X31142476Y-43314110D01*
X31105137Y-43191008D01*
X43224080Y-43191008D01*
X43261402Y-43194684D01*
X43298724Y-43191008D01*
X43298735Y-43191008D01*
X43410388Y-43180011D01*
X43553649Y-43136554D01*
X43685678Y-43065982D01*
X43801403Y-42971009D01*
X43825206Y-42942005D01*
X48559213Y-38208000D01*
X67039000Y-38208000D01*
X67039000Y-46016990D01*
G36*
X123453042Y-43306757D02*
G01*
X123292443Y-43467356D01*
X123287515Y-43471542D01*
X123266000Y-43493799D01*
X123244201Y-43515598D01*
X123240116Y-43520576D01*
X122749027Y-44028600D01*
X122601004Y-44028600D01*
X123012004Y-43617600D01*
X123041002Y-43593802D01*
X123135975Y-43478077D01*
X123206547Y-43346048D01*
X123250004Y-43202787D01*
X123261001Y-43091134D01*
X123261001Y-43091125D01*
X123264677Y-43053802D01*
X123261001Y-43016479D01*
X123261001Y-42293521D01*
X123264677Y-42256198D01*
X123261001Y-42218875D01*
X123261001Y-42218866D01*
X123250004Y-42107213D01*
X123206547Y-41963952D01*
X123192368Y-41937425D01*
X123135975Y-41831922D01*
X123101032Y-41789345D01*
X123041002Y-41716198D01*
X123011999Y-41692396D01*
X122799624Y-41480021D01*
X122864786Y-41473603D01*
X123008047Y-41430146D01*
X123140076Y-41359574D01*
X123255801Y-41264601D01*
X123279604Y-41235597D01*
X123443409Y-41071792D01*
X123453042Y-43306757D01*
G37*
X123453042Y-43306757D02*
X123292443Y-43467356D01*
X123287515Y-43471542D01*
X123266000Y-43493799D01*
X123244201Y-43515598D01*
X123240116Y-43520576D01*
X122749027Y-44028600D01*
X122601004Y-44028600D01*
X123012004Y-43617600D01*
X123041002Y-43593802D01*
X123135975Y-43478077D01*
X123206547Y-43346048D01*
X123250004Y-43202787D01*
X123261001Y-43091134D01*
X123261001Y-43091125D01*
X123264677Y-43053802D01*
X123261001Y-43016479D01*
X123261001Y-42293521D01*
X123264677Y-42256198D01*
X123261001Y-42218875D01*
X123261001Y-42218866D01*
X123250004Y-42107213D01*
X123206547Y-41963952D01*
X123192368Y-41937425D01*
X123135975Y-41831922D01*
X123101032Y-41789345D01*
X123041002Y-41716198D01*
X123011999Y-41692396D01*
X122799624Y-41480021D01*
X122864786Y-41473603D01*
X123008047Y-41430146D01*
X123140076Y-41359574D01*
X123255801Y-41264601D01*
X123279604Y-41235597D01*
X123443409Y-41071792D01*
X123453042Y-43306757D01*
G36*
X102314600Y-43902602D02*
G01*
X102338399Y-43931601D01*
X102368115Y-43955988D01*
X100015589Y-43955988D01*
X99546516Y-43486915D01*
X99550374Y-43484337D01*
X99694537Y-43340174D01*
X99807805Y-43170656D01*
X99885826Y-42982298D01*
X99925600Y-42782339D01*
X99925600Y-42578461D01*
X99885826Y-42378502D01*
X99807805Y-42190144D01*
X99694537Y-42020626D01*
X99550374Y-41876463D01*
X99380856Y-41763195D01*
X99192498Y-41685174D01*
X99027199Y-41652294D01*
X99027199Y-40615200D01*
X102314600Y-43902602D01*
G37*
X102314600Y-43902602D02*
X102338399Y-43931601D01*
X102368115Y-43955988D01*
X100015589Y-43955988D01*
X99546516Y-43486915D01*
X99550374Y-43484337D01*
X99694537Y-43340174D01*
X99807805Y-43170656D01*
X99885826Y-42982298D01*
X99925600Y-42782339D01*
X99925600Y-42578461D01*
X99885826Y-42378502D01*
X99807805Y-42190144D01*
X99694537Y-42020626D01*
X99550374Y-41876463D01*
X99380856Y-41763195D01*
X99192498Y-41685174D01*
X99027199Y-41652294D01*
X99027199Y-40615200D01*
X102314600Y-43902602D01*
G36*
X118863400Y-42576402D02*
G01*
X118887199Y-42605401D01*
X118947902Y-42655219D01*
X118876015Y-42714215D01*
X118796663Y-42810906D01*
X118737698Y-42921220D01*
X118701388Y-43040918D01*
X118689128Y-43165400D01*
X118689128Y-43432801D01*
X117602601Y-43432801D01*
X117323271Y-43153472D01*
X117527200Y-43153472D01*
X117651682Y-43141212D01*
X117771380Y-43104902D01*
X117881694Y-43045937D01*
X117978385Y-42966585D01*
X118057737Y-42869894D01*
X118116702Y-42759580D01*
X118153012Y-42639882D01*
X118165272Y-42515400D01*
X118165272Y-42215400D01*
X118153012Y-42090918D01*
X118145271Y-42065400D01*
X118153012Y-42039882D01*
X118165272Y-41915400D01*
X118165272Y-41878274D01*
X118863400Y-42576402D01*
G37*
X118863400Y-42576402D02*
X118887199Y-42605401D01*
X118947902Y-42655219D01*
X118876015Y-42714215D01*
X118796663Y-42810906D01*
X118737698Y-42921220D01*
X118701388Y-43040918D01*
X118689128Y-43165400D01*
X118689128Y-43432801D01*
X117602601Y-43432801D01*
X117323271Y-43153472D01*
X117527200Y-43153472D01*
X117651682Y-43141212D01*
X117771380Y-43104902D01*
X117881694Y-43045937D01*
X117978385Y-42966585D01*
X118057737Y-42869894D01*
X118116702Y-42759580D01*
X118153012Y-42639882D01*
X118165272Y-42515400D01*
X118165272Y-42215400D01*
X118153012Y-42090918D01*
X118145271Y-42065400D01*
X118153012Y-42039882D01*
X118165272Y-41915400D01*
X118165272Y-41878274D01*
X118863400Y-42576402D01*
G36*
X103418200Y-38337339D02*
G01*
X103457974Y-38537298D01*
X103535995Y-38725656D01*
X103649263Y-38895174D01*
X103793426Y-39039337D01*
X103962944Y-39152605D01*
X104151302Y-39230626D01*
X104351261Y-39270400D01*
X104555139Y-39270400D01*
X104755098Y-39230626D01*
X104943456Y-39152605D01*
X105088200Y-39055890D01*
X105232944Y-39152605D01*
X105421302Y-39230626D01*
X105621261Y-39270400D01*
X105825139Y-39270400D01*
X105858201Y-39263824D01*
X105858202Y-41531351D01*
X105769553Y-41620000D01*
X105672061Y-41620000D01*
X105472102Y-41659774D01*
X105283744Y-41737795D01*
X105114226Y-41851063D01*
X104970063Y-41995226D01*
X104856795Y-42164744D01*
X104778774Y-42353102D01*
X104739000Y-42553061D01*
X104739000Y-42631600D01*
X103193202Y-42631600D01*
X100027200Y-39465599D01*
X100027200Y-39403461D01*
X99987426Y-39203502D01*
X99909405Y-39015144D01*
X99796137Y-38845626D01*
X99651974Y-38701463D01*
X99621380Y-38681021D01*
X100069002Y-38233400D01*
X103418200Y-38233400D01*
X103418200Y-38337339D01*
G37*
X103418200Y-38337339D02*
X103457974Y-38537298D01*
X103535995Y-38725656D01*
X103649263Y-38895174D01*
X103793426Y-39039337D01*
X103962944Y-39152605D01*
X104151302Y-39230626D01*
X104351261Y-39270400D01*
X104555139Y-39270400D01*
X104755098Y-39230626D01*
X104943456Y-39152605D01*
X105088200Y-39055890D01*
X105232944Y-39152605D01*
X105421302Y-39230626D01*
X105621261Y-39270400D01*
X105825139Y-39270400D01*
X105858201Y-39263824D01*
X105858202Y-41531351D01*
X105769553Y-41620000D01*
X105672061Y-41620000D01*
X105472102Y-41659774D01*
X105283744Y-41737795D01*
X105114226Y-41851063D01*
X104970063Y-41995226D01*
X104856795Y-42164744D01*
X104778774Y-42353102D01*
X104739000Y-42553061D01*
X104739000Y-42631600D01*
X103193202Y-42631600D01*
X100027200Y-39465599D01*
X100027200Y-39403461D01*
X99987426Y-39203502D01*
X99909405Y-39015144D01*
X99796137Y-38845626D01*
X99651974Y-38701463D01*
X99621380Y-38681021D01*
X100069002Y-38233400D01*
X103418200Y-38233400D01*
X103418200Y-38337339D01*
G36*
X97756202Y-38396597D02*
G01*
X97727198Y-38420400D01*
X97678707Y-38479487D01*
X97632225Y-38536125D01*
X97573645Y-38645719D01*
X97561653Y-38668155D01*
X97518196Y-38811416D01*
X97507199Y-38923069D01*
X97507199Y-38923079D01*
X97503523Y-38960401D01*
X97507199Y-38997724D01*
X97507200Y-41447599D01*
X93806000Y-37746400D01*
X93887139Y-37746400D01*
X94087098Y-37706626D01*
X94275456Y-37628605D01*
X94444974Y-37515337D01*
X94472912Y-37487399D01*
X98665399Y-37487399D01*
X97756202Y-38396597D01*
G37*
X97756202Y-38396597D02*
X97727198Y-38420400D01*
X97678707Y-38479487D01*
X97632225Y-38536125D01*
X97573645Y-38645719D01*
X97561653Y-38668155D01*
X97518196Y-38811416D01*
X97507199Y-38923069D01*
X97507199Y-38923079D01*
X97503523Y-38960401D01*
X97507199Y-38997724D01*
X97507200Y-41447599D01*
X93806000Y-37746400D01*
X93887139Y-37746400D01*
X94087098Y-37706626D01*
X94275456Y-37628605D01*
X94444974Y-37515337D01*
X94472912Y-37487399D01*
X98665399Y-37487399D01*
X97756202Y-38396597D01*
G36*
X25762906Y-20309326D02*
G01*
X25695147Y-20532700D01*
X25678000Y-20706793D01*
X25678000Y-21423206D01*
X25695147Y-21597299D01*
X25762906Y-21820673D01*
X25872942Y-22026535D01*
X26021025Y-22206975D01*
X26201464Y-22355058D01*
X26407326Y-22465094D01*
X26630700Y-22532853D01*
X26863000Y-22555733D01*
X27095299Y-22532853D01*
X27318673Y-22465094D01*
X27524535Y-22355058D01*
X27704975Y-22206975D01*
X27853058Y-22026536D01*
X27963094Y-21820674D01*
X28030853Y-21597300D01*
X28048000Y-21423207D01*
X28048000Y-20706794D01*
X28030853Y-20532701D01*
X27963094Y-20309326D01*
X27905192Y-20201000D01*
X33020808Y-20201000D01*
X32962906Y-20309327D01*
X32895147Y-20532701D01*
X32878000Y-20706794D01*
X32878000Y-21423207D01*
X32895147Y-21597300D01*
X32962906Y-21820674D01*
X33072943Y-22026536D01*
X33221026Y-22206975D01*
X33401465Y-22355058D01*
X33607327Y-22465094D01*
X33830701Y-22532853D01*
X34063000Y-22555733D01*
X34295300Y-22532853D01*
X34518674Y-22465094D01*
X34724536Y-22355058D01*
X34904975Y-22206975D01*
X35053058Y-22026536D01*
X35163094Y-21820674D01*
X35230853Y-21597299D01*
X35248000Y-21423206D01*
X35248000Y-21153561D01*
X82704500Y-21153561D01*
X82704500Y-21357439D01*
X82744274Y-21557398D01*
X82822295Y-21745756D01*
X82935563Y-21915274D01*
X83079726Y-22059437D01*
X83249244Y-22172705D01*
X83437602Y-22250726D01*
X83637561Y-22290500D01*
X83664362Y-22290500D01*
X85711294Y-24490693D01*
X85743799Y-24530301D01*
X85791067Y-24569093D01*
X85836901Y-24609560D01*
X85848843Y-24616508D01*
X85859524Y-24625274D01*
X85913445Y-24654096D01*
X85966299Y-24684848D01*
X85979368Y-24689333D01*
X85991553Y-24695846D01*
X86050082Y-24713600D01*
X86107900Y-24733442D01*
X86121586Y-24735290D01*
X86134814Y-24739303D01*
X86195696Y-24745299D01*
X86256260Y-24753479D01*
X86307385Y-24750300D01*
X91041089Y-24750300D01*
X91085026Y-24794237D01*
X91254544Y-24907505D01*
X91442902Y-24985526D01*
X91642861Y-25025300D01*
X91846739Y-25025300D01*
X92046698Y-24985526D01*
X92235056Y-24907505D01*
X92404574Y-24794237D01*
X92548737Y-24650074D01*
X92662005Y-24480556D01*
X92740026Y-24292198D01*
X92779800Y-24092239D01*
X92779800Y-23888361D01*
X92740026Y-23688402D01*
X92662005Y-23500044D01*
X92548737Y-23330526D01*
X92404574Y-23186363D01*
X92235056Y-23073095D01*
X92046698Y-22995074D01*
X91846739Y-22955300D01*
X91642861Y-22955300D01*
X91442902Y-22995074D01*
X91254544Y-23073095D01*
X91085026Y-23186363D01*
X91041089Y-23230300D01*
X86614783Y-23230300D01*
X84774500Y-21252230D01*
X84774500Y-21153561D01*
X84734726Y-20953602D01*
X84656705Y-20765244D01*
X84543437Y-20595726D01*
X84399274Y-20451563D01*
X84229756Y-20338295D01*
X84041398Y-20260274D01*
X83841439Y-20220500D01*
X83637561Y-20220500D01*
X83437602Y-20260274D01*
X83249244Y-20338295D01*
X83079726Y-20451563D01*
X82935563Y-20595726D01*
X82822295Y-20765244D01*
X82744274Y-20953602D01*
X82704500Y-21153561D01*
X35248000Y-21153561D01*
X35248000Y-20706793D01*
X35230853Y-20532700D01*
X35163094Y-20309326D01*
X35105192Y-20201000D01*
X123910000Y-20201000D01*
X123910000Y-30506199D01*
X123862702Y-30458901D01*
X123838900Y-30429898D01*
X123723175Y-30334925D01*
X123591146Y-30264353D01*
X123447885Y-30220896D01*
X123336232Y-30209899D01*
X123336221Y-30209899D01*
X123298899Y-30206223D01*
X123261577Y-30209899D01*
X122226161Y-30209899D01*
X122226526Y-30206185D01*
X122275137Y-30157574D01*
X122388405Y-29988056D01*
X122466426Y-29799698D01*
X122506200Y-29599739D01*
X122506200Y-29395861D01*
X122466426Y-29195902D01*
X122388405Y-29007544D01*
X122275137Y-28838026D01*
X122130974Y-28693863D01*
X121961456Y-28580595D01*
X121773098Y-28502574D01*
X121573139Y-28462800D01*
X121369261Y-28462800D01*
X121169302Y-28502574D01*
X120980944Y-28580595D01*
X120811426Y-28693863D01*
X120740568Y-28764721D01*
X120770457Y-28666191D01*
X120781092Y-28558211D01*
X120781092Y-28558203D01*
X120784647Y-28522108D01*
X120781092Y-28486011D01*
X120781092Y-26360891D01*
X120784647Y-26324794D01*
X120781092Y-26288697D01*
X120781092Y-26288690D01*
X120770457Y-26180710D01*
X120765700Y-26165026D01*
X120752955Y-26123014D01*
X120728429Y-26042162D01*
X120660179Y-25914475D01*
X120612078Y-25855864D01*
X120591345Y-25830601D01*
X120591342Y-25830598D01*
X120568329Y-25802557D01*
X120540289Y-25779545D01*
X119578324Y-24817581D01*
X119555304Y-24789531D01*
X119443386Y-24697682D01*
X119315699Y-24629432D01*
X119177151Y-24587404D01*
X119069171Y-24576769D01*
X119033066Y-24573213D01*
X118996961Y-24576769D01*
X115690357Y-24576769D01*
X115683316Y-24576076D01*
X115618924Y-24568399D01*
X115575240Y-24571800D01*
X115440949Y-24571800D01*
X115901232Y-24111517D01*
X115909744Y-24117205D01*
X116098102Y-24195226D01*
X116298061Y-24235000D01*
X116501939Y-24235000D01*
X116701898Y-24195226D01*
X116890256Y-24117205D01*
X117059774Y-24003937D01*
X117203937Y-23859774D01*
X117317205Y-23690256D01*
X117395226Y-23501898D01*
X117435000Y-23301939D01*
X117435000Y-23098061D01*
X117395226Y-22898102D01*
X117317205Y-22709744D01*
X117203937Y-22540226D01*
X117059774Y-22396063D01*
X116890256Y-22282795D01*
X116701898Y-22204774D01*
X116501939Y-22165000D01*
X116298061Y-22165000D01*
X116098102Y-22204774D01*
X115909744Y-22282795D01*
X115861546Y-22315000D01*
X115604635Y-22315000D01*
X115561169Y-22310719D01*
X115517703Y-22315000D01*
X115517693Y-22315000D01*
X115387680Y-22327805D01*
X115220857Y-22378411D01*
X115067111Y-22460589D01*
X115067109Y-22460590D01*
X115067110Y-22460590D01*
X114966123Y-22543468D01*
X114966121Y-22543470D01*
X114932353Y-22571183D01*
X114904640Y-22604951D01*
X109259822Y-28249770D01*
X108508699Y-28249770D01*
X108500546Y-28248967D01*
X108140000Y-27888422D01*
X108140000Y-26188477D01*
X108144282Y-26145000D01*
X108127195Y-25971510D01*
X108076589Y-25804687D01*
X107994411Y-25650941D01*
X107883817Y-25516183D01*
X107749059Y-25405589D01*
X107595313Y-25323411D01*
X107428490Y-25272805D01*
X107298477Y-25260000D01*
X107255000Y-25255718D01*
X107211524Y-25260000D01*
X95136454Y-25260000D01*
X95088256Y-25227795D01*
X94899898Y-25149774D01*
X94699939Y-25110000D01*
X94496061Y-25110000D01*
X94296102Y-25149774D01*
X94107744Y-25227795D01*
X94059546Y-25260000D01*
X85871765Y-25260000D01*
X83152719Y-22540955D01*
X83125002Y-22507182D01*
X82990244Y-22396588D01*
X82836498Y-22314410D01*
X82669675Y-22263804D01*
X82539662Y-22250999D01*
X82539654Y-22250999D01*
X82496185Y-22246718D01*
X82452716Y-22250999D01*
X40500470Y-22250999D01*
X40457001Y-22246718D01*
X40413532Y-22250999D01*
X40413524Y-22250999D01*
X40283511Y-22263804D01*
X40116687Y-22314410D01*
X39962942Y-22396588D01*
X39861954Y-22479467D01*
X39861952Y-22479469D01*
X39828184Y-22507182D01*
X39800471Y-22540950D01*
X37360958Y-24980464D01*
X37360953Y-24980468D01*
X31707956Y-30633466D01*
X31674183Y-30661183D01*
X31563589Y-30795942D01*
X31481411Y-30949688D01*
X31457821Y-31027454D01*
X31431557Y-31114033D01*
X31430805Y-31116511D01*
X31418000Y-31246524D01*
X31418000Y-31246531D01*
X31413719Y-31290000D01*
X31418000Y-31333469D01*
X31418000Y-31366475D01*
X31418001Y-31366485D01*
X31418000Y-34807845D01*
X31385795Y-34856044D01*
X31307774Y-35044402D01*
X31268000Y-35244361D01*
X31268000Y-35448239D01*
X31307774Y-35648198D01*
X31385795Y-35836556D01*
X31499063Y-36006074D01*
X31643226Y-36150237D01*
X31812744Y-36263505D01*
X32001102Y-36341526D01*
X32057957Y-36352835D01*
X36926120Y-41220999D01*
X31186000Y-41220999D01*
X31186000Y-40984740D01*
X31128932Y-40697842D01*
X31016990Y-40427589D01*
X30854475Y-40184368D01*
X30647632Y-39977525D01*
X30473240Y-39861000D01*
X30647632Y-39744475D01*
X30854475Y-39537632D01*
X31016990Y-39294411D01*
X31128932Y-39024158D01*
X31186000Y-38737260D01*
X31186000Y-38444740D01*
X31128932Y-38157842D01*
X31016990Y-37887589D01*
X30854475Y-37644368D01*
X30647632Y-37437525D01*
X30404411Y-37275010D01*
X30134158Y-37163068D01*
X29847260Y-37106000D01*
X29554740Y-37106000D01*
X29267842Y-37163068D01*
X28997589Y-37275010D01*
X28754368Y-37437525D01*
X28547525Y-37644368D01*
X28431000Y-37818760D01*
X28314475Y-37644368D01*
X28107632Y-37437525D01*
X27864411Y-37275010D01*
X27594158Y-37163068D01*
X27307260Y-37106000D01*
X27014740Y-37106000D01*
X26727842Y-37163068D01*
X26457589Y-37275010D01*
X26214368Y-37437525D01*
X26007525Y-37644368D01*
X25845010Y-37887589D01*
X25733068Y-38157842D01*
X25676000Y-38444740D01*
X25676000Y-38737260D01*
X25719791Y-38957408D01*
X25662000Y-39015199D01*
X25662000Y-24646951D01*
X27335654Y-24646951D01*
X27388434Y-24875116D01*
X27617488Y-24980509D01*
X27862702Y-25039192D01*
X28114652Y-25048907D01*
X28363658Y-25009283D01*
X28600148Y-24921842D01*
X28687566Y-24875116D01*
X28740346Y-24646951D01*
X32185654Y-24646951D01*
X32238434Y-24875116D01*
X32467488Y-24980509D01*
X32712702Y-25039192D01*
X32964652Y-25048907D01*
X33213658Y-25009283D01*
X33450148Y-24921842D01*
X33537566Y-24875116D01*
X33590346Y-24646951D01*
X32888000Y-23944605D01*
X32185654Y-24646951D01*
X28740346Y-24646951D01*
X28038000Y-23944605D01*
X27335654Y-24646951D01*
X25662000Y-24646951D01*
X25662000Y-23841652D01*
X26754093Y-23841652D01*
X26793717Y-24090658D01*
X26881158Y-24327148D01*
X26927884Y-24414566D01*
X27156049Y-24467346D01*
X27858395Y-23765000D01*
X28217605Y-23765000D01*
X28919951Y-24467346D01*
X29148116Y-24414566D01*
X29253509Y-24185512D01*
X29312192Y-23940298D01*
X29315995Y-23841652D01*
X31604093Y-23841652D01*
X31643717Y-24090658D01*
X31731158Y-24327148D01*
X31777884Y-24414566D01*
X32006049Y-24467346D01*
X32708395Y-23765000D01*
X33067605Y-23765000D01*
X33769951Y-24467346D01*
X33998116Y-24414566D01*
X34103509Y-24185512D01*
X34162192Y-23940298D01*
X34171907Y-23688348D01*
X34132283Y-23439342D01*
X34044842Y-23202852D01*
X33998116Y-23115434D01*
X33769951Y-23062654D01*
X33067605Y-23765000D01*
X32708395Y-23765000D01*
X32006049Y-23062654D01*
X31777884Y-23115434D01*
X31672491Y-23344488D01*
X31613808Y-23589702D01*
X31604093Y-23841652D01*
X29315995Y-23841652D01*
X29321907Y-23688348D01*
X29282283Y-23439342D01*
X29194842Y-23202852D01*
X29148116Y-23115434D01*
X28919951Y-23062654D01*
X28217605Y-23765000D01*
X27858395Y-23765000D01*
X27156049Y-23062654D01*
X26927884Y-23115434D01*
X26822491Y-23344488D01*
X26763808Y-23589702D01*
X26754093Y-23841652D01*
X25662000Y-23841652D01*
X25662000Y-22883049D01*
X27335654Y-22883049D01*
X28038000Y-23585395D01*
X28740346Y-22883049D01*
X32185654Y-22883049D01*
X32888000Y-23585395D01*
X33590346Y-22883049D01*
X33537566Y-22654884D01*
X33308512Y-22549491D01*
X33063298Y-22490808D01*
X32811348Y-22481093D01*
X32562342Y-22520717D01*
X32325852Y-22608158D01*
X32238434Y-22654884D01*
X32185654Y-22883049D01*
X28740346Y-22883049D01*
X28687566Y-22654884D01*
X28458512Y-22549491D01*
X28213298Y-22490808D01*
X27961348Y-22481093D01*
X27712342Y-22520717D01*
X27475852Y-22608158D01*
X27388434Y-22654884D01*
X27335654Y-22883049D01*
X25662000Y-22883049D01*
X25662000Y-20201000D01*
X25820808Y-20201000D01*
X25762906Y-20309326D01*
G37*
X25762906Y-20309326D02*
X25695147Y-20532700D01*
X25678000Y-20706793D01*
X25678000Y-21423206D01*
X25695147Y-21597299D01*
X25762906Y-21820673D01*
X25872942Y-22026535D01*
X26021025Y-22206975D01*
X26201464Y-22355058D01*
X26407326Y-22465094D01*
X26630700Y-22532853D01*
X26863000Y-22555733D01*
X27095299Y-22532853D01*
X27318673Y-22465094D01*
X27524535Y-22355058D01*
X27704975Y-22206975D01*
X27853058Y-22026536D01*
X27963094Y-21820674D01*
X28030853Y-21597300D01*
X28048000Y-21423207D01*
X28048000Y-20706794D01*
X28030853Y-20532701D01*
X27963094Y-20309326D01*
X27905192Y-20201000D01*
X33020808Y-20201000D01*
X32962906Y-20309327D01*
X32895147Y-20532701D01*
X32878000Y-20706794D01*
X32878000Y-21423207D01*
X32895147Y-21597300D01*
X32962906Y-21820674D01*
X33072943Y-22026536D01*
X33221026Y-22206975D01*
X33401465Y-22355058D01*
X33607327Y-22465094D01*
X33830701Y-22532853D01*
X34063000Y-22555733D01*
X34295300Y-22532853D01*
X34518674Y-22465094D01*
X34724536Y-22355058D01*
X34904975Y-22206975D01*
X35053058Y-22026536D01*
X35163094Y-21820674D01*
X35230853Y-21597299D01*
X35248000Y-21423206D01*
X35248000Y-21153561D01*
X82704500Y-21153561D01*
X82704500Y-21357439D01*
X82744274Y-21557398D01*
X82822295Y-21745756D01*
X82935563Y-21915274D01*
X83079726Y-22059437D01*
X83249244Y-22172705D01*
X83437602Y-22250726D01*
X83637561Y-22290500D01*
X83664362Y-22290500D01*
X85711294Y-24490693D01*
X85743799Y-24530301D01*
X85791067Y-24569093D01*
X85836901Y-24609560D01*
X85848843Y-24616508D01*
X85859524Y-24625274D01*
X85913445Y-24654096D01*
X85966299Y-24684848D01*
X85979368Y-24689333D01*
X85991553Y-24695846D01*
X86050082Y-24713600D01*
X86107900Y-24733442D01*
X86121586Y-24735290D01*
X86134814Y-24739303D01*
X86195696Y-24745299D01*
X86256260Y-24753479D01*
X86307385Y-24750300D01*
X91041089Y-24750300D01*
X91085026Y-24794237D01*
X91254544Y-24907505D01*
X91442902Y-24985526D01*
X91642861Y-25025300D01*
X91846739Y-25025300D01*
X92046698Y-24985526D01*
X92235056Y-24907505D01*
X92404574Y-24794237D01*
X92548737Y-24650074D01*
X92662005Y-24480556D01*
X92740026Y-24292198D01*
X92779800Y-24092239D01*
X92779800Y-23888361D01*
X92740026Y-23688402D01*
X92662005Y-23500044D01*
X92548737Y-23330526D01*
X92404574Y-23186363D01*
X92235056Y-23073095D01*
X92046698Y-22995074D01*
X91846739Y-22955300D01*
X91642861Y-22955300D01*
X91442902Y-22995074D01*
X91254544Y-23073095D01*
X91085026Y-23186363D01*
X91041089Y-23230300D01*
X86614783Y-23230300D01*
X84774500Y-21252230D01*
X84774500Y-21153561D01*
X84734726Y-20953602D01*
X84656705Y-20765244D01*
X84543437Y-20595726D01*
X84399274Y-20451563D01*
X84229756Y-20338295D01*
X84041398Y-20260274D01*
X83841439Y-20220500D01*
X83637561Y-20220500D01*
X83437602Y-20260274D01*
X83249244Y-20338295D01*
X83079726Y-20451563D01*
X82935563Y-20595726D01*
X82822295Y-20765244D01*
X82744274Y-20953602D01*
X82704500Y-21153561D01*
X35248000Y-21153561D01*
X35248000Y-20706793D01*
X35230853Y-20532700D01*
X35163094Y-20309326D01*
X35105192Y-20201000D01*
X123910000Y-20201000D01*
X123910000Y-30506199D01*
X123862702Y-30458901D01*
X123838900Y-30429898D01*
X123723175Y-30334925D01*
X123591146Y-30264353D01*
X123447885Y-30220896D01*
X123336232Y-30209899D01*
X123336221Y-30209899D01*
X123298899Y-30206223D01*
X123261577Y-30209899D01*
X122226161Y-30209899D01*
X122226526Y-30206185D01*
X122275137Y-30157574D01*
X122388405Y-29988056D01*
X122466426Y-29799698D01*
X122506200Y-29599739D01*
X122506200Y-29395861D01*
X122466426Y-29195902D01*
X122388405Y-29007544D01*
X122275137Y-28838026D01*
X122130974Y-28693863D01*
X121961456Y-28580595D01*
X121773098Y-28502574D01*
X121573139Y-28462800D01*
X121369261Y-28462800D01*
X121169302Y-28502574D01*
X120980944Y-28580595D01*
X120811426Y-28693863D01*
X120740568Y-28764721D01*
X120770457Y-28666191D01*
X120781092Y-28558211D01*
X120781092Y-28558203D01*
X120784647Y-28522108D01*
X120781092Y-28486011D01*
X120781092Y-26360891D01*
X120784647Y-26324794D01*
X120781092Y-26288697D01*
X120781092Y-26288690D01*
X120770457Y-26180710D01*
X120765700Y-26165026D01*
X120752955Y-26123014D01*
X120728429Y-26042162D01*
X120660179Y-25914475D01*
X120612078Y-25855864D01*
X120591345Y-25830601D01*
X120591342Y-25830598D01*
X120568329Y-25802557D01*
X120540289Y-25779545D01*
X119578324Y-24817581D01*
X119555304Y-24789531D01*
X119443386Y-24697682D01*
X119315699Y-24629432D01*
X119177151Y-24587404D01*
X119069171Y-24576769D01*
X119033066Y-24573213D01*
X118996961Y-24576769D01*
X115690357Y-24576769D01*
X115683316Y-24576076D01*
X115618924Y-24568399D01*
X115575240Y-24571800D01*
X115440949Y-24571800D01*
X115901232Y-24111517D01*
X115909744Y-24117205D01*
X116098102Y-24195226D01*
X116298061Y-24235000D01*
X116501939Y-24235000D01*
X116701898Y-24195226D01*
X116890256Y-24117205D01*
X117059774Y-24003937D01*
X117203937Y-23859774D01*
X117317205Y-23690256D01*
X117395226Y-23501898D01*
X117435000Y-23301939D01*
X117435000Y-23098061D01*
X117395226Y-22898102D01*
X117317205Y-22709744D01*
X117203937Y-22540226D01*
X117059774Y-22396063D01*
X116890256Y-22282795D01*
X116701898Y-22204774D01*
X116501939Y-22165000D01*
X116298061Y-22165000D01*
X116098102Y-22204774D01*
X115909744Y-22282795D01*
X115861546Y-22315000D01*
X115604635Y-22315000D01*
X115561169Y-22310719D01*
X115517703Y-22315000D01*
X115517693Y-22315000D01*
X115387680Y-22327805D01*
X115220857Y-22378411D01*
X115067111Y-22460589D01*
X115067109Y-22460590D01*
X115067110Y-22460590D01*
X114966123Y-22543468D01*
X114966121Y-22543470D01*
X114932353Y-22571183D01*
X114904640Y-22604951D01*
X109259822Y-28249770D01*
X108508699Y-28249770D01*
X108500546Y-28248967D01*
X108140000Y-27888422D01*
X108140000Y-26188477D01*
X108144282Y-26145000D01*
X108127195Y-25971510D01*
X108076589Y-25804687D01*
X107994411Y-25650941D01*
X107883817Y-25516183D01*
X107749059Y-25405589D01*
X107595313Y-25323411D01*
X107428490Y-25272805D01*
X107298477Y-25260000D01*
X107255000Y-25255718D01*
X107211524Y-25260000D01*
X95136454Y-25260000D01*
X95088256Y-25227795D01*
X94899898Y-25149774D01*
X94699939Y-25110000D01*
X94496061Y-25110000D01*
X94296102Y-25149774D01*
X94107744Y-25227795D01*
X94059546Y-25260000D01*
X85871765Y-25260000D01*
X83152719Y-22540955D01*
X83125002Y-22507182D01*
X82990244Y-22396588D01*
X82836498Y-22314410D01*
X82669675Y-22263804D01*
X82539662Y-22250999D01*
X82539654Y-22250999D01*
X82496185Y-22246718D01*
X82452716Y-22250999D01*
X40500470Y-22250999D01*
X40457001Y-22246718D01*
X40413532Y-22250999D01*
X40413524Y-22250999D01*
X40283511Y-22263804D01*
X40116687Y-22314410D01*
X39962942Y-22396588D01*
X39861954Y-22479467D01*
X39861952Y-22479469D01*
X39828184Y-22507182D01*
X39800471Y-22540950D01*
X37360958Y-24980464D01*
X37360953Y-24980468D01*
X31707956Y-30633466D01*
X31674183Y-30661183D01*
X31563589Y-30795942D01*
X31481411Y-30949688D01*
X31457821Y-31027454D01*
X31431557Y-31114033D01*
X31430805Y-31116511D01*
X31418000Y-31246524D01*
X31418000Y-31246531D01*
X31413719Y-31290000D01*
X31418000Y-31333469D01*
X31418000Y-31366475D01*
X31418001Y-31366485D01*
X31418000Y-34807845D01*
X31385795Y-34856044D01*
X31307774Y-35044402D01*
X31268000Y-35244361D01*
X31268000Y-35448239D01*
X31307774Y-35648198D01*
X31385795Y-35836556D01*
X31499063Y-36006074D01*
X31643226Y-36150237D01*
X31812744Y-36263505D01*
X32001102Y-36341526D01*
X32057957Y-36352835D01*
X36926120Y-41220999D01*
X31186000Y-41220999D01*
X31186000Y-40984740D01*
X31128932Y-40697842D01*
X31016990Y-40427589D01*
X30854475Y-40184368D01*
X30647632Y-39977525D01*
X30473240Y-39861000D01*
X30647632Y-39744475D01*
X30854475Y-39537632D01*
X31016990Y-39294411D01*
X31128932Y-39024158D01*
X31186000Y-38737260D01*
X31186000Y-38444740D01*
X31128932Y-38157842D01*
X31016990Y-37887589D01*
X30854475Y-37644368D01*
X30647632Y-37437525D01*
X30404411Y-37275010D01*
X30134158Y-37163068D01*
X29847260Y-37106000D01*
X29554740Y-37106000D01*
X29267842Y-37163068D01*
X28997589Y-37275010D01*
X28754368Y-37437525D01*
X28547525Y-37644368D01*
X28431000Y-37818760D01*
X28314475Y-37644368D01*
X28107632Y-37437525D01*
X27864411Y-37275010D01*
X27594158Y-37163068D01*
X27307260Y-37106000D01*
X27014740Y-37106000D01*
X26727842Y-37163068D01*
X26457589Y-37275010D01*
X26214368Y-37437525D01*
X26007525Y-37644368D01*
X25845010Y-37887589D01*
X25733068Y-38157842D01*
X25676000Y-38444740D01*
X25676000Y-38737260D01*
X25719791Y-38957408D01*
X25662000Y-39015199D01*
X25662000Y-24646951D01*
X27335654Y-24646951D01*
X27388434Y-24875116D01*
X27617488Y-24980509D01*
X27862702Y-25039192D01*
X28114652Y-25048907D01*
X28363658Y-25009283D01*
X28600148Y-24921842D01*
X28687566Y-24875116D01*
X28740346Y-24646951D01*
X32185654Y-24646951D01*
X32238434Y-24875116D01*
X32467488Y-24980509D01*
X32712702Y-25039192D01*
X32964652Y-25048907D01*
X33213658Y-25009283D01*
X33450148Y-24921842D01*
X33537566Y-24875116D01*
X33590346Y-24646951D01*
X32888000Y-23944605D01*
X32185654Y-24646951D01*
X28740346Y-24646951D01*
X28038000Y-23944605D01*
X27335654Y-24646951D01*
X25662000Y-24646951D01*
X25662000Y-23841652D01*
X26754093Y-23841652D01*
X26793717Y-24090658D01*
X26881158Y-24327148D01*
X26927884Y-24414566D01*
X27156049Y-24467346D01*
X27858395Y-23765000D01*
X28217605Y-23765000D01*
X28919951Y-24467346D01*
X29148116Y-24414566D01*
X29253509Y-24185512D01*
X29312192Y-23940298D01*
X29315995Y-23841652D01*
X31604093Y-23841652D01*
X31643717Y-24090658D01*
X31731158Y-24327148D01*
X31777884Y-24414566D01*
X32006049Y-24467346D01*
X32708395Y-23765000D01*
X33067605Y-23765000D01*
X33769951Y-24467346D01*
X33998116Y-24414566D01*
X34103509Y-24185512D01*
X34162192Y-23940298D01*
X34171907Y-23688348D01*
X34132283Y-23439342D01*
X34044842Y-23202852D01*
X33998116Y-23115434D01*
X33769951Y-23062654D01*
X33067605Y-23765000D01*
X32708395Y-23765000D01*
X32006049Y-23062654D01*
X31777884Y-23115434D01*
X31672491Y-23344488D01*
X31613808Y-23589702D01*
X31604093Y-23841652D01*
X29315995Y-23841652D01*
X29321907Y-23688348D01*
X29282283Y-23439342D01*
X29194842Y-23202852D01*
X29148116Y-23115434D01*
X28919951Y-23062654D01*
X28217605Y-23765000D01*
X27858395Y-23765000D01*
X27156049Y-23062654D01*
X26927884Y-23115434D01*
X26822491Y-23344488D01*
X26763808Y-23589702D01*
X26754093Y-23841652D01*
X25662000Y-23841652D01*
X25662000Y-22883049D01*
X27335654Y-22883049D01*
X28038000Y-23585395D01*
X28740346Y-22883049D01*
X32185654Y-22883049D01*
X32888000Y-23585395D01*
X33590346Y-22883049D01*
X33537566Y-22654884D01*
X33308512Y-22549491D01*
X33063298Y-22490808D01*
X32811348Y-22481093D01*
X32562342Y-22520717D01*
X32325852Y-22608158D01*
X32238434Y-22654884D01*
X32185654Y-22883049D01*
X28740346Y-22883049D01*
X28687566Y-22654884D01*
X28458512Y-22549491D01*
X28213298Y-22490808D01*
X27961348Y-22481093D01*
X27712342Y-22520717D01*
X27475852Y-22608158D01*
X27388434Y-22654884D01*
X27335654Y-22883049D01*
X25662000Y-22883049D01*
X25662000Y-20201000D01*
X25820808Y-20201000D01*
X25762906Y-20309326D01*
G36*
X81961723Y-40160751D02*
G01*
X82043565Y-40161980D01*
X82042787Y-40213777D01*
X82061892Y-40317982D01*
X81889072Y-40145162D01*
X81961723Y-40160751D01*
G37*
X81961723Y-40160751D02*
X82043565Y-40161980D01*
X82042787Y-40213777D01*
X82061892Y-40317982D01*
X81889072Y-40145162D01*
X81961723Y-40160751D01*
G36*
X86096962Y-40317528D02*
G01*
X86112551Y-40244877D01*
X86113780Y-40163035D01*
X86165577Y-40163813D01*
X86269782Y-40144708D01*
X86096962Y-40317528D01*
G37*
X86096962Y-40317528D02*
X86112551Y-40244877D01*
X86113780Y-40163035D01*
X86165577Y-40163813D01*
X86269782Y-40144708D01*
X86096962Y-40317528D01*
G36*
X38587998Y-31169201D02*
G01*
X38559000Y-31192999D01*
X38535202Y-31221997D01*
X38535201Y-31221998D01*
X38464026Y-31308724D01*
X38393454Y-31440754D01*
X38372527Y-31509744D01*
X38349998Y-31584014D01*
X38339077Y-31694900D01*
X38335324Y-31733000D01*
X38339001Y-31770332D01*
X38339000Y-34743677D01*
X38335324Y-34781000D01*
X38339000Y-34818322D01*
X38339000Y-34818332D01*
X38349997Y-34929985D01*
X38387944Y-35055081D01*
X38393454Y-35073246D01*
X38464026Y-35205276D01*
X38492547Y-35240028D01*
X38558999Y-35321001D01*
X38588003Y-35344804D01*
X43281016Y-40037818D01*
X43210898Y-40008774D01*
X43010939Y-39969000D01*
X42807061Y-39969000D01*
X42607102Y-40008774D01*
X42418744Y-40086795D01*
X42370546Y-40119000D01*
X38327279Y-40119000D01*
X33309535Y-35101257D01*
X33298226Y-35044402D01*
X33220205Y-34856044D01*
X33188000Y-34807846D01*
X33188000Y-31656578D01*
X33413470Y-31431108D01*
X33404774Y-31452102D01*
X33365000Y-31652061D01*
X33365000Y-31855939D01*
X33404774Y-32055898D01*
X33482795Y-32244256D01*
X33596063Y-32413774D01*
X33740226Y-32557937D01*
X33909744Y-32671205D01*
X34098102Y-32749226D01*
X34298061Y-32789000D01*
X34501939Y-32789000D01*
X34701898Y-32749226D01*
X34890256Y-32671205D01*
X35059774Y-32557937D01*
X35114724Y-32502987D01*
X35257932Y-32459546D01*
X35389961Y-32388974D01*
X35505686Y-32294001D01*
X35529489Y-32264997D01*
X37256988Y-30537499D01*
X39219700Y-30537499D01*
X38587998Y-31169201D01*
G37*
X38587998Y-31169201D02*
X38559000Y-31192999D01*
X38535202Y-31221997D01*
X38535201Y-31221998D01*
X38464026Y-31308724D01*
X38393454Y-31440754D01*
X38372527Y-31509744D01*
X38349998Y-31584014D01*
X38339077Y-31694900D01*
X38335324Y-31733000D01*
X38339001Y-31770332D01*
X38339000Y-34743677D01*
X38335324Y-34781000D01*
X38339000Y-34818322D01*
X38339000Y-34818332D01*
X38349997Y-34929985D01*
X38387944Y-35055081D01*
X38393454Y-35073246D01*
X38464026Y-35205276D01*
X38492547Y-35240028D01*
X38558999Y-35321001D01*
X38588003Y-35344804D01*
X43281016Y-40037818D01*
X43210898Y-40008774D01*
X43010939Y-39969000D01*
X42807061Y-39969000D01*
X42607102Y-40008774D01*
X42418744Y-40086795D01*
X42370546Y-40119000D01*
X38327279Y-40119000D01*
X33309535Y-35101257D01*
X33298226Y-35044402D01*
X33220205Y-34856044D01*
X33188000Y-34807846D01*
X33188000Y-31656578D01*
X33413470Y-31431108D01*
X33404774Y-31452102D01*
X33365000Y-31652061D01*
X33365000Y-31855939D01*
X33404774Y-32055898D01*
X33482795Y-32244256D01*
X33596063Y-32413774D01*
X33740226Y-32557937D01*
X33909744Y-32671205D01*
X34098102Y-32749226D01*
X34298061Y-32789000D01*
X34501939Y-32789000D01*
X34701898Y-32749226D01*
X34890256Y-32671205D01*
X35059774Y-32557937D01*
X35114724Y-32502987D01*
X35257932Y-32459546D01*
X35389961Y-32388974D01*
X35505686Y-32294001D01*
X35529489Y-32264997D01*
X37256988Y-30537499D01*
X39219700Y-30537499D01*
X38587998Y-31169201D01*
G36*
X43564774Y-31050102D02*
G01*
X43525000Y-31250061D01*
X43525000Y-31453939D01*
X43564774Y-31653898D01*
X43642795Y-31842256D01*
X43756063Y-32011774D01*
X43900226Y-32155937D01*
X44069744Y-32269205D01*
X44258102Y-32347226D01*
X44458061Y-32387000D01*
X44661939Y-32387000D01*
X44861898Y-32347226D01*
X45050256Y-32269205D01*
X45219774Y-32155937D01*
X45263711Y-32112000D01*
X45757368Y-32112000D01*
X45723774Y-32193102D01*
X45684000Y-32393061D01*
X45684000Y-32596939D01*
X45723774Y-32796898D01*
X45801795Y-32985256D01*
X45915063Y-33154774D01*
X46059226Y-33298937D01*
X46228744Y-33412205D01*
X46417102Y-33490226D01*
X46617061Y-33530000D01*
X46679199Y-33530000D01*
X48140228Y-34991030D01*
X48164027Y-35020029D01*
X48193025Y-35043827D01*
X48279752Y-35115002D01*
X48411781Y-35185574D01*
X48555042Y-35229031D01*
X48704028Y-35243705D01*
X48741361Y-35240028D01*
X56957322Y-35240028D01*
X57353791Y-35636498D01*
X57218063Y-35772226D01*
X57104795Y-35941744D01*
X57026774Y-36130102D01*
X56987000Y-36330061D01*
X56987000Y-36533939D01*
X57017644Y-36688000D01*
X48281732Y-36688000D01*
X48244409Y-36684324D01*
X48207086Y-36688000D01*
X48207077Y-36688000D01*
X48095424Y-36698997D01*
X47952163Y-36742454D01*
X47820134Y-36813026D01*
X47820132Y-36813027D01*
X47820133Y-36813027D01*
X47733406Y-36884201D01*
X47733402Y-36884205D01*
X47704409Y-36907999D01*
X47680615Y-36936992D01*
X44922788Y-39694821D01*
X44884546Y-39568753D01*
X44869778Y-39541124D01*
X44813974Y-39436723D01*
X44745332Y-39353083D01*
X44719001Y-39320999D01*
X44690003Y-39297201D01*
X39859000Y-34466199D01*
X39859000Y-32047801D01*
X40919293Y-30987509D01*
X43590701Y-30987509D01*
X43564774Y-31050102D01*
G37*
X43564774Y-31050102D02*
X43525000Y-31250061D01*
X43525000Y-31453939D01*
X43564774Y-31653898D01*
X43642795Y-31842256D01*
X43756063Y-32011774D01*
X43900226Y-32155937D01*
X44069744Y-32269205D01*
X44258102Y-32347226D01*
X44458061Y-32387000D01*
X44661939Y-32387000D01*
X44861898Y-32347226D01*
X45050256Y-32269205D01*
X45219774Y-32155937D01*
X45263711Y-32112000D01*
X45757368Y-32112000D01*
X45723774Y-32193102D01*
X45684000Y-32393061D01*
X45684000Y-32596939D01*
X45723774Y-32796898D01*
X45801795Y-32985256D01*
X45915063Y-33154774D01*
X46059226Y-33298937D01*
X46228744Y-33412205D01*
X46417102Y-33490226D01*
X46617061Y-33530000D01*
X46679199Y-33530000D01*
X48140228Y-34991030D01*
X48164027Y-35020029D01*
X48193025Y-35043827D01*
X48279752Y-35115002D01*
X48411781Y-35185574D01*
X48555042Y-35229031D01*
X48704028Y-35243705D01*
X48741361Y-35240028D01*
X56957322Y-35240028D01*
X57353791Y-35636498D01*
X57218063Y-35772226D01*
X57104795Y-35941744D01*
X57026774Y-36130102D01*
X56987000Y-36330061D01*
X56987000Y-36533939D01*
X57017644Y-36688000D01*
X48281732Y-36688000D01*
X48244409Y-36684324D01*
X48207086Y-36688000D01*
X48207077Y-36688000D01*
X48095424Y-36698997D01*
X47952163Y-36742454D01*
X47820134Y-36813026D01*
X47820132Y-36813027D01*
X47820133Y-36813027D01*
X47733406Y-36884201D01*
X47733402Y-36884205D01*
X47704409Y-36907999D01*
X47680615Y-36936992D01*
X44922788Y-39694821D01*
X44884546Y-39568753D01*
X44869778Y-39541124D01*
X44813974Y-39436723D01*
X44745332Y-39353083D01*
X44719001Y-39320999D01*
X44690003Y-39297201D01*
X39859000Y-34466199D01*
X39859000Y-32047801D01*
X40919293Y-30987509D01*
X43590701Y-30987509D01*
X43564774Y-31050102D01*
G36*
X82045849Y-36009923D02*
G01*
X82044620Y-36091765D01*
X81992823Y-36090987D01*
X81888618Y-36110092D01*
X82061438Y-35937272D01*
X82045849Y-36009923D01*
G37*
X82045849Y-36009923D02*
X82044620Y-36091765D01*
X81992823Y-36090987D01*
X81888618Y-36110092D01*
X82061438Y-35937272D01*
X82045849Y-36009923D01*
G36*
X86269328Y-36109638D02*
G01*
X86196677Y-36094049D01*
X86114835Y-36092820D01*
X86115613Y-36041023D01*
X86096508Y-35936818D01*
X86269328Y-36109638D01*
G37*
X86269328Y-36109638D02*
X86196677Y-36094049D01*
X86114835Y-36092820D01*
X86115613Y-36041023D01*
X86096508Y-35936818D01*
X86269328Y-36109638D01*
G36*
X67039000Y-31764199D02*
G01*
X66763804Y-31489002D01*
X66740001Y-31459999D01*
X66624276Y-31365026D01*
X66492247Y-31294454D01*
X66348986Y-31250997D01*
X66237333Y-31240000D01*
X66237322Y-31240000D01*
X66200000Y-31236324D01*
X66162678Y-31240000D01*
X66103711Y-31240000D01*
X66059774Y-31196063D01*
X65890256Y-31082795D01*
X65701898Y-31004774D01*
X65501939Y-30965000D01*
X65298061Y-30965000D01*
X65098102Y-31004774D01*
X64909744Y-31082795D01*
X64740226Y-31196063D01*
X64596063Y-31340226D01*
X64482795Y-31509744D01*
X64404774Y-31698102D01*
X64365000Y-31898061D01*
X64365000Y-31991467D01*
X64298102Y-32004774D01*
X64109744Y-32082795D01*
X63940226Y-32196063D01*
X63796063Y-32340226D01*
X63682795Y-32509744D01*
X63604774Y-32698102D01*
X63565000Y-32898061D01*
X63565000Y-33101939D01*
X63604774Y-33301898D01*
X63682795Y-33490256D01*
X63796063Y-33659774D01*
X63940226Y-33803937D01*
X64109744Y-33917205D01*
X64298102Y-33995226D01*
X64498061Y-34035000D01*
X64701939Y-34035000D01*
X64901898Y-33995226D01*
X64914999Y-33989800D01*
X64925626Y-34000427D01*
X64949429Y-34029431D01*
X65041391Y-34104902D01*
X65065154Y-34124404D01*
X65197183Y-34194976D01*
X65340444Y-34238433D01*
X65489430Y-34253107D01*
X65526763Y-34249430D01*
X67039000Y-34249430D01*
X67039000Y-35337970D01*
X59841277Y-35337970D01*
X58368338Y-33865032D01*
X58459774Y-33803937D01*
X58603937Y-33659774D01*
X58717205Y-33490256D01*
X58795226Y-33301898D01*
X58835000Y-33101939D01*
X58835000Y-32898061D01*
X58795226Y-32698102D01*
X58717205Y-32509744D01*
X58603937Y-32340226D01*
X58560000Y-32296289D01*
X58560000Y-27114801D01*
X58678752Y-26996050D01*
X67039000Y-26996050D01*
X67039000Y-31764199D01*
G37*
X67039000Y-31764199D02*
X66763804Y-31489002D01*
X66740001Y-31459999D01*
X66624276Y-31365026D01*
X66492247Y-31294454D01*
X66348986Y-31250997D01*
X66237333Y-31240000D01*
X66237322Y-31240000D01*
X66200000Y-31236324D01*
X66162678Y-31240000D01*
X66103711Y-31240000D01*
X66059774Y-31196063D01*
X65890256Y-31082795D01*
X65701898Y-31004774D01*
X65501939Y-30965000D01*
X65298061Y-30965000D01*
X65098102Y-31004774D01*
X64909744Y-31082795D01*
X64740226Y-31196063D01*
X64596063Y-31340226D01*
X64482795Y-31509744D01*
X64404774Y-31698102D01*
X64365000Y-31898061D01*
X64365000Y-31991467D01*
X64298102Y-32004774D01*
X64109744Y-32082795D01*
X63940226Y-32196063D01*
X63796063Y-32340226D01*
X63682795Y-32509744D01*
X63604774Y-32698102D01*
X63565000Y-32898061D01*
X63565000Y-33101939D01*
X63604774Y-33301898D01*
X63682795Y-33490256D01*
X63796063Y-33659774D01*
X63940226Y-33803937D01*
X64109744Y-33917205D01*
X64298102Y-33995226D01*
X64498061Y-34035000D01*
X64701939Y-34035000D01*
X64901898Y-33995226D01*
X64914999Y-33989800D01*
X64925626Y-34000427D01*
X64949429Y-34029431D01*
X65041391Y-34104902D01*
X65065154Y-34124404D01*
X65197183Y-34194976D01*
X65340444Y-34238433D01*
X65489430Y-34253107D01*
X65526763Y-34249430D01*
X67039000Y-34249430D01*
X67039000Y-35337970D01*
X59841277Y-35337970D01*
X58368338Y-33865032D01*
X58459774Y-33803937D01*
X58603937Y-33659774D01*
X58717205Y-33490256D01*
X58795226Y-33301898D01*
X58835000Y-33101939D01*
X58835000Y-32898061D01*
X58795226Y-32698102D01*
X58717205Y-32509744D01*
X58603937Y-32340226D01*
X58560000Y-32296289D01*
X58560000Y-27114801D01*
X58678752Y-26996050D01*
X67039000Y-26996050D01*
X67039000Y-31764199D01*
G36*
X57040001Y-32296288D02*
G01*
X56996063Y-32340226D01*
X56882795Y-32509744D01*
X56804774Y-32698102D01*
X56765000Y-32898061D01*
X56765000Y-33101939D01*
X56796524Y-33260420D01*
X50589871Y-33259069D01*
X48318310Y-30987509D01*
X51935169Y-30987509D01*
X51972491Y-30991185D01*
X52009813Y-30987509D01*
X52009824Y-30987509D01*
X52121477Y-30976512D01*
X52264738Y-30933055D01*
X52396767Y-30862483D01*
X52512492Y-30767510D01*
X52536295Y-30738506D01*
X54976001Y-28298801D01*
X54976000Y-31029289D01*
X54932063Y-31073226D01*
X54818795Y-31242744D01*
X54740774Y-31431102D01*
X54701000Y-31631061D01*
X54701000Y-31834939D01*
X54740774Y-32034898D01*
X54818795Y-32223256D01*
X54932063Y-32392774D01*
X55076226Y-32536937D01*
X55245744Y-32650205D01*
X55434102Y-32728226D01*
X55634061Y-32768000D01*
X55837939Y-32768000D01*
X56037898Y-32728226D01*
X56226256Y-32650205D01*
X56395774Y-32536937D01*
X56539937Y-32392774D01*
X56653205Y-32223256D01*
X56731226Y-32034898D01*
X56771000Y-31834939D01*
X56771000Y-31631061D01*
X56731226Y-31431102D01*
X56653205Y-31242744D01*
X56539937Y-31073226D01*
X56496000Y-31029289D01*
X56496000Y-27578801D01*
X57040000Y-27034802D01*
X57040001Y-32296288D01*
G37*
X57040001Y-32296288D02*
X56996063Y-32340226D01*
X56882795Y-32509744D01*
X56804774Y-32698102D01*
X56765000Y-32898061D01*
X56765000Y-33101939D01*
X56796524Y-33260420D01*
X50589871Y-33259069D01*
X48318310Y-30987509D01*
X51935169Y-30987509D01*
X51972491Y-30991185D01*
X52009813Y-30987509D01*
X52009824Y-30987509D01*
X52121477Y-30976512D01*
X52264738Y-30933055D01*
X52396767Y-30862483D01*
X52512492Y-30767510D01*
X52536295Y-30738506D01*
X54976001Y-28298801D01*
X54976000Y-31029289D01*
X54932063Y-31073226D01*
X54818795Y-31242744D01*
X54740774Y-31431102D01*
X54701000Y-31631061D01*
X54701000Y-31834939D01*
X54740774Y-32034898D01*
X54818795Y-32223256D01*
X54932063Y-32392774D01*
X55076226Y-32536937D01*
X55245744Y-32650205D01*
X55434102Y-32728226D01*
X55634061Y-32768000D01*
X55837939Y-32768000D01*
X56037898Y-32728226D01*
X56226256Y-32650205D01*
X56395774Y-32536937D01*
X56539937Y-32392774D01*
X56653205Y-32223256D01*
X56731226Y-32034898D01*
X56771000Y-31834939D01*
X56771000Y-31631061D01*
X56731226Y-31431102D01*
X56653205Y-31242744D01*
X56539937Y-31073226D01*
X56496000Y-31029289D01*
X56496000Y-27578801D01*
X57040000Y-27034802D01*
X57040001Y-32296288D01*
G36*
X82295388Y-32279420D02*
G01*
X78816200Y-32279420D01*
X78816200Y-28800231D01*
X82295388Y-32279420D01*
G37*
X82295388Y-32279420D02*
X78816200Y-32279420D01*
X78816200Y-28800231D01*
X82295388Y-32279420D01*
G36*
X86414201Y-28942003D02*
G01*
X86437999Y-28971001D01*
X86553724Y-29065974D01*
X86685753Y-29136546D01*
X86829014Y-29180003D01*
X86940667Y-29191000D01*
X86940676Y-29191000D01*
X86977999Y-29194676D01*
X87015322Y-29191000D01*
X101260289Y-29191000D01*
X101304226Y-29234937D01*
X101473744Y-29348205D01*
X101662102Y-29426226D01*
X101862061Y-29466000D01*
X102065939Y-29466000D01*
X102265898Y-29426226D01*
X102454256Y-29348205D01*
X102623774Y-29234937D01*
X102767937Y-29090774D01*
X102881205Y-28921256D01*
X102959226Y-28732898D01*
X102999000Y-28532939D01*
X102999000Y-28329061D01*
X102959226Y-28129102D01*
X102881205Y-27940744D01*
X102767937Y-27771226D01*
X102623774Y-27627063D01*
X102454256Y-27513795D01*
X102265898Y-27435774D01*
X102065939Y-27396000D01*
X101862061Y-27396000D01*
X101662102Y-27435774D01*
X101473744Y-27513795D01*
X101304226Y-27627063D01*
X101260289Y-27671000D01*
X87292802Y-27671000D01*
X86651802Y-27030000D01*
X94059546Y-27030000D01*
X94107744Y-27062205D01*
X94296102Y-27140226D01*
X94496061Y-27180000D01*
X94699939Y-27180000D01*
X94899898Y-27140226D01*
X95088256Y-27062205D01*
X95136454Y-27030000D01*
X106370001Y-27030000D01*
X106370000Y-28211531D01*
X106365719Y-28255000D01*
X106370000Y-28298469D01*
X106370000Y-28298476D01*
X106377835Y-28378023D01*
X106382805Y-28428490D01*
X106393213Y-28462800D01*
X106433411Y-28595312D01*
X106515589Y-28749058D01*
X106626183Y-28883817D01*
X106659956Y-28911534D01*
X107293465Y-29545044D01*
X107304774Y-29601898D01*
X107382795Y-29790256D01*
X107496063Y-29959774D01*
X107640226Y-30103937D01*
X107809744Y-30217205D01*
X107998102Y-30295226D01*
X108198061Y-30335000D01*
X108401939Y-30335000D01*
X108601898Y-30295226D01*
X108790256Y-30217205D01*
X108959774Y-30103937D01*
X109043941Y-30019770D01*
X109582931Y-30019770D01*
X109626400Y-30024051D01*
X109669869Y-30019770D01*
X109669877Y-30019770D01*
X109799890Y-30006965D01*
X109966713Y-29956359D01*
X110120459Y-29874181D01*
X110255217Y-29763587D01*
X110282934Y-29729814D01*
X111217602Y-28795146D01*
X111217601Y-30982691D01*
X111196076Y-30965026D01*
X111064047Y-30894454D01*
X110920786Y-30850997D01*
X110809133Y-30840000D01*
X110809122Y-30840000D01*
X110771800Y-30836324D01*
X110734478Y-30840000D01*
X97284000Y-30840000D01*
X97284000Y-30742061D01*
X97244226Y-30542102D01*
X97166205Y-30353744D01*
X97052937Y-30184226D01*
X96908774Y-30040063D01*
X96739256Y-29926795D01*
X96550898Y-29848774D01*
X96350939Y-29809000D01*
X96147061Y-29809000D01*
X95947102Y-29848774D01*
X95758744Y-29926795D01*
X95589226Y-30040063D01*
X95545289Y-30084000D01*
X83522392Y-30084000D01*
X81322393Y-27884001D01*
X81516677Y-27884001D01*
X81553999Y-27887677D01*
X81591321Y-27884001D01*
X81591332Y-27884001D01*
X81702985Y-27873004D01*
X81846246Y-27829547D01*
X81978275Y-27758975D01*
X82094000Y-27664002D01*
X82117802Y-27634999D01*
X82318801Y-27434000D01*
X82380939Y-27434000D01*
X82580898Y-27394226D01*
X82769256Y-27316205D01*
X82938774Y-27202937D01*
X83082937Y-27058774D01*
X83196205Y-26889256D01*
X83274226Y-26700898D01*
X83314000Y-26500939D01*
X83314000Y-26297061D01*
X83274226Y-26097102D01*
X83196205Y-25908744D01*
X83082937Y-25739226D01*
X82938774Y-25595063D01*
X82769256Y-25481795D01*
X82580898Y-25403774D01*
X82380939Y-25364000D01*
X82177061Y-25364000D01*
X81977102Y-25403774D01*
X81788744Y-25481795D01*
X81644000Y-25578510D01*
X81499256Y-25481795D01*
X81310898Y-25403774D01*
X81110939Y-25364000D01*
X81048802Y-25364000D01*
X80430801Y-24746000D01*
X82218199Y-24746000D01*
X86414201Y-28942003D01*
G37*
X86414201Y-28942003D02*
X86437999Y-28971001D01*
X86553724Y-29065974D01*
X86685753Y-29136546D01*
X86829014Y-29180003D01*
X86940667Y-29191000D01*
X86940676Y-29191000D01*
X86977999Y-29194676D01*
X87015322Y-29191000D01*
X101260289Y-29191000D01*
X101304226Y-29234937D01*
X101473744Y-29348205D01*
X101662102Y-29426226D01*
X101862061Y-29466000D01*
X102065939Y-29466000D01*
X102265898Y-29426226D01*
X102454256Y-29348205D01*
X102623774Y-29234937D01*
X102767937Y-29090774D01*
X102881205Y-28921256D01*
X102959226Y-28732898D01*
X102999000Y-28532939D01*
X102999000Y-28329061D01*
X102959226Y-28129102D01*
X102881205Y-27940744D01*
X102767937Y-27771226D01*
X102623774Y-27627063D01*
X102454256Y-27513795D01*
X102265898Y-27435774D01*
X102065939Y-27396000D01*
X101862061Y-27396000D01*
X101662102Y-27435774D01*
X101473744Y-27513795D01*
X101304226Y-27627063D01*
X101260289Y-27671000D01*
X87292802Y-27671000D01*
X86651802Y-27030000D01*
X94059546Y-27030000D01*
X94107744Y-27062205D01*
X94296102Y-27140226D01*
X94496061Y-27180000D01*
X94699939Y-27180000D01*
X94899898Y-27140226D01*
X95088256Y-27062205D01*
X95136454Y-27030000D01*
X106370001Y-27030000D01*
X106370000Y-28211531D01*
X106365719Y-28255000D01*
X106370000Y-28298469D01*
X106370000Y-28298476D01*
X106377835Y-28378023D01*
X106382805Y-28428490D01*
X106393213Y-28462800D01*
X106433411Y-28595312D01*
X106515589Y-28749058D01*
X106626183Y-28883817D01*
X106659956Y-28911534D01*
X107293465Y-29545044D01*
X107304774Y-29601898D01*
X107382795Y-29790256D01*
X107496063Y-29959774D01*
X107640226Y-30103937D01*
X107809744Y-30217205D01*
X107998102Y-30295226D01*
X108198061Y-30335000D01*
X108401939Y-30335000D01*
X108601898Y-30295226D01*
X108790256Y-30217205D01*
X108959774Y-30103937D01*
X109043941Y-30019770D01*
X109582931Y-30019770D01*
X109626400Y-30024051D01*
X109669869Y-30019770D01*
X109669877Y-30019770D01*
X109799890Y-30006965D01*
X109966713Y-29956359D01*
X110120459Y-29874181D01*
X110255217Y-29763587D01*
X110282934Y-29729814D01*
X111217602Y-28795146D01*
X111217601Y-30982691D01*
X111196076Y-30965026D01*
X111064047Y-30894454D01*
X110920786Y-30850997D01*
X110809133Y-30840000D01*
X110809122Y-30840000D01*
X110771800Y-30836324D01*
X110734478Y-30840000D01*
X97284000Y-30840000D01*
X97284000Y-30742061D01*
X97244226Y-30542102D01*
X97166205Y-30353744D01*
X97052937Y-30184226D01*
X96908774Y-30040063D01*
X96739256Y-29926795D01*
X96550898Y-29848774D01*
X96350939Y-29809000D01*
X96147061Y-29809000D01*
X95947102Y-29848774D01*
X95758744Y-29926795D01*
X95589226Y-30040063D01*
X95545289Y-30084000D01*
X83522392Y-30084000D01*
X81322393Y-27884001D01*
X81516677Y-27884001D01*
X81553999Y-27887677D01*
X81591321Y-27884001D01*
X81591332Y-27884001D01*
X81702985Y-27873004D01*
X81846246Y-27829547D01*
X81978275Y-27758975D01*
X82094000Y-27664002D01*
X82117802Y-27634999D01*
X82318801Y-27434000D01*
X82380939Y-27434000D01*
X82580898Y-27394226D01*
X82769256Y-27316205D01*
X82938774Y-27202937D01*
X83082937Y-27058774D01*
X83196205Y-26889256D01*
X83274226Y-26700898D01*
X83314000Y-26500939D01*
X83314000Y-26297061D01*
X83274226Y-26097102D01*
X83196205Y-25908744D01*
X83082937Y-25739226D01*
X82938774Y-25595063D01*
X82769256Y-25481795D01*
X82580898Y-25403774D01*
X82380939Y-25364000D01*
X82177061Y-25364000D01*
X81977102Y-25403774D01*
X81788744Y-25481795D01*
X81644000Y-25578510D01*
X81499256Y-25481795D01*
X81310898Y-25403774D01*
X81110939Y-25364000D01*
X81048802Y-25364000D01*
X80430801Y-24746000D01*
X82218199Y-24746000D01*
X86414201Y-28942003D01*
G36*
X47843000Y-24087939D02*
G01*
X47882774Y-24287898D01*
X47960795Y-24476256D01*
X48074063Y-24645774D01*
X48218226Y-24789937D01*
X48387744Y-24903205D01*
X48576102Y-24981226D01*
X48776061Y-25021000D01*
X48979939Y-25021000D01*
X49179898Y-24981226D01*
X49368256Y-24903205D01*
X49537774Y-24789937D01*
X49581711Y-24746000D01*
X54979198Y-24746000D01*
X51158050Y-28567149D01*
X46891928Y-28562536D01*
X46924698Y-28513492D01*
X46983664Y-28403175D01*
X47021173Y-28312619D01*
X47057482Y-28192923D01*
X47076604Y-28096790D01*
X47088864Y-27972309D01*
X47088864Y-27947750D01*
X47091272Y-27923300D01*
X47091272Y-27423300D01*
X47088864Y-27398850D01*
X47088864Y-27374291D01*
X47076604Y-27249810D01*
X47057482Y-27153677D01*
X47021173Y-27033981D01*
X46983664Y-26943425D01*
X46924698Y-26833108D01*
X46870242Y-26751609D01*
X46790890Y-26654918D01*
X46721582Y-26585610D01*
X46713200Y-26578731D01*
X46713200Y-24020999D01*
X47843000Y-24020999D01*
X47843000Y-24087939D01*
G37*
X47843000Y-24087939D02*
X47882774Y-24287898D01*
X47960795Y-24476256D01*
X48074063Y-24645774D01*
X48218226Y-24789937D01*
X48387744Y-24903205D01*
X48576102Y-24981226D01*
X48776061Y-25021000D01*
X48979939Y-25021000D01*
X49179898Y-24981226D01*
X49368256Y-24903205D01*
X49537774Y-24789937D01*
X49581711Y-24746000D01*
X54979198Y-24746000D01*
X51158050Y-28567149D01*
X46891928Y-28562536D01*
X46924698Y-28513492D01*
X46983664Y-28403175D01*
X47021173Y-28312619D01*
X47057482Y-28192923D01*
X47076604Y-28096790D01*
X47088864Y-27972309D01*
X47088864Y-27947750D01*
X47091272Y-27923300D01*
X47091272Y-27423300D01*
X47088864Y-27398850D01*
X47088864Y-27374291D01*
X47076604Y-27249810D01*
X47057482Y-27153677D01*
X47021173Y-27033981D01*
X46983664Y-26943425D01*
X46924698Y-26833108D01*
X46870242Y-26751609D01*
X46790890Y-26654918D01*
X46721582Y-26585610D01*
X46713200Y-26578731D01*
X46713200Y-24020999D01*
X47843000Y-24020999D01*
X47843000Y-24087939D01*
G36*
X42675774Y-24192102D02*
G01*
X42636000Y-24392061D01*
X42636000Y-24595939D01*
X42675774Y-24795898D01*
X42753795Y-24984256D01*
X42867063Y-25153774D01*
X43011226Y-25297937D01*
X43180744Y-25411205D01*
X43369102Y-25489226D01*
X43569061Y-25529000D01*
X43631198Y-25529000D01*
X43893201Y-25791003D01*
X43893201Y-26285228D01*
X43353200Y-26285228D01*
X43328750Y-26287636D01*
X43304191Y-26287636D01*
X43179710Y-26299896D01*
X43083577Y-26319018D01*
X42963881Y-26355327D01*
X42873325Y-26392836D01*
X42763008Y-26451802D01*
X42681509Y-26506258D01*
X42584818Y-26585610D01*
X42515510Y-26654918D01*
X42436158Y-26751609D01*
X42381702Y-26833108D01*
X42338838Y-26913300D01*
X37931279Y-26913300D01*
X38612532Y-26232047D01*
X38612536Y-26232042D01*
X40823580Y-24020999D01*
X42746648Y-24020999D01*
X42675774Y-24192102D01*
G37*
X42675774Y-24192102D02*
X42636000Y-24392061D01*
X42636000Y-24595939D01*
X42675774Y-24795898D01*
X42753795Y-24984256D01*
X42867063Y-25153774D01*
X43011226Y-25297937D01*
X43180744Y-25411205D01*
X43369102Y-25489226D01*
X43569061Y-25529000D01*
X43631198Y-25529000D01*
X43893201Y-25791003D01*
X43893201Y-26285228D01*
X43353200Y-26285228D01*
X43328750Y-26287636D01*
X43304191Y-26287636D01*
X43179710Y-26299896D01*
X43083577Y-26319018D01*
X42963881Y-26355327D01*
X42873325Y-26392836D01*
X42763008Y-26451802D01*
X42681509Y-26506258D01*
X42584818Y-26585610D01*
X42515510Y-26654918D01*
X42436158Y-26751609D01*
X42381702Y-26833108D01*
X42338838Y-26913300D01*
X37931279Y-26913300D01*
X38612532Y-26232047D01*
X38612536Y-26232042D01*
X40823580Y-24020999D01*
X42746648Y-24020999D01*
X42675774Y-24192102D01*
M02*
