%TF.GenerationSoftware,KiCad,Pcbnew,5.1.10*%
%TF.CreationDate,2021-08-29T14:42:02+02:00*%
%TF.ProjectId,epaper-breakout,65706170-6572-42d6-9272-65616b6f7574,rev?*%
%TF.SameCoordinates,Original*%
%TF.FileFunction,Other,Fab,Top*%
%FSLAX46Y46*%
G04 Gerber Fmt 4.6, Leading zero omitted, Abs format (unit mm)*
G04 Created by KiCad (PCBNEW 5.1.10) date 2021-08-29 14:42:02*
%MOMM*%
%LPD*%
G01*
G04 APERTURE LIST*
%ADD10C,0.100000*%
%ADD11C,0.152400*%
%ADD12C,0.200000*%
%ADD13C,0.127000*%
%ADD14C,0.150000*%
%ADD15C,0.060000*%
%ADD16C,0.080000*%
G04 APERTURE END LIST*
D10*
X47700000Y-32412500D02*
X47700000Y-31587500D01*
X47700000Y-31587500D02*
X49300000Y-31587500D01*
X49300000Y-31587500D02*
X49300000Y-32412500D01*
X49300000Y-32412500D02*
X47700000Y-32412500D01*
X36500000Y-43750000D02*
X36500000Y-43250000D01*
X36900000Y-43750000D02*
X36500000Y-44350000D01*
X36100000Y-43750000D02*
X36900000Y-43750000D01*
X36500000Y-44350000D02*
X36100000Y-43750000D01*
X36500000Y-44350000D02*
X37050000Y-44350000D01*
X36500000Y-44350000D02*
X35950000Y-44350000D01*
X36500000Y-44750000D02*
X36500000Y-44350000D01*
X37400000Y-45400000D02*
X35600000Y-45400000D01*
X37400000Y-42600000D02*
X37400000Y-45400000D01*
X35600000Y-42600000D02*
X37400000Y-42600000D01*
X35600000Y-45400000D02*
X35600000Y-42600000D01*
D11*
X118588300Y-46362399D02*
X117318300Y-45727399D01*
X118588300Y-45092399D02*
X117318300Y-45727399D01*
X118588300Y-27732500D02*
X118588300Y-47722300D01*
X118588300Y-47722300D02*
X123490500Y-47722300D01*
X123490500Y-47722300D02*
X123490500Y-27732500D01*
X123490500Y-27732500D02*
X118588300Y-27732500D01*
D12*
X78450000Y-62900000D02*
G75*
G03*
X78450000Y-62900000I-100000J0D01*
G01*
D13*
X77500000Y-62500000D02*
X77500000Y-59250000D01*
X90700000Y-62500000D02*
X77500000Y-62500000D01*
X90700000Y-59250000D02*
X90700000Y-62500000D01*
X77500000Y-59250000D02*
X90700000Y-59250000D01*
D10*
X38135000Y-60730000D02*
X38770000Y-61365000D01*
X33690000Y-60730000D02*
X38135000Y-60730000D01*
X33690000Y-63270000D02*
X33690000Y-60730000D01*
X38770000Y-63270000D02*
X33690000Y-63270000D01*
X38770000Y-61365000D02*
X38770000Y-63270000D01*
X64975000Y-23000000D02*
X64975000Y-21000000D01*
X66225000Y-23000000D02*
X64975000Y-23000000D01*
X66225000Y-21000000D02*
X66225000Y-23000000D01*
X64975000Y-21000000D02*
X66225000Y-21000000D01*
X72660000Y-48123000D02*
X72660000Y-46873000D01*
X72660000Y-46873000D02*
X74660000Y-46873000D01*
X74660000Y-46873000D02*
X74660000Y-48123000D01*
X74660000Y-48123000D02*
X72660000Y-48123000D01*
X79750000Y-41225000D02*
X77750000Y-41225000D01*
X79750000Y-39975000D02*
X79750000Y-41225000D01*
X77750000Y-39975000D02*
X79750000Y-39975000D01*
X77750000Y-41225000D02*
X77750000Y-39975000D01*
X77750000Y-46175000D02*
X79750000Y-46175000D01*
X77750000Y-47425000D02*
X77750000Y-46175000D01*
X79750000Y-47425000D02*
X77750000Y-47425000D01*
X79750000Y-46175000D02*
X79750000Y-47425000D01*
X74660000Y-44599700D02*
X74660000Y-45849700D01*
X74660000Y-45849700D02*
X72660000Y-45849700D01*
X72660000Y-45849700D02*
X72660000Y-44599700D01*
X72660000Y-44599700D02*
X74660000Y-44599700D01*
X70495000Y-36846000D02*
X71745000Y-36846000D01*
X71745000Y-36846000D02*
X71745000Y-38846000D01*
X71745000Y-38846000D02*
X70495000Y-38846000D01*
X70495000Y-38846000D02*
X70495000Y-36846000D01*
X69459000Y-38846000D02*
X68209000Y-38846000D01*
X68209000Y-38846000D02*
X68209000Y-36846000D01*
X68209000Y-36846000D02*
X69459000Y-36846000D01*
X69459000Y-36846000D02*
X69459000Y-38846000D01*
X74660000Y-49159000D02*
X74660000Y-50409000D01*
X74660000Y-50409000D02*
X72660000Y-50409000D01*
X72660000Y-50409000D02*
X72660000Y-49159000D01*
X72660000Y-49159000D02*
X74660000Y-49159000D01*
X72660000Y-41265000D02*
X72660000Y-40015000D01*
X72660000Y-40015000D02*
X74660000Y-40015000D01*
X74660000Y-40015000D02*
X74660000Y-41265000D01*
X74660000Y-41265000D02*
X72660000Y-41265000D01*
X74660000Y-51445000D02*
X74660000Y-52695000D01*
X74660000Y-52695000D02*
X72660000Y-52695000D01*
X72660000Y-52695000D02*
X72660000Y-51445000D01*
X72660000Y-51445000D02*
X74660000Y-51445000D01*
X62347000Y-39862000D02*
X61097000Y-39862000D01*
X61097000Y-39862000D02*
X61097000Y-37862000D01*
X61097000Y-37862000D02*
X62347000Y-37862000D01*
X62347000Y-37862000D02*
X62347000Y-39862000D01*
X120805000Y-50593000D02*
X120805000Y-49343000D01*
X120805000Y-49343000D02*
X122805000Y-49343000D01*
X122805000Y-49343000D02*
X122805000Y-50593000D01*
X122805000Y-50593000D02*
X120805000Y-50593000D01*
X67173000Y-38846000D02*
X65923000Y-38846000D01*
X65923000Y-38846000D02*
X65923000Y-36846000D01*
X65923000Y-36846000D02*
X67173000Y-36846000D01*
X67173000Y-36846000D02*
X67173000Y-38846000D01*
X57267000Y-55356000D02*
X56017000Y-55356000D01*
X56017000Y-55356000D02*
X56017000Y-53356000D01*
X56017000Y-53356000D02*
X57267000Y-53356000D01*
X57267000Y-53356000D02*
X57267000Y-55356000D01*
X67554000Y-55356000D02*
X66304000Y-55356000D01*
X66304000Y-55356000D02*
X66304000Y-53356000D01*
X66304000Y-53356000D02*
X67554000Y-53356000D01*
X67554000Y-53356000D02*
X67554000Y-55356000D01*
X69713000Y-55356000D02*
X68463000Y-55356000D01*
X68463000Y-55356000D02*
X68463000Y-53356000D01*
X68463000Y-53356000D02*
X69713000Y-53356000D01*
X69713000Y-53356000D02*
X69713000Y-55356000D01*
X64887000Y-60309000D02*
X63637000Y-60309000D01*
X63637000Y-60309000D02*
X63637000Y-58309000D01*
X63637000Y-58309000D02*
X64887000Y-58309000D01*
X64887000Y-58309000D02*
X64887000Y-60309000D01*
X32600000Y-24425000D02*
X32600000Y-24215000D01*
X33000000Y-24425000D02*
X33000000Y-24215000D01*
X33000000Y-24425000D02*
X32600000Y-24425000D01*
X32600000Y-24215600D02*
X32800000Y-24015600D01*
X32800000Y-24015600D02*
X33000000Y-24215600D01*
X35250000Y-18915000D02*
X35250000Y-23915000D01*
X35250000Y-23915000D02*
X27750000Y-23915000D01*
X35250000Y-18915000D02*
X27750000Y-18913896D01*
X34500000Y-19615000D02*
X28500000Y-19613896D01*
X27750000Y-18915000D02*
X27750000Y-23915000D01*
D11*
X45574995Y-38650016D02*
X45574995Y-38918824D01*
X44274997Y-38450016D02*
X44574997Y-38450016D01*
X43624986Y-33022163D02*
X43624986Y-33393689D01*
X45225008Y-33022163D02*
X45225008Y-33393689D01*
X45225008Y-38450016D02*
X45574995Y-38450016D01*
X44274997Y-33464606D02*
X44274997Y-33581166D01*
X44925009Y-33581166D02*
X44925009Y-33850000D01*
X44274997Y-33581166D02*
X44274997Y-33850000D01*
X44574997Y-33393689D02*
X44574997Y-33464606D01*
X45574995Y-39106301D02*
X45574995Y-39477827D01*
X44574997Y-38918824D02*
X44574997Y-39035410D01*
X44274997Y-38650016D02*
X44274997Y-38918824D01*
X46250000Y-34049999D02*
X46159652Y-34140347D01*
X43924985Y-38918824D02*
X43924985Y-39035410D01*
X45874994Y-33850000D02*
X45874994Y-34049999D01*
X43624986Y-38450016D02*
X43924985Y-38450016D01*
X45225008Y-34049999D02*
X45574995Y-34049999D01*
X44925009Y-33022163D02*
X44925009Y-33393689D01*
X43340328Y-38359668D02*
X46159652Y-38359668D01*
X44574997Y-33464606D02*
X44574997Y-33581166D01*
X45874994Y-38450016D02*
X45874994Y-38650016D01*
X45874994Y-38450016D02*
X46250000Y-38450016D01*
X45574995Y-33464606D02*
X45574995Y-33581166D01*
X44274997Y-33850000D02*
X44274997Y-34049999D01*
X44274997Y-33022163D02*
X44274997Y-33393689D01*
X43624986Y-38918824D02*
X43624986Y-39035410D01*
X45225008Y-39106301D02*
X45225008Y-39477827D01*
X43924985Y-39106301D02*
X43924985Y-39477827D01*
X45874994Y-33464606D02*
X45874994Y-33581166D01*
X43924985Y-33850000D02*
X43924985Y-34049999D01*
X43340328Y-34140347D02*
X46159652Y-34140347D01*
X44925009Y-38650016D02*
X44925009Y-38918824D01*
X44925009Y-34049999D02*
X45225008Y-34049999D01*
X45225008Y-38918824D02*
X45225008Y-39035410D01*
X44925009Y-38450016D02*
X44925009Y-38650016D01*
X46159652Y-34140347D02*
X46159652Y-38359668D01*
X45225008Y-38650016D02*
X45225008Y-38918824D01*
X43924985Y-38650016D02*
X43924985Y-38918824D01*
X45874994Y-34049999D02*
X46250000Y-34049999D01*
X43340328Y-38359668D02*
X43250006Y-38450016D01*
X43624986Y-33022163D02*
X43924985Y-33022163D01*
X45574995Y-38450016D02*
X45574995Y-38650016D01*
X45574995Y-33022163D02*
X45874994Y-33022163D01*
X45225008Y-33393689D02*
X45225008Y-33464606D01*
X43924985Y-33393689D02*
X43924985Y-33464606D01*
X44274997Y-39106301D02*
X44274997Y-39477827D01*
X45874994Y-33022163D02*
X45874994Y-33393689D01*
X44574997Y-33022163D02*
X44574997Y-33393689D01*
X45225008Y-33581166D02*
X45225008Y-33850000D01*
X43924985Y-33581166D02*
X43924985Y-33850000D01*
X45574995Y-33850000D02*
X45574995Y-34049999D01*
X43250006Y-34049999D02*
X43340328Y-34140347D01*
X45574995Y-34049999D02*
X45874994Y-34049999D01*
X43340328Y-34140347D02*
X43340328Y-38359668D01*
X44574997Y-38450016D02*
X44574997Y-38650016D01*
X43250006Y-38450016D02*
X43624986Y-38450016D01*
X45874994Y-38918824D02*
X45874994Y-39035410D01*
X45225008Y-38450016D02*
X45225008Y-38650016D01*
X44925009Y-33464606D02*
X44925009Y-33581166D01*
X43924985Y-33022163D02*
X43924985Y-33393689D01*
X44574997Y-33850000D02*
X44574997Y-34049999D01*
X43624986Y-39035410D02*
X43624986Y-39106301D01*
X43624986Y-39477827D02*
X43924985Y-39477827D01*
X43624986Y-38650016D02*
X43624986Y-38918824D01*
X44574997Y-34049999D02*
X44925009Y-34049999D01*
X43624986Y-38450016D02*
X43624986Y-38650016D01*
X44574997Y-38650016D02*
X44574997Y-38918824D01*
X43250006Y-34049999D02*
X43250006Y-38450016D01*
X45874994Y-39035410D02*
X45874994Y-39106301D01*
X44574997Y-38450016D02*
X44925009Y-38450016D01*
X44925009Y-33022163D02*
X45225008Y-33022163D01*
X46159652Y-38359668D02*
X46250000Y-38450016D01*
X44274997Y-39477827D02*
X44574997Y-39477827D01*
X43624986Y-33581166D02*
X43624986Y-33850000D01*
X44925009Y-39035410D02*
X44925009Y-39106301D01*
X44925009Y-33850000D02*
X44925009Y-34049999D01*
X43624986Y-34049999D02*
X43924985Y-34049999D01*
X44274997Y-33022163D02*
X44574997Y-33022163D01*
X45574995Y-39477827D02*
X45874994Y-39477827D01*
X45574995Y-39035410D02*
X45574995Y-39106301D01*
X43250006Y-34049999D02*
X43624986Y-34049999D01*
X44925009Y-38450016D02*
X45225008Y-38450016D01*
X44925009Y-33393689D02*
X44925009Y-33464606D01*
X45574995Y-38450016D02*
X45874994Y-38450016D01*
X44574997Y-33581166D02*
X44574997Y-33850000D01*
X43624986Y-39106301D02*
X43624986Y-39477827D01*
X44925009Y-39106301D02*
X44925009Y-39477827D01*
X43924985Y-33464606D02*
X43924985Y-33581166D01*
X44274997Y-39035410D02*
X44274997Y-39106301D01*
X45574995Y-33581166D02*
X45574995Y-33850000D01*
X44274997Y-34049999D02*
X44574997Y-34049999D01*
X44925009Y-38918824D02*
X44925009Y-39035410D01*
X45225008Y-33850000D02*
X45225008Y-34049999D01*
X43924985Y-39035410D02*
X43924985Y-39106301D01*
X45874994Y-33581166D02*
X45874994Y-33850000D01*
X43924985Y-34049999D02*
X44274997Y-34049999D01*
X45874994Y-39106301D02*
X45874994Y-39477827D01*
X44274997Y-38450016D02*
X44274997Y-38650016D01*
X46250000Y-34049999D02*
X46250000Y-38450016D01*
X43624986Y-33393689D02*
X43624986Y-33464606D01*
X43924985Y-38450016D02*
X43924985Y-38650016D01*
X45874994Y-38650016D02*
X45874994Y-38918824D01*
X45574995Y-33022163D02*
X45574995Y-33393689D01*
X43924985Y-38450016D02*
X44274997Y-38450016D01*
X43624986Y-33464606D02*
X43624986Y-33581166D01*
X45574995Y-33393689D02*
X45574995Y-33464606D01*
X44274997Y-33393689D02*
X44274997Y-33464606D01*
X44574997Y-39106301D02*
X44574997Y-39477827D01*
X45225008Y-33464606D02*
X45225008Y-33581166D01*
X43624986Y-33850000D02*
X43624986Y-34049999D01*
X44925009Y-39477827D02*
X45225008Y-39477827D01*
X44574997Y-39035410D02*
X44574997Y-39106301D01*
X45874994Y-33393689D02*
X45874994Y-33464606D01*
X44274997Y-38918824D02*
X44274997Y-39035410D01*
X45225008Y-39035410D02*
X45225008Y-39106301D01*
X45574995Y-38918824D02*
X45574995Y-39035410D01*
X45396127Y-34640346D02*
G75*
G03*
X45923203Y-34640346I263538J0D01*
G01*
D10*
X42400000Y-31187500D02*
X42400000Y-32012500D01*
X42400000Y-32012500D02*
X40800000Y-32012500D01*
X40800000Y-32012500D02*
X40800000Y-31187500D01*
X40800000Y-31187500D02*
X42400000Y-31187500D01*
X40000000Y-42225000D02*
X40000000Y-40975000D01*
X40000000Y-40975000D02*
X42000000Y-40975000D01*
X42000000Y-40975000D02*
X42000000Y-42225000D01*
X42000000Y-42225000D02*
X40000000Y-42225000D01*
X49875000Y-37000000D02*
X48625000Y-37000000D01*
X48625000Y-37000000D02*
X48625000Y-35000000D01*
X48625000Y-35000000D02*
X49875000Y-35000000D01*
X49875000Y-35000000D02*
X49875000Y-37000000D01*
D11*
X68099000Y-48033000D02*
X66829000Y-49303000D01*
X62954000Y-49303000D02*
X62694000Y-49303000D01*
X62694000Y-49303000D02*
X62694000Y-49303000D01*
X62694000Y-49303000D02*
X62954000Y-49303000D01*
X62954000Y-49303000D02*
X62954000Y-49303000D01*
X63354000Y-49303000D02*
X63094000Y-49303000D01*
X63094000Y-49303000D02*
X63094000Y-49303000D01*
X63094000Y-49303000D02*
X63354000Y-49303000D01*
X63354000Y-49303000D02*
X63354000Y-49303000D01*
X63754000Y-49303000D02*
X63494000Y-49303000D01*
X63494000Y-49303000D02*
X63494000Y-49303000D01*
X63494000Y-49303000D02*
X63754000Y-49303000D01*
X63754000Y-49303000D02*
X63754000Y-49303000D01*
X64154000Y-49303000D02*
X63894000Y-49303000D01*
X63894000Y-49303000D02*
X63894000Y-49303000D01*
X63894000Y-49303000D02*
X64154000Y-49303000D01*
X64154000Y-49303000D02*
X64154000Y-49303000D01*
X64554000Y-49303000D02*
X64294000Y-49303000D01*
X64294000Y-49303000D02*
X64294000Y-49303000D01*
X64294000Y-49303000D02*
X64554000Y-49303000D01*
X64554000Y-49303000D02*
X64554000Y-49303000D01*
X64954000Y-49303000D02*
X64694000Y-49303000D01*
X64694000Y-49303000D02*
X64694000Y-49303000D01*
X64694000Y-49303000D02*
X64954000Y-49303000D01*
X64954000Y-49303000D02*
X64954000Y-49303000D01*
X65354000Y-49303000D02*
X65094000Y-49303000D01*
X65094000Y-49303000D02*
X65094000Y-49303000D01*
X65094000Y-49303000D02*
X65354000Y-49303000D01*
X65354000Y-49303000D02*
X65354000Y-49303000D01*
X65754000Y-49303000D02*
X65494000Y-49303000D01*
X65494000Y-49303000D02*
X65494000Y-49303000D01*
X65494000Y-49303000D02*
X65754000Y-49303000D01*
X65754000Y-49303000D02*
X65754000Y-49303000D01*
X66154000Y-49303000D02*
X65894000Y-49303000D01*
X65894000Y-49303000D02*
X65894000Y-49303000D01*
X65894000Y-49303000D02*
X66154000Y-49303000D01*
X66154000Y-49303000D02*
X66154000Y-49303000D01*
X66554000Y-49303000D02*
X66294000Y-49303000D01*
X66294000Y-49303000D02*
X66294000Y-49303000D01*
X66294000Y-49303000D02*
X66554000Y-49303000D01*
X66554000Y-49303000D02*
X66554000Y-49303000D01*
X66954000Y-49303000D02*
X66694000Y-49303000D01*
X66694000Y-49303000D02*
X66694000Y-49303000D01*
X66694000Y-49303000D02*
X66954000Y-49303000D01*
X66954000Y-49303000D02*
X66954000Y-49303000D01*
X67354000Y-49303000D02*
X67094000Y-49303000D01*
X67094000Y-49303000D02*
X67094000Y-49303000D01*
X67094000Y-49303000D02*
X67354000Y-49303000D01*
X67354000Y-49303000D02*
X67354000Y-49303000D01*
X68099000Y-48298000D02*
X68099000Y-48558000D01*
X68099000Y-48558000D02*
X68099000Y-48558000D01*
X68099000Y-48558000D02*
X68099000Y-48298000D01*
X68099000Y-48298000D02*
X68099000Y-48298000D01*
X68099000Y-47898000D02*
X68099000Y-48158000D01*
X68099000Y-48158000D02*
X68099000Y-48158000D01*
X68099000Y-48158000D02*
X68099000Y-47898000D01*
X68099000Y-47898000D02*
X68099000Y-47898000D01*
X68099000Y-47498000D02*
X68099000Y-47758000D01*
X68099000Y-47758000D02*
X68099000Y-47758000D01*
X68099000Y-47758000D02*
X68099000Y-47498000D01*
X68099000Y-47498000D02*
X68099000Y-47498000D01*
X68099000Y-47098000D02*
X68099000Y-47358000D01*
X68099000Y-47358000D02*
X68099000Y-47358000D01*
X68099000Y-47358000D02*
X68099000Y-47098000D01*
X68099000Y-47098000D02*
X68099000Y-47098000D01*
X68099000Y-46698000D02*
X68099000Y-46958000D01*
X68099000Y-46958000D02*
X68099000Y-46958000D01*
X68099000Y-46958000D02*
X68099000Y-46698000D01*
X68099000Y-46698000D02*
X68099000Y-46698000D01*
X68099000Y-46298000D02*
X68099000Y-46558000D01*
X68099000Y-46558000D02*
X68099000Y-46558000D01*
X68099000Y-46558000D02*
X68099000Y-46298000D01*
X68099000Y-46298000D02*
X68099000Y-46298000D01*
X68099000Y-45898000D02*
X68099000Y-46158000D01*
X68099000Y-46158000D02*
X68099000Y-46158000D01*
X68099000Y-46158000D02*
X68099000Y-45898000D01*
X68099000Y-45898000D02*
X68099000Y-45898000D01*
X68099000Y-45498000D02*
X68099000Y-45758000D01*
X68099000Y-45758000D02*
X68099000Y-45758000D01*
X68099000Y-45758000D02*
X68099000Y-45498000D01*
X68099000Y-45498000D02*
X68099000Y-45498000D01*
X68099000Y-45098000D02*
X68099000Y-45358000D01*
X68099000Y-45358000D02*
X68099000Y-45358000D01*
X68099000Y-45358000D02*
X68099000Y-45098000D01*
X68099000Y-45098000D02*
X68099000Y-45098000D01*
X68099000Y-44698000D02*
X68099000Y-44958000D01*
X68099000Y-44958000D02*
X68099000Y-44958000D01*
X68099000Y-44958000D02*
X68099000Y-44698000D01*
X68099000Y-44698000D02*
X68099000Y-44698000D01*
X68099000Y-44298000D02*
X68099000Y-44558000D01*
X68099000Y-44558000D02*
X68099000Y-44558000D01*
X68099000Y-44558000D02*
X68099000Y-44298000D01*
X68099000Y-44298000D02*
X68099000Y-44298000D01*
X68099000Y-43898000D02*
X68099000Y-44158000D01*
X68099000Y-44158000D02*
X68099000Y-44158000D01*
X68099000Y-44158000D02*
X68099000Y-43898000D01*
X68099000Y-43898000D02*
X68099000Y-43898000D01*
X67094000Y-43153000D02*
X67354000Y-43153000D01*
X67354000Y-43153000D02*
X67354000Y-43153000D01*
X67354000Y-43153000D02*
X67094000Y-43153000D01*
X67094000Y-43153000D02*
X67094000Y-43153000D01*
X66694000Y-43153000D02*
X66954000Y-43153000D01*
X66954000Y-43153000D02*
X66954000Y-43153000D01*
X66954000Y-43153000D02*
X66694000Y-43153000D01*
X66694000Y-43153000D02*
X66694000Y-43153000D01*
X66294000Y-43153000D02*
X66554000Y-43153000D01*
X66554000Y-43153000D02*
X66554000Y-43153000D01*
X66554000Y-43153000D02*
X66294000Y-43153000D01*
X66294000Y-43153000D02*
X66294000Y-43153000D01*
X65894000Y-43153000D02*
X66154000Y-43153000D01*
X66154000Y-43153000D02*
X66154000Y-43153000D01*
X66154000Y-43153000D02*
X65894000Y-43153000D01*
X65894000Y-43153000D02*
X65894000Y-43153000D01*
X65494000Y-43153000D02*
X65754000Y-43153000D01*
X65754000Y-43153000D02*
X65754000Y-43153000D01*
X65754000Y-43153000D02*
X65494000Y-43153000D01*
X65494000Y-43153000D02*
X65494000Y-43153000D01*
X65094000Y-43153000D02*
X65354000Y-43153000D01*
X65354000Y-43153000D02*
X65354000Y-43153000D01*
X65354000Y-43153000D02*
X65094000Y-43153000D01*
X65094000Y-43153000D02*
X65094000Y-43153000D01*
X64694000Y-43153000D02*
X64954000Y-43153000D01*
X64954000Y-43153000D02*
X64954000Y-43153000D01*
X64954000Y-43153000D02*
X64694000Y-43153000D01*
X64694000Y-43153000D02*
X64694000Y-43153000D01*
X64294000Y-43153000D02*
X64554000Y-43153000D01*
X64554000Y-43153000D02*
X64554000Y-43153000D01*
X64554000Y-43153000D02*
X64294000Y-43153000D01*
X64294000Y-43153000D02*
X64294000Y-43153000D01*
X63894000Y-43153000D02*
X64154000Y-43153000D01*
X64154000Y-43153000D02*
X64154000Y-43153000D01*
X64154000Y-43153000D02*
X63894000Y-43153000D01*
X63894000Y-43153000D02*
X63894000Y-43153000D01*
X63494000Y-43153000D02*
X63754000Y-43153000D01*
X63754000Y-43153000D02*
X63754000Y-43153000D01*
X63754000Y-43153000D02*
X63494000Y-43153000D01*
X63494000Y-43153000D02*
X63494000Y-43153000D01*
X63094000Y-43153000D02*
X63354000Y-43153000D01*
X63354000Y-43153000D02*
X63354000Y-43153000D01*
X63354000Y-43153000D02*
X63094000Y-43153000D01*
X63094000Y-43153000D02*
X63094000Y-43153000D01*
X62694000Y-43153000D02*
X62954000Y-43153000D01*
X62954000Y-43153000D02*
X62954000Y-43153000D01*
X62954000Y-43153000D02*
X62694000Y-43153000D01*
X62694000Y-43153000D02*
X62694000Y-43153000D01*
X61949000Y-44158000D02*
X61949000Y-43898000D01*
X61949000Y-43898000D02*
X61949000Y-43898000D01*
X61949000Y-43898000D02*
X61949000Y-44158000D01*
X61949000Y-44158000D02*
X61949000Y-44158000D01*
X61949000Y-44558000D02*
X61949000Y-44298000D01*
X61949000Y-44298000D02*
X61949000Y-44298000D01*
X61949000Y-44298000D02*
X61949000Y-44558000D01*
X61949000Y-44558000D02*
X61949000Y-44558000D01*
X61949000Y-44958000D02*
X61949000Y-44698000D01*
X61949000Y-44698000D02*
X61949000Y-44698000D01*
X61949000Y-44698000D02*
X61949000Y-44958000D01*
X61949000Y-44958000D02*
X61949000Y-44958000D01*
X61949000Y-45358000D02*
X61949000Y-45098000D01*
X61949000Y-45098000D02*
X61949000Y-45098000D01*
X61949000Y-45098000D02*
X61949000Y-45358000D01*
X61949000Y-45358000D02*
X61949000Y-45358000D01*
X61949000Y-45758000D02*
X61949000Y-45498000D01*
X61949000Y-45498000D02*
X61949000Y-45498000D01*
X61949000Y-45498000D02*
X61949000Y-45758000D01*
X61949000Y-45758000D02*
X61949000Y-45758000D01*
X61949000Y-46158000D02*
X61949000Y-45898000D01*
X61949000Y-45898000D02*
X61949000Y-45898000D01*
X61949000Y-45898000D02*
X61949000Y-46158000D01*
X61949000Y-46158000D02*
X61949000Y-46158000D01*
X61949000Y-46558000D02*
X61949000Y-46298000D01*
X61949000Y-46298000D02*
X61949000Y-46298000D01*
X61949000Y-46298000D02*
X61949000Y-46558000D01*
X61949000Y-46558000D02*
X61949000Y-46558000D01*
X61949000Y-46958000D02*
X61949000Y-46698000D01*
X61949000Y-46698000D02*
X61949000Y-46698000D01*
X61949000Y-46698000D02*
X61949000Y-46958000D01*
X61949000Y-46958000D02*
X61949000Y-46958000D01*
X61949000Y-47358000D02*
X61949000Y-47098000D01*
X61949000Y-47098000D02*
X61949000Y-47098000D01*
X61949000Y-47098000D02*
X61949000Y-47358000D01*
X61949000Y-47358000D02*
X61949000Y-47358000D01*
X61949000Y-47758000D02*
X61949000Y-47498000D01*
X61949000Y-47498000D02*
X61949000Y-47498000D01*
X61949000Y-47498000D02*
X61949000Y-47758000D01*
X61949000Y-47758000D02*
X61949000Y-47758000D01*
X61949000Y-48158000D02*
X61949000Y-47898000D01*
X61949000Y-47898000D02*
X61949000Y-47898000D01*
X61949000Y-47898000D02*
X61949000Y-48158000D01*
X61949000Y-48158000D02*
X61949000Y-48158000D01*
X61949000Y-48558000D02*
X61949000Y-48298000D01*
X61949000Y-48298000D02*
X61949000Y-48298000D01*
X61949000Y-48298000D02*
X61949000Y-48558000D01*
X61949000Y-48558000D02*
X61949000Y-48558000D01*
X68099000Y-43153000D02*
X61949000Y-43153000D01*
X61949000Y-43153000D02*
X61949000Y-49303000D01*
X61949000Y-49303000D02*
X68099000Y-49303000D01*
X68099000Y-49303000D02*
X68099000Y-43153000D01*
D10*
X114550000Y-51003500D02*
X114550000Y-51828500D01*
X114550000Y-51828500D02*
X112950000Y-51828500D01*
X112950000Y-51828500D02*
X112950000Y-51003500D01*
X112950000Y-51003500D02*
X114550000Y-51003500D01*
X80010000Y-21590000D02*
X80010000Y-25400000D01*
X80010000Y-25400000D02*
X67310000Y-25400000D01*
X67310000Y-25400000D02*
X67310000Y-20320000D01*
X67310000Y-20320000D02*
X78740000Y-20320000D01*
X78740000Y-20320000D02*
X80010000Y-21590000D01*
X64389000Y-54741000D02*
X64389000Y-54241000D01*
X64789000Y-54741000D02*
X64389000Y-55341000D01*
X63989000Y-54741000D02*
X64789000Y-54741000D01*
X64389000Y-55341000D02*
X63989000Y-54741000D01*
X64389000Y-55341000D02*
X64939000Y-55341000D01*
X64389000Y-55341000D02*
X63839000Y-55341000D01*
X64389000Y-55741000D02*
X64389000Y-55341000D01*
X65289000Y-56391000D02*
X63489000Y-56391000D01*
X65289000Y-53591000D02*
X65289000Y-56391000D01*
X63489000Y-53591000D02*
X65289000Y-53591000D01*
X63489000Y-56391000D02*
X63489000Y-53591000D01*
X57388000Y-44841000D02*
X57388000Y-46091000D01*
X57388000Y-46091000D02*
X55388000Y-46091000D01*
X55388000Y-46091000D02*
X55388000Y-44841000D01*
X55388000Y-44841000D02*
X57388000Y-44841000D01*
X114550000Y-55083500D02*
X114550000Y-55908500D01*
X114550000Y-55908500D02*
X112950000Y-55908500D01*
X112950000Y-55908500D02*
X112950000Y-55083500D01*
X112950000Y-55083500D02*
X114550000Y-55083500D01*
X120688000Y-54652500D02*
X120688000Y-53827500D01*
X120688000Y-53827500D02*
X122288000Y-53827500D01*
X122288000Y-53827500D02*
X122288000Y-54652500D01*
X122288000Y-54652500D02*
X120688000Y-54652500D01*
X114550000Y-47087500D02*
X114550000Y-47912500D01*
X114550000Y-47912500D02*
X112950000Y-47912500D01*
X112950000Y-47912500D02*
X112950000Y-47087500D01*
X112950000Y-47087500D02*
X114550000Y-47087500D01*
X120751000Y-58716500D02*
X120751000Y-57891500D01*
X120751000Y-57891500D02*
X122351000Y-57891500D01*
X122351000Y-57891500D02*
X122351000Y-58716500D01*
X122351000Y-58716500D02*
X120751000Y-58716500D01*
X68025000Y-32412500D02*
X68025000Y-31587500D01*
X68025000Y-31587500D02*
X69625000Y-31587500D01*
X69625000Y-31587500D02*
X69625000Y-32412500D01*
X69625000Y-32412500D02*
X68025000Y-32412500D01*
X50330000Y-48355500D02*
X50330000Y-49180500D01*
X50330000Y-49180500D02*
X48730000Y-49180500D01*
X48730000Y-49180500D02*
X48730000Y-48355500D01*
X48730000Y-48355500D02*
X50330000Y-48355500D01*
X53632000Y-48355500D02*
X53632000Y-49180500D01*
X53632000Y-49180500D02*
X52032000Y-49180500D01*
X52032000Y-49180500D02*
X52032000Y-48355500D01*
X52032000Y-48355500D02*
X53632000Y-48355500D01*
X30050000Y-47808500D02*
X30050000Y-48633500D01*
X30050000Y-48633500D02*
X28450000Y-48633500D01*
X28450000Y-48633500D02*
X28450000Y-47808500D01*
X28450000Y-47808500D02*
X30050000Y-47808500D01*
X33324000Y-47808500D02*
X33324000Y-48633500D01*
X33324000Y-48633500D02*
X31724000Y-48633500D01*
X31724000Y-48633500D02*
X31724000Y-47808500D01*
X31724000Y-47808500D02*
X33324000Y-47808500D01*
X50330000Y-46069500D02*
X50330000Y-46894500D01*
X50330000Y-46894500D02*
X48730000Y-46894500D01*
X48730000Y-46894500D02*
X48730000Y-46069500D01*
X48730000Y-46069500D02*
X50330000Y-46069500D01*
X53632000Y-46069500D02*
X53632000Y-46894500D01*
X53632000Y-46894500D02*
X52032000Y-46894500D01*
X52032000Y-46894500D02*
X52032000Y-46069500D01*
X52032000Y-46069500D02*
X53632000Y-46069500D01*
X72493700Y-56646600D02*
X71668700Y-56646600D01*
X71668700Y-56646600D02*
X71668700Y-55046600D01*
X71668700Y-55046600D02*
X72493700Y-55046600D01*
X72493700Y-55046600D02*
X72493700Y-56646600D01*
X62800000Y-31587500D02*
X62800000Y-32412500D01*
X62800000Y-32412500D02*
X61200000Y-32412500D01*
X61200000Y-32412500D02*
X61200000Y-31587500D01*
X61200000Y-31587500D02*
X62800000Y-31587500D01*
X76450000Y-31662500D02*
X76450000Y-30837500D01*
X76450000Y-30837500D02*
X78050000Y-30837500D01*
X78050000Y-30837500D02*
X78050000Y-31662500D01*
X78050000Y-31662500D02*
X76450000Y-31662500D01*
X62800000Y-29787500D02*
X62800000Y-30612500D01*
X62800000Y-30612500D02*
X61200000Y-30612500D01*
X61200000Y-30612500D02*
X61200000Y-29787500D01*
X61200000Y-29787500D02*
X62800000Y-29787500D01*
X108547000Y-46259500D02*
X108547000Y-45434500D01*
X108547000Y-45434500D02*
X110147000Y-45434500D01*
X110147000Y-45434500D02*
X110147000Y-46259500D01*
X110147000Y-46259500D02*
X108547000Y-46259500D01*
X38300000Y-33587500D02*
X38300000Y-34412500D01*
X38300000Y-34412500D02*
X36700000Y-34412500D01*
X36700000Y-34412500D02*
X36700000Y-33587500D01*
X36700000Y-33587500D02*
X38300000Y-33587500D01*
X81400000Y-35612500D02*
X81400000Y-34787500D01*
X81400000Y-34787500D02*
X83000000Y-34787500D01*
X83000000Y-34787500D02*
X83000000Y-35612500D01*
X83000000Y-35612500D02*
X81400000Y-35612500D01*
X45412500Y-56300000D02*
X44587500Y-56300000D01*
X44587500Y-56300000D02*
X44587500Y-54700000D01*
X44587500Y-54700000D02*
X45412500Y-54700000D01*
X45412500Y-54700000D02*
X45412500Y-56300000D01*
X33550000Y-54645500D02*
X33550000Y-55470500D01*
X33550000Y-55470500D02*
X31950000Y-55470500D01*
X31950000Y-55470500D02*
X31950000Y-54645500D01*
X31950000Y-54645500D02*
X33550000Y-54645500D01*
X64600000Y-30612500D02*
X64600000Y-29787500D01*
X64600000Y-29787500D02*
X66200000Y-29787500D01*
X66200000Y-29787500D02*
X66200000Y-30612500D01*
X66200000Y-30612500D02*
X64600000Y-30612500D01*
X65587500Y-24450000D02*
X66412500Y-24450000D01*
X66412500Y-24450000D02*
X66412500Y-26050000D01*
X66412500Y-26050000D02*
X65587500Y-26050000D01*
X65587500Y-26050000D02*
X65587500Y-24450000D01*
X64600000Y-32412500D02*
X64600000Y-31587500D01*
X64600000Y-31587500D02*
X66200000Y-31587500D01*
X66200000Y-31587500D02*
X66200000Y-32412500D01*
X66200000Y-32412500D02*
X64600000Y-32412500D01*
X33550000Y-52337500D02*
X33550000Y-53162500D01*
X33550000Y-53162500D02*
X31950000Y-53162500D01*
X31950000Y-53162500D02*
X31950000Y-52337500D01*
X31950000Y-52337500D02*
X33550000Y-52337500D01*
X36700000Y-39912500D02*
X36700000Y-39087500D01*
X36700000Y-39087500D02*
X38300000Y-39087500D01*
X38300000Y-39087500D02*
X38300000Y-39912500D01*
X38300000Y-39912500D02*
X36700000Y-39912500D01*
X52857400Y-21640800D02*
X52857400Y-25450800D01*
X52857400Y-25450800D02*
X37617400Y-25450800D01*
X37617400Y-25450800D02*
X37617400Y-20370800D01*
X37617400Y-20370800D02*
X51587400Y-20370800D01*
X51587400Y-20370800D02*
X52857400Y-21640800D01*
X57800000Y-20700000D02*
X61200000Y-20700000D01*
X61200000Y-20700000D02*
X61200000Y-28500000D01*
X61200000Y-28500000D02*
X56800000Y-28500000D01*
X56800000Y-28500000D02*
X56800000Y-21700000D01*
X56800000Y-21700000D02*
X57800000Y-20700000D01*
X73700700Y-55046600D02*
X74525700Y-55046600D01*
X74525700Y-55046600D02*
X74525700Y-56646600D01*
X74525700Y-56646600D02*
X73700700Y-56646600D01*
X73700700Y-56646600D02*
X73700700Y-55046600D01*
X60706000Y-57753000D02*
X59456000Y-57753000D01*
X59456000Y-57753000D02*
X58706000Y-57003000D01*
X58706000Y-57003000D02*
X58706000Y-55753000D01*
X60706000Y-53753000D02*
X59456000Y-53753000D01*
X59456000Y-53753000D02*
X58706000Y-54503000D01*
X58706000Y-54503000D02*
X58706000Y-55753000D01*
X60706000Y-53753000D02*
X61956000Y-53753000D01*
X61956000Y-53753000D02*
X62706000Y-54503000D01*
X62706000Y-54503000D02*
X62706000Y-55753000D01*
X60706000Y-57753000D02*
X61956000Y-57753000D01*
X61956000Y-57753000D02*
X62706000Y-57003000D01*
X62706000Y-57003000D02*
X62706000Y-55753000D01*
X57658000Y-39534000D02*
X56008000Y-39534000D01*
X56008000Y-39534000D02*
X55208000Y-38734000D01*
X55208000Y-38734000D02*
X55208000Y-37084000D01*
X57658000Y-34634000D02*
X56008000Y-34634000D01*
X56008000Y-34634000D02*
X55208000Y-35434000D01*
X55208000Y-35434000D02*
X55208000Y-37084000D01*
X57658000Y-34634000D02*
X59308000Y-34634000D01*
X59308000Y-34634000D02*
X60108000Y-35434000D01*
X60108000Y-35434000D02*
X60108000Y-37084000D01*
X57658000Y-39534000D02*
X59308000Y-39534000D01*
X59308000Y-39534000D02*
X60108000Y-38734000D01*
X60108000Y-38734000D02*
X60108000Y-37084000D01*
X50800000Y-52574000D02*
X50800000Y-53074000D01*
X50400000Y-52574000D02*
X50800000Y-51974000D01*
X51200000Y-52574000D02*
X50400000Y-52574000D01*
X50800000Y-51974000D02*
X51200000Y-52574000D01*
X50800000Y-51974000D02*
X50250000Y-51974000D01*
X50800000Y-51974000D02*
X51350000Y-51974000D01*
X50800000Y-51574000D02*
X50800000Y-51974000D01*
X49900000Y-50924000D02*
X51700000Y-50924000D01*
X49900000Y-53724000D02*
X49900000Y-50924000D01*
X51700000Y-53724000D02*
X49900000Y-53724000D01*
X51700000Y-50924000D02*
X51700000Y-53724000D01*
X53340000Y-52074000D02*
X53340000Y-51574000D01*
X53740000Y-52074000D02*
X53340000Y-52674000D01*
X52940000Y-52074000D02*
X53740000Y-52074000D01*
X53340000Y-52674000D02*
X52940000Y-52074000D01*
X53340000Y-52674000D02*
X53890000Y-52674000D01*
X53340000Y-52674000D02*
X52790000Y-52674000D01*
X53340000Y-53074000D02*
X53340000Y-52674000D01*
X54240000Y-53724000D02*
X52440000Y-53724000D01*
X54240000Y-50924000D02*
X54240000Y-53724000D01*
X52440000Y-50924000D02*
X54240000Y-50924000D01*
X52440000Y-53724000D02*
X52440000Y-50924000D01*
X50800000Y-43430000D02*
X50800000Y-43930000D01*
X50400000Y-43430000D02*
X50800000Y-42830000D01*
X51200000Y-43430000D02*
X50400000Y-43430000D01*
X50800000Y-42830000D02*
X51200000Y-43430000D01*
X50800000Y-42830000D02*
X50250000Y-42830000D01*
X50800000Y-42830000D02*
X51350000Y-42830000D01*
X50800000Y-42430000D02*
X50800000Y-42830000D01*
X49900000Y-41780000D02*
X51700000Y-41780000D01*
X49900000Y-44580000D02*
X49900000Y-41780000D01*
X51700000Y-44580000D02*
X49900000Y-44580000D01*
X51700000Y-41780000D02*
X51700000Y-44580000D01*
X53340000Y-42930000D02*
X53340000Y-42430000D01*
X53740000Y-42930000D02*
X53340000Y-43530000D01*
X52940000Y-42930000D02*
X53740000Y-42930000D01*
X53340000Y-43530000D02*
X52940000Y-42930000D01*
X53340000Y-43530000D02*
X53890000Y-43530000D01*
X53340000Y-43530000D02*
X52790000Y-43530000D01*
X53340000Y-43930000D02*
X53340000Y-43530000D01*
X54240000Y-44580000D02*
X52440000Y-44580000D01*
X54240000Y-41780000D02*
X54240000Y-44580000D01*
X52440000Y-41780000D02*
X54240000Y-41780000D01*
X52440000Y-44580000D02*
X52440000Y-41780000D01*
X64262000Y-37588000D02*
X64262000Y-38088000D01*
X63862000Y-37588000D02*
X64262000Y-36988000D01*
X64662000Y-37588000D02*
X63862000Y-37588000D01*
X64262000Y-36988000D02*
X64662000Y-37588000D01*
X64262000Y-36988000D02*
X63712000Y-36988000D01*
X64262000Y-36988000D02*
X64812000Y-36988000D01*
X64262000Y-36588000D02*
X64262000Y-36988000D01*
X63362000Y-35938000D02*
X65162000Y-35938000D01*
X63362000Y-38738000D02*
X63362000Y-35938000D01*
X65162000Y-38738000D02*
X63362000Y-38738000D01*
X65162000Y-35938000D02*
X65162000Y-38738000D01*
X114978000Y-52839000D02*
X114978000Y-54089000D01*
X114978000Y-54089000D02*
X112978000Y-54089000D01*
X112978000Y-54089000D02*
X112978000Y-52839000D01*
X112978000Y-52839000D02*
X114978000Y-52839000D01*
X115000000Y-48759000D02*
X115000000Y-50009000D01*
X115000000Y-50009000D02*
X113000000Y-50009000D01*
X113000000Y-50009000D02*
X113000000Y-48759000D01*
X113000000Y-48759000D02*
X115000000Y-48759000D01*
X119951000Y-53008000D02*
X119951000Y-51408000D01*
X119951000Y-51408000D02*
X123151000Y-51408000D01*
X123151000Y-51408000D02*
X123151000Y-53008000D01*
X123151000Y-53008000D02*
X119951000Y-53008000D01*
X114928000Y-44945000D02*
X114928000Y-46195000D01*
X114928000Y-46195000D02*
X112928000Y-46195000D01*
X112928000Y-46195000D02*
X112928000Y-44945000D01*
X112928000Y-44945000D02*
X114928000Y-44945000D01*
X119951000Y-57072000D02*
X119951000Y-55472000D01*
X119951000Y-55472000D02*
X123151000Y-55472000D01*
X123151000Y-55472000D02*
X123151000Y-57072000D01*
X123151000Y-57072000D02*
X119951000Y-57072000D01*
X48498000Y-50175000D02*
X48498000Y-51425000D01*
X48498000Y-51425000D02*
X46498000Y-51425000D01*
X46498000Y-51425000D02*
X46498000Y-50175000D01*
X46498000Y-50175000D02*
X48498000Y-50175000D01*
X55388000Y-48885000D02*
X55388000Y-47635000D01*
X55388000Y-47635000D02*
X57388000Y-47635000D01*
X57388000Y-47635000D02*
X57388000Y-48885000D01*
X57388000Y-48885000D02*
X55388000Y-48885000D01*
X46498000Y-45075000D02*
X46498000Y-43825000D01*
X46498000Y-43825000D02*
X48498000Y-43825000D01*
X48498000Y-43825000D02*
X48498000Y-45075000D01*
X48498000Y-45075000D02*
X46498000Y-45075000D01*
X55388000Y-51298000D02*
X55388000Y-50048000D01*
X55388000Y-50048000D02*
X57388000Y-50048000D01*
X57388000Y-50048000D02*
X57388000Y-51298000D01*
X57388000Y-51298000D02*
X55388000Y-51298000D01*
X28200000Y-50825000D02*
X28200000Y-49575000D01*
X28200000Y-49575000D02*
X30200000Y-49575000D01*
X30200000Y-49575000D02*
X30200000Y-50825000D01*
X30200000Y-50825000D02*
X28200000Y-50825000D01*
X34000000Y-49575000D02*
X34000000Y-50825000D01*
X34000000Y-50825000D02*
X32000000Y-50825000D01*
X32000000Y-50825000D02*
X32000000Y-49575000D01*
X32000000Y-49575000D02*
X34000000Y-49575000D01*
X55388000Y-43678000D02*
X55388000Y-42428000D01*
X55388000Y-42428000D02*
X57388000Y-42428000D01*
X57388000Y-42428000D02*
X57388000Y-43678000D01*
X57388000Y-43678000D02*
X55388000Y-43678000D01*
X81000000Y-28025000D02*
X81000000Y-26775000D01*
X81000000Y-26775000D02*
X83000000Y-26775000D01*
X83000000Y-26775000D02*
X83000000Y-28025000D01*
X83000000Y-28025000D02*
X81000000Y-28025000D01*
X35000000Y-32125000D02*
X35000000Y-30875000D01*
X35000000Y-30875000D02*
X37000000Y-30875000D01*
X37000000Y-30875000D02*
X37000000Y-32125000D01*
X37000000Y-32125000D02*
X35000000Y-32125000D01*
X83000000Y-32575000D02*
X83000000Y-33825000D01*
X83000000Y-33825000D02*
X81000000Y-33825000D01*
X81000000Y-33825000D02*
X81000000Y-32575000D01*
X81000000Y-32575000D02*
X83000000Y-32575000D01*
X28425000Y-45707500D02*
X27175000Y-45707500D01*
X27175000Y-45707500D02*
X27175000Y-43707500D01*
X27175000Y-43707500D02*
X28425000Y-43707500D01*
X28425000Y-43707500D02*
X28425000Y-45707500D01*
X34425000Y-43800000D02*
X34425000Y-45800000D01*
X33175000Y-43800000D02*
X34425000Y-43800000D01*
X33175000Y-45800000D02*
X33175000Y-43800000D01*
X34425000Y-45800000D02*
X33175000Y-45800000D01*
X51125000Y-35000000D02*
X52375000Y-35000000D01*
X52375000Y-35000000D02*
X52375000Y-37000000D01*
X52375000Y-37000000D02*
X51125000Y-37000000D01*
X51125000Y-37000000D02*
X51125000Y-35000000D01*
X74660000Y-42301000D02*
X74660000Y-43551000D01*
X74660000Y-43551000D02*
X72660000Y-43551000D01*
X72660000Y-43551000D02*
X72660000Y-42301000D01*
X72660000Y-42301000D02*
X74660000Y-42301000D01*
X42200000Y-51100000D02*
X39400000Y-51100000D01*
X39400000Y-51100000D02*
X39400000Y-49300000D01*
X39400000Y-49300000D02*
X42200000Y-49300000D01*
X42200000Y-49300000D02*
X42200000Y-51100000D01*
X41550000Y-50200000D02*
X41150000Y-50200000D01*
X41150000Y-50200000D02*
X41150000Y-50750000D01*
X41150000Y-50200000D02*
X41150000Y-49650000D01*
X41150000Y-50200000D02*
X40550000Y-50600000D01*
X40550000Y-50600000D02*
X40550000Y-49800000D01*
X40550000Y-49800000D02*
X41150000Y-50200000D01*
X40550000Y-50200000D02*
X40050000Y-50200000D01*
X80250000Y-29000000D02*
X80250000Y-31800000D01*
X83750000Y-29000000D02*
X80250000Y-29000000D01*
X83750000Y-31100000D02*
X83750000Y-29000000D01*
X83050000Y-31800000D02*
X83750000Y-31100000D01*
X80250000Y-31800000D02*
X83050000Y-31800000D01*
X27641000Y-32093000D02*
X28616000Y-31118000D01*
X27641000Y-41018000D02*
X27641000Y-32093000D01*
X31541000Y-41018000D02*
X27641000Y-41018000D01*
X31541000Y-31118000D02*
X31541000Y-41018000D01*
X28616000Y-31118000D02*
X31541000Y-31118000D01*
X29280000Y-44058000D02*
X29280000Y-45458000D01*
X32320000Y-45458000D02*
X29280000Y-45458000D01*
X31750000Y-44058000D02*
X32320000Y-44608000D01*
X32320000Y-44608000D02*
X32320000Y-45458000D01*
X31750000Y-44058000D02*
X29300000Y-44058000D01*
D14*
X41959000Y-56000000D02*
X40959000Y-57000000D01*
X41959000Y-52100000D02*
X41959000Y-56000000D01*
X38059000Y-52100000D02*
X41959000Y-52100000D01*
X38059000Y-57000000D02*
X38059000Y-52100000D01*
X40959000Y-57000000D02*
X38059000Y-57000000D01*
D10*
X28150500Y-54458000D02*
X28150500Y-55658000D01*
X30150500Y-54458000D02*
X28150500Y-54458000D01*
X30150500Y-55358000D02*
X30150500Y-54458000D01*
X29850500Y-55658000D02*
X30150500Y-55358000D01*
X28150500Y-55658000D02*
X29850500Y-55658000D01*
X28150500Y-52045000D02*
X28150500Y-53245000D01*
X30150500Y-52045000D02*
X28150500Y-52045000D01*
X30150500Y-52945000D02*
X30150500Y-52045000D01*
X29850500Y-53245000D02*
X30150500Y-52945000D01*
X28150500Y-53245000D02*
X29850500Y-53245000D01*
X38550000Y-38270000D02*
X39950000Y-38270000D01*
X39950000Y-35230000D02*
X39950000Y-38270000D01*
X38550000Y-35800000D02*
X39100000Y-35230000D01*
X39100000Y-35230000D02*
X39950000Y-35230000D01*
X38550000Y-35800000D02*
X38550000Y-38250000D01*
X36200000Y-35230000D02*
X34800000Y-35230000D01*
X34800000Y-38270000D02*
X34800000Y-35230000D01*
X36200000Y-37700000D02*
X35650000Y-38270000D01*
X35650000Y-38270000D02*
X34800000Y-38270000D01*
X36200000Y-37700000D02*
X36200000Y-35250000D01*
X78050000Y-42793000D02*
X78050000Y-45243000D01*
X78600000Y-42223000D02*
X79450000Y-42223000D01*
X78050000Y-42793000D02*
X78600000Y-42223000D01*
X79450000Y-42223000D02*
X79450000Y-45263000D01*
X78050000Y-45263000D02*
X79450000Y-45263000D01*
D15*
X48433333Y-32180952D02*
X48300000Y-31990476D01*
X48204761Y-32180952D02*
X48204761Y-31780952D01*
X48357142Y-31780952D01*
X48395238Y-31800000D01*
X48414285Y-31819047D01*
X48433333Y-31857142D01*
X48433333Y-31914285D01*
X48414285Y-31952380D01*
X48395238Y-31971428D01*
X48357142Y-31990476D01*
X48204761Y-31990476D01*
X48566666Y-31780952D02*
X48833333Y-31780952D01*
X48661904Y-32180952D01*
D14*
X34952380Y-44738095D02*
X33952380Y-44738095D01*
X33952380Y-44500000D01*
X34000000Y-44357142D01*
X34095238Y-44261904D01*
X34190476Y-44214285D01*
X34380952Y-44166666D01*
X34523809Y-44166666D01*
X34714285Y-44214285D01*
X34809523Y-44261904D01*
X34904761Y-44357142D01*
X34952380Y-44500000D01*
X34952380Y-44738095D01*
X33952380Y-43833333D02*
X33952380Y-43166666D01*
X34952380Y-43595238D01*
X116460083Y-49807182D02*
X116412464Y-49854801D01*
X116269607Y-49902420D01*
X116174369Y-49902420D01*
X116031512Y-49854801D01*
X115936274Y-49759563D01*
X115888655Y-49664325D01*
X115841036Y-49473849D01*
X115841036Y-49330992D01*
X115888655Y-49140516D01*
X115936274Y-49045278D01*
X116031512Y-48950040D01*
X116174369Y-48902420D01*
X116269607Y-48902420D01*
X116412464Y-48950040D01*
X116460083Y-48997659D01*
X117460083Y-49807182D02*
X117412464Y-49854801D01*
X117269607Y-49902420D01*
X117174369Y-49902420D01*
X117031512Y-49854801D01*
X116936274Y-49759563D01*
X116888655Y-49664325D01*
X116841036Y-49473849D01*
X116841036Y-49330992D01*
X116888655Y-49140516D01*
X116936274Y-49045278D01*
X117031512Y-48950040D01*
X117174369Y-48902420D01*
X117269607Y-48902420D01*
X117412464Y-48950040D01*
X117460083Y-48997659D01*
X39282380Y-62333333D02*
X39996666Y-62333333D01*
X40139523Y-62380952D01*
X40234761Y-62476190D01*
X40282380Y-62619047D01*
X40282380Y-62714285D01*
X39282380Y-61380952D02*
X39282380Y-61857142D01*
X39758571Y-61904761D01*
X39710952Y-61857142D01*
X39663333Y-61761904D01*
X39663333Y-61523809D01*
X39710952Y-61428571D01*
X39758571Y-61380952D01*
X39853809Y-61333333D01*
X40091904Y-61333333D01*
X40187142Y-61380952D01*
X40234761Y-61428571D01*
X40282380Y-61523809D01*
X40282380Y-61761904D01*
X40234761Y-61857142D01*
X40187142Y-61904761D01*
X35896666Y-61452380D02*
X35896666Y-62166666D01*
X35849047Y-62309523D01*
X35753809Y-62404761D01*
X35610952Y-62452380D01*
X35515714Y-62452380D01*
X36849047Y-61452380D02*
X36372857Y-61452380D01*
X36325238Y-61928571D01*
X36372857Y-61880952D01*
X36468095Y-61833333D01*
X36706190Y-61833333D01*
X36801428Y-61880952D01*
X36849047Y-61928571D01*
X36896666Y-62023809D01*
X36896666Y-62261904D01*
X36849047Y-62357142D01*
X36801428Y-62404761D01*
X36706190Y-62452380D01*
X36468095Y-62452380D01*
X36372857Y-62404761D01*
X36325238Y-62357142D01*
D16*
X65778571Y-22321428D02*
X65802380Y-22345238D01*
X65826190Y-22416666D01*
X65826190Y-22464285D01*
X65802380Y-22535714D01*
X65754761Y-22583333D01*
X65707142Y-22607142D01*
X65611904Y-22630952D01*
X65540476Y-22630952D01*
X65445238Y-22607142D01*
X65397619Y-22583333D01*
X65350000Y-22535714D01*
X65326190Y-22464285D01*
X65326190Y-22416666D01*
X65350000Y-22345238D01*
X65373809Y-22321428D01*
X65492857Y-21892857D02*
X65826190Y-21892857D01*
X65302380Y-22011904D02*
X65659523Y-22130952D01*
X65659523Y-21821428D01*
X65326190Y-21535714D02*
X65326190Y-21488095D01*
X65350000Y-21440476D01*
X65373809Y-21416666D01*
X65421428Y-21392857D01*
X65516666Y-21369047D01*
X65635714Y-21369047D01*
X65730952Y-21392857D01*
X65778571Y-21416666D01*
X65802380Y-21440476D01*
X65826190Y-21488095D01*
X65826190Y-21535714D01*
X65802380Y-21583333D01*
X65778571Y-21607142D01*
X65730952Y-21630952D01*
X65635714Y-21654761D01*
X65516666Y-21654761D01*
X65421428Y-21630952D01*
X65373809Y-21607142D01*
X65350000Y-21583333D01*
X65326190Y-21535714D01*
D14*
X68738095Y-57804380D02*
X69309523Y-57804380D01*
X69023809Y-58804380D02*
X69023809Y-57804380D01*
X69642857Y-58804380D02*
X69642857Y-57804380D01*
X70023809Y-57804380D01*
X70119047Y-57852000D01*
X70166666Y-57899619D01*
X70214285Y-57994857D01*
X70214285Y-58137714D01*
X70166666Y-58232952D01*
X70119047Y-58280571D01*
X70023809Y-58328190D01*
X69642857Y-58328190D01*
X71119047Y-57804380D02*
X70642857Y-57804380D01*
X70595238Y-58280571D01*
X70642857Y-58232952D01*
X70738095Y-58185333D01*
X70976190Y-58185333D01*
X71071428Y-58232952D01*
X71119047Y-58280571D01*
X71166666Y-58375809D01*
X71166666Y-58613904D01*
X71119047Y-58709142D01*
X71071428Y-58756761D01*
X70976190Y-58804380D01*
X70738095Y-58804380D01*
X70642857Y-58756761D01*
X70595238Y-58709142D01*
X68738095Y-57802380D02*
X69309523Y-57802380D01*
X69023809Y-58802380D02*
X69023809Y-57802380D01*
X69642857Y-58802380D02*
X69642857Y-57802380D01*
X70023809Y-57802380D01*
X70119047Y-57850000D01*
X70166666Y-57897619D01*
X70214285Y-57992857D01*
X70214285Y-58135714D01*
X70166666Y-58230952D01*
X70119047Y-58278571D01*
X70023809Y-58326190D01*
X69642857Y-58326190D01*
X71119047Y-57802380D02*
X70642857Y-57802380D01*
X70595238Y-58278571D01*
X70642857Y-58230952D01*
X70738095Y-58183333D01*
X70976190Y-58183333D01*
X71071428Y-58230952D01*
X71119047Y-58278571D01*
X71166666Y-58373809D01*
X71166666Y-58611904D01*
X71119047Y-58707142D01*
X71071428Y-58754761D01*
X70976190Y-58802380D01*
X70738095Y-58802380D01*
X70642857Y-58754761D01*
X70595238Y-58707142D01*
X54738095Y-57804380D02*
X55309523Y-57804380D01*
X55023809Y-58804380D02*
X55023809Y-57804380D01*
X55642857Y-58804380D02*
X55642857Y-57804380D01*
X56023809Y-57804380D01*
X56119047Y-57852000D01*
X56166666Y-57899619D01*
X56214285Y-57994857D01*
X56214285Y-58137714D01*
X56166666Y-58232952D01*
X56119047Y-58280571D01*
X56023809Y-58328190D01*
X55642857Y-58328190D01*
X57071428Y-58137714D02*
X57071428Y-58804380D01*
X56833333Y-57756761D02*
X56595238Y-58471047D01*
X57214285Y-58471047D01*
X54738095Y-57802380D02*
X55309523Y-57802380D01*
X55023809Y-58802380D02*
X55023809Y-57802380D01*
X55642857Y-58802380D02*
X55642857Y-57802380D01*
X56023809Y-57802380D01*
X56119047Y-57850000D01*
X56166666Y-57897619D01*
X56214285Y-57992857D01*
X56214285Y-58135714D01*
X56166666Y-58230952D01*
X56119047Y-58278571D01*
X56023809Y-58326190D01*
X55642857Y-58326190D01*
X57071428Y-58135714D02*
X57071428Y-58802380D01*
X56833333Y-57754761D02*
X56595238Y-58469047D01*
X57214285Y-58469047D01*
X42738095Y-57804380D02*
X43309523Y-57804380D01*
X43023809Y-58804380D02*
X43023809Y-57804380D01*
X43642857Y-58804380D02*
X43642857Y-57804380D01*
X44023809Y-57804380D01*
X44119047Y-57852000D01*
X44166666Y-57899619D01*
X44214285Y-57994857D01*
X44214285Y-58137714D01*
X44166666Y-58232952D01*
X44119047Y-58280571D01*
X44023809Y-58328190D01*
X43642857Y-58328190D01*
X44547619Y-57804380D02*
X45166666Y-57804380D01*
X44833333Y-58185333D01*
X44976190Y-58185333D01*
X45071428Y-58232952D01*
X45119047Y-58280571D01*
X45166666Y-58375809D01*
X45166666Y-58613904D01*
X45119047Y-58709142D01*
X45071428Y-58756761D01*
X44976190Y-58804380D01*
X44690476Y-58804380D01*
X44595238Y-58756761D01*
X44547619Y-58709142D01*
X42738095Y-57802380D02*
X43309523Y-57802380D01*
X43023809Y-58802380D02*
X43023809Y-57802380D01*
X43642857Y-58802380D02*
X43642857Y-57802380D01*
X44023809Y-57802380D01*
X44119047Y-57850000D01*
X44166666Y-57897619D01*
X44214285Y-57992857D01*
X44214285Y-58135714D01*
X44166666Y-58230952D01*
X44119047Y-58278571D01*
X44023809Y-58326190D01*
X43642857Y-58326190D01*
X44547619Y-57802380D02*
X45166666Y-57802380D01*
X44833333Y-58183333D01*
X44976190Y-58183333D01*
X45071428Y-58230952D01*
X45119047Y-58278571D01*
X45166666Y-58373809D01*
X45166666Y-58611904D01*
X45119047Y-58707142D01*
X45071428Y-58754761D01*
X44976190Y-58802380D01*
X44690476Y-58802380D01*
X44595238Y-58754761D01*
X44547619Y-58707142D01*
X50738095Y-57804380D02*
X51309523Y-57804380D01*
X51023809Y-58804380D02*
X51023809Y-57804380D01*
X51642857Y-58804380D02*
X51642857Y-57804380D01*
X52023809Y-57804380D01*
X52119047Y-57852000D01*
X52166666Y-57899619D01*
X52214285Y-57994857D01*
X52214285Y-58137714D01*
X52166666Y-58232952D01*
X52119047Y-58280571D01*
X52023809Y-58328190D01*
X51642857Y-58328190D01*
X52595238Y-57899619D02*
X52642857Y-57852000D01*
X52738095Y-57804380D01*
X52976190Y-57804380D01*
X53071428Y-57852000D01*
X53119047Y-57899619D01*
X53166666Y-57994857D01*
X53166666Y-58090095D01*
X53119047Y-58232952D01*
X52547619Y-58804380D01*
X53166666Y-58804380D01*
X50738095Y-57802380D02*
X51309523Y-57802380D01*
X51023809Y-58802380D02*
X51023809Y-57802380D01*
X51642857Y-58802380D02*
X51642857Y-57802380D01*
X52023809Y-57802380D01*
X52119047Y-57850000D01*
X52166666Y-57897619D01*
X52214285Y-57992857D01*
X52214285Y-58135714D01*
X52166666Y-58230952D01*
X52119047Y-58278571D01*
X52023809Y-58326190D01*
X51642857Y-58326190D01*
X52595238Y-57897619D02*
X52642857Y-57850000D01*
X52738095Y-57802380D01*
X52976190Y-57802380D01*
X53071428Y-57850000D01*
X53119047Y-57897619D01*
X53166666Y-57992857D01*
X53166666Y-58088095D01*
X53119047Y-58230952D01*
X52547619Y-58802380D01*
X53166666Y-58802380D01*
X46738095Y-57804380D02*
X47309523Y-57804380D01*
X47023809Y-58804380D02*
X47023809Y-57804380D01*
X47642857Y-58804380D02*
X47642857Y-57804380D01*
X48023809Y-57804380D01*
X48119047Y-57852000D01*
X48166666Y-57899619D01*
X48214285Y-57994857D01*
X48214285Y-58137714D01*
X48166666Y-58232952D01*
X48119047Y-58280571D01*
X48023809Y-58328190D01*
X47642857Y-58328190D01*
X49166666Y-58804380D02*
X48595238Y-58804380D01*
X48880952Y-58804380D02*
X48880952Y-57804380D01*
X48785714Y-57947238D01*
X48690476Y-58042476D01*
X48595238Y-58090095D01*
X46738095Y-57802380D02*
X47309523Y-57802380D01*
X47023809Y-58802380D02*
X47023809Y-57802380D01*
X47642857Y-58802380D02*
X47642857Y-57802380D01*
X48023809Y-57802380D01*
X48119047Y-57850000D01*
X48166666Y-57897619D01*
X48214285Y-57992857D01*
X48214285Y-58135714D01*
X48166666Y-58230952D01*
X48119047Y-58278571D01*
X48023809Y-58326190D01*
X47642857Y-58326190D01*
X49166666Y-58802380D02*
X48595238Y-58802380D01*
X48880952Y-58802380D02*
X48880952Y-57802380D01*
X48785714Y-57945238D01*
X48690476Y-58040476D01*
X48595238Y-58088095D01*
X73493333Y-47855142D02*
X73445714Y-47902761D01*
X73302857Y-47950380D01*
X73207619Y-47950380D01*
X73064761Y-47902761D01*
X72969523Y-47807523D01*
X72921904Y-47712285D01*
X72874285Y-47521809D01*
X72874285Y-47378952D01*
X72921904Y-47188476D01*
X72969523Y-47093238D01*
X73064761Y-46998000D01*
X73207619Y-46950380D01*
X73302857Y-46950380D01*
X73445714Y-46998000D01*
X73493333Y-47045619D01*
X74445714Y-47950380D02*
X73874285Y-47950380D01*
X74160000Y-47950380D02*
X74160000Y-46950380D01*
X74064761Y-47093238D01*
X73969523Y-47188476D01*
X73874285Y-47236095D01*
X78583333Y-40957142D02*
X78535714Y-41004761D01*
X78392857Y-41052380D01*
X78297619Y-41052380D01*
X78154761Y-41004761D01*
X78059523Y-40909523D01*
X78011904Y-40814285D01*
X77964285Y-40623809D01*
X77964285Y-40480952D01*
X78011904Y-40290476D01*
X78059523Y-40195238D01*
X78154761Y-40100000D01*
X78297619Y-40052380D01*
X78392857Y-40052380D01*
X78535714Y-40100000D01*
X78583333Y-40147619D01*
X78964285Y-40147619D02*
X79011904Y-40100000D01*
X79107142Y-40052380D01*
X79345238Y-40052380D01*
X79440476Y-40100000D01*
X79488095Y-40147619D01*
X79535714Y-40242857D01*
X79535714Y-40338095D01*
X79488095Y-40480952D01*
X78916666Y-41052380D01*
X79535714Y-41052380D01*
X78583333Y-47157142D02*
X78535714Y-47204761D01*
X78392857Y-47252380D01*
X78297619Y-47252380D01*
X78154761Y-47204761D01*
X78059523Y-47109523D01*
X78011904Y-47014285D01*
X77964285Y-46823809D01*
X77964285Y-46680952D01*
X78011904Y-46490476D01*
X78059523Y-46395238D01*
X78154761Y-46300000D01*
X78297619Y-46252380D01*
X78392857Y-46252380D01*
X78535714Y-46300000D01*
X78583333Y-46347619D01*
X78916666Y-46252380D02*
X79535714Y-46252380D01*
X79202380Y-46633333D01*
X79345238Y-46633333D01*
X79440476Y-46680952D01*
X79488095Y-46728571D01*
X79535714Y-46823809D01*
X79535714Y-47061904D01*
X79488095Y-47157142D01*
X79440476Y-47204761D01*
X79345238Y-47252380D01*
X79059523Y-47252380D01*
X78964285Y-47204761D01*
X78916666Y-47157142D01*
X73493333Y-45581842D02*
X73445714Y-45629461D01*
X73302857Y-45677080D01*
X73207619Y-45677080D01*
X73064761Y-45629461D01*
X72969523Y-45534223D01*
X72921904Y-45438985D01*
X72874285Y-45248509D01*
X72874285Y-45105652D01*
X72921904Y-44915176D01*
X72969523Y-44819938D01*
X73064761Y-44724700D01*
X73207619Y-44677080D01*
X73302857Y-44677080D01*
X73445714Y-44724700D01*
X73493333Y-44772319D01*
X74350476Y-45010414D02*
X74350476Y-45677080D01*
X74112380Y-44629461D02*
X73874285Y-45343747D01*
X74493333Y-45343747D01*
X71477142Y-38012666D02*
X71524761Y-38060285D01*
X71572380Y-38203142D01*
X71572380Y-38298380D01*
X71524761Y-38441238D01*
X71429523Y-38536476D01*
X71334285Y-38584095D01*
X71143809Y-38631714D01*
X71000952Y-38631714D01*
X70810476Y-38584095D01*
X70715238Y-38536476D01*
X70620000Y-38441238D01*
X70572380Y-38298380D01*
X70572380Y-38203142D01*
X70620000Y-38060285D01*
X70667619Y-38012666D01*
X70572380Y-37107904D02*
X70572380Y-37584095D01*
X71048571Y-37631714D01*
X71000952Y-37584095D01*
X70953333Y-37488857D01*
X70953333Y-37250761D01*
X71000952Y-37155523D01*
X71048571Y-37107904D01*
X71143809Y-37060285D01*
X71381904Y-37060285D01*
X71477142Y-37107904D01*
X71524761Y-37155523D01*
X71572380Y-37250761D01*
X71572380Y-37488857D01*
X71524761Y-37584095D01*
X71477142Y-37631714D01*
X69191142Y-38012666D02*
X69238761Y-38060285D01*
X69286380Y-38203142D01*
X69286380Y-38298380D01*
X69238761Y-38441238D01*
X69143523Y-38536476D01*
X69048285Y-38584095D01*
X68857809Y-38631714D01*
X68714952Y-38631714D01*
X68524476Y-38584095D01*
X68429238Y-38536476D01*
X68334000Y-38441238D01*
X68286380Y-38298380D01*
X68286380Y-38203142D01*
X68334000Y-38060285D01*
X68381619Y-38012666D01*
X68286380Y-37679333D02*
X68286380Y-37012666D01*
X69286380Y-37441238D01*
X73493333Y-50141142D02*
X73445714Y-50188761D01*
X73302857Y-50236380D01*
X73207619Y-50236380D01*
X73064761Y-50188761D01*
X72969523Y-50093523D01*
X72921904Y-49998285D01*
X72874285Y-49807809D01*
X72874285Y-49664952D01*
X72921904Y-49474476D01*
X72969523Y-49379238D01*
X73064761Y-49284000D01*
X73207619Y-49236380D01*
X73302857Y-49236380D01*
X73445714Y-49284000D01*
X73493333Y-49331619D01*
X74064761Y-49664952D02*
X73969523Y-49617333D01*
X73921904Y-49569714D01*
X73874285Y-49474476D01*
X73874285Y-49426857D01*
X73921904Y-49331619D01*
X73969523Y-49284000D01*
X74064761Y-49236380D01*
X74255238Y-49236380D01*
X74350476Y-49284000D01*
X74398095Y-49331619D01*
X74445714Y-49426857D01*
X74445714Y-49474476D01*
X74398095Y-49569714D01*
X74350476Y-49617333D01*
X74255238Y-49664952D01*
X74064761Y-49664952D01*
X73969523Y-49712571D01*
X73921904Y-49760190D01*
X73874285Y-49855428D01*
X73874285Y-50045904D01*
X73921904Y-50141142D01*
X73969523Y-50188761D01*
X74064761Y-50236380D01*
X74255238Y-50236380D01*
X74350476Y-50188761D01*
X74398095Y-50141142D01*
X74445714Y-50045904D01*
X74445714Y-49855428D01*
X74398095Y-49760190D01*
X74350476Y-49712571D01*
X74255238Y-49664952D01*
X73493333Y-40997142D02*
X73445714Y-41044761D01*
X73302857Y-41092380D01*
X73207619Y-41092380D01*
X73064761Y-41044761D01*
X72969523Y-40949523D01*
X72921904Y-40854285D01*
X72874285Y-40663809D01*
X72874285Y-40520952D01*
X72921904Y-40330476D01*
X72969523Y-40235238D01*
X73064761Y-40140000D01*
X73207619Y-40092380D01*
X73302857Y-40092380D01*
X73445714Y-40140000D01*
X73493333Y-40187619D01*
X73969523Y-41092380D02*
X74160000Y-41092380D01*
X74255238Y-41044761D01*
X74302857Y-40997142D01*
X74398095Y-40854285D01*
X74445714Y-40663809D01*
X74445714Y-40282857D01*
X74398095Y-40187619D01*
X74350476Y-40140000D01*
X74255238Y-40092380D01*
X74064761Y-40092380D01*
X73969523Y-40140000D01*
X73921904Y-40187619D01*
X73874285Y-40282857D01*
X73874285Y-40520952D01*
X73921904Y-40616190D01*
X73969523Y-40663809D01*
X74064761Y-40711428D01*
X74255238Y-40711428D01*
X74350476Y-40663809D01*
X74398095Y-40616190D01*
X74445714Y-40520952D01*
X73017142Y-52427142D02*
X72969523Y-52474761D01*
X72826666Y-52522380D01*
X72731428Y-52522380D01*
X72588571Y-52474761D01*
X72493333Y-52379523D01*
X72445714Y-52284285D01*
X72398095Y-52093809D01*
X72398095Y-51950952D01*
X72445714Y-51760476D01*
X72493333Y-51665238D01*
X72588571Y-51570000D01*
X72731428Y-51522380D01*
X72826666Y-51522380D01*
X72969523Y-51570000D01*
X73017142Y-51617619D01*
X73969523Y-52522380D02*
X73398095Y-52522380D01*
X73683809Y-52522380D02*
X73683809Y-51522380D01*
X73588571Y-51665238D01*
X73493333Y-51760476D01*
X73398095Y-51808095D01*
X74921904Y-52522380D02*
X74350476Y-52522380D01*
X74636190Y-52522380D02*
X74636190Y-51522380D01*
X74540952Y-51665238D01*
X74445714Y-51760476D01*
X74350476Y-51808095D01*
X62079142Y-39504857D02*
X62126761Y-39552476D01*
X62174380Y-39695333D01*
X62174380Y-39790571D01*
X62126761Y-39933428D01*
X62031523Y-40028666D01*
X61936285Y-40076285D01*
X61745809Y-40123904D01*
X61602952Y-40123904D01*
X61412476Y-40076285D01*
X61317238Y-40028666D01*
X61222000Y-39933428D01*
X61174380Y-39790571D01*
X61174380Y-39695333D01*
X61222000Y-39552476D01*
X61269619Y-39504857D01*
X62174380Y-38552476D02*
X62174380Y-39123904D01*
X62174380Y-38838190D02*
X61174380Y-38838190D01*
X61317238Y-38933428D01*
X61412476Y-39028666D01*
X61460095Y-39123904D01*
X61269619Y-38171523D02*
X61222000Y-38123904D01*
X61174380Y-38028666D01*
X61174380Y-37790571D01*
X61222000Y-37695333D01*
X61269619Y-37647714D01*
X61364857Y-37600095D01*
X61460095Y-37600095D01*
X61602952Y-37647714D01*
X62174380Y-38219142D01*
X62174380Y-37600095D01*
X121162142Y-50325142D02*
X121114523Y-50372761D01*
X120971666Y-50420380D01*
X120876428Y-50420380D01*
X120733571Y-50372761D01*
X120638333Y-50277523D01*
X120590714Y-50182285D01*
X120543095Y-49991809D01*
X120543095Y-49848952D01*
X120590714Y-49658476D01*
X120638333Y-49563238D01*
X120733571Y-49468000D01*
X120876428Y-49420380D01*
X120971666Y-49420380D01*
X121114523Y-49468000D01*
X121162142Y-49515619D01*
X122114523Y-50420380D02*
X121543095Y-50420380D01*
X121828809Y-50420380D02*
X121828809Y-49420380D01*
X121733571Y-49563238D01*
X121638333Y-49658476D01*
X121543095Y-49706095D01*
X122590714Y-50420380D02*
X122781190Y-50420380D01*
X122876428Y-50372761D01*
X122924047Y-50325142D01*
X123019285Y-50182285D01*
X123066904Y-49991809D01*
X123066904Y-49610857D01*
X123019285Y-49515619D01*
X122971666Y-49468000D01*
X122876428Y-49420380D01*
X122685952Y-49420380D01*
X122590714Y-49468000D01*
X122543095Y-49515619D01*
X122495476Y-49610857D01*
X122495476Y-49848952D01*
X122543095Y-49944190D01*
X122590714Y-49991809D01*
X122685952Y-50039428D01*
X122876428Y-50039428D01*
X122971666Y-49991809D01*
X123019285Y-49944190D01*
X123066904Y-49848952D01*
X66905142Y-38488857D02*
X66952761Y-38536476D01*
X67000380Y-38679333D01*
X67000380Y-38774571D01*
X66952761Y-38917428D01*
X66857523Y-39012666D01*
X66762285Y-39060285D01*
X66571809Y-39107904D01*
X66428952Y-39107904D01*
X66238476Y-39060285D01*
X66143238Y-39012666D01*
X66048000Y-38917428D01*
X66000380Y-38774571D01*
X66000380Y-38679333D01*
X66048000Y-38536476D01*
X66095619Y-38488857D01*
X66095619Y-38107904D02*
X66048000Y-38060285D01*
X66000380Y-37965047D01*
X66000380Y-37726952D01*
X66048000Y-37631714D01*
X66095619Y-37584095D01*
X66190857Y-37536476D01*
X66286095Y-37536476D01*
X66428952Y-37584095D01*
X67000380Y-38155523D01*
X67000380Y-37536476D01*
X66333714Y-36679333D02*
X67000380Y-36679333D01*
X65952761Y-36917428D02*
X66667047Y-37155523D01*
X66667047Y-36536476D01*
X56999142Y-54998857D02*
X57046761Y-55046476D01*
X57094380Y-55189333D01*
X57094380Y-55284571D01*
X57046761Y-55427428D01*
X56951523Y-55522666D01*
X56856285Y-55570285D01*
X56665809Y-55617904D01*
X56522952Y-55617904D01*
X56332476Y-55570285D01*
X56237238Y-55522666D01*
X56142000Y-55427428D01*
X56094380Y-55284571D01*
X56094380Y-55189333D01*
X56142000Y-55046476D01*
X56189619Y-54998857D01*
X56189619Y-54617904D02*
X56142000Y-54570285D01*
X56094380Y-54475047D01*
X56094380Y-54236952D01*
X56142000Y-54141714D01*
X56189619Y-54094095D01*
X56284857Y-54046476D01*
X56380095Y-54046476D01*
X56522952Y-54094095D01*
X57094380Y-54665523D01*
X57094380Y-54046476D01*
X56094380Y-53189333D02*
X56094380Y-53379809D01*
X56142000Y-53475047D01*
X56189619Y-53522666D01*
X56332476Y-53617904D01*
X56522952Y-53665523D01*
X56903904Y-53665523D01*
X56999142Y-53617904D01*
X57046761Y-53570285D01*
X57094380Y-53475047D01*
X57094380Y-53284571D01*
X57046761Y-53189333D01*
X56999142Y-53141714D01*
X56903904Y-53094095D01*
X56665809Y-53094095D01*
X56570571Y-53141714D01*
X56522952Y-53189333D01*
X56475333Y-53284571D01*
X56475333Y-53475047D01*
X56522952Y-53570285D01*
X56570571Y-53617904D01*
X56665809Y-53665523D01*
X67286142Y-54998857D02*
X67333761Y-55046476D01*
X67381380Y-55189333D01*
X67381380Y-55284571D01*
X67333761Y-55427428D01*
X67238523Y-55522666D01*
X67143285Y-55570285D01*
X66952809Y-55617904D01*
X66809952Y-55617904D01*
X66619476Y-55570285D01*
X66524238Y-55522666D01*
X66429000Y-55427428D01*
X66381380Y-55284571D01*
X66381380Y-55189333D01*
X66429000Y-55046476D01*
X66476619Y-54998857D01*
X66476619Y-54617904D02*
X66429000Y-54570285D01*
X66381380Y-54475047D01*
X66381380Y-54236952D01*
X66429000Y-54141714D01*
X66476619Y-54094095D01*
X66571857Y-54046476D01*
X66667095Y-54046476D01*
X66809952Y-54094095D01*
X67381380Y-54665523D01*
X67381380Y-54046476D01*
X66809952Y-53475047D02*
X66762333Y-53570285D01*
X66714714Y-53617904D01*
X66619476Y-53665523D01*
X66571857Y-53665523D01*
X66476619Y-53617904D01*
X66429000Y-53570285D01*
X66381380Y-53475047D01*
X66381380Y-53284571D01*
X66429000Y-53189333D01*
X66476619Y-53141714D01*
X66571857Y-53094095D01*
X66619476Y-53094095D01*
X66714714Y-53141714D01*
X66762333Y-53189333D01*
X66809952Y-53284571D01*
X66809952Y-53475047D01*
X66857571Y-53570285D01*
X66905190Y-53617904D01*
X67000428Y-53665523D01*
X67190904Y-53665523D01*
X67286142Y-53617904D01*
X67333761Y-53570285D01*
X67381380Y-53475047D01*
X67381380Y-53284571D01*
X67333761Y-53189333D01*
X67286142Y-53141714D01*
X67190904Y-53094095D01*
X67000428Y-53094095D01*
X66905190Y-53141714D01*
X66857571Y-53189333D01*
X66809952Y-53284571D01*
X69445142Y-54998857D02*
X69492761Y-55046476D01*
X69540380Y-55189333D01*
X69540380Y-55284571D01*
X69492761Y-55427428D01*
X69397523Y-55522666D01*
X69302285Y-55570285D01*
X69111809Y-55617904D01*
X68968952Y-55617904D01*
X68778476Y-55570285D01*
X68683238Y-55522666D01*
X68588000Y-55427428D01*
X68540380Y-55284571D01*
X68540380Y-55189333D01*
X68588000Y-55046476D01*
X68635619Y-54998857D01*
X68540380Y-54665523D02*
X68540380Y-54046476D01*
X68921333Y-54379809D01*
X68921333Y-54236952D01*
X68968952Y-54141714D01*
X69016571Y-54094095D01*
X69111809Y-54046476D01*
X69349904Y-54046476D01*
X69445142Y-54094095D01*
X69492761Y-54141714D01*
X69540380Y-54236952D01*
X69540380Y-54522666D01*
X69492761Y-54617904D01*
X69445142Y-54665523D01*
X69540380Y-53094095D02*
X69540380Y-53665523D01*
X69540380Y-53379809D02*
X68540380Y-53379809D01*
X68683238Y-53475047D01*
X68778476Y-53570285D01*
X68826095Y-53665523D01*
X64619142Y-59951857D02*
X64666761Y-59999476D01*
X64714380Y-60142333D01*
X64714380Y-60237571D01*
X64666761Y-60380428D01*
X64571523Y-60475666D01*
X64476285Y-60523285D01*
X64285809Y-60570904D01*
X64142952Y-60570904D01*
X63952476Y-60523285D01*
X63857238Y-60475666D01*
X63762000Y-60380428D01*
X63714380Y-60237571D01*
X63714380Y-60142333D01*
X63762000Y-59999476D01*
X63809619Y-59951857D01*
X63714380Y-59618523D02*
X63714380Y-58999476D01*
X64095333Y-59332809D01*
X64095333Y-59189952D01*
X64142952Y-59094714D01*
X64190571Y-59047095D01*
X64285809Y-58999476D01*
X64523904Y-58999476D01*
X64619142Y-59047095D01*
X64666761Y-59094714D01*
X64714380Y-59189952D01*
X64714380Y-59475666D01*
X64666761Y-59570904D01*
X64619142Y-59618523D01*
X63809619Y-58618523D02*
X63762000Y-58570904D01*
X63714380Y-58475666D01*
X63714380Y-58237571D01*
X63762000Y-58142333D01*
X63809619Y-58094714D01*
X63904857Y-58047095D01*
X64000095Y-58047095D01*
X64142952Y-58094714D01*
X64714380Y-58666142D01*
X64714380Y-58047095D01*
X31166666Y-25017380D02*
X31166666Y-25731666D01*
X31119047Y-25874523D01*
X31023809Y-25969761D01*
X30880952Y-26017380D01*
X30785714Y-26017380D01*
X31595238Y-25112619D02*
X31642857Y-25065000D01*
X31738095Y-25017380D01*
X31976190Y-25017380D01*
X32071428Y-25065000D01*
X32119047Y-25112619D01*
X32166666Y-25207857D01*
X32166666Y-25303095D01*
X32119047Y-25445952D01*
X31547619Y-26017380D01*
X32166666Y-26017380D01*
D15*
X41533333Y-31780952D02*
X41400000Y-31590476D01*
X41304761Y-31780952D02*
X41304761Y-31380952D01*
X41457142Y-31380952D01*
X41495238Y-31400000D01*
X41514285Y-31419047D01*
X41533333Y-31457142D01*
X41533333Y-31514285D01*
X41514285Y-31552380D01*
X41495238Y-31571428D01*
X41457142Y-31590476D01*
X41304761Y-31590476D01*
X41685714Y-31419047D02*
X41704761Y-31400000D01*
X41742857Y-31380952D01*
X41838095Y-31380952D01*
X41876190Y-31400000D01*
X41895238Y-31419047D01*
X41914285Y-31457142D01*
X41914285Y-31495238D01*
X41895238Y-31552380D01*
X41666666Y-31780952D01*
X41914285Y-31780952D01*
D16*
X40678571Y-41778571D02*
X40654761Y-41802380D01*
X40583333Y-41826190D01*
X40535714Y-41826190D01*
X40464285Y-41802380D01*
X40416666Y-41754761D01*
X40392857Y-41707142D01*
X40369047Y-41611904D01*
X40369047Y-41540476D01*
X40392857Y-41445238D01*
X40416666Y-41397619D01*
X40464285Y-41350000D01*
X40535714Y-41326190D01*
X40583333Y-41326190D01*
X40654761Y-41350000D01*
X40678571Y-41373809D01*
X40845238Y-41326190D02*
X41154761Y-41326190D01*
X40988095Y-41516666D01*
X41059523Y-41516666D01*
X41107142Y-41540476D01*
X41130952Y-41564285D01*
X41154761Y-41611904D01*
X41154761Y-41730952D01*
X41130952Y-41778571D01*
X41107142Y-41802380D01*
X41059523Y-41826190D01*
X40916666Y-41826190D01*
X40869047Y-41802380D01*
X40845238Y-41778571D01*
X41392857Y-41826190D02*
X41488095Y-41826190D01*
X41535714Y-41802380D01*
X41559523Y-41778571D01*
X41607142Y-41707142D01*
X41630952Y-41611904D01*
X41630952Y-41421428D01*
X41607142Y-41373809D01*
X41583333Y-41350000D01*
X41535714Y-41326190D01*
X41440476Y-41326190D01*
X41392857Y-41350000D01*
X41369047Y-41373809D01*
X41345238Y-41421428D01*
X41345238Y-41540476D01*
X41369047Y-41588095D01*
X41392857Y-41611904D01*
X41440476Y-41635714D01*
X41535714Y-41635714D01*
X41583333Y-41611904D01*
X41607142Y-41588095D01*
X41630952Y-41540476D01*
X49428571Y-36321428D02*
X49452380Y-36345238D01*
X49476190Y-36416666D01*
X49476190Y-36464285D01*
X49452380Y-36535714D01*
X49404761Y-36583333D01*
X49357142Y-36607142D01*
X49261904Y-36630952D01*
X49190476Y-36630952D01*
X49095238Y-36607142D01*
X49047619Y-36583333D01*
X49000000Y-36535714D01*
X48976190Y-36464285D01*
X48976190Y-36416666D01*
X49000000Y-36345238D01*
X49023809Y-36321428D01*
X49023809Y-36130952D02*
X49000000Y-36107142D01*
X48976190Y-36059523D01*
X48976190Y-35940476D01*
X49000000Y-35892857D01*
X49023809Y-35869047D01*
X49071428Y-35845238D01*
X49119047Y-35845238D01*
X49190476Y-35869047D01*
X49476190Y-36154761D01*
X49476190Y-35845238D01*
X49476190Y-35369047D02*
X49476190Y-35654761D01*
X49476190Y-35511904D02*
X48976190Y-35511904D01*
X49047619Y-35559523D01*
X49095238Y-35607142D01*
X49119047Y-35654761D01*
D14*
X69059001Y-48461380D02*
X69059001Y-48699476D01*
X68820905Y-48604238D02*
X69059001Y-48699476D01*
X69297096Y-48604238D01*
X68916143Y-48889952D02*
X69059001Y-48699476D01*
X69201858Y-48889952D01*
X69059001Y-48461380D02*
X69059001Y-48699476D01*
X68820905Y-48604238D02*
X69059001Y-48699476D01*
X69297096Y-48604238D01*
X68916143Y-48889952D02*
X69059001Y-48699476D01*
X69201858Y-48889952D01*
X113107142Y-51868380D02*
X112773809Y-51392190D01*
X112535714Y-51868380D02*
X112535714Y-50868380D01*
X112916666Y-50868380D01*
X113011904Y-50916000D01*
X113059523Y-50963619D01*
X113107142Y-51058857D01*
X113107142Y-51201714D01*
X113059523Y-51296952D01*
X113011904Y-51344571D01*
X112916666Y-51392190D01*
X112535714Y-51392190D01*
X113488095Y-50963619D02*
X113535714Y-50916000D01*
X113630952Y-50868380D01*
X113869047Y-50868380D01*
X113964285Y-50916000D01*
X114011904Y-50963619D01*
X114059523Y-51058857D01*
X114059523Y-51154095D01*
X114011904Y-51296952D01*
X113440476Y-51868380D01*
X114059523Y-51868380D01*
X114535714Y-51868380D02*
X114726190Y-51868380D01*
X114821428Y-51820761D01*
X114869047Y-51773142D01*
X114964285Y-51630285D01*
X115011904Y-51439809D01*
X115011904Y-51058857D01*
X114964285Y-50963619D01*
X114916666Y-50916000D01*
X114821428Y-50868380D01*
X114630952Y-50868380D01*
X114535714Y-50916000D01*
X114488095Y-50963619D01*
X114440476Y-51058857D01*
X114440476Y-51296952D01*
X114488095Y-51392190D01*
X114535714Y-51439809D01*
X114630952Y-51487428D01*
X114821428Y-51487428D01*
X114916666Y-51439809D01*
X114964285Y-51392190D01*
X115011904Y-51296952D01*
X80522380Y-23193333D02*
X81236666Y-23193333D01*
X81379523Y-23240952D01*
X81474761Y-23336190D01*
X81522380Y-23479047D01*
X81522380Y-23574285D01*
X80522380Y-22812380D02*
X80522380Y-22193333D01*
X80903333Y-22526666D01*
X80903333Y-22383809D01*
X80950952Y-22288571D01*
X80998571Y-22240952D01*
X81093809Y-22193333D01*
X81331904Y-22193333D01*
X81427142Y-22240952D01*
X81474761Y-22288571D01*
X81522380Y-22383809D01*
X81522380Y-22669523D01*
X81474761Y-22764761D01*
X81427142Y-22812380D01*
X73326666Y-22312380D02*
X73326666Y-23026666D01*
X73279047Y-23169523D01*
X73183809Y-23264761D01*
X73040952Y-23312380D01*
X72945714Y-23312380D01*
X73707619Y-22312380D02*
X74326666Y-22312380D01*
X73993333Y-22693333D01*
X74136190Y-22693333D01*
X74231428Y-22740952D01*
X74279047Y-22788571D01*
X74326666Y-22883809D01*
X74326666Y-23121904D01*
X74279047Y-23217142D01*
X74231428Y-23264761D01*
X74136190Y-23312380D01*
X73850476Y-23312380D01*
X73755238Y-23264761D01*
X73707619Y-23217142D01*
X62841380Y-55729095D02*
X61841380Y-55729095D01*
X61841380Y-55491000D01*
X61889000Y-55348142D01*
X61984238Y-55252904D01*
X62079476Y-55205285D01*
X62269952Y-55157666D01*
X62412809Y-55157666D01*
X62603285Y-55205285D01*
X62698523Y-55252904D01*
X62793761Y-55348142D01*
X62841380Y-55491000D01*
X62841380Y-55729095D01*
X62174714Y-54300523D02*
X62841380Y-54300523D01*
X61793761Y-54538619D02*
X62508047Y-54776714D01*
X62508047Y-54157666D01*
X55745142Y-45823142D02*
X55697523Y-45870761D01*
X55554666Y-45918380D01*
X55459428Y-45918380D01*
X55316571Y-45870761D01*
X55221333Y-45775523D01*
X55173714Y-45680285D01*
X55126095Y-45489809D01*
X55126095Y-45346952D01*
X55173714Y-45156476D01*
X55221333Y-45061238D01*
X55316571Y-44966000D01*
X55459428Y-44918380D01*
X55554666Y-44918380D01*
X55697523Y-44966000D01*
X55745142Y-45013619D01*
X56078476Y-44918380D02*
X56697523Y-44918380D01*
X56364190Y-45299333D01*
X56507047Y-45299333D01*
X56602285Y-45346952D01*
X56649904Y-45394571D01*
X56697523Y-45489809D01*
X56697523Y-45727904D01*
X56649904Y-45823142D01*
X56602285Y-45870761D01*
X56507047Y-45918380D01*
X56221333Y-45918380D01*
X56126095Y-45870761D01*
X56078476Y-45823142D01*
X57316571Y-44918380D02*
X57411809Y-44918380D01*
X57507047Y-44966000D01*
X57554666Y-45013619D01*
X57602285Y-45108857D01*
X57649904Y-45299333D01*
X57649904Y-45537428D01*
X57602285Y-45727904D01*
X57554666Y-45823142D01*
X57507047Y-45870761D01*
X57411809Y-45918380D01*
X57316571Y-45918380D01*
X57221333Y-45870761D01*
X57173714Y-45823142D01*
X57126095Y-45727904D01*
X57078476Y-45537428D01*
X57078476Y-45299333D01*
X57126095Y-45108857D01*
X57173714Y-45013619D01*
X57221333Y-44966000D01*
X57316571Y-44918380D01*
X113107142Y-55948380D02*
X112773809Y-55472190D01*
X112535714Y-55948380D02*
X112535714Y-54948380D01*
X112916666Y-54948380D01*
X113011904Y-54996000D01*
X113059523Y-55043619D01*
X113107142Y-55138857D01*
X113107142Y-55281714D01*
X113059523Y-55376952D01*
X113011904Y-55424571D01*
X112916666Y-55472190D01*
X112535714Y-55472190D01*
X113440476Y-54948380D02*
X114059523Y-54948380D01*
X113726190Y-55329333D01*
X113869047Y-55329333D01*
X113964285Y-55376952D01*
X114011904Y-55424571D01*
X114059523Y-55519809D01*
X114059523Y-55757904D01*
X114011904Y-55853142D01*
X113964285Y-55900761D01*
X113869047Y-55948380D01*
X113583333Y-55948380D01*
X113488095Y-55900761D01*
X113440476Y-55853142D01*
X114678571Y-54948380D02*
X114773809Y-54948380D01*
X114869047Y-54996000D01*
X114916666Y-55043619D01*
X114964285Y-55138857D01*
X115011904Y-55329333D01*
X115011904Y-55567428D01*
X114964285Y-55757904D01*
X114916666Y-55853142D01*
X114869047Y-55900761D01*
X114773809Y-55948380D01*
X114678571Y-55948380D01*
X114583333Y-55900761D01*
X114535714Y-55853142D01*
X114488095Y-55757904D01*
X114440476Y-55567428D01*
X114440476Y-55329333D01*
X114488095Y-55138857D01*
X114535714Y-55043619D01*
X114583333Y-54996000D01*
X114678571Y-54948380D01*
X120845142Y-54692380D02*
X120511809Y-54216190D01*
X120273714Y-54692380D02*
X120273714Y-53692380D01*
X120654666Y-53692380D01*
X120749904Y-53740000D01*
X120797523Y-53787619D01*
X120845142Y-53882857D01*
X120845142Y-54025714D01*
X120797523Y-54120952D01*
X120749904Y-54168571D01*
X120654666Y-54216190D01*
X120273714Y-54216190D01*
X121226095Y-53787619D02*
X121273714Y-53740000D01*
X121368952Y-53692380D01*
X121607047Y-53692380D01*
X121702285Y-53740000D01*
X121749904Y-53787619D01*
X121797523Y-53882857D01*
X121797523Y-53978095D01*
X121749904Y-54120952D01*
X121178476Y-54692380D01*
X121797523Y-54692380D01*
X122368952Y-54120952D02*
X122273714Y-54073333D01*
X122226095Y-54025714D01*
X122178476Y-53930476D01*
X122178476Y-53882857D01*
X122226095Y-53787619D01*
X122273714Y-53740000D01*
X122368952Y-53692380D01*
X122559428Y-53692380D01*
X122654666Y-53740000D01*
X122702285Y-53787619D01*
X122749904Y-53882857D01*
X122749904Y-53930476D01*
X122702285Y-54025714D01*
X122654666Y-54073333D01*
X122559428Y-54120952D01*
X122368952Y-54120952D01*
X122273714Y-54168571D01*
X122226095Y-54216190D01*
X122178476Y-54311428D01*
X122178476Y-54501904D01*
X122226095Y-54597142D01*
X122273714Y-54644761D01*
X122368952Y-54692380D01*
X122559428Y-54692380D01*
X122654666Y-54644761D01*
X122702285Y-54597142D01*
X122749904Y-54501904D01*
X122749904Y-54311428D01*
X122702285Y-54216190D01*
X122654666Y-54168571D01*
X122559428Y-54120952D01*
X113107142Y-47952380D02*
X112773809Y-47476190D01*
X112535714Y-47952380D02*
X112535714Y-46952380D01*
X112916666Y-46952380D01*
X113011904Y-47000000D01*
X113059523Y-47047619D01*
X113107142Y-47142857D01*
X113107142Y-47285714D01*
X113059523Y-47380952D01*
X113011904Y-47428571D01*
X112916666Y-47476190D01*
X112535714Y-47476190D01*
X113488095Y-47047619D02*
X113535714Y-47000000D01*
X113630952Y-46952380D01*
X113869047Y-46952380D01*
X113964285Y-47000000D01*
X114011904Y-47047619D01*
X114059523Y-47142857D01*
X114059523Y-47238095D01*
X114011904Y-47380952D01*
X113440476Y-47952380D01*
X114059523Y-47952380D01*
X114392857Y-46952380D02*
X115059523Y-46952380D01*
X114630952Y-47952380D01*
X120908142Y-58756380D02*
X120574809Y-58280190D01*
X120336714Y-58756380D02*
X120336714Y-57756380D01*
X120717666Y-57756380D01*
X120812904Y-57804000D01*
X120860523Y-57851619D01*
X120908142Y-57946857D01*
X120908142Y-58089714D01*
X120860523Y-58184952D01*
X120812904Y-58232571D01*
X120717666Y-58280190D01*
X120336714Y-58280190D01*
X121289095Y-57851619D02*
X121336714Y-57804000D01*
X121431952Y-57756380D01*
X121670047Y-57756380D01*
X121765285Y-57804000D01*
X121812904Y-57851619D01*
X121860523Y-57946857D01*
X121860523Y-58042095D01*
X121812904Y-58184952D01*
X121241476Y-58756380D01*
X121860523Y-58756380D01*
X122717666Y-57756380D02*
X122527190Y-57756380D01*
X122431952Y-57804000D01*
X122384333Y-57851619D01*
X122289095Y-57994476D01*
X122241476Y-58184952D01*
X122241476Y-58565904D01*
X122289095Y-58661142D01*
X122336714Y-58708761D01*
X122431952Y-58756380D01*
X122622428Y-58756380D01*
X122717666Y-58708761D01*
X122765285Y-58661142D01*
X122812904Y-58565904D01*
X122812904Y-58327809D01*
X122765285Y-58232571D01*
X122717666Y-58184952D01*
X122622428Y-58137333D01*
X122431952Y-58137333D01*
X122336714Y-58184952D01*
X122289095Y-58232571D01*
X122241476Y-58327809D01*
X68182142Y-32452380D02*
X67848809Y-31976190D01*
X67610714Y-32452380D02*
X67610714Y-31452380D01*
X67991666Y-31452380D01*
X68086904Y-31500000D01*
X68134523Y-31547619D01*
X68182142Y-31642857D01*
X68182142Y-31785714D01*
X68134523Y-31880952D01*
X68086904Y-31928571D01*
X67991666Y-31976190D01*
X67610714Y-31976190D01*
X68563095Y-31547619D02*
X68610714Y-31500000D01*
X68705952Y-31452380D01*
X68944047Y-31452380D01*
X69039285Y-31500000D01*
X69086904Y-31547619D01*
X69134523Y-31642857D01*
X69134523Y-31738095D01*
X69086904Y-31880952D01*
X68515476Y-32452380D01*
X69134523Y-32452380D01*
X70039285Y-31452380D02*
X69563095Y-31452380D01*
X69515476Y-31928571D01*
X69563095Y-31880952D01*
X69658333Y-31833333D01*
X69896428Y-31833333D01*
X69991666Y-31880952D01*
X70039285Y-31928571D01*
X70086904Y-32023809D01*
X70086904Y-32261904D01*
X70039285Y-32357142D01*
X69991666Y-32404761D01*
X69896428Y-32452380D01*
X69658333Y-32452380D01*
X69563095Y-32404761D01*
X69515476Y-32357142D01*
X48887142Y-49220380D02*
X48553809Y-48744190D01*
X48315714Y-49220380D02*
X48315714Y-48220380D01*
X48696666Y-48220380D01*
X48791904Y-48268000D01*
X48839523Y-48315619D01*
X48887142Y-48410857D01*
X48887142Y-48553714D01*
X48839523Y-48648952D01*
X48791904Y-48696571D01*
X48696666Y-48744190D01*
X48315714Y-48744190D01*
X49268095Y-48315619D02*
X49315714Y-48268000D01*
X49410952Y-48220380D01*
X49649047Y-48220380D01*
X49744285Y-48268000D01*
X49791904Y-48315619D01*
X49839523Y-48410857D01*
X49839523Y-48506095D01*
X49791904Y-48648952D01*
X49220476Y-49220380D01*
X49839523Y-49220380D01*
X50696666Y-48553714D02*
X50696666Y-49220380D01*
X50458571Y-48172761D02*
X50220476Y-48887047D01*
X50839523Y-48887047D01*
X52189142Y-49220380D02*
X51855809Y-48744190D01*
X51617714Y-49220380D02*
X51617714Y-48220380D01*
X51998666Y-48220380D01*
X52093904Y-48268000D01*
X52141523Y-48315619D01*
X52189142Y-48410857D01*
X52189142Y-48553714D01*
X52141523Y-48648952D01*
X52093904Y-48696571D01*
X51998666Y-48744190D01*
X51617714Y-48744190D01*
X52570095Y-48315619D02*
X52617714Y-48268000D01*
X52712952Y-48220380D01*
X52951047Y-48220380D01*
X53046285Y-48268000D01*
X53093904Y-48315619D01*
X53141523Y-48410857D01*
X53141523Y-48506095D01*
X53093904Y-48648952D01*
X52522476Y-49220380D01*
X53141523Y-49220380D01*
X53474857Y-48220380D02*
X54093904Y-48220380D01*
X53760571Y-48601333D01*
X53903428Y-48601333D01*
X53998666Y-48648952D01*
X54046285Y-48696571D01*
X54093904Y-48791809D01*
X54093904Y-49029904D01*
X54046285Y-49125142D01*
X53998666Y-49172761D01*
X53903428Y-49220380D01*
X53617714Y-49220380D01*
X53522476Y-49172761D01*
X53474857Y-49125142D01*
X28607142Y-48673380D02*
X28273809Y-48197190D01*
X28035714Y-48673380D02*
X28035714Y-47673380D01*
X28416666Y-47673380D01*
X28511904Y-47721000D01*
X28559523Y-47768619D01*
X28607142Y-47863857D01*
X28607142Y-48006714D01*
X28559523Y-48101952D01*
X28511904Y-48149571D01*
X28416666Y-48197190D01*
X28035714Y-48197190D01*
X28988095Y-47768619D02*
X29035714Y-47721000D01*
X29130952Y-47673380D01*
X29369047Y-47673380D01*
X29464285Y-47721000D01*
X29511904Y-47768619D01*
X29559523Y-47863857D01*
X29559523Y-47959095D01*
X29511904Y-48101952D01*
X28940476Y-48673380D01*
X29559523Y-48673380D01*
X29940476Y-47768619D02*
X29988095Y-47721000D01*
X30083333Y-47673380D01*
X30321428Y-47673380D01*
X30416666Y-47721000D01*
X30464285Y-47768619D01*
X30511904Y-47863857D01*
X30511904Y-47959095D01*
X30464285Y-48101952D01*
X29892857Y-48673380D01*
X30511904Y-48673380D01*
X31881142Y-48673380D02*
X31547809Y-48197190D01*
X31309714Y-48673380D02*
X31309714Y-47673380D01*
X31690666Y-47673380D01*
X31785904Y-47721000D01*
X31833523Y-47768619D01*
X31881142Y-47863857D01*
X31881142Y-48006714D01*
X31833523Y-48101952D01*
X31785904Y-48149571D01*
X31690666Y-48197190D01*
X31309714Y-48197190D01*
X32262095Y-47768619D02*
X32309714Y-47721000D01*
X32404952Y-47673380D01*
X32643047Y-47673380D01*
X32738285Y-47721000D01*
X32785904Y-47768619D01*
X32833523Y-47863857D01*
X32833523Y-47959095D01*
X32785904Y-48101952D01*
X32214476Y-48673380D01*
X32833523Y-48673380D01*
X33785904Y-48673380D02*
X33214476Y-48673380D01*
X33500190Y-48673380D02*
X33500190Y-47673380D01*
X33404952Y-47816238D01*
X33309714Y-47911476D01*
X33214476Y-47959095D01*
X48887142Y-46934380D02*
X48553809Y-46458190D01*
X48315714Y-46934380D02*
X48315714Y-45934380D01*
X48696666Y-45934380D01*
X48791904Y-45982000D01*
X48839523Y-46029619D01*
X48887142Y-46124857D01*
X48887142Y-46267714D01*
X48839523Y-46362952D01*
X48791904Y-46410571D01*
X48696666Y-46458190D01*
X48315714Y-46458190D01*
X49268095Y-46029619D02*
X49315714Y-45982000D01*
X49410952Y-45934380D01*
X49649047Y-45934380D01*
X49744285Y-45982000D01*
X49791904Y-46029619D01*
X49839523Y-46124857D01*
X49839523Y-46220095D01*
X49791904Y-46362952D01*
X49220476Y-46934380D01*
X49839523Y-46934380D01*
X50458571Y-45934380D02*
X50553809Y-45934380D01*
X50649047Y-45982000D01*
X50696666Y-46029619D01*
X50744285Y-46124857D01*
X50791904Y-46315333D01*
X50791904Y-46553428D01*
X50744285Y-46743904D01*
X50696666Y-46839142D01*
X50649047Y-46886761D01*
X50553809Y-46934380D01*
X50458571Y-46934380D01*
X50363333Y-46886761D01*
X50315714Y-46839142D01*
X50268095Y-46743904D01*
X50220476Y-46553428D01*
X50220476Y-46315333D01*
X50268095Y-46124857D01*
X50315714Y-46029619D01*
X50363333Y-45982000D01*
X50458571Y-45934380D01*
X52189142Y-46934380D02*
X51855809Y-46458190D01*
X51617714Y-46934380D02*
X51617714Y-45934380D01*
X51998666Y-45934380D01*
X52093904Y-45982000D01*
X52141523Y-46029619D01*
X52189142Y-46124857D01*
X52189142Y-46267714D01*
X52141523Y-46362952D01*
X52093904Y-46410571D01*
X51998666Y-46458190D01*
X51617714Y-46458190D01*
X53141523Y-46934380D02*
X52570095Y-46934380D01*
X52855809Y-46934380D02*
X52855809Y-45934380D01*
X52760571Y-46077238D01*
X52665333Y-46172476D01*
X52570095Y-46220095D01*
X53617714Y-46934380D02*
X53808190Y-46934380D01*
X53903428Y-46886761D01*
X53951047Y-46839142D01*
X54046285Y-46696285D01*
X54093904Y-46505809D01*
X54093904Y-46124857D01*
X54046285Y-46029619D01*
X53998666Y-45982000D01*
X53903428Y-45934380D01*
X53712952Y-45934380D01*
X53617714Y-45982000D01*
X53570095Y-46029619D01*
X53522476Y-46124857D01*
X53522476Y-46362952D01*
X53570095Y-46458190D01*
X53617714Y-46505809D01*
X53712952Y-46553428D01*
X53903428Y-46553428D01*
X53998666Y-46505809D01*
X54046285Y-46458190D01*
X54093904Y-46362952D01*
X72533580Y-56489457D02*
X72057390Y-56822790D01*
X72533580Y-57060885D02*
X71533580Y-57060885D01*
X71533580Y-56679933D01*
X71581200Y-56584695D01*
X71628819Y-56537076D01*
X71724057Y-56489457D01*
X71866914Y-56489457D01*
X71962152Y-56537076D01*
X72009771Y-56584695D01*
X72057390Y-56679933D01*
X72057390Y-57060885D01*
X72533580Y-55537076D02*
X72533580Y-56108504D01*
X72533580Y-55822790D02*
X71533580Y-55822790D01*
X71676438Y-55918028D01*
X71771676Y-56013266D01*
X71819295Y-56108504D01*
X71962152Y-54965647D02*
X71914533Y-55060885D01*
X71866914Y-55108504D01*
X71771676Y-55156123D01*
X71724057Y-55156123D01*
X71628819Y-55108504D01*
X71581200Y-55060885D01*
X71533580Y-54965647D01*
X71533580Y-54775171D01*
X71581200Y-54679933D01*
X71628819Y-54632314D01*
X71724057Y-54584695D01*
X71771676Y-54584695D01*
X71866914Y-54632314D01*
X71914533Y-54679933D01*
X71962152Y-54775171D01*
X71962152Y-54965647D01*
X72009771Y-55060885D01*
X72057390Y-55108504D01*
X72152628Y-55156123D01*
X72343104Y-55156123D01*
X72438342Y-55108504D01*
X72485961Y-55060885D01*
X72533580Y-54965647D01*
X72533580Y-54775171D01*
X72485961Y-54679933D01*
X72438342Y-54632314D01*
X72343104Y-54584695D01*
X72152628Y-54584695D01*
X72057390Y-54632314D01*
X72009771Y-54679933D01*
X71962152Y-54775171D01*
X61357142Y-32452380D02*
X61023809Y-31976190D01*
X60785714Y-32452380D02*
X60785714Y-31452380D01*
X61166666Y-31452380D01*
X61261904Y-31500000D01*
X61309523Y-31547619D01*
X61357142Y-31642857D01*
X61357142Y-31785714D01*
X61309523Y-31880952D01*
X61261904Y-31928571D01*
X61166666Y-31976190D01*
X60785714Y-31976190D01*
X62309523Y-32452380D02*
X61738095Y-32452380D01*
X62023809Y-32452380D02*
X62023809Y-31452380D01*
X61928571Y-31595238D01*
X61833333Y-31690476D01*
X61738095Y-31738095D01*
X63166666Y-31452380D02*
X62976190Y-31452380D01*
X62880952Y-31500000D01*
X62833333Y-31547619D01*
X62738095Y-31690476D01*
X62690476Y-31880952D01*
X62690476Y-32261904D01*
X62738095Y-32357142D01*
X62785714Y-32404761D01*
X62880952Y-32452380D01*
X63071428Y-32452380D01*
X63166666Y-32404761D01*
X63214285Y-32357142D01*
X63261904Y-32261904D01*
X63261904Y-32023809D01*
X63214285Y-31928571D01*
X63166666Y-31880952D01*
X63071428Y-31833333D01*
X62880952Y-31833333D01*
X62785714Y-31880952D01*
X62738095Y-31928571D01*
X62690476Y-32023809D01*
X76607142Y-31702380D02*
X76273809Y-31226190D01*
X76035714Y-31702380D02*
X76035714Y-30702380D01*
X76416666Y-30702380D01*
X76511904Y-30750000D01*
X76559523Y-30797619D01*
X76607142Y-30892857D01*
X76607142Y-31035714D01*
X76559523Y-31130952D01*
X76511904Y-31178571D01*
X76416666Y-31226190D01*
X76035714Y-31226190D01*
X77559523Y-31702380D02*
X76988095Y-31702380D01*
X77273809Y-31702380D02*
X77273809Y-30702380D01*
X77178571Y-30845238D01*
X77083333Y-30940476D01*
X76988095Y-30988095D01*
X78464285Y-30702380D02*
X77988095Y-30702380D01*
X77940476Y-31178571D01*
X77988095Y-31130952D01*
X78083333Y-31083333D01*
X78321428Y-31083333D01*
X78416666Y-31130952D01*
X78464285Y-31178571D01*
X78511904Y-31273809D01*
X78511904Y-31511904D01*
X78464285Y-31607142D01*
X78416666Y-31654761D01*
X78321428Y-31702380D01*
X78083333Y-31702380D01*
X77988095Y-31654761D01*
X77940476Y-31607142D01*
X61357142Y-30652380D02*
X61023809Y-30176190D01*
X60785714Y-30652380D02*
X60785714Y-29652380D01*
X61166666Y-29652380D01*
X61261904Y-29700000D01*
X61309523Y-29747619D01*
X61357142Y-29842857D01*
X61357142Y-29985714D01*
X61309523Y-30080952D01*
X61261904Y-30128571D01*
X61166666Y-30176190D01*
X60785714Y-30176190D01*
X62309523Y-30652380D02*
X61738095Y-30652380D01*
X62023809Y-30652380D02*
X62023809Y-29652380D01*
X61928571Y-29795238D01*
X61833333Y-29890476D01*
X61738095Y-29938095D01*
X63166666Y-29985714D02*
X63166666Y-30652380D01*
X62928571Y-29604761D02*
X62690476Y-30319047D01*
X63309523Y-30319047D01*
X108704142Y-46299380D02*
X108370809Y-45823190D01*
X108132714Y-46299380D02*
X108132714Y-45299380D01*
X108513666Y-45299380D01*
X108608904Y-45347000D01*
X108656523Y-45394619D01*
X108704142Y-45489857D01*
X108704142Y-45632714D01*
X108656523Y-45727952D01*
X108608904Y-45775571D01*
X108513666Y-45823190D01*
X108132714Y-45823190D01*
X109656523Y-46299380D02*
X109085095Y-46299380D01*
X109370809Y-46299380D02*
X109370809Y-45299380D01*
X109275571Y-45442238D01*
X109180333Y-45537476D01*
X109085095Y-45585095D01*
X109989857Y-45299380D02*
X110608904Y-45299380D01*
X110275571Y-45680333D01*
X110418428Y-45680333D01*
X110513666Y-45727952D01*
X110561285Y-45775571D01*
X110608904Y-45870809D01*
X110608904Y-46108904D01*
X110561285Y-46204142D01*
X110513666Y-46251761D01*
X110418428Y-46299380D01*
X110132714Y-46299380D01*
X110037476Y-46251761D01*
X109989857Y-46204142D01*
X36857142Y-34452380D02*
X36523809Y-33976190D01*
X36285714Y-34452380D02*
X36285714Y-33452380D01*
X36666666Y-33452380D01*
X36761904Y-33500000D01*
X36809523Y-33547619D01*
X36857142Y-33642857D01*
X36857142Y-33785714D01*
X36809523Y-33880952D01*
X36761904Y-33928571D01*
X36666666Y-33976190D01*
X36285714Y-33976190D01*
X37809523Y-34452380D02*
X37238095Y-34452380D01*
X37523809Y-34452380D02*
X37523809Y-33452380D01*
X37428571Y-33595238D01*
X37333333Y-33690476D01*
X37238095Y-33738095D01*
X38761904Y-34452380D02*
X38190476Y-34452380D01*
X38476190Y-34452380D02*
X38476190Y-33452380D01*
X38380952Y-33595238D01*
X38285714Y-33690476D01*
X38190476Y-33738095D01*
X81557142Y-35652380D02*
X81223809Y-35176190D01*
X80985714Y-35652380D02*
X80985714Y-34652380D01*
X81366666Y-34652380D01*
X81461904Y-34700000D01*
X81509523Y-34747619D01*
X81557142Y-34842857D01*
X81557142Y-34985714D01*
X81509523Y-35080952D01*
X81461904Y-35128571D01*
X81366666Y-35176190D01*
X80985714Y-35176190D01*
X82509523Y-35652380D02*
X81938095Y-35652380D01*
X82223809Y-35652380D02*
X82223809Y-34652380D01*
X82128571Y-34795238D01*
X82033333Y-34890476D01*
X81938095Y-34938095D01*
X83128571Y-34652380D02*
X83223809Y-34652380D01*
X83319047Y-34700000D01*
X83366666Y-34747619D01*
X83414285Y-34842857D01*
X83461904Y-35033333D01*
X83461904Y-35271428D01*
X83414285Y-35461904D01*
X83366666Y-35557142D01*
X83319047Y-35604761D01*
X83223809Y-35652380D01*
X83128571Y-35652380D01*
X83033333Y-35604761D01*
X82985714Y-35557142D01*
X82938095Y-35461904D01*
X82890476Y-35271428D01*
X82890476Y-35033333D01*
X82938095Y-34842857D01*
X82985714Y-34747619D01*
X83033333Y-34700000D01*
X83128571Y-34652380D01*
X45452380Y-55666666D02*
X44976190Y-56000000D01*
X45452380Y-56238095D02*
X44452380Y-56238095D01*
X44452380Y-55857142D01*
X44500000Y-55761904D01*
X44547619Y-55714285D01*
X44642857Y-55666666D01*
X44785714Y-55666666D01*
X44880952Y-55714285D01*
X44928571Y-55761904D01*
X44976190Y-55857142D01*
X44976190Y-56238095D01*
X45452380Y-55190476D02*
X45452380Y-55000000D01*
X45404761Y-54904761D01*
X45357142Y-54857142D01*
X45214285Y-54761904D01*
X45023809Y-54714285D01*
X44642857Y-54714285D01*
X44547619Y-54761904D01*
X44500000Y-54809523D01*
X44452380Y-54904761D01*
X44452380Y-55095238D01*
X44500000Y-55190476D01*
X44547619Y-55238095D01*
X44642857Y-55285714D01*
X44880952Y-55285714D01*
X44976190Y-55238095D01*
X45023809Y-55190476D01*
X45071428Y-55095238D01*
X45071428Y-54904761D01*
X45023809Y-54809523D01*
X44976190Y-54761904D01*
X44880952Y-54714285D01*
X32583333Y-55510380D02*
X32250000Y-55034190D01*
X32011904Y-55510380D02*
X32011904Y-54510380D01*
X32392857Y-54510380D01*
X32488095Y-54558000D01*
X32535714Y-54605619D01*
X32583333Y-54700857D01*
X32583333Y-54843714D01*
X32535714Y-54938952D01*
X32488095Y-54986571D01*
X32392857Y-55034190D01*
X32011904Y-55034190D01*
X33154761Y-54938952D02*
X33059523Y-54891333D01*
X33011904Y-54843714D01*
X32964285Y-54748476D01*
X32964285Y-54700857D01*
X33011904Y-54605619D01*
X33059523Y-54558000D01*
X33154761Y-54510380D01*
X33345238Y-54510380D01*
X33440476Y-54558000D01*
X33488095Y-54605619D01*
X33535714Y-54700857D01*
X33535714Y-54748476D01*
X33488095Y-54843714D01*
X33440476Y-54891333D01*
X33345238Y-54938952D01*
X33154761Y-54938952D01*
X33059523Y-54986571D01*
X33011904Y-55034190D01*
X32964285Y-55129428D01*
X32964285Y-55319904D01*
X33011904Y-55415142D01*
X33059523Y-55462761D01*
X33154761Y-55510380D01*
X33345238Y-55510380D01*
X33440476Y-55462761D01*
X33488095Y-55415142D01*
X33535714Y-55319904D01*
X33535714Y-55129428D01*
X33488095Y-55034190D01*
X33440476Y-54986571D01*
X33345238Y-54938952D01*
X65233333Y-30652380D02*
X64900000Y-30176190D01*
X64661904Y-30652380D02*
X64661904Y-29652380D01*
X65042857Y-29652380D01*
X65138095Y-29700000D01*
X65185714Y-29747619D01*
X65233333Y-29842857D01*
X65233333Y-29985714D01*
X65185714Y-30080952D01*
X65138095Y-30128571D01*
X65042857Y-30176190D01*
X64661904Y-30176190D01*
X66090476Y-29652380D02*
X65900000Y-29652380D01*
X65804761Y-29700000D01*
X65757142Y-29747619D01*
X65661904Y-29890476D01*
X65614285Y-30080952D01*
X65614285Y-30461904D01*
X65661904Y-30557142D01*
X65709523Y-30604761D01*
X65804761Y-30652380D01*
X65995238Y-30652380D01*
X66090476Y-30604761D01*
X66138095Y-30557142D01*
X66185714Y-30461904D01*
X66185714Y-30223809D01*
X66138095Y-30128571D01*
X66090476Y-30080952D01*
X65995238Y-30033333D01*
X65804761Y-30033333D01*
X65709523Y-30080952D01*
X65661904Y-30128571D01*
X65614285Y-30223809D01*
X66452380Y-25416666D02*
X65976190Y-25750000D01*
X66452380Y-25988095D02*
X65452380Y-25988095D01*
X65452380Y-25607142D01*
X65500000Y-25511904D01*
X65547619Y-25464285D01*
X65642857Y-25416666D01*
X65785714Y-25416666D01*
X65880952Y-25464285D01*
X65928571Y-25511904D01*
X65976190Y-25607142D01*
X65976190Y-25988095D01*
X65452380Y-24511904D02*
X65452380Y-24988095D01*
X65928571Y-25035714D01*
X65880952Y-24988095D01*
X65833333Y-24892857D01*
X65833333Y-24654761D01*
X65880952Y-24559523D01*
X65928571Y-24511904D01*
X66023809Y-24464285D01*
X66261904Y-24464285D01*
X66357142Y-24511904D01*
X66404761Y-24559523D01*
X66452380Y-24654761D01*
X66452380Y-24892857D01*
X66404761Y-24988095D01*
X66357142Y-25035714D01*
X65233333Y-32452380D02*
X64900000Y-31976190D01*
X64661904Y-32452380D02*
X64661904Y-31452380D01*
X65042857Y-31452380D01*
X65138095Y-31500000D01*
X65185714Y-31547619D01*
X65233333Y-31642857D01*
X65233333Y-31785714D01*
X65185714Y-31880952D01*
X65138095Y-31928571D01*
X65042857Y-31976190D01*
X64661904Y-31976190D01*
X66090476Y-31785714D02*
X66090476Y-32452380D01*
X65852380Y-31404761D02*
X65614285Y-32119047D01*
X66233333Y-32119047D01*
X32583333Y-53202380D02*
X32250000Y-52726190D01*
X32011904Y-53202380D02*
X32011904Y-52202380D01*
X32392857Y-52202380D01*
X32488095Y-52250000D01*
X32535714Y-52297619D01*
X32583333Y-52392857D01*
X32583333Y-52535714D01*
X32535714Y-52630952D01*
X32488095Y-52678571D01*
X32392857Y-52726190D01*
X32011904Y-52726190D01*
X32916666Y-52202380D02*
X33535714Y-52202380D01*
X33202380Y-52583333D01*
X33345238Y-52583333D01*
X33440476Y-52630952D01*
X33488095Y-52678571D01*
X33535714Y-52773809D01*
X33535714Y-53011904D01*
X33488095Y-53107142D01*
X33440476Y-53154761D01*
X33345238Y-53202380D01*
X33059523Y-53202380D01*
X32964285Y-53154761D01*
X32916666Y-53107142D01*
X37333333Y-39952380D02*
X37000000Y-39476190D01*
X36761904Y-39952380D02*
X36761904Y-38952380D01*
X37142857Y-38952380D01*
X37238095Y-39000000D01*
X37285714Y-39047619D01*
X37333333Y-39142857D01*
X37333333Y-39285714D01*
X37285714Y-39380952D01*
X37238095Y-39428571D01*
X37142857Y-39476190D01*
X36761904Y-39476190D01*
X38285714Y-39952380D02*
X37714285Y-39952380D01*
X38000000Y-39952380D02*
X38000000Y-38952380D01*
X37904761Y-39095238D01*
X37809523Y-39190476D01*
X37714285Y-39238095D01*
X44904066Y-22363180D02*
X44904066Y-23077466D01*
X44856447Y-23220323D01*
X44761209Y-23315561D01*
X44618352Y-23363180D01*
X44523114Y-23363180D01*
X45285019Y-22363180D02*
X45951685Y-22363180D01*
X45523114Y-23363180D01*
X58238095Y-24052380D02*
X58238095Y-24861904D01*
X58285714Y-24957142D01*
X58333333Y-25004761D01*
X58428571Y-25052380D01*
X58619047Y-25052380D01*
X58714285Y-25004761D01*
X58761904Y-24957142D01*
X58809523Y-24861904D01*
X58809523Y-24052380D01*
X59238095Y-24147619D02*
X59285714Y-24100000D01*
X59380952Y-24052380D01*
X59619047Y-24052380D01*
X59714285Y-24100000D01*
X59761904Y-24147619D01*
X59809523Y-24242857D01*
X59809523Y-24338095D01*
X59761904Y-24480952D01*
X59190476Y-25052380D01*
X59809523Y-25052380D01*
X73565580Y-57132314D02*
X73565580Y-56560885D01*
X74565580Y-56846600D02*
X73565580Y-56846600D01*
X74565580Y-56227552D02*
X73565580Y-56227552D01*
X74041771Y-56227552D02*
X74041771Y-55656123D01*
X74565580Y-55656123D02*
X73565580Y-55656123D01*
X74565580Y-54656123D02*
X74565580Y-55227552D01*
X74565580Y-54941838D02*
X73565580Y-54941838D01*
X73708438Y-55037076D01*
X73803676Y-55132314D01*
X73851295Y-55227552D01*
X61158380Y-55919666D02*
X61158380Y-56395857D01*
X60158380Y-56395857D01*
X60253619Y-55633952D02*
X60206000Y-55586333D01*
X60158380Y-55491095D01*
X60158380Y-55253000D01*
X60206000Y-55157761D01*
X60253619Y-55110142D01*
X60348857Y-55062523D01*
X60444095Y-55062523D01*
X60586952Y-55110142D01*
X61158380Y-55681571D01*
X61158380Y-55062523D01*
X58110380Y-37250666D02*
X58110380Y-37726857D01*
X57110380Y-37726857D01*
X58110380Y-36393523D02*
X58110380Y-36964952D01*
X58110380Y-36679238D02*
X57110380Y-36679238D01*
X57253238Y-36774476D01*
X57348476Y-36869714D01*
X57396095Y-36964952D01*
X53252380Y-53062095D02*
X52252380Y-53062095D01*
X52252380Y-52824000D01*
X52300000Y-52681142D01*
X52395238Y-52585904D01*
X52490476Y-52538285D01*
X52680952Y-52490666D01*
X52823809Y-52490666D01*
X53014285Y-52538285D01*
X53109523Y-52585904D01*
X53204761Y-52681142D01*
X53252380Y-52824000D01*
X53252380Y-53062095D01*
X52252380Y-51633523D02*
X52252380Y-51824000D01*
X52300000Y-51919238D01*
X52347619Y-51966857D01*
X52490476Y-52062095D01*
X52680952Y-52109714D01*
X53061904Y-52109714D01*
X53157142Y-52062095D01*
X53204761Y-52014476D01*
X53252380Y-51919238D01*
X53252380Y-51728761D01*
X53204761Y-51633523D01*
X53157142Y-51585904D01*
X53061904Y-51538285D01*
X52823809Y-51538285D01*
X52728571Y-51585904D01*
X52680952Y-51633523D01*
X52633333Y-51728761D01*
X52633333Y-51919238D01*
X52680952Y-52014476D01*
X52728571Y-52062095D01*
X52823809Y-52109714D01*
X51792380Y-53062095D02*
X50792380Y-53062095D01*
X50792380Y-52824000D01*
X50840000Y-52681142D01*
X50935238Y-52585904D01*
X51030476Y-52538285D01*
X51220952Y-52490666D01*
X51363809Y-52490666D01*
X51554285Y-52538285D01*
X51649523Y-52585904D01*
X51744761Y-52681142D01*
X51792380Y-52824000D01*
X51792380Y-53062095D01*
X50792380Y-51585904D02*
X50792380Y-52062095D01*
X51268571Y-52109714D01*
X51220952Y-52062095D01*
X51173333Y-51966857D01*
X51173333Y-51728761D01*
X51220952Y-51633523D01*
X51268571Y-51585904D01*
X51363809Y-51538285D01*
X51601904Y-51538285D01*
X51697142Y-51585904D01*
X51744761Y-51633523D01*
X51792380Y-51728761D01*
X51792380Y-51966857D01*
X51744761Y-52062095D01*
X51697142Y-52109714D01*
X53252380Y-43918095D02*
X52252380Y-43918095D01*
X52252380Y-43680000D01*
X52300000Y-43537142D01*
X52395238Y-43441904D01*
X52490476Y-43394285D01*
X52680952Y-43346666D01*
X52823809Y-43346666D01*
X53014285Y-43394285D01*
X53109523Y-43441904D01*
X53204761Y-43537142D01*
X53252380Y-43680000D01*
X53252380Y-43918095D01*
X52252380Y-43013333D02*
X52252380Y-42394285D01*
X52633333Y-42727619D01*
X52633333Y-42584761D01*
X52680952Y-42489523D01*
X52728571Y-42441904D01*
X52823809Y-42394285D01*
X53061904Y-42394285D01*
X53157142Y-42441904D01*
X53204761Y-42489523D01*
X53252380Y-42584761D01*
X53252380Y-42870476D01*
X53204761Y-42965714D01*
X53157142Y-43013333D01*
X51792380Y-43918095D02*
X50792380Y-43918095D01*
X50792380Y-43680000D01*
X50840000Y-43537142D01*
X50935238Y-43441904D01*
X51030476Y-43394285D01*
X51220952Y-43346666D01*
X51363809Y-43346666D01*
X51554285Y-43394285D01*
X51649523Y-43441904D01*
X51744761Y-43537142D01*
X51792380Y-43680000D01*
X51792380Y-43918095D01*
X50887619Y-42965714D02*
X50840000Y-42918095D01*
X50792380Y-42822857D01*
X50792380Y-42584761D01*
X50840000Y-42489523D01*
X50887619Y-42441904D01*
X50982857Y-42394285D01*
X51078095Y-42394285D01*
X51220952Y-42441904D01*
X51792380Y-43013333D01*
X51792380Y-42394285D01*
X66714380Y-38076095D02*
X65714380Y-38076095D01*
X65714380Y-37838000D01*
X65762000Y-37695142D01*
X65857238Y-37599904D01*
X65952476Y-37552285D01*
X66142952Y-37504666D01*
X66285809Y-37504666D01*
X66476285Y-37552285D01*
X66571523Y-37599904D01*
X66666761Y-37695142D01*
X66714380Y-37838000D01*
X66714380Y-38076095D01*
X66714380Y-36552285D02*
X66714380Y-37123714D01*
X66714380Y-36838000D02*
X65714380Y-36838000D01*
X65857238Y-36933238D01*
X65952476Y-37028476D01*
X66000095Y-37123714D01*
X113335142Y-53821142D02*
X113287523Y-53868761D01*
X113144666Y-53916380D01*
X113049428Y-53916380D01*
X112906571Y-53868761D01*
X112811333Y-53773523D01*
X112763714Y-53678285D01*
X112716095Y-53487809D01*
X112716095Y-53344952D01*
X112763714Y-53154476D01*
X112811333Y-53059238D01*
X112906571Y-52964000D01*
X113049428Y-52916380D01*
X113144666Y-52916380D01*
X113287523Y-52964000D01*
X113335142Y-53011619D01*
X113668476Y-52916380D02*
X114287523Y-52916380D01*
X113954190Y-53297333D01*
X114097047Y-53297333D01*
X114192285Y-53344952D01*
X114239904Y-53392571D01*
X114287523Y-53487809D01*
X114287523Y-53725904D01*
X114239904Y-53821142D01*
X114192285Y-53868761D01*
X114097047Y-53916380D01*
X113811333Y-53916380D01*
X113716095Y-53868761D01*
X113668476Y-53821142D01*
X114858952Y-53344952D02*
X114763714Y-53297333D01*
X114716095Y-53249714D01*
X114668476Y-53154476D01*
X114668476Y-53106857D01*
X114716095Y-53011619D01*
X114763714Y-52964000D01*
X114858952Y-52916380D01*
X115049428Y-52916380D01*
X115144666Y-52964000D01*
X115192285Y-53011619D01*
X115239904Y-53106857D01*
X115239904Y-53154476D01*
X115192285Y-53249714D01*
X115144666Y-53297333D01*
X115049428Y-53344952D01*
X114858952Y-53344952D01*
X114763714Y-53392571D01*
X114716095Y-53440190D01*
X114668476Y-53535428D01*
X114668476Y-53725904D01*
X114716095Y-53821142D01*
X114763714Y-53868761D01*
X114858952Y-53916380D01*
X115049428Y-53916380D01*
X115144666Y-53868761D01*
X115192285Y-53821142D01*
X115239904Y-53725904D01*
X115239904Y-53535428D01*
X115192285Y-53440190D01*
X115144666Y-53392571D01*
X115049428Y-53344952D01*
X113357142Y-49741142D02*
X113309523Y-49788761D01*
X113166666Y-49836380D01*
X113071428Y-49836380D01*
X112928571Y-49788761D01*
X112833333Y-49693523D01*
X112785714Y-49598285D01*
X112738095Y-49407809D01*
X112738095Y-49264952D01*
X112785714Y-49074476D01*
X112833333Y-48979238D01*
X112928571Y-48884000D01*
X113071428Y-48836380D01*
X113166666Y-48836380D01*
X113309523Y-48884000D01*
X113357142Y-48931619D01*
X113690476Y-48836380D02*
X114309523Y-48836380D01*
X113976190Y-49217333D01*
X114119047Y-49217333D01*
X114214285Y-49264952D01*
X114261904Y-49312571D01*
X114309523Y-49407809D01*
X114309523Y-49645904D01*
X114261904Y-49741142D01*
X114214285Y-49788761D01*
X114119047Y-49836380D01*
X113833333Y-49836380D01*
X113738095Y-49788761D01*
X113690476Y-49741142D01*
X114642857Y-48836380D02*
X115309523Y-48836380D01*
X114880952Y-49836380D01*
X120908142Y-52565142D02*
X120860523Y-52612761D01*
X120717666Y-52660380D01*
X120622428Y-52660380D01*
X120479571Y-52612761D01*
X120384333Y-52517523D01*
X120336714Y-52422285D01*
X120289095Y-52231809D01*
X120289095Y-52088952D01*
X120336714Y-51898476D01*
X120384333Y-51803238D01*
X120479571Y-51708000D01*
X120622428Y-51660380D01*
X120717666Y-51660380D01*
X120860523Y-51708000D01*
X120908142Y-51755619D01*
X121241476Y-51660380D02*
X121860523Y-51660380D01*
X121527190Y-52041333D01*
X121670047Y-52041333D01*
X121765285Y-52088952D01*
X121812904Y-52136571D01*
X121860523Y-52231809D01*
X121860523Y-52469904D01*
X121812904Y-52565142D01*
X121765285Y-52612761D01*
X121670047Y-52660380D01*
X121384333Y-52660380D01*
X121289095Y-52612761D01*
X121241476Y-52565142D01*
X122717666Y-51660380D02*
X122527190Y-51660380D01*
X122431952Y-51708000D01*
X122384333Y-51755619D01*
X122289095Y-51898476D01*
X122241476Y-52088952D01*
X122241476Y-52469904D01*
X122289095Y-52565142D01*
X122336714Y-52612761D01*
X122431952Y-52660380D01*
X122622428Y-52660380D01*
X122717666Y-52612761D01*
X122765285Y-52565142D01*
X122812904Y-52469904D01*
X122812904Y-52231809D01*
X122765285Y-52136571D01*
X122717666Y-52088952D01*
X122622428Y-52041333D01*
X122431952Y-52041333D01*
X122336714Y-52088952D01*
X122289095Y-52136571D01*
X122241476Y-52231809D01*
X113285142Y-45927142D02*
X113237523Y-45974761D01*
X113094666Y-46022380D01*
X112999428Y-46022380D01*
X112856571Y-45974761D01*
X112761333Y-45879523D01*
X112713714Y-45784285D01*
X112666095Y-45593809D01*
X112666095Y-45450952D01*
X112713714Y-45260476D01*
X112761333Y-45165238D01*
X112856571Y-45070000D01*
X112999428Y-45022380D01*
X113094666Y-45022380D01*
X113237523Y-45070000D01*
X113285142Y-45117619D01*
X113618476Y-45022380D02*
X114237523Y-45022380D01*
X113904190Y-45403333D01*
X114047047Y-45403333D01*
X114142285Y-45450952D01*
X114189904Y-45498571D01*
X114237523Y-45593809D01*
X114237523Y-45831904D01*
X114189904Y-45927142D01*
X114142285Y-45974761D01*
X114047047Y-46022380D01*
X113761333Y-46022380D01*
X113666095Y-45974761D01*
X113618476Y-45927142D01*
X115142285Y-45022380D02*
X114666095Y-45022380D01*
X114618476Y-45498571D01*
X114666095Y-45450952D01*
X114761333Y-45403333D01*
X114999428Y-45403333D01*
X115094666Y-45450952D01*
X115142285Y-45498571D01*
X115189904Y-45593809D01*
X115189904Y-45831904D01*
X115142285Y-45927142D01*
X115094666Y-45974761D01*
X114999428Y-46022380D01*
X114761333Y-46022380D01*
X114666095Y-45974761D01*
X114618476Y-45927142D01*
X120908142Y-56629142D02*
X120860523Y-56676761D01*
X120717666Y-56724380D01*
X120622428Y-56724380D01*
X120479571Y-56676761D01*
X120384333Y-56581523D01*
X120336714Y-56486285D01*
X120289095Y-56295809D01*
X120289095Y-56152952D01*
X120336714Y-55962476D01*
X120384333Y-55867238D01*
X120479571Y-55772000D01*
X120622428Y-55724380D01*
X120717666Y-55724380D01*
X120860523Y-55772000D01*
X120908142Y-55819619D01*
X121241476Y-55724380D02*
X121860523Y-55724380D01*
X121527190Y-56105333D01*
X121670047Y-56105333D01*
X121765285Y-56152952D01*
X121812904Y-56200571D01*
X121860523Y-56295809D01*
X121860523Y-56533904D01*
X121812904Y-56629142D01*
X121765285Y-56676761D01*
X121670047Y-56724380D01*
X121384333Y-56724380D01*
X121289095Y-56676761D01*
X121241476Y-56629142D01*
X122717666Y-56057714D02*
X122717666Y-56724380D01*
X122479571Y-55676761D02*
X122241476Y-56391047D01*
X122860523Y-56391047D01*
X46855142Y-51157142D02*
X46807523Y-51204761D01*
X46664666Y-51252380D01*
X46569428Y-51252380D01*
X46426571Y-51204761D01*
X46331333Y-51109523D01*
X46283714Y-51014285D01*
X46236095Y-50823809D01*
X46236095Y-50680952D01*
X46283714Y-50490476D01*
X46331333Y-50395238D01*
X46426571Y-50300000D01*
X46569428Y-50252380D01*
X46664666Y-50252380D01*
X46807523Y-50300000D01*
X46855142Y-50347619D01*
X47188476Y-50252380D02*
X47807523Y-50252380D01*
X47474190Y-50633333D01*
X47617047Y-50633333D01*
X47712285Y-50680952D01*
X47759904Y-50728571D01*
X47807523Y-50823809D01*
X47807523Y-51061904D01*
X47759904Y-51157142D01*
X47712285Y-51204761D01*
X47617047Y-51252380D01*
X47331333Y-51252380D01*
X47236095Y-51204761D01*
X47188476Y-51157142D01*
X48140857Y-50252380D02*
X48759904Y-50252380D01*
X48426571Y-50633333D01*
X48569428Y-50633333D01*
X48664666Y-50680952D01*
X48712285Y-50728571D01*
X48759904Y-50823809D01*
X48759904Y-51061904D01*
X48712285Y-51157142D01*
X48664666Y-51204761D01*
X48569428Y-51252380D01*
X48283714Y-51252380D01*
X48188476Y-51204761D01*
X48140857Y-51157142D01*
X55745142Y-48617142D02*
X55697523Y-48664761D01*
X55554666Y-48712380D01*
X55459428Y-48712380D01*
X55316571Y-48664761D01*
X55221333Y-48569523D01*
X55173714Y-48474285D01*
X55126095Y-48283809D01*
X55126095Y-48140952D01*
X55173714Y-47950476D01*
X55221333Y-47855238D01*
X55316571Y-47760000D01*
X55459428Y-47712380D01*
X55554666Y-47712380D01*
X55697523Y-47760000D01*
X55745142Y-47807619D01*
X56126095Y-47807619D02*
X56173714Y-47760000D01*
X56268952Y-47712380D01*
X56507047Y-47712380D01*
X56602285Y-47760000D01*
X56649904Y-47807619D01*
X56697523Y-47902857D01*
X56697523Y-47998095D01*
X56649904Y-48140952D01*
X56078476Y-48712380D01*
X56697523Y-48712380D01*
X57173714Y-48712380D02*
X57364190Y-48712380D01*
X57459428Y-48664761D01*
X57507047Y-48617142D01*
X57602285Y-48474285D01*
X57649904Y-48283809D01*
X57649904Y-47902857D01*
X57602285Y-47807619D01*
X57554666Y-47760000D01*
X57459428Y-47712380D01*
X57268952Y-47712380D01*
X57173714Y-47760000D01*
X57126095Y-47807619D01*
X57078476Y-47902857D01*
X57078476Y-48140952D01*
X57126095Y-48236190D01*
X57173714Y-48283809D01*
X57268952Y-48331428D01*
X57459428Y-48331428D01*
X57554666Y-48283809D01*
X57602285Y-48236190D01*
X57649904Y-48140952D01*
X46855142Y-44807142D02*
X46807523Y-44854761D01*
X46664666Y-44902380D01*
X46569428Y-44902380D01*
X46426571Y-44854761D01*
X46331333Y-44759523D01*
X46283714Y-44664285D01*
X46236095Y-44473809D01*
X46236095Y-44330952D01*
X46283714Y-44140476D01*
X46331333Y-44045238D01*
X46426571Y-43950000D01*
X46569428Y-43902380D01*
X46664666Y-43902380D01*
X46807523Y-43950000D01*
X46855142Y-43997619D01*
X47236095Y-43997619D02*
X47283714Y-43950000D01*
X47378952Y-43902380D01*
X47617047Y-43902380D01*
X47712285Y-43950000D01*
X47759904Y-43997619D01*
X47807523Y-44092857D01*
X47807523Y-44188095D01*
X47759904Y-44330952D01*
X47188476Y-44902380D01*
X47807523Y-44902380D01*
X48140857Y-43902380D02*
X48807523Y-43902380D01*
X48378952Y-44902380D01*
X55745142Y-51030142D02*
X55697523Y-51077761D01*
X55554666Y-51125380D01*
X55459428Y-51125380D01*
X55316571Y-51077761D01*
X55221333Y-50982523D01*
X55173714Y-50887285D01*
X55126095Y-50696809D01*
X55126095Y-50553952D01*
X55173714Y-50363476D01*
X55221333Y-50268238D01*
X55316571Y-50173000D01*
X55459428Y-50125380D01*
X55554666Y-50125380D01*
X55697523Y-50173000D01*
X55745142Y-50220619D01*
X56126095Y-50220619D02*
X56173714Y-50173000D01*
X56268952Y-50125380D01*
X56507047Y-50125380D01*
X56602285Y-50173000D01*
X56649904Y-50220619D01*
X56697523Y-50315857D01*
X56697523Y-50411095D01*
X56649904Y-50553952D01*
X56078476Y-51125380D01*
X56697523Y-51125380D01*
X57602285Y-50125380D02*
X57126095Y-50125380D01*
X57078476Y-50601571D01*
X57126095Y-50553952D01*
X57221333Y-50506333D01*
X57459428Y-50506333D01*
X57554666Y-50553952D01*
X57602285Y-50601571D01*
X57649904Y-50696809D01*
X57649904Y-50934904D01*
X57602285Y-51030142D01*
X57554666Y-51077761D01*
X57459428Y-51125380D01*
X57221333Y-51125380D01*
X57126095Y-51077761D01*
X57078476Y-51030142D01*
X28557142Y-50557142D02*
X28509523Y-50604761D01*
X28366666Y-50652380D01*
X28271428Y-50652380D01*
X28128571Y-50604761D01*
X28033333Y-50509523D01*
X27985714Y-50414285D01*
X27938095Y-50223809D01*
X27938095Y-50080952D01*
X27985714Y-49890476D01*
X28033333Y-49795238D01*
X28128571Y-49700000D01*
X28271428Y-49652380D01*
X28366666Y-49652380D01*
X28509523Y-49700000D01*
X28557142Y-49747619D01*
X28938095Y-49747619D02*
X28985714Y-49700000D01*
X29080952Y-49652380D01*
X29319047Y-49652380D01*
X29414285Y-49700000D01*
X29461904Y-49747619D01*
X29509523Y-49842857D01*
X29509523Y-49938095D01*
X29461904Y-50080952D01*
X28890476Y-50652380D01*
X29509523Y-50652380D01*
X29842857Y-49652380D02*
X30461904Y-49652380D01*
X30128571Y-50033333D01*
X30271428Y-50033333D01*
X30366666Y-50080952D01*
X30414285Y-50128571D01*
X30461904Y-50223809D01*
X30461904Y-50461904D01*
X30414285Y-50557142D01*
X30366666Y-50604761D01*
X30271428Y-50652380D01*
X29985714Y-50652380D01*
X29890476Y-50604761D01*
X29842857Y-50557142D01*
X32357142Y-50557142D02*
X32309523Y-50604761D01*
X32166666Y-50652380D01*
X32071428Y-50652380D01*
X31928571Y-50604761D01*
X31833333Y-50509523D01*
X31785714Y-50414285D01*
X31738095Y-50223809D01*
X31738095Y-50080952D01*
X31785714Y-49890476D01*
X31833333Y-49795238D01*
X31928571Y-49700000D01*
X32071428Y-49652380D01*
X32166666Y-49652380D01*
X32309523Y-49700000D01*
X32357142Y-49747619D01*
X32738095Y-49747619D02*
X32785714Y-49700000D01*
X32880952Y-49652380D01*
X33119047Y-49652380D01*
X33214285Y-49700000D01*
X33261904Y-49747619D01*
X33309523Y-49842857D01*
X33309523Y-49938095D01*
X33261904Y-50080952D01*
X32690476Y-50652380D01*
X33309523Y-50652380D01*
X33690476Y-49747619D02*
X33738095Y-49700000D01*
X33833333Y-49652380D01*
X34071428Y-49652380D01*
X34166666Y-49700000D01*
X34214285Y-49747619D01*
X34261904Y-49842857D01*
X34261904Y-49938095D01*
X34214285Y-50080952D01*
X33642857Y-50652380D01*
X34261904Y-50652380D01*
X55745142Y-43410142D02*
X55697523Y-43457761D01*
X55554666Y-43505380D01*
X55459428Y-43505380D01*
X55316571Y-43457761D01*
X55221333Y-43362523D01*
X55173714Y-43267285D01*
X55126095Y-43076809D01*
X55126095Y-42933952D01*
X55173714Y-42743476D01*
X55221333Y-42648238D01*
X55316571Y-42553000D01*
X55459428Y-42505380D01*
X55554666Y-42505380D01*
X55697523Y-42553000D01*
X55745142Y-42600619D01*
X56126095Y-42600619D02*
X56173714Y-42553000D01*
X56268952Y-42505380D01*
X56507047Y-42505380D01*
X56602285Y-42553000D01*
X56649904Y-42600619D01*
X56697523Y-42695857D01*
X56697523Y-42791095D01*
X56649904Y-42933952D01*
X56078476Y-43505380D01*
X56697523Y-43505380D01*
X57316571Y-42505380D02*
X57411809Y-42505380D01*
X57507047Y-42553000D01*
X57554666Y-42600619D01*
X57602285Y-42695857D01*
X57649904Y-42886333D01*
X57649904Y-43124428D01*
X57602285Y-43314904D01*
X57554666Y-43410142D01*
X57507047Y-43457761D01*
X57411809Y-43505380D01*
X57316571Y-43505380D01*
X57221333Y-43457761D01*
X57173714Y-43410142D01*
X57126095Y-43314904D01*
X57078476Y-43124428D01*
X57078476Y-42886333D01*
X57126095Y-42695857D01*
X57173714Y-42600619D01*
X57221333Y-42553000D01*
X57316571Y-42505380D01*
X81357142Y-27757142D02*
X81309523Y-27804761D01*
X81166666Y-27852380D01*
X81071428Y-27852380D01*
X80928571Y-27804761D01*
X80833333Y-27709523D01*
X80785714Y-27614285D01*
X80738095Y-27423809D01*
X80738095Y-27280952D01*
X80785714Y-27090476D01*
X80833333Y-26995238D01*
X80928571Y-26900000D01*
X81071428Y-26852380D01*
X81166666Y-26852380D01*
X81309523Y-26900000D01*
X81357142Y-26947619D01*
X82309523Y-27852380D02*
X81738095Y-27852380D01*
X82023809Y-27852380D02*
X82023809Y-26852380D01*
X81928571Y-26995238D01*
X81833333Y-27090476D01*
X81738095Y-27138095D01*
X82880952Y-27280952D02*
X82785714Y-27233333D01*
X82738095Y-27185714D01*
X82690476Y-27090476D01*
X82690476Y-27042857D01*
X82738095Y-26947619D01*
X82785714Y-26900000D01*
X82880952Y-26852380D01*
X83071428Y-26852380D01*
X83166666Y-26900000D01*
X83214285Y-26947619D01*
X83261904Y-27042857D01*
X83261904Y-27090476D01*
X83214285Y-27185714D01*
X83166666Y-27233333D01*
X83071428Y-27280952D01*
X82880952Y-27280952D01*
X82785714Y-27328571D01*
X82738095Y-27376190D01*
X82690476Y-27471428D01*
X82690476Y-27661904D01*
X82738095Y-27757142D01*
X82785714Y-27804761D01*
X82880952Y-27852380D01*
X83071428Y-27852380D01*
X83166666Y-27804761D01*
X83214285Y-27757142D01*
X83261904Y-27661904D01*
X83261904Y-27471428D01*
X83214285Y-27376190D01*
X83166666Y-27328571D01*
X83071428Y-27280952D01*
X35357142Y-31857142D02*
X35309523Y-31904761D01*
X35166666Y-31952380D01*
X35071428Y-31952380D01*
X34928571Y-31904761D01*
X34833333Y-31809523D01*
X34785714Y-31714285D01*
X34738095Y-31523809D01*
X34738095Y-31380952D01*
X34785714Y-31190476D01*
X34833333Y-31095238D01*
X34928571Y-31000000D01*
X35071428Y-30952380D01*
X35166666Y-30952380D01*
X35309523Y-31000000D01*
X35357142Y-31047619D01*
X36309523Y-31952380D02*
X35738095Y-31952380D01*
X36023809Y-31952380D02*
X36023809Y-30952380D01*
X35928571Y-31095238D01*
X35833333Y-31190476D01*
X35738095Y-31238095D01*
X37166666Y-30952380D02*
X36976190Y-30952380D01*
X36880952Y-31000000D01*
X36833333Y-31047619D01*
X36738095Y-31190476D01*
X36690476Y-31380952D01*
X36690476Y-31761904D01*
X36738095Y-31857142D01*
X36785714Y-31904761D01*
X36880952Y-31952380D01*
X37071428Y-31952380D01*
X37166666Y-31904761D01*
X37214285Y-31857142D01*
X37261904Y-31761904D01*
X37261904Y-31523809D01*
X37214285Y-31428571D01*
X37166666Y-31380952D01*
X37071428Y-31333333D01*
X36880952Y-31333333D01*
X36785714Y-31380952D01*
X36738095Y-31428571D01*
X36690476Y-31523809D01*
X81357142Y-33557142D02*
X81309523Y-33604761D01*
X81166666Y-33652380D01*
X81071428Y-33652380D01*
X80928571Y-33604761D01*
X80833333Y-33509523D01*
X80785714Y-33414285D01*
X80738095Y-33223809D01*
X80738095Y-33080952D01*
X80785714Y-32890476D01*
X80833333Y-32795238D01*
X80928571Y-32700000D01*
X81071428Y-32652380D01*
X81166666Y-32652380D01*
X81309523Y-32700000D01*
X81357142Y-32747619D01*
X82309523Y-33652380D02*
X81738095Y-33652380D01*
X82023809Y-33652380D02*
X82023809Y-32652380D01*
X81928571Y-32795238D01*
X81833333Y-32890476D01*
X81738095Y-32938095D01*
X83214285Y-32652380D02*
X82738095Y-32652380D01*
X82690476Y-33128571D01*
X82738095Y-33080952D01*
X82833333Y-33033333D01*
X83071428Y-33033333D01*
X83166666Y-33080952D01*
X83214285Y-33128571D01*
X83261904Y-33223809D01*
X83261904Y-33461904D01*
X83214285Y-33557142D01*
X83166666Y-33604761D01*
X83071428Y-33652380D01*
X82833333Y-33652380D01*
X82738095Y-33604761D01*
X82690476Y-33557142D01*
X28157142Y-45350357D02*
X28204761Y-45397976D01*
X28252380Y-45540833D01*
X28252380Y-45636071D01*
X28204761Y-45778928D01*
X28109523Y-45874166D01*
X28014285Y-45921785D01*
X27823809Y-45969404D01*
X27680952Y-45969404D01*
X27490476Y-45921785D01*
X27395238Y-45874166D01*
X27300000Y-45778928D01*
X27252380Y-45636071D01*
X27252380Y-45540833D01*
X27300000Y-45397976D01*
X27347619Y-45350357D01*
X28252380Y-44397976D02*
X28252380Y-44969404D01*
X28252380Y-44683690D02*
X27252380Y-44683690D01*
X27395238Y-44778928D01*
X27490476Y-44874166D01*
X27538095Y-44969404D01*
X27585714Y-43540833D02*
X28252380Y-43540833D01*
X27204761Y-43778928D02*
X27919047Y-44017023D01*
X27919047Y-43397976D01*
X34157142Y-45442857D02*
X34204761Y-45490476D01*
X34252380Y-45633333D01*
X34252380Y-45728571D01*
X34204761Y-45871428D01*
X34109523Y-45966666D01*
X34014285Y-46014285D01*
X33823809Y-46061904D01*
X33680952Y-46061904D01*
X33490476Y-46014285D01*
X33395238Y-45966666D01*
X33300000Y-45871428D01*
X33252380Y-45728571D01*
X33252380Y-45633333D01*
X33300000Y-45490476D01*
X33347619Y-45442857D01*
X34252380Y-44490476D02*
X34252380Y-45061904D01*
X34252380Y-44776190D02*
X33252380Y-44776190D01*
X33395238Y-44871428D01*
X33490476Y-44966666D01*
X33538095Y-45061904D01*
X33252380Y-44157142D02*
X33252380Y-43538095D01*
X33633333Y-43871428D01*
X33633333Y-43728571D01*
X33680952Y-43633333D01*
X33728571Y-43585714D01*
X33823809Y-43538095D01*
X34061904Y-43538095D01*
X34157142Y-43585714D01*
X34204761Y-43633333D01*
X34252380Y-43728571D01*
X34252380Y-44014285D01*
X34204761Y-44109523D01*
X34157142Y-44157142D01*
X52107142Y-36642857D02*
X52154761Y-36690476D01*
X52202380Y-36833333D01*
X52202380Y-36928571D01*
X52154761Y-37071428D01*
X52059523Y-37166666D01*
X51964285Y-37214285D01*
X51773809Y-37261904D01*
X51630952Y-37261904D01*
X51440476Y-37214285D01*
X51345238Y-37166666D01*
X51250000Y-37071428D01*
X51202380Y-36928571D01*
X51202380Y-36833333D01*
X51250000Y-36690476D01*
X51297619Y-36642857D01*
X52202380Y-35690476D02*
X52202380Y-36261904D01*
X52202380Y-35976190D02*
X51202380Y-35976190D01*
X51345238Y-36071428D01*
X51440476Y-36166666D01*
X51488095Y-36261904D01*
X51202380Y-35071428D02*
X51202380Y-34976190D01*
X51250000Y-34880952D01*
X51297619Y-34833333D01*
X51392857Y-34785714D01*
X51583333Y-34738095D01*
X51821428Y-34738095D01*
X52011904Y-34785714D01*
X52107142Y-34833333D01*
X52154761Y-34880952D01*
X52202380Y-34976190D01*
X52202380Y-35071428D01*
X52154761Y-35166666D01*
X52107142Y-35214285D01*
X52011904Y-35261904D01*
X51821428Y-35309523D01*
X51583333Y-35309523D01*
X51392857Y-35261904D01*
X51297619Y-35214285D01*
X51250000Y-35166666D01*
X51202380Y-35071428D01*
X73493333Y-43283142D02*
X73445714Y-43330761D01*
X73302857Y-43378380D01*
X73207619Y-43378380D01*
X73064761Y-43330761D01*
X72969523Y-43235523D01*
X72921904Y-43140285D01*
X72874285Y-42949809D01*
X72874285Y-42806952D01*
X72921904Y-42616476D01*
X72969523Y-42521238D01*
X73064761Y-42426000D01*
X73207619Y-42378380D01*
X73302857Y-42378380D01*
X73445714Y-42426000D01*
X73493333Y-42473619D01*
X74350476Y-42378380D02*
X74160000Y-42378380D01*
X74064761Y-42426000D01*
X74017142Y-42473619D01*
X73921904Y-42616476D01*
X73874285Y-42806952D01*
X73874285Y-43187904D01*
X73921904Y-43283142D01*
X73969523Y-43330761D01*
X74064761Y-43378380D01*
X74255238Y-43378380D01*
X74350476Y-43330761D01*
X74398095Y-43283142D01*
X74445714Y-43187904D01*
X74445714Y-42949809D01*
X74398095Y-42854571D01*
X74350476Y-42806952D01*
X74255238Y-42759333D01*
X74064761Y-42759333D01*
X73969523Y-42806952D01*
X73921904Y-42854571D01*
X73874285Y-42949809D01*
X39585714Y-52652380D02*
X39585714Y-51652380D01*
X39823809Y-51652380D01*
X39966666Y-51700000D01*
X40061904Y-51795238D01*
X40109523Y-51890476D01*
X40157142Y-52080952D01*
X40157142Y-52223809D01*
X40109523Y-52414285D01*
X40061904Y-52509523D01*
X39966666Y-52604761D01*
X39823809Y-52652380D01*
X39585714Y-52652380D01*
X41109523Y-52652380D02*
X40538095Y-52652380D01*
X40823809Y-52652380D02*
X40823809Y-51652380D01*
X40728571Y-51795238D01*
X40633333Y-51890476D01*
X40538095Y-51938095D01*
X41728571Y-51652380D02*
X41823809Y-51652380D01*
X41919047Y-51700000D01*
X41966666Y-51747619D01*
X42014285Y-51842857D01*
X42061904Y-52033333D01*
X42061904Y-52271428D01*
X42014285Y-52461904D01*
X41966666Y-52557142D01*
X41919047Y-52604761D01*
X41823809Y-52652380D01*
X41728571Y-52652380D01*
X41633333Y-52604761D01*
X41585714Y-52557142D01*
X41538095Y-52461904D01*
X41490476Y-52271428D01*
X41490476Y-52033333D01*
X41538095Y-51842857D01*
X41585714Y-51747619D01*
X41633333Y-51700000D01*
X41728571Y-51652380D01*
X81357142Y-30757142D02*
X81309523Y-30804761D01*
X81166666Y-30852380D01*
X81071428Y-30852380D01*
X80928571Y-30804761D01*
X80833333Y-30709523D01*
X80785714Y-30614285D01*
X80738095Y-30423809D01*
X80738095Y-30280952D01*
X80785714Y-30090476D01*
X80833333Y-29995238D01*
X80928571Y-29900000D01*
X81071428Y-29852380D01*
X81166666Y-29852380D01*
X81309523Y-29900000D01*
X81357142Y-29947619D01*
X82309523Y-30852380D02*
X81738095Y-30852380D01*
X82023809Y-30852380D02*
X82023809Y-29852380D01*
X81928571Y-29995238D01*
X81833333Y-30090476D01*
X81738095Y-30138095D01*
X82642857Y-29852380D02*
X83309523Y-29852380D01*
X82880952Y-30852380D01*
X28352904Y-35520380D02*
X28352904Y-36329904D01*
X28400523Y-36425142D01*
X28448142Y-36472761D01*
X28543380Y-36520380D01*
X28733857Y-36520380D01*
X28829095Y-36472761D01*
X28876714Y-36425142D01*
X28924333Y-36329904D01*
X28924333Y-35520380D01*
X29924333Y-36520380D02*
X29352904Y-36520380D01*
X29638619Y-36520380D02*
X29638619Y-35520380D01*
X29543380Y-35663238D01*
X29448142Y-35758476D01*
X29352904Y-35806095D01*
X30305285Y-35615619D02*
X30352904Y-35568000D01*
X30448142Y-35520380D01*
X30686238Y-35520380D01*
X30781476Y-35568000D01*
X30829095Y-35615619D01*
X30876714Y-35710857D01*
X30876714Y-35806095D01*
X30829095Y-35948952D01*
X30257666Y-36520380D01*
X30876714Y-36520380D01*
X30038095Y-44210380D02*
X30038095Y-45019904D01*
X30085714Y-45115142D01*
X30133333Y-45162761D01*
X30228571Y-45210380D01*
X30419047Y-45210380D01*
X30514285Y-45162761D01*
X30561904Y-45115142D01*
X30609523Y-45019904D01*
X30609523Y-44210380D01*
X31514285Y-44543714D02*
X31514285Y-45210380D01*
X31276190Y-44162761D02*
X31038095Y-44877047D01*
X31657142Y-44877047D01*
X38770904Y-54002380D02*
X38770904Y-54811904D01*
X38818523Y-54907142D01*
X38866142Y-54954761D01*
X38961380Y-55002380D01*
X39151857Y-55002380D01*
X39247095Y-54954761D01*
X39294714Y-54907142D01*
X39342333Y-54811904D01*
X39342333Y-54002380D01*
X40342333Y-55002380D02*
X39770904Y-55002380D01*
X40056619Y-55002380D02*
X40056619Y-54002380D01*
X39961380Y-54145238D01*
X39866142Y-54240476D01*
X39770904Y-54288095D01*
X41294714Y-55002380D02*
X40723285Y-55002380D01*
X41009000Y-55002380D02*
X41009000Y-54002380D01*
X40913761Y-54145238D01*
X40818523Y-54240476D01*
X40723285Y-54288095D01*
X28412404Y-55510380D02*
X28412404Y-54510380D01*
X28650500Y-54510380D01*
X28793357Y-54558000D01*
X28888595Y-54653238D01*
X28936214Y-54748476D01*
X28983833Y-54938952D01*
X28983833Y-55081809D01*
X28936214Y-55272285D01*
X28888595Y-55367523D01*
X28793357Y-55462761D01*
X28650500Y-55510380D01*
X28412404Y-55510380D01*
X29460023Y-55510380D02*
X29650500Y-55510380D01*
X29745738Y-55462761D01*
X29793357Y-55415142D01*
X29888595Y-55272285D01*
X29936214Y-55081809D01*
X29936214Y-54700857D01*
X29888595Y-54605619D01*
X29840976Y-54558000D01*
X29745738Y-54510380D01*
X29555261Y-54510380D01*
X29460023Y-54558000D01*
X29412404Y-54605619D01*
X29364785Y-54700857D01*
X29364785Y-54938952D01*
X29412404Y-55034190D01*
X29460023Y-55081809D01*
X29555261Y-55129428D01*
X29745738Y-55129428D01*
X29840976Y-55081809D01*
X29888595Y-55034190D01*
X29936214Y-54938952D01*
X28412404Y-53097380D02*
X28412404Y-52097380D01*
X28650500Y-52097380D01*
X28793357Y-52145000D01*
X28888595Y-52240238D01*
X28936214Y-52335476D01*
X28983833Y-52525952D01*
X28983833Y-52668809D01*
X28936214Y-52859285D01*
X28888595Y-52954523D01*
X28793357Y-53049761D01*
X28650500Y-53097380D01*
X28412404Y-53097380D01*
X29555261Y-52525952D02*
X29460023Y-52478333D01*
X29412404Y-52430714D01*
X29364785Y-52335476D01*
X29364785Y-52287857D01*
X29412404Y-52192619D01*
X29460023Y-52145000D01*
X29555261Y-52097380D01*
X29745738Y-52097380D01*
X29840976Y-52145000D01*
X29888595Y-52192619D01*
X29936214Y-52287857D01*
X29936214Y-52335476D01*
X29888595Y-52430714D01*
X29840976Y-52478333D01*
X29745738Y-52525952D01*
X29555261Y-52525952D01*
X29460023Y-52573571D01*
X29412404Y-52621190D01*
X29364785Y-52716428D01*
X29364785Y-52906904D01*
X29412404Y-53002142D01*
X29460023Y-53049761D01*
X29555261Y-53097380D01*
X29745738Y-53097380D01*
X29840976Y-53049761D01*
X29888595Y-53002142D01*
X29936214Y-52906904D01*
X29936214Y-52716428D01*
X29888595Y-52621190D01*
X29840976Y-52573571D01*
X29745738Y-52525952D01*
X39797619Y-36845238D02*
X39750000Y-36940476D01*
X39654761Y-37035714D01*
X39511904Y-37178571D01*
X39464285Y-37273809D01*
X39464285Y-37369047D01*
X39702380Y-37321428D02*
X39654761Y-37416666D01*
X39559523Y-37511904D01*
X39369047Y-37559523D01*
X39035714Y-37559523D01*
X38845238Y-37511904D01*
X38750000Y-37416666D01*
X38702380Y-37321428D01*
X38702380Y-37130952D01*
X38750000Y-37035714D01*
X38845238Y-36940476D01*
X39035714Y-36892857D01*
X39369047Y-36892857D01*
X39559523Y-36940476D01*
X39654761Y-37035714D01*
X39702380Y-37130952D01*
X39702380Y-37321428D01*
X39035714Y-36035714D02*
X39702380Y-36035714D01*
X38654761Y-36273809D02*
X39369047Y-36511904D01*
X39369047Y-35892857D01*
X36047619Y-36845238D02*
X36000000Y-36940476D01*
X35904761Y-37035714D01*
X35761904Y-37178571D01*
X35714285Y-37273809D01*
X35714285Y-37369047D01*
X35952380Y-37321428D02*
X35904761Y-37416666D01*
X35809523Y-37511904D01*
X35619047Y-37559523D01*
X35285714Y-37559523D01*
X35095238Y-37511904D01*
X35000000Y-37416666D01*
X34952380Y-37321428D01*
X34952380Y-37130952D01*
X35000000Y-37035714D01*
X35095238Y-36940476D01*
X35285714Y-36892857D01*
X35619047Y-36892857D01*
X35809523Y-36940476D01*
X35904761Y-37035714D01*
X35952380Y-37130952D01*
X35952380Y-37321428D01*
X34952380Y-36559523D02*
X34952380Y-35940476D01*
X35333333Y-36273809D01*
X35333333Y-36130952D01*
X35380952Y-36035714D01*
X35428571Y-35988095D01*
X35523809Y-35940476D01*
X35761904Y-35940476D01*
X35857142Y-35988095D01*
X35904761Y-36035714D01*
X35952380Y-36130952D01*
X35952380Y-36416666D01*
X35904761Y-36511904D01*
X35857142Y-36559523D01*
X78202380Y-44504904D02*
X79011904Y-44504904D01*
X79107142Y-44457285D01*
X79154761Y-44409666D01*
X79202380Y-44314428D01*
X79202380Y-44123952D01*
X79154761Y-44028714D01*
X79107142Y-43981095D01*
X79011904Y-43933476D01*
X78202380Y-43933476D01*
X79202380Y-42933476D02*
X79202380Y-43504904D01*
X79202380Y-43219190D02*
X78202380Y-43219190D01*
X78345238Y-43314428D01*
X78440476Y-43409666D01*
X78488095Y-43504904D01*
X122038095Y-62452380D02*
X122038095Y-61452380D01*
X122038095Y-61928571D02*
X122609523Y-61928571D01*
X122609523Y-62452380D02*
X122609523Y-61452380D01*
X122990476Y-61452380D02*
X123609523Y-61452380D01*
X123276190Y-61833333D01*
X123419047Y-61833333D01*
X123514285Y-61880952D01*
X123561904Y-61928571D01*
X123609523Y-62023809D01*
X123609523Y-62261904D01*
X123561904Y-62357142D01*
X123514285Y-62404761D01*
X123419047Y-62452380D01*
X123133333Y-62452380D01*
X123038095Y-62404761D01*
X122990476Y-62357142D01*
X27038095Y-62452380D02*
X27038095Y-61452380D01*
X27038095Y-61928571D02*
X27609523Y-61928571D01*
X27609523Y-62452380D02*
X27609523Y-61452380D01*
X28038095Y-61547619D02*
X28085714Y-61500000D01*
X28180952Y-61452380D01*
X28419047Y-61452380D01*
X28514285Y-61500000D01*
X28561904Y-61547619D01*
X28609523Y-61642857D01*
X28609523Y-61738095D01*
X28561904Y-61880952D01*
X27990476Y-62452380D01*
X28609523Y-62452380D01*
X122038095Y-22452380D02*
X122038095Y-21452380D01*
X122038095Y-21928571D02*
X122609523Y-21928571D01*
X122609523Y-22452380D02*
X122609523Y-21452380D01*
X123609523Y-22452380D02*
X123038095Y-22452380D01*
X123323809Y-22452380D02*
X123323809Y-21452380D01*
X123228571Y-21595238D01*
X123133333Y-21690476D01*
X123038095Y-21738095D01*
M02*
