%TF.GenerationSoftware,KiCad,Pcbnew,5.1.4*%
%TF.CreationDate,2019-10-04T22:27:36+02:00*%
%TF.ProjectId,epaper-breakout,65706170-6572-42d6-9272-65616b6f7574,rev?*%
%TF.SameCoordinates,Original*%
%TF.FileFunction,Legend,Top*%
%TF.FilePolarity,Positive*%
%FSLAX46Y46*%
G04 Gerber Fmt 4.6, Leading zero omitted, Abs format (unit mm)*
G04 Created by KiCad (PCBNEW 5.1.4) date 2019-10-04 22:27:36*
%MOMM*%
%LPD*%
G04 APERTURE LIST*
%ADD10C,0.300000*%
%ADD11C,0.150000*%
%ADD12C,0.120000*%
%ADD13C,0.152400*%
G04 APERTURE END LIST*
D10*
X124098857Y73910714D02*
X124098857Y74410714D01*
X124884571Y74625000D02*
X124884571Y73910714D01*
X123384571Y73910714D01*
X123384571Y74625000D01*
X124884571Y75267857D02*
X123384571Y75267857D01*
X123384571Y75625000D01*
X123456000Y75839285D01*
X123598857Y75982142D01*
X123741714Y76053571D01*
X124027428Y76125000D01*
X124241714Y76125000D01*
X124527428Y76053571D01*
X124670285Y75982142D01*
X124813142Y75839285D01*
X124884571Y75625000D01*
X124884571Y75267857D01*
X123384571Y77053571D02*
X123384571Y77196428D01*
X123456000Y77339285D01*
X123527428Y77410714D01*
X123670285Y77482142D01*
X123956000Y77553571D01*
X124313142Y77553571D01*
X124598857Y77482142D01*
X124741714Y77410714D01*
X124813142Y77339285D01*
X124884571Y77196428D01*
X124884571Y77053571D01*
X124813142Y76910714D01*
X124741714Y76839285D01*
X124598857Y76767857D01*
X124313142Y76696428D01*
X123956000Y76696428D01*
X123670285Y76767857D01*
X123527428Y76839285D01*
X123456000Y76910714D01*
X123384571Y77053571D01*
X124884571Y78267857D02*
X124884571Y78553571D01*
X124813142Y78696428D01*
X124741714Y78767857D01*
X124527428Y78910714D01*
X124241714Y78982142D01*
X123670285Y78982142D01*
X123527428Y78910714D01*
X123456000Y78839285D01*
X123384571Y78696428D01*
X123384571Y78410714D01*
X123456000Y78267857D01*
X123527428Y78196428D01*
X123670285Y78125000D01*
X124027428Y78125000D01*
X124170285Y78196428D01*
X124241714Y78267857D01*
X124313142Y78410714D01*
X124313142Y78696428D01*
X124241714Y78839285D01*
X124170285Y78910714D01*
X124027428Y78982142D01*
X123384571Y79482142D02*
X123384571Y80482142D01*
X124884571Y79839285D01*
X123384571Y81339285D02*
X123384571Y81625000D01*
X123456000Y81767857D01*
X123598857Y81910714D01*
X123884571Y81982142D01*
X124384571Y81982142D01*
X124670285Y81910714D01*
X124813142Y81767857D01*
X124884571Y81625000D01*
X124884571Y81339285D01*
X124813142Y81196428D01*
X124670285Y81053571D01*
X124384571Y80982142D01*
X123884571Y80982142D01*
X123598857Y81053571D01*
X123456000Y81196428D01*
X123384571Y81339285D01*
X124741714Y83482142D02*
X124813142Y83410714D01*
X124884571Y83196428D01*
X124884571Y83053571D01*
X124813142Y82839285D01*
X124670285Y82696428D01*
X124527428Y82625000D01*
X124241714Y82553571D01*
X124027428Y82553571D01*
X123741714Y82625000D01*
X123598857Y82696428D01*
X123456000Y82839285D01*
X123384571Y83053571D01*
X123384571Y83196428D01*
X123456000Y83410714D01*
X123527428Y83482142D01*
X123884571Y84767857D02*
X124884571Y84767857D01*
X123313142Y84410714D02*
X124384571Y84053571D01*
X124384571Y84982142D01*
D11*
X82240380Y63595333D02*
X81764190Y63262000D01*
X82240380Y63023904D02*
X81240380Y63023904D01*
X81240380Y63404857D01*
X81288000Y63500095D01*
X81335619Y63547714D01*
X81430857Y63595333D01*
X81573714Y63595333D01*
X81668952Y63547714D01*
X81716571Y63500095D01*
X81764190Y63404857D01*
X81764190Y63023904D01*
X81240380Y63928666D02*
X82240380Y64595333D01*
X81240380Y64595333D02*
X82240380Y63928666D01*
X82240380Y64976285D02*
X81240380Y64976285D01*
X81240380Y65214380D01*
X81288000Y65357238D01*
X81383238Y65452476D01*
X81478476Y65500095D01*
X81668952Y65547714D01*
X81811809Y65547714D01*
X82002285Y65500095D01*
X82097523Y65452476D01*
X82192761Y65357238D01*
X82240380Y65214380D01*
X82240380Y64976285D01*
X78700380Y63127095D02*
X78700380Y63698523D01*
X79700380Y63412809D02*
X78700380Y63412809D01*
X78700380Y63936619D02*
X79700380Y64603285D01*
X78700380Y64603285D02*
X79700380Y63936619D01*
X79700380Y64984238D02*
X78700380Y64984238D01*
X78700380Y65222333D01*
X78748000Y65365190D01*
X78843238Y65460428D01*
X78938476Y65508047D01*
X79128952Y65555666D01*
X79271809Y65555666D01*
X79462285Y65508047D01*
X79557523Y65460428D01*
X79652761Y65365190D01*
X79700380Y65222333D01*
X79700380Y64984238D01*
X76160380Y63055666D02*
X77160380Y63389000D01*
X76160380Y63722333D01*
X77160380Y64055666D02*
X76160380Y64055666D01*
X76160380Y64293761D01*
X76208000Y64436619D01*
X76303238Y64531857D01*
X76398476Y64579476D01*
X76588952Y64627095D01*
X76731809Y64627095D01*
X76922285Y64579476D01*
X77017523Y64531857D01*
X77112761Y64436619D01*
X77160380Y64293761D01*
X77160380Y64055666D01*
X77160380Y65055666D02*
X76160380Y65055666D01*
X76160380Y65293761D01*
X76208000Y65436619D01*
X76303238Y65531857D01*
X76398476Y65579476D01*
X76588952Y65627095D01*
X76731809Y65627095D01*
X76922285Y65579476D01*
X77017523Y65531857D01*
X77112761Y65436619D01*
X77160380Y65293761D01*
X77160380Y65055666D01*
X74572761Y63119095D02*
X74620380Y63261952D01*
X74620380Y63500047D01*
X74572761Y63595285D01*
X74525142Y63642904D01*
X74429904Y63690523D01*
X74334666Y63690523D01*
X74239428Y63642904D01*
X74191809Y63595285D01*
X74144190Y63500047D01*
X74096571Y63309571D01*
X74048952Y63214333D01*
X74001333Y63166714D01*
X73906095Y63119095D01*
X73810857Y63119095D01*
X73715619Y63166714D01*
X73668000Y63214333D01*
X73620380Y63309571D01*
X73620380Y63547666D01*
X73668000Y63690523D01*
X73715619Y64071476D02*
X73668000Y64119095D01*
X73620380Y64214333D01*
X73620380Y64452428D01*
X73668000Y64547666D01*
X73715619Y64595285D01*
X73810857Y64642904D01*
X73906095Y64642904D01*
X74048952Y64595285D01*
X74620380Y64023857D01*
X74620380Y64642904D01*
X72032761Y63119095D02*
X72080380Y63261952D01*
X72080380Y63500047D01*
X72032761Y63595285D01*
X71985142Y63642904D01*
X71889904Y63690523D01*
X71794666Y63690523D01*
X71699428Y63642904D01*
X71651809Y63595285D01*
X71604190Y63500047D01*
X71556571Y63309571D01*
X71508952Y63214333D01*
X71461333Y63166714D01*
X71366095Y63119095D01*
X71270857Y63119095D01*
X71175619Y63166714D01*
X71128000Y63214333D01*
X71080380Y63309571D01*
X71080380Y63547666D01*
X71128000Y63690523D01*
X72080380Y64642904D02*
X72080380Y64071476D01*
X72080380Y64357190D02*
X71080380Y64357190D01*
X71223238Y64261952D01*
X71318476Y64166714D01*
X71366095Y64071476D01*
X69000666Y63166714D02*
X69000666Y63642904D01*
X69286380Y63071476D02*
X68286380Y63404809D01*
X69286380Y63738142D01*
X68286380Y64261952D02*
X68286380Y64357190D01*
X68334000Y64452428D01*
X68381619Y64500047D01*
X68476857Y64547666D01*
X68667333Y64595285D01*
X68905428Y64595285D01*
X69095904Y64547666D01*
X69191142Y64500047D01*
X69238761Y64452428D01*
X69286380Y64357190D01*
X69286380Y64261952D01*
X69238761Y64166714D01*
X69191142Y64119095D01*
X69095904Y64071476D01*
X68905428Y64023857D01*
X68667333Y64023857D01*
X68476857Y64071476D01*
X68381619Y64119095D01*
X68334000Y64166714D01*
X68286380Y64261952D01*
X66587666Y63166714D02*
X66587666Y63642904D01*
X66873380Y63071476D02*
X65873380Y63404809D01*
X66873380Y63738142D01*
X66873380Y64595285D02*
X66873380Y64023857D01*
X66873380Y64309571D02*
X65873380Y64309571D01*
X66016238Y64214333D01*
X66111476Y64119095D01*
X66159095Y64023857D01*
X64285761Y63047714D02*
X64333380Y63190571D01*
X64333380Y63428666D01*
X64285761Y63523904D01*
X64238142Y63571523D01*
X64142904Y63619142D01*
X64047666Y63619142D01*
X63952428Y63571523D01*
X63904809Y63523904D01*
X63857190Y63428666D01*
X63809571Y63238190D01*
X63761952Y63142952D01*
X63714333Y63095333D01*
X63619095Y63047714D01*
X63523857Y63047714D01*
X63428619Y63095333D01*
X63381000Y63142952D01*
X63333380Y63238190D01*
X63333380Y63476285D01*
X63381000Y63619142D01*
X64333380Y64047714D02*
X63333380Y64047714D01*
X63333380Y64285809D01*
X63381000Y64428666D01*
X63476238Y64523904D01*
X63571476Y64571523D01*
X63761952Y64619142D01*
X63904809Y64619142D01*
X64095285Y64571523D01*
X64190523Y64523904D01*
X64285761Y64428666D01*
X64333380Y64285809D01*
X64333380Y64047714D01*
X64047666Y65000095D02*
X64047666Y65476285D01*
X64333380Y64904857D02*
X63333380Y65238190D01*
X64333380Y65571523D01*
X61872761Y63071523D02*
X61920380Y63214380D01*
X61920380Y63452476D01*
X61872761Y63547714D01*
X61825142Y63595333D01*
X61729904Y63642952D01*
X61634666Y63642952D01*
X61539428Y63595333D01*
X61491809Y63547714D01*
X61444190Y63452476D01*
X61396571Y63262000D01*
X61348952Y63166761D01*
X61301333Y63119142D01*
X61206095Y63071523D01*
X61110857Y63071523D01*
X61015619Y63119142D01*
X60968000Y63166761D01*
X60920380Y63262000D01*
X60920380Y63500095D01*
X60968000Y63642952D01*
X61825142Y64642952D02*
X61872761Y64595333D01*
X61920380Y64452476D01*
X61920380Y64357238D01*
X61872761Y64214380D01*
X61777523Y64119142D01*
X61682285Y64071523D01*
X61491809Y64023904D01*
X61348952Y64023904D01*
X61158476Y64071523D01*
X61063238Y64119142D01*
X60968000Y64214380D01*
X60920380Y64357238D01*
X60920380Y64452476D01*
X60968000Y64595333D01*
X61015619Y64642952D01*
X61920380Y65547714D02*
X61920380Y65071523D01*
X60920380Y65071523D01*
X58428000Y63500095D02*
X58380380Y63404857D01*
X58380380Y63262000D01*
X58428000Y63119142D01*
X58523238Y63023904D01*
X58618476Y62976285D01*
X58808952Y62928666D01*
X58951809Y62928666D01*
X59142285Y62976285D01*
X59237523Y63023904D01*
X59332761Y63119142D01*
X59380380Y63262000D01*
X59380380Y63357238D01*
X59332761Y63500095D01*
X59285142Y63547714D01*
X58951809Y63547714D01*
X58951809Y63357238D01*
X59380380Y63976285D02*
X58380380Y63976285D01*
X59380380Y64547714D01*
X58380380Y64547714D01*
X59380380Y65023904D02*
X58380380Y65023904D01*
X58380380Y65262000D01*
X58428000Y65404857D01*
X58523238Y65500095D01*
X58618476Y65547714D01*
X58808952Y65595333D01*
X58951809Y65595333D01*
X59142285Y65547714D01*
X59237523Y65500095D01*
X59332761Y65404857D01*
X59380380Y65262000D01*
X59380380Y65023904D01*
X130738571Y103720380D02*
X130738571Y104053714D01*
X131262380Y104196571D02*
X131262380Y103720380D01*
X130262380Y103720380D01*
X130262380Y104196571D01*
X131262380Y104625142D02*
X130262380Y104625142D01*
X130262380Y104863238D01*
X130310000Y105006095D01*
X130405238Y105101333D01*
X130500476Y105148952D01*
X130690952Y105196571D01*
X130833809Y105196571D01*
X131024285Y105148952D01*
X131119523Y105101333D01*
X131214761Y105006095D01*
X131262380Y104863238D01*
X131262380Y104625142D01*
X130262380Y105815619D02*
X130262380Y105910857D01*
X130310000Y106006095D01*
X130357619Y106053714D01*
X130452857Y106101333D01*
X130643333Y106148952D01*
X130881428Y106148952D01*
X131071904Y106101333D01*
X131167142Y106053714D01*
X131214761Y106006095D01*
X131262380Y105910857D01*
X131262380Y105815619D01*
X131214761Y105720380D01*
X131167142Y105672761D01*
X131071904Y105625142D01*
X130881428Y105577523D01*
X130643333Y105577523D01*
X130452857Y105625142D01*
X130357619Y105672761D01*
X130310000Y105720380D01*
X130262380Y105815619D01*
X131262380Y106625142D02*
X131262380Y106815619D01*
X131214761Y106910857D01*
X131167142Y106958476D01*
X131024285Y107053714D01*
X130833809Y107101333D01*
X130452857Y107101333D01*
X130357619Y107053714D01*
X130310000Y107006095D01*
X130262380Y106910857D01*
X130262380Y106720380D01*
X130310000Y106625142D01*
X130357619Y106577523D01*
X130452857Y106529904D01*
X130690952Y106529904D01*
X130786190Y106577523D01*
X130833809Y106625142D01*
X130881428Y106720380D01*
X130881428Y106910857D01*
X130833809Y107006095D01*
X130786190Y107053714D01*
X130690952Y107101333D01*
X130262380Y107434666D02*
X130262380Y108101333D01*
X131262380Y107672761D01*
X130262380Y108672761D02*
X130262380Y108863238D01*
X130310000Y108958476D01*
X130405238Y109053714D01*
X130595714Y109101333D01*
X130929047Y109101333D01*
X131119523Y109053714D01*
X131214761Y108958476D01*
X131262380Y108863238D01*
X131262380Y108672761D01*
X131214761Y108577523D01*
X131119523Y108482285D01*
X130929047Y108434666D01*
X130595714Y108434666D01*
X130405238Y108482285D01*
X130310000Y108577523D01*
X130262380Y108672761D01*
X131167142Y110101333D02*
X131214761Y110053714D01*
X131262380Y109910857D01*
X131262380Y109815619D01*
X131214761Y109672761D01*
X131119523Y109577523D01*
X131024285Y109529904D01*
X130833809Y109482285D01*
X130690952Y109482285D01*
X130500476Y109529904D01*
X130405238Y109577523D01*
X130310000Y109672761D01*
X130262380Y109815619D01*
X130262380Y109910857D01*
X130310000Y110053714D01*
X130357619Y110101333D01*
X130595714Y110958476D02*
X131262380Y110958476D01*
X130214761Y110720380D02*
X130929047Y110482285D01*
X130929047Y111101333D01*
X130738571Y112577523D02*
X130786190Y112720380D01*
X130833809Y112768000D01*
X130929047Y112815619D01*
X131071904Y112815619D01*
X131167142Y112768000D01*
X131214761Y112720380D01*
X131262380Y112625142D01*
X131262380Y112244190D01*
X130262380Y112244190D01*
X130262380Y112577523D01*
X130310000Y112672761D01*
X130357619Y112720380D01*
X130452857Y112768000D01*
X130548095Y112768000D01*
X130643333Y112720380D01*
X130690952Y112672761D01*
X130738571Y112577523D01*
X130738571Y112244190D01*
X131262380Y113244190D02*
X130595714Y113244190D01*
X130786190Y113244190D02*
X130690952Y113291809D01*
X130643333Y113339428D01*
X130595714Y113434666D01*
X130595714Y113529904D01*
X131214761Y114244190D02*
X131262380Y114148952D01*
X131262380Y113958476D01*
X131214761Y113863238D01*
X131119523Y113815619D01*
X130738571Y113815619D01*
X130643333Y113863238D01*
X130595714Y113958476D01*
X130595714Y114148952D01*
X130643333Y114244190D01*
X130738571Y114291809D01*
X130833809Y114291809D01*
X130929047Y113815619D01*
X131262380Y115148952D02*
X130738571Y115148952D01*
X130643333Y115101333D01*
X130595714Y115006095D01*
X130595714Y114815619D01*
X130643333Y114720380D01*
X131214761Y115148952D02*
X131262380Y115053714D01*
X131262380Y114815619D01*
X131214761Y114720380D01*
X131119523Y114672761D01*
X131024285Y114672761D01*
X130929047Y114720380D01*
X130881428Y114815619D01*
X130881428Y115053714D01*
X130833809Y115148952D01*
X131262380Y115625142D02*
X130262380Y115625142D01*
X130881428Y115720380D02*
X131262380Y116006095D01*
X130595714Y116006095D02*
X130976666Y115625142D01*
X131262380Y116577523D02*
X131214761Y116482285D01*
X131167142Y116434666D01*
X131071904Y116387047D01*
X130786190Y116387047D01*
X130690952Y116434666D01*
X130643333Y116482285D01*
X130595714Y116577523D01*
X130595714Y116720380D01*
X130643333Y116815619D01*
X130690952Y116863238D01*
X130786190Y116910857D01*
X131071904Y116910857D01*
X131167142Y116863238D01*
X131214761Y116815619D01*
X131262380Y116720380D01*
X131262380Y116577523D01*
X130595714Y117768000D02*
X131262380Y117768000D01*
X130595714Y117339428D02*
X131119523Y117339428D01*
X131214761Y117387047D01*
X131262380Y117482285D01*
X131262380Y117625142D01*
X131214761Y117720380D01*
X131167142Y117768000D01*
X130595714Y118101333D02*
X130595714Y118482285D01*
X130262380Y118244190D02*
X131119523Y118244190D01*
X131214761Y118291809D01*
X131262380Y118387047D01*
X131262380Y118482285D01*
X130595714Y119482285D02*
X131262380Y119720380D01*
X130595714Y119958476D01*
X131262380Y120863238D02*
X131262380Y120291809D01*
X131262380Y120577523D02*
X130262380Y120577523D01*
X130405238Y120482285D01*
X130500476Y120387047D01*
X130548095Y120291809D01*
D12*
X120902000Y71536779D02*
X120902000Y71211221D01*
X121922000Y71536779D02*
X121922000Y71211221D01*
X113768000Y70819000D02*
X114148000Y70819000D01*
X113768000Y64399000D02*
X113768000Y70819000D01*
X95528000Y64399000D02*
X95528000Y70819000D01*
X113768000Y64399000D02*
X95528000Y64399000D01*
X95528000Y90144000D02*
X96528000Y90144000D01*
X95528000Y89364000D02*
X95528000Y90144000D01*
X113768000Y90144000D02*
X112768000Y90144000D01*
X113768000Y89364000D02*
X113768000Y90144000D01*
D13*
X127292100Y89115900D02*
X127292100Y87453742D01*
X127292100Y68872100D02*
X130248660Y68872100D01*
X132448300Y70392891D02*
X132448300Y87595109D01*
X130248660Y89115900D02*
X127292100Y89115900D01*
X127292100Y70534261D02*
X127292100Y68872100D01*
D12*
X103632000Y100280000D02*
X107157000Y100280000D01*
X103632000Y100280000D02*
X101752000Y100280000D01*
X103632000Y105460000D02*
X105512000Y105460000D01*
X103632000Y105460000D02*
X101752000Y105460000D01*
X69088000Y80411000D02*
X65638000Y80411000D01*
X69088000Y80411000D02*
X71038000Y80411000D01*
X69088000Y75291000D02*
X67138000Y75291000D01*
X69088000Y75291000D02*
X71038000Y75291000D01*
X105288000Y118688000D02*
X105288000Y117588000D01*
X105558000Y118688000D02*
X105288000Y118688000D01*
X105558000Y120188000D02*
X105558000Y118688000D01*
X98928000Y118688000D02*
X98928000Y115858000D01*
X98658000Y118688000D02*
X98928000Y118688000D01*
X98658000Y120188000D02*
X98658000Y118688000D01*
X115449000Y118517000D02*
X115449000Y117417000D01*
X115719000Y118517000D02*
X115449000Y118517000D01*
X115719000Y120017000D02*
X115719000Y118517000D01*
X109089000Y118517000D02*
X109089000Y115687000D01*
X108819000Y118517000D02*
X109089000Y118517000D01*
X108819000Y120017000D02*
X108819000Y118517000D01*
D11*
X61825000Y111178000D02*
X60600000Y111178000D01*
X61825000Y108053000D02*
X65175000Y108053000D01*
X61825000Y111403000D02*
X65175000Y111403000D01*
X61825000Y108053000D02*
X61825000Y108353000D01*
X65175000Y108053000D02*
X65175000Y108353000D01*
X65175000Y111403000D02*
X65175000Y111103000D01*
X61825000Y111403000D02*
X61825000Y111178000D01*
D12*
X66014000Y92843000D02*
X67114000Y92843000D01*
X66014000Y93113000D02*
X66014000Y92843000D01*
X64514000Y93113000D02*
X66014000Y93113000D01*
X66014000Y86483000D02*
X68844000Y86483000D01*
X66014000Y86213000D02*
X66014000Y86483000D01*
X64514000Y86213000D02*
X66014000Y86213000D01*
X90424000Y84074000D02*
X87884000Y84074000D01*
X90424000Y78994000D02*
X87884000Y78994000D01*
X86754000Y83820000D02*
X86754000Y78920000D01*
X91604000Y79034000D02*
X91604000Y83934000D01*
X122682000Y104061000D02*
X125222000Y104061000D01*
X122682000Y109141000D02*
X125222000Y109141000D01*
X126352000Y104315000D02*
X126352000Y109215000D01*
X121502000Y109101000D02*
X121502000Y104201000D01*
X114634000Y100830000D02*
X114634000Y100250000D01*
X114634000Y103130000D02*
X114634000Y102610000D01*
X114634000Y105490000D02*
X114634000Y104909000D01*
X109394000Y101630000D02*
X109394000Y100250000D01*
X109394000Y105490000D02*
X109394000Y104110000D01*
X109394000Y100250000D02*
X114634000Y100250000D01*
X109394000Y105490000D02*
X114634000Y105490000D01*
X70177922Y69902000D02*
X70695078Y69902000D01*
X70177922Y71322000D02*
X70695078Y71322000D01*
X70147922Y66346000D02*
X70665078Y66346000D01*
X70147922Y67766000D02*
X70665078Y67766000D01*
X75998000Y91952578D02*
X75998000Y91435422D01*
X77418000Y91952578D02*
X77418000Y91435422D01*
X89666578Y88594000D02*
X89149422Y88594000D01*
X89666578Y87174000D02*
X89149422Y87174000D01*
X108961422Y105970000D02*
X109478578Y105970000D01*
X108961422Y107390000D02*
X109478578Y107390000D01*
X94238578Y94690000D02*
X93721422Y94690000D01*
X94238578Y93270000D02*
X93721422Y93270000D01*
X87879422Y94794000D02*
X88396578Y94794000D01*
X87879422Y96214000D02*
X88396578Y96214000D01*
X126567000Y96974922D02*
X126567000Y97492078D01*
X125147000Y96974922D02*
X125147000Y97492078D01*
X116788000Y75179422D02*
X116788000Y75696578D01*
X115368000Y75179422D02*
X115368000Y75696578D01*
X96016578Y107136000D02*
X95499422Y107136000D01*
X96016578Y105716000D02*
X95499422Y105716000D01*
X115264000Y113025422D02*
X115264000Y113542578D01*
X113844000Y113025422D02*
X113844000Y113542578D01*
X90349000Y111813078D02*
X90349000Y111295922D01*
X91769000Y111813078D02*
X91769000Y111295922D01*
X90349000Y116923078D02*
X90349000Y116405922D01*
X91769000Y116923078D02*
X91769000Y116405922D01*
X83815422Y99874000D02*
X84332578Y99874000D01*
X83815422Y101294000D02*
X84332578Y101294000D01*
X79300000Y106860078D02*
X79300000Y106342922D01*
X80720000Y106860078D02*
X80720000Y106342922D01*
X66346000Y99397078D02*
X66346000Y98879922D01*
X67766000Y99397078D02*
X67766000Y98879922D01*
X62028000Y99367078D02*
X62028000Y98849922D01*
X63448000Y99367078D02*
X63448000Y98849922D01*
X53392000Y103763578D02*
X53392000Y103246422D01*
X54812000Y103763578D02*
X54812000Y103246422D01*
X58545000Y103068000D02*
X57085000Y103068000D01*
X58545000Y106228000D02*
X56385000Y106228000D01*
X58545000Y106228000D02*
X58545000Y105298000D01*
X58545000Y103068000D02*
X58545000Y103998000D01*
X67562000Y122961000D02*
X67562000Y121261000D01*
X60962000Y122961000D02*
X67562000Y122961000D01*
X60962000Y121261000D02*
X60962000Y122961000D01*
X60962000Y116561000D02*
X60962000Y118261000D01*
X67562000Y116561000D02*
X60962000Y116561000D01*
X67562000Y118261000D02*
X67562000Y116561000D01*
X71222000Y125982000D02*
X72922000Y125982000D01*
X71222000Y119382000D02*
X71222000Y125982000D01*
X72922000Y119382000D02*
X71222000Y119382000D01*
X77622000Y119382000D02*
X75922000Y119382000D01*
X77622000Y125982000D02*
X77622000Y119382000D01*
X75922000Y125982000D02*
X77622000Y125982000D01*
X57598000Y59884000D02*
X57598000Y61214000D01*
X58928000Y59884000D02*
X57598000Y59884000D01*
X60198000Y59884000D02*
X60198000Y62544000D01*
X60198000Y62544000D02*
X83118000Y62544000D01*
X60198000Y59884000D02*
X83118000Y59884000D01*
X83118000Y59884000D02*
X83118000Y62544000D01*
X55578000Y79084000D02*
X55578000Y78634000D01*
X53728000Y79084000D02*
X55578000Y79084000D01*
X51178000Y71284000D02*
X51428000Y71284000D01*
X51178000Y79084000D02*
X51428000Y79084000D01*
X53728000Y71284000D02*
X55578000Y71284000D01*
X55578000Y71284000D02*
X55578000Y71734000D01*
X56128600Y76884000D02*
X56128600Y76434000D01*
X56128600Y76884000D02*
X55678600Y76884000D01*
X63671500Y69652000D02*
X66356500Y69652000D01*
X63671500Y71572000D02*
X63671500Y69652000D01*
X66356500Y71572000D02*
X63671500Y71572000D01*
X63671500Y66096000D02*
X66356500Y66096000D01*
X63671500Y68016000D02*
X63671500Y66096000D01*
X66356500Y68016000D02*
X63671500Y68016000D01*
X77668000Y85945000D02*
X77668000Y88630000D01*
X75748000Y85945000D02*
X77668000Y85945000D01*
X75748000Y88630000D02*
X75748000Y85945000D01*
X78776000Y118348000D02*
X82676000Y118348000D01*
X78776000Y116348000D02*
X82676000Y116348000D01*
X78776000Y118348000D02*
X78776000Y116348000D01*
X74438000Y111288000D02*
X74438000Y115188000D01*
X76438000Y111288000D02*
X76438000Y115188000D01*
X74438000Y111288000D02*
X76438000Y111288000D01*
X73370000Y106696000D02*
X69470000Y106696000D01*
X73370000Y108696000D02*
X69470000Y108696000D01*
X73370000Y106696000D02*
X73370000Y108696000D01*
X89469279Y75694000D02*
X89143721Y75694000D01*
X89469279Y74674000D02*
X89143721Y74674000D01*
X124970000Y71211221D02*
X124970000Y71536779D01*
X123950000Y71211221D02*
X123950000Y71536779D01*
X123789221Y100201000D02*
X124114779Y100201000D01*
X123789221Y101221000D02*
X124114779Y101221000D01*
X122557000Y97220721D02*
X122557000Y97546279D01*
X121537000Y97220721D02*
X121537000Y97546279D01*
X78551721Y79246000D02*
X78877279Y79246000D01*
X78551721Y80266000D02*
X78877279Y80266000D01*
X78551721Y75436000D02*
X78877279Y75436000D01*
X78551721Y76456000D02*
X78877279Y76456000D01*
X94744000Y114111721D02*
X94744000Y114437279D01*
X93724000Y114111721D02*
X93724000Y114437279D01*
X104138000Y113446779D02*
X104138000Y113121221D01*
X105158000Y113446779D02*
X105158000Y113121221D01*
X117854000Y113446779D02*
X117854000Y113121221D01*
X118874000Y113446779D02*
X118874000Y113121221D01*
X87251000Y104078721D02*
X87251000Y104404279D01*
X86231000Y104078721D02*
X86231000Y104404279D01*
X86362000Y116397721D02*
X86362000Y116723279D01*
X85342000Y116397721D02*
X85342000Y116723279D01*
X100078000Y113121221D02*
X100078000Y113446779D01*
X99058000Y113121221D02*
X99058000Y113446779D01*
X110492000Y113121221D02*
X110492000Y113446779D01*
X109472000Y113121221D02*
X109472000Y113446779D01*
X76456000Y106517221D02*
X76456000Y106842779D01*
X75436000Y106517221D02*
X75436000Y106842779D01*
X72044779Y115572000D02*
X71719221Y115572000D01*
X72044779Y114552000D02*
X71719221Y114552000D01*
X72646000Y90286721D02*
X72646000Y90612279D01*
X71626000Y90286721D02*
X71626000Y90612279D01*
X54167721Y82802000D02*
X54493279Y82802000D01*
X54167721Y83822000D02*
X54493279Y83822000D01*
X55280779Y110111000D02*
X54955221Y110111000D01*
X55280779Y109091000D02*
X54955221Y109091000D01*
D11*
X123199142Y70731142D02*
X123246761Y70683523D01*
X123294380Y70540666D01*
X123294380Y70445428D01*
X123246761Y70302571D01*
X123151523Y70207333D01*
X123056285Y70159714D01*
X122865809Y70112095D01*
X122722952Y70112095D01*
X122532476Y70159714D01*
X122437238Y70207333D01*
X122342000Y70302571D01*
X122294380Y70445428D01*
X122294380Y70540666D01*
X122342000Y70683523D01*
X122389619Y70731142D01*
X123294380Y71683523D02*
X123294380Y71112095D01*
X123294380Y71397809D02*
X122294380Y71397809D01*
X122437238Y71302571D01*
X122532476Y71207333D01*
X122580095Y71112095D01*
X122294380Y72588285D02*
X122294380Y72112095D01*
X122770571Y72064476D01*
X122722952Y72112095D01*
X122675333Y72207333D01*
X122675333Y72445428D01*
X122722952Y72540666D01*
X122770571Y72588285D01*
X122865809Y72635904D01*
X123103904Y72635904D01*
X123199142Y72588285D01*
X123246761Y72540666D01*
X123294380Y72445428D01*
X123294380Y72207333D01*
X123246761Y72112095D01*
X123199142Y72064476D01*
X114710380Y87932095D02*
X115519904Y87932095D01*
X115615142Y87979714D01*
X115662761Y88027333D01*
X115710380Y88122571D01*
X115710380Y88313047D01*
X115662761Y88408285D01*
X115615142Y88455904D01*
X115519904Y88503523D01*
X114710380Y88503523D01*
X114710380Y89455904D02*
X114710380Y88979714D01*
X115186571Y88932095D01*
X115138952Y88979714D01*
X115091333Y89074952D01*
X115091333Y89313047D01*
X115138952Y89408285D01*
X115186571Y89455904D01*
X115281809Y89503523D01*
X115519904Y89503523D01*
X115615142Y89455904D01*
X115662761Y89408285D01*
X115710380Y89313047D01*
X115710380Y89074952D01*
X115662761Y88979714D01*
X115615142Y88932095D01*
X102870095Y99987619D02*
X102870095Y99178095D01*
X102917714Y99082857D01*
X102965333Y99035238D01*
X103060571Y98987619D01*
X103251047Y98987619D01*
X103346285Y99035238D01*
X103393904Y99082857D01*
X103441523Y99178095D01*
X103441523Y99987619D01*
X103822476Y99987619D02*
X104489142Y99987619D01*
X104060571Y98987619D01*
X68326095Y81798619D02*
X68326095Y80989095D01*
X68373714Y80893857D01*
X68421333Y80846238D01*
X68516571Y80798619D01*
X68707047Y80798619D01*
X68802285Y80846238D01*
X68849904Y80893857D01*
X68897523Y80989095D01*
X68897523Y81798619D01*
X69802285Y81798619D02*
X69611809Y81798619D01*
X69516571Y81751000D01*
X69468952Y81703380D01*
X69373714Y81560523D01*
X69326095Y81370047D01*
X69326095Y80989095D01*
X69373714Y80893857D01*
X69421333Y80846238D01*
X69516571Y80798619D01*
X69707047Y80798619D01*
X69802285Y80846238D01*
X69849904Y80893857D01*
X69897523Y80989095D01*
X69897523Y81227190D01*
X69849904Y81322428D01*
X69802285Y81370047D01*
X69707047Y81417666D01*
X69516571Y81417666D01*
X69421333Y81370047D01*
X69373714Y81322428D01*
X69326095Y81227190D01*
X97060380Y120396095D02*
X97869904Y120396095D01*
X97965142Y120443714D01*
X98012761Y120491333D01*
X98060380Y120586571D01*
X98060380Y120777047D01*
X98012761Y120872285D01*
X97965142Y120919904D01*
X97869904Y120967523D01*
X97060380Y120967523D01*
X97393714Y121872285D02*
X98060380Y121872285D01*
X97012761Y121634190D02*
X97727047Y121396095D01*
X97727047Y122015142D01*
X107221380Y120225095D02*
X108030904Y120225095D01*
X108126142Y120272714D01*
X108173761Y120320333D01*
X108221380Y120415571D01*
X108221380Y120606047D01*
X108173761Y120701285D01*
X108126142Y120748904D01*
X108030904Y120796523D01*
X107221380Y120796523D01*
X107221380Y121177476D02*
X107221380Y121796523D01*
X107602333Y121463190D01*
X107602333Y121606047D01*
X107649952Y121701285D01*
X107697571Y121748904D01*
X107792809Y121796523D01*
X108030904Y121796523D01*
X108126142Y121748904D01*
X108173761Y121701285D01*
X108221380Y121606047D01*
X108221380Y121320333D01*
X108173761Y121225095D01*
X108126142Y121177476D01*
X62738095Y112875619D02*
X62738095Y112066095D01*
X62785714Y111970857D01*
X62833333Y111923238D01*
X62928571Y111875619D01*
X63119047Y111875619D01*
X63214285Y111923238D01*
X63261904Y111970857D01*
X63309523Y112066095D01*
X63309523Y112875619D01*
X63738095Y112780380D02*
X63785714Y112828000D01*
X63880952Y112875619D01*
X64119047Y112875619D01*
X64214285Y112828000D01*
X64261904Y112780380D01*
X64309523Y112685142D01*
X64309523Y112589904D01*
X64261904Y112447047D01*
X63690476Y111875619D01*
X64309523Y111875619D01*
X62782095Y85710619D02*
X62782095Y84901095D01*
X62829714Y84805857D01*
X62877333Y84758238D01*
X62972571Y84710619D01*
X63163047Y84710619D01*
X63258285Y84758238D01*
X63305904Y84805857D01*
X63353523Y84901095D01*
X63353523Y85710619D01*
X64353523Y84710619D02*
X63782095Y84710619D01*
X64067809Y84710619D02*
X64067809Y85710619D01*
X63972571Y85567761D01*
X63877333Y85472523D01*
X63782095Y85424904D01*
X92257571Y79650666D02*
X92305190Y79793523D01*
X92352809Y79841142D01*
X92448047Y79888761D01*
X92590904Y79888761D01*
X92686142Y79841142D01*
X92733761Y79793523D01*
X92781380Y79698285D01*
X92781380Y79317333D01*
X91781380Y79317333D01*
X91781380Y79650666D01*
X91829000Y79745904D01*
X91876619Y79793523D01*
X91971857Y79841142D01*
X92067095Y79841142D01*
X92162333Y79793523D01*
X92209952Y79745904D01*
X92257571Y79650666D01*
X92257571Y79317333D01*
X91781380Y80507809D02*
X91781380Y80698285D01*
X91829000Y80793523D01*
X91924238Y80888761D01*
X92114714Y80936380D01*
X92448047Y80936380D01*
X92638523Y80888761D01*
X92733761Y80793523D01*
X92781380Y80698285D01*
X92781380Y80507809D01*
X92733761Y80412571D01*
X92638523Y80317333D01*
X92448047Y80269714D01*
X92114714Y80269714D01*
X91924238Y80317333D01*
X91829000Y80412571D01*
X91781380Y80507809D01*
X91781380Y81555428D02*
X91781380Y81745904D01*
X91829000Y81841142D01*
X91924238Y81936380D01*
X92114714Y81984000D01*
X92448047Y81984000D01*
X92638523Y81936380D01*
X92733761Y81841142D01*
X92781380Y81745904D01*
X92781380Y81555428D01*
X92733761Y81460190D01*
X92638523Y81364952D01*
X92448047Y81317333D01*
X92114714Y81317333D01*
X91924238Y81364952D01*
X91829000Y81460190D01*
X91781380Y81555428D01*
X91781380Y82269714D02*
X91781380Y82841142D01*
X92781380Y82555428D02*
X91781380Y82555428D01*
X92781380Y83698285D02*
X92781380Y83126857D01*
X92781380Y83412571D02*
X91781380Y83412571D01*
X91924238Y83317333D01*
X92019476Y83222095D01*
X92067095Y83126857D01*
X121229380Y104722428D02*
X120753190Y104389095D01*
X121229380Y104151000D02*
X120229380Y104151000D01*
X120229380Y104531952D01*
X120277000Y104627190D01*
X120324619Y104674809D01*
X120419857Y104722428D01*
X120562714Y104722428D01*
X120657952Y104674809D01*
X120705571Y104627190D01*
X120753190Y104531952D01*
X120753190Y104151000D01*
X120705571Y105151000D02*
X120705571Y105484333D01*
X121229380Y105627190D02*
X121229380Y105151000D01*
X120229380Y105151000D01*
X120229380Y105627190D01*
X121181761Y106008142D02*
X121229380Y106151000D01*
X121229380Y106389095D01*
X121181761Y106484333D01*
X121134142Y106531952D01*
X121038904Y106579571D01*
X120943666Y106579571D01*
X120848428Y106531952D01*
X120800809Y106484333D01*
X120753190Y106389095D01*
X120705571Y106198619D01*
X120657952Y106103380D01*
X120610333Y106055761D01*
X120515095Y106008142D01*
X120419857Y106008142D01*
X120324619Y106055761D01*
X120277000Y106103380D01*
X120229380Y106198619D01*
X120229380Y106436714D01*
X120277000Y106579571D01*
X120705571Y107008142D02*
X120705571Y107341476D01*
X121229380Y107484333D02*
X121229380Y107008142D01*
X120229380Y107008142D01*
X120229380Y107484333D01*
X120229380Y107770047D02*
X120229380Y108341476D01*
X121229380Y108055761D02*
X120229380Y108055761D01*
X121229380Y109198619D02*
X121229380Y108627190D01*
X121229380Y108912904D02*
X120229380Y108912904D01*
X120372238Y108817666D01*
X120467476Y108722428D01*
X120515095Y108627190D01*
X111418761Y106167619D02*
X111085428Y106643809D01*
X110847333Y106167619D02*
X110847333Y107167619D01*
X111228285Y107167619D01*
X111323523Y107120000D01*
X111371142Y107072380D01*
X111418761Y106977142D01*
X111418761Y106834285D01*
X111371142Y106739047D01*
X111323523Y106691428D01*
X111228285Y106643809D01*
X110847333Y106643809D01*
X111704476Y107167619D02*
X112037809Y106167619D01*
X112371142Y107167619D01*
X113228285Y106167619D02*
X112656857Y106167619D01*
X112942571Y106167619D02*
X112942571Y107167619D01*
X112847333Y107024761D01*
X112752095Y106929523D01*
X112656857Y106881904D01*
X72890142Y70159619D02*
X72556809Y70635809D01*
X72318714Y70159619D02*
X72318714Y71159619D01*
X72699666Y71159619D01*
X72794904Y71112000D01*
X72842523Y71064380D01*
X72890142Y70969142D01*
X72890142Y70826285D01*
X72842523Y70731047D01*
X72794904Y70683428D01*
X72699666Y70635809D01*
X72318714Y70635809D01*
X73842523Y70159619D02*
X73271095Y70159619D01*
X73556809Y70159619D02*
X73556809Y71159619D01*
X73461571Y71016761D01*
X73366333Y70921523D01*
X73271095Y70873904D01*
X74413952Y70731047D02*
X74318714Y70778666D01*
X74271095Y70826285D01*
X74223476Y70921523D01*
X74223476Y70969142D01*
X74271095Y71064380D01*
X74318714Y71112000D01*
X74413952Y71159619D01*
X74604428Y71159619D01*
X74699666Y71112000D01*
X74747285Y71064380D01*
X74794904Y70969142D01*
X74794904Y70921523D01*
X74747285Y70826285D01*
X74699666Y70778666D01*
X74604428Y70731047D01*
X74413952Y70731047D01*
X74318714Y70683428D01*
X74271095Y70635809D01*
X74223476Y70540571D01*
X74223476Y70350095D01*
X74271095Y70254857D01*
X74318714Y70207238D01*
X74413952Y70159619D01*
X74604428Y70159619D01*
X74699666Y70207238D01*
X74747285Y70254857D01*
X74794904Y70350095D01*
X74794904Y70540571D01*
X74747285Y70635809D01*
X74699666Y70683428D01*
X74604428Y70731047D01*
X73017142Y66603619D02*
X72683809Y67079809D01*
X72445714Y66603619D02*
X72445714Y67603619D01*
X72826666Y67603619D01*
X72921904Y67556000D01*
X72969523Y67508380D01*
X73017142Y67413142D01*
X73017142Y67270285D01*
X72969523Y67175047D01*
X72921904Y67127428D01*
X72826666Y67079809D01*
X72445714Y67079809D01*
X73969523Y66603619D02*
X73398095Y66603619D01*
X73683809Y66603619D02*
X73683809Y67603619D01*
X73588571Y67460761D01*
X73493333Y67365523D01*
X73398095Y67317904D01*
X74302857Y67603619D02*
X74969523Y67603619D01*
X74540952Y66603619D01*
X78810380Y91051142D02*
X78334190Y90717809D01*
X78810380Y90479714D02*
X77810380Y90479714D01*
X77810380Y90860666D01*
X77858000Y90955904D01*
X77905619Y91003523D01*
X78000857Y91051142D01*
X78143714Y91051142D01*
X78238952Y91003523D01*
X78286571Y90955904D01*
X78334190Y90860666D01*
X78334190Y90479714D01*
X78810380Y92003523D02*
X78810380Y91432095D01*
X78810380Y91717809D02*
X77810380Y91717809D01*
X77953238Y91622571D01*
X78048476Y91527333D01*
X78096095Y91432095D01*
X77810380Y92860666D02*
X77810380Y92670190D01*
X77858000Y92574952D01*
X77905619Y92527333D01*
X78048476Y92432095D01*
X78238952Y92384476D01*
X78619904Y92384476D01*
X78715142Y92432095D01*
X78762761Y92479714D01*
X78810380Y92574952D01*
X78810380Y92765428D01*
X78762761Y92860666D01*
X78715142Y92908285D01*
X78619904Y92955904D01*
X78381809Y92955904D01*
X78286571Y92908285D01*
X78238952Y92860666D01*
X78191333Y92765428D01*
X78191333Y92574952D01*
X78238952Y92479714D01*
X78286571Y92432095D01*
X78381809Y92384476D01*
X88765142Y85781619D02*
X88431809Y86257809D01*
X88193714Y85781619D02*
X88193714Y86781619D01*
X88574666Y86781619D01*
X88669904Y86734000D01*
X88717523Y86686380D01*
X88765142Y86591142D01*
X88765142Y86448285D01*
X88717523Y86353047D01*
X88669904Y86305428D01*
X88574666Y86257809D01*
X88193714Y86257809D01*
X89717523Y85781619D02*
X89146095Y85781619D01*
X89431809Y85781619D02*
X89431809Y86781619D01*
X89336571Y86638761D01*
X89241333Y86543523D01*
X89146095Y86495904D01*
X90622285Y86781619D02*
X90146095Y86781619D01*
X90098476Y86305428D01*
X90146095Y86353047D01*
X90241333Y86400666D01*
X90479428Y86400666D01*
X90574666Y86353047D01*
X90622285Y86305428D01*
X90669904Y86210190D01*
X90669904Y85972095D01*
X90622285Y85876857D01*
X90574666Y85829238D01*
X90479428Y85781619D01*
X90241333Y85781619D01*
X90146095Y85829238D01*
X90098476Y85876857D01*
X108577142Y107877619D02*
X108243809Y108353809D01*
X108005714Y107877619D02*
X108005714Y108877619D01*
X108386666Y108877619D01*
X108481904Y108830000D01*
X108529523Y108782380D01*
X108577142Y108687142D01*
X108577142Y108544285D01*
X108529523Y108449047D01*
X108481904Y108401428D01*
X108386666Y108353809D01*
X108005714Y108353809D01*
X109529523Y107877619D02*
X108958095Y107877619D01*
X109243809Y107877619D02*
X109243809Y108877619D01*
X109148571Y108734761D01*
X109053333Y108639523D01*
X108958095Y108591904D01*
X110386666Y108544285D02*
X110386666Y107877619D01*
X110148571Y108925238D02*
X109910476Y108210952D01*
X110529523Y108210952D01*
X93337142Y91877619D02*
X93003809Y92353809D01*
X92765714Y91877619D02*
X92765714Y92877619D01*
X93146666Y92877619D01*
X93241904Y92830000D01*
X93289523Y92782380D01*
X93337142Y92687142D01*
X93337142Y92544285D01*
X93289523Y92449047D01*
X93241904Y92401428D01*
X93146666Y92353809D01*
X92765714Y92353809D01*
X94289523Y91877619D02*
X93718095Y91877619D01*
X94003809Y91877619D02*
X94003809Y92877619D01*
X93908571Y92734761D01*
X93813333Y92639523D01*
X93718095Y92591904D01*
X94622857Y92877619D02*
X95241904Y92877619D01*
X94908571Y92496666D01*
X95051428Y92496666D01*
X95146666Y92449047D01*
X95194285Y92401428D01*
X95241904Y92306190D01*
X95241904Y92068095D01*
X95194285Y91972857D01*
X95146666Y91925238D01*
X95051428Y91877619D01*
X94765714Y91877619D01*
X94670476Y91925238D01*
X94622857Y91972857D01*
X87495142Y96701619D02*
X87161809Y97177809D01*
X86923714Y96701619D02*
X86923714Y97701619D01*
X87304666Y97701619D01*
X87399904Y97654000D01*
X87447523Y97606380D01*
X87495142Y97511142D01*
X87495142Y97368285D01*
X87447523Y97273047D01*
X87399904Y97225428D01*
X87304666Y97177809D01*
X86923714Y97177809D01*
X88447523Y96701619D02*
X87876095Y96701619D01*
X88161809Y96701619D02*
X88161809Y97701619D01*
X88066571Y97558761D01*
X87971333Y97463523D01*
X87876095Y97415904D01*
X88828476Y97606380D02*
X88876095Y97654000D01*
X88971333Y97701619D01*
X89209428Y97701619D01*
X89304666Y97654000D01*
X89352285Y97606380D01*
X89399904Y97511142D01*
X89399904Y97415904D01*
X89352285Y97273047D01*
X88780857Y96701619D01*
X89399904Y96701619D01*
X124659380Y96590642D02*
X124183190Y96257309D01*
X124659380Y96019214D02*
X123659380Y96019214D01*
X123659380Y96400166D01*
X123707000Y96495404D01*
X123754619Y96543023D01*
X123849857Y96590642D01*
X123992714Y96590642D01*
X124087952Y96543023D01*
X124135571Y96495404D01*
X124183190Y96400166D01*
X124183190Y96019214D01*
X124659380Y97543023D02*
X124659380Y96971595D01*
X124659380Y97257309D02*
X123659380Y97257309D01*
X123802238Y97162071D01*
X123897476Y97066833D01*
X123945095Y96971595D01*
X124659380Y98495404D02*
X124659380Y97923976D01*
X124659380Y98209690D02*
X123659380Y98209690D01*
X123802238Y98114452D01*
X123897476Y98019214D01*
X123945095Y97923976D01*
X118308380Y75303142D02*
X117832190Y74969809D01*
X118308380Y74731714D02*
X117308380Y74731714D01*
X117308380Y75112666D01*
X117356000Y75207904D01*
X117403619Y75255523D01*
X117498857Y75303142D01*
X117641714Y75303142D01*
X117736952Y75255523D01*
X117784571Y75207904D01*
X117832190Y75112666D01*
X117832190Y74731714D01*
X118308380Y76255523D02*
X118308380Y75684095D01*
X118308380Y75969809D02*
X117308380Y75969809D01*
X117451238Y75874571D01*
X117546476Y75779333D01*
X117594095Y75684095D01*
X117308380Y76874571D02*
X117308380Y76969809D01*
X117356000Y77065047D01*
X117403619Y77112666D01*
X117498857Y77160285D01*
X117689333Y77207904D01*
X117927428Y77207904D01*
X118117904Y77160285D01*
X118213142Y77112666D01*
X118260761Y77065047D01*
X118308380Y76969809D01*
X118308380Y76874571D01*
X118260761Y76779333D01*
X118213142Y76731714D01*
X118117904Y76684095D01*
X117927428Y76636476D01*
X117689333Y76636476D01*
X117498857Y76684095D01*
X117403619Y76731714D01*
X117356000Y76779333D01*
X117308380Y76874571D01*
X95591333Y104323619D02*
X95258000Y104799809D01*
X95019904Y104323619D02*
X95019904Y105323619D01*
X95400857Y105323619D01*
X95496095Y105276000D01*
X95543714Y105228380D01*
X95591333Y105133142D01*
X95591333Y104990285D01*
X95543714Y104895047D01*
X95496095Y104847428D01*
X95400857Y104799809D01*
X95019904Y104799809D01*
X96067523Y104323619D02*
X96258000Y104323619D01*
X96353238Y104371238D01*
X96400857Y104418857D01*
X96496095Y104561714D01*
X96543714Y104752190D01*
X96543714Y105133142D01*
X96496095Y105228380D01*
X96448476Y105276000D01*
X96353238Y105323619D01*
X96162761Y105323619D01*
X96067523Y105276000D01*
X96019904Y105228380D01*
X95972285Y105133142D01*
X95972285Y104895047D01*
X96019904Y104799809D01*
X96067523Y104752190D01*
X96162761Y104704571D01*
X96353238Y104704571D01*
X96448476Y104752190D01*
X96496095Y104799809D01*
X96543714Y104895047D01*
X113356380Y113117333D02*
X112880190Y112784000D01*
X113356380Y112545904D02*
X112356380Y112545904D01*
X112356380Y112926857D01*
X112404000Y113022095D01*
X112451619Y113069714D01*
X112546857Y113117333D01*
X112689714Y113117333D01*
X112784952Y113069714D01*
X112832571Y113022095D01*
X112880190Y112926857D01*
X112880190Y112545904D01*
X112784952Y113688761D02*
X112737333Y113593523D01*
X112689714Y113545904D01*
X112594476Y113498285D01*
X112546857Y113498285D01*
X112451619Y113545904D01*
X112404000Y113593523D01*
X112356380Y113688761D01*
X112356380Y113879238D01*
X112404000Y113974476D01*
X112451619Y114022095D01*
X112546857Y114069714D01*
X112594476Y114069714D01*
X112689714Y114022095D01*
X112737333Y113974476D01*
X112784952Y113879238D01*
X112784952Y113688761D01*
X112832571Y113593523D01*
X112880190Y113545904D01*
X112975428Y113498285D01*
X113165904Y113498285D01*
X113261142Y113545904D01*
X113308761Y113593523D01*
X113356380Y113688761D01*
X113356380Y113879238D01*
X113308761Y113974476D01*
X113261142Y114022095D01*
X113165904Y114069714D01*
X112975428Y114069714D01*
X112880190Y114022095D01*
X112832571Y113974476D01*
X112784952Y113879238D01*
X93161380Y111387833D02*
X92685190Y111054500D01*
X93161380Y110816404D02*
X92161380Y110816404D01*
X92161380Y111197357D01*
X92209000Y111292595D01*
X92256619Y111340214D01*
X92351857Y111387833D01*
X92494714Y111387833D01*
X92589952Y111340214D01*
X92637571Y111292595D01*
X92685190Y111197357D01*
X92685190Y110816404D01*
X92161380Y111721166D02*
X92161380Y112387833D01*
X93161380Y111959261D01*
X93161380Y116497833D02*
X92685190Y116164500D01*
X93161380Y115926404D02*
X92161380Y115926404D01*
X92161380Y116307357D01*
X92209000Y116402595D01*
X92256619Y116450214D01*
X92351857Y116497833D01*
X92494714Y116497833D01*
X92589952Y116450214D01*
X92637571Y116402595D01*
X92685190Y116307357D01*
X92685190Y115926404D01*
X92161380Y117354976D02*
X92161380Y117164500D01*
X92209000Y117069261D01*
X92256619Y117021642D01*
X92399476Y116926404D01*
X92589952Y116878785D01*
X92970904Y116878785D01*
X93066142Y116926404D01*
X93113761Y116974023D01*
X93161380Y117069261D01*
X93161380Y117259738D01*
X93113761Y117354976D01*
X93066142Y117402595D01*
X92970904Y117450214D01*
X92732809Y117450214D01*
X92637571Y117402595D01*
X92589952Y117354976D01*
X92542333Y117259738D01*
X92542333Y117069261D01*
X92589952Y116974023D01*
X92637571Y116926404D01*
X92732809Y116878785D01*
X83907333Y101781619D02*
X83574000Y102257809D01*
X83335904Y101781619D02*
X83335904Y102781619D01*
X83716857Y102781619D01*
X83812095Y102734000D01*
X83859714Y102686380D01*
X83907333Y102591142D01*
X83907333Y102448285D01*
X83859714Y102353047D01*
X83812095Y102305428D01*
X83716857Y102257809D01*
X83335904Y102257809D01*
X84812095Y102781619D02*
X84335904Y102781619D01*
X84288285Y102305428D01*
X84335904Y102353047D01*
X84431142Y102400666D01*
X84669238Y102400666D01*
X84764476Y102353047D01*
X84812095Y102305428D01*
X84859714Y102210190D01*
X84859714Y101972095D01*
X84812095Y101876857D01*
X84764476Y101829238D01*
X84669238Y101781619D01*
X84431142Y101781619D01*
X84335904Y101829238D01*
X84288285Y101876857D01*
X82112380Y106434833D02*
X81636190Y106101500D01*
X82112380Y105863404D02*
X81112380Y105863404D01*
X81112380Y106244357D01*
X81160000Y106339595D01*
X81207619Y106387214D01*
X81302857Y106434833D01*
X81445714Y106434833D01*
X81540952Y106387214D01*
X81588571Y106339595D01*
X81636190Y106244357D01*
X81636190Y105863404D01*
X81445714Y107291976D02*
X82112380Y107291976D01*
X81064761Y107053880D02*
X81779047Y106815785D01*
X81779047Y107434833D01*
X69158380Y98971833D02*
X68682190Y98638500D01*
X69158380Y98400404D02*
X68158380Y98400404D01*
X68158380Y98781357D01*
X68206000Y98876595D01*
X68253619Y98924214D01*
X68348857Y98971833D01*
X68491714Y98971833D01*
X68586952Y98924214D01*
X68634571Y98876595D01*
X68682190Y98781357D01*
X68682190Y98400404D01*
X68158380Y99305166D02*
X68158380Y99924214D01*
X68539333Y99590880D01*
X68539333Y99733738D01*
X68586952Y99828976D01*
X68634571Y99876595D01*
X68729809Y99924214D01*
X68967904Y99924214D01*
X69063142Y99876595D01*
X69110761Y99828976D01*
X69158380Y99733738D01*
X69158380Y99448023D01*
X69110761Y99352785D01*
X69063142Y99305166D01*
X64840380Y98941833D02*
X64364190Y98608500D01*
X64840380Y98370404D02*
X63840380Y98370404D01*
X63840380Y98751357D01*
X63888000Y98846595D01*
X63935619Y98894214D01*
X64030857Y98941833D01*
X64173714Y98941833D01*
X64268952Y98894214D01*
X64316571Y98846595D01*
X64364190Y98751357D01*
X64364190Y98370404D01*
X63935619Y99322785D02*
X63888000Y99370404D01*
X63840380Y99465642D01*
X63840380Y99703738D01*
X63888000Y99798976D01*
X63935619Y99846595D01*
X64030857Y99894214D01*
X64126095Y99894214D01*
X64268952Y99846595D01*
X64840380Y99275166D01*
X64840380Y99894214D01*
X56204380Y103338333D02*
X55728190Y103005000D01*
X56204380Y102766904D02*
X55204380Y102766904D01*
X55204380Y103147857D01*
X55252000Y103243095D01*
X55299619Y103290714D01*
X55394857Y103338333D01*
X55537714Y103338333D01*
X55632952Y103290714D01*
X55680571Y103243095D01*
X55728190Y103147857D01*
X55728190Y102766904D01*
X56204380Y104290714D02*
X56204380Y103719285D01*
X56204380Y104005000D02*
X55204380Y104005000D01*
X55347238Y103909761D01*
X55442476Y103814523D01*
X55490095Y103719285D01*
X57689761Y106600380D02*
X57594523Y106648000D01*
X57499285Y106743238D01*
X57356428Y106886095D01*
X57261190Y106933714D01*
X57165952Y106933714D01*
X57213571Y106695619D02*
X57118333Y106743238D01*
X57023095Y106838476D01*
X56975476Y107028952D01*
X56975476Y107362285D01*
X57023095Y107552761D01*
X57118333Y107648000D01*
X57213571Y107695619D01*
X57404047Y107695619D01*
X57499285Y107648000D01*
X57594523Y107552761D01*
X57642142Y107362285D01*
X57642142Y107028952D01*
X57594523Y106838476D01*
X57499285Y106743238D01*
X57404047Y106695619D01*
X57213571Y106695619D01*
X58594523Y106695619D02*
X58023095Y106695619D01*
X58308809Y106695619D02*
X58308809Y107695619D01*
X58213571Y107552761D01*
X58118333Y107457523D01*
X58023095Y107409904D01*
X64095333Y123758619D02*
X63619142Y123758619D01*
X63619142Y124758619D01*
X64381047Y124663380D02*
X64428666Y124711000D01*
X64523904Y124758619D01*
X64762000Y124758619D01*
X64857238Y124711000D01*
X64904857Y124663380D01*
X64952476Y124568142D01*
X64952476Y124472904D01*
X64904857Y124330047D01*
X64333428Y123758619D01*
X64952476Y123758619D01*
X70424380Y122515333D02*
X70424380Y122039142D01*
X69424380Y122039142D01*
X70424380Y123372476D02*
X70424380Y122801047D01*
X70424380Y123086761D02*
X69424380Y123086761D01*
X69567238Y122991523D01*
X69662476Y122896285D01*
X69710095Y122801047D01*
X55927666Y61888619D02*
X55927666Y61174333D01*
X55880047Y61031476D01*
X55784809Y60936238D01*
X55641952Y60888619D01*
X55546714Y60888619D01*
X56308619Y61888619D02*
X56927666Y61888619D01*
X56594333Y61507666D01*
X56737190Y61507666D01*
X56832428Y61460047D01*
X56880047Y61412428D01*
X56927666Y61317190D01*
X56927666Y61079095D01*
X56880047Y60983857D01*
X56832428Y60936238D01*
X56737190Y60888619D01*
X56451476Y60888619D01*
X56356238Y60936238D01*
X56308619Y60983857D01*
X56530380Y74850666D02*
X57244666Y74850666D01*
X57387523Y74803047D01*
X57482761Y74707809D01*
X57530380Y74564952D01*
X57530380Y74469714D01*
X56625619Y75279238D02*
X56578000Y75326857D01*
X56530380Y75422095D01*
X56530380Y75660190D01*
X56578000Y75755428D01*
X56625619Y75803047D01*
X56720857Y75850666D01*
X56816095Y75850666D01*
X56958952Y75803047D01*
X57530380Y75231619D01*
X57530380Y75850666D01*
X60833142Y70032619D02*
X60499809Y70508809D01*
X60261714Y70032619D02*
X60261714Y71032619D01*
X60642666Y71032619D01*
X60737904Y70985000D01*
X60785523Y70937380D01*
X60833142Y70842142D01*
X60833142Y70699285D01*
X60785523Y70604047D01*
X60737904Y70556428D01*
X60642666Y70508809D01*
X60261714Y70508809D01*
X61166476Y71032619D02*
X61833142Y70032619D01*
X61833142Y71032619D02*
X61166476Y70032619D01*
X62214095Y70032619D02*
X62214095Y71032619D01*
X62452190Y71032619D01*
X62595047Y70985000D01*
X62690285Y70889761D01*
X62737904Y70794523D01*
X62785523Y70604047D01*
X62785523Y70461190D01*
X62737904Y70270714D01*
X62690285Y70175476D01*
X62595047Y70080238D01*
X62452190Y70032619D01*
X62214095Y70032619D01*
X63737904Y70032619D02*
X63166476Y70032619D01*
X63452190Y70032619D02*
X63452190Y71032619D01*
X63356952Y70889761D01*
X63261714Y70794523D01*
X63166476Y70746904D01*
X60237904Y67476619D02*
X60809333Y67476619D01*
X60523619Y66476619D02*
X60523619Y67476619D01*
X61047428Y67476619D02*
X61714095Y66476619D01*
X61714095Y67476619D02*
X61047428Y66476619D01*
X62095047Y66476619D02*
X62095047Y67476619D01*
X62333142Y67476619D01*
X62476000Y67429000D01*
X62571238Y67333761D01*
X62618857Y67238523D01*
X62666476Y67048047D01*
X62666476Y66905190D01*
X62618857Y66714714D01*
X62571238Y66619476D01*
X62476000Y66524238D01*
X62333142Y66476619D01*
X62095047Y66476619D01*
X63618857Y66476619D02*
X63047428Y66476619D01*
X63333142Y66476619D02*
X63333142Y67476619D01*
X63237904Y67333761D01*
X63142666Y67238523D01*
X63047428Y67190904D01*
X75510380Y86891904D02*
X74510380Y86891904D01*
X74510380Y87130000D01*
X74558000Y87272857D01*
X74653238Y87368095D01*
X74748476Y87415714D01*
X74938952Y87463333D01*
X75081809Y87463333D01*
X75272285Y87415714D01*
X75367523Y87368095D01*
X75462761Y87272857D01*
X75510380Y87130000D01*
X75510380Y86891904D01*
X74843714Y88320476D02*
X75510380Y88320476D01*
X74462761Y88082380D02*
X75177047Y87844285D01*
X75177047Y88463333D01*
X80287904Y118895619D02*
X80287904Y119895619D01*
X80526000Y119895619D01*
X80668857Y119848000D01*
X80764095Y119752761D01*
X80811714Y119657523D01*
X80859333Y119467047D01*
X80859333Y119324190D01*
X80811714Y119133714D01*
X80764095Y119038476D01*
X80668857Y118943238D01*
X80526000Y118895619D01*
X80287904Y118895619D01*
X81192666Y119895619D02*
X81811714Y119895619D01*
X81478380Y119514666D01*
X81621238Y119514666D01*
X81716476Y119467047D01*
X81764095Y119419428D01*
X81811714Y119324190D01*
X81811714Y119086095D01*
X81764095Y118990857D01*
X81716476Y118943238D01*
X81621238Y118895619D01*
X81335523Y118895619D01*
X81240285Y118943238D01*
X81192666Y118990857D01*
X73890380Y112799904D02*
X72890380Y112799904D01*
X72890380Y113038000D01*
X72938000Y113180857D01*
X73033238Y113276095D01*
X73128476Y113323714D01*
X73318952Y113371333D01*
X73461809Y113371333D01*
X73652285Y113323714D01*
X73747523Y113276095D01*
X73842761Y113180857D01*
X73890380Y113038000D01*
X73890380Y112799904D01*
X72985619Y113752285D02*
X72938000Y113799904D01*
X72890380Y113895142D01*
X72890380Y114133238D01*
X72938000Y114228476D01*
X72985619Y114276095D01*
X73080857Y114323714D01*
X73176095Y114323714D01*
X73318952Y114276095D01*
X73890380Y113704666D01*
X73890380Y114323714D01*
X70381904Y105243619D02*
X70381904Y106243619D01*
X70620000Y106243619D01*
X70762857Y106196000D01*
X70858095Y106100761D01*
X70905714Y106005523D01*
X70953333Y105815047D01*
X70953333Y105672190D01*
X70905714Y105481714D01*
X70858095Y105386476D01*
X70762857Y105291238D01*
X70620000Y105243619D01*
X70381904Y105243619D01*
X71905714Y105243619D02*
X71334285Y105243619D01*
X71620000Y105243619D02*
X71620000Y106243619D01*
X71524761Y106100761D01*
X71429523Y106005523D01*
X71334285Y105957904D01*
X88663642Y73396857D02*
X88616023Y73349238D01*
X88473166Y73301619D01*
X88377928Y73301619D01*
X88235071Y73349238D01*
X88139833Y73444476D01*
X88092214Y73539714D01*
X88044595Y73730190D01*
X88044595Y73873047D01*
X88092214Y74063523D01*
X88139833Y74158761D01*
X88235071Y74254000D01*
X88377928Y74301619D01*
X88473166Y74301619D01*
X88616023Y74254000D01*
X88663642Y74206380D01*
X89616023Y73301619D02*
X89044595Y73301619D01*
X89330309Y73301619D02*
X89330309Y74301619D01*
X89235071Y74158761D01*
X89139833Y74063523D01*
X89044595Y74015904D01*
X90092214Y73301619D02*
X90282690Y73301619D01*
X90377928Y73349238D01*
X90425547Y73396857D01*
X90520785Y73539714D01*
X90568404Y73730190D01*
X90568404Y74111142D01*
X90520785Y74206380D01*
X90473166Y74254000D01*
X90377928Y74301619D01*
X90187452Y74301619D01*
X90092214Y74254000D01*
X90044595Y74206380D01*
X89996976Y74111142D01*
X89996976Y73873047D01*
X90044595Y73777809D01*
X90092214Y73730190D01*
X90187452Y73682571D01*
X90377928Y73682571D01*
X90473166Y73730190D01*
X90520785Y73777809D01*
X90568404Y73873047D01*
X126341142Y70731142D02*
X126388761Y70683523D01*
X126436380Y70540666D01*
X126436380Y70445428D01*
X126388761Y70302571D01*
X126293523Y70207333D01*
X126198285Y70159714D01*
X126007809Y70112095D01*
X125864952Y70112095D01*
X125674476Y70159714D01*
X125579238Y70207333D01*
X125484000Y70302571D01*
X125436380Y70445428D01*
X125436380Y70540666D01*
X125484000Y70683523D01*
X125531619Y70731142D01*
X126436380Y71683523D02*
X126436380Y71112095D01*
X126436380Y71397809D02*
X125436380Y71397809D01*
X125579238Y71302571D01*
X125674476Y71207333D01*
X125722095Y71112095D01*
X125864952Y72254952D02*
X125817333Y72159714D01*
X125769714Y72112095D01*
X125674476Y72064476D01*
X125626857Y72064476D01*
X125531619Y72112095D01*
X125484000Y72159714D01*
X125436380Y72254952D01*
X125436380Y72445428D01*
X125484000Y72540666D01*
X125531619Y72588285D01*
X125626857Y72635904D01*
X125674476Y72635904D01*
X125769714Y72588285D01*
X125817333Y72540666D01*
X125864952Y72445428D01*
X125864952Y72254952D01*
X125912571Y72159714D01*
X125960190Y72112095D01*
X126055428Y72064476D01*
X126245904Y72064476D01*
X126341142Y72112095D01*
X126388761Y72159714D01*
X126436380Y72254952D01*
X126436380Y72445428D01*
X126388761Y72540666D01*
X126341142Y72588285D01*
X126245904Y72635904D01*
X126055428Y72635904D01*
X125960190Y72588285D01*
X125912571Y72540666D01*
X125864952Y72445428D01*
X123309142Y101783857D02*
X123261523Y101736238D01*
X123118666Y101688619D01*
X123023428Y101688619D01*
X122880571Y101736238D01*
X122785333Y101831476D01*
X122737714Y101926714D01*
X122690095Y102117190D01*
X122690095Y102260047D01*
X122737714Y102450523D01*
X122785333Y102545761D01*
X122880571Y102641000D01*
X123023428Y102688619D01*
X123118666Y102688619D01*
X123261523Y102641000D01*
X123309142Y102593380D01*
X124261523Y101688619D02*
X123690095Y101688619D01*
X123975809Y101688619D02*
X123975809Y102688619D01*
X123880571Y102545761D01*
X123785333Y102450523D01*
X123690095Y102402904D01*
X124594857Y102688619D02*
X125261523Y102688619D01*
X124832952Y101688619D01*
X120974142Y96740642D02*
X121021761Y96693023D01*
X121069380Y96550166D01*
X121069380Y96454928D01*
X121021761Y96312071D01*
X120926523Y96216833D01*
X120831285Y96169214D01*
X120640809Y96121595D01*
X120497952Y96121595D01*
X120307476Y96169214D01*
X120212238Y96216833D01*
X120117000Y96312071D01*
X120069380Y96454928D01*
X120069380Y96550166D01*
X120117000Y96693023D01*
X120164619Y96740642D01*
X121069380Y97693023D02*
X121069380Y97121595D01*
X121069380Y97407309D02*
X120069380Y97407309D01*
X120212238Y97312071D01*
X120307476Y97216833D01*
X120355095Y97121595D01*
X120069380Y98550166D02*
X120069380Y98359690D01*
X120117000Y98264452D01*
X120164619Y98216833D01*
X120307476Y98121595D01*
X120497952Y98073976D01*
X120878904Y98073976D01*
X120974142Y98121595D01*
X121021761Y98169214D01*
X121069380Y98264452D01*
X121069380Y98454928D01*
X121021761Y98550166D01*
X120974142Y98597785D01*
X120878904Y98645404D01*
X120640809Y98645404D01*
X120545571Y98597785D01*
X120497952Y98550166D01*
X120450333Y98454928D01*
X120450333Y98264452D01*
X120497952Y98169214D01*
X120545571Y98121595D01*
X120640809Y98073976D01*
X78071642Y80828857D02*
X78024023Y80781238D01*
X77881166Y80733619D01*
X77785928Y80733619D01*
X77643071Y80781238D01*
X77547833Y80876476D01*
X77500214Y80971714D01*
X77452595Y81162190D01*
X77452595Y81305047D01*
X77500214Y81495523D01*
X77547833Y81590761D01*
X77643071Y81686000D01*
X77785928Y81733619D01*
X77881166Y81733619D01*
X78024023Y81686000D01*
X78071642Y81638380D01*
X79024023Y80733619D02*
X78452595Y80733619D01*
X78738309Y80733619D02*
X78738309Y81733619D01*
X78643071Y81590761D01*
X78547833Y81495523D01*
X78452595Y81447904D01*
X79881166Y81400285D02*
X79881166Y80733619D01*
X79643071Y81781238D02*
X79404976Y81066952D01*
X80024023Y81066952D01*
X78071642Y77018857D02*
X78024023Y76971238D01*
X77881166Y76923619D01*
X77785928Y76923619D01*
X77643071Y76971238D01*
X77547833Y77066476D01*
X77500214Y77161714D01*
X77452595Y77352190D01*
X77452595Y77495047D01*
X77500214Y77685523D01*
X77547833Y77780761D01*
X77643071Y77876000D01*
X77785928Y77923619D01*
X77881166Y77923619D01*
X78024023Y77876000D01*
X78071642Y77828380D01*
X79024023Y76923619D02*
X78452595Y76923619D01*
X78738309Y76923619D02*
X78738309Y77923619D01*
X78643071Y77780761D01*
X78547833Y77685523D01*
X78452595Y77637904D01*
X79357357Y77923619D02*
X79976404Y77923619D01*
X79643071Y77542666D01*
X79785928Y77542666D01*
X79881166Y77495047D01*
X79928785Y77447428D01*
X79976404Y77352190D01*
X79976404Y77114095D01*
X79928785Y77018857D01*
X79881166Y76971238D01*
X79785928Y76923619D01*
X79500214Y76923619D01*
X79404976Y76971238D01*
X79357357Y77018857D01*
X93161142Y113631642D02*
X93208761Y113584023D01*
X93256380Y113441166D01*
X93256380Y113345928D01*
X93208761Y113203071D01*
X93113523Y113107833D01*
X93018285Y113060214D01*
X92827809Y113012595D01*
X92684952Y113012595D01*
X92494476Y113060214D01*
X92399238Y113107833D01*
X92304000Y113203071D01*
X92256380Y113345928D01*
X92256380Y113441166D01*
X92304000Y113584023D01*
X92351619Y113631642D01*
X93256380Y114584023D02*
X93256380Y114012595D01*
X93256380Y114298309D02*
X92256380Y114298309D01*
X92399238Y114203071D01*
X92494476Y114107833D01*
X92542095Y114012595D01*
X92351619Y114964976D02*
X92304000Y115012595D01*
X92256380Y115107833D01*
X92256380Y115345928D01*
X92304000Y115441166D01*
X92351619Y115488785D01*
X92446857Y115536404D01*
X92542095Y115536404D01*
X92684952Y115488785D01*
X93256380Y114917357D01*
X93256380Y115536404D01*
X106435142Y112641142D02*
X106482761Y112593523D01*
X106530380Y112450666D01*
X106530380Y112355428D01*
X106482761Y112212571D01*
X106387523Y112117333D01*
X106292285Y112069714D01*
X106101809Y112022095D01*
X105958952Y112022095D01*
X105768476Y112069714D01*
X105673238Y112117333D01*
X105578000Y112212571D01*
X105530380Y112355428D01*
X105530380Y112450666D01*
X105578000Y112593523D01*
X105625619Y112641142D01*
X106530380Y113593523D02*
X106530380Y113022095D01*
X106530380Y113307809D02*
X105530380Y113307809D01*
X105673238Y113212571D01*
X105768476Y113117333D01*
X105816095Y113022095D01*
X106530380Y114545904D02*
X106530380Y113974476D01*
X106530380Y114260190D02*
X105530380Y114260190D01*
X105673238Y114164952D01*
X105768476Y114069714D01*
X105816095Y113974476D01*
X120151142Y112641142D02*
X120198761Y112593523D01*
X120246380Y112450666D01*
X120246380Y112355428D01*
X120198761Y112212571D01*
X120103523Y112117333D01*
X120008285Y112069714D01*
X119817809Y112022095D01*
X119674952Y112022095D01*
X119484476Y112069714D01*
X119389238Y112117333D01*
X119294000Y112212571D01*
X119246380Y112355428D01*
X119246380Y112450666D01*
X119294000Y112593523D01*
X119341619Y112641142D01*
X120246380Y113593523D02*
X120246380Y113022095D01*
X120246380Y113307809D02*
X119246380Y113307809D01*
X119389238Y113212571D01*
X119484476Y113117333D01*
X119532095Y113022095D01*
X119246380Y114212571D02*
X119246380Y114307809D01*
X119294000Y114403047D01*
X119341619Y114450666D01*
X119436857Y114498285D01*
X119627333Y114545904D01*
X119865428Y114545904D01*
X120055904Y114498285D01*
X120151142Y114450666D01*
X120198761Y114403047D01*
X120246380Y114307809D01*
X120246380Y114212571D01*
X120198761Y114117333D01*
X120151142Y114069714D01*
X120055904Y114022095D01*
X119865428Y113974476D01*
X119627333Y113974476D01*
X119436857Y114022095D01*
X119341619Y114069714D01*
X119294000Y114117333D01*
X119246380Y114212571D01*
X85668142Y104074833D02*
X85715761Y104027214D01*
X85763380Y103884357D01*
X85763380Y103789119D01*
X85715761Y103646261D01*
X85620523Y103551023D01*
X85525285Y103503404D01*
X85334809Y103455785D01*
X85191952Y103455785D01*
X85001476Y103503404D01*
X84906238Y103551023D01*
X84811000Y103646261D01*
X84763380Y103789119D01*
X84763380Y103884357D01*
X84811000Y104027214D01*
X84858619Y104074833D01*
X85763380Y104551023D02*
X85763380Y104741500D01*
X85715761Y104836738D01*
X85668142Y104884357D01*
X85525285Y104979595D01*
X85334809Y105027214D01*
X84953857Y105027214D01*
X84858619Y104979595D01*
X84811000Y104931976D01*
X84763380Y104836738D01*
X84763380Y104646261D01*
X84811000Y104551023D01*
X84858619Y104503404D01*
X84953857Y104455785D01*
X85191952Y104455785D01*
X85287190Y104503404D01*
X85334809Y104551023D01*
X85382428Y104646261D01*
X85382428Y104836738D01*
X85334809Y104931976D01*
X85287190Y104979595D01*
X85191952Y105027214D01*
X84779142Y116393833D02*
X84826761Y116346214D01*
X84874380Y116203357D01*
X84874380Y116108119D01*
X84826761Y115965261D01*
X84731523Y115870023D01*
X84636285Y115822404D01*
X84445809Y115774785D01*
X84302952Y115774785D01*
X84112476Y115822404D01*
X84017238Y115870023D01*
X83922000Y115965261D01*
X83874380Y116108119D01*
X83874380Y116203357D01*
X83922000Y116346214D01*
X83969619Y116393833D01*
X84302952Y116965261D02*
X84255333Y116870023D01*
X84207714Y116822404D01*
X84112476Y116774785D01*
X84064857Y116774785D01*
X83969619Y116822404D01*
X83922000Y116870023D01*
X83874380Y116965261D01*
X83874380Y117155738D01*
X83922000Y117250976D01*
X83969619Y117298595D01*
X84064857Y117346214D01*
X84112476Y117346214D01*
X84207714Y117298595D01*
X84255333Y117250976D01*
X84302952Y117155738D01*
X84302952Y116965261D01*
X84350571Y116870023D01*
X84398190Y116822404D01*
X84493428Y116774785D01*
X84683904Y116774785D01*
X84779142Y116822404D01*
X84826761Y116870023D01*
X84874380Y116965261D01*
X84874380Y117155738D01*
X84826761Y117250976D01*
X84779142Y117298595D01*
X84683904Y117346214D01*
X84493428Y117346214D01*
X84398190Y117298595D01*
X84350571Y117250976D01*
X84302952Y117155738D01*
X98495142Y113117333D02*
X98542761Y113069714D01*
X98590380Y112926857D01*
X98590380Y112831619D01*
X98542761Y112688761D01*
X98447523Y112593523D01*
X98352285Y112545904D01*
X98161809Y112498285D01*
X98018952Y112498285D01*
X97828476Y112545904D01*
X97733238Y112593523D01*
X97638000Y112688761D01*
X97590380Y112831619D01*
X97590380Y112926857D01*
X97638000Y113069714D01*
X97685619Y113117333D01*
X97590380Y113450666D02*
X97590380Y114117333D01*
X98590380Y113688761D01*
X108909142Y113117333D02*
X108956761Y113069714D01*
X109004380Y112926857D01*
X109004380Y112831619D01*
X108956761Y112688761D01*
X108861523Y112593523D01*
X108766285Y112545904D01*
X108575809Y112498285D01*
X108432952Y112498285D01*
X108242476Y112545904D01*
X108147238Y112593523D01*
X108052000Y112688761D01*
X108004380Y112831619D01*
X108004380Y112926857D01*
X108052000Y113069714D01*
X108099619Y113117333D01*
X108004380Y113974476D02*
X108004380Y113784000D01*
X108052000Y113688761D01*
X108099619Y113641142D01*
X108242476Y113545904D01*
X108432952Y113498285D01*
X108813904Y113498285D01*
X108909142Y113545904D01*
X108956761Y113593523D01*
X109004380Y113688761D01*
X109004380Y113879238D01*
X108956761Y113974476D01*
X108909142Y114022095D01*
X108813904Y114069714D01*
X108575809Y114069714D01*
X108480571Y114022095D01*
X108432952Y113974476D01*
X108385333Y113879238D01*
X108385333Y113688761D01*
X108432952Y113593523D01*
X108480571Y113545904D01*
X108575809Y113498285D01*
X74873142Y106513333D02*
X74920761Y106465714D01*
X74968380Y106322857D01*
X74968380Y106227619D01*
X74920761Y106084761D01*
X74825523Y105989523D01*
X74730285Y105941904D01*
X74539809Y105894285D01*
X74396952Y105894285D01*
X74206476Y105941904D01*
X74111238Y105989523D01*
X74016000Y106084761D01*
X73968380Y106227619D01*
X73968380Y106322857D01*
X74016000Y106465714D01*
X74063619Y106513333D01*
X73968380Y107418095D02*
X73968380Y106941904D01*
X74444571Y106894285D01*
X74396952Y106941904D01*
X74349333Y107037142D01*
X74349333Y107275238D01*
X74396952Y107370476D01*
X74444571Y107418095D01*
X74539809Y107465714D01*
X74777904Y107465714D01*
X74873142Y107418095D01*
X74920761Y107370476D01*
X74968380Y107275238D01*
X74968380Y107037142D01*
X74920761Y106941904D01*
X74873142Y106894285D01*
X71715333Y113274857D02*
X71667714Y113227238D01*
X71524857Y113179619D01*
X71429619Y113179619D01*
X71286761Y113227238D01*
X71191523Y113322476D01*
X71143904Y113417714D01*
X71096285Y113608190D01*
X71096285Y113751047D01*
X71143904Y113941523D01*
X71191523Y114036761D01*
X71286761Y114132000D01*
X71429619Y114179619D01*
X71524857Y114179619D01*
X71667714Y114132000D01*
X71715333Y114084380D01*
X72572476Y113846285D02*
X72572476Y113179619D01*
X72334380Y114227238D02*
X72096285Y113512952D01*
X72715333Y113512952D01*
X71063142Y90282833D02*
X71110761Y90235214D01*
X71158380Y90092357D01*
X71158380Y89997119D01*
X71110761Y89854261D01*
X71015523Y89759023D01*
X70920285Y89711404D01*
X70729809Y89663785D01*
X70586952Y89663785D01*
X70396476Y89711404D01*
X70301238Y89759023D01*
X70206000Y89854261D01*
X70158380Y89997119D01*
X70158380Y90092357D01*
X70206000Y90235214D01*
X70253619Y90282833D01*
X70158380Y90616166D02*
X70158380Y91235214D01*
X70539333Y90901880D01*
X70539333Y91044738D01*
X70586952Y91139976D01*
X70634571Y91187595D01*
X70729809Y91235214D01*
X70967904Y91235214D01*
X71063142Y91187595D01*
X71110761Y91139976D01*
X71158380Y91044738D01*
X71158380Y90759023D01*
X71110761Y90663785D01*
X71063142Y90616166D01*
X54163833Y84384857D02*
X54116214Y84337238D01*
X53973357Y84289619D01*
X53878119Y84289619D01*
X53735261Y84337238D01*
X53640023Y84432476D01*
X53592404Y84527714D01*
X53544785Y84718190D01*
X53544785Y84861047D01*
X53592404Y85051523D01*
X53640023Y85146761D01*
X53735261Y85242000D01*
X53878119Y85289619D01*
X53973357Y85289619D01*
X54116214Y85242000D01*
X54163833Y85194380D01*
X54544785Y85194380D02*
X54592404Y85242000D01*
X54687642Y85289619D01*
X54925738Y85289619D01*
X55020976Y85242000D01*
X55068595Y85194380D01*
X55116214Y85099142D01*
X55116214Y85003904D01*
X55068595Y84861047D01*
X54497166Y84289619D01*
X55116214Y84289619D01*
X54951333Y107813857D02*
X54903714Y107766238D01*
X54760857Y107718619D01*
X54665619Y107718619D01*
X54522761Y107766238D01*
X54427523Y107861476D01*
X54379904Y107956714D01*
X54332285Y108147190D01*
X54332285Y108290047D01*
X54379904Y108480523D01*
X54427523Y108575761D01*
X54522761Y108671000D01*
X54665619Y108718619D01*
X54760857Y108718619D01*
X54903714Y108671000D01*
X54951333Y108623380D01*
X55903714Y107718619D02*
X55332285Y107718619D01*
X55618000Y107718619D02*
X55618000Y108718619D01*
X55522761Y108575761D01*
X55427523Y108480523D01*
X55332285Y108432904D01*
M02*
