G04 #@! TF.GenerationSoftware,KiCad,Pcbnew,5.1.9*
G04 #@! TF.CreationDate,2021-01-08T16:20:46+01:00*
G04 #@! TF.ProjectId,epaper-breakout,65706170-6572-42d6-9272-65616b6f7574,rev?*
G04 #@! TF.SameCoordinates,Original*
G04 #@! TF.FileFunction,Paste,Top*
G04 #@! TF.FilePolarity,Positive*
%FSLAX46Y46*%
G04 Gerber Fmt 4.6, Leading zero omitted, Abs format (unit mm)*
G04 Created by KiCad (PCBNEW 5.1.9) date 2021-01-08 16:20:46*
%MOMM*%
%LPD*%
G01*
G04 APERTURE LIST*
%ADD10C,0.010000*%
%ADD11R,0.900000X1.200000*%
%ADD12R,2.400000X1.500000*%
%ADD13R,1.200000X0.900000*%
%ADD14R,0.900000X0.800000*%
%ADD15R,1.500000X0.650000*%
%ADD16R,2.700000X3.600000*%
%ADD17R,5.000000X5.000000*%
%ADD18O,3.000000X0.900000*%
%ADD19R,0.812800X0.254000*%
%ADD20R,1.701800X1.524000*%
%ADD21R,0.700000X1.200000*%
%ADD22R,0.230000X0.800000*%
%ADD23R,0.800000X0.900000*%
%ADD24R,1.600000X2.800000*%
%ADD25R,0.250000X1.300000*%
%ADD26R,1.500000X1.700000*%
%ADD27C,1.290000*%
%ADD28R,0.400000X1.250000*%
%ADD29C,1.700000*%
%ADD30R,0.300000X1.400000*%
%ADD31R,1.500000X2.400000*%
%ADD32R,1.400000X0.300000*%
%ADD33R,1.200000X1.200000*%
%ADD34R,1.600000X1.500000*%
G04 APERTURE END LIST*
D10*
G36*
X105842600Y-56754600D02*
G01*
X106142600Y-56754600D01*
X106142600Y-57454600D01*
X105842600Y-57454600D01*
X105842600Y-56754600D01*
G37*
X105842600Y-56754600D02*
X106142600Y-56754600D01*
X106142600Y-57454600D01*
X105842600Y-57454600D01*
X105842600Y-56754600D01*
G36*
X92942600Y-56754600D02*
G01*
X93242600Y-56754600D01*
X93242600Y-57454600D01*
X92942600Y-57454600D01*
X92942600Y-56754600D01*
G37*
X92942600Y-56754600D02*
X93242600Y-56754600D01*
X93242600Y-57454600D01*
X92942600Y-57454600D01*
X92942600Y-56754600D01*
G36*
X104827600Y-54054600D02*
G01*
X105057600Y-54054600D01*
X105057600Y-54604600D01*
X104827600Y-54604600D01*
X104827600Y-54054600D01*
G37*
X104827600Y-54054600D02*
X105057600Y-54054600D01*
X105057600Y-54604600D01*
X104827600Y-54604600D01*
X104827600Y-54054600D01*
G36*
X104227600Y-54054600D02*
G01*
X104457600Y-54054600D01*
X104457600Y-54604600D01*
X104227600Y-54604600D01*
X104227600Y-54054600D01*
G37*
X104227600Y-54054600D02*
X104457600Y-54054600D01*
X104457600Y-54604600D01*
X104227600Y-54604600D01*
X104227600Y-54054600D01*
G36*
X103627600Y-54054600D02*
G01*
X103857600Y-54054600D01*
X103857600Y-54604600D01*
X103627600Y-54604600D01*
X103627600Y-54054600D01*
G37*
X103627600Y-54054600D02*
X103857600Y-54054600D01*
X103857600Y-54604600D01*
X103627600Y-54604600D01*
X103627600Y-54054600D01*
G36*
X103027600Y-54054600D02*
G01*
X103257600Y-54054600D01*
X103257600Y-54604600D01*
X103027600Y-54604600D01*
X103027600Y-54054600D01*
G37*
X103027600Y-54054600D02*
X103257600Y-54054600D01*
X103257600Y-54604600D01*
X103027600Y-54604600D01*
X103027600Y-54054600D01*
G36*
X102427600Y-54054600D02*
G01*
X102657600Y-54054600D01*
X102657600Y-54604600D01*
X102427600Y-54604600D01*
X102427600Y-54054600D01*
G37*
X102427600Y-54054600D02*
X102657600Y-54054600D01*
X102657600Y-54604600D01*
X102427600Y-54604600D01*
X102427600Y-54054600D01*
G36*
X101827600Y-54054600D02*
G01*
X102057600Y-54054600D01*
X102057600Y-54604600D01*
X101827600Y-54604600D01*
X101827600Y-54054600D01*
G37*
X101827600Y-54054600D02*
X102057600Y-54054600D01*
X102057600Y-54604600D01*
X101827600Y-54604600D01*
X101827600Y-54054600D01*
G36*
X101227600Y-54054600D02*
G01*
X101457600Y-54054600D01*
X101457600Y-54604600D01*
X101227600Y-54604600D01*
X101227600Y-54054600D01*
G37*
X101227600Y-54054600D02*
X101457600Y-54054600D01*
X101457600Y-54604600D01*
X101227600Y-54604600D01*
X101227600Y-54054600D01*
G36*
X100627600Y-54054600D02*
G01*
X100857600Y-54054600D01*
X100857600Y-54604600D01*
X100627600Y-54604600D01*
X100627600Y-54054600D01*
G37*
X100627600Y-54054600D02*
X100857600Y-54054600D01*
X100857600Y-54604600D01*
X100627600Y-54604600D01*
X100627600Y-54054600D01*
G36*
X100027600Y-54054600D02*
G01*
X100257600Y-54054600D01*
X100257600Y-54604600D01*
X100027600Y-54604600D01*
X100027600Y-54054600D01*
G37*
X100027600Y-54054600D02*
X100257600Y-54054600D01*
X100257600Y-54604600D01*
X100027600Y-54604600D01*
X100027600Y-54054600D01*
G36*
X99427600Y-54054600D02*
G01*
X99657600Y-54054600D01*
X99657600Y-54604600D01*
X99427600Y-54604600D01*
X99427600Y-54054600D01*
G37*
X99427600Y-54054600D02*
X99657600Y-54054600D01*
X99657600Y-54604600D01*
X99427600Y-54604600D01*
X99427600Y-54054600D01*
G36*
X98827600Y-54054600D02*
G01*
X99057600Y-54054600D01*
X99057600Y-54604600D01*
X98827600Y-54604600D01*
X98827600Y-54054600D01*
G37*
X98827600Y-54054600D02*
X99057600Y-54054600D01*
X99057600Y-54604600D01*
X98827600Y-54604600D01*
X98827600Y-54054600D01*
G36*
X98227600Y-54054600D02*
G01*
X98457600Y-54054600D01*
X98457600Y-54604600D01*
X98227600Y-54604600D01*
X98227600Y-54054600D01*
G37*
X98227600Y-54054600D02*
X98457600Y-54054600D01*
X98457600Y-54604600D01*
X98227600Y-54604600D01*
X98227600Y-54054600D01*
G36*
X97627600Y-54054600D02*
G01*
X97857600Y-54054600D01*
X97857600Y-54604600D01*
X97627600Y-54604600D01*
X97627600Y-54054600D01*
G37*
X97627600Y-54054600D02*
X97857600Y-54054600D01*
X97857600Y-54604600D01*
X97627600Y-54604600D01*
X97627600Y-54054600D01*
G36*
X97027600Y-54054600D02*
G01*
X97257600Y-54054600D01*
X97257600Y-54604600D01*
X97027600Y-54604600D01*
X97027600Y-54054600D01*
G37*
X97027600Y-54054600D02*
X97257600Y-54054600D01*
X97257600Y-54604600D01*
X97027600Y-54604600D01*
X97027600Y-54054600D01*
G36*
X96427600Y-54054600D02*
G01*
X96657600Y-54054600D01*
X96657600Y-54604600D01*
X96427600Y-54604600D01*
X96427600Y-54054600D01*
G37*
X96427600Y-54054600D02*
X96657600Y-54054600D01*
X96657600Y-54604600D01*
X96427600Y-54604600D01*
X96427600Y-54054600D01*
G36*
X95827600Y-54054600D02*
G01*
X96057600Y-54054600D01*
X96057600Y-54604600D01*
X95827600Y-54604600D01*
X95827600Y-54054600D01*
G37*
X95827600Y-54054600D02*
X96057600Y-54054600D01*
X96057600Y-54604600D01*
X95827600Y-54604600D01*
X95827600Y-54054600D01*
G36*
X95227600Y-54054600D02*
G01*
X95457600Y-54054600D01*
X95457600Y-54604600D01*
X95227600Y-54604600D01*
X95227600Y-54054600D01*
G37*
X95227600Y-54054600D02*
X95457600Y-54054600D01*
X95457600Y-54604600D01*
X95227600Y-54604600D01*
X95227600Y-54054600D01*
G36*
X94627600Y-54054600D02*
G01*
X94857600Y-54054600D01*
X94857600Y-54604600D01*
X94627600Y-54604600D01*
X94627600Y-54054600D01*
G37*
X94627600Y-54054600D02*
X94857600Y-54054600D01*
X94857600Y-54604600D01*
X94627600Y-54604600D01*
X94627600Y-54054600D01*
G36*
X94027600Y-54054600D02*
G01*
X94257600Y-54054600D01*
X94257600Y-54604600D01*
X94027600Y-54604600D01*
X94027600Y-54054600D01*
G37*
X94027600Y-54054600D02*
X94257600Y-54054600D01*
X94257600Y-54604600D01*
X94027600Y-54604600D01*
X94027600Y-54054600D01*
G36*
X105127600Y-57004600D02*
G01*
X105357600Y-57004600D01*
X105357600Y-57654600D01*
X105127600Y-57654600D01*
X105127600Y-57004600D01*
G37*
X105127600Y-57004600D02*
X105357600Y-57004600D01*
X105357600Y-57654600D01*
X105127600Y-57654600D01*
X105127600Y-57004600D01*
G36*
X104527600Y-57004600D02*
G01*
X104757600Y-57004600D01*
X104757600Y-57654600D01*
X104527600Y-57654600D01*
X104527600Y-57004600D01*
G37*
X104527600Y-57004600D02*
X104757600Y-57004600D01*
X104757600Y-57654600D01*
X104527600Y-57654600D01*
X104527600Y-57004600D01*
G36*
X103927600Y-57004600D02*
G01*
X104157600Y-57004600D01*
X104157600Y-57654600D01*
X103927600Y-57654600D01*
X103927600Y-57004600D01*
G37*
X103927600Y-57004600D02*
X104157600Y-57004600D01*
X104157600Y-57654600D01*
X103927600Y-57654600D01*
X103927600Y-57004600D01*
G36*
X103327600Y-57004600D02*
G01*
X103557600Y-57004600D01*
X103557600Y-57654600D01*
X103327600Y-57654600D01*
X103327600Y-57004600D01*
G37*
X103327600Y-57004600D02*
X103557600Y-57004600D01*
X103557600Y-57654600D01*
X103327600Y-57654600D01*
X103327600Y-57004600D01*
G36*
X102727600Y-57004600D02*
G01*
X102957600Y-57004600D01*
X102957600Y-57654600D01*
X102727600Y-57654600D01*
X102727600Y-57004600D01*
G37*
X102727600Y-57004600D02*
X102957600Y-57004600D01*
X102957600Y-57654600D01*
X102727600Y-57654600D01*
X102727600Y-57004600D01*
G36*
X102127600Y-57004600D02*
G01*
X102357600Y-57004600D01*
X102357600Y-57654600D01*
X102127600Y-57654600D01*
X102127600Y-57004600D01*
G37*
X102127600Y-57004600D02*
X102357600Y-57004600D01*
X102357600Y-57654600D01*
X102127600Y-57654600D01*
X102127600Y-57004600D01*
G36*
X101527600Y-57004600D02*
G01*
X101757600Y-57004600D01*
X101757600Y-57654600D01*
X101527600Y-57654600D01*
X101527600Y-57004600D01*
G37*
X101527600Y-57004600D02*
X101757600Y-57004600D01*
X101757600Y-57654600D01*
X101527600Y-57654600D01*
X101527600Y-57004600D01*
G36*
X100927600Y-57004600D02*
G01*
X101157600Y-57004600D01*
X101157600Y-57654600D01*
X100927600Y-57654600D01*
X100927600Y-57004600D01*
G37*
X100927600Y-57004600D02*
X101157600Y-57004600D01*
X101157600Y-57654600D01*
X100927600Y-57654600D01*
X100927600Y-57004600D01*
G36*
X100327600Y-57004600D02*
G01*
X100557600Y-57004600D01*
X100557600Y-57654600D01*
X100327600Y-57654600D01*
X100327600Y-57004600D01*
G37*
X100327600Y-57004600D02*
X100557600Y-57004600D01*
X100557600Y-57654600D01*
X100327600Y-57654600D01*
X100327600Y-57004600D01*
G36*
X99727600Y-57004600D02*
G01*
X99957600Y-57004600D01*
X99957600Y-57654600D01*
X99727600Y-57654600D01*
X99727600Y-57004600D01*
G37*
X99727600Y-57004600D02*
X99957600Y-57004600D01*
X99957600Y-57654600D01*
X99727600Y-57654600D01*
X99727600Y-57004600D01*
G36*
X99127600Y-57004600D02*
G01*
X99357600Y-57004600D01*
X99357600Y-57654600D01*
X99127600Y-57654600D01*
X99127600Y-57004600D01*
G37*
X99127600Y-57004600D02*
X99357600Y-57004600D01*
X99357600Y-57654600D01*
X99127600Y-57654600D01*
X99127600Y-57004600D01*
G36*
X98527600Y-57004600D02*
G01*
X98757600Y-57004600D01*
X98757600Y-57654600D01*
X98527600Y-57654600D01*
X98527600Y-57004600D01*
G37*
X98527600Y-57004600D02*
X98757600Y-57004600D01*
X98757600Y-57654600D01*
X98527600Y-57654600D01*
X98527600Y-57004600D01*
G36*
X97927600Y-57004600D02*
G01*
X98157600Y-57004600D01*
X98157600Y-57654600D01*
X97927600Y-57654600D01*
X97927600Y-57004600D01*
G37*
X97927600Y-57004600D02*
X98157600Y-57004600D01*
X98157600Y-57654600D01*
X97927600Y-57654600D01*
X97927600Y-57004600D01*
G36*
X97327600Y-57004600D02*
G01*
X97557600Y-57004600D01*
X97557600Y-57654600D01*
X97327600Y-57654600D01*
X97327600Y-57004600D01*
G37*
X97327600Y-57004600D02*
X97557600Y-57004600D01*
X97557600Y-57654600D01*
X97327600Y-57654600D01*
X97327600Y-57004600D01*
G36*
X96727600Y-57004600D02*
G01*
X96957600Y-57004600D01*
X96957600Y-57654600D01*
X96727600Y-57654600D01*
X96727600Y-57004600D01*
G37*
X96727600Y-57004600D02*
X96957600Y-57004600D01*
X96957600Y-57654600D01*
X96727600Y-57654600D01*
X96727600Y-57004600D01*
G36*
X96127600Y-57004600D02*
G01*
X96357600Y-57004600D01*
X96357600Y-57654600D01*
X96127600Y-57654600D01*
X96127600Y-57004600D01*
G37*
X96127600Y-57004600D02*
X96357600Y-57004600D01*
X96357600Y-57654600D01*
X96127600Y-57654600D01*
X96127600Y-57004600D01*
G36*
X95527600Y-57004600D02*
G01*
X95757600Y-57004600D01*
X95757600Y-57654600D01*
X95527600Y-57654600D01*
X95527600Y-57004600D01*
G37*
X95527600Y-57004600D02*
X95757600Y-57004600D01*
X95757600Y-57654600D01*
X95527600Y-57654600D01*
X95527600Y-57004600D01*
G36*
X94927600Y-57004600D02*
G01*
X95157600Y-57004600D01*
X95157600Y-57654600D01*
X94927600Y-57654600D01*
X94927600Y-57004600D01*
G37*
X94927600Y-57004600D02*
X95157600Y-57004600D01*
X95157600Y-57654600D01*
X94927600Y-57654600D01*
X94927600Y-57004600D01*
G36*
X94327600Y-57004600D02*
G01*
X94557600Y-57004600D01*
X94557600Y-57654600D01*
X94327600Y-57654600D01*
X94327600Y-57004600D01*
G37*
X94327600Y-57004600D02*
X94557600Y-57004600D01*
X94557600Y-57654600D01*
X94327600Y-57654600D01*
X94327600Y-57004600D01*
G36*
X93727600Y-57004600D02*
G01*
X93957600Y-57004600D01*
X93957600Y-57654600D01*
X93727600Y-57654600D01*
X93727600Y-57004600D01*
G37*
X93727600Y-57004600D02*
X93957600Y-57004600D01*
X93957600Y-57654600D01*
X93727600Y-57654600D01*
X93727600Y-57004600D01*
D11*
X55309500Y-46799500D03*
X58609500Y-46799500D03*
D12*
X55689500Y-38144000D03*
X55689500Y-43644000D03*
G36*
G01*
X40136000Y-54427000D02*
X40636000Y-54427000D01*
G75*
G02*
X40861000Y-54652000I0J-225000D01*
G01*
X40861000Y-55102000D01*
G75*
G02*
X40636000Y-55327000I-225000J0D01*
G01*
X40136000Y-55327000D01*
G75*
G02*
X39911000Y-55102000I0J225000D01*
G01*
X39911000Y-54652000D01*
G75*
G02*
X40136000Y-54427000I225000J0D01*
G01*
G37*
G36*
G01*
X40136000Y-52877000D02*
X40636000Y-52877000D01*
G75*
G02*
X40861000Y-53102000I0J-225000D01*
G01*
X40861000Y-53552000D01*
G75*
G02*
X40636000Y-53777000I-225000J0D01*
G01*
X40136000Y-53777000D01*
G75*
G02*
X39911000Y-53552000I0J225000D01*
G01*
X39911000Y-53102000D01*
G75*
G02*
X40136000Y-52877000I225000J0D01*
G01*
G37*
G36*
G01*
X39732000Y-56445999D02*
X39732000Y-57346001D01*
G75*
G02*
X39482001Y-57596000I-249999J0D01*
G01*
X38956999Y-57596000D01*
G75*
G02*
X38707000Y-57346001I0J249999D01*
G01*
X38707000Y-56445999D01*
G75*
G02*
X38956999Y-56196000I249999J0D01*
G01*
X39482001Y-56196000D01*
G75*
G02*
X39732000Y-56445999I0J-249999D01*
G01*
G37*
G36*
G01*
X41557000Y-56445999D02*
X41557000Y-57346001D01*
G75*
G02*
X41307001Y-57596000I-249999J0D01*
G01*
X40781999Y-57596000D01*
G75*
G02*
X40532000Y-57346001I0J249999D01*
G01*
X40532000Y-56445999D01*
G75*
G02*
X40781999Y-56196000I249999J0D01*
G01*
X41307001Y-56196000D01*
G75*
G02*
X41557000Y-56445999I0J-249999D01*
G01*
G37*
G36*
G01*
X43288000Y-56445999D02*
X43288000Y-57346001D01*
G75*
G02*
X43038001Y-57596000I-249999J0D01*
G01*
X42512999Y-57596000D01*
G75*
G02*
X42263000Y-57346001I0J249999D01*
G01*
X42263000Y-56445999D01*
G75*
G02*
X42512999Y-56196000I249999J0D01*
G01*
X43038001Y-56196000D01*
G75*
G02*
X43288000Y-56445999I0J-249999D01*
G01*
G37*
G36*
G01*
X45113000Y-56445999D02*
X45113000Y-57346001D01*
G75*
G02*
X44863001Y-57596000I-249999J0D01*
G01*
X44337999Y-57596000D01*
G75*
G02*
X44088000Y-57346001I0J249999D01*
G01*
X44088000Y-56445999D01*
G75*
G02*
X44337999Y-56196000I249999J0D01*
G01*
X44863001Y-56196000D01*
G75*
G02*
X45113000Y-56445999I0J-249999D01*
G01*
G37*
D13*
X36576000Y-51309000D03*
X36576000Y-54609000D03*
G36*
G01*
X84173501Y-29795500D02*
X82323499Y-29795500D01*
G75*
G02*
X82073500Y-29545501I0J249999D01*
G01*
X82073500Y-28720499D01*
G75*
G02*
X82323499Y-28470500I249999J0D01*
G01*
X84173501Y-28470500D01*
G75*
G02*
X84423500Y-28720499I0J-249999D01*
G01*
X84423500Y-29545501D01*
G75*
G02*
X84173501Y-29795500I-249999J0D01*
G01*
G37*
G36*
G01*
X84173501Y-32870500D02*
X82323499Y-32870500D01*
G75*
G02*
X82073500Y-32620501I0J249999D01*
G01*
X82073500Y-31795499D01*
G75*
G02*
X82323499Y-31545500I249999J0D01*
G01*
X84173501Y-31545500D01*
G75*
G02*
X84423500Y-31795499I0J-249999D01*
G01*
X84423500Y-32620501D01*
G75*
G02*
X84173501Y-32870500I-249999J0D01*
G01*
G37*
G36*
G01*
X34486000Y-48772000D02*
X34486000Y-49272000D01*
G75*
G02*
X34261000Y-49497000I-225000J0D01*
G01*
X33811000Y-49497000D01*
G75*
G02*
X33586000Y-49272000I0J225000D01*
G01*
X33586000Y-48772000D01*
G75*
G02*
X33811000Y-48547000I225000J0D01*
G01*
X34261000Y-48547000D01*
G75*
G02*
X34486000Y-48772000I0J-225000D01*
G01*
G37*
G36*
G01*
X36036000Y-48772000D02*
X36036000Y-49272000D01*
G75*
G02*
X35811000Y-49497000I-225000J0D01*
G01*
X35361000Y-49497000D01*
G75*
G02*
X35136000Y-49272000I0J225000D01*
G01*
X35136000Y-48772000D01*
G75*
G02*
X35361000Y-48547000I225000J0D01*
G01*
X35811000Y-48547000D01*
G75*
G02*
X36036000Y-48772000I0J-225000D01*
G01*
G37*
G36*
G01*
X34473000Y-43438000D02*
X34473000Y-43938000D01*
G75*
G02*
X34248000Y-44163000I-225000J0D01*
G01*
X33798000Y-44163000D01*
G75*
G02*
X33573000Y-43938000I0J225000D01*
G01*
X33573000Y-43438000D01*
G75*
G02*
X33798000Y-43213000I225000J0D01*
G01*
X34248000Y-43213000D01*
G75*
G02*
X34473000Y-43438000I0J-225000D01*
G01*
G37*
G36*
G01*
X36023000Y-43438000D02*
X36023000Y-43938000D01*
G75*
G02*
X35798000Y-44163000I-225000J0D01*
G01*
X35348000Y-44163000D01*
G75*
G02*
X35123000Y-43938000I0J225000D01*
G01*
X35123000Y-43438000D01*
G75*
G02*
X35348000Y-43213000I225000J0D01*
G01*
X35798000Y-43213000D01*
G75*
G02*
X36023000Y-43438000I0J-225000D01*
G01*
G37*
G36*
G01*
X31091000Y-31773000D02*
X31091000Y-31473000D01*
G75*
G02*
X31241000Y-31323000I150000J0D01*
G01*
X32891000Y-31323000D01*
G75*
G02*
X33041000Y-31473000I0J-150000D01*
G01*
X33041000Y-31773000D01*
G75*
G02*
X32891000Y-31923000I-150000J0D01*
G01*
X31241000Y-31923000D01*
G75*
G02*
X31091000Y-31773000I0J150000D01*
G01*
G37*
G36*
G01*
X31091000Y-33043000D02*
X31091000Y-32743000D01*
G75*
G02*
X31241000Y-32593000I150000J0D01*
G01*
X32891000Y-32593000D01*
G75*
G02*
X33041000Y-32743000I0J-150000D01*
G01*
X33041000Y-33043000D01*
G75*
G02*
X32891000Y-33193000I-150000J0D01*
G01*
X31241000Y-33193000D01*
G75*
G02*
X31091000Y-33043000I0J150000D01*
G01*
G37*
G36*
G01*
X31091000Y-34313000D02*
X31091000Y-34013000D01*
G75*
G02*
X31241000Y-33863000I150000J0D01*
G01*
X32891000Y-33863000D01*
G75*
G02*
X33041000Y-34013000I0J-150000D01*
G01*
X33041000Y-34313000D01*
G75*
G02*
X32891000Y-34463000I-150000J0D01*
G01*
X31241000Y-34463000D01*
G75*
G02*
X31091000Y-34313000I0J150000D01*
G01*
G37*
G36*
G01*
X31091000Y-35583000D02*
X31091000Y-35283000D01*
G75*
G02*
X31241000Y-35133000I150000J0D01*
G01*
X32891000Y-35133000D01*
G75*
G02*
X33041000Y-35283000I0J-150000D01*
G01*
X33041000Y-35583000D01*
G75*
G02*
X32891000Y-35733000I-150000J0D01*
G01*
X31241000Y-35733000D01*
G75*
G02*
X31091000Y-35583000I0J150000D01*
G01*
G37*
G36*
G01*
X31091000Y-36853000D02*
X31091000Y-36553000D01*
G75*
G02*
X31241000Y-36403000I150000J0D01*
G01*
X32891000Y-36403000D01*
G75*
G02*
X33041000Y-36553000I0J-150000D01*
G01*
X33041000Y-36853000D01*
G75*
G02*
X32891000Y-37003000I-150000J0D01*
G01*
X31241000Y-37003000D01*
G75*
G02*
X31091000Y-36853000I0J150000D01*
G01*
G37*
G36*
G01*
X31091000Y-38123000D02*
X31091000Y-37823000D01*
G75*
G02*
X31241000Y-37673000I150000J0D01*
G01*
X32891000Y-37673000D01*
G75*
G02*
X33041000Y-37823000I0J-150000D01*
G01*
X33041000Y-38123000D01*
G75*
G02*
X32891000Y-38273000I-150000J0D01*
G01*
X31241000Y-38273000D01*
G75*
G02*
X31091000Y-38123000I0J150000D01*
G01*
G37*
G36*
G01*
X31091000Y-39393000D02*
X31091000Y-39093000D01*
G75*
G02*
X31241000Y-38943000I150000J0D01*
G01*
X32891000Y-38943000D01*
G75*
G02*
X33041000Y-39093000I0J-150000D01*
G01*
X33041000Y-39393000D01*
G75*
G02*
X32891000Y-39543000I-150000J0D01*
G01*
X31241000Y-39543000D01*
G75*
G02*
X31091000Y-39393000I0J150000D01*
G01*
G37*
G36*
G01*
X31091000Y-40663000D02*
X31091000Y-40363000D01*
G75*
G02*
X31241000Y-40213000I150000J0D01*
G01*
X32891000Y-40213000D01*
G75*
G02*
X33041000Y-40363000I0J-150000D01*
G01*
X33041000Y-40663000D01*
G75*
G02*
X32891000Y-40813000I-150000J0D01*
G01*
X31241000Y-40813000D01*
G75*
G02*
X31091000Y-40663000I0J150000D01*
G01*
G37*
G36*
G01*
X26141000Y-40663000D02*
X26141000Y-40363000D01*
G75*
G02*
X26291000Y-40213000I150000J0D01*
G01*
X27941000Y-40213000D01*
G75*
G02*
X28091000Y-40363000I0J-150000D01*
G01*
X28091000Y-40663000D01*
G75*
G02*
X27941000Y-40813000I-150000J0D01*
G01*
X26291000Y-40813000D01*
G75*
G02*
X26141000Y-40663000I0J150000D01*
G01*
G37*
G36*
G01*
X26141000Y-39393000D02*
X26141000Y-39093000D01*
G75*
G02*
X26291000Y-38943000I150000J0D01*
G01*
X27941000Y-38943000D01*
G75*
G02*
X28091000Y-39093000I0J-150000D01*
G01*
X28091000Y-39393000D01*
G75*
G02*
X27941000Y-39543000I-150000J0D01*
G01*
X26291000Y-39543000D01*
G75*
G02*
X26141000Y-39393000I0J150000D01*
G01*
G37*
G36*
G01*
X26141000Y-38123000D02*
X26141000Y-37823000D01*
G75*
G02*
X26291000Y-37673000I150000J0D01*
G01*
X27941000Y-37673000D01*
G75*
G02*
X28091000Y-37823000I0J-150000D01*
G01*
X28091000Y-38123000D01*
G75*
G02*
X27941000Y-38273000I-150000J0D01*
G01*
X26291000Y-38273000D01*
G75*
G02*
X26141000Y-38123000I0J150000D01*
G01*
G37*
G36*
G01*
X26141000Y-36853000D02*
X26141000Y-36553000D01*
G75*
G02*
X26291000Y-36403000I150000J0D01*
G01*
X27941000Y-36403000D01*
G75*
G02*
X28091000Y-36553000I0J-150000D01*
G01*
X28091000Y-36853000D01*
G75*
G02*
X27941000Y-37003000I-150000J0D01*
G01*
X26291000Y-37003000D01*
G75*
G02*
X26141000Y-36853000I0J150000D01*
G01*
G37*
G36*
G01*
X26141000Y-35583000D02*
X26141000Y-35283000D01*
G75*
G02*
X26291000Y-35133000I150000J0D01*
G01*
X27941000Y-35133000D01*
G75*
G02*
X28091000Y-35283000I0J-150000D01*
G01*
X28091000Y-35583000D01*
G75*
G02*
X27941000Y-35733000I-150000J0D01*
G01*
X26291000Y-35733000D01*
G75*
G02*
X26141000Y-35583000I0J150000D01*
G01*
G37*
G36*
G01*
X26141000Y-34313000D02*
X26141000Y-34013000D01*
G75*
G02*
X26291000Y-33863000I150000J0D01*
G01*
X27941000Y-33863000D01*
G75*
G02*
X28091000Y-34013000I0J-150000D01*
G01*
X28091000Y-34313000D01*
G75*
G02*
X27941000Y-34463000I-150000J0D01*
G01*
X26291000Y-34463000D01*
G75*
G02*
X26141000Y-34313000I0J150000D01*
G01*
G37*
G36*
G01*
X26141000Y-33043000D02*
X26141000Y-32743000D01*
G75*
G02*
X26291000Y-32593000I150000J0D01*
G01*
X27941000Y-32593000D01*
G75*
G02*
X28091000Y-32743000I0J-150000D01*
G01*
X28091000Y-33043000D01*
G75*
G02*
X27941000Y-33193000I-150000J0D01*
G01*
X26291000Y-33193000D01*
G75*
G02*
X26141000Y-33043000I0J150000D01*
G01*
G37*
G36*
G01*
X26141000Y-31773000D02*
X26141000Y-31473000D01*
G75*
G02*
X26291000Y-31323000I150000J0D01*
G01*
X27941000Y-31323000D01*
G75*
G02*
X28091000Y-31473000I0J-150000D01*
G01*
X28091000Y-31773000D01*
G75*
G02*
X27941000Y-31923000I-150000J0D01*
G01*
X26291000Y-31923000D01*
G75*
G02*
X26141000Y-31773000I0J150000D01*
G01*
G37*
D14*
X35798000Y-46355000D03*
X33798000Y-47305000D03*
X33798000Y-45405000D03*
D13*
X43053000Y-40575500D03*
X43053000Y-37275500D03*
D15*
X39591000Y-45339000D03*
X39591000Y-46609000D03*
X39591000Y-47879000D03*
X39591000Y-49149000D03*
X44991000Y-49149000D03*
X44991000Y-47879000D03*
X44991000Y-46609000D03*
X44991000Y-45339000D03*
D16*
X42291000Y-47244000D03*
G36*
G01*
X41764000Y-42729999D02*
X41764000Y-43630001D01*
G75*
G02*
X41514001Y-43880000I-249999J0D01*
G01*
X40988999Y-43880000D01*
G75*
G02*
X40739000Y-43630001I0J249999D01*
G01*
X40739000Y-42729999D01*
G75*
G02*
X40988999Y-42480000I249999J0D01*
G01*
X41514001Y-42480000D01*
G75*
G02*
X41764000Y-42729999I0J-249999D01*
G01*
G37*
G36*
G01*
X43589000Y-42729999D02*
X43589000Y-43630001D01*
G75*
G02*
X43339001Y-43880000I-249999J0D01*
G01*
X42813999Y-43880000D01*
G75*
G02*
X42564000Y-43630001I0J249999D01*
G01*
X42564000Y-42729999D01*
G75*
G02*
X42813999Y-42480000I249999J0D01*
G01*
X43339001Y-42480000D01*
G75*
G02*
X43589000Y-42729999I0J-249999D01*
G01*
G37*
G36*
G01*
X46971000Y-52127999D02*
X46971000Y-53028001D01*
G75*
G02*
X46721001Y-53278000I-249999J0D01*
G01*
X46195999Y-53278000D01*
G75*
G02*
X45946000Y-53028001I0J249999D01*
G01*
X45946000Y-52127999D01*
G75*
G02*
X46195999Y-51878000I249999J0D01*
G01*
X46721001Y-51878000D01*
G75*
G02*
X46971000Y-52127999I0J-249999D01*
G01*
G37*
G36*
G01*
X48796000Y-52127999D02*
X48796000Y-53028001D01*
G75*
G02*
X48546001Y-53278000I-249999J0D01*
G01*
X48020999Y-53278000D01*
G75*
G02*
X47771000Y-53028001I0J249999D01*
G01*
X47771000Y-52127999D01*
G75*
G02*
X48020999Y-51878000I249999J0D01*
G01*
X48546001Y-51878000D01*
G75*
G02*
X48796000Y-52127999I0J-249999D01*
G01*
G37*
G36*
G01*
X46947500Y-54223499D02*
X46947500Y-55123501D01*
G75*
G02*
X46697501Y-55373500I-249999J0D01*
G01*
X46172499Y-55373500D01*
G75*
G02*
X45922500Y-55123501I0J249999D01*
G01*
X45922500Y-54223499D01*
G75*
G02*
X46172499Y-53973500I249999J0D01*
G01*
X46697501Y-53973500D01*
G75*
G02*
X46947500Y-54223499I0J-249999D01*
G01*
G37*
G36*
G01*
X48772500Y-54223499D02*
X48772500Y-55123501D01*
G75*
G02*
X48522501Y-55373500I-249999J0D01*
G01*
X47997499Y-55373500D01*
G75*
G02*
X47747500Y-55123501I0J249999D01*
G01*
X47747500Y-54223499D01*
G75*
G02*
X47997499Y-53973500I249999J0D01*
G01*
X48522501Y-53973500D01*
G75*
G02*
X48772500Y-54223499I0J-249999D01*
G01*
G37*
G36*
G01*
X35998999Y-22244000D02*
X36899001Y-22244000D01*
G75*
G02*
X37149000Y-22493999I0J-249999D01*
G01*
X37149000Y-23019001D01*
G75*
G02*
X36899001Y-23269000I-249999J0D01*
G01*
X35998999Y-23269000D01*
G75*
G02*
X35749000Y-23019001I0J249999D01*
G01*
X35749000Y-22493999D01*
G75*
G02*
X35998999Y-22244000I249999J0D01*
G01*
G37*
G36*
G01*
X35998999Y-20419000D02*
X36899001Y-20419000D01*
G75*
G02*
X37149000Y-20668999I0J-249999D01*
G01*
X37149000Y-21194001D01*
G75*
G02*
X36899001Y-21444000I-249999J0D01*
G01*
X35998999Y-21444000D01*
G75*
G02*
X35749000Y-21194001I0J249999D01*
G01*
X35749000Y-20668999D01*
G75*
G02*
X35998999Y-20419000I249999J0D01*
G01*
G37*
D14*
X49069500Y-41592500D03*
X47069500Y-42542500D03*
X47069500Y-40642500D03*
G36*
G01*
X43111000Y-52121750D02*
X43111000Y-53034250D01*
G75*
G02*
X42867250Y-53278000I-243750J0D01*
G01*
X42379750Y-53278000D01*
G75*
G02*
X42136000Y-53034250I0J243750D01*
G01*
X42136000Y-52121750D01*
G75*
G02*
X42379750Y-51878000I243750J0D01*
G01*
X42867250Y-51878000D01*
G75*
G02*
X43111000Y-52121750I0J-243750D01*
G01*
G37*
G36*
G01*
X44986000Y-52121750D02*
X44986000Y-53034250D01*
G75*
G02*
X44742250Y-53278000I-243750J0D01*
G01*
X44254750Y-53278000D01*
G75*
G02*
X44011000Y-53034250I0J243750D01*
G01*
X44011000Y-52121750D01*
G75*
G02*
X44254750Y-51878000I243750J0D01*
G01*
X44742250Y-51878000D01*
G75*
G02*
X44986000Y-52121750I0J-243750D01*
G01*
G37*
G36*
G01*
X43111000Y-54280750D02*
X43111000Y-55193250D01*
G75*
G02*
X42867250Y-55437000I-243750J0D01*
G01*
X42379750Y-55437000D01*
G75*
G02*
X42136000Y-55193250I0J243750D01*
G01*
X42136000Y-54280750D01*
G75*
G02*
X42379750Y-54037000I243750J0D01*
G01*
X42867250Y-54037000D01*
G75*
G02*
X43111000Y-54280750I0J-243750D01*
G01*
G37*
G36*
G01*
X44986000Y-54280750D02*
X44986000Y-55193250D01*
G75*
G02*
X44742250Y-55437000I-243750J0D01*
G01*
X44254750Y-55437000D01*
G75*
G02*
X44011000Y-55193250I0J243750D01*
G01*
X44011000Y-54280750D01*
G75*
G02*
X44254750Y-54037000I243750J0D01*
G01*
X44742250Y-54037000D01*
G75*
G02*
X44986000Y-54280750I0J-243750D01*
G01*
G37*
G36*
G01*
X47935000Y-47121000D02*
X47935000Y-47621000D01*
G75*
G02*
X47710000Y-47846000I-225000J0D01*
G01*
X47260000Y-47846000D01*
G75*
G02*
X47035000Y-47621000I0J225000D01*
G01*
X47035000Y-47121000D01*
G75*
G02*
X47260000Y-46896000I225000J0D01*
G01*
X47710000Y-46896000D01*
G75*
G02*
X47935000Y-47121000I0J-225000D01*
G01*
G37*
G36*
G01*
X49485000Y-47121000D02*
X49485000Y-47621000D01*
G75*
G02*
X49260000Y-47846000I-225000J0D01*
G01*
X48810000Y-47846000D01*
G75*
G02*
X48585000Y-47621000I0J225000D01*
G01*
X48585000Y-47121000D01*
G75*
G02*
X48810000Y-46896000I225000J0D01*
G01*
X49260000Y-46896000D01*
G75*
G02*
X49485000Y-47121000I0J-225000D01*
G01*
G37*
G36*
G01*
X48585000Y-45843000D02*
X48585000Y-45343000D01*
G75*
G02*
X48810000Y-45118000I225000J0D01*
G01*
X49260000Y-45118000D01*
G75*
G02*
X49485000Y-45343000I0J-225000D01*
G01*
X49485000Y-45843000D01*
G75*
G02*
X49260000Y-46068000I-225000J0D01*
G01*
X48810000Y-46068000D01*
G75*
G02*
X48585000Y-45843000I0J225000D01*
G01*
G37*
G36*
G01*
X47035000Y-45843000D02*
X47035000Y-45343000D01*
G75*
G02*
X47260000Y-45118000I225000J0D01*
G01*
X47710000Y-45118000D01*
G75*
G02*
X47935000Y-45343000I0J-225000D01*
G01*
X47935000Y-45843000D01*
G75*
G02*
X47710000Y-46068000I-225000J0D01*
G01*
X47260000Y-46068000D01*
G75*
G02*
X47035000Y-45843000I0J225000D01*
G01*
G37*
D11*
X52323000Y-35433000D03*
X49023000Y-35433000D03*
D17*
X95500000Y-34030000D03*
D18*
X86900000Y-27110000D03*
X86900000Y-28380000D03*
X86900000Y-29650000D03*
X86900000Y-30920000D03*
X86900000Y-32190000D03*
X86900000Y-33460000D03*
X86900000Y-34730000D03*
X86900000Y-36000000D03*
X86900000Y-37270000D03*
X86900000Y-38540000D03*
X86900000Y-39810000D03*
X86900000Y-41080000D03*
X86900000Y-42350000D03*
X86900000Y-43620000D03*
X86900000Y-44920000D03*
X86900000Y-46190000D03*
X86900000Y-47460000D03*
X86900000Y-48730000D03*
X86900000Y-50000000D03*
X104900000Y-50000000D03*
X104900000Y-48730000D03*
X104900000Y-47460000D03*
X104900000Y-46190000D03*
X104900000Y-44920000D03*
X104930000Y-43620000D03*
X104930000Y-42350000D03*
X104930000Y-41080000D03*
X104930000Y-39810000D03*
X104930000Y-38540000D03*
X104930000Y-37270000D03*
X104930000Y-36000000D03*
X104930000Y-34730000D03*
X104930000Y-33460000D03*
X104930000Y-32190000D03*
X104930000Y-30920000D03*
X104930000Y-29650000D03*
X104930000Y-28380000D03*
X104930000Y-27110000D03*
D19*
X118588300Y-45727399D03*
X118588300Y-45227400D03*
X118588300Y-44727399D03*
X118588300Y-44227400D03*
X118588300Y-43727398D03*
X118588300Y-43227399D03*
X118588300Y-42727400D03*
X118588300Y-42227399D03*
X118588300Y-41727400D03*
X118588300Y-41227398D03*
X118588300Y-40727399D03*
X118588300Y-40227400D03*
X118588300Y-39727399D03*
X118588300Y-39227400D03*
X118588300Y-38727398D03*
X118588300Y-38227399D03*
X118588300Y-37727400D03*
X118588300Y-37227398D03*
X118588300Y-36727399D03*
X118588300Y-36227400D03*
X118588300Y-35727399D03*
X118588300Y-35227400D03*
X118588300Y-34727398D03*
X118588300Y-34227399D03*
X118588300Y-33727400D03*
X118588300Y-33227399D03*
X118588300Y-32727400D03*
X118588300Y-32227398D03*
X118588300Y-31727399D03*
X118588300Y-31227400D03*
X118588300Y-30727399D03*
X118588300Y-30227400D03*
X118588300Y-29727398D03*
D20*
X122601500Y-28075400D03*
X122601500Y-47379400D03*
D21*
X122793400Y-54319600D03*
D22*
X119043400Y-54119600D03*
X117443400Y-54119600D03*
X121843400Y-54119600D03*
X121443400Y-54119600D03*
X121043400Y-54119600D03*
X117843400Y-54119600D03*
X118243400Y-54119600D03*
X120643400Y-54119600D03*
X118643400Y-54119600D03*
X115843400Y-54119600D03*
X115443400Y-54119600D03*
D21*
X114493400Y-54319600D03*
D22*
X116243400Y-54119600D03*
X117043400Y-54119600D03*
X116643400Y-54119600D03*
X120243400Y-54119600D03*
X119843400Y-54119600D03*
X119443400Y-54119600D03*
D21*
X114493400Y-57305600D03*
X122793400Y-57305600D03*
D22*
X121843400Y-57505600D03*
X121443400Y-57505600D03*
X121043400Y-57505600D03*
X120643400Y-57505600D03*
X120243400Y-57505600D03*
X119843400Y-57505600D03*
X119443400Y-57505600D03*
X119043400Y-57505600D03*
X118643400Y-57505600D03*
X118243400Y-57505600D03*
X117843400Y-57505600D03*
X117443400Y-57505600D03*
X117043400Y-57505600D03*
X116643400Y-57505600D03*
X116243400Y-57505600D03*
X115843400Y-57505600D03*
X115443400Y-57505600D03*
D23*
X69850000Y-33258000D03*
X68900000Y-31258000D03*
X70800000Y-31258000D03*
G36*
G01*
X45741000Y-36316499D02*
X45741000Y-37216501D01*
G75*
G02*
X45491001Y-37466500I-249999J0D01*
G01*
X44965999Y-37466500D01*
G75*
G02*
X44716000Y-37216501I0J249999D01*
G01*
X44716000Y-36316499D01*
G75*
G02*
X44965999Y-36066500I249999J0D01*
G01*
X45491001Y-36066500D01*
G75*
G02*
X45741000Y-36316499I0J-249999D01*
G01*
G37*
G36*
G01*
X47566000Y-36316499D02*
X47566000Y-37216501D01*
G75*
G02*
X47316001Y-37466500I-249999J0D01*
G01*
X46790999Y-37466500D01*
G75*
G02*
X46541000Y-37216501I0J249999D01*
G01*
X46541000Y-36316499D01*
G75*
G02*
X46790999Y-36066500I249999J0D01*
G01*
X47316001Y-36066500D01*
G75*
G02*
X47566000Y-36316499I0J-249999D01*
G01*
G37*
G36*
G01*
X71062001Y-28048000D02*
X70161999Y-28048000D01*
G75*
G02*
X69912000Y-27798001I0J249999D01*
G01*
X69912000Y-27272999D01*
G75*
G02*
X70161999Y-27023000I249999J0D01*
G01*
X71062001Y-27023000D01*
G75*
G02*
X71312000Y-27272999I0J-249999D01*
G01*
X71312000Y-27798001D01*
G75*
G02*
X71062001Y-28048000I-249999J0D01*
G01*
G37*
G36*
G01*
X71062001Y-29873000D02*
X70161999Y-29873000D01*
G75*
G02*
X69912000Y-29623001I0J249999D01*
G01*
X69912000Y-29097999D01*
G75*
G02*
X70161999Y-28848000I249999J0D01*
G01*
X71062001Y-28848000D01*
G75*
G02*
X71312000Y-29097999I0J-249999D01*
G01*
X71312000Y-29623001D01*
G75*
G02*
X71062001Y-29873000I-249999J0D01*
G01*
G37*
D14*
X79740000Y-42672000D03*
X77740000Y-43622000D03*
X77740000Y-41722000D03*
D23*
X43942000Y-34782000D03*
X42992000Y-32782000D03*
X44892000Y-32782000D03*
G36*
G01*
X62510000Y-25130700D02*
X62510000Y-24805700D01*
G75*
G02*
X62672500Y-24643200I162500J0D01*
G01*
X64322500Y-24643200D01*
G75*
G02*
X64485000Y-24805700I0J-162500D01*
G01*
X64485000Y-25130700D01*
G75*
G02*
X64322500Y-25293200I-162500J0D01*
G01*
X62672500Y-25293200D01*
G75*
G02*
X62510000Y-25130700I0J162500D01*
G01*
G37*
G36*
G01*
X62510000Y-26400700D02*
X62510000Y-26075700D01*
G75*
G02*
X62672500Y-25913200I162500J0D01*
G01*
X64322500Y-25913200D01*
G75*
G02*
X64485000Y-26075700I0J-162500D01*
G01*
X64485000Y-26400700D01*
G75*
G02*
X64322500Y-26563200I-162500J0D01*
G01*
X62672500Y-26563200D01*
G75*
G02*
X62510000Y-26400700I0J162500D01*
G01*
G37*
G36*
G01*
X62510000Y-27670700D02*
X62510000Y-27345700D01*
G75*
G02*
X62672500Y-27183200I162500J0D01*
G01*
X64322500Y-27183200D01*
G75*
G02*
X64485000Y-27345700I0J-162500D01*
G01*
X64485000Y-27670700D01*
G75*
G02*
X64322500Y-27833200I-162500J0D01*
G01*
X62672500Y-27833200D01*
G75*
G02*
X62510000Y-27670700I0J162500D01*
G01*
G37*
G36*
G01*
X62510000Y-28940700D02*
X62510000Y-28615700D01*
G75*
G02*
X62672500Y-28453200I162500J0D01*
G01*
X64322500Y-28453200D01*
G75*
G02*
X64485000Y-28615700I0J-162500D01*
G01*
X64485000Y-28940700D01*
G75*
G02*
X64322500Y-29103200I-162500J0D01*
G01*
X62672500Y-29103200D01*
G75*
G02*
X62510000Y-28940700I0J162500D01*
G01*
G37*
G36*
G01*
X57435000Y-28940700D02*
X57435000Y-28615700D01*
G75*
G02*
X57597500Y-28453200I162500J0D01*
G01*
X59247500Y-28453200D01*
G75*
G02*
X59410000Y-28615700I0J-162500D01*
G01*
X59410000Y-28940700D01*
G75*
G02*
X59247500Y-29103200I-162500J0D01*
G01*
X57597500Y-29103200D01*
G75*
G02*
X57435000Y-28940700I0J162500D01*
G01*
G37*
G36*
G01*
X57435000Y-27670700D02*
X57435000Y-27345700D01*
G75*
G02*
X57597500Y-27183200I162500J0D01*
G01*
X59247500Y-27183200D01*
G75*
G02*
X59410000Y-27345700I0J-162500D01*
G01*
X59410000Y-27670700D01*
G75*
G02*
X59247500Y-27833200I-162500J0D01*
G01*
X57597500Y-27833200D01*
G75*
G02*
X57435000Y-27670700I0J162500D01*
G01*
G37*
G36*
G01*
X57435000Y-26400700D02*
X57435000Y-26075700D01*
G75*
G02*
X57597500Y-25913200I162500J0D01*
G01*
X59247500Y-25913200D01*
G75*
G02*
X59410000Y-26075700I0J-162500D01*
G01*
X59410000Y-26400700D01*
G75*
G02*
X59247500Y-26563200I-162500J0D01*
G01*
X57597500Y-26563200D01*
G75*
G02*
X57435000Y-26400700I0J162500D01*
G01*
G37*
G36*
G01*
X57435000Y-25130700D02*
X57435000Y-24805700D01*
G75*
G02*
X57597500Y-24643200I162500J0D01*
G01*
X59247500Y-24643200D01*
G75*
G02*
X59410000Y-24805700I0J-162500D01*
G01*
X59410000Y-25130700D01*
G75*
G02*
X59247500Y-25293200I-162500J0D01*
G01*
X57597500Y-25293200D01*
G75*
G02*
X57435000Y-25130700I0J162500D01*
G01*
G37*
D24*
X81116000Y-57483000D03*
X60616000Y-57483000D03*
D25*
X79116000Y-54483000D03*
X78616000Y-54483000D03*
X78116000Y-54483000D03*
X77616000Y-54483000D03*
X77116000Y-54483000D03*
X76616000Y-54483000D03*
X76116000Y-54483000D03*
X75616000Y-54483000D03*
X75116000Y-54483000D03*
X74616000Y-54483000D03*
X74116000Y-54483000D03*
X73616000Y-54483000D03*
X73116000Y-54483000D03*
X72616000Y-54483000D03*
X72116000Y-54483000D03*
X71616000Y-54483000D03*
X71116000Y-54483000D03*
X70616000Y-54483000D03*
X70116000Y-54483000D03*
X69616000Y-54483000D03*
X69116000Y-54483000D03*
X68616000Y-54483000D03*
X68116000Y-54483000D03*
X67616000Y-54483000D03*
X67116000Y-54483000D03*
X66616000Y-54483000D03*
X66116000Y-54483000D03*
X65616000Y-54483000D03*
X65116000Y-54483000D03*
X64616000Y-54483000D03*
X64116000Y-54483000D03*
X63616000Y-54483000D03*
X63116000Y-54483000D03*
X62616000Y-54483000D03*
G36*
G01*
X35414000Y-35084599D02*
X35414000Y-35984601D01*
G75*
G02*
X35164001Y-36234600I-249999J0D01*
G01*
X34638999Y-36234600D01*
G75*
G02*
X34389000Y-35984601I0J249999D01*
G01*
X34389000Y-35084599D01*
G75*
G02*
X34638999Y-34834600I249999J0D01*
G01*
X35164001Y-34834600D01*
G75*
G02*
X35414000Y-35084599I0J-249999D01*
G01*
G37*
G36*
G01*
X37239000Y-35084599D02*
X37239000Y-35984601D01*
G75*
G02*
X36989001Y-36234600I-249999J0D01*
G01*
X36463999Y-36234600D01*
G75*
G02*
X36214000Y-35984601I0J249999D01*
G01*
X36214000Y-35084599D01*
G75*
G02*
X36463999Y-34834600I249999J0D01*
G01*
X36989001Y-34834600D01*
G75*
G02*
X37239000Y-35084599I0J-249999D01*
G01*
G37*
G36*
G01*
X35414000Y-38894599D02*
X35414000Y-39794601D01*
G75*
G02*
X35164001Y-40044600I-249999J0D01*
G01*
X34638999Y-40044600D01*
G75*
G02*
X34389000Y-39794601I0J249999D01*
G01*
X34389000Y-38894599D01*
G75*
G02*
X34638999Y-38644600I249999J0D01*
G01*
X35164001Y-38644600D01*
G75*
G02*
X35414000Y-38894599I0J-249999D01*
G01*
G37*
G36*
G01*
X37239000Y-38894599D02*
X37239000Y-39794601D01*
G75*
G02*
X36989001Y-40044600I-249999J0D01*
G01*
X36463999Y-40044600D01*
G75*
G02*
X36214000Y-39794601I0J249999D01*
G01*
X36214000Y-38894599D01*
G75*
G02*
X36463999Y-38644600I249999J0D01*
G01*
X36989001Y-38644600D01*
G75*
G02*
X37239000Y-38894599I0J-249999D01*
G01*
G37*
D14*
X40268400Y-36322000D03*
X38268400Y-37272000D03*
X38268400Y-35372000D03*
X40268400Y-40132000D03*
X38268400Y-41082000D03*
X38268400Y-39182000D03*
G36*
G01*
X32583000Y-29968000D02*
X32583000Y-29468000D01*
G75*
G02*
X32808000Y-29243000I225000J0D01*
G01*
X33258000Y-29243000D01*
G75*
G02*
X33483000Y-29468000I0J-225000D01*
G01*
X33483000Y-29968000D01*
G75*
G02*
X33258000Y-30193000I-225000J0D01*
G01*
X32808000Y-30193000D01*
G75*
G02*
X32583000Y-29968000I0J225000D01*
G01*
G37*
G36*
G01*
X31033000Y-29968000D02*
X31033000Y-29468000D01*
G75*
G02*
X31258000Y-29243000I225000J0D01*
G01*
X31708000Y-29243000D01*
G75*
G02*
X31933000Y-29468000I0J-225000D01*
G01*
X31933000Y-29968000D01*
G75*
G02*
X31708000Y-30193000I-225000J0D01*
G01*
X31258000Y-30193000D01*
G75*
G02*
X31033000Y-29968000I0J225000D01*
G01*
G37*
G36*
G01*
X67456000Y-28136001D02*
X67456000Y-27235999D01*
G75*
G02*
X67705999Y-26986000I249999J0D01*
G01*
X68231001Y-26986000D01*
G75*
G02*
X68481000Y-27235999I0J-249999D01*
G01*
X68481000Y-28136001D01*
G75*
G02*
X68231001Y-28386000I-249999J0D01*
G01*
X67705999Y-28386000D01*
G75*
G02*
X67456000Y-28136001I0J249999D01*
G01*
G37*
G36*
G01*
X65631000Y-28136001D02*
X65631000Y-27235999D01*
G75*
G02*
X65880999Y-26986000I249999J0D01*
G01*
X66406001Y-26986000D01*
G75*
G02*
X66656000Y-27235999I0J-249999D01*
G01*
X66656000Y-28136001D01*
G75*
G02*
X66406001Y-28386000I-249999J0D01*
G01*
X65880999Y-28386000D01*
G75*
G02*
X65631000Y-28136001I0J249999D01*
G01*
G37*
D26*
X29463000Y-21065000D03*
D27*
X32888000Y-23765000D03*
D28*
X31113000Y-23765000D03*
X31763000Y-23765000D03*
X29163000Y-23765000D03*
X29813000Y-23765000D03*
X30463000Y-23765000D03*
D26*
X31463000Y-21065000D03*
D29*
X34063000Y-21065000D03*
X26863000Y-21065000D03*
D30*
X63230000Y-48174000D03*
X62730000Y-48174000D03*
X62230000Y-48174000D03*
X61730000Y-48174000D03*
X61230000Y-48174000D03*
X61230000Y-43774000D03*
X61730000Y-43774000D03*
X62230000Y-43774000D03*
X62730000Y-43774000D03*
X63230000Y-43774000D03*
D23*
X59690000Y-20590000D03*
X60640000Y-22590000D03*
X58740000Y-22590000D03*
G36*
G01*
X75684801Y-39103200D02*
X74784799Y-39103200D01*
G75*
G02*
X74534800Y-38853201I0J249999D01*
G01*
X74534800Y-38328199D01*
G75*
G02*
X74784799Y-38078200I249999J0D01*
G01*
X75684801Y-38078200D01*
G75*
G02*
X75934800Y-38328199I0J-249999D01*
G01*
X75934800Y-38853201D01*
G75*
G02*
X75684801Y-39103200I-249999J0D01*
G01*
G37*
G36*
G01*
X75684801Y-40928200D02*
X74784799Y-40928200D01*
G75*
G02*
X74534800Y-40678201I0J249999D01*
G01*
X74534800Y-40153199D01*
G75*
G02*
X74784799Y-39903200I249999J0D01*
G01*
X75684801Y-39903200D01*
G75*
G02*
X75934800Y-40153199I0J-249999D01*
G01*
X75934800Y-40678201D01*
G75*
G02*
X75684801Y-40928200I-249999J0D01*
G01*
G37*
G36*
G01*
X72584799Y-39903200D02*
X73484801Y-39903200D01*
G75*
G02*
X73734800Y-40153199I0J-249999D01*
G01*
X73734800Y-40678201D01*
G75*
G02*
X73484801Y-40928200I-249999J0D01*
G01*
X72584799Y-40928200D01*
G75*
G02*
X72334800Y-40678201I0J249999D01*
G01*
X72334800Y-40153199D01*
G75*
G02*
X72584799Y-39903200I249999J0D01*
G01*
G37*
G36*
G01*
X72584799Y-38078200D02*
X73484801Y-38078200D01*
G75*
G02*
X73734800Y-38328199I0J-249999D01*
G01*
X73734800Y-38853201D01*
G75*
G02*
X73484801Y-39103200I-249999J0D01*
G01*
X72584799Y-39103200D01*
G75*
G02*
X72334800Y-38853201I0J249999D01*
G01*
X72334800Y-38328199D01*
G75*
G02*
X72584799Y-38078200I249999J0D01*
G01*
G37*
G36*
G01*
X61499701Y-38454300D02*
X60599699Y-38454300D01*
G75*
G02*
X60349700Y-38204301I0J249999D01*
G01*
X60349700Y-37679299D01*
G75*
G02*
X60599699Y-37429300I249999J0D01*
G01*
X61499701Y-37429300D01*
G75*
G02*
X61749700Y-37679299I0J-249999D01*
G01*
X61749700Y-38204301D01*
G75*
G02*
X61499701Y-38454300I-249999J0D01*
G01*
G37*
G36*
G01*
X61499701Y-40279300D02*
X60599699Y-40279300D01*
G75*
G02*
X60349700Y-40029301I0J249999D01*
G01*
X60349700Y-39504299D01*
G75*
G02*
X60599699Y-39254300I249999J0D01*
G01*
X61499701Y-39254300D01*
G75*
G02*
X61749700Y-39504299I0J-249999D01*
G01*
X61749700Y-40029301D01*
G75*
G02*
X61499701Y-40279300I-249999J0D01*
G01*
G37*
G36*
G01*
X62899699Y-39254300D02*
X63799701Y-39254300D01*
G75*
G02*
X64049700Y-39504299I0J-249999D01*
G01*
X64049700Y-40029301D01*
G75*
G02*
X63799701Y-40279300I-249999J0D01*
G01*
X62899699Y-40279300D01*
G75*
G02*
X62649700Y-40029301I0J249999D01*
G01*
X62649700Y-39504299D01*
G75*
G02*
X62899699Y-39254300I249999J0D01*
G01*
G37*
G36*
G01*
X62899699Y-37429300D02*
X63799701Y-37429300D01*
G75*
G02*
X64049700Y-37679299I0J-249999D01*
G01*
X64049700Y-38204301D01*
G75*
G02*
X63799701Y-38454300I-249999J0D01*
G01*
X62899699Y-38454300D01*
G75*
G02*
X62649700Y-38204301I0J249999D01*
G01*
X62649700Y-37679299D01*
G75*
G02*
X62899699Y-37429300I249999J0D01*
G01*
G37*
D31*
X51923500Y-52006500D03*
X57423500Y-52006500D03*
D13*
X68834800Y-39653200D03*
X68834800Y-42953200D03*
D11*
X71784800Y-42503200D03*
X75084800Y-42503200D03*
G36*
G01*
X68838000Y-37396000D02*
X69338000Y-37396000D01*
G75*
G02*
X69563000Y-37621000I0J-225000D01*
G01*
X69563000Y-38071000D01*
G75*
G02*
X69338000Y-38296000I-225000J0D01*
G01*
X68838000Y-38296000D01*
G75*
G02*
X68613000Y-38071000I0J225000D01*
G01*
X68613000Y-37621000D01*
G75*
G02*
X68838000Y-37396000I225000J0D01*
G01*
G37*
G36*
G01*
X68838000Y-35846000D02*
X69338000Y-35846000D01*
G75*
G02*
X69563000Y-36071000I0J-225000D01*
G01*
X69563000Y-36521000D01*
G75*
G02*
X69338000Y-36746000I-225000J0D01*
G01*
X68838000Y-36746000D01*
G75*
G02*
X68613000Y-36521000I0J225000D01*
G01*
X68613000Y-36071000D01*
G75*
G02*
X68838000Y-35846000I225000J0D01*
G01*
G37*
G36*
G01*
X65091500Y-37282000D02*
X65591500Y-37282000D01*
G75*
G02*
X65816500Y-37507000I0J-225000D01*
G01*
X65816500Y-37957000D01*
G75*
G02*
X65591500Y-38182000I-225000J0D01*
G01*
X65091500Y-38182000D01*
G75*
G02*
X64866500Y-37957000I0J225000D01*
G01*
X64866500Y-37507000D01*
G75*
G02*
X65091500Y-37282000I225000J0D01*
G01*
G37*
G36*
G01*
X65091500Y-35732000D02*
X65591500Y-35732000D01*
G75*
G02*
X65816500Y-35957000I0J-225000D01*
G01*
X65816500Y-36407000D01*
G75*
G02*
X65591500Y-36632000I-225000J0D01*
G01*
X65091500Y-36632000D01*
G75*
G02*
X64866500Y-36407000I0J225000D01*
G01*
X64866500Y-35957000D01*
G75*
G02*
X65091500Y-35732000I225000J0D01*
G01*
G37*
G36*
G01*
X71284800Y-39278200D02*
X70784800Y-39278200D01*
G75*
G02*
X70559800Y-39053200I0J225000D01*
G01*
X70559800Y-38603200D01*
G75*
G02*
X70784800Y-38378200I225000J0D01*
G01*
X71284800Y-38378200D01*
G75*
G02*
X71509800Y-38603200I0J-225000D01*
G01*
X71509800Y-39053200D01*
G75*
G02*
X71284800Y-39278200I-225000J0D01*
G01*
G37*
G36*
G01*
X71284800Y-40828200D02*
X70784800Y-40828200D01*
G75*
G02*
X70559800Y-40603200I0J225000D01*
G01*
X70559800Y-40153200D01*
G75*
G02*
X70784800Y-39928200I225000J0D01*
G01*
X71284800Y-39928200D01*
G75*
G02*
X71509800Y-40153200I0J-225000D01*
G01*
X71509800Y-40603200D01*
G75*
G02*
X71284800Y-40828200I-225000J0D01*
G01*
G37*
G36*
G01*
X65591500Y-39870500D02*
X65091500Y-39870500D01*
G75*
G02*
X64866500Y-39645500I0J225000D01*
G01*
X64866500Y-39195500D01*
G75*
G02*
X65091500Y-38970500I225000J0D01*
G01*
X65591500Y-38970500D01*
G75*
G02*
X65816500Y-39195500I0J-225000D01*
G01*
X65816500Y-39645500D01*
G75*
G02*
X65591500Y-39870500I-225000J0D01*
G01*
G37*
G36*
G01*
X65591500Y-41420500D02*
X65091500Y-41420500D01*
G75*
G02*
X64866500Y-41195500I0J225000D01*
G01*
X64866500Y-40745500D01*
G75*
G02*
X65091500Y-40520500I225000J0D01*
G01*
X65591500Y-40520500D01*
G75*
G02*
X65816500Y-40745500I0J-225000D01*
G01*
X65816500Y-41195500D01*
G75*
G02*
X65591500Y-41420500I-225000J0D01*
G01*
G37*
G36*
G01*
X68255000Y-44454000D02*
X68255000Y-44954000D01*
G75*
G02*
X68030000Y-45179000I-225000J0D01*
G01*
X67580000Y-45179000D01*
G75*
G02*
X67355000Y-44954000I0J225000D01*
G01*
X67355000Y-44454000D01*
G75*
G02*
X67580000Y-44229000I225000J0D01*
G01*
X68030000Y-44229000D01*
G75*
G02*
X68255000Y-44454000I0J-225000D01*
G01*
G37*
G36*
G01*
X69805000Y-44454000D02*
X69805000Y-44954000D01*
G75*
G02*
X69580000Y-45179000I-225000J0D01*
G01*
X69130000Y-45179000D01*
G75*
G02*
X68905000Y-44954000I0J225000D01*
G01*
X68905000Y-44454000D01*
G75*
G02*
X69130000Y-44229000I225000J0D01*
G01*
X69580000Y-44229000D01*
G75*
G02*
X69805000Y-44454000I0J-225000D01*
G01*
G37*
G36*
G01*
X51173500Y-46232000D02*
X51173500Y-46732000D01*
G75*
G02*
X50948500Y-46957000I-225000J0D01*
G01*
X50498500Y-46957000D01*
G75*
G02*
X50273500Y-46732000I0J225000D01*
G01*
X50273500Y-46232000D01*
G75*
G02*
X50498500Y-46007000I225000J0D01*
G01*
X50948500Y-46007000D01*
G75*
G02*
X51173500Y-46232000I0J-225000D01*
G01*
G37*
G36*
G01*
X52723500Y-46232000D02*
X52723500Y-46732000D01*
G75*
G02*
X52498500Y-46957000I-225000J0D01*
G01*
X52048500Y-46957000D01*
G75*
G02*
X51823500Y-46732000I0J225000D01*
G01*
X51823500Y-46232000D01*
G75*
G02*
X52048500Y-46007000I225000J0D01*
G01*
X52498500Y-46007000D01*
G75*
G02*
X52723500Y-46232000I0J-225000D01*
G01*
G37*
D14*
X115649500Y-24638000D03*
X117649500Y-23688000D03*
X117649500Y-25588000D03*
G36*
G01*
X78716000Y-20774800D02*
X78716000Y-20474800D01*
G75*
G02*
X78866000Y-20324800I150000J0D01*
G01*
X80516000Y-20324800D01*
G75*
G02*
X80666000Y-20474800I0J-150000D01*
G01*
X80666000Y-20774800D01*
G75*
G02*
X80516000Y-20924800I-150000J0D01*
G01*
X78866000Y-20924800D01*
G75*
G02*
X78716000Y-20774800I0J150000D01*
G01*
G37*
G36*
G01*
X78716000Y-22044800D02*
X78716000Y-21744800D01*
G75*
G02*
X78866000Y-21594800I150000J0D01*
G01*
X80516000Y-21594800D01*
G75*
G02*
X80666000Y-21744800I0J-150000D01*
G01*
X80666000Y-22044800D01*
G75*
G02*
X80516000Y-22194800I-150000J0D01*
G01*
X78866000Y-22194800D01*
G75*
G02*
X78716000Y-22044800I0J150000D01*
G01*
G37*
G36*
G01*
X78716000Y-23314800D02*
X78716000Y-23014800D01*
G75*
G02*
X78866000Y-22864800I150000J0D01*
G01*
X80516000Y-22864800D01*
G75*
G02*
X80666000Y-23014800I0J-150000D01*
G01*
X80666000Y-23314800D01*
G75*
G02*
X80516000Y-23464800I-150000J0D01*
G01*
X78866000Y-23464800D01*
G75*
G02*
X78716000Y-23314800I0J150000D01*
G01*
G37*
G36*
G01*
X78716000Y-24584800D02*
X78716000Y-24284800D01*
G75*
G02*
X78866000Y-24134800I150000J0D01*
G01*
X80516000Y-24134800D01*
G75*
G02*
X80666000Y-24284800I0J-150000D01*
G01*
X80666000Y-24584800D01*
G75*
G02*
X80516000Y-24734800I-150000J0D01*
G01*
X78866000Y-24734800D01*
G75*
G02*
X78716000Y-24584800I0J150000D01*
G01*
G37*
G36*
G01*
X78716000Y-25854800D02*
X78716000Y-25554800D01*
G75*
G02*
X78866000Y-25404800I150000J0D01*
G01*
X80516000Y-25404800D01*
G75*
G02*
X80666000Y-25554800I0J-150000D01*
G01*
X80666000Y-25854800D01*
G75*
G02*
X80516000Y-26004800I-150000J0D01*
G01*
X78866000Y-26004800D01*
G75*
G02*
X78716000Y-25854800I0J150000D01*
G01*
G37*
G36*
G01*
X78716000Y-27124800D02*
X78716000Y-26824800D01*
G75*
G02*
X78866000Y-26674800I150000J0D01*
G01*
X80516000Y-26674800D01*
G75*
G02*
X80666000Y-26824800I0J-150000D01*
G01*
X80666000Y-27124800D01*
G75*
G02*
X80516000Y-27274800I-150000J0D01*
G01*
X78866000Y-27274800D01*
G75*
G02*
X78716000Y-27124800I0J150000D01*
G01*
G37*
G36*
G01*
X78716000Y-28394800D02*
X78716000Y-28094800D01*
G75*
G02*
X78866000Y-27944800I150000J0D01*
G01*
X80516000Y-27944800D01*
G75*
G02*
X80666000Y-28094800I0J-150000D01*
G01*
X80666000Y-28394800D01*
G75*
G02*
X80516000Y-28544800I-150000J0D01*
G01*
X78866000Y-28544800D01*
G75*
G02*
X78716000Y-28394800I0J150000D01*
G01*
G37*
G36*
G01*
X78716000Y-29664800D02*
X78716000Y-29364800D01*
G75*
G02*
X78866000Y-29214800I150000J0D01*
G01*
X80516000Y-29214800D01*
G75*
G02*
X80666000Y-29364800I0J-150000D01*
G01*
X80666000Y-29664800D01*
G75*
G02*
X80516000Y-29814800I-150000J0D01*
G01*
X78866000Y-29814800D01*
G75*
G02*
X78716000Y-29664800I0J150000D01*
G01*
G37*
G36*
G01*
X73766000Y-29664800D02*
X73766000Y-29364800D01*
G75*
G02*
X73916000Y-29214800I150000J0D01*
G01*
X75566000Y-29214800D01*
G75*
G02*
X75716000Y-29364800I0J-150000D01*
G01*
X75716000Y-29664800D01*
G75*
G02*
X75566000Y-29814800I-150000J0D01*
G01*
X73916000Y-29814800D01*
G75*
G02*
X73766000Y-29664800I0J150000D01*
G01*
G37*
G36*
G01*
X73766000Y-28394800D02*
X73766000Y-28094800D01*
G75*
G02*
X73916000Y-27944800I150000J0D01*
G01*
X75566000Y-27944800D01*
G75*
G02*
X75716000Y-28094800I0J-150000D01*
G01*
X75716000Y-28394800D01*
G75*
G02*
X75566000Y-28544800I-150000J0D01*
G01*
X73916000Y-28544800D01*
G75*
G02*
X73766000Y-28394800I0J150000D01*
G01*
G37*
G36*
G01*
X73766000Y-27124800D02*
X73766000Y-26824800D01*
G75*
G02*
X73916000Y-26674800I150000J0D01*
G01*
X75566000Y-26674800D01*
G75*
G02*
X75716000Y-26824800I0J-150000D01*
G01*
X75716000Y-27124800D01*
G75*
G02*
X75566000Y-27274800I-150000J0D01*
G01*
X73916000Y-27274800D01*
G75*
G02*
X73766000Y-27124800I0J150000D01*
G01*
G37*
G36*
G01*
X73766000Y-25854800D02*
X73766000Y-25554800D01*
G75*
G02*
X73916000Y-25404800I150000J0D01*
G01*
X75566000Y-25404800D01*
G75*
G02*
X75716000Y-25554800I0J-150000D01*
G01*
X75716000Y-25854800D01*
G75*
G02*
X75566000Y-26004800I-150000J0D01*
G01*
X73916000Y-26004800D01*
G75*
G02*
X73766000Y-25854800I0J150000D01*
G01*
G37*
G36*
G01*
X73766000Y-24584800D02*
X73766000Y-24284800D01*
G75*
G02*
X73916000Y-24134800I150000J0D01*
G01*
X75566000Y-24134800D01*
G75*
G02*
X75716000Y-24284800I0J-150000D01*
G01*
X75716000Y-24584800D01*
G75*
G02*
X75566000Y-24734800I-150000J0D01*
G01*
X73916000Y-24734800D01*
G75*
G02*
X73766000Y-24584800I0J150000D01*
G01*
G37*
G36*
G01*
X73766000Y-23314800D02*
X73766000Y-23014800D01*
G75*
G02*
X73916000Y-22864800I150000J0D01*
G01*
X75566000Y-22864800D01*
G75*
G02*
X75716000Y-23014800I0J-150000D01*
G01*
X75716000Y-23314800D01*
G75*
G02*
X75566000Y-23464800I-150000J0D01*
G01*
X73916000Y-23464800D01*
G75*
G02*
X73766000Y-23314800I0J150000D01*
G01*
G37*
G36*
G01*
X73766000Y-22044800D02*
X73766000Y-21744800D01*
G75*
G02*
X73916000Y-21594800I150000J0D01*
G01*
X75566000Y-21594800D01*
G75*
G02*
X75716000Y-21744800I0J-150000D01*
G01*
X75716000Y-22044800D01*
G75*
G02*
X75566000Y-22194800I-150000J0D01*
G01*
X73916000Y-22194800D01*
G75*
G02*
X73766000Y-22044800I0J150000D01*
G01*
G37*
G36*
G01*
X73766000Y-20774800D02*
X73766000Y-20474800D01*
G75*
G02*
X73916000Y-20324800I150000J0D01*
G01*
X75566000Y-20324800D01*
G75*
G02*
X75716000Y-20474800I0J-150000D01*
G01*
X75716000Y-20774800D01*
G75*
G02*
X75566000Y-20924800I-150000J0D01*
G01*
X73916000Y-20924800D01*
G75*
G02*
X73766000Y-20774800I0J150000D01*
G01*
G37*
D32*
X43833200Y-30116800D03*
X43833200Y-29616800D03*
X43833200Y-29116800D03*
X43833200Y-28616800D03*
X43833200Y-28116800D03*
X48233200Y-28116800D03*
X48233200Y-28616800D03*
X48233200Y-29116800D03*
X48233200Y-29616800D03*
X48233200Y-30116800D03*
D33*
X66800000Y-24800000D03*
D34*
X67800000Y-21550000D03*
D33*
X68800000Y-24800000D03*
G36*
G01*
X74098999Y-33079000D02*
X74999001Y-33079000D01*
G75*
G02*
X75249000Y-33328999I0J-249999D01*
G01*
X75249000Y-33854001D01*
G75*
G02*
X74999001Y-34104000I-249999J0D01*
G01*
X74098999Y-34104000D01*
G75*
G02*
X73849000Y-33854001I0J249999D01*
G01*
X73849000Y-33328999D01*
G75*
G02*
X74098999Y-33079000I249999J0D01*
G01*
G37*
G36*
G01*
X74098999Y-31254000D02*
X74999001Y-31254000D01*
G75*
G02*
X75249000Y-31503999I0J-249999D01*
G01*
X75249000Y-32029001D01*
G75*
G02*
X74999001Y-32279000I-249999J0D01*
G01*
X74098999Y-32279000D01*
G75*
G02*
X73849000Y-32029001I0J249999D01*
G01*
X73849000Y-31503999D01*
G75*
G02*
X74098999Y-31254000I249999J0D01*
G01*
G37*
G36*
G01*
X113312000Y-50349999D02*
X113312000Y-51250001D01*
G75*
G02*
X113062001Y-51500000I-249999J0D01*
G01*
X112536999Y-51500000D01*
G75*
G02*
X112287000Y-51250001I0J249999D01*
G01*
X112287000Y-50349999D01*
G75*
G02*
X112536999Y-50100000I249999J0D01*
G01*
X113062001Y-50100000D01*
G75*
G02*
X113312000Y-50349999I0J-249999D01*
G01*
G37*
G36*
G01*
X111487000Y-50349999D02*
X111487000Y-51250001D01*
G75*
G02*
X111237001Y-51500000I-249999J0D01*
G01*
X110711999Y-51500000D01*
G75*
G02*
X110462000Y-51250001I0J249999D01*
G01*
X110462000Y-50349999D01*
G75*
G02*
X110711999Y-50100000I249999J0D01*
G01*
X111237001Y-50100000D01*
G75*
G02*
X111487000Y-50349999I0J-249999D01*
G01*
G37*
G36*
G01*
X78340000Y-39173999D02*
X78340000Y-40074001D01*
G75*
G02*
X78090001Y-40324000I-249999J0D01*
G01*
X77564999Y-40324000D01*
G75*
G02*
X77315000Y-40074001I0J249999D01*
G01*
X77315000Y-39173999D01*
G75*
G02*
X77564999Y-38924000I249999J0D01*
G01*
X78090001Y-38924000D01*
G75*
G02*
X78340000Y-39173999I0J-249999D01*
G01*
G37*
G36*
G01*
X80165000Y-39173999D02*
X80165000Y-40074001D01*
G75*
G02*
X79915001Y-40324000I-249999J0D01*
G01*
X79389999Y-40324000D01*
G75*
G02*
X79140000Y-40074001I0J249999D01*
G01*
X79140000Y-39173999D01*
G75*
G02*
X79389999Y-38924000I249999J0D01*
G01*
X79915001Y-38924000D01*
G75*
G02*
X80165000Y-39173999I0J-249999D01*
G01*
G37*
G36*
G01*
X54585801Y-28412000D02*
X53685799Y-28412000D01*
G75*
G02*
X53435800Y-28162001I0J249999D01*
G01*
X53435800Y-27636999D01*
G75*
G02*
X53685799Y-27387000I249999J0D01*
G01*
X54585801Y-27387000D01*
G75*
G02*
X54835800Y-27636999I0J-249999D01*
G01*
X54835800Y-28162001D01*
G75*
G02*
X54585801Y-28412000I-249999J0D01*
G01*
G37*
G36*
G01*
X54585801Y-30237000D02*
X53685799Y-30237000D01*
G75*
G02*
X53435800Y-29987001I0J249999D01*
G01*
X53435800Y-29461999D01*
G75*
G02*
X53685799Y-29212000I249999J0D01*
G01*
X54585801Y-29212000D01*
G75*
G02*
X54835800Y-29461999I0J-249999D01*
G01*
X54835800Y-29987001D01*
G75*
G02*
X54585801Y-30237000I-249999J0D01*
G01*
G37*
G36*
G01*
X54585801Y-31919500D02*
X53685799Y-31919500D01*
G75*
G02*
X53435800Y-31669501I0J249999D01*
G01*
X53435800Y-31144499D01*
G75*
G02*
X53685799Y-30894500I249999J0D01*
G01*
X54585801Y-30894500D01*
G75*
G02*
X54835800Y-31144499I0J-249999D01*
G01*
X54835800Y-31669501D01*
G75*
G02*
X54585801Y-31919500I-249999J0D01*
G01*
G37*
G36*
G01*
X54585801Y-33744500D02*
X53685799Y-33744500D01*
G75*
G02*
X53435800Y-33494501I0J249999D01*
G01*
X53435800Y-32969499D01*
G75*
G02*
X53685799Y-32719500I249999J0D01*
G01*
X54585801Y-32719500D01*
G75*
G02*
X54835800Y-32969499I0J-249999D01*
G01*
X54835800Y-33494501D01*
G75*
G02*
X54585801Y-33744500I-249999J0D01*
G01*
G37*
G36*
G01*
X52352299Y-25440100D02*
X53252301Y-25440100D01*
G75*
G02*
X53502300Y-25690099I0J-249999D01*
G01*
X53502300Y-26215101D01*
G75*
G02*
X53252301Y-26465100I-249999J0D01*
G01*
X52352299Y-26465100D01*
G75*
G02*
X52102300Y-26215101I0J249999D01*
G01*
X52102300Y-25690099D01*
G75*
G02*
X52352299Y-25440100I249999J0D01*
G01*
G37*
G36*
G01*
X52352299Y-23615100D02*
X53252301Y-23615100D01*
G75*
G02*
X53502300Y-23865099I0J-249999D01*
G01*
X53502300Y-24390101D01*
G75*
G02*
X53252301Y-24640100I-249999J0D01*
G01*
X52352299Y-24640100D01*
G75*
G02*
X52102300Y-24390101I0J249999D01*
G01*
X52102300Y-23865099D01*
G75*
G02*
X52352299Y-23615100I249999J0D01*
G01*
G37*
G36*
G01*
X52352299Y-21947600D02*
X53252301Y-21947600D01*
G75*
G02*
X53502300Y-22197599I0J-249999D01*
G01*
X53502300Y-22722601D01*
G75*
G02*
X53252301Y-22972600I-249999J0D01*
G01*
X52352299Y-22972600D01*
G75*
G02*
X52102300Y-22722601I0J249999D01*
G01*
X52102300Y-22197599D01*
G75*
G02*
X52352299Y-21947600I249999J0D01*
G01*
G37*
G36*
G01*
X52352299Y-20122600D02*
X53252301Y-20122600D01*
G75*
G02*
X53502300Y-20372599I0J-249999D01*
G01*
X53502300Y-20897601D01*
G75*
G02*
X53252301Y-21147600I-249999J0D01*
G01*
X52352299Y-21147600D01*
G75*
G02*
X52102300Y-20897601I0J249999D01*
G01*
X52102300Y-20372599D01*
G75*
G02*
X52352299Y-20122600I249999J0D01*
G01*
G37*
D31*
X40557000Y-23368000D03*
X46057000Y-23368000D03*
D12*
X37575000Y-27967000D03*
X37575000Y-33467000D03*
D11*
X57784000Y-35433000D03*
X54484000Y-35433000D03*
D13*
X48641000Y-24065500D03*
X48641000Y-20765500D03*
G36*
G01*
X82733000Y-26420000D02*
X82733000Y-26920000D01*
G75*
G02*
X82508000Y-27145000I-225000J0D01*
G01*
X82058000Y-27145000D01*
G75*
G02*
X81833000Y-26920000I0J225000D01*
G01*
X81833000Y-26420000D01*
G75*
G02*
X82058000Y-26195000I225000J0D01*
G01*
X82508000Y-26195000D01*
G75*
G02*
X82733000Y-26420000I0J-225000D01*
G01*
G37*
G36*
G01*
X84283000Y-26420000D02*
X84283000Y-26920000D01*
G75*
G02*
X84058000Y-27145000I-225000J0D01*
G01*
X83608000Y-27145000D01*
G75*
G02*
X83383000Y-26920000I0J225000D01*
G01*
X83383000Y-26420000D01*
G75*
G02*
X83608000Y-26195000I225000J0D01*
G01*
X84058000Y-26195000D01*
G75*
G02*
X84283000Y-26420000I0J-225000D01*
G01*
G37*
G36*
G01*
X79065000Y-37842000D02*
X79065000Y-37342000D01*
G75*
G02*
X79290000Y-37117000I225000J0D01*
G01*
X79740000Y-37117000D01*
G75*
G02*
X79965000Y-37342000I0J-225000D01*
G01*
X79965000Y-37842000D01*
G75*
G02*
X79740000Y-38067000I-225000J0D01*
G01*
X79290000Y-38067000D01*
G75*
G02*
X79065000Y-37842000I0J225000D01*
G01*
G37*
G36*
G01*
X77515000Y-37842000D02*
X77515000Y-37342000D01*
G75*
G02*
X77740000Y-37117000I225000J0D01*
G01*
X78190000Y-37117000D01*
G75*
G02*
X78415000Y-37342000I0J-225000D01*
G01*
X78415000Y-37842000D01*
G75*
G02*
X78190000Y-38067000I-225000J0D01*
G01*
X77740000Y-38067000D01*
G75*
G02*
X77515000Y-37842000I0J225000D01*
G01*
G37*
G36*
G01*
X56455800Y-30681200D02*
X56455800Y-31181200D01*
G75*
G02*
X56230800Y-31406200I-225000J0D01*
G01*
X55780800Y-31406200D01*
G75*
G02*
X55555800Y-31181200I0J225000D01*
G01*
X55555800Y-30681200D01*
G75*
G02*
X55780800Y-30456200I225000J0D01*
G01*
X56230800Y-30456200D01*
G75*
G02*
X56455800Y-30681200I0J-225000D01*
G01*
G37*
G36*
G01*
X58005800Y-30681200D02*
X58005800Y-31181200D01*
G75*
G02*
X57780800Y-31406200I-225000J0D01*
G01*
X57330800Y-31406200D01*
G75*
G02*
X57105800Y-31181200I0J225000D01*
G01*
X57105800Y-30681200D01*
G75*
G02*
X57330800Y-30456200I225000J0D01*
G01*
X57780800Y-30456200D01*
G75*
G02*
X58005800Y-30681200I0J-225000D01*
G01*
G37*
G36*
G01*
X55177500Y-24757500D02*
X54677500Y-24757500D01*
G75*
G02*
X54452500Y-24532500I0J225000D01*
G01*
X54452500Y-24082500D01*
G75*
G02*
X54677500Y-23857500I225000J0D01*
G01*
X55177500Y-23857500D01*
G75*
G02*
X55402500Y-24082500I0J-225000D01*
G01*
X55402500Y-24532500D01*
G75*
G02*
X55177500Y-24757500I-225000J0D01*
G01*
G37*
G36*
G01*
X55177500Y-26307500D02*
X54677500Y-26307500D01*
G75*
G02*
X54452500Y-26082500I0J225000D01*
G01*
X54452500Y-25632500D01*
G75*
G02*
X54677500Y-25407500I225000J0D01*
G01*
X55177500Y-25407500D01*
G75*
G02*
X55402500Y-25632500I0J-225000D01*
G01*
X55402500Y-26082500D01*
G75*
G02*
X55177500Y-26307500I-225000J0D01*
G01*
G37*
G36*
G01*
X51980800Y-32896200D02*
X52480800Y-32896200D01*
G75*
G02*
X52705800Y-33121200I0J-225000D01*
G01*
X52705800Y-33571200D01*
G75*
G02*
X52480800Y-33796200I-225000J0D01*
G01*
X51980800Y-33796200D01*
G75*
G02*
X51755800Y-33571200I0J225000D01*
G01*
X51755800Y-33121200D01*
G75*
G02*
X51980800Y-32896200I225000J0D01*
G01*
G37*
G36*
G01*
X51980800Y-31346200D02*
X52480800Y-31346200D01*
G75*
G02*
X52705800Y-31571200I0J-225000D01*
G01*
X52705800Y-32021200D01*
G75*
G02*
X52480800Y-32246200I-225000J0D01*
G01*
X51980800Y-32246200D01*
G75*
G02*
X51755800Y-32021200I0J225000D01*
G01*
X51755800Y-31571200D01*
G75*
G02*
X51980800Y-31346200I225000J0D01*
G01*
G37*
G36*
G01*
X50956800Y-21222600D02*
X50456800Y-21222600D01*
G75*
G02*
X50231800Y-20997600I0J225000D01*
G01*
X50231800Y-20547600D01*
G75*
G02*
X50456800Y-20322600I225000J0D01*
G01*
X50956800Y-20322600D01*
G75*
G02*
X51181800Y-20547600I0J-225000D01*
G01*
X51181800Y-20997600D01*
G75*
G02*
X50956800Y-21222600I-225000J0D01*
G01*
G37*
G36*
G01*
X50956800Y-22772600D02*
X50456800Y-22772600D01*
G75*
G02*
X50231800Y-22547600I0J225000D01*
G01*
X50231800Y-22097600D01*
G75*
G02*
X50456800Y-21872600I225000J0D01*
G01*
X50956800Y-21872600D01*
G75*
G02*
X51181800Y-22097600I0J-225000D01*
G01*
X51181800Y-22547600D01*
G75*
G02*
X50956800Y-22772600I-225000J0D01*
G01*
G37*
G36*
G01*
X47240000Y-33457000D02*
X46740000Y-33457000D01*
G75*
G02*
X46515000Y-33232000I0J225000D01*
G01*
X46515000Y-32782000D01*
G75*
G02*
X46740000Y-32557000I225000J0D01*
G01*
X47240000Y-32557000D01*
G75*
G02*
X47465000Y-32782000I0J-225000D01*
G01*
X47465000Y-33232000D01*
G75*
G02*
X47240000Y-33457000I-225000J0D01*
G01*
G37*
G36*
G01*
X47240000Y-35007000D02*
X46740000Y-35007000D01*
G75*
G02*
X46515000Y-34782000I0J225000D01*
G01*
X46515000Y-34332000D01*
G75*
G02*
X46740000Y-34107000I225000J0D01*
G01*
X47240000Y-34107000D01*
G75*
G02*
X47465000Y-34332000I0J-225000D01*
G01*
X47465000Y-34782000D01*
G75*
G02*
X47240000Y-35007000I-225000J0D01*
G01*
G37*
G36*
G01*
X62488000Y-22169000D02*
X62988000Y-22169000D01*
G75*
G02*
X63213000Y-22394000I0J-225000D01*
G01*
X63213000Y-22844000D01*
G75*
G02*
X62988000Y-23069000I-225000J0D01*
G01*
X62488000Y-23069000D01*
G75*
G02*
X62263000Y-22844000I0J225000D01*
G01*
X62263000Y-22394000D01*
G75*
G02*
X62488000Y-22169000I225000J0D01*
G01*
G37*
G36*
G01*
X62488000Y-20619000D02*
X62988000Y-20619000D01*
G75*
G02*
X63213000Y-20844000I0J-225000D01*
G01*
X63213000Y-21294000D01*
G75*
G02*
X62988000Y-21519000I-225000J0D01*
G01*
X62488000Y-21519000D01*
G75*
G02*
X62263000Y-21294000I0J225000D01*
G01*
X62263000Y-20844000D01*
G75*
G02*
X62488000Y-20619000I225000J0D01*
G01*
G37*
G36*
G01*
X57146000Y-21265000D02*
X56646000Y-21265000D01*
G75*
G02*
X56421000Y-21040000I0J225000D01*
G01*
X56421000Y-20590000D01*
G75*
G02*
X56646000Y-20365000I225000J0D01*
G01*
X57146000Y-20365000D01*
G75*
G02*
X57371000Y-20590000I0J-225000D01*
G01*
X57371000Y-21040000D01*
G75*
G02*
X57146000Y-21265000I-225000J0D01*
G01*
G37*
G36*
G01*
X57146000Y-22815000D02*
X56646000Y-22815000D01*
G75*
G02*
X56421000Y-22590000I0J225000D01*
G01*
X56421000Y-22140000D01*
G75*
G02*
X56646000Y-21915000I225000J0D01*
G01*
X57146000Y-21915000D01*
G75*
G02*
X57371000Y-22140000I0J-225000D01*
G01*
X57371000Y-22590000D01*
G75*
G02*
X57146000Y-22815000I-225000J0D01*
G01*
G37*
G36*
G01*
X31933000Y-27690000D02*
X31933000Y-28190000D01*
G75*
G02*
X31708000Y-28415000I-225000J0D01*
G01*
X31258000Y-28415000D01*
G75*
G02*
X31033000Y-28190000I0J225000D01*
G01*
X31033000Y-27690000D01*
G75*
G02*
X31258000Y-27465000I225000J0D01*
G01*
X31708000Y-27465000D01*
G75*
G02*
X31933000Y-27690000I0J-225000D01*
G01*
G37*
G36*
G01*
X33483000Y-27690000D02*
X33483000Y-28190000D01*
G75*
G02*
X33258000Y-28415000I-225000J0D01*
G01*
X32808000Y-28415000D01*
G75*
G02*
X32583000Y-28190000I0J225000D01*
G01*
X32583000Y-27690000D01*
G75*
G02*
X32808000Y-27465000I225000J0D01*
G01*
X33258000Y-27465000D01*
G75*
G02*
X33483000Y-27690000I0J-225000D01*
G01*
G37*
M02*
