M48
; DRILL file {KiCad 5.1.6} date Fri Oct  2 22:43:01 2020
; FORMAT={-:-/ absolute / inch / decimal}
; #@! TF.CreationDate,2020-10-02T22:43:01+02:00
; #@! TF.GenerationSoftware,Kicad,Pcbnew,5.1.6
; #@! TF.FileFunction,Plated,1,2,PTH
FMAT,2
INCH
T1C0.0118
T2C0.0157
T3C0.0276
T4C0.0394
T5C0.0433
%
G90
G05
T1
X3.2315Y-1.4223
X3.2315Y-1.4617
X3.2315Y-1.5011
X3.2315Y-1.5404
X3.2315Y-1.5798
X3.2708Y-1.4223
X3.2708Y-1.4617
X3.2708Y-1.5011
X3.2708Y-1.5404
X3.2708Y-1.5798
X3.3102Y-1.4223
X3.3102Y-1.4617
X3.3102Y-1.5011
X3.3102Y-1.5404
X3.3102Y-1.5798
X3.3496Y-1.4223
X3.3496Y-1.4617
X3.3496Y-1.5011
X3.3496Y-1.5404
X3.3496Y-1.5798
X3.3889Y-1.4223
X3.3889Y-1.4617
X3.3889Y-1.5011
X3.3889Y-1.5404
X3.3889Y-1.5798
T2
X1.0243Y-1.1093
X1.0293Y-0.9593
X1.0293Y-1.1443
X1.2244Y-1.563
X1.2493Y-1.1743
X1.2493Y-1.8343
X1.2626Y-1.7193
X1.2718Y-1.2322
X1.2874Y-1.9488
X1.315Y-1.7717
X1.3228Y-1.3661
X1.3293Y-1.0793
X1.3307Y-1.2717
X1.3385Y-1.9505
X1.3465Y-1.4213
X1.3465Y-1.4685
X1.3543Y-0.9693
X1.3543Y-1.2002
X1.3643Y-1.0593
X1.3661Y-1.7953
X1.3945Y-1.1565
X1.4252Y-1.6339
X1.4843Y-1.6339
X1.501Y-1.448
X1.5275Y-1.7245
X1.5276Y-0.811
X1.5276Y-0.8583
X1.5394Y-1.2165
X1.559Y-1.756
X1.5669Y-0.8346
X1.5827Y-1.0591
X1.5827Y-1.1024
X1.5945Y-1.6929
X1.6105Y-1.362
X1.702Y-1.0225
X1.7244Y-1.622
X1.7323Y-0.9016
X1.748Y-1.6575
X1.752Y-1.5945
X1.7543Y-1.2343
X1.7598Y-0.937
X1.7795Y-1.0236
X1.7835Y-0.9016
X1.7835Y-1.5551
X1.8393Y-1.2793
X1.8465Y-1.0236
X1.8898Y-1.3583
X1.8898Y-1.4134
X1.8937Y-1.6811
X1.9449Y-1.0315
X1.9567Y-1.0669
X1.9646Y-1.2756
X1.9724Y-1.1142
X1.9843Y-1.4685
X1.9961Y-1.9567
X2.0157Y-1.2756
X2.0276Y-1.5827
X2.0394Y-1.9567
X2.0689Y-1.7028
X2.0726Y-1.2616
X2.0827Y-1.9567
X2.0945Y-0.9606
X2.0984Y-1.7441
X2.1417Y-1.7441
X2.1491Y-0.9631
X2.1654Y-0.8425
X2.185Y-1.4921
X2.1929Y-1.1378
X2.1969Y-1.1811
X2.248Y-1.6299
X2.252Y-1.4961
X2.2638Y-1.248
X2.2795Y-1.7362
X2.311Y-0.8386
X2.315Y-1.7126
X2.3504Y-1.7362
X2.3661Y-1.3622
X2.378Y-1.1181
X2.4094Y-1.1496
X2.4213Y-1.3661
X2.4291Y-1.7362
X2.4449Y-0.8858
X2.4724Y-1.7362
X2.4803Y-1.3543
X2.4921Y-1.2717
X2.5354Y-1.2717
X2.5433Y-1.4488
X2.5866Y-0.8661
X2.6063Y-1.2598
X2.6457Y-1.9685
X2.7323Y-1.063
X2.7638Y-1.9567
X2.7874Y-0.9055
X2.8543Y-1.063
X2.9646Y-0.8701
X3.0Y-0.9016
X3.0202Y-1.9444
X3.0315Y-1.4213
X3.0354Y-0.8701
X3.0382Y-1.4894
X3.0382Y-1.5445
X3.1102Y-1.6063
X3.1335Y-1.2585
X3.1496Y-1.4173
X3.1496Y-1.4724
X3.1496Y-1.5315
X3.1793Y-1.6943
X3.1882Y-1.7505
X3.1893Y-1.0393
X3.2362Y-1.9488
X3.2382Y-1.7532
X3.2393Y-1.0393
X3.2479Y-0.9109
X3.2968Y-0.8368
X3.315Y-0.9134
X3.378Y-0.8189
X3.378Y-1.7283
X3.4094Y-0.8583
X3.4488Y-1.9409
X3.4985Y-0.994
X3.5039Y-1.9409
X3.5656Y-1.5011
X3.6025Y-0.994
X3.612Y-0.9445
X3.6223Y-1.4153
X3.6535Y-1.9409
X3.6743Y-1.7543
X3.68Y-0.8189
X3.6923Y-1.4453
X3.7165Y-1.7362
X3.7243Y-1.0293
X3.7323Y-1.9409
X3.743Y-1.5205
X3.7893Y-1.7393
X3.7893Y-1.9343
X3.83Y-1.492
X3.8661Y-1.937
X3.8933Y-1.6803
X3.8973Y-1.5553
X3.9173Y-1.937
X3.9493Y-1.3743
X3.962Y-1.7115
X4.0Y-0.9764
X4.0118Y-1.8898
X4.0135Y-1.9629
X4.0155Y-1.0675
X4.0157Y-1.3504
X4.0315Y-0.9528
X4.0394Y-1.5039
X4.0605Y-1.845
X4.063Y-0.9764
X4.0965Y-1.6775
X4.1123Y-1.5053
X4.1299Y-1.9173
X4.1623Y-1.5053
X4.1643Y-1.6793
X4.1791Y-1.8642
X4.185Y-1.9173
X4.1929Y-1.2638
X4.2047Y-0.8819
X4.2123Y-1.5053
X4.2362Y-0.8346
X4.2362Y-1.189
X4.2402Y-1.8622
X4.2432Y-1.7605
X4.2598Y-1.5039
X4.2638Y-1.1535
X4.2677Y-0.8819
X4.2756Y-1.0472
X4.2756Y-1.9606
X4.2823Y-1.7053
X4.3073Y-1.5053
X4.3428Y-1.6958
X4.3523Y-1.5033
X4.3823Y-1.4153
X4.3893Y-1.4623
X4.4233Y-1.3063
X4.4323Y-1.3653
X4.4459Y-1.2688
X4.4593Y-1.6793
X4.4723Y-1.3053
X4.4723Y-1.5853
X4.4986Y-1.5266
X4.5023Y-1.1733
X4.5033Y-1.1323
X4.5073Y-1.6103
X4.5373Y-1.4803
X4.5523Y-1.7053
X4.5669Y-1.811
X4.5669Y-1.937
X4.5673Y-1.4253
X4.5827Y-0.9134
X4.5883Y-1.0943
X4.6213Y-1.7013
X4.6514Y-1.0713
X4.7543Y-1.8443
X4.7643Y-1.7113
X4.7643Y-1.9443
X4.7673Y-1.4763
X4.7723Y-1.4353
X4.7813Y-1.5153
X4.7823Y-1.1613
X4.7895Y-1.3431
X4.7943Y-1.5543
X4.7943Y-1.6803
X4.811Y-0.8819
X4.811Y-0.937
X4.8183Y-1.3083
X4.8343Y-1.6343
X4.8368Y-1.2478
X4.8393Y-1.9443
X4.8504Y-0.9055
X4.8661Y-1.7992
T3
X1.1039Y-0.9356
X1.2948Y-0.9356
T4
X1.0693Y-1.4173
X1.0693Y-1.5173
X1.0693Y-1.6173
X1.0693Y-1.7173
X1.0693Y-1.8173
X1.0693Y-1.9173
X1.1693Y-1.4173
X1.1693Y-1.5173
X1.1693Y-1.6173
X1.1693Y-1.7173
X1.1693Y-1.8173
X1.1693Y-1.9173
T5
G00X1.0576Y-0.8293
M15
G01X1.0576Y-0.8293
M16
G05
G00X1.3411Y-0.8293
M15
G01X1.3411Y-0.8293
M16
G05
T0
M30
