%TF.GenerationSoftware,KiCad,Pcbnew,5.1.10*%
%TF.CreationDate,2021-08-29T14:42:02+02:00*%
%TF.ProjectId,epaper-breakout,65706170-6572-42d6-9272-65616b6f7574,rev?*%
%TF.SameCoordinates,Original*%
%TF.FileFunction,Copper,L4,Bot*%
%TF.FilePolarity,Positive*%
%FSLAX46Y46*%
G04 Gerber Fmt 4.6, Leading zero omitted, Abs format (unit mm)*
G04 Created by KiCad (PCBNEW 5.1.10) date 2021-08-29 14:42:02*
%MOMM*%
%LPD*%
G01*
G04 APERTURE LIST*
%TA.AperFunction,ComponentPad*%
%ADD10O,1.700000X1.700000*%
%TD*%
%TA.AperFunction,ComponentPad*%
%ADD11R,1.700000X1.700000*%
%TD*%
%TA.AperFunction,ComponentPad*%
%ADD12C,1.290000*%
%TD*%
%TA.AperFunction,ComponentPad*%
%ADD13C,1.700000*%
%TD*%
%TA.AperFunction,ComponentPad*%
%ADD14C,0.800000*%
%TD*%
%TA.AperFunction,ComponentPad*%
%ADD15C,0.508000*%
%TD*%
%TA.AperFunction,ViaPad*%
%ADD16C,0.800000*%
%TD*%
%TA.AperFunction,Conductor*%
%ADD17C,0.500000*%
%TD*%
%TA.AperFunction,Conductor*%
%ADD18C,0.300000*%
%TD*%
%TA.AperFunction,Conductor*%
%ADD19C,0.750000*%
%TD*%
%TA.AperFunction,Conductor*%
%ADD20C,0.254000*%
%TD*%
%TA.AperFunction,Conductor*%
%ADD21C,0.100000*%
%TD*%
G04 APERTURE END LIST*
D10*
X34960000Y-62000000D03*
D11*
X37500000Y-62000000D03*
D12*
X33925000Y-23765000D03*
X29075000Y-23765000D03*
D13*
X35100000Y-21065000D03*
X27900000Y-21065000D03*
D14*
X93500000Y-32020000D03*
X93500000Y-33020000D03*
X93500000Y-34020000D03*
X93500000Y-35020000D03*
X93500000Y-36020000D03*
X94500000Y-36020000D03*
X94500000Y-35020000D03*
X94500000Y-34020000D03*
X94500000Y-33020000D03*
X94500000Y-32020000D03*
X96500000Y-32020000D03*
X96500000Y-33020000D03*
X96500000Y-34020000D03*
X96500000Y-35020000D03*
X96500000Y-36020000D03*
X95500000Y-36020000D03*
X95500000Y-35020000D03*
X95500000Y-34020000D03*
X95500000Y-33020000D03*
X95500000Y-32020000D03*
X97500000Y-36020000D03*
X97500000Y-35020000D03*
X97500000Y-34020000D03*
X97500000Y-33020000D03*
X97500000Y-32020000D03*
D15*
X63449200Y-47802800D03*
X63449200Y-47015400D03*
X63449200Y-46228000D03*
X63449200Y-45440600D03*
X63449200Y-44653200D03*
X64236600Y-47802800D03*
X64236600Y-47015400D03*
X64236600Y-46228000D03*
X64236600Y-45440600D03*
X64236600Y-44653200D03*
X65024000Y-47802800D03*
X65024000Y-47015400D03*
X65024000Y-46228000D03*
X65024000Y-45440600D03*
X65024000Y-44653200D03*
X65811400Y-47802800D03*
X65811400Y-47015400D03*
X65811400Y-46228000D03*
X65811400Y-45440600D03*
X65811400Y-44653200D03*
X66598800Y-47802800D03*
X66598800Y-47015400D03*
X66598800Y-46228000D03*
X66598800Y-45440600D03*
X66598800Y-44653200D03*
D10*
X68580000Y-24130000D03*
X68580000Y-21590000D03*
X71120000Y-24130000D03*
X71120000Y-21590000D03*
X73660000Y-24130000D03*
X73660000Y-21590000D03*
X76200000Y-24130000D03*
X76200000Y-21590000D03*
X78740000Y-24130000D03*
D11*
X78740000Y-21590000D03*
D10*
X38887400Y-24180800D03*
X38887400Y-21640800D03*
X41427400Y-24180800D03*
X41427400Y-21640800D03*
X43967400Y-24180800D03*
X43967400Y-21640800D03*
X46507400Y-24180800D03*
X46507400Y-21640800D03*
X49047400Y-24180800D03*
X49047400Y-21640800D03*
X51587400Y-24180800D03*
D11*
X51587400Y-21640800D03*
D16*
X70993000Y-46022000D03*
X71374000Y-44402000D03*
X68072000Y-42164000D03*
X64367281Y-51584663D03*
X68451743Y-49531257D03*
X58800000Y-32000000D03*
X61200000Y-33400000D03*
X60600000Y-34600000D03*
X57800000Y-31400000D03*
X56800000Y-32000000D03*
X55600000Y-31400000D03*
X54400000Y-32000000D03*
X53800000Y-33200000D03*
X54400000Y-34400000D03*
X53800000Y-35600000D03*
X88496546Y-59999361D03*
X89000000Y-57420001D03*
X100495195Y-59760678D03*
X101500000Y-60000000D03*
X98530655Y-59775198D03*
X113000000Y-56750000D03*
X113750000Y-56750000D03*
X109750000Y-60000000D03*
X117250000Y-44000000D03*
X120000000Y-30000000D03*
X124000000Y-49250000D03*
X122500000Y-51250000D03*
X124000000Y-51250000D03*
X122500000Y-53500000D03*
X124000000Y-53500000D03*
X122500000Y-55250000D03*
X124000000Y-55250000D03*
X122500000Y-57500000D03*
X124000000Y-57500000D03*
X124000000Y-58750000D03*
X112750000Y-46500000D03*
X113250000Y-48250000D03*
X113250000Y-50500000D03*
X113000000Y-52500000D03*
X113250000Y-54500000D03*
X111500000Y-52500000D03*
X111500000Y-50500000D03*
X111500000Y-48250000D03*
X111040000Y-45750000D03*
X76000000Y-62750000D03*
X57500000Y-28250000D03*
X57500000Y-22500000D03*
X88790000Y-44500000D03*
X88738678Y-45559058D03*
X63854000Y-36896000D03*
X62015534Y-36765534D03*
X67604000Y-36896000D03*
X72500000Y-36500000D03*
X68500000Y-35750000D03*
X70717487Y-35798770D03*
X64000000Y-37750000D03*
X72500000Y-37500000D03*
X67750000Y-35750000D03*
X54396686Y-45604099D03*
X58496777Y-47094403D03*
X55438000Y-46812000D03*
X49250000Y-49500000D03*
X49250000Y-47250000D03*
X45500000Y-50750000D03*
X45250000Y-44250000D03*
X42750000Y-57250000D03*
X44250000Y-53750000D03*
X44750000Y-57250000D03*
X89000001Y-27601645D03*
X85048770Y-26967487D03*
X62750000Y-60250000D03*
X65500000Y-60250000D03*
X66750000Y-56500000D03*
X68658999Y-56500000D03*
X73000000Y-57040000D03*
X67750000Y-57500000D03*
X67944000Y-55306000D03*
X67250000Y-58500000D03*
X76000000Y-39750000D03*
X76000000Y-42000000D03*
X76000000Y-44250000D03*
X76000000Y-46500000D03*
X76000000Y-48750000D03*
X77000000Y-49750000D03*
X74250000Y-41750000D03*
X74250000Y-44000000D03*
X74500000Y-48500000D03*
X74500000Y-46250000D03*
X55250000Y-55000000D03*
X55250000Y-56000000D03*
X80540000Y-46750000D03*
X80500000Y-45750000D03*
X78750000Y-42500000D03*
X78739998Y-43500000D03*
X77750000Y-41750000D03*
X77500000Y-43500000D03*
X107000000Y-26750000D03*
X54500000Y-22000000D03*
X76000000Y-50500000D03*
X81500000Y-32250000D03*
X80000000Y-32750000D03*
X80000000Y-27750000D03*
X79877046Y-28622954D03*
X43500000Y-38000000D03*
X43500000Y-40500000D03*
X45300758Y-31817152D03*
X45500000Y-34750000D03*
X48500000Y-34000000D03*
X50000000Y-34000000D03*
X51000000Y-34000000D03*
X52250000Y-34000000D03*
X40750000Y-30500000D03*
X37750000Y-30750000D03*
X37750000Y-32250000D03*
X67000000Y-22250000D03*
X79215111Y-31465112D03*
X35000000Y-43250000D03*
X32000000Y-45000000D03*
X27500000Y-46750000D03*
X29750000Y-25250000D03*
X27000000Y-30750000D03*
X27750000Y-51250000D03*
X28500000Y-47250000D03*
X34750000Y-49250000D03*
X35250000Y-51000000D03*
X39750000Y-43000000D03*
X39750000Y-40250000D03*
X102750000Y-26750000D03*
X77500000Y-63000000D03*
X90000000Y-35500000D03*
X90000000Y-33750000D03*
X102500000Y-35250000D03*
X102500000Y-31500000D03*
X102500000Y-32750000D03*
X50250000Y-32000000D03*
X60452000Y-48641000D03*
X53500000Y-49663998D03*
X48500000Y-57000000D03*
X114250000Y-62750000D03*
X86000000Y-63000000D03*
X60276746Y-45337029D03*
X84497954Y-56997954D03*
X47500000Y-54500000D03*
X75250000Y-59500000D03*
X73000000Y-60500000D03*
X98060000Y-61750000D03*
X118250000Y-53750000D03*
X53000000Y-45840002D03*
X119727399Y-33227399D03*
X111750000Y-60000000D03*
X115977399Y-45727399D03*
X65123990Y-41021000D03*
X78210000Y-58500000D03*
X73500000Y-58500000D03*
X75250000Y-58500000D03*
X113250000Y-60500000D03*
X117000000Y-47334000D03*
X54000000Y-59250000D03*
X74000000Y-26000000D03*
X35500000Y-27750000D03*
X79000000Y-53000000D03*
X87309167Y-54186740D03*
X100500000Y-48500000D03*
X102000000Y-50000000D03*
X80000000Y-51890001D03*
X87752046Y-53335000D03*
X115500000Y-41000000D03*
X102584593Y-52710000D03*
X78000000Y-55250000D03*
X77246837Y-35507381D03*
X83625000Y-49375000D03*
X83750000Y-46750000D03*
X89500000Y-41000000D03*
X113500000Y-41500000D03*
X103060000Y-53559693D03*
X80240175Y-60049128D03*
X81500000Y-55750000D03*
X113000000Y-40000000D03*
X90000000Y-38500000D03*
X103560000Y-54500000D03*
X81700000Y-50550000D03*
X104500000Y-54000000D03*
X82337764Y-60060002D03*
X107650000Y-42350000D03*
X100000000Y-46500000D03*
X91500000Y-43000000D03*
X103500000Y-51000000D03*
X99000000Y-48000000D03*
X105002046Y-51997954D03*
X98997954Y-53002046D03*
X82651524Y-60967282D03*
X106500000Y-55000000D03*
X97500000Y-45500000D03*
X91500000Y-44500000D03*
X97497954Y-54002046D03*
X107178824Y-55678824D03*
X96000000Y-54500000D03*
X83297761Y-60057560D03*
X107528503Y-56572876D03*
X91500000Y-46000000D03*
X94500000Y-46000000D03*
X94500000Y-55000000D03*
X93000000Y-55500000D03*
X109000000Y-57250000D03*
X84479991Y-60967283D03*
X85490000Y-60058571D03*
X72250000Y-39000000D03*
X71500000Y-59500000D03*
X107000000Y-60000000D03*
X114000000Y-52500000D03*
X116000000Y-32000000D03*
X85032980Y-56200865D03*
X77625000Y-34625000D03*
X109500000Y-29750000D03*
X108833931Y-55338023D03*
X115500000Y-31000000D03*
X87422677Y-60327322D03*
X90250000Y-59750000D03*
X111000000Y-55250000D03*
X85752046Y-55252046D03*
X79500000Y-35250000D03*
X105997954Y-51497954D03*
X92373227Y-56290000D03*
X92289999Y-42210001D03*
X100000000Y-29000000D03*
X108250000Y-28750000D03*
X90530101Y-58290188D03*
X83000000Y-43750000D03*
X73750000Y-29000000D03*
X83000000Y-42750000D03*
X75000000Y-28750000D03*
X82750000Y-45250000D03*
X70750000Y-27478677D03*
X90420001Y-27835010D03*
X36750000Y-22250000D03*
X36750000Y-27750000D03*
X89000000Y-28750000D03*
X108250000Y-32750000D03*
X28500000Y-30000000D03*
X107500000Y-31750000D03*
X28500000Y-33750000D03*
X67945000Y-51333000D03*
X84250000Y-32000000D03*
X63750000Y-32000000D03*
X63750000Y-30250000D03*
X74267874Y-53500000D03*
X78750000Y-44750000D03*
X76750000Y-45250000D03*
X80000000Y-44750000D03*
X84000000Y-27250000D03*
X82153340Y-28708234D03*
X77500000Y-32750000D03*
X64482323Y-21017677D03*
X68500000Y-31250000D03*
X65500000Y-58250000D03*
X58250000Y-57000000D03*
X57000000Y-57000000D03*
X57000000Y-58000000D03*
X58250000Y-59000000D03*
X58250000Y-58000000D03*
X59500000Y-59250000D03*
X63000000Y-57250000D03*
X60750000Y-59250000D03*
X62250000Y-59250000D03*
X63000000Y-58500000D03*
X72004092Y-41250000D03*
X71387944Y-42926000D03*
X60750000Y-39000000D03*
X61750000Y-39000000D03*
X60500000Y-39750000D03*
X73500000Y-38500000D03*
X53000000Y-37500000D03*
X52000000Y-38000000D03*
X74002046Y-31497954D03*
X76502046Y-27247954D03*
X87000000Y-63000000D03*
X89000000Y-63000000D03*
X80990000Y-57500000D03*
X79000000Y-57500000D03*
X89954587Y-57521822D03*
X99502965Y-59809303D03*
X119750000Y-43000000D03*
X119750000Y-41000000D03*
X120000000Y-31500000D03*
X119750000Y-50500000D03*
X75448895Y-56250000D03*
X121250000Y-48750000D03*
X75448895Y-57000000D03*
X35645000Y-52645000D03*
X46250000Y-40250000D03*
X44500000Y-42250000D03*
X27500000Y-42750000D03*
X28500000Y-35000000D03*
X33877000Y-31623000D03*
X102250000Y-44500000D03*
X93500000Y-41250000D03*
X92252046Y-30002046D03*
X38250000Y-27750000D03*
X78691694Y-30660353D03*
X68540000Y-39451000D03*
X60326257Y-43559743D03*
X70993000Y-47498000D03*
X68250000Y-38000000D03*
X66041637Y-40720981D03*
X65949198Y-33250000D03*
X66802000Y-40132000D03*
X67250000Y-30750000D03*
X66802000Y-34198000D03*
X58500000Y-26250000D03*
X46250000Y-30500000D03*
X41000000Y-27500000D03*
X60500000Y-24250000D03*
X61750000Y-31000000D03*
X62992000Y-39008000D03*
X70739000Y-49276000D03*
X60250000Y-31000000D03*
X71250000Y-35000000D03*
X60500000Y-23289997D03*
X52629276Y-47047619D03*
X58601000Y-46101000D03*
X52750000Y-48000000D03*
X59314705Y-47596994D03*
X71000000Y-32000000D03*
X58500000Y-23750000D03*
X71697945Y-46673657D03*
X60500000Y-25250000D03*
X63750000Y-25500000D03*
X71472553Y-40277447D03*
X64816000Y-40028224D03*
X60500000Y-26750000D03*
D17*
X63854000Y-37604000D02*
X64000000Y-37750000D01*
X63854000Y-36896000D02*
X63854000Y-37604000D01*
D18*
X48500000Y-57000000D02*
X53000000Y-61500000D01*
X96289999Y-63710001D02*
X97789999Y-63710001D01*
X97789999Y-63710001D02*
X98750000Y-62750000D01*
X98750000Y-62750000D02*
X114250000Y-62750000D01*
X59429002Y-49663998D02*
X60452000Y-48641000D01*
X53500000Y-49663998D02*
X59429002Y-49663998D01*
X54000000Y-62500000D02*
X53000000Y-61500000D01*
X73500000Y-62500000D02*
X54000000Y-62500000D01*
X73500000Y-62500000D02*
X74710001Y-63710001D01*
X74710001Y-63710001D02*
X84789999Y-63710001D01*
X84960001Y-63710001D02*
X85210001Y-63710001D01*
X84789999Y-63710001D02*
X84960001Y-63710001D01*
X86000000Y-63670002D02*
X86039999Y-63710001D01*
X86000000Y-63000000D02*
X86000000Y-63670002D01*
X86039999Y-63710001D02*
X96289999Y-63710001D01*
X85210001Y-63710001D02*
X86039999Y-63710001D01*
X82502046Y-56997954D02*
X84497954Y-56997954D01*
X81000000Y-60340802D02*
X81000000Y-58500000D01*
X81000000Y-58500000D02*
X82502046Y-56997954D01*
X84497954Y-56997954D02*
X84851494Y-56997954D01*
X81000000Y-60340802D02*
X80340801Y-61000001D01*
X98060000Y-61750000D02*
X113750000Y-61750000D01*
X113750000Y-61750000D02*
X115500000Y-61750000D01*
X118250000Y-59000000D02*
X118250000Y-53750000D01*
X115500000Y-61750000D02*
X118250000Y-59000000D01*
X77749998Y-59500000D02*
X79249999Y-61000001D01*
X75250000Y-59500000D02*
X77749998Y-59500000D01*
X80340801Y-61000001D02*
X79249999Y-61000001D01*
X53000000Y-45840002D02*
X54090002Y-44750000D01*
X59689717Y-44750000D02*
X60276746Y-45337029D01*
X54090002Y-44750000D02*
X59689717Y-44750000D01*
X72000000Y-61500000D02*
X73000000Y-60500000D01*
X54500000Y-61500000D02*
X72000000Y-61500000D01*
X47500000Y-54500000D02*
X54500000Y-61500000D01*
X118250000Y-50000000D02*
X118250000Y-53750000D01*
X118750000Y-42250000D02*
X118250000Y-42750000D01*
X118250000Y-42750000D02*
X118250000Y-50000000D01*
X118750000Y-34204798D02*
X118750000Y-42250000D01*
X119727399Y-33227399D02*
X118750000Y-34204798D01*
X97112707Y-62137293D02*
X97500000Y-61750000D01*
X85811905Y-62137293D02*
X97112707Y-62137293D01*
X85351895Y-62597303D02*
X85811905Y-62137293D01*
X78597303Y-62597303D02*
X85351895Y-62597303D01*
X77250000Y-61250000D02*
X78597303Y-62597303D01*
X97500000Y-61750000D02*
X98060000Y-61750000D01*
X73750000Y-61250000D02*
X77250000Y-61250000D01*
X73000000Y-60500000D02*
X73750000Y-61250000D01*
X114000000Y-59750000D02*
X112000000Y-59750000D01*
X112000000Y-59750000D02*
X111750000Y-60000000D01*
X116000000Y-57750000D02*
X114000000Y-59750000D01*
X116000000Y-51500000D02*
X116000000Y-57750000D01*
X115977399Y-51477399D02*
X116000000Y-51500000D01*
X115977399Y-45727399D02*
X115977399Y-51477399D01*
X78210000Y-58500000D02*
X75250000Y-58500000D01*
X117000000Y-58250000D02*
X117000000Y-51000000D01*
X117000000Y-51000000D02*
X117000000Y-49750000D01*
X113250000Y-60500000D02*
X114750000Y-60500000D01*
X114750000Y-60500000D02*
X117000000Y-58250000D01*
X117000000Y-49750000D02*
X117000000Y-47334000D01*
X65071980Y-40968990D02*
X64468990Y-40968990D01*
X65123990Y-41021000D02*
X65071980Y-40968990D01*
X64468990Y-40968990D02*
X64000000Y-40500000D01*
X64000000Y-40500000D02*
X58356813Y-40500000D01*
X58356813Y-40500000D02*
X56500000Y-40500000D01*
X56500000Y-40500000D02*
X51750000Y-45250000D01*
X51750000Y-45250000D02*
X51750000Y-57000000D01*
X51750000Y-57000000D02*
X54000000Y-59250000D01*
X113000000Y-60750000D02*
X113250000Y-60500000D01*
X94250000Y-60750000D02*
X113000000Y-60750000D01*
X93432953Y-61567047D02*
X94250000Y-60750000D01*
X85682953Y-61567047D02*
X93432953Y-61567047D01*
X81982888Y-62000000D02*
X82120181Y-62137293D01*
X85112707Y-62137293D02*
X85682953Y-61567047D01*
X74500000Y-60750000D02*
X77500000Y-60750000D01*
X82120181Y-62137293D02*
X85112707Y-62137293D01*
X77500000Y-60750000D02*
X78750000Y-62000000D01*
X73500000Y-59750000D02*
X74500000Y-60750000D01*
X78750000Y-62000000D02*
X81982888Y-62000000D01*
X73500000Y-58500000D02*
X73500000Y-59750000D01*
X36250000Y-28500000D02*
X35500000Y-27750000D01*
X63009968Y-21199966D02*
X56899481Y-21199967D01*
X73290001Y-25290001D02*
X70540001Y-25290001D01*
X70540001Y-25290001D02*
X69740001Y-24490001D01*
X74000000Y-26000000D02*
X73290001Y-25290001D01*
X69356799Y-22969999D02*
X64780001Y-22969999D01*
X69740001Y-24490001D02*
X69740001Y-23353201D01*
X52670020Y-28829980D02*
X36579980Y-28829980D01*
X69740001Y-23353201D02*
X69356799Y-22969999D01*
X64780001Y-22969999D02*
X63009968Y-21199966D01*
X36579980Y-28829980D02*
X36250000Y-28500000D01*
X56899481Y-21199967D02*
X54424724Y-23674724D01*
X54424724Y-23674724D02*
X54424724Y-27075276D01*
X54424724Y-27075276D02*
X52670020Y-28829980D01*
X79399999Y-52600001D02*
X79000000Y-53000000D01*
X83850001Y-52600001D02*
X79649999Y-52600001D01*
X79649999Y-52600001D02*
X79399999Y-52600001D01*
X83850001Y-52600001D02*
X84492353Y-52600001D01*
X85350001Y-52600001D02*
X84492353Y-52600001D01*
X85722428Y-52600001D02*
X85350001Y-52600001D01*
X87309167Y-54186740D02*
X85722428Y-52600001D01*
X102000000Y-50000000D02*
X100500000Y-48500000D01*
X85140001Y-51890001D02*
X80000000Y-51890001D01*
X86307047Y-51890001D02*
X87752046Y-53335000D01*
X85140001Y-51890001D02*
X86307047Y-51890001D01*
X114289999Y-42210001D02*
X115500000Y-41000000D01*
X111559449Y-42210001D02*
X114289999Y-42210001D01*
X110989447Y-41639999D02*
X111559449Y-42210001D01*
X106707955Y-42241243D02*
X107309199Y-41639999D01*
X107309199Y-41639999D02*
X110989447Y-41639999D01*
X106707955Y-52292045D02*
X106707955Y-42241243D01*
X106290000Y-52710000D02*
X106707955Y-52292045D01*
X102584593Y-52710000D02*
X106290000Y-52710000D01*
X78100001Y-54350001D02*
X78100001Y-52399999D01*
X78100001Y-55149999D02*
X78000000Y-55250000D01*
X78100001Y-54350001D02*
X78100001Y-55149999D01*
X115210001Y-40710001D02*
X115500000Y-41000000D01*
X112210001Y-40710001D02*
X115210001Y-40710001D01*
X110750000Y-39250000D02*
X112210001Y-40710001D01*
X78100001Y-52399999D02*
X80875000Y-49625000D01*
X86000000Y-42000000D02*
X88750000Y-39250000D01*
X86000000Y-44500000D02*
X86000000Y-42000000D01*
X88750000Y-39250000D02*
X110750000Y-39250000D01*
X80875000Y-49625000D02*
X81125000Y-49375000D01*
X86000000Y-48250000D02*
X86000000Y-44500000D01*
X84875000Y-49375000D02*
X86000000Y-48250000D01*
X77246837Y-35507381D02*
X83250000Y-41510544D01*
X83625000Y-49375000D02*
X84875000Y-49375000D01*
X81125000Y-49375000D02*
X83625000Y-49375000D01*
X83750000Y-46750000D02*
X83750000Y-42000000D01*
X83739456Y-42000000D02*
X83250000Y-41510544D01*
X83750000Y-42000000D02*
X83739456Y-42000000D01*
X80240175Y-57009825D02*
X81500000Y-55750000D01*
X80240175Y-60049128D02*
X80240175Y-57009825D01*
X112000000Y-41500000D02*
X113500000Y-41500000D01*
X111000000Y-40500000D02*
X112000000Y-41500000D01*
X90000000Y-40500000D02*
X111000000Y-40500000D01*
X89500000Y-41000000D02*
X90000000Y-40500000D01*
X88500000Y-41000000D02*
X89500000Y-41000000D01*
X87000000Y-42500000D02*
X88500000Y-41000000D01*
X87750000Y-48000000D02*
X87000000Y-47250000D01*
X96000000Y-48000000D02*
X87750000Y-48000000D01*
X101559693Y-53559693D02*
X96000000Y-48000000D01*
X103060000Y-53559693D02*
X101559693Y-53559693D01*
X87000000Y-47250000D02*
X87000000Y-42500000D01*
X113000000Y-40000000D02*
X111500000Y-38500000D01*
X96000000Y-49000000D02*
X89500000Y-49000000D01*
X101500000Y-54500000D02*
X96000000Y-49000000D01*
X103560000Y-54500000D02*
X101500000Y-54500000D01*
X90000000Y-38500000D02*
X90500000Y-38000000D01*
X90500000Y-38000000D02*
X111000000Y-38000000D01*
X111000000Y-38000000D02*
X111500000Y-38500000D01*
X87950000Y-50550000D02*
X89500000Y-49000000D01*
X81700000Y-50550000D02*
X87950000Y-50550000D01*
X103900801Y-55210001D02*
X104500000Y-54610802D01*
X98212047Y-53712047D02*
X98712047Y-53712047D01*
X104500000Y-54610802D02*
X104500000Y-54000000D01*
X98712047Y-53712047D02*
X100210001Y-55210001D01*
X97500000Y-53000000D02*
X98212047Y-53712047D01*
X100210001Y-55210001D02*
X103900801Y-55210001D01*
X90150552Y-53000000D02*
X97500000Y-53000000D01*
X83424724Y-58575276D02*
X84575276Y-58575276D01*
X82500000Y-59500000D02*
X83424724Y-58575276D01*
X84575276Y-58575276D02*
X90150552Y-53000000D01*
X82337764Y-59662236D02*
X82500000Y-59500000D01*
X82337764Y-60060002D02*
X82337764Y-59662236D01*
X104500000Y-54000000D02*
X105750000Y-54000000D01*
X105750000Y-54000000D02*
X107750000Y-52000000D01*
X107750000Y-42450000D02*
X107650000Y-42350000D01*
X107750000Y-52000000D02*
X107750000Y-42450000D01*
X100000000Y-46500000D02*
X103000000Y-49500000D01*
X96710001Y-43210001D02*
X100000000Y-46500000D01*
X91710001Y-43210001D02*
X92289999Y-43210001D01*
X91500000Y-43000000D02*
X91710001Y-43210001D01*
X92289999Y-43210001D02*
X96710001Y-43210001D01*
X103000000Y-49500000D02*
X103500000Y-50000000D01*
X103500000Y-50000000D02*
X103500000Y-51000000D01*
X99000000Y-48050802D02*
X102949198Y-52000000D01*
X99000000Y-48000000D02*
X99000000Y-48050802D01*
X105000000Y-52000000D02*
X105002046Y-51997954D01*
X102949198Y-52000000D02*
X105000000Y-52000000D01*
X90500000Y-52000000D02*
X97995908Y-52000000D01*
X84724599Y-57775401D02*
X90500000Y-52000000D01*
X97995908Y-52000000D02*
X98997954Y-53002046D01*
X83949198Y-57500000D02*
X84224599Y-57775401D01*
X84224599Y-57775401D02*
X84724599Y-57775401D01*
X82650552Y-57500000D02*
X83949198Y-57500000D01*
X81500000Y-58650552D02*
X82650552Y-57500000D01*
X81500000Y-60381443D02*
X81500000Y-60000000D01*
X82085839Y-60967282D02*
X81500000Y-60381443D01*
X82651524Y-60967282D02*
X82085839Y-60967282D01*
X81500000Y-60000000D02*
X81500000Y-58650552D01*
X105789999Y-55710001D02*
X100710001Y-55710001D01*
X106500000Y-55000000D02*
X105789999Y-55710001D01*
X96500000Y-44500000D02*
X97500000Y-45500000D01*
X91500000Y-44500000D02*
X92500000Y-44500000D01*
X92500000Y-44500000D02*
X96500000Y-44500000D01*
X100710001Y-55710001D02*
X99210001Y-55710001D01*
X98245908Y-54750000D02*
X98250000Y-54750000D01*
X97497954Y-54002046D02*
X98245908Y-54750000D01*
X99210001Y-55710001D02*
X98250000Y-54750000D01*
X106687637Y-56170011D02*
X107178824Y-55678824D01*
X89801104Y-54000000D02*
X95500000Y-54000000D01*
X95500000Y-54000000D02*
X97670011Y-56170011D01*
X97670011Y-56170011D02*
X106687637Y-56170011D01*
X83297761Y-60057560D02*
X83297761Y-59702239D01*
X83599448Y-59400552D02*
X84400552Y-59400552D01*
X83297761Y-59702239D02*
X83599448Y-59400552D01*
X84400552Y-59400552D02*
X89801104Y-54000000D01*
X107528503Y-56572876D02*
X107349366Y-56752013D01*
X107349366Y-56752013D02*
X105247987Y-56752013D01*
X107109727Y-56752013D02*
X105247987Y-56752013D01*
X91500000Y-46000000D02*
X94500000Y-46000000D01*
X96252013Y-56752013D02*
X95000000Y-55500000D01*
X105247987Y-56752013D02*
X97752013Y-56752013D01*
X97752013Y-56752013D02*
X96252013Y-56752013D01*
X94500000Y-55000000D02*
X95000000Y-55500000D01*
X97282877Y-57282877D02*
X96282877Y-57282877D01*
X108186285Y-57282877D02*
X97282877Y-57282877D01*
X96282877Y-57282877D02*
X94782877Y-57282877D01*
X94782877Y-57282877D02*
X93500000Y-56000000D01*
X93000000Y-55500000D02*
X93500000Y-56000000D01*
X89000000Y-55500000D02*
X84670011Y-59829989D01*
X93000000Y-55500000D02*
X89000000Y-55500000D01*
X108967123Y-57282877D02*
X109000000Y-57250000D01*
X108186285Y-57282877D02*
X108967123Y-57282877D01*
X84479991Y-60020009D02*
X84670011Y-59829989D01*
X84479991Y-60967283D02*
X84479991Y-60020009D01*
X107000000Y-59250000D02*
X107000000Y-60000000D01*
X107199323Y-59050677D02*
X107000000Y-59250000D01*
X114500000Y-52500000D02*
X114000000Y-52500000D01*
X115000000Y-53000000D02*
X114500000Y-52500000D01*
X115000000Y-57250000D02*
X115000000Y-53000000D01*
X113199323Y-59050677D02*
X115000000Y-57250000D01*
X107199323Y-59050677D02*
X113199323Y-59050677D01*
X74539999Y-56550803D02*
X74539999Y-55960001D01*
X73340801Y-57750001D02*
X74539999Y-56550803D01*
X72684314Y-57750001D02*
X73340801Y-57750001D01*
X71500000Y-58934315D02*
X72684314Y-57750001D01*
X71500000Y-59500000D02*
X71500000Y-58934315D01*
X96949323Y-59050677D02*
X107199323Y-59050677D01*
X93199323Y-59050677D02*
X96949323Y-59050677D01*
X91142963Y-61107037D02*
X93199323Y-59050677D01*
X85857037Y-61107037D02*
X85857037Y-60425608D01*
X85857037Y-60425608D02*
X85490000Y-60058571D01*
X85857037Y-61107037D02*
X91142963Y-61107037D01*
X84786791Y-61677283D02*
X85357037Y-61107037D01*
X82310723Y-61677283D02*
X84786791Y-61677283D01*
X82093451Y-61460011D02*
X82310723Y-61677283D01*
X85357037Y-61107037D02*
X85857037Y-61107037D01*
X78960011Y-61460011D02*
X82093451Y-61460011D01*
X77710001Y-60210001D02*
X78960011Y-61460011D01*
X74909199Y-60210001D02*
X77710001Y-60210001D01*
X74539999Y-59840801D02*
X74909199Y-60210001D01*
X74539999Y-55960001D02*
X74539999Y-59840801D01*
X73500000Y-40250000D02*
X72250000Y-39000000D01*
X73500000Y-49250000D02*
X73500000Y-40250000D01*
X75250000Y-51000000D02*
X73500000Y-49250000D01*
X75250000Y-54000000D02*
X75250000Y-51000000D01*
X74539999Y-54710001D02*
X75250000Y-54000000D01*
X74539999Y-55960001D02*
X74539999Y-54710001D01*
X77625000Y-34059315D02*
X77625000Y-34625000D01*
X80684315Y-31000000D02*
X77625000Y-34059315D01*
X78000000Y-35000000D02*
X77625000Y-34625000D01*
X84250000Y-47750000D02*
X84500000Y-47500000D01*
X80250000Y-47750000D02*
X84250000Y-47750000D01*
X84500000Y-47500000D02*
X84500000Y-41500000D01*
X76250000Y-51750000D02*
X80250000Y-47750000D01*
X76250000Y-56500000D02*
X76250000Y-51750000D01*
X76750000Y-57000000D02*
X76250000Y-56500000D01*
X83872114Y-55039999D02*
X80409199Y-55039999D01*
X84500000Y-41500000D02*
X78000000Y-35000000D01*
X78449198Y-57000000D02*
X76750000Y-57000000D01*
X80409199Y-55039999D02*
X78449198Y-57000000D01*
X85032980Y-56200865D02*
X83872114Y-55039999D01*
X92250000Y-31000000D02*
X93000000Y-31000000D01*
X92250000Y-31000000D02*
X80684315Y-31000000D01*
X93000000Y-31000000D02*
X94000000Y-30000000D01*
X109250000Y-30000000D02*
X109500000Y-29750000D01*
X94000000Y-30000000D02*
X109250000Y-30000000D01*
X116500000Y-32500000D02*
X116000000Y-32000000D01*
X108833931Y-44416069D02*
X110500000Y-42750000D01*
X116500000Y-41050802D02*
X116500000Y-32500000D01*
X114800802Y-42750000D02*
X116500000Y-41050802D01*
X110500000Y-42750000D02*
X114800802Y-42750000D01*
X108833931Y-55338023D02*
X108833931Y-44416069D01*
X89789360Y-59289360D02*
X90250000Y-59750000D01*
X87894954Y-59289360D02*
X89789360Y-59289360D01*
X87422677Y-59761637D02*
X87894954Y-59289360D01*
X87422677Y-60327322D02*
X87422677Y-59761637D01*
X116050802Y-31000000D02*
X115500000Y-31000000D01*
X117500000Y-32449198D02*
X116050802Y-31000000D01*
X117500000Y-41750000D02*
X117500000Y-32449198D01*
X115625000Y-43625000D02*
X117500000Y-41750000D01*
X110250000Y-45500000D02*
X112125000Y-43625000D01*
X112125000Y-43625000D02*
X115625000Y-43625000D01*
X110250000Y-54500000D02*
X110250000Y-45500000D01*
X111000000Y-55250000D02*
X110250000Y-54500000D01*
X109500000Y-37000000D02*
X115500000Y-31000000D01*
X85250000Y-47750000D02*
X85250000Y-41500000D01*
X84500000Y-48500000D02*
X85250000Y-47750000D01*
X80750000Y-48500000D02*
X84500000Y-48500000D01*
X77000000Y-52250000D02*
X80750000Y-48500000D01*
X77000000Y-55750000D02*
X77000000Y-52250000D01*
X77500000Y-56250000D02*
X77000000Y-55750000D01*
X78250000Y-56250000D02*
X77500000Y-56250000D01*
X84210001Y-53710001D02*
X80789999Y-53710001D01*
X80789999Y-53710001D02*
X78250000Y-56250000D01*
X85752046Y-55252046D02*
X84210001Y-53710001D01*
X85250000Y-41500000D02*
X85250000Y-40750000D01*
X79750000Y-35250000D02*
X79500000Y-35250000D01*
X85250000Y-40750000D02*
X79750000Y-35250000D01*
X89000000Y-37000000D02*
X91250000Y-37000000D01*
X85250000Y-40750000D02*
X89000000Y-37000000D01*
X91250000Y-37000000D02*
X109500000Y-37000000D01*
X105997954Y-51497954D02*
X105997954Y-50502046D01*
X105997954Y-50502046D02*
X97995908Y-42500000D01*
X97995908Y-42500000D02*
X97995908Y-42495908D01*
X97710001Y-42210001D02*
X92289999Y-42210001D01*
X97995908Y-42495908D02*
X97710001Y-42210001D01*
X108000000Y-29000000D02*
X108250000Y-28750000D01*
X100000000Y-29000000D02*
X108000000Y-29000000D01*
X90530101Y-58133126D02*
X92373227Y-56290000D01*
X90530101Y-58290188D02*
X90530101Y-58133126D01*
X83000000Y-43750000D02*
X82434315Y-43750000D01*
X75967158Y-31217158D02*
X73750000Y-29000000D01*
X75967158Y-37282842D02*
X75967158Y-31217158D01*
X82434315Y-43750000D02*
X75967158Y-37282842D01*
X76536836Y-36286836D02*
X83000000Y-42750000D01*
X76536836Y-30286836D02*
X76536836Y-36286836D01*
X75250000Y-29000000D02*
X75000000Y-28750000D01*
X75250000Y-29000000D02*
X76536836Y-30286836D01*
X71750000Y-28478677D02*
X70750000Y-27478677D01*
X71750000Y-28500000D02*
X71750000Y-28478677D01*
X82750000Y-45250000D02*
X75250000Y-37750000D01*
X75250000Y-37750000D02*
X75250000Y-31500000D01*
X73699198Y-30000000D02*
X73250000Y-30000000D01*
X75199198Y-31500000D02*
X73699198Y-30000000D01*
X75250000Y-31500000D02*
X75199198Y-31500000D01*
X73250000Y-30000000D02*
X71750000Y-28500000D01*
X77360001Y-20429999D02*
X76200000Y-21590000D01*
X79838001Y-20429999D02*
X77360001Y-20429999D01*
X80360010Y-20952008D02*
X79838001Y-20429999D01*
X80360010Y-25110010D02*
X80360010Y-20952008D01*
X90420001Y-27835010D02*
X88834991Y-26250000D01*
X88834991Y-26250000D02*
X81500000Y-26250000D01*
X81500000Y-26250000D02*
X80360010Y-25110010D01*
X36750000Y-27750000D02*
X36750000Y-25750000D01*
X36750000Y-22250000D02*
X36750000Y-25750000D01*
X79900001Y-22750001D02*
X78740000Y-21590000D01*
X82659199Y-28210001D02*
X79900001Y-25450803D01*
X88460001Y-28210001D02*
X82659199Y-28210001D01*
X79900001Y-25450803D02*
X79900001Y-22750001D01*
X89000000Y-28750000D02*
X88460001Y-28210001D01*
X29210010Y-29289990D02*
X28500000Y-30000000D01*
X53210010Y-29289990D02*
X29210010Y-29289990D01*
X62409976Y-21659976D02*
X57090024Y-21659976D01*
X66199198Y-23500000D02*
X64250000Y-23500000D01*
X108250000Y-32750000D02*
X109000000Y-32750000D01*
X111000000Y-28750000D02*
X109710001Y-27460001D01*
X109000000Y-32750000D02*
X111000000Y-30750000D01*
X64250000Y-23500000D02*
X62409976Y-21659976D01*
X68699198Y-26000000D02*
X66199198Y-23500000D01*
X79250000Y-29000000D02*
X77250000Y-29000000D01*
X109710001Y-27460001D02*
X92789999Y-27460001D01*
X77250000Y-29000000D02*
X75500000Y-27250000D01*
X55000000Y-27500000D02*
X53210010Y-29289990D01*
X92789999Y-27460001D02*
X90789999Y-29460001D01*
X55000000Y-23750000D02*
X55000000Y-27500000D01*
X79710001Y-29460001D02*
X79250000Y-29000000D01*
X57090024Y-21659976D02*
X55000000Y-23750000D01*
X72000000Y-26000000D02*
X68699198Y-26000000D01*
X111000000Y-30750000D02*
X111000000Y-28750000D01*
X75500000Y-27250000D02*
X73250000Y-27250000D01*
X90789999Y-29460001D02*
X79710001Y-29460001D01*
X73250000Y-27250000D02*
X72000000Y-26000000D01*
X110250000Y-30500000D02*
X109000000Y-31750000D01*
X109289999Y-28039999D02*
X110250000Y-29000000D01*
X93163291Y-28039999D02*
X109289999Y-28039999D01*
X79122133Y-30039990D02*
X91210010Y-30039990D01*
X91453290Y-29796710D02*
X91453290Y-29750000D01*
X77170002Y-29750000D02*
X78832143Y-29750000D01*
X75460001Y-28039999D02*
X77170002Y-29750000D01*
X28500000Y-33750000D02*
X28500000Y-32000000D01*
X109000000Y-31750000D02*
X107500000Y-31750000D01*
X54101604Y-29750000D02*
X56025401Y-27826203D01*
X91453290Y-29750000D02*
X93163291Y-28039999D01*
X56025401Y-27826203D02*
X56025401Y-25025401D01*
X78832143Y-29750000D02*
X79122133Y-30039990D01*
X56025401Y-25025401D02*
X58930816Y-22119986D01*
X68419228Y-26768676D02*
X71518676Y-26768676D01*
X110250000Y-29000000D02*
X110250000Y-30500000D01*
X71518676Y-26768676D02*
X72789999Y-28039999D01*
X72789999Y-28039999D02*
X75460001Y-28039999D01*
X58930816Y-22119986D02*
X61869986Y-22119986D01*
X91210010Y-30039990D02*
X91453290Y-29796710D01*
X28500000Y-32000000D02*
X30750000Y-29750000D01*
X61869986Y-22119986D02*
X63750000Y-24000000D01*
X63750000Y-24000000D02*
X65650552Y-24000000D01*
X30750000Y-29750000D02*
X54101604Y-29750000D01*
X65650552Y-24000000D02*
X68419228Y-26768676D01*
D17*
X68583000Y-51333000D02*
X70750000Y-53500000D01*
X67945000Y-51333000D02*
X68583000Y-51333000D01*
X70750000Y-53500000D02*
X74267874Y-53500000D01*
X73500000Y-32000000D02*
X74002046Y-31497954D01*
X73500000Y-38500000D02*
X73500000Y-32000000D01*
X76502046Y-24432046D02*
X76200000Y-24130000D01*
X76502046Y-27247954D02*
X76502046Y-24432046D01*
X34960000Y-53330000D02*
X35645000Y-52645000D01*
X34960000Y-62000000D02*
X34960000Y-53330000D01*
X46250000Y-40500000D02*
X44500000Y-42250000D01*
X46250000Y-40250000D02*
X46250000Y-40500000D01*
D18*
X28125000Y-35375000D02*
X28500000Y-35000000D01*
X27500000Y-36000000D02*
X28125000Y-35375000D01*
X27500000Y-42750000D02*
X27500000Y-36000000D01*
X28500000Y-34800802D02*
X28500000Y-35000000D01*
X30385000Y-32915802D02*
X28500000Y-34800802D01*
X30385000Y-32915802D02*
X32584198Y-32915802D01*
X32584198Y-32915802D02*
X33877000Y-31623000D01*
X102250000Y-44500000D02*
X99000000Y-41250000D01*
X99000000Y-41250000D02*
X93500000Y-41250000D01*
X91754092Y-30500000D02*
X92252046Y-30002046D01*
X78852047Y-30500000D02*
X78691694Y-30660353D01*
X79500000Y-30500000D02*
X78852047Y-30500000D01*
X79500000Y-30500000D02*
X91754092Y-30500000D01*
X53250000Y-27500000D02*
X52380030Y-28369970D01*
X52380030Y-28369970D02*
X38869970Y-28369970D01*
X53250000Y-22199198D02*
X53250000Y-27500000D01*
X63200509Y-20739957D02*
X54709241Y-20739957D01*
X38869970Y-28369970D02*
X38250000Y-27750000D01*
X63632790Y-20307676D02*
X63200509Y-20739957D01*
X54709241Y-20739957D02*
X53250000Y-22199198D01*
X69837676Y-20307676D02*
X63632790Y-20307676D01*
X71120000Y-21590000D02*
X69837676Y-20307676D01*
D17*
X64735189Y-41831001D02*
X66301801Y-41831001D01*
X60326257Y-42035743D02*
X60833000Y-41529000D01*
X60833000Y-41529000D02*
X64433188Y-41529000D01*
X60326257Y-43559743D02*
X60326257Y-42035743D01*
X64433188Y-41529000D02*
X64735189Y-41831001D01*
X68540000Y-39592802D02*
X68540000Y-39451000D01*
X66301801Y-41831001D02*
X68540000Y-39592802D01*
X68599000Y-40151000D02*
X70104000Y-41656000D01*
X70104000Y-41656000D02*
X70104000Y-46609000D01*
X70104000Y-46609000D02*
X70993000Y-47498000D01*
X68599000Y-39510000D02*
X68540000Y-39451000D01*
X68599000Y-40151000D02*
X68599000Y-39510000D01*
D19*
X68250000Y-39161000D02*
X68540000Y-39451000D01*
X68250000Y-38000000D02*
X68250000Y-39161000D01*
D18*
X66041637Y-40720981D02*
X66041637Y-33342439D01*
X66041637Y-33342439D02*
X65949198Y-33250000D01*
X66802000Y-40132000D02*
X66802000Y-35052000D01*
X66802000Y-31198000D02*
X67250000Y-30750000D01*
X66802000Y-34198000D02*
X66802000Y-31198000D01*
X66802000Y-35052000D02*
X66802000Y-34198000D01*
X58500000Y-28300802D02*
X56300802Y-30500000D01*
X58500000Y-26250000D02*
X58500000Y-28300802D01*
X56300802Y-30500000D02*
X46250000Y-30500000D01*
X41000000Y-27500000D02*
X42750000Y-25750000D01*
X47478200Y-25750000D02*
X49047400Y-24180800D01*
X42750000Y-25750000D02*
X47478200Y-25750000D01*
X59934315Y-24250000D02*
X59750000Y-24434315D01*
X60500000Y-24250000D02*
X59934315Y-24250000D01*
X61300802Y-31000000D02*
X61750000Y-31000000D01*
X59750000Y-29449198D02*
X61300802Y-31000000D01*
X59750000Y-24434315D02*
X59750000Y-29449198D01*
X61750000Y-31000000D02*
X61750000Y-31250000D01*
X61750000Y-31250000D02*
X62992000Y-32492000D01*
X62992000Y-32492000D02*
X62992000Y-39008000D01*
X72407946Y-47607054D02*
X70739000Y-49276000D01*
X71539999Y-39340801D02*
X72407946Y-40208748D01*
X59250000Y-30000000D02*
X59250000Y-25000000D01*
X60250000Y-31000000D02*
X59250000Y-30000000D01*
X72407946Y-40208748D02*
X72458748Y-40208748D01*
X72458748Y-40208748D02*
X72750000Y-40500000D01*
X72750000Y-47265000D02*
X72407946Y-47607054D01*
X72750000Y-40500000D02*
X72750000Y-47265000D01*
X71539999Y-35289999D02*
X71250000Y-35000000D01*
X71539999Y-39340801D02*
X71539999Y-35289999D01*
X59960003Y-23289997D02*
X59250000Y-24000000D01*
X60500000Y-23289997D02*
X59960003Y-23289997D01*
X59250000Y-24000000D02*
X59250000Y-25000000D01*
X54003968Y-47047619D02*
X55106687Y-45944900D01*
X52629276Y-47047619D02*
X54003968Y-47047619D01*
X58351000Y-46101000D02*
X58601000Y-46101000D01*
X58194900Y-45944900D02*
X58351000Y-46101000D01*
X55106687Y-45944900D02*
X58194900Y-45944900D01*
X58911699Y-48000000D02*
X59314705Y-47596994D01*
X52750000Y-48000000D02*
X58911699Y-48000000D01*
X71000000Y-30000000D02*
X65750000Y-24750000D01*
X71000000Y-32000000D02*
X71000000Y-30000000D01*
X65750000Y-24750000D02*
X63500000Y-24750000D01*
X61329996Y-22579996D02*
X59670004Y-22579996D01*
X63500000Y-24750000D02*
X61329996Y-22579996D01*
X59670004Y-22579996D02*
X58500000Y-23750000D01*
X61460001Y-26210001D02*
X60500000Y-25250000D01*
X64760803Y-26210001D02*
X61460001Y-26210001D01*
X69250000Y-30699198D02*
X64760803Y-26210001D01*
X69250000Y-39500000D02*
X69250000Y-30699198D01*
X72097944Y-42347944D02*
X69250000Y-39500000D01*
X72097944Y-46273658D02*
X72097944Y-42347944D01*
X71697945Y-46673657D02*
X72097944Y-46273658D01*
X71472553Y-40277447D02*
X70000000Y-38804894D01*
X70000000Y-30250000D02*
X65250000Y-25500000D01*
X70000000Y-38804894D02*
X70000000Y-30250000D01*
X65250000Y-25500000D02*
X63750000Y-25500000D01*
X60500000Y-26750000D02*
X61000000Y-27250000D01*
X61000000Y-27250000D02*
X64000000Y-27250000D01*
X64816000Y-28066000D02*
X64816000Y-40028224D01*
X64000000Y-27250000D02*
X64816000Y-28066000D01*
D20*
X67276782Y-42405227D02*
X67339123Y-42555731D01*
X67429628Y-42691181D01*
X67544819Y-42806372D01*
X67680269Y-42896877D01*
X67830773Y-42959218D01*
X67990548Y-42991000D01*
X68153452Y-42991000D01*
X68313227Y-42959218D01*
X68463731Y-42896877D01*
X68599181Y-42806372D01*
X68697974Y-42707580D01*
X68707000Y-42716606D01*
X68707000Y-48741850D01*
X68692970Y-48736039D01*
X68533195Y-48704257D01*
X68370291Y-48704257D01*
X68210516Y-48736039D01*
X68060012Y-48798380D01*
X67924562Y-48888885D01*
X67809371Y-49004076D01*
X67718866Y-49139526D01*
X67656525Y-49290030D01*
X67624743Y-49449805D01*
X67624743Y-49612709D01*
X67656525Y-49772484D01*
X67718866Y-49922988D01*
X67809371Y-50058438D01*
X67924562Y-50173629D01*
X68060012Y-50264134D01*
X68127286Y-50292000D01*
X61512606Y-50292000D01*
X61087000Y-49866394D01*
X61087000Y-49175553D01*
X61094372Y-49168181D01*
X61184877Y-49032731D01*
X61247218Y-48882227D01*
X61279000Y-48722452D01*
X61279000Y-48559548D01*
X61247218Y-48399773D01*
X61184877Y-48249269D01*
X61094372Y-48113819D01*
X61087000Y-48106447D01*
X61087000Y-45502667D01*
X61103746Y-45418481D01*
X61103746Y-45255577D01*
X61087000Y-45171391D01*
X61087000Y-42716606D01*
X61512606Y-42291000D01*
X67254060Y-42291000D01*
X67276782Y-42405227D01*
%TA.AperFunction,Conductor*%
D21*
G36*
X67276782Y-42405227D02*
G01*
X67339123Y-42555731D01*
X67429628Y-42691181D01*
X67544819Y-42806372D01*
X67680269Y-42896877D01*
X67830773Y-42959218D01*
X67990548Y-42991000D01*
X68153452Y-42991000D01*
X68313227Y-42959218D01*
X68463731Y-42896877D01*
X68599181Y-42806372D01*
X68697974Y-42707580D01*
X68707000Y-42716606D01*
X68707000Y-48741850D01*
X68692970Y-48736039D01*
X68533195Y-48704257D01*
X68370291Y-48704257D01*
X68210516Y-48736039D01*
X68060012Y-48798380D01*
X67924562Y-48888885D01*
X67809371Y-49004076D01*
X67718866Y-49139526D01*
X67656525Y-49290030D01*
X67624743Y-49449805D01*
X67624743Y-49612709D01*
X67656525Y-49772484D01*
X67718866Y-49922988D01*
X67809371Y-50058438D01*
X67924562Y-50173629D01*
X68060012Y-50264134D01*
X68127286Y-50292000D01*
X61512606Y-50292000D01*
X61087000Y-49866394D01*
X61087000Y-49175553D01*
X61094372Y-49168181D01*
X61184877Y-49032731D01*
X61247218Y-48882227D01*
X61279000Y-48722452D01*
X61279000Y-48559548D01*
X61247218Y-48399773D01*
X61184877Y-48249269D01*
X61094372Y-48113819D01*
X61087000Y-48106447D01*
X61087000Y-45502667D01*
X61103746Y-45418481D01*
X61103746Y-45255577D01*
X61087000Y-45171391D01*
X61087000Y-42716606D01*
X61512606Y-42291000D01*
X67254060Y-42291000D01*
X67276782Y-42405227D01*
G37*
%TD.AperFunction*%
D20*
X105623000Y-31052606D02*
X105623000Y-35947966D01*
X105155218Y-36423000D01*
X89856685Y-36423000D01*
X89627000Y-36196822D01*
X89627000Y-31577000D01*
X92971669Y-31577000D01*
X93000000Y-31579790D01*
X93028331Y-31577000D01*
X93028336Y-31577000D01*
X93058045Y-31574074D01*
X93113111Y-31568651D01*
X93157770Y-31555103D01*
X93221876Y-31535657D01*
X93322115Y-31482079D01*
X93409974Y-31409974D01*
X93428039Y-31387962D01*
X94239001Y-30577000D01*
X105147394Y-30577000D01*
X105623000Y-31052606D01*
%TA.AperFunction,Conductor*%
D21*
G36*
X105623000Y-31052606D02*
G01*
X105623000Y-35947966D01*
X105155218Y-36423000D01*
X89856685Y-36423000D01*
X89627000Y-36196822D01*
X89627000Y-31577000D01*
X92971669Y-31577000D01*
X93000000Y-31579790D01*
X93028331Y-31577000D01*
X93028336Y-31577000D01*
X93058045Y-31574074D01*
X93113111Y-31568651D01*
X93157770Y-31555103D01*
X93221876Y-31535657D01*
X93322115Y-31482079D01*
X93409974Y-31409974D01*
X93428039Y-31387962D01*
X94239001Y-30577000D01*
X105147394Y-30577000D01*
X105623000Y-31052606D01*
G37*
%TD.AperFunction*%
M02*
