%TF.GenerationSoftware,KiCad,Pcbnew,5.1.4*%
%TF.CreationDate,2019-10-04T22:27:36+02:00*%
%TF.ProjectId,epaper-breakout,65706170-6572-42d6-9272-65616b6f7574,rev?*%
%TF.SameCoordinates,Original*%
%TF.FileFunction,Copper,L2,Bot*%
%TF.FilePolarity,Positive*%
%FSLAX46Y46*%
G04 Gerber Fmt 4.6, Leading zero omitted, Abs format (unit mm)*
G04 Created by KiCad (PCBNEW 5.1.4) date 2019-10-04 22:27:36*
%MOMM*%
%LPD*%
G04 APERTURE LIST*
%ADD10O,1.700000X1.700000*%
%ADD11R,1.700000X1.700000*%
%ADD12C,1.290000*%
%ADD13O,1.700000X1.100000*%
%ADD14C,0.800000*%
%ADD15C,0.250000*%
%ADD16C,0.500000*%
%ADD17C,0.254000*%
G04 APERTURE END LIST*
D10*
X81788000Y61214000D03*
X79248000Y61214000D03*
X76708000Y61214000D03*
X74168000Y61214000D03*
X71628000Y61214000D03*
X69088000Y61214000D03*
X66548000Y61214000D03*
X64008000Y61214000D03*
X61468000Y61214000D03*
D11*
X58928000Y61214000D03*
D12*
X55278000Y77609000D03*
X55278000Y72759000D03*
D13*
X52578000Y78784000D03*
X52578000Y71584000D03*
D14*
X122301000Y88900000D03*
X123571000Y88900000D03*
X130175000Y91186000D03*
X130048000Y93472000D03*
X131064000Y92456000D03*
X131191000Y95250000D03*
X130048000Y97282000D03*
X131064000Y98933000D03*
X117348000Y117221000D03*
X118999000Y118618000D03*
X121031000Y117094000D03*
X123063000Y118364000D03*
X124968000Y116713000D03*
X122428000Y112776000D03*
X124206000Y112776000D03*
X116332000Y111760000D03*
X116078000Y105918000D03*
X117602000Y107188000D03*
X119253000Y105918000D03*
X120142000Y107315000D03*
X123952000Y98171000D03*
X100330000Y87503000D03*
X99187000Y80772000D03*
X99568000Y71628000D03*
X104013000Y71755000D03*
X59309000Y72263000D03*
X60198000Y73787000D03*
X61214000Y72263000D03*
X61976000Y73787000D03*
X62865000Y72263000D03*
X70866000Y84582000D03*
X72390000Y86106000D03*
X73660000Y84582000D03*
X80899000Y87630000D03*
X82042000Y89281000D03*
X82931000Y87630000D03*
X54737000Y98933000D03*
X52959000Y97028000D03*
X54737000Y95250000D03*
X88773000Y100711000D03*
X90043000Y102489000D03*
X90805000Y100711000D03*
X92329000Y102489000D03*
X93218000Y100711000D03*
X105791000Y96012000D03*
X106934000Y97536000D03*
X108077000Y96012000D03*
X108966000Y97536000D03*
X107569000Y118745000D03*
X106299000Y117602000D03*
X107569000Y116459000D03*
X106299000Y115189000D03*
X107569000Y113792000D03*
X80772000Y122809000D03*
X82169000Y124714000D03*
X83439000Y122809000D03*
X85217000Y124714000D03*
X86741000Y122809000D03*
X89408000Y82931000D03*
X91029000Y82139000D03*
X89408000Y81153000D03*
X89281000Y85979000D03*
X54737000Y116205000D03*
X53213000Y114808000D03*
X54737000Y113538000D03*
X53213000Y112141000D03*
X66675000Y115062000D03*
X68580000Y115062000D03*
X122682000Y68326000D03*
X121412000Y67056000D03*
X123444000Y67056000D03*
X124714000Y68326000D03*
X128778000Y73914000D03*
X121442263Y75976263D03*
X129286000Y85090000D03*
X112522000Y93218000D03*
X101854000Y112268000D03*
X113792000Y93980000D03*
X112268000Y112268000D03*
X80772000Y113030000D03*
X58928000Y111760000D03*
X119380000Y109982000D03*
X120904000Y114046000D03*
X113284000Y90932000D03*
X121920000Y94996000D03*
X107823000Y73279000D03*
X118618000Y74168000D03*
X125730000Y90170000D03*
X100076000Y92202000D03*
X106172000Y74930000D03*
X117856000Y75184000D03*
X103124000Y85598000D03*
X129540000Y75946000D03*
X106934000Y84074000D03*
X130048000Y76962000D03*
X119634000Y83566000D03*
X119380000Y81280000D03*
X129794000Y78232000D03*
X122174000Y81534000D03*
X104140000Y84836000D03*
X128524000Y79248000D03*
X105410000Y84328000D03*
X129540000Y80518000D03*
X102108000Y86360000D03*
X128524000Y84328000D03*
X117094000Y83566000D03*
X117094000Y83566000D03*
X123698000Y85090000D03*
X110998000Y86360000D03*
X122428000Y85598000D03*
X77978000Y63500000D03*
X92710000Y74168000D03*
X91694000Y71882000D03*
X85344000Y63754000D03*
X110871000Y75819000D03*
X110871000Y77089000D03*
X110871000Y78359000D03*
X110871000Y79629000D03*
X82550000Y78486000D03*
X81026000Y78232000D03*
X93472000Y82804000D03*
X55245000Y105664000D03*
X65024000Y101854000D03*
X110755000Y83312000D03*
X71120000Y100076000D03*
X110744000Y81788000D03*
D15*
X128778000Y73914000D02*
X128778000Y73914000D01*
D16*
X126715737Y75976263D02*
X128778000Y73914000D01*
X121442263Y75976263D02*
X126715737Y75976263D01*
X131348011Y75918326D02*
X129343685Y73914000D01*
X131348011Y83027989D02*
X131348011Y75918326D01*
X129343685Y73914000D02*
X128778000Y73914000D01*
X129286000Y85090000D02*
X131348011Y83027989D01*
D15*
X112522000Y93218000D02*
X112522000Y109728000D01*
X112522000Y109728000D02*
X111760000Y110490000D01*
X111760000Y110490000D02*
X103632000Y110490000D01*
X103632000Y110490000D02*
X101854000Y112268000D01*
X101854000Y112268000D02*
X101854000Y112268000D01*
X113792000Y93980000D02*
X113792000Y110744000D01*
X113792000Y110744000D02*
X112268000Y112268000D01*
X112268000Y112268000D02*
X112268000Y112268000D01*
X80772000Y113030000D02*
X60198000Y113030000D01*
X60198000Y113030000D02*
X58928000Y111760000D01*
X58928000Y111760000D02*
X58928000Y111760000D01*
X119380000Y109982000D02*
X120396000Y110998000D01*
X120396000Y110998000D02*
X120904000Y111506000D01*
X120904000Y111506000D02*
X120904000Y114046000D01*
X120904000Y114046000D02*
X120904000Y114046000D01*
X117348000Y94996000D02*
X113284000Y90932000D01*
X121920000Y94996000D02*
X117348000Y94996000D01*
X107823000Y73279000D02*
X116967000Y73279000D01*
X116967000Y73279000D02*
X117856000Y74168000D01*
X117856000Y74168000D02*
X118618000Y74168000D01*
X118618000Y74168000D02*
X118618000Y74168000D01*
X125766999Y90206999D02*
X108421001Y90206999D01*
X108421001Y90206999D02*
X106426000Y92202000D01*
X106426000Y92202000D02*
X100076000Y92202000D01*
X100076000Y92202000D02*
X100076000Y92202000D01*
X117144999Y74530001D02*
X117798998Y75184000D01*
X106172000Y74930000D02*
X106571999Y74530001D01*
X106571999Y74530001D02*
X117144999Y74530001D01*
X103124000Y85598000D02*
X104611001Y87085001D01*
X124682411Y87085001D02*
X122645001Y87085001D01*
X130773001Y80994411D02*
X124682411Y87085001D01*
X122645001Y87085001D02*
X122972999Y87085001D01*
X129540000Y75946000D02*
X130105685Y75946000D01*
X130105685Y75946000D02*
X130773001Y76613316D01*
X104611001Y87085001D02*
X122645001Y87085001D01*
X130773001Y76613316D02*
X130773001Y80994411D01*
X129540000Y77470000D02*
X130048000Y76962000D01*
X119293998Y77470000D02*
X129540000Y77470000D01*
X106934000Y84074000D02*
X112689998Y84074000D01*
X112689998Y84074000D02*
X119293998Y77470000D01*
X119380000Y81280000D02*
X119380000Y81280000D01*
X119380000Y83312000D02*
X119634000Y83566000D01*
X119380000Y81280000D02*
X119380000Y83312000D01*
X124968000Y81534000D02*
X124968000Y81534000D01*
X129597002Y81534000D02*
X124968000Y81534000D01*
X130302000Y80829002D02*
X129597002Y81534000D01*
X129794000Y78232000D02*
X130302000Y78740000D01*
X130302000Y78740000D02*
X130302000Y80829002D01*
X124968000Y81534000D02*
X124968000Y81534000D01*
X124968000Y81534000D02*
X122174000Y81534000D01*
X122174000Y81534000D02*
X122174000Y81534000D01*
X104553011Y85249011D02*
X113189011Y85249011D01*
X104140000Y84836000D02*
X104553011Y85249011D01*
X114337987Y85249011D02*
X120338998Y79248000D01*
X113189011Y85249011D02*
X114337987Y85249011D01*
X120338998Y79248000D02*
X127762000Y79248000D01*
X127762000Y79248000D02*
X128524000Y79248000D01*
X128524000Y79248000D02*
X128524000Y79248000D01*
X105881001Y84799001D02*
X113066999Y84799001D01*
X105410000Y84328000D02*
X105881001Y84799001D01*
X113066999Y84799001D02*
X119634000Y78232000D01*
X119634000Y78232000D02*
X127762000Y78232000D01*
X128581002Y78232000D02*
X129540000Y79190998D01*
X127762000Y78232000D02*
X128581002Y78232000D01*
X129540000Y79190998D02*
X129540000Y80518000D01*
X129540000Y80518000D02*
X129540000Y80518000D01*
X103341001Y87593001D02*
X127036999Y87593001D01*
X102108000Y86360000D02*
X103341001Y87593001D01*
X128524000Y84328000D02*
X128524000Y86106000D01*
X127036999Y87593001D02*
X128524000Y86106000D01*
X123698000Y85090000D02*
X123698000Y85090000D01*
X122972999Y84364999D02*
X123698000Y85090000D01*
X117094000Y83566000D02*
X117892999Y84364999D01*
X117892999Y84364999D02*
X122972999Y84364999D01*
X121920000Y85090000D02*
X122428000Y85598000D01*
X115316000Y85090000D02*
X121920000Y85090000D01*
X114706979Y85699021D02*
X115316000Y85090000D01*
X110998000Y86360000D02*
X111658979Y85699021D01*
X111658979Y85699021D02*
X114706979Y85699021D01*
X79502000Y63500000D02*
X81788000Y61214000D01*
X77978000Y63500000D02*
X79502000Y63500000D01*
X82637999Y62063999D02*
X82637999Y64095999D01*
X81788000Y61214000D02*
X82637999Y62063999D01*
X82637999Y64095999D02*
X92710000Y74168000D01*
X92710000Y74168000D02*
X92710000Y74168000D01*
X91694000Y71882000D02*
X85344000Y65532000D01*
X85344000Y65532000D02*
X85344000Y63754000D01*
X110305315Y75819000D02*
X110178315Y75946000D01*
X110871000Y75819000D02*
X110305315Y75819000D01*
X88900000Y75946000D02*
X74168000Y61214000D01*
X110178315Y75946000D02*
X88900000Y75946000D01*
X87503000Y77089000D02*
X71628000Y61214000D01*
X110871000Y77089000D02*
X87503000Y77089000D01*
X86233000Y78359000D02*
X69088000Y61214000D01*
X110871000Y78359000D02*
X86233000Y78359000D01*
X84963000Y79629000D02*
X66548000Y61214000D01*
X110871000Y79629000D02*
X84963000Y79629000D01*
X82353002Y78486000D02*
X67113002Y63246000D01*
X82550000Y78486000D02*
X82353002Y78486000D01*
X66040000Y63246000D02*
X64008000Y61214000D01*
X67113002Y63246000D02*
X66040000Y63246000D01*
X81026000Y78232000D02*
X67056000Y64262000D01*
X64516000Y64262000D02*
X61468000Y61214000D01*
X67056000Y64262000D02*
X64516000Y64262000D01*
X93472000Y82804000D02*
X93472000Y84582000D01*
X93472000Y84582000D02*
X79502000Y98552000D01*
X67252998Y98552000D02*
X59944000Y105664000D01*
X79502000Y98552000D02*
X67252998Y98552000D01*
X59944000Y105664000D02*
X55118000Y105664000D01*
X65024000Y101854000D02*
X65024000Y101854000D01*
X110755000Y83312000D02*
X99060000Y83312000D01*
X80518000Y101854000D02*
X65024000Y101854000D01*
X99060000Y83312000D02*
X80518000Y101854000D01*
X71120000Y100076000D02*
X71120000Y100076000D01*
X110744000Y81788000D02*
X98806000Y81788000D01*
X80518000Y100076000D02*
X71120000Y100076000D01*
X98806000Y81788000D02*
X80518000Y100076000D01*
D17*
G36*
X131903001Y83724578D02*
G01*
X130292535Y85335043D01*
X130281226Y85391898D01*
X130203205Y85580256D01*
X130089937Y85749774D01*
X129945774Y85893937D01*
X129776256Y86007205D01*
X129587898Y86085226D01*
X129387939Y86125000D01*
X129285805Y86125000D01*
X129284000Y86143323D01*
X129284000Y86143333D01*
X129273003Y86254986D01*
X129229546Y86398247D01*
X129197061Y86459021D01*
X129158974Y86530277D01*
X129087799Y86617003D01*
X129064001Y86646001D01*
X129035003Y86669799D01*
X127600803Y88103998D01*
X127577000Y88133002D01*
X127461275Y88227975D01*
X127329246Y88298547D01*
X127185985Y88342004D01*
X127074332Y88353001D01*
X127074321Y88353001D01*
X127036999Y88356677D01*
X126999677Y88353001D01*
X103378326Y88353001D01*
X103341001Y88356677D01*
X103303676Y88353001D01*
X103303668Y88353001D01*
X103192015Y88342004D01*
X103048754Y88298547D01*
X102916725Y88227975D01*
X102801000Y88133002D01*
X102777202Y88104004D01*
X102068199Y87395000D01*
X102006061Y87395000D01*
X101806102Y87355226D01*
X101617744Y87277205D01*
X101448226Y87163937D01*
X101304063Y87019774D01*
X101190795Y86850256D01*
X101112774Y86661898D01*
X101073000Y86461939D01*
X101073000Y86258061D01*
X101112774Y86058102D01*
X101190795Y85869744D01*
X101304063Y85700226D01*
X101448226Y85556063D01*
X101617744Y85442795D01*
X101806102Y85364774D01*
X102006061Y85325000D01*
X102123026Y85325000D01*
X102128774Y85296102D01*
X102206795Y85107744D01*
X102320063Y84938226D01*
X102464226Y84794063D01*
X102633744Y84680795D01*
X102822102Y84602774D01*
X103022061Y84563000D01*
X103139026Y84563000D01*
X103144774Y84534102D01*
X103222795Y84345744D01*
X103336063Y84176226D01*
X103440289Y84072000D01*
X99374802Y84072000D01*
X91142863Y92303939D01*
X99041000Y92303939D01*
X99041000Y92100061D01*
X99080774Y91900102D01*
X99158795Y91711744D01*
X99272063Y91542226D01*
X99416226Y91398063D01*
X99585744Y91284795D01*
X99774102Y91206774D01*
X99974061Y91167000D01*
X100177939Y91167000D01*
X100377898Y91206774D01*
X100566256Y91284795D01*
X100735774Y91398063D01*
X100779711Y91442000D01*
X106111199Y91442000D01*
X107857206Y89695991D01*
X107881000Y89666998D01*
X107909993Y89643204D01*
X107909997Y89643200D01*
X107980686Y89585188D01*
X107996725Y89572025D01*
X108128754Y89501453D01*
X108272015Y89457996D01*
X108383668Y89446999D01*
X108383677Y89446999D01*
X108421000Y89443323D01*
X108458323Y89446999D01*
X124989290Y89446999D01*
X125070226Y89366063D01*
X125239744Y89252795D01*
X125428102Y89174774D01*
X125628061Y89135000D01*
X125831939Y89135000D01*
X126031898Y89174774D01*
X126220256Y89252795D01*
X126389774Y89366063D01*
X126533937Y89510226D01*
X126647205Y89679744D01*
X126725226Y89868102D01*
X126765000Y90068061D01*
X126765000Y90271939D01*
X126725226Y90471898D01*
X126647205Y90660256D01*
X126533937Y90829774D01*
X126389774Y90973937D01*
X126220256Y91087205D01*
X126031898Y91165226D01*
X125831939Y91205000D01*
X125628061Y91205000D01*
X125428102Y91165226D01*
X125239744Y91087205D01*
X125070226Y90973937D01*
X125063288Y90966999D01*
X114393800Y90966999D01*
X117662802Y94236000D01*
X121216289Y94236000D01*
X121260226Y94192063D01*
X121429744Y94078795D01*
X121618102Y94000774D01*
X121818061Y93961000D01*
X122021939Y93961000D01*
X122221898Y94000774D01*
X122410256Y94078795D01*
X122579774Y94192063D01*
X122723937Y94336226D01*
X122837205Y94505744D01*
X122915226Y94694102D01*
X122955000Y94894061D01*
X122955000Y95097939D01*
X122915226Y95297898D01*
X122837205Y95486256D01*
X122723937Y95655774D01*
X122579774Y95799937D01*
X122410256Y95913205D01*
X122221898Y95991226D01*
X122021939Y96031000D01*
X121818061Y96031000D01*
X121618102Y95991226D01*
X121429744Y95913205D01*
X121260226Y95799937D01*
X121216289Y95756000D01*
X117385323Y95756000D01*
X117348000Y95759676D01*
X117310677Y95756000D01*
X117310667Y95756000D01*
X117199014Y95745003D01*
X117055753Y95701546D01*
X116923723Y95630974D01*
X116840083Y95562332D01*
X116807999Y95536001D01*
X116784201Y95507003D01*
X113244199Y91967000D01*
X113182061Y91967000D01*
X112982102Y91927226D01*
X112793744Y91849205D01*
X112624226Y91735937D01*
X112480063Y91591774D01*
X112366795Y91422256D01*
X112288774Y91233898D01*
X112249000Y91033939D01*
X112249000Y90966999D01*
X108735804Y90966999D01*
X106989804Y92712998D01*
X106966001Y92742001D01*
X106850276Y92836974D01*
X106718247Y92907546D01*
X106574986Y92951003D01*
X106463333Y92962000D01*
X106463322Y92962000D01*
X106426000Y92965676D01*
X106388678Y92962000D01*
X100779711Y92962000D01*
X100735774Y93005937D01*
X100566256Y93119205D01*
X100377898Y93197226D01*
X100177939Y93237000D01*
X99974061Y93237000D01*
X99774102Y93197226D01*
X99585744Y93119205D01*
X99416226Y93005937D01*
X99272063Y92861774D01*
X99158795Y92692256D01*
X99080774Y92503898D01*
X99041000Y92303939D01*
X91142863Y92303939D01*
X81081804Y102364997D01*
X81058001Y102394001D01*
X80942276Y102488974D01*
X80810247Y102559546D01*
X80666986Y102603003D01*
X80555333Y102614000D01*
X80555322Y102614000D01*
X80518000Y102617676D01*
X80480678Y102614000D01*
X65727711Y102614000D01*
X65683774Y102657937D01*
X65514256Y102771205D01*
X65325898Y102849226D01*
X65125939Y102889000D01*
X64922061Y102889000D01*
X64722102Y102849226D01*
X64533744Y102771205D01*
X64364226Y102657937D01*
X64245319Y102539030D01*
X60504500Y106179023D01*
X60484001Y106204001D01*
X60450979Y106231102D01*
X60447254Y106234726D01*
X60422146Y106254764D01*
X60368276Y106298974D01*
X60363656Y106301443D01*
X60359563Y106304710D01*
X60297700Y106336698D01*
X60236247Y106369546D01*
X60231233Y106371067D01*
X60226582Y106373472D01*
X60159660Y106392778D01*
X60092986Y106413003D01*
X60087772Y106413516D01*
X60082741Y106414968D01*
X60013361Y106420845D01*
X59981333Y106424000D01*
X59976124Y106424000D01*
X59933569Y106427605D01*
X59901469Y106424000D01*
X55948711Y106424000D01*
X55904774Y106467937D01*
X55735256Y106581205D01*
X55546898Y106659226D01*
X55346939Y106699000D01*
X55143061Y106699000D01*
X54943102Y106659226D01*
X54754744Y106581205D01*
X54585226Y106467937D01*
X54441063Y106323774D01*
X54327795Y106154256D01*
X54249774Y105965898D01*
X54210000Y105765939D01*
X54210000Y105562061D01*
X54249774Y105362102D01*
X54327795Y105173744D01*
X54441063Y105004226D01*
X54585226Y104860063D01*
X54754744Y104746795D01*
X54943102Y104668774D01*
X55143061Y104629000D01*
X55346939Y104629000D01*
X55546898Y104668774D01*
X55735256Y104746795D01*
X55904774Y104860063D01*
X55948711Y104904000D01*
X59635262Y104904000D01*
X66692498Y98036977D01*
X66712997Y98011999D01*
X66746019Y97984898D01*
X66749744Y97981274D01*
X66774863Y97961227D01*
X66828722Y97917026D01*
X66833339Y97914558D01*
X66837434Y97911290D01*
X66899314Y97879293D01*
X66960751Y97846454D01*
X66965764Y97844933D01*
X66970416Y97842528D01*
X67037347Y97823219D01*
X67104012Y97802997D01*
X67109224Y97802484D01*
X67114256Y97801032D01*
X67183640Y97795154D01*
X67215665Y97792000D01*
X67220874Y97792000D01*
X67263429Y97788395D01*
X67295530Y97792000D01*
X79187199Y97792000D01*
X92712001Y84267196D01*
X92712000Y83507711D01*
X92668063Y83463774D01*
X92554795Y83294256D01*
X92476774Y83105898D01*
X92437000Y82905939D01*
X92437000Y82702061D01*
X92476774Y82502102D01*
X92554795Y82313744D01*
X92668063Y82144226D01*
X92812226Y82000063D01*
X92981744Y81886795D01*
X93170102Y81808774D01*
X93370061Y81769000D01*
X93573939Y81769000D01*
X93773898Y81808774D01*
X93962256Y81886795D01*
X94131774Y82000063D01*
X94275937Y82144226D01*
X94389205Y82313744D01*
X94467226Y82502102D01*
X94507000Y82702061D01*
X94507000Y82905939D01*
X94467226Y83105898D01*
X94389205Y83294256D01*
X94275937Y83463774D01*
X94232000Y83507711D01*
X94232000Y84544678D01*
X94235676Y84582001D01*
X94232000Y84619324D01*
X94232000Y84619333D01*
X94221003Y84730986D01*
X94177546Y84874247D01*
X94106974Y85006276D01*
X94059562Y85064048D01*
X94035799Y85093004D01*
X94035795Y85093008D01*
X94012001Y85122001D01*
X93983008Y85145795D01*
X80065804Y99062997D01*
X80042001Y99092001D01*
X79926276Y99186974D01*
X79794247Y99257546D01*
X79650986Y99301003D01*
X79539333Y99312000D01*
X79539322Y99312000D01*
X79502000Y99315676D01*
X79464678Y99312000D01*
X71819711Y99312000D01*
X71823711Y99316000D01*
X80203199Y99316000D01*
X98242201Y81276997D01*
X98265999Y81247999D01*
X98294997Y81224201D01*
X98381724Y81153026D01*
X98513753Y81082454D01*
X98657014Y81038997D01*
X98806000Y81024323D01*
X98843333Y81028000D01*
X110040289Y81028000D01*
X110084226Y80984063D01*
X110253744Y80870795D01*
X110442102Y80792774D01*
X110642061Y80753000D01*
X110845939Y80753000D01*
X111045898Y80792774D01*
X111234256Y80870795D01*
X111403774Y80984063D01*
X111547937Y81128226D01*
X111661205Y81297744D01*
X111739226Y81486102D01*
X111779000Y81686061D01*
X111779000Y81889939D01*
X111739226Y82089898D01*
X111661205Y82278256D01*
X111547937Y82447774D01*
X111451211Y82544500D01*
X111558937Y82652226D01*
X111672205Y82821744D01*
X111750226Y83010102D01*
X111790000Y83210061D01*
X111790000Y83314000D01*
X112375197Y83314000D01*
X118730198Y76958998D01*
X118753997Y76929999D01*
X118869722Y76835026D01*
X119001751Y76764454D01*
X119145012Y76720997D01*
X119256665Y76710000D01*
X119256674Y76710000D01*
X119293997Y76706324D01*
X119331320Y76710000D01*
X120712289Y76710000D01*
X120638326Y76636037D01*
X120525058Y76466519D01*
X120447037Y76278161D01*
X120407263Y76078202D01*
X120407263Y75874324D01*
X120447037Y75674365D01*
X120525058Y75486007D01*
X120638326Y75316489D01*
X120782489Y75172326D01*
X120952007Y75059058D01*
X121140365Y74981037D01*
X121340324Y74941263D01*
X121544202Y74941263D01*
X121744161Y74981037D01*
X121932519Y75059058D01*
X121980717Y75091263D01*
X126349159Y75091263D01*
X127771465Y73668956D01*
X127782774Y73612102D01*
X127860795Y73423744D01*
X127974063Y73254226D01*
X128118226Y73110063D01*
X128287744Y72996795D01*
X128476102Y72918774D01*
X128676061Y72879000D01*
X128879939Y72879000D01*
X129079898Y72918774D01*
X129268256Y72996795D01*
X129314368Y73027606D01*
X129343685Y73024719D01*
X129387154Y73029000D01*
X129387162Y73029000D01*
X129517175Y73041805D01*
X129683998Y73092411D01*
X129837744Y73174589D01*
X129972502Y73285183D01*
X130000219Y73318956D01*
X131903001Y75221737D01*
X131903001Y59359000D01*
X119253000Y59359000D01*
X119253000Y65170883D01*
X123265000Y65170883D01*
X123265000Y64829117D01*
X123331675Y64493919D01*
X123462463Y64178169D01*
X123652337Y63894002D01*
X123894002Y63652337D01*
X124178169Y63462463D01*
X124493919Y63331675D01*
X124829117Y63265000D01*
X125170883Y63265000D01*
X125506081Y63331675D01*
X125821831Y63462463D01*
X126105998Y63652337D01*
X126347663Y63894002D01*
X126537537Y64178169D01*
X126668325Y64493919D01*
X126735000Y64829117D01*
X126735000Y65170883D01*
X126668325Y65506081D01*
X126537537Y65821831D01*
X126347663Y66105998D01*
X126105998Y66347663D01*
X125821831Y66537537D01*
X125506081Y66668325D01*
X125170883Y66735000D01*
X124829117Y66735000D01*
X124493919Y66668325D01*
X124178169Y66537537D01*
X123894002Y66347663D01*
X123652337Y66105998D01*
X123462463Y65821831D01*
X123331675Y65506081D01*
X123265000Y65170883D01*
X119253000Y65170883D01*
X119253000Y70866000D01*
X119250560Y70890776D01*
X119243333Y70914601D01*
X119231597Y70936557D01*
X119215803Y70955803D01*
X119196557Y70971597D01*
X119174601Y70983333D01*
X119150776Y70990560D01*
X119126000Y70993000D01*
X92226468Y70993000D01*
X92353774Y71078063D01*
X92497937Y71222226D01*
X92611205Y71391744D01*
X92689226Y71580102D01*
X92729000Y71780061D01*
X92729000Y71983939D01*
X92689226Y72183898D01*
X92611205Y72372256D01*
X92497937Y72541774D01*
X92353774Y72685937D01*
X92323181Y72706378D01*
X92749803Y73133000D01*
X92811939Y73133000D01*
X93011898Y73172774D01*
X93200256Y73250795D01*
X93369774Y73364063D01*
X93513937Y73508226D01*
X93627205Y73677744D01*
X93705226Y73866102D01*
X93745000Y74066061D01*
X93745000Y74269939D01*
X93705226Y74469898D01*
X93627205Y74658256D01*
X93513937Y74827774D01*
X93369774Y74971937D01*
X93200256Y75085205D01*
X93011898Y75163226D01*
X92897404Y75186000D01*
X105167644Y75186000D01*
X105137000Y75031939D01*
X105137000Y74828061D01*
X105176774Y74628102D01*
X105254795Y74439744D01*
X105368063Y74270226D01*
X105512226Y74126063D01*
X105681744Y74012795D01*
X105870102Y73934774D01*
X106070061Y73895000D01*
X106147774Y73895000D01*
X106279752Y73824455D01*
X106423013Y73780998D01*
X106534666Y73770001D01*
X106534676Y73770001D01*
X106571998Y73766325D01*
X106609321Y73770001D01*
X106906293Y73770001D01*
X106905795Y73769256D01*
X106827774Y73580898D01*
X106788000Y73380939D01*
X106788000Y73177061D01*
X106827774Y72977102D01*
X106905795Y72788744D01*
X107019063Y72619226D01*
X107163226Y72475063D01*
X107332744Y72361795D01*
X107521102Y72283774D01*
X107721061Y72244000D01*
X107924939Y72244000D01*
X108124898Y72283774D01*
X108313256Y72361795D01*
X108482774Y72475063D01*
X108526711Y72519000D01*
X116929678Y72519000D01*
X116967000Y72515324D01*
X117004322Y72519000D01*
X117004333Y72519000D01*
X117115986Y72529997D01*
X117259247Y72573454D01*
X117391276Y72644026D01*
X117507001Y72738999D01*
X117530803Y72768002D01*
X118059318Y73296516D01*
X118127744Y73250795D01*
X118316102Y73172774D01*
X118516061Y73133000D01*
X118719939Y73133000D01*
X118919898Y73172774D01*
X119108256Y73250795D01*
X119277774Y73364063D01*
X119421937Y73508226D01*
X119535205Y73677744D01*
X119613226Y73866102D01*
X119653000Y74066061D01*
X119653000Y74269939D01*
X119613226Y74469898D01*
X119535205Y74658256D01*
X119421937Y74827774D01*
X119277774Y74971937D01*
X119108256Y75085205D01*
X118919898Y75163226D01*
X118891000Y75168974D01*
X118891000Y75285939D01*
X118851226Y75485898D01*
X118773205Y75674256D01*
X118659937Y75843774D01*
X118515774Y75987937D01*
X118346256Y76101205D01*
X118157898Y76179226D01*
X117957939Y76219000D01*
X117754061Y76219000D01*
X117554102Y76179226D01*
X117365744Y76101205D01*
X117196226Y75987937D01*
X117052063Y75843774D01*
X116938795Y75674256D01*
X116860774Y75485898D01*
X116821808Y75290001D01*
X111762318Y75290001D01*
X111788205Y75328744D01*
X111866226Y75517102D01*
X111906000Y75717061D01*
X111906000Y75920939D01*
X111866226Y76120898D01*
X111788205Y76309256D01*
X111691490Y76454000D01*
X111788205Y76598744D01*
X111866226Y76787102D01*
X111906000Y76987061D01*
X111906000Y77190939D01*
X111866226Y77390898D01*
X111788205Y77579256D01*
X111691490Y77724000D01*
X111788205Y77868744D01*
X111866226Y78057102D01*
X111906000Y78257061D01*
X111906000Y78460939D01*
X111866226Y78660898D01*
X111788205Y78849256D01*
X111691490Y78994000D01*
X111788205Y79138744D01*
X111866226Y79327102D01*
X111906000Y79527061D01*
X111906000Y79730939D01*
X111866226Y79930898D01*
X111788205Y80119256D01*
X111674937Y80288774D01*
X111530774Y80432937D01*
X111361256Y80546205D01*
X111172898Y80624226D01*
X110972939Y80664000D01*
X110769061Y80664000D01*
X110569102Y80624226D01*
X110380744Y80546205D01*
X110211226Y80432937D01*
X110167289Y80389000D01*
X85000325Y80389000D01*
X84963000Y80392676D01*
X84925675Y80389000D01*
X84925667Y80389000D01*
X84814014Y80378003D01*
X84670753Y80334546D01*
X84538724Y80263974D01*
X84422999Y80169001D01*
X84399201Y80140003D01*
X83374379Y79115181D01*
X83353937Y79145774D01*
X83209774Y79289937D01*
X83040256Y79403205D01*
X82851898Y79481226D01*
X82651939Y79521000D01*
X82448061Y79521000D01*
X82248102Y79481226D01*
X82059744Y79403205D01*
X81890226Y79289937D01*
X81746063Y79145774D01*
X81676716Y79041989D01*
X81516256Y79149205D01*
X81327898Y79227226D01*
X81127939Y79267000D01*
X80924061Y79267000D01*
X80724102Y79227226D01*
X80535744Y79149205D01*
X80366226Y79035937D01*
X80222063Y78891774D01*
X80108795Y78722256D01*
X80030774Y78533898D01*
X79991000Y78333939D01*
X79991000Y78271803D01*
X66741199Y65022000D01*
X64553323Y65022000D01*
X64516000Y65025676D01*
X64478677Y65022000D01*
X64478667Y65022000D01*
X64367014Y65011003D01*
X64225912Y64968201D01*
X64223753Y64967546D01*
X64091723Y64896974D01*
X64046276Y64859676D01*
X63975999Y64802001D01*
X63952201Y64773003D01*
X61833996Y62654797D01*
X61759111Y62677513D01*
X61540950Y62699000D01*
X61395050Y62699000D01*
X61176889Y62677513D01*
X60896966Y62592599D01*
X60638986Y62454706D01*
X60412866Y62269134D01*
X60388393Y62239313D01*
X60367502Y62308180D01*
X60308537Y62418494D01*
X60229185Y62515185D01*
X60132494Y62594537D01*
X60022180Y62653502D01*
X59902482Y62689812D01*
X59778000Y62702072D01*
X59213750Y62699000D01*
X59055000Y62540250D01*
X59055000Y61341000D01*
X59075000Y61341000D01*
X59075000Y61087000D01*
X59055000Y61087000D01*
X59055000Y59887750D01*
X59213750Y59729000D01*
X59778000Y59725928D01*
X59902482Y59738188D01*
X60022180Y59774498D01*
X60132494Y59833463D01*
X60229185Y59912815D01*
X60308537Y60009506D01*
X60367502Y60119820D01*
X60388393Y60188687D01*
X60412866Y60158866D01*
X60638986Y59973294D01*
X60896966Y59835401D01*
X61176889Y59750487D01*
X61395050Y59729000D01*
X61540950Y59729000D01*
X61759111Y59750487D01*
X62039034Y59835401D01*
X62297014Y59973294D01*
X62523134Y60158866D01*
X62708706Y60384986D01*
X62738000Y60439791D01*
X62767294Y60384986D01*
X62952866Y60158866D01*
X63178986Y59973294D01*
X63436966Y59835401D01*
X63716889Y59750487D01*
X63935050Y59729000D01*
X64080950Y59729000D01*
X64299111Y59750487D01*
X64579034Y59835401D01*
X64837014Y59973294D01*
X65063134Y60158866D01*
X65248706Y60384986D01*
X65278000Y60439791D01*
X65307294Y60384986D01*
X65492866Y60158866D01*
X65718986Y59973294D01*
X65976966Y59835401D01*
X66256889Y59750487D01*
X66475050Y59729000D01*
X66620950Y59729000D01*
X66839111Y59750487D01*
X67119034Y59835401D01*
X67377014Y59973294D01*
X67603134Y60158866D01*
X67788706Y60384986D01*
X67818000Y60439791D01*
X67847294Y60384986D01*
X68032866Y60158866D01*
X68258986Y59973294D01*
X68516966Y59835401D01*
X68796889Y59750487D01*
X69015050Y59729000D01*
X69160950Y59729000D01*
X69379111Y59750487D01*
X69659034Y59835401D01*
X69917014Y59973294D01*
X70143134Y60158866D01*
X70328706Y60384986D01*
X70358000Y60439791D01*
X70387294Y60384986D01*
X70572866Y60158866D01*
X70798986Y59973294D01*
X71056966Y59835401D01*
X71336889Y59750487D01*
X71555050Y59729000D01*
X71700950Y59729000D01*
X71919111Y59750487D01*
X72199034Y59835401D01*
X72457014Y59973294D01*
X72683134Y60158866D01*
X72868706Y60384986D01*
X72898000Y60439791D01*
X72927294Y60384986D01*
X73112866Y60158866D01*
X73338986Y59973294D01*
X73596966Y59835401D01*
X73876889Y59750487D01*
X74095050Y59729000D01*
X74240950Y59729000D01*
X74459111Y59750487D01*
X74739034Y59835401D01*
X74997014Y59973294D01*
X75223134Y60158866D01*
X75408706Y60384986D01*
X75438000Y60439791D01*
X75467294Y60384986D01*
X75652866Y60158866D01*
X75878986Y59973294D01*
X76136966Y59835401D01*
X76416889Y59750487D01*
X76635050Y59729000D01*
X76780950Y59729000D01*
X76999111Y59750487D01*
X77279034Y59835401D01*
X77537014Y59973294D01*
X77763134Y60158866D01*
X77948706Y60384986D01*
X77978000Y60439791D01*
X78007294Y60384986D01*
X78192866Y60158866D01*
X78418986Y59973294D01*
X78676966Y59835401D01*
X78956889Y59750487D01*
X79175050Y59729000D01*
X79320950Y59729000D01*
X79539111Y59750487D01*
X79819034Y59835401D01*
X80077014Y59973294D01*
X80303134Y60158866D01*
X80488706Y60384986D01*
X80518000Y60439791D01*
X80547294Y60384986D01*
X80732866Y60158866D01*
X80958986Y59973294D01*
X81216966Y59835401D01*
X81496889Y59750487D01*
X81715050Y59729000D01*
X81860950Y59729000D01*
X82079111Y59750487D01*
X82359034Y59835401D01*
X82617014Y59973294D01*
X82843134Y60158866D01*
X83028706Y60384986D01*
X83166599Y60642966D01*
X83251513Y60922889D01*
X83280185Y61214000D01*
X83251513Y61505111D01*
X83227491Y61584302D01*
X83272973Y61639722D01*
X83343545Y61771752D01*
X83347574Y61785034D01*
X83387002Y61915013D01*
X83397999Y62026666D01*
X83397999Y62026675D01*
X83401675Y62063998D01*
X83397999Y62101321D01*
X83397999Y63781198D01*
X84584000Y64967199D01*
X84584001Y64457712D01*
X84540063Y64413774D01*
X84426795Y64244256D01*
X84348774Y64055898D01*
X84309000Y63855939D01*
X84309000Y63652061D01*
X84348774Y63452102D01*
X84426795Y63263744D01*
X84540063Y63094226D01*
X84684226Y62950063D01*
X84853744Y62836795D01*
X85042102Y62758774D01*
X85242061Y62719000D01*
X85445939Y62719000D01*
X85645898Y62758774D01*
X85834256Y62836795D01*
X86003774Y62950063D01*
X86147937Y63094226D01*
X86261205Y63263744D01*
X86339226Y63452102D01*
X86379000Y63652061D01*
X86379000Y63855939D01*
X86339226Y64055898D01*
X86261205Y64244256D01*
X86147937Y64413774D01*
X86104000Y64457711D01*
X86104000Y65217199D01*
X87503000Y66616199D01*
X87503000Y59359000D01*
X51993000Y59359000D01*
X51993000Y60364000D01*
X57439928Y60364000D01*
X57452188Y60239518D01*
X57488498Y60119820D01*
X57547463Y60009506D01*
X57626815Y59912815D01*
X57723506Y59833463D01*
X57833820Y59774498D01*
X57953518Y59738188D01*
X58078000Y59725928D01*
X58642250Y59729000D01*
X58801000Y59887750D01*
X58801000Y61087000D01*
X57601750Y61087000D01*
X57443000Y60928250D01*
X57439928Y60364000D01*
X51993000Y60364000D01*
X51993000Y62064000D01*
X57439928Y62064000D01*
X57443000Y61499750D01*
X57601750Y61341000D01*
X58801000Y61341000D01*
X58801000Y62540250D01*
X58642250Y62699000D01*
X58078000Y62702072D01*
X57953518Y62689812D01*
X57833820Y62653502D01*
X57723506Y62594537D01*
X57626815Y62515185D01*
X57547463Y62418494D01*
X57488498Y62308180D01*
X57452188Y62188482D01*
X57439928Y62064000D01*
X51993000Y62064000D01*
X51993000Y65170883D01*
X53265000Y65170883D01*
X53265000Y64829117D01*
X53331675Y64493919D01*
X53462463Y64178169D01*
X53652337Y63894002D01*
X53894002Y63652337D01*
X54178169Y63462463D01*
X54493919Y63331675D01*
X54829117Y63265000D01*
X55170883Y63265000D01*
X55506081Y63331675D01*
X55821831Y63462463D01*
X56105998Y63652337D01*
X56347663Y63894002D01*
X56537537Y64178169D01*
X56668325Y64493919D01*
X56735000Y64829117D01*
X56735000Y65170883D01*
X56668325Y65506081D01*
X56537537Y65821831D01*
X56347663Y66105998D01*
X56105998Y66347663D01*
X55821831Y66537537D01*
X55506081Y66668325D01*
X55170883Y66735000D01*
X54829117Y66735000D01*
X54493919Y66668325D01*
X54178169Y66537537D01*
X53894002Y66347663D01*
X53652337Y66105998D01*
X53462463Y65821831D01*
X53331675Y65506081D01*
X53265000Y65170883D01*
X51993000Y65170883D01*
X51993000Y70432133D01*
X52045700Y70416147D01*
X52219793Y70399000D01*
X52936207Y70399000D01*
X53110300Y70416147D01*
X53333674Y70483906D01*
X53539536Y70593942D01*
X53719975Y70742025D01*
X53868058Y70922464D01*
X53978094Y71128326D01*
X54045853Y71351700D01*
X54068733Y71584000D01*
X54045853Y71816300D01*
X54027426Y71877049D01*
X54575654Y71877049D01*
X54628434Y71648884D01*
X54857488Y71543491D01*
X55102702Y71484808D01*
X55354652Y71475093D01*
X55603658Y71514717D01*
X55840148Y71602158D01*
X55927566Y71648884D01*
X55980346Y71877049D01*
X55278000Y72579395D01*
X54575654Y71877049D01*
X54027426Y71877049D01*
X53978094Y72039674D01*
X53868058Y72245536D01*
X53719975Y72425975D01*
X53539536Y72574058D01*
X53336941Y72682348D01*
X53994093Y72682348D01*
X54033717Y72433342D01*
X54121158Y72196852D01*
X54167884Y72109434D01*
X54396049Y72056654D01*
X55098395Y72759000D01*
X55457605Y72759000D01*
X56159951Y72056654D01*
X56388116Y72109434D01*
X56493509Y72338488D01*
X56552192Y72583702D01*
X56561907Y72835652D01*
X56522283Y73084658D01*
X56434842Y73321148D01*
X56388116Y73408566D01*
X56159951Y73461346D01*
X55457605Y72759000D01*
X55098395Y72759000D01*
X54396049Y73461346D01*
X54167884Y73408566D01*
X54062491Y73179512D01*
X54003808Y72934298D01*
X53994093Y72682348D01*
X53336941Y72682348D01*
X53333674Y72684094D01*
X53110300Y72751853D01*
X52936207Y72769000D01*
X52219793Y72769000D01*
X52045700Y72751853D01*
X51993000Y72735867D01*
X51993000Y73640951D01*
X54575654Y73640951D01*
X55278000Y72938605D01*
X55980346Y73640951D01*
X55927566Y73869116D01*
X55698512Y73974509D01*
X55453298Y74033192D01*
X55201348Y74042907D01*
X54952342Y74003283D01*
X54715852Y73915842D01*
X54628434Y73869116D01*
X54575654Y73640951D01*
X51993000Y73640951D01*
X51993000Y76727049D01*
X54575654Y76727049D01*
X54628434Y76498884D01*
X54857488Y76393491D01*
X55102702Y76334808D01*
X55354652Y76325093D01*
X55603658Y76364717D01*
X55840148Y76452158D01*
X55927566Y76498884D01*
X55980346Y76727049D01*
X55278000Y77429395D01*
X54575654Y76727049D01*
X51993000Y76727049D01*
X51993000Y77532348D01*
X53994093Y77532348D01*
X54033717Y77283342D01*
X54121158Y77046852D01*
X54167884Y76959434D01*
X54396049Y76906654D01*
X55098395Y77609000D01*
X55457605Y77609000D01*
X56159951Y76906654D01*
X56388116Y76959434D01*
X56493509Y77188488D01*
X56552192Y77433702D01*
X56561907Y77685652D01*
X56522283Y77934658D01*
X56434842Y78171148D01*
X56388116Y78258566D01*
X56159951Y78311346D01*
X55457605Y77609000D01*
X55098395Y77609000D01*
X54396049Y78311346D01*
X54167884Y78258566D01*
X54062491Y78029512D01*
X54003808Y77784298D01*
X53994093Y77532348D01*
X51993000Y77532348D01*
X51993000Y77632133D01*
X52045700Y77616147D01*
X52219793Y77599000D01*
X52936207Y77599000D01*
X53110300Y77616147D01*
X53333674Y77683906D01*
X53539536Y77793942D01*
X53719975Y77942025D01*
X53868058Y78122464D01*
X53978094Y78328326D01*
X54027425Y78490951D01*
X54575654Y78490951D01*
X55278000Y77788605D01*
X55980346Y78490951D01*
X55927566Y78719116D01*
X55698512Y78824509D01*
X55453298Y78883192D01*
X55201348Y78892907D01*
X54952342Y78853283D01*
X54715852Y78765842D01*
X54628434Y78719116D01*
X54575654Y78490951D01*
X54027425Y78490951D01*
X54045853Y78551700D01*
X54068733Y78784000D01*
X54045853Y79016300D01*
X53978094Y79239674D01*
X53868058Y79445536D01*
X53719975Y79625975D01*
X53539536Y79774058D01*
X53333674Y79884094D01*
X53110300Y79951853D01*
X52936207Y79969000D01*
X52219793Y79969000D01*
X52045700Y79951853D01*
X51993000Y79935867D01*
X51993000Y111861939D01*
X57893000Y111861939D01*
X57893000Y111658061D01*
X57932774Y111458102D01*
X58010795Y111269744D01*
X58124063Y111100226D01*
X58268226Y110956063D01*
X58437744Y110842795D01*
X58626102Y110764774D01*
X58826061Y110725000D01*
X59029939Y110725000D01*
X59229898Y110764774D01*
X59418256Y110842795D01*
X59587774Y110956063D01*
X59731937Y111100226D01*
X59845205Y111269744D01*
X59923226Y111458102D01*
X59963000Y111658061D01*
X59963000Y111720199D01*
X60512802Y112270000D01*
X80068289Y112270000D01*
X80112226Y112226063D01*
X80281744Y112112795D01*
X80470102Y112034774D01*
X80670061Y111995000D01*
X80873939Y111995000D01*
X81073898Y112034774D01*
X81262256Y112112795D01*
X81431774Y112226063D01*
X81575650Y112369939D01*
X100819000Y112369939D01*
X100819000Y112166061D01*
X100858774Y111966102D01*
X100936795Y111777744D01*
X101050063Y111608226D01*
X101194226Y111464063D01*
X101363744Y111350795D01*
X101552102Y111272774D01*
X101752061Y111233000D01*
X101814199Y111233000D01*
X103068200Y109978998D01*
X103091999Y109949999D01*
X103207724Y109855026D01*
X103339753Y109784454D01*
X103483014Y109740997D01*
X103594667Y109730000D01*
X103594675Y109730000D01*
X103632000Y109726324D01*
X103669325Y109730000D01*
X111445199Y109730000D01*
X111762001Y109413197D01*
X111762000Y93921711D01*
X111718063Y93877774D01*
X111604795Y93708256D01*
X111526774Y93519898D01*
X111487000Y93319939D01*
X111487000Y93116061D01*
X111526774Y92916102D01*
X111604795Y92727744D01*
X111718063Y92558226D01*
X111862226Y92414063D01*
X112031744Y92300795D01*
X112220102Y92222774D01*
X112420061Y92183000D01*
X112623939Y92183000D01*
X112823898Y92222774D01*
X113012256Y92300795D01*
X113181774Y92414063D01*
X113325937Y92558226D01*
X113439205Y92727744D01*
X113517226Y92916102D01*
X113529333Y92976970D01*
X113690061Y92945000D01*
X113893939Y92945000D01*
X114093898Y92984774D01*
X114282256Y93062795D01*
X114451774Y93176063D01*
X114595937Y93320226D01*
X114709205Y93489744D01*
X114787226Y93678102D01*
X114827000Y93878061D01*
X114827000Y94081939D01*
X114787226Y94281898D01*
X114709205Y94470256D01*
X114595937Y94639774D01*
X114552000Y94683711D01*
X114552000Y110083939D01*
X118345000Y110083939D01*
X118345000Y109880061D01*
X118384774Y109680102D01*
X118462795Y109491744D01*
X118576063Y109322226D01*
X118720226Y109178063D01*
X118889744Y109064795D01*
X119078102Y108986774D01*
X119278061Y108947000D01*
X119481939Y108947000D01*
X119681898Y108986774D01*
X119870256Y109064795D01*
X120039774Y109178063D01*
X120183937Y109322226D01*
X120297205Y109491744D01*
X120375226Y109680102D01*
X120415000Y109880061D01*
X120415000Y109942199D01*
X120959799Y110486997D01*
X120959803Y110487002D01*
X121415003Y110942202D01*
X121444001Y110965999D01*
X121538974Y111081724D01*
X121609546Y111213753D01*
X121653003Y111357014D01*
X121664000Y111468667D01*
X121664000Y111468676D01*
X121667676Y111505999D01*
X121664000Y111543322D01*
X121664000Y113342289D01*
X121707937Y113386226D01*
X121821205Y113555744D01*
X121899226Y113744102D01*
X121939000Y113944061D01*
X121939000Y114147939D01*
X121899226Y114347898D01*
X121821205Y114536256D01*
X121707937Y114705774D01*
X121563774Y114849937D01*
X121394256Y114963205D01*
X121205898Y115041226D01*
X121005939Y115081000D01*
X120802061Y115081000D01*
X120602102Y115041226D01*
X120413744Y114963205D01*
X120244226Y114849937D01*
X120100063Y114705774D01*
X119986795Y114536256D01*
X119908774Y114347898D01*
X119869000Y114147939D01*
X119869000Y113944061D01*
X119908774Y113744102D01*
X119986795Y113555744D01*
X120100063Y113386226D01*
X120144001Y113342288D01*
X120144000Y111820802D01*
X119885002Y111561803D01*
X119884997Y111561799D01*
X119340199Y111017000D01*
X119278061Y111017000D01*
X119078102Y110977226D01*
X118889744Y110899205D01*
X118720226Y110785937D01*
X118576063Y110641774D01*
X118462795Y110472256D01*
X118384774Y110283898D01*
X118345000Y110083939D01*
X114552000Y110083939D01*
X114552000Y110706678D01*
X114555676Y110744001D01*
X114552000Y110781324D01*
X114552000Y110781333D01*
X114541003Y110892986D01*
X114497546Y111036247D01*
X114426974Y111168276D01*
X114389652Y111213753D01*
X114355799Y111255004D01*
X114355795Y111255008D01*
X114332001Y111284001D01*
X114303008Y111307795D01*
X113303000Y112307802D01*
X113303000Y112369939D01*
X113263226Y112569898D01*
X113185205Y112758256D01*
X113071937Y112927774D01*
X112927774Y113071937D01*
X112758256Y113185205D01*
X112569898Y113263226D01*
X112369939Y113303000D01*
X112166061Y113303000D01*
X111966102Y113263226D01*
X111777744Y113185205D01*
X111608226Y113071937D01*
X111464063Y112927774D01*
X111350795Y112758256D01*
X111272774Y112569898D01*
X111233000Y112369939D01*
X111233000Y112166061D01*
X111272774Y111966102D01*
X111350795Y111777744D01*
X111464063Y111608226D01*
X111608226Y111464063D01*
X111777744Y111350795D01*
X111966102Y111272774D01*
X112166061Y111233000D01*
X112228198Y111233000D01*
X113032001Y110429196D01*
X113032001Y110292801D01*
X112323803Y111000998D01*
X112300001Y111030001D01*
X112184276Y111124974D01*
X112052247Y111195546D01*
X111908986Y111239003D01*
X111797333Y111250000D01*
X111797322Y111250000D01*
X111760000Y111253676D01*
X111722678Y111250000D01*
X103946802Y111250000D01*
X102889000Y112307801D01*
X102889000Y112369939D01*
X102849226Y112569898D01*
X102771205Y112758256D01*
X102657937Y112927774D01*
X102513774Y113071937D01*
X102344256Y113185205D01*
X102155898Y113263226D01*
X101955939Y113303000D01*
X101752061Y113303000D01*
X101552102Y113263226D01*
X101363744Y113185205D01*
X101194226Y113071937D01*
X101050063Y112927774D01*
X100936795Y112758256D01*
X100858774Y112569898D01*
X100819000Y112369939D01*
X81575650Y112369939D01*
X81575937Y112370226D01*
X81689205Y112539744D01*
X81767226Y112728102D01*
X81807000Y112928061D01*
X81807000Y113131939D01*
X81767226Y113331898D01*
X81689205Y113520256D01*
X81575937Y113689774D01*
X81431774Y113833937D01*
X81262256Y113947205D01*
X81073898Y114025226D01*
X80873939Y114065000D01*
X80670061Y114065000D01*
X80470102Y114025226D01*
X80281744Y113947205D01*
X80112226Y113833937D01*
X80068289Y113790000D01*
X60235322Y113790000D01*
X60197999Y113793676D01*
X60160676Y113790000D01*
X60160667Y113790000D01*
X60049014Y113779003D01*
X59905753Y113735546D01*
X59773724Y113664974D01*
X59657999Y113570001D01*
X59634201Y113541003D01*
X58888199Y112795000D01*
X58826061Y112795000D01*
X58626102Y112755226D01*
X58437744Y112677205D01*
X58268226Y112563937D01*
X58124063Y112419774D01*
X58010795Y112250256D01*
X57932774Y112061898D01*
X57893000Y111861939D01*
X51993000Y111861939D01*
X51993000Y120170883D01*
X53265000Y120170883D01*
X53265000Y119829117D01*
X53331675Y119493919D01*
X53462463Y119178169D01*
X53652337Y118894002D01*
X53894002Y118652337D01*
X54178169Y118462463D01*
X54493919Y118331675D01*
X54829117Y118265000D01*
X55170883Y118265000D01*
X55506081Y118331675D01*
X55821831Y118462463D01*
X56105998Y118652337D01*
X56347663Y118894002D01*
X56537537Y119178169D01*
X56668325Y119493919D01*
X56735000Y119829117D01*
X56735000Y120170883D01*
X123265000Y120170883D01*
X123265000Y119829117D01*
X123331675Y119493919D01*
X123462463Y119178169D01*
X123652337Y118894002D01*
X123894002Y118652337D01*
X124178169Y118462463D01*
X124493919Y118331675D01*
X124829117Y118265000D01*
X125170883Y118265000D01*
X125506081Y118331675D01*
X125821831Y118462463D01*
X126105998Y118652337D01*
X126347663Y118894002D01*
X126537537Y119178169D01*
X126668325Y119493919D01*
X126735000Y119829117D01*
X126735000Y120170883D01*
X126668325Y120506081D01*
X126537537Y120821831D01*
X126347663Y121105998D01*
X126105998Y121347663D01*
X125821831Y121537537D01*
X125506081Y121668325D01*
X125170883Y121735000D01*
X124829117Y121735000D01*
X124493919Y121668325D01*
X124178169Y121537537D01*
X123894002Y121347663D01*
X123652337Y121105998D01*
X123462463Y120821831D01*
X123331675Y120506081D01*
X123265000Y120170883D01*
X56735000Y120170883D01*
X56668325Y120506081D01*
X56537537Y120821831D01*
X56347663Y121105998D01*
X56105998Y121347663D01*
X55821831Y121537537D01*
X55506081Y121668325D01*
X55170883Y121735000D01*
X54829117Y121735000D01*
X54493919Y121668325D01*
X54178169Y121537537D01*
X53894002Y121347663D01*
X53652337Y121105998D01*
X53462463Y120821831D01*
X53331675Y120506081D01*
X53265000Y120170883D01*
X51993000Y120170883D01*
X51993000Y127839000D01*
X131903000Y127839000D01*
X131903001Y83724578D01*
X131903001Y83724578D01*
G37*
X131903001Y83724578D02*
X130292535Y85335043D01*
X130281226Y85391898D01*
X130203205Y85580256D01*
X130089937Y85749774D01*
X129945774Y85893937D01*
X129776256Y86007205D01*
X129587898Y86085226D01*
X129387939Y86125000D01*
X129285805Y86125000D01*
X129284000Y86143323D01*
X129284000Y86143333D01*
X129273003Y86254986D01*
X129229546Y86398247D01*
X129197061Y86459021D01*
X129158974Y86530277D01*
X129087799Y86617003D01*
X129064001Y86646001D01*
X129035003Y86669799D01*
X127600803Y88103998D01*
X127577000Y88133002D01*
X127461275Y88227975D01*
X127329246Y88298547D01*
X127185985Y88342004D01*
X127074332Y88353001D01*
X127074321Y88353001D01*
X127036999Y88356677D01*
X126999677Y88353001D01*
X103378326Y88353001D01*
X103341001Y88356677D01*
X103303676Y88353001D01*
X103303668Y88353001D01*
X103192015Y88342004D01*
X103048754Y88298547D01*
X102916725Y88227975D01*
X102801000Y88133002D01*
X102777202Y88104004D01*
X102068199Y87395000D01*
X102006061Y87395000D01*
X101806102Y87355226D01*
X101617744Y87277205D01*
X101448226Y87163937D01*
X101304063Y87019774D01*
X101190795Y86850256D01*
X101112774Y86661898D01*
X101073000Y86461939D01*
X101073000Y86258061D01*
X101112774Y86058102D01*
X101190795Y85869744D01*
X101304063Y85700226D01*
X101448226Y85556063D01*
X101617744Y85442795D01*
X101806102Y85364774D01*
X102006061Y85325000D01*
X102123026Y85325000D01*
X102128774Y85296102D01*
X102206795Y85107744D01*
X102320063Y84938226D01*
X102464226Y84794063D01*
X102633744Y84680795D01*
X102822102Y84602774D01*
X103022061Y84563000D01*
X103139026Y84563000D01*
X103144774Y84534102D01*
X103222795Y84345744D01*
X103336063Y84176226D01*
X103440289Y84072000D01*
X99374802Y84072000D01*
X91142863Y92303939D01*
X99041000Y92303939D01*
X99041000Y92100061D01*
X99080774Y91900102D01*
X99158795Y91711744D01*
X99272063Y91542226D01*
X99416226Y91398063D01*
X99585744Y91284795D01*
X99774102Y91206774D01*
X99974061Y91167000D01*
X100177939Y91167000D01*
X100377898Y91206774D01*
X100566256Y91284795D01*
X100735774Y91398063D01*
X100779711Y91442000D01*
X106111199Y91442000D01*
X107857206Y89695991D01*
X107881000Y89666998D01*
X107909993Y89643204D01*
X107909997Y89643200D01*
X107980686Y89585188D01*
X107996725Y89572025D01*
X108128754Y89501453D01*
X108272015Y89457996D01*
X108383668Y89446999D01*
X108383677Y89446999D01*
X108421000Y89443323D01*
X108458323Y89446999D01*
X124989290Y89446999D01*
X125070226Y89366063D01*
X125239744Y89252795D01*
X125428102Y89174774D01*
X125628061Y89135000D01*
X125831939Y89135000D01*
X126031898Y89174774D01*
X126220256Y89252795D01*
X126389774Y89366063D01*
X126533937Y89510226D01*
X126647205Y89679744D01*
X126725226Y89868102D01*
X126765000Y90068061D01*
X126765000Y90271939D01*
X126725226Y90471898D01*
X126647205Y90660256D01*
X126533937Y90829774D01*
X126389774Y90973937D01*
X126220256Y91087205D01*
X126031898Y91165226D01*
X125831939Y91205000D01*
X125628061Y91205000D01*
X125428102Y91165226D01*
X125239744Y91087205D01*
X125070226Y90973937D01*
X125063288Y90966999D01*
X114393800Y90966999D01*
X117662802Y94236000D01*
X121216289Y94236000D01*
X121260226Y94192063D01*
X121429744Y94078795D01*
X121618102Y94000774D01*
X121818061Y93961000D01*
X122021939Y93961000D01*
X122221898Y94000774D01*
X122410256Y94078795D01*
X122579774Y94192063D01*
X122723937Y94336226D01*
X122837205Y94505744D01*
X122915226Y94694102D01*
X122955000Y94894061D01*
X122955000Y95097939D01*
X122915226Y95297898D01*
X122837205Y95486256D01*
X122723937Y95655774D01*
X122579774Y95799937D01*
X122410256Y95913205D01*
X122221898Y95991226D01*
X122021939Y96031000D01*
X121818061Y96031000D01*
X121618102Y95991226D01*
X121429744Y95913205D01*
X121260226Y95799937D01*
X121216289Y95756000D01*
X117385323Y95756000D01*
X117348000Y95759676D01*
X117310677Y95756000D01*
X117310667Y95756000D01*
X117199014Y95745003D01*
X117055753Y95701546D01*
X116923723Y95630974D01*
X116840083Y95562332D01*
X116807999Y95536001D01*
X116784201Y95507003D01*
X113244199Y91967000D01*
X113182061Y91967000D01*
X112982102Y91927226D01*
X112793744Y91849205D01*
X112624226Y91735937D01*
X112480063Y91591774D01*
X112366795Y91422256D01*
X112288774Y91233898D01*
X112249000Y91033939D01*
X112249000Y90966999D01*
X108735804Y90966999D01*
X106989804Y92712998D01*
X106966001Y92742001D01*
X106850276Y92836974D01*
X106718247Y92907546D01*
X106574986Y92951003D01*
X106463333Y92962000D01*
X106463322Y92962000D01*
X106426000Y92965676D01*
X106388678Y92962000D01*
X100779711Y92962000D01*
X100735774Y93005937D01*
X100566256Y93119205D01*
X100377898Y93197226D01*
X100177939Y93237000D01*
X99974061Y93237000D01*
X99774102Y93197226D01*
X99585744Y93119205D01*
X99416226Y93005937D01*
X99272063Y92861774D01*
X99158795Y92692256D01*
X99080774Y92503898D01*
X99041000Y92303939D01*
X91142863Y92303939D01*
X81081804Y102364997D01*
X81058001Y102394001D01*
X80942276Y102488974D01*
X80810247Y102559546D01*
X80666986Y102603003D01*
X80555333Y102614000D01*
X80555322Y102614000D01*
X80518000Y102617676D01*
X80480678Y102614000D01*
X65727711Y102614000D01*
X65683774Y102657937D01*
X65514256Y102771205D01*
X65325898Y102849226D01*
X65125939Y102889000D01*
X64922061Y102889000D01*
X64722102Y102849226D01*
X64533744Y102771205D01*
X64364226Y102657937D01*
X64245319Y102539030D01*
X60504500Y106179023D01*
X60484001Y106204001D01*
X60450979Y106231102D01*
X60447254Y106234726D01*
X60422146Y106254764D01*
X60368276Y106298974D01*
X60363656Y106301443D01*
X60359563Y106304710D01*
X60297700Y106336698D01*
X60236247Y106369546D01*
X60231233Y106371067D01*
X60226582Y106373472D01*
X60159660Y106392778D01*
X60092986Y106413003D01*
X60087772Y106413516D01*
X60082741Y106414968D01*
X60013361Y106420845D01*
X59981333Y106424000D01*
X59976124Y106424000D01*
X59933569Y106427605D01*
X59901469Y106424000D01*
X55948711Y106424000D01*
X55904774Y106467937D01*
X55735256Y106581205D01*
X55546898Y106659226D01*
X55346939Y106699000D01*
X55143061Y106699000D01*
X54943102Y106659226D01*
X54754744Y106581205D01*
X54585226Y106467937D01*
X54441063Y106323774D01*
X54327795Y106154256D01*
X54249774Y105965898D01*
X54210000Y105765939D01*
X54210000Y105562061D01*
X54249774Y105362102D01*
X54327795Y105173744D01*
X54441063Y105004226D01*
X54585226Y104860063D01*
X54754744Y104746795D01*
X54943102Y104668774D01*
X55143061Y104629000D01*
X55346939Y104629000D01*
X55546898Y104668774D01*
X55735256Y104746795D01*
X55904774Y104860063D01*
X55948711Y104904000D01*
X59635262Y104904000D01*
X66692498Y98036977D01*
X66712997Y98011999D01*
X66746019Y97984898D01*
X66749744Y97981274D01*
X66774863Y97961227D01*
X66828722Y97917026D01*
X66833339Y97914558D01*
X66837434Y97911290D01*
X66899314Y97879293D01*
X66960751Y97846454D01*
X66965764Y97844933D01*
X66970416Y97842528D01*
X67037347Y97823219D01*
X67104012Y97802997D01*
X67109224Y97802484D01*
X67114256Y97801032D01*
X67183640Y97795154D01*
X67215665Y97792000D01*
X67220874Y97792000D01*
X67263429Y97788395D01*
X67295530Y97792000D01*
X79187199Y97792000D01*
X92712001Y84267196D01*
X92712000Y83507711D01*
X92668063Y83463774D01*
X92554795Y83294256D01*
X92476774Y83105898D01*
X92437000Y82905939D01*
X92437000Y82702061D01*
X92476774Y82502102D01*
X92554795Y82313744D01*
X92668063Y82144226D01*
X92812226Y82000063D01*
X92981744Y81886795D01*
X93170102Y81808774D01*
X93370061Y81769000D01*
X93573939Y81769000D01*
X93773898Y81808774D01*
X93962256Y81886795D01*
X94131774Y82000063D01*
X94275937Y82144226D01*
X94389205Y82313744D01*
X94467226Y82502102D01*
X94507000Y82702061D01*
X94507000Y82905939D01*
X94467226Y83105898D01*
X94389205Y83294256D01*
X94275937Y83463774D01*
X94232000Y83507711D01*
X94232000Y84544678D01*
X94235676Y84582001D01*
X94232000Y84619324D01*
X94232000Y84619333D01*
X94221003Y84730986D01*
X94177546Y84874247D01*
X94106974Y85006276D01*
X94059562Y85064048D01*
X94035799Y85093004D01*
X94035795Y85093008D01*
X94012001Y85122001D01*
X93983008Y85145795D01*
X80065804Y99062997D01*
X80042001Y99092001D01*
X79926276Y99186974D01*
X79794247Y99257546D01*
X79650986Y99301003D01*
X79539333Y99312000D01*
X79539322Y99312000D01*
X79502000Y99315676D01*
X79464678Y99312000D01*
X71819711Y99312000D01*
X71823711Y99316000D01*
X80203199Y99316000D01*
X98242201Y81276997D01*
X98265999Y81247999D01*
X98294997Y81224201D01*
X98381724Y81153026D01*
X98513753Y81082454D01*
X98657014Y81038997D01*
X98806000Y81024323D01*
X98843333Y81028000D01*
X110040289Y81028000D01*
X110084226Y80984063D01*
X110253744Y80870795D01*
X110442102Y80792774D01*
X110642061Y80753000D01*
X110845939Y80753000D01*
X111045898Y80792774D01*
X111234256Y80870795D01*
X111403774Y80984063D01*
X111547937Y81128226D01*
X111661205Y81297744D01*
X111739226Y81486102D01*
X111779000Y81686061D01*
X111779000Y81889939D01*
X111739226Y82089898D01*
X111661205Y82278256D01*
X111547937Y82447774D01*
X111451211Y82544500D01*
X111558937Y82652226D01*
X111672205Y82821744D01*
X111750226Y83010102D01*
X111790000Y83210061D01*
X111790000Y83314000D01*
X112375197Y83314000D01*
X118730198Y76958998D01*
X118753997Y76929999D01*
X118869722Y76835026D01*
X119001751Y76764454D01*
X119145012Y76720997D01*
X119256665Y76710000D01*
X119256674Y76710000D01*
X119293997Y76706324D01*
X119331320Y76710000D01*
X120712289Y76710000D01*
X120638326Y76636037D01*
X120525058Y76466519D01*
X120447037Y76278161D01*
X120407263Y76078202D01*
X120407263Y75874324D01*
X120447037Y75674365D01*
X120525058Y75486007D01*
X120638326Y75316489D01*
X120782489Y75172326D01*
X120952007Y75059058D01*
X121140365Y74981037D01*
X121340324Y74941263D01*
X121544202Y74941263D01*
X121744161Y74981037D01*
X121932519Y75059058D01*
X121980717Y75091263D01*
X126349159Y75091263D01*
X127771465Y73668956D01*
X127782774Y73612102D01*
X127860795Y73423744D01*
X127974063Y73254226D01*
X128118226Y73110063D01*
X128287744Y72996795D01*
X128476102Y72918774D01*
X128676061Y72879000D01*
X128879939Y72879000D01*
X129079898Y72918774D01*
X129268256Y72996795D01*
X129314368Y73027606D01*
X129343685Y73024719D01*
X129387154Y73029000D01*
X129387162Y73029000D01*
X129517175Y73041805D01*
X129683998Y73092411D01*
X129837744Y73174589D01*
X129972502Y73285183D01*
X130000219Y73318956D01*
X131903001Y75221737D01*
X131903001Y59359000D01*
X119253000Y59359000D01*
X119253000Y65170883D01*
X123265000Y65170883D01*
X123265000Y64829117D01*
X123331675Y64493919D01*
X123462463Y64178169D01*
X123652337Y63894002D01*
X123894002Y63652337D01*
X124178169Y63462463D01*
X124493919Y63331675D01*
X124829117Y63265000D01*
X125170883Y63265000D01*
X125506081Y63331675D01*
X125821831Y63462463D01*
X126105998Y63652337D01*
X126347663Y63894002D01*
X126537537Y64178169D01*
X126668325Y64493919D01*
X126735000Y64829117D01*
X126735000Y65170883D01*
X126668325Y65506081D01*
X126537537Y65821831D01*
X126347663Y66105998D01*
X126105998Y66347663D01*
X125821831Y66537537D01*
X125506081Y66668325D01*
X125170883Y66735000D01*
X124829117Y66735000D01*
X124493919Y66668325D01*
X124178169Y66537537D01*
X123894002Y66347663D01*
X123652337Y66105998D01*
X123462463Y65821831D01*
X123331675Y65506081D01*
X123265000Y65170883D01*
X119253000Y65170883D01*
X119253000Y70866000D01*
X119250560Y70890776D01*
X119243333Y70914601D01*
X119231597Y70936557D01*
X119215803Y70955803D01*
X119196557Y70971597D01*
X119174601Y70983333D01*
X119150776Y70990560D01*
X119126000Y70993000D01*
X92226468Y70993000D01*
X92353774Y71078063D01*
X92497937Y71222226D01*
X92611205Y71391744D01*
X92689226Y71580102D01*
X92729000Y71780061D01*
X92729000Y71983939D01*
X92689226Y72183898D01*
X92611205Y72372256D01*
X92497937Y72541774D01*
X92353774Y72685937D01*
X92323181Y72706378D01*
X92749803Y73133000D01*
X92811939Y73133000D01*
X93011898Y73172774D01*
X93200256Y73250795D01*
X93369774Y73364063D01*
X93513937Y73508226D01*
X93627205Y73677744D01*
X93705226Y73866102D01*
X93745000Y74066061D01*
X93745000Y74269939D01*
X93705226Y74469898D01*
X93627205Y74658256D01*
X93513937Y74827774D01*
X93369774Y74971937D01*
X93200256Y75085205D01*
X93011898Y75163226D01*
X92897404Y75186000D01*
X105167644Y75186000D01*
X105137000Y75031939D01*
X105137000Y74828061D01*
X105176774Y74628102D01*
X105254795Y74439744D01*
X105368063Y74270226D01*
X105512226Y74126063D01*
X105681744Y74012795D01*
X105870102Y73934774D01*
X106070061Y73895000D01*
X106147774Y73895000D01*
X106279752Y73824455D01*
X106423013Y73780998D01*
X106534666Y73770001D01*
X106534676Y73770001D01*
X106571998Y73766325D01*
X106609321Y73770001D01*
X106906293Y73770001D01*
X106905795Y73769256D01*
X106827774Y73580898D01*
X106788000Y73380939D01*
X106788000Y73177061D01*
X106827774Y72977102D01*
X106905795Y72788744D01*
X107019063Y72619226D01*
X107163226Y72475063D01*
X107332744Y72361795D01*
X107521102Y72283774D01*
X107721061Y72244000D01*
X107924939Y72244000D01*
X108124898Y72283774D01*
X108313256Y72361795D01*
X108482774Y72475063D01*
X108526711Y72519000D01*
X116929678Y72519000D01*
X116967000Y72515324D01*
X117004322Y72519000D01*
X117004333Y72519000D01*
X117115986Y72529997D01*
X117259247Y72573454D01*
X117391276Y72644026D01*
X117507001Y72738999D01*
X117530803Y72768002D01*
X118059318Y73296516D01*
X118127744Y73250795D01*
X118316102Y73172774D01*
X118516061Y73133000D01*
X118719939Y73133000D01*
X118919898Y73172774D01*
X119108256Y73250795D01*
X119277774Y73364063D01*
X119421937Y73508226D01*
X119535205Y73677744D01*
X119613226Y73866102D01*
X119653000Y74066061D01*
X119653000Y74269939D01*
X119613226Y74469898D01*
X119535205Y74658256D01*
X119421937Y74827774D01*
X119277774Y74971937D01*
X119108256Y75085205D01*
X118919898Y75163226D01*
X118891000Y75168974D01*
X118891000Y75285939D01*
X118851226Y75485898D01*
X118773205Y75674256D01*
X118659937Y75843774D01*
X118515774Y75987937D01*
X118346256Y76101205D01*
X118157898Y76179226D01*
X117957939Y76219000D01*
X117754061Y76219000D01*
X117554102Y76179226D01*
X117365744Y76101205D01*
X117196226Y75987937D01*
X117052063Y75843774D01*
X116938795Y75674256D01*
X116860774Y75485898D01*
X116821808Y75290001D01*
X111762318Y75290001D01*
X111788205Y75328744D01*
X111866226Y75517102D01*
X111906000Y75717061D01*
X111906000Y75920939D01*
X111866226Y76120898D01*
X111788205Y76309256D01*
X111691490Y76454000D01*
X111788205Y76598744D01*
X111866226Y76787102D01*
X111906000Y76987061D01*
X111906000Y77190939D01*
X111866226Y77390898D01*
X111788205Y77579256D01*
X111691490Y77724000D01*
X111788205Y77868744D01*
X111866226Y78057102D01*
X111906000Y78257061D01*
X111906000Y78460939D01*
X111866226Y78660898D01*
X111788205Y78849256D01*
X111691490Y78994000D01*
X111788205Y79138744D01*
X111866226Y79327102D01*
X111906000Y79527061D01*
X111906000Y79730939D01*
X111866226Y79930898D01*
X111788205Y80119256D01*
X111674937Y80288774D01*
X111530774Y80432937D01*
X111361256Y80546205D01*
X111172898Y80624226D01*
X110972939Y80664000D01*
X110769061Y80664000D01*
X110569102Y80624226D01*
X110380744Y80546205D01*
X110211226Y80432937D01*
X110167289Y80389000D01*
X85000325Y80389000D01*
X84963000Y80392676D01*
X84925675Y80389000D01*
X84925667Y80389000D01*
X84814014Y80378003D01*
X84670753Y80334546D01*
X84538724Y80263974D01*
X84422999Y80169001D01*
X84399201Y80140003D01*
X83374379Y79115181D01*
X83353937Y79145774D01*
X83209774Y79289937D01*
X83040256Y79403205D01*
X82851898Y79481226D01*
X82651939Y79521000D01*
X82448061Y79521000D01*
X82248102Y79481226D01*
X82059744Y79403205D01*
X81890226Y79289937D01*
X81746063Y79145774D01*
X81676716Y79041989D01*
X81516256Y79149205D01*
X81327898Y79227226D01*
X81127939Y79267000D01*
X80924061Y79267000D01*
X80724102Y79227226D01*
X80535744Y79149205D01*
X80366226Y79035937D01*
X80222063Y78891774D01*
X80108795Y78722256D01*
X80030774Y78533898D01*
X79991000Y78333939D01*
X79991000Y78271803D01*
X66741199Y65022000D01*
X64553323Y65022000D01*
X64516000Y65025676D01*
X64478677Y65022000D01*
X64478667Y65022000D01*
X64367014Y65011003D01*
X64225912Y64968201D01*
X64223753Y64967546D01*
X64091723Y64896974D01*
X64046276Y64859676D01*
X63975999Y64802001D01*
X63952201Y64773003D01*
X61833996Y62654797D01*
X61759111Y62677513D01*
X61540950Y62699000D01*
X61395050Y62699000D01*
X61176889Y62677513D01*
X60896966Y62592599D01*
X60638986Y62454706D01*
X60412866Y62269134D01*
X60388393Y62239313D01*
X60367502Y62308180D01*
X60308537Y62418494D01*
X60229185Y62515185D01*
X60132494Y62594537D01*
X60022180Y62653502D01*
X59902482Y62689812D01*
X59778000Y62702072D01*
X59213750Y62699000D01*
X59055000Y62540250D01*
X59055000Y61341000D01*
X59075000Y61341000D01*
X59075000Y61087000D01*
X59055000Y61087000D01*
X59055000Y59887750D01*
X59213750Y59729000D01*
X59778000Y59725928D01*
X59902482Y59738188D01*
X60022180Y59774498D01*
X60132494Y59833463D01*
X60229185Y59912815D01*
X60308537Y60009506D01*
X60367502Y60119820D01*
X60388393Y60188687D01*
X60412866Y60158866D01*
X60638986Y59973294D01*
X60896966Y59835401D01*
X61176889Y59750487D01*
X61395050Y59729000D01*
X61540950Y59729000D01*
X61759111Y59750487D01*
X62039034Y59835401D01*
X62297014Y59973294D01*
X62523134Y60158866D01*
X62708706Y60384986D01*
X62738000Y60439791D01*
X62767294Y60384986D01*
X62952866Y60158866D01*
X63178986Y59973294D01*
X63436966Y59835401D01*
X63716889Y59750487D01*
X63935050Y59729000D01*
X64080950Y59729000D01*
X64299111Y59750487D01*
X64579034Y59835401D01*
X64837014Y59973294D01*
X65063134Y60158866D01*
X65248706Y60384986D01*
X65278000Y60439791D01*
X65307294Y60384986D01*
X65492866Y60158866D01*
X65718986Y59973294D01*
X65976966Y59835401D01*
X66256889Y59750487D01*
X66475050Y59729000D01*
X66620950Y59729000D01*
X66839111Y59750487D01*
X67119034Y59835401D01*
X67377014Y59973294D01*
X67603134Y60158866D01*
X67788706Y60384986D01*
X67818000Y60439791D01*
X67847294Y60384986D01*
X68032866Y60158866D01*
X68258986Y59973294D01*
X68516966Y59835401D01*
X68796889Y59750487D01*
X69015050Y59729000D01*
X69160950Y59729000D01*
X69379111Y59750487D01*
X69659034Y59835401D01*
X69917014Y59973294D01*
X70143134Y60158866D01*
X70328706Y60384986D01*
X70358000Y60439791D01*
X70387294Y60384986D01*
X70572866Y60158866D01*
X70798986Y59973294D01*
X71056966Y59835401D01*
X71336889Y59750487D01*
X71555050Y59729000D01*
X71700950Y59729000D01*
X71919111Y59750487D01*
X72199034Y59835401D01*
X72457014Y59973294D01*
X72683134Y60158866D01*
X72868706Y60384986D01*
X72898000Y60439791D01*
X72927294Y60384986D01*
X73112866Y60158866D01*
X73338986Y59973294D01*
X73596966Y59835401D01*
X73876889Y59750487D01*
X74095050Y59729000D01*
X74240950Y59729000D01*
X74459111Y59750487D01*
X74739034Y59835401D01*
X74997014Y59973294D01*
X75223134Y60158866D01*
X75408706Y60384986D01*
X75438000Y60439791D01*
X75467294Y60384986D01*
X75652866Y60158866D01*
X75878986Y59973294D01*
X76136966Y59835401D01*
X76416889Y59750487D01*
X76635050Y59729000D01*
X76780950Y59729000D01*
X76999111Y59750487D01*
X77279034Y59835401D01*
X77537014Y59973294D01*
X77763134Y60158866D01*
X77948706Y60384986D01*
X77978000Y60439791D01*
X78007294Y60384986D01*
X78192866Y60158866D01*
X78418986Y59973294D01*
X78676966Y59835401D01*
X78956889Y59750487D01*
X79175050Y59729000D01*
X79320950Y59729000D01*
X79539111Y59750487D01*
X79819034Y59835401D01*
X80077014Y59973294D01*
X80303134Y60158866D01*
X80488706Y60384986D01*
X80518000Y60439791D01*
X80547294Y60384986D01*
X80732866Y60158866D01*
X80958986Y59973294D01*
X81216966Y59835401D01*
X81496889Y59750487D01*
X81715050Y59729000D01*
X81860950Y59729000D01*
X82079111Y59750487D01*
X82359034Y59835401D01*
X82617014Y59973294D01*
X82843134Y60158866D01*
X83028706Y60384986D01*
X83166599Y60642966D01*
X83251513Y60922889D01*
X83280185Y61214000D01*
X83251513Y61505111D01*
X83227491Y61584302D01*
X83272973Y61639722D01*
X83343545Y61771752D01*
X83347574Y61785034D01*
X83387002Y61915013D01*
X83397999Y62026666D01*
X83397999Y62026675D01*
X83401675Y62063998D01*
X83397999Y62101321D01*
X83397999Y63781198D01*
X84584000Y64967199D01*
X84584001Y64457712D01*
X84540063Y64413774D01*
X84426795Y64244256D01*
X84348774Y64055898D01*
X84309000Y63855939D01*
X84309000Y63652061D01*
X84348774Y63452102D01*
X84426795Y63263744D01*
X84540063Y63094226D01*
X84684226Y62950063D01*
X84853744Y62836795D01*
X85042102Y62758774D01*
X85242061Y62719000D01*
X85445939Y62719000D01*
X85645898Y62758774D01*
X85834256Y62836795D01*
X86003774Y62950063D01*
X86147937Y63094226D01*
X86261205Y63263744D01*
X86339226Y63452102D01*
X86379000Y63652061D01*
X86379000Y63855939D01*
X86339226Y64055898D01*
X86261205Y64244256D01*
X86147937Y64413774D01*
X86104000Y64457711D01*
X86104000Y65217199D01*
X87503000Y66616199D01*
X87503000Y59359000D01*
X51993000Y59359000D01*
X51993000Y60364000D01*
X57439928Y60364000D01*
X57452188Y60239518D01*
X57488498Y60119820D01*
X57547463Y60009506D01*
X57626815Y59912815D01*
X57723506Y59833463D01*
X57833820Y59774498D01*
X57953518Y59738188D01*
X58078000Y59725928D01*
X58642250Y59729000D01*
X58801000Y59887750D01*
X58801000Y61087000D01*
X57601750Y61087000D01*
X57443000Y60928250D01*
X57439928Y60364000D01*
X51993000Y60364000D01*
X51993000Y62064000D01*
X57439928Y62064000D01*
X57443000Y61499750D01*
X57601750Y61341000D01*
X58801000Y61341000D01*
X58801000Y62540250D01*
X58642250Y62699000D01*
X58078000Y62702072D01*
X57953518Y62689812D01*
X57833820Y62653502D01*
X57723506Y62594537D01*
X57626815Y62515185D01*
X57547463Y62418494D01*
X57488498Y62308180D01*
X57452188Y62188482D01*
X57439928Y62064000D01*
X51993000Y62064000D01*
X51993000Y65170883D01*
X53265000Y65170883D01*
X53265000Y64829117D01*
X53331675Y64493919D01*
X53462463Y64178169D01*
X53652337Y63894002D01*
X53894002Y63652337D01*
X54178169Y63462463D01*
X54493919Y63331675D01*
X54829117Y63265000D01*
X55170883Y63265000D01*
X55506081Y63331675D01*
X55821831Y63462463D01*
X56105998Y63652337D01*
X56347663Y63894002D01*
X56537537Y64178169D01*
X56668325Y64493919D01*
X56735000Y64829117D01*
X56735000Y65170883D01*
X56668325Y65506081D01*
X56537537Y65821831D01*
X56347663Y66105998D01*
X56105998Y66347663D01*
X55821831Y66537537D01*
X55506081Y66668325D01*
X55170883Y66735000D01*
X54829117Y66735000D01*
X54493919Y66668325D01*
X54178169Y66537537D01*
X53894002Y66347663D01*
X53652337Y66105998D01*
X53462463Y65821831D01*
X53331675Y65506081D01*
X53265000Y65170883D01*
X51993000Y65170883D01*
X51993000Y70432133D01*
X52045700Y70416147D01*
X52219793Y70399000D01*
X52936207Y70399000D01*
X53110300Y70416147D01*
X53333674Y70483906D01*
X53539536Y70593942D01*
X53719975Y70742025D01*
X53868058Y70922464D01*
X53978094Y71128326D01*
X54045853Y71351700D01*
X54068733Y71584000D01*
X54045853Y71816300D01*
X54027426Y71877049D01*
X54575654Y71877049D01*
X54628434Y71648884D01*
X54857488Y71543491D01*
X55102702Y71484808D01*
X55354652Y71475093D01*
X55603658Y71514717D01*
X55840148Y71602158D01*
X55927566Y71648884D01*
X55980346Y71877049D01*
X55278000Y72579395D01*
X54575654Y71877049D01*
X54027426Y71877049D01*
X53978094Y72039674D01*
X53868058Y72245536D01*
X53719975Y72425975D01*
X53539536Y72574058D01*
X53336941Y72682348D01*
X53994093Y72682348D01*
X54033717Y72433342D01*
X54121158Y72196852D01*
X54167884Y72109434D01*
X54396049Y72056654D01*
X55098395Y72759000D01*
X55457605Y72759000D01*
X56159951Y72056654D01*
X56388116Y72109434D01*
X56493509Y72338488D01*
X56552192Y72583702D01*
X56561907Y72835652D01*
X56522283Y73084658D01*
X56434842Y73321148D01*
X56388116Y73408566D01*
X56159951Y73461346D01*
X55457605Y72759000D01*
X55098395Y72759000D01*
X54396049Y73461346D01*
X54167884Y73408566D01*
X54062491Y73179512D01*
X54003808Y72934298D01*
X53994093Y72682348D01*
X53336941Y72682348D01*
X53333674Y72684094D01*
X53110300Y72751853D01*
X52936207Y72769000D01*
X52219793Y72769000D01*
X52045700Y72751853D01*
X51993000Y72735867D01*
X51993000Y73640951D01*
X54575654Y73640951D01*
X55278000Y72938605D01*
X55980346Y73640951D01*
X55927566Y73869116D01*
X55698512Y73974509D01*
X55453298Y74033192D01*
X55201348Y74042907D01*
X54952342Y74003283D01*
X54715852Y73915842D01*
X54628434Y73869116D01*
X54575654Y73640951D01*
X51993000Y73640951D01*
X51993000Y76727049D01*
X54575654Y76727049D01*
X54628434Y76498884D01*
X54857488Y76393491D01*
X55102702Y76334808D01*
X55354652Y76325093D01*
X55603658Y76364717D01*
X55840148Y76452158D01*
X55927566Y76498884D01*
X55980346Y76727049D01*
X55278000Y77429395D01*
X54575654Y76727049D01*
X51993000Y76727049D01*
X51993000Y77532348D01*
X53994093Y77532348D01*
X54033717Y77283342D01*
X54121158Y77046852D01*
X54167884Y76959434D01*
X54396049Y76906654D01*
X55098395Y77609000D01*
X55457605Y77609000D01*
X56159951Y76906654D01*
X56388116Y76959434D01*
X56493509Y77188488D01*
X56552192Y77433702D01*
X56561907Y77685652D01*
X56522283Y77934658D01*
X56434842Y78171148D01*
X56388116Y78258566D01*
X56159951Y78311346D01*
X55457605Y77609000D01*
X55098395Y77609000D01*
X54396049Y78311346D01*
X54167884Y78258566D01*
X54062491Y78029512D01*
X54003808Y77784298D01*
X53994093Y77532348D01*
X51993000Y77532348D01*
X51993000Y77632133D01*
X52045700Y77616147D01*
X52219793Y77599000D01*
X52936207Y77599000D01*
X53110300Y77616147D01*
X53333674Y77683906D01*
X53539536Y77793942D01*
X53719975Y77942025D01*
X53868058Y78122464D01*
X53978094Y78328326D01*
X54027425Y78490951D01*
X54575654Y78490951D01*
X55278000Y77788605D01*
X55980346Y78490951D01*
X55927566Y78719116D01*
X55698512Y78824509D01*
X55453298Y78883192D01*
X55201348Y78892907D01*
X54952342Y78853283D01*
X54715852Y78765842D01*
X54628434Y78719116D01*
X54575654Y78490951D01*
X54027425Y78490951D01*
X54045853Y78551700D01*
X54068733Y78784000D01*
X54045853Y79016300D01*
X53978094Y79239674D01*
X53868058Y79445536D01*
X53719975Y79625975D01*
X53539536Y79774058D01*
X53333674Y79884094D01*
X53110300Y79951853D01*
X52936207Y79969000D01*
X52219793Y79969000D01*
X52045700Y79951853D01*
X51993000Y79935867D01*
X51993000Y111861939D01*
X57893000Y111861939D01*
X57893000Y111658061D01*
X57932774Y111458102D01*
X58010795Y111269744D01*
X58124063Y111100226D01*
X58268226Y110956063D01*
X58437744Y110842795D01*
X58626102Y110764774D01*
X58826061Y110725000D01*
X59029939Y110725000D01*
X59229898Y110764774D01*
X59418256Y110842795D01*
X59587774Y110956063D01*
X59731937Y111100226D01*
X59845205Y111269744D01*
X59923226Y111458102D01*
X59963000Y111658061D01*
X59963000Y111720199D01*
X60512802Y112270000D01*
X80068289Y112270000D01*
X80112226Y112226063D01*
X80281744Y112112795D01*
X80470102Y112034774D01*
X80670061Y111995000D01*
X80873939Y111995000D01*
X81073898Y112034774D01*
X81262256Y112112795D01*
X81431774Y112226063D01*
X81575650Y112369939D01*
X100819000Y112369939D01*
X100819000Y112166061D01*
X100858774Y111966102D01*
X100936795Y111777744D01*
X101050063Y111608226D01*
X101194226Y111464063D01*
X101363744Y111350795D01*
X101552102Y111272774D01*
X101752061Y111233000D01*
X101814199Y111233000D01*
X103068200Y109978998D01*
X103091999Y109949999D01*
X103207724Y109855026D01*
X103339753Y109784454D01*
X103483014Y109740997D01*
X103594667Y109730000D01*
X103594675Y109730000D01*
X103632000Y109726324D01*
X103669325Y109730000D01*
X111445199Y109730000D01*
X111762001Y109413197D01*
X111762000Y93921711D01*
X111718063Y93877774D01*
X111604795Y93708256D01*
X111526774Y93519898D01*
X111487000Y93319939D01*
X111487000Y93116061D01*
X111526774Y92916102D01*
X111604795Y92727744D01*
X111718063Y92558226D01*
X111862226Y92414063D01*
X112031744Y92300795D01*
X112220102Y92222774D01*
X112420061Y92183000D01*
X112623939Y92183000D01*
X112823898Y92222774D01*
X113012256Y92300795D01*
X113181774Y92414063D01*
X113325937Y92558226D01*
X113439205Y92727744D01*
X113517226Y92916102D01*
X113529333Y92976970D01*
X113690061Y92945000D01*
X113893939Y92945000D01*
X114093898Y92984774D01*
X114282256Y93062795D01*
X114451774Y93176063D01*
X114595937Y93320226D01*
X114709205Y93489744D01*
X114787226Y93678102D01*
X114827000Y93878061D01*
X114827000Y94081939D01*
X114787226Y94281898D01*
X114709205Y94470256D01*
X114595937Y94639774D01*
X114552000Y94683711D01*
X114552000Y110083939D01*
X118345000Y110083939D01*
X118345000Y109880061D01*
X118384774Y109680102D01*
X118462795Y109491744D01*
X118576063Y109322226D01*
X118720226Y109178063D01*
X118889744Y109064795D01*
X119078102Y108986774D01*
X119278061Y108947000D01*
X119481939Y108947000D01*
X119681898Y108986774D01*
X119870256Y109064795D01*
X120039774Y109178063D01*
X120183937Y109322226D01*
X120297205Y109491744D01*
X120375226Y109680102D01*
X120415000Y109880061D01*
X120415000Y109942199D01*
X120959799Y110486997D01*
X120959803Y110487002D01*
X121415003Y110942202D01*
X121444001Y110965999D01*
X121538974Y111081724D01*
X121609546Y111213753D01*
X121653003Y111357014D01*
X121664000Y111468667D01*
X121664000Y111468676D01*
X121667676Y111505999D01*
X121664000Y111543322D01*
X121664000Y113342289D01*
X121707937Y113386226D01*
X121821205Y113555744D01*
X121899226Y113744102D01*
X121939000Y113944061D01*
X121939000Y114147939D01*
X121899226Y114347898D01*
X121821205Y114536256D01*
X121707937Y114705774D01*
X121563774Y114849937D01*
X121394256Y114963205D01*
X121205898Y115041226D01*
X121005939Y115081000D01*
X120802061Y115081000D01*
X120602102Y115041226D01*
X120413744Y114963205D01*
X120244226Y114849937D01*
X120100063Y114705774D01*
X119986795Y114536256D01*
X119908774Y114347898D01*
X119869000Y114147939D01*
X119869000Y113944061D01*
X119908774Y113744102D01*
X119986795Y113555744D01*
X120100063Y113386226D01*
X120144001Y113342288D01*
X120144000Y111820802D01*
X119885002Y111561803D01*
X119884997Y111561799D01*
X119340199Y111017000D01*
X119278061Y111017000D01*
X119078102Y110977226D01*
X118889744Y110899205D01*
X118720226Y110785937D01*
X118576063Y110641774D01*
X118462795Y110472256D01*
X118384774Y110283898D01*
X118345000Y110083939D01*
X114552000Y110083939D01*
X114552000Y110706678D01*
X114555676Y110744001D01*
X114552000Y110781324D01*
X114552000Y110781333D01*
X114541003Y110892986D01*
X114497546Y111036247D01*
X114426974Y111168276D01*
X114389652Y111213753D01*
X114355799Y111255004D01*
X114355795Y111255008D01*
X114332001Y111284001D01*
X114303008Y111307795D01*
X113303000Y112307802D01*
X113303000Y112369939D01*
X113263226Y112569898D01*
X113185205Y112758256D01*
X113071937Y112927774D01*
X112927774Y113071937D01*
X112758256Y113185205D01*
X112569898Y113263226D01*
X112369939Y113303000D01*
X112166061Y113303000D01*
X111966102Y113263226D01*
X111777744Y113185205D01*
X111608226Y113071937D01*
X111464063Y112927774D01*
X111350795Y112758256D01*
X111272774Y112569898D01*
X111233000Y112369939D01*
X111233000Y112166061D01*
X111272774Y111966102D01*
X111350795Y111777744D01*
X111464063Y111608226D01*
X111608226Y111464063D01*
X111777744Y111350795D01*
X111966102Y111272774D01*
X112166061Y111233000D01*
X112228198Y111233000D01*
X113032001Y110429196D01*
X113032001Y110292801D01*
X112323803Y111000998D01*
X112300001Y111030001D01*
X112184276Y111124974D01*
X112052247Y111195546D01*
X111908986Y111239003D01*
X111797333Y111250000D01*
X111797322Y111250000D01*
X111760000Y111253676D01*
X111722678Y111250000D01*
X103946802Y111250000D01*
X102889000Y112307801D01*
X102889000Y112369939D01*
X102849226Y112569898D01*
X102771205Y112758256D01*
X102657937Y112927774D01*
X102513774Y113071937D01*
X102344256Y113185205D01*
X102155898Y113263226D01*
X101955939Y113303000D01*
X101752061Y113303000D01*
X101552102Y113263226D01*
X101363744Y113185205D01*
X101194226Y113071937D01*
X101050063Y112927774D01*
X100936795Y112758256D01*
X100858774Y112569898D01*
X100819000Y112369939D01*
X81575650Y112369939D01*
X81575937Y112370226D01*
X81689205Y112539744D01*
X81767226Y112728102D01*
X81807000Y112928061D01*
X81807000Y113131939D01*
X81767226Y113331898D01*
X81689205Y113520256D01*
X81575937Y113689774D01*
X81431774Y113833937D01*
X81262256Y113947205D01*
X81073898Y114025226D01*
X80873939Y114065000D01*
X80670061Y114065000D01*
X80470102Y114025226D01*
X80281744Y113947205D01*
X80112226Y113833937D01*
X80068289Y113790000D01*
X60235322Y113790000D01*
X60197999Y113793676D01*
X60160676Y113790000D01*
X60160667Y113790000D01*
X60049014Y113779003D01*
X59905753Y113735546D01*
X59773724Y113664974D01*
X59657999Y113570001D01*
X59634201Y113541003D01*
X58888199Y112795000D01*
X58826061Y112795000D01*
X58626102Y112755226D01*
X58437744Y112677205D01*
X58268226Y112563937D01*
X58124063Y112419774D01*
X58010795Y112250256D01*
X57932774Y112061898D01*
X57893000Y111861939D01*
X51993000Y111861939D01*
X51993000Y120170883D01*
X53265000Y120170883D01*
X53265000Y119829117D01*
X53331675Y119493919D01*
X53462463Y119178169D01*
X53652337Y118894002D01*
X53894002Y118652337D01*
X54178169Y118462463D01*
X54493919Y118331675D01*
X54829117Y118265000D01*
X55170883Y118265000D01*
X55506081Y118331675D01*
X55821831Y118462463D01*
X56105998Y118652337D01*
X56347663Y118894002D01*
X56537537Y119178169D01*
X56668325Y119493919D01*
X56735000Y119829117D01*
X56735000Y120170883D01*
X123265000Y120170883D01*
X123265000Y119829117D01*
X123331675Y119493919D01*
X123462463Y119178169D01*
X123652337Y118894002D01*
X123894002Y118652337D01*
X124178169Y118462463D01*
X124493919Y118331675D01*
X124829117Y118265000D01*
X125170883Y118265000D01*
X125506081Y118331675D01*
X125821831Y118462463D01*
X126105998Y118652337D01*
X126347663Y118894002D01*
X126537537Y119178169D01*
X126668325Y119493919D01*
X126735000Y119829117D01*
X126735000Y120170883D01*
X126668325Y120506081D01*
X126537537Y120821831D01*
X126347663Y121105998D01*
X126105998Y121347663D01*
X125821831Y121537537D01*
X125506081Y121668325D01*
X125170883Y121735000D01*
X124829117Y121735000D01*
X124493919Y121668325D01*
X124178169Y121537537D01*
X123894002Y121347663D01*
X123652337Y121105998D01*
X123462463Y120821831D01*
X123331675Y120506081D01*
X123265000Y120170883D01*
X56735000Y120170883D01*
X56668325Y120506081D01*
X56537537Y120821831D01*
X56347663Y121105998D01*
X56105998Y121347663D01*
X55821831Y121537537D01*
X55506081Y121668325D01*
X55170883Y121735000D01*
X54829117Y121735000D01*
X54493919Y121668325D01*
X54178169Y121537537D01*
X53894002Y121347663D01*
X53652337Y121105998D01*
X53462463Y120821831D01*
X53331675Y120506081D01*
X53265000Y120170883D01*
X51993000Y120170883D01*
X51993000Y127839000D01*
X131903000Y127839000D01*
X131903001Y83724578D01*
M02*
