%FSLAX45Y45*%
G04 Gerber Fmt 4.5, Leading zero omitted, Abs format (unit mm)*
G04 Created by KiCad (PCBNEW 5.1.10) date 2021-08-29 14:41:53*
%MOMM*%
%LPD*%
G01*
G04 APERTURE LIST*
%TA.AperFunction,Profile*%
%ADD10C,0.050000*%
%TD*%
%ADD11C,0.200000*%
%ADD12C,0.300000*%
G04 APERTURE END LIST*
D10*
X2500000Y-2150000D02*
G75*
G02*
X2700000Y-1950000I200000J0D01*
G01*
X12300000Y-1950000D02*
G75*
G02*
X12500000Y-2150000I0J-200000D01*
G01*
X12500000Y-6250000D02*
G75*
G02*
X12300000Y-6450000I-200000J0D01*
G01*
X2700000Y-6450000D02*
G75*
G02*
X2500000Y-6250000I0J200000D01*
G01*
X8140700Y-2451100D02*
X8138800Y-2045250D01*
X2700000Y-1950000D02*
X8043550Y-1950000D01*
X12300000Y-1950000D02*
X11061700Y-1949450D01*
X10871200Y-2546350D02*
X8235950Y-2546350D01*
X10966450Y-2451100D02*
X10966450Y-2044700D01*
X10966450Y-2451100D02*
G75*
G02*
X10871200Y-2546350I-95250J0D01*
G01*
X8235950Y-2546350D02*
G75*
G02*
X8140700Y-2451100I0J95250D01*
G01*
X8043550Y-1950000D02*
G75*
G02*
X8138800Y-2045250I0J-95250D01*
G01*
X10966450Y-2044700D02*
G75*
G02*
X11061700Y-1949450I95250J0D01*
G01*
X12500000Y-2150000D02*
X12500000Y-6250000D01*
X2700000Y-6450000D02*
X12300000Y-6450000D01*
X2500000Y-6250000D02*
X2500000Y-2150000D01*
D11*
X6332220Y-4452620D02*
X6357620Y-4478020D01*
X6357620Y-4452620D02*
X6332220Y-4478020D01*
X6332220Y-4531360D02*
X6357620Y-4556760D01*
X6357620Y-4531360D02*
X6332220Y-4556760D01*
X6332220Y-4610100D02*
X6357620Y-4635500D01*
X6357620Y-4610100D02*
X6332220Y-4635500D01*
X6332220Y-4688840D02*
X6357620Y-4714240D01*
X6357620Y-4688840D02*
X6332220Y-4714240D01*
X6332220Y-4767580D02*
X6357620Y-4792980D01*
X6357620Y-4767580D02*
X6332220Y-4792980D01*
X6410960Y-4452620D02*
X6436360Y-4478020D01*
X6436360Y-4452620D02*
X6410960Y-4478020D01*
X6410960Y-4531360D02*
X6436360Y-4556760D01*
X6436360Y-4531360D02*
X6410960Y-4556760D01*
X6410960Y-4610100D02*
X6436360Y-4635500D01*
X6436360Y-4610100D02*
X6410960Y-4635500D01*
X6410960Y-4688840D02*
X6436360Y-4714240D01*
X6436360Y-4688840D02*
X6410960Y-4714240D01*
X6410960Y-4767580D02*
X6436360Y-4792980D01*
X6436360Y-4767580D02*
X6410960Y-4792980D01*
X6489700Y-4452620D02*
X6515100Y-4478020D01*
X6515100Y-4452620D02*
X6489700Y-4478020D01*
X6489700Y-4531360D02*
X6515100Y-4556760D01*
X6515100Y-4531360D02*
X6489700Y-4556760D01*
X6489700Y-4610100D02*
X6515100Y-4635500D01*
X6515100Y-4610100D02*
X6489700Y-4635500D01*
X6489700Y-4688840D02*
X6515100Y-4714240D01*
X6515100Y-4688840D02*
X6489700Y-4714240D01*
X6489700Y-4767580D02*
X6515100Y-4792980D01*
X6515100Y-4767580D02*
X6489700Y-4792980D01*
X6568440Y-4452620D02*
X6593840Y-4478020D01*
X6593840Y-4452620D02*
X6568440Y-4478020D01*
X6568440Y-4531360D02*
X6593840Y-4556760D01*
X6593840Y-4531360D02*
X6568440Y-4556760D01*
X6568440Y-4610100D02*
X6593840Y-4635500D01*
X6593840Y-4610100D02*
X6568440Y-4635500D01*
X6568440Y-4688840D02*
X6593840Y-4714240D01*
X6593840Y-4688840D02*
X6568440Y-4714240D01*
X6568440Y-4767580D02*
X6593840Y-4792980D01*
X6593840Y-4767580D02*
X6568440Y-4792980D01*
X6647180Y-4452620D02*
X6672580Y-4478020D01*
X6672580Y-4452620D02*
X6647180Y-4478020D01*
X6647180Y-4531360D02*
X6672580Y-4556760D01*
X6672580Y-4531360D02*
X6647180Y-4556760D01*
X6647180Y-4610100D02*
X6672580Y-4635500D01*
X6672580Y-4610100D02*
X6647180Y-4635500D01*
X6647180Y-4688840D02*
X6672580Y-4714240D01*
X6672580Y-4688840D02*
X6647180Y-4714240D01*
X6647180Y-4767580D02*
X6672580Y-4792980D01*
X6672580Y-4767580D02*
X6647180Y-4792980D01*
X9365000Y-3202000D02*
G75*
G03*
X9365000Y-3202000I-15000J0D01*
G01*
X9365000Y-3302000D02*
G75*
G03*
X9365000Y-3302000I-15000J0D01*
G01*
X9365000Y-3402000D02*
G75*
G03*
X9365000Y-3402000I-15000J0D01*
G01*
X9365000Y-3502000D02*
G75*
G03*
X9365000Y-3502000I-15000J0D01*
G01*
X9365000Y-3602000D02*
G75*
G03*
X9365000Y-3602000I-15000J0D01*
G01*
X9465000Y-3202000D02*
G75*
G03*
X9465000Y-3202000I-15000J0D01*
G01*
X9465000Y-3302000D02*
G75*
G03*
X9465000Y-3302000I-15000J0D01*
G01*
X9465000Y-3402000D02*
G75*
G03*
X9465000Y-3402000I-15000J0D01*
G01*
X9465000Y-3502000D02*
G75*
G03*
X9465000Y-3502000I-15000J0D01*
G01*
X9465000Y-3602000D02*
G75*
G03*
X9465000Y-3602000I-15000J0D01*
G01*
X9565000Y-3202000D02*
G75*
G03*
X9565000Y-3202000I-15000J0D01*
G01*
X9565000Y-3302000D02*
G75*
G03*
X9565000Y-3302000I-15000J0D01*
G01*
X9565000Y-3402000D02*
G75*
G03*
X9565000Y-3402000I-15000J0D01*
G01*
X9565000Y-3502000D02*
G75*
G03*
X9565000Y-3502000I-15000J0D01*
G01*
X9565000Y-3602000D02*
G75*
G03*
X9565000Y-3602000I-15000J0D01*
G01*
X9665000Y-3202000D02*
G75*
G03*
X9665000Y-3202000I-15000J0D01*
G01*
X9665000Y-3302000D02*
G75*
G03*
X9665000Y-3302000I-15000J0D01*
G01*
X9665000Y-3402000D02*
G75*
G03*
X9665000Y-3402000I-15000J0D01*
G01*
X9665000Y-3502000D02*
G75*
G03*
X9665000Y-3502000I-15000J0D01*
G01*
X9665000Y-3602000D02*
G75*
G03*
X9665000Y-3602000I-15000J0D01*
G01*
X9765000Y-3202000D02*
G75*
G03*
X9765000Y-3202000I-15000J0D01*
G01*
X9765000Y-3302000D02*
G75*
G03*
X9765000Y-3302000I-15000J0D01*
G01*
X9765000Y-3402000D02*
G75*
G03*
X9765000Y-3402000I-15000J0D01*
G01*
X9765000Y-3502000D02*
G75*
G03*
X9765000Y-3502000I-15000J0D01*
G01*
X9765000Y-3602000D02*
G75*
G03*
X9765000Y-3602000I-15000J0D01*
G01*
X2700000Y-3055000D02*
X2700000Y-3095000D01*
X2680000Y-3075000D02*
X2720000Y-3075000D01*
X2750000Y-4255000D02*
X2750000Y-4295000D01*
X2730000Y-4275000D02*
X2770000Y-4275000D01*
X2750000Y-4655000D02*
X2750000Y-4695000D01*
X2730000Y-4675000D02*
X2770000Y-4675000D01*
X2775000Y-5105000D02*
X2775000Y-5145000D01*
X2755000Y-5125000D02*
X2795000Y-5125000D01*
X2850000Y-2980000D02*
X2850000Y-3020000D01*
X2830000Y-3000000D02*
X2870000Y-3000000D01*
X2850000Y-3355000D02*
X2850000Y-3395000D01*
X2830000Y-3375000D02*
X2870000Y-3375000D01*
X2850000Y-3480000D02*
X2850000Y-3520000D01*
X2830000Y-3500000D02*
X2870000Y-3500000D01*
X2850000Y-4705000D02*
X2850000Y-4745000D01*
X2830000Y-4725000D02*
X2870000Y-4725000D01*
X2975000Y-2505000D02*
X2975000Y-2545000D01*
X2955000Y-2525000D02*
X2995000Y-2525000D01*
X3200000Y-4480000D02*
X3200000Y-4520000D01*
X3180000Y-4500000D02*
X3220000Y-4500000D01*
X3387700Y-3142300D02*
X3387700Y-3182300D01*
X3367700Y-3162300D02*
X3407700Y-3162300D01*
X3475000Y-4905000D02*
X3475000Y-4945000D01*
X3455000Y-4925000D02*
X3495000Y-4925000D01*
X3500000Y-4305000D02*
X3500000Y-4345000D01*
X3480000Y-4325000D02*
X3520000Y-4325000D01*
X3525000Y-5080000D02*
X3525000Y-5120000D01*
X3505000Y-5100000D02*
X3545000Y-5100000D01*
X3550000Y-2755000D02*
X3550000Y-2795000D01*
X3530000Y-2775000D02*
X3570000Y-2775000D01*
X3564500Y-5244500D02*
X3564500Y-5284500D01*
X3544500Y-5264500D02*
X3584500Y-5264500D01*
X3675000Y-2205000D02*
X3675000Y-2245000D01*
X3655000Y-2225000D02*
X3695000Y-2225000D01*
X3675000Y-2755000D02*
X3675000Y-2795000D01*
X3655000Y-2775000D02*
X3695000Y-2775000D01*
X3775000Y-3055000D02*
X3775000Y-3095000D01*
X3755000Y-3075000D02*
X3795000Y-3075000D01*
X3775000Y-3205000D02*
X3775000Y-3245000D01*
X3755000Y-3225000D02*
X3795000Y-3225000D01*
X3825000Y-2755000D02*
X3825000Y-2795000D01*
X3805000Y-2775000D02*
X3845000Y-2775000D01*
X3975000Y-4005000D02*
X3975000Y-4045000D01*
X3955000Y-4025000D02*
X3995000Y-4025000D01*
X3975000Y-4280000D02*
X3975000Y-4320000D01*
X3955000Y-4300000D02*
X3995000Y-4300000D01*
X4075000Y-3030000D02*
X4075000Y-3070000D01*
X4055000Y-3050000D02*
X4095000Y-3050000D01*
X4100000Y-2730000D02*
X4100000Y-2770000D01*
X4080000Y-2750000D02*
X4120000Y-2750000D01*
X4275000Y-5705000D02*
X4275000Y-5745000D01*
X4255000Y-5725000D02*
X4295000Y-5725000D01*
X4350000Y-3780000D02*
X4350000Y-3820000D01*
X4330000Y-3800000D02*
X4370000Y-3800000D01*
X4350000Y-4030000D02*
X4350000Y-4070000D01*
X4330000Y-4050000D02*
X4370000Y-4050000D01*
X4425000Y-5355000D02*
X4425000Y-5395000D01*
X4405000Y-5375000D02*
X4445000Y-5375000D01*
X4450000Y-4205000D02*
X4450000Y-4245000D01*
X4430000Y-4225000D02*
X4470000Y-4225000D01*
X4475000Y-5705000D02*
X4475000Y-5745000D01*
X4455000Y-5725000D02*
X4495000Y-5725000D01*
X4525000Y-4405000D02*
X4525000Y-4445000D01*
X4505000Y-4425000D02*
X4545000Y-4425000D01*
X4530076Y-3161715D02*
X4530076Y-3201715D01*
X4510076Y-3181715D02*
X4550076Y-3181715D01*
X4550000Y-3455000D02*
X4550000Y-3495000D01*
X4530000Y-3475000D02*
X4570000Y-3475000D01*
X4550000Y-5055000D02*
X4550000Y-5095000D01*
X4530000Y-5075000D02*
X4570000Y-5075000D01*
X4625000Y-3030000D02*
X4625000Y-3070000D01*
X4605000Y-3050000D02*
X4645000Y-3050000D01*
X4625000Y-4005000D02*
X4625000Y-4045000D01*
X4605000Y-4025000D02*
X4645000Y-4025000D01*
X4750000Y-5430000D02*
X4750000Y-5470000D01*
X4730000Y-5450000D02*
X4770000Y-5450000D01*
X4850000Y-3380000D02*
X4850000Y-3420000D01*
X4830000Y-3400000D02*
X4870000Y-3400000D01*
X4850000Y-5680000D02*
X4850000Y-5720000D01*
X4830000Y-5700000D02*
X4870000Y-5700000D01*
X4925000Y-4705000D02*
X4925000Y-4745000D01*
X4905000Y-4725000D02*
X4945000Y-4725000D01*
X4925000Y-4930000D02*
X4925000Y-4970000D01*
X4905000Y-4950000D02*
X4945000Y-4950000D01*
X5000000Y-3380000D02*
X5000000Y-3420000D01*
X4980000Y-3400000D02*
X5020000Y-3400000D01*
X5025000Y-3180000D02*
X5025000Y-3220000D01*
X5005000Y-3200000D02*
X5045000Y-3200000D01*
X5100000Y-3380000D02*
X5100000Y-3420000D01*
X5080000Y-3400000D02*
X5120000Y-3400000D01*
X5200000Y-3780000D02*
X5200000Y-3820000D01*
X5180000Y-3800000D02*
X5220000Y-3800000D01*
X5225000Y-3380000D02*
X5225000Y-3420000D01*
X5205000Y-3400000D02*
X5245000Y-3400000D01*
X5262928Y-4684762D02*
X5262928Y-4724762D01*
X5242928Y-4704762D02*
X5282928Y-4704762D01*
X5275000Y-4780000D02*
X5275000Y-4820000D01*
X5255000Y-4800000D02*
X5295000Y-4800000D01*
X5300000Y-3730000D02*
X5300000Y-3770000D01*
X5280000Y-3750000D02*
X5320000Y-3750000D01*
X5300000Y-4564000D02*
X5300000Y-4604000D01*
X5280000Y-4584000D02*
X5320000Y-4584000D01*
X5350000Y-4946400D02*
X5350000Y-4986400D01*
X5330000Y-4966400D02*
X5370000Y-4966400D01*
X5380000Y-3300000D02*
X5380000Y-3340000D01*
X5360000Y-3320000D02*
X5400000Y-3320000D01*
X5380000Y-3540000D02*
X5380000Y-3580000D01*
X5360000Y-3560000D02*
X5400000Y-3560000D01*
X5400000Y-5905000D02*
X5400000Y-5945000D01*
X5380000Y-5925000D02*
X5420000Y-5925000D01*
X5439669Y-4540410D02*
X5439669Y-4580410D01*
X5419669Y-4560410D02*
X5459669Y-4560410D01*
X5440000Y-3180000D02*
X5440000Y-3220000D01*
X5420000Y-3200000D02*
X5460000Y-3200000D01*
X5440000Y-3420000D02*
X5440000Y-3460000D01*
X5420000Y-3440000D02*
X5460000Y-3440000D01*
X5450000Y-2180000D02*
X5450000Y-2220000D01*
X5430000Y-2200000D02*
X5470000Y-2200000D01*
X5525000Y-5480000D02*
X5525000Y-5520000D01*
X5505000Y-5500000D02*
X5545000Y-5500000D01*
X5525000Y-5580000D02*
X5525000Y-5620000D01*
X5505000Y-5600000D02*
X5545000Y-5600000D01*
X5543800Y-4661200D02*
X5543800Y-4701200D01*
X5523800Y-4681200D02*
X5563800Y-4681200D01*
X5560000Y-3120000D02*
X5560000Y-3160000D01*
X5540000Y-3140000D02*
X5580000Y-3140000D01*
X5680000Y-3180000D02*
X5680000Y-3220000D01*
X5660000Y-3200000D02*
X5700000Y-3200000D01*
X5700000Y-5680000D02*
X5700000Y-5720000D01*
X5680000Y-5700000D02*
X5720000Y-5700000D01*
X5700000Y-5780000D02*
X5700000Y-5820000D01*
X5680000Y-5800000D02*
X5720000Y-5800000D01*
X5750000Y-2230000D02*
X5750000Y-2270000D01*
X5730000Y-2250000D02*
X5770000Y-2250000D01*
X5750000Y-2805000D02*
X5750000Y-2845000D01*
X5730000Y-2825000D02*
X5770000Y-2825000D01*
X5780000Y-3120000D02*
X5780000Y-3160000D01*
X5760000Y-3140000D02*
X5800000Y-3140000D01*
X5825000Y-5680000D02*
X5825000Y-5720000D01*
X5805000Y-5700000D02*
X5845000Y-5700000D01*
X5825000Y-5780000D02*
X5825000Y-5820000D01*
X5805000Y-5800000D02*
X5845000Y-5800000D01*
X5825000Y-5880000D02*
X5825000Y-5920000D01*
X5805000Y-5900000D02*
X5845000Y-5900000D01*
X5849678Y-4689440D02*
X5849678Y-4729440D01*
X5829678Y-4709440D02*
X5869678Y-4709440D01*
X5850000Y-2355000D02*
X5850000Y-2395000D01*
X5830000Y-2375000D02*
X5870000Y-2375000D01*
X5850000Y-2605000D02*
X5850000Y-2645000D01*
X5830000Y-2625000D02*
X5870000Y-2625000D01*
X5860100Y-4590100D02*
X5860100Y-4630100D01*
X5840100Y-4610100D02*
X5880100Y-4610100D01*
X5880000Y-3180000D02*
X5880000Y-3220000D01*
X5860000Y-3200000D02*
X5900000Y-3200000D01*
X5931470Y-4739699D02*
X5931470Y-4779699D01*
X5911470Y-4759699D02*
X5951470Y-4759699D01*
X5950000Y-5905000D02*
X5950000Y-5945000D01*
X5930000Y-5925000D02*
X5970000Y-5925000D01*
X6025000Y-3080000D02*
X6025000Y-3120000D01*
X6005000Y-3100000D02*
X6045000Y-3100000D01*
X6027675Y-4513703D02*
X6027675Y-4553703D01*
X6007675Y-4533703D02*
X6047675Y-4533703D01*
X6032626Y-4335974D02*
X6032626Y-4375974D01*
X6012626Y-4355974D02*
X6052626Y-4355974D01*
X6045200Y-4844100D02*
X6045200Y-4884100D01*
X6025200Y-4864100D02*
X6065200Y-4864100D01*
X6050000Y-2309000D02*
X6050000Y-2349000D01*
X6030000Y-2329000D02*
X6070000Y-2329000D01*
X6050000Y-2405000D02*
X6050000Y-2445000D01*
X6030000Y-2425000D02*
X6070000Y-2425000D01*
X6050000Y-2505000D02*
X6050000Y-2545000D01*
X6030000Y-2525000D02*
X6070000Y-2525000D01*
X6050000Y-2655000D02*
X6050000Y-2695000D01*
X6030000Y-2675000D02*
X6070000Y-2675000D01*
X6050000Y-3955000D02*
X6050000Y-3995000D01*
X6030000Y-3975000D02*
X6070000Y-3975000D01*
X6060000Y-3440000D02*
X6060000Y-3480000D01*
X6040000Y-3460000D02*
X6080000Y-3460000D01*
X6075000Y-3880000D02*
X6075000Y-3920000D01*
X6055000Y-3900000D02*
X6095000Y-3900000D01*
X6075000Y-5905000D02*
X6075000Y-5945000D01*
X6055000Y-5925000D02*
X6095000Y-5925000D01*
X6120000Y-3320000D02*
X6120000Y-3360000D01*
X6100000Y-3340000D02*
X6140000Y-3340000D01*
X6175000Y-3080000D02*
X6175000Y-3120000D01*
X6155000Y-3100000D02*
X6195000Y-3100000D01*
X6175000Y-3880000D02*
X6175000Y-3920000D01*
X6155000Y-3900000D02*
X6195000Y-3900000D01*
X6201553Y-3656553D02*
X6201553Y-3696553D01*
X6181553Y-3676553D02*
X6221553Y-3676553D01*
X6225000Y-5905000D02*
X6225000Y-5945000D01*
X6205000Y-5925000D02*
X6245000Y-5925000D01*
X6275000Y-6005000D02*
X6275000Y-6045000D01*
X6255000Y-6025000D02*
X6295000Y-6025000D01*
X6299200Y-3880800D02*
X6299200Y-3920800D01*
X6279200Y-3900800D02*
X6319200Y-3900800D01*
X6300000Y-5705000D02*
X6300000Y-5745000D01*
X6280000Y-5725000D02*
X6320000Y-5725000D01*
X6300000Y-5830000D02*
X6300000Y-5870000D01*
X6280000Y-5850000D02*
X6320000Y-5850000D01*
X6375000Y-2530000D02*
X6375000Y-2570000D01*
X6355000Y-2550000D02*
X6395000Y-2550000D01*
X6375000Y-3005000D02*
X6375000Y-3045000D01*
X6355000Y-3025000D02*
X6395000Y-3025000D01*
X6375000Y-3180000D02*
X6375000Y-3220000D01*
X6355000Y-3200000D02*
X6395000Y-3200000D01*
X6385400Y-3669600D02*
X6385400Y-3709600D01*
X6365400Y-3689600D02*
X6405400Y-3689600D01*
X6400000Y-3755000D02*
X6400000Y-3795000D01*
X6380000Y-3775000D02*
X6420000Y-3775000D01*
X6436728Y-5138466D02*
X6436728Y-5178466D01*
X6416728Y-5158466D02*
X6456728Y-5158466D01*
X6448232Y-2081768D02*
X6448232Y-2121768D01*
X6428232Y-2101768D02*
X6468232Y-2101768D01*
X6481600Y-3982822D02*
X6481600Y-4022822D01*
X6461600Y-4002822D02*
X6501600Y-4002822D01*
X6512399Y-4082100D02*
X6512399Y-4122100D01*
X6492399Y-4102100D02*
X6532399Y-4102100D01*
X6550000Y-5805000D02*
X6550000Y-5845000D01*
X6530000Y-5825000D02*
X6570000Y-5825000D01*
X6550000Y-6005000D02*
X6550000Y-6045000D01*
X6530000Y-6025000D02*
X6570000Y-6025000D01*
X6594920Y-3305000D02*
X6594920Y-3345000D01*
X6574920Y-3325000D02*
X6614920Y-3325000D01*
X6604164Y-4052098D02*
X6604164Y-4092098D01*
X6584164Y-4072098D02*
X6624164Y-4072098D01*
X6675000Y-5630000D02*
X6675000Y-5670000D01*
X6655000Y-5650000D02*
X6695000Y-5650000D01*
X6680200Y-3399800D02*
X6680200Y-3439800D01*
X6660200Y-3419800D02*
X6700200Y-3419800D01*
X6680200Y-3993200D02*
X6680200Y-4033200D01*
X6660200Y-4013200D02*
X6700200Y-4013200D01*
X6700000Y-2205000D02*
X6700000Y-2245000D01*
X6680000Y-2225000D02*
X6720000Y-2225000D01*
X6725000Y-3055000D02*
X6725000Y-3095000D01*
X6705000Y-3075000D02*
X6745000Y-3075000D01*
X6725000Y-5830000D02*
X6725000Y-5870000D01*
X6705000Y-5850000D02*
X6745000Y-5850000D01*
X6760400Y-3669600D02*
X6760400Y-3709600D01*
X6740400Y-3689600D02*
X6780400Y-3689600D01*
X6775000Y-3555000D02*
X6775000Y-3595000D01*
X6755000Y-3575000D02*
X6795000Y-3575000D01*
X6775000Y-5730000D02*
X6775000Y-5770000D01*
X6755000Y-5750000D02*
X6795000Y-5750000D01*
X6794400Y-5510600D02*
X6794400Y-5550600D01*
X6774400Y-5530600D02*
X6814400Y-5530600D01*
X6794500Y-5113300D02*
X6794500Y-5153300D01*
X6774500Y-5133300D02*
X6814500Y-5133300D01*
X6807200Y-4196400D02*
X6807200Y-4236400D01*
X6787200Y-4216400D02*
X6827200Y-4216400D01*
X6825000Y-3780000D02*
X6825000Y-3820000D01*
X6805000Y-3800000D02*
X6845000Y-3800000D01*
X6845174Y-4933126D02*
X6845174Y-4973126D01*
X6825174Y-4953126D02*
X6865174Y-4953126D01*
X6850000Y-3105000D02*
X6850000Y-3145000D01*
X6830000Y-3125000D02*
X6870000Y-3125000D01*
X6850000Y-3555000D02*
X6850000Y-3595000D01*
X6830000Y-3575000D02*
X6870000Y-3575000D01*
X6854000Y-3925100D02*
X6854000Y-3965100D01*
X6834000Y-3945100D02*
X6874000Y-3945100D01*
X6865900Y-5630000D02*
X6865900Y-5670000D01*
X6845900Y-5650000D02*
X6885900Y-5650000D01*
X7071749Y-3559877D02*
X7071749Y-3599877D01*
X7051749Y-3579877D02*
X7091749Y-3579877D01*
X7073900Y-4907600D02*
X7073900Y-4947600D01*
X7053900Y-4927600D02*
X7093900Y-4927600D01*
X7075000Y-2727868D02*
X7075000Y-2767868D01*
X7055000Y-2747868D02*
X7095000Y-2747868D01*
X7099300Y-4582200D02*
X7099300Y-4622200D01*
X7079300Y-4602200D02*
X7119300Y-4602200D01*
X7099300Y-4729800D02*
X7099300Y-4769800D01*
X7079300Y-4749800D02*
X7119300Y-4749800D01*
X7100000Y-3180000D02*
X7100000Y-3220000D01*
X7080000Y-3200000D02*
X7120000Y-3200000D01*
X7125000Y-3480000D02*
X7125000Y-3520000D01*
X7105000Y-3500000D02*
X7145000Y-3500000D01*
X7137400Y-4420200D02*
X7137400Y-4460200D01*
X7117400Y-4440200D02*
X7157400Y-4440200D01*
X7138794Y-4272600D02*
X7138794Y-4312600D01*
X7118794Y-4292600D02*
X7158794Y-4292600D01*
X7147255Y-4007745D02*
X7147255Y-4047745D01*
X7127255Y-4027745D02*
X7167255Y-4027745D01*
X7150000Y-5930000D02*
X7150000Y-5970000D01*
X7130000Y-5950000D02*
X7170000Y-5950000D01*
X7169794Y-4647366D02*
X7169794Y-4687366D01*
X7149794Y-4667366D02*
X7189794Y-4667366D01*
X7200409Y-4105000D02*
X7200409Y-4145000D01*
X7180409Y-4125000D02*
X7220409Y-4125000D01*
X7225000Y-3880000D02*
X7225000Y-3920000D01*
X7205000Y-3900000D02*
X7245000Y-3900000D01*
X7250000Y-3630000D02*
X7250000Y-3670000D01*
X7230000Y-3650000D02*
X7270000Y-3650000D01*
X7250000Y-3730000D02*
X7250000Y-3770000D01*
X7230000Y-3750000D02*
X7270000Y-3750000D01*
X7300000Y-5684000D02*
X7300000Y-5724000D01*
X7280000Y-5704000D02*
X7320000Y-5704000D01*
X7300000Y-6030000D02*
X7300000Y-6070000D01*
X7280000Y-6050000D02*
X7320000Y-6050000D01*
X7350000Y-3830000D02*
X7350000Y-3870000D01*
X7330000Y-3850000D02*
X7370000Y-3850000D01*
X7350000Y-5830000D02*
X7350000Y-5870000D01*
X7330000Y-5850000D02*
X7370000Y-5850000D01*
X7375000Y-2880000D02*
X7375000Y-2920000D01*
X7355000Y-2900000D02*
X7395000Y-2900000D01*
X7400000Y-2580000D02*
X7400000Y-2620000D01*
X7380000Y-2600000D02*
X7420000Y-2600000D01*
X7400205Y-3129795D02*
X7400205Y-3169795D01*
X7380205Y-3149795D02*
X7420205Y-3149795D01*
X7425000Y-4155000D02*
X7425000Y-4195000D01*
X7405000Y-4175000D02*
X7445000Y-4175000D01*
X7425000Y-4380000D02*
X7425000Y-4420000D01*
X7405000Y-4400000D02*
X7445000Y-4400000D01*
X7426787Y-5330000D02*
X7426787Y-5370000D01*
X7406787Y-5350000D02*
X7446787Y-5350000D01*
X7450000Y-4605000D02*
X7450000Y-4645000D01*
X7430000Y-4625000D02*
X7470000Y-4625000D01*
X7450000Y-4830000D02*
X7450000Y-4870000D01*
X7430000Y-4850000D02*
X7470000Y-4850000D01*
X7500000Y-2855000D02*
X7500000Y-2895000D01*
X7480000Y-2875000D02*
X7520000Y-2875000D01*
X7525000Y-5830000D02*
X7525000Y-5870000D01*
X7505000Y-5850000D02*
X7545000Y-5850000D01*
X7525000Y-5930000D02*
X7525000Y-5970000D01*
X7505000Y-5950000D02*
X7545000Y-5950000D01*
X7544889Y-5605000D02*
X7544889Y-5645000D01*
X7524889Y-5625000D02*
X7564889Y-5625000D01*
X7544889Y-5680000D02*
X7544889Y-5720000D01*
X7524889Y-5700000D02*
X7564889Y-5700000D01*
X7600000Y-3955000D02*
X7600000Y-3995000D01*
X7580000Y-3975000D02*
X7620000Y-3975000D01*
X7600000Y-4180000D02*
X7600000Y-4220000D01*
X7580000Y-4200000D02*
X7620000Y-4200000D01*
X7600000Y-4405000D02*
X7600000Y-4445000D01*
X7580000Y-4425000D02*
X7620000Y-4425000D01*
X7600000Y-4630000D02*
X7600000Y-4670000D01*
X7580000Y-4650000D02*
X7620000Y-4650000D01*
X7600000Y-4855000D02*
X7600000Y-4895000D01*
X7580000Y-4875000D02*
X7620000Y-4875000D01*
X7600000Y-5030000D02*
X7600000Y-5070000D01*
X7580000Y-5050000D02*
X7620000Y-5050000D01*
X7600000Y-6255000D02*
X7600000Y-6295000D01*
X7580000Y-6275000D02*
X7620000Y-6275000D01*
X7650205Y-2704795D02*
X7650205Y-2744795D01*
X7630205Y-2724795D02*
X7670205Y-2724795D01*
X7675000Y-4505000D02*
X7675000Y-4545000D01*
X7655000Y-4525000D02*
X7695000Y-4525000D01*
X7700000Y-4955000D02*
X7700000Y-4995000D01*
X7680000Y-4975000D02*
X7720000Y-4975000D01*
X7724684Y-3530738D02*
X7724684Y-3570738D01*
X7704684Y-3550738D02*
X7744684Y-3550738D01*
X7750000Y-3255000D02*
X7750000Y-3295000D01*
X7730000Y-3275000D02*
X7770000Y-3275000D01*
X7750000Y-4330000D02*
X7750000Y-4370000D01*
X7730000Y-4350000D02*
X7770000Y-4350000D01*
X7750000Y-6280000D02*
X7750000Y-6320000D01*
X7730000Y-6300000D02*
X7770000Y-6300000D01*
X7762500Y-3442500D02*
X7762500Y-3482500D01*
X7742500Y-3462500D02*
X7782500Y-3462500D01*
X7775000Y-4155000D02*
X7775000Y-4195000D01*
X7755000Y-4175000D02*
X7795000Y-4175000D01*
X7800000Y-5505000D02*
X7800000Y-5545000D01*
X7780000Y-5525000D02*
X7820000Y-5525000D01*
X7821000Y-5830000D02*
X7821000Y-5870000D01*
X7801000Y-5850000D02*
X7841000Y-5850000D01*
X7869169Y-3046035D02*
X7869169Y-3086035D01*
X7849169Y-3066035D02*
X7889169Y-3066035D01*
X7874000Y-4330000D02*
X7874000Y-4370000D01*
X7854000Y-4350000D02*
X7894000Y-4350000D01*
X7875000Y-4230000D02*
X7875000Y-4270000D01*
X7855000Y-4250000D02*
X7895000Y-4250000D01*
X7875000Y-4455000D02*
X7875000Y-4495000D01*
X7855000Y-4475000D02*
X7895000Y-4475000D01*
X7900000Y-5280000D02*
X7900000Y-5320000D01*
X7880000Y-5300000D02*
X7920000Y-5300000D01*
X7900000Y-5730000D02*
X7900000Y-5770000D01*
X7880000Y-5750000D02*
X7920000Y-5750000D01*
X7921511Y-3126511D02*
X7921511Y-3166511D01*
X7901511Y-3146511D02*
X7941511Y-3146511D01*
X7950000Y-3505000D02*
X7950000Y-3545000D01*
X7930000Y-3525000D02*
X7970000Y-3525000D01*
X7987705Y-2842295D02*
X7987705Y-2882295D01*
X7967705Y-2862295D02*
X8007705Y-2862295D01*
X8000000Y-2755000D02*
X8000000Y-2795000D01*
X7980000Y-2775000D02*
X8020000Y-2775000D01*
X8000000Y-3255000D02*
X8000000Y-3295000D01*
X7980000Y-3275000D02*
X8020000Y-3275000D01*
X8000000Y-4455000D02*
X8000000Y-4495000D01*
X7980000Y-4475000D02*
X8020000Y-4475000D01*
X8000000Y-5169000D02*
X8000000Y-5209000D01*
X7980000Y-5189000D02*
X8020000Y-5189000D01*
X8024017Y-5984913D02*
X8024017Y-6024913D01*
X8004017Y-6004913D02*
X8044017Y-6004913D01*
X8050000Y-4555000D02*
X8050000Y-4595000D01*
X8030000Y-4575000D02*
X8070000Y-4575000D01*
X8054000Y-4655000D02*
X8054000Y-4695000D01*
X8034000Y-4675000D02*
X8074000Y-4675000D01*
X8099000Y-5730000D02*
X8099000Y-5770000D01*
X8079000Y-5750000D02*
X8119000Y-5750000D01*
X8150000Y-3205000D02*
X8150000Y-3245000D01*
X8130000Y-3225000D02*
X8170000Y-3225000D01*
X8150000Y-5555000D02*
X8150000Y-5595000D01*
X8130000Y-5575000D02*
X8170000Y-5575000D01*
X8170000Y-5035000D02*
X8170000Y-5075000D01*
X8150000Y-5055000D02*
X8190000Y-5055000D01*
X8215334Y-2850823D02*
X8215334Y-2890823D01*
X8195334Y-2870823D02*
X8235334Y-2870823D01*
X8233776Y-5986000D02*
X8233776Y-6026000D01*
X8213776Y-6006000D02*
X8253776Y-6006000D01*
X8265152Y-6076728D02*
X8265152Y-6116728D01*
X8245152Y-6096728D02*
X8285152Y-6096728D01*
X8275000Y-4505000D02*
X8275000Y-4545000D01*
X8255000Y-4525000D02*
X8295000Y-4525000D01*
X8300000Y-4255000D02*
X8300000Y-4295000D01*
X8280000Y-4275000D02*
X8320000Y-4275000D01*
X8300000Y-4355000D02*
X8300000Y-4395000D01*
X8280000Y-4375000D02*
X8320000Y-4375000D01*
X8329776Y-5985756D02*
X8329776Y-6025756D01*
X8309776Y-6005756D02*
X8349776Y-6005756D01*
X8362500Y-4917500D02*
X8362500Y-4957500D01*
X8342500Y-4937500D02*
X8382500Y-4937500D01*
X8375000Y-4655000D02*
X8375000Y-4695000D01*
X8355000Y-4675000D02*
X8395000Y-4675000D01*
X8400000Y-2705000D02*
X8400000Y-2745000D01*
X8380000Y-2725000D02*
X8420000Y-2725000D01*
X8425000Y-3180000D02*
X8425000Y-3220000D01*
X8405000Y-3200000D02*
X8445000Y-3200000D01*
X8447999Y-6076728D02*
X8447999Y-6116728D01*
X8427999Y-6096728D02*
X8467999Y-6096728D01*
X8449795Y-5679795D02*
X8449795Y-5719795D01*
X8429795Y-5699795D02*
X8469795Y-5699795D01*
X8503298Y-5600086D02*
X8503298Y-5640086D01*
X8483298Y-5620086D02*
X8523298Y-5620086D01*
X8504877Y-2676749D02*
X8504877Y-2716749D01*
X8484877Y-2696749D02*
X8524877Y-2696749D01*
X8549000Y-5985857D02*
X8549000Y-6025857D01*
X8529000Y-6005857D02*
X8569000Y-6005857D01*
X8575205Y-5505205D02*
X8575205Y-5545205D01*
X8555205Y-5525205D02*
X8595205Y-5525205D01*
X8600000Y-6280000D02*
X8600000Y-6320000D01*
X8580000Y-6300000D02*
X8620000Y-6300000D01*
X8700000Y-6280000D02*
X8700000Y-6320000D01*
X8680000Y-6300000D02*
X8720000Y-6300000D01*
X8730917Y-5398674D02*
X8730917Y-5438674D01*
X8710917Y-5418674D02*
X8750917Y-5418674D01*
X8742268Y-6012732D02*
X8742268Y-6052732D01*
X8722268Y-6032732D02*
X8762268Y-6032732D01*
X8775205Y-5313500D02*
X8775205Y-5353500D01*
X8755205Y-5333500D02*
X8795205Y-5333500D01*
X8849655Y-5979936D02*
X8849655Y-6019936D01*
X8829655Y-5999936D02*
X8869655Y-5999936D01*
X8873868Y-4535906D02*
X8873868Y-4575906D01*
X8853868Y-4555906D02*
X8893868Y-4555906D01*
X8879000Y-4430000D02*
X8879000Y-4470000D01*
X8859000Y-4450000D02*
X8899000Y-4450000D01*
X8900000Y-2855000D02*
X8900000Y-2895000D01*
X8880000Y-2875000D02*
X8920000Y-2875000D01*
X8900000Y-5722000D02*
X8900000Y-5762000D01*
X8880000Y-5742000D02*
X8920000Y-5742000D01*
X8900000Y-6280000D02*
X8900000Y-6320000D01*
X8880000Y-6300000D02*
X8920000Y-6300000D01*
X8900000Y-2740165D02*
X8900000Y-2780165D01*
X8880000Y-2760165D02*
X8920000Y-2760165D01*
X8950000Y-4080000D02*
X8950000Y-4120000D01*
X8930000Y-4100000D02*
X8970000Y-4100000D01*
X8995459Y-5732182D02*
X8995459Y-5772182D01*
X8975459Y-5752182D02*
X9015459Y-5752182D01*
X9000000Y-3355000D02*
X9000000Y-3395000D01*
X8980000Y-3375000D02*
X9020000Y-3375000D01*
X9000000Y-3530000D02*
X9000000Y-3570000D01*
X8980000Y-3550000D02*
X9020000Y-3550000D01*
X9000000Y-3830000D02*
X9000000Y-3870000D01*
X8980000Y-3850000D02*
X9020000Y-3850000D01*
X9025000Y-5955000D02*
X9025000Y-5995000D01*
X9005000Y-5975000D02*
X9045000Y-5975000D01*
X9042000Y-2763501D02*
X9042000Y-2803501D01*
X9022000Y-2783501D02*
X9062000Y-2783501D01*
X9053010Y-5809019D02*
X9053010Y-5849019D01*
X9033010Y-5829019D02*
X9073010Y-5829019D01*
X9150000Y-4280000D02*
X9150000Y-4320000D01*
X9130000Y-4300000D02*
X9170000Y-4300000D01*
X9150000Y-4430000D02*
X9150000Y-4470000D01*
X9130000Y-4450000D02*
X9170000Y-4450000D01*
X9150000Y-4580000D02*
X9150000Y-4620000D01*
X9130000Y-4600000D02*
X9170000Y-4600000D01*
X9225205Y-2980205D02*
X9225205Y-3020205D01*
X9205205Y-3000205D02*
X9245205Y-3000205D01*
X9229000Y-4201000D02*
X9229000Y-4241000D01*
X9209000Y-4221000D02*
X9249000Y-4221000D01*
X9237323Y-5609000D02*
X9237323Y-5649000D01*
X9217323Y-5629000D02*
X9257323Y-5629000D01*
X9300000Y-5530000D02*
X9300000Y-5570000D01*
X9280000Y-5550000D02*
X9320000Y-5550000D01*
X9350000Y-4105000D02*
X9350000Y-4145000D01*
X9330000Y-4125000D02*
X9370000Y-4125000D01*
X9450000Y-4580000D02*
X9450000Y-4620000D01*
X9430000Y-4600000D02*
X9470000Y-4600000D01*
X9450000Y-5480000D02*
X9450000Y-5520000D01*
X9430000Y-5500000D02*
X9470000Y-5500000D01*
X9600000Y-5430000D02*
X9600000Y-5470000D01*
X9580000Y-5450000D02*
X9620000Y-5450000D01*
X9749795Y-5380205D02*
X9749795Y-5420205D01*
X9729795Y-5400205D02*
X9769795Y-5400205D01*
X9750000Y-4530000D02*
X9750000Y-4570000D01*
X9730000Y-4550000D02*
X9770000Y-4550000D01*
X9806000Y-6155000D02*
X9806000Y-6195000D01*
X9786000Y-6175000D02*
X9826000Y-6175000D01*
X9853066Y-5957520D02*
X9853066Y-5997520D01*
X9833066Y-5977520D02*
X9873066Y-5977520D01*
X9899795Y-5280205D02*
X9899795Y-5320205D01*
X9879795Y-5300205D02*
X9919795Y-5300205D01*
X9900000Y-4780000D02*
X9900000Y-4820000D01*
X9880000Y-4800000D02*
X9920000Y-4800000D01*
X9950297Y-5960930D02*
X9950297Y-6000930D01*
X9930297Y-5980930D02*
X9970297Y-5980930D01*
X10000000Y-2880000D02*
X10000000Y-2920000D01*
X9980000Y-2900000D02*
X10020000Y-2900000D01*
X10000000Y-4630000D02*
X10000000Y-4670000D01*
X9980000Y-4650000D02*
X10020000Y-4650000D01*
X10049520Y-5956068D02*
X10049520Y-5996068D01*
X10029520Y-5976068D02*
X10069520Y-5976068D01*
X10050000Y-4830000D02*
X10050000Y-4870000D01*
X10030000Y-4850000D02*
X10070000Y-4850000D01*
X10150000Y-5980000D02*
X10150000Y-6020000D01*
X10130000Y-6000000D02*
X10170000Y-6000000D01*
X10200000Y-4980000D02*
X10200000Y-5020000D01*
X10180000Y-5000000D02*
X10220000Y-5000000D01*
X10225000Y-4430000D02*
X10225000Y-4470000D01*
X10205000Y-4450000D02*
X10245000Y-4450000D01*
X10250000Y-3130000D02*
X10250000Y-3170000D01*
X10230000Y-3150000D02*
X10270000Y-3150000D01*
X10250000Y-3255000D02*
X10250000Y-3295000D01*
X10230000Y-3275000D02*
X10270000Y-3275000D01*
X10250000Y-3505000D02*
X10250000Y-3545000D01*
X10230000Y-3525000D02*
X10270000Y-3525000D01*
X10258459Y-5251000D02*
X10258459Y-5291000D01*
X10238459Y-5271000D02*
X10278459Y-5271000D01*
X10275000Y-2655000D02*
X10275000Y-2695000D01*
X10255000Y-2675000D02*
X10295000Y-2675000D01*
X10306000Y-5335969D02*
X10306000Y-5375969D01*
X10286000Y-5355969D02*
X10326000Y-5355969D01*
X10350000Y-5080000D02*
X10350000Y-5120000D01*
X10330000Y-5100000D02*
X10370000Y-5100000D01*
X10356000Y-5430000D02*
X10356000Y-5470000D01*
X10336000Y-5450000D02*
X10376000Y-5450000D01*
X10450000Y-5380000D02*
X10450000Y-5420000D01*
X10430000Y-5400000D02*
X10470000Y-5400000D01*
X10500205Y-5179795D02*
X10500205Y-5219795D01*
X10480205Y-5199795D02*
X10520205Y-5199795D01*
X10599795Y-5129795D02*
X10599795Y-5169795D01*
X10579795Y-5149795D02*
X10619795Y-5149795D01*
X10650000Y-5480000D02*
X10650000Y-5520000D01*
X10630000Y-5500000D02*
X10670000Y-5500000D01*
X10700000Y-2655000D02*
X10700000Y-2695000D01*
X10680000Y-2675000D02*
X10720000Y-2675000D01*
X10700000Y-5980000D02*
X10700000Y-6020000D01*
X10680000Y-6000000D02*
X10720000Y-6000000D01*
X10717882Y-5547882D02*
X10717882Y-5587882D01*
X10697882Y-5567882D02*
X10737882Y-5567882D01*
X10750000Y-3155000D02*
X10750000Y-3195000D01*
X10730000Y-3175000D02*
X10770000Y-3175000D01*
X10752850Y-5637288D02*
X10752850Y-5677288D01*
X10732850Y-5657288D02*
X10772850Y-5657288D01*
X10765000Y-4215000D02*
X10765000Y-4255000D01*
X10745000Y-4235000D02*
X10785000Y-4235000D01*
X10825000Y-2855000D02*
X10825000Y-2895000D01*
X10805000Y-2875000D02*
X10845000Y-2875000D01*
X10825000Y-3255000D02*
X10825000Y-3295000D01*
X10805000Y-3275000D02*
X10845000Y-3275000D01*
X10883393Y-5513802D02*
X10883393Y-5553802D01*
X10863393Y-5533802D02*
X10903393Y-5533802D01*
X10900000Y-5705000D02*
X10900000Y-5745000D01*
X10880000Y-5725000D02*
X10920000Y-5725000D01*
X10950000Y-2955000D02*
X10950000Y-2995000D01*
X10930000Y-2975000D02*
X10970000Y-2975000D01*
X10975000Y-5980000D02*
X10975000Y-6020000D01*
X10955000Y-6000000D02*
X10995000Y-6000000D01*
X11100000Y-5505000D02*
X11100000Y-5545000D01*
X11080000Y-5525000D02*
X11120000Y-5525000D01*
X11104000Y-4555000D02*
X11104000Y-4595000D01*
X11084000Y-4575000D02*
X11124000Y-4575000D01*
X11150000Y-4805000D02*
X11150000Y-4845000D01*
X11130000Y-4825000D02*
X11170000Y-4825000D01*
X11150000Y-5030000D02*
X11150000Y-5070000D01*
X11130000Y-5050000D02*
X11170000Y-5050000D01*
X11150000Y-5230000D02*
X11150000Y-5270000D01*
X11130000Y-5250000D02*
X11170000Y-5250000D01*
X11175000Y-5980000D02*
X11175000Y-6020000D01*
X11155000Y-6000000D02*
X11195000Y-6000000D01*
X11275000Y-4630000D02*
X11275000Y-4670000D01*
X11255000Y-4650000D02*
X11295000Y-4650000D01*
X11300000Y-3980000D02*
X11300000Y-4020000D01*
X11280000Y-4000000D02*
X11320000Y-4000000D01*
X11300000Y-5230000D02*
X11300000Y-5270000D01*
X11280000Y-5250000D02*
X11320000Y-5250000D01*
X11300000Y-5655000D02*
X11300000Y-5695000D01*
X11280000Y-5675000D02*
X11320000Y-5675000D01*
X11325000Y-4805000D02*
X11325000Y-4845000D01*
X11305000Y-4825000D02*
X11345000Y-4825000D01*
X11325000Y-5030000D02*
X11325000Y-5070000D01*
X11305000Y-5050000D02*
X11345000Y-5050000D01*
X11325000Y-5430000D02*
X11325000Y-5470000D01*
X11305000Y-5450000D02*
X11345000Y-5450000D01*
X11325000Y-6030000D02*
X11325000Y-6070000D01*
X11305000Y-6050000D02*
X11345000Y-6050000D01*
X11350000Y-4130000D02*
X11350000Y-4170000D01*
X11330000Y-4150000D02*
X11370000Y-4150000D01*
X11375000Y-5655000D02*
X11375000Y-5695000D01*
X11355000Y-5675000D02*
X11395000Y-5675000D01*
X11400000Y-5230000D02*
X11400000Y-5270000D01*
X11380000Y-5250000D02*
X11420000Y-5250000D01*
X11425000Y-6255000D02*
X11425000Y-6295000D01*
X11405000Y-6275000D02*
X11445000Y-6275000D01*
X11550000Y-3080000D02*
X11550000Y-3120000D01*
X11530000Y-3100000D02*
X11570000Y-3100000D01*
X11550000Y-4080000D02*
X11550000Y-4120000D01*
X11530000Y-4100000D02*
X11570000Y-4100000D01*
X11597740Y-4552740D02*
X11597740Y-4592740D01*
X11577740Y-4572740D02*
X11617740Y-4572740D01*
X11600000Y-3180000D02*
X11600000Y-3220000D01*
X11580000Y-3200000D02*
X11620000Y-3200000D01*
X11700000Y-4713400D02*
X11700000Y-4753400D01*
X11680000Y-4733400D02*
X11720000Y-4733400D01*
X11725000Y-4380000D02*
X11725000Y-4420000D01*
X11705000Y-4400000D02*
X11745000Y-4400000D01*
X11825000Y-5355000D02*
X11825000Y-5395000D01*
X11805000Y-5375000D02*
X11845000Y-5375000D01*
X11972740Y-3302740D02*
X11972740Y-3342740D01*
X11952740Y-3322740D02*
X11992740Y-3322740D01*
X11975000Y-4080000D02*
X11975000Y-4120000D01*
X11955000Y-4100000D02*
X11995000Y-4100000D01*
X11975000Y-4280000D02*
X11975000Y-4320000D01*
X11955000Y-4300000D02*
X11995000Y-4300000D01*
X11975000Y-5030000D02*
X11975000Y-5070000D01*
X11955000Y-5050000D02*
X11995000Y-5050000D01*
X12000000Y-2980000D02*
X12000000Y-3020000D01*
X11980000Y-3000000D02*
X12020000Y-3000000D01*
X12000000Y-3130000D02*
X12000000Y-3170000D01*
X11980000Y-3150000D02*
X12020000Y-3150000D01*
X12125000Y-4855000D02*
X12125000Y-4895000D01*
X12105000Y-4875000D02*
X12145000Y-4875000D01*
X12250000Y-5105000D02*
X12250000Y-5145000D01*
X12230000Y-5125000D02*
X12270000Y-5125000D01*
X12250000Y-5330000D02*
X12250000Y-5370000D01*
X12230000Y-5350000D02*
X12270000Y-5350000D01*
X12250000Y-5505000D02*
X12250000Y-5545000D01*
X12230000Y-5525000D02*
X12270000Y-5525000D01*
X12250000Y-5730000D02*
X12250000Y-5770000D01*
X12230000Y-5750000D02*
X12270000Y-5750000D01*
X12400000Y-4905000D02*
X12400000Y-4945000D01*
X12380000Y-4925000D02*
X12420000Y-4925000D01*
X12400000Y-5105000D02*
X12400000Y-5145000D01*
X12380000Y-5125000D02*
X12420000Y-5125000D01*
X12400000Y-5330000D02*
X12400000Y-5370000D01*
X12380000Y-5350000D02*
X12420000Y-5350000D01*
X12400000Y-5505000D02*
X12400000Y-5545000D01*
X12380000Y-5525000D02*
X12420000Y-5525000D01*
X12400000Y-5730000D02*
X12400000Y-5770000D01*
X12380000Y-5750000D02*
X12420000Y-5750000D01*
X12400000Y-5855000D02*
X12400000Y-5895000D01*
X12380000Y-5875000D02*
X12420000Y-5875000D01*
X2932249Y-2401249D02*
X2932249Y-2351751D01*
X2882751Y-2351751D01*
X2882751Y-2401249D01*
X2932249Y-2401249D01*
X3417249Y-2401249D02*
X3417249Y-2351751D01*
X3367751Y-2351751D01*
X3367751Y-2401249D01*
X3417249Y-2401249D01*
X3496000Y-6250000D02*
X3546000Y-6200000D01*
X3496000Y-6150000D01*
X3446000Y-6200000D01*
X3496000Y-6250000D01*
X3750000Y-6250000D02*
X3800000Y-6200000D01*
X3750000Y-6150000D01*
X3700000Y-6200000D01*
X3750000Y-6250000D01*
X3888740Y-2214080D02*
X3938740Y-2164080D01*
X3888740Y-2114080D01*
X3838740Y-2164080D01*
X3888740Y-2214080D01*
X3888740Y-2468080D02*
X3938740Y-2418080D01*
X3888740Y-2368080D01*
X3838740Y-2418080D01*
X3888740Y-2468080D01*
X4142740Y-2214080D02*
X4192740Y-2164080D01*
X4142740Y-2114080D01*
X4092740Y-2164080D01*
X4142740Y-2214080D01*
X4142740Y-2468080D02*
X4192740Y-2418080D01*
X4142740Y-2368080D01*
X4092740Y-2418080D01*
X4142740Y-2468080D01*
X4396740Y-2214080D02*
X4446740Y-2164080D01*
X4396740Y-2114080D01*
X4346740Y-2164080D01*
X4396740Y-2214080D01*
X4396740Y-2468080D02*
X4446740Y-2418080D01*
X4396740Y-2368080D01*
X4346740Y-2418080D01*
X4396740Y-2468080D01*
X4650740Y-2214080D02*
X4700740Y-2164080D01*
X4650740Y-2114080D01*
X4600740Y-2164080D01*
X4650740Y-2214080D01*
X4650740Y-2468080D02*
X4700740Y-2418080D01*
X4650740Y-2368080D01*
X4600740Y-2418080D01*
X4650740Y-2468080D01*
X4904740Y-2214080D02*
X4954740Y-2164080D01*
X4904740Y-2114080D01*
X4854740Y-2164080D01*
X4904740Y-2214080D01*
X4904740Y-2468080D02*
X4954740Y-2418080D01*
X4904740Y-2368080D01*
X4854740Y-2418080D01*
X4904740Y-2468080D01*
X5158740Y-2214080D02*
X5208740Y-2164080D01*
X5158740Y-2114080D01*
X5108740Y-2164080D01*
X5158740Y-2214080D01*
X5158740Y-2468080D02*
X5208740Y-2418080D01*
X5158740Y-2368080D01*
X5108740Y-2418080D01*
X5158740Y-2468080D01*
X6858000Y-2209000D02*
X6908000Y-2159000D01*
X6858000Y-2109000D01*
X6808000Y-2159000D01*
X6858000Y-2209000D01*
X6858000Y-2463000D02*
X6908000Y-2413000D01*
X6858000Y-2363000D01*
X6808000Y-2413000D01*
X6858000Y-2463000D01*
X7112000Y-2209000D02*
X7162000Y-2159000D01*
X7112000Y-2109000D01*
X7062000Y-2159000D01*
X7112000Y-2209000D01*
X7112000Y-2463000D02*
X7162000Y-2413000D01*
X7112000Y-2363000D01*
X7062000Y-2413000D01*
X7112000Y-2463000D01*
X7366000Y-2209000D02*
X7416000Y-2159000D01*
X7366000Y-2109000D01*
X7316000Y-2159000D01*
X7366000Y-2209000D01*
X7366000Y-2463000D02*
X7416000Y-2413000D01*
X7366000Y-2363000D01*
X7316000Y-2413000D01*
X7366000Y-2463000D01*
X7620000Y-2209000D02*
X7670000Y-2159000D01*
X7620000Y-2109000D01*
X7570000Y-2159000D01*
X7620000Y-2209000D01*
X7620000Y-2463000D02*
X7670000Y-2413000D01*
X7620000Y-2363000D01*
X7570000Y-2413000D01*
X7620000Y-2463000D01*
X7874000Y-2209000D02*
X7924000Y-2159000D01*
X7874000Y-2109000D01*
X7824000Y-2159000D01*
X7874000Y-2209000D01*
X7874000Y-2463000D02*
X7924000Y-2413000D01*
X7874000Y-2363000D01*
X7824000Y-2413000D01*
X7874000Y-2463000D01*
X2735000Y-2051500D02*
X2845000Y-2161500D01*
X2845000Y-2051500D02*
X2735000Y-2161500D01*
X2845000Y-2106500D02*
G75*
G03*
X2845000Y-2106500I-55000J0D01*
G01*
X2835000Y-2106500D02*
X2835000Y-2106500D01*
X2745000Y-2106500D02*
X2745000Y-2106500D01*
X2835000Y-2106500D02*
G75*
G03*
X2745000Y-2106500I-45000J0D01*
G01*
X2745000Y-2106500D02*
G75*
G03*
X2835000Y-2106500I45000J0D01*
G01*
X3455000Y-2051500D02*
X3565000Y-2161500D01*
X3565000Y-2051500D02*
X3455000Y-2161500D01*
X3565000Y-2106500D02*
G75*
G03*
X3565000Y-2106500I-55000J0D01*
G01*
X3465000Y-2106500D02*
X3465000Y-2106500D01*
X3555000Y-2106500D02*
X3555000Y-2106500D01*
X3465000Y-2106500D02*
G75*
G03*
X3555000Y-2106500I45000J0D01*
G01*
X3555000Y-2106500D02*
G75*
G03*
X3465000Y-2106500I-45000J0D01*
G01*
D12*
X2783928Y-6918214D02*
X2783928Y-6618214D01*
X2855357Y-6618214D01*
X2898214Y-6632500D01*
X2926786Y-6661071D01*
X2941071Y-6689643D01*
X2955357Y-6746786D01*
X2955357Y-6789643D01*
X2941071Y-6846786D01*
X2926786Y-6875357D01*
X2898214Y-6903929D01*
X2855357Y-6918214D01*
X2783928Y-6918214D01*
X3083928Y-6918214D02*
X3083928Y-6718214D01*
X3083928Y-6775357D02*
X3098214Y-6746786D01*
X3112500Y-6732500D01*
X3141071Y-6718214D01*
X3169643Y-6718214D01*
X3269643Y-6918214D02*
X3269643Y-6718214D01*
X3269643Y-6618214D02*
X3255357Y-6632500D01*
X3269643Y-6646786D01*
X3283928Y-6632500D01*
X3269643Y-6618214D01*
X3269643Y-6646786D01*
X3455357Y-6918214D02*
X3426786Y-6903929D01*
X3412500Y-6875357D01*
X3412500Y-6618214D01*
X3612500Y-6918214D02*
X3583928Y-6903929D01*
X3569643Y-6875357D01*
X3569643Y-6618214D01*
X3955357Y-6918214D02*
X3955357Y-6618214D01*
X4055357Y-6832500D01*
X4155357Y-6618214D01*
X4155357Y-6918214D01*
X4426786Y-6918214D02*
X4426786Y-6761071D01*
X4412500Y-6732500D01*
X4383928Y-6718214D01*
X4326786Y-6718214D01*
X4298214Y-6732500D01*
X4426786Y-6903929D02*
X4398214Y-6918214D01*
X4326786Y-6918214D01*
X4298214Y-6903929D01*
X4283928Y-6875357D01*
X4283928Y-6846786D01*
X4298214Y-6818214D01*
X4326786Y-6803929D01*
X4398214Y-6803929D01*
X4426786Y-6789643D01*
X4569643Y-6718214D02*
X4569643Y-7018214D01*
X4569643Y-6732500D02*
X4598214Y-6718214D01*
X4655357Y-6718214D01*
X4683928Y-6732500D01*
X4698214Y-6746786D01*
X4712500Y-6775357D01*
X4712500Y-6861071D01*
X4698214Y-6889643D01*
X4683928Y-6903929D01*
X4655357Y-6918214D01*
X4598214Y-6918214D01*
X4569643Y-6903929D01*
X4841071Y-6889643D02*
X4855357Y-6903929D01*
X4841071Y-6918214D01*
X4826786Y-6903929D01*
X4841071Y-6889643D01*
X4841071Y-6918214D01*
X4841071Y-6732500D02*
X4855357Y-6746786D01*
X4841071Y-6761071D01*
X4826786Y-6746786D01*
X4841071Y-6732500D01*
X4841071Y-6761071D01*
X2472100Y-7399800D02*
X2497500Y-7425200D01*
X2497500Y-7399800D02*
X2472100Y-7425200D01*
X2841071Y-7248214D02*
X2869643Y-7248214D01*
X2898214Y-7262500D01*
X2912500Y-7276786D01*
X2926786Y-7305357D01*
X2941071Y-7362500D01*
X2941071Y-7433929D01*
X2926786Y-7491071D01*
X2912500Y-7519643D01*
X2898214Y-7533929D01*
X2869643Y-7548214D01*
X2841071Y-7548214D01*
X2812500Y-7533929D01*
X2798214Y-7519643D01*
X2783928Y-7491071D01*
X2769643Y-7433929D01*
X2769643Y-7362500D01*
X2783928Y-7305357D01*
X2798214Y-7276786D01*
X2812500Y-7262500D01*
X2841071Y-7248214D01*
X3069643Y-7519643D02*
X3083928Y-7533929D01*
X3069643Y-7548214D01*
X3055357Y-7533929D01*
X3069643Y-7519643D01*
X3069643Y-7548214D01*
X3198214Y-7276786D02*
X3212500Y-7262500D01*
X3241071Y-7248214D01*
X3312500Y-7248214D01*
X3341071Y-7262500D01*
X3355357Y-7276786D01*
X3369643Y-7305357D01*
X3369643Y-7333929D01*
X3355357Y-7376786D01*
X3183928Y-7548214D01*
X3369643Y-7548214D01*
X3641071Y-7248214D02*
X3498214Y-7248214D01*
X3483928Y-7391071D01*
X3498214Y-7376786D01*
X3526786Y-7362500D01*
X3598214Y-7362500D01*
X3626786Y-7376786D01*
X3641071Y-7391071D01*
X3655357Y-7419643D01*
X3655357Y-7491071D01*
X3641071Y-7519643D01*
X3626786Y-7533929D01*
X3598214Y-7548214D01*
X3526786Y-7548214D01*
X3498214Y-7533929D01*
X3483928Y-7519643D01*
X3912500Y-7348214D02*
X3912500Y-7548214D01*
X3841071Y-7233929D02*
X3769643Y-7448214D01*
X3955357Y-7448214D01*
X4069643Y-7548214D02*
X4069643Y-7348214D01*
X4069643Y-7376786D02*
X4083928Y-7362500D01*
X4112500Y-7348214D01*
X4155357Y-7348214D01*
X4183928Y-7362500D01*
X4198214Y-7391071D01*
X4198214Y-7548214D01*
X4198214Y-7391071D02*
X4212500Y-7362500D01*
X4241071Y-7348214D01*
X4283928Y-7348214D01*
X4312500Y-7362500D01*
X4326786Y-7391071D01*
X4326786Y-7548214D01*
X4469643Y-7548214D02*
X4469643Y-7348214D01*
X4469643Y-7376786D02*
X4483928Y-7362500D01*
X4512500Y-7348214D01*
X4555357Y-7348214D01*
X4583928Y-7362500D01*
X4598214Y-7391071D01*
X4598214Y-7548214D01*
X4598214Y-7391071D02*
X4612500Y-7362500D01*
X4641071Y-7348214D01*
X4683928Y-7348214D01*
X4712500Y-7362500D01*
X4726786Y-7391071D01*
X4726786Y-7548214D01*
X5312500Y-7233929D02*
X5055357Y-7619643D01*
X5698214Y-7248214D02*
X5726786Y-7248214D01*
X5755357Y-7262500D01*
X5769643Y-7276786D01*
X5783928Y-7305357D01*
X5798214Y-7362500D01*
X5798214Y-7433929D01*
X5783928Y-7491071D01*
X5769643Y-7519643D01*
X5755357Y-7533929D01*
X5726786Y-7548214D01*
X5698214Y-7548214D01*
X5669643Y-7533929D01*
X5655357Y-7519643D01*
X5641071Y-7491071D01*
X5626786Y-7433929D01*
X5626786Y-7362500D01*
X5641071Y-7305357D01*
X5655357Y-7276786D01*
X5669643Y-7262500D01*
X5698214Y-7248214D01*
X5926786Y-7519643D02*
X5941071Y-7533929D01*
X5926786Y-7548214D01*
X5912500Y-7533929D01*
X5926786Y-7519643D01*
X5926786Y-7548214D01*
X6126786Y-7248214D02*
X6155357Y-7248214D01*
X6183928Y-7262500D01*
X6198214Y-7276786D01*
X6212500Y-7305357D01*
X6226786Y-7362500D01*
X6226786Y-7433929D01*
X6212500Y-7491071D01*
X6198214Y-7519643D01*
X6183928Y-7533929D01*
X6155357Y-7548214D01*
X6126786Y-7548214D01*
X6098214Y-7533929D01*
X6083928Y-7519643D01*
X6069643Y-7491071D01*
X6055357Y-7433929D01*
X6055357Y-7362500D01*
X6069643Y-7305357D01*
X6083928Y-7276786D01*
X6098214Y-7262500D01*
X6126786Y-7248214D01*
X6512500Y-7548214D02*
X6341071Y-7548214D01*
X6426786Y-7548214D02*
X6426786Y-7248214D01*
X6398214Y-7291071D01*
X6369643Y-7319643D01*
X6341071Y-7333929D01*
X6698214Y-7248214D02*
X6726786Y-7248214D01*
X6755357Y-7262500D01*
X6769643Y-7276786D01*
X6783928Y-7305357D01*
X6798214Y-7362500D01*
X6798214Y-7433929D01*
X6783928Y-7491071D01*
X6769643Y-7519643D01*
X6755357Y-7533929D01*
X6726786Y-7548214D01*
X6698214Y-7548214D01*
X6669643Y-7533929D01*
X6655357Y-7519643D01*
X6641071Y-7491071D01*
X6626786Y-7433929D01*
X6626786Y-7362500D01*
X6641071Y-7305357D01*
X6655357Y-7276786D01*
X6669643Y-7262500D01*
X6698214Y-7248214D01*
X6983928Y-7248214D02*
X7012500Y-7248214D01*
X7041071Y-7262500D01*
X7055357Y-7276786D01*
X7069643Y-7305357D01*
X7083928Y-7362500D01*
X7083928Y-7433929D01*
X7069643Y-7491071D01*
X7055357Y-7519643D01*
X7041071Y-7533929D01*
X7012500Y-7548214D01*
X6983928Y-7548214D01*
X6955357Y-7533929D01*
X6941071Y-7519643D01*
X6926786Y-7491071D01*
X6912500Y-7433929D01*
X6912500Y-7362500D01*
X6926786Y-7305357D01*
X6941071Y-7276786D01*
X6955357Y-7262500D01*
X6983928Y-7248214D01*
X7198214Y-7248214D02*
X7198214Y-7305357D01*
X7312500Y-7248214D02*
X7312500Y-7305357D01*
X7755357Y-7662500D02*
X7741071Y-7648214D01*
X7712500Y-7605357D01*
X7698214Y-7576786D01*
X7683928Y-7533929D01*
X7669643Y-7462500D01*
X7669643Y-7405357D01*
X7683928Y-7333929D01*
X7698214Y-7291071D01*
X7712500Y-7262500D01*
X7741071Y-7219643D01*
X7755357Y-7205357D01*
X7855357Y-7276786D02*
X7869643Y-7262500D01*
X7898214Y-7248214D01*
X7969643Y-7248214D01*
X7998214Y-7262500D01*
X8012500Y-7276786D01*
X8026786Y-7305357D01*
X8026786Y-7333929D01*
X8012500Y-7376786D01*
X7841071Y-7548214D01*
X8026786Y-7548214D01*
X8298214Y-7248214D02*
X8155357Y-7248214D01*
X8141071Y-7391071D01*
X8155357Y-7376786D01*
X8183928Y-7362500D01*
X8255357Y-7362500D01*
X8283928Y-7376786D01*
X8298214Y-7391071D01*
X8312500Y-7419643D01*
X8312500Y-7491071D01*
X8298214Y-7519643D01*
X8283928Y-7533929D01*
X8255357Y-7548214D01*
X8183928Y-7548214D01*
X8155357Y-7533929D01*
X8141071Y-7519643D01*
X8669643Y-7548214D02*
X8669643Y-7248214D01*
X8798214Y-7548214D02*
X8798214Y-7391071D01*
X8783928Y-7362500D01*
X8755357Y-7348214D01*
X8712500Y-7348214D01*
X8683928Y-7362500D01*
X8669643Y-7376786D01*
X8983928Y-7548214D02*
X8955357Y-7533929D01*
X8941071Y-7519643D01*
X8926786Y-7491071D01*
X8926786Y-7405357D01*
X8941071Y-7376786D01*
X8955357Y-7362500D01*
X8983928Y-7348214D01*
X9026786Y-7348214D01*
X9055357Y-7362500D01*
X9069643Y-7376786D01*
X9083928Y-7405357D01*
X9083928Y-7491071D01*
X9069643Y-7519643D01*
X9055357Y-7533929D01*
X9026786Y-7548214D01*
X8983928Y-7548214D01*
X9255357Y-7548214D02*
X9226786Y-7533929D01*
X9212500Y-7505357D01*
X9212500Y-7248214D01*
X9483928Y-7533929D02*
X9455357Y-7548214D01*
X9398214Y-7548214D01*
X9369643Y-7533929D01*
X9355357Y-7505357D01*
X9355357Y-7391071D01*
X9369643Y-7362500D01*
X9398214Y-7348214D01*
X9455357Y-7348214D01*
X9483928Y-7362500D01*
X9498214Y-7391071D01*
X9498214Y-7419643D01*
X9355357Y-7448214D01*
X9612500Y-7533929D02*
X9641071Y-7548214D01*
X9698214Y-7548214D01*
X9726786Y-7533929D01*
X9741071Y-7505357D01*
X9741071Y-7491071D01*
X9726786Y-7462500D01*
X9698214Y-7448214D01*
X9655357Y-7448214D01*
X9626786Y-7433929D01*
X9612500Y-7405357D01*
X9612500Y-7391071D01*
X9626786Y-7362500D01*
X9655357Y-7348214D01*
X9698214Y-7348214D01*
X9726786Y-7362500D01*
X9841071Y-7662500D02*
X9855357Y-7648214D01*
X9883928Y-7605357D01*
X9898214Y-7576786D01*
X9912500Y-7533929D01*
X9926786Y-7462500D01*
X9926786Y-7405357D01*
X9912500Y-7333929D01*
X9898214Y-7291071D01*
X9883928Y-7262500D01*
X9855357Y-7219643D01*
X9841071Y-7205357D01*
X2497500Y-7808500D02*
G75*
G03*
X2497500Y-7808500I-15000J0D01*
G01*
X2841071Y-7644214D02*
X2869643Y-7644214D01*
X2898214Y-7658500D01*
X2912500Y-7672786D01*
X2926786Y-7701357D01*
X2941071Y-7758500D01*
X2941071Y-7829929D01*
X2926786Y-7887071D01*
X2912500Y-7915643D01*
X2898214Y-7929929D01*
X2869643Y-7944214D01*
X2841071Y-7944214D01*
X2812500Y-7929929D01*
X2798214Y-7915643D01*
X2783928Y-7887071D01*
X2769643Y-7829929D01*
X2769643Y-7758500D01*
X2783928Y-7701357D01*
X2798214Y-7672786D01*
X2812500Y-7658500D01*
X2841071Y-7644214D01*
X3069643Y-7915643D02*
X3083928Y-7929929D01*
X3069643Y-7944214D01*
X3055357Y-7929929D01*
X3069643Y-7915643D01*
X3069643Y-7944214D01*
X3183928Y-7644214D02*
X3369643Y-7644214D01*
X3269643Y-7758500D01*
X3312500Y-7758500D01*
X3341071Y-7772786D01*
X3355357Y-7787071D01*
X3369643Y-7815643D01*
X3369643Y-7887071D01*
X3355357Y-7915643D01*
X3341071Y-7929929D01*
X3312500Y-7944214D01*
X3226786Y-7944214D01*
X3198214Y-7929929D01*
X3183928Y-7915643D01*
X3555357Y-7644214D02*
X3583928Y-7644214D01*
X3612500Y-7658500D01*
X3626786Y-7672786D01*
X3641071Y-7701357D01*
X3655357Y-7758500D01*
X3655357Y-7829929D01*
X3641071Y-7887071D01*
X3626786Y-7915643D01*
X3612500Y-7929929D01*
X3583928Y-7944214D01*
X3555357Y-7944214D01*
X3526786Y-7929929D01*
X3512500Y-7915643D01*
X3498214Y-7887071D01*
X3483928Y-7829929D01*
X3483928Y-7758500D01*
X3498214Y-7701357D01*
X3512500Y-7672786D01*
X3526786Y-7658500D01*
X3555357Y-7644214D01*
X3841071Y-7644214D02*
X3869643Y-7644214D01*
X3898214Y-7658500D01*
X3912500Y-7672786D01*
X3926786Y-7701357D01*
X3941071Y-7758500D01*
X3941071Y-7829929D01*
X3926786Y-7887071D01*
X3912500Y-7915643D01*
X3898214Y-7929929D01*
X3869643Y-7944214D01*
X3841071Y-7944214D01*
X3812500Y-7929929D01*
X3798214Y-7915643D01*
X3783928Y-7887071D01*
X3769643Y-7829929D01*
X3769643Y-7758500D01*
X3783928Y-7701357D01*
X3798214Y-7672786D01*
X3812500Y-7658500D01*
X3841071Y-7644214D01*
X4069643Y-7944214D02*
X4069643Y-7744214D01*
X4069643Y-7772786D02*
X4083928Y-7758500D01*
X4112500Y-7744214D01*
X4155357Y-7744214D01*
X4183928Y-7758500D01*
X4198214Y-7787071D01*
X4198214Y-7944214D01*
X4198214Y-7787071D02*
X4212500Y-7758500D01*
X4241071Y-7744214D01*
X4283928Y-7744214D01*
X4312500Y-7758500D01*
X4326786Y-7787071D01*
X4326786Y-7944214D01*
X4469643Y-7944214D02*
X4469643Y-7744214D01*
X4469643Y-7772786D02*
X4483928Y-7758500D01*
X4512500Y-7744214D01*
X4555357Y-7744214D01*
X4583928Y-7758500D01*
X4598214Y-7787071D01*
X4598214Y-7944214D01*
X4598214Y-7787071D02*
X4612500Y-7758500D01*
X4641071Y-7744214D01*
X4683928Y-7744214D01*
X4712500Y-7758500D01*
X4726786Y-7787071D01*
X4726786Y-7944214D01*
X5312500Y-7629929D02*
X5055357Y-8015643D01*
X5698214Y-7644214D02*
X5726786Y-7644214D01*
X5755357Y-7658500D01*
X5769643Y-7672786D01*
X5783928Y-7701357D01*
X5798214Y-7758500D01*
X5798214Y-7829929D01*
X5783928Y-7887071D01*
X5769643Y-7915643D01*
X5755357Y-7929929D01*
X5726786Y-7944214D01*
X5698214Y-7944214D01*
X5669643Y-7929929D01*
X5655357Y-7915643D01*
X5641071Y-7887071D01*
X5626786Y-7829929D01*
X5626786Y-7758500D01*
X5641071Y-7701357D01*
X5655357Y-7672786D01*
X5669643Y-7658500D01*
X5698214Y-7644214D01*
X5926786Y-7915643D02*
X5941071Y-7929929D01*
X5926786Y-7944214D01*
X5912500Y-7929929D01*
X5926786Y-7915643D01*
X5926786Y-7944214D01*
X6126786Y-7644214D02*
X6155357Y-7644214D01*
X6183928Y-7658500D01*
X6198214Y-7672786D01*
X6212500Y-7701357D01*
X6226786Y-7758500D01*
X6226786Y-7829929D01*
X6212500Y-7887071D01*
X6198214Y-7915643D01*
X6183928Y-7929929D01*
X6155357Y-7944214D01*
X6126786Y-7944214D01*
X6098214Y-7929929D01*
X6083928Y-7915643D01*
X6069643Y-7887071D01*
X6055357Y-7829929D01*
X6055357Y-7758500D01*
X6069643Y-7701357D01*
X6083928Y-7672786D01*
X6098214Y-7658500D01*
X6126786Y-7644214D01*
X6512500Y-7944214D02*
X6341071Y-7944214D01*
X6426786Y-7944214D02*
X6426786Y-7644214D01*
X6398214Y-7687071D01*
X6369643Y-7715643D01*
X6341071Y-7729929D01*
X6798214Y-7944214D02*
X6626786Y-7944214D01*
X6712500Y-7944214D02*
X6712500Y-7644214D01*
X6683928Y-7687071D01*
X6655357Y-7715643D01*
X6626786Y-7729929D01*
X6969643Y-7772786D02*
X6941071Y-7758500D01*
X6926786Y-7744214D01*
X6912500Y-7715643D01*
X6912500Y-7701357D01*
X6926786Y-7672786D01*
X6941071Y-7658500D01*
X6969643Y-7644214D01*
X7026786Y-7644214D01*
X7055357Y-7658500D01*
X7069643Y-7672786D01*
X7083928Y-7701357D01*
X7083928Y-7715643D01*
X7069643Y-7744214D01*
X7055357Y-7758500D01*
X7026786Y-7772786D01*
X6969643Y-7772786D01*
X6941071Y-7787071D01*
X6926786Y-7801357D01*
X6912500Y-7829929D01*
X6912500Y-7887071D01*
X6926786Y-7915643D01*
X6941071Y-7929929D01*
X6969643Y-7944214D01*
X7026786Y-7944214D01*
X7055357Y-7929929D01*
X7069643Y-7915643D01*
X7083928Y-7887071D01*
X7083928Y-7829929D01*
X7069643Y-7801357D01*
X7055357Y-7787071D01*
X7026786Y-7772786D01*
X7198214Y-7644214D02*
X7198214Y-7701357D01*
X7312500Y-7644214D02*
X7312500Y-7701357D01*
X7755357Y-8058500D02*
X7741071Y-8044214D01*
X7712500Y-8001357D01*
X7698214Y-7972786D01*
X7683928Y-7929929D01*
X7669643Y-7858500D01*
X7669643Y-7801357D01*
X7683928Y-7729929D01*
X7698214Y-7687071D01*
X7712500Y-7658500D01*
X7741071Y-7615643D01*
X7755357Y-7601357D01*
X7855357Y-7672786D02*
X7869643Y-7658500D01*
X7898214Y-7644214D01*
X7969643Y-7644214D01*
X7998214Y-7658500D01*
X8012500Y-7672786D01*
X8026786Y-7701357D01*
X8026786Y-7729929D01*
X8012500Y-7772786D01*
X7841071Y-7944214D01*
X8026786Y-7944214D01*
X8298214Y-7644214D02*
X8155357Y-7644214D01*
X8141071Y-7787071D01*
X8155357Y-7772786D01*
X8183928Y-7758500D01*
X8255357Y-7758500D01*
X8283928Y-7772786D01*
X8298214Y-7787071D01*
X8312500Y-7815643D01*
X8312500Y-7887071D01*
X8298214Y-7915643D01*
X8283928Y-7929929D01*
X8255357Y-7944214D01*
X8183928Y-7944214D01*
X8155357Y-7929929D01*
X8141071Y-7915643D01*
X8669643Y-7944214D02*
X8669643Y-7644214D01*
X8798214Y-7944214D02*
X8798214Y-7787071D01*
X8783928Y-7758500D01*
X8755357Y-7744214D01*
X8712500Y-7744214D01*
X8683928Y-7758500D01*
X8669643Y-7772786D01*
X8983928Y-7944214D02*
X8955357Y-7929929D01*
X8941071Y-7915643D01*
X8926786Y-7887071D01*
X8926786Y-7801357D01*
X8941071Y-7772786D01*
X8955357Y-7758500D01*
X8983928Y-7744214D01*
X9026786Y-7744214D01*
X9055357Y-7758500D01*
X9069643Y-7772786D01*
X9083928Y-7801357D01*
X9083928Y-7887071D01*
X9069643Y-7915643D01*
X9055357Y-7929929D01*
X9026786Y-7944214D01*
X8983928Y-7944214D01*
X9255357Y-7944214D02*
X9226786Y-7929929D01*
X9212500Y-7901357D01*
X9212500Y-7644214D01*
X9483928Y-7929929D02*
X9455357Y-7944214D01*
X9398214Y-7944214D01*
X9369643Y-7929929D01*
X9355357Y-7901357D01*
X9355357Y-7787071D01*
X9369643Y-7758500D01*
X9398214Y-7744214D01*
X9455357Y-7744214D01*
X9483928Y-7758500D01*
X9498214Y-7787071D01*
X9498214Y-7815643D01*
X9355357Y-7844214D01*
X9612500Y-7929929D02*
X9641071Y-7944214D01*
X9698214Y-7944214D01*
X9726786Y-7929929D01*
X9741071Y-7901357D01*
X9741071Y-7887071D01*
X9726786Y-7858500D01*
X9698214Y-7844214D01*
X9655357Y-7844214D01*
X9626786Y-7829929D01*
X9612500Y-7801357D01*
X9612500Y-7787071D01*
X9626786Y-7758500D01*
X9655357Y-7744214D01*
X9698214Y-7744214D01*
X9726786Y-7758500D01*
X9841071Y-8058500D02*
X9855357Y-8044214D01*
X9883928Y-8001357D01*
X9898214Y-7972786D01*
X9912500Y-7929929D01*
X9926786Y-7858500D01*
X9926786Y-7801357D01*
X9912500Y-7729929D01*
X9898214Y-7687071D01*
X9883928Y-7658500D01*
X9855357Y-7615643D01*
X9841071Y-7601357D01*
X2477500Y-8184500D02*
X2477500Y-8224500D01*
X2457500Y-8204500D02*
X2497500Y-8204500D01*
X2841071Y-8040214D02*
X2869643Y-8040214D01*
X2898214Y-8054500D01*
X2912500Y-8068786D01*
X2926786Y-8097357D01*
X2941071Y-8154500D01*
X2941071Y-8225929D01*
X2926786Y-8283071D01*
X2912500Y-8311643D01*
X2898214Y-8325929D01*
X2869643Y-8340214D01*
X2841071Y-8340214D01*
X2812500Y-8325929D01*
X2798214Y-8311643D01*
X2783928Y-8283071D01*
X2769643Y-8225929D01*
X2769643Y-8154500D01*
X2783928Y-8097357D01*
X2798214Y-8068786D01*
X2812500Y-8054500D01*
X2841071Y-8040214D01*
X3069643Y-8311643D02*
X3083928Y-8325929D01*
X3069643Y-8340214D01*
X3055357Y-8325929D01*
X3069643Y-8311643D01*
X3069643Y-8340214D01*
X3341071Y-8140214D02*
X3341071Y-8340214D01*
X3269643Y-8025929D02*
X3198214Y-8240214D01*
X3383928Y-8240214D01*
X3555357Y-8040214D02*
X3583928Y-8040214D01*
X3612500Y-8054500D01*
X3626786Y-8068786D01*
X3641071Y-8097357D01*
X3655357Y-8154500D01*
X3655357Y-8225929D01*
X3641071Y-8283071D01*
X3626786Y-8311643D01*
X3612500Y-8325929D01*
X3583928Y-8340214D01*
X3555357Y-8340214D01*
X3526786Y-8325929D01*
X3512500Y-8311643D01*
X3498214Y-8283071D01*
X3483928Y-8225929D01*
X3483928Y-8154500D01*
X3498214Y-8097357D01*
X3512500Y-8068786D01*
X3526786Y-8054500D01*
X3555357Y-8040214D01*
X3841071Y-8040214D02*
X3869643Y-8040214D01*
X3898214Y-8054500D01*
X3912500Y-8068786D01*
X3926786Y-8097357D01*
X3941071Y-8154500D01*
X3941071Y-8225929D01*
X3926786Y-8283071D01*
X3912500Y-8311643D01*
X3898214Y-8325929D01*
X3869643Y-8340214D01*
X3841071Y-8340214D01*
X3812500Y-8325929D01*
X3798214Y-8311643D01*
X3783928Y-8283071D01*
X3769643Y-8225929D01*
X3769643Y-8154500D01*
X3783928Y-8097357D01*
X3798214Y-8068786D01*
X3812500Y-8054500D01*
X3841071Y-8040214D01*
X4069643Y-8340214D02*
X4069643Y-8140214D01*
X4069643Y-8168786D02*
X4083928Y-8154500D01*
X4112500Y-8140214D01*
X4155357Y-8140214D01*
X4183928Y-8154500D01*
X4198214Y-8183071D01*
X4198214Y-8340214D01*
X4198214Y-8183071D02*
X4212500Y-8154500D01*
X4241071Y-8140214D01*
X4283928Y-8140214D01*
X4312500Y-8154500D01*
X4326786Y-8183071D01*
X4326786Y-8340214D01*
X4469643Y-8340214D02*
X4469643Y-8140214D01*
X4469643Y-8168786D02*
X4483928Y-8154500D01*
X4512500Y-8140214D01*
X4555357Y-8140214D01*
X4583928Y-8154500D01*
X4598214Y-8183071D01*
X4598214Y-8340214D01*
X4598214Y-8183071D02*
X4612500Y-8154500D01*
X4641071Y-8140214D01*
X4683928Y-8140214D01*
X4712500Y-8154500D01*
X4726786Y-8183071D01*
X4726786Y-8340214D01*
X5312500Y-8025929D02*
X5055357Y-8411643D01*
X5698214Y-8040214D02*
X5726786Y-8040214D01*
X5755357Y-8054500D01*
X5769643Y-8068786D01*
X5783928Y-8097357D01*
X5798214Y-8154500D01*
X5798214Y-8225929D01*
X5783928Y-8283071D01*
X5769643Y-8311643D01*
X5755357Y-8325929D01*
X5726786Y-8340214D01*
X5698214Y-8340214D01*
X5669643Y-8325929D01*
X5655357Y-8311643D01*
X5641071Y-8283071D01*
X5626786Y-8225929D01*
X5626786Y-8154500D01*
X5641071Y-8097357D01*
X5655357Y-8068786D01*
X5669643Y-8054500D01*
X5698214Y-8040214D01*
X5926786Y-8311643D02*
X5941071Y-8325929D01*
X5926786Y-8340214D01*
X5912500Y-8325929D01*
X5926786Y-8311643D01*
X5926786Y-8340214D01*
X6126786Y-8040214D02*
X6155357Y-8040214D01*
X6183928Y-8054500D01*
X6198214Y-8068786D01*
X6212500Y-8097357D01*
X6226786Y-8154500D01*
X6226786Y-8225929D01*
X6212500Y-8283071D01*
X6198214Y-8311643D01*
X6183928Y-8325929D01*
X6155357Y-8340214D01*
X6126786Y-8340214D01*
X6098214Y-8325929D01*
X6083928Y-8311643D01*
X6069643Y-8283071D01*
X6055357Y-8225929D01*
X6055357Y-8154500D01*
X6069643Y-8097357D01*
X6083928Y-8068786D01*
X6098214Y-8054500D01*
X6126786Y-8040214D01*
X6512500Y-8340214D02*
X6341071Y-8340214D01*
X6426786Y-8340214D02*
X6426786Y-8040214D01*
X6398214Y-8083071D01*
X6369643Y-8111643D01*
X6341071Y-8125929D01*
X6783928Y-8040214D02*
X6641071Y-8040214D01*
X6626786Y-8183071D01*
X6641071Y-8168786D01*
X6669643Y-8154500D01*
X6741071Y-8154500D01*
X6769643Y-8168786D01*
X6783928Y-8183071D01*
X6798214Y-8211643D01*
X6798214Y-8283071D01*
X6783928Y-8311643D01*
X6769643Y-8325929D01*
X6741071Y-8340214D01*
X6669643Y-8340214D01*
X6641071Y-8325929D01*
X6626786Y-8311643D01*
X6898214Y-8040214D02*
X7098214Y-8040214D01*
X6969643Y-8340214D01*
X7198214Y-8040214D02*
X7198214Y-8097357D01*
X7312500Y-8040214D02*
X7312500Y-8097357D01*
X7755357Y-8454500D02*
X7741071Y-8440214D01*
X7712500Y-8397357D01*
X7698214Y-8368786D01*
X7683928Y-8325929D01*
X7669643Y-8254500D01*
X7669643Y-8197357D01*
X7683928Y-8125929D01*
X7698214Y-8083071D01*
X7712500Y-8054500D01*
X7741071Y-8011643D01*
X7755357Y-7997357D01*
X7841071Y-8040214D02*
X8026786Y-8040214D01*
X7926786Y-8154500D01*
X7969643Y-8154500D01*
X7998214Y-8168786D01*
X8012500Y-8183071D01*
X8026786Y-8211643D01*
X8026786Y-8283071D01*
X8012500Y-8311643D01*
X7998214Y-8325929D01*
X7969643Y-8340214D01*
X7883928Y-8340214D01*
X7855357Y-8325929D01*
X7841071Y-8311643D01*
X8126786Y-8040214D02*
X8312500Y-8040214D01*
X8212500Y-8154500D01*
X8255357Y-8154500D01*
X8283928Y-8168786D01*
X8298214Y-8183071D01*
X8312500Y-8211643D01*
X8312500Y-8283071D01*
X8298214Y-8311643D01*
X8283928Y-8325929D01*
X8255357Y-8340214D01*
X8169643Y-8340214D01*
X8141071Y-8325929D01*
X8126786Y-8311643D01*
X8498214Y-8040214D02*
X8526786Y-8040214D01*
X8555357Y-8054500D01*
X8569643Y-8068786D01*
X8583928Y-8097357D01*
X8598214Y-8154500D01*
X8598214Y-8225929D01*
X8583928Y-8283071D01*
X8569643Y-8311643D01*
X8555357Y-8325929D01*
X8526786Y-8340214D01*
X8498214Y-8340214D01*
X8469643Y-8325929D01*
X8455357Y-8311643D01*
X8441071Y-8283071D01*
X8426786Y-8225929D01*
X8426786Y-8154500D01*
X8441071Y-8097357D01*
X8455357Y-8068786D01*
X8469643Y-8054500D01*
X8498214Y-8040214D01*
X8955357Y-8340214D02*
X8955357Y-8040214D01*
X9083928Y-8340214D02*
X9083928Y-8183071D01*
X9069643Y-8154500D01*
X9041071Y-8140214D01*
X8998214Y-8140214D01*
X8969643Y-8154500D01*
X8955357Y-8168786D01*
X9269643Y-8340214D02*
X9241071Y-8325929D01*
X9226786Y-8311643D01*
X9212500Y-8283071D01*
X9212500Y-8197357D01*
X9226786Y-8168786D01*
X9241071Y-8154500D01*
X9269643Y-8140214D01*
X9312500Y-8140214D01*
X9341071Y-8154500D01*
X9355357Y-8168786D01*
X9369643Y-8197357D01*
X9369643Y-8283071D01*
X9355357Y-8311643D01*
X9341071Y-8325929D01*
X9312500Y-8340214D01*
X9269643Y-8340214D01*
X9541071Y-8340214D02*
X9512500Y-8325929D01*
X9498214Y-8297357D01*
X9498214Y-8040214D01*
X9769643Y-8325929D02*
X9741071Y-8340214D01*
X9683928Y-8340214D01*
X9655357Y-8325929D01*
X9641071Y-8297357D01*
X9641071Y-8183071D01*
X9655357Y-8154500D01*
X9683928Y-8140214D01*
X9741071Y-8140214D01*
X9769643Y-8154500D01*
X9783928Y-8183071D01*
X9783928Y-8211643D01*
X9641071Y-8240214D01*
X9898214Y-8325929D02*
X9926786Y-8340214D01*
X9983928Y-8340214D01*
X10012500Y-8325929D01*
X10026786Y-8297357D01*
X10026786Y-8283071D01*
X10012500Y-8254500D01*
X9983928Y-8240214D01*
X9941071Y-8240214D01*
X9912500Y-8225929D01*
X9898214Y-8197357D01*
X9898214Y-8183071D01*
X9912500Y-8154500D01*
X9941071Y-8140214D01*
X9983928Y-8140214D01*
X10012500Y-8154500D01*
X10126786Y-8454500D02*
X10141071Y-8440214D01*
X10169643Y-8397357D01*
X10183928Y-8368786D01*
X10198214Y-8325929D01*
X10212500Y-8254500D01*
X10212500Y-8197357D01*
X10198214Y-8125929D01*
X10183928Y-8083071D01*
X10169643Y-8054500D01*
X10141071Y-8011643D01*
X10126786Y-7997357D01*
X2487249Y-8625249D02*
X2487249Y-8575751D01*
X2437751Y-8575751D01*
X2437751Y-8625249D01*
X2487249Y-8625249D01*
X2841071Y-8436214D02*
X2869643Y-8436214D01*
X2898214Y-8450500D01*
X2912500Y-8464786D01*
X2926786Y-8493357D01*
X2941071Y-8550500D01*
X2941071Y-8621929D01*
X2926786Y-8679072D01*
X2912500Y-8707643D01*
X2898214Y-8721929D01*
X2869643Y-8736214D01*
X2841071Y-8736214D01*
X2812500Y-8721929D01*
X2798214Y-8707643D01*
X2783928Y-8679072D01*
X2769643Y-8621929D01*
X2769643Y-8550500D01*
X2783928Y-8493357D01*
X2798214Y-8464786D01*
X2812500Y-8450500D01*
X2841071Y-8436214D01*
X3069643Y-8707643D02*
X3083928Y-8721929D01*
X3069643Y-8736214D01*
X3055357Y-8721929D01*
X3069643Y-8707643D01*
X3069643Y-8736214D01*
X3183928Y-8436214D02*
X3383928Y-8436214D01*
X3255357Y-8736214D01*
X3555357Y-8436214D02*
X3583928Y-8436214D01*
X3612500Y-8450500D01*
X3626786Y-8464786D01*
X3641071Y-8493357D01*
X3655357Y-8550500D01*
X3655357Y-8621929D01*
X3641071Y-8679072D01*
X3626786Y-8707643D01*
X3612500Y-8721929D01*
X3583928Y-8736214D01*
X3555357Y-8736214D01*
X3526786Y-8721929D01*
X3512500Y-8707643D01*
X3498214Y-8679072D01*
X3483928Y-8621929D01*
X3483928Y-8550500D01*
X3498214Y-8493357D01*
X3512500Y-8464786D01*
X3526786Y-8450500D01*
X3555357Y-8436214D01*
X3841071Y-8436214D02*
X3869643Y-8436214D01*
X3898214Y-8450500D01*
X3912500Y-8464786D01*
X3926786Y-8493357D01*
X3941071Y-8550500D01*
X3941071Y-8621929D01*
X3926786Y-8679072D01*
X3912500Y-8707643D01*
X3898214Y-8721929D01*
X3869643Y-8736214D01*
X3841071Y-8736214D01*
X3812500Y-8721929D01*
X3798214Y-8707643D01*
X3783928Y-8679072D01*
X3769643Y-8621929D01*
X3769643Y-8550500D01*
X3783928Y-8493357D01*
X3798214Y-8464786D01*
X3812500Y-8450500D01*
X3841071Y-8436214D01*
X4069643Y-8736214D02*
X4069643Y-8536214D01*
X4069643Y-8564786D02*
X4083928Y-8550500D01*
X4112500Y-8536214D01*
X4155357Y-8536214D01*
X4183928Y-8550500D01*
X4198214Y-8579072D01*
X4198214Y-8736214D01*
X4198214Y-8579072D02*
X4212500Y-8550500D01*
X4241071Y-8536214D01*
X4283928Y-8536214D01*
X4312500Y-8550500D01*
X4326786Y-8579072D01*
X4326786Y-8736214D01*
X4469643Y-8736214D02*
X4469643Y-8536214D01*
X4469643Y-8564786D02*
X4483928Y-8550500D01*
X4512500Y-8536214D01*
X4555357Y-8536214D01*
X4583928Y-8550500D01*
X4598214Y-8579072D01*
X4598214Y-8736214D01*
X4598214Y-8579072D02*
X4612500Y-8550500D01*
X4641071Y-8536214D01*
X4683928Y-8536214D01*
X4712500Y-8550500D01*
X4726786Y-8579072D01*
X4726786Y-8736214D01*
X5312500Y-8421929D02*
X5055357Y-8807643D01*
X5698214Y-8436214D02*
X5726786Y-8436214D01*
X5755357Y-8450500D01*
X5769643Y-8464786D01*
X5783928Y-8493357D01*
X5798214Y-8550500D01*
X5798214Y-8621929D01*
X5783928Y-8679072D01*
X5769643Y-8707643D01*
X5755357Y-8721929D01*
X5726786Y-8736214D01*
X5698214Y-8736214D01*
X5669643Y-8721929D01*
X5655357Y-8707643D01*
X5641071Y-8679072D01*
X5626786Y-8621929D01*
X5626786Y-8550500D01*
X5641071Y-8493357D01*
X5655357Y-8464786D01*
X5669643Y-8450500D01*
X5698214Y-8436214D01*
X5926786Y-8707643D02*
X5941071Y-8721929D01*
X5926786Y-8736214D01*
X5912500Y-8721929D01*
X5926786Y-8707643D01*
X5926786Y-8736214D01*
X6126786Y-8436214D02*
X6155357Y-8436214D01*
X6183928Y-8450500D01*
X6198214Y-8464786D01*
X6212500Y-8493357D01*
X6226786Y-8550500D01*
X6226786Y-8621929D01*
X6212500Y-8679072D01*
X6198214Y-8707643D01*
X6183928Y-8721929D01*
X6155357Y-8736214D01*
X6126786Y-8736214D01*
X6098214Y-8721929D01*
X6083928Y-8707643D01*
X6069643Y-8679072D01*
X6055357Y-8621929D01*
X6055357Y-8550500D01*
X6069643Y-8493357D01*
X6083928Y-8464786D01*
X6098214Y-8450500D01*
X6126786Y-8436214D01*
X6341071Y-8464786D02*
X6355357Y-8450500D01*
X6383928Y-8436214D01*
X6455357Y-8436214D01*
X6483928Y-8450500D01*
X6498214Y-8464786D01*
X6512500Y-8493357D01*
X6512500Y-8521929D01*
X6498214Y-8564786D01*
X6326786Y-8736214D01*
X6512500Y-8736214D01*
X6612500Y-8436214D02*
X6812500Y-8436214D01*
X6683928Y-8736214D01*
X7055357Y-8436214D02*
X6998214Y-8436214D01*
X6969643Y-8450500D01*
X6955357Y-8464786D01*
X6926786Y-8507643D01*
X6912500Y-8564786D01*
X6912500Y-8679072D01*
X6926786Y-8707643D01*
X6941071Y-8721929D01*
X6969643Y-8736214D01*
X7026786Y-8736214D01*
X7055357Y-8721929D01*
X7069643Y-8707643D01*
X7083928Y-8679072D01*
X7083928Y-8607643D01*
X7069643Y-8579072D01*
X7055357Y-8564786D01*
X7026786Y-8550500D01*
X6969643Y-8550500D01*
X6941071Y-8564786D01*
X6926786Y-8579072D01*
X6912500Y-8607643D01*
X7198214Y-8436214D02*
X7198214Y-8493357D01*
X7312500Y-8436214D02*
X7312500Y-8493357D01*
X7755357Y-8850500D02*
X7741071Y-8836214D01*
X7712500Y-8793357D01*
X7698214Y-8764786D01*
X7683928Y-8721929D01*
X7669643Y-8650500D01*
X7669643Y-8593357D01*
X7683928Y-8521929D01*
X7698214Y-8479072D01*
X7712500Y-8450500D01*
X7741071Y-8407643D01*
X7755357Y-8393357D01*
X7855357Y-8464786D02*
X7869643Y-8450500D01*
X7898214Y-8436214D01*
X7969643Y-8436214D01*
X7998214Y-8450500D01*
X8012500Y-8464786D01*
X8026786Y-8493357D01*
X8026786Y-8521929D01*
X8012500Y-8564786D01*
X7841071Y-8736214D01*
X8026786Y-8736214D01*
X8383928Y-8736214D02*
X8383928Y-8436214D01*
X8512500Y-8736214D02*
X8512500Y-8579072D01*
X8498214Y-8550500D01*
X8469643Y-8536214D01*
X8426786Y-8536214D01*
X8398214Y-8550500D01*
X8383928Y-8564786D01*
X8698214Y-8736214D02*
X8669643Y-8721929D01*
X8655357Y-8707643D01*
X8641071Y-8679072D01*
X8641071Y-8593357D01*
X8655357Y-8564786D01*
X8669643Y-8550500D01*
X8698214Y-8536214D01*
X8741071Y-8536214D01*
X8769643Y-8550500D01*
X8783928Y-8564786D01*
X8798214Y-8593357D01*
X8798214Y-8679072D01*
X8783928Y-8707643D01*
X8769643Y-8721929D01*
X8741071Y-8736214D01*
X8698214Y-8736214D01*
X8969643Y-8736214D02*
X8941071Y-8721929D01*
X8926786Y-8693357D01*
X8926786Y-8436214D01*
X9198214Y-8721929D02*
X9169643Y-8736214D01*
X9112500Y-8736214D01*
X9083928Y-8721929D01*
X9069643Y-8693357D01*
X9069643Y-8579072D01*
X9083928Y-8550500D01*
X9112500Y-8536214D01*
X9169643Y-8536214D01*
X9198214Y-8550500D01*
X9212500Y-8579072D01*
X9212500Y-8607643D01*
X9069643Y-8636214D01*
X9326786Y-8721929D02*
X9355357Y-8736214D01*
X9412500Y-8736214D01*
X9441071Y-8721929D01*
X9455357Y-8693357D01*
X9455357Y-8679072D01*
X9441071Y-8650500D01*
X9412500Y-8636214D01*
X9369643Y-8636214D01*
X9341071Y-8621929D01*
X9326786Y-8593357D01*
X9326786Y-8579072D01*
X9341071Y-8550500D01*
X9369643Y-8536214D01*
X9412500Y-8536214D01*
X9441071Y-8550500D01*
X9555357Y-8850500D02*
X9569643Y-8836214D01*
X9598214Y-8793357D01*
X9612500Y-8764786D01*
X9626786Y-8721929D01*
X9641071Y-8650500D01*
X9641071Y-8593357D01*
X9626786Y-8521929D01*
X9612500Y-8479072D01*
X9598214Y-8450500D01*
X9569643Y-8407643D01*
X9555357Y-8393357D01*
X2447500Y-9046500D02*
X2497500Y-8996500D01*
X2447500Y-8946500D01*
X2397500Y-8996500D01*
X2447500Y-9046500D01*
X2941071Y-9132214D02*
X2769643Y-9132214D01*
X2855357Y-9132214D02*
X2855357Y-8832214D01*
X2826786Y-8875072D01*
X2798214Y-8903643D01*
X2769643Y-8917929D01*
X3069643Y-9103643D02*
X3083928Y-9117929D01*
X3069643Y-9132214D01*
X3055357Y-9117929D01*
X3069643Y-9103643D01*
X3069643Y-9132214D01*
X3269643Y-8832214D02*
X3298214Y-8832214D01*
X3326786Y-8846500D01*
X3341071Y-8860786D01*
X3355357Y-8889357D01*
X3369643Y-8946500D01*
X3369643Y-9017929D01*
X3355357Y-9075072D01*
X3341071Y-9103643D01*
X3326786Y-9117929D01*
X3298214Y-9132214D01*
X3269643Y-9132214D01*
X3241071Y-9117929D01*
X3226786Y-9103643D01*
X3212500Y-9075072D01*
X3198214Y-9017929D01*
X3198214Y-8946500D01*
X3212500Y-8889357D01*
X3226786Y-8860786D01*
X3241071Y-8846500D01*
X3269643Y-8832214D01*
X3555357Y-8832214D02*
X3583928Y-8832214D01*
X3612500Y-8846500D01*
X3626786Y-8860786D01*
X3641071Y-8889357D01*
X3655357Y-8946500D01*
X3655357Y-9017929D01*
X3641071Y-9075072D01*
X3626786Y-9103643D01*
X3612500Y-9117929D01*
X3583928Y-9132214D01*
X3555357Y-9132214D01*
X3526786Y-9117929D01*
X3512500Y-9103643D01*
X3498214Y-9075072D01*
X3483928Y-9017929D01*
X3483928Y-8946500D01*
X3498214Y-8889357D01*
X3512500Y-8860786D01*
X3526786Y-8846500D01*
X3555357Y-8832214D01*
X3841071Y-8832214D02*
X3869643Y-8832214D01*
X3898214Y-8846500D01*
X3912500Y-8860786D01*
X3926786Y-8889357D01*
X3941071Y-8946500D01*
X3941071Y-9017929D01*
X3926786Y-9075072D01*
X3912500Y-9103643D01*
X3898214Y-9117929D01*
X3869643Y-9132214D01*
X3841071Y-9132214D01*
X3812500Y-9117929D01*
X3798214Y-9103643D01*
X3783928Y-9075072D01*
X3769643Y-9017929D01*
X3769643Y-8946500D01*
X3783928Y-8889357D01*
X3798214Y-8860786D01*
X3812500Y-8846500D01*
X3841071Y-8832214D01*
X4069643Y-9132214D02*
X4069643Y-8932214D01*
X4069643Y-8960786D02*
X4083928Y-8946500D01*
X4112500Y-8932214D01*
X4155357Y-8932214D01*
X4183928Y-8946500D01*
X4198214Y-8975072D01*
X4198214Y-9132214D01*
X4198214Y-8975072D02*
X4212500Y-8946500D01*
X4241071Y-8932214D01*
X4283928Y-8932214D01*
X4312500Y-8946500D01*
X4326786Y-8975072D01*
X4326786Y-9132214D01*
X4469643Y-9132214D02*
X4469643Y-8932214D01*
X4469643Y-8960786D02*
X4483928Y-8946500D01*
X4512500Y-8932214D01*
X4555357Y-8932214D01*
X4583928Y-8946500D01*
X4598214Y-8975072D01*
X4598214Y-9132214D01*
X4598214Y-8975072D02*
X4612500Y-8946500D01*
X4641071Y-8932214D01*
X4683928Y-8932214D01*
X4712500Y-8946500D01*
X4726786Y-8975072D01*
X4726786Y-9132214D01*
X5312500Y-8817929D02*
X5055357Y-9203643D01*
X5698214Y-8832214D02*
X5726786Y-8832214D01*
X5755357Y-8846500D01*
X5769643Y-8860786D01*
X5783928Y-8889357D01*
X5798214Y-8946500D01*
X5798214Y-9017929D01*
X5783928Y-9075072D01*
X5769643Y-9103643D01*
X5755357Y-9117929D01*
X5726786Y-9132214D01*
X5698214Y-9132214D01*
X5669643Y-9117929D01*
X5655357Y-9103643D01*
X5641071Y-9075072D01*
X5626786Y-9017929D01*
X5626786Y-8946500D01*
X5641071Y-8889357D01*
X5655357Y-8860786D01*
X5669643Y-8846500D01*
X5698214Y-8832214D01*
X5926786Y-9103643D02*
X5941071Y-9117929D01*
X5926786Y-9132214D01*
X5912500Y-9117929D01*
X5926786Y-9103643D01*
X5926786Y-9132214D01*
X6126786Y-8832214D02*
X6155357Y-8832214D01*
X6183928Y-8846500D01*
X6198214Y-8860786D01*
X6212500Y-8889357D01*
X6226786Y-8946500D01*
X6226786Y-9017929D01*
X6212500Y-9075072D01*
X6198214Y-9103643D01*
X6183928Y-9117929D01*
X6155357Y-9132214D01*
X6126786Y-9132214D01*
X6098214Y-9117929D01*
X6083928Y-9103643D01*
X6069643Y-9075072D01*
X6055357Y-9017929D01*
X6055357Y-8946500D01*
X6069643Y-8889357D01*
X6083928Y-8860786D01*
X6098214Y-8846500D01*
X6126786Y-8832214D01*
X6326786Y-8832214D02*
X6512500Y-8832214D01*
X6412500Y-8946500D01*
X6455357Y-8946500D01*
X6483928Y-8960786D01*
X6498214Y-8975072D01*
X6512500Y-9003643D01*
X6512500Y-9075072D01*
X6498214Y-9103643D01*
X6483928Y-9117929D01*
X6455357Y-9132214D01*
X6369643Y-9132214D01*
X6341071Y-9117929D01*
X6326786Y-9103643D01*
X6655357Y-9132214D02*
X6712500Y-9132214D01*
X6741071Y-9117929D01*
X6755357Y-9103643D01*
X6783928Y-9060786D01*
X6798214Y-9003643D01*
X6798214Y-8889357D01*
X6783928Y-8860786D01*
X6769643Y-8846500D01*
X6741071Y-8832214D01*
X6683928Y-8832214D01*
X6655357Y-8846500D01*
X6641071Y-8860786D01*
X6626786Y-8889357D01*
X6626786Y-8960786D01*
X6641071Y-8989357D01*
X6655357Y-9003643D01*
X6683928Y-9017929D01*
X6741071Y-9017929D01*
X6769643Y-9003643D01*
X6783928Y-8989357D01*
X6798214Y-8960786D01*
X7055357Y-8932214D02*
X7055357Y-9132214D01*
X6983928Y-8817929D02*
X6912500Y-9032214D01*
X7098214Y-9032214D01*
X7198214Y-8832214D02*
X7198214Y-8889357D01*
X7312500Y-8832214D02*
X7312500Y-8889357D01*
X7755357Y-9246500D02*
X7741071Y-9232214D01*
X7712500Y-9189357D01*
X7698214Y-9160786D01*
X7683928Y-9117929D01*
X7669643Y-9046500D01*
X7669643Y-8989357D01*
X7683928Y-8917929D01*
X7698214Y-8875072D01*
X7712500Y-8846500D01*
X7741071Y-8803643D01*
X7755357Y-8789357D01*
X7855357Y-8860786D02*
X7869643Y-8846500D01*
X7898214Y-8832214D01*
X7969643Y-8832214D01*
X7998214Y-8846500D01*
X8012500Y-8860786D01*
X8026786Y-8889357D01*
X8026786Y-8917929D01*
X8012500Y-8960786D01*
X7841071Y-9132214D01*
X8026786Y-9132214D01*
X8283928Y-8932214D02*
X8283928Y-9132214D01*
X8212500Y-8817929D02*
X8141071Y-9032214D01*
X8326786Y-9032214D01*
X8669643Y-9132214D02*
X8669643Y-8832214D01*
X8798214Y-9132214D02*
X8798214Y-8975072D01*
X8783928Y-8946500D01*
X8755357Y-8932214D01*
X8712500Y-8932214D01*
X8683928Y-8946500D01*
X8669643Y-8960786D01*
X8983928Y-9132214D02*
X8955357Y-9117929D01*
X8941071Y-9103643D01*
X8926786Y-9075072D01*
X8926786Y-8989357D01*
X8941071Y-8960786D01*
X8955357Y-8946500D01*
X8983928Y-8932214D01*
X9026786Y-8932214D01*
X9055357Y-8946500D01*
X9069643Y-8960786D01*
X9083928Y-8989357D01*
X9083928Y-9075072D01*
X9069643Y-9103643D01*
X9055357Y-9117929D01*
X9026786Y-9132214D01*
X8983928Y-9132214D01*
X9255357Y-9132214D02*
X9226786Y-9117929D01*
X9212500Y-9089357D01*
X9212500Y-8832214D01*
X9483928Y-9117929D02*
X9455357Y-9132214D01*
X9398214Y-9132214D01*
X9369643Y-9117929D01*
X9355357Y-9089357D01*
X9355357Y-8975072D01*
X9369643Y-8946500D01*
X9398214Y-8932214D01*
X9455357Y-8932214D01*
X9483928Y-8946500D01*
X9498214Y-8975072D01*
X9498214Y-9003643D01*
X9355357Y-9032214D01*
X9612500Y-9117929D02*
X9641071Y-9132214D01*
X9698214Y-9132214D01*
X9726786Y-9117929D01*
X9741071Y-9089357D01*
X9741071Y-9075072D01*
X9726786Y-9046500D01*
X9698214Y-9032214D01*
X9655357Y-9032214D01*
X9626786Y-9017929D01*
X9612500Y-8989357D01*
X9612500Y-8975072D01*
X9626786Y-8946500D01*
X9655357Y-8932214D01*
X9698214Y-8932214D01*
X9726786Y-8946500D01*
X9841071Y-9246500D02*
X9855357Y-9232214D01*
X9883928Y-9189357D01*
X9898214Y-9160786D01*
X9912500Y-9117929D01*
X9926786Y-9046500D01*
X9926786Y-8989357D01*
X9912500Y-8917929D01*
X9898214Y-8875072D01*
X9883928Y-8846500D01*
X9855357Y-8803643D01*
X9841071Y-8789357D01*
X2387500Y-9337500D02*
X2497500Y-9447500D01*
X2497500Y-9337500D02*
X2387500Y-9447500D01*
X2497500Y-9392500D02*
G75*
G03*
X2497500Y-9392500I-55000J0D01*
G01*
X2941071Y-9528214D02*
X2769643Y-9528214D01*
X2855357Y-9528214D02*
X2855357Y-9228214D01*
X2826786Y-9271072D01*
X2798214Y-9299643D01*
X2769643Y-9313929D01*
X3069643Y-9499643D02*
X3083928Y-9513929D01*
X3069643Y-9528214D01*
X3055357Y-9513929D01*
X3069643Y-9499643D01*
X3069643Y-9528214D01*
X3369643Y-9528214D02*
X3198214Y-9528214D01*
X3283928Y-9528214D02*
X3283928Y-9228214D01*
X3255357Y-9271072D01*
X3226786Y-9299643D01*
X3198214Y-9313929D01*
X3555357Y-9228214D02*
X3583928Y-9228214D01*
X3612500Y-9242500D01*
X3626786Y-9256786D01*
X3641071Y-9285357D01*
X3655357Y-9342500D01*
X3655357Y-9413929D01*
X3641071Y-9471072D01*
X3626786Y-9499643D01*
X3612500Y-9513929D01*
X3583928Y-9528214D01*
X3555357Y-9528214D01*
X3526786Y-9513929D01*
X3512500Y-9499643D01*
X3498214Y-9471072D01*
X3483928Y-9413929D01*
X3483928Y-9342500D01*
X3498214Y-9285357D01*
X3512500Y-9256786D01*
X3526786Y-9242500D01*
X3555357Y-9228214D01*
X3841071Y-9228214D02*
X3869643Y-9228214D01*
X3898214Y-9242500D01*
X3912500Y-9256786D01*
X3926786Y-9285357D01*
X3941071Y-9342500D01*
X3941071Y-9413929D01*
X3926786Y-9471072D01*
X3912500Y-9499643D01*
X3898214Y-9513929D01*
X3869643Y-9528214D01*
X3841071Y-9528214D01*
X3812500Y-9513929D01*
X3798214Y-9499643D01*
X3783928Y-9471072D01*
X3769643Y-9413929D01*
X3769643Y-9342500D01*
X3783928Y-9285357D01*
X3798214Y-9256786D01*
X3812500Y-9242500D01*
X3841071Y-9228214D01*
X4069643Y-9528214D02*
X4069643Y-9328214D01*
X4069643Y-9356786D02*
X4083928Y-9342500D01*
X4112500Y-9328214D01*
X4155357Y-9328214D01*
X4183928Y-9342500D01*
X4198214Y-9371072D01*
X4198214Y-9528214D01*
X4198214Y-9371072D02*
X4212500Y-9342500D01*
X4241071Y-9328214D01*
X4283928Y-9328214D01*
X4312500Y-9342500D01*
X4326786Y-9371072D01*
X4326786Y-9528214D01*
X4469643Y-9528214D02*
X4469643Y-9328214D01*
X4469643Y-9356786D02*
X4483928Y-9342500D01*
X4512500Y-9328214D01*
X4555357Y-9328214D01*
X4583928Y-9342500D01*
X4598214Y-9371072D01*
X4598214Y-9528214D01*
X4598214Y-9371072D02*
X4612500Y-9342500D01*
X4641071Y-9328214D01*
X4683928Y-9328214D01*
X4712500Y-9342500D01*
X4726786Y-9371072D01*
X4726786Y-9528214D01*
X5312500Y-9213929D02*
X5055357Y-9599643D01*
X5698214Y-9228214D02*
X5726786Y-9228214D01*
X5755357Y-9242500D01*
X5769643Y-9256786D01*
X5783928Y-9285357D01*
X5798214Y-9342500D01*
X5798214Y-9413929D01*
X5783928Y-9471072D01*
X5769643Y-9499643D01*
X5755357Y-9513929D01*
X5726786Y-9528214D01*
X5698214Y-9528214D01*
X5669643Y-9513929D01*
X5655357Y-9499643D01*
X5641071Y-9471072D01*
X5626786Y-9413929D01*
X5626786Y-9342500D01*
X5641071Y-9285357D01*
X5655357Y-9256786D01*
X5669643Y-9242500D01*
X5698214Y-9228214D01*
X5926786Y-9499643D02*
X5941071Y-9513929D01*
X5926786Y-9528214D01*
X5912500Y-9513929D01*
X5926786Y-9499643D01*
X5926786Y-9528214D01*
X6126786Y-9228214D02*
X6155357Y-9228214D01*
X6183928Y-9242500D01*
X6198214Y-9256786D01*
X6212500Y-9285357D01*
X6226786Y-9342500D01*
X6226786Y-9413929D01*
X6212500Y-9471072D01*
X6198214Y-9499643D01*
X6183928Y-9513929D01*
X6155357Y-9528214D01*
X6126786Y-9528214D01*
X6098214Y-9513929D01*
X6083928Y-9499643D01*
X6069643Y-9471072D01*
X6055357Y-9413929D01*
X6055357Y-9342500D01*
X6069643Y-9285357D01*
X6083928Y-9256786D01*
X6098214Y-9242500D01*
X6126786Y-9228214D01*
X6483928Y-9328214D02*
X6483928Y-9528214D01*
X6412500Y-9213929D02*
X6341071Y-9428214D01*
X6526786Y-9428214D01*
X6612500Y-9228214D02*
X6798214Y-9228214D01*
X6698214Y-9342500D01*
X6741071Y-9342500D01*
X6769643Y-9356786D01*
X6783928Y-9371072D01*
X6798214Y-9399643D01*
X6798214Y-9471072D01*
X6783928Y-9499643D01*
X6769643Y-9513929D01*
X6741071Y-9528214D01*
X6655357Y-9528214D01*
X6626786Y-9513929D01*
X6612500Y-9499643D01*
X6898214Y-9228214D02*
X7083928Y-9228214D01*
X6983928Y-9342500D01*
X7026786Y-9342500D01*
X7055357Y-9356786D01*
X7069643Y-9371072D01*
X7083928Y-9399643D01*
X7083928Y-9471072D01*
X7069643Y-9499643D01*
X7055357Y-9513929D01*
X7026786Y-9528214D01*
X6941071Y-9528214D01*
X6912500Y-9513929D01*
X6898214Y-9499643D01*
X7198214Y-9228214D02*
X7198214Y-9285357D01*
X7312500Y-9228214D02*
X7312500Y-9285357D01*
X7755357Y-9642500D02*
X7741071Y-9628214D01*
X7712500Y-9585357D01*
X7698214Y-9556786D01*
X7683928Y-9513929D01*
X7669643Y-9442500D01*
X7669643Y-9385357D01*
X7683928Y-9313929D01*
X7698214Y-9271072D01*
X7712500Y-9242500D01*
X7741071Y-9199643D01*
X7755357Y-9185357D01*
X7926786Y-9228214D02*
X7955357Y-9228214D01*
X7983928Y-9242500D01*
X7998214Y-9256786D01*
X8012500Y-9285357D01*
X8026786Y-9342500D01*
X8026786Y-9413929D01*
X8012500Y-9471072D01*
X7998214Y-9499643D01*
X7983928Y-9513929D01*
X7955357Y-9528214D01*
X7926786Y-9528214D01*
X7898214Y-9513929D01*
X7883928Y-9499643D01*
X7869643Y-9471072D01*
X7855357Y-9413929D01*
X7855357Y-9342500D01*
X7869643Y-9285357D01*
X7883928Y-9256786D01*
X7898214Y-9242500D01*
X7926786Y-9228214D01*
X8383928Y-9528214D02*
X8383928Y-9228214D01*
X8512500Y-9528214D02*
X8512500Y-9371072D01*
X8498214Y-9342500D01*
X8469643Y-9328214D01*
X8426786Y-9328214D01*
X8398214Y-9342500D01*
X8383928Y-9356786D01*
X8698214Y-9528214D02*
X8669643Y-9513929D01*
X8655357Y-9499643D01*
X8641071Y-9471072D01*
X8641071Y-9385357D01*
X8655357Y-9356786D01*
X8669643Y-9342500D01*
X8698214Y-9328214D01*
X8741071Y-9328214D01*
X8769643Y-9342500D01*
X8783928Y-9356786D01*
X8798214Y-9385357D01*
X8798214Y-9471072D01*
X8783928Y-9499643D01*
X8769643Y-9513929D01*
X8741071Y-9528214D01*
X8698214Y-9528214D01*
X8969643Y-9528214D02*
X8941071Y-9513929D01*
X8926786Y-9485357D01*
X8926786Y-9228214D01*
X9198214Y-9513929D02*
X9169643Y-9528214D01*
X9112500Y-9528214D01*
X9083928Y-9513929D01*
X9069643Y-9485357D01*
X9069643Y-9371072D01*
X9083928Y-9342500D01*
X9112500Y-9328214D01*
X9169643Y-9328214D01*
X9198214Y-9342500D01*
X9212500Y-9371072D01*
X9212500Y-9399643D01*
X9069643Y-9428214D01*
X9326786Y-9513929D02*
X9355357Y-9528214D01*
X9412500Y-9528214D01*
X9441071Y-9513929D01*
X9455357Y-9485357D01*
X9455357Y-9471072D01*
X9441071Y-9442500D01*
X9412500Y-9428214D01*
X9369643Y-9428214D01*
X9341071Y-9413929D01*
X9326786Y-9385357D01*
X9326786Y-9371072D01*
X9341071Y-9342500D01*
X9369643Y-9328214D01*
X9412500Y-9328214D01*
X9441071Y-9342500D01*
X9812500Y-9413929D02*
X10041071Y-9413929D01*
X9926786Y-9528214D02*
X9926786Y-9299643D01*
X10398214Y-9256786D02*
X10412500Y-9242500D01*
X10441071Y-9228214D01*
X10512500Y-9228214D01*
X10541071Y-9242500D01*
X10555357Y-9256786D01*
X10569643Y-9285357D01*
X10569643Y-9313929D01*
X10555357Y-9356786D01*
X10383928Y-9528214D01*
X10569643Y-9528214D01*
X10912500Y-9513929D02*
X10941071Y-9528214D01*
X10998214Y-9528214D01*
X11026786Y-9513929D01*
X11041071Y-9485357D01*
X11041071Y-9471072D01*
X11026786Y-9442500D01*
X10998214Y-9428214D01*
X10955357Y-9428214D01*
X10926786Y-9413929D01*
X10912500Y-9385357D01*
X10912500Y-9371072D01*
X10926786Y-9342500D01*
X10955357Y-9328214D01*
X10998214Y-9328214D01*
X11026786Y-9342500D01*
X11212500Y-9528214D02*
X11183928Y-9513929D01*
X11169643Y-9485357D01*
X11169643Y-9228214D01*
X11369643Y-9528214D02*
X11341071Y-9513929D01*
X11326786Y-9499643D01*
X11312500Y-9471072D01*
X11312500Y-9385357D01*
X11326786Y-9356786D01*
X11341071Y-9342500D01*
X11369643Y-9328214D01*
X11412500Y-9328214D01*
X11441071Y-9342500D01*
X11455357Y-9356786D01*
X11469643Y-9385357D01*
X11469643Y-9471072D01*
X11455357Y-9499643D01*
X11441071Y-9513929D01*
X11412500Y-9528214D01*
X11369643Y-9528214D01*
X11555357Y-9328214D02*
X11669643Y-9328214D01*
X11598214Y-9228214D02*
X11598214Y-9485357D01*
X11612500Y-9513929D01*
X11641071Y-9528214D01*
X11669643Y-9528214D01*
X11755357Y-9513929D02*
X11783928Y-9528214D01*
X11841071Y-9528214D01*
X11869643Y-9513929D01*
X11883928Y-9485357D01*
X11883928Y-9471072D01*
X11869643Y-9442500D01*
X11841071Y-9428214D01*
X11798214Y-9428214D01*
X11769643Y-9413929D01*
X11755357Y-9385357D01*
X11755357Y-9371072D01*
X11769643Y-9342500D01*
X11798214Y-9328214D01*
X11841071Y-9328214D01*
X11869643Y-9342500D01*
X11983928Y-9642500D02*
X11998214Y-9628214D01*
X12026786Y-9585357D01*
X12041071Y-9556786D01*
X12055357Y-9513929D01*
X12069643Y-9442500D01*
X12069643Y-9385357D01*
X12055357Y-9313929D01*
X12041071Y-9271072D01*
X12026786Y-9242500D01*
X11998214Y-9199643D01*
X11983928Y-9185357D01*
M02*
