%TF.GenerationSoftware,KiCad,Pcbnew,5.1.4*%
%TF.CreationDate,2019-10-04T22:27:36+02:00*%
%TF.ProjectId,epaper-breakout,65706170-6572-42d6-9272-65616b6f7574,rev?*%
%TF.SameCoordinates,Original*%
%TF.FileFunction,Soldermask,Bot*%
%TF.FilePolarity,Negative*%
%FSLAX46Y46*%
G04 Gerber Fmt 4.6, Leading zero omitted, Abs format (unit mm)*
G04 Created by KiCad (PCBNEW 5.1.4) date 2019-10-04 22:27:36*
%MOMM*%
%LPD*%
G04 APERTURE LIST*
%ADD10C,0.150000*%
G04 APERTURE END LIST*
D10*
G36*
X76818442Y62108482D02*
G01*
X76884627Y62101963D01*
X77054466Y62050443D01*
X77210991Y61966778D01*
X77246729Y61937448D01*
X77348186Y61854186D01*
X77431448Y61752729D01*
X77460778Y61716991D01*
X77544443Y61560466D01*
X77595963Y61390627D01*
X77613359Y61214000D01*
X77595963Y61037373D01*
X77544443Y60867534D01*
X77460778Y60711009D01*
X77431448Y60675271D01*
X77348186Y60573814D01*
X77246729Y60490552D01*
X77210991Y60461222D01*
X77054466Y60377557D01*
X76884627Y60326037D01*
X76818442Y60319518D01*
X76752260Y60313000D01*
X76663740Y60313000D01*
X76597558Y60319518D01*
X76531373Y60326037D01*
X76361534Y60377557D01*
X76205009Y60461222D01*
X76169271Y60490552D01*
X76067814Y60573814D01*
X75984552Y60675271D01*
X75955222Y60711009D01*
X75871557Y60867534D01*
X75820037Y61037373D01*
X75802641Y61214000D01*
X75820037Y61390627D01*
X75871557Y61560466D01*
X75955222Y61716991D01*
X75984552Y61752729D01*
X76067814Y61854186D01*
X76169271Y61937448D01*
X76205009Y61966778D01*
X76361534Y62050443D01*
X76531373Y62101963D01*
X76597558Y62108482D01*
X76663740Y62115000D01*
X76752260Y62115000D01*
X76818442Y62108482D01*
X76818442Y62108482D01*
G37*
G36*
X59829000Y60313000D02*
G01*
X58027000Y60313000D01*
X58027000Y62115000D01*
X59829000Y62115000D01*
X59829000Y60313000D01*
X59829000Y60313000D01*
G37*
G36*
X61578442Y62108482D02*
G01*
X61644627Y62101963D01*
X61814466Y62050443D01*
X61970991Y61966778D01*
X62006729Y61937448D01*
X62108186Y61854186D01*
X62191448Y61752729D01*
X62220778Y61716991D01*
X62304443Y61560466D01*
X62355963Y61390627D01*
X62373359Y61214000D01*
X62355963Y61037373D01*
X62304443Y60867534D01*
X62220778Y60711009D01*
X62191448Y60675271D01*
X62108186Y60573814D01*
X62006729Y60490552D01*
X61970991Y60461222D01*
X61814466Y60377557D01*
X61644627Y60326037D01*
X61578442Y60319518D01*
X61512260Y60313000D01*
X61423740Y60313000D01*
X61357558Y60319518D01*
X61291373Y60326037D01*
X61121534Y60377557D01*
X60965009Y60461222D01*
X60929271Y60490552D01*
X60827814Y60573814D01*
X60744552Y60675271D01*
X60715222Y60711009D01*
X60631557Y60867534D01*
X60580037Y61037373D01*
X60562641Y61214000D01*
X60580037Y61390627D01*
X60631557Y61560466D01*
X60715222Y61716991D01*
X60744552Y61752729D01*
X60827814Y61854186D01*
X60929271Y61937448D01*
X60965009Y61966778D01*
X61121534Y62050443D01*
X61291373Y62101963D01*
X61357558Y62108482D01*
X61423740Y62115000D01*
X61512260Y62115000D01*
X61578442Y62108482D01*
X61578442Y62108482D01*
G37*
G36*
X64118442Y62108482D02*
G01*
X64184627Y62101963D01*
X64354466Y62050443D01*
X64510991Y61966778D01*
X64546729Y61937448D01*
X64648186Y61854186D01*
X64731448Y61752729D01*
X64760778Y61716991D01*
X64844443Y61560466D01*
X64895963Y61390627D01*
X64913359Y61214000D01*
X64895963Y61037373D01*
X64844443Y60867534D01*
X64760778Y60711009D01*
X64731448Y60675271D01*
X64648186Y60573814D01*
X64546729Y60490552D01*
X64510991Y60461222D01*
X64354466Y60377557D01*
X64184627Y60326037D01*
X64118442Y60319518D01*
X64052260Y60313000D01*
X63963740Y60313000D01*
X63897558Y60319518D01*
X63831373Y60326037D01*
X63661534Y60377557D01*
X63505009Y60461222D01*
X63469271Y60490552D01*
X63367814Y60573814D01*
X63284552Y60675271D01*
X63255222Y60711009D01*
X63171557Y60867534D01*
X63120037Y61037373D01*
X63102641Y61214000D01*
X63120037Y61390627D01*
X63171557Y61560466D01*
X63255222Y61716991D01*
X63284552Y61752729D01*
X63367814Y61854186D01*
X63469271Y61937448D01*
X63505009Y61966778D01*
X63661534Y62050443D01*
X63831373Y62101963D01*
X63897558Y62108482D01*
X63963740Y62115000D01*
X64052260Y62115000D01*
X64118442Y62108482D01*
X64118442Y62108482D01*
G37*
G36*
X66658442Y62108482D02*
G01*
X66724627Y62101963D01*
X66894466Y62050443D01*
X67050991Y61966778D01*
X67086729Y61937448D01*
X67188186Y61854186D01*
X67271448Y61752729D01*
X67300778Y61716991D01*
X67384443Y61560466D01*
X67435963Y61390627D01*
X67453359Y61214000D01*
X67435963Y61037373D01*
X67384443Y60867534D01*
X67300778Y60711009D01*
X67271448Y60675271D01*
X67188186Y60573814D01*
X67086729Y60490552D01*
X67050991Y60461222D01*
X66894466Y60377557D01*
X66724627Y60326037D01*
X66658442Y60319518D01*
X66592260Y60313000D01*
X66503740Y60313000D01*
X66437558Y60319518D01*
X66371373Y60326037D01*
X66201534Y60377557D01*
X66045009Y60461222D01*
X66009271Y60490552D01*
X65907814Y60573814D01*
X65824552Y60675271D01*
X65795222Y60711009D01*
X65711557Y60867534D01*
X65660037Y61037373D01*
X65642641Y61214000D01*
X65660037Y61390627D01*
X65711557Y61560466D01*
X65795222Y61716991D01*
X65824552Y61752729D01*
X65907814Y61854186D01*
X66009271Y61937448D01*
X66045009Y61966778D01*
X66201534Y62050443D01*
X66371373Y62101963D01*
X66437558Y62108482D01*
X66503740Y62115000D01*
X66592260Y62115000D01*
X66658442Y62108482D01*
X66658442Y62108482D01*
G37*
G36*
X69198442Y62108482D02*
G01*
X69264627Y62101963D01*
X69434466Y62050443D01*
X69590991Y61966778D01*
X69626729Y61937448D01*
X69728186Y61854186D01*
X69811448Y61752729D01*
X69840778Y61716991D01*
X69924443Y61560466D01*
X69975963Y61390627D01*
X69993359Y61214000D01*
X69975963Y61037373D01*
X69924443Y60867534D01*
X69840778Y60711009D01*
X69811448Y60675271D01*
X69728186Y60573814D01*
X69626729Y60490552D01*
X69590991Y60461222D01*
X69434466Y60377557D01*
X69264627Y60326037D01*
X69198442Y60319518D01*
X69132260Y60313000D01*
X69043740Y60313000D01*
X68977558Y60319518D01*
X68911373Y60326037D01*
X68741534Y60377557D01*
X68585009Y60461222D01*
X68549271Y60490552D01*
X68447814Y60573814D01*
X68364552Y60675271D01*
X68335222Y60711009D01*
X68251557Y60867534D01*
X68200037Y61037373D01*
X68182641Y61214000D01*
X68200037Y61390627D01*
X68251557Y61560466D01*
X68335222Y61716991D01*
X68364552Y61752729D01*
X68447814Y61854186D01*
X68549271Y61937448D01*
X68585009Y61966778D01*
X68741534Y62050443D01*
X68911373Y62101963D01*
X68977558Y62108482D01*
X69043740Y62115000D01*
X69132260Y62115000D01*
X69198442Y62108482D01*
X69198442Y62108482D01*
G37*
G36*
X71738442Y62108482D02*
G01*
X71804627Y62101963D01*
X71974466Y62050443D01*
X72130991Y61966778D01*
X72166729Y61937448D01*
X72268186Y61854186D01*
X72351448Y61752729D01*
X72380778Y61716991D01*
X72464443Y61560466D01*
X72515963Y61390627D01*
X72533359Y61214000D01*
X72515963Y61037373D01*
X72464443Y60867534D01*
X72380778Y60711009D01*
X72351448Y60675271D01*
X72268186Y60573814D01*
X72166729Y60490552D01*
X72130991Y60461222D01*
X71974466Y60377557D01*
X71804627Y60326037D01*
X71738442Y60319518D01*
X71672260Y60313000D01*
X71583740Y60313000D01*
X71517558Y60319518D01*
X71451373Y60326037D01*
X71281534Y60377557D01*
X71125009Y60461222D01*
X71089271Y60490552D01*
X70987814Y60573814D01*
X70904552Y60675271D01*
X70875222Y60711009D01*
X70791557Y60867534D01*
X70740037Y61037373D01*
X70722641Y61214000D01*
X70740037Y61390627D01*
X70791557Y61560466D01*
X70875222Y61716991D01*
X70904552Y61752729D01*
X70987814Y61854186D01*
X71089271Y61937448D01*
X71125009Y61966778D01*
X71281534Y62050443D01*
X71451373Y62101963D01*
X71517558Y62108482D01*
X71583740Y62115000D01*
X71672260Y62115000D01*
X71738442Y62108482D01*
X71738442Y62108482D01*
G37*
G36*
X74278442Y62108482D02*
G01*
X74344627Y62101963D01*
X74514466Y62050443D01*
X74670991Y61966778D01*
X74706729Y61937448D01*
X74808186Y61854186D01*
X74891448Y61752729D01*
X74920778Y61716991D01*
X75004443Y61560466D01*
X75055963Y61390627D01*
X75073359Y61214000D01*
X75055963Y61037373D01*
X75004443Y60867534D01*
X74920778Y60711009D01*
X74891448Y60675271D01*
X74808186Y60573814D01*
X74706729Y60490552D01*
X74670991Y60461222D01*
X74514466Y60377557D01*
X74344627Y60326037D01*
X74278442Y60319518D01*
X74212260Y60313000D01*
X74123740Y60313000D01*
X74057558Y60319518D01*
X73991373Y60326037D01*
X73821534Y60377557D01*
X73665009Y60461222D01*
X73629271Y60490552D01*
X73527814Y60573814D01*
X73444552Y60675271D01*
X73415222Y60711009D01*
X73331557Y60867534D01*
X73280037Y61037373D01*
X73262641Y61214000D01*
X73280037Y61390627D01*
X73331557Y61560466D01*
X73415222Y61716991D01*
X73444552Y61752729D01*
X73527814Y61854186D01*
X73629271Y61937448D01*
X73665009Y61966778D01*
X73821534Y62050443D01*
X73991373Y62101963D01*
X74057558Y62108482D01*
X74123740Y62115000D01*
X74212260Y62115000D01*
X74278442Y62108482D01*
X74278442Y62108482D01*
G37*
G36*
X79358442Y62108482D02*
G01*
X79424627Y62101963D01*
X79594466Y62050443D01*
X79750991Y61966778D01*
X79786729Y61937448D01*
X79888186Y61854186D01*
X79971448Y61752729D01*
X80000778Y61716991D01*
X80084443Y61560466D01*
X80135963Y61390627D01*
X80153359Y61214000D01*
X80135963Y61037373D01*
X80084443Y60867534D01*
X80000778Y60711009D01*
X79971448Y60675271D01*
X79888186Y60573814D01*
X79786729Y60490552D01*
X79750991Y60461222D01*
X79594466Y60377557D01*
X79424627Y60326037D01*
X79358442Y60319518D01*
X79292260Y60313000D01*
X79203740Y60313000D01*
X79137558Y60319518D01*
X79071373Y60326037D01*
X78901534Y60377557D01*
X78745009Y60461222D01*
X78709271Y60490552D01*
X78607814Y60573814D01*
X78524552Y60675271D01*
X78495222Y60711009D01*
X78411557Y60867534D01*
X78360037Y61037373D01*
X78342641Y61214000D01*
X78360037Y61390627D01*
X78411557Y61560466D01*
X78495222Y61716991D01*
X78524552Y61752729D01*
X78607814Y61854186D01*
X78709271Y61937448D01*
X78745009Y61966778D01*
X78901534Y62050443D01*
X79071373Y62101963D01*
X79137558Y62108482D01*
X79203740Y62115000D01*
X79292260Y62115000D01*
X79358442Y62108482D01*
X79358442Y62108482D01*
G37*
G36*
X81898442Y62108482D02*
G01*
X81964627Y62101963D01*
X82134466Y62050443D01*
X82290991Y61966778D01*
X82326729Y61937448D01*
X82428186Y61854186D01*
X82511448Y61752729D01*
X82540778Y61716991D01*
X82624443Y61560466D01*
X82675963Y61390627D01*
X82693359Y61214000D01*
X82675963Y61037373D01*
X82624443Y60867534D01*
X82540778Y60711009D01*
X82511448Y60675271D01*
X82428186Y60573814D01*
X82326729Y60490552D01*
X82290991Y60461222D01*
X82134466Y60377557D01*
X81964627Y60326037D01*
X81898442Y60319518D01*
X81832260Y60313000D01*
X81743740Y60313000D01*
X81677558Y60319518D01*
X81611373Y60326037D01*
X81441534Y60377557D01*
X81285009Y60461222D01*
X81249271Y60490552D01*
X81147814Y60573814D01*
X81064552Y60675271D01*
X81035222Y60711009D01*
X80951557Y60867534D01*
X80900037Y61037373D01*
X80882641Y61214000D01*
X80900037Y61390627D01*
X80951557Y61560466D01*
X81035222Y61716991D01*
X81064552Y61752729D01*
X81147814Y61854186D01*
X81249271Y61937448D01*
X81285009Y61966778D01*
X81441534Y62050443D01*
X81611373Y62101963D01*
X81677558Y62108482D01*
X81743740Y62115000D01*
X81832260Y62115000D01*
X81898442Y62108482D01*
X81898442Y62108482D01*
G37*
G36*
X55224549Y66128884D02*
G01*
X55335734Y66106768D01*
X55545203Y66020003D01*
X55733720Y65894040D01*
X55894040Y65733720D01*
X56020003Y65545203D01*
X56106768Y65335734D01*
X56151000Y65113364D01*
X56151000Y64886636D01*
X56106768Y64664266D01*
X56020003Y64454797D01*
X55894040Y64266280D01*
X55733720Y64105960D01*
X55545203Y63979997D01*
X55335734Y63893232D01*
X55224549Y63871116D01*
X55113365Y63849000D01*
X54886635Y63849000D01*
X54775451Y63871116D01*
X54664266Y63893232D01*
X54454797Y63979997D01*
X54266280Y64105960D01*
X54105960Y64266280D01*
X53979997Y64454797D01*
X53893232Y64664266D01*
X53849000Y64886636D01*
X53849000Y65113364D01*
X53893232Y65335734D01*
X53979997Y65545203D01*
X54105960Y65733720D01*
X54266280Y65894040D01*
X54454797Y66020003D01*
X54664266Y66106768D01*
X54775451Y66128884D01*
X54886635Y66151000D01*
X55113365Y66151000D01*
X55224549Y66128884D01*
X55224549Y66128884D01*
G37*
G36*
X125224549Y66128884D02*
G01*
X125335734Y66106768D01*
X125545203Y66020003D01*
X125733720Y65894040D01*
X125894040Y65733720D01*
X126020003Y65545203D01*
X126106768Y65335734D01*
X126151000Y65113364D01*
X126151000Y64886636D01*
X126106768Y64664266D01*
X126020003Y64454797D01*
X125894040Y64266280D01*
X125733720Y64105960D01*
X125545203Y63979997D01*
X125335734Y63893232D01*
X125224549Y63871116D01*
X125113365Y63849000D01*
X124886635Y63849000D01*
X124775451Y63871116D01*
X124664266Y63893232D01*
X124454797Y63979997D01*
X124266280Y64105960D01*
X124105960Y64266280D01*
X123979997Y64454797D01*
X123893232Y64664266D01*
X123849000Y64886636D01*
X123849000Y65113364D01*
X123893232Y65335734D01*
X123979997Y65545203D01*
X124105960Y65733720D01*
X124266280Y65894040D01*
X124454797Y66020003D01*
X124664266Y66106768D01*
X124775451Y66128884D01*
X124886635Y66151000D01*
X125113365Y66151000D01*
X125224549Y66128884D01*
X125224549Y66128884D01*
G37*
G36*
X52995818Y72176304D02*
G01*
X53109105Y72141938D01*
X53213512Y72086131D01*
X53305027Y72011027D01*
X53380131Y71919512D01*
X53435938Y71815105D01*
X53470304Y71701818D01*
X53481907Y71584000D01*
X53470304Y71466182D01*
X53435938Y71352895D01*
X53380131Y71248488D01*
X53305027Y71156973D01*
X53213512Y71081869D01*
X53109105Y71026062D01*
X52995818Y70991696D01*
X52907519Y70983000D01*
X52248481Y70983000D01*
X52160182Y70991696D01*
X52046895Y71026062D01*
X51942488Y71081869D01*
X51850973Y71156973D01*
X51775869Y71248488D01*
X51720062Y71352895D01*
X51685696Y71466182D01*
X51674093Y71584000D01*
X51685696Y71701818D01*
X51720062Y71815105D01*
X51775869Y71919512D01*
X51850973Y72011027D01*
X51942488Y72086131D01*
X52046895Y72141938D01*
X52160182Y72176304D01*
X52248481Y72185000D01*
X52907519Y72185000D01*
X52995818Y72176304D01*
X52995818Y72176304D01*
G37*
G36*
X55481016Y73428253D02*
G01*
X55607680Y73375788D01*
X55721674Y73299619D01*
X55818619Y73202674D01*
X55894788Y73088680D01*
X55947253Y72962016D01*
X55974000Y72827550D01*
X55974000Y72690450D01*
X55947253Y72555984D01*
X55894788Y72429320D01*
X55818619Y72315326D01*
X55721674Y72218381D01*
X55607680Y72142212D01*
X55481016Y72089747D01*
X55346550Y72063000D01*
X55209450Y72063000D01*
X55074984Y72089747D01*
X54948320Y72142212D01*
X54834326Y72218381D01*
X54737381Y72315326D01*
X54661212Y72429320D01*
X54608747Y72555984D01*
X54582000Y72690450D01*
X54582000Y72827550D01*
X54608747Y72962016D01*
X54661212Y73088680D01*
X54737381Y73202674D01*
X54834326Y73299619D01*
X54948320Y73375788D01*
X55074984Y73428253D01*
X55209450Y73455000D01*
X55346550Y73455000D01*
X55481016Y73428253D01*
X55481016Y73428253D01*
G37*
G36*
X55481016Y78278253D02*
G01*
X55607680Y78225788D01*
X55721674Y78149619D01*
X55818619Y78052674D01*
X55894788Y77938680D01*
X55947253Y77812016D01*
X55974000Y77677550D01*
X55974000Y77540450D01*
X55947253Y77405984D01*
X55894788Y77279320D01*
X55818619Y77165326D01*
X55721674Y77068381D01*
X55607680Y76992212D01*
X55481016Y76939747D01*
X55346550Y76913000D01*
X55209450Y76913000D01*
X55074984Y76939747D01*
X54948320Y76992212D01*
X54834326Y77068381D01*
X54737381Y77165326D01*
X54661212Y77279320D01*
X54608747Y77405984D01*
X54582000Y77540450D01*
X54582000Y77677550D01*
X54608747Y77812016D01*
X54661212Y77938680D01*
X54737381Y78052674D01*
X54834326Y78149619D01*
X54948320Y78225788D01*
X55074984Y78278253D01*
X55209450Y78305000D01*
X55346550Y78305000D01*
X55481016Y78278253D01*
X55481016Y78278253D01*
G37*
G36*
X52995818Y79376304D02*
G01*
X53109105Y79341938D01*
X53213512Y79286131D01*
X53305027Y79211027D01*
X53380131Y79119512D01*
X53435938Y79015105D01*
X53470304Y78901818D01*
X53481907Y78784000D01*
X53470304Y78666182D01*
X53435938Y78552895D01*
X53380131Y78448488D01*
X53305027Y78356973D01*
X53213512Y78281869D01*
X53109105Y78226062D01*
X52995818Y78191696D01*
X52907519Y78183000D01*
X52248481Y78183000D01*
X52160182Y78191696D01*
X52046895Y78226062D01*
X51942488Y78281869D01*
X51850973Y78356973D01*
X51775869Y78448488D01*
X51720062Y78552895D01*
X51685696Y78666182D01*
X51674093Y78784000D01*
X51685696Y78901818D01*
X51720062Y79015105D01*
X51775869Y79119512D01*
X51850973Y79211027D01*
X51942488Y79286131D01*
X52046895Y79341938D01*
X52160182Y79376304D01*
X52248481Y79385000D01*
X52907519Y79385000D01*
X52995818Y79376304D01*
X52995818Y79376304D01*
G37*
G36*
X125224549Y121128884D02*
G01*
X125335734Y121106768D01*
X125545203Y121020003D01*
X125733720Y120894040D01*
X125894040Y120733720D01*
X126020003Y120545203D01*
X126106768Y120335734D01*
X126151000Y120113364D01*
X126151000Y119886636D01*
X126106768Y119664266D01*
X126020003Y119454797D01*
X125894040Y119266280D01*
X125733720Y119105960D01*
X125545203Y118979997D01*
X125335734Y118893232D01*
X125224549Y118871116D01*
X125113365Y118849000D01*
X124886635Y118849000D01*
X124775451Y118871116D01*
X124664266Y118893232D01*
X124454797Y118979997D01*
X124266280Y119105960D01*
X124105960Y119266280D01*
X123979997Y119454797D01*
X123893232Y119664266D01*
X123849000Y119886636D01*
X123849000Y120113364D01*
X123893232Y120335734D01*
X123979997Y120545203D01*
X124105960Y120733720D01*
X124266280Y120894040D01*
X124454797Y121020003D01*
X124664266Y121106768D01*
X124775451Y121128884D01*
X124886635Y121151000D01*
X125113365Y121151000D01*
X125224549Y121128884D01*
X125224549Y121128884D01*
G37*
G36*
X55224549Y121128884D02*
G01*
X55335734Y121106768D01*
X55545203Y121020003D01*
X55733720Y120894040D01*
X55894040Y120733720D01*
X56020003Y120545203D01*
X56106768Y120335734D01*
X56151000Y120113364D01*
X56151000Y119886636D01*
X56106768Y119664266D01*
X56020003Y119454797D01*
X55894040Y119266280D01*
X55733720Y119105960D01*
X55545203Y118979997D01*
X55335734Y118893232D01*
X55224549Y118871116D01*
X55113365Y118849000D01*
X54886635Y118849000D01*
X54775451Y118871116D01*
X54664266Y118893232D01*
X54454797Y118979997D01*
X54266280Y119105960D01*
X54105960Y119266280D01*
X53979997Y119454797D01*
X53893232Y119664266D01*
X53849000Y119886636D01*
X53849000Y120113364D01*
X53893232Y120335734D01*
X53979997Y120545203D01*
X54105960Y120733720D01*
X54266280Y120894040D01*
X54454797Y121020003D01*
X54664266Y121106768D01*
X54775451Y121128884D01*
X54886635Y121151000D01*
X55113365Y121151000D01*
X55224549Y121128884D01*
X55224549Y121128884D01*
G37*
M02*
