%TF.GenerationSoftware,KiCad,Pcbnew,5.1.10*%
%TF.CreationDate,2021-08-29T14:42:02+02:00*%
%TF.ProjectId,epaper-breakout,65706170-6572-42d6-9272-65616b6f7574,rev?*%
%TF.SameCoordinates,Original*%
%TF.FileFunction,Copper,L3,Inr*%
%TF.FilePolarity,Positive*%
%FSLAX46Y46*%
G04 Gerber Fmt 4.6, Leading zero omitted, Abs format (unit mm)*
G04 Created by KiCad (PCBNEW 5.1.10) date 2021-08-29 14:42:02*
%MOMM*%
%LPD*%
G01*
G04 APERTURE LIST*
%TA.AperFunction,ComponentPad*%
%ADD10O,1.700000X1.700000*%
%TD*%
%TA.AperFunction,ComponentPad*%
%ADD11R,1.700000X1.700000*%
%TD*%
%TA.AperFunction,ComponentPad*%
%ADD12C,1.290000*%
%TD*%
%TA.AperFunction,ComponentPad*%
%ADD13C,1.700000*%
%TD*%
%TA.AperFunction,ComponentPad*%
%ADD14C,0.800000*%
%TD*%
%TA.AperFunction,ComponentPad*%
%ADD15C,0.508000*%
%TD*%
%TA.AperFunction,ViaPad*%
%ADD16C,0.800000*%
%TD*%
%TA.AperFunction,Conductor*%
%ADD17C,1.000000*%
%TD*%
%TA.AperFunction,Conductor*%
%ADD18C,0.254000*%
%TD*%
%TA.AperFunction,Conductor*%
%ADD19C,0.100000*%
%TD*%
G04 APERTURE END LIST*
D10*
X34960000Y-62000000D03*
D11*
X37500000Y-62000000D03*
D12*
X33925000Y-23765000D03*
X29075000Y-23765000D03*
D13*
X35100000Y-21065000D03*
X27900000Y-21065000D03*
D14*
X93500000Y-32020000D03*
X93500000Y-33020000D03*
X93500000Y-34020000D03*
X93500000Y-35020000D03*
X93500000Y-36020000D03*
X94500000Y-36020000D03*
X94500000Y-35020000D03*
X94500000Y-34020000D03*
X94500000Y-33020000D03*
X94500000Y-32020000D03*
X96500000Y-32020000D03*
X96500000Y-33020000D03*
X96500000Y-34020000D03*
X96500000Y-35020000D03*
X96500000Y-36020000D03*
X95500000Y-36020000D03*
X95500000Y-35020000D03*
X95500000Y-34020000D03*
X95500000Y-33020000D03*
X95500000Y-32020000D03*
X97500000Y-36020000D03*
X97500000Y-35020000D03*
X97500000Y-34020000D03*
X97500000Y-33020000D03*
X97500000Y-32020000D03*
D15*
X63449200Y-47802800D03*
X63449200Y-47015400D03*
X63449200Y-46228000D03*
X63449200Y-45440600D03*
X63449200Y-44653200D03*
X64236600Y-47802800D03*
X64236600Y-47015400D03*
X64236600Y-46228000D03*
X64236600Y-45440600D03*
X64236600Y-44653200D03*
X65024000Y-47802800D03*
X65024000Y-47015400D03*
X65024000Y-46228000D03*
X65024000Y-45440600D03*
X65024000Y-44653200D03*
X65811400Y-47802800D03*
X65811400Y-47015400D03*
X65811400Y-46228000D03*
X65811400Y-45440600D03*
X65811400Y-44653200D03*
X66598800Y-47802800D03*
X66598800Y-47015400D03*
X66598800Y-46228000D03*
X66598800Y-45440600D03*
X66598800Y-44653200D03*
D10*
X68580000Y-24130000D03*
X68580000Y-21590000D03*
X71120000Y-24130000D03*
X71120000Y-21590000D03*
X73660000Y-24130000D03*
X73660000Y-21590000D03*
X76200000Y-24130000D03*
X76200000Y-21590000D03*
X78740000Y-24130000D03*
D11*
X78740000Y-21590000D03*
D10*
X38887400Y-24180800D03*
X38887400Y-21640800D03*
X41427400Y-24180800D03*
X41427400Y-21640800D03*
X43967400Y-24180800D03*
X43967400Y-21640800D03*
X46507400Y-24180800D03*
X46507400Y-21640800D03*
X49047400Y-24180800D03*
X49047400Y-21640800D03*
X51587400Y-24180800D03*
D11*
X51587400Y-21640800D03*
D16*
X70993000Y-46022000D03*
X71374000Y-44402000D03*
X68072000Y-42164000D03*
X64367281Y-51584663D03*
X68451743Y-49531257D03*
X58800000Y-32000000D03*
X61200000Y-33400000D03*
X60600000Y-34600000D03*
X57800000Y-31400000D03*
X56800000Y-32000000D03*
X55600000Y-31400000D03*
X54400000Y-32000000D03*
X53800000Y-33200000D03*
X54400000Y-34400000D03*
X53800000Y-35600000D03*
X88496546Y-59999361D03*
X89000000Y-57420001D03*
X100495195Y-59760678D03*
X101500000Y-60000000D03*
X98530655Y-59775198D03*
X113000000Y-56750000D03*
X113750000Y-56750000D03*
X109750000Y-60000000D03*
X117250000Y-44000000D03*
X120000000Y-30000000D03*
X124000000Y-49250000D03*
X122500000Y-51250000D03*
X124000000Y-51250000D03*
X122500000Y-53500000D03*
X124000000Y-53500000D03*
X122500000Y-55250000D03*
X124000000Y-55250000D03*
X122500000Y-57500000D03*
X124000000Y-57500000D03*
X124000000Y-58750000D03*
X112750000Y-46500000D03*
X113250000Y-48250000D03*
X113250000Y-50500000D03*
X113000000Y-52500000D03*
X113250000Y-54500000D03*
X111500000Y-52500000D03*
X111500000Y-50500000D03*
X111500000Y-48250000D03*
X111040000Y-45750000D03*
X76000000Y-62750000D03*
X57500000Y-28250000D03*
X57500000Y-22500000D03*
X88790000Y-44500000D03*
X88738678Y-45559058D03*
X63854000Y-36896000D03*
X62015534Y-36765534D03*
X67604000Y-36896000D03*
X72500000Y-36500000D03*
X68500000Y-35750000D03*
X70717487Y-35798770D03*
X64000000Y-37750000D03*
X72500000Y-37500000D03*
X67750000Y-35750000D03*
X54396686Y-45604099D03*
X58496777Y-47094403D03*
X55438000Y-46812000D03*
X49250000Y-49500000D03*
X49250000Y-47250000D03*
X45500000Y-50750000D03*
X45250000Y-44250000D03*
X42750000Y-57250000D03*
X44250000Y-53750000D03*
X44750000Y-57250000D03*
X89000001Y-27601645D03*
X85048770Y-26967487D03*
X62750000Y-60250000D03*
X65500000Y-60250000D03*
X66750000Y-56500000D03*
X68658999Y-56500000D03*
X73000000Y-57040000D03*
X67750000Y-57500000D03*
X67944000Y-55306000D03*
X67250000Y-58500000D03*
X76000000Y-39750000D03*
X76000000Y-42000000D03*
X76000000Y-44250000D03*
X76000000Y-46500000D03*
X76000000Y-48750000D03*
X77000000Y-49750000D03*
X74250000Y-41750000D03*
X74250000Y-44000000D03*
X74500000Y-48500000D03*
X74500000Y-46250000D03*
X55250000Y-55000000D03*
X55250000Y-56000000D03*
X80540000Y-46750000D03*
X80500000Y-45750000D03*
X78750000Y-42500000D03*
X78739998Y-43500000D03*
X77750000Y-41750000D03*
X77500000Y-43500000D03*
X107000000Y-26750000D03*
X54500000Y-22000000D03*
X76000000Y-50500000D03*
X81500000Y-32250000D03*
X80000000Y-32750000D03*
X80000000Y-27750000D03*
X79877046Y-28622954D03*
X43500000Y-38000000D03*
X43500000Y-40500000D03*
X45300758Y-31817152D03*
X45500000Y-34750000D03*
X48500000Y-34000000D03*
X50000000Y-34000000D03*
X51000000Y-34000000D03*
X52250000Y-34000000D03*
X40750000Y-30500000D03*
X37750000Y-30750000D03*
X37750000Y-32250000D03*
X67000000Y-22250000D03*
X79215111Y-31465112D03*
X35000000Y-43250000D03*
X32000000Y-45000000D03*
X27500000Y-46750000D03*
X29750000Y-25250000D03*
X27000000Y-30750000D03*
X27750000Y-51250000D03*
X28500000Y-47250000D03*
X34750000Y-49250000D03*
X35250000Y-51000000D03*
X39750000Y-43000000D03*
X39750000Y-40250000D03*
X102750000Y-26750000D03*
X77500000Y-63000000D03*
X90000000Y-35500000D03*
X90000000Y-33750000D03*
X102500000Y-35250000D03*
X102500000Y-31500000D03*
X102500000Y-32750000D03*
X50250000Y-32000000D03*
X60452000Y-48641000D03*
X53500000Y-49663998D03*
X48500000Y-57000000D03*
X114250000Y-62750000D03*
X86000000Y-63000000D03*
X60276746Y-45337029D03*
X84497954Y-56997954D03*
X47500000Y-54500000D03*
X75250000Y-59500000D03*
X73000000Y-60500000D03*
X98060000Y-61750000D03*
X118250000Y-53750000D03*
X53000000Y-45840002D03*
X119727399Y-33227399D03*
X111750000Y-60000000D03*
X115977399Y-45727399D03*
X65123990Y-41021000D03*
X78210000Y-58500000D03*
X73500000Y-58500000D03*
X75250000Y-58500000D03*
X113250000Y-60500000D03*
X117000000Y-47334000D03*
X54000000Y-59250000D03*
X74000000Y-26000000D03*
X35500000Y-27750000D03*
X79000000Y-53000000D03*
X87309167Y-54186740D03*
X100500000Y-48500000D03*
X102000000Y-50000000D03*
X80000000Y-51890001D03*
X87752046Y-53335000D03*
X115500000Y-41000000D03*
X102584593Y-52710000D03*
X78000000Y-55250000D03*
X77246837Y-35507381D03*
X83625000Y-49375000D03*
X83750000Y-46750000D03*
X89500000Y-41000000D03*
X113500000Y-41500000D03*
X103060000Y-53559693D03*
X80240175Y-60049128D03*
X81500000Y-55750000D03*
X113000000Y-40000000D03*
X90000000Y-38500000D03*
X103560000Y-54500000D03*
X81700000Y-50550000D03*
X104500000Y-54000000D03*
X82337764Y-60060002D03*
X107650000Y-42350000D03*
X100000000Y-46500000D03*
X91500000Y-43000000D03*
X103500000Y-51000000D03*
X99000000Y-48000000D03*
X105002046Y-51997954D03*
X98997954Y-53002046D03*
X82651524Y-60967282D03*
X106500000Y-55000000D03*
X97500000Y-45500000D03*
X91500000Y-44500000D03*
X97497954Y-54002046D03*
X107178824Y-55678824D03*
X96000000Y-54500000D03*
X83297761Y-60057560D03*
X107528503Y-56572876D03*
X91500000Y-46000000D03*
X94500000Y-46000000D03*
X94500000Y-55000000D03*
X93000000Y-55500000D03*
X109000000Y-57250000D03*
X84479991Y-60967283D03*
X85490000Y-60058571D03*
X72250000Y-39000000D03*
X71500000Y-59500000D03*
X107000000Y-60000000D03*
X114000000Y-52500000D03*
X116000000Y-32000000D03*
X85032980Y-56200865D03*
X77625000Y-34625000D03*
X109500000Y-29750000D03*
X108833931Y-55338023D03*
X115500000Y-31000000D03*
X87422677Y-60327322D03*
X90250000Y-59750000D03*
X111000000Y-55250000D03*
X85752046Y-55252046D03*
X79500000Y-35250000D03*
X105997954Y-51497954D03*
X92373227Y-56290000D03*
X92289999Y-42210001D03*
X100000000Y-29000000D03*
X108250000Y-28750000D03*
X90530101Y-58290188D03*
X83000000Y-43750000D03*
X73750000Y-29000000D03*
X83000000Y-42750000D03*
X75000000Y-28750000D03*
X82750000Y-45250000D03*
X70750000Y-27478677D03*
X90420001Y-27835010D03*
X36750000Y-22250000D03*
X36750000Y-27750000D03*
X89000000Y-28750000D03*
X108250000Y-32750000D03*
X28500000Y-30000000D03*
X107500000Y-31750000D03*
X28500000Y-33750000D03*
X67945000Y-51333000D03*
X84250000Y-32000000D03*
X63750000Y-32000000D03*
X63750000Y-30250000D03*
X74267874Y-53500000D03*
X78750000Y-44750000D03*
X76750000Y-45250000D03*
X80000000Y-44750000D03*
X84000000Y-27250000D03*
X82153340Y-28708234D03*
X77500000Y-32750000D03*
X64482323Y-21017677D03*
X68500000Y-31250000D03*
X65500000Y-58250000D03*
X58250000Y-57000000D03*
X57000000Y-57000000D03*
X57000000Y-58000000D03*
X58250000Y-59000000D03*
X58250000Y-58000000D03*
X59500000Y-59250000D03*
X63000000Y-57250000D03*
X60750000Y-59250000D03*
X62250000Y-59250000D03*
X63000000Y-58500000D03*
X72004092Y-41250000D03*
X71387944Y-42926000D03*
X60750000Y-39000000D03*
X61750000Y-39000000D03*
X60500000Y-39750000D03*
X73500000Y-38500000D03*
X53000000Y-37500000D03*
X52000000Y-38000000D03*
X74002046Y-31497954D03*
X76502046Y-27247954D03*
X87000000Y-63000000D03*
X89000000Y-63000000D03*
X80990000Y-57500000D03*
X79000000Y-57500000D03*
X89954587Y-57521822D03*
X99502965Y-59809303D03*
X119750000Y-43000000D03*
X119750000Y-41000000D03*
X120000000Y-31500000D03*
X119750000Y-50500000D03*
X75448895Y-56250000D03*
X121250000Y-48750000D03*
X75448895Y-57000000D03*
X35645000Y-52645000D03*
X46250000Y-40250000D03*
X44500000Y-42250000D03*
X27500000Y-42750000D03*
X28500000Y-35000000D03*
X33877000Y-31623000D03*
X102250000Y-44500000D03*
X93500000Y-41250000D03*
X92252046Y-30002046D03*
X38250000Y-27750000D03*
X78691694Y-30660353D03*
X68540000Y-39451000D03*
X60326257Y-43559743D03*
X70993000Y-47498000D03*
X68250000Y-38000000D03*
X66041637Y-40720981D03*
X65949198Y-33250000D03*
X66802000Y-40132000D03*
X67250000Y-30750000D03*
X66802000Y-34198000D03*
X58500000Y-26250000D03*
X46250000Y-30500000D03*
X41000000Y-27500000D03*
X60500000Y-24250000D03*
X61750000Y-31000000D03*
X62992000Y-39008000D03*
X70739000Y-49276000D03*
X60250000Y-31000000D03*
X71250000Y-35000000D03*
X60500000Y-23289997D03*
X52629276Y-47047619D03*
X58601000Y-46101000D03*
X52750000Y-48000000D03*
X59314705Y-47596994D03*
X71000000Y-32000000D03*
X58500000Y-23750000D03*
X71697945Y-46673657D03*
X60500000Y-25250000D03*
X63750000Y-25500000D03*
X71472553Y-40277447D03*
X64816000Y-40028224D03*
X60500000Y-26750000D03*
D17*
X52288201Y-20939999D02*
X60689999Y-20939999D01*
X51587400Y-21640800D02*
X52288201Y-20939999D01*
X60767677Y-21017677D02*
X64482323Y-21017677D01*
X60689999Y-20939999D02*
X60767677Y-21017677D01*
X64750000Y-29250000D02*
X63750000Y-30250000D01*
X70547479Y-29250000D02*
X64750000Y-29250000D01*
X72689999Y-27107480D02*
X70547479Y-29250000D01*
X72689999Y-25100001D02*
X72689999Y-27107480D01*
X73660000Y-24130000D02*
X72689999Y-25100001D01*
X53000000Y-37500000D02*
X55250000Y-39750000D01*
X55250000Y-39750000D02*
X60500000Y-39750000D01*
X53500000Y-38000000D02*
X55250000Y-39750000D01*
X52000000Y-38000000D02*
X53500000Y-38000000D01*
X60750000Y-39000000D02*
X55750000Y-39000000D01*
X54250000Y-37500000D02*
X53000000Y-37500000D01*
X55750000Y-39000000D02*
X54250000Y-37500000D01*
X78149999Y-56649999D02*
X79000000Y-57500000D01*
X75848894Y-56649999D02*
X78149999Y-56649999D01*
X75448895Y-56250000D02*
X75848894Y-56649999D01*
X75448895Y-56250000D02*
X75448895Y-57000000D01*
D18*
X124548000Y-26727606D02*
X124548001Y-48628448D01*
X124527181Y-48607628D01*
X124391731Y-48517123D01*
X124241227Y-48454782D01*
X124081452Y-48423000D01*
X123918548Y-48423000D01*
X123758773Y-48454782D01*
X123608269Y-48517123D01*
X123472819Y-48607628D01*
X123357628Y-48722819D01*
X123267123Y-48858269D01*
X123204782Y-49008773D01*
X123173000Y-49168548D01*
X123173000Y-49331452D01*
X123204782Y-49491227D01*
X123267123Y-49641731D01*
X123357628Y-49777181D01*
X123472819Y-49892372D01*
X123608269Y-49982877D01*
X123758773Y-50045218D01*
X123918548Y-50077000D01*
X124081452Y-50077000D01*
X124241227Y-50045218D01*
X124391731Y-49982877D01*
X124527181Y-49892372D01*
X124548001Y-49871552D01*
X124548001Y-50628448D01*
X124527181Y-50607628D01*
X124391731Y-50517123D01*
X124241227Y-50454782D01*
X124081452Y-50423000D01*
X123918548Y-50423000D01*
X123758773Y-50454782D01*
X123608269Y-50517123D01*
X123472819Y-50607628D01*
X123357628Y-50722819D01*
X123267123Y-50858269D01*
X123250000Y-50899607D01*
X123232877Y-50858269D01*
X123142372Y-50722819D01*
X123027181Y-50607628D01*
X122891731Y-50517123D01*
X122741227Y-50454782D01*
X122581452Y-50423000D01*
X122418548Y-50423000D01*
X122258773Y-50454782D01*
X122108269Y-50517123D01*
X121972819Y-50607628D01*
X121857628Y-50722819D01*
X121767123Y-50858269D01*
X121704782Y-51008773D01*
X121673000Y-51168548D01*
X121673000Y-51331452D01*
X121704782Y-51491227D01*
X121767123Y-51641731D01*
X121857628Y-51777181D01*
X121972819Y-51892372D01*
X122108269Y-51982877D01*
X122258773Y-52045218D01*
X122418548Y-52077000D01*
X122581452Y-52077000D01*
X122741227Y-52045218D01*
X122891731Y-51982877D01*
X123027181Y-51892372D01*
X123142372Y-51777181D01*
X123232877Y-51641731D01*
X123250000Y-51600393D01*
X123267123Y-51641731D01*
X123357628Y-51777181D01*
X123472819Y-51892372D01*
X123608269Y-51982877D01*
X123758773Y-52045218D01*
X123918548Y-52077000D01*
X124081452Y-52077000D01*
X124241227Y-52045218D01*
X124391731Y-51982877D01*
X124527181Y-51892372D01*
X124548001Y-51871552D01*
X124548001Y-52878448D01*
X124527181Y-52857628D01*
X124391731Y-52767123D01*
X124241227Y-52704782D01*
X124081452Y-52673000D01*
X123918548Y-52673000D01*
X123758773Y-52704782D01*
X123608269Y-52767123D01*
X123472819Y-52857628D01*
X123357628Y-52972819D01*
X123267123Y-53108269D01*
X123250000Y-53149607D01*
X123232877Y-53108269D01*
X123142372Y-52972819D01*
X123027181Y-52857628D01*
X122891731Y-52767123D01*
X122741227Y-52704782D01*
X122581452Y-52673000D01*
X122418548Y-52673000D01*
X122258773Y-52704782D01*
X122108269Y-52767123D01*
X121972819Y-52857628D01*
X121857628Y-52972819D01*
X121767123Y-53108269D01*
X121704782Y-53258773D01*
X121673000Y-53418548D01*
X121673000Y-53581452D01*
X121704782Y-53741227D01*
X121767123Y-53891731D01*
X121857628Y-54027181D01*
X121972819Y-54142372D01*
X122108269Y-54232877D01*
X122258773Y-54295218D01*
X122418548Y-54327000D01*
X122581452Y-54327000D01*
X122741227Y-54295218D01*
X122891731Y-54232877D01*
X123027181Y-54142372D01*
X123142372Y-54027181D01*
X123232877Y-53891731D01*
X123250000Y-53850393D01*
X123267123Y-53891731D01*
X123357628Y-54027181D01*
X123472819Y-54142372D01*
X123608269Y-54232877D01*
X123758773Y-54295218D01*
X123918548Y-54327000D01*
X124081452Y-54327000D01*
X124241227Y-54295218D01*
X124391731Y-54232877D01*
X124527181Y-54142372D01*
X124548001Y-54121552D01*
X124548001Y-54628448D01*
X124527181Y-54607628D01*
X124391731Y-54517123D01*
X124241227Y-54454782D01*
X124081452Y-54423000D01*
X123918548Y-54423000D01*
X123758773Y-54454782D01*
X123608269Y-54517123D01*
X123472819Y-54607628D01*
X123357628Y-54722819D01*
X123267123Y-54858269D01*
X123250000Y-54899607D01*
X123232877Y-54858269D01*
X123142372Y-54722819D01*
X123027181Y-54607628D01*
X122891731Y-54517123D01*
X122741227Y-54454782D01*
X122581452Y-54423000D01*
X122418548Y-54423000D01*
X122258773Y-54454782D01*
X122108269Y-54517123D01*
X121972819Y-54607628D01*
X121857628Y-54722819D01*
X121767123Y-54858269D01*
X121704782Y-55008773D01*
X121673000Y-55168548D01*
X121673000Y-55331452D01*
X121704782Y-55491227D01*
X121767123Y-55641731D01*
X121857628Y-55777181D01*
X121972819Y-55892372D01*
X122108269Y-55982877D01*
X122258773Y-56045218D01*
X122418548Y-56077000D01*
X122581452Y-56077000D01*
X122741227Y-56045218D01*
X122891731Y-55982877D01*
X123027181Y-55892372D01*
X123142372Y-55777181D01*
X123232877Y-55641731D01*
X123250000Y-55600393D01*
X123267123Y-55641731D01*
X123357628Y-55777181D01*
X123472819Y-55892372D01*
X123608269Y-55982877D01*
X123758773Y-56045218D01*
X123918548Y-56077000D01*
X124081452Y-56077000D01*
X124241227Y-56045218D01*
X124391731Y-55982877D01*
X124527181Y-55892372D01*
X124548001Y-55871552D01*
X124548001Y-56878448D01*
X124527181Y-56857628D01*
X124391731Y-56767123D01*
X124241227Y-56704782D01*
X124081452Y-56673000D01*
X123918548Y-56673000D01*
X123758773Y-56704782D01*
X123608269Y-56767123D01*
X123472819Y-56857628D01*
X123357628Y-56972819D01*
X123267123Y-57108269D01*
X123250000Y-57149607D01*
X123232877Y-57108269D01*
X123142372Y-56972819D01*
X123027181Y-56857628D01*
X122891731Y-56767123D01*
X122741227Y-56704782D01*
X122581452Y-56673000D01*
X122418548Y-56673000D01*
X122258773Y-56704782D01*
X122108269Y-56767123D01*
X121972819Y-56857628D01*
X121857628Y-56972819D01*
X121767123Y-57108269D01*
X121704782Y-57258773D01*
X121673000Y-57418548D01*
X121673000Y-57581452D01*
X121704782Y-57741227D01*
X121767123Y-57891731D01*
X121857628Y-58027181D01*
X121972819Y-58142372D01*
X122108269Y-58232877D01*
X122258773Y-58295218D01*
X122418548Y-58327000D01*
X122581452Y-58327000D01*
X122741227Y-58295218D01*
X122891731Y-58232877D01*
X123027181Y-58142372D01*
X123142372Y-58027181D01*
X123232877Y-57891731D01*
X123250000Y-57850393D01*
X123267123Y-57891731D01*
X123357628Y-58027181D01*
X123455447Y-58125000D01*
X123357628Y-58222819D01*
X123267123Y-58358269D01*
X123204782Y-58508773D01*
X123173000Y-58668548D01*
X123173000Y-58831452D01*
X123204782Y-58991227D01*
X123267123Y-59141731D01*
X123357628Y-59277181D01*
X123472819Y-59392372D01*
X123608269Y-59482877D01*
X123758773Y-59545218D01*
X123918548Y-59577000D01*
X124081452Y-59577000D01*
X124241227Y-59545218D01*
X124391731Y-59482877D01*
X124527181Y-59392372D01*
X124548001Y-59371552D01*
X124548001Y-62477880D01*
X124516392Y-62800254D01*
X124429194Y-63089071D01*
X124287556Y-63355451D01*
X124096876Y-63589248D01*
X123864417Y-63781554D01*
X123599036Y-63925045D01*
X123310833Y-64014259D01*
X122989807Y-64048000D01*
X75477606Y-64048000D01*
X75377000Y-63947394D01*
X75377000Y-63296553D01*
X75472819Y-63392372D01*
X75608269Y-63482877D01*
X75758773Y-63545218D01*
X75918548Y-63577000D01*
X76081452Y-63577000D01*
X76241227Y-63545218D01*
X76391731Y-63482877D01*
X76527181Y-63392372D01*
X76642372Y-63277181D01*
X76695976Y-63196957D01*
X76704782Y-63241227D01*
X76767123Y-63391731D01*
X76857628Y-63527181D01*
X76972819Y-63642372D01*
X77108269Y-63732877D01*
X77258773Y-63795218D01*
X77418548Y-63827000D01*
X77581452Y-63827000D01*
X77741227Y-63795218D01*
X77891731Y-63732877D01*
X78027181Y-63642372D01*
X78142372Y-63527181D01*
X78232877Y-63391731D01*
X78295218Y-63241227D01*
X78327000Y-63081452D01*
X78327000Y-62918548D01*
X85173000Y-62918548D01*
X85173000Y-63081452D01*
X85204782Y-63241227D01*
X85267123Y-63391731D01*
X85357628Y-63527181D01*
X85472819Y-63642372D01*
X85608269Y-63732877D01*
X85758773Y-63795218D01*
X85918548Y-63827000D01*
X86081452Y-63827000D01*
X86241227Y-63795218D01*
X86391731Y-63732877D01*
X86527181Y-63642372D01*
X86642372Y-63527181D01*
X86732877Y-63391731D01*
X86795218Y-63241227D01*
X86827000Y-63081452D01*
X86827000Y-62918548D01*
X86795218Y-62758773D01*
X86757846Y-62668548D01*
X113423000Y-62668548D01*
X113423000Y-62831452D01*
X113454782Y-62991227D01*
X113517123Y-63141731D01*
X113607628Y-63277181D01*
X113722819Y-63392372D01*
X113858269Y-63482877D01*
X114008773Y-63545218D01*
X114168548Y-63577000D01*
X114331452Y-63577000D01*
X114491227Y-63545218D01*
X114641731Y-63482877D01*
X114777181Y-63392372D01*
X114892372Y-63277181D01*
X114982877Y-63141731D01*
X115045218Y-62991227D01*
X115077000Y-62831452D01*
X115077000Y-62668548D01*
X115045218Y-62508773D01*
X114982877Y-62358269D01*
X114892372Y-62222819D01*
X114777181Y-62107628D01*
X114641731Y-62017123D01*
X114491227Y-61954782D01*
X114331452Y-61923000D01*
X114168548Y-61923000D01*
X114008773Y-61954782D01*
X113858269Y-62017123D01*
X113722819Y-62107628D01*
X113607628Y-62222819D01*
X113517123Y-62358269D01*
X113454782Y-62508773D01*
X113423000Y-62668548D01*
X86757846Y-62668548D01*
X86732877Y-62608269D01*
X86642372Y-62472819D01*
X86527181Y-62357628D01*
X86391731Y-62267123D01*
X86241227Y-62204782D01*
X86081452Y-62173000D01*
X85918548Y-62173000D01*
X85758773Y-62204782D01*
X85608269Y-62267123D01*
X85472819Y-62357628D01*
X85357628Y-62472819D01*
X85267123Y-62608269D01*
X85204782Y-62758773D01*
X85173000Y-62918548D01*
X78327000Y-62918548D01*
X78295218Y-62758773D01*
X78232877Y-62608269D01*
X78142372Y-62472819D01*
X78027181Y-62357628D01*
X77891731Y-62267123D01*
X77741227Y-62204782D01*
X77581452Y-62173000D01*
X77418548Y-62173000D01*
X77258773Y-62204782D01*
X77108269Y-62267123D01*
X76972819Y-62357628D01*
X76857628Y-62472819D01*
X76804024Y-62553043D01*
X76795218Y-62508773D01*
X76732877Y-62358269D01*
X76642372Y-62222819D01*
X76527181Y-62107628D01*
X76391731Y-62017123D01*
X76241227Y-61954782D01*
X76081452Y-61923000D01*
X75918548Y-61923000D01*
X75758773Y-61954782D01*
X75608269Y-62017123D01*
X75472819Y-62107628D01*
X75377000Y-62203447D01*
X75377000Y-60317940D01*
X75491227Y-60295218D01*
X75641731Y-60232877D01*
X75777181Y-60142372D01*
X75892372Y-60027181D01*
X75932132Y-59967676D01*
X79413175Y-59967676D01*
X79413175Y-60130580D01*
X79444957Y-60290355D01*
X79507298Y-60440859D01*
X79597803Y-60576309D01*
X79712994Y-60691500D01*
X79848444Y-60782005D01*
X79998948Y-60844346D01*
X80158723Y-60876128D01*
X80321627Y-60876128D01*
X80481402Y-60844346D01*
X80631906Y-60782005D01*
X80767356Y-60691500D01*
X80882547Y-60576309D01*
X80973052Y-60440859D01*
X81035393Y-60290355D01*
X81067175Y-60130580D01*
X81067175Y-59978550D01*
X81510764Y-59978550D01*
X81510764Y-60141454D01*
X81542546Y-60301229D01*
X81604887Y-60451733D01*
X81695392Y-60587183D01*
X81810583Y-60702374D01*
X81855100Y-60732119D01*
X81824524Y-60885830D01*
X81824524Y-61048734D01*
X81856306Y-61208509D01*
X81918647Y-61359013D01*
X82009152Y-61494463D01*
X82124343Y-61609654D01*
X82259793Y-61700159D01*
X82410297Y-61762500D01*
X82570072Y-61794282D01*
X82732976Y-61794282D01*
X82892751Y-61762500D01*
X83043255Y-61700159D01*
X83178705Y-61609654D01*
X83293896Y-61494463D01*
X83384401Y-61359013D01*
X83446742Y-61208509D01*
X83478524Y-61048734D01*
X83478524Y-60885830D01*
X83474501Y-60865606D01*
X83538988Y-60852778D01*
X83670393Y-60798348D01*
X83652991Y-60885831D01*
X83652991Y-61048735D01*
X83684773Y-61208510D01*
X83747114Y-61359014D01*
X83837619Y-61494464D01*
X83952810Y-61609655D01*
X84088260Y-61700160D01*
X84238764Y-61762501D01*
X84398539Y-61794283D01*
X84561443Y-61794283D01*
X84721218Y-61762501D01*
X84871722Y-61700160D01*
X84919032Y-61668548D01*
X97233000Y-61668548D01*
X97233000Y-61831452D01*
X97264782Y-61991227D01*
X97327123Y-62141731D01*
X97417628Y-62277181D01*
X97532819Y-62392372D01*
X97668269Y-62482877D01*
X97818773Y-62545218D01*
X97978548Y-62577000D01*
X98141452Y-62577000D01*
X98301227Y-62545218D01*
X98451731Y-62482877D01*
X98587181Y-62392372D01*
X98702372Y-62277181D01*
X98792877Y-62141731D01*
X98855218Y-61991227D01*
X98883389Y-61849604D01*
X120973000Y-61849604D01*
X120973000Y-62150396D01*
X121031681Y-62445410D01*
X121146790Y-62723306D01*
X121313901Y-62973406D01*
X121526594Y-63186099D01*
X121776694Y-63353210D01*
X122054590Y-63468319D01*
X122349604Y-63527000D01*
X122650396Y-63527000D01*
X122945410Y-63468319D01*
X123223306Y-63353210D01*
X123473406Y-63186099D01*
X123686099Y-62973406D01*
X123853210Y-62723306D01*
X123968319Y-62445410D01*
X124027000Y-62150396D01*
X124027000Y-61849604D01*
X123968319Y-61554590D01*
X123853210Y-61276694D01*
X123686099Y-61026594D01*
X123473406Y-60813901D01*
X123223306Y-60646790D01*
X122945410Y-60531681D01*
X122650396Y-60473000D01*
X122349604Y-60473000D01*
X122054590Y-60531681D01*
X121776694Y-60646790D01*
X121526594Y-60813901D01*
X121313901Y-61026594D01*
X121146790Y-61276694D01*
X121031681Y-61554590D01*
X120973000Y-61849604D01*
X98883389Y-61849604D01*
X98887000Y-61831452D01*
X98887000Y-61668548D01*
X98855218Y-61508773D01*
X98792877Y-61358269D01*
X98702372Y-61222819D01*
X98587181Y-61107628D01*
X98451731Y-61017123D01*
X98301227Y-60954782D01*
X98141452Y-60923000D01*
X97978548Y-60923000D01*
X97818773Y-60954782D01*
X97668269Y-61017123D01*
X97532819Y-61107628D01*
X97417628Y-61222819D01*
X97327123Y-61358269D01*
X97264782Y-61508773D01*
X97233000Y-61668548D01*
X84919032Y-61668548D01*
X85007172Y-61609655D01*
X85122363Y-61494464D01*
X85212868Y-61359014D01*
X85275209Y-61208510D01*
X85306991Y-61048735D01*
X85306991Y-60885831D01*
X85302753Y-60864527D01*
X85408548Y-60885571D01*
X85571452Y-60885571D01*
X85731227Y-60853789D01*
X85881731Y-60791448D01*
X86017181Y-60700943D01*
X86132372Y-60585752D01*
X86222877Y-60450302D01*
X86285218Y-60299798D01*
X86295945Y-60245870D01*
X86595677Y-60245870D01*
X86595677Y-60408774D01*
X86627459Y-60568549D01*
X86689800Y-60719053D01*
X86780305Y-60854503D01*
X86895496Y-60969694D01*
X87030946Y-61060199D01*
X87181450Y-61122540D01*
X87341225Y-61154322D01*
X87504129Y-61154322D01*
X87663904Y-61122540D01*
X87814408Y-61060199D01*
X87949858Y-60969694D01*
X88065049Y-60854503D01*
X88137655Y-60745841D01*
X88255319Y-60794579D01*
X88415094Y-60826361D01*
X88577998Y-60826361D01*
X88737773Y-60794579D01*
X88888277Y-60732238D01*
X89023727Y-60641733D01*
X89138918Y-60526542D01*
X89229423Y-60391092D01*
X89291764Y-60240588D01*
X89323546Y-60080813D01*
X89323546Y-59917909D01*
X89291764Y-59758134D01*
X89254657Y-59668548D01*
X89423000Y-59668548D01*
X89423000Y-59831452D01*
X89454782Y-59991227D01*
X89517123Y-60141731D01*
X89607628Y-60277181D01*
X89722819Y-60392372D01*
X89858269Y-60482877D01*
X90008773Y-60545218D01*
X90168548Y-60577000D01*
X90331452Y-60577000D01*
X90491227Y-60545218D01*
X90641731Y-60482877D01*
X90777181Y-60392372D01*
X90892372Y-60277181D01*
X90982877Y-60141731D01*
X91045218Y-59991227D01*
X91077000Y-59831452D01*
X91077000Y-59693746D01*
X97703655Y-59693746D01*
X97703655Y-59856650D01*
X97735437Y-60016425D01*
X97797778Y-60166929D01*
X97888283Y-60302379D01*
X98003474Y-60417570D01*
X98138924Y-60508075D01*
X98289428Y-60570416D01*
X98449203Y-60602198D01*
X98612107Y-60602198D01*
X98771882Y-60570416D01*
X98922386Y-60508075D01*
X99057836Y-60417570D01*
X99173027Y-60302379D01*
X99263532Y-60166929D01*
X99325873Y-60016425D01*
X99357655Y-59856650D01*
X99357655Y-59693746D01*
X99354767Y-59679226D01*
X99668195Y-59679226D01*
X99668195Y-59842130D01*
X99699977Y-60001905D01*
X99762318Y-60152409D01*
X99852823Y-60287859D01*
X99968014Y-60403050D01*
X100103464Y-60493555D01*
X100253968Y-60555896D01*
X100413743Y-60587678D01*
X100576647Y-60587678D01*
X100736422Y-60555896D01*
X100846381Y-60510349D01*
X100857628Y-60527181D01*
X100972819Y-60642372D01*
X101108269Y-60732877D01*
X101258773Y-60795218D01*
X101418548Y-60827000D01*
X101581452Y-60827000D01*
X101741227Y-60795218D01*
X101891731Y-60732877D01*
X102027181Y-60642372D01*
X102142372Y-60527181D01*
X102232877Y-60391731D01*
X102295218Y-60241227D01*
X102327000Y-60081452D01*
X102327000Y-59918548D01*
X106173000Y-59918548D01*
X106173000Y-60081452D01*
X106204782Y-60241227D01*
X106267123Y-60391731D01*
X106357628Y-60527181D01*
X106472819Y-60642372D01*
X106608269Y-60732877D01*
X106758773Y-60795218D01*
X106918548Y-60827000D01*
X107081452Y-60827000D01*
X107241227Y-60795218D01*
X107391731Y-60732877D01*
X107527181Y-60642372D01*
X107642372Y-60527181D01*
X107732877Y-60391731D01*
X107795218Y-60241227D01*
X107827000Y-60081452D01*
X107827000Y-59918548D01*
X108923000Y-59918548D01*
X108923000Y-60081452D01*
X108954782Y-60241227D01*
X109017123Y-60391731D01*
X109107628Y-60527181D01*
X109222819Y-60642372D01*
X109358269Y-60732877D01*
X109508773Y-60795218D01*
X109668548Y-60827000D01*
X109831452Y-60827000D01*
X109991227Y-60795218D01*
X110141731Y-60732877D01*
X110277181Y-60642372D01*
X110392372Y-60527181D01*
X110482877Y-60391731D01*
X110545218Y-60241227D01*
X110577000Y-60081452D01*
X110577000Y-59918548D01*
X110923000Y-59918548D01*
X110923000Y-60081452D01*
X110954782Y-60241227D01*
X111017123Y-60391731D01*
X111107628Y-60527181D01*
X111222819Y-60642372D01*
X111358269Y-60732877D01*
X111508773Y-60795218D01*
X111668548Y-60827000D01*
X111831452Y-60827000D01*
X111991227Y-60795218D01*
X112141731Y-60732877D01*
X112277181Y-60642372D01*
X112392372Y-60527181D01*
X112423000Y-60481343D01*
X112423000Y-60581452D01*
X112454782Y-60741227D01*
X112517123Y-60891731D01*
X112607628Y-61027181D01*
X112722819Y-61142372D01*
X112858269Y-61232877D01*
X113008773Y-61295218D01*
X113168548Y-61327000D01*
X113331452Y-61327000D01*
X113491227Y-61295218D01*
X113641731Y-61232877D01*
X113777181Y-61142372D01*
X113892372Y-61027181D01*
X113982877Y-60891731D01*
X114045218Y-60741227D01*
X114077000Y-60581452D01*
X114077000Y-60418548D01*
X114045218Y-60258773D01*
X113982877Y-60108269D01*
X113892372Y-59972819D01*
X113777181Y-59857628D01*
X113641731Y-59767123D01*
X113491227Y-59704782D01*
X113331452Y-59673000D01*
X113168548Y-59673000D01*
X113008773Y-59704782D01*
X112858269Y-59767123D01*
X112722819Y-59857628D01*
X112607628Y-59972819D01*
X112577000Y-60018657D01*
X112577000Y-59918548D01*
X112545218Y-59758773D01*
X112482877Y-59608269D01*
X112392372Y-59472819D01*
X112277181Y-59357628D01*
X112141731Y-59267123D01*
X111991227Y-59204782D01*
X111831452Y-59173000D01*
X111668548Y-59173000D01*
X111508773Y-59204782D01*
X111358269Y-59267123D01*
X111222819Y-59357628D01*
X111107628Y-59472819D01*
X111017123Y-59608269D01*
X110954782Y-59758773D01*
X110923000Y-59918548D01*
X110577000Y-59918548D01*
X110545218Y-59758773D01*
X110482877Y-59608269D01*
X110392372Y-59472819D01*
X110277181Y-59357628D01*
X110141731Y-59267123D01*
X109991227Y-59204782D01*
X109831452Y-59173000D01*
X109668548Y-59173000D01*
X109508773Y-59204782D01*
X109358269Y-59267123D01*
X109222819Y-59357628D01*
X109107628Y-59472819D01*
X109017123Y-59608269D01*
X108954782Y-59758773D01*
X108923000Y-59918548D01*
X107827000Y-59918548D01*
X107795218Y-59758773D01*
X107732877Y-59608269D01*
X107642372Y-59472819D01*
X107527181Y-59357628D01*
X107391731Y-59267123D01*
X107241227Y-59204782D01*
X107081452Y-59173000D01*
X106918548Y-59173000D01*
X106758773Y-59204782D01*
X106608269Y-59267123D01*
X106472819Y-59357628D01*
X106357628Y-59472819D01*
X106267123Y-59608269D01*
X106204782Y-59758773D01*
X106173000Y-59918548D01*
X102327000Y-59918548D01*
X102295218Y-59758773D01*
X102232877Y-59608269D01*
X102142372Y-59472819D01*
X102027181Y-59357628D01*
X101891731Y-59267123D01*
X101741227Y-59204782D01*
X101581452Y-59173000D01*
X101418548Y-59173000D01*
X101258773Y-59204782D01*
X101148814Y-59250329D01*
X101137567Y-59233497D01*
X101022376Y-59118306D01*
X100886926Y-59027801D01*
X100736422Y-58965460D01*
X100576647Y-58933678D01*
X100413743Y-58933678D01*
X100253968Y-58965460D01*
X100103464Y-59027801D01*
X99968014Y-59118306D01*
X99852823Y-59233497D01*
X99762318Y-59368947D01*
X99699977Y-59519451D01*
X99668195Y-59679226D01*
X99354767Y-59679226D01*
X99325873Y-59533971D01*
X99263532Y-59383467D01*
X99173027Y-59248017D01*
X99057836Y-59132826D01*
X98922386Y-59042321D01*
X98771882Y-58979980D01*
X98612107Y-58948198D01*
X98449203Y-58948198D01*
X98289428Y-58979980D01*
X98138924Y-59042321D01*
X98003474Y-59132826D01*
X97888283Y-59248017D01*
X97797778Y-59383467D01*
X97735437Y-59533971D01*
X97703655Y-59693746D01*
X91077000Y-59693746D01*
X91077000Y-59668548D01*
X91045218Y-59508773D01*
X90982877Y-59358269D01*
X90892372Y-59222819D01*
X90777181Y-59107628D01*
X90750210Y-59089607D01*
X90771328Y-59085406D01*
X90921832Y-59023065D01*
X91057282Y-58932560D01*
X91172473Y-58817369D01*
X91262978Y-58681919D01*
X91325319Y-58531415D01*
X91357101Y-58371640D01*
X91357101Y-58208736D01*
X91325319Y-58048961D01*
X91262978Y-57898457D01*
X91172473Y-57763007D01*
X91057282Y-57647816D01*
X90921832Y-57557311D01*
X90771328Y-57494970D01*
X90611553Y-57463188D01*
X90448649Y-57463188D01*
X90288874Y-57494970D01*
X90138370Y-57557311D01*
X90002920Y-57647816D01*
X89887729Y-57763007D01*
X89797224Y-57898457D01*
X89734883Y-58048961D01*
X89703101Y-58208736D01*
X89703101Y-58371640D01*
X89734883Y-58531415D01*
X89797224Y-58681919D01*
X89887729Y-58817369D01*
X90002920Y-58932560D01*
X90029891Y-58950581D01*
X90008773Y-58954782D01*
X89858269Y-59017123D01*
X89722819Y-59107628D01*
X89607628Y-59222819D01*
X89517123Y-59358269D01*
X89454782Y-59508773D01*
X89423000Y-59668548D01*
X89254657Y-59668548D01*
X89229423Y-59607630D01*
X89138918Y-59472180D01*
X89023727Y-59356989D01*
X88888277Y-59266484D01*
X88737773Y-59204143D01*
X88577998Y-59172361D01*
X88415094Y-59172361D01*
X88255319Y-59204143D01*
X88104815Y-59266484D01*
X87969365Y-59356989D01*
X87854174Y-59472180D01*
X87781568Y-59580842D01*
X87663904Y-59532104D01*
X87504129Y-59500322D01*
X87341225Y-59500322D01*
X87181450Y-59532104D01*
X87030946Y-59594445D01*
X86895496Y-59684950D01*
X86780305Y-59800141D01*
X86689800Y-59935591D01*
X86627459Y-60086095D01*
X86595677Y-60245870D01*
X86295945Y-60245870D01*
X86317000Y-60140023D01*
X86317000Y-59977119D01*
X86285218Y-59817344D01*
X86222877Y-59666840D01*
X86132372Y-59531390D01*
X86017181Y-59416199D01*
X85881731Y-59325694D01*
X85731227Y-59263353D01*
X85571452Y-59231571D01*
X85408548Y-59231571D01*
X85248773Y-59263353D01*
X85098269Y-59325694D01*
X84962819Y-59416199D01*
X84847628Y-59531390D01*
X84757123Y-59666840D01*
X84694782Y-59817344D01*
X84663000Y-59977119D01*
X84663000Y-60140023D01*
X84667238Y-60161327D01*
X84561443Y-60140283D01*
X84398539Y-60140283D01*
X84238764Y-60172065D01*
X84107359Y-60226495D01*
X84124761Y-60139012D01*
X84124761Y-59976108D01*
X84092979Y-59816333D01*
X84030638Y-59665829D01*
X83940133Y-59530379D01*
X83824942Y-59415188D01*
X83689492Y-59324683D01*
X83538988Y-59262342D01*
X83379213Y-59230560D01*
X83216309Y-59230560D01*
X83056534Y-59262342D01*
X82906030Y-59324683D01*
X82815935Y-59384883D01*
X82729495Y-59327125D01*
X82578991Y-59264784D01*
X82419216Y-59233002D01*
X82256312Y-59233002D01*
X82096537Y-59264784D01*
X81946033Y-59327125D01*
X81810583Y-59417630D01*
X81695392Y-59532821D01*
X81604887Y-59668271D01*
X81542546Y-59818775D01*
X81510764Y-59978550D01*
X81067175Y-59978550D01*
X81067175Y-59967676D01*
X81035393Y-59807901D01*
X80973052Y-59657397D01*
X80882547Y-59521947D01*
X80767356Y-59406756D01*
X80631906Y-59316251D01*
X80481402Y-59253910D01*
X80321627Y-59222128D01*
X80158723Y-59222128D01*
X79998948Y-59253910D01*
X79848444Y-59316251D01*
X79712994Y-59406756D01*
X79597803Y-59521947D01*
X79507298Y-59657397D01*
X79444957Y-59807901D01*
X79413175Y-59967676D01*
X75932132Y-59967676D01*
X75982877Y-59891731D01*
X76045218Y-59741227D01*
X76077000Y-59581452D01*
X76077000Y-59418548D01*
X76045218Y-59258773D01*
X75982877Y-59108269D01*
X75910534Y-59000000D01*
X75982877Y-58891731D01*
X76045218Y-58741227D01*
X76077000Y-58581452D01*
X76077000Y-58418548D01*
X77383000Y-58418548D01*
X77383000Y-58581452D01*
X77414782Y-58741227D01*
X77477123Y-58891731D01*
X77567628Y-59027181D01*
X77682819Y-59142372D01*
X77818269Y-59232877D01*
X77968773Y-59295218D01*
X78128548Y-59327000D01*
X78291452Y-59327000D01*
X78451227Y-59295218D01*
X78601731Y-59232877D01*
X78737181Y-59142372D01*
X78852372Y-59027181D01*
X78942877Y-58891731D01*
X79005218Y-58741227D01*
X79037000Y-58581452D01*
X79037000Y-58418548D01*
X79005218Y-58258773D01*
X78942877Y-58108269D01*
X78852372Y-57972819D01*
X78737181Y-57857628D01*
X78601731Y-57767123D01*
X78451227Y-57704782D01*
X78291452Y-57673000D01*
X78128548Y-57673000D01*
X77968773Y-57704782D01*
X77818269Y-57767123D01*
X77682819Y-57857628D01*
X77567628Y-57972819D01*
X77477123Y-58108269D01*
X77414782Y-58258773D01*
X77383000Y-58418548D01*
X76077000Y-58418548D01*
X76045218Y-58258773D01*
X75982877Y-58108269D01*
X75892372Y-57972819D01*
X75777181Y-57857628D01*
X75641731Y-57767123D01*
X75491227Y-57704782D01*
X75377000Y-57682060D01*
X75377000Y-57302606D01*
X75802606Y-56877000D01*
X83678812Y-56877000D01*
X83670954Y-56916502D01*
X83670954Y-57079406D01*
X83702736Y-57239181D01*
X83765077Y-57389685D01*
X83855582Y-57525135D01*
X83970773Y-57640326D01*
X84106223Y-57730831D01*
X84256727Y-57793172D01*
X84416502Y-57824954D01*
X84579406Y-57824954D01*
X84739181Y-57793172D01*
X84889685Y-57730831D01*
X85025135Y-57640326D01*
X85140326Y-57525135D01*
X85230831Y-57389685D01*
X85293172Y-57239181D01*
X85324954Y-57079406D01*
X85324954Y-56975063D01*
X85424711Y-56933742D01*
X85509631Y-56877000D01*
X88373448Y-56877000D01*
X88357628Y-56892820D01*
X88267123Y-57028270D01*
X88204782Y-57178774D01*
X88173000Y-57338549D01*
X88173000Y-57501453D01*
X88204782Y-57661228D01*
X88267123Y-57811732D01*
X88357628Y-57947182D01*
X88472819Y-58062373D01*
X88608269Y-58152878D01*
X88758773Y-58215219D01*
X88918548Y-58247001D01*
X89081452Y-58247001D01*
X89241227Y-58215219D01*
X89391731Y-58152878D01*
X89527181Y-58062373D01*
X89642372Y-57947182D01*
X89732877Y-57811732D01*
X89795218Y-57661228D01*
X89827000Y-57501453D01*
X89827000Y-57338549D01*
X89795218Y-57178774D01*
X89732877Y-57028270D01*
X89642372Y-56892820D01*
X89626552Y-56877000D01*
X91790674Y-56877000D01*
X91846046Y-56932372D01*
X91981496Y-57022877D01*
X92132000Y-57085218D01*
X92291775Y-57117000D01*
X92454679Y-57117000D01*
X92614454Y-57085218D01*
X92764958Y-57022877D01*
X92900408Y-56932372D01*
X92955780Y-56877000D01*
X106759338Y-56877000D01*
X106795626Y-56964607D01*
X106886131Y-57100057D01*
X107001322Y-57215248D01*
X107136772Y-57305753D01*
X107287276Y-57368094D01*
X107447051Y-57399876D01*
X107609955Y-57399876D01*
X107769730Y-57368094D01*
X107920234Y-57305753D01*
X108055684Y-57215248D01*
X108170875Y-57100057D01*
X108193300Y-57066496D01*
X108173000Y-57168548D01*
X108173000Y-57331452D01*
X108204782Y-57491227D01*
X108267123Y-57641731D01*
X108357628Y-57777181D01*
X108472819Y-57892372D01*
X108608269Y-57982877D01*
X108758773Y-58045218D01*
X108918548Y-58077000D01*
X109081452Y-58077000D01*
X109241227Y-58045218D01*
X109391731Y-57982877D01*
X109527181Y-57892372D01*
X109642372Y-57777181D01*
X109732877Y-57641731D01*
X109795218Y-57491227D01*
X109827000Y-57331452D01*
X109827000Y-57168548D01*
X109795218Y-57008773D01*
X109740636Y-56877000D01*
X112182060Y-56877000D01*
X112204782Y-56991227D01*
X112267123Y-57141731D01*
X112357628Y-57277181D01*
X112472819Y-57392372D01*
X112608269Y-57482877D01*
X112758773Y-57545218D01*
X112918548Y-57577000D01*
X113081452Y-57577000D01*
X113241227Y-57545218D01*
X113375000Y-57489807D01*
X113508773Y-57545218D01*
X113668548Y-57577000D01*
X113831452Y-57577000D01*
X113991227Y-57545218D01*
X114141731Y-57482877D01*
X114277181Y-57392372D01*
X114392372Y-57277181D01*
X114482877Y-57141731D01*
X114545218Y-56991227D01*
X114567940Y-56877000D01*
X116250000Y-56877000D01*
X116274776Y-56874560D01*
X116298601Y-56867333D01*
X116320557Y-56855597D01*
X116339803Y-56839803D01*
X116839803Y-56339803D01*
X116855597Y-56320557D01*
X116867333Y-56298601D01*
X116874560Y-56274776D01*
X116877000Y-56250000D01*
X116877000Y-53668548D01*
X117423000Y-53668548D01*
X117423000Y-53831452D01*
X117454782Y-53991227D01*
X117517123Y-54141731D01*
X117607628Y-54277181D01*
X117722819Y-54392372D01*
X117858269Y-54482877D01*
X118008773Y-54545218D01*
X118168548Y-54577000D01*
X118331452Y-54577000D01*
X118491227Y-54545218D01*
X118641731Y-54482877D01*
X118777181Y-54392372D01*
X118892372Y-54277181D01*
X118982877Y-54141731D01*
X119045218Y-53991227D01*
X119077000Y-53831452D01*
X119077000Y-53668548D01*
X119045218Y-53508773D01*
X118982877Y-53358269D01*
X118892372Y-53222819D01*
X118777181Y-53107628D01*
X118641731Y-53017123D01*
X118491227Y-52954782D01*
X118331452Y-52923000D01*
X118168548Y-52923000D01*
X118008773Y-52954782D01*
X117858269Y-53017123D01*
X117722819Y-53107628D01*
X117607628Y-53222819D01*
X117517123Y-53358269D01*
X117454782Y-53508773D01*
X117423000Y-53668548D01*
X116877000Y-53668548D01*
X116877000Y-48152735D01*
X116918548Y-48161000D01*
X117081452Y-48161000D01*
X117241227Y-48129218D01*
X117391731Y-48066877D01*
X117527181Y-47976372D01*
X117642372Y-47861181D01*
X117732877Y-47725731D01*
X117795218Y-47575227D01*
X117827000Y-47415452D01*
X117827000Y-47252548D01*
X117795218Y-47092773D01*
X117732877Y-46942269D01*
X117642372Y-46806819D01*
X117527181Y-46691628D01*
X117391731Y-46601123D01*
X117241227Y-46538782D01*
X117081452Y-46507000D01*
X116918548Y-46507000D01*
X116877000Y-46515265D01*
X116877000Y-44740636D01*
X117008773Y-44795218D01*
X117168548Y-44827000D01*
X117331452Y-44827000D01*
X117491227Y-44795218D01*
X117641731Y-44732877D01*
X117777181Y-44642372D01*
X117892372Y-44527181D01*
X117982877Y-44391731D01*
X118045218Y-44241227D01*
X118077000Y-44081452D01*
X118077000Y-43918548D01*
X118045218Y-43758773D01*
X117982877Y-43608269D01*
X117892372Y-43472819D01*
X117777181Y-43357628D01*
X117641731Y-43267123D01*
X117491227Y-43204782D01*
X117331452Y-43173000D01*
X117168548Y-43173000D01*
X117008773Y-43204782D01*
X116877000Y-43259364D01*
X116877000Y-33145947D01*
X118900399Y-33145947D01*
X118900399Y-33308851D01*
X118932181Y-33468626D01*
X118994522Y-33619130D01*
X119085027Y-33754580D01*
X119200218Y-33869771D01*
X119335668Y-33960276D01*
X119486172Y-34022617D01*
X119645947Y-34054399D01*
X119808851Y-34054399D01*
X119968626Y-34022617D01*
X120119130Y-33960276D01*
X120254580Y-33869771D01*
X120369771Y-33754580D01*
X120460276Y-33619130D01*
X120522617Y-33468626D01*
X120554399Y-33308851D01*
X120554399Y-33145947D01*
X120522617Y-32986172D01*
X120460276Y-32835668D01*
X120369771Y-32700218D01*
X120254580Y-32585027D01*
X120119130Y-32494522D01*
X119968626Y-32432181D01*
X119808851Y-32400399D01*
X119645947Y-32400399D01*
X119486172Y-32432181D01*
X119335668Y-32494522D01*
X119200218Y-32585027D01*
X119085027Y-32700218D01*
X118994522Y-32835668D01*
X118932181Y-32986172D01*
X118900399Y-33145947D01*
X116877000Y-33145947D01*
X116877000Y-29918548D01*
X119173000Y-29918548D01*
X119173000Y-30081452D01*
X119204782Y-30241227D01*
X119267123Y-30391731D01*
X119357628Y-30527181D01*
X119472819Y-30642372D01*
X119608269Y-30732877D01*
X119758773Y-30795218D01*
X119918548Y-30827000D01*
X120081452Y-30827000D01*
X120241227Y-30795218D01*
X120391731Y-30732877D01*
X120527181Y-30642372D01*
X120642372Y-30527181D01*
X120732877Y-30391731D01*
X120795218Y-30241227D01*
X120827000Y-30081452D01*
X120827000Y-29918548D01*
X120795218Y-29758773D01*
X120732877Y-29608269D01*
X120642372Y-29472819D01*
X120527181Y-29357628D01*
X120391731Y-29267123D01*
X120241227Y-29204782D01*
X120081452Y-29173000D01*
X119918548Y-29173000D01*
X119758773Y-29204782D01*
X119608269Y-29267123D01*
X119472819Y-29357628D01*
X119357628Y-29472819D01*
X119267123Y-29608269D01*
X119204782Y-29758773D01*
X119173000Y-29918548D01*
X116877000Y-29918548D01*
X116877000Y-27052606D01*
X117302606Y-26627000D01*
X124447394Y-26627000D01*
X124548000Y-26727606D01*
%TA.AperFunction,Conductor*%
D19*
G36*
X124548000Y-26727606D02*
G01*
X124548001Y-48628448D01*
X124527181Y-48607628D01*
X124391731Y-48517123D01*
X124241227Y-48454782D01*
X124081452Y-48423000D01*
X123918548Y-48423000D01*
X123758773Y-48454782D01*
X123608269Y-48517123D01*
X123472819Y-48607628D01*
X123357628Y-48722819D01*
X123267123Y-48858269D01*
X123204782Y-49008773D01*
X123173000Y-49168548D01*
X123173000Y-49331452D01*
X123204782Y-49491227D01*
X123267123Y-49641731D01*
X123357628Y-49777181D01*
X123472819Y-49892372D01*
X123608269Y-49982877D01*
X123758773Y-50045218D01*
X123918548Y-50077000D01*
X124081452Y-50077000D01*
X124241227Y-50045218D01*
X124391731Y-49982877D01*
X124527181Y-49892372D01*
X124548001Y-49871552D01*
X124548001Y-50628448D01*
X124527181Y-50607628D01*
X124391731Y-50517123D01*
X124241227Y-50454782D01*
X124081452Y-50423000D01*
X123918548Y-50423000D01*
X123758773Y-50454782D01*
X123608269Y-50517123D01*
X123472819Y-50607628D01*
X123357628Y-50722819D01*
X123267123Y-50858269D01*
X123250000Y-50899607D01*
X123232877Y-50858269D01*
X123142372Y-50722819D01*
X123027181Y-50607628D01*
X122891731Y-50517123D01*
X122741227Y-50454782D01*
X122581452Y-50423000D01*
X122418548Y-50423000D01*
X122258773Y-50454782D01*
X122108269Y-50517123D01*
X121972819Y-50607628D01*
X121857628Y-50722819D01*
X121767123Y-50858269D01*
X121704782Y-51008773D01*
X121673000Y-51168548D01*
X121673000Y-51331452D01*
X121704782Y-51491227D01*
X121767123Y-51641731D01*
X121857628Y-51777181D01*
X121972819Y-51892372D01*
X122108269Y-51982877D01*
X122258773Y-52045218D01*
X122418548Y-52077000D01*
X122581452Y-52077000D01*
X122741227Y-52045218D01*
X122891731Y-51982877D01*
X123027181Y-51892372D01*
X123142372Y-51777181D01*
X123232877Y-51641731D01*
X123250000Y-51600393D01*
X123267123Y-51641731D01*
X123357628Y-51777181D01*
X123472819Y-51892372D01*
X123608269Y-51982877D01*
X123758773Y-52045218D01*
X123918548Y-52077000D01*
X124081452Y-52077000D01*
X124241227Y-52045218D01*
X124391731Y-51982877D01*
X124527181Y-51892372D01*
X124548001Y-51871552D01*
X124548001Y-52878448D01*
X124527181Y-52857628D01*
X124391731Y-52767123D01*
X124241227Y-52704782D01*
X124081452Y-52673000D01*
X123918548Y-52673000D01*
X123758773Y-52704782D01*
X123608269Y-52767123D01*
X123472819Y-52857628D01*
X123357628Y-52972819D01*
X123267123Y-53108269D01*
X123250000Y-53149607D01*
X123232877Y-53108269D01*
X123142372Y-52972819D01*
X123027181Y-52857628D01*
X122891731Y-52767123D01*
X122741227Y-52704782D01*
X122581452Y-52673000D01*
X122418548Y-52673000D01*
X122258773Y-52704782D01*
X122108269Y-52767123D01*
X121972819Y-52857628D01*
X121857628Y-52972819D01*
X121767123Y-53108269D01*
X121704782Y-53258773D01*
X121673000Y-53418548D01*
X121673000Y-53581452D01*
X121704782Y-53741227D01*
X121767123Y-53891731D01*
X121857628Y-54027181D01*
X121972819Y-54142372D01*
X122108269Y-54232877D01*
X122258773Y-54295218D01*
X122418548Y-54327000D01*
X122581452Y-54327000D01*
X122741227Y-54295218D01*
X122891731Y-54232877D01*
X123027181Y-54142372D01*
X123142372Y-54027181D01*
X123232877Y-53891731D01*
X123250000Y-53850393D01*
X123267123Y-53891731D01*
X123357628Y-54027181D01*
X123472819Y-54142372D01*
X123608269Y-54232877D01*
X123758773Y-54295218D01*
X123918548Y-54327000D01*
X124081452Y-54327000D01*
X124241227Y-54295218D01*
X124391731Y-54232877D01*
X124527181Y-54142372D01*
X124548001Y-54121552D01*
X124548001Y-54628448D01*
X124527181Y-54607628D01*
X124391731Y-54517123D01*
X124241227Y-54454782D01*
X124081452Y-54423000D01*
X123918548Y-54423000D01*
X123758773Y-54454782D01*
X123608269Y-54517123D01*
X123472819Y-54607628D01*
X123357628Y-54722819D01*
X123267123Y-54858269D01*
X123250000Y-54899607D01*
X123232877Y-54858269D01*
X123142372Y-54722819D01*
X123027181Y-54607628D01*
X122891731Y-54517123D01*
X122741227Y-54454782D01*
X122581452Y-54423000D01*
X122418548Y-54423000D01*
X122258773Y-54454782D01*
X122108269Y-54517123D01*
X121972819Y-54607628D01*
X121857628Y-54722819D01*
X121767123Y-54858269D01*
X121704782Y-55008773D01*
X121673000Y-55168548D01*
X121673000Y-55331452D01*
X121704782Y-55491227D01*
X121767123Y-55641731D01*
X121857628Y-55777181D01*
X121972819Y-55892372D01*
X122108269Y-55982877D01*
X122258773Y-56045218D01*
X122418548Y-56077000D01*
X122581452Y-56077000D01*
X122741227Y-56045218D01*
X122891731Y-55982877D01*
X123027181Y-55892372D01*
X123142372Y-55777181D01*
X123232877Y-55641731D01*
X123250000Y-55600393D01*
X123267123Y-55641731D01*
X123357628Y-55777181D01*
X123472819Y-55892372D01*
X123608269Y-55982877D01*
X123758773Y-56045218D01*
X123918548Y-56077000D01*
X124081452Y-56077000D01*
X124241227Y-56045218D01*
X124391731Y-55982877D01*
X124527181Y-55892372D01*
X124548001Y-55871552D01*
X124548001Y-56878448D01*
X124527181Y-56857628D01*
X124391731Y-56767123D01*
X124241227Y-56704782D01*
X124081452Y-56673000D01*
X123918548Y-56673000D01*
X123758773Y-56704782D01*
X123608269Y-56767123D01*
X123472819Y-56857628D01*
X123357628Y-56972819D01*
X123267123Y-57108269D01*
X123250000Y-57149607D01*
X123232877Y-57108269D01*
X123142372Y-56972819D01*
X123027181Y-56857628D01*
X122891731Y-56767123D01*
X122741227Y-56704782D01*
X122581452Y-56673000D01*
X122418548Y-56673000D01*
X122258773Y-56704782D01*
X122108269Y-56767123D01*
X121972819Y-56857628D01*
X121857628Y-56972819D01*
X121767123Y-57108269D01*
X121704782Y-57258773D01*
X121673000Y-57418548D01*
X121673000Y-57581452D01*
X121704782Y-57741227D01*
X121767123Y-57891731D01*
X121857628Y-58027181D01*
X121972819Y-58142372D01*
X122108269Y-58232877D01*
X122258773Y-58295218D01*
X122418548Y-58327000D01*
X122581452Y-58327000D01*
X122741227Y-58295218D01*
X122891731Y-58232877D01*
X123027181Y-58142372D01*
X123142372Y-58027181D01*
X123232877Y-57891731D01*
X123250000Y-57850393D01*
X123267123Y-57891731D01*
X123357628Y-58027181D01*
X123455447Y-58125000D01*
X123357628Y-58222819D01*
X123267123Y-58358269D01*
X123204782Y-58508773D01*
X123173000Y-58668548D01*
X123173000Y-58831452D01*
X123204782Y-58991227D01*
X123267123Y-59141731D01*
X123357628Y-59277181D01*
X123472819Y-59392372D01*
X123608269Y-59482877D01*
X123758773Y-59545218D01*
X123918548Y-59577000D01*
X124081452Y-59577000D01*
X124241227Y-59545218D01*
X124391731Y-59482877D01*
X124527181Y-59392372D01*
X124548001Y-59371552D01*
X124548001Y-62477880D01*
X124516392Y-62800254D01*
X124429194Y-63089071D01*
X124287556Y-63355451D01*
X124096876Y-63589248D01*
X123864417Y-63781554D01*
X123599036Y-63925045D01*
X123310833Y-64014259D01*
X122989807Y-64048000D01*
X75477606Y-64048000D01*
X75377000Y-63947394D01*
X75377000Y-63296553D01*
X75472819Y-63392372D01*
X75608269Y-63482877D01*
X75758773Y-63545218D01*
X75918548Y-63577000D01*
X76081452Y-63577000D01*
X76241227Y-63545218D01*
X76391731Y-63482877D01*
X76527181Y-63392372D01*
X76642372Y-63277181D01*
X76695976Y-63196957D01*
X76704782Y-63241227D01*
X76767123Y-63391731D01*
X76857628Y-63527181D01*
X76972819Y-63642372D01*
X77108269Y-63732877D01*
X77258773Y-63795218D01*
X77418548Y-63827000D01*
X77581452Y-63827000D01*
X77741227Y-63795218D01*
X77891731Y-63732877D01*
X78027181Y-63642372D01*
X78142372Y-63527181D01*
X78232877Y-63391731D01*
X78295218Y-63241227D01*
X78327000Y-63081452D01*
X78327000Y-62918548D01*
X85173000Y-62918548D01*
X85173000Y-63081452D01*
X85204782Y-63241227D01*
X85267123Y-63391731D01*
X85357628Y-63527181D01*
X85472819Y-63642372D01*
X85608269Y-63732877D01*
X85758773Y-63795218D01*
X85918548Y-63827000D01*
X86081452Y-63827000D01*
X86241227Y-63795218D01*
X86391731Y-63732877D01*
X86527181Y-63642372D01*
X86642372Y-63527181D01*
X86732877Y-63391731D01*
X86795218Y-63241227D01*
X86827000Y-63081452D01*
X86827000Y-62918548D01*
X86795218Y-62758773D01*
X86757846Y-62668548D01*
X113423000Y-62668548D01*
X113423000Y-62831452D01*
X113454782Y-62991227D01*
X113517123Y-63141731D01*
X113607628Y-63277181D01*
X113722819Y-63392372D01*
X113858269Y-63482877D01*
X114008773Y-63545218D01*
X114168548Y-63577000D01*
X114331452Y-63577000D01*
X114491227Y-63545218D01*
X114641731Y-63482877D01*
X114777181Y-63392372D01*
X114892372Y-63277181D01*
X114982877Y-63141731D01*
X115045218Y-62991227D01*
X115077000Y-62831452D01*
X115077000Y-62668548D01*
X115045218Y-62508773D01*
X114982877Y-62358269D01*
X114892372Y-62222819D01*
X114777181Y-62107628D01*
X114641731Y-62017123D01*
X114491227Y-61954782D01*
X114331452Y-61923000D01*
X114168548Y-61923000D01*
X114008773Y-61954782D01*
X113858269Y-62017123D01*
X113722819Y-62107628D01*
X113607628Y-62222819D01*
X113517123Y-62358269D01*
X113454782Y-62508773D01*
X113423000Y-62668548D01*
X86757846Y-62668548D01*
X86732877Y-62608269D01*
X86642372Y-62472819D01*
X86527181Y-62357628D01*
X86391731Y-62267123D01*
X86241227Y-62204782D01*
X86081452Y-62173000D01*
X85918548Y-62173000D01*
X85758773Y-62204782D01*
X85608269Y-62267123D01*
X85472819Y-62357628D01*
X85357628Y-62472819D01*
X85267123Y-62608269D01*
X85204782Y-62758773D01*
X85173000Y-62918548D01*
X78327000Y-62918548D01*
X78295218Y-62758773D01*
X78232877Y-62608269D01*
X78142372Y-62472819D01*
X78027181Y-62357628D01*
X77891731Y-62267123D01*
X77741227Y-62204782D01*
X77581452Y-62173000D01*
X77418548Y-62173000D01*
X77258773Y-62204782D01*
X77108269Y-62267123D01*
X76972819Y-62357628D01*
X76857628Y-62472819D01*
X76804024Y-62553043D01*
X76795218Y-62508773D01*
X76732877Y-62358269D01*
X76642372Y-62222819D01*
X76527181Y-62107628D01*
X76391731Y-62017123D01*
X76241227Y-61954782D01*
X76081452Y-61923000D01*
X75918548Y-61923000D01*
X75758773Y-61954782D01*
X75608269Y-62017123D01*
X75472819Y-62107628D01*
X75377000Y-62203447D01*
X75377000Y-60317940D01*
X75491227Y-60295218D01*
X75641731Y-60232877D01*
X75777181Y-60142372D01*
X75892372Y-60027181D01*
X75932132Y-59967676D01*
X79413175Y-59967676D01*
X79413175Y-60130580D01*
X79444957Y-60290355D01*
X79507298Y-60440859D01*
X79597803Y-60576309D01*
X79712994Y-60691500D01*
X79848444Y-60782005D01*
X79998948Y-60844346D01*
X80158723Y-60876128D01*
X80321627Y-60876128D01*
X80481402Y-60844346D01*
X80631906Y-60782005D01*
X80767356Y-60691500D01*
X80882547Y-60576309D01*
X80973052Y-60440859D01*
X81035393Y-60290355D01*
X81067175Y-60130580D01*
X81067175Y-59978550D01*
X81510764Y-59978550D01*
X81510764Y-60141454D01*
X81542546Y-60301229D01*
X81604887Y-60451733D01*
X81695392Y-60587183D01*
X81810583Y-60702374D01*
X81855100Y-60732119D01*
X81824524Y-60885830D01*
X81824524Y-61048734D01*
X81856306Y-61208509D01*
X81918647Y-61359013D01*
X82009152Y-61494463D01*
X82124343Y-61609654D01*
X82259793Y-61700159D01*
X82410297Y-61762500D01*
X82570072Y-61794282D01*
X82732976Y-61794282D01*
X82892751Y-61762500D01*
X83043255Y-61700159D01*
X83178705Y-61609654D01*
X83293896Y-61494463D01*
X83384401Y-61359013D01*
X83446742Y-61208509D01*
X83478524Y-61048734D01*
X83478524Y-60885830D01*
X83474501Y-60865606D01*
X83538988Y-60852778D01*
X83670393Y-60798348D01*
X83652991Y-60885831D01*
X83652991Y-61048735D01*
X83684773Y-61208510D01*
X83747114Y-61359014D01*
X83837619Y-61494464D01*
X83952810Y-61609655D01*
X84088260Y-61700160D01*
X84238764Y-61762501D01*
X84398539Y-61794283D01*
X84561443Y-61794283D01*
X84721218Y-61762501D01*
X84871722Y-61700160D01*
X84919032Y-61668548D01*
X97233000Y-61668548D01*
X97233000Y-61831452D01*
X97264782Y-61991227D01*
X97327123Y-62141731D01*
X97417628Y-62277181D01*
X97532819Y-62392372D01*
X97668269Y-62482877D01*
X97818773Y-62545218D01*
X97978548Y-62577000D01*
X98141452Y-62577000D01*
X98301227Y-62545218D01*
X98451731Y-62482877D01*
X98587181Y-62392372D01*
X98702372Y-62277181D01*
X98792877Y-62141731D01*
X98855218Y-61991227D01*
X98883389Y-61849604D01*
X120973000Y-61849604D01*
X120973000Y-62150396D01*
X121031681Y-62445410D01*
X121146790Y-62723306D01*
X121313901Y-62973406D01*
X121526594Y-63186099D01*
X121776694Y-63353210D01*
X122054590Y-63468319D01*
X122349604Y-63527000D01*
X122650396Y-63527000D01*
X122945410Y-63468319D01*
X123223306Y-63353210D01*
X123473406Y-63186099D01*
X123686099Y-62973406D01*
X123853210Y-62723306D01*
X123968319Y-62445410D01*
X124027000Y-62150396D01*
X124027000Y-61849604D01*
X123968319Y-61554590D01*
X123853210Y-61276694D01*
X123686099Y-61026594D01*
X123473406Y-60813901D01*
X123223306Y-60646790D01*
X122945410Y-60531681D01*
X122650396Y-60473000D01*
X122349604Y-60473000D01*
X122054590Y-60531681D01*
X121776694Y-60646790D01*
X121526594Y-60813901D01*
X121313901Y-61026594D01*
X121146790Y-61276694D01*
X121031681Y-61554590D01*
X120973000Y-61849604D01*
X98883389Y-61849604D01*
X98887000Y-61831452D01*
X98887000Y-61668548D01*
X98855218Y-61508773D01*
X98792877Y-61358269D01*
X98702372Y-61222819D01*
X98587181Y-61107628D01*
X98451731Y-61017123D01*
X98301227Y-60954782D01*
X98141452Y-60923000D01*
X97978548Y-60923000D01*
X97818773Y-60954782D01*
X97668269Y-61017123D01*
X97532819Y-61107628D01*
X97417628Y-61222819D01*
X97327123Y-61358269D01*
X97264782Y-61508773D01*
X97233000Y-61668548D01*
X84919032Y-61668548D01*
X85007172Y-61609655D01*
X85122363Y-61494464D01*
X85212868Y-61359014D01*
X85275209Y-61208510D01*
X85306991Y-61048735D01*
X85306991Y-60885831D01*
X85302753Y-60864527D01*
X85408548Y-60885571D01*
X85571452Y-60885571D01*
X85731227Y-60853789D01*
X85881731Y-60791448D01*
X86017181Y-60700943D01*
X86132372Y-60585752D01*
X86222877Y-60450302D01*
X86285218Y-60299798D01*
X86295945Y-60245870D01*
X86595677Y-60245870D01*
X86595677Y-60408774D01*
X86627459Y-60568549D01*
X86689800Y-60719053D01*
X86780305Y-60854503D01*
X86895496Y-60969694D01*
X87030946Y-61060199D01*
X87181450Y-61122540D01*
X87341225Y-61154322D01*
X87504129Y-61154322D01*
X87663904Y-61122540D01*
X87814408Y-61060199D01*
X87949858Y-60969694D01*
X88065049Y-60854503D01*
X88137655Y-60745841D01*
X88255319Y-60794579D01*
X88415094Y-60826361D01*
X88577998Y-60826361D01*
X88737773Y-60794579D01*
X88888277Y-60732238D01*
X89023727Y-60641733D01*
X89138918Y-60526542D01*
X89229423Y-60391092D01*
X89291764Y-60240588D01*
X89323546Y-60080813D01*
X89323546Y-59917909D01*
X89291764Y-59758134D01*
X89254657Y-59668548D01*
X89423000Y-59668548D01*
X89423000Y-59831452D01*
X89454782Y-59991227D01*
X89517123Y-60141731D01*
X89607628Y-60277181D01*
X89722819Y-60392372D01*
X89858269Y-60482877D01*
X90008773Y-60545218D01*
X90168548Y-60577000D01*
X90331452Y-60577000D01*
X90491227Y-60545218D01*
X90641731Y-60482877D01*
X90777181Y-60392372D01*
X90892372Y-60277181D01*
X90982877Y-60141731D01*
X91045218Y-59991227D01*
X91077000Y-59831452D01*
X91077000Y-59693746D01*
X97703655Y-59693746D01*
X97703655Y-59856650D01*
X97735437Y-60016425D01*
X97797778Y-60166929D01*
X97888283Y-60302379D01*
X98003474Y-60417570D01*
X98138924Y-60508075D01*
X98289428Y-60570416D01*
X98449203Y-60602198D01*
X98612107Y-60602198D01*
X98771882Y-60570416D01*
X98922386Y-60508075D01*
X99057836Y-60417570D01*
X99173027Y-60302379D01*
X99263532Y-60166929D01*
X99325873Y-60016425D01*
X99357655Y-59856650D01*
X99357655Y-59693746D01*
X99354767Y-59679226D01*
X99668195Y-59679226D01*
X99668195Y-59842130D01*
X99699977Y-60001905D01*
X99762318Y-60152409D01*
X99852823Y-60287859D01*
X99968014Y-60403050D01*
X100103464Y-60493555D01*
X100253968Y-60555896D01*
X100413743Y-60587678D01*
X100576647Y-60587678D01*
X100736422Y-60555896D01*
X100846381Y-60510349D01*
X100857628Y-60527181D01*
X100972819Y-60642372D01*
X101108269Y-60732877D01*
X101258773Y-60795218D01*
X101418548Y-60827000D01*
X101581452Y-60827000D01*
X101741227Y-60795218D01*
X101891731Y-60732877D01*
X102027181Y-60642372D01*
X102142372Y-60527181D01*
X102232877Y-60391731D01*
X102295218Y-60241227D01*
X102327000Y-60081452D01*
X102327000Y-59918548D01*
X106173000Y-59918548D01*
X106173000Y-60081452D01*
X106204782Y-60241227D01*
X106267123Y-60391731D01*
X106357628Y-60527181D01*
X106472819Y-60642372D01*
X106608269Y-60732877D01*
X106758773Y-60795218D01*
X106918548Y-60827000D01*
X107081452Y-60827000D01*
X107241227Y-60795218D01*
X107391731Y-60732877D01*
X107527181Y-60642372D01*
X107642372Y-60527181D01*
X107732877Y-60391731D01*
X107795218Y-60241227D01*
X107827000Y-60081452D01*
X107827000Y-59918548D01*
X108923000Y-59918548D01*
X108923000Y-60081452D01*
X108954782Y-60241227D01*
X109017123Y-60391731D01*
X109107628Y-60527181D01*
X109222819Y-60642372D01*
X109358269Y-60732877D01*
X109508773Y-60795218D01*
X109668548Y-60827000D01*
X109831452Y-60827000D01*
X109991227Y-60795218D01*
X110141731Y-60732877D01*
X110277181Y-60642372D01*
X110392372Y-60527181D01*
X110482877Y-60391731D01*
X110545218Y-60241227D01*
X110577000Y-60081452D01*
X110577000Y-59918548D01*
X110923000Y-59918548D01*
X110923000Y-60081452D01*
X110954782Y-60241227D01*
X111017123Y-60391731D01*
X111107628Y-60527181D01*
X111222819Y-60642372D01*
X111358269Y-60732877D01*
X111508773Y-60795218D01*
X111668548Y-60827000D01*
X111831452Y-60827000D01*
X111991227Y-60795218D01*
X112141731Y-60732877D01*
X112277181Y-60642372D01*
X112392372Y-60527181D01*
X112423000Y-60481343D01*
X112423000Y-60581452D01*
X112454782Y-60741227D01*
X112517123Y-60891731D01*
X112607628Y-61027181D01*
X112722819Y-61142372D01*
X112858269Y-61232877D01*
X113008773Y-61295218D01*
X113168548Y-61327000D01*
X113331452Y-61327000D01*
X113491227Y-61295218D01*
X113641731Y-61232877D01*
X113777181Y-61142372D01*
X113892372Y-61027181D01*
X113982877Y-60891731D01*
X114045218Y-60741227D01*
X114077000Y-60581452D01*
X114077000Y-60418548D01*
X114045218Y-60258773D01*
X113982877Y-60108269D01*
X113892372Y-59972819D01*
X113777181Y-59857628D01*
X113641731Y-59767123D01*
X113491227Y-59704782D01*
X113331452Y-59673000D01*
X113168548Y-59673000D01*
X113008773Y-59704782D01*
X112858269Y-59767123D01*
X112722819Y-59857628D01*
X112607628Y-59972819D01*
X112577000Y-60018657D01*
X112577000Y-59918548D01*
X112545218Y-59758773D01*
X112482877Y-59608269D01*
X112392372Y-59472819D01*
X112277181Y-59357628D01*
X112141731Y-59267123D01*
X111991227Y-59204782D01*
X111831452Y-59173000D01*
X111668548Y-59173000D01*
X111508773Y-59204782D01*
X111358269Y-59267123D01*
X111222819Y-59357628D01*
X111107628Y-59472819D01*
X111017123Y-59608269D01*
X110954782Y-59758773D01*
X110923000Y-59918548D01*
X110577000Y-59918548D01*
X110545218Y-59758773D01*
X110482877Y-59608269D01*
X110392372Y-59472819D01*
X110277181Y-59357628D01*
X110141731Y-59267123D01*
X109991227Y-59204782D01*
X109831452Y-59173000D01*
X109668548Y-59173000D01*
X109508773Y-59204782D01*
X109358269Y-59267123D01*
X109222819Y-59357628D01*
X109107628Y-59472819D01*
X109017123Y-59608269D01*
X108954782Y-59758773D01*
X108923000Y-59918548D01*
X107827000Y-59918548D01*
X107795218Y-59758773D01*
X107732877Y-59608269D01*
X107642372Y-59472819D01*
X107527181Y-59357628D01*
X107391731Y-59267123D01*
X107241227Y-59204782D01*
X107081452Y-59173000D01*
X106918548Y-59173000D01*
X106758773Y-59204782D01*
X106608269Y-59267123D01*
X106472819Y-59357628D01*
X106357628Y-59472819D01*
X106267123Y-59608269D01*
X106204782Y-59758773D01*
X106173000Y-59918548D01*
X102327000Y-59918548D01*
X102295218Y-59758773D01*
X102232877Y-59608269D01*
X102142372Y-59472819D01*
X102027181Y-59357628D01*
X101891731Y-59267123D01*
X101741227Y-59204782D01*
X101581452Y-59173000D01*
X101418548Y-59173000D01*
X101258773Y-59204782D01*
X101148814Y-59250329D01*
X101137567Y-59233497D01*
X101022376Y-59118306D01*
X100886926Y-59027801D01*
X100736422Y-58965460D01*
X100576647Y-58933678D01*
X100413743Y-58933678D01*
X100253968Y-58965460D01*
X100103464Y-59027801D01*
X99968014Y-59118306D01*
X99852823Y-59233497D01*
X99762318Y-59368947D01*
X99699977Y-59519451D01*
X99668195Y-59679226D01*
X99354767Y-59679226D01*
X99325873Y-59533971D01*
X99263532Y-59383467D01*
X99173027Y-59248017D01*
X99057836Y-59132826D01*
X98922386Y-59042321D01*
X98771882Y-58979980D01*
X98612107Y-58948198D01*
X98449203Y-58948198D01*
X98289428Y-58979980D01*
X98138924Y-59042321D01*
X98003474Y-59132826D01*
X97888283Y-59248017D01*
X97797778Y-59383467D01*
X97735437Y-59533971D01*
X97703655Y-59693746D01*
X91077000Y-59693746D01*
X91077000Y-59668548D01*
X91045218Y-59508773D01*
X90982877Y-59358269D01*
X90892372Y-59222819D01*
X90777181Y-59107628D01*
X90750210Y-59089607D01*
X90771328Y-59085406D01*
X90921832Y-59023065D01*
X91057282Y-58932560D01*
X91172473Y-58817369D01*
X91262978Y-58681919D01*
X91325319Y-58531415D01*
X91357101Y-58371640D01*
X91357101Y-58208736D01*
X91325319Y-58048961D01*
X91262978Y-57898457D01*
X91172473Y-57763007D01*
X91057282Y-57647816D01*
X90921832Y-57557311D01*
X90771328Y-57494970D01*
X90611553Y-57463188D01*
X90448649Y-57463188D01*
X90288874Y-57494970D01*
X90138370Y-57557311D01*
X90002920Y-57647816D01*
X89887729Y-57763007D01*
X89797224Y-57898457D01*
X89734883Y-58048961D01*
X89703101Y-58208736D01*
X89703101Y-58371640D01*
X89734883Y-58531415D01*
X89797224Y-58681919D01*
X89887729Y-58817369D01*
X90002920Y-58932560D01*
X90029891Y-58950581D01*
X90008773Y-58954782D01*
X89858269Y-59017123D01*
X89722819Y-59107628D01*
X89607628Y-59222819D01*
X89517123Y-59358269D01*
X89454782Y-59508773D01*
X89423000Y-59668548D01*
X89254657Y-59668548D01*
X89229423Y-59607630D01*
X89138918Y-59472180D01*
X89023727Y-59356989D01*
X88888277Y-59266484D01*
X88737773Y-59204143D01*
X88577998Y-59172361D01*
X88415094Y-59172361D01*
X88255319Y-59204143D01*
X88104815Y-59266484D01*
X87969365Y-59356989D01*
X87854174Y-59472180D01*
X87781568Y-59580842D01*
X87663904Y-59532104D01*
X87504129Y-59500322D01*
X87341225Y-59500322D01*
X87181450Y-59532104D01*
X87030946Y-59594445D01*
X86895496Y-59684950D01*
X86780305Y-59800141D01*
X86689800Y-59935591D01*
X86627459Y-60086095D01*
X86595677Y-60245870D01*
X86295945Y-60245870D01*
X86317000Y-60140023D01*
X86317000Y-59977119D01*
X86285218Y-59817344D01*
X86222877Y-59666840D01*
X86132372Y-59531390D01*
X86017181Y-59416199D01*
X85881731Y-59325694D01*
X85731227Y-59263353D01*
X85571452Y-59231571D01*
X85408548Y-59231571D01*
X85248773Y-59263353D01*
X85098269Y-59325694D01*
X84962819Y-59416199D01*
X84847628Y-59531390D01*
X84757123Y-59666840D01*
X84694782Y-59817344D01*
X84663000Y-59977119D01*
X84663000Y-60140023D01*
X84667238Y-60161327D01*
X84561443Y-60140283D01*
X84398539Y-60140283D01*
X84238764Y-60172065D01*
X84107359Y-60226495D01*
X84124761Y-60139012D01*
X84124761Y-59976108D01*
X84092979Y-59816333D01*
X84030638Y-59665829D01*
X83940133Y-59530379D01*
X83824942Y-59415188D01*
X83689492Y-59324683D01*
X83538988Y-59262342D01*
X83379213Y-59230560D01*
X83216309Y-59230560D01*
X83056534Y-59262342D01*
X82906030Y-59324683D01*
X82815935Y-59384883D01*
X82729495Y-59327125D01*
X82578991Y-59264784D01*
X82419216Y-59233002D01*
X82256312Y-59233002D01*
X82096537Y-59264784D01*
X81946033Y-59327125D01*
X81810583Y-59417630D01*
X81695392Y-59532821D01*
X81604887Y-59668271D01*
X81542546Y-59818775D01*
X81510764Y-59978550D01*
X81067175Y-59978550D01*
X81067175Y-59967676D01*
X81035393Y-59807901D01*
X80973052Y-59657397D01*
X80882547Y-59521947D01*
X80767356Y-59406756D01*
X80631906Y-59316251D01*
X80481402Y-59253910D01*
X80321627Y-59222128D01*
X80158723Y-59222128D01*
X79998948Y-59253910D01*
X79848444Y-59316251D01*
X79712994Y-59406756D01*
X79597803Y-59521947D01*
X79507298Y-59657397D01*
X79444957Y-59807901D01*
X79413175Y-59967676D01*
X75932132Y-59967676D01*
X75982877Y-59891731D01*
X76045218Y-59741227D01*
X76077000Y-59581452D01*
X76077000Y-59418548D01*
X76045218Y-59258773D01*
X75982877Y-59108269D01*
X75910534Y-59000000D01*
X75982877Y-58891731D01*
X76045218Y-58741227D01*
X76077000Y-58581452D01*
X76077000Y-58418548D01*
X77383000Y-58418548D01*
X77383000Y-58581452D01*
X77414782Y-58741227D01*
X77477123Y-58891731D01*
X77567628Y-59027181D01*
X77682819Y-59142372D01*
X77818269Y-59232877D01*
X77968773Y-59295218D01*
X78128548Y-59327000D01*
X78291452Y-59327000D01*
X78451227Y-59295218D01*
X78601731Y-59232877D01*
X78737181Y-59142372D01*
X78852372Y-59027181D01*
X78942877Y-58891731D01*
X79005218Y-58741227D01*
X79037000Y-58581452D01*
X79037000Y-58418548D01*
X79005218Y-58258773D01*
X78942877Y-58108269D01*
X78852372Y-57972819D01*
X78737181Y-57857628D01*
X78601731Y-57767123D01*
X78451227Y-57704782D01*
X78291452Y-57673000D01*
X78128548Y-57673000D01*
X77968773Y-57704782D01*
X77818269Y-57767123D01*
X77682819Y-57857628D01*
X77567628Y-57972819D01*
X77477123Y-58108269D01*
X77414782Y-58258773D01*
X77383000Y-58418548D01*
X76077000Y-58418548D01*
X76045218Y-58258773D01*
X75982877Y-58108269D01*
X75892372Y-57972819D01*
X75777181Y-57857628D01*
X75641731Y-57767123D01*
X75491227Y-57704782D01*
X75377000Y-57682060D01*
X75377000Y-57302606D01*
X75802606Y-56877000D01*
X83678812Y-56877000D01*
X83670954Y-56916502D01*
X83670954Y-57079406D01*
X83702736Y-57239181D01*
X83765077Y-57389685D01*
X83855582Y-57525135D01*
X83970773Y-57640326D01*
X84106223Y-57730831D01*
X84256727Y-57793172D01*
X84416502Y-57824954D01*
X84579406Y-57824954D01*
X84739181Y-57793172D01*
X84889685Y-57730831D01*
X85025135Y-57640326D01*
X85140326Y-57525135D01*
X85230831Y-57389685D01*
X85293172Y-57239181D01*
X85324954Y-57079406D01*
X85324954Y-56975063D01*
X85424711Y-56933742D01*
X85509631Y-56877000D01*
X88373448Y-56877000D01*
X88357628Y-56892820D01*
X88267123Y-57028270D01*
X88204782Y-57178774D01*
X88173000Y-57338549D01*
X88173000Y-57501453D01*
X88204782Y-57661228D01*
X88267123Y-57811732D01*
X88357628Y-57947182D01*
X88472819Y-58062373D01*
X88608269Y-58152878D01*
X88758773Y-58215219D01*
X88918548Y-58247001D01*
X89081452Y-58247001D01*
X89241227Y-58215219D01*
X89391731Y-58152878D01*
X89527181Y-58062373D01*
X89642372Y-57947182D01*
X89732877Y-57811732D01*
X89795218Y-57661228D01*
X89827000Y-57501453D01*
X89827000Y-57338549D01*
X89795218Y-57178774D01*
X89732877Y-57028270D01*
X89642372Y-56892820D01*
X89626552Y-56877000D01*
X91790674Y-56877000D01*
X91846046Y-56932372D01*
X91981496Y-57022877D01*
X92132000Y-57085218D01*
X92291775Y-57117000D01*
X92454679Y-57117000D01*
X92614454Y-57085218D01*
X92764958Y-57022877D01*
X92900408Y-56932372D01*
X92955780Y-56877000D01*
X106759338Y-56877000D01*
X106795626Y-56964607D01*
X106886131Y-57100057D01*
X107001322Y-57215248D01*
X107136772Y-57305753D01*
X107287276Y-57368094D01*
X107447051Y-57399876D01*
X107609955Y-57399876D01*
X107769730Y-57368094D01*
X107920234Y-57305753D01*
X108055684Y-57215248D01*
X108170875Y-57100057D01*
X108193300Y-57066496D01*
X108173000Y-57168548D01*
X108173000Y-57331452D01*
X108204782Y-57491227D01*
X108267123Y-57641731D01*
X108357628Y-57777181D01*
X108472819Y-57892372D01*
X108608269Y-57982877D01*
X108758773Y-58045218D01*
X108918548Y-58077000D01*
X109081452Y-58077000D01*
X109241227Y-58045218D01*
X109391731Y-57982877D01*
X109527181Y-57892372D01*
X109642372Y-57777181D01*
X109732877Y-57641731D01*
X109795218Y-57491227D01*
X109827000Y-57331452D01*
X109827000Y-57168548D01*
X109795218Y-57008773D01*
X109740636Y-56877000D01*
X112182060Y-56877000D01*
X112204782Y-56991227D01*
X112267123Y-57141731D01*
X112357628Y-57277181D01*
X112472819Y-57392372D01*
X112608269Y-57482877D01*
X112758773Y-57545218D01*
X112918548Y-57577000D01*
X113081452Y-57577000D01*
X113241227Y-57545218D01*
X113375000Y-57489807D01*
X113508773Y-57545218D01*
X113668548Y-57577000D01*
X113831452Y-57577000D01*
X113991227Y-57545218D01*
X114141731Y-57482877D01*
X114277181Y-57392372D01*
X114392372Y-57277181D01*
X114482877Y-57141731D01*
X114545218Y-56991227D01*
X114567940Y-56877000D01*
X116250000Y-56877000D01*
X116274776Y-56874560D01*
X116298601Y-56867333D01*
X116320557Y-56855597D01*
X116339803Y-56839803D01*
X116839803Y-56339803D01*
X116855597Y-56320557D01*
X116867333Y-56298601D01*
X116874560Y-56274776D01*
X116877000Y-56250000D01*
X116877000Y-53668548D01*
X117423000Y-53668548D01*
X117423000Y-53831452D01*
X117454782Y-53991227D01*
X117517123Y-54141731D01*
X117607628Y-54277181D01*
X117722819Y-54392372D01*
X117858269Y-54482877D01*
X118008773Y-54545218D01*
X118168548Y-54577000D01*
X118331452Y-54577000D01*
X118491227Y-54545218D01*
X118641731Y-54482877D01*
X118777181Y-54392372D01*
X118892372Y-54277181D01*
X118982877Y-54141731D01*
X119045218Y-53991227D01*
X119077000Y-53831452D01*
X119077000Y-53668548D01*
X119045218Y-53508773D01*
X118982877Y-53358269D01*
X118892372Y-53222819D01*
X118777181Y-53107628D01*
X118641731Y-53017123D01*
X118491227Y-52954782D01*
X118331452Y-52923000D01*
X118168548Y-52923000D01*
X118008773Y-52954782D01*
X117858269Y-53017123D01*
X117722819Y-53107628D01*
X117607628Y-53222819D01*
X117517123Y-53358269D01*
X117454782Y-53508773D01*
X117423000Y-53668548D01*
X116877000Y-53668548D01*
X116877000Y-48152735D01*
X116918548Y-48161000D01*
X117081452Y-48161000D01*
X117241227Y-48129218D01*
X117391731Y-48066877D01*
X117527181Y-47976372D01*
X117642372Y-47861181D01*
X117732877Y-47725731D01*
X117795218Y-47575227D01*
X117827000Y-47415452D01*
X117827000Y-47252548D01*
X117795218Y-47092773D01*
X117732877Y-46942269D01*
X117642372Y-46806819D01*
X117527181Y-46691628D01*
X117391731Y-46601123D01*
X117241227Y-46538782D01*
X117081452Y-46507000D01*
X116918548Y-46507000D01*
X116877000Y-46515265D01*
X116877000Y-44740636D01*
X117008773Y-44795218D01*
X117168548Y-44827000D01*
X117331452Y-44827000D01*
X117491227Y-44795218D01*
X117641731Y-44732877D01*
X117777181Y-44642372D01*
X117892372Y-44527181D01*
X117982877Y-44391731D01*
X118045218Y-44241227D01*
X118077000Y-44081452D01*
X118077000Y-43918548D01*
X118045218Y-43758773D01*
X117982877Y-43608269D01*
X117892372Y-43472819D01*
X117777181Y-43357628D01*
X117641731Y-43267123D01*
X117491227Y-43204782D01*
X117331452Y-43173000D01*
X117168548Y-43173000D01*
X117008773Y-43204782D01*
X116877000Y-43259364D01*
X116877000Y-33145947D01*
X118900399Y-33145947D01*
X118900399Y-33308851D01*
X118932181Y-33468626D01*
X118994522Y-33619130D01*
X119085027Y-33754580D01*
X119200218Y-33869771D01*
X119335668Y-33960276D01*
X119486172Y-34022617D01*
X119645947Y-34054399D01*
X119808851Y-34054399D01*
X119968626Y-34022617D01*
X120119130Y-33960276D01*
X120254580Y-33869771D01*
X120369771Y-33754580D01*
X120460276Y-33619130D01*
X120522617Y-33468626D01*
X120554399Y-33308851D01*
X120554399Y-33145947D01*
X120522617Y-32986172D01*
X120460276Y-32835668D01*
X120369771Y-32700218D01*
X120254580Y-32585027D01*
X120119130Y-32494522D01*
X119968626Y-32432181D01*
X119808851Y-32400399D01*
X119645947Y-32400399D01*
X119486172Y-32432181D01*
X119335668Y-32494522D01*
X119200218Y-32585027D01*
X119085027Y-32700218D01*
X118994522Y-32835668D01*
X118932181Y-32986172D01*
X118900399Y-33145947D01*
X116877000Y-33145947D01*
X116877000Y-29918548D01*
X119173000Y-29918548D01*
X119173000Y-30081452D01*
X119204782Y-30241227D01*
X119267123Y-30391731D01*
X119357628Y-30527181D01*
X119472819Y-30642372D01*
X119608269Y-30732877D01*
X119758773Y-30795218D01*
X119918548Y-30827000D01*
X120081452Y-30827000D01*
X120241227Y-30795218D01*
X120391731Y-30732877D01*
X120527181Y-30642372D01*
X120642372Y-30527181D01*
X120732877Y-30391731D01*
X120795218Y-30241227D01*
X120827000Y-30081452D01*
X120827000Y-29918548D01*
X120795218Y-29758773D01*
X120732877Y-29608269D01*
X120642372Y-29472819D01*
X120527181Y-29357628D01*
X120391731Y-29267123D01*
X120241227Y-29204782D01*
X120081452Y-29173000D01*
X119918548Y-29173000D01*
X119758773Y-29204782D01*
X119608269Y-29267123D01*
X119472819Y-29357628D01*
X119357628Y-29472819D01*
X119267123Y-29608269D01*
X119204782Y-29758773D01*
X119173000Y-29918548D01*
X116877000Y-29918548D01*
X116877000Y-27052606D01*
X117302606Y-26627000D01*
X124447394Y-26627000D01*
X124548000Y-26727606D01*
G37*
%TD.AperFunction*%
D18*
X63173000Y-37668548D02*
X63173000Y-37831452D01*
X63204782Y-37991227D01*
X63267123Y-38141731D01*
X63345737Y-38259385D01*
X63233227Y-38212782D01*
X63073452Y-38181000D01*
X62910548Y-38181000D01*
X62750773Y-38212782D01*
X62600269Y-38275123D01*
X62464819Y-38365628D01*
X62349628Y-38480819D01*
X62259123Y-38616269D01*
X62196782Y-38766773D01*
X62165000Y-38926548D01*
X62165000Y-39089452D01*
X62196782Y-39249227D01*
X62259123Y-39399731D01*
X62349628Y-39535181D01*
X62464819Y-39650372D01*
X62600269Y-39740877D01*
X62750773Y-39803218D01*
X62910548Y-39835000D01*
X63073452Y-39835000D01*
X63233227Y-39803218D01*
X63383731Y-39740877D01*
X63519181Y-39650372D01*
X63634372Y-39535181D01*
X63724877Y-39399731D01*
X63787218Y-39249227D01*
X63819000Y-39089452D01*
X63819000Y-38926548D01*
X63787218Y-38766773D01*
X63724877Y-38616269D01*
X63646263Y-38498615D01*
X63758773Y-38545218D01*
X63918548Y-38577000D01*
X64081452Y-38577000D01*
X64241227Y-38545218D01*
X64391731Y-38482877D01*
X64527181Y-38392372D01*
X64642372Y-38277181D01*
X64732877Y-38141731D01*
X64795218Y-37991227D01*
X64827000Y-37831452D01*
X64827000Y-37668548D01*
X64818735Y-37627000D01*
X67209460Y-37627000D01*
X67212269Y-37628877D01*
X67362773Y-37691218D01*
X67473630Y-37713269D01*
X67454782Y-37758773D01*
X67423000Y-37918548D01*
X67423000Y-38081452D01*
X67454782Y-38241227D01*
X67517123Y-38391731D01*
X67607628Y-38527181D01*
X67722819Y-38642372D01*
X67858269Y-38732877D01*
X68008773Y-38795218D01*
X68027356Y-38798915D01*
X68012819Y-38808628D01*
X67897628Y-38923819D01*
X67807123Y-39059269D01*
X67744782Y-39209773D01*
X67713000Y-39369548D01*
X67713000Y-39532452D01*
X67744782Y-39692227D01*
X67807123Y-39842731D01*
X67897628Y-39978181D01*
X68012819Y-40093372D01*
X68148269Y-40183877D01*
X68298773Y-40246218D01*
X68458548Y-40278000D01*
X68621452Y-40278000D01*
X68781227Y-40246218D01*
X68931731Y-40183877D01*
X69067181Y-40093372D01*
X69182372Y-39978181D01*
X69272877Y-39842731D01*
X69335218Y-39692227D01*
X69367000Y-39532452D01*
X69367000Y-39369548D01*
X69335218Y-39209773D01*
X69272877Y-39059269D01*
X69182372Y-38923819D01*
X69067181Y-38808628D01*
X68931731Y-38718123D01*
X68781227Y-38655782D01*
X68762644Y-38652085D01*
X68777181Y-38642372D01*
X68892372Y-38527181D01*
X68982877Y-38391731D01*
X69045218Y-38241227D01*
X69077000Y-38081452D01*
X69077000Y-37918548D01*
X69045218Y-37758773D01*
X68990636Y-37627000D01*
X71682060Y-37627000D01*
X71704782Y-37741227D01*
X71767123Y-37891731D01*
X71857628Y-38027181D01*
X71972819Y-38142372D01*
X72053043Y-38195976D01*
X72008773Y-38204782D01*
X71858269Y-38267123D01*
X71722819Y-38357628D01*
X71607628Y-38472819D01*
X71517123Y-38608269D01*
X71454782Y-38758773D01*
X71423000Y-38918548D01*
X71423000Y-39081452D01*
X71454782Y-39241227D01*
X71517123Y-39391731D01*
X71556716Y-39450986D01*
X71554005Y-39450447D01*
X71391101Y-39450447D01*
X71231326Y-39482229D01*
X71080822Y-39544570D01*
X70945372Y-39635075D01*
X70830181Y-39750266D01*
X70739676Y-39885716D01*
X70677335Y-40036220D01*
X70645553Y-40195995D01*
X70645553Y-40358899D01*
X70677335Y-40518674D01*
X70739676Y-40669178D01*
X70830181Y-40804628D01*
X70945372Y-40919819D01*
X71080822Y-41010324D01*
X71231326Y-41072665D01*
X71391101Y-41104447D01*
X71554005Y-41104447D01*
X71713780Y-41072665D01*
X71864284Y-41010324D01*
X71999734Y-40919819D01*
X72114925Y-40804628D01*
X72205430Y-40669178D01*
X72267771Y-40518674D01*
X72299553Y-40358899D01*
X72299553Y-40195995D01*
X72267771Y-40036220D01*
X72205430Y-39885716D01*
X72165837Y-39826461D01*
X72168548Y-39827000D01*
X72331452Y-39827000D01*
X72491227Y-39795218D01*
X72641731Y-39732877D01*
X72777181Y-39642372D01*
X72892372Y-39527181D01*
X72982877Y-39391731D01*
X73045218Y-39241227D01*
X73077000Y-39081452D01*
X73077000Y-38918548D01*
X73045218Y-38758773D01*
X72982877Y-38608269D01*
X72892372Y-38472819D01*
X72777181Y-38357628D01*
X72696957Y-38304024D01*
X72741227Y-38295218D01*
X72891731Y-38232877D01*
X73027181Y-38142372D01*
X73142372Y-38027181D01*
X73232877Y-37891731D01*
X73295218Y-37741227D01*
X73317940Y-37627000D01*
X73447394Y-37627000D01*
X73873000Y-38052606D01*
X73873000Y-41011021D01*
X73858269Y-41017123D01*
X73722819Y-41107628D01*
X73607628Y-41222819D01*
X73517123Y-41358269D01*
X73454782Y-41508773D01*
X73423000Y-41668548D01*
X73423000Y-41831452D01*
X73454782Y-41991227D01*
X73517123Y-42141731D01*
X73607628Y-42277181D01*
X73722819Y-42392372D01*
X73858269Y-42482877D01*
X73873000Y-42488979D01*
X73873000Y-43261021D01*
X73858269Y-43267123D01*
X73722819Y-43357628D01*
X73607628Y-43472819D01*
X73517123Y-43608269D01*
X73454782Y-43758773D01*
X73423000Y-43918548D01*
X73423000Y-44081452D01*
X73454782Y-44241227D01*
X73517123Y-44391731D01*
X73607628Y-44527181D01*
X73722819Y-44642372D01*
X73858269Y-44732877D01*
X73873000Y-44738979D01*
X73873000Y-45707447D01*
X73857628Y-45722819D01*
X73767123Y-45858269D01*
X73704782Y-46008773D01*
X73673000Y-46168548D01*
X73673000Y-46331452D01*
X73704782Y-46491227D01*
X73767123Y-46641731D01*
X73857628Y-46777181D01*
X73873000Y-46792553D01*
X73873000Y-47957447D01*
X73857628Y-47972819D01*
X73767123Y-48108269D01*
X73704782Y-48258773D01*
X73673000Y-48418548D01*
X73673000Y-48581452D01*
X73704782Y-48741227D01*
X73767123Y-48891731D01*
X73857628Y-49027181D01*
X73873000Y-49042553D01*
X73873000Y-52769223D01*
X73740693Y-52857628D01*
X73625502Y-52972819D01*
X73534997Y-53108269D01*
X73472656Y-53258773D01*
X73440874Y-53418548D01*
X73440874Y-53581452D01*
X73472656Y-53741227D01*
X73534997Y-53891731D01*
X73625502Y-54027181D01*
X73740693Y-54142372D01*
X73873000Y-54230777D01*
X73873000Y-57759364D01*
X73741227Y-57704782D01*
X73581452Y-57673000D01*
X73536553Y-57673000D01*
X73642372Y-57567181D01*
X73732877Y-57431731D01*
X73795218Y-57281227D01*
X73827000Y-57121452D01*
X73827000Y-56958548D01*
X73795218Y-56798773D01*
X73732877Y-56648269D01*
X73642372Y-56512819D01*
X73527181Y-56397628D01*
X73391731Y-56307123D01*
X73241227Y-56244782D01*
X73081452Y-56213000D01*
X72918548Y-56213000D01*
X72758773Y-56244782D01*
X72608269Y-56307123D01*
X72472819Y-56397628D01*
X72357628Y-56512819D01*
X72267123Y-56648269D01*
X72204782Y-56798773D01*
X72173000Y-56958548D01*
X72173000Y-57121452D01*
X72204782Y-57281227D01*
X72267123Y-57431731D01*
X72357628Y-57567181D01*
X72472819Y-57682372D01*
X72608269Y-57772877D01*
X72758773Y-57835218D01*
X72918548Y-57867000D01*
X72963447Y-57867000D01*
X72857628Y-57972819D01*
X72767123Y-58108269D01*
X72704782Y-58258773D01*
X72673000Y-58418548D01*
X72673000Y-58581452D01*
X72704782Y-58741227D01*
X72767123Y-58891731D01*
X72857628Y-59027181D01*
X72972819Y-59142372D01*
X73108269Y-59232877D01*
X73258773Y-59295218D01*
X73418548Y-59327000D01*
X73581452Y-59327000D01*
X73741227Y-59295218D01*
X73799182Y-59271212D01*
X73447394Y-59623000D01*
X72318735Y-59623000D01*
X72327000Y-59581452D01*
X72327000Y-59418548D01*
X72295218Y-59258773D01*
X72232877Y-59108269D01*
X72142372Y-58972819D01*
X72027181Y-58857628D01*
X71891731Y-58767123D01*
X71741227Y-58704782D01*
X71581452Y-58673000D01*
X71418548Y-58673000D01*
X71258773Y-58704782D01*
X71108269Y-58767123D01*
X70972819Y-58857628D01*
X70857628Y-58972819D01*
X70767123Y-59108269D01*
X70704782Y-59258773D01*
X70673000Y-59418548D01*
X70673000Y-59581452D01*
X70681265Y-59623000D01*
X66042553Y-59623000D01*
X66027181Y-59607628D01*
X65891731Y-59517123D01*
X65741227Y-59454782D01*
X65581452Y-59423000D01*
X65418548Y-59423000D01*
X65258773Y-59454782D01*
X65108269Y-59517123D01*
X64972819Y-59607628D01*
X64957447Y-59623000D01*
X63292553Y-59623000D01*
X63277181Y-59607628D01*
X63141731Y-59517123D01*
X62991227Y-59454782D01*
X62831452Y-59423000D01*
X62668548Y-59423000D01*
X62508773Y-59454782D01*
X62358269Y-59517123D01*
X62222819Y-59607628D01*
X62207447Y-59623000D01*
X56302606Y-59623000D01*
X55877000Y-59197394D01*
X55877000Y-56542553D01*
X55892372Y-56527181D01*
X55964958Y-56418548D01*
X65923000Y-56418548D01*
X65923000Y-56581452D01*
X65954782Y-56741227D01*
X66017123Y-56891731D01*
X66107628Y-57027181D01*
X66222819Y-57142372D01*
X66358269Y-57232877D01*
X66508773Y-57295218D01*
X66668548Y-57327000D01*
X66831452Y-57327000D01*
X66945732Y-57304268D01*
X66923000Y-57418548D01*
X66923000Y-57581452D01*
X66952194Y-57728218D01*
X66858269Y-57767123D01*
X66722819Y-57857628D01*
X66607628Y-57972819D01*
X66517123Y-58108269D01*
X66454782Y-58258773D01*
X66423000Y-58418548D01*
X66423000Y-58581452D01*
X66454782Y-58741227D01*
X66517123Y-58891731D01*
X66607628Y-59027181D01*
X66722819Y-59142372D01*
X66858269Y-59232877D01*
X67008773Y-59295218D01*
X67168548Y-59327000D01*
X67331452Y-59327000D01*
X67491227Y-59295218D01*
X67641731Y-59232877D01*
X67777181Y-59142372D01*
X67892372Y-59027181D01*
X67982877Y-58891731D01*
X68045218Y-58741227D01*
X68077000Y-58581452D01*
X68077000Y-58418548D01*
X68047806Y-58271782D01*
X68141731Y-58232877D01*
X68277181Y-58142372D01*
X68392372Y-58027181D01*
X68482877Y-57891731D01*
X68545218Y-57741227D01*
X68577000Y-57581452D01*
X68577000Y-57418548D01*
X68558017Y-57323115D01*
X68577547Y-57327000D01*
X68740451Y-57327000D01*
X68900226Y-57295218D01*
X69050730Y-57232877D01*
X69186180Y-57142372D01*
X69301371Y-57027181D01*
X69391876Y-56891731D01*
X69454217Y-56741227D01*
X69485999Y-56581452D01*
X69485999Y-56418548D01*
X69454217Y-56258773D01*
X69391876Y-56108269D01*
X69301371Y-55972819D01*
X69186180Y-55857628D01*
X69050730Y-55767123D01*
X68900226Y-55704782D01*
X68740451Y-55673000D01*
X68687121Y-55673000D01*
X68739218Y-55547227D01*
X68771000Y-55387452D01*
X68771000Y-55224548D01*
X68739218Y-55064773D01*
X68676877Y-54914269D01*
X68586372Y-54778819D01*
X68471181Y-54663628D01*
X68335731Y-54573123D01*
X68185227Y-54510782D01*
X68025452Y-54479000D01*
X67862548Y-54479000D01*
X67702773Y-54510782D01*
X67552269Y-54573123D01*
X67416819Y-54663628D01*
X67301628Y-54778819D01*
X67211123Y-54914269D01*
X67148782Y-55064773D01*
X67117000Y-55224548D01*
X67117000Y-55387452D01*
X67148782Y-55547227D01*
X67211123Y-55697731D01*
X67301628Y-55833181D01*
X67416819Y-55948372D01*
X67552269Y-56038877D01*
X67702773Y-56101218D01*
X67862548Y-56133000D01*
X67915878Y-56133000D01*
X67863781Y-56258773D01*
X67831999Y-56418548D01*
X67831999Y-56581452D01*
X67850982Y-56676885D01*
X67831452Y-56673000D01*
X67668548Y-56673000D01*
X67554268Y-56695732D01*
X67577000Y-56581452D01*
X67577000Y-56418548D01*
X67545218Y-56258773D01*
X67482877Y-56108269D01*
X67392372Y-55972819D01*
X67277181Y-55857628D01*
X67141731Y-55767123D01*
X66991227Y-55704782D01*
X66831452Y-55673000D01*
X66668548Y-55673000D01*
X66508773Y-55704782D01*
X66358269Y-55767123D01*
X66222819Y-55857628D01*
X66107628Y-55972819D01*
X66017123Y-56108269D01*
X65954782Y-56258773D01*
X65923000Y-56418548D01*
X55964958Y-56418548D01*
X55982877Y-56391731D01*
X56045218Y-56241227D01*
X56077000Y-56081452D01*
X56077000Y-55918548D01*
X56045218Y-55758773D01*
X55982877Y-55608269D01*
X55910534Y-55500000D01*
X55982877Y-55391731D01*
X56045218Y-55241227D01*
X56077000Y-55081452D01*
X56077000Y-54918548D01*
X56045218Y-54758773D01*
X55982877Y-54608269D01*
X55892372Y-54472819D01*
X55877000Y-54457447D01*
X55877000Y-51503211D01*
X63540281Y-51503211D01*
X63540281Y-51666115D01*
X63572063Y-51825890D01*
X63634404Y-51976394D01*
X63724909Y-52111844D01*
X63840100Y-52227035D01*
X63975550Y-52317540D01*
X64126054Y-52379881D01*
X64285829Y-52411663D01*
X64448733Y-52411663D01*
X64608508Y-52379881D01*
X64759012Y-52317540D01*
X64894462Y-52227035D01*
X65009653Y-52111844D01*
X65100158Y-51976394D01*
X65162499Y-51825890D01*
X65194281Y-51666115D01*
X65194281Y-51503211D01*
X65162499Y-51343436D01*
X65124438Y-51251548D01*
X67118000Y-51251548D01*
X67118000Y-51414452D01*
X67149782Y-51574227D01*
X67212123Y-51724731D01*
X67302628Y-51860181D01*
X67417819Y-51975372D01*
X67553269Y-52065877D01*
X67703773Y-52128218D01*
X67863548Y-52160000D01*
X68026452Y-52160000D01*
X68186227Y-52128218D01*
X68336731Y-52065877D01*
X68472181Y-51975372D01*
X68587372Y-51860181D01*
X68677877Y-51724731D01*
X68740218Y-51574227D01*
X68772000Y-51414452D01*
X68772000Y-51251548D01*
X68740218Y-51091773D01*
X68677877Y-50941269D01*
X68587372Y-50805819D01*
X68472181Y-50690628D01*
X68336731Y-50600123D01*
X68186227Y-50537782D01*
X68026452Y-50506000D01*
X67863548Y-50506000D01*
X67703773Y-50537782D01*
X67553269Y-50600123D01*
X67417819Y-50690628D01*
X67302628Y-50805819D01*
X67212123Y-50941269D01*
X67149782Y-51091773D01*
X67118000Y-51251548D01*
X65124438Y-51251548D01*
X65100158Y-51192932D01*
X65009653Y-51057482D01*
X64894462Y-50942291D01*
X64759012Y-50851786D01*
X64608508Y-50789445D01*
X64448733Y-50757663D01*
X64285829Y-50757663D01*
X64126054Y-50789445D01*
X63975550Y-50851786D01*
X63840100Y-50942291D01*
X63724909Y-51057482D01*
X63634404Y-51192932D01*
X63572063Y-51343436D01*
X63540281Y-51503211D01*
X55877000Y-51503211D01*
X55877000Y-47513293D01*
X55965181Y-47454372D01*
X56080372Y-47339181D01*
X56170877Y-47203731D01*
X56233218Y-47053227D01*
X56241229Y-47012951D01*
X57669777Y-47012951D01*
X57669777Y-47175855D01*
X57701559Y-47335630D01*
X57763900Y-47486134D01*
X57854405Y-47621584D01*
X57969596Y-47736775D01*
X58105046Y-47827280D01*
X58255550Y-47889621D01*
X58415325Y-47921403D01*
X58553942Y-47921403D01*
X58581828Y-47988725D01*
X58672333Y-48124175D01*
X58787524Y-48239366D01*
X58922974Y-48329871D01*
X59073478Y-48392212D01*
X59233253Y-48423994D01*
X59396157Y-48423994D01*
X59555932Y-48392212D01*
X59681449Y-48340221D01*
X59656782Y-48399773D01*
X59625000Y-48559548D01*
X59625000Y-48722452D01*
X59656782Y-48882227D01*
X59719123Y-49032731D01*
X59809628Y-49168181D01*
X59924819Y-49283372D01*
X60060269Y-49373877D01*
X60210773Y-49436218D01*
X60370548Y-49468000D01*
X60533452Y-49468000D01*
X60624922Y-49449805D01*
X67624743Y-49449805D01*
X67624743Y-49612709D01*
X67656525Y-49772484D01*
X67718866Y-49922988D01*
X67809371Y-50058438D01*
X67924562Y-50173629D01*
X68060012Y-50264134D01*
X68210516Y-50326475D01*
X68370291Y-50358257D01*
X68533195Y-50358257D01*
X68692970Y-50326475D01*
X68843474Y-50264134D01*
X68978924Y-50173629D01*
X69094115Y-50058438D01*
X69184620Y-49922988D01*
X69246961Y-49772484D01*
X69278743Y-49612709D01*
X69278743Y-49449805D01*
X69246961Y-49290030D01*
X69207411Y-49194548D01*
X69912000Y-49194548D01*
X69912000Y-49357452D01*
X69943782Y-49517227D01*
X70006123Y-49667731D01*
X70096628Y-49803181D01*
X70211819Y-49918372D01*
X70347269Y-50008877D01*
X70497773Y-50071218D01*
X70657548Y-50103000D01*
X70820452Y-50103000D01*
X70980227Y-50071218D01*
X71130731Y-50008877D01*
X71266181Y-49918372D01*
X71381372Y-49803181D01*
X71471877Y-49667731D01*
X71534218Y-49517227D01*
X71566000Y-49357452D01*
X71566000Y-49194548D01*
X71534218Y-49034773D01*
X71471877Y-48884269D01*
X71381372Y-48748819D01*
X71266181Y-48633628D01*
X71130731Y-48543123D01*
X70980227Y-48480782D01*
X70820452Y-48449000D01*
X70657548Y-48449000D01*
X70497773Y-48480782D01*
X70347269Y-48543123D01*
X70211819Y-48633628D01*
X70096628Y-48748819D01*
X70006123Y-48884269D01*
X69943782Y-49034773D01*
X69912000Y-49194548D01*
X69207411Y-49194548D01*
X69184620Y-49139526D01*
X69094115Y-49004076D01*
X68978924Y-48888885D01*
X68843474Y-48798380D01*
X68692970Y-48736039D01*
X68533195Y-48704257D01*
X68370291Y-48704257D01*
X68210516Y-48736039D01*
X68060012Y-48798380D01*
X67924562Y-48888885D01*
X67809371Y-49004076D01*
X67718866Y-49139526D01*
X67656525Y-49290030D01*
X67624743Y-49449805D01*
X60624922Y-49449805D01*
X60693227Y-49436218D01*
X60843731Y-49373877D01*
X60979181Y-49283372D01*
X61094372Y-49168181D01*
X61184877Y-49032731D01*
X61247218Y-48882227D01*
X61279000Y-48722452D01*
X61279000Y-48559548D01*
X61247218Y-48399773D01*
X61184877Y-48249269D01*
X61094372Y-48113819D01*
X60979181Y-47998628D01*
X60843731Y-47908123D01*
X60693227Y-47845782D01*
X60533452Y-47814000D01*
X60370548Y-47814000D01*
X60210773Y-47845782D01*
X60085256Y-47897773D01*
X60109923Y-47838221D01*
X60141705Y-47678446D01*
X60141705Y-47515542D01*
X60109923Y-47355767D01*
X60047582Y-47205263D01*
X59957077Y-47069813D01*
X59841886Y-46954622D01*
X59706436Y-46864117D01*
X59555932Y-46801776D01*
X59396157Y-46769994D01*
X59257540Y-46769994D01*
X59229654Y-46702672D01*
X59205312Y-46666241D01*
X59243372Y-46628181D01*
X59333877Y-46492731D01*
X59396218Y-46342227D01*
X59428000Y-46182452D01*
X59428000Y-46019548D01*
X59396218Y-45859773D01*
X59333877Y-45709269D01*
X59243372Y-45573819D01*
X59128181Y-45458628D01*
X58992731Y-45368123D01*
X58842227Y-45305782D01*
X58682452Y-45274000D01*
X58519548Y-45274000D01*
X58359773Y-45305782D01*
X58209269Y-45368123D01*
X58073819Y-45458628D01*
X57958628Y-45573819D01*
X57868123Y-45709269D01*
X57805782Y-45859773D01*
X57774000Y-46019548D01*
X57774000Y-46182452D01*
X57805782Y-46342227D01*
X57868123Y-46492731D01*
X57892465Y-46529162D01*
X57854405Y-46567222D01*
X57763900Y-46702672D01*
X57701559Y-46853176D01*
X57669777Y-47012951D01*
X56241229Y-47012951D01*
X56265000Y-46893452D01*
X56265000Y-46730548D01*
X56233218Y-46570773D01*
X56170877Y-46420269D01*
X56080372Y-46284819D01*
X55965181Y-46169628D01*
X55877000Y-46110707D01*
X55877000Y-45255577D01*
X59449746Y-45255577D01*
X59449746Y-45418481D01*
X59481528Y-45578256D01*
X59543869Y-45728760D01*
X59634374Y-45864210D01*
X59749565Y-45979401D01*
X59885015Y-46069906D01*
X60035519Y-46132247D01*
X60195294Y-46164029D01*
X60358198Y-46164029D01*
X60517973Y-46132247D01*
X60668477Y-46069906D01*
X60803927Y-45979401D01*
X60919118Y-45864210D01*
X61009623Y-45728760D01*
X61071964Y-45578256D01*
X61103746Y-45418481D01*
X61103746Y-45255577D01*
X61071964Y-45095802D01*
X61009623Y-44945298D01*
X60919118Y-44809848D01*
X60803927Y-44694657D01*
X60668477Y-44604152D01*
X60624961Y-44586127D01*
X62768200Y-44586127D01*
X62768200Y-44720273D01*
X62794371Y-44851840D01*
X62845706Y-44975774D01*
X62893231Y-45046900D01*
X62845706Y-45118026D01*
X62794371Y-45241960D01*
X62768200Y-45373527D01*
X62768200Y-45507673D01*
X62794371Y-45639240D01*
X62845706Y-45763174D01*
X62893231Y-45834300D01*
X62845706Y-45905426D01*
X62794371Y-46029360D01*
X62768200Y-46160927D01*
X62768200Y-46295073D01*
X62794371Y-46426640D01*
X62845706Y-46550574D01*
X62893231Y-46621700D01*
X62845706Y-46692826D01*
X62794371Y-46816760D01*
X62768200Y-46948327D01*
X62768200Y-47082473D01*
X62794371Y-47214040D01*
X62845706Y-47337974D01*
X62893231Y-47409100D01*
X62845706Y-47480226D01*
X62794371Y-47604160D01*
X62768200Y-47735727D01*
X62768200Y-47869873D01*
X62794371Y-48001440D01*
X62845706Y-48125374D01*
X62920233Y-48236912D01*
X63015088Y-48331767D01*
X63126626Y-48406294D01*
X63250560Y-48457629D01*
X63382127Y-48483800D01*
X63516273Y-48483800D01*
X63647840Y-48457629D01*
X63771774Y-48406294D01*
X63842900Y-48358769D01*
X63914026Y-48406294D01*
X64037960Y-48457629D01*
X64169527Y-48483800D01*
X64303673Y-48483800D01*
X64435240Y-48457629D01*
X64559174Y-48406294D01*
X64630300Y-48358769D01*
X64701426Y-48406294D01*
X64825360Y-48457629D01*
X64956927Y-48483800D01*
X65091073Y-48483800D01*
X65222640Y-48457629D01*
X65346574Y-48406294D01*
X65417700Y-48358769D01*
X65488826Y-48406294D01*
X65612760Y-48457629D01*
X65744327Y-48483800D01*
X65878473Y-48483800D01*
X66010040Y-48457629D01*
X66133974Y-48406294D01*
X66205100Y-48358769D01*
X66276226Y-48406294D01*
X66400160Y-48457629D01*
X66531727Y-48483800D01*
X66665873Y-48483800D01*
X66797440Y-48457629D01*
X66921374Y-48406294D01*
X67032912Y-48331767D01*
X67127767Y-48236912D01*
X67202294Y-48125374D01*
X67253629Y-48001440D01*
X67279800Y-47869873D01*
X67279800Y-47735727D01*
X67253629Y-47604160D01*
X67202294Y-47480226D01*
X67154769Y-47409100D01*
X67202294Y-47337974D01*
X67253629Y-47214040D01*
X67279800Y-47082473D01*
X67279800Y-46948327D01*
X67253629Y-46816760D01*
X67202294Y-46692826D01*
X67154769Y-46621700D01*
X67202294Y-46550574D01*
X67253629Y-46426640D01*
X67279800Y-46295073D01*
X67279800Y-46160927D01*
X67253629Y-46029360D01*
X67216842Y-45940548D01*
X70166000Y-45940548D01*
X70166000Y-46103452D01*
X70197782Y-46263227D01*
X70260123Y-46413731D01*
X70350628Y-46549181D01*
X70465819Y-46664372D01*
X70601269Y-46754877D01*
X70613637Y-46760000D01*
X70601269Y-46765123D01*
X70465819Y-46855628D01*
X70350628Y-46970819D01*
X70260123Y-47106269D01*
X70197782Y-47256773D01*
X70166000Y-47416548D01*
X70166000Y-47579452D01*
X70197782Y-47739227D01*
X70260123Y-47889731D01*
X70350628Y-48025181D01*
X70465819Y-48140372D01*
X70601269Y-48230877D01*
X70751773Y-48293218D01*
X70911548Y-48325000D01*
X71074452Y-48325000D01*
X71234227Y-48293218D01*
X71384731Y-48230877D01*
X71520181Y-48140372D01*
X71635372Y-48025181D01*
X71725877Y-47889731D01*
X71788218Y-47739227D01*
X71820000Y-47579452D01*
X71820000Y-47492580D01*
X71939172Y-47468875D01*
X72089676Y-47406534D01*
X72225126Y-47316029D01*
X72340317Y-47200838D01*
X72430822Y-47065388D01*
X72493163Y-46914884D01*
X72524945Y-46755109D01*
X72524945Y-46592205D01*
X72493163Y-46432430D01*
X72430822Y-46281926D01*
X72340317Y-46146476D01*
X72225126Y-46031285D01*
X72089676Y-45940780D01*
X71939172Y-45878439D01*
X71802227Y-45851198D01*
X71788218Y-45780773D01*
X71725877Y-45630269D01*
X71635372Y-45494819D01*
X71520181Y-45379628D01*
X71384731Y-45289123D01*
X71234227Y-45226782D01*
X71074452Y-45195000D01*
X70911548Y-45195000D01*
X70751773Y-45226782D01*
X70601269Y-45289123D01*
X70465819Y-45379628D01*
X70350628Y-45494819D01*
X70260123Y-45630269D01*
X70197782Y-45780773D01*
X70166000Y-45940548D01*
X67216842Y-45940548D01*
X67202294Y-45905426D01*
X67154769Y-45834300D01*
X67202294Y-45763174D01*
X67253629Y-45639240D01*
X67279800Y-45507673D01*
X67279800Y-45373527D01*
X67253629Y-45241960D01*
X67202294Y-45118026D01*
X67154769Y-45046900D01*
X67202294Y-44975774D01*
X67253629Y-44851840D01*
X67279800Y-44720273D01*
X67279800Y-44586127D01*
X67253629Y-44454560D01*
X67202294Y-44330626D01*
X67195561Y-44320548D01*
X70547000Y-44320548D01*
X70547000Y-44483452D01*
X70578782Y-44643227D01*
X70641123Y-44793731D01*
X70731628Y-44929181D01*
X70846819Y-45044372D01*
X70982269Y-45134877D01*
X71132773Y-45197218D01*
X71292548Y-45229000D01*
X71455452Y-45229000D01*
X71615227Y-45197218D01*
X71765731Y-45134877D01*
X71901181Y-45044372D01*
X72016372Y-44929181D01*
X72106877Y-44793731D01*
X72169218Y-44643227D01*
X72201000Y-44483452D01*
X72201000Y-44320548D01*
X72169218Y-44160773D01*
X72106877Y-44010269D01*
X72016372Y-43874819D01*
X71901181Y-43759628D01*
X71765731Y-43669123D01*
X71615227Y-43606782D01*
X71455452Y-43575000D01*
X71292548Y-43575000D01*
X71132773Y-43606782D01*
X70982269Y-43669123D01*
X70846819Y-43759628D01*
X70731628Y-43874819D01*
X70641123Y-44010269D01*
X70578782Y-44160773D01*
X70547000Y-44320548D01*
X67195561Y-44320548D01*
X67127767Y-44219088D01*
X67032912Y-44124233D01*
X66921374Y-44049706D01*
X66797440Y-43998371D01*
X66665873Y-43972200D01*
X66531727Y-43972200D01*
X66400160Y-43998371D01*
X66276226Y-44049706D01*
X66205100Y-44097231D01*
X66133974Y-44049706D01*
X66010040Y-43998371D01*
X65878473Y-43972200D01*
X65744327Y-43972200D01*
X65612760Y-43998371D01*
X65488826Y-44049706D01*
X65417700Y-44097231D01*
X65346574Y-44049706D01*
X65222640Y-43998371D01*
X65091073Y-43972200D01*
X64956927Y-43972200D01*
X64825360Y-43998371D01*
X64701426Y-44049706D01*
X64630300Y-44097231D01*
X64559174Y-44049706D01*
X64435240Y-43998371D01*
X64303673Y-43972200D01*
X64169527Y-43972200D01*
X64037960Y-43998371D01*
X63914026Y-44049706D01*
X63842900Y-44097231D01*
X63771774Y-44049706D01*
X63647840Y-43998371D01*
X63516273Y-43972200D01*
X63382127Y-43972200D01*
X63250560Y-43998371D01*
X63126626Y-44049706D01*
X63015088Y-44124233D01*
X62920233Y-44219088D01*
X62845706Y-44330626D01*
X62794371Y-44454560D01*
X62768200Y-44586127D01*
X60624961Y-44586127D01*
X60517973Y-44541811D01*
X60358198Y-44510029D01*
X60195294Y-44510029D01*
X60035519Y-44541811D01*
X59885015Y-44604152D01*
X59749565Y-44694657D01*
X59634374Y-44809848D01*
X59543869Y-44945298D01*
X59481528Y-45095802D01*
X59449746Y-45255577D01*
X55877000Y-45255577D01*
X55877000Y-43478291D01*
X59499257Y-43478291D01*
X59499257Y-43641195D01*
X59531039Y-43800970D01*
X59593380Y-43951474D01*
X59683885Y-44086924D01*
X59799076Y-44202115D01*
X59934526Y-44292620D01*
X60085030Y-44354961D01*
X60244805Y-44386743D01*
X60407709Y-44386743D01*
X60567484Y-44354961D01*
X60717988Y-44292620D01*
X60853438Y-44202115D01*
X60968629Y-44086924D01*
X61059134Y-43951474D01*
X61121475Y-43800970D01*
X61153257Y-43641195D01*
X61153257Y-43478291D01*
X61121475Y-43318516D01*
X61059134Y-43168012D01*
X60968629Y-43032562D01*
X60853438Y-42917371D01*
X60717988Y-42826866D01*
X60567484Y-42764525D01*
X60407709Y-42732743D01*
X60244805Y-42732743D01*
X60085030Y-42764525D01*
X59934526Y-42826866D01*
X59799076Y-42917371D01*
X59683885Y-43032562D01*
X59593380Y-43168012D01*
X59531039Y-43318516D01*
X59499257Y-43478291D01*
X55877000Y-43478291D01*
X55877000Y-42082548D01*
X67245000Y-42082548D01*
X67245000Y-42245452D01*
X67276782Y-42405227D01*
X67339123Y-42555731D01*
X67429628Y-42691181D01*
X67544819Y-42806372D01*
X67680269Y-42896877D01*
X67830773Y-42959218D01*
X67990548Y-42991000D01*
X68153452Y-42991000D01*
X68313227Y-42959218D01*
X68463731Y-42896877D01*
X68599181Y-42806372D01*
X68714372Y-42691181D01*
X68804877Y-42555731D01*
X68867218Y-42405227D01*
X68899000Y-42245452D01*
X68899000Y-42082548D01*
X68867218Y-41922773D01*
X68804877Y-41772269D01*
X68714372Y-41636819D01*
X68599181Y-41521628D01*
X68463731Y-41431123D01*
X68313227Y-41368782D01*
X68153452Y-41337000D01*
X67990548Y-41337000D01*
X67830773Y-41368782D01*
X67680269Y-41431123D01*
X67544819Y-41521628D01*
X67429628Y-41636819D01*
X67339123Y-41772269D01*
X67276782Y-41922773D01*
X67245000Y-42082548D01*
X55877000Y-42082548D01*
X55877000Y-39946772D01*
X63989000Y-39946772D01*
X63989000Y-40109676D01*
X64020782Y-40269451D01*
X64083123Y-40419955D01*
X64173628Y-40555405D01*
X64288819Y-40670596D01*
X64355531Y-40715172D01*
X64328772Y-40779773D01*
X64296990Y-40939548D01*
X64296990Y-41102452D01*
X64328772Y-41262227D01*
X64391113Y-41412731D01*
X64481618Y-41548181D01*
X64596809Y-41663372D01*
X64732259Y-41753877D01*
X64882763Y-41816218D01*
X65042538Y-41848000D01*
X65205442Y-41848000D01*
X65365217Y-41816218D01*
X65515721Y-41753877D01*
X65651171Y-41663372D01*
X65766362Y-41548181D01*
X65790480Y-41512086D01*
X65800410Y-41516199D01*
X65960185Y-41547981D01*
X66123089Y-41547981D01*
X66282864Y-41516199D01*
X66433368Y-41453858D01*
X66568818Y-41363353D01*
X66684009Y-41248162D01*
X66774514Y-41112712D01*
X66836855Y-40962208D01*
X66837493Y-40959000D01*
X66883452Y-40959000D01*
X67043227Y-40927218D01*
X67193731Y-40864877D01*
X67329181Y-40774372D01*
X67444372Y-40659181D01*
X67534877Y-40523731D01*
X67597218Y-40373227D01*
X67629000Y-40213452D01*
X67629000Y-40050548D01*
X67597218Y-39890773D01*
X67534877Y-39740269D01*
X67444372Y-39604819D01*
X67329181Y-39489628D01*
X67193731Y-39399123D01*
X67043227Y-39336782D01*
X66883452Y-39305000D01*
X66720548Y-39305000D01*
X66560773Y-39336782D01*
X66410269Y-39399123D01*
X66274819Y-39489628D01*
X66159628Y-39604819D01*
X66069123Y-39740269D01*
X66006782Y-39890773D01*
X66006144Y-39893981D01*
X65960185Y-39893981D01*
X65800410Y-39925763D01*
X65649906Y-39988104D01*
X65643000Y-39992718D01*
X65643000Y-39946772D01*
X65611218Y-39786997D01*
X65548877Y-39636493D01*
X65458372Y-39501043D01*
X65343181Y-39385852D01*
X65207731Y-39295347D01*
X65057227Y-39233006D01*
X64897452Y-39201224D01*
X64734548Y-39201224D01*
X64574773Y-39233006D01*
X64424269Y-39295347D01*
X64288819Y-39385852D01*
X64173628Y-39501043D01*
X64083123Y-39636493D01*
X64020782Y-39786997D01*
X63989000Y-39946772D01*
X55877000Y-39946772D01*
X55877000Y-38052606D01*
X56302606Y-37627000D01*
X63181265Y-37627000D01*
X63173000Y-37668548D01*
%TA.AperFunction,Conductor*%
D19*
G36*
X63173000Y-37668548D02*
G01*
X63173000Y-37831452D01*
X63204782Y-37991227D01*
X63267123Y-38141731D01*
X63345737Y-38259385D01*
X63233227Y-38212782D01*
X63073452Y-38181000D01*
X62910548Y-38181000D01*
X62750773Y-38212782D01*
X62600269Y-38275123D01*
X62464819Y-38365628D01*
X62349628Y-38480819D01*
X62259123Y-38616269D01*
X62196782Y-38766773D01*
X62165000Y-38926548D01*
X62165000Y-39089452D01*
X62196782Y-39249227D01*
X62259123Y-39399731D01*
X62349628Y-39535181D01*
X62464819Y-39650372D01*
X62600269Y-39740877D01*
X62750773Y-39803218D01*
X62910548Y-39835000D01*
X63073452Y-39835000D01*
X63233227Y-39803218D01*
X63383731Y-39740877D01*
X63519181Y-39650372D01*
X63634372Y-39535181D01*
X63724877Y-39399731D01*
X63787218Y-39249227D01*
X63819000Y-39089452D01*
X63819000Y-38926548D01*
X63787218Y-38766773D01*
X63724877Y-38616269D01*
X63646263Y-38498615D01*
X63758773Y-38545218D01*
X63918548Y-38577000D01*
X64081452Y-38577000D01*
X64241227Y-38545218D01*
X64391731Y-38482877D01*
X64527181Y-38392372D01*
X64642372Y-38277181D01*
X64732877Y-38141731D01*
X64795218Y-37991227D01*
X64827000Y-37831452D01*
X64827000Y-37668548D01*
X64818735Y-37627000D01*
X67209460Y-37627000D01*
X67212269Y-37628877D01*
X67362773Y-37691218D01*
X67473630Y-37713269D01*
X67454782Y-37758773D01*
X67423000Y-37918548D01*
X67423000Y-38081452D01*
X67454782Y-38241227D01*
X67517123Y-38391731D01*
X67607628Y-38527181D01*
X67722819Y-38642372D01*
X67858269Y-38732877D01*
X68008773Y-38795218D01*
X68027356Y-38798915D01*
X68012819Y-38808628D01*
X67897628Y-38923819D01*
X67807123Y-39059269D01*
X67744782Y-39209773D01*
X67713000Y-39369548D01*
X67713000Y-39532452D01*
X67744782Y-39692227D01*
X67807123Y-39842731D01*
X67897628Y-39978181D01*
X68012819Y-40093372D01*
X68148269Y-40183877D01*
X68298773Y-40246218D01*
X68458548Y-40278000D01*
X68621452Y-40278000D01*
X68781227Y-40246218D01*
X68931731Y-40183877D01*
X69067181Y-40093372D01*
X69182372Y-39978181D01*
X69272877Y-39842731D01*
X69335218Y-39692227D01*
X69367000Y-39532452D01*
X69367000Y-39369548D01*
X69335218Y-39209773D01*
X69272877Y-39059269D01*
X69182372Y-38923819D01*
X69067181Y-38808628D01*
X68931731Y-38718123D01*
X68781227Y-38655782D01*
X68762644Y-38652085D01*
X68777181Y-38642372D01*
X68892372Y-38527181D01*
X68982877Y-38391731D01*
X69045218Y-38241227D01*
X69077000Y-38081452D01*
X69077000Y-37918548D01*
X69045218Y-37758773D01*
X68990636Y-37627000D01*
X71682060Y-37627000D01*
X71704782Y-37741227D01*
X71767123Y-37891731D01*
X71857628Y-38027181D01*
X71972819Y-38142372D01*
X72053043Y-38195976D01*
X72008773Y-38204782D01*
X71858269Y-38267123D01*
X71722819Y-38357628D01*
X71607628Y-38472819D01*
X71517123Y-38608269D01*
X71454782Y-38758773D01*
X71423000Y-38918548D01*
X71423000Y-39081452D01*
X71454782Y-39241227D01*
X71517123Y-39391731D01*
X71556716Y-39450986D01*
X71554005Y-39450447D01*
X71391101Y-39450447D01*
X71231326Y-39482229D01*
X71080822Y-39544570D01*
X70945372Y-39635075D01*
X70830181Y-39750266D01*
X70739676Y-39885716D01*
X70677335Y-40036220D01*
X70645553Y-40195995D01*
X70645553Y-40358899D01*
X70677335Y-40518674D01*
X70739676Y-40669178D01*
X70830181Y-40804628D01*
X70945372Y-40919819D01*
X71080822Y-41010324D01*
X71231326Y-41072665D01*
X71391101Y-41104447D01*
X71554005Y-41104447D01*
X71713780Y-41072665D01*
X71864284Y-41010324D01*
X71999734Y-40919819D01*
X72114925Y-40804628D01*
X72205430Y-40669178D01*
X72267771Y-40518674D01*
X72299553Y-40358899D01*
X72299553Y-40195995D01*
X72267771Y-40036220D01*
X72205430Y-39885716D01*
X72165837Y-39826461D01*
X72168548Y-39827000D01*
X72331452Y-39827000D01*
X72491227Y-39795218D01*
X72641731Y-39732877D01*
X72777181Y-39642372D01*
X72892372Y-39527181D01*
X72982877Y-39391731D01*
X73045218Y-39241227D01*
X73077000Y-39081452D01*
X73077000Y-38918548D01*
X73045218Y-38758773D01*
X72982877Y-38608269D01*
X72892372Y-38472819D01*
X72777181Y-38357628D01*
X72696957Y-38304024D01*
X72741227Y-38295218D01*
X72891731Y-38232877D01*
X73027181Y-38142372D01*
X73142372Y-38027181D01*
X73232877Y-37891731D01*
X73295218Y-37741227D01*
X73317940Y-37627000D01*
X73447394Y-37627000D01*
X73873000Y-38052606D01*
X73873000Y-41011021D01*
X73858269Y-41017123D01*
X73722819Y-41107628D01*
X73607628Y-41222819D01*
X73517123Y-41358269D01*
X73454782Y-41508773D01*
X73423000Y-41668548D01*
X73423000Y-41831452D01*
X73454782Y-41991227D01*
X73517123Y-42141731D01*
X73607628Y-42277181D01*
X73722819Y-42392372D01*
X73858269Y-42482877D01*
X73873000Y-42488979D01*
X73873000Y-43261021D01*
X73858269Y-43267123D01*
X73722819Y-43357628D01*
X73607628Y-43472819D01*
X73517123Y-43608269D01*
X73454782Y-43758773D01*
X73423000Y-43918548D01*
X73423000Y-44081452D01*
X73454782Y-44241227D01*
X73517123Y-44391731D01*
X73607628Y-44527181D01*
X73722819Y-44642372D01*
X73858269Y-44732877D01*
X73873000Y-44738979D01*
X73873000Y-45707447D01*
X73857628Y-45722819D01*
X73767123Y-45858269D01*
X73704782Y-46008773D01*
X73673000Y-46168548D01*
X73673000Y-46331452D01*
X73704782Y-46491227D01*
X73767123Y-46641731D01*
X73857628Y-46777181D01*
X73873000Y-46792553D01*
X73873000Y-47957447D01*
X73857628Y-47972819D01*
X73767123Y-48108269D01*
X73704782Y-48258773D01*
X73673000Y-48418548D01*
X73673000Y-48581452D01*
X73704782Y-48741227D01*
X73767123Y-48891731D01*
X73857628Y-49027181D01*
X73873000Y-49042553D01*
X73873000Y-52769223D01*
X73740693Y-52857628D01*
X73625502Y-52972819D01*
X73534997Y-53108269D01*
X73472656Y-53258773D01*
X73440874Y-53418548D01*
X73440874Y-53581452D01*
X73472656Y-53741227D01*
X73534997Y-53891731D01*
X73625502Y-54027181D01*
X73740693Y-54142372D01*
X73873000Y-54230777D01*
X73873000Y-57759364D01*
X73741227Y-57704782D01*
X73581452Y-57673000D01*
X73536553Y-57673000D01*
X73642372Y-57567181D01*
X73732877Y-57431731D01*
X73795218Y-57281227D01*
X73827000Y-57121452D01*
X73827000Y-56958548D01*
X73795218Y-56798773D01*
X73732877Y-56648269D01*
X73642372Y-56512819D01*
X73527181Y-56397628D01*
X73391731Y-56307123D01*
X73241227Y-56244782D01*
X73081452Y-56213000D01*
X72918548Y-56213000D01*
X72758773Y-56244782D01*
X72608269Y-56307123D01*
X72472819Y-56397628D01*
X72357628Y-56512819D01*
X72267123Y-56648269D01*
X72204782Y-56798773D01*
X72173000Y-56958548D01*
X72173000Y-57121452D01*
X72204782Y-57281227D01*
X72267123Y-57431731D01*
X72357628Y-57567181D01*
X72472819Y-57682372D01*
X72608269Y-57772877D01*
X72758773Y-57835218D01*
X72918548Y-57867000D01*
X72963447Y-57867000D01*
X72857628Y-57972819D01*
X72767123Y-58108269D01*
X72704782Y-58258773D01*
X72673000Y-58418548D01*
X72673000Y-58581452D01*
X72704782Y-58741227D01*
X72767123Y-58891731D01*
X72857628Y-59027181D01*
X72972819Y-59142372D01*
X73108269Y-59232877D01*
X73258773Y-59295218D01*
X73418548Y-59327000D01*
X73581452Y-59327000D01*
X73741227Y-59295218D01*
X73799182Y-59271212D01*
X73447394Y-59623000D01*
X72318735Y-59623000D01*
X72327000Y-59581452D01*
X72327000Y-59418548D01*
X72295218Y-59258773D01*
X72232877Y-59108269D01*
X72142372Y-58972819D01*
X72027181Y-58857628D01*
X71891731Y-58767123D01*
X71741227Y-58704782D01*
X71581452Y-58673000D01*
X71418548Y-58673000D01*
X71258773Y-58704782D01*
X71108269Y-58767123D01*
X70972819Y-58857628D01*
X70857628Y-58972819D01*
X70767123Y-59108269D01*
X70704782Y-59258773D01*
X70673000Y-59418548D01*
X70673000Y-59581452D01*
X70681265Y-59623000D01*
X66042553Y-59623000D01*
X66027181Y-59607628D01*
X65891731Y-59517123D01*
X65741227Y-59454782D01*
X65581452Y-59423000D01*
X65418548Y-59423000D01*
X65258773Y-59454782D01*
X65108269Y-59517123D01*
X64972819Y-59607628D01*
X64957447Y-59623000D01*
X63292553Y-59623000D01*
X63277181Y-59607628D01*
X63141731Y-59517123D01*
X62991227Y-59454782D01*
X62831452Y-59423000D01*
X62668548Y-59423000D01*
X62508773Y-59454782D01*
X62358269Y-59517123D01*
X62222819Y-59607628D01*
X62207447Y-59623000D01*
X56302606Y-59623000D01*
X55877000Y-59197394D01*
X55877000Y-56542553D01*
X55892372Y-56527181D01*
X55964958Y-56418548D01*
X65923000Y-56418548D01*
X65923000Y-56581452D01*
X65954782Y-56741227D01*
X66017123Y-56891731D01*
X66107628Y-57027181D01*
X66222819Y-57142372D01*
X66358269Y-57232877D01*
X66508773Y-57295218D01*
X66668548Y-57327000D01*
X66831452Y-57327000D01*
X66945732Y-57304268D01*
X66923000Y-57418548D01*
X66923000Y-57581452D01*
X66952194Y-57728218D01*
X66858269Y-57767123D01*
X66722819Y-57857628D01*
X66607628Y-57972819D01*
X66517123Y-58108269D01*
X66454782Y-58258773D01*
X66423000Y-58418548D01*
X66423000Y-58581452D01*
X66454782Y-58741227D01*
X66517123Y-58891731D01*
X66607628Y-59027181D01*
X66722819Y-59142372D01*
X66858269Y-59232877D01*
X67008773Y-59295218D01*
X67168548Y-59327000D01*
X67331452Y-59327000D01*
X67491227Y-59295218D01*
X67641731Y-59232877D01*
X67777181Y-59142372D01*
X67892372Y-59027181D01*
X67982877Y-58891731D01*
X68045218Y-58741227D01*
X68077000Y-58581452D01*
X68077000Y-58418548D01*
X68047806Y-58271782D01*
X68141731Y-58232877D01*
X68277181Y-58142372D01*
X68392372Y-58027181D01*
X68482877Y-57891731D01*
X68545218Y-57741227D01*
X68577000Y-57581452D01*
X68577000Y-57418548D01*
X68558017Y-57323115D01*
X68577547Y-57327000D01*
X68740451Y-57327000D01*
X68900226Y-57295218D01*
X69050730Y-57232877D01*
X69186180Y-57142372D01*
X69301371Y-57027181D01*
X69391876Y-56891731D01*
X69454217Y-56741227D01*
X69485999Y-56581452D01*
X69485999Y-56418548D01*
X69454217Y-56258773D01*
X69391876Y-56108269D01*
X69301371Y-55972819D01*
X69186180Y-55857628D01*
X69050730Y-55767123D01*
X68900226Y-55704782D01*
X68740451Y-55673000D01*
X68687121Y-55673000D01*
X68739218Y-55547227D01*
X68771000Y-55387452D01*
X68771000Y-55224548D01*
X68739218Y-55064773D01*
X68676877Y-54914269D01*
X68586372Y-54778819D01*
X68471181Y-54663628D01*
X68335731Y-54573123D01*
X68185227Y-54510782D01*
X68025452Y-54479000D01*
X67862548Y-54479000D01*
X67702773Y-54510782D01*
X67552269Y-54573123D01*
X67416819Y-54663628D01*
X67301628Y-54778819D01*
X67211123Y-54914269D01*
X67148782Y-55064773D01*
X67117000Y-55224548D01*
X67117000Y-55387452D01*
X67148782Y-55547227D01*
X67211123Y-55697731D01*
X67301628Y-55833181D01*
X67416819Y-55948372D01*
X67552269Y-56038877D01*
X67702773Y-56101218D01*
X67862548Y-56133000D01*
X67915878Y-56133000D01*
X67863781Y-56258773D01*
X67831999Y-56418548D01*
X67831999Y-56581452D01*
X67850982Y-56676885D01*
X67831452Y-56673000D01*
X67668548Y-56673000D01*
X67554268Y-56695732D01*
X67577000Y-56581452D01*
X67577000Y-56418548D01*
X67545218Y-56258773D01*
X67482877Y-56108269D01*
X67392372Y-55972819D01*
X67277181Y-55857628D01*
X67141731Y-55767123D01*
X66991227Y-55704782D01*
X66831452Y-55673000D01*
X66668548Y-55673000D01*
X66508773Y-55704782D01*
X66358269Y-55767123D01*
X66222819Y-55857628D01*
X66107628Y-55972819D01*
X66017123Y-56108269D01*
X65954782Y-56258773D01*
X65923000Y-56418548D01*
X55964958Y-56418548D01*
X55982877Y-56391731D01*
X56045218Y-56241227D01*
X56077000Y-56081452D01*
X56077000Y-55918548D01*
X56045218Y-55758773D01*
X55982877Y-55608269D01*
X55910534Y-55500000D01*
X55982877Y-55391731D01*
X56045218Y-55241227D01*
X56077000Y-55081452D01*
X56077000Y-54918548D01*
X56045218Y-54758773D01*
X55982877Y-54608269D01*
X55892372Y-54472819D01*
X55877000Y-54457447D01*
X55877000Y-51503211D01*
X63540281Y-51503211D01*
X63540281Y-51666115D01*
X63572063Y-51825890D01*
X63634404Y-51976394D01*
X63724909Y-52111844D01*
X63840100Y-52227035D01*
X63975550Y-52317540D01*
X64126054Y-52379881D01*
X64285829Y-52411663D01*
X64448733Y-52411663D01*
X64608508Y-52379881D01*
X64759012Y-52317540D01*
X64894462Y-52227035D01*
X65009653Y-52111844D01*
X65100158Y-51976394D01*
X65162499Y-51825890D01*
X65194281Y-51666115D01*
X65194281Y-51503211D01*
X65162499Y-51343436D01*
X65124438Y-51251548D01*
X67118000Y-51251548D01*
X67118000Y-51414452D01*
X67149782Y-51574227D01*
X67212123Y-51724731D01*
X67302628Y-51860181D01*
X67417819Y-51975372D01*
X67553269Y-52065877D01*
X67703773Y-52128218D01*
X67863548Y-52160000D01*
X68026452Y-52160000D01*
X68186227Y-52128218D01*
X68336731Y-52065877D01*
X68472181Y-51975372D01*
X68587372Y-51860181D01*
X68677877Y-51724731D01*
X68740218Y-51574227D01*
X68772000Y-51414452D01*
X68772000Y-51251548D01*
X68740218Y-51091773D01*
X68677877Y-50941269D01*
X68587372Y-50805819D01*
X68472181Y-50690628D01*
X68336731Y-50600123D01*
X68186227Y-50537782D01*
X68026452Y-50506000D01*
X67863548Y-50506000D01*
X67703773Y-50537782D01*
X67553269Y-50600123D01*
X67417819Y-50690628D01*
X67302628Y-50805819D01*
X67212123Y-50941269D01*
X67149782Y-51091773D01*
X67118000Y-51251548D01*
X65124438Y-51251548D01*
X65100158Y-51192932D01*
X65009653Y-51057482D01*
X64894462Y-50942291D01*
X64759012Y-50851786D01*
X64608508Y-50789445D01*
X64448733Y-50757663D01*
X64285829Y-50757663D01*
X64126054Y-50789445D01*
X63975550Y-50851786D01*
X63840100Y-50942291D01*
X63724909Y-51057482D01*
X63634404Y-51192932D01*
X63572063Y-51343436D01*
X63540281Y-51503211D01*
X55877000Y-51503211D01*
X55877000Y-47513293D01*
X55965181Y-47454372D01*
X56080372Y-47339181D01*
X56170877Y-47203731D01*
X56233218Y-47053227D01*
X56241229Y-47012951D01*
X57669777Y-47012951D01*
X57669777Y-47175855D01*
X57701559Y-47335630D01*
X57763900Y-47486134D01*
X57854405Y-47621584D01*
X57969596Y-47736775D01*
X58105046Y-47827280D01*
X58255550Y-47889621D01*
X58415325Y-47921403D01*
X58553942Y-47921403D01*
X58581828Y-47988725D01*
X58672333Y-48124175D01*
X58787524Y-48239366D01*
X58922974Y-48329871D01*
X59073478Y-48392212D01*
X59233253Y-48423994D01*
X59396157Y-48423994D01*
X59555932Y-48392212D01*
X59681449Y-48340221D01*
X59656782Y-48399773D01*
X59625000Y-48559548D01*
X59625000Y-48722452D01*
X59656782Y-48882227D01*
X59719123Y-49032731D01*
X59809628Y-49168181D01*
X59924819Y-49283372D01*
X60060269Y-49373877D01*
X60210773Y-49436218D01*
X60370548Y-49468000D01*
X60533452Y-49468000D01*
X60624922Y-49449805D01*
X67624743Y-49449805D01*
X67624743Y-49612709D01*
X67656525Y-49772484D01*
X67718866Y-49922988D01*
X67809371Y-50058438D01*
X67924562Y-50173629D01*
X68060012Y-50264134D01*
X68210516Y-50326475D01*
X68370291Y-50358257D01*
X68533195Y-50358257D01*
X68692970Y-50326475D01*
X68843474Y-50264134D01*
X68978924Y-50173629D01*
X69094115Y-50058438D01*
X69184620Y-49922988D01*
X69246961Y-49772484D01*
X69278743Y-49612709D01*
X69278743Y-49449805D01*
X69246961Y-49290030D01*
X69207411Y-49194548D01*
X69912000Y-49194548D01*
X69912000Y-49357452D01*
X69943782Y-49517227D01*
X70006123Y-49667731D01*
X70096628Y-49803181D01*
X70211819Y-49918372D01*
X70347269Y-50008877D01*
X70497773Y-50071218D01*
X70657548Y-50103000D01*
X70820452Y-50103000D01*
X70980227Y-50071218D01*
X71130731Y-50008877D01*
X71266181Y-49918372D01*
X71381372Y-49803181D01*
X71471877Y-49667731D01*
X71534218Y-49517227D01*
X71566000Y-49357452D01*
X71566000Y-49194548D01*
X71534218Y-49034773D01*
X71471877Y-48884269D01*
X71381372Y-48748819D01*
X71266181Y-48633628D01*
X71130731Y-48543123D01*
X70980227Y-48480782D01*
X70820452Y-48449000D01*
X70657548Y-48449000D01*
X70497773Y-48480782D01*
X70347269Y-48543123D01*
X70211819Y-48633628D01*
X70096628Y-48748819D01*
X70006123Y-48884269D01*
X69943782Y-49034773D01*
X69912000Y-49194548D01*
X69207411Y-49194548D01*
X69184620Y-49139526D01*
X69094115Y-49004076D01*
X68978924Y-48888885D01*
X68843474Y-48798380D01*
X68692970Y-48736039D01*
X68533195Y-48704257D01*
X68370291Y-48704257D01*
X68210516Y-48736039D01*
X68060012Y-48798380D01*
X67924562Y-48888885D01*
X67809371Y-49004076D01*
X67718866Y-49139526D01*
X67656525Y-49290030D01*
X67624743Y-49449805D01*
X60624922Y-49449805D01*
X60693227Y-49436218D01*
X60843731Y-49373877D01*
X60979181Y-49283372D01*
X61094372Y-49168181D01*
X61184877Y-49032731D01*
X61247218Y-48882227D01*
X61279000Y-48722452D01*
X61279000Y-48559548D01*
X61247218Y-48399773D01*
X61184877Y-48249269D01*
X61094372Y-48113819D01*
X60979181Y-47998628D01*
X60843731Y-47908123D01*
X60693227Y-47845782D01*
X60533452Y-47814000D01*
X60370548Y-47814000D01*
X60210773Y-47845782D01*
X60085256Y-47897773D01*
X60109923Y-47838221D01*
X60141705Y-47678446D01*
X60141705Y-47515542D01*
X60109923Y-47355767D01*
X60047582Y-47205263D01*
X59957077Y-47069813D01*
X59841886Y-46954622D01*
X59706436Y-46864117D01*
X59555932Y-46801776D01*
X59396157Y-46769994D01*
X59257540Y-46769994D01*
X59229654Y-46702672D01*
X59205312Y-46666241D01*
X59243372Y-46628181D01*
X59333877Y-46492731D01*
X59396218Y-46342227D01*
X59428000Y-46182452D01*
X59428000Y-46019548D01*
X59396218Y-45859773D01*
X59333877Y-45709269D01*
X59243372Y-45573819D01*
X59128181Y-45458628D01*
X58992731Y-45368123D01*
X58842227Y-45305782D01*
X58682452Y-45274000D01*
X58519548Y-45274000D01*
X58359773Y-45305782D01*
X58209269Y-45368123D01*
X58073819Y-45458628D01*
X57958628Y-45573819D01*
X57868123Y-45709269D01*
X57805782Y-45859773D01*
X57774000Y-46019548D01*
X57774000Y-46182452D01*
X57805782Y-46342227D01*
X57868123Y-46492731D01*
X57892465Y-46529162D01*
X57854405Y-46567222D01*
X57763900Y-46702672D01*
X57701559Y-46853176D01*
X57669777Y-47012951D01*
X56241229Y-47012951D01*
X56265000Y-46893452D01*
X56265000Y-46730548D01*
X56233218Y-46570773D01*
X56170877Y-46420269D01*
X56080372Y-46284819D01*
X55965181Y-46169628D01*
X55877000Y-46110707D01*
X55877000Y-45255577D01*
X59449746Y-45255577D01*
X59449746Y-45418481D01*
X59481528Y-45578256D01*
X59543869Y-45728760D01*
X59634374Y-45864210D01*
X59749565Y-45979401D01*
X59885015Y-46069906D01*
X60035519Y-46132247D01*
X60195294Y-46164029D01*
X60358198Y-46164029D01*
X60517973Y-46132247D01*
X60668477Y-46069906D01*
X60803927Y-45979401D01*
X60919118Y-45864210D01*
X61009623Y-45728760D01*
X61071964Y-45578256D01*
X61103746Y-45418481D01*
X61103746Y-45255577D01*
X61071964Y-45095802D01*
X61009623Y-44945298D01*
X60919118Y-44809848D01*
X60803927Y-44694657D01*
X60668477Y-44604152D01*
X60624961Y-44586127D01*
X62768200Y-44586127D01*
X62768200Y-44720273D01*
X62794371Y-44851840D01*
X62845706Y-44975774D01*
X62893231Y-45046900D01*
X62845706Y-45118026D01*
X62794371Y-45241960D01*
X62768200Y-45373527D01*
X62768200Y-45507673D01*
X62794371Y-45639240D01*
X62845706Y-45763174D01*
X62893231Y-45834300D01*
X62845706Y-45905426D01*
X62794371Y-46029360D01*
X62768200Y-46160927D01*
X62768200Y-46295073D01*
X62794371Y-46426640D01*
X62845706Y-46550574D01*
X62893231Y-46621700D01*
X62845706Y-46692826D01*
X62794371Y-46816760D01*
X62768200Y-46948327D01*
X62768200Y-47082473D01*
X62794371Y-47214040D01*
X62845706Y-47337974D01*
X62893231Y-47409100D01*
X62845706Y-47480226D01*
X62794371Y-47604160D01*
X62768200Y-47735727D01*
X62768200Y-47869873D01*
X62794371Y-48001440D01*
X62845706Y-48125374D01*
X62920233Y-48236912D01*
X63015088Y-48331767D01*
X63126626Y-48406294D01*
X63250560Y-48457629D01*
X63382127Y-48483800D01*
X63516273Y-48483800D01*
X63647840Y-48457629D01*
X63771774Y-48406294D01*
X63842900Y-48358769D01*
X63914026Y-48406294D01*
X64037960Y-48457629D01*
X64169527Y-48483800D01*
X64303673Y-48483800D01*
X64435240Y-48457629D01*
X64559174Y-48406294D01*
X64630300Y-48358769D01*
X64701426Y-48406294D01*
X64825360Y-48457629D01*
X64956927Y-48483800D01*
X65091073Y-48483800D01*
X65222640Y-48457629D01*
X65346574Y-48406294D01*
X65417700Y-48358769D01*
X65488826Y-48406294D01*
X65612760Y-48457629D01*
X65744327Y-48483800D01*
X65878473Y-48483800D01*
X66010040Y-48457629D01*
X66133974Y-48406294D01*
X66205100Y-48358769D01*
X66276226Y-48406294D01*
X66400160Y-48457629D01*
X66531727Y-48483800D01*
X66665873Y-48483800D01*
X66797440Y-48457629D01*
X66921374Y-48406294D01*
X67032912Y-48331767D01*
X67127767Y-48236912D01*
X67202294Y-48125374D01*
X67253629Y-48001440D01*
X67279800Y-47869873D01*
X67279800Y-47735727D01*
X67253629Y-47604160D01*
X67202294Y-47480226D01*
X67154769Y-47409100D01*
X67202294Y-47337974D01*
X67253629Y-47214040D01*
X67279800Y-47082473D01*
X67279800Y-46948327D01*
X67253629Y-46816760D01*
X67202294Y-46692826D01*
X67154769Y-46621700D01*
X67202294Y-46550574D01*
X67253629Y-46426640D01*
X67279800Y-46295073D01*
X67279800Y-46160927D01*
X67253629Y-46029360D01*
X67216842Y-45940548D01*
X70166000Y-45940548D01*
X70166000Y-46103452D01*
X70197782Y-46263227D01*
X70260123Y-46413731D01*
X70350628Y-46549181D01*
X70465819Y-46664372D01*
X70601269Y-46754877D01*
X70613637Y-46760000D01*
X70601269Y-46765123D01*
X70465819Y-46855628D01*
X70350628Y-46970819D01*
X70260123Y-47106269D01*
X70197782Y-47256773D01*
X70166000Y-47416548D01*
X70166000Y-47579452D01*
X70197782Y-47739227D01*
X70260123Y-47889731D01*
X70350628Y-48025181D01*
X70465819Y-48140372D01*
X70601269Y-48230877D01*
X70751773Y-48293218D01*
X70911548Y-48325000D01*
X71074452Y-48325000D01*
X71234227Y-48293218D01*
X71384731Y-48230877D01*
X71520181Y-48140372D01*
X71635372Y-48025181D01*
X71725877Y-47889731D01*
X71788218Y-47739227D01*
X71820000Y-47579452D01*
X71820000Y-47492580D01*
X71939172Y-47468875D01*
X72089676Y-47406534D01*
X72225126Y-47316029D01*
X72340317Y-47200838D01*
X72430822Y-47065388D01*
X72493163Y-46914884D01*
X72524945Y-46755109D01*
X72524945Y-46592205D01*
X72493163Y-46432430D01*
X72430822Y-46281926D01*
X72340317Y-46146476D01*
X72225126Y-46031285D01*
X72089676Y-45940780D01*
X71939172Y-45878439D01*
X71802227Y-45851198D01*
X71788218Y-45780773D01*
X71725877Y-45630269D01*
X71635372Y-45494819D01*
X71520181Y-45379628D01*
X71384731Y-45289123D01*
X71234227Y-45226782D01*
X71074452Y-45195000D01*
X70911548Y-45195000D01*
X70751773Y-45226782D01*
X70601269Y-45289123D01*
X70465819Y-45379628D01*
X70350628Y-45494819D01*
X70260123Y-45630269D01*
X70197782Y-45780773D01*
X70166000Y-45940548D01*
X67216842Y-45940548D01*
X67202294Y-45905426D01*
X67154769Y-45834300D01*
X67202294Y-45763174D01*
X67253629Y-45639240D01*
X67279800Y-45507673D01*
X67279800Y-45373527D01*
X67253629Y-45241960D01*
X67202294Y-45118026D01*
X67154769Y-45046900D01*
X67202294Y-44975774D01*
X67253629Y-44851840D01*
X67279800Y-44720273D01*
X67279800Y-44586127D01*
X67253629Y-44454560D01*
X67202294Y-44330626D01*
X67195561Y-44320548D01*
X70547000Y-44320548D01*
X70547000Y-44483452D01*
X70578782Y-44643227D01*
X70641123Y-44793731D01*
X70731628Y-44929181D01*
X70846819Y-45044372D01*
X70982269Y-45134877D01*
X71132773Y-45197218D01*
X71292548Y-45229000D01*
X71455452Y-45229000D01*
X71615227Y-45197218D01*
X71765731Y-45134877D01*
X71901181Y-45044372D01*
X72016372Y-44929181D01*
X72106877Y-44793731D01*
X72169218Y-44643227D01*
X72201000Y-44483452D01*
X72201000Y-44320548D01*
X72169218Y-44160773D01*
X72106877Y-44010269D01*
X72016372Y-43874819D01*
X71901181Y-43759628D01*
X71765731Y-43669123D01*
X71615227Y-43606782D01*
X71455452Y-43575000D01*
X71292548Y-43575000D01*
X71132773Y-43606782D01*
X70982269Y-43669123D01*
X70846819Y-43759628D01*
X70731628Y-43874819D01*
X70641123Y-44010269D01*
X70578782Y-44160773D01*
X70547000Y-44320548D01*
X67195561Y-44320548D01*
X67127767Y-44219088D01*
X67032912Y-44124233D01*
X66921374Y-44049706D01*
X66797440Y-43998371D01*
X66665873Y-43972200D01*
X66531727Y-43972200D01*
X66400160Y-43998371D01*
X66276226Y-44049706D01*
X66205100Y-44097231D01*
X66133974Y-44049706D01*
X66010040Y-43998371D01*
X65878473Y-43972200D01*
X65744327Y-43972200D01*
X65612760Y-43998371D01*
X65488826Y-44049706D01*
X65417700Y-44097231D01*
X65346574Y-44049706D01*
X65222640Y-43998371D01*
X65091073Y-43972200D01*
X64956927Y-43972200D01*
X64825360Y-43998371D01*
X64701426Y-44049706D01*
X64630300Y-44097231D01*
X64559174Y-44049706D01*
X64435240Y-43998371D01*
X64303673Y-43972200D01*
X64169527Y-43972200D01*
X64037960Y-43998371D01*
X63914026Y-44049706D01*
X63842900Y-44097231D01*
X63771774Y-44049706D01*
X63647840Y-43998371D01*
X63516273Y-43972200D01*
X63382127Y-43972200D01*
X63250560Y-43998371D01*
X63126626Y-44049706D01*
X63015088Y-44124233D01*
X62920233Y-44219088D01*
X62845706Y-44330626D01*
X62794371Y-44454560D01*
X62768200Y-44586127D01*
X60624961Y-44586127D01*
X60517973Y-44541811D01*
X60358198Y-44510029D01*
X60195294Y-44510029D01*
X60035519Y-44541811D01*
X59885015Y-44604152D01*
X59749565Y-44694657D01*
X59634374Y-44809848D01*
X59543869Y-44945298D01*
X59481528Y-45095802D01*
X59449746Y-45255577D01*
X55877000Y-45255577D01*
X55877000Y-43478291D01*
X59499257Y-43478291D01*
X59499257Y-43641195D01*
X59531039Y-43800970D01*
X59593380Y-43951474D01*
X59683885Y-44086924D01*
X59799076Y-44202115D01*
X59934526Y-44292620D01*
X60085030Y-44354961D01*
X60244805Y-44386743D01*
X60407709Y-44386743D01*
X60567484Y-44354961D01*
X60717988Y-44292620D01*
X60853438Y-44202115D01*
X60968629Y-44086924D01*
X61059134Y-43951474D01*
X61121475Y-43800970D01*
X61153257Y-43641195D01*
X61153257Y-43478291D01*
X61121475Y-43318516D01*
X61059134Y-43168012D01*
X60968629Y-43032562D01*
X60853438Y-42917371D01*
X60717988Y-42826866D01*
X60567484Y-42764525D01*
X60407709Y-42732743D01*
X60244805Y-42732743D01*
X60085030Y-42764525D01*
X59934526Y-42826866D01*
X59799076Y-42917371D01*
X59683885Y-43032562D01*
X59593380Y-43168012D01*
X59531039Y-43318516D01*
X59499257Y-43478291D01*
X55877000Y-43478291D01*
X55877000Y-42082548D01*
X67245000Y-42082548D01*
X67245000Y-42245452D01*
X67276782Y-42405227D01*
X67339123Y-42555731D01*
X67429628Y-42691181D01*
X67544819Y-42806372D01*
X67680269Y-42896877D01*
X67830773Y-42959218D01*
X67990548Y-42991000D01*
X68153452Y-42991000D01*
X68313227Y-42959218D01*
X68463731Y-42896877D01*
X68599181Y-42806372D01*
X68714372Y-42691181D01*
X68804877Y-42555731D01*
X68867218Y-42405227D01*
X68899000Y-42245452D01*
X68899000Y-42082548D01*
X68867218Y-41922773D01*
X68804877Y-41772269D01*
X68714372Y-41636819D01*
X68599181Y-41521628D01*
X68463731Y-41431123D01*
X68313227Y-41368782D01*
X68153452Y-41337000D01*
X67990548Y-41337000D01*
X67830773Y-41368782D01*
X67680269Y-41431123D01*
X67544819Y-41521628D01*
X67429628Y-41636819D01*
X67339123Y-41772269D01*
X67276782Y-41922773D01*
X67245000Y-42082548D01*
X55877000Y-42082548D01*
X55877000Y-39946772D01*
X63989000Y-39946772D01*
X63989000Y-40109676D01*
X64020782Y-40269451D01*
X64083123Y-40419955D01*
X64173628Y-40555405D01*
X64288819Y-40670596D01*
X64355531Y-40715172D01*
X64328772Y-40779773D01*
X64296990Y-40939548D01*
X64296990Y-41102452D01*
X64328772Y-41262227D01*
X64391113Y-41412731D01*
X64481618Y-41548181D01*
X64596809Y-41663372D01*
X64732259Y-41753877D01*
X64882763Y-41816218D01*
X65042538Y-41848000D01*
X65205442Y-41848000D01*
X65365217Y-41816218D01*
X65515721Y-41753877D01*
X65651171Y-41663372D01*
X65766362Y-41548181D01*
X65790480Y-41512086D01*
X65800410Y-41516199D01*
X65960185Y-41547981D01*
X66123089Y-41547981D01*
X66282864Y-41516199D01*
X66433368Y-41453858D01*
X66568818Y-41363353D01*
X66684009Y-41248162D01*
X66774514Y-41112712D01*
X66836855Y-40962208D01*
X66837493Y-40959000D01*
X66883452Y-40959000D01*
X67043227Y-40927218D01*
X67193731Y-40864877D01*
X67329181Y-40774372D01*
X67444372Y-40659181D01*
X67534877Y-40523731D01*
X67597218Y-40373227D01*
X67629000Y-40213452D01*
X67629000Y-40050548D01*
X67597218Y-39890773D01*
X67534877Y-39740269D01*
X67444372Y-39604819D01*
X67329181Y-39489628D01*
X67193731Y-39399123D01*
X67043227Y-39336782D01*
X66883452Y-39305000D01*
X66720548Y-39305000D01*
X66560773Y-39336782D01*
X66410269Y-39399123D01*
X66274819Y-39489628D01*
X66159628Y-39604819D01*
X66069123Y-39740269D01*
X66006782Y-39890773D01*
X66006144Y-39893981D01*
X65960185Y-39893981D01*
X65800410Y-39925763D01*
X65649906Y-39988104D01*
X65643000Y-39992718D01*
X65643000Y-39946772D01*
X65611218Y-39786997D01*
X65548877Y-39636493D01*
X65458372Y-39501043D01*
X65343181Y-39385852D01*
X65207731Y-39295347D01*
X65057227Y-39233006D01*
X64897452Y-39201224D01*
X64734548Y-39201224D01*
X64574773Y-39233006D01*
X64424269Y-39295347D01*
X64288819Y-39385852D01*
X64173628Y-39501043D01*
X64083123Y-39636493D01*
X64020782Y-39786997D01*
X63989000Y-39946772D01*
X55877000Y-39946772D01*
X55877000Y-38052606D01*
X56302606Y-37627000D01*
X63181265Y-37627000D01*
X63173000Y-37668548D01*
G37*
%TD.AperFunction*%
D18*
X66623000Y-21052606D02*
X66623000Y-21511021D01*
X66608269Y-21517123D01*
X66472819Y-21607628D01*
X66357628Y-21722819D01*
X66267123Y-21858269D01*
X66204782Y-22008773D01*
X66173000Y-22168548D01*
X66173000Y-22331452D01*
X66204782Y-22491227D01*
X66267123Y-22641731D01*
X66357628Y-22777181D01*
X66472819Y-22892372D01*
X66608269Y-22982877D01*
X66623000Y-22988979D01*
X66623000Y-26000000D01*
X66625440Y-26024776D01*
X66632667Y-26048601D01*
X66644403Y-26070557D01*
X66660197Y-26089803D01*
X67160197Y-26589803D01*
X67179443Y-26605597D01*
X67201399Y-26617333D01*
X67225224Y-26624560D01*
X67250000Y-26627000D01*
X73457447Y-26627000D01*
X73472819Y-26642372D01*
X73608269Y-26732877D01*
X73758773Y-26795218D01*
X73918548Y-26827000D01*
X74081452Y-26827000D01*
X74241227Y-26795218D01*
X74391731Y-26732877D01*
X74527181Y-26642372D01*
X74542553Y-26627000D01*
X75953447Y-26627000D01*
X75859674Y-26720773D01*
X75769169Y-26856223D01*
X75706828Y-27006727D01*
X75675046Y-27166502D01*
X75675046Y-27329406D01*
X75706828Y-27489181D01*
X75769169Y-27639685D01*
X75859674Y-27775135D01*
X75974865Y-27890326D01*
X76110315Y-27980831D01*
X76260819Y-28043172D01*
X76420594Y-28074954D01*
X76583498Y-28074954D01*
X76743273Y-28043172D01*
X76893777Y-27980831D01*
X77029227Y-27890326D01*
X77144418Y-27775135D01*
X77234923Y-27639685D01*
X77297264Y-27489181D01*
X77329046Y-27329406D01*
X77329046Y-27166502D01*
X77297264Y-27006727D01*
X77234923Y-26856223D01*
X77144418Y-26720773D01*
X77050645Y-26627000D01*
X84197394Y-26627000D01*
X84266176Y-26695782D01*
X84253552Y-26726260D01*
X84221770Y-26886035D01*
X84221770Y-27048939D01*
X84253552Y-27208714D01*
X84315893Y-27359218D01*
X84406398Y-27494668D01*
X84521589Y-27609859D01*
X84623000Y-27677620D01*
X84623000Y-35447394D01*
X84197394Y-35873000D01*
X81750000Y-35873000D01*
X81725224Y-35875440D01*
X81701399Y-35882667D01*
X81679443Y-35894403D01*
X81660197Y-35910197D01*
X81160197Y-36410197D01*
X81144403Y-36429443D01*
X81132667Y-36451399D01*
X81125440Y-36475224D01*
X81123000Y-36500000D01*
X81123000Y-44947394D01*
X80988567Y-45081827D01*
X80891731Y-45017123D01*
X80741227Y-44954782D01*
X80581452Y-44923000D01*
X80418548Y-44923000D01*
X80258773Y-44954782D01*
X80108269Y-45017123D01*
X79972819Y-45107628D01*
X79857628Y-45222819D01*
X79767123Y-45358269D01*
X79761021Y-45373000D01*
X77302606Y-45373000D01*
X76877000Y-44947394D01*
X76877000Y-44046553D01*
X76972819Y-44142372D01*
X77108269Y-44232877D01*
X77258773Y-44295218D01*
X77418548Y-44327000D01*
X77581452Y-44327000D01*
X77741227Y-44295218D01*
X77891731Y-44232877D01*
X78027181Y-44142372D01*
X78119999Y-44049554D01*
X78212817Y-44142372D01*
X78348267Y-44232877D01*
X78498771Y-44295218D01*
X78658546Y-44327000D01*
X78821450Y-44327000D01*
X78981225Y-44295218D01*
X79131729Y-44232877D01*
X79267179Y-44142372D01*
X79382370Y-44027181D01*
X79472875Y-43891731D01*
X79535216Y-43741227D01*
X79566998Y-43581452D01*
X79566998Y-43418548D01*
X79535216Y-43258773D01*
X79472875Y-43108269D01*
X79405533Y-43007485D01*
X79482877Y-42891731D01*
X79545218Y-42741227D01*
X79577000Y-42581452D01*
X79577000Y-42418548D01*
X79545218Y-42258773D01*
X79482877Y-42108269D01*
X79392372Y-41972819D01*
X79277181Y-41857628D01*
X79141731Y-41767123D01*
X78991227Y-41704782D01*
X78831452Y-41673000D01*
X78668548Y-41673000D01*
X78577000Y-41691210D01*
X78577000Y-41668548D01*
X78545218Y-41508773D01*
X78482877Y-41358269D01*
X78392372Y-41222819D01*
X78277181Y-41107628D01*
X78141731Y-41017123D01*
X77991227Y-40954782D01*
X77831452Y-40923000D01*
X77668548Y-40923000D01*
X77508773Y-40954782D01*
X77358269Y-41017123D01*
X77222819Y-41107628D01*
X77107628Y-41222819D01*
X77017123Y-41358269D01*
X76954782Y-41508773D01*
X76923000Y-41668548D01*
X76923000Y-41831452D01*
X76954782Y-41991227D01*
X77017123Y-42141731D01*
X77107628Y-42277181D01*
X77222819Y-42392372D01*
X77358269Y-42482877D01*
X77508773Y-42545218D01*
X77668548Y-42577000D01*
X77831452Y-42577000D01*
X77923000Y-42558790D01*
X77923000Y-42581452D01*
X77954782Y-42741227D01*
X77993742Y-42835285D01*
X77891731Y-42767123D01*
X77741227Y-42704782D01*
X77581452Y-42673000D01*
X77418548Y-42673000D01*
X77258773Y-42704782D01*
X77108269Y-42767123D01*
X76972819Y-42857628D01*
X76877000Y-42953447D01*
X76877000Y-36249327D01*
X77005610Y-36302599D01*
X77165385Y-36334381D01*
X77328289Y-36334381D01*
X77488064Y-36302599D01*
X77638568Y-36240258D01*
X77774018Y-36149753D01*
X77889209Y-36034562D01*
X77979714Y-35899112D01*
X78042055Y-35748608D01*
X78073837Y-35588833D01*
X78073837Y-35425929D01*
X78055189Y-35332180D01*
X78152181Y-35267372D01*
X78251005Y-35168548D01*
X78673000Y-35168548D01*
X78673000Y-35331452D01*
X78704782Y-35491227D01*
X78767123Y-35641731D01*
X78857628Y-35777181D01*
X78972819Y-35892372D01*
X79108269Y-35982877D01*
X79258773Y-36045218D01*
X79418548Y-36077000D01*
X79581452Y-36077000D01*
X79741227Y-36045218D01*
X79891731Y-35982877D01*
X80027181Y-35892372D01*
X80142372Y-35777181D01*
X80232877Y-35641731D01*
X80295218Y-35491227D01*
X80327000Y-35331452D01*
X80327000Y-35168548D01*
X80295218Y-35008773D01*
X80232877Y-34858269D01*
X80142372Y-34722819D01*
X80027181Y-34607628D01*
X79891731Y-34517123D01*
X79741227Y-34454782D01*
X79581452Y-34423000D01*
X79418548Y-34423000D01*
X79258773Y-34454782D01*
X79108269Y-34517123D01*
X78972819Y-34607628D01*
X78857628Y-34722819D01*
X78767123Y-34858269D01*
X78704782Y-35008773D01*
X78673000Y-35168548D01*
X78251005Y-35168548D01*
X78267372Y-35152181D01*
X78357877Y-35016731D01*
X78420218Y-34866227D01*
X78452000Y-34706452D01*
X78452000Y-34543548D01*
X78420218Y-34383773D01*
X78357877Y-34233269D01*
X78267372Y-34097819D01*
X78152181Y-33982628D01*
X78016731Y-33892123D01*
X77866227Y-33829782D01*
X77706452Y-33798000D01*
X77543548Y-33798000D01*
X77383773Y-33829782D01*
X77233269Y-33892123D01*
X77097819Y-33982628D01*
X76982628Y-34097819D01*
X76892123Y-34233269D01*
X76877000Y-34269779D01*
X76877000Y-33500000D01*
X76874560Y-33475224D01*
X76867333Y-33451399D01*
X76855597Y-33429443D01*
X76839803Y-33410197D01*
X76339803Y-32910197D01*
X76320557Y-32894403D01*
X76298601Y-32882667D01*
X76274776Y-32875440D01*
X76250000Y-32873000D01*
X66688177Y-32873000D01*
X66682075Y-32858269D01*
X66591570Y-32722819D01*
X66476379Y-32607628D01*
X66340929Y-32517123D01*
X66190425Y-32454782D01*
X66030650Y-32423000D01*
X65867746Y-32423000D01*
X65707971Y-32454782D01*
X65557467Y-32517123D01*
X65422017Y-32607628D01*
X65306826Y-32722819D01*
X65216321Y-32858269D01*
X65210219Y-32873000D01*
X61842493Y-32873000D01*
X61842372Y-32872819D01*
X61727181Y-32757628D01*
X61591731Y-32667123D01*
X61441227Y-32604782D01*
X61281452Y-32573000D01*
X61118548Y-32573000D01*
X60958773Y-32604782D01*
X60808269Y-32667123D01*
X60672819Y-32757628D01*
X60557628Y-32872819D01*
X60557507Y-32873000D01*
X60552606Y-32873000D01*
X60127000Y-32447394D01*
X60127000Y-31918548D01*
X70173000Y-31918548D01*
X70173000Y-32081452D01*
X70204782Y-32241227D01*
X70267123Y-32391731D01*
X70357628Y-32527181D01*
X70472819Y-32642372D01*
X70608269Y-32732877D01*
X70758773Y-32795218D01*
X70918548Y-32827000D01*
X71081452Y-32827000D01*
X71241227Y-32795218D01*
X71391731Y-32732877D01*
X71527181Y-32642372D01*
X71642372Y-32527181D01*
X71732877Y-32391731D01*
X71795218Y-32241227D01*
X71827000Y-32081452D01*
X71827000Y-31918548D01*
X71795218Y-31758773D01*
X71732877Y-31608269D01*
X71642372Y-31472819D01*
X71586055Y-31416502D01*
X73175046Y-31416502D01*
X73175046Y-31579406D01*
X73206828Y-31739181D01*
X73269169Y-31889685D01*
X73359674Y-32025135D01*
X73474865Y-32140326D01*
X73610315Y-32230831D01*
X73760819Y-32293172D01*
X73920594Y-32324954D01*
X74083498Y-32324954D01*
X74243273Y-32293172D01*
X74393777Y-32230831D01*
X74529227Y-32140326D01*
X74644418Y-32025135D01*
X74734923Y-31889685D01*
X74797264Y-31739181D01*
X74829046Y-31579406D01*
X74829046Y-31416502D01*
X74797264Y-31256727D01*
X74734923Y-31106223D01*
X74644418Y-30970773D01*
X74529227Y-30855582D01*
X74393777Y-30765077D01*
X74243273Y-30702736D01*
X74083498Y-30670954D01*
X73920594Y-30670954D01*
X73760819Y-30702736D01*
X73610315Y-30765077D01*
X73474865Y-30855582D01*
X73359674Y-30970773D01*
X73269169Y-31106223D01*
X73206828Y-31256727D01*
X73175046Y-31416502D01*
X71586055Y-31416502D01*
X71527181Y-31357628D01*
X71391731Y-31267123D01*
X71241227Y-31204782D01*
X71081452Y-31173000D01*
X70918548Y-31173000D01*
X70758773Y-31204782D01*
X70608269Y-31267123D01*
X70472819Y-31357628D01*
X70357628Y-31472819D01*
X70267123Y-31608269D01*
X70204782Y-31758773D01*
X70173000Y-31918548D01*
X60127000Y-31918548D01*
X60127000Y-31818735D01*
X60168548Y-31827000D01*
X60331452Y-31827000D01*
X60491227Y-31795218D01*
X60641731Y-31732877D01*
X60777181Y-31642372D01*
X60892372Y-31527181D01*
X60982877Y-31391731D01*
X61000000Y-31350393D01*
X61017123Y-31391731D01*
X61107628Y-31527181D01*
X61222819Y-31642372D01*
X61358269Y-31732877D01*
X61508773Y-31795218D01*
X61668548Y-31827000D01*
X61831452Y-31827000D01*
X61991227Y-31795218D01*
X62141731Y-31732877D01*
X62277181Y-31642372D01*
X62392372Y-31527181D01*
X62482877Y-31391731D01*
X62545218Y-31241227D01*
X62577000Y-31081452D01*
X62577000Y-30918548D01*
X62545218Y-30758773D01*
X62507846Y-30668548D01*
X66423000Y-30668548D01*
X66423000Y-30831452D01*
X66454782Y-30991227D01*
X66517123Y-31141731D01*
X66607628Y-31277181D01*
X66722819Y-31392372D01*
X66858269Y-31482877D01*
X67008773Y-31545218D01*
X67168548Y-31577000D01*
X67331452Y-31577000D01*
X67491227Y-31545218D01*
X67641731Y-31482877D01*
X67777181Y-31392372D01*
X67892372Y-31277181D01*
X67982877Y-31141731D01*
X68045218Y-30991227D01*
X68077000Y-30831452D01*
X68077000Y-30668548D01*
X68059168Y-30578901D01*
X77864694Y-30578901D01*
X77864694Y-30741805D01*
X77896476Y-30901580D01*
X77958817Y-31052084D01*
X78049322Y-31187534D01*
X78164513Y-31302725D01*
X78299963Y-31393230D01*
X78388111Y-31429742D01*
X78388111Y-31546564D01*
X78419893Y-31706339D01*
X78482234Y-31856843D01*
X78572739Y-31992293D01*
X78687930Y-32107484D01*
X78823380Y-32197989D01*
X78973884Y-32260330D01*
X79133659Y-32292112D01*
X79296563Y-32292112D01*
X79313591Y-32288725D01*
X79267123Y-32358269D01*
X79204782Y-32508773D01*
X79173000Y-32668548D01*
X79173000Y-32831452D01*
X79204782Y-32991227D01*
X79267123Y-33141731D01*
X79357628Y-33277181D01*
X79472819Y-33392372D01*
X79608269Y-33482877D01*
X79758773Y-33545218D01*
X79918548Y-33577000D01*
X80081452Y-33577000D01*
X80241227Y-33545218D01*
X80391731Y-33482877D01*
X80527181Y-33392372D01*
X80642372Y-33277181D01*
X80732877Y-33141731D01*
X80795218Y-32991227D01*
X80827000Y-32831452D01*
X80827000Y-32731343D01*
X80857628Y-32777181D01*
X80972819Y-32892372D01*
X81108269Y-32982877D01*
X81258773Y-33045218D01*
X81418548Y-33077000D01*
X81581452Y-33077000D01*
X81741227Y-33045218D01*
X81891731Y-32982877D01*
X82027181Y-32892372D01*
X82142372Y-32777181D01*
X82232877Y-32641731D01*
X82295218Y-32491227D01*
X82327000Y-32331452D01*
X82327000Y-32168548D01*
X82295218Y-32008773D01*
X82232877Y-31858269D01*
X82142372Y-31722819D01*
X82027181Y-31607628D01*
X81891731Y-31517123D01*
X81741227Y-31454782D01*
X81581452Y-31423000D01*
X81418548Y-31423000D01*
X81258773Y-31454782D01*
X81108269Y-31517123D01*
X80972819Y-31607628D01*
X80857628Y-31722819D01*
X80767123Y-31858269D01*
X80704782Y-32008773D01*
X80673000Y-32168548D01*
X80673000Y-32268657D01*
X80642372Y-32222819D01*
X80527181Y-32107628D01*
X80391731Y-32017123D01*
X80241227Y-31954782D01*
X80081452Y-31923000D01*
X79918548Y-31923000D01*
X79901520Y-31926387D01*
X79947988Y-31856843D01*
X80010329Y-31706339D01*
X80042111Y-31546564D01*
X80042111Y-31383660D01*
X80010329Y-31223885D01*
X79947988Y-31073381D01*
X79857483Y-30937931D01*
X79742292Y-30822740D01*
X79606842Y-30732235D01*
X79518694Y-30695723D01*
X79518694Y-30578901D01*
X79486912Y-30419126D01*
X79424571Y-30268622D01*
X79334066Y-30133172D01*
X79218875Y-30017981D01*
X79083425Y-29927476D01*
X78932921Y-29865135D01*
X78773146Y-29833353D01*
X78610242Y-29833353D01*
X78450467Y-29865135D01*
X78299963Y-29927476D01*
X78164513Y-30017981D01*
X78049322Y-30133172D01*
X77958817Y-30268622D01*
X77896476Y-30419126D01*
X77864694Y-30578901D01*
X68059168Y-30578901D01*
X68045218Y-30508773D01*
X67982877Y-30358269D01*
X67892372Y-30222819D01*
X67777181Y-30107628D01*
X67641731Y-30017123D01*
X67491227Y-29954782D01*
X67331452Y-29923000D01*
X67168548Y-29923000D01*
X67008773Y-29954782D01*
X66858269Y-30017123D01*
X66722819Y-30107628D01*
X66607628Y-30222819D01*
X66517123Y-30358269D01*
X66454782Y-30508773D01*
X66423000Y-30668548D01*
X62507846Y-30668548D01*
X62482877Y-30608269D01*
X62392372Y-30472819D01*
X62277181Y-30357628D01*
X62141731Y-30267123D01*
X61991227Y-30204782D01*
X61831452Y-30173000D01*
X61668548Y-30173000D01*
X61508773Y-30204782D01*
X61358269Y-30267123D01*
X61222819Y-30357628D01*
X61107628Y-30472819D01*
X61017123Y-30608269D01*
X61000000Y-30649607D01*
X60982877Y-30608269D01*
X60892372Y-30472819D01*
X60777181Y-30357628D01*
X60641731Y-30267123D01*
X60491227Y-30204782D01*
X60331452Y-30173000D01*
X60168548Y-30173000D01*
X60127000Y-30181265D01*
X60127000Y-28918548D01*
X72923000Y-28918548D01*
X72923000Y-29081452D01*
X72954782Y-29241227D01*
X73017123Y-29391731D01*
X73107628Y-29527181D01*
X73222819Y-29642372D01*
X73358269Y-29732877D01*
X73508773Y-29795218D01*
X73668548Y-29827000D01*
X73831452Y-29827000D01*
X73991227Y-29795218D01*
X74141731Y-29732877D01*
X74277181Y-29642372D01*
X74392372Y-29527181D01*
X74479476Y-29396820D01*
X74608269Y-29482877D01*
X74758773Y-29545218D01*
X74918548Y-29577000D01*
X75081452Y-29577000D01*
X75241227Y-29545218D01*
X75391731Y-29482877D01*
X75527181Y-29392372D01*
X75642372Y-29277181D01*
X75732877Y-29141731D01*
X75795218Y-28991227D01*
X75827000Y-28831452D01*
X75827000Y-28668548D01*
X75801729Y-28541502D01*
X79050046Y-28541502D01*
X79050046Y-28704406D01*
X79081828Y-28864181D01*
X79144169Y-29014685D01*
X79234674Y-29150135D01*
X79349865Y-29265326D01*
X79485315Y-29355831D01*
X79635819Y-29418172D01*
X79795594Y-29449954D01*
X79958498Y-29449954D01*
X80118273Y-29418172D01*
X80268777Y-29355831D01*
X80404227Y-29265326D01*
X80519418Y-29150135D01*
X80609923Y-29014685D01*
X80672264Y-28864181D01*
X80704046Y-28704406D01*
X80704046Y-28541502D01*
X80672264Y-28381727D01*
X80632888Y-28286665D01*
X80642372Y-28277181D01*
X80732877Y-28141731D01*
X80795218Y-27991227D01*
X80827000Y-27831452D01*
X80827000Y-27668548D01*
X80795218Y-27508773D01*
X80732877Y-27358269D01*
X80642372Y-27222819D01*
X80527181Y-27107628D01*
X80391731Y-27017123D01*
X80241227Y-26954782D01*
X80081452Y-26923000D01*
X79918548Y-26923000D01*
X79758773Y-26954782D01*
X79608269Y-27017123D01*
X79472819Y-27107628D01*
X79357628Y-27222819D01*
X79267123Y-27358269D01*
X79204782Y-27508773D01*
X79173000Y-27668548D01*
X79173000Y-27831452D01*
X79204782Y-27991227D01*
X79244158Y-28086289D01*
X79234674Y-28095773D01*
X79144169Y-28231223D01*
X79081828Y-28381727D01*
X79050046Y-28541502D01*
X75801729Y-28541502D01*
X75795218Y-28508773D01*
X75732877Y-28358269D01*
X75642372Y-28222819D01*
X75527181Y-28107628D01*
X75391731Y-28017123D01*
X75241227Y-27954782D01*
X75081452Y-27923000D01*
X74918548Y-27923000D01*
X74758773Y-27954782D01*
X74608269Y-28017123D01*
X74472819Y-28107628D01*
X74357628Y-28222819D01*
X74270524Y-28353180D01*
X74141731Y-28267123D01*
X73991227Y-28204782D01*
X73831452Y-28173000D01*
X73668548Y-28173000D01*
X73508773Y-28204782D01*
X73358269Y-28267123D01*
X73222819Y-28357628D01*
X73107628Y-28472819D01*
X73017123Y-28608269D01*
X72954782Y-28758773D01*
X72923000Y-28918548D01*
X60127000Y-28918548D01*
X60127000Y-27490636D01*
X60258773Y-27545218D01*
X60418548Y-27577000D01*
X60581452Y-27577000D01*
X60741227Y-27545218D01*
X60891731Y-27482877D01*
X61019917Y-27397225D01*
X69923000Y-27397225D01*
X69923000Y-27560129D01*
X69954782Y-27719904D01*
X70017123Y-27870408D01*
X70107628Y-28005858D01*
X70222819Y-28121049D01*
X70358269Y-28211554D01*
X70508773Y-28273895D01*
X70668548Y-28305677D01*
X70831452Y-28305677D01*
X70991227Y-28273895D01*
X71141731Y-28211554D01*
X71277181Y-28121049D01*
X71392372Y-28005858D01*
X71482877Y-27870408D01*
X71545218Y-27719904D01*
X71577000Y-27560129D01*
X71577000Y-27397225D01*
X71545218Y-27237450D01*
X71482877Y-27086946D01*
X71392372Y-26951496D01*
X71277181Y-26836305D01*
X71141731Y-26745800D01*
X70991227Y-26683459D01*
X70831452Y-26651677D01*
X70668548Y-26651677D01*
X70508773Y-26683459D01*
X70358269Y-26745800D01*
X70222819Y-26836305D01*
X70107628Y-26951496D01*
X70017123Y-27086946D01*
X69954782Y-27237450D01*
X69923000Y-27397225D01*
X61019917Y-27397225D01*
X61027181Y-27392372D01*
X61142372Y-27277181D01*
X61232877Y-27141731D01*
X61295218Y-26991227D01*
X61327000Y-26831452D01*
X61327000Y-26668548D01*
X61295218Y-26508773D01*
X61232877Y-26358269D01*
X61142372Y-26222819D01*
X61027181Y-26107628D01*
X60891731Y-26017123D01*
X60850393Y-26000000D01*
X60891731Y-25982877D01*
X61027181Y-25892372D01*
X61142372Y-25777181D01*
X61232877Y-25641731D01*
X61295218Y-25491227D01*
X61309675Y-25418548D01*
X62923000Y-25418548D01*
X62923000Y-25581452D01*
X62954782Y-25741227D01*
X63017123Y-25891731D01*
X63107628Y-26027181D01*
X63222819Y-26142372D01*
X63358269Y-26232877D01*
X63508773Y-26295218D01*
X63668548Y-26327000D01*
X63831452Y-26327000D01*
X63991227Y-26295218D01*
X64141731Y-26232877D01*
X64277181Y-26142372D01*
X64392372Y-26027181D01*
X64482877Y-25891731D01*
X64545218Y-25741227D01*
X64577000Y-25581452D01*
X64577000Y-25418548D01*
X64545218Y-25258773D01*
X64482877Y-25108269D01*
X64392372Y-24972819D01*
X64277181Y-24857628D01*
X64141731Y-24767123D01*
X63991227Y-24704782D01*
X63831452Y-24673000D01*
X63668548Y-24673000D01*
X63508773Y-24704782D01*
X63358269Y-24767123D01*
X63222819Y-24857628D01*
X63107628Y-24972819D01*
X63017123Y-25108269D01*
X62954782Y-25258773D01*
X62923000Y-25418548D01*
X61309675Y-25418548D01*
X61327000Y-25331452D01*
X61327000Y-25168548D01*
X61295218Y-25008773D01*
X61232877Y-24858269D01*
X61160534Y-24750000D01*
X61232877Y-24641731D01*
X61295218Y-24491227D01*
X61327000Y-24331452D01*
X61327000Y-24168548D01*
X61295218Y-24008773D01*
X61232877Y-23858269D01*
X61173896Y-23769998D01*
X61232877Y-23681728D01*
X61295218Y-23531224D01*
X61327000Y-23371449D01*
X61327000Y-23208545D01*
X61295218Y-23048770D01*
X61232877Y-22898266D01*
X61142372Y-22762816D01*
X61027181Y-22647625D01*
X60891731Y-22557120D01*
X60741227Y-22494779D01*
X60581452Y-22462997D01*
X60418548Y-22462997D01*
X60258773Y-22494779D01*
X60127000Y-22549361D01*
X60127000Y-21052606D01*
X60552606Y-20627000D01*
X66197394Y-20627000D01*
X66623000Y-21052606D01*
%TA.AperFunction,Conductor*%
D19*
G36*
X66623000Y-21052606D02*
G01*
X66623000Y-21511021D01*
X66608269Y-21517123D01*
X66472819Y-21607628D01*
X66357628Y-21722819D01*
X66267123Y-21858269D01*
X66204782Y-22008773D01*
X66173000Y-22168548D01*
X66173000Y-22331452D01*
X66204782Y-22491227D01*
X66267123Y-22641731D01*
X66357628Y-22777181D01*
X66472819Y-22892372D01*
X66608269Y-22982877D01*
X66623000Y-22988979D01*
X66623000Y-26000000D01*
X66625440Y-26024776D01*
X66632667Y-26048601D01*
X66644403Y-26070557D01*
X66660197Y-26089803D01*
X67160197Y-26589803D01*
X67179443Y-26605597D01*
X67201399Y-26617333D01*
X67225224Y-26624560D01*
X67250000Y-26627000D01*
X73457447Y-26627000D01*
X73472819Y-26642372D01*
X73608269Y-26732877D01*
X73758773Y-26795218D01*
X73918548Y-26827000D01*
X74081452Y-26827000D01*
X74241227Y-26795218D01*
X74391731Y-26732877D01*
X74527181Y-26642372D01*
X74542553Y-26627000D01*
X75953447Y-26627000D01*
X75859674Y-26720773D01*
X75769169Y-26856223D01*
X75706828Y-27006727D01*
X75675046Y-27166502D01*
X75675046Y-27329406D01*
X75706828Y-27489181D01*
X75769169Y-27639685D01*
X75859674Y-27775135D01*
X75974865Y-27890326D01*
X76110315Y-27980831D01*
X76260819Y-28043172D01*
X76420594Y-28074954D01*
X76583498Y-28074954D01*
X76743273Y-28043172D01*
X76893777Y-27980831D01*
X77029227Y-27890326D01*
X77144418Y-27775135D01*
X77234923Y-27639685D01*
X77297264Y-27489181D01*
X77329046Y-27329406D01*
X77329046Y-27166502D01*
X77297264Y-27006727D01*
X77234923Y-26856223D01*
X77144418Y-26720773D01*
X77050645Y-26627000D01*
X84197394Y-26627000D01*
X84266176Y-26695782D01*
X84253552Y-26726260D01*
X84221770Y-26886035D01*
X84221770Y-27048939D01*
X84253552Y-27208714D01*
X84315893Y-27359218D01*
X84406398Y-27494668D01*
X84521589Y-27609859D01*
X84623000Y-27677620D01*
X84623000Y-35447394D01*
X84197394Y-35873000D01*
X81750000Y-35873000D01*
X81725224Y-35875440D01*
X81701399Y-35882667D01*
X81679443Y-35894403D01*
X81660197Y-35910197D01*
X81160197Y-36410197D01*
X81144403Y-36429443D01*
X81132667Y-36451399D01*
X81125440Y-36475224D01*
X81123000Y-36500000D01*
X81123000Y-44947394D01*
X80988567Y-45081827D01*
X80891731Y-45017123D01*
X80741227Y-44954782D01*
X80581452Y-44923000D01*
X80418548Y-44923000D01*
X80258773Y-44954782D01*
X80108269Y-45017123D01*
X79972819Y-45107628D01*
X79857628Y-45222819D01*
X79767123Y-45358269D01*
X79761021Y-45373000D01*
X77302606Y-45373000D01*
X76877000Y-44947394D01*
X76877000Y-44046553D01*
X76972819Y-44142372D01*
X77108269Y-44232877D01*
X77258773Y-44295218D01*
X77418548Y-44327000D01*
X77581452Y-44327000D01*
X77741227Y-44295218D01*
X77891731Y-44232877D01*
X78027181Y-44142372D01*
X78119999Y-44049554D01*
X78212817Y-44142372D01*
X78348267Y-44232877D01*
X78498771Y-44295218D01*
X78658546Y-44327000D01*
X78821450Y-44327000D01*
X78981225Y-44295218D01*
X79131729Y-44232877D01*
X79267179Y-44142372D01*
X79382370Y-44027181D01*
X79472875Y-43891731D01*
X79535216Y-43741227D01*
X79566998Y-43581452D01*
X79566998Y-43418548D01*
X79535216Y-43258773D01*
X79472875Y-43108269D01*
X79405533Y-43007485D01*
X79482877Y-42891731D01*
X79545218Y-42741227D01*
X79577000Y-42581452D01*
X79577000Y-42418548D01*
X79545218Y-42258773D01*
X79482877Y-42108269D01*
X79392372Y-41972819D01*
X79277181Y-41857628D01*
X79141731Y-41767123D01*
X78991227Y-41704782D01*
X78831452Y-41673000D01*
X78668548Y-41673000D01*
X78577000Y-41691210D01*
X78577000Y-41668548D01*
X78545218Y-41508773D01*
X78482877Y-41358269D01*
X78392372Y-41222819D01*
X78277181Y-41107628D01*
X78141731Y-41017123D01*
X77991227Y-40954782D01*
X77831452Y-40923000D01*
X77668548Y-40923000D01*
X77508773Y-40954782D01*
X77358269Y-41017123D01*
X77222819Y-41107628D01*
X77107628Y-41222819D01*
X77017123Y-41358269D01*
X76954782Y-41508773D01*
X76923000Y-41668548D01*
X76923000Y-41831452D01*
X76954782Y-41991227D01*
X77017123Y-42141731D01*
X77107628Y-42277181D01*
X77222819Y-42392372D01*
X77358269Y-42482877D01*
X77508773Y-42545218D01*
X77668548Y-42577000D01*
X77831452Y-42577000D01*
X77923000Y-42558790D01*
X77923000Y-42581452D01*
X77954782Y-42741227D01*
X77993742Y-42835285D01*
X77891731Y-42767123D01*
X77741227Y-42704782D01*
X77581452Y-42673000D01*
X77418548Y-42673000D01*
X77258773Y-42704782D01*
X77108269Y-42767123D01*
X76972819Y-42857628D01*
X76877000Y-42953447D01*
X76877000Y-36249327D01*
X77005610Y-36302599D01*
X77165385Y-36334381D01*
X77328289Y-36334381D01*
X77488064Y-36302599D01*
X77638568Y-36240258D01*
X77774018Y-36149753D01*
X77889209Y-36034562D01*
X77979714Y-35899112D01*
X78042055Y-35748608D01*
X78073837Y-35588833D01*
X78073837Y-35425929D01*
X78055189Y-35332180D01*
X78152181Y-35267372D01*
X78251005Y-35168548D01*
X78673000Y-35168548D01*
X78673000Y-35331452D01*
X78704782Y-35491227D01*
X78767123Y-35641731D01*
X78857628Y-35777181D01*
X78972819Y-35892372D01*
X79108269Y-35982877D01*
X79258773Y-36045218D01*
X79418548Y-36077000D01*
X79581452Y-36077000D01*
X79741227Y-36045218D01*
X79891731Y-35982877D01*
X80027181Y-35892372D01*
X80142372Y-35777181D01*
X80232877Y-35641731D01*
X80295218Y-35491227D01*
X80327000Y-35331452D01*
X80327000Y-35168548D01*
X80295218Y-35008773D01*
X80232877Y-34858269D01*
X80142372Y-34722819D01*
X80027181Y-34607628D01*
X79891731Y-34517123D01*
X79741227Y-34454782D01*
X79581452Y-34423000D01*
X79418548Y-34423000D01*
X79258773Y-34454782D01*
X79108269Y-34517123D01*
X78972819Y-34607628D01*
X78857628Y-34722819D01*
X78767123Y-34858269D01*
X78704782Y-35008773D01*
X78673000Y-35168548D01*
X78251005Y-35168548D01*
X78267372Y-35152181D01*
X78357877Y-35016731D01*
X78420218Y-34866227D01*
X78452000Y-34706452D01*
X78452000Y-34543548D01*
X78420218Y-34383773D01*
X78357877Y-34233269D01*
X78267372Y-34097819D01*
X78152181Y-33982628D01*
X78016731Y-33892123D01*
X77866227Y-33829782D01*
X77706452Y-33798000D01*
X77543548Y-33798000D01*
X77383773Y-33829782D01*
X77233269Y-33892123D01*
X77097819Y-33982628D01*
X76982628Y-34097819D01*
X76892123Y-34233269D01*
X76877000Y-34269779D01*
X76877000Y-33500000D01*
X76874560Y-33475224D01*
X76867333Y-33451399D01*
X76855597Y-33429443D01*
X76839803Y-33410197D01*
X76339803Y-32910197D01*
X76320557Y-32894403D01*
X76298601Y-32882667D01*
X76274776Y-32875440D01*
X76250000Y-32873000D01*
X66688177Y-32873000D01*
X66682075Y-32858269D01*
X66591570Y-32722819D01*
X66476379Y-32607628D01*
X66340929Y-32517123D01*
X66190425Y-32454782D01*
X66030650Y-32423000D01*
X65867746Y-32423000D01*
X65707971Y-32454782D01*
X65557467Y-32517123D01*
X65422017Y-32607628D01*
X65306826Y-32722819D01*
X65216321Y-32858269D01*
X65210219Y-32873000D01*
X61842493Y-32873000D01*
X61842372Y-32872819D01*
X61727181Y-32757628D01*
X61591731Y-32667123D01*
X61441227Y-32604782D01*
X61281452Y-32573000D01*
X61118548Y-32573000D01*
X60958773Y-32604782D01*
X60808269Y-32667123D01*
X60672819Y-32757628D01*
X60557628Y-32872819D01*
X60557507Y-32873000D01*
X60552606Y-32873000D01*
X60127000Y-32447394D01*
X60127000Y-31918548D01*
X70173000Y-31918548D01*
X70173000Y-32081452D01*
X70204782Y-32241227D01*
X70267123Y-32391731D01*
X70357628Y-32527181D01*
X70472819Y-32642372D01*
X70608269Y-32732877D01*
X70758773Y-32795218D01*
X70918548Y-32827000D01*
X71081452Y-32827000D01*
X71241227Y-32795218D01*
X71391731Y-32732877D01*
X71527181Y-32642372D01*
X71642372Y-32527181D01*
X71732877Y-32391731D01*
X71795218Y-32241227D01*
X71827000Y-32081452D01*
X71827000Y-31918548D01*
X71795218Y-31758773D01*
X71732877Y-31608269D01*
X71642372Y-31472819D01*
X71586055Y-31416502D01*
X73175046Y-31416502D01*
X73175046Y-31579406D01*
X73206828Y-31739181D01*
X73269169Y-31889685D01*
X73359674Y-32025135D01*
X73474865Y-32140326D01*
X73610315Y-32230831D01*
X73760819Y-32293172D01*
X73920594Y-32324954D01*
X74083498Y-32324954D01*
X74243273Y-32293172D01*
X74393777Y-32230831D01*
X74529227Y-32140326D01*
X74644418Y-32025135D01*
X74734923Y-31889685D01*
X74797264Y-31739181D01*
X74829046Y-31579406D01*
X74829046Y-31416502D01*
X74797264Y-31256727D01*
X74734923Y-31106223D01*
X74644418Y-30970773D01*
X74529227Y-30855582D01*
X74393777Y-30765077D01*
X74243273Y-30702736D01*
X74083498Y-30670954D01*
X73920594Y-30670954D01*
X73760819Y-30702736D01*
X73610315Y-30765077D01*
X73474865Y-30855582D01*
X73359674Y-30970773D01*
X73269169Y-31106223D01*
X73206828Y-31256727D01*
X73175046Y-31416502D01*
X71586055Y-31416502D01*
X71527181Y-31357628D01*
X71391731Y-31267123D01*
X71241227Y-31204782D01*
X71081452Y-31173000D01*
X70918548Y-31173000D01*
X70758773Y-31204782D01*
X70608269Y-31267123D01*
X70472819Y-31357628D01*
X70357628Y-31472819D01*
X70267123Y-31608269D01*
X70204782Y-31758773D01*
X70173000Y-31918548D01*
X60127000Y-31918548D01*
X60127000Y-31818735D01*
X60168548Y-31827000D01*
X60331452Y-31827000D01*
X60491227Y-31795218D01*
X60641731Y-31732877D01*
X60777181Y-31642372D01*
X60892372Y-31527181D01*
X60982877Y-31391731D01*
X61000000Y-31350393D01*
X61017123Y-31391731D01*
X61107628Y-31527181D01*
X61222819Y-31642372D01*
X61358269Y-31732877D01*
X61508773Y-31795218D01*
X61668548Y-31827000D01*
X61831452Y-31827000D01*
X61991227Y-31795218D01*
X62141731Y-31732877D01*
X62277181Y-31642372D01*
X62392372Y-31527181D01*
X62482877Y-31391731D01*
X62545218Y-31241227D01*
X62577000Y-31081452D01*
X62577000Y-30918548D01*
X62545218Y-30758773D01*
X62507846Y-30668548D01*
X66423000Y-30668548D01*
X66423000Y-30831452D01*
X66454782Y-30991227D01*
X66517123Y-31141731D01*
X66607628Y-31277181D01*
X66722819Y-31392372D01*
X66858269Y-31482877D01*
X67008773Y-31545218D01*
X67168548Y-31577000D01*
X67331452Y-31577000D01*
X67491227Y-31545218D01*
X67641731Y-31482877D01*
X67777181Y-31392372D01*
X67892372Y-31277181D01*
X67982877Y-31141731D01*
X68045218Y-30991227D01*
X68077000Y-30831452D01*
X68077000Y-30668548D01*
X68059168Y-30578901D01*
X77864694Y-30578901D01*
X77864694Y-30741805D01*
X77896476Y-30901580D01*
X77958817Y-31052084D01*
X78049322Y-31187534D01*
X78164513Y-31302725D01*
X78299963Y-31393230D01*
X78388111Y-31429742D01*
X78388111Y-31546564D01*
X78419893Y-31706339D01*
X78482234Y-31856843D01*
X78572739Y-31992293D01*
X78687930Y-32107484D01*
X78823380Y-32197989D01*
X78973884Y-32260330D01*
X79133659Y-32292112D01*
X79296563Y-32292112D01*
X79313591Y-32288725D01*
X79267123Y-32358269D01*
X79204782Y-32508773D01*
X79173000Y-32668548D01*
X79173000Y-32831452D01*
X79204782Y-32991227D01*
X79267123Y-33141731D01*
X79357628Y-33277181D01*
X79472819Y-33392372D01*
X79608269Y-33482877D01*
X79758773Y-33545218D01*
X79918548Y-33577000D01*
X80081452Y-33577000D01*
X80241227Y-33545218D01*
X80391731Y-33482877D01*
X80527181Y-33392372D01*
X80642372Y-33277181D01*
X80732877Y-33141731D01*
X80795218Y-32991227D01*
X80827000Y-32831452D01*
X80827000Y-32731343D01*
X80857628Y-32777181D01*
X80972819Y-32892372D01*
X81108269Y-32982877D01*
X81258773Y-33045218D01*
X81418548Y-33077000D01*
X81581452Y-33077000D01*
X81741227Y-33045218D01*
X81891731Y-32982877D01*
X82027181Y-32892372D01*
X82142372Y-32777181D01*
X82232877Y-32641731D01*
X82295218Y-32491227D01*
X82327000Y-32331452D01*
X82327000Y-32168548D01*
X82295218Y-32008773D01*
X82232877Y-31858269D01*
X82142372Y-31722819D01*
X82027181Y-31607628D01*
X81891731Y-31517123D01*
X81741227Y-31454782D01*
X81581452Y-31423000D01*
X81418548Y-31423000D01*
X81258773Y-31454782D01*
X81108269Y-31517123D01*
X80972819Y-31607628D01*
X80857628Y-31722819D01*
X80767123Y-31858269D01*
X80704782Y-32008773D01*
X80673000Y-32168548D01*
X80673000Y-32268657D01*
X80642372Y-32222819D01*
X80527181Y-32107628D01*
X80391731Y-32017123D01*
X80241227Y-31954782D01*
X80081452Y-31923000D01*
X79918548Y-31923000D01*
X79901520Y-31926387D01*
X79947988Y-31856843D01*
X80010329Y-31706339D01*
X80042111Y-31546564D01*
X80042111Y-31383660D01*
X80010329Y-31223885D01*
X79947988Y-31073381D01*
X79857483Y-30937931D01*
X79742292Y-30822740D01*
X79606842Y-30732235D01*
X79518694Y-30695723D01*
X79518694Y-30578901D01*
X79486912Y-30419126D01*
X79424571Y-30268622D01*
X79334066Y-30133172D01*
X79218875Y-30017981D01*
X79083425Y-29927476D01*
X78932921Y-29865135D01*
X78773146Y-29833353D01*
X78610242Y-29833353D01*
X78450467Y-29865135D01*
X78299963Y-29927476D01*
X78164513Y-30017981D01*
X78049322Y-30133172D01*
X77958817Y-30268622D01*
X77896476Y-30419126D01*
X77864694Y-30578901D01*
X68059168Y-30578901D01*
X68045218Y-30508773D01*
X67982877Y-30358269D01*
X67892372Y-30222819D01*
X67777181Y-30107628D01*
X67641731Y-30017123D01*
X67491227Y-29954782D01*
X67331452Y-29923000D01*
X67168548Y-29923000D01*
X67008773Y-29954782D01*
X66858269Y-30017123D01*
X66722819Y-30107628D01*
X66607628Y-30222819D01*
X66517123Y-30358269D01*
X66454782Y-30508773D01*
X66423000Y-30668548D01*
X62507846Y-30668548D01*
X62482877Y-30608269D01*
X62392372Y-30472819D01*
X62277181Y-30357628D01*
X62141731Y-30267123D01*
X61991227Y-30204782D01*
X61831452Y-30173000D01*
X61668548Y-30173000D01*
X61508773Y-30204782D01*
X61358269Y-30267123D01*
X61222819Y-30357628D01*
X61107628Y-30472819D01*
X61017123Y-30608269D01*
X61000000Y-30649607D01*
X60982877Y-30608269D01*
X60892372Y-30472819D01*
X60777181Y-30357628D01*
X60641731Y-30267123D01*
X60491227Y-30204782D01*
X60331452Y-30173000D01*
X60168548Y-30173000D01*
X60127000Y-30181265D01*
X60127000Y-28918548D01*
X72923000Y-28918548D01*
X72923000Y-29081452D01*
X72954782Y-29241227D01*
X73017123Y-29391731D01*
X73107628Y-29527181D01*
X73222819Y-29642372D01*
X73358269Y-29732877D01*
X73508773Y-29795218D01*
X73668548Y-29827000D01*
X73831452Y-29827000D01*
X73991227Y-29795218D01*
X74141731Y-29732877D01*
X74277181Y-29642372D01*
X74392372Y-29527181D01*
X74479476Y-29396820D01*
X74608269Y-29482877D01*
X74758773Y-29545218D01*
X74918548Y-29577000D01*
X75081452Y-29577000D01*
X75241227Y-29545218D01*
X75391731Y-29482877D01*
X75527181Y-29392372D01*
X75642372Y-29277181D01*
X75732877Y-29141731D01*
X75795218Y-28991227D01*
X75827000Y-28831452D01*
X75827000Y-28668548D01*
X75801729Y-28541502D01*
X79050046Y-28541502D01*
X79050046Y-28704406D01*
X79081828Y-28864181D01*
X79144169Y-29014685D01*
X79234674Y-29150135D01*
X79349865Y-29265326D01*
X79485315Y-29355831D01*
X79635819Y-29418172D01*
X79795594Y-29449954D01*
X79958498Y-29449954D01*
X80118273Y-29418172D01*
X80268777Y-29355831D01*
X80404227Y-29265326D01*
X80519418Y-29150135D01*
X80609923Y-29014685D01*
X80672264Y-28864181D01*
X80704046Y-28704406D01*
X80704046Y-28541502D01*
X80672264Y-28381727D01*
X80632888Y-28286665D01*
X80642372Y-28277181D01*
X80732877Y-28141731D01*
X80795218Y-27991227D01*
X80827000Y-27831452D01*
X80827000Y-27668548D01*
X80795218Y-27508773D01*
X80732877Y-27358269D01*
X80642372Y-27222819D01*
X80527181Y-27107628D01*
X80391731Y-27017123D01*
X80241227Y-26954782D01*
X80081452Y-26923000D01*
X79918548Y-26923000D01*
X79758773Y-26954782D01*
X79608269Y-27017123D01*
X79472819Y-27107628D01*
X79357628Y-27222819D01*
X79267123Y-27358269D01*
X79204782Y-27508773D01*
X79173000Y-27668548D01*
X79173000Y-27831452D01*
X79204782Y-27991227D01*
X79244158Y-28086289D01*
X79234674Y-28095773D01*
X79144169Y-28231223D01*
X79081828Y-28381727D01*
X79050046Y-28541502D01*
X75801729Y-28541502D01*
X75795218Y-28508773D01*
X75732877Y-28358269D01*
X75642372Y-28222819D01*
X75527181Y-28107628D01*
X75391731Y-28017123D01*
X75241227Y-27954782D01*
X75081452Y-27923000D01*
X74918548Y-27923000D01*
X74758773Y-27954782D01*
X74608269Y-28017123D01*
X74472819Y-28107628D01*
X74357628Y-28222819D01*
X74270524Y-28353180D01*
X74141731Y-28267123D01*
X73991227Y-28204782D01*
X73831452Y-28173000D01*
X73668548Y-28173000D01*
X73508773Y-28204782D01*
X73358269Y-28267123D01*
X73222819Y-28357628D01*
X73107628Y-28472819D01*
X73017123Y-28608269D01*
X72954782Y-28758773D01*
X72923000Y-28918548D01*
X60127000Y-28918548D01*
X60127000Y-27490636D01*
X60258773Y-27545218D01*
X60418548Y-27577000D01*
X60581452Y-27577000D01*
X60741227Y-27545218D01*
X60891731Y-27482877D01*
X61019917Y-27397225D01*
X69923000Y-27397225D01*
X69923000Y-27560129D01*
X69954782Y-27719904D01*
X70017123Y-27870408D01*
X70107628Y-28005858D01*
X70222819Y-28121049D01*
X70358269Y-28211554D01*
X70508773Y-28273895D01*
X70668548Y-28305677D01*
X70831452Y-28305677D01*
X70991227Y-28273895D01*
X71141731Y-28211554D01*
X71277181Y-28121049D01*
X71392372Y-28005858D01*
X71482877Y-27870408D01*
X71545218Y-27719904D01*
X71577000Y-27560129D01*
X71577000Y-27397225D01*
X71545218Y-27237450D01*
X71482877Y-27086946D01*
X71392372Y-26951496D01*
X71277181Y-26836305D01*
X71141731Y-26745800D01*
X70991227Y-26683459D01*
X70831452Y-26651677D01*
X70668548Y-26651677D01*
X70508773Y-26683459D01*
X70358269Y-26745800D01*
X70222819Y-26836305D01*
X70107628Y-26951496D01*
X70017123Y-27086946D01*
X69954782Y-27237450D01*
X69923000Y-27397225D01*
X61019917Y-27397225D01*
X61027181Y-27392372D01*
X61142372Y-27277181D01*
X61232877Y-27141731D01*
X61295218Y-26991227D01*
X61327000Y-26831452D01*
X61327000Y-26668548D01*
X61295218Y-26508773D01*
X61232877Y-26358269D01*
X61142372Y-26222819D01*
X61027181Y-26107628D01*
X60891731Y-26017123D01*
X60850393Y-26000000D01*
X60891731Y-25982877D01*
X61027181Y-25892372D01*
X61142372Y-25777181D01*
X61232877Y-25641731D01*
X61295218Y-25491227D01*
X61309675Y-25418548D01*
X62923000Y-25418548D01*
X62923000Y-25581452D01*
X62954782Y-25741227D01*
X63017123Y-25891731D01*
X63107628Y-26027181D01*
X63222819Y-26142372D01*
X63358269Y-26232877D01*
X63508773Y-26295218D01*
X63668548Y-26327000D01*
X63831452Y-26327000D01*
X63991227Y-26295218D01*
X64141731Y-26232877D01*
X64277181Y-26142372D01*
X64392372Y-26027181D01*
X64482877Y-25891731D01*
X64545218Y-25741227D01*
X64577000Y-25581452D01*
X64577000Y-25418548D01*
X64545218Y-25258773D01*
X64482877Y-25108269D01*
X64392372Y-24972819D01*
X64277181Y-24857628D01*
X64141731Y-24767123D01*
X63991227Y-24704782D01*
X63831452Y-24673000D01*
X63668548Y-24673000D01*
X63508773Y-24704782D01*
X63358269Y-24767123D01*
X63222819Y-24857628D01*
X63107628Y-24972819D01*
X63017123Y-25108269D01*
X62954782Y-25258773D01*
X62923000Y-25418548D01*
X61309675Y-25418548D01*
X61327000Y-25331452D01*
X61327000Y-25168548D01*
X61295218Y-25008773D01*
X61232877Y-24858269D01*
X61160534Y-24750000D01*
X61232877Y-24641731D01*
X61295218Y-24491227D01*
X61327000Y-24331452D01*
X61327000Y-24168548D01*
X61295218Y-24008773D01*
X61232877Y-23858269D01*
X61173896Y-23769998D01*
X61232877Y-23681728D01*
X61295218Y-23531224D01*
X61327000Y-23371449D01*
X61327000Y-23208545D01*
X61295218Y-23048770D01*
X61232877Y-22898266D01*
X61142372Y-22762816D01*
X61027181Y-22647625D01*
X60891731Y-22557120D01*
X60741227Y-22494779D01*
X60581452Y-22462997D01*
X60418548Y-22462997D01*
X60258773Y-22494779D01*
X60127000Y-22549361D01*
X60127000Y-21052606D01*
X60552606Y-20627000D01*
X66197394Y-20627000D01*
X66623000Y-21052606D01*
G37*
%TD.AperFunction*%
M02*
