G04 #@! TF.GenerationSoftware,KiCad,Pcbnew,5.1.6*
G04 #@! TF.CreationDate,2020-10-02T22:43:04+02:00*
G04 #@! TF.ProjectId,epaper-breakout,65706170-6572-42d6-9272-65616b6f7574,rev?*
G04 #@! TF.SameCoordinates,Original*
G04 #@! TF.FileFunction,Soldermask,Bot*
G04 #@! TF.FilePolarity,Negative*
%FSLAX46Y46*%
G04 Gerber Fmt 4.6, Leading zero omitted, Abs format (unit mm)*
G04 Created by KiCad (PCBNEW 5.1.6) date 2020-10-02 22:43:04*
%MOMM*%
%LPD*%
G01*
G04 APERTURE LIST*
%ADD10C,0.100000*%
G04 APERTURE END LIST*
D10*
G36*
X30601000Y-49601000D02*
G01*
X28799000Y-49601000D01*
X28799000Y-47799000D01*
X30601000Y-47799000D01*
X30601000Y-49601000D01*
G37*
G36*
X27273512Y-47803927D02*
G01*
X27422812Y-47833624D01*
X27586784Y-47901544D01*
X27734354Y-48000147D01*
X27859853Y-48125646D01*
X27958456Y-48273216D01*
X28026376Y-48437188D01*
X28061000Y-48611259D01*
X28061000Y-48788741D01*
X28026376Y-48962812D01*
X27958456Y-49126784D01*
X27859853Y-49274354D01*
X27734354Y-49399853D01*
X27586784Y-49498456D01*
X27422812Y-49566376D01*
X27273512Y-49596073D01*
X27248742Y-49601000D01*
X27071258Y-49601000D01*
X27046488Y-49596073D01*
X26897188Y-49566376D01*
X26733216Y-49498456D01*
X26585646Y-49399853D01*
X26460147Y-49274354D01*
X26361544Y-49126784D01*
X26293624Y-48962812D01*
X26259000Y-48788741D01*
X26259000Y-48611259D01*
X26293624Y-48437188D01*
X26361544Y-48273216D01*
X26460147Y-48125646D01*
X26585646Y-48000147D01*
X26733216Y-47901544D01*
X26897188Y-47833624D01*
X27046488Y-47803927D01*
X27071258Y-47799000D01*
X27248742Y-47799000D01*
X27273512Y-47803927D01*
G37*
G36*
X111624549Y-46071116D02*
G01*
X111735734Y-46093232D01*
X111945203Y-46179997D01*
X112133720Y-46305960D01*
X112294040Y-46466280D01*
X112420003Y-46654797D01*
X112506768Y-46864266D01*
X112551000Y-47086636D01*
X112551000Y-47313364D01*
X112506768Y-47535734D01*
X112420003Y-47745203D01*
X112294040Y-47933720D01*
X112133720Y-48094040D01*
X111945203Y-48220003D01*
X111735734Y-48306768D01*
X111624549Y-48328884D01*
X111513365Y-48351000D01*
X111286635Y-48351000D01*
X111175451Y-48328884D01*
X111064266Y-48306768D01*
X110854797Y-48220003D01*
X110666280Y-48094040D01*
X110505960Y-47933720D01*
X110379997Y-47745203D01*
X110293232Y-47535734D01*
X110249000Y-47313364D01*
X110249000Y-47086636D01*
X110293232Y-46864266D01*
X110379997Y-46654797D01*
X110505960Y-46466280D01*
X110666280Y-46305960D01*
X110854797Y-46179997D01*
X111064266Y-46093232D01*
X111175451Y-46071116D01*
X111286635Y-46049000D01*
X111513365Y-46049000D01*
X111624549Y-46071116D01*
G37*
G36*
X29813512Y-45263927D02*
G01*
X29962812Y-45293624D01*
X30126784Y-45361544D01*
X30274354Y-45460147D01*
X30399853Y-45585646D01*
X30498456Y-45733216D01*
X30566376Y-45897188D01*
X30601000Y-46071259D01*
X30601000Y-46248741D01*
X30566376Y-46422812D01*
X30498456Y-46586784D01*
X30399853Y-46734354D01*
X30274354Y-46859853D01*
X30126784Y-46958456D01*
X29962812Y-47026376D01*
X29813512Y-47056073D01*
X29788742Y-47061000D01*
X29611258Y-47061000D01*
X29586488Y-47056073D01*
X29437188Y-47026376D01*
X29273216Y-46958456D01*
X29125646Y-46859853D01*
X29000147Y-46734354D01*
X28901544Y-46586784D01*
X28833624Y-46422812D01*
X28799000Y-46248741D01*
X28799000Y-46071259D01*
X28833624Y-45897188D01*
X28901544Y-45733216D01*
X29000147Y-45585646D01*
X29125646Y-45460147D01*
X29273216Y-45361544D01*
X29437188Y-45293624D01*
X29586488Y-45263927D01*
X29611258Y-45259000D01*
X29788742Y-45259000D01*
X29813512Y-45263927D01*
G37*
G36*
X27273512Y-45263927D02*
G01*
X27422812Y-45293624D01*
X27586784Y-45361544D01*
X27734354Y-45460147D01*
X27859853Y-45585646D01*
X27958456Y-45733216D01*
X28026376Y-45897188D01*
X28061000Y-46071259D01*
X28061000Y-46248741D01*
X28026376Y-46422812D01*
X27958456Y-46586784D01*
X27859853Y-46734354D01*
X27734354Y-46859853D01*
X27586784Y-46958456D01*
X27422812Y-47026376D01*
X27273512Y-47056073D01*
X27248742Y-47061000D01*
X27071258Y-47061000D01*
X27046488Y-47056073D01*
X26897188Y-47026376D01*
X26733216Y-46958456D01*
X26585646Y-46859853D01*
X26460147Y-46734354D01*
X26361544Y-46586784D01*
X26293624Y-46422812D01*
X26259000Y-46248741D01*
X26259000Y-46071259D01*
X26293624Y-45897188D01*
X26361544Y-45733216D01*
X26460147Y-45585646D01*
X26585646Y-45460147D01*
X26733216Y-45361544D01*
X26897188Y-45293624D01*
X27046488Y-45263927D01*
X27071258Y-45259000D01*
X27248742Y-45259000D01*
X27273512Y-45263927D01*
G37*
G36*
X29813512Y-42723927D02*
G01*
X29962812Y-42753624D01*
X30126784Y-42821544D01*
X30274354Y-42920147D01*
X30399853Y-43045646D01*
X30498456Y-43193216D01*
X30566376Y-43357188D01*
X30601000Y-43531259D01*
X30601000Y-43708741D01*
X30566376Y-43882812D01*
X30498456Y-44046784D01*
X30399853Y-44194354D01*
X30274354Y-44319853D01*
X30126784Y-44418456D01*
X29962812Y-44486376D01*
X29813512Y-44516073D01*
X29788742Y-44521000D01*
X29611258Y-44521000D01*
X29586488Y-44516073D01*
X29437188Y-44486376D01*
X29273216Y-44418456D01*
X29125646Y-44319853D01*
X29000147Y-44194354D01*
X28901544Y-44046784D01*
X28833624Y-43882812D01*
X28799000Y-43708741D01*
X28799000Y-43531259D01*
X28833624Y-43357188D01*
X28901544Y-43193216D01*
X29000147Y-43045646D01*
X29125646Y-42920147D01*
X29273216Y-42821544D01*
X29437188Y-42753624D01*
X29586488Y-42723927D01*
X29611258Y-42719000D01*
X29788742Y-42719000D01*
X29813512Y-42723927D01*
G37*
G36*
X27273512Y-42723927D02*
G01*
X27422812Y-42753624D01*
X27586784Y-42821544D01*
X27734354Y-42920147D01*
X27859853Y-43045646D01*
X27958456Y-43193216D01*
X28026376Y-43357188D01*
X28061000Y-43531259D01*
X28061000Y-43708741D01*
X28026376Y-43882812D01*
X27958456Y-44046784D01*
X27859853Y-44194354D01*
X27734354Y-44319853D01*
X27586784Y-44418456D01*
X27422812Y-44486376D01*
X27273512Y-44516073D01*
X27248742Y-44521000D01*
X27071258Y-44521000D01*
X27046488Y-44516073D01*
X26897188Y-44486376D01*
X26733216Y-44418456D01*
X26585646Y-44319853D01*
X26460147Y-44194354D01*
X26361544Y-44046784D01*
X26293624Y-43882812D01*
X26259000Y-43708741D01*
X26259000Y-43531259D01*
X26293624Y-43357188D01*
X26361544Y-43193216D01*
X26460147Y-43045646D01*
X26585646Y-42920147D01*
X26733216Y-42821544D01*
X26897188Y-42753624D01*
X27046488Y-42723927D01*
X27071258Y-42719000D01*
X27248742Y-42719000D01*
X27273512Y-42723927D01*
G37*
G36*
X120328200Y-30939401D02*
G01*
X120330602Y-30963787D01*
X120337715Y-30987236D01*
X120349266Y-31008847D01*
X120364811Y-31027789D01*
X120383753Y-31043334D01*
X120405364Y-31054885D01*
X120428813Y-31061998D01*
X120453199Y-31064400D01*
X120528200Y-31064400D01*
X120528200Y-42866400D01*
X120453199Y-42866400D01*
X120428813Y-42868802D01*
X120405364Y-42875915D01*
X120383753Y-42887466D01*
X120364811Y-42903011D01*
X120349266Y-42921953D01*
X120337715Y-42943564D01*
X120330602Y-42967013D01*
X120328200Y-42991399D01*
X120328200Y-43616400D01*
X119276200Y-43616400D01*
X119276200Y-43114400D01*
X119501201Y-43114400D01*
X119525587Y-43111998D01*
X119549036Y-43104885D01*
X119570647Y-43093334D01*
X119589589Y-43077789D01*
X119605134Y-43058847D01*
X119616685Y-43037236D01*
X119623798Y-43013787D01*
X119626200Y-42989401D01*
X119626200Y-30941399D01*
X119623798Y-30917013D01*
X119616685Y-30893564D01*
X119605134Y-30871953D01*
X119589589Y-30853011D01*
X119570647Y-30837466D01*
X119549036Y-30825915D01*
X119525587Y-30818802D01*
X119501201Y-30816400D01*
X119276200Y-30816400D01*
X119276200Y-30314400D01*
X120328200Y-30314400D01*
X120328200Y-30939401D01*
G37*
G36*
X117578200Y-42566400D02*
G01*
X116826200Y-42566400D01*
X116826200Y-31364400D01*
X117578200Y-31364400D01*
X117578200Y-42566400D01*
G37*
G36*
X29813512Y-40183927D02*
G01*
X29962812Y-40213624D01*
X30126784Y-40281544D01*
X30274354Y-40380147D01*
X30399853Y-40505646D01*
X30498456Y-40653216D01*
X30566376Y-40817188D01*
X30601000Y-40991259D01*
X30601000Y-41168741D01*
X30566376Y-41342812D01*
X30498456Y-41506784D01*
X30399853Y-41654354D01*
X30274354Y-41779853D01*
X30126784Y-41878456D01*
X29962812Y-41946376D01*
X29813512Y-41976073D01*
X29788742Y-41981000D01*
X29611258Y-41981000D01*
X29586488Y-41976073D01*
X29437188Y-41946376D01*
X29273216Y-41878456D01*
X29125646Y-41779853D01*
X29000147Y-41654354D01*
X28901544Y-41506784D01*
X28833624Y-41342812D01*
X28799000Y-41168741D01*
X28799000Y-40991259D01*
X28833624Y-40817188D01*
X28901544Y-40653216D01*
X29000147Y-40505646D01*
X29125646Y-40380147D01*
X29273216Y-40281544D01*
X29437188Y-40213624D01*
X29586488Y-40183927D01*
X29611258Y-40179000D01*
X29788742Y-40179000D01*
X29813512Y-40183927D01*
G37*
G36*
X27273512Y-40183927D02*
G01*
X27422812Y-40213624D01*
X27586784Y-40281544D01*
X27734354Y-40380147D01*
X27859853Y-40505646D01*
X27958456Y-40653216D01*
X28026376Y-40817188D01*
X28061000Y-40991259D01*
X28061000Y-41168741D01*
X28026376Y-41342812D01*
X27958456Y-41506784D01*
X27859853Y-41654354D01*
X27734354Y-41779853D01*
X27586784Y-41878456D01*
X27422812Y-41946376D01*
X27273512Y-41976073D01*
X27248742Y-41981000D01*
X27071258Y-41981000D01*
X27046488Y-41976073D01*
X26897188Y-41946376D01*
X26733216Y-41878456D01*
X26585646Y-41779853D01*
X26460147Y-41654354D01*
X26361544Y-41506784D01*
X26293624Y-41342812D01*
X26259000Y-41168741D01*
X26259000Y-40991259D01*
X26293624Y-40817188D01*
X26361544Y-40653216D01*
X26460147Y-40505646D01*
X26585646Y-40380147D01*
X26733216Y-40281544D01*
X26897188Y-40213624D01*
X27046488Y-40183927D01*
X27071258Y-40179000D01*
X27248742Y-40179000D01*
X27273512Y-40183927D01*
G37*
G36*
X82210752Y-35693731D02*
G01*
X82292827Y-35727728D01*
X82292829Y-35727729D01*
X82330013Y-35752575D01*
X82366695Y-35777085D01*
X82429516Y-35839906D01*
X82475267Y-35908377D01*
X82490813Y-35927319D01*
X82509755Y-35942864D01*
X82531365Y-35954415D01*
X82554814Y-35961528D01*
X82579200Y-35963930D01*
X82603586Y-35961528D01*
X82627035Y-35954415D01*
X82648646Y-35942864D01*
X82667588Y-35927318D01*
X82683133Y-35908377D01*
X82728884Y-35839906D01*
X82791705Y-35777085D01*
X82828387Y-35752575D01*
X82865571Y-35727729D01*
X82865573Y-35727728D01*
X82947648Y-35693731D01*
X83034779Y-35676400D01*
X83123621Y-35676400D01*
X83210752Y-35693731D01*
X83292827Y-35727728D01*
X83292829Y-35727729D01*
X83330013Y-35752575D01*
X83366695Y-35777085D01*
X83429516Y-35839906D01*
X83475267Y-35908377D01*
X83490813Y-35927319D01*
X83509755Y-35942864D01*
X83531365Y-35954415D01*
X83554814Y-35961528D01*
X83579200Y-35963930D01*
X83603586Y-35961528D01*
X83627035Y-35954415D01*
X83648646Y-35942864D01*
X83667588Y-35927318D01*
X83683133Y-35908377D01*
X83728884Y-35839906D01*
X83791705Y-35777085D01*
X83828387Y-35752575D01*
X83865571Y-35727729D01*
X83865573Y-35727728D01*
X83947648Y-35693731D01*
X84034779Y-35676400D01*
X84123621Y-35676400D01*
X84210752Y-35693731D01*
X84292827Y-35727728D01*
X84292829Y-35727729D01*
X84330013Y-35752575D01*
X84366695Y-35777085D01*
X84429516Y-35839906D01*
X84475267Y-35908377D01*
X84490813Y-35927319D01*
X84509755Y-35942864D01*
X84531365Y-35954415D01*
X84554814Y-35961528D01*
X84579200Y-35963930D01*
X84603586Y-35961528D01*
X84627035Y-35954415D01*
X84648646Y-35942864D01*
X84667588Y-35927318D01*
X84683133Y-35908377D01*
X84728884Y-35839906D01*
X84791705Y-35777085D01*
X84828387Y-35752575D01*
X84865571Y-35727729D01*
X84865573Y-35727728D01*
X84947648Y-35693731D01*
X85034779Y-35676400D01*
X85123621Y-35676400D01*
X85210752Y-35693731D01*
X85292827Y-35727728D01*
X85292829Y-35727729D01*
X85330013Y-35752575D01*
X85366695Y-35777085D01*
X85429516Y-35839906D01*
X85475267Y-35908377D01*
X85490813Y-35927319D01*
X85509755Y-35942864D01*
X85531365Y-35954415D01*
X85554814Y-35961528D01*
X85579200Y-35963930D01*
X85603586Y-35961528D01*
X85627035Y-35954415D01*
X85648646Y-35942864D01*
X85667588Y-35927318D01*
X85683133Y-35908377D01*
X85728884Y-35839906D01*
X85791705Y-35777085D01*
X85828387Y-35752575D01*
X85865571Y-35727729D01*
X85865573Y-35727728D01*
X85947648Y-35693731D01*
X86034779Y-35676400D01*
X86123621Y-35676400D01*
X86210752Y-35693731D01*
X86292827Y-35727728D01*
X86292829Y-35727729D01*
X86330013Y-35752575D01*
X86366695Y-35777085D01*
X86429515Y-35839905D01*
X86445882Y-35864400D01*
X86477193Y-35911259D01*
X86478872Y-35913773D01*
X86512869Y-35995848D01*
X86530200Y-36082979D01*
X86530200Y-36171821D01*
X86512869Y-36258952D01*
X86478872Y-36341027D01*
X86429515Y-36414895D01*
X86366694Y-36477716D01*
X86298223Y-36523467D01*
X86279281Y-36539013D01*
X86263736Y-36557955D01*
X86252185Y-36579565D01*
X86245072Y-36603014D01*
X86242670Y-36627400D01*
X86245072Y-36651786D01*
X86252185Y-36675235D01*
X86263736Y-36696846D01*
X86279282Y-36715788D01*
X86298223Y-36731333D01*
X86366694Y-36777084D01*
X86429515Y-36839905D01*
X86447202Y-36866375D01*
X86470338Y-36901000D01*
X86478872Y-36913773D01*
X86512869Y-36995848D01*
X86530200Y-37082979D01*
X86530200Y-37171821D01*
X86512869Y-37258952D01*
X86478872Y-37341027D01*
X86429515Y-37414895D01*
X86366694Y-37477716D01*
X86298223Y-37523467D01*
X86279281Y-37539013D01*
X86263736Y-37557955D01*
X86252185Y-37579565D01*
X86245072Y-37603014D01*
X86242670Y-37627400D01*
X86245072Y-37651786D01*
X86252185Y-37675235D01*
X86263736Y-37696846D01*
X86279282Y-37715788D01*
X86298223Y-37731333D01*
X86366694Y-37777084D01*
X86429515Y-37839905D01*
X86478872Y-37913773D01*
X86512869Y-37995848D01*
X86530200Y-38082979D01*
X86530200Y-38171821D01*
X86512869Y-38258952D01*
X86478872Y-38341027D01*
X86429515Y-38414895D01*
X86366694Y-38477716D01*
X86298223Y-38523467D01*
X86279281Y-38539013D01*
X86263736Y-38557955D01*
X86252185Y-38579565D01*
X86245072Y-38603014D01*
X86242670Y-38627400D01*
X86245072Y-38651786D01*
X86252185Y-38675235D01*
X86263736Y-38696846D01*
X86279282Y-38715788D01*
X86298223Y-38731333D01*
X86366694Y-38777084D01*
X86429515Y-38839905D01*
X86478872Y-38913773D01*
X86512869Y-38995848D01*
X86530200Y-39082979D01*
X86530200Y-39171821D01*
X86512869Y-39258952D01*
X86478872Y-39341027D01*
X86429515Y-39414895D01*
X86366694Y-39477716D01*
X86298223Y-39523467D01*
X86279281Y-39539013D01*
X86263736Y-39557955D01*
X86252185Y-39579565D01*
X86245072Y-39603014D01*
X86242670Y-39627400D01*
X86245072Y-39651786D01*
X86252185Y-39675235D01*
X86263736Y-39696846D01*
X86279282Y-39715788D01*
X86298223Y-39731333D01*
X86366694Y-39777084D01*
X86429515Y-39839905D01*
X86478872Y-39913773D01*
X86512869Y-39995848D01*
X86530200Y-40082979D01*
X86530200Y-40171821D01*
X86512869Y-40258952D01*
X86478872Y-40341027D01*
X86429516Y-40414894D01*
X86366696Y-40477714D01*
X86292829Y-40527071D01*
X86292828Y-40527072D01*
X86292827Y-40527072D01*
X86210752Y-40561069D01*
X86123621Y-40578400D01*
X86034779Y-40578400D01*
X85947648Y-40561069D01*
X85865573Y-40527072D01*
X85865572Y-40527072D01*
X85865571Y-40527071D01*
X85791704Y-40477714D01*
X85728884Y-40414894D01*
X85683133Y-40346423D01*
X85667587Y-40327481D01*
X85648645Y-40311936D01*
X85627035Y-40300385D01*
X85603586Y-40293272D01*
X85579200Y-40290870D01*
X85554814Y-40293272D01*
X85531365Y-40300385D01*
X85509754Y-40311936D01*
X85490812Y-40327482D01*
X85475267Y-40346423D01*
X85429516Y-40414894D01*
X85366696Y-40477714D01*
X85292829Y-40527071D01*
X85292828Y-40527072D01*
X85292827Y-40527072D01*
X85210752Y-40561069D01*
X85123621Y-40578400D01*
X85034779Y-40578400D01*
X84947648Y-40561069D01*
X84865573Y-40527072D01*
X84865572Y-40527072D01*
X84865571Y-40527071D01*
X84791704Y-40477714D01*
X84728884Y-40414894D01*
X84683133Y-40346423D01*
X84667587Y-40327481D01*
X84648645Y-40311936D01*
X84627035Y-40300385D01*
X84603586Y-40293272D01*
X84579200Y-40290870D01*
X84554814Y-40293272D01*
X84531365Y-40300385D01*
X84509754Y-40311936D01*
X84490812Y-40327482D01*
X84475267Y-40346423D01*
X84429516Y-40414894D01*
X84366696Y-40477714D01*
X84292829Y-40527071D01*
X84292828Y-40527072D01*
X84292827Y-40527072D01*
X84210752Y-40561069D01*
X84123621Y-40578400D01*
X84034779Y-40578400D01*
X83947648Y-40561069D01*
X83865573Y-40527072D01*
X83865572Y-40527072D01*
X83865571Y-40527071D01*
X83791704Y-40477714D01*
X83728884Y-40414894D01*
X83683133Y-40346423D01*
X83667587Y-40327481D01*
X83648645Y-40311936D01*
X83627035Y-40300385D01*
X83603586Y-40293272D01*
X83579200Y-40290870D01*
X83554814Y-40293272D01*
X83531365Y-40300385D01*
X83509754Y-40311936D01*
X83490812Y-40327482D01*
X83475267Y-40346423D01*
X83429516Y-40414894D01*
X83366696Y-40477714D01*
X83292829Y-40527071D01*
X83292828Y-40527072D01*
X83292827Y-40527072D01*
X83210752Y-40561069D01*
X83123621Y-40578400D01*
X83034779Y-40578400D01*
X82947648Y-40561069D01*
X82865573Y-40527072D01*
X82865572Y-40527072D01*
X82865571Y-40527071D01*
X82791704Y-40477714D01*
X82728884Y-40414894D01*
X82683133Y-40346423D01*
X82667587Y-40327481D01*
X82648645Y-40311936D01*
X82627035Y-40300385D01*
X82603586Y-40293272D01*
X82579200Y-40290870D01*
X82554814Y-40293272D01*
X82531365Y-40300385D01*
X82509754Y-40311936D01*
X82490812Y-40327482D01*
X82475267Y-40346423D01*
X82429516Y-40414894D01*
X82366696Y-40477714D01*
X82292829Y-40527071D01*
X82292828Y-40527072D01*
X82292827Y-40527072D01*
X82210752Y-40561069D01*
X82123621Y-40578400D01*
X82034779Y-40578400D01*
X81947648Y-40561069D01*
X81865573Y-40527072D01*
X81865572Y-40527072D01*
X81865571Y-40527071D01*
X81791704Y-40477714D01*
X81728886Y-40414896D01*
X81728885Y-40414894D01*
X81679528Y-40341027D01*
X81645531Y-40258952D01*
X81628200Y-40171821D01*
X81628200Y-40082979D01*
X81645531Y-39995848D01*
X81679528Y-39913773D01*
X81728885Y-39839905D01*
X81791706Y-39777084D01*
X81860177Y-39731333D01*
X81879119Y-39715787D01*
X81894664Y-39696845D01*
X81906215Y-39675235D01*
X81913328Y-39651786D01*
X81915730Y-39627400D01*
X82242670Y-39627400D01*
X82245072Y-39651786D01*
X82252185Y-39675235D01*
X82263736Y-39696846D01*
X82279282Y-39715788D01*
X82298223Y-39731333D01*
X82366694Y-39777084D01*
X82429516Y-39839906D01*
X82475267Y-39908377D01*
X82490813Y-39927319D01*
X82509755Y-39942864D01*
X82531365Y-39954415D01*
X82554814Y-39961528D01*
X82579200Y-39963930D01*
X82603586Y-39961528D01*
X82627035Y-39954415D01*
X82648646Y-39942864D01*
X82667588Y-39927318D01*
X82683133Y-39908377D01*
X82728884Y-39839906D01*
X82791706Y-39777084D01*
X82860177Y-39731333D01*
X82879119Y-39715787D01*
X82894664Y-39696845D01*
X82906215Y-39675235D01*
X82913328Y-39651786D01*
X82915730Y-39627400D01*
X83242670Y-39627400D01*
X83245072Y-39651786D01*
X83252185Y-39675235D01*
X83263736Y-39696846D01*
X83279282Y-39715788D01*
X83298223Y-39731333D01*
X83366694Y-39777084D01*
X83429516Y-39839906D01*
X83475267Y-39908377D01*
X83490813Y-39927319D01*
X83509755Y-39942864D01*
X83531365Y-39954415D01*
X83554814Y-39961528D01*
X83579200Y-39963930D01*
X83603586Y-39961528D01*
X83627035Y-39954415D01*
X83648646Y-39942864D01*
X83667588Y-39927318D01*
X83683133Y-39908377D01*
X83728884Y-39839906D01*
X83791706Y-39777084D01*
X83860177Y-39731333D01*
X83879119Y-39715787D01*
X83894664Y-39696845D01*
X83906215Y-39675235D01*
X83913328Y-39651786D01*
X83915730Y-39627400D01*
X84242670Y-39627400D01*
X84245072Y-39651786D01*
X84252185Y-39675235D01*
X84263736Y-39696846D01*
X84279282Y-39715788D01*
X84298223Y-39731333D01*
X84366694Y-39777084D01*
X84429516Y-39839906D01*
X84475267Y-39908377D01*
X84490813Y-39927319D01*
X84509755Y-39942864D01*
X84531365Y-39954415D01*
X84554814Y-39961528D01*
X84579200Y-39963930D01*
X84603586Y-39961528D01*
X84627035Y-39954415D01*
X84648646Y-39942864D01*
X84667588Y-39927318D01*
X84683133Y-39908377D01*
X84728884Y-39839906D01*
X84791706Y-39777084D01*
X84860177Y-39731333D01*
X84879119Y-39715787D01*
X84894664Y-39696845D01*
X84906215Y-39675235D01*
X84913328Y-39651786D01*
X84915730Y-39627400D01*
X85242670Y-39627400D01*
X85245072Y-39651786D01*
X85252185Y-39675235D01*
X85263736Y-39696846D01*
X85279282Y-39715788D01*
X85298223Y-39731333D01*
X85366694Y-39777084D01*
X85429516Y-39839906D01*
X85475267Y-39908377D01*
X85490813Y-39927319D01*
X85509755Y-39942864D01*
X85531365Y-39954415D01*
X85554814Y-39961528D01*
X85579200Y-39963930D01*
X85603586Y-39961528D01*
X85627035Y-39954415D01*
X85648646Y-39942864D01*
X85667588Y-39927318D01*
X85683133Y-39908377D01*
X85728884Y-39839906D01*
X85791706Y-39777084D01*
X85860177Y-39731333D01*
X85879119Y-39715787D01*
X85894664Y-39696845D01*
X85906215Y-39675235D01*
X85913328Y-39651786D01*
X85915730Y-39627400D01*
X85913328Y-39603014D01*
X85906215Y-39579565D01*
X85894664Y-39557954D01*
X85879118Y-39539012D01*
X85860177Y-39523467D01*
X85791706Y-39477716D01*
X85728884Y-39414894D01*
X85683133Y-39346423D01*
X85667587Y-39327481D01*
X85648645Y-39311936D01*
X85627035Y-39300385D01*
X85603586Y-39293272D01*
X85579200Y-39290870D01*
X85554814Y-39293272D01*
X85531365Y-39300385D01*
X85509754Y-39311936D01*
X85490812Y-39327482D01*
X85475267Y-39346423D01*
X85429516Y-39414894D01*
X85366694Y-39477716D01*
X85298223Y-39523467D01*
X85279281Y-39539013D01*
X85263736Y-39557955D01*
X85252185Y-39579565D01*
X85245072Y-39603014D01*
X85242670Y-39627400D01*
X84915730Y-39627400D01*
X84913328Y-39603014D01*
X84906215Y-39579565D01*
X84894664Y-39557954D01*
X84879118Y-39539012D01*
X84860177Y-39523467D01*
X84791706Y-39477716D01*
X84728884Y-39414894D01*
X84683133Y-39346423D01*
X84667587Y-39327481D01*
X84648645Y-39311936D01*
X84627035Y-39300385D01*
X84603586Y-39293272D01*
X84579200Y-39290870D01*
X84554814Y-39293272D01*
X84531365Y-39300385D01*
X84509754Y-39311936D01*
X84490812Y-39327482D01*
X84475267Y-39346423D01*
X84429516Y-39414894D01*
X84366694Y-39477716D01*
X84298223Y-39523467D01*
X84279281Y-39539013D01*
X84263736Y-39557955D01*
X84252185Y-39579565D01*
X84245072Y-39603014D01*
X84242670Y-39627400D01*
X83915730Y-39627400D01*
X83913328Y-39603014D01*
X83906215Y-39579565D01*
X83894664Y-39557954D01*
X83879118Y-39539012D01*
X83860177Y-39523467D01*
X83791706Y-39477716D01*
X83728884Y-39414894D01*
X83683133Y-39346423D01*
X83667587Y-39327481D01*
X83648645Y-39311936D01*
X83627035Y-39300385D01*
X83603586Y-39293272D01*
X83579200Y-39290870D01*
X83554814Y-39293272D01*
X83531365Y-39300385D01*
X83509754Y-39311936D01*
X83490812Y-39327482D01*
X83475267Y-39346423D01*
X83429516Y-39414894D01*
X83366694Y-39477716D01*
X83298223Y-39523467D01*
X83279281Y-39539013D01*
X83263736Y-39557955D01*
X83252185Y-39579565D01*
X83245072Y-39603014D01*
X83242670Y-39627400D01*
X82915730Y-39627400D01*
X82913328Y-39603014D01*
X82906215Y-39579565D01*
X82894664Y-39557954D01*
X82879118Y-39539012D01*
X82860177Y-39523467D01*
X82791706Y-39477716D01*
X82728884Y-39414894D01*
X82683133Y-39346423D01*
X82667587Y-39327481D01*
X82648645Y-39311936D01*
X82627035Y-39300385D01*
X82603586Y-39293272D01*
X82579200Y-39290870D01*
X82554814Y-39293272D01*
X82531365Y-39300385D01*
X82509754Y-39311936D01*
X82490812Y-39327482D01*
X82475267Y-39346423D01*
X82429516Y-39414894D01*
X82366694Y-39477716D01*
X82298223Y-39523467D01*
X82279281Y-39539013D01*
X82263736Y-39557955D01*
X82252185Y-39579565D01*
X82245072Y-39603014D01*
X82242670Y-39627400D01*
X81915730Y-39627400D01*
X81913328Y-39603014D01*
X81906215Y-39579565D01*
X81894664Y-39557954D01*
X81879118Y-39539012D01*
X81860177Y-39523467D01*
X81791706Y-39477716D01*
X81728885Y-39414895D01*
X81679528Y-39341027D01*
X81645531Y-39258952D01*
X81628200Y-39171821D01*
X81628200Y-39082979D01*
X81645531Y-38995848D01*
X81679528Y-38913773D01*
X81728885Y-38839905D01*
X81791706Y-38777084D01*
X81860177Y-38731333D01*
X81879119Y-38715787D01*
X81894664Y-38696845D01*
X81906215Y-38675235D01*
X81913328Y-38651786D01*
X81915730Y-38627400D01*
X82242670Y-38627400D01*
X82245072Y-38651786D01*
X82252185Y-38675235D01*
X82263736Y-38696846D01*
X82279282Y-38715788D01*
X82298223Y-38731333D01*
X82366694Y-38777084D01*
X82429516Y-38839906D01*
X82475267Y-38908377D01*
X82490813Y-38927319D01*
X82509755Y-38942864D01*
X82531365Y-38954415D01*
X82554814Y-38961528D01*
X82579200Y-38963930D01*
X82603586Y-38961528D01*
X82627035Y-38954415D01*
X82648646Y-38942864D01*
X82667588Y-38927318D01*
X82683133Y-38908377D01*
X82728884Y-38839906D01*
X82791706Y-38777084D01*
X82860177Y-38731333D01*
X82879119Y-38715787D01*
X82894664Y-38696845D01*
X82906215Y-38675235D01*
X82913328Y-38651786D01*
X82915730Y-38627400D01*
X83242670Y-38627400D01*
X83245072Y-38651786D01*
X83252185Y-38675235D01*
X83263736Y-38696846D01*
X83279282Y-38715788D01*
X83298223Y-38731333D01*
X83366694Y-38777084D01*
X83429516Y-38839906D01*
X83475267Y-38908377D01*
X83490813Y-38927319D01*
X83509755Y-38942864D01*
X83531365Y-38954415D01*
X83554814Y-38961528D01*
X83579200Y-38963930D01*
X83603586Y-38961528D01*
X83627035Y-38954415D01*
X83648646Y-38942864D01*
X83667588Y-38927318D01*
X83683133Y-38908377D01*
X83728884Y-38839906D01*
X83791706Y-38777084D01*
X83860177Y-38731333D01*
X83879119Y-38715787D01*
X83894664Y-38696845D01*
X83906215Y-38675235D01*
X83913328Y-38651786D01*
X83915730Y-38627400D01*
X84242670Y-38627400D01*
X84245072Y-38651786D01*
X84252185Y-38675235D01*
X84263736Y-38696846D01*
X84279282Y-38715788D01*
X84298223Y-38731333D01*
X84366694Y-38777084D01*
X84429516Y-38839906D01*
X84475267Y-38908377D01*
X84490813Y-38927319D01*
X84509755Y-38942864D01*
X84531365Y-38954415D01*
X84554814Y-38961528D01*
X84579200Y-38963930D01*
X84603586Y-38961528D01*
X84627035Y-38954415D01*
X84648646Y-38942864D01*
X84667588Y-38927318D01*
X84683133Y-38908377D01*
X84728884Y-38839906D01*
X84791706Y-38777084D01*
X84860177Y-38731333D01*
X84879119Y-38715787D01*
X84894664Y-38696845D01*
X84906215Y-38675235D01*
X84913328Y-38651786D01*
X84915730Y-38627400D01*
X85242670Y-38627400D01*
X85245072Y-38651786D01*
X85252185Y-38675235D01*
X85263736Y-38696846D01*
X85279282Y-38715788D01*
X85298223Y-38731333D01*
X85366694Y-38777084D01*
X85429516Y-38839906D01*
X85475267Y-38908377D01*
X85490813Y-38927319D01*
X85509755Y-38942864D01*
X85531365Y-38954415D01*
X85554814Y-38961528D01*
X85579200Y-38963930D01*
X85603586Y-38961528D01*
X85627035Y-38954415D01*
X85648646Y-38942864D01*
X85667588Y-38927318D01*
X85683133Y-38908377D01*
X85728884Y-38839906D01*
X85791706Y-38777084D01*
X85860177Y-38731333D01*
X85879119Y-38715787D01*
X85894664Y-38696845D01*
X85906215Y-38675235D01*
X85913328Y-38651786D01*
X85915730Y-38627400D01*
X85913328Y-38603014D01*
X85906215Y-38579565D01*
X85894664Y-38557954D01*
X85879118Y-38539012D01*
X85860177Y-38523467D01*
X85791706Y-38477716D01*
X85728884Y-38414894D01*
X85683133Y-38346423D01*
X85667587Y-38327481D01*
X85648645Y-38311936D01*
X85627035Y-38300385D01*
X85603586Y-38293272D01*
X85579200Y-38290870D01*
X85554814Y-38293272D01*
X85531365Y-38300385D01*
X85509754Y-38311936D01*
X85490812Y-38327482D01*
X85475267Y-38346423D01*
X85429516Y-38414894D01*
X85366694Y-38477716D01*
X85298223Y-38523467D01*
X85279281Y-38539013D01*
X85263736Y-38557955D01*
X85252185Y-38579565D01*
X85245072Y-38603014D01*
X85242670Y-38627400D01*
X84915730Y-38627400D01*
X84913328Y-38603014D01*
X84906215Y-38579565D01*
X84894664Y-38557954D01*
X84879118Y-38539012D01*
X84860177Y-38523467D01*
X84791706Y-38477716D01*
X84728884Y-38414894D01*
X84683133Y-38346423D01*
X84667587Y-38327481D01*
X84648645Y-38311936D01*
X84627035Y-38300385D01*
X84603586Y-38293272D01*
X84579200Y-38290870D01*
X84554814Y-38293272D01*
X84531365Y-38300385D01*
X84509754Y-38311936D01*
X84490812Y-38327482D01*
X84475267Y-38346423D01*
X84429516Y-38414894D01*
X84366694Y-38477716D01*
X84298223Y-38523467D01*
X84279281Y-38539013D01*
X84263736Y-38557955D01*
X84252185Y-38579565D01*
X84245072Y-38603014D01*
X84242670Y-38627400D01*
X83915730Y-38627400D01*
X83913328Y-38603014D01*
X83906215Y-38579565D01*
X83894664Y-38557954D01*
X83879118Y-38539012D01*
X83860177Y-38523467D01*
X83791706Y-38477716D01*
X83728884Y-38414894D01*
X83683133Y-38346423D01*
X83667587Y-38327481D01*
X83648645Y-38311936D01*
X83627035Y-38300385D01*
X83603586Y-38293272D01*
X83579200Y-38290870D01*
X83554814Y-38293272D01*
X83531365Y-38300385D01*
X83509754Y-38311936D01*
X83490812Y-38327482D01*
X83475267Y-38346423D01*
X83429516Y-38414894D01*
X83366694Y-38477716D01*
X83298223Y-38523467D01*
X83279281Y-38539013D01*
X83263736Y-38557955D01*
X83252185Y-38579565D01*
X83245072Y-38603014D01*
X83242670Y-38627400D01*
X82915730Y-38627400D01*
X82913328Y-38603014D01*
X82906215Y-38579565D01*
X82894664Y-38557954D01*
X82879118Y-38539012D01*
X82860177Y-38523467D01*
X82791706Y-38477716D01*
X82728884Y-38414894D01*
X82683133Y-38346423D01*
X82667587Y-38327481D01*
X82648645Y-38311936D01*
X82627035Y-38300385D01*
X82603586Y-38293272D01*
X82579200Y-38290870D01*
X82554814Y-38293272D01*
X82531365Y-38300385D01*
X82509754Y-38311936D01*
X82490812Y-38327482D01*
X82475267Y-38346423D01*
X82429516Y-38414894D01*
X82366694Y-38477716D01*
X82298223Y-38523467D01*
X82279281Y-38539013D01*
X82263736Y-38557955D01*
X82252185Y-38579565D01*
X82245072Y-38603014D01*
X82242670Y-38627400D01*
X81915730Y-38627400D01*
X81913328Y-38603014D01*
X81906215Y-38579565D01*
X81894664Y-38557954D01*
X81879118Y-38539012D01*
X81860177Y-38523467D01*
X81791706Y-38477716D01*
X81728885Y-38414895D01*
X81679528Y-38341027D01*
X81645531Y-38258952D01*
X81628200Y-38171821D01*
X81628200Y-38082979D01*
X81645531Y-37995848D01*
X81679528Y-37913773D01*
X81728885Y-37839905D01*
X81791706Y-37777084D01*
X81860177Y-37731333D01*
X81879119Y-37715787D01*
X81894664Y-37696845D01*
X81906215Y-37675235D01*
X81913328Y-37651786D01*
X81915730Y-37627400D01*
X82242670Y-37627400D01*
X82245072Y-37651786D01*
X82252185Y-37675235D01*
X82263736Y-37696846D01*
X82279282Y-37715788D01*
X82298223Y-37731333D01*
X82366694Y-37777084D01*
X82429516Y-37839906D01*
X82475267Y-37908377D01*
X82490813Y-37927319D01*
X82509755Y-37942864D01*
X82531365Y-37954415D01*
X82554814Y-37961528D01*
X82579200Y-37963930D01*
X82603586Y-37961528D01*
X82627035Y-37954415D01*
X82648646Y-37942864D01*
X82667588Y-37927318D01*
X82683133Y-37908377D01*
X82728884Y-37839906D01*
X82791706Y-37777084D01*
X82860177Y-37731333D01*
X82879119Y-37715787D01*
X82894664Y-37696845D01*
X82906215Y-37675235D01*
X82913328Y-37651786D01*
X82915730Y-37627400D01*
X83242670Y-37627400D01*
X83245072Y-37651786D01*
X83252185Y-37675235D01*
X83263736Y-37696846D01*
X83279282Y-37715788D01*
X83298223Y-37731333D01*
X83366694Y-37777084D01*
X83429516Y-37839906D01*
X83475267Y-37908377D01*
X83490813Y-37927319D01*
X83509755Y-37942864D01*
X83531365Y-37954415D01*
X83554814Y-37961528D01*
X83579200Y-37963930D01*
X83603586Y-37961528D01*
X83627035Y-37954415D01*
X83648646Y-37942864D01*
X83667588Y-37927318D01*
X83683133Y-37908377D01*
X83728884Y-37839906D01*
X83791706Y-37777084D01*
X83860177Y-37731333D01*
X83879119Y-37715787D01*
X83894664Y-37696845D01*
X83906215Y-37675235D01*
X83913328Y-37651786D01*
X83915730Y-37627400D01*
X84242670Y-37627400D01*
X84245072Y-37651786D01*
X84252185Y-37675235D01*
X84263736Y-37696846D01*
X84279282Y-37715788D01*
X84298223Y-37731333D01*
X84366694Y-37777084D01*
X84429516Y-37839906D01*
X84475267Y-37908377D01*
X84490813Y-37927319D01*
X84509755Y-37942864D01*
X84531365Y-37954415D01*
X84554814Y-37961528D01*
X84579200Y-37963930D01*
X84603586Y-37961528D01*
X84627035Y-37954415D01*
X84648646Y-37942864D01*
X84667588Y-37927318D01*
X84683133Y-37908377D01*
X84728884Y-37839906D01*
X84791706Y-37777084D01*
X84860177Y-37731333D01*
X84879119Y-37715787D01*
X84894664Y-37696845D01*
X84906215Y-37675235D01*
X84913328Y-37651786D01*
X84915730Y-37627400D01*
X85242670Y-37627400D01*
X85245072Y-37651786D01*
X85252185Y-37675235D01*
X85263736Y-37696846D01*
X85279282Y-37715788D01*
X85298223Y-37731333D01*
X85366694Y-37777084D01*
X85429516Y-37839906D01*
X85475267Y-37908377D01*
X85490813Y-37927319D01*
X85509755Y-37942864D01*
X85531365Y-37954415D01*
X85554814Y-37961528D01*
X85579200Y-37963930D01*
X85603586Y-37961528D01*
X85627035Y-37954415D01*
X85648646Y-37942864D01*
X85667588Y-37927318D01*
X85683133Y-37908377D01*
X85728884Y-37839906D01*
X85791706Y-37777084D01*
X85860177Y-37731333D01*
X85879119Y-37715787D01*
X85894664Y-37696845D01*
X85906215Y-37675235D01*
X85913328Y-37651786D01*
X85915730Y-37627400D01*
X85913328Y-37603014D01*
X85906215Y-37579565D01*
X85894664Y-37557954D01*
X85879118Y-37539012D01*
X85860177Y-37523467D01*
X85791706Y-37477716D01*
X85728884Y-37414894D01*
X85683133Y-37346423D01*
X85667587Y-37327481D01*
X85648645Y-37311936D01*
X85627035Y-37300385D01*
X85603586Y-37293272D01*
X85579200Y-37290870D01*
X85554814Y-37293272D01*
X85531365Y-37300385D01*
X85509754Y-37311936D01*
X85490812Y-37327482D01*
X85475267Y-37346423D01*
X85429516Y-37414894D01*
X85366694Y-37477716D01*
X85298223Y-37523467D01*
X85279281Y-37539013D01*
X85263736Y-37557955D01*
X85252185Y-37579565D01*
X85245072Y-37603014D01*
X85242670Y-37627400D01*
X84915730Y-37627400D01*
X84913328Y-37603014D01*
X84906215Y-37579565D01*
X84894664Y-37557954D01*
X84879118Y-37539012D01*
X84860177Y-37523467D01*
X84791706Y-37477716D01*
X84728884Y-37414894D01*
X84683133Y-37346423D01*
X84667587Y-37327481D01*
X84648645Y-37311936D01*
X84627035Y-37300385D01*
X84603586Y-37293272D01*
X84579200Y-37290870D01*
X84554814Y-37293272D01*
X84531365Y-37300385D01*
X84509754Y-37311936D01*
X84490812Y-37327482D01*
X84475267Y-37346423D01*
X84429516Y-37414894D01*
X84366694Y-37477716D01*
X84298223Y-37523467D01*
X84279281Y-37539013D01*
X84263736Y-37557955D01*
X84252185Y-37579565D01*
X84245072Y-37603014D01*
X84242670Y-37627400D01*
X83915730Y-37627400D01*
X83913328Y-37603014D01*
X83906215Y-37579565D01*
X83894664Y-37557954D01*
X83879118Y-37539012D01*
X83860177Y-37523467D01*
X83791706Y-37477716D01*
X83728884Y-37414894D01*
X83683133Y-37346423D01*
X83667587Y-37327481D01*
X83648645Y-37311936D01*
X83627035Y-37300385D01*
X83603586Y-37293272D01*
X83579200Y-37290870D01*
X83554814Y-37293272D01*
X83531365Y-37300385D01*
X83509754Y-37311936D01*
X83490812Y-37327482D01*
X83475267Y-37346423D01*
X83429516Y-37414894D01*
X83366694Y-37477716D01*
X83298223Y-37523467D01*
X83279281Y-37539013D01*
X83263736Y-37557955D01*
X83252185Y-37579565D01*
X83245072Y-37603014D01*
X83242670Y-37627400D01*
X82915730Y-37627400D01*
X82913328Y-37603014D01*
X82906215Y-37579565D01*
X82894664Y-37557954D01*
X82879118Y-37539012D01*
X82860177Y-37523467D01*
X82791706Y-37477716D01*
X82728884Y-37414894D01*
X82683133Y-37346423D01*
X82667587Y-37327481D01*
X82648645Y-37311936D01*
X82627035Y-37300385D01*
X82603586Y-37293272D01*
X82579200Y-37290870D01*
X82554814Y-37293272D01*
X82531365Y-37300385D01*
X82509754Y-37311936D01*
X82490812Y-37327482D01*
X82475267Y-37346423D01*
X82429516Y-37414894D01*
X82366694Y-37477716D01*
X82298223Y-37523467D01*
X82279281Y-37539013D01*
X82263736Y-37557955D01*
X82252185Y-37579565D01*
X82245072Y-37603014D01*
X82242670Y-37627400D01*
X81915730Y-37627400D01*
X81913328Y-37603014D01*
X81906215Y-37579565D01*
X81894664Y-37557954D01*
X81879118Y-37539012D01*
X81860177Y-37523467D01*
X81791706Y-37477716D01*
X81728885Y-37414895D01*
X81679528Y-37341027D01*
X81645531Y-37258952D01*
X81628200Y-37171821D01*
X81628200Y-37082979D01*
X81645531Y-36995848D01*
X81679528Y-36913773D01*
X81688063Y-36901000D01*
X81711198Y-36866375D01*
X81728885Y-36839905D01*
X81791706Y-36777084D01*
X81860177Y-36731333D01*
X81879119Y-36715787D01*
X81894664Y-36696845D01*
X81906215Y-36675235D01*
X81913328Y-36651786D01*
X81915730Y-36627400D01*
X82242670Y-36627400D01*
X82245072Y-36651786D01*
X82252185Y-36675235D01*
X82263736Y-36696846D01*
X82279282Y-36715788D01*
X82298223Y-36731333D01*
X82366694Y-36777084D01*
X82429516Y-36839906D01*
X82475267Y-36908377D01*
X82490813Y-36927319D01*
X82509755Y-36942864D01*
X82531365Y-36954415D01*
X82554814Y-36961528D01*
X82579200Y-36963930D01*
X82603586Y-36961528D01*
X82627035Y-36954415D01*
X82648646Y-36942864D01*
X82667588Y-36927318D01*
X82683133Y-36908377D01*
X82728884Y-36839906D01*
X82791706Y-36777084D01*
X82860177Y-36731333D01*
X82879119Y-36715787D01*
X82894664Y-36696845D01*
X82906215Y-36675235D01*
X82913328Y-36651786D01*
X82915730Y-36627400D01*
X83242670Y-36627400D01*
X83245072Y-36651786D01*
X83252185Y-36675235D01*
X83263736Y-36696846D01*
X83279282Y-36715788D01*
X83298223Y-36731333D01*
X83366694Y-36777084D01*
X83429516Y-36839906D01*
X83475267Y-36908377D01*
X83490813Y-36927319D01*
X83509755Y-36942864D01*
X83531365Y-36954415D01*
X83554814Y-36961528D01*
X83579200Y-36963930D01*
X83603586Y-36961528D01*
X83627035Y-36954415D01*
X83648646Y-36942864D01*
X83667588Y-36927318D01*
X83683133Y-36908377D01*
X83728884Y-36839906D01*
X83791706Y-36777084D01*
X83860177Y-36731333D01*
X83879119Y-36715787D01*
X83894664Y-36696845D01*
X83906215Y-36675235D01*
X83913328Y-36651786D01*
X83915730Y-36627400D01*
X84242670Y-36627400D01*
X84245072Y-36651786D01*
X84252185Y-36675235D01*
X84263736Y-36696846D01*
X84279282Y-36715788D01*
X84298223Y-36731333D01*
X84366694Y-36777084D01*
X84429516Y-36839906D01*
X84475267Y-36908377D01*
X84490813Y-36927319D01*
X84509755Y-36942864D01*
X84531365Y-36954415D01*
X84554814Y-36961528D01*
X84579200Y-36963930D01*
X84603586Y-36961528D01*
X84627035Y-36954415D01*
X84648646Y-36942864D01*
X84667588Y-36927318D01*
X84683133Y-36908377D01*
X84728884Y-36839906D01*
X84791706Y-36777084D01*
X84860177Y-36731333D01*
X84879119Y-36715787D01*
X84894664Y-36696845D01*
X84906215Y-36675235D01*
X84913328Y-36651786D01*
X84915730Y-36627400D01*
X85242670Y-36627400D01*
X85245072Y-36651786D01*
X85252185Y-36675235D01*
X85263736Y-36696846D01*
X85279282Y-36715788D01*
X85298223Y-36731333D01*
X85366694Y-36777084D01*
X85429516Y-36839906D01*
X85475267Y-36908377D01*
X85490813Y-36927319D01*
X85509755Y-36942864D01*
X85531365Y-36954415D01*
X85554814Y-36961528D01*
X85579200Y-36963930D01*
X85603586Y-36961528D01*
X85627035Y-36954415D01*
X85648646Y-36942864D01*
X85667588Y-36927318D01*
X85683133Y-36908377D01*
X85728884Y-36839906D01*
X85791706Y-36777084D01*
X85860177Y-36731333D01*
X85879119Y-36715787D01*
X85894664Y-36696845D01*
X85906215Y-36675235D01*
X85913328Y-36651786D01*
X85915730Y-36627400D01*
X85913328Y-36603014D01*
X85906215Y-36579565D01*
X85894664Y-36557954D01*
X85879118Y-36539012D01*
X85860177Y-36523467D01*
X85791706Y-36477716D01*
X85728884Y-36414894D01*
X85683133Y-36346423D01*
X85667587Y-36327481D01*
X85648645Y-36311936D01*
X85627035Y-36300385D01*
X85603586Y-36293272D01*
X85579200Y-36290870D01*
X85554814Y-36293272D01*
X85531365Y-36300385D01*
X85509754Y-36311936D01*
X85490812Y-36327482D01*
X85475267Y-36346423D01*
X85429516Y-36414894D01*
X85366694Y-36477716D01*
X85298223Y-36523467D01*
X85279281Y-36539013D01*
X85263736Y-36557955D01*
X85252185Y-36579565D01*
X85245072Y-36603014D01*
X85242670Y-36627400D01*
X84915730Y-36627400D01*
X84913328Y-36603014D01*
X84906215Y-36579565D01*
X84894664Y-36557954D01*
X84879118Y-36539012D01*
X84860177Y-36523467D01*
X84791706Y-36477716D01*
X84728884Y-36414894D01*
X84683133Y-36346423D01*
X84667587Y-36327481D01*
X84648645Y-36311936D01*
X84627035Y-36300385D01*
X84603586Y-36293272D01*
X84579200Y-36290870D01*
X84554814Y-36293272D01*
X84531365Y-36300385D01*
X84509754Y-36311936D01*
X84490812Y-36327482D01*
X84475267Y-36346423D01*
X84429516Y-36414894D01*
X84366694Y-36477716D01*
X84298223Y-36523467D01*
X84279281Y-36539013D01*
X84263736Y-36557955D01*
X84252185Y-36579565D01*
X84245072Y-36603014D01*
X84242670Y-36627400D01*
X83915730Y-36627400D01*
X83913328Y-36603014D01*
X83906215Y-36579565D01*
X83894664Y-36557954D01*
X83879118Y-36539012D01*
X83860177Y-36523467D01*
X83791706Y-36477716D01*
X83728884Y-36414894D01*
X83683133Y-36346423D01*
X83667587Y-36327481D01*
X83648645Y-36311936D01*
X83627035Y-36300385D01*
X83603586Y-36293272D01*
X83579200Y-36290870D01*
X83554814Y-36293272D01*
X83531365Y-36300385D01*
X83509754Y-36311936D01*
X83490812Y-36327482D01*
X83475267Y-36346423D01*
X83429516Y-36414894D01*
X83366694Y-36477716D01*
X83298223Y-36523467D01*
X83279281Y-36539013D01*
X83263736Y-36557955D01*
X83252185Y-36579565D01*
X83245072Y-36603014D01*
X83242670Y-36627400D01*
X82915730Y-36627400D01*
X82913328Y-36603014D01*
X82906215Y-36579565D01*
X82894664Y-36557954D01*
X82879118Y-36539012D01*
X82860177Y-36523467D01*
X82791706Y-36477716D01*
X82728884Y-36414894D01*
X82683133Y-36346423D01*
X82667587Y-36327481D01*
X82648645Y-36311936D01*
X82627035Y-36300385D01*
X82603586Y-36293272D01*
X82579200Y-36290870D01*
X82554814Y-36293272D01*
X82531365Y-36300385D01*
X82509754Y-36311936D01*
X82490812Y-36327482D01*
X82475267Y-36346423D01*
X82429516Y-36414894D01*
X82366694Y-36477716D01*
X82298223Y-36523467D01*
X82279281Y-36539013D01*
X82263736Y-36557955D01*
X82252185Y-36579565D01*
X82245072Y-36603014D01*
X82242670Y-36627400D01*
X81915730Y-36627400D01*
X81913328Y-36603014D01*
X81906215Y-36579565D01*
X81894664Y-36557954D01*
X81879118Y-36539012D01*
X81860177Y-36523467D01*
X81791706Y-36477716D01*
X81728885Y-36414895D01*
X81679528Y-36341027D01*
X81645531Y-36258952D01*
X81628200Y-36171821D01*
X81628200Y-36082979D01*
X81645531Y-35995848D01*
X81679528Y-35913773D01*
X81681208Y-35911259D01*
X81712518Y-35864400D01*
X81728885Y-35839905D01*
X81791705Y-35777085D01*
X81828387Y-35752575D01*
X81865571Y-35727729D01*
X81865573Y-35727728D01*
X81947648Y-35693731D01*
X82034779Y-35676400D01*
X82123621Y-35676400D01*
X82210752Y-35693731D01*
G37*
G36*
X29813512Y-37643927D02*
G01*
X29962812Y-37673624D01*
X30126784Y-37741544D01*
X30274354Y-37840147D01*
X30399853Y-37965646D01*
X30498456Y-38113216D01*
X30566376Y-38277188D01*
X30601000Y-38451259D01*
X30601000Y-38628741D01*
X30566376Y-38802812D01*
X30498456Y-38966784D01*
X30399853Y-39114354D01*
X30274354Y-39239853D01*
X30126784Y-39338456D01*
X29962812Y-39406376D01*
X29813512Y-39436073D01*
X29788742Y-39441000D01*
X29611258Y-39441000D01*
X29586488Y-39436073D01*
X29437188Y-39406376D01*
X29273216Y-39338456D01*
X29125646Y-39239853D01*
X29000147Y-39114354D01*
X28901544Y-38966784D01*
X28833624Y-38802812D01*
X28799000Y-38628741D01*
X28799000Y-38451259D01*
X28833624Y-38277188D01*
X28901544Y-38113216D01*
X29000147Y-37965646D01*
X29125646Y-37840147D01*
X29273216Y-37741544D01*
X29437188Y-37673624D01*
X29586488Y-37643927D01*
X29611258Y-37639000D01*
X29788742Y-37639000D01*
X29813512Y-37643927D01*
G37*
G36*
X27273512Y-37643927D02*
G01*
X27422812Y-37673624D01*
X27586784Y-37741544D01*
X27734354Y-37840147D01*
X27859853Y-37965646D01*
X27958456Y-38113216D01*
X28026376Y-38277188D01*
X28061000Y-38451259D01*
X28061000Y-38628741D01*
X28026376Y-38802812D01*
X27958456Y-38966784D01*
X27859853Y-39114354D01*
X27734354Y-39239853D01*
X27586784Y-39338456D01*
X27422812Y-39406376D01*
X27273512Y-39436073D01*
X27248742Y-39441000D01*
X27071258Y-39441000D01*
X27046488Y-39436073D01*
X26897188Y-39406376D01*
X26733216Y-39338456D01*
X26585646Y-39239853D01*
X26460147Y-39114354D01*
X26361544Y-38966784D01*
X26293624Y-38802812D01*
X26259000Y-38628741D01*
X26259000Y-38451259D01*
X26293624Y-38277188D01*
X26361544Y-38113216D01*
X26460147Y-37965646D01*
X26585646Y-37840147D01*
X26733216Y-37741544D01*
X26897188Y-37673624D01*
X27046488Y-37643927D01*
X27071258Y-37639000D01*
X27248742Y-37639000D01*
X27273512Y-37643927D01*
G37*
G36*
X27273512Y-35103927D02*
G01*
X27422812Y-35133624D01*
X27586784Y-35201544D01*
X27734354Y-35300147D01*
X27859853Y-35425646D01*
X27958456Y-35573216D01*
X28026376Y-35737188D01*
X28061000Y-35911259D01*
X28061000Y-36088741D01*
X28026376Y-36262812D01*
X27958456Y-36426784D01*
X27859853Y-36574354D01*
X27734354Y-36699853D01*
X27586784Y-36798456D01*
X27422812Y-36866376D01*
X27273512Y-36896073D01*
X27248742Y-36901000D01*
X27071258Y-36901000D01*
X27046488Y-36896073D01*
X26897188Y-36866376D01*
X26733216Y-36798456D01*
X26585646Y-36699853D01*
X26460147Y-36574354D01*
X26361544Y-36426784D01*
X26293624Y-36262812D01*
X26259000Y-36088741D01*
X26259000Y-35911259D01*
X26293624Y-35737188D01*
X26361544Y-35573216D01*
X26460147Y-35425646D01*
X26585646Y-35300147D01*
X26733216Y-35201544D01*
X26897188Y-35133624D01*
X27046488Y-35103927D01*
X27071258Y-35099000D01*
X27248742Y-35099000D01*
X27273512Y-35103927D01*
G37*
G36*
X29813512Y-35103927D02*
G01*
X29962812Y-35133624D01*
X30126784Y-35201544D01*
X30274354Y-35300147D01*
X30399853Y-35425646D01*
X30498456Y-35573216D01*
X30566376Y-35737188D01*
X30601000Y-35911259D01*
X30601000Y-36088741D01*
X30566376Y-36262812D01*
X30498456Y-36426784D01*
X30399853Y-36574354D01*
X30274354Y-36699853D01*
X30126784Y-36798456D01*
X29962812Y-36866376D01*
X29813512Y-36896073D01*
X29788742Y-36901000D01*
X29611258Y-36901000D01*
X29586488Y-36896073D01*
X29437188Y-36866376D01*
X29273216Y-36798456D01*
X29125646Y-36699853D01*
X29000147Y-36574354D01*
X28901544Y-36426784D01*
X28833624Y-36262812D01*
X28799000Y-36088741D01*
X28799000Y-35911259D01*
X28833624Y-35737188D01*
X28901544Y-35573216D01*
X29000147Y-35425646D01*
X29125646Y-35300147D01*
X29273216Y-35201544D01*
X29437188Y-35133624D01*
X29586488Y-35103927D01*
X29611258Y-35099000D01*
X29788742Y-35099000D01*
X29813512Y-35103927D01*
G37*
G36*
X61624549Y-31071116D02*
G01*
X61735734Y-31093232D01*
X61945203Y-31179997D01*
X62133720Y-31305960D01*
X62294040Y-31466280D01*
X62420003Y-31654797D01*
X62506768Y-31864266D01*
X62551000Y-32086636D01*
X62551000Y-32313364D01*
X62506768Y-32535734D01*
X62420003Y-32745203D01*
X62294040Y-32933720D01*
X62133720Y-33094040D01*
X61945203Y-33220003D01*
X61735734Y-33306768D01*
X61624549Y-33328884D01*
X61513365Y-33351000D01*
X61286635Y-33351000D01*
X61175451Y-33328884D01*
X61064266Y-33306768D01*
X60854797Y-33220003D01*
X60666280Y-33094040D01*
X60505960Y-32933720D01*
X60379997Y-32745203D01*
X60293232Y-32535734D01*
X60249000Y-32313364D01*
X60249000Y-32086636D01*
X60293232Y-31864266D01*
X60379997Y-31654797D01*
X60505960Y-31466280D01*
X60666280Y-31305960D01*
X60854797Y-31179997D01*
X61064266Y-31093232D01*
X61175451Y-31071116D01*
X61286635Y-31049000D01*
X61513365Y-31049000D01*
X61624549Y-31071116D01*
G37*
G36*
X33091016Y-23095747D02*
G01*
X33217680Y-23148212D01*
X33331674Y-23224381D01*
X33428619Y-23321326D01*
X33504788Y-23435320D01*
X33557253Y-23561984D01*
X33584000Y-23696450D01*
X33584000Y-23833550D01*
X33557253Y-23968016D01*
X33504788Y-24094680D01*
X33428619Y-24208674D01*
X33331674Y-24305619D01*
X33217680Y-24381788D01*
X33091016Y-24434253D01*
X32956550Y-24461000D01*
X32819450Y-24461000D01*
X32684984Y-24434253D01*
X32558320Y-24381788D01*
X32444326Y-24305619D01*
X32347381Y-24208674D01*
X32271212Y-24094680D01*
X32218747Y-23968016D01*
X32192000Y-23833550D01*
X32192000Y-23696450D01*
X32218747Y-23561984D01*
X32271212Y-23435320D01*
X32347381Y-23321326D01*
X32444326Y-23224381D01*
X32558320Y-23148212D01*
X32684984Y-23095747D01*
X32819450Y-23069000D01*
X32956550Y-23069000D01*
X33091016Y-23095747D01*
G37*
G36*
X28241016Y-23095747D02*
G01*
X28367680Y-23148212D01*
X28481674Y-23224381D01*
X28578619Y-23321326D01*
X28654788Y-23435320D01*
X28707253Y-23561984D01*
X28734000Y-23696450D01*
X28734000Y-23833550D01*
X28707253Y-23968016D01*
X28654788Y-24094680D01*
X28578619Y-24208674D01*
X28481674Y-24305619D01*
X28367680Y-24381788D01*
X28241016Y-24434253D01*
X28106550Y-24461000D01*
X27969450Y-24461000D01*
X27834984Y-24434253D01*
X27708320Y-24381788D01*
X27594326Y-24305619D01*
X27497381Y-24208674D01*
X27421212Y-24094680D01*
X27368747Y-23968016D01*
X27342000Y-23833550D01*
X27342000Y-23696450D01*
X27368747Y-23561984D01*
X27421212Y-23435320D01*
X27497381Y-23321326D01*
X27594326Y-23224381D01*
X27708320Y-23148212D01*
X27834984Y-23095747D01*
X27969450Y-23069000D01*
X28106550Y-23069000D01*
X28241016Y-23095747D01*
G37*
G36*
X111624549Y-21071116D02*
G01*
X111735734Y-21093232D01*
X111945203Y-21179997D01*
X112133720Y-21305960D01*
X112294040Y-21466280D01*
X112420003Y-21654797D01*
X112506768Y-21864266D01*
X112551000Y-22086636D01*
X112551000Y-22313364D01*
X112506768Y-22535734D01*
X112420003Y-22745203D01*
X112294040Y-22933720D01*
X112133720Y-23094040D01*
X111945203Y-23220003D01*
X111945202Y-23220004D01*
X111945201Y-23220004D01*
X111883850Y-23245416D01*
X111735734Y-23306768D01*
X111624549Y-23328884D01*
X111513365Y-23351000D01*
X111286635Y-23351000D01*
X111175451Y-23328884D01*
X111064266Y-23306768D01*
X110916150Y-23245416D01*
X110854799Y-23220004D01*
X110854798Y-23220004D01*
X110854797Y-23220003D01*
X110666280Y-23094040D01*
X110505960Y-22933720D01*
X110379997Y-22745203D01*
X110293232Y-22535734D01*
X110249000Y-22313364D01*
X110249000Y-22086636D01*
X110293232Y-21864266D01*
X110379997Y-21654797D01*
X110505960Y-21466280D01*
X110666280Y-21305960D01*
X110854797Y-21179997D01*
X111064266Y-21093232D01*
X111175451Y-21071116D01*
X111286635Y-21049000D01*
X111513365Y-21049000D01*
X111624549Y-21071116D01*
G37*
G36*
X34176512Y-20168927D02*
G01*
X34325812Y-20198624D01*
X34489784Y-20266544D01*
X34637354Y-20365147D01*
X34762853Y-20490646D01*
X34861456Y-20638216D01*
X34929376Y-20802188D01*
X34964000Y-20976259D01*
X34964000Y-21153741D01*
X34929376Y-21327812D01*
X34861456Y-21491784D01*
X34762853Y-21639354D01*
X34637354Y-21764853D01*
X34489784Y-21863456D01*
X34325812Y-21931376D01*
X34176512Y-21961073D01*
X34151742Y-21966000D01*
X33974258Y-21966000D01*
X33949488Y-21961073D01*
X33800188Y-21931376D01*
X33636216Y-21863456D01*
X33488646Y-21764853D01*
X33363147Y-21639354D01*
X33264544Y-21491784D01*
X33196624Y-21327812D01*
X33162000Y-21153741D01*
X33162000Y-20976259D01*
X33196624Y-20802188D01*
X33264544Y-20638216D01*
X33363147Y-20490646D01*
X33488646Y-20365147D01*
X33636216Y-20266544D01*
X33800188Y-20198624D01*
X33949488Y-20168927D01*
X33974258Y-20164000D01*
X34151742Y-20164000D01*
X34176512Y-20168927D01*
G37*
G36*
X26976512Y-20168927D02*
G01*
X27125812Y-20198624D01*
X27289784Y-20266544D01*
X27437354Y-20365147D01*
X27562853Y-20490646D01*
X27661456Y-20638216D01*
X27729376Y-20802188D01*
X27764000Y-20976259D01*
X27764000Y-21153741D01*
X27729376Y-21327812D01*
X27661456Y-21491784D01*
X27562853Y-21639354D01*
X27437354Y-21764853D01*
X27289784Y-21863456D01*
X27125812Y-21931376D01*
X26976512Y-21961073D01*
X26951742Y-21966000D01*
X26774258Y-21966000D01*
X26749488Y-21961073D01*
X26600188Y-21931376D01*
X26436216Y-21863456D01*
X26288646Y-21764853D01*
X26163147Y-21639354D01*
X26064544Y-21491784D01*
X25996624Y-21327812D01*
X25962000Y-21153741D01*
X25962000Y-20976259D01*
X25996624Y-20802188D01*
X26064544Y-20638216D01*
X26163147Y-20490646D01*
X26288646Y-20365147D01*
X26436216Y-20266544D01*
X26600188Y-20198624D01*
X26749488Y-20168927D01*
X26774258Y-20164000D01*
X26951742Y-20164000D01*
X26976512Y-20168927D01*
G37*
M02*
