M48
; DRILL file {KiCad 5.1.4} date Fr 04 Okt 2019 22:28:32 CEST
; FORMAT={2:4/ absolute / inch / suppress leading zeros}
; #@! TF.CreationDate,2019-10-04T22:28:32+02:00
; #@! TF.GenerationSoftware,Kicad,Pcbnew,5.1.4
; #@! TF.FileFunction,Plated,1,2,PTH
FMAT,2
INCH,TZ
T1C0.0157
T2C0.0197
T3C0.0276
T4C0.0394
%
G90
G05
T1
X20850Y38200
X20950Y45200
X20950Y44150
X21550Y45750
X21550Y44700
X21550Y38950
X21550Y37500
X21750Y41600
X23200Y44000
X23350Y28450
X23700Y29050
X24100Y28450
X24400Y29050
X24750Y28450
X25600Y40100
X26250Y45300
X27000Y45300
X27900Y33300
X28000Y39400
X28500Y33900
X29000Y33300
X30700Y25000
X31800Y48350
X31800Y44500
X31850Y34500
X31900Y30800
X32300Y35150
X32350Y49100
X32500Y30900
X32650Y34500
X32850Y48350
X33550Y49100
X33600Y25100
X34150Y48350
X34950Y39650
X35150Y33850
X35200Y32650
X35200Y31950
X35450Y40350
X35750Y39650
X35838Y32338
X36100Y28300
X36350Y40350
X36500Y29200
X36700Y39650
X36800Y32600
X39050Y31800
X39200Y28200
X39400Y36300
X39500Y34450
X40100Y44200
X40200Y34000
X40600Y33700
X40950Y28250
X41000Y33400
X41500Y33200
X41650Y37800
X41800Y29500
X41850Y46300
X41850Y45350
X42100Y38400
X42100Y33100
X42350Y46750
X42350Y45850
X42350Y44800
X42450Y28850
X42550Y37800
X42900Y38400
X43600Y32200
X43604Y32800
X43650Y31350
X43650Y30850
X43650Y30350
X43650Y29850
X43700Y34000
X44200Y44200
X44300Y36700
X44600Y35800
X44800Y37000
X45700Y41700
X45800Y44000
X46100Y32900
X46100Y32900
X46200Y46150
X46300Y42200
X46400Y29600
X46700Y29200
X46850Y46700
X46950Y41700
X47000Y43300
X47000Y32000
X47100Y32900
X47300Y42250
X47600Y44900
X47650Y46100
X47800Y26400
X47812Y29912
X48000Y37400
X48100Y32100
X48150Y35000
X48200Y44400
X48200Y33700
X48300Y26900
X48450Y46600
X48600Y26400
X48650Y35000
X48700Y33500
X48800Y38650
X48900Y44400
X49100Y26900
X49200Y45950
X49500Y35500
X50600Y33200
X50600Y31200
X50700Y29100
X50900Y33500
X51000Y31700
X51000Y29900
X51100Y30800
X51200Y38300
X51200Y36800
X51200Y30300
X51250Y35900
X51600Y38950
X51600Y36400
X51650Y37500
T3
X21763Y30555
X21763Y28645
T4
X23200Y24100
X24200Y24100
X25200Y24100
X26200Y24100
X27200Y24100
X28200Y24100
X29200Y24100
X30200Y24100
X31200Y24100
X32200Y24100
T2
G00X20582Y31017
M15
G01X20818Y31017
M16
G05
G00X20818Y28183
M15
G01X20582Y28183
M16
G05
T0
M30
