G04 #@! TF.GenerationSoftware,KiCad,Pcbnew,5.1.6*
G04 #@! TF.CreationDate,2020-10-02T22:43:04+02:00*
G04 #@! TF.ProjectId,epaper-breakout,65706170-6572-42d6-9272-65616b6f7574,rev?*
G04 #@! TF.SameCoordinates,Original*
G04 #@! TF.FileFunction,Copper,L2,Bot*
G04 #@! TF.FilePolarity,Positive*
%FSLAX46Y46*%
G04 Gerber Fmt 4.6, Leading zero omitted, Abs format (unit mm)*
G04 Created by KiCad (PCBNEW 5.1.6) date 2020-10-02 22:43:04*
%MOMM*%
%LPD*%
G01*
G04 APERTURE LIST*
G04 #@! TA.AperFunction,ComponentPad*
%ADD10O,1.700000X1.700000*%
G04 #@! TD*
G04 #@! TA.AperFunction,ComponentPad*
%ADD11R,1.700000X1.700000*%
G04 #@! TD*
G04 #@! TA.AperFunction,ComponentPad*
%ADD12C,1.290000*%
G04 #@! TD*
G04 #@! TA.AperFunction,ComponentPad*
%ADD13C,1.700000*%
G04 #@! TD*
G04 #@! TA.AperFunction,ComponentPad*
%ADD14C,0.800000*%
G04 #@! TD*
G04 #@! TA.AperFunction,SMDPad,CuDef*
%ADD15R,0.950000X0.400000*%
G04 #@! TD*
G04 #@! TA.AperFunction,SMDPad,CuDef*
%ADD16R,0.800000X0.300000*%
G04 #@! TD*
G04 #@! TA.AperFunction,SMDPad,CuDef*
%ADD17R,0.650000X0.300000*%
G04 #@! TD*
G04 #@! TA.AperFunction,ViaPad*
%ADD18C,0.800000*%
G04 #@! TD*
G04 #@! TA.AperFunction,Conductor*
%ADD19C,0.250000*%
G04 #@! TD*
G04 #@! TA.AperFunction,Conductor*
%ADD20C,0.500000*%
G04 #@! TD*
G04 #@! TA.AperFunction,Conductor*
%ADD21C,0.200000*%
G04 #@! TD*
G04 #@! TA.AperFunction,Conductor*
%ADD22C,0.254000*%
G04 #@! TD*
G04 APERTURE END LIST*
D10*
X27160000Y-36000000D03*
X29700000Y-36000000D03*
X27160000Y-38540000D03*
X29700000Y-38540000D03*
X27160000Y-41080000D03*
X29700000Y-41080000D03*
X27160000Y-43620000D03*
X29700000Y-43620000D03*
X27160000Y-46160000D03*
X29700000Y-46160000D03*
X27160000Y-48700000D03*
D11*
X29700000Y-48700000D03*
D12*
X32888000Y-23765000D03*
X28038000Y-23765000D03*
D13*
X34063000Y-21065000D03*
X26863000Y-21065000D03*
D14*
X82079200Y-40127400D03*
X83079200Y-40127400D03*
X84079200Y-40127400D03*
X85079200Y-40127400D03*
X86079200Y-40127400D03*
X86079200Y-39127400D03*
X85079200Y-39127400D03*
X84079200Y-39127400D03*
X83079200Y-39127400D03*
X82079200Y-39127400D03*
X82079200Y-37127400D03*
X83079200Y-37127400D03*
X84079200Y-37127400D03*
X85079200Y-37127400D03*
X86079200Y-37127400D03*
X86079200Y-38127400D03*
X85079200Y-38127400D03*
X84079200Y-38127400D03*
X83079200Y-38127400D03*
X82079200Y-38127400D03*
X86079200Y-36127400D03*
X85079200Y-36127400D03*
X84079200Y-36127400D03*
X83079200Y-36127400D03*
X82079200Y-36127400D03*
D15*
X119802200Y-43365400D03*
X119802200Y-30565400D03*
D16*
X120077200Y-42665400D03*
D17*
X117202200Y-42365400D03*
D16*
X120077200Y-42065400D03*
D17*
X117202200Y-41765400D03*
D16*
X120077200Y-41465400D03*
D17*
X117202200Y-41165400D03*
D16*
X120077200Y-40865400D03*
D17*
X117202200Y-40565400D03*
D16*
X120077200Y-40265400D03*
D17*
X117202200Y-39965400D03*
D16*
X120077200Y-39665400D03*
D17*
X117202200Y-39365400D03*
D16*
X120077200Y-39065400D03*
D17*
X117202200Y-38765400D03*
D16*
X120077200Y-38465400D03*
D17*
X117202200Y-38165400D03*
D16*
X120077200Y-37865400D03*
D17*
X117202200Y-37565400D03*
D16*
X120077200Y-37265400D03*
D17*
X117202200Y-36965400D03*
D16*
X120077200Y-36665400D03*
D17*
X117202200Y-36365400D03*
D16*
X120077200Y-36065400D03*
D17*
X117202200Y-35765400D03*
D16*
X120077200Y-35465400D03*
D17*
X117202200Y-35165400D03*
D16*
X120077200Y-34865400D03*
D17*
X117202200Y-34565400D03*
D16*
X120077200Y-34265400D03*
D17*
X117202200Y-33965400D03*
D16*
X120077200Y-33665400D03*
D17*
X117202200Y-33365400D03*
D16*
X120077200Y-33065400D03*
D17*
X117202200Y-32765400D03*
D16*
X120077200Y-32465400D03*
D17*
X117202200Y-32165400D03*
D16*
X120077200Y-31865400D03*
D17*
X117202200Y-31565400D03*
D16*
X120077200Y-31265400D03*
D18*
X33997900Y-49542700D03*
X117381800Y-43213800D03*
X26145000Y-29066000D03*
X26018000Y-28177000D03*
X34400000Y-24621000D03*
X26145000Y-24367000D03*
X31733000Y-29828000D03*
X34654000Y-26907000D03*
X33765000Y-27415000D03*
X96249000Y-44179000D03*
X122792000Y-41512000D03*
X108600000Y-49800000D03*
X116000000Y-49200000D03*
X120760000Y-46846000D03*
X122919000Y-49386000D03*
X121014000Y-49386000D03*
X107600000Y-21200000D03*
X106800000Y-22400000D03*
X108400000Y-22400000D03*
X103200000Y-24800000D03*
X101600000Y-24800000D03*
X102400000Y-24200000D03*
X108600000Y-26600000D03*
X122200000Y-22400000D03*
X38800000Y-20600000D03*
X38800000Y-21800000D03*
X39800000Y-21200000D03*
X122200000Y-23800000D03*
X123200000Y-23000000D03*
X85800000Y-20800000D03*
X86600000Y-21800000D03*
X90566402Y-38127400D03*
X43230800Y-25971500D03*
X46900000Y-26000000D03*
X40906700Y-34594800D03*
X38125400Y-36779200D03*
X79590900Y-31965900D03*
X95072200Y-38620700D03*
X97282000Y-37896800D03*
X101993700Y-27114500D03*
X100634800Y-43472100D03*
X104051100Y-42608500D03*
X88861900Y-25247600D03*
X91503500Y-25247600D03*
X93472000Y-20800000D03*
X80000000Y-37400000D03*
X112352600Y-33180800D03*
X113597200Y-33155400D03*
X121471200Y-29497800D03*
X116000000Y-46000000D03*
X118146061Y-27211800D03*
X48100000Y-42700000D03*
X57200000Y-38000000D03*
X51500000Y-40200000D03*
X53200000Y-24400000D03*
X54587500Y-24462500D03*
X49700000Y-27100000D03*
X49400000Y-26200000D03*
X44000000Y-22900000D03*
X45300000Y-22900000D03*
X44700000Y-23800000D03*
X45200000Y-26000000D03*
X49900000Y-32400000D03*
X51200000Y-32400000D03*
X48000000Y-34500000D03*
X48000000Y-35900000D03*
X44500000Y-40500000D03*
X43800000Y-41200000D03*
X44400000Y-42100000D03*
X39597825Y-44602175D03*
X38797825Y-43802175D03*
X32700000Y-49500000D03*
X54400000Y-44300000D03*
X53300000Y-44300000D03*
X50700000Y-49700000D03*
X51800000Y-49700000D03*
X52900000Y-49700000D03*
X57900000Y-44100000D03*
X58800000Y-43500000D03*
X59700000Y-44100000D03*
X61700000Y-44100000D03*
X62800000Y-44100000D03*
X87600000Y-49300000D03*
X89000000Y-49300000D03*
X94800000Y-49300000D03*
X92800000Y-49300000D03*
X70200000Y-49700000D03*
X85800000Y-43900000D03*
X98200000Y-49200000D03*
X99500000Y-49200000D03*
X101900000Y-48000000D03*
X104900000Y-48700000D03*
X106300000Y-48700000D03*
X106150000Y-47350000D03*
X107700000Y-47300000D03*
X123600000Y-45700000D03*
X64400000Y-32300000D03*
X63300000Y-32300000D03*
X60400000Y-28400000D03*
X61200000Y-29200000D03*
X60100000Y-34600000D03*
X61500000Y-34700000D03*
X57100000Y-41400000D03*
X33400000Y-45000000D03*
X34700000Y-45600000D03*
X77169200Y-37830800D03*
X77169200Y-39230800D03*
X77000000Y-36100000D03*
X80000000Y-36000000D03*
X80000000Y-38900000D03*
X84200000Y-23200000D03*
X77100000Y-22100000D03*
X75300000Y-22100000D03*
X76200000Y-22900000D03*
X70800000Y-23000000D03*
X69400000Y-27000000D03*
X72500000Y-27000000D03*
X32071000Y-43671000D03*
X31100000Y-39700000D03*
X34200000Y-36100000D03*
X34200000Y-37300000D03*
X36200000Y-41500000D03*
X37700000Y-41500000D03*
X40200000Y-28000000D03*
X40200000Y-26900000D03*
X58700000Y-21300000D03*
X65700000Y-22000000D03*
X55700000Y-28900000D03*
X55800000Y-30000000D03*
X63000000Y-34400000D03*
X40500000Y-43000000D03*
X64600000Y-36800000D03*
X107777012Y-44715988D03*
X67200000Y-50000000D03*
X82200000Y-49500000D03*
X115629200Y-43315400D03*
X98992200Y-39505400D03*
X108771200Y-43315400D03*
X109406200Y-38235400D03*
X122855500Y-31694900D03*
X110307900Y-43074100D03*
X121654190Y-34115410D03*
X113597200Y-40267400D03*
X121776000Y-39480000D03*
X114264211Y-38775411D03*
X121445800Y-38489400D03*
X83739500Y-21255500D03*
X91744800Y-23990300D03*
X115248200Y-37600400D03*
X121090200Y-37498800D03*
X110549200Y-38184600D03*
X98890600Y-42680400D03*
X93785200Y-36711400D03*
X116010200Y-36203400D03*
X111489000Y-37143200D03*
X92007200Y-35949400D03*
X121217200Y-36457400D03*
X111311200Y-35949400D03*
X112579209Y-34677409D03*
X66200000Y-32000000D03*
X112925002Y-32227398D03*
X122385600Y-33231600D03*
X121014000Y-43467800D03*
X114486200Y-40902400D03*
X114359200Y-29802600D03*
X93328000Y-44560000D03*
X31733000Y-46592000D03*
X96249000Y-49132000D03*
X102600000Y-38200000D03*
X108200000Y-38200000D03*
X116543600Y-27796000D03*
X94400000Y-44100000D03*
X80755000Y-43036000D03*
X82249200Y-44530200D03*
X80979200Y-44462800D03*
X104453200Y-38235400D03*
X100313000Y-34908000D03*
X46719000Y-32495000D03*
X105723200Y-38235400D03*
X44560000Y-31352000D03*
X33800000Y-32300000D03*
X82279000Y-26399000D03*
X34400000Y-30484000D03*
X81009000Y-26399000D03*
X35421546Y-29373854D03*
X55000000Y-21400000D03*
X121776000Y-42680400D03*
X114384600Y-28761200D03*
X113267000Y-42655000D03*
X94598000Y-26145000D03*
X116400000Y-23200000D03*
X108300000Y-29300000D03*
X39100000Y-30900000D03*
X52644990Y-32044990D03*
X55500000Y-37900000D03*
X52550000Y-43250000D03*
X101942999Y-49857001D03*
X76712500Y-49387500D03*
X82496185Y-23135999D03*
X62100000Y-22500000D03*
X32303000Y-31297000D03*
X33600000Y-34700000D03*
X79000000Y-40800000D03*
X106500000Y-32100000D03*
X57500000Y-31700000D03*
X107600000Y-30200000D03*
X50100000Y-28300000D03*
X102000000Y-34300000D03*
X50400000Y-37300000D03*
X106993200Y-38235400D03*
X105774000Y-42655000D03*
X103137500Y-46862500D03*
X45300000Y-39500000D03*
D19*
X120654380Y-31865400D02*
X123274600Y-29245180D01*
X120077200Y-31865400D02*
X120654380Y-31865400D01*
X117852201Y-42775401D02*
X117413802Y-43213800D01*
X117852201Y-41240401D02*
X117852201Y-42775401D01*
X117202200Y-41165400D02*
X117777200Y-41165400D01*
X117777200Y-41165400D02*
X117852201Y-41240401D01*
X117413802Y-43213800D02*
X117381800Y-43213800D01*
X117381800Y-43213800D02*
X117254800Y-43213800D01*
X121741820Y-41207200D02*
X120800020Y-40265400D01*
X120800020Y-40265400D02*
X120077200Y-40265400D01*
X123274600Y-29245180D02*
X123274600Y-25738600D01*
X122919000Y-41385000D02*
X122919000Y-41512000D01*
X122919000Y-41512000D02*
X122792000Y-41512000D01*
X122869610Y-41335610D02*
X122919000Y-41385000D01*
X122792000Y-41512000D02*
X122792000Y-41512000D01*
X122580189Y-41300189D02*
X122792000Y-41512000D01*
X121945189Y-41300189D02*
X122580189Y-41300189D01*
X121852200Y-41207200D02*
X121945189Y-41300189D01*
X121741820Y-41207200D02*
X121852200Y-41207200D01*
X123721112Y-40582888D02*
X122792000Y-41512000D01*
X123721112Y-33580197D02*
X123721112Y-40582888D01*
X120763610Y-33665400D02*
X121962441Y-32466569D01*
X120077200Y-33665400D02*
X120763610Y-33665400D01*
X121962441Y-32466569D02*
X123082749Y-32466569D01*
X123082749Y-32466569D02*
X123719055Y-33102875D01*
X123719055Y-33102875D02*
X123721112Y-33580197D01*
X120654380Y-31865400D02*
X123173000Y-29346780D01*
D20*
X90566402Y-38127400D02*
X84644885Y-38127400D01*
X84644885Y-38127400D02*
X84079200Y-38127400D01*
X95849001Y-43409999D02*
X90566402Y-38127400D01*
X95849001Y-43779001D02*
X95849001Y-43409999D01*
X96249000Y-44179000D02*
X95849001Y-43779001D01*
X97360998Y-45290998D02*
X105800000Y-45290998D01*
X96249000Y-44179000D02*
X97360998Y-45290998D01*
X105800000Y-47000000D02*
X106150000Y-47350000D01*
X105800000Y-45290998D02*
X105800000Y-47000000D01*
X90566402Y-38127400D02*
X90566402Y-38127400D01*
D21*
X119027230Y-30792333D02*
X119007400Y-30772503D01*
X120077200Y-37865400D02*
X119477200Y-37865400D01*
X119477200Y-37865400D02*
X119377199Y-37765399D01*
X119027231Y-31219431D02*
X119027230Y-30792333D01*
X119027231Y-34369031D02*
X119337600Y-34679400D01*
X119027231Y-31219431D02*
X119027231Y-34369031D01*
X119337600Y-35619200D02*
X119337600Y-34679400D01*
X119377199Y-35658799D02*
X119337600Y-35619200D01*
X119377199Y-37765399D02*
X119377199Y-35658799D01*
X114232200Y-25306800D02*
X115603800Y-25306800D01*
X111952601Y-27586399D02*
X114232200Y-25306800D01*
X111952601Y-32780801D02*
X111952601Y-27586399D01*
X115615134Y-25311769D02*
X119033066Y-25311769D01*
X119033066Y-25311769D02*
X120046092Y-26324795D01*
X120046092Y-26324795D02*
X120046092Y-28522106D01*
X115603800Y-25306800D02*
X115615134Y-25311769D01*
X120046092Y-28522106D02*
X118804200Y-29763995D01*
X118804200Y-29763995D02*
X118804200Y-30564600D01*
X119027230Y-30787630D02*
X119027230Y-30792333D01*
X118804200Y-30564600D02*
X119027230Y-30787630D01*
D19*
X111952601Y-32780801D02*
X112352600Y-33180800D01*
D21*
X117727200Y-38165400D02*
X118227211Y-37665389D01*
X118227211Y-31123713D02*
X118227209Y-31123711D01*
X117202200Y-38165400D02*
X117727200Y-38165400D01*
X118227211Y-37665389D02*
X118227211Y-31123713D01*
X118227211Y-31123712D02*
X118227211Y-31123713D01*
X113259189Y-30462088D02*
X113259189Y-27411207D01*
X114126890Y-31329788D02*
X113259189Y-30462088D01*
X118701688Y-26111789D02*
X119246072Y-26656173D01*
X113259189Y-27411207D02*
X114558607Y-26111789D01*
X114126890Y-32625710D02*
X114126890Y-31329788D01*
X119246072Y-26656173D02*
X119246072Y-28190728D01*
X117807212Y-30703713D02*
X118227211Y-31123712D01*
X117807212Y-29629587D02*
X117807212Y-30703713D01*
X114558607Y-26111789D02*
X118701688Y-26111789D01*
X113597200Y-33155400D02*
X114126890Y-32625710D01*
X119246072Y-28190728D02*
X117807212Y-29629587D01*
D19*
X121471200Y-30063485D02*
X121471200Y-29497800D01*
X121471200Y-30121400D02*
X121471200Y-30063485D01*
X120327200Y-31265400D02*
X121471200Y-30121400D01*
X120077200Y-31265400D02*
X120327200Y-31265400D01*
D21*
X117842613Y-28462790D02*
X118146061Y-28159342D01*
X118146061Y-28159342D02*
X118146061Y-27211800D01*
X117202200Y-31230098D02*
X117007192Y-31035090D01*
X117007192Y-31035090D02*
X117007192Y-29213508D01*
X117007192Y-29213508D02*
X117757911Y-28462790D01*
X117202200Y-31565400D02*
X117202200Y-31230098D01*
X117757911Y-28462790D02*
X117842613Y-28462790D01*
D20*
X106150000Y-47350000D02*
X108600000Y-49800000D01*
X29701000Y-43671000D02*
X32071000Y-43671000D01*
X32071000Y-43671000D02*
X32071000Y-43671000D01*
X33400000Y-45000000D02*
X34000000Y-45600000D01*
X34000000Y-45600000D02*
X34700000Y-45600000D01*
X34700000Y-45600000D02*
X34700000Y-45600000D01*
X32071000Y-43671000D02*
X33400000Y-45000000D01*
D19*
X77400000Y-25786040D02*
X77513220Y-25786040D01*
X110771800Y-31600000D02*
X111952601Y-32780801D01*
X77513220Y-25786040D02*
X83327180Y-31600000D01*
X57213960Y-25786040D02*
X77400000Y-25786040D01*
X57000000Y-26000000D02*
X57213960Y-25786040D01*
X55736000Y-27264000D02*
X57000000Y-26000000D01*
D21*
X55736000Y-28864000D02*
X55700000Y-28900000D01*
X55736000Y-27264000D02*
X55736000Y-28864000D01*
D19*
X83327180Y-31600000D02*
X103500000Y-31600000D01*
D21*
X106600000Y-30400000D02*
X104700000Y-30400000D01*
X107700000Y-31500000D02*
X106600000Y-30400000D01*
X110700000Y-31500000D02*
X107700000Y-31500000D01*
X104700000Y-30400000D02*
X103500000Y-31600000D01*
X110771800Y-31571800D02*
X110700000Y-31500000D01*
X110771800Y-31600000D02*
X110771800Y-31571800D01*
D19*
X55700000Y-27300000D02*
X57213960Y-25786040D01*
X55700000Y-28900000D02*
X55700000Y-27300000D01*
D21*
X109954630Y-32050010D02*
X107684312Y-32050010D01*
X105000008Y-30800010D02*
X103750009Y-32050009D01*
X107684312Y-32050010D02*
X106434312Y-30800010D01*
X106434312Y-30800010D02*
X105000008Y-30800010D01*
D19*
X112846799Y-33905801D02*
X111810421Y-33905801D01*
X113597200Y-33155400D02*
X112846799Y-33905801D01*
X111810421Y-33905801D02*
X109954630Y-32050010D01*
X55800000Y-29873002D02*
X55800000Y-30000000D01*
X56518205Y-29154797D02*
X55800000Y-29873002D01*
X56518205Y-27118205D02*
X56518205Y-29154797D01*
X57400360Y-26236050D02*
X56518205Y-27118205D01*
X77326820Y-26236050D02*
X57400360Y-26236050D01*
X83140779Y-32050009D02*
X77326820Y-26236050D01*
X103750009Y-32050009D02*
X83140779Y-32050009D01*
D21*
X75389430Y-33489430D02*
X64710570Y-33489430D01*
D19*
X109924232Y-33489430D02*
X75389430Y-33489430D01*
X112639190Y-36204388D02*
X109924232Y-33489430D01*
X112639190Y-39471400D02*
X112639190Y-36204388D01*
X112091990Y-40018600D02*
X112639190Y-39471400D01*
X112091990Y-43461190D02*
X112091990Y-40018600D01*
X113005810Y-44375010D02*
X112091990Y-43461190D01*
X114375010Y-44375010D02*
X113005810Y-44375010D01*
X116000000Y-46000000D02*
X114375010Y-44375010D01*
X64710570Y-33489430D02*
X63910570Y-33489430D01*
X75389430Y-33489430D02*
X63910570Y-33489430D01*
X63910570Y-33489430D02*
X63000000Y-34400000D01*
X40500000Y-43000000D02*
X40500000Y-43000000D01*
X53274999Y-38774999D02*
X44725001Y-38774999D01*
X53300000Y-38800000D02*
X53274999Y-38774999D01*
X54925001Y-37174999D02*
X53300000Y-38800000D01*
X44725001Y-38774999D02*
X40500000Y-43000000D01*
X54925001Y-37174999D02*
X55200000Y-36900000D01*
X55200000Y-36900000D02*
X55300000Y-36800000D01*
X55300000Y-36800000D02*
X64600000Y-36800000D01*
X64600000Y-36800000D02*
X64600000Y-36800000D01*
X89942809Y-34958011D02*
X99700786Y-44715988D01*
X69478399Y-34958011D02*
X89942809Y-34958011D01*
X99700786Y-44715988D02*
X107777012Y-44715988D01*
X64600000Y-36800000D02*
X66400000Y-35000000D01*
X69436410Y-35000000D02*
X69478399Y-34958011D01*
X66400000Y-35000000D02*
X69436410Y-35000000D01*
X67625001Y-50425001D02*
X81474999Y-50425001D01*
X67200000Y-50000000D02*
X67625001Y-50425001D01*
X81474999Y-50425001D02*
X82300000Y-49600000D01*
X124214400Y-43620200D02*
X124163600Y-31834600D01*
X123808000Y-44026600D02*
X124214400Y-43620200D01*
X123071400Y-44788600D02*
X123808000Y-44026600D01*
X115629200Y-43315400D02*
X117102400Y-44788600D01*
X117102400Y-44788600D02*
X123071400Y-44788600D01*
X123298899Y-30969899D02*
X124163600Y-31834600D01*
X122186291Y-30969899D02*
X123298899Y-30969899D01*
X120690790Y-32465400D02*
X122186291Y-30969899D01*
X120077200Y-32465400D02*
X120690790Y-32465400D01*
X98992200Y-39874174D02*
X98992200Y-39505400D01*
X103109013Y-43990987D02*
X98992200Y-39874174D01*
X113625020Y-44825020D02*
X112819409Y-44825019D01*
X108125013Y-43990987D02*
X103109013Y-43990987D01*
X108174427Y-44040401D02*
X108125013Y-43990987D01*
X112819409Y-44825019D02*
X112034791Y-44040401D01*
X115525001Y-46725001D02*
X113625020Y-44825020D01*
X116348001Y-46725001D02*
X115525001Y-46725001D01*
X117102400Y-45970602D02*
X116348001Y-46725001D01*
X112034791Y-44040401D02*
X108174427Y-44040401D01*
X117102400Y-44788600D02*
X117102400Y-45970602D01*
D21*
X117202200Y-32765400D02*
X116677200Y-32765400D01*
X115826930Y-31915130D02*
X115826930Y-28781130D01*
X116677200Y-32765400D02*
X115826930Y-31915130D01*
X115826930Y-28781130D02*
X115837870Y-28781130D01*
X116543600Y-27796000D02*
X116543600Y-27796000D01*
X115826930Y-28512670D02*
X116543600Y-27796000D01*
X115826930Y-28781130D02*
X115826930Y-28512670D01*
D19*
X109406200Y-38235400D02*
X109406200Y-38235400D01*
X120727200Y-33065400D02*
X121776041Y-32016559D01*
X120077200Y-33065400D02*
X120727200Y-33065400D01*
X121776041Y-32016559D02*
X122533841Y-32016559D01*
X122533841Y-32016559D02*
X122855500Y-31694900D01*
X122855500Y-31694900D02*
X122893600Y-31656800D01*
X109660200Y-42426400D02*
X110307900Y-43074100D01*
X109660200Y-38489400D02*
X109660200Y-42426400D01*
X109406200Y-38235400D02*
X109660200Y-38489400D01*
X120077200Y-34265400D02*
X120727200Y-34265400D01*
X120727200Y-34265400D02*
X120877190Y-34115410D01*
X120877190Y-34115410D02*
X121654190Y-34115410D01*
X116627200Y-34565400D02*
X117202200Y-34565400D01*
X113597200Y-40267400D02*
X113597200Y-39181402D01*
X113539210Y-39123412D02*
X113539210Y-36328568D01*
X113597200Y-39181402D02*
X113539210Y-39123412D01*
X115302378Y-34565400D02*
X116627200Y-34565400D01*
X113539210Y-36328568D02*
X115302378Y-34565400D01*
D21*
X121792600Y-34865400D02*
X120677200Y-34865400D01*
X120677200Y-34865400D02*
X120077200Y-34865400D01*
X122354560Y-38901440D02*
X122354560Y-37487439D01*
X121776000Y-39480000D02*
X122354560Y-38901440D01*
X122717221Y-35790021D02*
X121792600Y-34865400D01*
X122354560Y-37487439D02*
X122717221Y-37124779D01*
X122717221Y-37124779D02*
X122717221Y-35790021D01*
D19*
X116605187Y-35028389D02*
X116742198Y-35165400D01*
X115475799Y-35028389D02*
X116605187Y-35028389D01*
X116742198Y-35165400D02*
X117202200Y-35165400D01*
X114264211Y-36239977D02*
X115475799Y-35028389D01*
X114264211Y-38775411D02*
X114264211Y-36239977D01*
D21*
X120607499Y-35465400D02*
X120077200Y-35465400D01*
X121954550Y-37980650D02*
X121954550Y-37321750D01*
X121445800Y-38489400D02*
X121954550Y-37980650D01*
X121954550Y-37321750D02*
X122317211Y-36959090D01*
X122317211Y-35955710D02*
X121718890Y-35357389D01*
X120715510Y-35357389D02*
X120607499Y-35465400D01*
X121718890Y-35357389D02*
X120715510Y-35357389D01*
X122317211Y-36959090D02*
X122317211Y-35955710D01*
D19*
X86283800Y-23990300D02*
X83739500Y-21255500D01*
X91744800Y-23990300D02*
X86283800Y-23990300D01*
X116627200Y-35765400D02*
X117202200Y-35765400D01*
X115662199Y-35478399D02*
X116340199Y-35478399D01*
X115248200Y-35892398D02*
X115662199Y-35478399D01*
X116340199Y-35478399D02*
X116627200Y-35765400D01*
X115248200Y-37600400D02*
X115248200Y-35892398D01*
D21*
X120881199Y-35757399D02*
X120573198Y-36065400D01*
X120573198Y-36065400D02*
X120077200Y-36065400D01*
X121553201Y-35757399D02*
X120881199Y-35757399D01*
X121917201Y-36121399D02*
X121553201Y-35757399D01*
X121917201Y-36793401D02*
X121917201Y-36121399D01*
X121211802Y-37498800D02*
X121917201Y-36793401D01*
X121090200Y-37498800D02*
X121211802Y-37498800D01*
D19*
X98490601Y-42280401D02*
X98890600Y-42680400D01*
X98267199Y-42056999D02*
X98490601Y-42280401D01*
X110549200Y-38184600D02*
X109838000Y-37473400D01*
X109838000Y-37473400D02*
X99754200Y-37473400D01*
X99754200Y-37473400D02*
X98267199Y-38960401D01*
X98267199Y-38960401D02*
X98267199Y-42056999D01*
X116172200Y-36365400D02*
X117202200Y-36365400D01*
X116010200Y-36203400D02*
X116172200Y-36365400D01*
X93801199Y-36727399D02*
X93785200Y-36711400D01*
X110946199Y-36727399D02*
X93801199Y-36727399D01*
X110971599Y-36752799D02*
X110946199Y-36727399D01*
X111489000Y-37143200D02*
X111489000Y-37143200D01*
X111098599Y-36752799D02*
X110971599Y-36752799D01*
X111489000Y-37143200D02*
X111098599Y-36752799D01*
X121009200Y-36665400D02*
X120077200Y-36665400D01*
X121217200Y-36457400D02*
X121009200Y-36665400D01*
X111311200Y-35949400D02*
X111565200Y-35949400D01*
X111311200Y-35949400D02*
X110803200Y-35949400D01*
X92007200Y-35949400D02*
X110803200Y-35949400D01*
D21*
X113528302Y-34260300D02*
X114526900Y-33261702D01*
X113144894Y-34677409D02*
X114526900Y-33295403D01*
X114526900Y-33295403D02*
X114526900Y-33119900D01*
X112579209Y-34677409D02*
X113144894Y-34677409D01*
X114526900Y-33261702D02*
X114526900Y-33119900D01*
X117727200Y-37565400D02*
X117202200Y-37565400D01*
X117827201Y-31289401D02*
X117827201Y-37465399D01*
X117407200Y-30869400D02*
X117827201Y-31289401D01*
X117407202Y-30869398D02*
X117407200Y-30869400D01*
X114724295Y-26511799D02*
X118535999Y-26511799D01*
X113659199Y-27576895D02*
X114724295Y-26511799D01*
X118846062Y-26821862D02*
X118846062Y-28025039D01*
X113659199Y-30296399D02*
X113659199Y-27576895D01*
X114526900Y-33119900D02*
X114526900Y-31164100D01*
X118535999Y-26511799D02*
X118846062Y-26821862D01*
X114526900Y-31164100D02*
X113659199Y-30296399D01*
X118008301Y-28862800D02*
X117923600Y-28862800D01*
X118846062Y-28025039D02*
X118008301Y-28862800D01*
X117407202Y-29379198D02*
X117407202Y-30869398D01*
X117827201Y-37465399D02*
X117727200Y-37565400D01*
X117923600Y-28862800D02*
X117407202Y-29379198D01*
D19*
X111945619Y-34677409D02*
X110307630Y-33039420D01*
X112579209Y-34677409D02*
X111945619Y-34677409D01*
X67560580Y-33039420D02*
X110307630Y-33039420D01*
X67560580Y-33039420D02*
X67239420Y-33039420D01*
X67239420Y-33039420D02*
X66200000Y-32000000D01*
X66200000Y-32000000D02*
X66200000Y-32000000D01*
X119352199Y-39365400D02*
X119652199Y-39065400D01*
X119652199Y-39065400D02*
X120077200Y-39065400D01*
X117202200Y-39365400D02*
X119352199Y-39365400D01*
D21*
X119477200Y-39065400D02*
X120077200Y-39065400D01*
X119646082Y-26490484D02*
X119646082Y-28356417D01*
X114392919Y-25711779D02*
X118867377Y-25711779D01*
X112859179Y-27245519D02*
X114392919Y-25711779D01*
X118867377Y-25711779D02*
X119646082Y-26490484D01*
X112859179Y-32214179D02*
X112859179Y-27245519D01*
X118207222Y-29795275D02*
X118207222Y-30526422D01*
X119646082Y-28356417D02*
X118207222Y-29795275D01*
X118335396Y-30654596D02*
X118335396Y-30666200D01*
X118207222Y-30526422D02*
X118335396Y-30654596D01*
X118627221Y-38215421D02*
X119477200Y-39065400D01*
X118335396Y-30666200D02*
X118627221Y-30958024D01*
X118627221Y-30958024D02*
X118627221Y-38215421D01*
D19*
X122690400Y-40724600D02*
X122690400Y-40724600D01*
X122385600Y-33231600D02*
X122385600Y-33231600D01*
X123142231Y-33988231D02*
X123142231Y-40298169D01*
X122715800Y-40724600D02*
X121895630Y-40724600D01*
X122385600Y-33231600D02*
X123142231Y-33988231D01*
X120836430Y-39665400D02*
X120077200Y-39665400D01*
X123142231Y-40298169D02*
X122715800Y-40724600D01*
X121895630Y-40724600D02*
X120836430Y-39665400D01*
X117777200Y-40565400D02*
X117202200Y-40565400D01*
X117927200Y-40565400D02*
X117777200Y-40565400D01*
X119427200Y-42065400D02*
X117927200Y-40565400D01*
X120077200Y-42065400D02*
X119427200Y-42065400D01*
X120612202Y-42065400D02*
X121014000Y-42467198D01*
X120077200Y-42065400D02*
X120612202Y-42065400D01*
X121014000Y-42467198D02*
X121014000Y-43086800D01*
X121014000Y-43086800D02*
X121014000Y-43467800D01*
X121014000Y-43467800D02*
X121014000Y-43467800D01*
X114951910Y-30715375D02*
X114951910Y-31377400D01*
X115949200Y-42365400D02*
X117202200Y-42365400D01*
X114951910Y-30715375D02*
X114941775Y-30715375D01*
X114941775Y-30715375D02*
X114359200Y-30132800D01*
X114359200Y-30132800D02*
X114359200Y-29802600D01*
X114359200Y-29802600D02*
X114359200Y-29802600D01*
X120763610Y-40865400D02*
X120077200Y-40865400D01*
X121648409Y-41750199D02*
X120763610Y-40865400D01*
X121995001Y-41750199D02*
X121648409Y-41750199D01*
X113089200Y-35505758D02*
X114951910Y-33643048D01*
X113089200Y-39657800D02*
X113089200Y-35505758D01*
X114086201Y-41302399D02*
X113559197Y-41302399D01*
X114486200Y-40902400D02*
X114086201Y-41302399D01*
X114951910Y-33643048D02*
X114951910Y-31217720D01*
X113559197Y-41302399D02*
X112872199Y-40615401D01*
X112872199Y-39874801D02*
X113089200Y-39657800D01*
X112872199Y-40615401D02*
X112872199Y-39874801D01*
X115553000Y-42401000D02*
X115506198Y-42365400D01*
X115470598Y-42401000D02*
X115553000Y-42401000D01*
X113192210Y-43925000D02*
X113946598Y-43925000D01*
X115506198Y-42365400D02*
X115949200Y-42365400D01*
X113946598Y-43925000D02*
X115470598Y-42401000D01*
X116354201Y-42770401D02*
X115949200Y-42365400D01*
X116354201Y-43259203D02*
X116354201Y-42770401D01*
X117287799Y-44192801D02*
X116354201Y-43259203D01*
X121362001Y-44192801D02*
X117287799Y-44192801D01*
X122501001Y-43053801D02*
X121362001Y-44192801D01*
X122501001Y-42256199D02*
X122501001Y-43053801D01*
X121995001Y-41750199D02*
X122501001Y-42256199D01*
X89916379Y-41860989D02*
X92615390Y-44560000D01*
X77489587Y-44592001D02*
X80220599Y-41860989D01*
X80220599Y-41860989D02*
X89916379Y-41860989D01*
X92615390Y-44560000D02*
X93328000Y-44560000D01*
X75304598Y-46776990D02*
X80220599Y-41860989D01*
X31250001Y-45035999D02*
X32990992Y-46776990D01*
X32990992Y-46776990D02*
X75304598Y-46776990D01*
X89427999Y-42310999D02*
X96249000Y-49132000D01*
X80406999Y-42310999D02*
X89427999Y-42310999D01*
X32132999Y-46991999D02*
X32132999Y-47118999D01*
X31733000Y-46592000D02*
X32132999Y-46991999D01*
X75490998Y-47227000D02*
X80406999Y-42310999D01*
X32132999Y-47118999D02*
X32240999Y-47226999D01*
X32240999Y-47226999D02*
X75490998Y-47227000D01*
X108706599Y-43380001D02*
X108771200Y-43315400D01*
X103749599Y-43380001D02*
X108706599Y-43380001D01*
X102600000Y-42230402D02*
X103749599Y-43380001D01*
X102600000Y-38200000D02*
X102600000Y-42230402D01*
X108771200Y-43315400D02*
X108200000Y-42744200D01*
X108200000Y-42744200D02*
X108200000Y-38400000D01*
X108200000Y-38400000D02*
X108200000Y-38200000D01*
X108200000Y-38200000D02*
X108200000Y-38200000D01*
D21*
X116543600Y-27796000D02*
X116543600Y-27796000D01*
D19*
X112633605Y-43094607D02*
X112541999Y-43003001D01*
X112541999Y-43003001D02*
X112541999Y-40945601D01*
X112633605Y-43366395D02*
X112633605Y-43094607D01*
X112541999Y-40945601D02*
X112872199Y-40615401D01*
X112633605Y-43366395D02*
X113192210Y-43925000D01*
X26595999Y-44795001D02*
X25984999Y-44184001D01*
X30195001Y-44795001D02*
X26595999Y-44795001D01*
X30435999Y-45035999D02*
X30195001Y-44795001D01*
X25984999Y-44184001D02*
X25984999Y-39767001D01*
X31250001Y-45035999D02*
X30435999Y-45035999D01*
X25984999Y-39767001D02*
X26426000Y-39326000D01*
X27161000Y-38591000D02*
X26426000Y-39326000D01*
X27160000Y-38592000D02*
X26426000Y-39326000D01*
X27160000Y-38540000D02*
X27160000Y-38592000D01*
X80034199Y-41410979D02*
X91710979Y-41410979D01*
X37751874Y-46288284D02*
X75156894Y-46288284D01*
X33894599Y-42431009D02*
X37751874Y-46288284D01*
X91710979Y-41410979D02*
X94400000Y-44100000D01*
X75156894Y-46288284D02*
X80034199Y-41410979D01*
X28524999Y-39715001D02*
X29700000Y-38540000D01*
X28524999Y-41644001D02*
X28524999Y-39715001D01*
X29312007Y-42431009D02*
X28524999Y-41644001D01*
X33894599Y-42431009D02*
X29312007Y-42431009D01*
X80755000Y-43036000D02*
X80755000Y-43036000D01*
X29701000Y-46211000D02*
X31167009Y-47677009D01*
X76125009Y-47665991D02*
X76125009Y-47677009D01*
X80755000Y-43036000D02*
X76125009Y-47665991D01*
X31167009Y-47677009D02*
X76125009Y-47677009D01*
X82249200Y-44530200D02*
X78202370Y-48577030D01*
X28335001Y-49875001D02*
X27160000Y-48700000D01*
X31124999Y-49875001D02*
X28335001Y-49875001D01*
X32422970Y-48577030D02*
X31124999Y-49875001D01*
X78202370Y-48577030D02*
X32422970Y-48577030D01*
X77314980Y-48127020D02*
X31424980Y-48127020D01*
X80979200Y-44462800D02*
X77314980Y-48127020D01*
X30272981Y-48127019D02*
X29700000Y-48700000D01*
X31327019Y-48127019D02*
X30272981Y-48127019D01*
X46719000Y-32495000D02*
X46719000Y-32495000D01*
X44560000Y-31352000D02*
X44560000Y-31352000D01*
X82279000Y-26399000D02*
X82279000Y-26272000D01*
X81553999Y-27124001D02*
X82279000Y-26399000D01*
X56550390Y-24886020D02*
X77886020Y-24886020D01*
X80124001Y-27124001D02*
X81553999Y-27124001D01*
X77886020Y-24886020D02*
X80124001Y-27124001D01*
X36942186Y-29777499D02*
X51777499Y-29777499D01*
X51777499Y-29777499D02*
X51777499Y-29658911D01*
X51777499Y-29658911D02*
X56550390Y-24886020D01*
X36942186Y-29777499D02*
X35510684Y-31209001D01*
X34890999Y-31209001D02*
X33800000Y-32300000D01*
X35510684Y-31209001D02*
X34890999Y-31209001D01*
X81009000Y-26399000D02*
X81009000Y-26399000D01*
X79046010Y-24436010D02*
X81009000Y-26399000D01*
X56363990Y-24436010D02*
X79046010Y-24436010D01*
X51472511Y-29327489D02*
X56363990Y-24436010D01*
X35496500Y-30505400D02*
X36779200Y-29311600D01*
X36779200Y-29311600D02*
X51472511Y-29327489D01*
X34421400Y-30505400D02*
X34400000Y-30484000D01*
X35496500Y-30505400D02*
X34421400Y-30505400D01*
D20*
X43395400Y-21400000D02*
X35421546Y-29373854D01*
X55000000Y-21400000D02*
X43395400Y-21400000D01*
D19*
X119542198Y-41465400D02*
X120077200Y-41465400D01*
X118042198Y-39965400D02*
X119542198Y-41465400D01*
X117202200Y-39965400D02*
X118042198Y-39965400D01*
X116552199Y-40155399D02*
X116694198Y-40013400D01*
X116552199Y-41575401D02*
X116552199Y-40155399D01*
X117202200Y-41765400D02*
X116742198Y-41765400D01*
X116742198Y-41765400D02*
X116552199Y-41575401D01*
X117154200Y-40013400D02*
X117202200Y-39965400D01*
X116694198Y-40013400D02*
X117154200Y-40013400D01*
X117202200Y-33365400D02*
X117202200Y-33965400D01*
X120727200Y-41465400D02*
X121776000Y-42514200D01*
X120077200Y-41465400D02*
X120727200Y-41465400D01*
X121776000Y-42514200D02*
X121776000Y-42680400D01*
X121776000Y-42680400D02*
X121776000Y-42680400D01*
D21*
X117243601Y-27459999D02*
X116879601Y-27095999D01*
X117142001Y-28233601D02*
X117243601Y-28132001D01*
X116049801Y-27095999D02*
X114384600Y-28761200D01*
X116787198Y-32165400D02*
X116226940Y-31605142D01*
X117202200Y-32165400D02*
X116787198Y-32165400D01*
X117243601Y-28132001D02*
X117243601Y-27459999D01*
X116226940Y-29428062D02*
X117142001Y-28513001D01*
X116879601Y-27095999D02*
X116049801Y-27095999D01*
X116226940Y-31605142D02*
X116226940Y-29428062D01*
X117142001Y-28513001D02*
X117142001Y-28233601D01*
D19*
X116627200Y-33965400D02*
X117202200Y-33965400D01*
X115401920Y-32740120D02*
X116627200Y-33965400D01*
X115401920Y-29772318D02*
X115401920Y-32740120D01*
X114707201Y-29077599D02*
X115401920Y-29772318D01*
X114396199Y-29077599D02*
X114707201Y-29077599D01*
X114384600Y-29066000D02*
X114396199Y-29077599D01*
X114384600Y-28761200D02*
X114384600Y-29066000D01*
X116742198Y-39965400D02*
X114560598Y-42147000D01*
X117202200Y-39965400D02*
X116742198Y-39965400D01*
X114560598Y-42147000D02*
X113775000Y-42147000D01*
X113775000Y-42147000D02*
X113394000Y-42528000D01*
X113394000Y-42528000D02*
X113267000Y-42655000D01*
X113267000Y-42655000D02*
X113267000Y-42655000D01*
X94598000Y-26145000D02*
X94598000Y-26145000D01*
D20*
X85505186Y-26145000D02*
X82496185Y-23135999D01*
X94598000Y-26145000D02*
X85505186Y-26145000D01*
D19*
X116400000Y-23200000D02*
X116400000Y-23200000D01*
D20*
X94598000Y-26145000D02*
X107255000Y-26145000D01*
X115561170Y-23200000D02*
X109626400Y-29134770D01*
X116400000Y-23200000D02*
X115561170Y-23200000D01*
X108465230Y-29134770D02*
X108300000Y-29300000D01*
X109626400Y-29134770D02*
X108465230Y-29134770D01*
X107255000Y-28255000D02*
X107255000Y-26145000D01*
X108300000Y-29300000D02*
X107255000Y-28255000D01*
D19*
X52644990Y-32044990D02*
X52644990Y-32044990D01*
X55500000Y-37900000D02*
X55500000Y-40200000D01*
X55500000Y-40200000D02*
X52500000Y-43200000D01*
D20*
X39499999Y-30500001D02*
X39100000Y-30900000D01*
X51100001Y-30500001D02*
X39499999Y-30500001D01*
X52644990Y-32044990D02*
X51100001Y-30500001D01*
X55500000Y-40300000D02*
X52550000Y-43250000D01*
X55500000Y-37900000D02*
X55500000Y-40300000D01*
X82435999Y-23135999D02*
X79449999Y-20149999D01*
X79449999Y-20149999D02*
X63450001Y-20149999D01*
X82496185Y-23135999D02*
X82496185Y-23135999D01*
X32303000Y-31290000D02*
X32303000Y-31297000D01*
X43443001Y-20149999D02*
X32303000Y-31290000D01*
D19*
X78464902Y-49387500D02*
X85091393Y-42761009D01*
X76712500Y-49387500D02*
X78464902Y-49387500D01*
X85091393Y-42761009D02*
X89241599Y-42761009D01*
X101543000Y-50257000D02*
X101942999Y-49857001D01*
X94683998Y-50257000D02*
X101543000Y-50257000D01*
X94074999Y-47594409D02*
X94074999Y-49648001D01*
X94074999Y-49648001D02*
X94683998Y-50257000D01*
X89241599Y-42761009D02*
X94074999Y-47594409D01*
X117777200Y-39965400D02*
X117202200Y-39965400D01*
X117927190Y-39815410D02*
X117777200Y-39965400D01*
X119538599Y-39815410D02*
X117927190Y-39815410D01*
X119688609Y-39665400D02*
X119538599Y-39815410D01*
X120077200Y-39665400D02*
X119688609Y-39665400D01*
D20*
X82496185Y-23135999D02*
X82435999Y-23135999D01*
X62100000Y-20200000D02*
X62150001Y-20149999D01*
X62100000Y-22500000D02*
X62100000Y-20200000D01*
X62150001Y-20149999D02*
X43443001Y-20149999D01*
X63450001Y-20149999D02*
X62150001Y-20149999D01*
D19*
X32303000Y-33403000D02*
X33600000Y-34700000D01*
X32303000Y-31297000D02*
X32303000Y-33403000D01*
X79000000Y-40800000D02*
X74000000Y-45800000D01*
X74000000Y-45800000D02*
X37900000Y-45800000D01*
X37900000Y-45800000D02*
X33231000Y-41131000D01*
X29751000Y-41131000D02*
X29700000Y-41080000D01*
X33231000Y-41131000D02*
X29751000Y-41131000D01*
D21*
X106100001Y-32499999D02*
X81161001Y-32499999D01*
X106500000Y-32100000D02*
X106100001Y-32499999D01*
D19*
X81161001Y-32462999D02*
X78998002Y-30300000D01*
X81161001Y-32499999D02*
X81161001Y-32462999D01*
X78998002Y-30300000D02*
X58900000Y-30300000D01*
X58900000Y-30300000D02*
X57500000Y-31700000D01*
X57500000Y-31700000D02*
X57500000Y-31700000D01*
X67891999Y-34508001D02*
X99913001Y-34508001D01*
X67866999Y-34533001D02*
X67891999Y-34508001D01*
X65376411Y-34533001D02*
X67866999Y-34533001D01*
X63659422Y-36249990D02*
X65376411Y-34533001D01*
X53986420Y-36249990D02*
X63659422Y-36249990D01*
X99913001Y-34508001D02*
X100313000Y-34908000D01*
X52211409Y-38025001D02*
X53986420Y-36249990D01*
X47125001Y-38025001D02*
X52211409Y-38025001D01*
X46719000Y-37619000D02*
X47125001Y-38025001D01*
X46719000Y-32495000D02*
X46719000Y-37619000D01*
X50100000Y-28300000D02*
X50100000Y-28300000D01*
X56177589Y-23986001D02*
X51863590Y-28300000D01*
X86253002Y-29300000D02*
X80939002Y-23986000D01*
X106700000Y-29300000D02*
X86253002Y-29300000D01*
X51863590Y-28300000D02*
X50100000Y-28300000D01*
X80939002Y-23986000D02*
X56177589Y-23986001D01*
X107600000Y-30200000D02*
X106700000Y-29300000D01*
D21*
X101782991Y-34082991D02*
X67617009Y-34082991D01*
X102000000Y-34300000D02*
X101782991Y-34082991D01*
D19*
X65190011Y-34082991D02*
X63473022Y-35799980D01*
X67617009Y-34082991D02*
X65190011Y-34082991D01*
X63473022Y-35799980D02*
X53899980Y-35799980D01*
X53899980Y-35799980D02*
X53800020Y-35799980D01*
X53800020Y-35799980D02*
X52300000Y-37300000D01*
X52300000Y-37300000D02*
X50400000Y-37300000D01*
X50400000Y-37300000D02*
X50400000Y-37300000D01*
D21*
X106593201Y-38635399D02*
X106593201Y-41835799D01*
X106993200Y-38235400D02*
X106593201Y-38635399D01*
X106593201Y-41835799D02*
X105901000Y-42528000D01*
X105901000Y-42528000D02*
X105774000Y-42655000D01*
X105774000Y-42655000D02*
X105774000Y-42655000D01*
D19*
X95273991Y-43900989D02*
X92333971Y-40960969D01*
X95273991Y-44276993D02*
X95273991Y-43900989D01*
X97859498Y-46862500D02*
X95273991Y-44276993D01*
X103137500Y-46862500D02*
X97859498Y-46862500D01*
X92333971Y-40960969D02*
X80960969Y-40960969D01*
X80960969Y-40960969D02*
X80074999Y-40074999D01*
X45300000Y-39500000D02*
X45300000Y-39500000D01*
X78225001Y-40174999D02*
X73050010Y-45349990D01*
X78225001Y-40074999D02*
X78225001Y-40174999D01*
X80074999Y-40074999D02*
X78225001Y-40074999D01*
X73050010Y-45349990D02*
X47149990Y-45349990D01*
X45300000Y-43500000D02*
X45300000Y-39500000D01*
X47149990Y-45349990D02*
X45300000Y-43500000D01*
D22*
G36*
X75917282Y-49146273D02*
G01*
X75885500Y-49306048D01*
X75885500Y-49468952D01*
X75917282Y-49628727D01*
X75979623Y-49779231D01*
X76042278Y-49873001D01*
X68017940Y-49873001D01*
X67995218Y-49758773D01*
X67932877Y-49608269D01*
X67842372Y-49472819D01*
X67727181Y-49357628D01*
X67591731Y-49267123D01*
X67441227Y-49204782D01*
X67281452Y-49173000D01*
X67118548Y-49173000D01*
X66958773Y-49204782D01*
X66808269Y-49267123D01*
X66672819Y-49357628D01*
X66557628Y-49472819D01*
X66467123Y-49608269D01*
X66404782Y-49758773D01*
X66373000Y-49918548D01*
X66373000Y-50081452D01*
X66404782Y-50241227D01*
X66441967Y-50331000D01*
X31439484Y-50331000D01*
X31517210Y-50267212D01*
X31534499Y-50246145D01*
X32651616Y-49129030D01*
X75924424Y-49129030D01*
X75917282Y-49146273D01*
G37*
X75917282Y-49146273D02*
X75885500Y-49306048D01*
X75885500Y-49468952D01*
X75917282Y-49628727D01*
X75979623Y-49779231D01*
X76042278Y-49873001D01*
X68017940Y-49873001D01*
X67995218Y-49758773D01*
X67932877Y-49608269D01*
X67842372Y-49472819D01*
X67727181Y-49357628D01*
X67591731Y-49267123D01*
X67441227Y-49204782D01*
X67281452Y-49173000D01*
X67118548Y-49173000D01*
X66958773Y-49204782D01*
X66808269Y-49267123D01*
X66672819Y-49357628D01*
X66557628Y-49472819D01*
X66467123Y-49608269D01*
X66404782Y-49758773D01*
X66373000Y-49918548D01*
X66373000Y-50081452D01*
X66404782Y-50241227D01*
X66441967Y-50331000D01*
X31439484Y-50331000D01*
X31517210Y-50267212D01*
X31534499Y-50246145D01*
X32651616Y-49129030D01*
X75924424Y-49129030D01*
X75917282Y-49146273D01*
G36*
X93522999Y-47823055D02*
G01*
X93523000Y-49620885D01*
X93520329Y-49648001D01*
X93530988Y-49756211D01*
X93562551Y-49860263D01*
X93613808Y-49956158D01*
X93620088Y-49963810D01*
X93682789Y-50040212D01*
X93703850Y-50057497D01*
X93977353Y-50331000D01*
X82349645Y-50331000D01*
X82371572Y-50309074D01*
X82441227Y-50295218D01*
X82591731Y-50232877D01*
X82727181Y-50142372D01*
X82842372Y-50027181D01*
X82932877Y-49891731D01*
X82995218Y-49741227D01*
X83027000Y-49581452D01*
X83027000Y-49418548D01*
X82995218Y-49258773D01*
X82932877Y-49108269D01*
X82842372Y-48972819D01*
X82727181Y-48857628D01*
X82591731Y-48767123D01*
X82441227Y-48704782D01*
X82281452Y-48673000D01*
X82118548Y-48673000D01*
X81958773Y-48704782D01*
X81808269Y-48767123D01*
X81672819Y-48857628D01*
X81557628Y-48972819D01*
X81467123Y-49108269D01*
X81404782Y-49258773D01*
X81373000Y-49418548D01*
X81373000Y-49581452D01*
X81400360Y-49718995D01*
X81246355Y-49873001D01*
X78727579Y-49873001D01*
X78773060Y-49848691D01*
X78857113Y-49779711D01*
X78874403Y-49758643D01*
X85320039Y-43313009D01*
X89012955Y-43313009D01*
X93522999Y-47823055D01*
G37*
X93522999Y-47823055D02*
X93523000Y-49620885D01*
X93520329Y-49648001D01*
X93530988Y-49756211D01*
X93562551Y-49860263D01*
X93613808Y-49956158D01*
X93620088Y-49963810D01*
X93682789Y-50040212D01*
X93703850Y-50057497D01*
X93977353Y-50331000D01*
X82349645Y-50331000D01*
X82371572Y-50309074D01*
X82441227Y-50295218D01*
X82591731Y-50232877D01*
X82727181Y-50142372D01*
X82842372Y-50027181D01*
X82932877Y-49891731D01*
X82995218Y-49741227D01*
X83027000Y-49581452D01*
X83027000Y-49418548D01*
X82995218Y-49258773D01*
X82932877Y-49108269D01*
X82842372Y-48972819D01*
X82727181Y-48857628D01*
X82591731Y-48767123D01*
X82441227Y-48704782D01*
X82281452Y-48673000D01*
X82118548Y-48673000D01*
X81958773Y-48704782D01*
X81808269Y-48767123D01*
X81672819Y-48857628D01*
X81557628Y-48972819D01*
X81467123Y-49108269D01*
X81404782Y-49258773D01*
X81373000Y-49418548D01*
X81373000Y-49581452D01*
X81400360Y-49718995D01*
X81246355Y-49873001D01*
X78727579Y-49873001D01*
X78773060Y-49848691D01*
X78857113Y-49779711D01*
X78874403Y-49758643D01*
X85320039Y-43313009D01*
X89012955Y-43313009D01*
X93522999Y-47823055D01*
G36*
X99291294Y-45087142D02*
G01*
X99308575Y-45108199D01*
X99329631Y-45125479D01*
X99392627Y-45177179D01*
X99439761Y-45202372D01*
X99488523Y-45228436D01*
X99592575Y-45260000D01*
X99673677Y-45267988D01*
X99673687Y-45267988D01*
X99700785Y-45270657D01*
X99727883Y-45267988D01*
X107159459Y-45267988D01*
X107249831Y-45358360D01*
X107385281Y-45448865D01*
X107535785Y-45511206D01*
X107695560Y-45542988D01*
X107858464Y-45542988D01*
X108018239Y-45511206D01*
X108168743Y-45448865D01*
X108304193Y-45358360D01*
X108419384Y-45243169D01*
X108509889Y-45107719D01*
X108572230Y-44957215D01*
X108604012Y-44797440D01*
X108604012Y-44634536D01*
X108595631Y-44592401D01*
X111806147Y-44592401D01*
X112409922Y-45196178D01*
X112427198Y-45217229D01*
X112448249Y-45234505D01*
X112448254Y-45234510D01*
X112511250Y-45286210D01*
X112607145Y-45337466D01*
X112711198Y-45369030D01*
X112819408Y-45379688D01*
X112846515Y-45377018D01*
X113396375Y-45377019D01*
X115115505Y-47096150D01*
X115132790Y-47117212D01*
X115216843Y-47186192D01*
X115312738Y-47237449D01*
X115416790Y-47269013D01*
X115497892Y-47277001D01*
X115497895Y-47277001D01*
X115525001Y-47279671D01*
X115552107Y-47277001D01*
X116320895Y-47277001D01*
X116348001Y-47279671D01*
X116375107Y-47277001D01*
X116375110Y-47277001D01*
X116456212Y-47269013D01*
X116560264Y-47237449D01*
X116656159Y-47186192D01*
X116740212Y-47117212D01*
X116757501Y-47096145D01*
X117473554Y-46380094D01*
X117494611Y-46362813D01*
X117530395Y-46319210D01*
X117563591Y-46278761D01*
X117599135Y-46212262D01*
X117614848Y-46182865D01*
X117646412Y-46078813D01*
X117654400Y-45997711D01*
X117654400Y-45997701D01*
X117657069Y-45970603D01*
X117654400Y-45943505D01*
X117654400Y-45340600D01*
X123048986Y-45340600D01*
X123080799Y-45343190D01*
X123130116Y-45337487D01*
X123179611Y-45332612D01*
X123184133Y-45331240D01*
X123188814Y-45330699D01*
X123236064Y-45315487D01*
X123283663Y-45301048D01*
X123287827Y-45298822D01*
X123292316Y-45297377D01*
X123335703Y-45273232D01*
X123379558Y-45249791D01*
X123383209Y-45246795D01*
X123387329Y-45244502D01*
X123425177Y-45212353D01*
X123463611Y-45180811D01*
X123483867Y-45156129D01*
X124118001Y-44500129D01*
X124118001Y-50331000D01*
X102620906Y-50331000D01*
X102675876Y-50248732D01*
X102738217Y-50098228D01*
X102769999Y-49938453D01*
X102769999Y-49775549D01*
X102738217Y-49615774D01*
X102675876Y-49465270D01*
X102585371Y-49329820D01*
X102470180Y-49214629D01*
X102334730Y-49124124D01*
X102184226Y-49061783D01*
X102024451Y-49030001D01*
X101861547Y-49030001D01*
X101701772Y-49061783D01*
X101551268Y-49124124D01*
X101415818Y-49214629D01*
X101300627Y-49329820D01*
X101210122Y-49465270D01*
X101147781Y-49615774D01*
X101130032Y-49705000D01*
X96845553Y-49705000D01*
X96891372Y-49659181D01*
X96981877Y-49523731D01*
X97044218Y-49373227D01*
X97076000Y-49213452D01*
X97076000Y-49050548D01*
X97044218Y-48890773D01*
X96981877Y-48740269D01*
X96891372Y-48604819D01*
X96776181Y-48489628D01*
X96640731Y-48399123D01*
X96490227Y-48336782D01*
X96330452Y-48305000D01*
X96202646Y-48305000D01*
X93284645Y-45387000D01*
X93409452Y-45387000D01*
X93569227Y-45355218D01*
X93719731Y-45292877D01*
X93855181Y-45202372D01*
X93970372Y-45087181D01*
X94060877Y-44951731D01*
X94095194Y-44868883D01*
X94158773Y-44895218D01*
X94318548Y-44927000D01*
X94481452Y-44927000D01*
X94641227Y-44895218D01*
X94791731Y-44832877D01*
X94927181Y-44742372D01*
X94942953Y-44726600D01*
X97450006Y-47233654D01*
X97467287Y-47254711D01*
X97551340Y-47323691D01*
X97647235Y-47374948D01*
X97751287Y-47406512D01*
X97832389Y-47414500D01*
X97832391Y-47414500D01*
X97859497Y-47417170D01*
X97886603Y-47414500D01*
X102519947Y-47414500D01*
X102610319Y-47504872D01*
X102745769Y-47595377D01*
X102896273Y-47657718D01*
X103056048Y-47689500D01*
X103218952Y-47689500D01*
X103378727Y-47657718D01*
X103529231Y-47595377D01*
X103664681Y-47504872D01*
X103779872Y-47389681D01*
X103870377Y-47254231D01*
X103932718Y-47103727D01*
X103943483Y-47049604D01*
X109873000Y-47049604D01*
X109873000Y-47350396D01*
X109931681Y-47645410D01*
X110046790Y-47923306D01*
X110213901Y-48173406D01*
X110426594Y-48386099D01*
X110676694Y-48553210D01*
X110954590Y-48668319D01*
X111249604Y-48727000D01*
X111550396Y-48727000D01*
X111845410Y-48668319D01*
X112123306Y-48553210D01*
X112373406Y-48386099D01*
X112586099Y-48173406D01*
X112753210Y-47923306D01*
X112868319Y-47645410D01*
X112927000Y-47350396D01*
X112927000Y-47049604D01*
X112868319Y-46754590D01*
X112753210Y-46476694D01*
X112586099Y-46226594D01*
X112373406Y-46013901D01*
X112123306Y-45846790D01*
X111845410Y-45731681D01*
X111550396Y-45673000D01*
X111249604Y-45673000D01*
X110954590Y-45731681D01*
X110676694Y-45846790D01*
X110426594Y-46013901D01*
X110213901Y-46226594D01*
X110046790Y-46476694D01*
X109931681Y-46754590D01*
X109873000Y-47049604D01*
X103943483Y-47049604D01*
X103964500Y-46943952D01*
X103964500Y-46781048D01*
X103932718Y-46621273D01*
X103870377Y-46470769D01*
X103779872Y-46335319D01*
X103664681Y-46220128D01*
X103529231Y-46129623D01*
X103378727Y-46067282D01*
X103218952Y-46035500D01*
X103056048Y-46035500D01*
X102896273Y-46067282D01*
X102745769Y-46129623D01*
X102610319Y-46220128D01*
X102519947Y-46310500D01*
X98088144Y-46310500D01*
X95825991Y-44048349D01*
X95825991Y-43928094D01*
X95828661Y-43900988D01*
X95825722Y-43871153D01*
X95818003Y-43792779D01*
X95786439Y-43688726D01*
X95735182Y-43592831D01*
X95666202Y-43508778D01*
X95645145Y-43491497D01*
X92743472Y-40589825D01*
X92726182Y-40568758D01*
X92642129Y-40499778D01*
X92546234Y-40448521D01*
X92442182Y-40416957D01*
X92361080Y-40408969D01*
X92361077Y-40408969D01*
X92333971Y-40406299D01*
X92306865Y-40408969D01*
X87077340Y-40408969D01*
X87112551Y-40244877D01*
X87115613Y-40041023D01*
X87078847Y-39840488D01*
X87003666Y-39650980D01*
X86990838Y-39626978D01*
X87069777Y-39444216D01*
X87112551Y-39244877D01*
X87115613Y-39041023D01*
X87078847Y-38840488D01*
X87003666Y-38650980D01*
X86990838Y-38626978D01*
X87069777Y-38444216D01*
X87112551Y-38244877D01*
X87115613Y-38041023D01*
X87078847Y-37840488D01*
X87003666Y-37650980D01*
X86990838Y-37626978D01*
X87069777Y-37444216D01*
X87112551Y-37244877D01*
X87115613Y-37041023D01*
X87078847Y-36840488D01*
X87003666Y-36650980D01*
X86990838Y-36626978D01*
X87069777Y-36444216D01*
X87112551Y-36244877D01*
X87115613Y-36041023D01*
X87078847Y-35840488D01*
X87003666Y-35650980D01*
X86988936Y-35623419D01*
X86785644Y-35600564D01*
X86876197Y-35510011D01*
X89714165Y-35510011D01*
X99291294Y-45087142D01*
G37*
X99291294Y-45087142D02*
X99308575Y-45108199D01*
X99329631Y-45125479D01*
X99392627Y-45177179D01*
X99439761Y-45202372D01*
X99488523Y-45228436D01*
X99592575Y-45260000D01*
X99673677Y-45267988D01*
X99673687Y-45267988D01*
X99700785Y-45270657D01*
X99727883Y-45267988D01*
X107159459Y-45267988D01*
X107249831Y-45358360D01*
X107385281Y-45448865D01*
X107535785Y-45511206D01*
X107695560Y-45542988D01*
X107858464Y-45542988D01*
X108018239Y-45511206D01*
X108168743Y-45448865D01*
X108304193Y-45358360D01*
X108419384Y-45243169D01*
X108509889Y-45107719D01*
X108572230Y-44957215D01*
X108604012Y-44797440D01*
X108604012Y-44634536D01*
X108595631Y-44592401D01*
X111806147Y-44592401D01*
X112409922Y-45196178D01*
X112427198Y-45217229D01*
X112448249Y-45234505D01*
X112448254Y-45234510D01*
X112511250Y-45286210D01*
X112607145Y-45337466D01*
X112711198Y-45369030D01*
X112819408Y-45379688D01*
X112846515Y-45377018D01*
X113396375Y-45377019D01*
X115115505Y-47096150D01*
X115132790Y-47117212D01*
X115216843Y-47186192D01*
X115312738Y-47237449D01*
X115416790Y-47269013D01*
X115497892Y-47277001D01*
X115497895Y-47277001D01*
X115525001Y-47279671D01*
X115552107Y-47277001D01*
X116320895Y-47277001D01*
X116348001Y-47279671D01*
X116375107Y-47277001D01*
X116375110Y-47277001D01*
X116456212Y-47269013D01*
X116560264Y-47237449D01*
X116656159Y-47186192D01*
X116740212Y-47117212D01*
X116757501Y-47096145D01*
X117473554Y-46380094D01*
X117494611Y-46362813D01*
X117530395Y-46319210D01*
X117563591Y-46278761D01*
X117599135Y-46212262D01*
X117614848Y-46182865D01*
X117646412Y-46078813D01*
X117654400Y-45997711D01*
X117654400Y-45997701D01*
X117657069Y-45970603D01*
X117654400Y-45943505D01*
X117654400Y-45340600D01*
X123048986Y-45340600D01*
X123080799Y-45343190D01*
X123130116Y-45337487D01*
X123179611Y-45332612D01*
X123184133Y-45331240D01*
X123188814Y-45330699D01*
X123236064Y-45315487D01*
X123283663Y-45301048D01*
X123287827Y-45298822D01*
X123292316Y-45297377D01*
X123335703Y-45273232D01*
X123379558Y-45249791D01*
X123383209Y-45246795D01*
X123387329Y-45244502D01*
X123425177Y-45212353D01*
X123463611Y-45180811D01*
X123483867Y-45156129D01*
X124118001Y-44500129D01*
X124118001Y-50331000D01*
X102620906Y-50331000D01*
X102675876Y-50248732D01*
X102738217Y-50098228D01*
X102769999Y-49938453D01*
X102769999Y-49775549D01*
X102738217Y-49615774D01*
X102675876Y-49465270D01*
X102585371Y-49329820D01*
X102470180Y-49214629D01*
X102334730Y-49124124D01*
X102184226Y-49061783D01*
X102024451Y-49030001D01*
X101861547Y-49030001D01*
X101701772Y-49061783D01*
X101551268Y-49124124D01*
X101415818Y-49214629D01*
X101300627Y-49329820D01*
X101210122Y-49465270D01*
X101147781Y-49615774D01*
X101130032Y-49705000D01*
X96845553Y-49705000D01*
X96891372Y-49659181D01*
X96981877Y-49523731D01*
X97044218Y-49373227D01*
X97076000Y-49213452D01*
X97076000Y-49050548D01*
X97044218Y-48890773D01*
X96981877Y-48740269D01*
X96891372Y-48604819D01*
X96776181Y-48489628D01*
X96640731Y-48399123D01*
X96490227Y-48336782D01*
X96330452Y-48305000D01*
X96202646Y-48305000D01*
X93284645Y-45387000D01*
X93409452Y-45387000D01*
X93569227Y-45355218D01*
X93719731Y-45292877D01*
X93855181Y-45202372D01*
X93970372Y-45087181D01*
X94060877Y-44951731D01*
X94095194Y-44868883D01*
X94158773Y-44895218D01*
X94318548Y-44927000D01*
X94481452Y-44927000D01*
X94641227Y-44895218D01*
X94791731Y-44832877D01*
X94927181Y-44742372D01*
X94942953Y-44726600D01*
X97450006Y-47233654D01*
X97467287Y-47254711D01*
X97551340Y-47323691D01*
X97647235Y-47374948D01*
X97751287Y-47406512D01*
X97832389Y-47414500D01*
X97832391Y-47414500D01*
X97859497Y-47417170D01*
X97886603Y-47414500D01*
X102519947Y-47414500D01*
X102610319Y-47504872D01*
X102745769Y-47595377D01*
X102896273Y-47657718D01*
X103056048Y-47689500D01*
X103218952Y-47689500D01*
X103378727Y-47657718D01*
X103529231Y-47595377D01*
X103664681Y-47504872D01*
X103779872Y-47389681D01*
X103870377Y-47254231D01*
X103932718Y-47103727D01*
X103943483Y-47049604D01*
X109873000Y-47049604D01*
X109873000Y-47350396D01*
X109931681Y-47645410D01*
X110046790Y-47923306D01*
X110213901Y-48173406D01*
X110426594Y-48386099D01*
X110676694Y-48553210D01*
X110954590Y-48668319D01*
X111249604Y-48727000D01*
X111550396Y-48727000D01*
X111845410Y-48668319D01*
X112123306Y-48553210D01*
X112373406Y-48386099D01*
X112586099Y-48173406D01*
X112753210Y-47923306D01*
X112868319Y-47645410D01*
X112927000Y-47350396D01*
X112927000Y-47049604D01*
X112868319Y-46754590D01*
X112753210Y-46476694D01*
X112586099Y-46226594D01*
X112373406Y-46013901D01*
X112123306Y-45846790D01*
X111845410Y-45731681D01*
X111550396Y-45673000D01*
X111249604Y-45673000D01*
X110954590Y-45731681D01*
X110676694Y-45846790D01*
X110426594Y-46013901D01*
X110213901Y-46226594D01*
X110046790Y-46476694D01*
X109931681Y-46754590D01*
X109873000Y-47049604D01*
X103943483Y-47049604D01*
X103964500Y-46943952D01*
X103964500Y-46781048D01*
X103932718Y-46621273D01*
X103870377Y-46470769D01*
X103779872Y-46335319D01*
X103664681Y-46220128D01*
X103529231Y-46129623D01*
X103378727Y-46067282D01*
X103218952Y-46035500D01*
X103056048Y-46035500D01*
X102896273Y-46067282D01*
X102745769Y-46129623D01*
X102610319Y-46220128D01*
X102519947Y-46310500D01*
X98088144Y-46310500D01*
X95825991Y-44048349D01*
X95825991Y-43928094D01*
X95828661Y-43900988D01*
X95825722Y-43871153D01*
X95818003Y-43792779D01*
X95786439Y-43688726D01*
X95735182Y-43592831D01*
X95666202Y-43508778D01*
X95645145Y-43491497D01*
X92743472Y-40589825D01*
X92726182Y-40568758D01*
X92642129Y-40499778D01*
X92546234Y-40448521D01*
X92442182Y-40416957D01*
X92361080Y-40408969D01*
X92361077Y-40408969D01*
X92333971Y-40406299D01*
X92306865Y-40408969D01*
X87077340Y-40408969D01*
X87112551Y-40244877D01*
X87115613Y-40041023D01*
X87078847Y-39840488D01*
X87003666Y-39650980D01*
X86990838Y-39626978D01*
X87069777Y-39444216D01*
X87112551Y-39244877D01*
X87115613Y-39041023D01*
X87078847Y-38840488D01*
X87003666Y-38650980D01*
X86990838Y-38626978D01*
X87069777Y-38444216D01*
X87112551Y-38244877D01*
X87115613Y-38041023D01*
X87078847Y-37840488D01*
X87003666Y-37650980D01*
X86990838Y-37626978D01*
X87069777Y-37444216D01*
X87112551Y-37244877D01*
X87115613Y-37041023D01*
X87078847Y-36840488D01*
X87003666Y-36650980D01*
X86990838Y-36626978D01*
X87069777Y-36444216D01*
X87112551Y-36244877D01*
X87115613Y-36041023D01*
X87078847Y-35840488D01*
X87003666Y-35650980D01*
X86988936Y-35623419D01*
X86785644Y-35600564D01*
X86876197Y-35510011D01*
X89714165Y-35510011D01*
X99291294Y-45087142D01*
G36*
X95422000Y-49085646D02*
G01*
X95422000Y-49213452D01*
X95453782Y-49373227D01*
X95516123Y-49523731D01*
X95606628Y-49659181D01*
X95652447Y-49705000D01*
X94912643Y-49705000D01*
X94626999Y-49419356D01*
X94626999Y-48290645D01*
X95422000Y-49085646D01*
G37*
X95422000Y-49085646D02*
X95422000Y-49213452D01*
X95453782Y-49373227D01*
X95516123Y-49523731D01*
X95606628Y-49659181D01*
X95652447Y-49705000D01*
X94912643Y-49705000D01*
X94626999Y-49419356D01*
X94626999Y-48290645D01*
X95422000Y-49085646D01*
G36*
X36907934Y-46224990D02*
G01*
X33219638Y-46224990D01*
X31659501Y-44664855D01*
X31642212Y-44643788D01*
X31558159Y-44574808D01*
X31462264Y-44523551D01*
X31358212Y-44491987D01*
X31277110Y-44483999D01*
X31277107Y-44483999D01*
X31250001Y-44481329D01*
X31222895Y-44483999D01*
X30899231Y-44483999D01*
X30971641Y-44386920D01*
X31096825Y-44124099D01*
X31141476Y-43976890D01*
X31020155Y-43747000D01*
X29827000Y-43747000D01*
X29827000Y-43767000D01*
X29573000Y-43767000D01*
X29573000Y-43747000D01*
X29553000Y-43747000D01*
X29553000Y-43493000D01*
X29573000Y-43493000D01*
X29573000Y-43473000D01*
X29827000Y-43473000D01*
X29827000Y-43493000D01*
X31020155Y-43493000D01*
X31141476Y-43263110D01*
X31096825Y-43115901D01*
X31033527Y-42983009D01*
X33665955Y-42983009D01*
X36907934Y-46224990D01*
G37*
X36907934Y-46224990D02*
X33219638Y-46224990D01*
X31659501Y-44664855D01*
X31642212Y-44643788D01*
X31558159Y-44574808D01*
X31462264Y-44523551D01*
X31358212Y-44491987D01*
X31277110Y-44483999D01*
X31277107Y-44483999D01*
X31250001Y-44481329D01*
X31222895Y-44483999D01*
X30899231Y-44483999D01*
X30971641Y-44386920D01*
X31096825Y-44124099D01*
X31141476Y-43976890D01*
X31020155Y-43747000D01*
X29827000Y-43747000D01*
X29827000Y-43767000D01*
X29573000Y-43767000D01*
X29573000Y-43747000D01*
X29553000Y-43747000D01*
X29553000Y-43493000D01*
X29573000Y-43493000D01*
X29573000Y-43473000D01*
X29827000Y-43473000D01*
X29827000Y-43493000D01*
X31020155Y-43493000D01*
X31141476Y-43263110D01*
X31096825Y-43115901D01*
X31033527Y-42983009D01*
X33665955Y-42983009D01*
X36907934Y-46224990D01*
G36*
X26048960Y-20073089D02*
G01*
X25871089Y-20250960D01*
X25731337Y-20460114D01*
X25635074Y-20692513D01*
X25586000Y-20939226D01*
X25586000Y-21190774D01*
X25635074Y-21437487D01*
X25731337Y-21669886D01*
X25871089Y-21879040D01*
X26048960Y-22056911D01*
X26258114Y-22196663D01*
X26490513Y-22292926D01*
X26737226Y-22342000D01*
X26988774Y-22342000D01*
X27235487Y-22292926D01*
X27467886Y-22196663D01*
X27677040Y-22056911D01*
X27854911Y-21879040D01*
X27994663Y-21669886D01*
X28090926Y-21437487D01*
X28140000Y-21190774D01*
X28140000Y-20939226D01*
X28090926Y-20692513D01*
X27994663Y-20460114D01*
X27854911Y-20250960D01*
X27677040Y-20073089D01*
X27557178Y-19993000D01*
X33368822Y-19993000D01*
X33248960Y-20073089D01*
X33071089Y-20250960D01*
X32931337Y-20460114D01*
X32835074Y-20692513D01*
X32786000Y-20939226D01*
X32786000Y-21190774D01*
X32835074Y-21437487D01*
X32931337Y-21669886D01*
X33071089Y-21879040D01*
X33248960Y-22056911D01*
X33458114Y-22196663D01*
X33690513Y-22292926D01*
X33937226Y-22342000D01*
X34188774Y-22342000D01*
X34435487Y-22292926D01*
X34667886Y-22196663D01*
X34877040Y-22056911D01*
X35054911Y-21879040D01*
X35194663Y-21669886D01*
X35290926Y-21437487D01*
X35340000Y-21190774D01*
X35340000Y-20939226D01*
X35290926Y-20692513D01*
X35194663Y-20460114D01*
X35054911Y-20250960D01*
X34877040Y-20073089D01*
X34757178Y-19993000D01*
X42642578Y-19993000D01*
X32151680Y-30483898D01*
X32061773Y-30501782D01*
X31911269Y-30564123D01*
X31775819Y-30654628D01*
X31660628Y-30769819D01*
X31570123Y-30905269D01*
X31507782Y-31055773D01*
X31476000Y-31215548D01*
X31476000Y-31378452D01*
X31507782Y-31538227D01*
X31570123Y-31688731D01*
X31660628Y-31824181D01*
X31751000Y-31914553D01*
X31751001Y-33375884D01*
X31748330Y-33403000D01*
X31756274Y-33483650D01*
X31758989Y-33511211D01*
X31763791Y-33527040D01*
X31790552Y-33615262D01*
X31841809Y-33711157D01*
X31841810Y-33711158D01*
X31910790Y-33795211D01*
X31931852Y-33812496D01*
X32773000Y-34653645D01*
X32773000Y-34781452D01*
X32804782Y-34941227D01*
X32867123Y-35091731D01*
X32957628Y-35227181D01*
X33072819Y-35342372D01*
X33208269Y-35432877D01*
X33358773Y-35495218D01*
X33518548Y-35527000D01*
X33681452Y-35527000D01*
X33841227Y-35495218D01*
X33991731Y-35432877D01*
X34127181Y-35342372D01*
X34242372Y-35227181D01*
X34332877Y-35091731D01*
X34395218Y-34941227D01*
X34427000Y-34781452D01*
X34427000Y-34618548D01*
X34395218Y-34458773D01*
X34332877Y-34308269D01*
X34242372Y-34172819D01*
X34127181Y-34057628D01*
X33991731Y-33967123D01*
X33841227Y-33904782D01*
X33681452Y-33873000D01*
X33553645Y-33873000D01*
X32855000Y-33174356D01*
X32855000Y-31914553D01*
X32945372Y-31824181D01*
X33035877Y-31688731D01*
X33098218Y-31538227D01*
X33119578Y-31430844D01*
X33670154Y-30880268D01*
X33757628Y-31011181D01*
X33872819Y-31126372D01*
X34008269Y-31216877D01*
X34074885Y-31244470D01*
X33846355Y-31473000D01*
X33718548Y-31473000D01*
X33558773Y-31504782D01*
X33408269Y-31567123D01*
X33272819Y-31657628D01*
X33157628Y-31772819D01*
X33067123Y-31908269D01*
X33004782Y-32058773D01*
X32973000Y-32218548D01*
X32973000Y-32381452D01*
X33004782Y-32541227D01*
X33067123Y-32691731D01*
X33157628Y-32827181D01*
X33272819Y-32942372D01*
X33408269Y-33032877D01*
X33558773Y-33095218D01*
X33718548Y-33127000D01*
X33881452Y-33127000D01*
X34041227Y-33095218D01*
X34191731Y-33032877D01*
X34327181Y-32942372D01*
X34442372Y-32827181D01*
X34532877Y-32691731D01*
X34595218Y-32541227D01*
X34627000Y-32381452D01*
X34627000Y-32253645D01*
X35119645Y-31761001D01*
X35483578Y-31761001D01*
X35510684Y-31763671D01*
X35537790Y-31761001D01*
X35537793Y-31761001D01*
X35618895Y-31753013D01*
X35722947Y-31721449D01*
X35818842Y-31670192D01*
X35902895Y-31601212D01*
X35920184Y-31580145D01*
X37170832Y-30329499D01*
X38500948Y-30329499D01*
X38457628Y-30372819D01*
X38367123Y-30508269D01*
X38304782Y-30658773D01*
X38273000Y-30818548D01*
X38273000Y-30981452D01*
X38304782Y-31141227D01*
X38367123Y-31291731D01*
X38457628Y-31427181D01*
X38572819Y-31542372D01*
X38708269Y-31632877D01*
X38858773Y-31695218D01*
X39018548Y-31727000D01*
X39181452Y-31727000D01*
X39341227Y-31695218D01*
X39491731Y-31632877D01*
X39627181Y-31542372D01*
X39742372Y-31427181D01*
X39832877Y-31291731D01*
X39880400Y-31177001D01*
X43751608Y-31177001D01*
X43733000Y-31270548D01*
X43733000Y-31433452D01*
X43764782Y-31593227D01*
X43827123Y-31743731D01*
X43917628Y-31879181D01*
X44032819Y-31994372D01*
X44168269Y-32084877D01*
X44318773Y-32147218D01*
X44478548Y-32179000D01*
X44641452Y-32179000D01*
X44801227Y-32147218D01*
X44951731Y-32084877D01*
X45087181Y-31994372D01*
X45202372Y-31879181D01*
X45292877Y-31743731D01*
X45355218Y-31593227D01*
X45387000Y-31433452D01*
X45387000Y-31270548D01*
X45368392Y-31177001D01*
X50819579Y-31177001D01*
X51830150Y-32187572D01*
X51849772Y-32286217D01*
X51912113Y-32436721D01*
X52002618Y-32572171D01*
X52117809Y-32687362D01*
X52253259Y-32777867D01*
X52403763Y-32840208D01*
X52563538Y-32871990D01*
X52726442Y-32871990D01*
X52886217Y-32840208D01*
X53036721Y-32777867D01*
X53172171Y-32687362D01*
X53287362Y-32572171D01*
X53377867Y-32436721D01*
X53440208Y-32286217D01*
X53471990Y-32126442D01*
X53471990Y-31963538D01*
X53440208Y-31803763D01*
X53377867Y-31653259D01*
X53287362Y-31517809D01*
X53172171Y-31402618D01*
X53036721Y-31312113D01*
X52886217Y-31249772D01*
X52787572Y-31230150D01*
X51879541Y-30322119D01*
X51885710Y-30321511D01*
X51989762Y-30289947D01*
X52085657Y-30238690D01*
X52169710Y-30169710D01*
X52238690Y-30085657D01*
X52289947Y-29989762D01*
X52317229Y-29899825D01*
X55301034Y-26916021D01*
X55255994Y-26970903D01*
X55238809Y-26991843D01*
X55187552Y-27087738D01*
X55176552Y-27124001D01*
X55157830Y-27185722D01*
X55155989Y-27191790D01*
X55145330Y-27300000D01*
X55148001Y-27327116D01*
X55148000Y-28282447D01*
X55057628Y-28372819D01*
X54967123Y-28508269D01*
X54904782Y-28658773D01*
X54873000Y-28818548D01*
X54873000Y-28981452D01*
X54904782Y-29141227D01*
X54967123Y-29291731D01*
X55057628Y-29427181D01*
X55135854Y-29505407D01*
X55067123Y-29608269D01*
X55004782Y-29758773D01*
X54973000Y-29918548D01*
X54973000Y-30081452D01*
X55004782Y-30241227D01*
X55067123Y-30391731D01*
X55157628Y-30527181D01*
X55272819Y-30642372D01*
X55408269Y-30732877D01*
X55558773Y-30795218D01*
X55718548Y-30827000D01*
X55881452Y-30827000D01*
X56041227Y-30795218D01*
X56191731Y-30732877D01*
X56327181Y-30642372D01*
X56442372Y-30527181D01*
X56532877Y-30391731D01*
X56595218Y-30241227D01*
X56627000Y-30081452D01*
X56627000Y-29918548D01*
X56611752Y-29841895D01*
X56889359Y-29564289D01*
X56910416Y-29547008D01*
X56938563Y-29512711D01*
X56979396Y-29462956D01*
X57011880Y-29402181D01*
X57030653Y-29367060D01*
X57062217Y-29263008D01*
X57070205Y-29181906D01*
X57070205Y-29181896D01*
X57072874Y-29154798D01*
X57070205Y-29127700D01*
X57070205Y-27346849D01*
X57629006Y-26788050D01*
X77098176Y-26788050D01*
X77389455Y-27079329D01*
X76386200Y-27087167D01*
X76386200Y-27077400D01*
X76259200Y-27077400D01*
X76257898Y-27088169D01*
X65399008Y-27173004D01*
X65375811Y-27175325D01*
X65351953Y-27182439D01*
X65329941Y-27194072D01*
X65310622Y-27209775D01*
X65294737Y-27228945D01*
X65282898Y-27250846D01*
X65275559Y-27274636D01*
X65273001Y-27299401D01*
X65261451Y-29748000D01*
X58927106Y-29748000D01*
X58900000Y-29745330D01*
X58872894Y-29748000D01*
X58872891Y-29748000D01*
X58791789Y-29755988D01*
X58687737Y-29787552D01*
X58591842Y-29838809D01*
X58507789Y-29907789D01*
X58490504Y-29928851D01*
X57546356Y-30873000D01*
X57418548Y-30873000D01*
X57258773Y-30904782D01*
X57108269Y-30967123D01*
X56972819Y-31057628D01*
X56857628Y-31172819D01*
X56767123Y-31308269D01*
X56704782Y-31458773D01*
X56673000Y-31618548D01*
X56673000Y-31781452D01*
X56704782Y-31941227D01*
X56767123Y-32091731D01*
X56857628Y-32227181D01*
X56972819Y-32342372D01*
X57108269Y-32432877D01*
X57258773Y-32495218D01*
X57418548Y-32527000D01*
X57581452Y-32527000D01*
X57741227Y-32495218D01*
X57891731Y-32432877D01*
X58027181Y-32342372D01*
X58142372Y-32227181D01*
X58232877Y-32091731D01*
X58295218Y-31941227D01*
X58327000Y-31781452D01*
X58327000Y-31653644D01*
X59128645Y-30852000D01*
X60668897Y-30852000D01*
X60426594Y-31013901D01*
X60213901Y-31226594D01*
X60046790Y-31476694D01*
X59931681Y-31754590D01*
X59873000Y-32049604D01*
X59873000Y-32350396D01*
X59931681Y-32645410D01*
X60046790Y-32923306D01*
X60213901Y-33173406D01*
X60426594Y-33386099D01*
X60676694Y-33553210D01*
X60954590Y-33668319D01*
X61249604Y-33727000D01*
X61550396Y-33727000D01*
X61845410Y-33668319D01*
X62123306Y-33553210D01*
X62373406Y-33386099D01*
X62586099Y-33173406D01*
X62753210Y-32923306D01*
X62868319Y-32645410D01*
X62927000Y-32350396D01*
X62927000Y-32049604D01*
X62868319Y-31754590D01*
X62753210Y-31476694D01*
X62586099Y-31226594D01*
X62373406Y-31013901D01*
X62131103Y-30852000D01*
X65256243Y-30852000D01*
X65246407Y-32937430D01*
X63937667Y-32937430D01*
X63910569Y-32934761D01*
X63883471Y-32937430D01*
X63883461Y-32937430D01*
X63802359Y-32945418D01*
X63698307Y-32976982D01*
X63602412Y-33028239D01*
X63518359Y-33097219D01*
X63501078Y-33118276D01*
X63046355Y-33573000D01*
X62918548Y-33573000D01*
X62758773Y-33604782D01*
X62608269Y-33667123D01*
X62472819Y-33757628D01*
X62357628Y-33872819D01*
X62267123Y-34008269D01*
X62204782Y-34158773D01*
X62173000Y-34318548D01*
X62173000Y-34481452D01*
X62204782Y-34641227D01*
X62267123Y-34791731D01*
X62357628Y-34927181D01*
X62472819Y-35042372D01*
X62608269Y-35132877D01*
X62758773Y-35195218D01*
X62918548Y-35227000D01*
X63081452Y-35227000D01*
X63241227Y-35195218D01*
X63336676Y-35155682D01*
X63244378Y-35247980D01*
X53827128Y-35247980D01*
X53800020Y-35245310D01*
X53772911Y-35247980D01*
X53714064Y-35253776D01*
X53691809Y-35255968D01*
X53587757Y-35287532D01*
X53491862Y-35338789D01*
X53444494Y-35377663D01*
X53407809Y-35407769D01*
X53390528Y-35428826D01*
X52071356Y-36748000D01*
X51017553Y-36748000D01*
X50927181Y-36657628D01*
X50791731Y-36567123D01*
X50641227Y-36504782D01*
X50481452Y-36473000D01*
X50318548Y-36473000D01*
X50158773Y-36504782D01*
X50008269Y-36567123D01*
X49872819Y-36657628D01*
X49757628Y-36772819D01*
X49667123Y-36908269D01*
X49604782Y-37058773D01*
X49573000Y-37218548D01*
X49573000Y-37381452D01*
X49591211Y-37473001D01*
X47353646Y-37473001D01*
X47271000Y-37390355D01*
X47271000Y-33112553D01*
X47361372Y-33022181D01*
X47451877Y-32886731D01*
X47514218Y-32736227D01*
X47546000Y-32576452D01*
X47546000Y-32413548D01*
X47514218Y-32253773D01*
X47451877Y-32103269D01*
X47361372Y-31967819D01*
X47246181Y-31852628D01*
X47110731Y-31762123D01*
X46960227Y-31699782D01*
X46800452Y-31668000D01*
X46637548Y-31668000D01*
X46477773Y-31699782D01*
X46327269Y-31762123D01*
X46191819Y-31852628D01*
X46076628Y-31967819D01*
X45986123Y-32103269D01*
X45923782Y-32253773D01*
X45892000Y-32413548D01*
X45892000Y-32576452D01*
X45923782Y-32736227D01*
X45986123Y-32886731D01*
X46076628Y-33022181D01*
X46167000Y-33112553D01*
X46167001Y-37591884D01*
X46164330Y-37619000D01*
X46172452Y-37701450D01*
X46174989Y-37727211D01*
X46183881Y-37756523D01*
X46206552Y-37831262D01*
X46254636Y-37921220D01*
X46257810Y-37927158D01*
X46326790Y-38011211D01*
X46347851Y-38028495D01*
X46542354Y-38222999D01*
X44752109Y-38222999D01*
X44725001Y-38220329D01*
X44697892Y-38222999D01*
X44616790Y-38230987D01*
X44512738Y-38262551D01*
X44416843Y-38313808D01*
X44332790Y-38382788D01*
X44315509Y-38403845D01*
X40546356Y-42173000D01*
X40418548Y-42173000D01*
X40258773Y-42204782D01*
X40108269Y-42267123D01*
X39972819Y-42357628D01*
X39857628Y-42472819D01*
X39767123Y-42608269D01*
X39704782Y-42758773D01*
X39673000Y-42918548D01*
X39673000Y-43081452D01*
X39704782Y-43241227D01*
X39767123Y-43391731D01*
X39857628Y-43527181D01*
X39972819Y-43642372D01*
X40108269Y-43732877D01*
X40258773Y-43795218D01*
X40418548Y-43827000D01*
X40581452Y-43827000D01*
X40741227Y-43795218D01*
X40891731Y-43732877D01*
X41027181Y-43642372D01*
X41142372Y-43527181D01*
X41232877Y-43391731D01*
X41295218Y-43241227D01*
X41327000Y-43081452D01*
X41327000Y-42953644D01*
X44514927Y-39765719D01*
X44567123Y-39891731D01*
X44657628Y-40027181D01*
X44748001Y-40117554D01*
X44748000Y-43472894D01*
X44745330Y-43500000D01*
X44748000Y-43527106D01*
X44748000Y-43527108D01*
X44755988Y-43608210D01*
X44787552Y-43712262D01*
X44838809Y-43808158D01*
X44907789Y-43892211D01*
X44928857Y-43909501D01*
X46267355Y-45248000D01*
X38128646Y-45248000D01*
X33640501Y-40759857D01*
X33623211Y-40738789D01*
X33539158Y-40669809D01*
X33443263Y-40618552D01*
X33339211Y-40586988D01*
X33258109Y-40579000D01*
X33258106Y-40579000D01*
X33231000Y-40576330D01*
X33203894Y-40579000D01*
X30874694Y-40579000D01*
X30831663Y-40475114D01*
X30691911Y-40265960D01*
X30514040Y-40088089D01*
X30304886Y-39948337D01*
X30072487Y-39852074D01*
X29860966Y-39810000D01*
X30072487Y-39767926D01*
X30304886Y-39671663D01*
X30514040Y-39531911D01*
X30691911Y-39354040D01*
X30831663Y-39144886D01*
X30927926Y-38912487D01*
X30977000Y-38665774D01*
X30977000Y-38414226D01*
X30927926Y-38167513D01*
X30831663Y-37935114D01*
X30691911Y-37725960D01*
X30514040Y-37548089D01*
X30304886Y-37408337D01*
X30072487Y-37312074D01*
X29860966Y-37270000D01*
X30072487Y-37227926D01*
X30304886Y-37131663D01*
X30514040Y-36991911D01*
X30691911Y-36814040D01*
X30831663Y-36604886D01*
X30927926Y-36372487D01*
X30977000Y-36125774D01*
X30977000Y-35874226D01*
X30927926Y-35627513D01*
X30831663Y-35395114D01*
X30691911Y-35185960D01*
X30514040Y-35008089D01*
X30304886Y-34868337D01*
X30072487Y-34772074D01*
X29825774Y-34723000D01*
X29574226Y-34723000D01*
X29327513Y-34772074D01*
X29095114Y-34868337D01*
X28885960Y-35008089D01*
X28708089Y-35185960D01*
X28568337Y-35395114D01*
X28472074Y-35627513D01*
X28430000Y-35839034D01*
X28387926Y-35627513D01*
X28291663Y-35395114D01*
X28151911Y-35185960D01*
X27974040Y-35008089D01*
X27764886Y-34868337D01*
X27532487Y-34772074D01*
X27285774Y-34723000D01*
X27034226Y-34723000D01*
X26787513Y-34772074D01*
X26555114Y-34868337D01*
X26345960Y-35008089D01*
X26168089Y-35185960D01*
X26028337Y-35395114D01*
X25932074Y-35627513D01*
X25883000Y-35874226D01*
X25883000Y-36125774D01*
X25932074Y-36372487D01*
X26028337Y-36604886D01*
X26168089Y-36814040D01*
X26345960Y-36991911D01*
X26555114Y-37131663D01*
X26787513Y-37227926D01*
X26999034Y-37270000D01*
X26787513Y-37312074D01*
X26555114Y-37408337D01*
X26345960Y-37548089D01*
X26168089Y-37725960D01*
X26028337Y-37935114D01*
X25932074Y-38167513D01*
X25883000Y-38414226D01*
X25883000Y-38665774D01*
X25932074Y-38912487D01*
X25969211Y-39002143D01*
X25613850Y-39357506D01*
X25592789Y-39374790D01*
X25539398Y-39439848D01*
X25523808Y-39458844D01*
X25472551Y-39554739D01*
X25454000Y-39615895D01*
X25454000Y-24646951D01*
X27335654Y-24646951D01*
X27388434Y-24875116D01*
X27617488Y-24980509D01*
X27862702Y-25039192D01*
X28114652Y-25048907D01*
X28363658Y-25009283D01*
X28600148Y-24921842D01*
X28687566Y-24875116D01*
X28740346Y-24646951D01*
X32185654Y-24646951D01*
X32238434Y-24875116D01*
X32467488Y-24980509D01*
X32712702Y-25039192D01*
X32964652Y-25048907D01*
X33213658Y-25009283D01*
X33450148Y-24921842D01*
X33537566Y-24875116D01*
X33590346Y-24646951D01*
X32888000Y-23944605D01*
X32185654Y-24646951D01*
X28740346Y-24646951D01*
X28038000Y-23944605D01*
X27335654Y-24646951D01*
X25454000Y-24646951D01*
X25454000Y-23841652D01*
X26754093Y-23841652D01*
X26793717Y-24090658D01*
X26881158Y-24327148D01*
X26927884Y-24414566D01*
X27156049Y-24467346D01*
X27858395Y-23765000D01*
X28217605Y-23765000D01*
X28919951Y-24467346D01*
X29148116Y-24414566D01*
X29253509Y-24185512D01*
X29312192Y-23940298D01*
X29315995Y-23841652D01*
X31604093Y-23841652D01*
X31643717Y-24090658D01*
X31731158Y-24327148D01*
X31777884Y-24414566D01*
X32006049Y-24467346D01*
X32708395Y-23765000D01*
X33067605Y-23765000D01*
X33769951Y-24467346D01*
X33998116Y-24414566D01*
X34103509Y-24185512D01*
X34162192Y-23940298D01*
X34171907Y-23688348D01*
X34132283Y-23439342D01*
X34044842Y-23202852D01*
X33998116Y-23115434D01*
X33769951Y-23062654D01*
X33067605Y-23765000D01*
X32708395Y-23765000D01*
X32006049Y-23062654D01*
X31777884Y-23115434D01*
X31672491Y-23344488D01*
X31613808Y-23589702D01*
X31604093Y-23841652D01*
X29315995Y-23841652D01*
X29321907Y-23688348D01*
X29282283Y-23439342D01*
X29194842Y-23202852D01*
X29148116Y-23115434D01*
X28919951Y-23062654D01*
X28217605Y-23765000D01*
X27858395Y-23765000D01*
X27156049Y-23062654D01*
X26927884Y-23115434D01*
X26822491Y-23344488D01*
X26763808Y-23589702D01*
X26754093Y-23841652D01*
X25454000Y-23841652D01*
X25454000Y-22883049D01*
X27335654Y-22883049D01*
X28038000Y-23585395D01*
X28740346Y-22883049D01*
X32185654Y-22883049D01*
X32888000Y-23585395D01*
X33590346Y-22883049D01*
X33537566Y-22654884D01*
X33308512Y-22549491D01*
X33063298Y-22490808D01*
X32811348Y-22481093D01*
X32562342Y-22520717D01*
X32325852Y-22608158D01*
X32238434Y-22654884D01*
X32185654Y-22883049D01*
X28740346Y-22883049D01*
X28687566Y-22654884D01*
X28458512Y-22549491D01*
X28213298Y-22490808D01*
X27961348Y-22481093D01*
X27712342Y-22520717D01*
X27475852Y-22608158D01*
X27388434Y-22654884D01*
X27335654Y-22883049D01*
X25454000Y-22883049D01*
X25454000Y-19993000D01*
X26168822Y-19993000D01*
X26048960Y-20073089D01*
G37*
X26048960Y-20073089D02*
X25871089Y-20250960D01*
X25731337Y-20460114D01*
X25635074Y-20692513D01*
X25586000Y-20939226D01*
X25586000Y-21190774D01*
X25635074Y-21437487D01*
X25731337Y-21669886D01*
X25871089Y-21879040D01*
X26048960Y-22056911D01*
X26258114Y-22196663D01*
X26490513Y-22292926D01*
X26737226Y-22342000D01*
X26988774Y-22342000D01*
X27235487Y-22292926D01*
X27467886Y-22196663D01*
X27677040Y-22056911D01*
X27854911Y-21879040D01*
X27994663Y-21669886D01*
X28090926Y-21437487D01*
X28140000Y-21190774D01*
X28140000Y-20939226D01*
X28090926Y-20692513D01*
X27994663Y-20460114D01*
X27854911Y-20250960D01*
X27677040Y-20073089D01*
X27557178Y-19993000D01*
X33368822Y-19993000D01*
X33248960Y-20073089D01*
X33071089Y-20250960D01*
X32931337Y-20460114D01*
X32835074Y-20692513D01*
X32786000Y-20939226D01*
X32786000Y-21190774D01*
X32835074Y-21437487D01*
X32931337Y-21669886D01*
X33071089Y-21879040D01*
X33248960Y-22056911D01*
X33458114Y-22196663D01*
X33690513Y-22292926D01*
X33937226Y-22342000D01*
X34188774Y-22342000D01*
X34435487Y-22292926D01*
X34667886Y-22196663D01*
X34877040Y-22056911D01*
X35054911Y-21879040D01*
X35194663Y-21669886D01*
X35290926Y-21437487D01*
X35340000Y-21190774D01*
X35340000Y-20939226D01*
X35290926Y-20692513D01*
X35194663Y-20460114D01*
X35054911Y-20250960D01*
X34877040Y-20073089D01*
X34757178Y-19993000D01*
X42642578Y-19993000D01*
X32151680Y-30483898D01*
X32061773Y-30501782D01*
X31911269Y-30564123D01*
X31775819Y-30654628D01*
X31660628Y-30769819D01*
X31570123Y-30905269D01*
X31507782Y-31055773D01*
X31476000Y-31215548D01*
X31476000Y-31378452D01*
X31507782Y-31538227D01*
X31570123Y-31688731D01*
X31660628Y-31824181D01*
X31751000Y-31914553D01*
X31751001Y-33375884D01*
X31748330Y-33403000D01*
X31756274Y-33483650D01*
X31758989Y-33511211D01*
X31763791Y-33527040D01*
X31790552Y-33615262D01*
X31841809Y-33711157D01*
X31841810Y-33711158D01*
X31910790Y-33795211D01*
X31931852Y-33812496D01*
X32773000Y-34653645D01*
X32773000Y-34781452D01*
X32804782Y-34941227D01*
X32867123Y-35091731D01*
X32957628Y-35227181D01*
X33072819Y-35342372D01*
X33208269Y-35432877D01*
X33358773Y-35495218D01*
X33518548Y-35527000D01*
X33681452Y-35527000D01*
X33841227Y-35495218D01*
X33991731Y-35432877D01*
X34127181Y-35342372D01*
X34242372Y-35227181D01*
X34332877Y-35091731D01*
X34395218Y-34941227D01*
X34427000Y-34781452D01*
X34427000Y-34618548D01*
X34395218Y-34458773D01*
X34332877Y-34308269D01*
X34242372Y-34172819D01*
X34127181Y-34057628D01*
X33991731Y-33967123D01*
X33841227Y-33904782D01*
X33681452Y-33873000D01*
X33553645Y-33873000D01*
X32855000Y-33174356D01*
X32855000Y-31914553D01*
X32945372Y-31824181D01*
X33035877Y-31688731D01*
X33098218Y-31538227D01*
X33119578Y-31430844D01*
X33670154Y-30880268D01*
X33757628Y-31011181D01*
X33872819Y-31126372D01*
X34008269Y-31216877D01*
X34074885Y-31244470D01*
X33846355Y-31473000D01*
X33718548Y-31473000D01*
X33558773Y-31504782D01*
X33408269Y-31567123D01*
X33272819Y-31657628D01*
X33157628Y-31772819D01*
X33067123Y-31908269D01*
X33004782Y-32058773D01*
X32973000Y-32218548D01*
X32973000Y-32381452D01*
X33004782Y-32541227D01*
X33067123Y-32691731D01*
X33157628Y-32827181D01*
X33272819Y-32942372D01*
X33408269Y-33032877D01*
X33558773Y-33095218D01*
X33718548Y-33127000D01*
X33881452Y-33127000D01*
X34041227Y-33095218D01*
X34191731Y-33032877D01*
X34327181Y-32942372D01*
X34442372Y-32827181D01*
X34532877Y-32691731D01*
X34595218Y-32541227D01*
X34627000Y-32381452D01*
X34627000Y-32253645D01*
X35119645Y-31761001D01*
X35483578Y-31761001D01*
X35510684Y-31763671D01*
X35537790Y-31761001D01*
X35537793Y-31761001D01*
X35618895Y-31753013D01*
X35722947Y-31721449D01*
X35818842Y-31670192D01*
X35902895Y-31601212D01*
X35920184Y-31580145D01*
X37170832Y-30329499D01*
X38500948Y-30329499D01*
X38457628Y-30372819D01*
X38367123Y-30508269D01*
X38304782Y-30658773D01*
X38273000Y-30818548D01*
X38273000Y-30981452D01*
X38304782Y-31141227D01*
X38367123Y-31291731D01*
X38457628Y-31427181D01*
X38572819Y-31542372D01*
X38708269Y-31632877D01*
X38858773Y-31695218D01*
X39018548Y-31727000D01*
X39181452Y-31727000D01*
X39341227Y-31695218D01*
X39491731Y-31632877D01*
X39627181Y-31542372D01*
X39742372Y-31427181D01*
X39832877Y-31291731D01*
X39880400Y-31177001D01*
X43751608Y-31177001D01*
X43733000Y-31270548D01*
X43733000Y-31433452D01*
X43764782Y-31593227D01*
X43827123Y-31743731D01*
X43917628Y-31879181D01*
X44032819Y-31994372D01*
X44168269Y-32084877D01*
X44318773Y-32147218D01*
X44478548Y-32179000D01*
X44641452Y-32179000D01*
X44801227Y-32147218D01*
X44951731Y-32084877D01*
X45087181Y-31994372D01*
X45202372Y-31879181D01*
X45292877Y-31743731D01*
X45355218Y-31593227D01*
X45387000Y-31433452D01*
X45387000Y-31270548D01*
X45368392Y-31177001D01*
X50819579Y-31177001D01*
X51830150Y-32187572D01*
X51849772Y-32286217D01*
X51912113Y-32436721D01*
X52002618Y-32572171D01*
X52117809Y-32687362D01*
X52253259Y-32777867D01*
X52403763Y-32840208D01*
X52563538Y-32871990D01*
X52726442Y-32871990D01*
X52886217Y-32840208D01*
X53036721Y-32777867D01*
X53172171Y-32687362D01*
X53287362Y-32572171D01*
X53377867Y-32436721D01*
X53440208Y-32286217D01*
X53471990Y-32126442D01*
X53471990Y-31963538D01*
X53440208Y-31803763D01*
X53377867Y-31653259D01*
X53287362Y-31517809D01*
X53172171Y-31402618D01*
X53036721Y-31312113D01*
X52886217Y-31249772D01*
X52787572Y-31230150D01*
X51879541Y-30322119D01*
X51885710Y-30321511D01*
X51989762Y-30289947D01*
X52085657Y-30238690D01*
X52169710Y-30169710D01*
X52238690Y-30085657D01*
X52289947Y-29989762D01*
X52317229Y-29899825D01*
X55301034Y-26916021D01*
X55255994Y-26970903D01*
X55238809Y-26991843D01*
X55187552Y-27087738D01*
X55176552Y-27124001D01*
X55157830Y-27185722D01*
X55155989Y-27191790D01*
X55145330Y-27300000D01*
X55148001Y-27327116D01*
X55148000Y-28282447D01*
X55057628Y-28372819D01*
X54967123Y-28508269D01*
X54904782Y-28658773D01*
X54873000Y-28818548D01*
X54873000Y-28981452D01*
X54904782Y-29141227D01*
X54967123Y-29291731D01*
X55057628Y-29427181D01*
X55135854Y-29505407D01*
X55067123Y-29608269D01*
X55004782Y-29758773D01*
X54973000Y-29918548D01*
X54973000Y-30081452D01*
X55004782Y-30241227D01*
X55067123Y-30391731D01*
X55157628Y-30527181D01*
X55272819Y-30642372D01*
X55408269Y-30732877D01*
X55558773Y-30795218D01*
X55718548Y-30827000D01*
X55881452Y-30827000D01*
X56041227Y-30795218D01*
X56191731Y-30732877D01*
X56327181Y-30642372D01*
X56442372Y-30527181D01*
X56532877Y-30391731D01*
X56595218Y-30241227D01*
X56627000Y-30081452D01*
X56627000Y-29918548D01*
X56611752Y-29841895D01*
X56889359Y-29564289D01*
X56910416Y-29547008D01*
X56938563Y-29512711D01*
X56979396Y-29462956D01*
X57011880Y-29402181D01*
X57030653Y-29367060D01*
X57062217Y-29263008D01*
X57070205Y-29181906D01*
X57070205Y-29181896D01*
X57072874Y-29154798D01*
X57070205Y-29127700D01*
X57070205Y-27346849D01*
X57629006Y-26788050D01*
X77098176Y-26788050D01*
X77389455Y-27079329D01*
X76386200Y-27087167D01*
X76386200Y-27077400D01*
X76259200Y-27077400D01*
X76257898Y-27088169D01*
X65399008Y-27173004D01*
X65375811Y-27175325D01*
X65351953Y-27182439D01*
X65329941Y-27194072D01*
X65310622Y-27209775D01*
X65294737Y-27228945D01*
X65282898Y-27250846D01*
X65275559Y-27274636D01*
X65273001Y-27299401D01*
X65261451Y-29748000D01*
X58927106Y-29748000D01*
X58900000Y-29745330D01*
X58872894Y-29748000D01*
X58872891Y-29748000D01*
X58791789Y-29755988D01*
X58687737Y-29787552D01*
X58591842Y-29838809D01*
X58507789Y-29907789D01*
X58490504Y-29928851D01*
X57546356Y-30873000D01*
X57418548Y-30873000D01*
X57258773Y-30904782D01*
X57108269Y-30967123D01*
X56972819Y-31057628D01*
X56857628Y-31172819D01*
X56767123Y-31308269D01*
X56704782Y-31458773D01*
X56673000Y-31618548D01*
X56673000Y-31781452D01*
X56704782Y-31941227D01*
X56767123Y-32091731D01*
X56857628Y-32227181D01*
X56972819Y-32342372D01*
X57108269Y-32432877D01*
X57258773Y-32495218D01*
X57418548Y-32527000D01*
X57581452Y-32527000D01*
X57741227Y-32495218D01*
X57891731Y-32432877D01*
X58027181Y-32342372D01*
X58142372Y-32227181D01*
X58232877Y-32091731D01*
X58295218Y-31941227D01*
X58327000Y-31781452D01*
X58327000Y-31653644D01*
X59128645Y-30852000D01*
X60668897Y-30852000D01*
X60426594Y-31013901D01*
X60213901Y-31226594D01*
X60046790Y-31476694D01*
X59931681Y-31754590D01*
X59873000Y-32049604D01*
X59873000Y-32350396D01*
X59931681Y-32645410D01*
X60046790Y-32923306D01*
X60213901Y-33173406D01*
X60426594Y-33386099D01*
X60676694Y-33553210D01*
X60954590Y-33668319D01*
X61249604Y-33727000D01*
X61550396Y-33727000D01*
X61845410Y-33668319D01*
X62123306Y-33553210D01*
X62373406Y-33386099D01*
X62586099Y-33173406D01*
X62753210Y-32923306D01*
X62868319Y-32645410D01*
X62927000Y-32350396D01*
X62927000Y-32049604D01*
X62868319Y-31754590D01*
X62753210Y-31476694D01*
X62586099Y-31226594D01*
X62373406Y-31013901D01*
X62131103Y-30852000D01*
X65256243Y-30852000D01*
X65246407Y-32937430D01*
X63937667Y-32937430D01*
X63910569Y-32934761D01*
X63883471Y-32937430D01*
X63883461Y-32937430D01*
X63802359Y-32945418D01*
X63698307Y-32976982D01*
X63602412Y-33028239D01*
X63518359Y-33097219D01*
X63501078Y-33118276D01*
X63046355Y-33573000D01*
X62918548Y-33573000D01*
X62758773Y-33604782D01*
X62608269Y-33667123D01*
X62472819Y-33757628D01*
X62357628Y-33872819D01*
X62267123Y-34008269D01*
X62204782Y-34158773D01*
X62173000Y-34318548D01*
X62173000Y-34481452D01*
X62204782Y-34641227D01*
X62267123Y-34791731D01*
X62357628Y-34927181D01*
X62472819Y-35042372D01*
X62608269Y-35132877D01*
X62758773Y-35195218D01*
X62918548Y-35227000D01*
X63081452Y-35227000D01*
X63241227Y-35195218D01*
X63336676Y-35155682D01*
X63244378Y-35247980D01*
X53827128Y-35247980D01*
X53800020Y-35245310D01*
X53772911Y-35247980D01*
X53714064Y-35253776D01*
X53691809Y-35255968D01*
X53587757Y-35287532D01*
X53491862Y-35338789D01*
X53444494Y-35377663D01*
X53407809Y-35407769D01*
X53390528Y-35428826D01*
X52071356Y-36748000D01*
X51017553Y-36748000D01*
X50927181Y-36657628D01*
X50791731Y-36567123D01*
X50641227Y-36504782D01*
X50481452Y-36473000D01*
X50318548Y-36473000D01*
X50158773Y-36504782D01*
X50008269Y-36567123D01*
X49872819Y-36657628D01*
X49757628Y-36772819D01*
X49667123Y-36908269D01*
X49604782Y-37058773D01*
X49573000Y-37218548D01*
X49573000Y-37381452D01*
X49591211Y-37473001D01*
X47353646Y-37473001D01*
X47271000Y-37390355D01*
X47271000Y-33112553D01*
X47361372Y-33022181D01*
X47451877Y-32886731D01*
X47514218Y-32736227D01*
X47546000Y-32576452D01*
X47546000Y-32413548D01*
X47514218Y-32253773D01*
X47451877Y-32103269D01*
X47361372Y-31967819D01*
X47246181Y-31852628D01*
X47110731Y-31762123D01*
X46960227Y-31699782D01*
X46800452Y-31668000D01*
X46637548Y-31668000D01*
X46477773Y-31699782D01*
X46327269Y-31762123D01*
X46191819Y-31852628D01*
X46076628Y-31967819D01*
X45986123Y-32103269D01*
X45923782Y-32253773D01*
X45892000Y-32413548D01*
X45892000Y-32576452D01*
X45923782Y-32736227D01*
X45986123Y-32886731D01*
X46076628Y-33022181D01*
X46167000Y-33112553D01*
X46167001Y-37591884D01*
X46164330Y-37619000D01*
X46172452Y-37701450D01*
X46174989Y-37727211D01*
X46183881Y-37756523D01*
X46206552Y-37831262D01*
X46254636Y-37921220D01*
X46257810Y-37927158D01*
X46326790Y-38011211D01*
X46347851Y-38028495D01*
X46542354Y-38222999D01*
X44752109Y-38222999D01*
X44725001Y-38220329D01*
X44697892Y-38222999D01*
X44616790Y-38230987D01*
X44512738Y-38262551D01*
X44416843Y-38313808D01*
X44332790Y-38382788D01*
X44315509Y-38403845D01*
X40546356Y-42173000D01*
X40418548Y-42173000D01*
X40258773Y-42204782D01*
X40108269Y-42267123D01*
X39972819Y-42357628D01*
X39857628Y-42472819D01*
X39767123Y-42608269D01*
X39704782Y-42758773D01*
X39673000Y-42918548D01*
X39673000Y-43081452D01*
X39704782Y-43241227D01*
X39767123Y-43391731D01*
X39857628Y-43527181D01*
X39972819Y-43642372D01*
X40108269Y-43732877D01*
X40258773Y-43795218D01*
X40418548Y-43827000D01*
X40581452Y-43827000D01*
X40741227Y-43795218D01*
X40891731Y-43732877D01*
X41027181Y-43642372D01*
X41142372Y-43527181D01*
X41232877Y-43391731D01*
X41295218Y-43241227D01*
X41327000Y-43081452D01*
X41327000Y-42953644D01*
X44514927Y-39765719D01*
X44567123Y-39891731D01*
X44657628Y-40027181D01*
X44748001Y-40117554D01*
X44748000Y-43472894D01*
X44745330Y-43500000D01*
X44748000Y-43527106D01*
X44748000Y-43527108D01*
X44755988Y-43608210D01*
X44787552Y-43712262D01*
X44838809Y-43808158D01*
X44907789Y-43892211D01*
X44928857Y-43909501D01*
X46267355Y-45248000D01*
X38128646Y-45248000D01*
X33640501Y-40759857D01*
X33623211Y-40738789D01*
X33539158Y-40669809D01*
X33443263Y-40618552D01*
X33339211Y-40586988D01*
X33258109Y-40579000D01*
X33258106Y-40579000D01*
X33231000Y-40576330D01*
X33203894Y-40579000D01*
X30874694Y-40579000D01*
X30831663Y-40475114D01*
X30691911Y-40265960D01*
X30514040Y-40088089D01*
X30304886Y-39948337D01*
X30072487Y-39852074D01*
X29860966Y-39810000D01*
X30072487Y-39767926D01*
X30304886Y-39671663D01*
X30514040Y-39531911D01*
X30691911Y-39354040D01*
X30831663Y-39144886D01*
X30927926Y-38912487D01*
X30977000Y-38665774D01*
X30977000Y-38414226D01*
X30927926Y-38167513D01*
X30831663Y-37935114D01*
X30691911Y-37725960D01*
X30514040Y-37548089D01*
X30304886Y-37408337D01*
X30072487Y-37312074D01*
X29860966Y-37270000D01*
X30072487Y-37227926D01*
X30304886Y-37131663D01*
X30514040Y-36991911D01*
X30691911Y-36814040D01*
X30831663Y-36604886D01*
X30927926Y-36372487D01*
X30977000Y-36125774D01*
X30977000Y-35874226D01*
X30927926Y-35627513D01*
X30831663Y-35395114D01*
X30691911Y-35185960D01*
X30514040Y-35008089D01*
X30304886Y-34868337D01*
X30072487Y-34772074D01*
X29825774Y-34723000D01*
X29574226Y-34723000D01*
X29327513Y-34772074D01*
X29095114Y-34868337D01*
X28885960Y-35008089D01*
X28708089Y-35185960D01*
X28568337Y-35395114D01*
X28472074Y-35627513D01*
X28430000Y-35839034D01*
X28387926Y-35627513D01*
X28291663Y-35395114D01*
X28151911Y-35185960D01*
X27974040Y-35008089D01*
X27764886Y-34868337D01*
X27532487Y-34772074D01*
X27285774Y-34723000D01*
X27034226Y-34723000D01*
X26787513Y-34772074D01*
X26555114Y-34868337D01*
X26345960Y-35008089D01*
X26168089Y-35185960D01*
X26028337Y-35395114D01*
X25932074Y-35627513D01*
X25883000Y-35874226D01*
X25883000Y-36125774D01*
X25932074Y-36372487D01*
X26028337Y-36604886D01*
X26168089Y-36814040D01*
X26345960Y-36991911D01*
X26555114Y-37131663D01*
X26787513Y-37227926D01*
X26999034Y-37270000D01*
X26787513Y-37312074D01*
X26555114Y-37408337D01*
X26345960Y-37548089D01*
X26168089Y-37725960D01*
X26028337Y-37935114D01*
X25932074Y-38167513D01*
X25883000Y-38414226D01*
X25883000Y-38665774D01*
X25932074Y-38912487D01*
X25969211Y-39002143D01*
X25613850Y-39357506D01*
X25592789Y-39374790D01*
X25539398Y-39439848D01*
X25523808Y-39458844D01*
X25472551Y-39554739D01*
X25454000Y-39615895D01*
X25454000Y-24646951D01*
X27335654Y-24646951D01*
X27388434Y-24875116D01*
X27617488Y-24980509D01*
X27862702Y-25039192D01*
X28114652Y-25048907D01*
X28363658Y-25009283D01*
X28600148Y-24921842D01*
X28687566Y-24875116D01*
X28740346Y-24646951D01*
X32185654Y-24646951D01*
X32238434Y-24875116D01*
X32467488Y-24980509D01*
X32712702Y-25039192D01*
X32964652Y-25048907D01*
X33213658Y-25009283D01*
X33450148Y-24921842D01*
X33537566Y-24875116D01*
X33590346Y-24646951D01*
X32888000Y-23944605D01*
X32185654Y-24646951D01*
X28740346Y-24646951D01*
X28038000Y-23944605D01*
X27335654Y-24646951D01*
X25454000Y-24646951D01*
X25454000Y-23841652D01*
X26754093Y-23841652D01*
X26793717Y-24090658D01*
X26881158Y-24327148D01*
X26927884Y-24414566D01*
X27156049Y-24467346D01*
X27858395Y-23765000D01*
X28217605Y-23765000D01*
X28919951Y-24467346D01*
X29148116Y-24414566D01*
X29253509Y-24185512D01*
X29312192Y-23940298D01*
X29315995Y-23841652D01*
X31604093Y-23841652D01*
X31643717Y-24090658D01*
X31731158Y-24327148D01*
X31777884Y-24414566D01*
X32006049Y-24467346D01*
X32708395Y-23765000D01*
X33067605Y-23765000D01*
X33769951Y-24467346D01*
X33998116Y-24414566D01*
X34103509Y-24185512D01*
X34162192Y-23940298D01*
X34171907Y-23688348D01*
X34132283Y-23439342D01*
X34044842Y-23202852D01*
X33998116Y-23115434D01*
X33769951Y-23062654D01*
X33067605Y-23765000D01*
X32708395Y-23765000D01*
X32006049Y-23062654D01*
X31777884Y-23115434D01*
X31672491Y-23344488D01*
X31613808Y-23589702D01*
X31604093Y-23841652D01*
X29315995Y-23841652D01*
X29321907Y-23688348D01*
X29282283Y-23439342D01*
X29194842Y-23202852D01*
X29148116Y-23115434D01*
X28919951Y-23062654D01*
X28217605Y-23765000D01*
X27858395Y-23765000D01*
X27156049Y-23062654D01*
X26927884Y-23115434D01*
X26822491Y-23344488D01*
X26763808Y-23589702D01*
X26754093Y-23841652D01*
X25454000Y-23841652D01*
X25454000Y-22883049D01*
X27335654Y-22883049D01*
X28038000Y-23585395D01*
X28740346Y-22883049D01*
X32185654Y-22883049D01*
X32888000Y-23585395D01*
X33590346Y-22883049D01*
X33537566Y-22654884D01*
X33308512Y-22549491D01*
X33063298Y-22490808D01*
X32811348Y-22481093D01*
X32562342Y-22520717D01*
X32325852Y-22608158D01*
X32238434Y-22654884D01*
X32185654Y-22883049D01*
X28740346Y-22883049D01*
X28687566Y-22654884D01*
X28458512Y-22549491D01*
X28213298Y-22490808D01*
X27961348Y-22481093D01*
X27712342Y-22520717D01*
X27475852Y-22608158D01*
X27388434Y-22654884D01*
X27335654Y-22883049D01*
X25454000Y-22883049D01*
X25454000Y-19993000D01*
X26168822Y-19993000D01*
X26048960Y-20073089D01*
G36*
X65190460Y-44797990D02*
G01*
X47378635Y-44797990D01*
X45852000Y-43271356D01*
X45852000Y-40117553D01*
X45942372Y-40027181D01*
X46032877Y-39891731D01*
X46095218Y-39741227D01*
X46127000Y-39581452D01*
X46127000Y-39418548D01*
X46108789Y-39326999D01*
X53135706Y-39326999D01*
X53191790Y-39344012D01*
X53300000Y-39354670D01*
X53408210Y-39344012D01*
X53512263Y-39312448D01*
X53608158Y-39261191D01*
X53692211Y-39192211D01*
X53709500Y-39171144D01*
X54714927Y-38165719D01*
X54767123Y-38291731D01*
X54823000Y-38375357D01*
X54823001Y-40019577D01*
X52407418Y-42435160D01*
X52308773Y-42454782D01*
X52158269Y-42517123D01*
X52022819Y-42607628D01*
X51907628Y-42722819D01*
X51817123Y-42858269D01*
X51754782Y-43008773D01*
X51723000Y-43168548D01*
X51723000Y-43331452D01*
X51754782Y-43491227D01*
X51817123Y-43641731D01*
X51907628Y-43777181D01*
X52022819Y-43892372D01*
X52158269Y-43982877D01*
X52308773Y-44045218D01*
X52468548Y-44077000D01*
X52631452Y-44077000D01*
X52791227Y-44045218D01*
X52941731Y-43982877D01*
X53077181Y-43892372D01*
X53192372Y-43777181D01*
X53282877Y-43641731D01*
X53345218Y-43491227D01*
X53364840Y-43392582D01*
X55955196Y-40802226D01*
X55981027Y-40781027D01*
X56065628Y-40677941D01*
X56128492Y-40560330D01*
X56167204Y-40432715D01*
X56177000Y-40333252D01*
X56177000Y-40333246D01*
X56180274Y-40300001D01*
X56177000Y-40266756D01*
X56177000Y-38375357D01*
X56232877Y-38291731D01*
X56295218Y-38141227D01*
X56327000Y-37981452D01*
X56327000Y-37818548D01*
X56295218Y-37658773D01*
X56232877Y-37508269D01*
X56142372Y-37372819D01*
X56121553Y-37352000D01*
X63982447Y-37352000D01*
X64072819Y-37442372D01*
X64208269Y-37532877D01*
X64358773Y-37595218D01*
X64518548Y-37627000D01*
X64681452Y-37627000D01*
X64841227Y-37595218D01*
X64991731Y-37532877D01*
X65127181Y-37442372D01*
X65225621Y-37343932D01*
X65190460Y-44797990D01*
G37*
X65190460Y-44797990D02*
X47378635Y-44797990D01*
X45852000Y-43271356D01*
X45852000Y-40117553D01*
X45942372Y-40027181D01*
X46032877Y-39891731D01*
X46095218Y-39741227D01*
X46127000Y-39581452D01*
X46127000Y-39418548D01*
X46108789Y-39326999D01*
X53135706Y-39326999D01*
X53191790Y-39344012D01*
X53300000Y-39354670D01*
X53408210Y-39344012D01*
X53512263Y-39312448D01*
X53608158Y-39261191D01*
X53692211Y-39192211D01*
X53709500Y-39171144D01*
X54714927Y-38165719D01*
X54767123Y-38291731D01*
X54823000Y-38375357D01*
X54823001Y-40019577D01*
X52407418Y-42435160D01*
X52308773Y-42454782D01*
X52158269Y-42517123D01*
X52022819Y-42607628D01*
X51907628Y-42722819D01*
X51817123Y-42858269D01*
X51754782Y-43008773D01*
X51723000Y-43168548D01*
X51723000Y-43331452D01*
X51754782Y-43491227D01*
X51817123Y-43641731D01*
X51907628Y-43777181D01*
X52022819Y-43892372D01*
X52158269Y-43982877D01*
X52308773Y-44045218D01*
X52468548Y-44077000D01*
X52631452Y-44077000D01*
X52791227Y-44045218D01*
X52941731Y-43982877D01*
X53077181Y-43892372D01*
X53192372Y-43777181D01*
X53282877Y-43641731D01*
X53345218Y-43491227D01*
X53364840Y-43392582D01*
X55955196Y-40802226D01*
X55981027Y-40781027D01*
X56065628Y-40677941D01*
X56128492Y-40560330D01*
X56167204Y-40432715D01*
X56177000Y-40333252D01*
X56177000Y-40333246D01*
X56180274Y-40300001D01*
X56177000Y-40266756D01*
X56177000Y-38375357D01*
X56232877Y-38291731D01*
X56295218Y-38141227D01*
X56327000Y-37981452D01*
X56327000Y-37818548D01*
X56295218Y-37658773D01*
X56232877Y-37508269D01*
X56142372Y-37372819D01*
X56121553Y-37352000D01*
X63982447Y-37352000D01*
X64072819Y-37442372D01*
X64208269Y-37532877D01*
X64358773Y-37595218D01*
X64518548Y-37627000D01*
X64681452Y-37627000D01*
X64841227Y-37595218D01*
X64991731Y-37532877D01*
X65127181Y-37442372D01*
X65225621Y-37343932D01*
X65190460Y-44797990D01*
G36*
X123661414Y-43392541D02*
G01*
X123433538Y-43620418D01*
X123429959Y-43623458D01*
X123414330Y-43639625D01*
X123398509Y-43655447D01*
X123395544Y-43659059D01*
X122837256Y-44236600D01*
X122098847Y-44236600D01*
X122872155Y-43463293D01*
X122893212Y-43446012D01*
X122925101Y-43407155D01*
X122962192Y-43361960D01*
X122995914Y-43298870D01*
X123013449Y-43266064D01*
X123045013Y-43162012D01*
X123053001Y-43080910D01*
X123053001Y-43080900D01*
X123055670Y-43053802D01*
X123053001Y-43026704D01*
X123053001Y-42283304D01*
X123055671Y-42256198D01*
X123052735Y-42226389D01*
X123045013Y-42147988D01*
X123013449Y-42043936D01*
X122962192Y-41948041D01*
X122893212Y-41863988D01*
X122872155Y-41846707D01*
X122404501Y-41379055D01*
X122387212Y-41357988D01*
X122303159Y-41289008D01*
X122279945Y-41276600D01*
X122688694Y-41276600D01*
X122715800Y-41279270D01*
X122742906Y-41276600D01*
X122742909Y-41276600D01*
X122824011Y-41268612D01*
X122928063Y-41237048D01*
X123023958Y-41185791D01*
X123108011Y-41116811D01*
X123125300Y-41095744D01*
X123513385Y-40707661D01*
X123534442Y-40690380D01*
X123565006Y-40653138D01*
X123603422Y-40606327D01*
X123649036Y-40520989D01*
X123661414Y-43392541D01*
G37*
X123661414Y-43392541D02*
X123433538Y-43620418D01*
X123429959Y-43623458D01*
X123414330Y-43639625D01*
X123398509Y-43655447D01*
X123395544Y-43659059D01*
X122837256Y-44236600D01*
X122098847Y-44236600D01*
X122872155Y-43463293D01*
X122893212Y-43446012D01*
X122925101Y-43407155D01*
X122962192Y-43361960D01*
X122995914Y-43298870D01*
X123013449Y-43266064D01*
X123045013Y-43162012D01*
X123053001Y-43080910D01*
X123053001Y-43080900D01*
X123055670Y-43053802D01*
X123053001Y-43026704D01*
X123053001Y-42283304D01*
X123055671Y-42256198D01*
X123052735Y-42226389D01*
X123045013Y-42147988D01*
X123013449Y-42043936D01*
X122962192Y-41948041D01*
X122893212Y-41863988D01*
X122872155Y-41846707D01*
X122404501Y-41379055D01*
X122387212Y-41357988D01*
X122303159Y-41289008D01*
X122279945Y-41276600D01*
X122688694Y-41276600D01*
X122715800Y-41279270D01*
X122742906Y-41276600D01*
X122742909Y-41276600D01*
X122824011Y-41268612D01*
X122928063Y-41237048D01*
X123023958Y-41185791D01*
X123108011Y-41116811D01*
X123125300Y-41095744D01*
X123513385Y-40707661D01*
X123534442Y-40690380D01*
X123565006Y-40653138D01*
X123603422Y-40606327D01*
X123649036Y-40520989D01*
X123661414Y-43392541D01*
G36*
X102501368Y-44163988D02*
G01*
X99929432Y-44163988D01*
X99209068Y-43443624D01*
X99282331Y-43413277D01*
X99417781Y-43322772D01*
X99532972Y-43207581D01*
X99623477Y-43072131D01*
X99685818Y-42921627D01*
X99717600Y-42761852D01*
X99717600Y-42598948D01*
X99685818Y-42439173D01*
X99623477Y-42288669D01*
X99532972Y-42153219D01*
X99417781Y-42038028D01*
X99282331Y-41947523D01*
X99131827Y-41885182D01*
X98972052Y-41853400D01*
X98844245Y-41853400D01*
X98819199Y-41828354D01*
X98819199Y-40481817D01*
X102501368Y-44163988D01*
G37*
X102501368Y-44163988D02*
X99929432Y-44163988D01*
X99209068Y-43443624D01*
X99282331Y-43413277D01*
X99417781Y-43322772D01*
X99532972Y-43207581D01*
X99623477Y-43072131D01*
X99685818Y-42921627D01*
X99717600Y-42761852D01*
X99717600Y-42598948D01*
X99685818Y-42439173D01*
X99623477Y-42288669D01*
X99532972Y-42153219D01*
X99417781Y-42038028D01*
X99282331Y-41947523D01*
X99131827Y-41885182D01*
X98972052Y-41853400D01*
X98844245Y-41853400D01*
X98819199Y-41828354D01*
X98819199Y-40481817D01*
X102501368Y-44163988D01*
G36*
X119017707Y-42436553D02*
G01*
X119034989Y-42457611D01*
X119056045Y-42474891D01*
X119119041Y-42526591D01*
X119157073Y-42546919D01*
X119214937Y-42577848D01*
X119248134Y-42587918D01*
X119248134Y-42744121D01*
X119243493Y-42744578D01*
X119163004Y-42768995D01*
X119088824Y-42808645D01*
X119023805Y-42862005D01*
X118970445Y-42927024D01*
X118930795Y-43001204D01*
X118906378Y-43081693D01*
X118898134Y-43165400D01*
X118898134Y-43565400D01*
X118905560Y-43640801D01*
X117516444Y-43640801D01*
X116906201Y-43030559D01*
X116906201Y-42944466D01*
X117527200Y-42944466D01*
X117610907Y-42936222D01*
X117691396Y-42911805D01*
X117765576Y-42872155D01*
X117830595Y-42818795D01*
X117883955Y-42753776D01*
X117923605Y-42679596D01*
X117948022Y-42599107D01*
X117956266Y-42515400D01*
X117956266Y-42215400D01*
X117948022Y-42131693D01*
X117927911Y-42065400D01*
X117948022Y-41999107D01*
X117956266Y-41915400D01*
X117956266Y-41786046D01*
X117967103Y-41777592D01*
X118048819Y-41682890D01*
X118110490Y-41574066D01*
X118121602Y-41540447D01*
X119017707Y-42436553D01*
G37*
X119017707Y-42436553D02*
X119034989Y-42457611D01*
X119056045Y-42474891D01*
X119119041Y-42526591D01*
X119157073Y-42546919D01*
X119214937Y-42577848D01*
X119248134Y-42587918D01*
X119248134Y-42744121D01*
X119243493Y-42744578D01*
X119163004Y-42768995D01*
X119088824Y-42808645D01*
X119023805Y-42862005D01*
X118970445Y-42927024D01*
X118930795Y-43001204D01*
X118906378Y-43081693D01*
X118898134Y-43165400D01*
X118898134Y-43565400D01*
X118905560Y-43640801D01*
X117516444Y-43640801D01*
X116906201Y-43030559D01*
X116906201Y-42944466D01*
X117527200Y-42944466D01*
X117610907Y-42936222D01*
X117691396Y-42911805D01*
X117765576Y-42872155D01*
X117830595Y-42818795D01*
X117883955Y-42753776D01*
X117923605Y-42679596D01*
X117948022Y-42599107D01*
X117956266Y-42515400D01*
X117956266Y-42215400D01*
X117948022Y-42131693D01*
X117927911Y-42065400D01*
X117948022Y-41999107D01*
X117956266Y-41915400D01*
X117956266Y-41786046D01*
X117967103Y-41777592D01*
X118048819Y-41682890D01*
X118110490Y-41574066D01*
X118121602Y-41540447D01*
X119017707Y-42436553D01*
G36*
X103626200Y-38153948D02*
G01*
X103626200Y-38316852D01*
X103657982Y-38476627D01*
X103720323Y-38627131D01*
X103810828Y-38762581D01*
X103926019Y-38877772D01*
X104061469Y-38968277D01*
X104211973Y-39030618D01*
X104371748Y-39062400D01*
X104534652Y-39062400D01*
X104694427Y-39030618D01*
X104844931Y-38968277D01*
X104980381Y-38877772D01*
X105088200Y-38769953D01*
X105196019Y-38877772D01*
X105331469Y-38968277D01*
X105481973Y-39030618D01*
X105641748Y-39062400D01*
X105804652Y-39062400D01*
X105964427Y-39030618D01*
X106066201Y-38988462D01*
X106066202Y-41617508D01*
X105855668Y-41828043D01*
X105855452Y-41828000D01*
X105692548Y-41828000D01*
X105532773Y-41859782D01*
X105382269Y-41922123D01*
X105246819Y-42012628D01*
X105131628Y-42127819D01*
X105041123Y-42263269D01*
X104978782Y-42413773D01*
X104947000Y-42573548D01*
X104947000Y-42736452D01*
X104965211Y-42828001D01*
X103978245Y-42828001D01*
X103152000Y-42001758D01*
X103152000Y-38817553D01*
X103242372Y-38727181D01*
X103332877Y-38591731D01*
X103395218Y-38441227D01*
X103427000Y-38281452D01*
X103427000Y-38118548D01*
X103408471Y-38025400D01*
X103651770Y-38025400D01*
X103626200Y-38153948D01*
G37*
X103626200Y-38153948D02*
X103626200Y-38316852D01*
X103657982Y-38476627D01*
X103720323Y-38627131D01*
X103810828Y-38762581D01*
X103926019Y-38877772D01*
X104061469Y-38968277D01*
X104211973Y-39030618D01*
X104371748Y-39062400D01*
X104534652Y-39062400D01*
X104694427Y-39030618D01*
X104844931Y-38968277D01*
X104980381Y-38877772D01*
X105088200Y-38769953D01*
X105196019Y-38877772D01*
X105331469Y-38968277D01*
X105481973Y-39030618D01*
X105641748Y-39062400D01*
X105804652Y-39062400D01*
X105964427Y-39030618D01*
X106066201Y-38988462D01*
X106066202Y-41617508D01*
X105855668Y-41828043D01*
X105855452Y-41828000D01*
X105692548Y-41828000D01*
X105532773Y-41859782D01*
X105382269Y-41922123D01*
X105246819Y-42012628D01*
X105131628Y-42127819D01*
X105041123Y-42263269D01*
X104978782Y-42413773D01*
X104947000Y-42573548D01*
X104947000Y-42736452D01*
X104965211Y-42828001D01*
X103978245Y-42828001D01*
X103152000Y-42001758D01*
X103152000Y-38817553D01*
X103242372Y-38727181D01*
X103332877Y-38591731D01*
X103395218Y-38441227D01*
X103427000Y-38281452D01*
X103427000Y-38118548D01*
X103408471Y-38025400D01*
X103651770Y-38025400D01*
X103626200Y-38153948D01*
G36*
X92958200Y-36629948D02*
G01*
X92958200Y-36792852D01*
X92989982Y-36952627D01*
X93052323Y-37103131D01*
X93142828Y-37238581D01*
X93258019Y-37353772D01*
X93393469Y-37444277D01*
X93543973Y-37506618D01*
X93703748Y-37538400D01*
X93866652Y-37538400D01*
X94026427Y-37506618D01*
X94176931Y-37444277D01*
X94312381Y-37353772D01*
X94386754Y-37279399D01*
X99167556Y-37279399D01*
X97896055Y-38550900D01*
X97874988Y-38568190D01*
X97806008Y-38652243D01*
X97754751Y-38748139D01*
X97723187Y-38852191D01*
X97715240Y-38932877D01*
X97712529Y-38960401D01*
X97715199Y-38987507D01*
X97715200Y-41949756D01*
X92428178Y-36662735D01*
X92534381Y-36591772D01*
X92624753Y-36501400D01*
X92983770Y-36501400D01*
X92958200Y-36629948D01*
G37*
X92958200Y-36629948D02*
X92958200Y-36792852D01*
X92989982Y-36952627D01*
X93052323Y-37103131D01*
X93142828Y-37238581D01*
X93258019Y-37353772D01*
X93393469Y-37444277D01*
X93543973Y-37506618D01*
X93703748Y-37538400D01*
X93866652Y-37538400D01*
X94026427Y-37506618D01*
X94176931Y-37444277D01*
X94312381Y-37353772D01*
X94386754Y-37279399D01*
X99167556Y-37279399D01*
X97896055Y-38550900D01*
X97874988Y-38568190D01*
X97806008Y-38652243D01*
X97754751Y-38748139D01*
X97723187Y-38852191D01*
X97715240Y-38932877D01*
X97712529Y-38960401D01*
X97715199Y-38987507D01*
X97715200Y-41949756D01*
X92428178Y-36662735D01*
X92534381Y-36591772D01*
X92624753Y-36501400D01*
X92983770Y-36501400D01*
X92958200Y-36629948D01*
G36*
X81372756Y-35600564D02*
G01*
X81169464Y-35623419D01*
X81088623Y-35810584D01*
X81045849Y-36009923D01*
X81042787Y-36213777D01*
X81079553Y-36414312D01*
X81154734Y-36603820D01*
X81167562Y-36627822D01*
X81088623Y-36810584D01*
X81045849Y-37009923D01*
X81042787Y-37213777D01*
X81079553Y-37414312D01*
X81154734Y-37603820D01*
X81167562Y-37627822D01*
X81088623Y-37810584D01*
X81045849Y-38009923D01*
X81042787Y-38213777D01*
X81079553Y-38414312D01*
X81154734Y-38603820D01*
X81167562Y-38627822D01*
X81088623Y-38810584D01*
X81045849Y-39009923D01*
X81042787Y-39213777D01*
X81079553Y-39414312D01*
X81154734Y-39603820D01*
X81167562Y-39627822D01*
X81088623Y-39810584D01*
X81045849Y-40009923D01*
X81042787Y-40213777D01*
X81053645Y-40273000D01*
X80484499Y-39703855D01*
X80467210Y-39682788D01*
X80383157Y-39613808D01*
X80287262Y-39562551D01*
X80183210Y-39530987D01*
X80102108Y-39522999D01*
X80102105Y-39522999D01*
X80074999Y-39520329D01*
X80047893Y-39522999D01*
X78252109Y-39522999D01*
X78225001Y-39520329D01*
X78197892Y-39522999D01*
X78116790Y-39530987D01*
X78012738Y-39562551D01*
X77916843Y-39613808D01*
X77832790Y-39682788D01*
X77763810Y-39766841D01*
X77712553Y-39862736D01*
X77693365Y-39925989D01*
X76386200Y-41233155D01*
X76386200Y-35510011D01*
X81282203Y-35510011D01*
X81372756Y-35600564D01*
G37*
X81372756Y-35600564D02*
X81169464Y-35623419D01*
X81088623Y-35810584D01*
X81045849Y-36009923D01*
X81042787Y-36213777D01*
X81079553Y-36414312D01*
X81154734Y-36603820D01*
X81167562Y-36627822D01*
X81088623Y-36810584D01*
X81045849Y-37009923D01*
X81042787Y-37213777D01*
X81079553Y-37414312D01*
X81154734Y-37603820D01*
X81167562Y-37627822D01*
X81088623Y-37810584D01*
X81045849Y-38009923D01*
X81042787Y-38213777D01*
X81079553Y-38414312D01*
X81154734Y-38603820D01*
X81167562Y-38627822D01*
X81088623Y-38810584D01*
X81045849Y-39009923D01*
X81042787Y-39213777D01*
X81079553Y-39414312D01*
X81154734Y-39603820D01*
X81167562Y-39627822D01*
X81088623Y-39810584D01*
X81045849Y-40009923D01*
X81042787Y-40213777D01*
X81053645Y-40273000D01*
X80484499Y-39703855D01*
X80467210Y-39682788D01*
X80383157Y-39613808D01*
X80287262Y-39562551D01*
X80183210Y-39530987D01*
X80102108Y-39522999D01*
X80102105Y-39522999D01*
X80074999Y-39520329D01*
X80047893Y-39522999D01*
X78252109Y-39522999D01*
X78225001Y-39520329D01*
X78197892Y-39522999D01*
X78116790Y-39530987D01*
X78012738Y-39562551D01*
X77916843Y-39613808D01*
X77832790Y-39682788D01*
X77763810Y-39766841D01*
X77712553Y-39862736D01*
X77693365Y-39925989D01*
X76386200Y-41233155D01*
X76386200Y-35510011D01*
X81282203Y-35510011D01*
X81372756Y-35600564D01*
G36*
X117349200Y-41186334D02*
G01*
X117104199Y-41186334D01*
X117104199Y-41144466D01*
X117349200Y-41144466D01*
X117349200Y-41186334D01*
G37*
X117349200Y-41186334D02*
X117104199Y-41186334D01*
X117104199Y-41144466D01*
X117349200Y-41144466D01*
X117349200Y-41186334D01*
G36*
X81961723Y-40160751D02*
G01*
X82043565Y-40161980D01*
X82042787Y-40213777D01*
X82061892Y-40317982D01*
X81889072Y-40145162D01*
X81961723Y-40160751D01*
G37*
X81961723Y-40160751D02*
X82043565Y-40161980D01*
X82042787Y-40213777D01*
X82061892Y-40317982D01*
X81889072Y-40145162D01*
X81961723Y-40160751D01*
G36*
X86096962Y-40317528D02*
G01*
X86112551Y-40244877D01*
X86113780Y-40163035D01*
X86165577Y-40163813D01*
X86269782Y-40144708D01*
X86096962Y-40317528D01*
G37*
X86096962Y-40317528D02*
X86112551Y-40244877D01*
X86113780Y-40163035D01*
X86165577Y-40163813D01*
X86269782Y-40144708D01*
X86096962Y-40317528D01*
G36*
X120224200Y-40286334D02*
G01*
X119930200Y-40286334D01*
X119930200Y-40244466D01*
X120224200Y-40244466D01*
X120224200Y-40286334D01*
G37*
X120224200Y-40286334D02*
X119930200Y-40286334D01*
X119930200Y-40244466D01*
X120224200Y-40244466D01*
X120224200Y-40286334D01*
G36*
X82045849Y-36009923D02*
G01*
X82044620Y-36091765D01*
X81992823Y-36090987D01*
X81888618Y-36110092D01*
X82061438Y-35937272D01*
X82045849Y-36009923D01*
G37*
X82045849Y-36009923D02*
X82044620Y-36091765D01*
X81992823Y-36090987D01*
X81888618Y-36110092D01*
X82061438Y-35937272D01*
X82045849Y-36009923D01*
G36*
X86269328Y-36109638D02*
G01*
X86196677Y-36094049D01*
X86114835Y-36092820D01*
X86115613Y-36041023D01*
X86096508Y-35936818D01*
X86269328Y-36109638D01*
G37*
X86269328Y-36109638D02*
X86196677Y-36094049D01*
X86114835Y-36092820D01*
X86115613Y-36041023D01*
X86096508Y-35936818D01*
X86269328Y-36109638D01*
G36*
X123612585Y-32064230D02*
G01*
X123619681Y-33710492D01*
X123603422Y-33680073D01*
X123534442Y-33596020D01*
X123513385Y-33578739D01*
X123212600Y-33277955D01*
X123212600Y-33150148D01*
X123180818Y-32990373D01*
X123118477Y-32839869D01*
X123027972Y-32704419D01*
X122912781Y-32589228D01*
X122812018Y-32521900D01*
X122936952Y-32521900D01*
X123096727Y-32490118D01*
X123247231Y-32427777D01*
X123382681Y-32337272D01*
X123497872Y-32222081D01*
X123588377Y-32086631D01*
X123602029Y-32053673D01*
X123612585Y-32064230D01*
G37*
X123612585Y-32064230D02*
X123619681Y-33710492D01*
X123603422Y-33680073D01*
X123534442Y-33596020D01*
X123513385Y-33578739D01*
X123212600Y-33277955D01*
X123212600Y-33150148D01*
X123180818Y-32990373D01*
X123118477Y-32839869D01*
X123027972Y-32704419D01*
X122912781Y-32589228D01*
X122812018Y-32521900D01*
X122936952Y-32521900D01*
X123096727Y-32490118D01*
X123247231Y-32427777D01*
X123382681Y-32337272D01*
X123497872Y-32222081D01*
X123588377Y-32086631D01*
X123602029Y-32053673D01*
X123612585Y-32064230D01*
G36*
X120224200Y-33686334D02*
G01*
X119930200Y-33686334D01*
X119930200Y-33644466D01*
X120224200Y-33644466D01*
X120224200Y-33686334D01*
G37*
X120224200Y-33686334D02*
X119930200Y-33686334D01*
X119930200Y-33644466D01*
X120224200Y-33644466D01*
X120224200Y-33686334D01*
G36*
X80404776Y-32487420D02*
G01*
X76386200Y-32487420D01*
X76386200Y-30852000D01*
X78769358Y-30852000D01*
X80404776Y-32487420D01*
G37*
X80404776Y-32487420D02*
X76386200Y-32487420D01*
X76386200Y-30852000D01*
X78769358Y-30852000D01*
X80404776Y-32487420D01*
G36*
X120224200Y-31886334D02*
G01*
X119930200Y-31886334D01*
X119930200Y-31844466D01*
X120224200Y-31844466D01*
X120224200Y-31886334D01*
G37*
X120224200Y-31886334D02*
X119930200Y-31886334D01*
X119930200Y-31844466D01*
X120224200Y-31844466D01*
X120224200Y-31886334D01*
G36*
X124118000Y-31008356D02*
G01*
X123708399Y-30598755D01*
X123691110Y-30577688D01*
X123607057Y-30508708D01*
X123511162Y-30457451D01*
X123407110Y-30425887D01*
X123326008Y-30417899D01*
X123326005Y-30417899D01*
X123298899Y-30415229D01*
X123271793Y-30417899D01*
X122213399Y-30417899D01*
X122186291Y-30415229D01*
X122159182Y-30417899D01*
X122078080Y-30425887D01*
X121974028Y-30457451D01*
X121878133Y-30508708D01*
X121802321Y-30570925D01*
X121842354Y-30530892D01*
X121863411Y-30513611D01*
X121892388Y-30478302D01*
X121932391Y-30429559D01*
X121963347Y-30371643D01*
X121983648Y-30333663D01*
X122015212Y-30229611D01*
X122023200Y-30148509D01*
X122023200Y-30148499D01*
X122025869Y-30121401D01*
X122025087Y-30113466D01*
X122113572Y-30024981D01*
X122204077Y-29889531D01*
X122266418Y-29739027D01*
X122298200Y-29579252D01*
X122298200Y-29416348D01*
X122266418Y-29256573D01*
X122204077Y-29106069D01*
X122113572Y-28970619D01*
X121998381Y-28855428D01*
X121862931Y-28764923D01*
X121712427Y-28702582D01*
X121552652Y-28670800D01*
X121389748Y-28670800D01*
X121229973Y-28702582D01*
X121079469Y-28764923D01*
X120944019Y-28855428D01*
X120828828Y-28970619D01*
X120738323Y-29106069D01*
X120675982Y-29256573D01*
X120644200Y-29416348D01*
X120644200Y-29579252D01*
X120675982Y-29739027D01*
X120738323Y-29889531D01*
X120812063Y-29999891D01*
X120651711Y-30160244D01*
X120633955Y-30127024D01*
X120580595Y-30062005D01*
X120515576Y-30008645D01*
X120441396Y-29968995D01*
X120360907Y-29944578D01*
X120277200Y-29936334D01*
X119377152Y-29936334D01*
X120400436Y-28913053D01*
X120420540Y-28896554D01*
X120486396Y-28816308D01*
X120535331Y-28724756D01*
X120565466Y-28625416D01*
X120573092Y-28547987D01*
X120573092Y-28547985D01*
X120575641Y-28522107D01*
X120573092Y-28496226D01*
X120573092Y-26350675D01*
X120575641Y-26324794D01*
X120565466Y-26221485D01*
X120535331Y-26122145D01*
X120486396Y-26030593D01*
X120480810Y-26023787D01*
X120420540Y-25950347D01*
X120400431Y-25933844D01*
X119424021Y-24957435D01*
X119407514Y-24937321D01*
X119327268Y-24871465D01*
X119235716Y-24822530D01*
X119136376Y-24792395D01*
X119058947Y-24784769D01*
X119033066Y-24782220D01*
X119007185Y-24784769D01*
X115680133Y-24784769D01*
X115660781Y-24782863D01*
X115614643Y-24777363D01*
X115583339Y-24779800D01*
X114938792Y-24779800D01*
X115841592Y-23877000D01*
X115924643Y-23877000D01*
X116008269Y-23932877D01*
X116158773Y-23995218D01*
X116318548Y-24027000D01*
X116481452Y-24027000D01*
X116641227Y-23995218D01*
X116791731Y-23932877D01*
X116927181Y-23842372D01*
X117042372Y-23727181D01*
X117132877Y-23591731D01*
X117195218Y-23441227D01*
X117227000Y-23281452D01*
X117227000Y-23118548D01*
X117195218Y-22958773D01*
X117132877Y-22808269D01*
X117042372Y-22672819D01*
X116927181Y-22557628D01*
X116791731Y-22467123D01*
X116641227Y-22404782D01*
X116481452Y-22373000D01*
X116318548Y-22373000D01*
X116158773Y-22404782D01*
X116008269Y-22467123D01*
X115924643Y-22523000D01*
X115594411Y-22523000D01*
X115561169Y-22519726D01*
X115527927Y-22523000D01*
X115527918Y-22523000D01*
X115428455Y-22532796D01*
X115300840Y-22571508D01*
X115183229Y-22634372D01*
X115080143Y-22718973D01*
X115058944Y-22744804D01*
X109345978Y-28457770D01*
X108498482Y-28457770D01*
X108465230Y-28454495D01*
X108416697Y-28459275D01*
X107932000Y-27974578D01*
X107932000Y-26178251D01*
X107935275Y-26145000D01*
X107922204Y-26012285D01*
X107883492Y-25884670D01*
X107820628Y-25767059D01*
X107736027Y-25663973D01*
X107632941Y-25579372D01*
X107515330Y-25516508D01*
X107387715Y-25477796D01*
X107288252Y-25468000D01*
X107255000Y-25464725D01*
X107221748Y-25468000D01*
X95073357Y-25468000D01*
X94989731Y-25412123D01*
X94839227Y-25349782D01*
X94679452Y-25318000D01*
X94516548Y-25318000D01*
X94356773Y-25349782D01*
X94206269Y-25412123D01*
X94122643Y-25468000D01*
X85785608Y-25468000D01*
X83311025Y-22993417D01*
X83291403Y-22894772D01*
X83229062Y-22744268D01*
X83138557Y-22608818D01*
X83023366Y-22493627D01*
X82887916Y-22403122D01*
X82737412Y-22340781D01*
X82577637Y-22308999D01*
X82566422Y-22308999D01*
X81431471Y-21174048D01*
X82912500Y-21174048D01*
X82912500Y-21336952D01*
X82944282Y-21496727D01*
X83006623Y-21647231D01*
X83097128Y-21782681D01*
X83212319Y-21897872D01*
X83347769Y-21988377D01*
X83498273Y-22050718D01*
X83658048Y-22082500D01*
X83754946Y-22082500D01*
X85867981Y-24353745D01*
X85891589Y-24382511D01*
X85925922Y-24410687D01*
X85959210Y-24440078D01*
X85967886Y-24445126D01*
X85975642Y-24451491D01*
X86014805Y-24472424D01*
X86053195Y-24494760D01*
X86062687Y-24498017D01*
X86071537Y-24502748D01*
X86114046Y-24515643D01*
X86156041Y-24530055D01*
X86165982Y-24531398D01*
X86175589Y-24534312D01*
X86219798Y-24538666D01*
X86263797Y-24544609D01*
X86300926Y-24542300D01*
X91127247Y-24542300D01*
X91217619Y-24632672D01*
X91353069Y-24723177D01*
X91503573Y-24785518D01*
X91663348Y-24817300D01*
X91826252Y-24817300D01*
X91986027Y-24785518D01*
X92136531Y-24723177D01*
X92271981Y-24632672D01*
X92387172Y-24517481D01*
X92477677Y-24382031D01*
X92540018Y-24231527D01*
X92571800Y-24071752D01*
X92571800Y-23908848D01*
X92540018Y-23749073D01*
X92477677Y-23598569D01*
X92387172Y-23463119D01*
X92271981Y-23347928D01*
X92136531Y-23257423D01*
X91986027Y-23195082D01*
X91826252Y-23163300D01*
X91663348Y-23163300D01*
X91503573Y-23195082D01*
X91353069Y-23257423D01*
X91217619Y-23347928D01*
X91127247Y-23438300D01*
X86524199Y-23438300D01*
X85232236Y-22049604D01*
X109873000Y-22049604D01*
X109873000Y-22350396D01*
X109931681Y-22645410D01*
X110046790Y-22923306D01*
X110213901Y-23173406D01*
X110426594Y-23386099D01*
X110676694Y-23553210D01*
X110954590Y-23668319D01*
X111249604Y-23727000D01*
X111550396Y-23727000D01*
X111845410Y-23668319D01*
X112123306Y-23553210D01*
X112373406Y-23386099D01*
X112586099Y-23173406D01*
X112753210Y-22923306D01*
X112868319Y-22645410D01*
X112927000Y-22350396D01*
X112927000Y-22049604D01*
X112868319Y-21754590D01*
X112753210Y-21476694D01*
X112586099Y-21226594D01*
X112373406Y-21013901D01*
X112123306Y-20846790D01*
X111845410Y-20731681D01*
X111550396Y-20673000D01*
X111249604Y-20673000D01*
X110954590Y-20731681D01*
X110676694Y-20846790D01*
X110426594Y-21013901D01*
X110213901Y-21226594D01*
X110046790Y-21476694D01*
X109931681Y-21754590D01*
X109873000Y-22049604D01*
X85232236Y-22049604D01*
X84566500Y-21334024D01*
X84566500Y-21174048D01*
X84534718Y-21014273D01*
X84472377Y-20863769D01*
X84381872Y-20728319D01*
X84266681Y-20613128D01*
X84131231Y-20522623D01*
X83980727Y-20460282D01*
X83820952Y-20428500D01*
X83658048Y-20428500D01*
X83498273Y-20460282D01*
X83347769Y-20522623D01*
X83212319Y-20613128D01*
X83097128Y-20728319D01*
X83006623Y-20863769D01*
X82944282Y-21014273D01*
X82912500Y-21174048D01*
X81431471Y-21174048D01*
X80250422Y-19993000D01*
X124118000Y-19993000D01*
X124118000Y-31008356D01*
G37*
X124118000Y-31008356D02*
X123708399Y-30598755D01*
X123691110Y-30577688D01*
X123607057Y-30508708D01*
X123511162Y-30457451D01*
X123407110Y-30425887D01*
X123326008Y-30417899D01*
X123326005Y-30417899D01*
X123298899Y-30415229D01*
X123271793Y-30417899D01*
X122213399Y-30417899D01*
X122186291Y-30415229D01*
X122159182Y-30417899D01*
X122078080Y-30425887D01*
X121974028Y-30457451D01*
X121878133Y-30508708D01*
X121802321Y-30570925D01*
X121842354Y-30530892D01*
X121863411Y-30513611D01*
X121892388Y-30478302D01*
X121932391Y-30429559D01*
X121963347Y-30371643D01*
X121983648Y-30333663D01*
X122015212Y-30229611D01*
X122023200Y-30148509D01*
X122023200Y-30148499D01*
X122025869Y-30121401D01*
X122025087Y-30113466D01*
X122113572Y-30024981D01*
X122204077Y-29889531D01*
X122266418Y-29739027D01*
X122298200Y-29579252D01*
X122298200Y-29416348D01*
X122266418Y-29256573D01*
X122204077Y-29106069D01*
X122113572Y-28970619D01*
X121998381Y-28855428D01*
X121862931Y-28764923D01*
X121712427Y-28702582D01*
X121552652Y-28670800D01*
X121389748Y-28670800D01*
X121229973Y-28702582D01*
X121079469Y-28764923D01*
X120944019Y-28855428D01*
X120828828Y-28970619D01*
X120738323Y-29106069D01*
X120675982Y-29256573D01*
X120644200Y-29416348D01*
X120644200Y-29579252D01*
X120675982Y-29739027D01*
X120738323Y-29889531D01*
X120812063Y-29999891D01*
X120651711Y-30160244D01*
X120633955Y-30127024D01*
X120580595Y-30062005D01*
X120515576Y-30008645D01*
X120441396Y-29968995D01*
X120360907Y-29944578D01*
X120277200Y-29936334D01*
X119377152Y-29936334D01*
X120400436Y-28913053D01*
X120420540Y-28896554D01*
X120486396Y-28816308D01*
X120535331Y-28724756D01*
X120565466Y-28625416D01*
X120573092Y-28547987D01*
X120573092Y-28547985D01*
X120575641Y-28522107D01*
X120573092Y-28496226D01*
X120573092Y-26350675D01*
X120575641Y-26324794D01*
X120565466Y-26221485D01*
X120535331Y-26122145D01*
X120486396Y-26030593D01*
X120480810Y-26023787D01*
X120420540Y-25950347D01*
X120400431Y-25933844D01*
X119424021Y-24957435D01*
X119407514Y-24937321D01*
X119327268Y-24871465D01*
X119235716Y-24822530D01*
X119136376Y-24792395D01*
X119058947Y-24784769D01*
X119033066Y-24782220D01*
X119007185Y-24784769D01*
X115680133Y-24784769D01*
X115660781Y-24782863D01*
X115614643Y-24777363D01*
X115583339Y-24779800D01*
X114938792Y-24779800D01*
X115841592Y-23877000D01*
X115924643Y-23877000D01*
X116008269Y-23932877D01*
X116158773Y-23995218D01*
X116318548Y-24027000D01*
X116481452Y-24027000D01*
X116641227Y-23995218D01*
X116791731Y-23932877D01*
X116927181Y-23842372D01*
X117042372Y-23727181D01*
X117132877Y-23591731D01*
X117195218Y-23441227D01*
X117227000Y-23281452D01*
X117227000Y-23118548D01*
X117195218Y-22958773D01*
X117132877Y-22808269D01*
X117042372Y-22672819D01*
X116927181Y-22557628D01*
X116791731Y-22467123D01*
X116641227Y-22404782D01*
X116481452Y-22373000D01*
X116318548Y-22373000D01*
X116158773Y-22404782D01*
X116008269Y-22467123D01*
X115924643Y-22523000D01*
X115594411Y-22523000D01*
X115561169Y-22519726D01*
X115527927Y-22523000D01*
X115527918Y-22523000D01*
X115428455Y-22532796D01*
X115300840Y-22571508D01*
X115183229Y-22634372D01*
X115080143Y-22718973D01*
X115058944Y-22744804D01*
X109345978Y-28457770D01*
X108498482Y-28457770D01*
X108465230Y-28454495D01*
X108416697Y-28459275D01*
X107932000Y-27974578D01*
X107932000Y-26178251D01*
X107935275Y-26145000D01*
X107922204Y-26012285D01*
X107883492Y-25884670D01*
X107820628Y-25767059D01*
X107736027Y-25663973D01*
X107632941Y-25579372D01*
X107515330Y-25516508D01*
X107387715Y-25477796D01*
X107288252Y-25468000D01*
X107255000Y-25464725D01*
X107221748Y-25468000D01*
X95073357Y-25468000D01*
X94989731Y-25412123D01*
X94839227Y-25349782D01*
X94679452Y-25318000D01*
X94516548Y-25318000D01*
X94356773Y-25349782D01*
X94206269Y-25412123D01*
X94122643Y-25468000D01*
X85785608Y-25468000D01*
X83311025Y-22993417D01*
X83291403Y-22894772D01*
X83229062Y-22744268D01*
X83138557Y-22608818D01*
X83023366Y-22493627D01*
X82887916Y-22403122D01*
X82737412Y-22340781D01*
X82577637Y-22308999D01*
X82566422Y-22308999D01*
X81431471Y-21174048D01*
X82912500Y-21174048D01*
X82912500Y-21336952D01*
X82944282Y-21496727D01*
X83006623Y-21647231D01*
X83097128Y-21782681D01*
X83212319Y-21897872D01*
X83347769Y-21988377D01*
X83498273Y-22050718D01*
X83658048Y-22082500D01*
X83754946Y-22082500D01*
X85867981Y-24353745D01*
X85891589Y-24382511D01*
X85925922Y-24410687D01*
X85959210Y-24440078D01*
X85967886Y-24445126D01*
X85975642Y-24451491D01*
X86014805Y-24472424D01*
X86053195Y-24494760D01*
X86062687Y-24498017D01*
X86071537Y-24502748D01*
X86114046Y-24515643D01*
X86156041Y-24530055D01*
X86165982Y-24531398D01*
X86175589Y-24534312D01*
X86219798Y-24538666D01*
X86263797Y-24544609D01*
X86300926Y-24542300D01*
X91127247Y-24542300D01*
X91217619Y-24632672D01*
X91353069Y-24723177D01*
X91503573Y-24785518D01*
X91663348Y-24817300D01*
X91826252Y-24817300D01*
X91986027Y-24785518D01*
X92136531Y-24723177D01*
X92271981Y-24632672D01*
X92387172Y-24517481D01*
X92477677Y-24382031D01*
X92540018Y-24231527D01*
X92571800Y-24071752D01*
X92571800Y-23908848D01*
X92540018Y-23749073D01*
X92477677Y-23598569D01*
X92387172Y-23463119D01*
X92271981Y-23347928D01*
X92136531Y-23257423D01*
X91986027Y-23195082D01*
X91826252Y-23163300D01*
X91663348Y-23163300D01*
X91503573Y-23195082D01*
X91353069Y-23257423D01*
X91217619Y-23347928D01*
X91127247Y-23438300D01*
X86524199Y-23438300D01*
X85232236Y-22049604D01*
X109873000Y-22049604D01*
X109873000Y-22350396D01*
X109931681Y-22645410D01*
X110046790Y-22923306D01*
X110213901Y-23173406D01*
X110426594Y-23386099D01*
X110676694Y-23553210D01*
X110954590Y-23668319D01*
X111249604Y-23727000D01*
X111550396Y-23727000D01*
X111845410Y-23668319D01*
X112123306Y-23553210D01*
X112373406Y-23386099D01*
X112586099Y-23173406D01*
X112753210Y-22923306D01*
X112868319Y-22645410D01*
X112927000Y-22350396D01*
X112927000Y-22049604D01*
X112868319Y-21754590D01*
X112753210Y-21476694D01*
X112586099Y-21226594D01*
X112373406Y-21013901D01*
X112123306Y-20846790D01*
X111845410Y-20731681D01*
X111550396Y-20673000D01*
X111249604Y-20673000D01*
X110954590Y-20731681D01*
X110676694Y-20846790D01*
X110426594Y-21013901D01*
X110213901Y-21226594D01*
X110046790Y-21476694D01*
X109931681Y-21754590D01*
X109873000Y-22049604D01*
X85232236Y-22049604D01*
X84566500Y-21334024D01*
X84566500Y-21174048D01*
X84534718Y-21014273D01*
X84472377Y-20863769D01*
X84381872Y-20728319D01*
X84266681Y-20613128D01*
X84131231Y-20522623D01*
X83980727Y-20460282D01*
X83820952Y-20428500D01*
X83658048Y-20428500D01*
X83498273Y-20460282D01*
X83347769Y-20522623D01*
X83212319Y-20613128D01*
X83097128Y-20728319D01*
X83006623Y-20863769D01*
X82944282Y-21014273D01*
X82912500Y-21174048D01*
X81431471Y-21174048D01*
X80250422Y-19993000D01*
X124118000Y-19993000D01*
X124118000Y-31008356D01*
G36*
X61423000Y-22024643D02*
G01*
X61367123Y-22108269D01*
X61304782Y-22258773D01*
X61273000Y-22418548D01*
X61273000Y-22581452D01*
X61304782Y-22741227D01*
X61367123Y-22891731D01*
X61457628Y-23027181D01*
X61572819Y-23142372D01*
X61708269Y-23232877D01*
X61858773Y-23295218D01*
X62018548Y-23327000D01*
X62181452Y-23327000D01*
X62341227Y-23295218D01*
X62491731Y-23232877D01*
X62627181Y-23142372D01*
X62742372Y-23027181D01*
X62832877Y-22891731D01*
X62895218Y-22741227D01*
X62927000Y-22581452D01*
X62927000Y-22418548D01*
X62895218Y-22258773D01*
X62832877Y-22108269D01*
X62777000Y-22024643D01*
X62777000Y-20826999D01*
X79169577Y-20826999D01*
X81696290Y-23353713D01*
X81700967Y-23377226D01*
X81763308Y-23527730D01*
X81853813Y-23663180D01*
X81969004Y-23778371D01*
X82104454Y-23868876D01*
X82254958Y-23931217D01*
X82353603Y-23950839D01*
X85002960Y-26600196D01*
X85024159Y-26626027D01*
X85127245Y-26710628D01*
X85244856Y-26773492D01*
X85372471Y-26812204D01*
X85471934Y-26822000D01*
X85471940Y-26822000D01*
X85505185Y-26825274D01*
X85538430Y-26822000D01*
X94122643Y-26822000D01*
X94206269Y-26877877D01*
X94356773Y-26940218D01*
X94516548Y-26972000D01*
X94679452Y-26972000D01*
X94839227Y-26940218D01*
X94989731Y-26877877D01*
X95073357Y-26822000D01*
X106578001Y-26822000D01*
X106578000Y-28221755D01*
X106574726Y-28255000D01*
X106578000Y-28288245D01*
X106578000Y-28288251D01*
X106585263Y-28361991D01*
X106587796Y-28387714D01*
X106626508Y-28515329D01*
X106689372Y-28632940D01*
X106752698Y-28710102D01*
X106773973Y-28736026D01*
X106796944Y-28754878D01*
X106727109Y-28748000D01*
X106727106Y-28748000D01*
X106700000Y-28745330D01*
X106672894Y-28748000D01*
X86481647Y-28748000D01*
X81348497Y-23614851D01*
X81331212Y-23593789D01*
X81247159Y-23524809D01*
X81151264Y-23473552D01*
X81047212Y-23441988D01*
X80966110Y-23434000D01*
X80966108Y-23434000D01*
X80939002Y-23431330D01*
X80911896Y-23434000D01*
X56204705Y-23434002D01*
X56177589Y-23431331D01*
X56069378Y-23441990D01*
X55965326Y-23473553D01*
X55869431Y-23524810D01*
X55834826Y-23553210D01*
X55785378Y-23593791D01*
X55768097Y-23614848D01*
X51634946Y-27748000D01*
X50717553Y-27748000D01*
X50627181Y-27657628D01*
X50491731Y-27567123D01*
X50341227Y-27504782D01*
X50181452Y-27473000D01*
X50018548Y-27473000D01*
X49858773Y-27504782D01*
X49708269Y-27567123D01*
X49572819Y-27657628D01*
X49457628Y-27772819D01*
X49367123Y-27908269D01*
X49304782Y-28058773D01*
X49273000Y-28218548D01*
X49273000Y-28381452D01*
X49304782Y-28541227D01*
X49367123Y-28691731D01*
X49421607Y-28773271D01*
X36992990Y-28759832D01*
X43675822Y-22077000D01*
X54524643Y-22077000D01*
X54608269Y-22132877D01*
X54758773Y-22195218D01*
X54918548Y-22227000D01*
X55081452Y-22227000D01*
X55241227Y-22195218D01*
X55391731Y-22132877D01*
X55527181Y-22042372D01*
X55642372Y-21927181D01*
X55732877Y-21791731D01*
X55795218Y-21641227D01*
X55827000Y-21481452D01*
X55827000Y-21318548D01*
X55795218Y-21158773D01*
X55732877Y-21008269D01*
X55642372Y-20872819D01*
X55596552Y-20826999D01*
X61423001Y-20826999D01*
X61423000Y-22024643D01*
G37*
X61423000Y-22024643D02*
X61367123Y-22108269D01*
X61304782Y-22258773D01*
X61273000Y-22418548D01*
X61273000Y-22581452D01*
X61304782Y-22741227D01*
X61367123Y-22891731D01*
X61457628Y-23027181D01*
X61572819Y-23142372D01*
X61708269Y-23232877D01*
X61858773Y-23295218D01*
X62018548Y-23327000D01*
X62181452Y-23327000D01*
X62341227Y-23295218D01*
X62491731Y-23232877D01*
X62627181Y-23142372D01*
X62742372Y-23027181D01*
X62832877Y-22891731D01*
X62895218Y-22741227D01*
X62927000Y-22581452D01*
X62927000Y-22418548D01*
X62895218Y-22258773D01*
X62832877Y-22108269D01*
X62777000Y-22024643D01*
X62777000Y-20826999D01*
X79169577Y-20826999D01*
X81696290Y-23353713D01*
X81700967Y-23377226D01*
X81763308Y-23527730D01*
X81853813Y-23663180D01*
X81969004Y-23778371D01*
X82104454Y-23868876D01*
X82254958Y-23931217D01*
X82353603Y-23950839D01*
X85002960Y-26600196D01*
X85024159Y-26626027D01*
X85127245Y-26710628D01*
X85244856Y-26773492D01*
X85372471Y-26812204D01*
X85471934Y-26822000D01*
X85471940Y-26822000D01*
X85505185Y-26825274D01*
X85538430Y-26822000D01*
X94122643Y-26822000D01*
X94206269Y-26877877D01*
X94356773Y-26940218D01*
X94516548Y-26972000D01*
X94679452Y-26972000D01*
X94839227Y-26940218D01*
X94989731Y-26877877D01*
X95073357Y-26822000D01*
X106578001Y-26822000D01*
X106578000Y-28221755D01*
X106574726Y-28255000D01*
X106578000Y-28288245D01*
X106578000Y-28288251D01*
X106585263Y-28361991D01*
X106587796Y-28387714D01*
X106626508Y-28515329D01*
X106689372Y-28632940D01*
X106752698Y-28710102D01*
X106773973Y-28736026D01*
X106796944Y-28754878D01*
X106727109Y-28748000D01*
X106727106Y-28748000D01*
X106700000Y-28745330D01*
X106672894Y-28748000D01*
X86481647Y-28748000D01*
X81348497Y-23614851D01*
X81331212Y-23593789D01*
X81247159Y-23524809D01*
X81151264Y-23473552D01*
X81047212Y-23441988D01*
X80966110Y-23434000D01*
X80966108Y-23434000D01*
X80939002Y-23431330D01*
X80911896Y-23434000D01*
X56204705Y-23434002D01*
X56177589Y-23431331D01*
X56069378Y-23441990D01*
X55965326Y-23473553D01*
X55869431Y-23524810D01*
X55834826Y-23553210D01*
X55785378Y-23593791D01*
X55768097Y-23614848D01*
X51634946Y-27748000D01*
X50717553Y-27748000D01*
X50627181Y-27657628D01*
X50491731Y-27567123D01*
X50341227Y-27504782D01*
X50181452Y-27473000D01*
X50018548Y-27473000D01*
X49858773Y-27504782D01*
X49708269Y-27567123D01*
X49572819Y-27657628D01*
X49457628Y-27772819D01*
X49367123Y-27908269D01*
X49304782Y-28058773D01*
X49273000Y-28218548D01*
X49273000Y-28381452D01*
X49304782Y-28541227D01*
X49367123Y-28691731D01*
X49421607Y-28773271D01*
X36992990Y-28759832D01*
X43675822Y-22077000D01*
X54524643Y-22077000D01*
X54608269Y-22132877D01*
X54758773Y-22195218D01*
X54918548Y-22227000D01*
X55081452Y-22227000D01*
X55241227Y-22195218D01*
X55391731Y-22132877D01*
X55527181Y-22042372D01*
X55642372Y-21927181D01*
X55732877Y-21791731D01*
X55795218Y-21641227D01*
X55827000Y-21481452D01*
X55827000Y-21318548D01*
X55795218Y-21158773D01*
X55732877Y-21008269D01*
X55642372Y-20872819D01*
X55596552Y-20826999D01*
X61423001Y-20826999D01*
X61423000Y-22024643D01*
M02*
