M48
; DRILL file {KiCad 5.1.6-c6e7f7d~86~ubuntu18.04.1} date Thu May 28 17:45:04 2020
; FORMAT={-:-/ absolute / inch / decimal}
; #@! TF.CreationDate,2020-05-28T17:45:04+02:00
; #@! TF.GenerationSoftware,Kicad,Pcbnew,5.1.6-c6e7f7d~86~ubuntu18.04.1
; #@! TF.FileFunction,Plated,1,2,PTH
FMAT,2
INCH
T1C0.0118
T2C0.0157
T3C0.0197
T4C0.0276
T5C0.0394
%
G90
G05
T1
X3.2315Y-1.4223
X3.2315Y-1.4617
X3.2315Y-1.5011
X3.2315Y-1.5404
X3.2315Y-1.5798
X3.2708Y-1.4223
X3.2708Y-1.4617
X3.2708Y-1.5011
X3.2708Y-1.5404
X3.2708Y-1.5798
X3.3102Y-1.4223
X3.3102Y-1.4617
X3.3102Y-1.5011
X3.3102Y-1.5404
X3.3102Y-1.5798
X3.3496Y-1.4223
X3.3496Y-1.4617
X3.3496Y-1.5011
X3.3496Y-1.5404
X3.3496Y-1.5798
X3.3889Y-1.4223
X3.3889Y-1.4617
X3.3889Y-1.5011
X3.3889Y-1.5404
X3.3889Y-1.5798
T2
X1.0243Y-1.1093
X1.0293Y-0.9593
X1.0293Y-1.1443
X1.0643Y-1.1243
X1.2493Y-1.1743
X1.2493Y-1.4943
X1.2493Y-1.8343
X1.2693Y-1.4643
X1.2718Y-1.3916
X1.2943Y-1.7293
X1.2943Y-1.7643
X1.2993Y-1.4893
X1.3293Y-1.0793
X1.3293Y-1.7243
X1.3385Y-1.9505
X1.3543Y-0.9693
X1.3543Y-1.2002
X1.3543Y-1.2502
X1.3643Y-1.0593
X1.3945Y-1.1565
X1.501Y-1.448
X1.5276Y-0.811
X1.5276Y-0.8583
X1.5635Y-1.1145
X1.5669Y-0.8346
X1.6Y-0.995
X1.6035Y-1.233
X1.6105Y-1.362
X1.6893Y-1.6143
X1.702Y-1.0225
X1.717Y-1.953
X1.7193Y-0.9643
X1.7355Y-1.8025
X1.7543Y-1.2343
X1.761Y-1.49
X1.7643Y-1.6993
X1.7793Y-1.6643
X1.7793Y-1.7393
X1.7953Y-0.8268
X1.7953Y-0.8661
X1.8393Y-1.2793
X1.855Y-1.3605
X1.8695Y-1.0185
X1.9243Y-0.9443
X1.943Y-1.239
X2.0993Y-0.8593
X2.1045Y-1.002
X2.1093Y-1.7443
X2.1093Y-1.7893
X2.1193Y-0.8143
X2.1643Y-1.5793
X2.1743Y-1.2993
X2.1943Y-1.2493
X2.1993Y-1.5343
X2.2343Y-1.5793
X2.2415Y-1.184
X2.2756Y-1.2992
X2.2843Y-1.4343
X2.3093Y-1.5793
X2.342Y-1.2785
X2.3495Y-1.943
X2.492Y-1.2845
X2.5Y-1.0865
X2.5393Y-1.7193
X2.5433Y-1.2992
X2.5575Y-1.944
X2.5748Y-1.2598
X2.5793Y-1.7193
X2.6218Y-1.7168
X2.685Y-0.811
X2.6893Y-1.9443
X2.7165Y-0.8504
X2.9944Y-1.4143
X3.1335Y-1.2585
X3.1494Y-1.5693
X3.1693Y-1.9293
X3.1793Y-1.6943
X3.1882Y-1.7505
X3.1893Y-1.0393
X3.2382Y-1.7532
X3.2393Y-1.0393
X3.2915Y-1.036
X3.2968Y-0.8368
X3.367Y-1.715
X3.378Y-0.8189
X3.4094Y-0.8583
X3.463Y-1.9315
X3.4985Y-0.994
X3.5656Y-1.5011
X3.6025Y-0.994
X3.612Y-0.9445
X3.6135Y-1.932
X3.6223Y-1.4153
X3.6743Y-1.7543
X3.68Y-0.8189
X3.6923Y-1.4453
X3.7243Y-1.0293
X3.7343Y-1.7193
X3.743Y-1.5205
X3.7893Y-1.2143
X3.7893Y-1.7393
X3.7893Y-1.9343
X3.8375Y-1.492
X3.8933Y-1.6803
X3.8973Y-1.5553
X3.9493Y-1.3743
X3.962Y-1.7115
X4.0Y-0.9764
X4.0043Y-1.3493
X4.0143Y-1.1193
X4.0155Y-1.0675
X4.0245Y-1.503
X4.0315Y-0.9528
X4.063Y-0.9764
X4.0965Y-1.6775
X4.1123Y-1.5053
X4.1623Y-1.5053
X4.1643Y-1.6793
X4.2047Y-0.8819
X4.2123Y-1.5053
X4.2362Y-0.8346
X4.2432Y-1.7605
X4.2623Y-1.5053
X4.2638Y-1.1535
X4.2677Y-0.8819
X4.2756Y-1.0472
X4.2756Y-1.9606
X4.2823Y-1.7053
X4.3073Y-1.5053
X4.3428Y-1.6958
X4.3523Y-1.5033
X4.3823Y-1.4153
X4.3893Y-1.4623
X4.4233Y-1.3063
X4.4323Y-1.3653
X4.4459Y-1.2688
X4.4593Y-1.6793
X4.4723Y-1.3053
X4.4723Y-1.5853
X4.4986Y-1.5266
X4.5023Y-1.1733
X4.5033Y-1.1323
X4.5073Y-1.6103
X4.5373Y-1.4803
X4.5523Y-1.7053
X4.5669Y-1.811
X4.5669Y-1.937
X4.5673Y-1.4253
X4.5827Y-0.9134
X4.5883Y-1.0943
X4.6213Y-1.7013
X4.6514Y-1.0713
X4.7543Y-1.8443
X4.7643Y-1.7113
X4.7643Y-1.9443
X4.7673Y-1.4763
X4.7723Y-1.4353
X4.7813Y-1.5153
X4.7823Y-1.1613
X4.7895Y-1.3431
X4.7943Y-1.5543
X4.7943Y-1.6803
X4.811Y-0.8819
X4.811Y-0.937
X4.8183Y-1.3083
X4.8343Y-1.6343
X4.8368Y-1.2478
X4.8393Y-1.9443
X4.8504Y-0.9055
T4
X1.1039Y-0.9356
X1.2948Y-0.9356
T5
X1.0693Y-1.5193
X1.0693Y-1.6193
X1.0693Y-1.7193
X1.0693Y-1.8193
X1.0693Y-1.9193
X1.1693Y-1.5193
X1.1693Y-1.6193
X1.1693Y-1.7193
X1.1693Y-1.8193
X1.1693Y-1.9193
T3
G00X1.0576Y-0.8411
M15
G01X1.0576Y-0.8175
M16
G05
G00X1.3411Y-0.8175
M15
G01X1.3411Y-0.8411
M16
G05
T0
M30
