G04 #@! TF.GenerationSoftware,KiCad,Pcbnew,5.1.6*
G04 #@! TF.CreationDate,2020-10-02T22:43:04+02:00*
G04 #@! TF.ProjectId,epaper-breakout,65706170-6572-42d6-9272-65616b6f7574,rev?*
G04 #@! TF.SameCoordinates,Original*
G04 #@! TF.FileFunction,Paste,Top*
G04 #@! TF.FilePolarity,Positive*
%FSLAX46Y46*%
G04 Gerber Fmt 4.6, Leading zero omitted, Abs format (unit mm)*
G04 Created by KiCad (PCBNEW 5.1.6) date 2020-10-02 22:43:04*
%MOMM*%
%LPD*%
G01*
G04 APERTURE LIST*
%ADD10R,1.500000X1.700000*%
%ADD11C,1.290000*%
%ADD12R,0.400000X1.250000*%
%ADD13C,1.700000*%
%ADD14R,1.400000X0.300000*%
%ADD15R,0.800000X0.900000*%
%ADD16R,0.900000X0.800000*%
%ADD17R,2.400000X1.500000*%
%ADD18R,1.500000X2.400000*%
%ADD19R,1.200000X0.900000*%
%ADD20R,0.900000X1.200000*%
%ADD21R,0.812800X0.254000*%
%ADD22R,1.701800X1.524000*%
%ADD23R,5.000000X5.000000*%
%ADD24O,0.900000X3.000000*%
%ADD25R,1.200000X1.200000*%
%ADD26R,1.600000X1.500000*%
%ADD27R,1.500000X0.750000*%
G04 APERTURE END LIST*
G36*
G01*
X64156250Y-21250000D02*
X63243750Y-21250000D01*
G75*
G02*
X63000000Y-21006250I0J243750D01*
G01*
X63000000Y-20518750D01*
G75*
G02*
X63243750Y-20275000I243750J0D01*
G01*
X64156250Y-20275000D01*
G75*
G02*
X64400000Y-20518750I0J-243750D01*
G01*
X64400000Y-21006250D01*
G75*
G02*
X64156250Y-21250000I-243750J0D01*
G01*
G37*
G36*
G01*
X64156250Y-23125000D02*
X63243750Y-23125000D01*
G75*
G02*
X63000000Y-22881250I0J243750D01*
G01*
X63000000Y-22393750D01*
G75*
G02*
X63243750Y-22150000I243750J0D01*
G01*
X64156250Y-22150000D01*
G75*
G02*
X64400000Y-22393750I0J-243750D01*
G01*
X64400000Y-22881250D01*
G75*
G02*
X64156250Y-23125000I-243750J0D01*
G01*
G37*
D10*
X29463000Y-21065000D03*
D11*
X32888000Y-23765000D03*
D12*
X31113000Y-23765000D03*
X31763000Y-23765000D03*
X29163000Y-23765000D03*
X29813000Y-23765000D03*
X30463000Y-23765000D03*
D10*
X31463000Y-21065000D03*
D13*
X34063000Y-21065000D03*
X26863000Y-21065000D03*
D14*
X53600000Y-39200000D03*
X53600000Y-39700000D03*
X53600000Y-40200000D03*
X53600000Y-40700000D03*
X53600000Y-41200000D03*
X49200000Y-41200000D03*
X49200000Y-40700000D03*
X49200000Y-40200000D03*
X49200000Y-39700000D03*
X49200000Y-39200000D03*
D15*
X57200000Y-20800000D03*
X58150000Y-22800000D03*
X56250000Y-22800000D03*
G36*
G01*
X63956250Y-38850000D02*
X63043750Y-38850000D01*
G75*
G02*
X62800000Y-38606250I0J243750D01*
G01*
X62800000Y-38118750D01*
G75*
G02*
X63043750Y-37875000I243750J0D01*
G01*
X63956250Y-37875000D01*
G75*
G02*
X64200000Y-38118750I0J-243750D01*
G01*
X64200000Y-38606250D01*
G75*
G02*
X63956250Y-38850000I-243750J0D01*
G01*
G37*
G36*
G01*
X63956250Y-40725000D02*
X63043750Y-40725000D01*
G75*
G02*
X62800000Y-40481250I0J243750D01*
G01*
X62800000Y-39993750D01*
G75*
G02*
X63043750Y-39750000I243750J0D01*
G01*
X63956250Y-39750000D01*
G75*
G02*
X64200000Y-39993750I0J-243750D01*
G01*
X64200000Y-40481250D01*
G75*
G02*
X63956250Y-40725000I-243750J0D01*
G01*
G37*
G36*
G01*
X60843750Y-39750000D02*
X61756250Y-39750000D01*
G75*
G02*
X62000000Y-39993750I0J-243750D01*
G01*
X62000000Y-40481250D01*
G75*
G02*
X61756250Y-40725000I-243750J0D01*
G01*
X60843750Y-40725000D01*
G75*
G02*
X60600000Y-40481250I0J243750D01*
G01*
X60600000Y-39993750D01*
G75*
G02*
X60843750Y-39750000I243750J0D01*
G01*
G37*
G36*
G01*
X60843750Y-37875000D02*
X61756250Y-37875000D01*
G75*
G02*
X62000000Y-38118750I0J-243750D01*
G01*
X62000000Y-38606250D01*
G75*
G02*
X61756250Y-38850000I-243750J0D01*
G01*
X60843750Y-38850000D01*
G75*
G02*
X60600000Y-38606250I0J243750D01*
G01*
X60600000Y-38118750D01*
G75*
G02*
X60843750Y-37875000I243750J0D01*
G01*
G37*
G36*
G01*
X44043750Y-45212500D02*
X44956250Y-45212500D01*
G75*
G02*
X45200000Y-45456250I0J-243750D01*
G01*
X45200000Y-45943750D01*
G75*
G02*
X44956250Y-46187500I-243750J0D01*
G01*
X44043750Y-46187500D01*
G75*
G02*
X43800000Y-45943750I0J243750D01*
G01*
X43800000Y-45456250D01*
G75*
G02*
X44043750Y-45212500I243750J0D01*
G01*
G37*
G36*
G01*
X44043750Y-43337500D02*
X44956250Y-43337500D01*
G75*
G02*
X45200000Y-43581250I0J-243750D01*
G01*
X45200000Y-44068750D01*
G75*
G02*
X44956250Y-44312500I-243750J0D01*
G01*
X44043750Y-44312500D01*
G75*
G02*
X43800000Y-44068750I0J243750D01*
G01*
X43800000Y-43581250D01*
G75*
G02*
X44043750Y-43337500I243750J0D01*
G01*
G37*
G36*
G01*
X42656250Y-44312500D02*
X41743750Y-44312500D01*
G75*
G02*
X41500000Y-44068750I0J243750D01*
G01*
X41500000Y-43581250D01*
G75*
G02*
X41743750Y-43337500I243750J0D01*
G01*
X42656250Y-43337500D01*
G75*
G02*
X42900000Y-43581250I0J-243750D01*
G01*
X42900000Y-44068750D01*
G75*
G02*
X42656250Y-44312500I-243750J0D01*
G01*
G37*
G36*
G01*
X42656250Y-46187500D02*
X41743750Y-46187500D01*
G75*
G02*
X41500000Y-45943750I0J243750D01*
G01*
X41500000Y-45456250D01*
G75*
G02*
X41743750Y-45212500I243750J0D01*
G01*
X42656250Y-45212500D01*
G75*
G02*
X42900000Y-45456250I0J-243750D01*
G01*
X42900000Y-45943750D01*
G75*
G02*
X42656250Y-46187500I-243750J0D01*
G01*
G37*
G36*
G01*
X50256250Y-34450000D02*
X49343750Y-34450000D01*
G75*
G02*
X49100000Y-34206250I0J243750D01*
G01*
X49100000Y-33718750D01*
G75*
G02*
X49343750Y-33475000I243750J0D01*
G01*
X50256250Y-33475000D01*
G75*
G02*
X50500000Y-33718750I0J-243750D01*
G01*
X50500000Y-34206250D01*
G75*
G02*
X50256250Y-34450000I-243750J0D01*
G01*
G37*
G36*
G01*
X50256250Y-36325000D02*
X49343750Y-36325000D01*
G75*
G02*
X49100000Y-36081250I0J243750D01*
G01*
X49100000Y-35593750D01*
G75*
G02*
X49343750Y-35350000I243750J0D01*
G01*
X50256250Y-35350000D01*
G75*
G02*
X50500000Y-35593750I0J-243750D01*
G01*
X50500000Y-36081250D01*
G75*
G02*
X50256250Y-36325000I-243750J0D01*
G01*
G37*
G36*
G01*
X52356250Y-34450000D02*
X51443750Y-34450000D01*
G75*
G02*
X51200000Y-34206250I0J243750D01*
G01*
X51200000Y-33718750D01*
G75*
G02*
X51443750Y-33475000I243750J0D01*
G01*
X52356250Y-33475000D01*
G75*
G02*
X52600000Y-33718750I0J-243750D01*
G01*
X52600000Y-34206250D01*
G75*
G02*
X52356250Y-34450000I-243750J0D01*
G01*
G37*
G36*
G01*
X52356250Y-36325000D02*
X51443750Y-36325000D01*
G75*
G02*
X51200000Y-36081250I0J243750D01*
G01*
X51200000Y-35593750D01*
G75*
G02*
X51443750Y-35350000I243750J0D01*
G01*
X52356250Y-35350000D01*
G75*
G02*
X52600000Y-35593750I0J-243750D01*
G01*
X52600000Y-36081250D01*
G75*
G02*
X52356250Y-36325000I-243750J0D01*
G01*
G37*
D16*
X54100000Y-35000000D03*
X56100000Y-34050000D03*
X56100000Y-35950000D03*
D17*
X36800000Y-49450000D03*
X36800000Y-43950000D03*
D18*
X48850000Y-46900000D03*
X54350000Y-46900000D03*
D19*
X57100000Y-39450000D03*
X57100000Y-42750000D03*
D20*
X60050000Y-42300000D03*
X63350000Y-42300000D03*
X41250000Y-47800000D03*
X44550000Y-47800000D03*
G36*
G01*
X57843750Y-36050000D02*
X58356250Y-36050000D01*
G75*
G02*
X58575000Y-36268750I0J-218750D01*
G01*
X58575000Y-36706250D01*
G75*
G02*
X58356250Y-36925000I-218750J0D01*
G01*
X57843750Y-36925000D01*
G75*
G02*
X57625000Y-36706250I0J218750D01*
G01*
X57625000Y-36268750D01*
G75*
G02*
X57843750Y-36050000I218750J0D01*
G01*
G37*
G36*
G01*
X57843750Y-34475000D02*
X58356250Y-34475000D01*
G75*
G02*
X58575000Y-34693750I0J-218750D01*
G01*
X58575000Y-35131250D01*
G75*
G02*
X58356250Y-35350000I-218750J0D01*
G01*
X57843750Y-35350000D01*
G75*
G02*
X57625000Y-35131250I0J218750D01*
G01*
X57625000Y-34693750D01*
G75*
G02*
X57843750Y-34475000I218750J0D01*
G01*
G37*
G36*
G01*
X46756250Y-44450000D02*
X46243750Y-44450000D01*
G75*
G02*
X46025000Y-44231250I0J218750D01*
G01*
X46025000Y-43793750D01*
G75*
G02*
X46243750Y-43575000I218750J0D01*
G01*
X46756250Y-43575000D01*
G75*
G02*
X46975000Y-43793750I0J-218750D01*
G01*
X46975000Y-44231250D01*
G75*
G02*
X46756250Y-44450000I-218750J0D01*
G01*
G37*
G36*
G01*
X46756250Y-46025000D02*
X46243750Y-46025000D01*
G75*
G02*
X46025000Y-45806250I0J218750D01*
G01*
X46025000Y-45368750D01*
G75*
G02*
X46243750Y-45150000I218750J0D01*
G01*
X46756250Y-45150000D01*
G75*
G02*
X46975000Y-45368750I0J-218750D01*
G01*
X46975000Y-45806250D01*
G75*
G02*
X46756250Y-46025000I-218750J0D01*
G01*
G37*
G36*
G01*
X59556250Y-39050000D02*
X59043750Y-39050000D01*
G75*
G02*
X58825000Y-38831250I0J218750D01*
G01*
X58825000Y-38393750D01*
G75*
G02*
X59043750Y-38175000I218750J0D01*
G01*
X59556250Y-38175000D01*
G75*
G02*
X59775000Y-38393750I0J-218750D01*
G01*
X59775000Y-38831250D01*
G75*
G02*
X59556250Y-39050000I-218750J0D01*
G01*
G37*
G36*
G01*
X59556250Y-40625000D02*
X59043750Y-40625000D01*
G75*
G02*
X58825000Y-40406250I0J218750D01*
G01*
X58825000Y-39968750D01*
G75*
G02*
X59043750Y-39750000I218750J0D01*
G01*
X59556250Y-39750000D01*
G75*
G02*
X59775000Y-39968750I0J-218750D01*
G01*
X59775000Y-40406250D01*
G75*
G02*
X59556250Y-40625000I-218750J0D01*
G01*
G37*
G36*
G01*
X46243750Y-42050000D02*
X46756250Y-42050000D01*
G75*
G02*
X46975000Y-42268750I0J-218750D01*
G01*
X46975000Y-42706250D01*
G75*
G02*
X46756250Y-42925000I-218750J0D01*
G01*
X46243750Y-42925000D01*
G75*
G02*
X46025000Y-42706250I0J218750D01*
G01*
X46025000Y-42268750D01*
G75*
G02*
X46243750Y-42050000I218750J0D01*
G01*
G37*
G36*
G01*
X46243750Y-40475000D02*
X46756250Y-40475000D01*
G75*
G02*
X46975000Y-40693750I0J-218750D01*
G01*
X46975000Y-41131250D01*
G75*
G02*
X46756250Y-41350000I-218750J0D01*
G01*
X46243750Y-41350000D01*
G75*
G02*
X46025000Y-41131250I0J218750D01*
G01*
X46025000Y-40693750D01*
G75*
G02*
X46243750Y-40475000I218750J0D01*
G01*
G37*
G36*
G01*
X56043750Y-45650000D02*
X56556250Y-45650000D01*
G75*
G02*
X56775000Y-45868750I0J-218750D01*
G01*
X56775000Y-46306250D01*
G75*
G02*
X56556250Y-46525000I-218750J0D01*
G01*
X56043750Y-46525000D01*
G75*
G02*
X55825000Y-46306250I0J218750D01*
G01*
X55825000Y-45868750D01*
G75*
G02*
X56043750Y-45650000I218750J0D01*
G01*
G37*
G36*
G01*
X56043750Y-44075000D02*
X56556250Y-44075000D01*
G75*
G02*
X56775000Y-44293750I0J-218750D01*
G01*
X56775000Y-44731250D01*
G75*
G02*
X56556250Y-44950000I-218750J0D01*
G01*
X56043750Y-44950000D01*
G75*
G02*
X55825000Y-44731250I0J218750D01*
G01*
X55825000Y-44293750D01*
G75*
G02*
X56043750Y-44075000I218750J0D01*
G01*
G37*
G36*
G01*
X55250000Y-32256250D02*
X55250000Y-31743750D01*
G75*
G02*
X55468750Y-31525000I218750J0D01*
G01*
X55906250Y-31525000D01*
G75*
G02*
X56125000Y-31743750I0J-218750D01*
G01*
X56125000Y-32256250D01*
G75*
G02*
X55906250Y-32475000I-218750J0D01*
G01*
X55468750Y-32475000D01*
G75*
G02*
X55250000Y-32256250I0J218750D01*
G01*
G37*
G36*
G01*
X53675000Y-32256250D02*
X53675000Y-31743750D01*
G75*
G02*
X53893750Y-31525000I218750J0D01*
G01*
X54331250Y-31525000D01*
G75*
G02*
X54550000Y-31743750I0J-218750D01*
G01*
X54550000Y-32256250D01*
G75*
G02*
X54331250Y-32475000I-218750J0D01*
G01*
X53893750Y-32475000D01*
G75*
G02*
X53675000Y-32256250I0J218750D01*
G01*
G37*
D21*
X118588300Y-45727399D03*
X118588300Y-45227400D03*
X118588300Y-44727399D03*
X118588300Y-44227400D03*
X118588300Y-43727398D03*
X118588300Y-43227399D03*
X118588300Y-42727400D03*
X118588300Y-42227399D03*
X118588300Y-41727400D03*
X118588300Y-41227398D03*
X118588300Y-40727399D03*
X118588300Y-40227400D03*
X118588300Y-39727399D03*
X118588300Y-39227400D03*
X118588300Y-38727398D03*
X118588300Y-38227399D03*
X118588300Y-37727400D03*
X118588300Y-37227398D03*
X118588300Y-36727399D03*
X118588300Y-36227400D03*
X118588300Y-35727399D03*
X118588300Y-35227400D03*
X118588300Y-34727398D03*
X118588300Y-34227399D03*
X118588300Y-33727400D03*
X118588300Y-33227399D03*
X118588300Y-32727400D03*
X118588300Y-32227398D03*
X118588300Y-31727399D03*
X118588300Y-31227400D03*
X118588300Y-30727399D03*
X118588300Y-30227400D03*
X118588300Y-29727398D03*
D22*
X122601500Y-28075400D03*
X122601500Y-47379400D03*
G36*
G01*
X52255250Y-28616000D02*
X51342750Y-28616000D01*
G75*
G02*
X51099000Y-28372250I0J243750D01*
G01*
X51099000Y-27884750D01*
G75*
G02*
X51342750Y-27641000I243750J0D01*
G01*
X52255250Y-27641000D01*
G75*
G02*
X52499000Y-27884750I0J-243750D01*
G01*
X52499000Y-28372250D01*
G75*
G02*
X52255250Y-28616000I-243750J0D01*
G01*
G37*
G36*
G01*
X52255250Y-30491000D02*
X51342750Y-30491000D01*
G75*
G02*
X51099000Y-30247250I0J243750D01*
G01*
X51099000Y-29759750D01*
G75*
G02*
X51342750Y-29516000I243750J0D01*
G01*
X52255250Y-29516000D01*
G75*
G02*
X52499000Y-29759750I0J-243750D01*
G01*
X52499000Y-30247250D01*
G75*
G02*
X52255250Y-30491000I-243750J0D01*
G01*
G37*
D23*
X84089200Y-38127400D03*
D24*
X77169200Y-46727400D03*
X78439200Y-46727400D03*
X79709200Y-46727400D03*
X80979200Y-46727400D03*
X82249200Y-46727400D03*
X83519200Y-46727400D03*
X84789200Y-46727400D03*
X86059200Y-46727400D03*
X87329200Y-46727400D03*
X88599200Y-46727400D03*
X89869200Y-46727400D03*
X91139200Y-46727400D03*
X92409200Y-46727400D03*
X93679200Y-46727400D03*
X94979200Y-46727400D03*
X96249200Y-46727400D03*
X97519200Y-46727400D03*
X98789200Y-46727400D03*
X100059200Y-46727400D03*
X100059200Y-28727400D03*
X98789200Y-28727400D03*
X97519200Y-28727400D03*
X96249200Y-28727400D03*
X94979200Y-28727400D03*
X93679200Y-28697400D03*
X92409200Y-28697400D03*
X91139200Y-28697400D03*
X89869200Y-28697400D03*
X88599200Y-28697400D03*
X87329200Y-28697400D03*
X86059200Y-28697400D03*
X84789200Y-28697400D03*
X83519200Y-28697400D03*
X82249200Y-28697400D03*
X80979200Y-28697400D03*
X79709200Y-28697400D03*
X78439200Y-28697400D03*
X77169200Y-28697400D03*
D15*
X119800000Y-21800000D03*
X120750000Y-23800000D03*
X118850000Y-23800000D03*
G36*
G01*
X108747200Y-27844400D02*
X108747200Y-27544400D01*
G75*
G02*
X108897200Y-27394400I150000J0D01*
G01*
X110547200Y-27394400D01*
G75*
G02*
X110697200Y-27544400I0J-150000D01*
G01*
X110697200Y-27844400D01*
G75*
G02*
X110547200Y-27994400I-150000J0D01*
G01*
X108897200Y-27994400D01*
G75*
G02*
X108747200Y-27844400I0J150000D01*
G01*
G37*
G36*
G01*
X108747200Y-29114400D02*
X108747200Y-28814400D01*
G75*
G02*
X108897200Y-28664400I150000J0D01*
G01*
X110547200Y-28664400D01*
G75*
G02*
X110697200Y-28814400I0J-150000D01*
G01*
X110697200Y-29114400D01*
G75*
G02*
X110547200Y-29264400I-150000J0D01*
G01*
X108897200Y-29264400D01*
G75*
G02*
X108747200Y-29114400I0J150000D01*
G01*
G37*
G36*
G01*
X108747200Y-30384400D02*
X108747200Y-30084400D01*
G75*
G02*
X108897200Y-29934400I150000J0D01*
G01*
X110547200Y-29934400D01*
G75*
G02*
X110697200Y-30084400I0J-150000D01*
G01*
X110697200Y-30384400D01*
G75*
G02*
X110547200Y-30534400I-150000J0D01*
G01*
X108897200Y-30534400D01*
G75*
G02*
X108747200Y-30384400I0J150000D01*
G01*
G37*
G36*
G01*
X108747200Y-31654400D02*
X108747200Y-31354400D01*
G75*
G02*
X108897200Y-31204400I150000J0D01*
G01*
X110547200Y-31204400D01*
G75*
G02*
X110697200Y-31354400I0J-150000D01*
G01*
X110697200Y-31654400D01*
G75*
G02*
X110547200Y-31804400I-150000J0D01*
G01*
X108897200Y-31804400D01*
G75*
G02*
X108747200Y-31654400I0J150000D01*
G01*
G37*
G36*
G01*
X108747200Y-32924400D02*
X108747200Y-32624400D01*
G75*
G02*
X108897200Y-32474400I150000J0D01*
G01*
X110547200Y-32474400D01*
G75*
G02*
X110697200Y-32624400I0J-150000D01*
G01*
X110697200Y-32924400D01*
G75*
G02*
X110547200Y-33074400I-150000J0D01*
G01*
X108897200Y-33074400D01*
G75*
G02*
X108747200Y-32924400I0J150000D01*
G01*
G37*
G36*
G01*
X108747200Y-34194400D02*
X108747200Y-33894400D01*
G75*
G02*
X108897200Y-33744400I150000J0D01*
G01*
X110547200Y-33744400D01*
G75*
G02*
X110697200Y-33894400I0J-150000D01*
G01*
X110697200Y-34194400D01*
G75*
G02*
X110547200Y-34344400I-150000J0D01*
G01*
X108897200Y-34344400D01*
G75*
G02*
X108747200Y-34194400I0J150000D01*
G01*
G37*
G36*
G01*
X108747200Y-35464400D02*
X108747200Y-35164400D01*
G75*
G02*
X108897200Y-35014400I150000J0D01*
G01*
X110547200Y-35014400D01*
G75*
G02*
X110697200Y-35164400I0J-150000D01*
G01*
X110697200Y-35464400D01*
G75*
G02*
X110547200Y-35614400I-150000J0D01*
G01*
X108897200Y-35614400D01*
G75*
G02*
X108747200Y-35464400I0J150000D01*
G01*
G37*
G36*
G01*
X108747200Y-36734400D02*
X108747200Y-36434400D01*
G75*
G02*
X108897200Y-36284400I150000J0D01*
G01*
X110547200Y-36284400D01*
G75*
G02*
X110697200Y-36434400I0J-150000D01*
G01*
X110697200Y-36734400D01*
G75*
G02*
X110547200Y-36884400I-150000J0D01*
G01*
X108897200Y-36884400D01*
G75*
G02*
X108747200Y-36734400I0J150000D01*
G01*
G37*
G36*
G01*
X103797200Y-36734400D02*
X103797200Y-36434400D01*
G75*
G02*
X103947200Y-36284400I150000J0D01*
G01*
X105597200Y-36284400D01*
G75*
G02*
X105747200Y-36434400I0J-150000D01*
G01*
X105747200Y-36734400D01*
G75*
G02*
X105597200Y-36884400I-150000J0D01*
G01*
X103947200Y-36884400D01*
G75*
G02*
X103797200Y-36734400I0J150000D01*
G01*
G37*
G36*
G01*
X103797200Y-35464400D02*
X103797200Y-35164400D01*
G75*
G02*
X103947200Y-35014400I150000J0D01*
G01*
X105597200Y-35014400D01*
G75*
G02*
X105747200Y-35164400I0J-150000D01*
G01*
X105747200Y-35464400D01*
G75*
G02*
X105597200Y-35614400I-150000J0D01*
G01*
X103947200Y-35614400D01*
G75*
G02*
X103797200Y-35464400I0J150000D01*
G01*
G37*
G36*
G01*
X103797200Y-34194400D02*
X103797200Y-33894400D01*
G75*
G02*
X103947200Y-33744400I150000J0D01*
G01*
X105597200Y-33744400D01*
G75*
G02*
X105747200Y-33894400I0J-150000D01*
G01*
X105747200Y-34194400D01*
G75*
G02*
X105597200Y-34344400I-150000J0D01*
G01*
X103947200Y-34344400D01*
G75*
G02*
X103797200Y-34194400I0J150000D01*
G01*
G37*
G36*
G01*
X103797200Y-32924400D02*
X103797200Y-32624400D01*
G75*
G02*
X103947200Y-32474400I150000J0D01*
G01*
X105597200Y-32474400D01*
G75*
G02*
X105747200Y-32624400I0J-150000D01*
G01*
X105747200Y-32924400D01*
G75*
G02*
X105597200Y-33074400I-150000J0D01*
G01*
X103947200Y-33074400D01*
G75*
G02*
X103797200Y-32924400I0J150000D01*
G01*
G37*
G36*
G01*
X103797200Y-31654400D02*
X103797200Y-31354400D01*
G75*
G02*
X103947200Y-31204400I150000J0D01*
G01*
X105597200Y-31204400D01*
G75*
G02*
X105747200Y-31354400I0J-150000D01*
G01*
X105747200Y-31654400D01*
G75*
G02*
X105597200Y-31804400I-150000J0D01*
G01*
X103947200Y-31804400D01*
G75*
G02*
X103797200Y-31654400I0J150000D01*
G01*
G37*
G36*
G01*
X103797200Y-30384400D02*
X103797200Y-30084400D01*
G75*
G02*
X103947200Y-29934400I150000J0D01*
G01*
X105597200Y-29934400D01*
G75*
G02*
X105747200Y-30084400I0J-150000D01*
G01*
X105747200Y-30384400D01*
G75*
G02*
X105597200Y-30534400I-150000J0D01*
G01*
X103947200Y-30534400D01*
G75*
G02*
X103797200Y-30384400I0J150000D01*
G01*
G37*
G36*
G01*
X103797200Y-29114400D02*
X103797200Y-28814400D01*
G75*
G02*
X103947200Y-28664400I150000J0D01*
G01*
X105597200Y-28664400D01*
G75*
G02*
X105747200Y-28814400I0J-150000D01*
G01*
X105747200Y-29114400D01*
G75*
G02*
X105597200Y-29264400I-150000J0D01*
G01*
X103947200Y-29264400D01*
G75*
G02*
X103797200Y-29114400I0J150000D01*
G01*
G37*
G36*
G01*
X103797200Y-27844400D02*
X103797200Y-27544400D01*
G75*
G02*
X103947200Y-27394400I150000J0D01*
G01*
X105597200Y-27394400D01*
G75*
G02*
X105747200Y-27544400I0J-150000D01*
G01*
X105747200Y-27844400D01*
G75*
G02*
X105597200Y-27994400I-150000J0D01*
G01*
X103947200Y-27994400D01*
G75*
G02*
X103797200Y-27844400I0J150000D01*
G01*
G37*
G36*
G01*
X62712500Y-25152500D02*
X62712500Y-24827500D01*
G75*
G02*
X62875000Y-24665000I162500J0D01*
G01*
X64525000Y-24665000D01*
G75*
G02*
X64687500Y-24827500I0J-162500D01*
G01*
X64687500Y-25152500D01*
G75*
G02*
X64525000Y-25315000I-162500J0D01*
G01*
X62875000Y-25315000D01*
G75*
G02*
X62712500Y-25152500I0J162500D01*
G01*
G37*
G36*
G01*
X62712500Y-26422500D02*
X62712500Y-26097500D01*
G75*
G02*
X62875000Y-25935000I162500J0D01*
G01*
X64525000Y-25935000D01*
G75*
G02*
X64687500Y-26097500I0J-162500D01*
G01*
X64687500Y-26422500D01*
G75*
G02*
X64525000Y-26585000I-162500J0D01*
G01*
X62875000Y-26585000D01*
G75*
G02*
X62712500Y-26422500I0J162500D01*
G01*
G37*
G36*
G01*
X62712500Y-27692500D02*
X62712500Y-27367500D01*
G75*
G02*
X62875000Y-27205000I162500J0D01*
G01*
X64525000Y-27205000D01*
G75*
G02*
X64687500Y-27367500I0J-162500D01*
G01*
X64687500Y-27692500D01*
G75*
G02*
X64525000Y-27855000I-162500J0D01*
G01*
X62875000Y-27855000D01*
G75*
G02*
X62712500Y-27692500I0J162500D01*
G01*
G37*
G36*
G01*
X62712500Y-28962500D02*
X62712500Y-28637500D01*
G75*
G02*
X62875000Y-28475000I162500J0D01*
G01*
X64525000Y-28475000D01*
G75*
G02*
X64687500Y-28637500I0J-162500D01*
G01*
X64687500Y-28962500D01*
G75*
G02*
X64525000Y-29125000I-162500J0D01*
G01*
X62875000Y-29125000D01*
G75*
G02*
X62712500Y-28962500I0J162500D01*
G01*
G37*
G36*
G01*
X57637500Y-28962500D02*
X57637500Y-28637500D01*
G75*
G02*
X57800000Y-28475000I162500J0D01*
G01*
X59450000Y-28475000D01*
G75*
G02*
X59612500Y-28637500I0J-162500D01*
G01*
X59612500Y-28962500D01*
G75*
G02*
X59450000Y-29125000I-162500J0D01*
G01*
X57800000Y-29125000D01*
G75*
G02*
X57637500Y-28962500I0J162500D01*
G01*
G37*
G36*
G01*
X57637500Y-27692500D02*
X57637500Y-27367500D01*
G75*
G02*
X57800000Y-27205000I162500J0D01*
G01*
X59450000Y-27205000D01*
G75*
G02*
X59612500Y-27367500I0J-162500D01*
G01*
X59612500Y-27692500D01*
G75*
G02*
X59450000Y-27855000I-162500J0D01*
G01*
X57800000Y-27855000D01*
G75*
G02*
X57637500Y-27692500I0J162500D01*
G01*
G37*
G36*
G01*
X57637500Y-26422500D02*
X57637500Y-26097500D01*
G75*
G02*
X57800000Y-25935000I162500J0D01*
G01*
X59450000Y-25935000D01*
G75*
G02*
X59612500Y-26097500I0J-162500D01*
G01*
X59612500Y-26422500D01*
G75*
G02*
X59450000Y-26585000I-162500J0D01*
G01*
X57800000Y-26585000D01*
G75*
G02*
X57637500Y-26422500I0J162500D01*
G01*
G37*
G36*
G01*
X57637500Y-25152500D02*
X57637500Y-24827500D01*
G75*
G02*
X57800000Y-24665000I162500J0D01*
G01*
X59450000Y-24665000D01*
G75*
G02*
X59612500Y-24827500I0J-162500D01*
G01*
X59612500Y-25152500D01*
G75*
G02*
X59450000Y-25315000I-162500J0D01*
G01*
X57800000Y-25315000D01*
G75*
G02*
X57637500Y-25152500I0J162500D01*
G01*
G37*
G36*
G01*
X30440000Y-30312000D02*
X30740000Y-30312000D01*
G75*
G02*
X30890000Y-30462000I0J-150000D01*
G01*
X30890000Y-32112000D01*
G75*
G02*
X30740000Y-32262000I-150000J0D01*
G01*
X30440000Y-32262000D01*
G75*
G02*
X30290000Y-32112000I0J150000D01*
G01*
X30290000Y-30462000D01*
G75*
G02*
X30440000Y-30312000I150000J0D01*
G01*
G37*
G36*
G01*
X29170000Y-30312000D02*
X29470000Y-30312000D01*
G75*
G02*
X29620000Y-30462000I0J-150000D01*
G01*
X29620000Y-32112000D01*
G75*
G02*
X29470000Y-32262000I-150000J0D01*
G01*
X29170000Y-32262000D01*
G75*
G02*
X29020000Y-32112000I0J150000D01*
G01*
X29020000Y-30462000D01*
G75*
G02*
X29170000Y-30312000I150000J0D01*
G01*
G37*
G36*
G01*
X27900000Y-30312000D02*
X28200000Y-30312000D01*
G75*
G02*
X28350000Y-30462000I0J-150000D01*
G01*
X28350000Y-32112000D01*
G75*
G02*
X28200000Y-32262000I-150000J0D01*
G01*
X27900000Y-32262000D01*
G75*
G02*
X27750000Y-32112000I0J150000D01*
G01*
X27750000Y-30462000D01*
G75*
G02*
X27900000Y-30312000I150000J0D01*
G01*
G37*
G36*
G01*
X26630000Y-30312000D02*
X26930000Y-30312000D01*
G75*
G02*
X27080000Y-30462000I0J-150000D01*
G01*
X27080000Y-32112000D01*
G75*
G02*
X26930000Y-32262000I-150000J0D01*
G01*
X26630000Y-32262000D01*
G75*
G02*
X26480000Y-32112000I0J150000D01*
G01*
X26480000Y-30462000D01*
G75*
G02*
X26630000Y-30312000I150000J0D01*
G01*
G37*
G36*
G01*
X26630000Y-25362000D02*
X26930000Y-25362000D01*
G75*
G02*
X27080000Y-25512000I0J-150000D01*
G01*
X27080000Y-27162000D01*
G75*
G02*
X26930000Y-27312000I-150000J0D01*
G01*
X26630000Y-27312000D01*
G75*
G02*
X26480000Y-27162000I0J150000D01*
G01*
X26480000Y-25512000D01*
G75*
G02*
X26630000Y-25362000I150000J0D01*
G01*
G37*
G36*
G01*
X27900000Y-25362000D02*
X28200000Y-25362000D01*
G75*
G02*
X28350000Y-25512000I0J-150000D01*
G01*
X28350000Y-27162000D01*
G75*
G02*
X28200000Y-27312000I-150000J0D01*
G01*
X27900000Y-27312000D01*
G75*
G02*
X27750000Y-27162000I0J150000D01*
G01*
X27750000Y-25512000D01*
G75*
G02*
X27900000Y-25362000I150000J0D01*
G01*
G37*
G36*
G01*
X29170000Y-25362000D02*
X29470000Y-25362000D01*
G75*
G02*
X29620000Y-25512000I0J-150000D01*
G01*
X29620000Y-27162000D01*
G75*
G02*
X29470000Y-27312000I-150000J0D01*
G01*
X29170000Y-27312000D01*
G75*
G02*
X29020000Y-27162000I0J150000D01*
G01*
X29020000Y-25512000D01*
G75*
G02*
X29170000Y-25362000I150000J0D01*
G01*
G37*
G36*
G01*
X30440000Y-25362000D02*
X30740000Y-25362000D01*
G75*
G02*
X30890000Y-25512000I0J-150000D01*
G01*
X30890000Y-27162000D01*
G75*
G02*
X30740000Y-27312000I-150000J0D01*
G01*
X30440000Y-27312000D01*
G75*
G02*
X30290000Y-27162000I0J150000D01*
G01*
X30290000Y-25512000D01*
G75*
G02*
X30440000Y-25362000I150000J0D01*
G01*
G37*
D14*
X43833200Y-30116800D03*
X43833200Y-29616800D03*
X43833200Y-29116800D03*
X43833200Y-28616800D03*
X43833200Y-28116800D03*
X48233200Y-28116800D03*
X48233200Y-28616800D03*
X48233200Y-29116800D03*
X48233200Y-29616800D03*
X48233200Y-30116800D03*
D25*
X66800000Y-24800000D03*
D26*
X67800000Y-21550000D03*
D25*
X68800000Y-24800000D03*
D27*
X65400000Y-49475000D03*
X59400000Y-49475000D03*
X59400000Y-45725000D03*
X65400000Y-45725000D03*
G36*
G01*
X94174000Y-24886750D02*
X94174000Y-23974250D01*
G75*
G02*
X94417750Y-23730500I243750J0D01*
G01*
X94905250Y-23730500D01*
G75*
G02*
X95149000Y-23974250I0J-243750D01*
G01*
X95149000Y-24886750D01*
G75*
G02*
X94905250Y-25130500I-243750J0D01*
G01*
X94417750Y-25130500D01*
G75*
G02*
X94174000Y-24886750I0J243750D01*
G01*
G37*
G36*
G01*
X92299000Y-24886750D02*
X92299000Y-23974250D01*
G75*
G02*
X92542750Y-23730500I243750J0D01*
G01*
X93030250Y-23730500D01*
G75*
G02*
X93274000Y-23974250I0J-243750D01*
G01*
X93274000Y-24886750D01*
G75*
G02*
X93030250Y-25130500I-243750J0D01*
G01*
X92542750Y-25130500D01*
G75*
G02*
X92299000Y-24886750I0J243750D01*
G01*
G37*
G36*
G01*
X98223000Y-24886750D02*
X98223000Y-23974250D01*
G75*
G02*
X98466750Y-23730500I243750J0D01*
G01*
X98954250Y-23730500D01*
G75*
G02*
X99198000Y-23974250I0J-243750D01*
G01*
X99198000Y-24886750D01*
G75*
G02*
X98954250Y-25130500I-243750J0D01*
G01*
X98466750Y-25130500D01*
G75*
G02*
X98223000Y-24886750I0J243750D01*
G01*
G37*
G36*
G01*
X96348000Y-24886750D02*
X96348000Y-23974250D01*
G75*
G02*
X96591750Y-23730500I243750J0D01*
G01*
X97079250Y-23730500D01*
G75*
G02*
X97323000Y-23974250I0J-243750D01*
G01*
X97323000Y-24886750D01*
G75*
G02*
X97079250Y-25130500I-243750J0D01*
G01*
X96591750Y-25130500D01*
G75*
G02*
X96348000Y-24886750I0J243750D01*
G01*
G37*
G36*
G01*
X68856250Y-47950000D02*
X67943750Y-47950000D01*
G75*
G02*
X67700000Y-47706250I0J243750D01*
G01*
X67700000Y-47218750D01*
G75*
G02*
X67943750Y-46975000I243750J0D01*
G01*
X68856250Y-46975000D01*
G75*
G02*
X69100000Y-47218750I0J-243750D01*
G01*
X69100000Y-47706250D01*
G75*
G02*
X68856250Y-47950000I-243750J0D01*
G01*
G37*
G36*
G01*
X68856250Y-49825000D02*
X67943750Y-49825000D01*
G75*
G02*
X67700000Y-49581250I0J243750D01*
G01*
X67700000Y-49093750D01*
G75*
G02*
X67943750Y-48850000I243750J0D01*
G01*
X68856250Y-48850000D01*
G75*
G02*
X69100000Y-49093750I0J-243750D01*
G01*
X69100000Y-49581250D01*
G75*
G02*
X68856250Y-49825000I-243750J0D01*
G01*
G37*
G36*
G01*
X80950000Y-20843750D02*
X80950000Y-21756250D01*
G75*
G02*
X80706250Y-22000000I-243750J0D01*
G01*
X80218750Y-22000000D01*
G75*
G02*
X79975000Y-21756250I0J243750D01*
G01*
X79975000Y-20843750D01*
G75*
G02*
X80218750Y-20600000I243750J0D01*
G01*
X80706250Y-20600000D01*
G75*
G02*
X80950000Y-20843750I0J-243750D01*
G01*
G37*
G36*
G01*
X82825000Y-20843750D02*
X82825000Y-21756250D01*
G75*
G02*
X82581250Y-22000000I-243750J0D01*
G01*
X82093750Y-22000000D01*
G75*
G02*
X81850000Y-21756250I0J243750D01*
G01*
X81850000Y-20843750D01*
G75*
G02*
X82093750Y-20600000I243750J0D01*
G01*
X82581250Y-20600000D01*
G75*
G02*
X82825000Y-20843750I0J-243750D01*
G01*
G37*
G36*
G01*
X80112500Y-49956250D02*
X80112500Y-49043750D01*
G75*
G02*
X80356250Y-48800000I243750J0D01*
G01*
X80843750Y-48800000D01*
G75*
G02*
X81087500Y-49043750I0J-243750D01*
G01*
X81087500Y-49956250D01*
G75*
G02*
X80843750Y-50200000I-243750J0D01*
G01*
X80356250Y-50200000D01*
G75*
G02*
X80112500Y-49956250I0J243750D01*
G01*
G37*
G36*
G01*
X78237500Y-49956250D02*
X78237500Y-49043750D01*
G75*
G02*
X78481250Y-48800000I243750J0D01*
G01*
X78968750Y-48800000D01*
G75*
G02*
X79212500Y-49043750I0J-243750D01*
G01*
X79212500Y-49956250D01*
G75*
G02*
X78968750Y-50200000I-243750J0D01*
G01*
X78481250Y-50200000D01*
G75*
G02*
X78237500Y-49956250I0J243750D01*
G01*
G37*
G36*
G01*
X43111250Y-32730800D02*
X42198750Y-32730800D01*
G75*
G02*
X41955000Y-32487050I0J243750D01*
G01*
X41955000Y-31999550D01*
G75*
G02*
X42198750Y-31755800I243750J0D01*
G01*
X43111250Y-31755800D01*
G75*
G02*
X43355000Y-31999550I0J-243750D01*
G01*
X43355000Y-32487050D01*
G75*
G02*
X43111250Y-32730800I-243750J0D01*
G01*
G37*
G36*
G01*
X43111250Y-34605800D02*
X42198750Y-34605800D01*
G75*
G02*
X41955000Y-34362050I0J243750D01*
G01*
X41955000Y-33874550D01*
G75*
G02*
X42198750Y-33630800I243750J0D01*
G01*
X43111250Y-33630800D01*
G75*
G02*
X43355000Y-33874550I0J-243750D01*
G01*
X43355000Y-34362050D01*
G75*
G02*
X43111250Y-34605800I-243750J0D01*
G01*
G37*
G36*
G01*
X43111250Y-36238300D02*
X42198750Y-36238300D01*
G75*
G02*
X41955000Y-35994550I0J243750D01*
G01*
X41955000Y-35507050D01*
G75*
G02*
X42198750Y-35263300I243750J0D01*
G01*
X43111250Y-35263300D01*
G75*
G02*
X43355000Y-35507050I0J-243750D01*
G01*
X43355000Y-35994550D01*
G75*
G02*
X43111250Y-36238300I-243750J0D01*
G01*
G37*
G36*
G01*
X43111250Y-38113300D02*
X42198750Y-38113300D01*
G75*
G02*
X41955000Y-37869550I0J243750D01*
G01*
X41955000Y-37382050D01*
G75*
G02*
X42198750Y-37138300I243750J0D01*
G01*
X43111250Y-37138300D01*
G75*
G02*
X43355000Y-37382050I0J-243750D01*
G01*
X43355000Y-37869550D01*
G75*
G02*
X43111250Y-38113300I-243750J0D01*
G01*
G37*
G36*
G01*
X50631550Y-25680600D02*
X51544050Y-25680600D01*
G75*
G02*
X51787800Y-25924350I0J-243750D01*
G01*
X51787800Y-26411850D01*
G75*
G02*
X51544050Y-26655600I-243750J0D01*
G01*
X50631550Y-26655600D01*
G75*
G02*
X50387800Y-26411850I0J243750D01*
G01*
X50387800Y-25924350D01*
G75*
G02*
X50631550Y-25680600I243750J0D01*
G01*
G37*
G36*
G01*
X50631550Y-23805600D02*
X51544050Y-23805600D01*
G75*
G02*
X51787800Y-24049350I0J-243750D01*
G01*
X51787800Y-24536850D01*
G75*
G02*
X51544050Y-24780600I-243750J0D01*
G01*
X50631550Y-24780600D01*
G75*
G02*
X50387800Y-24536850I0J243750D01*
G01*
X50387800Y-24049350D01*
G75*
G02*
X50631550Y-23805600I243750J0D01*
G01*
G37*
G36*
G01*
X50631550Y-22188100D02*
X51544050Y-22188100D01*
G75*
G02*
X51787800Y-22431850I0J-243750D01*
G01*
X51787800Y-22919350D01*
G75*
G02*
X51544050Y-23163100I-243750J0D01*
G01*
X50631550Y-23163100D01*
G75*
G02*
X50387800Y-22919350I0J243750D01*
G01*
X50387800Y-22431850D01*
G75*
G02*
X50631550Y-22188100I243750J0D01*
G01*
G37*
G36*
G01*
X50631550Y-20313100D02*
X51544050Y-20313100D01*
G75*
G02*
X51787800Y-20556850I0J-243750D01*
G01*
X51787800Y-21044350D01*
G75*
G02*
X51544050Y-21288100I-243750J0D01*
G01*
X50631550Y-21288100D01*
G75*
G02*
X50387800Y-21044350I0J243750D01*
G01*
X50387800Y-20556850D01*
G75*
G02*
X50631550Y-20313100I243750J0D01*
G01*
G37*
G36*
G01*
X54668250Y-28616000D02*
X53755750Y-28616000D01*
G75*
G02*
X53512000Y-28372250I0J243750D01*
G01*
X53512000Y-27884750D01*
G75*
G02*
X53755750Y-27641000I243750J0D01*
G01*
X54668250Y-27641000D01*
G75*
G02*
X54912000Y-27884750I0J-243750D01*
G01*
X54912000Y-28372250D01*
G75*
G02*
X54668250Y-28616000I-243750J0D01*
G01*
G37*
G36*
G01*
X54668250Y-30491000D02*
X53755750Y-30491000D01*
G75*
G02*
X53512000Y-30247250I0J243750D01*
G01*
X53512000Y-29759750D01*
G75*
G02*
X53755750Y-29516000I243750J0D01*
G01*
X54668250Y-29516000D01*
G75*
G02*
X54912000Y-29759750I0J-243750D01*
G01*
X54912000Y-30247250D01*
G75*
G02*
X54668250Y-30491000I-243750J0D01*
G01*
G37*
D18*
X36425200Y-23173200D03*
X41925200Y-23173200D03*
D17*
X37575000Y-27967000D03*
X37575000Y-33467000D03*
D20*
X41193500Y-39657800D03*
X37893500Y-39657800D03*
X35897600Y-39607000D03*
X32597600Y-39607000D03*
X43913300Y-21039600D03*
X47213300Y-21039600D03*
G36*
G01*
X71543750Y-48950000D02*
X72056250Y-48950000D01*
G75*
G02*
X72275000Y-49168750I0J-218750D01*
G01*
X72275000Y-49606250D01*
G75*
G02*
X72056250Y-49825000I-218750J0D01*
G01*
X71543750Y-49825000D01*
G75*
G02*
X71325000Y-49606250I0J218750D01*
G01*
X71325000Y-49168750D01*
G75*
G02*
X71543750Y-48950000I218750J0D01*
G01*
G37*
G36*
G01*
X71543750Y-47375000D02*
X72056250Y-47375000D01*
G75*
G02*
X72275000Y-47593750I0J-218750D01*
G01*
X72275000Y-48031250D01*
G75*
G02*
X72056250Y-48250000I-218750J0D01*
G01*
X71543750Y-48250000D01*
G75*
G02*
X71325000Y-48031250I0J218750D01*
G01*
X71325000Y-47593750D01*
G75*
G02*
X71543750Y-47375000I218750J0D01*
G01*
G37*
G36*
G01*
X74256250Y-48250000D02*
X73743750Y-48250000D01*
G75*
G02*
X73525000Y-48031250I0J218750D01*
G01*
X73525000Y-47593750D01*
G75*
G02*
X73743750Y-47375000I218750J0D01*
G01*
X74256250Y-47375000D01*
G75*
G02*
X74475000Y-47593750I0J-218750D01*
G01*
X74475000Y-48031250D01*
G75*
G02*
X74256250Y-48250000I-218750J0D01*
G01*
G37*
G36*
G01*
X74256250Y-49825000D02*
X73743750Y-49825000D01*
G75*
G02*
X73525000Y-49606250I0J218750D01*
G01*
X73525000Y-49168750D01*
G75*
G02*
X73743750Y-48950000I218750J0D01*
G01*
X74256250Y-48950000D01*
G75*
G02*
X74475000Y-49168750I0J-218750D01*
G01*
X74475000Y-49606250D01*
G75*
G02*
X74256250Y-49825000I-218750J0D01*
G01*
G37*
G36*
G01*
X57143750Y-48950000D02*
X57656250Y-48950000D01*
G75*
G02*
X57875000Y-49168750I0J-218750D01*
G01*
X57875000Y-49606250D01*
G75*
G02*
X57656250Y-49825000I-218750J0D01*
G01*
X57143750Y-49825000D01*
G75*
G02*
X56925000Y-49606250I0J218750D01*
G01*
X56925000Y-49168750D01*
G75*
G02*
X57143750Y-48950000I218750J0D01*
G01*
G37*
G36*
G01*
X57143750Y-47375000D02*
X57656250Y-47375000D01*
G75*
G02*
X57875000Y-47593750I0J-218750D01*
G01*
X57875000Y-48031250D01*
G75*
G02*
X57656250Y-48250000I-218750J0D01*
G01*
X57143750Y-48250000D01*
G75*
G02*
X56925000Y-48031250I0J218750D01*
G01*
X56925000Y-47593750D01*
G75*
G02*
X57143750Y-47375000I218750J0D01*
G01*
G37*
G36*
G01*
X84350000Y-49243750D02*
X84350000Y-49756250D01*
G75*
G02*
X84131250Y-49975000I-218750J0D01*
G01*
X83693750Y-49975000D01*
G75*
G02*
X83475000Y-49756250I0J218750D01*
G01*
X83475000Y-49243750D01*
G75*
G02*
X83693750Y-49025000I218750J0D01*
G01*
X84131250Y-49025000D01*
G75*
G02*
X84350000Y-49243750I0J-218750D01*
G01*
G37*
G36*
G01*
X85925000Y-49243750D02*
X85925000Y-49756250D01*
G75*
G02*
X85706250Y-49975000I-218750J0D01*
G01*
X85268750Y-49975000D01*
G75*
G02*
X85050000Y-49756250I0J218750D01*
G01*
X85050000Y-49243750D01*
G75*
G02*
X85268750Y-49025000I218750J0D01*
G01*
X85706250Y-49025000D01*
G75*
G02*
X85925000Y-49243750I0J-218750D01*
G01*
G37*
G36*
G01*
X26450000Y-33043750D02*
X26450000Y-33556250D01*
G75*
G02*
X26231250Y-33775000I-218750J0D01*
G01*
X25793750Y-33775000D01*
G75*
G02*
X25575000Y-33556250I0J218750D01*
G01*
X25575000Y-33043750D01*
G75*
G02*
X25793750Y-32825000I218750J0D01*
G01*
X26231250Y-32825000D01*
G75*
G02*
X26450000Y-33043750I0J-218750D01*
G01*
G37*
G36*
G01*
X28025000Y-33043750D02*
X28025000Y-33556250D01*
G75*
G02*
X27806250Y-33775000I-218750J0D01*
G01*
X27368750Y-33775000D01*
G75*
G02*
X27150000Y-33556250I0J218750D01*
G01*
X27150000Y-33043750D01*
G75*
G02*
X27368750Y-32825000I218750J0D01*
G01*
X27806250Y-32825000D01*
G75*
G02*
X28025000Y-33043750I0J-218750D01*
G01*
G37*
G36*
G01*
X32343750Y-36850000D02*
X32856250Y-36850000D01*
G75*
G02*
X33075000Y-37068750I0J-218750D01*
G01*
X33075000Y-37506250D01*
G75*
G02*
X32856250Y-37725000I-218750J0D01*
G01*
X32343750Y-37725000D01*
G75*
G02*
X32125000Y-37506250I0J218750D01*
G01*
X32125000Y-37068750D01*
G75*
G02*
X32343750Y-36850000I218750J0D01*
G01*
G37*
G36*
G01*
X32343750Y-35275000D02*
X32856250Y-35275000D01*
G75*
G02*
X33075000Y-35493750I0J-218750D01*
G01*
X33075000Y-35931250D01*
G75*
G02*
X32856250Y-36150000I-218750J0D01*
G01*
X32343750Y-36150000D01*
G75*
G02*
X32125000Y-35931250I0J218750D01*
G01*
X32125000Y-35493750D01*
G75*
G02*
X32343750Y-35275000I218750J0D01*
G01*
G37*
G36*
G01*
X44950000Y-35043750D02*
X44950000Y-35556250D01*
G75*
G02*
X44731250Y-35775000I-218750J0D01*
G01*
X44293750Y-35775000D01*
G75*
G02*
X44075000Y-35556250I0J218750D01*
G01*
X44075000Y-35043750D01*
G75*
G02*
X44293750Y-34825000I218750J0D01*
G01*
X44731250Y-34825000D01*
G75*
G02*
X44950000Y-35043750I0J-218750D01*
G01*
G37*
G36*
G01*
X46525000Y-35043750D02*
X46525000Y-35556250D01*
G75*
G02*
X46306250Y-35775000I-218750J0D01*
G01*
X45868750Y-35775000D01*
G75*
G02*
X45650000Y-35556250I0J218750D01*
G01*
X45650000Y-35043750D01*
G75*
G02*
X45868750Y-34825000I218750J0D01*
G01*
X46306250Y-34825000D01*
G75*
G02*
X46525000Y-35043750I0J-218750D01*
G01*
G37*
G36*
G01*
X53450000Y-25943750D02*
X53450000Y-26456250D01*
G75*
G02*
X53231250Y-26675000I-218750J0D01*
G01*
X52793750Y-26675000D01*
G75*
G02*
X52575000Y-26456250I0J218750D01*
G01*
X52575000Y-25943750D01*
G75*
G02*
X52793750Y-25725000I218750J0D01*
G01*
X53231250Y-25725000D01*
G75*
G02*
X53450000Y-25943750I0J-218750D01*
G01*
G37*
G36*
G01*
X55025000Y-25943750D02*
X55025000Y-26456250D01*
G75*
G02*
X54806250Y-26675000I-218750J0D01*
G01*
X54368750Y-26675000D01*
G75*
G02*
X54150000Y-26456250I0J218750D01*
G01*
X54150000Y-25943750D01*
G75*
G02*
X54368750Y-25725000I218750J0D01*
G01*
X54806250Y-25725000D01*
G75*
G02*
X55025000Y-25943750I0J-218750D01*
G01*
G37*
G36*
G01*
X40493750Y-37290000D02*
X41006250Y-37290000D01*
G75*
G02*
X41225000Y-37508750I0J-218750D01*
G01*
X41225000Y-37946250D01*
G75*
G02*
X41006250Y-38165000I-218750J0D01*
G01*
X40493750Y-38165000D01*
G75*
G02*
X40275000Y-37946250I0J218750D01*
G01*
X40275000Y-37508750D01*
G75*
G02*
X40493750Y-37290000I218750J0D01*
G01*
G37*
G36*
G01*
X40493750Y-35715000D02*
X41006250Y-35715000D01*
G75*
G02*
X41225000Y-35933750I0J-218750D01*
G01*
X41225000Y-36371250D01*
G75*
G02*
X41006250Y-36590000I-218750J0D01*
G01*
X40493750Y-36590000D01*
G75*
G02*
X40275000Y-36371250I0J218750D01*
G01*
X40275000Y-35933750D01*
G75*
G02*
X40493750Y-35715000I218750J0D01*
G01*
G37*
G36*
G01*
X49248550Y-21388100D02*
X48736050Y-21388100D01*
G75*
G02*
X48517300Y-21169350I0J218750D01*
G01*
X48517300Y-20731850D01*
G75*
G02*
X48736050Y-20513100I218750J0D01*
G01*
X49248550Y-20513100D01*
G75*
G02*
X49467300Y-20731850I0J-218750D01*
G01*
X49467300Y-21169350D01*
G75*
G02*
X49248550Y-21388100I-218750J0D01*
G01*
G37*
G36*
G01*
X49248550Y-22963100D02*
X48736050Y-22963100D01*
G75*
G02*
X48517300Y-22744350I0J218750D01*
G01*
X48517300Y-22306850D01*
G75*
G02*
X48736050Y-22088100I218750J0D01*
G01*
X49248550Y-22088100D01*
G75*
G02*
X49467300Y-22306850I0J-218750D01*
G01*
X49467300Y-22744350D01*
G75*
G02*
X49248550Y-22963100I-218750J0D01*
G01*
G37*
G36*
G01*
X36815250Y-36082000D02*
X36302750Y-36082000D01*
G75*
G02*
X36084000Y-35863250I0J218750D01*
G01*
X36084000Y-35425750D01*
G75*
G02*
X36302750Y-35207000I218750J0D01*
G01*
X36815250Y-35207000D01*
G75*
G02*
X37034000Y-35425750I0J-218750D01*
G01*
X37034000Y-35863250D01*
G75*
G02*
X36815250Y-36082000I-218750J0D01*
G01*
G37*
G36*
G01*
X36815250Y-37657000D02*
X36302750Y-37657000D01*
G75*
G02*
X36084000Y-37438250I0J218750D01*
G01*
X36084000Y-37000750D01*
G75*
G02*
X36302750Y-36782000I218750J0D01*
G01*
X36815250Y-36782000D01*
G75*
G02*
X37034000Y-37000750I0J-218750D01*
G01*
X37034000Y-37438250D01*
G75*
G02*
X36815250Y-37657000I-218750J0D01*
G01*
G37*
G36*
G01*
X60443750Y-22250000D02*
X60956250Y-22250000D01*
G75*
G02*
X61175000Y-22468750I0J-218750D01*
G01*
X61175000Y-22906250D01*
G75*
G02*
X60956250Y-23125000I-218750J0D01*
G01*
X60443750Y-23125000D01*
G75*
G02*
X60225000Y-22906250I0J218750D01*
G01*
X60225000Y-22468750D01*
G75*
G02*
X60443750Y-22250000I218750J0D01*
G01*
G37*
G36*
G01*
X60443750Y-20675000D02*
X60956250Y-20675000D01*
G75*
G02*
X61175000Y-20893750I0J-218750D01*
G01*
X61175000Y-21331250D01*
G75*
G02*
X60956250Y-21550000I-218750J0D01*
G01*
X60443750Y-21550000D01*
G75*
G02*
X60225000Y-21331250I0J218750D01*
G01*
X60225000Y-20893750D01*
G75*
G02*
X60443750Y-20675000I218750J0D01*
G01*
G37*
G36*
G01*
X54056250Y-21650000D02*
X53543750Y-21650000D01*
G75*
G02*
X53325000Y-21431250I0J218750D01*
G01*
X53325000Y-20993750D01*
G75*
G02*
X53543750Y-20775000I218750J0D01*
G01*
X54056250Y-20775000D01*
G75*
G02*
X54275000Y-20993750I0J-218750D01*
G01*
X54275000Y-21431250D01*
G75*
G02*
X54056250Y-21650000I-218750J0D01*
G01*
G37*
G36*
G01*
X54056250Y-23225000D02*
X53543750Y-23225000D01*
G75*
G02*
X53325000Y-23006250I0J218750D01*
G01*
X53325000Y-22568750D01*
G75*
G02*
X53543750Y-22350000I218750J0D01*
G01*
X54056250Y-22350000D01*
G75*
G02*
X54275000Y-22568750I0J-218750D01*
G01*
X54275000Y-23006250D01*
G75*
G02*
X54056250Y-23225000I-218750J0D01*
G01*
G37*
G36*
G01*
X32365750Y-27003000D02*
X32878250Y-27003000D01*
G75*
G02*
X33097000Y-27221750I0J-218750D01*
G01*
X33097000Y-27659250D01*
G75*
G02*
X32878250Y-27878000I-218750J0D01*
G01*
X32365750Y-27878000D01*
G75*
G02*
X32147000Y-27659250I0J218750D01*
G01*
X32147000Y-27221750D01*
G75*
G02*
X32365750Y-27003000I218750J0D01*
G01*
G37*
G36*
G01*
X32365750Y-25428000D02*
X32878250Y-25428000D01*
G75*
G02*
X33097000Y-25646750I0J-218750D01*
G01*
X33097000Y-26084250D01*
G75*
G02*
X32878250Y-26303000I-218750J0D01*
G01*
X32365750Y-26303000D01*
G75*
G02*
X32147000Y-26084250I0J218750D01*
G01*
X32147000Y-25646750D01*
G75*
G02*
X32365750Y-25428000I218750J0D01*
G01*
G37*
D27*
X72100000Y-20925000D03*
X78100000Y-20925000D03*
X78100000Y-24675000D03*
X72100000Y-24675000D03*
M02*
