%TF.GenerationSoftware,KiCad,Pcbnew,5.1.10*%
%TF.CreationDate,2021-08-29T14:42:02+02:00*%
%TF.ProjectId,epaper-breakout,65706170-6572-42d6-9272-65616b6f7574,rev?*%
%TF.SameCoordinates,Original*%
%TF.FileFunction,Paste,Top*%
%TF.FilePolarity,Positive*%
%FSLAX46Y46*%
G04 Gerber Fmt 4.6, Leading zero omitted, Abs format (unit mm)*
G04 Created by KiCad (PCBNEW 5.1.10) date 2021-08-29 14:42:02*
%MOMM*%
%LPD*%
G01*
G04 APERTURE LIST*
%ADD10C,0.152400*%
%ADD11R,1.200000X0.900000*%
%ADD12R,0.812800X0.254000*%
%ADD13R,1.701800X1.524000*%
%ADD14R,1.600000X2.800000*%
%ADD15R,0.250000X1.300000*%
%ADD16R,0.400000X0.950000*%
%ADD17R,0.300000X0.800000*%
%ADD18R,0.300000X1.000000*%
%ADD19R,1.500000X1.700000*%
%ADD20C,1.290000*%
%ADD21R,0.400000X1.250000*%
%ADD22C,1.700000*%
%ADD23R,1.200000X1.700000*%
%ADD24O,0.449999X1.400000*%
%ADD25R,5.000000X5.000000*%
%ADD26O,3.000000X0.900000*%
%ADD27R,4.399999X4.399999*%
%ADD28R,0.200000X0.850000*%
%ADD29R,0.850000X0.200000*%
%ADD30R,3.900000X2.200000*%
%ADD31R,4.200000X2.400000*%
%ADD32R,0.900000X1.200000*%
%ADD33R,0.800000X0.900000*%
%ADD34R,1.500000X0.650000*%
%ADD35R,2.700000X3.600000*%
%ADD36R,0.900000X0.800000*%
G04 APERTURE END LIST*
D10*
X68399000Y-48502999D02*
X68399000Y-48353000D01*
X68399000Y-48353000D02*
X67599001Y-48353000D01*
X67599001Y-48353000D02*
X67599001Y-48502999D01*
X67599001Y-48502999D02*
X68399000Y-48502999D01*
X68399000Y-48103000D02*
X68399000Y-47953000D01*
X68399000Y-47953000D02*
X67599001Y-47953000D01*
X67599001Y-47953000D02*
X67599001Y-48103000D01*
X67599001Y-48103000D02*
X68399000Y-48103000D01*
X68399000Y-47703001D02*
X68399000Y-47553001D01*
X68399000Y-47553001D02*
X67599001Y-47553001D01*
X67599001Y-47553001D02*
X67599001Y-47703001D01*
X67599001Y-47703001D02*
X68399000Y-47703001D01*
X68399000Y-47302999D02*
X68399000Y-47152999D01*
X68399000Y-47152999D02*
X67599001Y-47152999D01*
X67599001Y-47152999D02*
X67599001Y-47302999D01*
X67599001Y-47302999D02*
X68399000Y-47302999D01*
X68399000Y-46903000D02*
X68399000Y-46753000D01*
X68399000Y-46753000D02*
X67599001Y-46753000D01*
X67599001Y-46753000D02*
X67599001Y-46903000D01*
X67599001Y-46903000D02*
X68399000Y-46903000D01*
X68399000Y-46503001D02*
X68399000Y-46353001D01*
X68399000Y-46353001D02*
X67599001Y-46353001D01*
X67599001Y-46353001D02*
X67599001Y-46503001D01*
X67599001Y-46503001D02*
X68399000Y-46503001D01*
X68399000Y-46102999D02*
X68399000Y-45952999D01*
X68399000Y-45952999D02*
X67599001Y-45952999D01*
X67599001Y-45952999D02*
X67599001Y-46102999D01*
X67599001Y-46102999D02*
X68399000Y-46102999D01*
X68399000Y-45703000D02*
X68399000Y-45553000D01*
X68399000Y-45553000D02*
X67599001Y-45553000D01*
X67599001Y-45553000D02*
X67599001Y-45703000D01*
X67599001Y-45703000D02*
X68399000Y-45703000D01*
X68399000Y-45303001D02*
X68399000Y-45153001D01*
X68399000Y-45153001D02*
X67599001Y-45153001D01*
X67599001Y-45153001D02*
X67599001Y-45303001D01*
X67599001Y-45303001D02*
X68399000Y-45303001D01*
X68399000Y-44903001D02*
X68399000Y-44752999D01*
X68399000Y-44752999D02*
X67599001Y-44752999D01*
X67599001Y-44752999D02*
X67599001Y-44903001D01*
X67599001Y-44903001D02*
X68399000Y-44903001D01*
X68399000Y-44503000D02*
X68399000Y-44353000D01*
X68399000Y-44353000D02*
X67599001Y-44353000D01*
X67599001Y-44353000D02*
X67599001Y-44503000D01*
X67599001Y-44503000D02*
X68399000Y-44503000D01*
X68399000Y-44103000D02*
X68399000Y-43953001D01*
X68399000Y-43953001D02*
X67599001Y-43953001D01*
X67599001Y-43953001D02*
X67599001Y-44103000D01*
X67599001Y-44103000D02*
X68399000Y-44103000D01*
X67298999Y-43652999D02*
X67298999Y-42853000D01*
X67298999Y-42853000D02*
X67149000Y-42853000D01*
X67149000Y-42853000D02*
X67149000Y-43652999D01*
X67149000Y-43652999D02*
X67298999Y-43652999D01*
X66899000Y-43652999D02*
X66899000Y-42853000D01*
X66899000Y-42853000D02*
X66749000Y-42853000D01*
X66749000Y-42853000D02*
X66749000Y-43652999D01*
X66749000Y-43652999D02*
X66899000Y-43652999D01*
X66499001Y-43652999D02*
X66499001Y-42853000D01*
X66499001Y-42853000D02*
X66349001Y-42853000D01*
X66349001Y-42853000D02*
X66349001Y-43652999D01*
X66349001Y-43652999D02*
X66499001Y-43652999D01*
X66098999Y-43652999D02*
X66098999Y-42853000D01*
X66098999Y-42853000D02*
X65948999Y-42853000D01*
X65948999Y-42853000D02*
X65948999Y-43652999D01*
X65948999Y-43652999D02*
X66098999Y-43652999D01*
X65699000Y-43652999D02*
X65699000Y-42853000D01*
X65699000Y-42853000D02*
X65549000Y-42853000D01*
X65549000Y-42853000D02*
X65549000Y-43652999D01*
X65549000Y-43652999D02*
X65699000Y-43652999D01*
X65299001Y-43652999D02*
X65299001Y-42853000D01*
X65299001Y-42853000D02*
X65149001Y-42853000D01*
X65149001Y-42853000D02*
X65149001Y-43652999D01*
X65149001Y-43652999D02*
X65299001Y-43652999D01*
X64898999Y-43652999D02*
X64898999Y-42853000D01*
X64898999Y-42853000D02*
X64748999Y-42853000D01*
X64748999Y-42853000D02*
X64748999Y-43652999D01*
X64748999Y-43652999D02*
X64898999Y-43652999D01*
X64499000Y-43652999D02*
X64499000Y-42853000D01*
X64499000Y-42853000D02*
X64349000Y-42853000D01*
X64349000Y-42853000D02*
X64349000Y-43652999D01*
X64349000Y-43652999D02*
X64499000Y-43652999D01*
X64099001Y-43652999D02*
X64099001Y-42853000D01*
X64099001Y-42853000D02*
X63949001Y-42853000D01*
X63949001Y-42853000D02*
X63949001Y-43652999D01*
X63949001Y-43652999D02*
X64099001Y-43652999D01*
X63699001Y-43652999D02*
X63699001Y-42853000D01*
X63699001Y-42853000D02*
X63548999Y-42853000D01*
X63548999Y-42853000D02*
X63548999Y-43652999D01*
X63548999Y-43652999D02*
X63699001Y-43652999D01*
X63299000Y-43652999D02*
X63299000Y-42853000D01*
X63299000Y-42853000D02*
X63149000Y-42853000D01*
X63149000Y-42853000D02*
X63149000Y-43652999D01*
X63149000Y-43652999D02*
X63299000Y-43652999D01*
X62899000Y-43652999D02*
X62899000Y-42853000D01*
X62899000Y-42853000D02*
X62749001Y-42853000D01*
X62749001Y-42853000D02*
X62749001Y-43652999D01*
X62749001Y-43652999D02*
X62899000Y-43652999D01*
X62448999Y-44103000D02*
X62448999Y-43953001D01*
X62448999Y-43953001D02*
X61649000Y-43953001D01*
X61649000Y-43953001D02*
X61649000Y-44103000D01*
X61649000Y-44103000D02*
X62448999Y-44103000D01*
X62448999Y-44503000D02*
X62448999Y-44353000D01*
X62448999Y-44353000D02*
X61649000Y-44353000D01*
X61649000Y-44353000D02*
X61649000Y-44503000D01*
X61649000Y-44503000D02*
X62448999Y-44503000D01*
X62448999Y-44902999D02*
X62448999Y-44752999D01*
X62448999Y-44752999D02*
X61649000Y-44752999D01*
X61649000Y-44752999D02*
X61649000Y-44902999D01*
X61649000Y-44902999D02*
X62448999Y-44902999D01*
X62448999Y-45303001D02*
X62448999Y-45153001D01*
X62448999Y-45153001D02*
X61649000Y-45153001D01*
X61649000Y-45153001D02*
X61649000Y-45303001D01*
X61649000Y-45303001D02*
X62448999Y-45303001D01*
X62448999Y-45703000D02*
X62448999Y-45553000D01*
X62448999Y-45553000D02*
X61649000Y-45553000D01*
X61649000Y-45553000D02*
X61649000Y-45703000D01*
X61649000Y-45703000D02*
X62448999Y-45703000D01*
X62448999Y-46102999D02*
X62448999Y-45952999D01*
X62448999Y-45952999D02*
X61649000Y-45952999D01*
X61649000Y-45952999D02*
X61649000Y-46102999D01*
X61649000Y-46102999D02*
X62448999Y-46102999D01*
X62448999Y-46503001D02*
X62448999Y-46353001D01*
X62448999Y-46353001D02*
X61649000Y-46353001D01*
X61649000Y-46353001D02*
X61649000Y-46503001D01*
X61649000Y-46503001D02*
X62448999Y-46503001D01*
X62448999Y-46903000D02*
X62448999Y-46753000D01*
X62448999Y-46753000D02*
X61649000Y-46753000D01*
X61649000Y-46753000D02*
X61649000Y-46903000D01*
X61649000Y-46903000D02*
X62448999Y-46903000D01*
X62448999Y-47302999D02*
X62448999Y-47152999D01*
X62448999Y-47152999D02*
X61649000Y-47152999D01*
X61649000Y-47152999D02*
X61649000Y-47302999D01*
X61649000Y-47302999D02*
X62448999Y-47302999D01*
X62448999Y-47703001D02*
X62448999Y-47552999D01*
X62448999Y-47552999D02*
X61649000Y-47552999D01*
X61649000Y-47552999D02*
X61649000Y-47703001D01*
X61649000Y-47703001D02*
X62448999Y-47703001D01*
X62448999Y-48103000D02*
X62448999Y-47953000D01*
X62448999Y-47953000D02*
X61649000Y-47953000D01*
X61649000Y-47953000D02*
X61649000Y-48103000D01*
X61649000Y-48103000D02*
X62448999Y-48103000D01*
X62448999Y-48502999D02*
X62448999Y-48353000D01*
X62448999Y-48353000D02*
X61649000Y-48353000D01*
X61649000Y-48353000D02*
X61649000Y-48502999D01*
X61649000Y-48502999D02*
X62448999Y-48502999D01*
X62899000Y-49603000D02*
X62899000Y-48803001D01*
X62899000Y-48803001D02*
X62749001Y-48803001D01*
X62749001Y-48803001D02*
X62749001Y-49603000D01*
X62749001Y-49603000D02*
X62899000Y-49603000D01*
X63299000Y-49603000D02*
X63299000Y-48803001D01*
X63299000Y-48803001D02*
X63149000Y-48803001D01*
X63149000Y-48803001D02*
X63149000Y-49603000D01*
X63149000Y-49603000D02*
X63299000Y-49603000D01*
X63698999Y-49603000D02*
X63698999Y-48803001D01*
X63698999Y-48803001D02*
X63548999Y-48803001D01*
X63548999Y-48803001D02*
X63548999Y-49603000D01*
X63548999Y-49603000D02*
X63698999Y-49603000D01*
X64099001Y-49603000D02*
X64099001Y-48803001D01*
X64099001Y-48803001D02*
X63949001Y-48803001D01*
X63949001Y-48803001D02*
X63949001Y-49603000D01*
X63949001Y-49603000D02*
X64099001Y-49603000D01*
X64499000Y-49603000D02*
X64499000Y-48803001D01*
X64499000Y-48803001D02*
X64349000Y-48803001D01*
X64349000Y-48803001D02*
X64349000Y-49603000D01*
X64349000Y-49603000D02*
X64499000Y-49603000D01*
X64898999Y-49603000D02*
X64898999Y-48803001D01*
X64898999Y-48803001D02*
X64748999Y-48803001D01*
X64748999Y-48803001D02*
X64748999Y-49603000D01*
X64748999Y-49603000D02*
X64898999Y-49603000D01*
X65299001Y-49603000D02*
X65299001Y-48803001D01*
X65299001Y-48803001D02*
X65149001Y-48803001D01*
X65149001Y-48803001D02*
X65149001Y-49603000D01*
X65149001Y-49603000D02*
X65299001Y-49603000D01*
X65699000Y-49603000D02*
X65699000Y-48803001D01*
X65699000Y-48803001D02*
X65549000Y-48803001D01*
X65549000Y-48803001D02*
X65549000Y-49603000D01*
X65549000Y-49603000D02*
X65699000Y-49603000D01*
X66098999Y-49603000D02*
X66098999Y-48803001D01*
X66098999Y-48803001D02*
X65948999Y-48803001D01*
X65948999Y-48803001D02*
X65948999Y-49603000D01*
X65948999Y-49603000D02*
X66098999Y-49603000D01*
X66499001Y-49603000D02*
X66499001Y-48803001D01*
X66499001Y-48803001D02*
X66348999Y-48803001D01*
X66348999Y-48803001D02*
X66348999Y-49603000D01*
X66348999Y-49603000D02*
X66499001Y-49603000D01*
X66899000Y-49603000D02*
X66899000Y-48803001D01*
X66899000Y-48803001D02*
X66749000Y-48803001D01*
X66749000Y-48803001D02*
X66749000Y-49603000D01*
X66749000Y-49603000D02*
X66899000Y-49603000D01*
X67298999Y-49603000D02*
X67298999Y-48803001D01*
X67298999Y-48803001D02*
X67149000Y-48803001D01*
X67149000Y-48803001D02*
X67149000Y-49603000D01*
X67149000Y-49603000D02*
X67298999Y-49603000D01*
X67149069Y-48353069D02*
X67149069Y-47902800D01*
X67149069Y-47902800D02*
X66840221Y-47902800D01*
X66840221Y-47902800D02*
X66840221Y-47902800D01*
X66840221Y-47902800D02*
X66698800Y-48044221D01*
X66698800Y-48044221D02*
X66698800Y-48044221D01*
X66698800Y-48044221D02*
X66698800Y-48353069D01*
X66698800Y-48353069D02*
X67149069Y-48353069D01*
X67149069Y-47702800D02*
X67149069Y-47115400D01*
X67149069Y-47115400D02*
X66840221Y-47115400D01*
X66840221Y-47115400D02*
X66840221Y-47115400D01*
X66840221Y-47115400D02*
X66698800Y-47256821D01*
X66698800Y-47256821D02*
X66698800Y-47256821D01*
X66698800Y-47256821D02*
X66698800Y-47561379D01*
X66698800Y-47561379D02*
X66698800Y-47561379D01*
X66698800Y-47561379D02*
X66840221Y-47702800D01*
X66840221Y-47702800D02*
X66840221Y-47702800D01*
X66840221Y-47702800D02*
X67149069Y-47702800D01*
X67149069Y-46915400D02*
X67149069Y-46328000D01*
X67149069Y-46328000D02*
X66840221Y-46328000D01*
X66840221Y-46328000D02*
X66840221Y-46328000D01*
X66840221Y-46328000D02*
X66698800Y-46469421D01*
X66698800Y-46469421D02*
X66698800Y-46469421D01*
X66698800Y-46469421D02*
X66698800Y-46773979D01*
X66698800Y-46773979D02*
X66698800Y-46773979D01*
X66698800Y-46773979D02*
X66840221Y-46915400D01*
X66840221Y-46915400D02*
X66840221Y-46915400D01*
X66840221Y-46915400D02*
X67149069Y-46915400D01*
X67149069Y-46128000D02*
X67149069Y-45540600D01*
X67149069Y-45540600D02*
X66840221Y-45540600D01*
X66840221Y-45540600D02*
X66840221Y-45540600D01*
X66840221Y-45540600D02*
X66698800Y-45682021D01*
X66698800Y-45682021D02*
X66698800Y-45682021D01*
X66698800Y-45682021D02*
X66698800Y-45986579D01*
X66698800Y-45986579D02*
X66698800Y-45986579D01*
X66698800Y-45986579D02*
X66840221Y-46128000D01*
X66840221Y-46128000D02*
X66840221Y-46128000D01*
X66840221Y-46128000D02*
X67149069Y-46128000D01*
X67149069Y-45340600D02*
X67149069Y-44753200D01*
X67149069Y-44753200D02*
X66840221Y-44753200D01*
X66840221Y-44753200D02*
X66840221Y-44753200D01*
X66840221Y-44753200D02*
X66698800Y-44894621D01*
X66698800Y-44894621D02*
X66698800Y-44894621D01*
X66698800Y-44894621D02*
X66698800Y-45199179D01*
X66698800Y-45199179D02*
X66698800Y-45199179D01*
X66698800Y-45199179D02*
X66840221Y-45340600D01*
X66840221Y-45340600D02*
X66840221Y-45340600D01*
X66840221Y-45340600D02*
X67149069Y-45340600D01*
X67149069Y-44553200D02*
X67149069Y-44102931D01*
X67149069Y-44102931D02*
X66698800Y-44102931D01*
X66698800Y-44102931D02*
X66698800Y-44411779D01*
X66698800Y-44411779D02*
X66698800Y-44411779D01*
X66698800Y-44411779D02*
X66840221Y-44553200D01*
X66840221Y-44553200D02*
X66840221Y-44553200D01*
X66840221Y-44553200D02*
X67149069Y-44553200D01*
X66498800Y-48353069D02*
X66498800Y-48044221D01*
X66498800Y-48044221D02*
X66498800Y-48044221D01*
X66498800Y-48044221D02*
X66357379Y-47902800D01*
X66357379Y-47902800D02*
X66357379Y-47902800D01*
X66357379Y-47902800D02*
X66052821Y-47902800D01*
X66052821Y-47902800D02*
X66052821Y-47902800D01*
X66052821Y-47902800D02*
X65911400Y-48044221D01*
X65911400Y-48044221D02*
X65911400Y-48044221D01*
X65911400Y-48044221D02*
X65911400Y-48353069D01*
X65911400Y-48353069D02*
X66498800Y-48353069D01*
X66357379Y-47702800D02*
X66357379Y-47702800D01*
X66357379Y-47702800D02*
X66498800Y-47561379D01*
X66498800Y-47561379D02*
X66498800Y-47561379D01*
X66498800Y-47561379D02*
X66498800Y-47256821D01*
X66498800Y-47256821D02*
X66498800Y-47256821D01*
X66498800Y-47256821D02*
X66357379Y-47115400D01*
X66357379Y-47115400D02*
X66357379Y-47115400D01*
X66357379Y-47115400D02*
X66052821Y-47115400D01*
X66052821Y-47115400D02*
X66052821Y-47115400D01*
X66052821Y-47115400D02*
X65911400Y-47256821D01*
X65911400Y-47256821D02*
X65911400Y-47256821D01*
X65911400Y-47256821D02*
X65911400Y-47561379D01*
X65911400Y-47561379D02*
X65911400Y-47561379D01*
X65911400Y-47561379D02*
X66052821Y-47702800D01*
X66052821Y-47702800D02*
X66052821Y-47702800D01*
X66052821Y-47702800D02*
X66357379Y-47702800D01*
X66357379Y-46915400D02*
X66357379Y-46915400D01*
X66357379Y-46915400D02*
X66498800Y-46773979D01*
X66498800Y-46773979D02*
X66498800Y-46773979D01*
X66498800Y-46773979D02*
X66498800Y-46469421D01*
X66498800Y-46469421D02*
X66498800Y-46469421D01*
X66498800Y-46469421D02*
X66357379Y-46328000D01*
X66357379Y-46328000D02*
X66357379Y-46328000D01*
X66357379Y-46328000D02*
X66052821Y-46328000D01*
X66052821Y-46328000D02*
X66052821Y-46328000D01*
X66052821Y-46328000D02*
X65911400Y-46469421D01*
X65911400Y-46469421D02*
X65911400Y-46469421D01*
X65911400Y-46469421D02*
X65911400Y-46773979D01*
X65911400Y-46773979D02*
X65911400Y-46773979D01*
X65911400Y-46773979D02*
X66052821Y-46915400D01*
X66052821Y-46915400D02*
X66052821Y-46915400D01*
X66052821Y-46915400D02*
X66357379Y-46915400D01*
X66357379Y-46128000D02*
X66357379Y-46128000D01*
X66357379Y-46128000D02*
X66498800Y-45986579D01*
X66498800Y-45986579D02*
X66498800Y-45986579D01*
X66498800Y-45986579D02*
X66498800Y-45682021D01*
X66498800Y-45682021D02*
X66498800Y-45682021D01*
X66498800Y-45682021D02*
X66357379Y-45540600D01*
X66357379Y-45540600D02*
X66357379Y-45540600D01*
X66357379Y-45540600D02*
X66052821Y-45540600D01*
X66052821Y-45540600D02*
X66052821Y-45540600D01*
X66052821Y-45540600D02*
X65911400Y-45682021D01*
X65911400Y-45682021D02*
X65911400Y-45682021D01*
X65911400Y-45682021D02*
X65911400Y-45986579D01*
X65911400Y-45986579D02*
X65911400Y-45986579D01*
X65911400Y-45986579D02*
X66052821Y-46128000D01*
X66052821Y-46128000D02*
X66052821Y-46128000D01*
X66052821Y-46128000D02*
X66357379Y-46128000D01*
X66357379Y-45340600D02*
X66357379Y-45340600D01*
X66357379Y-45340600D02*
X66498800Y-45199179D01*
X66498800Y-45199179D02*
X66498800Y-45199179D01*
X66498800Y-45199179D02*
X66498800Y-44894621D01*
X66498800Y-44894621D02*
X66498800Y-44894621D01*
X66498800Y-44894621D02*
X66357379Y-44753200D01*
X66357379Y-44753200D02*
X66357379Y-44753200D01*
X66357379Y-44753200D02*
X66052821Y-44753200D01*
X66052821Y-44753200D02*
X66052821Y-44753200D01*
X66052821Y-44753200D02*
X65911400Y-44894621D01*
X65911400Y-44894621D02*
X65911400Y-44894621D01*
X65911400Y-44894621D02*
X65911400Y-45199179D01*
X65911400Y-45199179D02*
X65911400Y-45199179D01*
X65911400Y-45199179D02*
X66052821Y-45340600D01*
X66052821Y-45340600D02*
X66052821Y-45340600D01*
X66052821Y-45340600D02*
X66357379Y-45340600D01*
X66357379Y-44553200D02*
X66357379Y-44553200D01*
X66357379Y-44553200D02*
X66498800Y-44411779D01*
X66498800Y-44411779D02*
X66498800Y-44411779D01*
X66498800Y-44411779D02*
X66498800Y-44102931D01*
X66498800Y-44102931D02*
X65911400Y-44102931D01*
X65911400Y-44102931D02*
X65911400Y-44411779D01*
X65911400Y-44411779D02*
X65911400Y-44411779D01*
X65911400Y-44411779D02*
X66052821Y-44553200D01*
X66052821Y-44553200D02*
X66052821Y-44553200D01*
X66052821Y-44553200D02*
X66357379Y-44553200D01*
X65711400Y-48353069D02*
X65711400Y-48044221D01*
X65711400Y-48044221D02*
X65711400Y-48044221D01*
X65711400Y-48044221D02*
X65569979Y-47902800D01*
X65569979Y-47902800D02*
X65569979Y-47902800D01*
X65569979Y-47902800D02*
X65265421Y-47902800D01*
X65265421Y-47902800D02*
X65265421Y-47902800D01*
X65265421Y-47902800D02*
X65124000Y-48044221D01*
X65124000Y-48044221D02*
X65124000Y-48044221D01*
X65124000Y-48044221D02*
X65124000Y-48353069D01*
X65124000Y-48353069D02*
X65711400Y-48353069D01*
X65569979Y-47702800D02*
X65569979Y-47702800D01*
X65569979Y-47702800D02*
X65711400Y-47561379D01*
X65711400Y-47561379D02*
X65711400Y-47561379D01*
X65711400Y-47561379D02*
X65711400Y-47256821D01*
X65711400Y-47256821D02*
X65711400Y-47256821D01*
X65711400Y-47256821D02*
X65569979Y-47115400D01*
X65569979Y-47115400D02*
X65569979Y-47115400D01*
X65569979Y-47115400D02*
X65265421Y-47115400D01*
X65265421Y-47115400D02*
X65265421Y-47115400D01*
X65265421Y-47115400D02*
X65124000Y-47256821D01*
X65124000Y-47256821D02*
X65124000Y-47256821D01*
X65124000Y-47256821D02*
X65124000Y-47561379D01*
X65124000Y-47561379D02*
X65124000Y-47561379D01*
X65124000Y-47561379D02*
X65265421Y-47702800D01*
X65265421Y-47702800D02*
X65265421Y-47702800D01*
X65265421Y-47702800D02*
X65569979Y-47702800D01*
X65569979Y-46915400D02*
X65569979Y-46915400D01*
X65569979Y-46915400D02*
X65711400Y-46773979D01*
X65711400Y-46773979D02*
X65711400Y-46773979D01*
X65711400Y-46773979D02*
X65711400Y-46469421D01*
X65711400Y-46469421D02*
X65711400Y-46469421D01*
X65711400Y-46469421D02*
X65569979Y-46328000D01*
X65569979Y-46328000D02*
X65569979Y-46328000D01*
X65569979Y-46328000D02*
X65265421Y-46328000D01*
X65265421Y-46328000D02*
X65265421Y-46328000D01*
X65265421Y-46328000D02*
X65124000Y-46469421D01*
X65124000Y-46469421D02*
X65124000Y-46469421D01*
X65124000Y-46469421D02*
X65124000Y-46773979D01*
X65124000Y-46773979D02*
X65124000Y-46773979D01*
X65124000Y-46773979D02*
X65265421Y-46915400D01*
X65265421Y-46915400D02*
X65265421Y-46915400D01*
X65265421Y-46915400D02*
X65569979Y-46915400D01*
X65569979Y-46128000D02*
X65569979Y-46128000D01*
X65569979Y-46128000D02*
X65711400Y-45986579D01*
X65711400Y-45986579D02*
X65711400Y-45986579D01*
X65711400Y-45986579D02*
X65711400Y-45682021D01*
X65711400Y-45682021D02*
X65711400Y-45682021D01*
X65711400Y-45682021D02*
X65569979Y-45540600D01*
X65569979Y-45540600D02*
X65569979Y-45540600D01*
X65569979Y-45540600D02*
X65265421Y-45540600D01*
X65265421Y-45540600D02*
X65265421Y-45540600D01*
X65265421Y-45540600D02*
X65124000Y-45682021D01*
X65124000Y-45682021D02*
X65124000Y-45682021D01*
X65124000Y-45682021D02*
X65124000Y-45986579D01*
X65124000Y-45986579D02*
X65124000Y-45986579D01*
X65124000Y-45986579D02*
X65265421Y-46128000D01*
X65265421Y-46128000D02*
X65265421Y-46128000D01*
X65265421Y-46128000D02*
X65569979Y-46128000D01*
X65569979Y-45340600D02*
X65569979Y-45340600D01*
X65569979Y-45340600D02*
X65711400Y-45199179D01*
X65711400Y-45199179D02*
X65711400Y-45199179D01*
X65711400Y-45199179D02*
X65711400Y-44894621D01*
X65711400Y-44894621D02*
X65711400Y-44894621D01*
X65711400Y-44894621D02*
X65569979Y-44753200D01*
X65569979Y-44753200D02*
X65569979Y-44753200D01*
X65569979Y-44753200D02*
X65265421Y-44753200D01*
X65265421Y-44753200D02*
X65265421Y-44753200D01*
X65265421Y-44753200D02*
X65124000Y-44894621D01*
X65124000Y-44894621D02*
X65124000Y-44894621D01*
X65124000Y-44894621D02*
X65124000Y-45199179D01*
X65124000Y-45199179D02*
X65124000Y-45199179D01*
X65124000Y-45199179D02*
X65265421Y-45340600D01*
X65265421Y-45340600D02*
X65265421Y-45340600D01*
X65265421Y-45340600D02*
X65569979Y-45340600D01*
X65569979Y-44553200D02*
X65569979Y-44553200D01*
X65569979Y-44553200D02*
X65711400Y-44411779D01*
X65711400Y-44411779D02*
X65711400Y-44411779D01*
X65711400Y-44411779D02*
X65711400Y-44102931D01*
X65711400Y-44102931D02*
X65124000Y-44102931D01*
X65124000Y-44102931D02*
X65124000Y-44411779D01*
X65124000Y-44411779D02*
X65124000Y-44411779D01*
X65124000Y-44411779D02*
X65265421Y-44553200D01*
X65265421Y-44553200D02*
X65265421Y-44553200D01*
X65265421Y-44553200D02*
X65569979Y-44553200D01*
X64924000Y-48353069D02*
X64924000Y-48044221D01*
X64924000Y-48044221D02*
X64924000Y-48044221D01*
X64924000Y-48044221D02*
X64782579Y-47902800D01*
X64782579Y-47902800D02*
X64782579Y-47902800D01*
X64782579Y-47902800D02*
X64478021Y-47902800D01*
X64478021Y-47902800D02*
X64478021Y-47902800D01*
X64478021Y-47902800D02*
X64336600Y-48044221D01*
X64336600Y-48044221D02*
X64336600Y-48044221D01*
X64336600Y-48044221D02*
X64336600Y-48353069D01*
X64336600Y-48353069D02*
X64924000Y-48353069D01*
X64782579Y-47702800D02*
X64782579Y-47702800D01*
X64782579Y-47702800D02*
X64924000Y-47561379D01*
X64924000Y-47561379D02*
X64924000Y-47561379D01*
X64924000Y-47561379D02*
X64924000Y-47256821D01*
X64924000Y-47256821D02*
X64924000Y-47256821D01*
X64924000Y-47256821D02*
X64782579Y-47115400D01*
X64782579Y-47115400D02*
X64782579Y-47115400D01*
X64782579Y-47115400D02*
X64478021Y-47115400D01*
X64478021Y-47115400D02*
X64478021Y-47115400D01*
X64478021Y-47115400D02*
X64336600Y-47256821D01*
X64336600Y-47256821D02*
X64336600Y-47256821D01*
X64336600Y-47256821D02*
X64336600Y-47561379D01*
X64336600Y-47561379D02*
X64336600Y-47561379D01*
X64336600Y-47561379D02*
X64478021Y-47702800D01*
X64478021Y-47702800D02*
X64478021Y-47702800D01*
X64478021Y-47702800D02*
X64782579Y-47702800D01*
X64782579Y-46915400D02*
X64782579Y-46915400D01*
X64782579Y-46915400D02*
X64924000Y-46773979D01*
X64924000Y-46773979D02*
X64924000Y-46773979D01*
X64924000Y-46773979D02*
X64924000Y-46469421D01*
X64924000Y-46469421D02*
X64924000Y-46469421D01*
X64924000Y-46469421D02*
X64782579Y-46328000D01*
X64782579Y-46328000D02*
X64782579Y-46328000D01*
X64782579Y-46328000D02*
X64478021Y-46328000D01*
X64478021Y-46328000D02*
X64478021Y-46328000D01*
X64478021Y-46328000D02*
X64336600Y-46469421D01*
X64336600Y-46469421D02*
X64336600Y-46469421D01*
X64336600Y-46469421D02*
X64336600Y-46773979D01*
X64336600Y-46773979D02*
X64336600Y-46773979D01*
X64336600Y-46773979D02*
X64478021Y-46915400D01*
X64478021Y-46915400D02*
X64478021Y-46915400D01*
X64478021Y-46915400D02*
X64782579Y-46915400D01*
X64782579Y-46128000D02*
X64782579Y-46128000D01*
X64782579Y-46128000D02*
X64924000Y-45986579D01*
X64924000Y-45986579D02*
X64924000Y-45986579D01*
X64924000Y-45986579D02*
X64924000Y-45682021D01*
X64924000Y-45682021D02*
X64924000Y-45682021D01*
X64924000Y-45682021D02*
X64782579Y-45540600D01*
X64782579Y-45540600D02*
X64782579Y-45540600D01*
X64782579Y-45540600D02*
X64478021Y-45540600D01*
X64478021Y-45540600D02*
X64478021Y-45540600D01*
X64478021Y-45540600D02*
X64336600Y-45682021D01*
X64336600Y-45682021D02*
X64336600Y-45682021D01*
X64336600Y-45682021D02*
X64336600Y-45986579D01*
X64336600Y-45986579D02*
X64336600Y-45986579D01*
X64336600Y-45986579D02*
X64478021Y-46128000D01*
X64478021Y-46128000D02*
X64478021Y-46128000D01*
X64478021Y-46128000D02*
X64782579Y-46128000D01*
X64782579Y-45340600D02*
X64782579Y-45340600D01*
X64782579Y-45340600D02*
X64924000Y-45199179D01*
X64924000Y-45199179D02*
X64924000Y-45199179D01*
X64924000Y-45199179D02*
X64924000Y-44894621D01*
X64924000Y-44894621D02*
X64924000Y-44894621D01*
X64924000Y-44894621D02*
X64782579Y-44753200D01*
X64782579Y-44753200D02*
X64782579Y-44753200D01*
X64782579Y-44753200D02*
X64478021Y-44753200D01*
X64478021Y-44753200D02*
X64478021Y-44753200D01*
X64478021Y-44753200D02*
X64336600Y-44894621D01*
X64336600Y-44894621D02*
X64336600Y-44894621D01*
X64336600Y-44894621D02*
X64336600Y-45199179D01*
X64336600Y-45199179D02*
X64336600Y-45199179D01*
X64336600Y-45199179D02*
X64478021Y-45340600D01*
X64478021Y-45340600D02*
X64478021Y-45340600D01*
X64478021Y-45340600D02*
X64782579Y-45340600D01*
X64782579Y-44553200D02*
X64782579Y-44553200D01*
X64782579Y-44553200D02*
X64924000Y-44411779D01*
X64924000Y-44411779D02*
X64924000Y-44411779D01*
X64924000Y-44411779D02*
X64924000Y-44102931D01*
X64924000Y-44102931D02*
X64336600Y-44102931D01*
X64336600Y-44102931D02*
X64336600Y-44411779D01*
X64336600Y-44411779D02*
X64336600Y-44411779D01*
X64336600Y-44411779D02*
X64478021Y-44553200D01*
X64478021Y-44553200D02*
X64478021Y-44553200D01*
X64478021Y-44553200D02*
X64782579Y-44553200D01*
X64136600Y-48353069D02*
X64136600Y-48044221D01*
X64136600Y-48044221D02*
X64136600Y-48044221D01*
X64136600Y-48044221D02*
X63995179Y-47902800D01*
X63995179Y-47902800D02*
X63995179Y-47902800D01*
X63995179Y-47902800D02*
X63690621Y-47902800D01*
X63690621Y-47902800D02*
X63690621Y-47902800D01*
X63690621Y-47902800D02*
X63549200Y-48044221D01*
X63549200Y-48044221D02*
X63549200Y-48044221D01*
X63549200Y-48044221D02*
X63549200Y-48353069D01*
X63549200Y-48353069D02*
X64136600Y-48353069D01*
X63995179Y-47702800D02*
X63995179Y-47702800D01*
X63995179Y-47702800D02*
X64136600Y-47561379D01*
X64136600Y-47561379D02*
X64136600Y-47561379D01*
X64136600Y-47561379D02*
X64136600Y-47256821D01*
X64136600Y-47256821D02*
X64136600Y-47256821D01*
X64136600Y-47256821D02*
X63995179Y-47115400D01*
X63995179Y-47115400D02*
X63995179Y-47115400D01*
X63995179Y-47115400D02*
X63690621Y-47115400D01*
X63690621Y-47115400D02*
X63690621Y-47115400D01*
X63690621Y-47115400D02*
X63549200Y-47256821D01*
X63549200Y-47256821D02*
X63549200Y-47256821D01*
X63549200Y-47256821D02*
X63549200Y-47561379D01*
X63549200Y-47561379D02*
X63549200Y-47561379D01*
X63549200Y-47561379D02*
X63690621Y-47702800D01*
X63690621Y-47702800D02*
X63690621Y-47702800D01*
X63690621Y-47702800D02*
X63995179Y-47702800D01*
X63995179Y-46915400D02*
X63995179Y-46915400D01*
X63995179Y-46915400D02*
X64136600Y-46773979D01*
X64136600Y-46773979D02*
X64136600Y-46773979D01*
X64136600Y-46773979D02*
X64136600Y-46469421D01*
X64136600Y-46469421D02*
X64136600Y-46469421D01*
X64136600Y-46469421D02*
X63995179Y-46328000D01*
X63995179Y-46328000D02*
X63995179Y-46328000D01*
X63995179Y-46328000D02*
X63690621Y-46328000D01*
X63690621Y-46328000D02*
X63690621Y-46328000D01*
X63690621Y-46328000D02*
X63549200Y-46469421D01*
X63549200Y-46469421D02*
X63549200Y-46469421D01*
X63549200Y-46469421D02*
X63549200Y-46773979D01*
X63549200Y-46773979D02*
X63549200Y-46773979D01*
X63549200Y-46773979D02*
X63690621Y-46915400D01*
X63690621Y-46915400D02*
X63690621Y-46915400D01*
X63690621Y-46915400D02*
X63995179Y-46915400D01*
X63995179Y-46128000D02*
X63995179Y-46128000D01*
X63995179Y-46128000D02*
X64136600Y-45986579D01*
X64136600Y-45986579D02*
X64136600Y-45986579D01*
X64136600Y-45986579D02*
X64136600Y-45682021D01*
X64136600Y-45682021D02*
X64136600Y-45682021D01*
X64136600Y-45682021D02*
X63995179Y-45540600D01*
X63995179Y-45540600D02*
X63995179Y-45540600D01*
X63995179Y-45540600D02*
X63690621Y-45540600D01*
X63690621Y-45540600D02*
X63690621Y-45540600D01*
X63690621Y-45540600D02*
X63549200Y-45682021D01*
X63549200Y-45682021D02*
X63549200Y-45682021D01*
X63549200Y-45682021D02*
X63549200Y-45986579D01*
X63549200Y-45986579D02*
X63549200Y-45986579D01*
X63549200Y-45986579D02*
X63690621Y-46128000D01*
X63690621Y-46128000D02*
X63690621Y-46128000D01*
X63690621Y-46128000D02*
X63995179Y-46128000D01*
X63995179Y-45340600D02*
X63995179Y-45340600D01*
X63995179Y-45340600D02*
X64136600Y-45199179D01*
X64136600Y-45199179D02*
X64136600Y-45199179D01*
X64136600Y-45199179D02*
X64136600Y-44894621D01*
X64136600Y-44894621D02*
X64136600Y-44894621D01*
X64136600Y-44894621D02*
X63995179Y-44753200D01*
X63995179Y-44753200D02*
X63995179Y-44753200D01*
X63995179Y-44753200D02*
X63690621Y-44753200D01*
X63690621Y-44753200D02*
X63690621Y-44753200D01*
X63690621Y-44753200D02*
X63549200Y-44894621D01*
X63549200Y-44894621D02*
X63549200Y-44894621D01*
X63549200Y-44894621D02*
X63549200Y-45199179D01*
X63549200Y-45199179D02*
X63549200Y-45199179D01*
X63549200Y-45199179D02*
X63690621Y-45340600D01*
X63690621Y-45340600D02*
X63690621Y-45340600D01*
X63690621Y-45340600D02*
X63995179Y-45340600D01*
X63995179Y-44553200D02*
X63995179Y-44553200D01*
X63995179Y-44553200D02*
X64136600Y-44411779D01*
X64136600Y-44411779D02*
X64136600Y-44411779D01*
X64136600Y-44411779D02*
X64136600Y-44102931D01*
X64136600Y-44102931D02*
X63549200Y-44102931D01*
X63549200Y-44102931D02*
X63549200Y-44411779D01*
X63549200Y-44411779D02*
X63549200Y-44411779D01*
X63549200Y-44411779D02*
X63690621Y-44553200D01*
X63690621Y-44553200D02*
X63690621Y-44553200D01*
X63690621Y-44553200D02*
X63995179Y-44553200D01*
X63349200Y-48353069D02*
X63349200Y-48044221D01*
X63349200Y-48044221D02*
X63349200Y-48044221D01*
X63349200Y-48044221D02*
X63207779Y-47902800D01*
X63207779Y-47902800D02*
X63207779Y-47902800D01*
X63207779Y-47902800D02*
X62898931Y-47902800D01*
X62898931Y-47902800D02*
X62898931Y-48353069D01*
X62898931Y-48353069D02*
X63349200Y-48353069D01*
X63207779Y-47702800D02*
X63207779Y-47702800D01*
X63207779Y-47702800D02*
X63349200Y-47561379D01*
X63349200Y-47561379D02*
X63349200Y-47561379D01*
X63349200Y-47561379D02*
X63349200Y-47256821D01*
X63349200Y-47256821D02*
X63349200Y-47256821D01*
X63349200Y-47256821D02*
X63207779Y-47115400D01*
X63207779Y-47115400D02*
X63207779Y-47115400D01*
X63207779Y-47115400D02*
X62898931Y-47115400D01*
X62898931Y-47115400D02*
X62898931Y-47702800D01*
X62898931Y-47702800D02*
X63207779Y-47702800D01*
X63207779Y-46915400D02*
X63207779Y-46915400D01*
X63207779Y-46915400D02*
X63349200Y-46773979D01*
X63349200Y-46773979D02*
X63349200Y-46773979D01*
X63349200Y-46773979D02*
X63349200Y-46469421D01*
X63349200Y-46469421D02*
X63349200Y-46469421D01*
X63349200Y-46469421D02*
X63207779Y-46328000D01*
X63207779Y-46328000D02*
X63207779Y-46328000D01*
X63207779Y-46328000D02*
X62898931Y-46328000D01*
X62898931Y-46328000D02*
X62898931Y-46915400D01*
X62898931Y-46915400D02*
X63207779Y-46915400D01*
X63207779Y-46128000D02*
X63207779Y-46128000D01*
X63207779Y-46128000D02*
X63349200Y-45986579D01*
X63349200Y-45986579D02*
X63349200Y-45986579D01*
X63349200Y-45986579D02*
X63349200Y-45682021D01*
X63349200Y-45682021D02*
X63349200Y-45682021D01*
X63349200Y-45682021D02*
X63207779Y-45540600D01*
X63207779Y-45540600D02*
X63207779Y-45540600D01*
X63207779Y-45540600D02*
X62898931Y-45540600D01*
X62898931Y-45540600D02*
X62898931Y-46128000D01*
X62898931Y-46128000D02*
X63207779Y-46128000D01*
X63207779Y-45340600D02*
X63207779Y-45340600D01*
X63207779Y-45340600D02*
X63349200Y-45199179D01*
X63349200Y-45199179D02*
X63349200Y-45199179D01*
X63349200Y-45199179D02*
X63349200Y-44894621D01*
X63349200Y-44894621D02*
X63349200Y-44894621D01*
X63349200Y-44894621D02*
X63207779Y-44753200D01*
X63207779Y-44753200D02*
X63207779Y-44753200D01*
X63207779Y-44753200D02*
X62898931Y-44753200D01*
X62898931Y-44753200D02*
X62898931Y-45340600D01*
X62898931Y-45340600D02*
X63207779Y-45340600D01*
X63207779Y-44553200D02*
X63207779Y-44553200D01*
X63207779Y-44553200D02*
X63349200Y-44411779D01*
X63349200Y-44411779D02*
X63349200Y-44411779D01*
X63349200Y-44411779D02*
X63349200Y-44102931D01*
X63349200Y-44102931D02*
X62898931Y-44102931D01*
X62898931Y-44102931D02*
X62898931Y-44553200D01*
X62898931Y-44553200D02*
X63207779Y-44553200D01*
G36*
G01*
X48925000Y-32275000D02*
X48925000Y-31725000D01*
G75*
G02*
X49125000Y-31525000I200000J0D01*
G01*
X49525000Y-31525000D01*
G75*
G02*
X49725000Y-31725000I0J-200000D01*
G01*
X49725000Y-32275000D01*
G75*
G02*
X49525000Y-32475000I-200000J0D01*
G01*
X49125000Y-32475000D01*
G75*
G02*
X48925000Y-32275000I0J200000D01*
G01*
G37*
G36*
G01*
X47275000Y-32275000D02*
X47275000Y-31725000D01*
G75*
G02*
X47475000Y-31525000I200000J0D01*
G01*
X47875000Y-31525000D01*
G75*
G02*
X48075000Y-31725000I0J-200000D01*
G01*
X48075000Y-32275000D01*
G75*
G02*
X47875000Y-32475000I-200000J0D01*
G01*
X47475000Y-32475000D01*
G75*
G02*
X47275000Y-32275000I0J200000D01*
G01*
G37*
D11*
X36500000Y-42350000D03*
X36500000Y-45650000D03*
D12*
X118588300Y-45727399D03*
X118588300Y-45227400D03*
X118588300Y-44727399D03*
X118588300Y-44227400D03*
X118588300Y-43727398D03*
X118588300Y-43227399D03*
X118588300Y-42727400D03*
X118588300Y-42227399D03*
X118588300Y-41727400D03*
X118588300Y-41227398D03*
X118588300Y-40727399D03*
X118588300Y-40227400D03*
X118588300Y-39727399D03*
X118588300Y-39227400D03*
X118588300Y-38727398D03*
X118588300Y-38227399D03*
X118588300Y-37727400D03*
X118588300Y-37227398D03*
X118588300Y-36727399D03*
X118588300Y-36227400D03*
X118588300Y-35727399D03*
X118588300Y-35227400D03*
X118588300Y-34727398D03*
X118588300Y-34227399D03*
X118588300Y-33727400D03*
X118588300Y-33227399D03*
X118588300Y-32727400D03*
X118588300Y-32227398D03*
X118588300Y-31727399D03*
X118588300Y-31227400D03*
X118588300Y-30727399D03*
X118588300Y-30227400D03*
X118588300Y-29727398D03*
D13*
X122601500Y-28075400D03*
X122601500Y-47379400D03*
D14*
X115850000Y-61600000D03*
X95350000Y-61600000D03*
D15*
X113850000Y-58600000D03*
X113350000Y-58600000D03*
X112850000Y-58600000D03*
X112350000Y-58600000D03*
X111850000Y-58600000D03*
X111350000Y-58600000D03*
X110850000Y-58600000D03*
X110350000Y-58600000D03*
X109850000Y-58600000D03*
X109350000Y-58600000D03*
X108850000Y-58600000D03*
X108350000Y-58600000D03*
X107850000Y-58600000D03*
X107350000Y-58600000D03*
X106850000Y-58600000D03*
X106350000Y-58600000D03*
X105850000Y-58600000D03*
X105350000Y-58600000D03*
X104850000Y-58600000D03*
X104350000Y-58600000D03*
X103850000Y-58600000D03*
X103350000Y-58600000D03*
X102850000Y-58600000D03*
X102350000Y-58600000D03*
X101850000Y-58600000D03*
X101350000Y-58600000D03*
X100850000Y-58600000D03*
X100350000Y-58600000D03*
X99850000Y-58600000D03*
X99350000Y-58600000D03*
X98850000Y-58600000D03*
X98350000Y-58600000D03*
X97850000Y-58600000D03*
X97350000Y-58600000D03*
D16*
X90500000Y-61725000D03*
X77700000Y-61725000D03*
D17*
X89800000Y-62000000D03*
D18*
X89500000Y-59000000D03*
D17*
X89200000Y-62000000D03*
D18*
X88900000Y-59000000D03*
D17*
X88600000Y-62000000D03*
D18*
X88300000Y-59000000D03*
D17*
X88000000Y-62000000D03*
D18*
X87700000Y-59000000D03*
D17*
X87400000Y-62000000D03*
D18*
X87100000Y-59000000D03*
D17*
X86800000Y-62000000D03*
D18*
X86500000Y-59000000D03*
D17*
X86200000Y-62000000D03*
D18*
X85900000Y-59000000D03*
D17*
X85600000Y-62000000D03*
D18*
X85300000Y-59000000D03*
D17*
X85000000Y-62000000D03*
D18*
X84700000Y-59000000D03*
D17*
X84400000Y-62000000D03*
D18*
X84100000Y-59000000D03*
D17*
X83800000Y-62000000D03*
D18*
X83500000Y-59000000D03*
D17*
X83200000Y-62000000D03*
D18*
X82900000Y-59000000D03*
D17*
X82600000Y-62000000D03*
D18*
X82300000Y-59000000D03*
D17*
X82000000Y-62000000D03*
D18*
X81700000Y-59000000D03*
D17*
X81400000Y-62000000D03*
D18*
X81100000Y-59000000D03*
D17*
X80800000Y-62000000D03*
D18*
X80500000Y-59000000D03*
D17*
X80200000Y-62000000D03*
D18*
X79900000Y-59000000D03*
D17*
X79600000Y-62000000D03*
D18*
X79300000Y-59000000D03*
D17*
X79000000Y-62000000D03*
D18*
X78700000Y-59000000D03*
D17*
X78400000Y-62000000D03*
G36*
G01*
X65125000Y-22450000D02*
X66075000Y-22450000D01*
G75*
G02*
X66325000Y-22700000I0J-250000D01*
G01*
X66325000Y-23200000D01*
G75*
G02*
X66075000Y-23450000I-250000J0D01*
G01*
X65125000Y-23450000D01*
G75*
G02*
X64875000Y-23200000I0J250000D01*
G01*
X64875000Y-22700000D01*
G75*
G02*
X65125000Y-22450000I250000J0D01*
G01*
G37*
G36*
G01*
X65125000Y-20550000D02*
X66075000Y-20550000D01*
G75*
G02*
X66325000Y-20800000I0J-250000D01*
G01*
X66325000Y-21300000D01*
G75*
G02*
X66075000Y-21550000I-250000J0D01*
G01*
X65125000Y-21550000D01*
G75*
G02*
X64875000Y-21300000I0J250000D01*
G01*
X64875000Y-20800000D01*
G75*
G02*
X65125000Y-20550000I250000J0D01*
G01*
G37*
G36*
G01*
X74110000Y-47973000D02*
X74110000Y-47023000D01*
G75*
G02*
X74360000Y-46773000I250000J0D01*
G01*
X74860000Y-46773000D01*
G75*
G02*
X75110000Y-47023000I0J-250000D01*
G01*
X75110000Y-47973000D01*
G75*
G02*
X74860000Y-48223000I-250000J0D01*
G01*
X74360000Y-48223000D01*
G75*
G02*
X74110000Y-47973000I0J250000D01*
G01*
G37*
G36*
G01*
X72210000Y-47973000D02*
X72210000Y-47023000D01*
G75*
G02*
X72460000Y-46773000I250000J0D01*
G01*
X72960000Y-46773000D01*
G75*
G02*
X73210000Y-47023000I0J-250000D01*
G01*
X73210000Y-47973000D01*
G75*
G02*
X72960000Y-48223000I-250000J0D01*
G01*
X72460000Y-48223000D01*
G75*
G02*
X72210000Y-47973000I0J250000D01*
G01*
G37*
G36*
G01*
X77300000Y-41075000D02*
X77300000Y-40125000D01*
G75*
G02*
X77550000Y-39875000I250000J0D01*
G01*
X78050000Y-39875000D01*
G75*
G02*
X78300000Y-40125000I0J-250000D01*
G01*
X78300000Y-41075000D01*
G75*
G02*
X78050000Y-41325000I-250000J0D01*
G01*
X77550000Y-41325000D01*
G75*
G02*
X77300000Y-41075000I0J250000D01*
G01*
G37*
G36*
G01*
X79200000Y-41075000D02*
X79200000Y-40125000D01*
G75*
G02*
X79450000Y-39875000I250000J0D01*
G01*
X79950000Y-39875000D01*
G75*
G02*
X80200000Y-40125000I0J-250000D01*
G01*
X80200000Y-41075000D01*
G75*
G02*
X79950000Y-41325000I-250000J0D01*
G01*
X79450000Y-41325000D01*
G75*
G02*
X79200000Y-41075000I0J250000D01*
G01*
G37*
G36*
G01*
X80200000Y-46325000D02*
X80200000Y-47275000D01*
G75*
G02*
X79950000Y-47525000I-250000J0D01*
G01*
X79450000Y-47525000D01*
G75*
G02*
X79200000Y-47275000I0J250000D01*
G01*
X79200000Y-46325000D01*
G75*
G02*
X79450000Y-46075000I250000J0D01*
G01*
X79950000Y-46075000D01*
G75*
G02*
X80200000Y-46325000I0J-250000D01*
G01*
G37*
G36*
G01*
X78300000Y-46325000D02*
X78300000Y-47275000D01*
G75*
G02*
X78050000Y-47525000I-250000J0D01*
G01*
X77550000Y-47525000D01*
G75*
G02*
X77300000Y-47275000I0J250000D01*
G01*
X77300000Y-46325000D01*
G75*
G02*
X77550000Y-46075000I250000J0D01*
G01*
X78050000Y-46075000D01*
G75*
G02*
X78300000Y-46325000I0J-250000D01*
G01*
G37*
G36*
G01*
X73210000Y-44749700D02*
X73210000Y-45699700D01*
G75*
G02*
X72960000Y-45949700I-250000J0D01*
G01*
X72460000Y-45949700D01*
G75*
G02*
X72210000Y-45699700I0J250000D01*
G01*
X72210000Y-44749700D01*
G75*
G02*
X72460000Y-44499700I250000J0D01*
G01*
X72960000Y-44499700D01*
G75*
G02*
X73210000Y-44749700I0J-250000D01*
G01*
G37*
G36*
G01*
X75110000Y-44749700D02*
X75110000Y-45699700D01*
G75*
G02*
X74860000Y-45949700I-250000J0D01*
G01*
X74360000Y-45949700D01*
G75*
G02*
X74110000Y-45699700I0J250000D01*
G01*
X74110000Y-44749700D01*
G75*
G02*
X74360000Y-44499700I250000J0D01*
G01*
X74860000Y-44499700D01*
G75*
G02*
X75110000Y-44749700I0J-250000D01*
G01*
G37*
G36*
G01*
X70645000Y-38296000D02*
X71595000Y-38296000D01*
G75*
G02*
X71845000Y-38546000I0J-250000D01*
G01*
X71845000Y-39046000D01*
G75*
G02*
X71595000Y-39296000I-250000J0D01*
G01*
X70645000Y-39296000D01*
G75*
G02*
X70395000Y-39046000I0J250000D01*
G01*
X70395000Y-38546000D01*
G75*
G02*
X70645000Y-38296000I250000J0D01*
G01*
G37*
G36*
G01*
X70645000Y-36396000D02*
X71595000Y-36396000D01*
G75*
G02*
X71845000Y-36646000I0J-250000D01*
G01*
X71845000Y-37146000D01*
G75*
G02*
X71595000Y-37396000I-250000J0D01*
G01*
X70645000Y-37396000D01*
G75*
G02*
X70395000Y-37146000I0J250000D01*
G01*
X70395000Y-36646000D01*
G75*
G02*
X70645000Y-36396000I250000J0D01*
G01*
G37*
G36*
G01*
X69309000Y-37396000D02*
X68359000Y-37396000D01*
G75*
G02*
X68109000Y-37146000I0J250000D01*
G01*
X68109000Y-36646000D01*
G75*
G02*
X68359000Y-36396000I250000J0D01*
G01*
X69309000Y-36396000D01*
G75*
G02*
X69559000Y-36646000I0J-250000D01*
G01*
X69559000Y-37146000D01*
G75*
G02*
X69309000Y-37396000I-250000J0D01*
G01*
G37*
G36*
G01*
X69309000Y-39296000D02*
X68359000Y-39296000D01*
G75*
G02*
X68109000Y-39046000I0J250000D01*
G01*
X68109000Y-38546000D01*
G75*
G02*
X68359000Y-38296000I250000J0D01*
G01*
X69309000Y-38296000D01*
G75*
G02*
X69559000Y-38546000I0J-250000D01*
G01*
X69559000Y-39046000D01*
G75*
G02*
X69309000Y-39296000I-250000J0D01*
G01*
G37*
G36*
G01*
X73210000Y-49309000D02*
X73210000Y-50259000D01*
G75*
G02*
X72960000Y-50509000I-250000J0D01*
G01*
X72460000Y-50509000D01*
G75*
G02*
X72210000Y-50259000I0J250000D01*
G01*
X72210000Y-49309000D01*
G75*
G02*
X72460000Y-49059000I250000J0D01*
G01*
X72960000Y-49059000D01*
G75*
G02*
X73210000Y-49309000I0J-250000D01*
G01*
G37*
G36*
G01*
X75110000Y-49309000D02*
X75110000Y-50259000D01*
G75*
G02*
X74860000Y-50509000I-250000J0D01*
G01*
X74360000Y-50509000D01*
G75*
G02*
X74110000Y-50259000I0J250000D01*
G01*
X74110000Y-49309000D01*
G75*
G02*
X74360000Y-49059000I250000J0D01*
G01*
X74860000Y-49059000D01*
G75*
G02*
X75110000Y-49309000I0J-250000D01*
G01*
G37*
G36*
G01*
X74110000Y-41115000D02*
X74110000Y-40165000D01*
G75*
G02*
X74360000Y-39915000I250000J0D01*
G01*
X74860000Y-39915000D01*
G75*
G02*
X75110000Y-40165000I0J-250000D01*
G01*
X75110000Y-41115000D01*
G75*
G02*
X74860000Y-41365000I-250000J0D01*
G01*
X74360000Y-41365000D01*
G75*
G02*
X74110000Y-41115000I0J250000D01*
G01*
G37*
G36*
G01*
X72210000Y-41115000D02*
X72210000Y-40165000D01*
G75*
G02*
X72460000Y-39915000I250000J0D01*
G01*
X72960000Y-39915000D01*
G75*
G02*
X73210000Y-40165000I0J-250000D01*
G01*
X73210000Y-41115000D01*
G75*
G02*
X72960000Y-41365000I-250000J0D01*
G01*
X72460000Y-41365000D01*
G75*
G02*
X72210000Y-41115000I0J250000D01*
G01*
G37*
G36*
G01*
X73210000Y-51595000D02*
X73210000Y-52545000D01*
G75*
G02*
X72960000Y-52795000I-250000J0D01*
G01*
X72460000Y-52795000D01*
G75*
G02*
X72210000Y-52545000I0J250000D01*
G01*
X72210000Y-51595000D01*
G75*
G02*
X72460000Y-51345000I250000J0D01*
G01*
X72960000Y-51345000D01*
G75*
G02*
X73210000Y-51595000I0J-250000D01*
G01*
G37*
G36*
G01*
X75110000Y-51595000D02*
X75110000Y-52545000D01*
G75*
G02*
X74860000Y-52795000I-250000J0D01*
G01*
X74360000Y-52795000D01*
G75*
G02*
X74110000Y-52545000I0J250000D01*
G01*
X74110000Y-51595000D01*
G75*
G02*
X74360000Y-51345000I250000J0D01*
G01*
X74860000Y-51345000D01*
G75*
G02*
X75110000Y-51595000I0J-250000D01*
G01*
G37*
G36*
G01*
X62197000Y-38412000D02*
X61247000Y-38412000D01*
G75*
G02*
X60997000Y-38162000I0J250000D01*
G01*
X60997000Y-37662000D01*
G75*
G02*
X61247000Y-37412000I250000J0D01*
G01*
X62197000Y-37412000D01*
G75*
G02*
X62447000Y-37662000I0J-250000D01*
G01*
X62447000Y-38162000D01*
G75*
G02*
X62197000Y-38412000I-250000J0D01*
G01*
G37*
G36*
G01*
X62197000Y-40312000D02*
X61247000Y-40312000D01*
G75*
G02*
X60997000Y-40062000I0J250000D01*
G01*
X60997000Y-39562000D01*
G75*
G02*
X61247000Y-39312000I250000J0D01*
G01*
X62197000Y-39312000D01*
G75*
G02*
X62447000Y-39562000I0J-250000D01*
G01*
X62447000Y-40062000D01*
G75*
G02*
X62197000Y-40312000I-250000J0D01*
G01*
G37*
G36*
G01*
X122255000Y-50443000D02*
X122255000Y-49493000D01*
G75*
G02*
X122505000Y-49243000I250000J0D01*
G01*
X123005000Y-49243000D01*
G75*
G02*
X123255000Y-49493000I0J-250000D01*
G01*
X123255000Y-50443000D01*
G75*
G02*
X123005000Y-50693000I-250000J0D01*
G01*
X122505000Y-50693000D01*
G75*
G02*
X122255000Y-50443000I0J250000D01*
G01*
G37*
G36*
G01*
X120355000Y-50443000D02*
X120355000Y-49493000D01*
G75*
G02*
X120605000Y-49243000I250000J0D01*
G01*
X121105000Y-49243000D01*
G75*
G02*
X121355000Y-49493000I0J-250000D01*
G01*
X121355000Y-50443000D01*
G75*
G02*
X121105000Y-50693000I-250000J0D01*
G01*
X120605000Y-50693000D01*
G75*
G02*
X120355000Y-50443000I0J250000D01*
G01*
G37*
G36*
G01*
X67023000Y-37396000D02*
X66073000Y-37396000D01*
G75*
G02*
X65823000Y-37146000I0J250000D01*
G01*
X65823000Y-36646000D01*
G75*
G02*
X66073000Y-36396000I250000J0D01*
G01*
X67023000Y-36396000D01*
G75*
G02*
X67273000Y-36646000I0J-250000D01*
G01*
X67273000Y-37146000D01*
G75*
G02*
X67023000Y-37396000I-250000J0D01*
G01*
G37*
G36*
G01*
X67023000Y-39296000D02*
X66073000Y-39296000D01*
G75*
G02*
X65823000Y-39046000I0J250000D01*
G01*
X65823000Y-38546000D01*
G75*
G02*
X66073000Y-38296000I250000J0D01*
G01*
X67023000Y-38296000D01*
G75*
G02*
X67273000Y-38546000I0J-250000D01*
G01*
X67273000Y-39046000D01*
G75*
G02*
X67023000Y-39296000I-250000J0D01*
G01*
G37*
G36*
G01*
X57117000Y-53906000D02*
X56167000Y-53906000D01*
G75*
G02*
X55917000Y-53656000I0J250000D01*
G01*
X55917000Y-53156000D01*
G75*
G02*
X56167000Y-52906000I250000J0D01*
G01*
X57117000Y-52906000D01*
G75*
G02*
X57367000Y-53156000I0J-250000D01*
G01*
X57367000Y-53656000D01*
G75*
G02*
X57117000Y-53906000I-250000J0D01*
G01*
G37*
G36*
G01*
X57117000Y-55806000D02*
X56167000Y-55806000D01*
G75*
G02*
X55917000Y-55556000I0J250000D01*
G01*
X55917000Y-55056000D01*
G75*
G02*
X56167000Y-54806000I250000J0D01*
G01*
X57117000Y-54806000D01*
G75*
G02*
X57367000Y-55056000I0J-250000D01*
G01*
X57367000Y-55556000D01*
G75*
G02*
X57117000Y-55806000I-250000J0D01*
G01*
G37*
G36*
G01*
X67404000Y-53906000D02*
X66454000Y-53906000D01*
G75*
G02*
X66204000Y-53656000I0J250000D01*
G01*
X66204000Y-53156000D01*
G75*
G02*
X66454000Y-52906000I250000J0D01*
G01*
X67404000Y-52906000D01*
G75*
G02*
X67654000Y-53156000I0J-250000D01*
G01*
X67654000Y-53656000D01*
G75*
G02*
X67404000Y-53906000I-250000J0D01*
G01*
G37*
G36*
G01*
X67404000Y-55806000D02*
X66454000Y-55806000D01*
G75*
G02*
X66204000Y-55556000I0J250000D01*
G01*
X66204000Y-55056000D01*
G75*
G02*
X66454000Y-54806000I250000J0D01*
G01*
X67404000Y-54806000D01*
G75*
G02*
X67654000Y-55056000I0J-250000D01*
G01*
X67654000Y-55556000D01*
G75*
G02*
X67404000Y-55806000I-250000J0D01*
G01*
G37*
G36*
G01*
X69563000Y-53906000D02*
X68613000Y-53906000D01*
G75*
G02*
X68363000Y-53656000I0J250000D01*
G01*
X68363000Y-53156000D01*
G75*
G02*
X68613000Y-52906000I250000J0D01*
G01*
X69563000Y-52906000D01*
G75*
G02*
X69813000Y-53156000I0J-250000D01*
G01*
X69813000Y-53656000D01*
G75*
G02*
X69563000Y-53906000I-250000J0D01*
G01*
G37*
G36*
G01*
X69563000Y-55806000D02*
X68613000Y-55806000D01*
G75*
G02*
X68363000Y-55556000I0J250000D01*
G01*
X68363000Y-55056000D01*
G75*
G02*
X68613000Y-54806000I250000J0D01*
G01*
X69563000Y-54806000D01*
G75*
G02*
X69813000Y-55056000I0J-250000D01*
G01*
X69813000Y-55556000D01*
G75*
G02*
X69563000Y-55806000I-250000J0D01*
G01*
G37*
G36*
G01*
X64737000Y-58859000D02*
X63787000Y-58859000D01*
G75*
G02*
X63537000Y-58609000I0J250000D01*
G01*
X63537000Y-58109000D01*
G75*
G02*
X63787000Y-57859000I250000J0D01*
G01*
X64737000Y-57859000D01*
G75*
G02*
X64987000Y-58109000I0J-250000D01*
G01*
X64987000Y-58609000D01*
G75*
G02*
X64737000Y-58859000I-250000J0D01*
G01*
G37*
G36*
G01*
X64737000Y-60759000D02*
X63787000Y-60759000D01*
G75*
G02*
X63537000Y-60509000I0J250000D01*
G01*
X63537000Y-60009000D01*
G75*
G02*
X63787000Y-59759000I250000J0D01*
G01*
X64737000Y-59759000D01*
G75*
G02*
X64987000Y-60009000I0J-250000D01*
G01*
X64987000Y-60509000D01*
G75*
G02*
X64737000Y-60759000I-250000J0D01*
G01*
G37*
D19*
X30500000Y-21065000D03*
D20*
X33925000Y-23765000D03*
D21*
X32150000Y-23765000D03*
X32800000Y-23765000D03*
X30200000Y-23765000D03*
X30850000Y-23765000D03*
X31500000Y-23765000D03*
D20*
X29075000Y-23765000D03*
D19*
X32500000Y-21065000D03*
D22*
X35100000Y-21065000D03*
X27900000Y-21065000D03*
D23*
X28600000Y-21065000D03*
X34400000Y-21065000D03*
D24*
X45724999Y-33299998D03*
X45074998Y-33299998D03*
X44424999Y-33299998D03*
X43774998Y-33299998D03*
X43774998Y-39199999D03*
X44424999Y-39199999D03*
X45074998Y-39199999D03*
X45724999Y-39199999D03*
G36*
G01*
X41175000Y-31325000D02*
X41175000Y-31875000D01*
G75*
G02*
X40975000Y-32075000I-200000J0D01*
G01*
X40575000Y-32075000D01*
G75*
G02*
X40375000Y-31875000I0J200000D01*
G01*
X40375000Y-31325000D01*
G75*
G02*
X40575000Y-31125000I200000J0D01*
G01*
X40975000Y-31125000D01*
G75*
G02*
X41175000Y-31325000I0J-200000D01*
G01*
G37*
G36*
G01*
X42825000Y-31325000D02*
X42825000Y-31875000D01*
G75*
G02*
X42625000Y-32075000I-200000J0D01*
G01*
X42225000Y-32075000D01*
G75*
G02*
X42025000Y-31875000I0J200000D01*
G01*
X42025000Y-31325000D01*
G75*
G02*
X42225000Y-31125000I200000J0D01*
G01*
X42625000Y-31125000D01*
G75*
G02*
X42825000Y-31325000I0J-200000D01*
G01*
G37*
G36*
G01*
X41450000Y-42075000D02*
X41450000Y-41125000D01*
G75*
G02*
X41700000Y-40875000I250000J0D01*
G01*
X42200000Y-40875000D01*
G75*
G02*
X42450000Y-41125000I0J-250000D01*
G01*
X42450000Y-42075000D01*
G75*
G02*
X42200000Y-42325000I-250000J0D01*
G01*
X41700000Y-42325000D01*
G75*
G02*
X41450000Y-42075000I0J250000D01*
G01*
G37*
G36*
G01*
X39550000Y-42075000D02*
X39550000Y-41125000D01*
G75*
G02*
X39800000Y-40875000I250000J0D01*
G01*
X40300000Y-40875000D01*
G75*
G02*
X40550000Y-41125000I0J-250000D01*
G01*
X40550000Y-42075000D01*
G75*
G02*
X40300000Y-42325000I-250000J0D01*
G01*
X39800000Y-42325000D01*
G75*
G02*
X39550000Y-42075000I0J250000D01*
G01*
G37*
G36*
G01*
X49725000Y-35550000D02*
X48775000Y-35550000D01*
G75*
G02*
X48525000Y-35300000I0J250000D01*
G01*
X48525000Y-34800000D01*
G75*
G02*
X48775000Y-34550000I250000J0D01*
G01*
X49725000Y-34550000D01*
G75*
G02*
X49975000Y-34800000I0J-250000D01*
G01*
X49975000Y-35300000D01*
G75*
G02*
X49725000Y-35550000I-250000J0D01*
G01*
G37*
G36*
G01*
X49725000Y-37450000D02*
X48775000Y-37450000D01*
G75*
G02*
X48525000Y-37200000I0J250000D01*
G01*
X48525000Y-36700000D01*
G75*
G02*
X48775000Y-36450000I250000J0D01*
G01*
X49725000Y-36450000D01*
G75*
G02*
X49975000Y-36700000I0J-250000D01*
G01*
X49975000Y-37200000D01*
G75*
G02*
X49725000Y-37450000I-250000J0D01*
G01*
G37*
D25*
X95500000Y-34030000D03*
D26*
X86900000Y-27110000D03*
X86900000Y-28380000D03*
X86900000Y-29650000D03*
X86900000Y-30920000D03*
X86900000Y-32190000D03*
X86900000Y-33460000D03*
X86900000Y-34730000D03*
X86900000Y-36000000D03*
X86900000Y-37270000D03*
X86900000Y-38540000D03*
X86900000Y-39810000D03*
X86900000Y-41080000D03*
X86900000Y-42350000D03*
X86900000Y-43620000D03*
X86900000Y-44920000D03*
X86900000Y-46190000D03*
X86900000Y-47460000D03*
X86900000Y-48730000D03*
X86900000Y-50000000D03*
X104900000Y-50000000D03*
X104900000Y-48730000D03*
X104900000Y-47460000D03*
X104900000Y-46190000D03*
X104900000Y-44920000D03*
X104930000Y-43620000D03*
X104930000Y-42350000D03*
X104930000Y-41080000D03*
X104930000Y-39810000D03*
X104930000Y-38540000D03*
X104930000Y-37270000D03*
X104930000Y-36000000D03*
X104930000Y-34730000D03*
X104930000Y-33460000D03*
X104930000Y-32190000D03*
X104930000Y-30920000D03*
X104930000Y-29650000D03*
X104930000Y-28380000D03*
X104930000Y-27110000D03*
D27*
X65024000Y-46228000D03*
D28*
X67224001Y-49203000D03*
X66823999Y-49203000D03*
X66424000Y-49203000D03*
X66024001Y-49203000D03*
X65623999Y-49203000D03*
X65224000Y-49203000D03*
X64824000Y-49203000D03*
X64424001Y-49203000D03*
X64023999Y-49203000D03*
X63624000Y-49203000D03*
X63224001Y-49203000D03*
X62823999Y-49203000D03*
D29*
X62049000Y-48428001D03*
X62049000Y-48027999D03*
X62049000Y-47628000D03*
X62049000Y-47228001D03*
X62049000Y-46827999D03*
X62049000Y-46428000D03*
X62049000Y-46028000D03*
X62049000Y-45628001D03*
X62049000Y-45227999D03*
X62049000Y-44828000D03*
X62049000Y-44428001D03*
X62049000Y-44027999D03*
D28*
X62823999Y-43253000D03*
X63224001Y-43253000D03*
X63624000Y-43253000D03*
X64023999Y-43253000D03*
X64424001Y-43253000D03*
X64824000Y-43253000D03*
X65224000Y-43253000D03*
X65623999Y-43253000D03*
X66024001Y-43253000D03*
X66424000Y-43253000D03*
X66823999Y-43253000D03*
X67224001Y-43253000D03*
D29*
X67999000Y-44027999D03*
X67999000Y-44428001D03*
X67999000Y-44828000D03*
X67999000Y-45227999D03*
X67999000Y-45628001D03*
X67999000Y-46028000D03*
X67999000Y-46428000D03*
X67999000Y-46827999D03*
X67999000Y-47228001D03*
X67999000Y-47628000D03*
X67999000Y-48027999D03*
X67999000Y-48428001D03*
G36*
G01*
X113325000Y-51141000D02*
X113325000Y-51691000D01*
G75*
G02*
X113125000Y-51891000I-200000J0D01*
G01*
X112725000Y-51891000D01*
G75*
G02*
X112525000Y-51691000I0J200000D01*
G01*
X112525000Y-51141000D01*
G75*
G02*
X112725000Y-50941000I200000J0D01*
G01*
X113125000Y-50941000D01*
G75*
G02*
X113325000Y-51141000I0J-200000D01*
G01*
G37*
G36*
G01*
X114975000Y-51141000D02*
X114975000Y-51691000D01*
G75*
G02*
X114775000Y-51891000I-200000J0D01*
G01*
X114375000Y-51891000D01*
G75*
G02*
X114175000Y-51691000I0J200000D01*
G01*
X114175000Y-51141000D01*
G75*
G02*
X114375000Y-50941000I200000J0D01*
G01*
X114775000Y-50941000D01*
G75*
G02*
X114975000Y-51141000I0J-200000D01*
G01*
G37*
D11*
X64389000Y-53341000D03*
X64389000Y-56641000D03*
G36*
G01*
X55938000Y-44991000D02*
X55938000Y-45941000D01*
G75*
G02*
X55688000Y-46191000I-250000J0D01*
G01*
X55188000Y-46191000D01*
G75*
G02*
X54938000Y-45941000I0J250000D01*
G01*
X54938000Y-44991000D01*
G75*
G02*
X55188000Y-44741000I250000J0D01*
G01*
X55688000Y-44741000D01*
G75*
G02*
X55938000Y-44991000I0J-250000D01*
G01*
G37*
G36*
G01*
X57838000Y-44991000D02*
X57838000Y-45941000D01*
G75*
G02*
X57588000Y-46191000I-250000J0D01*
G01*
X57088000Y-46191000D01*
G75*
G02*
X56838000Y-45941000I0J250000D01*
G01*
X56838000Y-44991000D01*
G75*
G02*
X57088000Y-44741000I250000J0D01*
G01*
X57588000Y-44741000D01*
G75*
G02*
X57838000Y-44991000I0J-250000D01*
G01*
G37*
G36*
G01*
X113325000Y-55221000D02*
X113325000Y-55771000D01*
G75*
G02*
X113125000Y-55971000I-200000J0D01*
G01*
X112725000Y-55971000D01*
G75*
G02*
X112525000Y-55771000I0J200000D01*
G01*
X112525000Y-55221000D01*
G75*
G02*
X112725000Y-55021000I200000J0D01*
G01*
X113125000Y-55021000D01*
G75*
G02*
X113325000Y-55221000I0J-200000D01*
G01*
G37*
G36*
G01*
X114975000Y-55221000D02*
X114975000Y-55771000D01*
G75*
G02*
X114775000Y-55971000I-200000J0D01*
G01*
X114375000Y-55971000D01*
G75*
G02*
X114175000Y-55771000I0J200000D01*
G01*
X114175000Y-55221000D01*
G75*
G02*
X114375000Y-55021000I200000J0D01*
G01*
X114775000Y-55021000D01*
G75*
G02*
X114975000Y-55221000I0J-200000D01*
G01*
G37*
G36*
G01*
X121913000Y-54515000D02*
X121913000Y-53965000D01*
G75*
G02*
X122113000Y-53765000I200000J0D01*
G01*
X122513000Y-53765000D01*
G75*
G02*
X122713000Y-53965000I0J-200000D01*
G01*
X122713000Y-54515000D01*
G75*
G02*
X122513000Y-54715000I-200000J0D01*
G01*
X122113000Y-54715000D01*
G75*
G02*
X121913000Y-54515000I0J200000D01*
G01*
G37*
G36*
G01*
X120263000Y-54515000D02*
X120263000Y-53965000D01*
G75*
G02*
X120463000Y-53765000I200000J0D01*
G01*
X120863000Y-53765000D01*
G75*
G02*
X121063000Y-53965000I0J-200000D01*
G01*
X121063000Y-54515000D01*
G75*
G02*
X120863000Y-54715000I-200000J0D01*
G01*
X120463000Y-54715000D01*
G75*
G02*
X120263000Y-54515000I0J200000D01*
G01*
G37*
G36*
G01*
X113325000Y-47225000D02*
X113325000Y-47775000D01*
G75*
G02*
X113125000Y-47975000I-200000J0D01*
G01*
X112725000Y-47975000D01*
G75*
G02*
X112525000Y-47775000I0J200000D01*
G01*
X112525000Y-47225000D01*
G75*
G02*
X112725000Y-47025000I200000J0D01*
G01*
X113125000Y-47025000D01*
G75*
G02*
X113325000Y-47225000I0J-200000D01*
G01*
G37*
G36*
G01*
X114975000Y-47225000D02*
X114975000Y-47775000D01*
G75*
G02*
X114775000Y-47975000I-200000J0D01*
G01*
X114375000Y-47975000D01*
G75*
G02*
X114175000Y-47775000I0J200000D01*
G01*
X114175000Y-47225000D01*
G75*
G02*
X114375000Y-47025000I200000J0D01*
G01*
X114775000Y-47025000D01*
G75*
G02*
X114975000Y-47225000I0J-200000D01*
G01*
G37*
G36*
G01*
X121976000Y-58579000D02*
X121976000Y-58029000D01*
G75*
G02*
X122176000Y-57829000I200000J0D01*
G01*
X122576000Y-57829000D01*
G75*
G02*
X122776000Y-58029000I0J-200000D01*
G01*
X122776000Y-58579000D01*
G75*
G02*
X122576000Y-58779000I-200000J0D01*
G01*
X122176000Y-58779000D01*
G75*
G02*
X121976000Y-58579000I0J200000D01*
G01*
G37*
G36*
G01*
X120326000Y-58579000D02*
X120326000Y-58029000D01*
G75*
G02*
X120526000Y-57829000I200000J0D01*
G01*
X120926000Y-57829000D01*
G75*
G02*
X121126000Y-58029000I0J-200000D01*
G01*
X121126000Y-58579000D01*
G75*
G02*
X120926000Y-58779000I-200000J0D01*
G01*
X120526000Y-58779000D01*
G75*
G02*
X120326000Y-58579000I0J200000D01*
G01*
G37*
G36*
G01*
X69250000Y-32275000D02*
X69250000Y-31725000D01*
G75*
G02*
X69450000Y-31525000I200000J0D01*
G01*
X69850000Y-31525000D01*
G75*
G02*
X70050000Y-31725000I0J-200000D01*
G01*
X70050000Y-32275000D01*
G75*
G02*
X69850000Y-32475000I-200000J0D01*
G01*
X69450000Y-32475000D01*
G75*
G02*
X69250000Y-32275000I0J200000D01*
G01*
G37*
G36*
G01*
X67600000Y-32275000D02*
X67600000Y-31725000D01*
G75*
G02*
X67800000Y-31525000I200000J0D01*
G01*
X68200000Y-31525000D01*
G75*
G02*
X68400000Y-31725000I0J-200000D01*
G01*
X68400000Y-32275000D01*
G75*
G02*
X68200000Y-32475000I-200000J0D01*
G01*
X67800000Y-32475000D01*
G75*
G02*
X67600000Y-32275000I0J200000D01*
G01*
G37*
G36*
G01*
X49105000Y-48493000D02*
X49105000Y-49043000D01*
G75*
G02*
X48905000Y-49243000I-200000J0D01*
G01*
X48505000Y-49243000D01*
G75*
G02*
X48305000Y-49043000I0J200000D01*
G01*
X48305000Y-48493000D01*
G75*
G02*
X48505000Y-48293000I200000J0D01*
G01*
X48905000Y-48293000D01*
G75*
G02*
X49105000Y-48493000I0J-200000D01*
G01*
G37*
G36*
G01*
X50755000Y-48493000D02*
X50755000Y-49043000D01*
G75*
G02*
X50555000Y-49243000I-200000J0D01*
G01*
X50155000Y-49243000D01*
G75*
G02*
X49955000Y-49043000I0J200000D01*
G01*
X49955000Y-48493000D01*
G75*
G02*
X50155000Y-48293000I200000J0D01*
G01*
X50555000Y-48293000D01*
G75*
G02*
X50755000Y-48493000I0J-200000D01*
G01*
G37*
G36*
G01*
X52407000Y-48493000D02*
X52407000Y-49043000D01*
G75*
G02*
X52207000Y-49243000I-200000J0D01*
G01*
X51807000Y-49243000D01*
G75*
G02*
X51607000Y-49043000I0J200000D01*
G01*
X51607000Y-48493000D01*
G75*
G02*
X51807000Y-48293000I200000J0D01*
G01*
X52207000Y-48293000D01*
G75*
G02*
X52407000Y-48493000I0J-200000D01*
G01*
G37*
G36*
G01*
X54057000Y-48493000D02*
X54057000Y-49043000D01*
G75*
G02*
X53857000Y-49243000I-200000J0D01*
G01*
X53457000Y-49243000D01*
G75*
G02*
X53257000Y-49043000I0J200000D01*
G01*
X53257000Y-48493000D01*
G75*
G02*
X53457000Y-48293000I200000J0D01*
G01*
X53857000Y-48293000D01*
G75*
G02*
X54057000Y-48493000I0J-200000D01*
G01*
G37*
G36*
G01*
X28825000Y-47946000D02*
X28825000Y-48496000D01*
G75*
G02*
X28625000Y-48696000I-200000J0D01*
G01*
X28225000Y-48696000D01*
G75*
G02*
X28025000Y-48496000I0J200000D01*
G01*
X28025000Y-47946000D01*
G75*
G02*
X28225000Y-47746000I200000J0D01*
G01*
X28625000Y-47746000D01*
G75*
G02*
X28825000Y-47946000I0J-200000D01*
G01*
G37*
G36*
G01*
X30475000Y-47946000D02*
X30475000Y-48496000D01*
G75*
G02*
X30275000Y-48696000I-200000J0D01*
G01*
X29875000Y-48696000D01*
G75*
G02*
X29675000Y-48496000I0J200000D01*
G01*
X29675000Y-47946000D01*
G75*
G02*
X29875000Y-47746000I200000J0D01*
G01*
X30275000Y-47746000D01*
G75*
G02*
X30475000Y-47946000I0J-200000D01*
G01*
G37*
G36*
G01*
X32099000Y-47946000D02*
X32099000Y-48496000D01*
G75*
G02*
X31899000Y-48696000I-200000J0D01*
G01*
X31499000Y-48696000D01*
G75*
G02*
X31299000Y-48496000I0J200000D01*
G01*
X31299000Y-47946000D01*
G75*
G02*
X31499000Y-47746000I200000J0D01*
G01*
X31899000Y-47746000D01*
G75*
G02*
X32099000Y-47946000I0J-200000D01*
G01*
G37*
G36*
G01*
X33749000Y-47946000D02*
X33749000Y-48496000D01*
G75*
G02*
X33549000Y-48696000I-200000J0D01*
G01*
X33149000Y-48696000D01*
G75*
G02*
X32949000Y-48496000I0J200000D01*
G01*
X32949000Y-47946000D01*
G75*
G02*
X33149000Y-47746000I200000J0D01*
G01*
X33549000Y-47746000D01*
G75*
G02*
X33749000Y-47946000I0J-200000D01*
G01*
G37*
G36*
G01*
X49105000Y-46207000D02*
X49105000Y-46757000D01*
G75*
G02*
X48905000Y-46957000I-200000J0D01*
G01*
X48505000Y-46957000D01*
G75*
G02*
X48305000Y-46757000I0J200000D01*
G01*
X48305000Y-46207000D01*
G75*
G02*
X48505000Y-46007000I200000J0D01*
G01*
X48905000Y-46007000D01*
G75*
G02*
X49105000Y-46207000I0J-200000D01*
G01*
G37*
G36*
G01*
X50755000Y-46207000D02*
X50755000Y-46757000D01*
G75*
G02*
X50555000Y-46957000I-200000J0D01*
G01*
X50155000Y-46957000D01*
G75*
G02*
X49955000Y-46757000I0J200000D01*
G01*
X49955000Y-46207000D01*
G75*
G02*
X50155000Y-46007000I200000J0D01*
G01*
X50555000Y-46007000D01*
G75*
G02*
X50755000Y-46207000I0J-200000D01*
G01*
G37*
G36*
G01*
X52407000Y-46207000D02*
X52407000Y-46757000D01*
G75*
G02*
X52207000Y-46957000I-200000J0D01*
G01*
X51807000Y-46957000D01*
G75*
G02*
X51607000Y-46757000I0J200000D01*
G01*
X51607000Y-46207000D01*
G75*
G02*
X51807000Y-46007000I200000J0D01*
G01*
X52207000Y-46007000D01*
G75*
G02*
X52407000Y-46207000I0J-200000D01*
G01*
G37*
G36*
G01*
X54057000Y-46207000D02*
X54057000Y-46757000D01*
G75*
G02*
X53857000Y-46957000I-200000J0D01*
G01*
X53457000Y-46957000D01*
G75*
G02*
X53257000Y-46757000I0J200000D01*
G01*
X53257000Y-46207000D01*
G75*
G02*
X53457000Y-46007000I200000J0D01*
G01*
X53857000Y-46007000D01*
G75*
G02*
X54057000Y-46207000I0J-200000D01*
G01*
G37*
G36*
G01*
X72356200Y-55421600D02*
X71806200Y-55421600D01*
G75*
G02*
X71606200Y-55221600I0J200000D01*
G01*
X71606200Y-54821600D01*
G75*
G02*
X71806200Y-54621600I200000J0D01*
G01*
X72356200Y-54621600D01*
G75*
G02*
X72556200Y-54821600I0J-200000D01*
G01*
X72556200Y-55221600D01*
G75*
G02*
X72356200Y-55421600I-200000J0D01*
G01*
G37*
G36*
G01*
X72356200Y-57071600D02*
X71806200Y-57071600D01*
G75*
G02*
X71606200Y-56871600I0J200000D01*
G01*
X71606200Y-56471600D01*
G75*
G02*
X71806200Y-56271600I200000J0D01*
G01*
X72356200Y-56271600D01*
G75*
G02*
X72556200Y-56471600I0J-200000D01*
G01*
X72556200Y-56871600D01*
G75*
G02*
X72356200Y-57071600I-200000J0D01*
G01*
G37*
G36*
G01*
X61575000Y-31725000D02*
X61575000Y-32275000D01*
G75*
G02*
X61375000Y-32475000I-200000J0D01*
G01*
X60975000Y-32475000D01*
G75*
G02*
X60775000Y-32275000I0J200000D01*
G01*
X60775000Y-31725000D01*
G75*
G02*
X60975000Y-31525000I200000J0D01*
G01*
X61375000Y-31525000D01*
G75*
G02*
X61575000Y-31725000I0J-200000D01*
G01*
G37*
G36*
G01*
X63225000Y-31725000D02*
X63225000Y-32275000D01*
G75*
G02*
X63025000Y-32475000I-200000J0D01*
G01*
X62625000Y-32475000D01*
G75*
G02*
X62425000Y-32275000I0J200000D01*
G01*
X62425000Y-31725000D01*
G75*
G02*
X62625000Y-31525000I200000J0D01*
G01*
X63025000Y-31525000D01*
G75*
G02*
X63225000Y-31725000I0J-200000D01*
G01*
G37*
G36*
G01*
X77675000Y-31525000D02*
X77675000Y-30975000D01*
G75*
G02*
X77875000Y-30775000I200000J0D01*
G01*
X78275000Y-30775000D01*
G75*
G02*
X78475000Y-30975000I0J-200000D01*
G01*
X78475000Y-31525000D01*
G75*
G02*
X78275000Y-31725000I-200000J0D01*
G01*
X77875000Y-31725000D01*
G75*
G02*
X77675000Y-31525000I0J200000D01*
G01*
G37*
G36*
G01*
X76025000Y-31525000D02*
X76025000Y-30975000D01*
G75*
G02*
X76225000Y-30775000I200000J0D01*
G01*
X76625000Y-30775000D01*
G75*
G02*
X76825000Y-30975000I0J-200000D01*
G01*
X76825000Y-31525000D01*
G75*
G02*
X76625000Y-31725000I-200000J0D01*
G01*
X76225000Y-31725000D01*
G75*
G02*
X76025000Y-31525000I0J200000D01*
G01*
G37*
G36*
G01*
X61575000Y-29925000D02*
X61575000Y-30475000D01*
G75*
G02*
X61375000Y-30675000I-200000J0D01*
G01*
X60975000Y-30675000D01*
G75*
G02*
X60775000Y-30475000I0J200000D01*
G01*
X60775000Y-29925000D01*
G75*
G02*
X60975000Y-29725000I200000J0D01*
G01*
X61375000Y-29725000D01*
G75*
G02*
X61575000Y-29925000I0J-200000D01*
G01*
G37*
G36*
G01*
X63225000Y-29925000D02*
X63225000Y-30475000D01*
G75*
G02*
X63025000Y-30675000I-200000J0D01*
G01*
X62625000Y-30675000D01*
G75*
G02*
X62425000Y-30475000I0J200000D01*
G01*
X62425000Y-29925000D01*
G75*
G02*
X62625000Y-29725000I200000J0D01*
G01*
X63025000Y-29725000D01*
G75*
G02*
X63225000Y-29925000I0J-200000D01*
G01*
G37*
G36*
G01*
X109772000Y-46122000D02*
X109772000Y-45572000D01*
G75*
G02*
X109972000Y-45372000I200000J0D01*
G01*
X110372000Y-45372000D01*
G75*
G02*
X110572000Y-45572000I0J-200000D01*
G01*
X110572000Y-46122000D01*
G75*
G02*
X110372000Y-46322000I-200000J0D01*
G01*
X109972000Y-46322000D01*
G75*
G02*
X109772000Y-46122000I0J200000D01*
G01*
G37*
G36*
G01*
X108122000Y-46122000D02*
X108122000Y-45572000D01*
G75*
G02*
X108322000Y-45372000I200000J0D01*
G01*
X108722000Y-45372000D01*
G75*
G02*
X108922000Y-45572000I0J-200000D01*
G01*
X108922000Y-46122000D01*
G75*
G02*
X108722000Y-46322000I-200000J0D01*
G01*
X108322000Y-46322000D01*
G75*
G02*
X108122000Y-46122000I0J200000D01*
G01*
G37*
G36*
G01*
X37075000Y-33725000D02*
X37075000Y-34275000D01*
G75*
G02*
X36875000Y-34475000I-200000J0D01*
G01*
X36475000Y-34475000D01*
G75*
G02*
X36275000Y-34275000I0J200000D01*
G01*
X36275000Y-33725000D01*
G75*
G02*
X36475000Y-33525000I200000J0D01*
G01*
X36875000Y-33525000D01*
G75*
G02*
X37075000Y-33725000I0J-200000D01*
G01*
G37*
G36*
G01*
X38725000Y-33725000D02*
X38725000Y-34275000D01*
G75*
G02*
X38525000Y-34475000I-200000J0D01*
G01*
X38125000Y-34475000D01*
G75*
G02*
X37925000Y-34275000I0J200000D01*
G01*
X37925000Y-33725000D01*
G75*
G02*
X38125000Y-33525000I200000J0D01*
G01*
X38525000Y-33525000D01*
G75*
G02*
X38725000Y-33725000I0J-200000D01*
G01*
G37*
G36*
G01*
X82625000Y-35475000D02*
X82625000Y-34925000D01*
G75*
G02*
X82825000Y-34725000I200000J0D01*
G01*
X83225000Y-34725000D01*
G75*
G02*
X83425000Y-34925000I0J-200000D01*
G01*
X83425000Y-35475000D01*
G75*
G02*
X83225000Y-35675000I-200000J0D01*
G01*
X82825000Y-35675000D01*
G75*
G02*
X82625000Y-35475000I0J200000D01*
G01*
G37*
G36*
G01*
X80975000Y-35475000D02*
X80975000Y-34925000D01*
G75*
G02*
X81175000Y-34725000I200000J0D01*
G01*
X81575000Y-34725000D01*
G75*
G02*
X81775000Y-34925000I0J-200000D01*
G01*
X81775000Y-35475000D01*
G75*
G02*
X81575000Y-35675000I-200000J0D01*
G01*
X81175000Y-35675000D01*
G75*
G02*
X80975000Y-35475000I0J200000D01*
G01*
G37*
G36*
G01*
X45275000Y-55075000D02*
X44725000Y-55075000D01*
G75*
G02*
X44525000Y-54875000I0J200000D01*
G01*
X44525000Y-54475000D01*
G75*
G02*
X44725000Y-54275000I200000J0D01*
G01*
X45275000Y-54275000D01*
G75*
G02*
X45475000Y-54475000I0J-200000D01*
G01*
X45475000Y-54875000D01*
G75*
G02*
X45275000Y-55075000I-200000J0D01*
G01*
G37*
G36*
G01*
X45275000Y-56725000D02*
X44725000Y-56725000D01*
G75*
G02*
X44525000Y-56525000I0J200000D01*
G01*
X44525000Y-56125000D01*
G75*
G02*
X44725000Y-55925000I200000J0D01*
G01*
X45275000Y-55925000D01*
G75*
G02*
X45475000Y-56125000I0J-200000D01*
G01*
X45475000Y-56525000D01*
G75*
G02*
X45275000Y-56725000I-200000J0D01*
G01*
G37*
G36*
G01*
X32325000Y-54783000D02*
X32325000Y-55333000D01*
G75*
G02*
X32125000Y-55533000I-200000J0D01*
G01*
X31725000Y-55533000D01*
G75*
G02*
X31525000Y-55333000I0J200000D01*
G01*
X31525000Y-54783000D01*
G75*
G02*
X31725000Y-54583000I200000J0D01*
G01*
X32125000Y-54583000D01*
G75*
G02*
X32325000Y-54783000I0J-200000D01*
G01*
G37*
G36*
G01*
X33975000Y-54783000D02*
X33975000Y-55333000D01*
G75*
G02*
X33775000Y-55533000I-200000J0D01*
G01*
X33375000Y-55533000D01*
G75*
G02*
X33175000Y-55333000I0J200000D01*
G01*
X33175000Y-54783000D01*
G75*
G02*
X33375000Y-54583000I200000J0D01*
G01*
X33775000Y-54583000D01*
G75*
G02*
X33975000Y-54783000I0J-200000D01*
G01*
G37*
G36*
G01*
X65825000Y-30475000D02*
X65825000Y-29925000D01*
G75*
G02*
X66025000Y-29725000I200000J0D01*
G01*
X66425000Y-29725000D01*
G75*
G02*
X66625000Y-29925000I0J-200000D01*
G01*
X66625000Y-30475000D01*
G75*
G02*
X66425000Y-30675000I-200000J0D01*
G01*
X66025000Y-30675000D01*
G75*
G02*
X65825000Y-30475000I0J200000D01*
G01*
G37*
G36*
G01*
X64175000Y-30475000D02*
X64175000Y-29925000D01*
G75*
G02*
X64375000Y-29725000I200000J0D01*
G01*
X64775000Y-29725000D01*
G75*
G02*
X64975000Y-29925000I0J-200000D01*
G01*
X64975000Y-30475000D01*
G75*
G02*
X64775000Y-30675000I-200000J0D01*
G01*
X64375000Y-30675000D01*
G75*
G02*
X64175000Y-30475000I0J200000D01*
G01*
G37*
G36*
G01*
X65725000Y-25675000D02*
X66275000Y-25675000D01*
G75*
G02*
X66475000Y-25875000I0J-200000D01*
G01*
X66475000Y-26275000D01*
G75*
G02*
X66275000Y-26475000I-200000J0D01*
G01*
X65725000Y-26475000D01*
G75*
G02*
X65525000Y-26275000I0J200000D01*
G01*
X65525000Y-25875000D01*
G75*
G02*
X65725000Y-25675000I200000J0D01*
G01*
G37*
G36*
G01*
X65725000Y-24025000D02*
X66275000Y-24025000D01*
G75*
G02*
X66475000Y-24225000I0J-200000D01*
G01*
X66475000Y-24625000D01*
G75*
G02*
X66275000Y-24825000I-200000J0D01*
G01*
X65725000Y-24825000D01*
G75*
G02*
X65525000Y-24625000I0J200000D01*
G01*
X65525000Y-24225000D01*
G75*
G02*
X65725000Y-24025000I200000J0D01*
G01*
G37*
G36*
G01*
X65825000Y-32275000D02*
X65825000Y-31725000D01*
G75*
G02*
X66025000Y-31525000I200000J0D01*
G01*
X66425000Y-31525000D01*
G75*
G02*
X66625000Y-31725000I0J-200000D01*
G01*
X66625000Y-32275000D01*
G75*
G02*
X66425000Y-32475000I-200000J0D01*
G01*
X66025000Y-32475000D01*
G75*
G02*
X65825000Y-32275000I0J200000D01*
G01*
G37*
G36*
G01*
X64175000Y-32275000D02*
X64175000Y-31725000D01*
G75*
G02*
X64375000Y-31525000I200000J0D01*
G01*
X64775000Y-31525000D01*
G75*
G02*
X64975000Y-31725000I0J-200000D01*
G01*
X64975000Y-32275000D01*
G75*
G02*
X64775000Y-32475000I-200000J0D01*
G01*
X64375000Y-32475000D01*
G75*
G02*
X64175000Y-32275000I0J200000D01*
G01*
G37*
G36*
G01*
X32325000Y-52475000D02*
X32325000Y-53025000D01*
G75*
G02*
X32125000Y-53225000I-200000J0D01*
G01*
X31725000Y-53225000D01*
G75*
G02*
X31525000Y-53025000I0J200000D01*
G01*
X31525000Y-52475000D01*
G75*
G02*
X31725000Y-52275000I200000J0D01*
G01*
X32125000Y-52275000D01*
G75*
G02*
X32325000Y-52475000I0J-200000D01*
G01*
G37*
G36*
G01*
X33975000Y-52475000D02*
X33975000Y-53025000D01*
G75*
G02*
X33775000Y-53225000I-200000J0D01*
G01*
X33375000Y-53225000D01*
G75*
G02*
X33175000Y-53025000I0J200000D01*
G01*
X33175000Y-52475000D01*
G75*
G02*
X33375000Y-52275000I200000J0D01*
G01*
X33775000Y-52275000D01*
G75*
G02*
X33975000Y-52475000I0J-200000D01*
G01*
G37*
G36*
G01*
X37925000Y-39775000D02*
X37925000Y-39225000D01*
G75*
G02*
X38125000Y-39025000I200000J0D01*
G01*
X38525000Y-39025000D01*
G75*
G02*
X38725000Y-39225000I0J-200000D01*
G01*
X38725000Y-39775000D01*
G75*
G02*
X38525000Y-39975000I-200000J0D01*
G01*
X38125000Y-39975000D01*
G75*
G02*
X37925000Y-39775000I0J200000D01*
G01*
G37*
G36*
G01*
X36275000Y-39775000D02*
X36275000Y-39225000D01*
G75*
G02*
X36475000Y-39025000I200000J0D01*
G01*
X36875000Y-39025000D01*
G75*
G02*
X37075000Y-39225000I0J-200000D01*
G01*
X37075000Y-39775000D01*
G75*
G02*
X36875000Y-39975000I-200000J0D01*
G01*
X36475000Y-39975000D01*
G75*
G02*
X36275000Y-39775000I0J200000D01*
G01*
G37*
G36*
G01*
X61125000Y-21125000D02*
X61125000Y-20925000D01*
G75*
G02*
X61225000Y-20825000I100000J0D01*
G01*
X62500000Y-20825000D01*
G75*
G02*
X62600000Y-20925000I0J-100000D01*
G01*
X62600000Y-21125000D01*
G75*
G02*
X62500000Y-21225000I-100000J0D01*
G01*
X61225000Y-21225000D01*
G75*
G02*
X61125000Y-21125000I0J100000D01*
G01*
G37*
G36*
G01*
X61125000Y-21775000D02*
X61125000Y-21575000D01*
G75*
G02*
X61225000Y-21475000I100000J0D01*
G01*
X62500000Y-21475000D01*
G75*
G02*
X62600000Y-21575000I0J-100000D01*
G01*
X62600000Y-21775000D01*
G75*
G02*
X62500000Y-21875000I-100000J0D01*
G01*
X61225000Y-21875000D01*
G75*
G02*
X61125000Y-21775000I0J100000D01*
G01*
G37*
G36*
G01*
X61125000Y-22425000D02*
X61125000Y-22225000D01*
G75*
G02*
X61225000Y-22125000I100000J0D01*
G01*
X62500000Y-22125000D01*
G75*
G02*
X62600000Y-22225000I0J-100000D01*
G01*
X62600000Y-22425000D01*
G75*
G02*
X62500000Y-22525000I-100000J0D01*
G01*
X61225000Y-22525000D01*
G75*
G02*
X61125000Y-22425000I0J100000D01*
G01*
G37*
G36*
G01*
X61125000Y-23075000D02*
X61125000Y-22875000D01*
G75*
G02*
X61225000Y-22775000I100000J0D01*
G01*
X62500000Y-22775000D01*
G75*
G02*
X62600000Y-22875000I0J-100000D01*
G01*
X62600000Y-23075000D01*
G75*
G02*
X62500000Y-23175000I-100000J0D01*
G01*
X61225000Y-23175000D01*
G75*
G02*
X61125000Y-23075000I0J100000D01*
G01*
G37*
G36*
G01*
X61125000Y-23725000D02*
X61125000Y-23525000D01*
G75*
G02*
X61225000Y-23425000I100000J0D01*
G01*
X62500000Y-23425000D01*
G75*
G02*
X62600000Y-23525000I0J-100000D01*
G01*
X62600000Y-23725000D01*
G75*
G02*
X62500000Y-23825000I-100000J0D01*
G01*
X61225000Y-23825000D01*
G75*
G02*
X61125000Y-23725000I0J100000D01*
G01*
G37*
G36*
G01*
X61125000Y-24375000D02*
X61125000Y-24175000D01*
G75*
G02*
X61225000Y-24075000I100000J0D01*
G01*
X62500000Y-24075000D01*
G75*
G02*
X62600000Y-24175000I0J-100000D01*
G01*
X62600000Y-24375000D01*
G75*
G02*
X62500000Y-24475000I-100000J0D01*
G01*
X61225000Y-24475000D01*
G75*
G02*
X61125000Y-24375000I0J100000D01*
G01*
G37*
G36*
G01*
X61125000Y-25025000D02*
X61125000Y-24825000D01*
G75*
G02*
X61225000Y-24725000I100000J0D01*
G01*
X62500000Y-24725000D01*
G75*
G02*
X62600000Y-24825000I0J-100000D01*
G01*
X62600000Y-25025000D01*
G75*
G02*
X62500000Y-25125000I-100000J0D01*
G01*
X61225000Y-25125000D01*
G75*
G02*
X61125000Y-25025000I0J100000D01*
G01*
G37*
G36*
G01*
X61125000Y-25675000D02*
X61125000Y-25475000D01*
G75*
G02*
X61225000Y-25375000I100000J0D01*
G01*
X62500000Y-25375000D01*
G75*
G02*
X62600000Y-25475000I0J-100000D01*
G01*
X62600000Y-25675000D01*
G75*
G02*
X62500000Y-25775000I-100000J0D01*
G01*
X61225000Y-25775000D01*
G75*
G02*
X61125000Y-25675000I0J100000D01*
G01*
G37*
G36*
G01*
X61125000Y-26325000D02*
X61125000Y-26125000D01*
G75*
G02*
X61225000Y-26025000I100000J0D01*
G01*
X62500000Y-26025000D01*
G75*
G02*
X62600000Y-26125000I0J-100000D01*
G01*
X62600000Y-26325000D01*
G75*
G02*
X62500000Y-26425000I-100000J0D01*
G01*
X61225000Y-26425000D01*
G75*
G02*
X61125000Y-26325000I0J100000D01*
G01*
G37*
G36*
G01*
X61125000Y-26975000D02*
X61125000Y-26775000D01*
G75*
G02*
X61225000Y-26675000I100000J0D01*
G01*
X62500000Y-26675000D01*
G75*
G02*
X62600000Y-26775000I0J-100000D01*
G01*
X62600000Y-26975000D01*
G75*
G02*
X62500000Y-27075000I-100000J0D01*
G01*
X61225000Y-27075000D01*
G75*
G02*
X61125000Y-26975000I0J100000D01*
G01*
G37*
G36*
G01*
X61125000Y-27625000D02*
X61125000Y-27425000D01*
G75*
G02*
X61225000Y-27325000I100000J0D01*
G01*
X62500000Y-27325000D01*
G75*
G02*
X62600000Y-27425000I0J-100000D01*
G01*
X62600000Y-27625000D01*
G75*
G02*
X62500000Y-27725000I-100000J0D01*
G01*
X61225000Y-27725000D01*
G75*
G02*
X61125000Y-27625000I0J100000D01*
G01*
G37*
G36*
G01*
X61125000Y-28275000D02*
X61125000Y-28075000D01*
G75*
G02*
X61225000Y-27975000I100000J0D01*
G01*
X62500000Y-27975000D01*
G75*
G02*
X62600000Y-28075000I0J-100000D01*
G01*
X62600000Y-28275000D01*
G75*
G02*
X62500000Y-28375000I-100000J0D01*
G01*
X61225000Y-28375000D01*
G75*
G02*
X61125000Y-28275000I0J100000D01*
G01*
G37*
G36*
G01*
X55400000Y-28275000D02*
X55400000Y-28075000D01*
G75*
G02*
X55500000Y-27975000I100000J0D01*
G01*
X56775000Y-27975000D01*
G75*
G02*
X56875000Y-28075000I0J-100000D01*
G01*
X56875000Y-28275000D01*
G75*
G02*
X56775000Y-28375000I-100000J0D01*
G01*
X55500000Y-28375000D01*
G75*
G02*
X55400000Y-28275000I0J100000D01*
G01*
G37*
G36*
G01*
X55400000Y-27625000D02*
X55400000Y-27425000D01*
G75*
G02*
X55500000Y-27325000I100000J0D01*
G01*
X56775000Y-27325000D01*
G75*
G02*
X56875000Y-27425000I0J-100000D01*
G01*
X56875000Y-27625000D01*
G75*
G02*
X56775000Y-27725000I-100000J0D01*
G01*
X55500000Y-27725000D01*
G75*
G02*
X55400000Y-27625000I0J100000D01*
G01*
G37*
G36*
G01*
X55400000Y-26975000D02*
X55400000Y-26775000D01*
G75*
G02*
X55500000Y-26675000I100000J0D01*
G01*
X56775000Y-26675000D01*
G75*
G02*
X56875000Y-26775000I0J-100000D01*
G01*
X56875000Y-26975000D01*
G75*
G02*
X56775000Y-27075000I-100000J0D01*
G01*
X55500000Y-27075000D01*
G75*
G02*
X55400000Y-26975000I0J100000D01*
G01*
G37*
G36*
G01*
X55400000Y-26325000D02*
X55400000Y-26125000D01*
G75*
G02*
X55500000Y-26025000I100000J0D01*
G01*
X56775000Y-26025000D01*
G75*
G02*
X56875000Y-26125000I0J-100000D01*
G01*
X56875000Y-26325000D01*
G75*
G02*
X56775000Y-26425000I-100000J0D01*
G01*
X55500000Y-26425000D01*
G75*
G02*
X55400000Y-26325000I0J100000D01*
G01*
G37*
G36*
G01*
X55400000Y-25675000D02*
X55400000Y-25475000D01*
G75*
G02*
X55500000Y-25375000I100000J0D01*
G01*
X56775000Y-25375000D01*
G75*
G02*
X56875000Y-25475000I0J-100000D01*
G01*
X56875000Y-25675000D01*
G75*
G02*
X56775000Y-25775000I-100000J0D01*
G01*
X55500000Y-25775000D01*
G75*
G02*
X55400000Y-25675000I0J100000D01*
G01*
G37*
G36*
G01*
X55400000Y-25025000D02*
X55400000Y-24825000D01*
G75*
G02*
X55500000Y-24725000I100000J0D01*
G01*
X56775000Y-24725000D01*
G75*
G02*
X56875000Y-24825000I0J-100000D01*
G01*
X56875000Y-25025000D01*
G75*
G02*
X56775000Y-25125000I-100000J0D01*
G01*
X55500000Y-25125000D01*
G75*
G02*
X55400000Y-25025000I0J100000D01*
G01*
G37*
G36*
G01*
X55400000Y-24375000D02*
X55400000Y-24175000D01*
G75*
G02*
X55500000Y-24075000I100000J0D01*
G01*
X56775000Y-24075000D01*
G75*
G02*
X56875000Y-24175000I0J-100000D01*
G01*
X56875000Y-24375000D01*
G75*
G02*
X56775000Y-24475000I-100000J0D01*
G01*
X55500000Y-24475000D01*
G75*
G02*
X55400000Y-24375000I0J100000D01*
G01*
G37*
G36*
G01*
X55400000Y-23725000D02*
X55400000Y-23525000D01*
G75*
G02*
X55500000Y-23425000I100000J0D01*
G01*
X56775000Y-23425000D01*
G75*
G02*
X56875000Y-23525000I0J-100000D01*
G01*
X56875000Y-23725000D01*
G75*
G02*
X56775000Y-23825000I-100000J0D01*
G01*
X55500000Y-23825000D01*
G75*
G02*
X55400000Y-23725000I0J100000D01*
G01*
G37*
G36*
G01*
X55400000Y-23075000D02*
X55400000Y-22875000D01*
G75*
G02*
X55500000Y-22775000I100000J0D01*
G01*
X56775000Y-22775000D01*
G75*
G02*
X56875000Y-22875000I0J-100000D01*
G01*
X56875000Y-23075000D01*
G75*
G02*
X56775000Y-23175000I-100000J0D01*
G01*
X55500000Y-23175000D01*
G75*
G02*
X55400000Y-23075000I0J100000D01*
G01*
G37*
G36*
G01*
X55400000Y-22425000D02*
X55400000Y-22225000D01*
G75*
G02*
X55500000Y-22125000I100000J0D01*
G01*
X56775000Y-22125000D01*
G75*
G02*
X56875000Y-22225000I0J-100000D01*
G01*
X56875000Y-22425000D01*
G75*
G02*
X56775000Y-22525000I-100000J0D01*
G01*
X55500000Y-22525000D01*
G75*
G02*
X55400000Y-22425000I0J100000D01*
G01*
G37*
G36*
G01*
X55400000Y-21775000D02*
X55400000Y-21575000D01*
G75*
G02*
X55500000Y-21475000I100000J0D01*
G01*
X56775000Y-21475000D01*
G75*
G02*
X56875000Y-21575000I0J-100000D01*
G01*
X56875000Y-21775000D01*
G75*
G02*
X56775000Y-21875000I-100000J0D01*
G01*
X55500000Y-21875000D01*
G75*
G02*
X55400000Y-21775000I0J100000D01*
G01*
G37*
G36*
G01*
X55400000Y-21125000D02*
X55400000Y-20925000D01*
G75*
G02*
X55500000Y-20825000I100000J0D01*
G01*
X56775000Y-20825000D01*
G75*
G02*
X56875000Y-20925000I0J-100000D01*
G01*
X56875000Y-21125000D01*
G75*
G02*
X56775000Y-21225000I-100000J0D01*
G01*
X55500000Y-21225000D01*
G75*
G02*
X55400000Y-21125000I0J100000D01*
G01*
G37*
G36*
G01*
X73838200Y-56271600D02*
X74388200Y-56271600D01*
G75*
G02*
X74588200Y-56471600I0J-200000D01*
G01*
X74588200Y-56871600D01*
G75*
G02*
X74388200Y-57071600I-200000J0D01*
G01*
X73838200Y-57071600D01*
G75*
G02*
X73638200Y-56871600I0J200000D01*
G01*
X73638200Y-56471600D01*
G75*
G02*
X73838200Y-56271600I200000J0D01*
G01*
G37*
G36*
G01*
X73838200Y-54621600D02*
X74388200Y-54621600D01*
G75*
G02*
X74588200Y-54821600I0J-200000D01*
G01*
X74588200Y-55221600D01*
G75*
G02*
X74388200Y-55421600I-200000J0D01*
G01*
X73838200Y-55421600D01*
G75*
G02*
X73638200Y-55221600I0J200000D01*
G01*
X73638200Y-54821600D01*
G75*
G02*
X73838200Y-54621600I200000J0D01*
G01*
G37*
D30*
X60706000Y-53853000D03*
X60706000Y-57653000D03*
D31*
X57658000Y-34834000D03*
X57658000Y-39334000D03*
D11*
X50800000Y-53974000D03*
X50800000Y-50674000D03*
X53340000Y-50674000D03*
X53340000Y-53974000D03*
X50800000Y-44830000D03*
X50800000Y-41530000D03*
X53340000Y-41530000D03*
X53340000Y-44830000D03*
X64262000Y-38988000D03*
X64262000Y-35688000D03*
G36*
G01*
X113528000Y-52989000D02*
X113528000Y-53939000D01*
G75*
G02*
X113278000Y-54189000I-250000J0D01*
G01*
X112778000Y-54189000D01*
G75*
G02*
X112528000Y-53939000I0J250000D01*
G01*
X112528000Y-52989000D01*
G75*
G02*
X112778000Y-52739000I250000J0D01*
G01*
X113278000Y-52739000D01*
G75*
G02*
X113528000Y-52989000I0J-250000D01*
G01*
G37*
G36*
G01*
X115428000Y-52989000D02*
X115428000Y-53939000D01*
G75*
G02*
X115178000Y-54189000I-250000J0D01*
G01*
X114678000Y-54189000D01*
G75*
G02*
X114428000Y-53939000I0J250000D01*
G01*
X114428000Y-52989000D01*
G75*
G02*
X114678000Y-52739000I250000J0D01*
G01*
X115178000Y-52739000D01*
G75*
G02*
X115428000Y-52989000I0J-250000D01*
G01*
G37*
G36*
G01*
X113550000Y-48909000D02*
X113550000Y-49859000D01*
G75*
G02*
X113300000Y-50109000I-250000J0D01*
G01*
X112800000Y-50109000D01*
G75*
G02*
X112550000Y-49859000I0J250000D01*
G01*
X112550000Y-48909000D01*
G75*
G02*
X112800000Y-48659000I250000J0D01*
G01*
X113300000Y-48659000D01*
G75*
G02*
X113550000Y-48909000I0J-250000D01*
G01*
G37*
G36*
G01*
X115450000Y-48909000D02*
X115450000Y-49859000D01*
G75*
G02*
X115200000Y-50109000I-250000J0D01*
G01*
X114700000Y-50109000D01*
G75*
G02*
X114450000Y-49859000I0J250000D01*
G01*
X114450000Y-48909000D01*
G75*
G02*
X114700000Y-48659000I250000J0D01*
G01*
X115200000Y-48659000D01*
G75*
G02*
X115450000Y-48909000I0J-250000D01*
G01*
G37*
G36*
G01*
X122451000Y-52858001D02*
X122451000Y-51557999D01*
G75*
G02*
X122700999Y-51308000I249999J0D01*
G01*
X123351001Y-51308000D01*
G75*
G02*
X123601000Y-51557999I0J-249999D01*
G01*
X123601000Y-52858001D01*
G75*
G02*
X123351001Y-53108000I-249999J0D01*
G01*
X122700999Y-53108000D01*
G75*
G02*
X122451000Y-52858001I0J249999D01*
G01*
G37*
G36*
G01*
X119501000Y-52858001D02*
X119501000Y-51557999D01*
G75*
G02*
X119750999Y-51308000I249999J0D01*
G01*
X120401001Y-51308000D01*
G75*
G02*
X120651000Y-51557999I0J-249999D01*
G01*
X120651000Y-52858001D01*
G75*
G02*
X120401001Y-53108000I-249999J0D01*
G01*
X119750999Y-53108000D01*
G75*
G02*
X119501000Y-52858001I0J249999D01*
G01*
G37*
G36*
G01*
X113478000Y-45095000D02*
X113478000Y-46045000D01*
G75*
G02*
X113228000Y-46295000I-250000J0D01*
G01*
X112728000Y-46295000D01*
G75*
G02*
X112478000Y-46045000I0J250000D01*
G01*
X112478000Y-45095000D01*
G75*
G02*
X112728000Y-44845000I250000J0D01*
G01*
X113228000Y-44845000D01*
G75*
G02*
X113478000Y-45095000I0J-250000D01*
G01*
G37*
G36*
G01*
X115378000Y-45095000D02*
X115378000Y-46045000D01*
G75*
G02*
X115128000Y-46295000I-250000J0D01*
G01*
X114628000Y-46295000D01*
G75*
G02*
X114378000Y-46045000I0J250000D01*
G01*
X114378000Y-45095000D01*
G75*
G02*
X114628000Y-44845000I250000J0D01*
G01*
X115128000Y-44845000D01*
G75*
G02*
X115378000Y-45095000I0J-250000D01*
G01*
G37*
G36*
G01*
X122451000Y-56922001D02*
X122451000Y-55621999D01*
G75*
G02*
X122700999Y-55372000I249999J0D01*
G01*
X123351001Y-55372000D01*
G75*
G02*
X123601000Y-55621999I0J-249999D01*
G01*
X123601000Y-56922001D01*
G75*
G02*
X123351001Y-57172000I-249999J0D01*
G01*
X122700999Y-57172000D01*
G75*
G02*
X122451000Y-56922001I0J249999D01*
G01*
G37*
G36*
G01*
X119501000Y-56922001D02*
X119501000Y-55621999D01*
G75*
G02*
X119750999Y-55372000I249999J0D01*
G01*
X120401001Y-55372000D01*
G75*
G02*
X120651000Y-55621999I0J-249999D01*
G01*
X120651000Y-56922001D01*
G75*
G02*
X120401001Y-57172000I-249999J0D01*
G01*
X119750999Y-57172000D01*
G75*
G02*
X119501000Y-56922001I0J249999D01*
G01*
G37*
G36*
G01*
X47048000Y-50325000D02*
X47048000Y-51275000D01*
G75*
G02*
X46798000Y-51525000I-250000J0D01*
G01*
X46298000Y-51525000D01*
G75*
G02*
X46048000Y-51275000I0J250000D01*
G01*
X46048000Y-50325000D01*
G75*
G02*
X46298000Y-50075000I250000J0D01*
G01*
X46798000Y-50075000D01*
G75*
G02*
X47048000Y-50325000I0J-250000D01*
G01*
G37*
G36*
G01*
X48948000Y-50325000D02*
X48948000Y-51275000D01*
G75*
G02*
X48698000Y-51525000I-250000J0D01*
G01*
X48198000Y-51525000D01*
G75*
G02*
X47948000Y-51275000I0J250000D01*
G01*
X47948000Y-50325000D01*
G75*
G02*
X48198000Y-50075000I250000J0D01*
G01*
X48698000Y-50075000D01*
G75*
G02*
X48948000Y-50325000I0J-250000D01*
G01*
G37*
G36*
G01*
X56838000Y-48735000D02*
X56838000Y-47785000D01*
G75*
G02*
X57088000Y-47535000I250000J0D01*
G01*
X57588000Y-47535000D01*
G75*
G02*
X57838000Y-47785000I0J-250000D01*
G01*
X57838000Y-48735000D01*
G75*
G02*
X57588000Y-48985000I-250000J0D01*
G01*
X57088000Y-48985000D01*
G75*
G02*
X56838000Y-48735000I0J250000D01*
G01*
G37*
G36*
G01*
X54938000Y-48735000D02*
X54938000Y-47785000D01*
G75*
G02*
X55188000Y-47535000I250000J0D01*
G01*
X55688000Y-47535000D01*
G75*
G02*
X55938000Y-47785000I0J-250000D01*
G01*
X55938000Y-48735000D01*
G75*
G02*
X55688000Y-48985000I-250000J0D01*
G01*
X55188000Y-48985000D01*
G75*
G02*
X54938000Y-48735000I0J250000D01*
G01*
G37*
G36*
G01*
X47948000Y-44925000D02*
X47948000Y-43975000D01*
G75*
G02*
X48198000Y-43725000I250000J0D01*
G01*
X48698000Y-43725000D01*
G75*
G02*
X48948000Y-43975000I0J-250000D01*
G01*
X48948000Y-44925000D01*
G75*
G02*
X48698000Y-45175000I-250000J0D01*
G01*
X48198000Y-45175000D01*
G75*
G02*
X47948000Y-44925000I0J250000D01*
G01*
G37*
G36*
G01*
X46048000Y-44925000D02*
X46048000Y-43975000D01*
G75*
G02*
X46298000Y-43725000I250000J0D01*
G01*
X46798000Y-43725000D01*
G75*
G02*
X47048000Y-43975000I0J-250000D01*
G01*
X47048000Y-44925000D01*
G75*
G02*
X46798000Y-45175000I-250000J0D01*
G01*
X46298000Y-45175000D01*
G75*
G02*
X46048000Y-44925000I0J250000D01*
G01*
G37*
G36*
G01*
X56838000Y-51148000D02*
X56838000Y-50198000D01*
G75*
G02*
X57088000Y-49948000I250000J0D01*
G01*
X57588000Y-49948000D01*
G75*
G02*
X57838000Y-50198000I0J-250000D01*
G01*
X57838000Y-51148000D01*
G75*
G02*
X57588000Y-51398000I-250000J0D01*
G01*
X57088000Y-51398000D01*
G75*
G02*
X56838000Y-51148000I0J250000D01*
G01*
G37*
G36*
G01*
X54938000Y-51148000D02*
X54938000Y-50198000D01*
G75*
G02*
X55188000Y-49948000I250000J0D01*
G01*
X55688000Y-49948000D01*
G75*
G02*
X55938000Y-50198000I0J-250000D01*
G01*
X55938000Y-51148000D01*
G75*
G02*
X55688000Y-51398000I-250000J0D01*
G01*
X55188000Y-51398000D01*
G75*
G02*
X54938000Y-51148000I0J250000D01*
G01*
G37*
G36*
G01*
X29650000Y-50675000D02*
X29650000Y-49725000D01*
G75*
G02*
X29900000Y-49475000I250000J0D01*
G01*
X30400000Y-49475000D01*
G75*
G02*
X30650000Y-49725000I0J-250000D01*
G01*
X30650000Y-50675000D01*
G75*
G02*
X30400000Y-50925000I-250000J0D01*
G01*
X29900000Y-50925000D01*
G75*
G02*
X29650000Y-50675000I0J250000D01*
G01*
G37*
G36*
G01*
X27750000Y-50675000D02*
X27750000Y-49725000D01*
G75*
G02*
X28000000Y-49475000I250000J0D01*
G01*
X28500000Y-49475000D01*
G75*
G02*
X28750000Y-49725000I0J-250000D01*
G01*
X28750000Y-50675000D01*
G75*
G02*
X28500000Y-50925000I-250000J0D01*
G01*
X28000000Y-50925000D01*
G75*
G02*
X27750000Y-50675000I0J250000D01*
G01*
G37*
G36*
G01*
X32550000Y-49725000D02*
X32550000Y-50675000D01*
G75*
G02*
X32300000Y-50925000I-250000J0D01*
G01*
X31800000Y-50925000D01*
G75*
G02*
X31550000Y-50675000I0J250000D01*
G01*
X31550000Y-49725000D01*
G75*
G02*
X31800000Y-49475000I250000J0D01*
G01*
X32300000Y-49475000D01*
G75*
G02*
X32550000Y-49725000I0J-250000D01*
G01*
G37*
G36*
G01*
X34450000Y-49725000D02*
X34450000Y-50675000D01*
G75*
G02*
X34200000Y-50925000I-250000J0D01*
G01*
X33700000Y-50925000D01*
G75*
G02*
X33450000Y-50675000I0J250000D01*
G01*
X33450000Y-49725000D01*
G75*
G02*
X33700000Y-49475000I250000J0D01*
G01*
X34200000Y-49475000D01*
G75*
G02*
X34450000Y-49725000I0J-250000D01*
G01*
G37*
G36*
G01*
X56838000Y-43528000D02*
X56838000Y-42578000D01*
G75*
G02*
X57088000Y-42328000I250000J0D01*
G01*
X57588000Y-42328000D01*
G75*
G02*
X57838000Y-42578000I0J-250000D01*
G01*
X57838000Y-43528000D01*
G75*
G02*
X57588000Y-43778000I-250000J0D01*
G01*
X57088000Y-43778000D01*
G75*
G02*
X56838000Y-43528000I0J250000D01*
G01*
G37*
G36*
G01*
X54938000Y-43528000D02*
X54938000Y-42578000D01*
G75*
G02*
X55188000Y-42328000I250000J0D01*
G01*
X55688000Y-42328000D01*
G75*
G02*
X55938000Y-42578000I0J-250000D01*
G01*
X55938000Y-43528000D01*
G75*
G02*
X55688000Y-43778000I-250000J0D01*
G01*
X55188000Y-43778000D01*
G75*
G02*
X54938000Y-43528000I0J250000D01*
G01*
G37*
G36*
G01*
X82450000Y-27875000D02*
X82450000Y-26925000D01*
G75*
G02*
X82700000Y-26675000I250000J0D01*
G01*
X83200000Y-26675000D01*
G75*
G02*
X83450000Y-26925000I0J-250000D01*
G01*
X83450000Y-27875000D01*
G75*
G02*
X83200000Y-28125000I-250000J0D01*
G01*
X82700000Y-28125000D01*
G75*
G02*
X82450000Y-27875000I0J250000D01*
G01*
G37*
G36*
G01*
X80550000Y-27875000D02*
X80550000Y-26925000D01*
G75*
G02*
X80800000Y-26675000I250000J0D01*
G01*
X81300000Y-26675000D01*
G75*
G02*
X81550000Y-26925000I0J-250000D01*
G01*
X81550000Y-27875000D01*
G75*
G02*
X81300000Y-28125000I-250000J0D01*
G01*
X80800000Y-28125000D01*
G75*
G02*
X80550000Y-27875000I0J250000D01*
G01*
G37*
G36*
G01*
X36450000Y-31975000D02*
X36450000Y-31025000D01*
G75*
G02*
X36700000Y-30775000I250000J0D01*
G01*
X37200000Y-30775000D01*
G75*
G02*
X37450000Y-31025000I0J-250000D01*
G01*
X37450000Y-31975000D01*
G75*
G02*
X37200000Y-32225000I-250000J0D01*
G01*
X36700000Y-32225000D01*
G75*
G02*
X36450000Y-31975000I0J250000D01*
G01*
G37*
G36*
G01*
X34550000Y-31975000D02*
X34550000Y-31025000D01*
G75*
G02*
X34800000Y-30775000I250000J0D01*
G01*
X35300000Y-30775000D01*
G75*
G02*
X35550000Y-31025000I0J-250000D01*
G01*
X35550000Y-31975000D01*
G75*
G02*
X35300000Y-32225000I-250000J0D01*
G01*
X34800000Y-32225000D01*
G75*
G02*
X34550000Y-31975000I0J250000D01*
G01*
G37*
G36*
G01*
X81550000Y-32725000D02*
X81550000Y-33675000D01*
G75*
G02*
X81300000Y-33925000I-250000J0D01*
G01*
X80800000Y-33925000D01*
G75*
G02*
X80550000Y-33675000I0J250000D01*
G01*
X80550000Y-32725000D01*
G75*
G02*
X80800000Y-32475000I250000J0D01*
G01*
X81300000Y-32475000D01*
G75*
G02*
X81550000Y-32725000I0J-250000D01*
G01*
G37*
G36*
G01*
X83450000Y-32725000D02*
X83450000Y-33675000D01*
G75*
G02*
X83200000Y-33925000I-250000J0D01*
G01*
X82700000Y-33925000D01*
G75*
G02*
X82450000Y-33675000I0J250000D01*
G01*
X82450000Y-32725000D01*
G75*
G02*
X82700000Y-32475000I250000J0D01*
G01*
X83200000Y-32475000D01*
G75*
G02*
X83450000Y-32725000I0J-250000D01*
G01*
G37*
G36*
G01*
X28275000Y-44257500D02*
X27325000Y-44257500D01*
G75*
G02*
X27075000Y-44007500I0J250000D01*
G01*
X27075000Y-43507500D01*
G75*
G02*
X27325000Y-43257500I250000J0D01*
G01*
X28275000Y-43257500D01*
G75*
G02*
X28525000Y-43507500I0J-250000D01*
G01*
X28525000Y-44007500D01*
G75*
G02*
X28275000Y-44257500I-250000J0D01*
G01*
G37*
G36*
G01*
X28275000Y-46157500D02*
X27325000Y-46157500D01*
G75*
G02*
X27075000Y-45907500I0J250000D01*
G01*
X27075000Y-45407500D01*
G75*
G02*
X27325000Y-45157500I250000J0D01*
G01*
X28275000Y-45157500D01*
G75*
G02*
X28525000Y-45407500I0J-250000D01*
G01*
X28525000Y-45907500D01*
G75*
G02*
X28275000Y-46157500I-250000J0D01*
G01*
G37*
G36*
G01*
X34275000Y-46250000D02*
X33325000Y-46250000D01*
G75*
G02*
X33075000Y-46000000I0J250000D01*
G01*
X33075000Y-45500000D01*
G75*
G02*
X33325000Y-45250000I250000J0D01*
G01*
X34275000Y-45250000D01*
G75*
G02*
X34525000Y-45500000I0J-250000D01*
G01*
X34525000Y-46000000D01*
G75*
G02*
X34275000Y-46250000I-250000J0D01*
G01*
G37*
G36*
G01*
X34275000Y-44350000D02*
X33325000Y-44350000D01*
G75*
G02*
X33075000Y-44100000I0J250000D01*
G01*
X33075000Y-43600000D01*
G75*
G02*
X33325000Y-43350000I250000J0D01*
G01*
X34275000Y-43350000D01*
G75*
G02*
X34525000Y-43600000I0J-250000D01*
G01*
X34525000Y-44100000D01*
G75*
G02*
X34275000Y-44350000I-250000J0D01*
G01*
G37*
G36*
G01*
X51275000Y-36450000D02*
X52225000Y-36450000D01*
G75*
G02*
X52475000Y-36700000I0J-250000D01*
G01*
X52475000Y-37200000D01*
G75*
G02*
X52225000Y-37450000I-250000J0D01*
G01*
X51275000Y-37450000D01*
G75*
G02*
X51025000Y-37200000I0J250000D01*
G01*
X51025000Y-36700000D01*
G75*
G02*
X51275000Y-36450000I250000J0D01*
G01*
G37*
G36*
G01*
X51275000Y-34550000D02*
X52225000Y-34550000D01*
G75*
G02*
X52475000Y-34800000I0J-250000D01*
G01*
X52475000Y-35300000D01*
G75*
G02*
X52225000Y-35550000I-250000J0D01*
G01*
X51275000Y-35550000D01*
G75*
G02*
X51025000Y-35300000I0J250000D01*
G01*
X51025000Y-34800000D01*
G75*
G02*
X51275000Y-34550000I250000J0D01*
G01*
G37*
G36*
G01*
X73210000Y-42451000D02*
X73210000Y-43401000D01*
G75*
G02*
X72960000Y-43651000I-250000J0D01*
G01*
X72460000Y-43651000D01*
G75*
G02*
X72210000Y-43401000I0J250000D01*
G01*
X72210000Y-42451000D01*
G75*
G02*
X72460000Y-42201000I250000J0D01*
G01*
X72960000Y-42201000D01*
G75*
G02*
X73210000Y-42451000I0J-250000D01*
G01*
G37*
G36*
G01*
X75110000Y-42451000D02*
X75110000Y-43401000D01*
G75*
G02*
X74860000Y-43651000I-250000J0D01*
G01*
X74360000Y-43651000D01*
G75*
G02*
X74110000Y-43401000I0J250000D01*
G01*
X74110000Y-42451000D01*
G75*
G02*
X74360000Y-42201000I250000J0D01*
G01*
X74860000Y-42201000D01*
G75*
G02*
X75110000Y-42451000I0J-250000D01*
G01*
G37*
D32*
X39150000Y-50200000D03*
X42450000Y-50200000D03*
G36*
G01*
X81125000Y-29474997D02*
X81125000Y-31325003D01*
G75*
G02*
X80875003Y-31575000I-249997J0D01*
G01*
X80049997Y-31575000D01*
G75*
G02*
X79800000Y-31325003I0J249997D01*
G01*
X79800000Y-29474997D01*
G75*
G02*
X80049997Y-29225000I249997J0D01*
G01*
X80875003Y-29225000D01*
G75*
G02*
X81125000Y-29474997I0J-249997D01*
G01*
G37*
G36*
G01*
X84200000Y-29474997D02*
X84200000Y-31325003D01*
G75*
G02*
X83950003Y-31575000I-249997J0D01*
G01*
X83124997Y-31575000D01*
G75*
G02*
X82875000Y-31325003I0J249997D01*
G01*
X82875000Y-29474997D01*
G75*
G02*
X83124997Y-29225000I249997J0D01*
G01*
X83950003Y-29225000D01*
G75*
G02*
X84200000Y-29474997I0J-249997D01*
G01*
G37*
G36*
G01*
X31091000Y-31773000D02*
X31091000Y-31473000D01*
G75*
G02*
X31241000Y-31323000I150000J0D01*
G01*
X32891000Y-31323000D01*
G75*
G02*
X33041000Y-31473000I0J-150000D01*
G01*
X33041000Y-31773000D01*
G75*
G02*
X32891000Y-31923000I-150000J0D01*
G01*
X31241000Y-31923000D01*
G75*
G02*
X31091000Y-31773000I0J150000D01*
G01*
G37*
G36*
G01*
X31091000Y-33043000D02*
X31091000Y-32743000D01*
G75*
G02*
X31241000Y-32593000I150000J0D01*
G01*
X32891000Y-32593000D01*
G75*
G02*
X33041000Y-32743000I0J-150000D01*
G01*
X33041000Y-33043000D01*
G75*
G02*
X32891000Y-33193000I-150000J0D01*
G01*
X31241000Y-33193000D01*
G75*
G02*
X31091000Y-33043000I0J150000D01*
G01*
G37*
G36*
G01*
X31091000Y-34313000D02*
X31091000Y-34013000D01*
G75*
G02*
X31241000Y-33863000I150000J0D01*
G01*
X32891000Y-33863000D01*
G75*
G02*
X33041000Y-34013000I0J-150000D01*
G01*
X33041000Y-34313000D01*
G75*
G02*
X32891000Y-34463000I-150000J0D01*
G01*
X31241000Y-34463000D01*
G75*
G02*
X31091000Y-34313000I0J150000D01*
G01*
G37*
G36*
G01*
X31091000Y-35583000D02*
X31091000Y-35283000D01*
G75*
G02*
X31241000Y-35133000I150000J0D01*
G01*
X32891000Y-35133000D01*
G75*
G02*
X33041000Y-35283000I0J-150000D01*
G01*
X33041000Y-35583000D01*
G75*
G02*
X32891000Y-35733000I-150000J0D01*
G01*
X31241000Y-35733000D01*
G75*
G02*
X31091000Y-35583000I0J150000D01*
G01*
G37*
G36*
G01*
X31091000Y-36853000D02*
X31091000Y-36553000D01*
G75*
G02*
X31241000Y-36403000I150000J0D01*
G01*
X32891000Y-36403000D01*
G75*
G02*
X33041000Y-36553000I0J-150000D01*
G01*
X33041000Y-36853000D01*
G75*
G02*
X32891000Y-37003000I-150000J0D01*
G01*
X31241000Y-37003000D01*
G75*
G02*
X31091000Y-36853000I0J150000D01*
G01*
G37*
G36*
G01*
X31091000Y-38123000D02*
X31091000Y-37823000D01*
G75*
G02*
X31241000Y-37673000I150000J0D01*
G01*
X32891000Y-37673000D01*
G75*
G02*
X33041000Y-37823000I0J-150000D01*
G01*
X33041000Y-38123000D01*
G75*
G02*
X32891000Y-38273000I-150000J0D01*
G01*
X31241000Y-38273000D01*
G75*
G02*
X31091000Y-38123000I0J150000D01*
G01*
G37*
G36*
G01*
X31091000Y-39393000D02*
X31091000Y-39093000D01*
G75*
G02*
X31241000Y-38943000I150000J0D01*
G01*
X32891000Y-38943000D01*
G75*
G02*
X33041000Y-39093000I0J-150000D01*
G01*
X33041000Y-39393000D01*
G75*
G02*
X32891000Y-39543000I-150000J0D01*
G01*
X31241000Y-39543000D01*
G75*
G02*
X31091000Y-39393000I0J150000D01*
G01*
G37*
G36*
G01*
X31091000Y-40663000D02*
X31091000Y-40363000D01*
G75*
G02*
X31241000Y-40213000I150000J0D01*
G01*
X32891000Y-40213000D01*
G75*
G02*
X33041000Y-40363000I0J-150000D01*
G01*
X33041000Y-40663000D01*
G75*
G02*
X32891000Y-40813000I-150000J0D01*
G01*
X31241000Y-40813000D01*
G75*
G02*
X31091000Y-40663000I0J150000D01*
G01*
G37*
G36*
G01*
X26141000Y-40663000D02*
X26141000Y-40363000D01*
G75*
G02*
X26291000Y-40213000I150000J0D01*
G01*
X27941000Y-40213000D01*
G75*
G02*
X28091000Y-40363000I0J-150000D01*
G01*
X28091000Y-40663000D01*
G75*
G02*
X27941000Y-40813000I-150000J0D01*
G01*
X26291000Y-40813000D01*
G75*
G02*
X26141000Y-40663000I0J150000D01*
G01*
G37*
G36*
G01*
X26141000Y-39393000D02*
X26141000Y-39093000D01*
G75*
G02*
X26291000Y-38943000I150000J0D01*
G01*
X27941000Y-38943000D01*
G75*
G02*
X28091000Y-39093000I0J-150000D01*
G01*
X28091000Y-39393000D01*
G75*
G02*
X27941000Y-39543000I-150000J0D01*
G01*
X26291000Y-39543000D01*
G75*
G02*
X26141000Y-39393000I0J150000D01*
G01*
G37*
G36*
G01*
X26141000Y-38123000D02*
X26141000Y-37823000D01*
G75*
G02*
X26291000Y-37673000I150000J0D01*
G01*
X27941000Y-37673000D01*
G75*
G02*
X28091000Y-37823000I0J-150000D01*
G01*
X28091000Y-38123000D01*
G75*
G02*
X27941000Y-38273000I-150000J0D01*
G01*
X26291000Y-38273000D01*
G75*
G02*
X26141000Y-38123000I0J150000D01*
G01*
G37*
G36*
G01*
X26141000Y-36853000D02*
X26141000Y-36553000D01*
G75*
G02*
X26291000Y-36403000I150000J0D01*
G01*
X27941000Y-36403000D01*
G75*
G02*
X28091000Y-36553000I0J-150000D01*
G01*
X28091000Y-36853000D01*
G75*
G02*
X27941000Y-37003000I-150000J0D01*
G01*
X26291000Y-37003000D01*
G75*
G02*
X26141000Y-36853000I0J150000D01*
G01*
G37*
G36*
G01*
X26141000Y-35583000D02*
X26141000Y-35283000D01*
G75*
G02*
X26291000Y-35133000I150000J0D01*
G01*
X27941000Y-35133000D01*
G75*
G02*
X28091000Y-35283000I0J-150000D01*
G01*
X28091000Y-35583000D01*
G75*
G02*
X27941000Y-35733000I-150000J0D01*
G01*
X26291000Y-35733000D01*
G75*
G02*
X26141000Y-35583000I0J150000D01*
G01*
G37*
G36*
G01*
X26141000Y-34313000D02*
X26141000Y-34013000D01*
G75*
G02*
X26291000Y-33863000I150000J0D01*
G01*
X27941000Y-33863000D01*
G75*
G02*
X28091000Y-34013000I0J-150000D01*
G01*
X28091000Y-34313000D01*
G75*
G02*
X27941000Y-34463000I-150000J0D01*
G01*
X26291000Y-34463000D01*
G75*
G02*
X26141000Y-34313000I0J150000D01*
G01*
G37*
G36*
G01*
X26141000Y-33043000D02*
X26141000Y-32743000D01*
G75*
G02*
X26291000Y-32593000I150000J0D01*
G01*
X27941000Y-32593000D01*
G75*
G02*
X28091000Y-32743000I0J-150000D01*
G01*
X28091000Y-33043000D01*
G75*
G02*
X27941000Y-33193000I-150000J0D01*
G01*
X26291000Y-33193000D01*
G75*
G02*
X26141000Y-33043000I0J150000D01*
G01*
G37*
G36*
G01*
X26141000Y-31773000D02*
X26141000Y-31473000D01*
G75*
G02*
X26291000Y-31323000I150000J0D01*
G01*
X27941000Y-31323000D01*
G75*
G02*
X28091000Y-31473000I0J-150000D01*
G01*
X28091000Y-31773000D01*
G75*
G02*
X27941000Y-31923000I-150000J0D01*
G01*
X26291000Y-31923000D01*
G75*
G02*
X26141000Y-31773000I0J150000D01*
G01*
G37*
D33*
X30800000Y-45758000D03*
X29850000Y-43758000D03*
X31750000Y-43758000D03*
D34*
X42709000Y-56455000D03*
X42709000Y-55185000D03*
X42709000Y-53915000D03*
X42709000Y-52645000D03*
X37309000Y-52645000D03*
X37309000Y-53915000D03*
X37309000Y-55185000D03*
X37309000Y-56455000D03*
D35*
X40009000Y-54550000D03*
G36*
G01*
X28700500Y-54601750D02*
X28700500Y-55514250D01*
G75*
G02*
X28456750Y-55758000I-243750J0D01*
G01*
X27969250Y-55758000D01*
G75*
G02*
X27725500Y-55514250I0J243750D01*
G01*
X27725500Y-54601750D01*
G75*
G02*
X27969250Y-54358000I243750J0D01*
G01*
X28456750Y-54358000D01*
G75*
G02*
X28700500Y-54601750I0J-243750D01*
G01*
G37*
G36*
G01*
X30575500Y-54601750D02*
X30575500Y-55514250D01*
G75*
G02*
X30331750Y-55758000I-243750J0D01*
G01*
X29844250Y-55758000D01*
G75*
G02*
X29600500Y-55514250I0J243750D01*
G01*
X29600500Y-54601750D01*
G75*
G02*
X29844250Y-54358000I243750J0D01*
G01*
X30331750Y-54358000D01*
G75*
G02*
X30575500Y-54601750I0J-243750D01*
G01*
G37*
G36*
G01*
X28700500Y-52188750D02*
X28700500Y-53101250D01*
G75*
G02*
X28456750Y-53345000I-243750J0D01*
G01*
X27969250Y-53345000D01*
G75*
G02*
X27725500Y-53101250I0J243750D01*
G01*
X27725500Y-52188750D01*
G75*
G02*
X27969250Y-51945000I243750J0D01*
G01*
X28456750Y-51945000D01*
G75*
G02*
X28700500Y-52188750I0J-243750D01*
G01*
G37*
G36*
G01*
X30575500Y-52188750D02*
X30575500Y-53101250D01*
G75*
G02*
X30331750Y-53345000I-243750J0D01*
G01*
X29844250Y-53345000D01*
G75*
G02*
X29600500Y-53101250I0J243750D01*
G01*
X29600500Y-52188750D01*
G75*
G02*
X29844250Y-51945000I243750J0D01*
G01*
X30331750Y-51945000D01*
G75*
G02*
X30575500Y-52188750I0J-243750D01*
G01*
G37*
D36*
X40250000Y-36750000D03*
X38250000Y-37700000D03*
X38250000Y-35800000D03*
X34500000Y-36750000D03*
X36500000Y-35800000D03*
X36500000Y-37700000D03*
X77750000Y-42793000D03*
X77750000Y-44693000D03*
X79750000Y-43743000D03*
M02*
