%TF.GenerationSoftware,KiCad,Pcbnew,5.1.4*%
%TF.CreationDate,2019-10-04T22:27:36+02:00*%
%TF.ProjectId,epaper-breakout,65706170-6572-42d6-9272-65616b6f7574,rev?*%
%TF.SameCoordinates,Original*%
%TF.FileFunction,Soldermask,Top*%
%TF.FilePolarity,Negative*%
%FSLAX46Y46*%
G04 Gerber Fmt 4.6, Leading zero omitted, Abs format (unit mm)*
G04 Created by KiCad (PCBNEW 5.1.4) date 2019-10-04 22:27:36*
%MOMM*%
%LPD*%
G04 APERTURE LIST*
%ADD10C,0.150000*%
G04 APERTURE END LIST*
D10*
G36*
X81898442Y62108482D02*
G01*
X81964627Y62101963D01*
X82134466Y62050443D01*
X82290991Y61966778D01*
X82326729Y61937448D01*
X82428186Y61854186D01*
X82511448Y61752729D01*
X82540778Y61716991D01*
X82624443Y61560466D01*
X82675963Y61390627D01*
X82693359Y61214000D01*
X82675963Y61037373D01*
X82624443Y60867534D01*
X82540778Y60711009D01*
X82511448Y60675271D01*
X82428186Y60573814D01*
X82326729Y60490552D01*
X82290991Y60461222D01*
X82134466Y60377557D01*
X81964627Y60326037D01*
X81898442Y60319518D01*
X81832260Y60313000D01*
X81743740Y60313000D01*
X81677558Y60319518D01*
X81611373Y60326037D01*
X81441534Y60377557D01*
X81285009Y60461222D01*
X81249271Y60490552D01*
X81147814Y60573814D01*
X81064552Y60675271D01*
X81035222Y60711009D01*
X80951557Y60867534D01*
X80900037Y61037373D01*
X80882641Y61214000D01*
X80900037Y61390627D01*
X80951557Y61560466D01*
X81035222Y61716991D01*
X81064552Y61752729D01*
X81147814Y61854186D01*
X81249271Y61937448D01*
X81285009Y61966778D01*
X81441534Y62050443D01*
X81611373Y62101963D01*
X81677558Y62108482D01*
X81743740Y62115000D01*
X81832260Y62115000D01*
X81898442Y62108482D01*
X81898442Y62108482D01*
G37*
G36*
X61578442Y62108482D02*
G01*
X61644627Y62101963D01*
X61814466Y62050443D01*
X61970991Y61966778D01*
X62006729Y61937448D01*
X62108186Y61854186D01*
X62191448Y61752729D01*
X62220778Y61716991D01*
X62304443Y61560466D01*
X62355963Y61390627D01*
X62373359Y61214000D01*
X62355963Y61037373D01*
X62304443Y60867534D01*
X62220778Y60711009D01*
X62191448Y60675271D01*
X62108186Y60573814D01*
X62006729Y60490552D01*
X61970991Y60461222D01*
X61814466Y60377557D01*
X61644627Y60326037D01*
X61578442Y60319518D01*
X61512260Y60313000D01*
X61423740Y60313000D01*
X61357558Y60319518D01*
X61291373Y60326037D01*
X61121534Y60377557D01*
X60965009Y60461222D01*
X60929271Y60490552D01*
X60827814Y60573814D01*
X60744552Y60675271D01*
X60715222Y60711009D01*
X60631557Y60867534D01*
X60580037Y61037373D01*
X60562641Y61214000D01*
X60580037Y61390627D01*
X60631557Y61560466D01*
X60715222Y61716991D01*
X60744552Y61752729D01*
X60827814Y61854186D01*
X60929271Y61937448D01*
X60965009Y61966778D01*
X61121534Y62050443D01*
X61291373Y62101963D01*
X61357558Y62108482D01*
X61423740Y62115000D01*
X61512260Y62115000D01*
X61578442Y62108482D01*
X61578442Y62108482D01*
G37*
G36*
X59829000Y60313000D02*
G01*
X58027000Y60313000D01*
X58027000Y62115000D01*
X59829000Y62115000D01*
X59829000Y60313000D01*
X59829000Y60313000D01*
G37*
G36*
X64118442Y62108482D02*
G01*
X64184627Y62101963D01*
X64354466Y62050443D01*
X64510991Y61966778D01*
X64546729Y61937448D01*
X64648186Y61854186D01*
X64731448Y61752729D01*
X64760778Y61716991D01*
X64844443Y61560466D01*
X64895963Y61390627D01*
X64913359Y61214000D01*
X64895963Y61037373D01*
X64844443Y60867534D01*
X64760778Y60711009D01*
X64731448Y60675271D01*
X64648186Y60573814D01*
X64546729Y60490552D01*
X64510991Y60461222D01*
X64354466Y60377557D01*
X64184627Y60326037D01*
X64118442Y60319518D01*
X64052260Y60313000D01*
X63963740Y60313000D01*
X63897558Y60319518D01*
X63831373Y60326037D01*
X63661534Y60377557D01*
X63505009Y60461222D01*
X63469271Y60490552D01*
X63367814Y60573814D01*
X63284552Y60675271D01*
X63255222Y60711009D01*
X63171557Y60867534D01*
X63120037Y61037373D01*
X63102641Y61214000D01*
X63120037Y61390627D01*
X63171557Y61560466D01*
X63255222Y61716991D01*
X63284552Y61752729D01*
X63367814Y61854186D01*
X63469271Y61937448D01*
X63505009Y61966778D01*
X63661534Y62050443D01*
X63831373Y62101963D01*
X63897558Y62108482D01*
X63963740Y62115000D01*
X64052260Y62115000D01*
X64118442Y62108482D01*
X64118442Y62108482D01*
G37*
G36*
X66658442Y62108482D02*
G01*
X66724627Y62101963D01*
X66894466Y62050443D01*
X67050991Y61966778D01*
X67086729Y61937448D01*
X67188186Y61854186D01*
X67271448Y61752729D01*
X67300778Y61716991D01*
X67384443Y61560466D01*
X67435963Y61390627D01*
X67453359Y61214000D01*
X67435963Y61037373D01*
X67384443Y60867534D01*
X67300778Y60711009D01*
X67271448Y60675271D01*
X67188186Y60573814D01*
X67086729Y60490552D01*
X67050991Y60461222D01*
X66894466Y60377557D01*
X66724627Y60326037D01*
X66658442Y60319518D01*
X66592260Y60313000D01*
X66503740Y60313000D01*
X66437558Y60319518D01*
X66371373Y60326037D01*
X66201534Y60377557D01*
X66045009Y60461222D01*
X66009271Y60490552D01*
X65907814Y60573814D01*
X65824552Y60675271D01*
X65795222Y60711009D01*
X65711557Y60867534D01*
X65660037Y61037373D01*
X65642641Y61214000D01*
X65660037Y61390627D01*
X65711557Y61560466D01*
X65795222Y61716991D01*
X65824552Y61752729D01*
X65907814Y61854186D01*
X66009271Y61937448D01*
X66045009Y61966778D01*
X66201534Y62050443D01*
X66371373Y62101963D01*
X66437558Y62108482D01*
X66503740Y62115000D01*
X66592260Y62115000D01*
X66658442Y62108482D01*
X66658442Y62108482D01*
G37*
G36*
X69198442Y62108482D02*
G01*
X69264627Y62101963D01*
X69434466Y62050443D01*
X69590991Y61966778D01*
X69626729Y61937448D01*
X69728186Y61854186D01*
X69811448Y61752729D01*
X69840778Y61716991D01*
X69924443Y61560466D01*
X69975963Y61390627D01*
X69993359Y61214000D01*
X69975963Y61037373D01*
X69924443Y60867534D01*
X69840778Y60711009D01*
X69811448Y60675271D01*
X69728186Y60573814D01*
X69626729Y60490552D01*
X69590991Y60461222D01*
X69434466Y60377557D01*
X69264627Y60326037D01*
X69198442Y60319518D01*
X69132260Y60313000D01*
X69043740Y60313000D01*
X68977558Y60319518D01*
X68911373Y60326037D01*
X68741534Y60377557D01*
X68585009Y60461222D01*
X68549271Y60490552D01*
X68447814Y60573814D01*
X68364552Y60675271D01*
X68335222Y60711009D01*
X68251557Y60867534D01*
X68200037Y61037373D01*
X68182641Y61214000D01*
X68200037Y61390627D01*
X68251557Y61560466D01*
X68335222Y61716991D01*
X68364552Y61752729D01*
X68447814Y61854186D01*
X68549271Y61937448D01*
X68585009Y61966778D01*
X68741534Y62050443D01*
X68911373Y62101963D01*
X68977558Y62108482D01*
X69043740Y62115000D01*
X69132260Y62115000D01*
X69198442Y62108482D01*
X69198442Y62108482D01*
G37*
G36*
X74278442Y62108482D02*
G01*
X74344627Y62101963D01*
X74514466Y62050443D01*
X74670991Y61966778D01*
X74706729Y61937448D01*
X74808186Y61854186D01*
X74891448Y61752729D01*
X74920778Y61716991D01*
X75004443Y61560466D01*
X75055963Y61390627D01*
X75073359Y61214000D01*
X75055963Y61037373D01*
X75004443Y60867534D01*
X74920778Y60711009D01*
X74891448Y60675271D01*
X74808186Y60573814D01*
X74706729Y60490552D01*
X74670991Y60461222D01*
X74514466Y60377557D01*
X74344627Y60326037D01*
X74278442Y60319518D01*
X74212260Y60313000D01*
X74123740Y60313000D01*
X74057558Y60319518D01*
X73991373Y60326037D01*
X73821534Y60377557D01*
X73665009Y60461222D01*
X73629271Y60490552D01*
X73527814Y60573814D01*
X73444552Y60675271D01*
X73415222Y60711009D01*
X73331557Y60867534D01*
X73280037Y61037373D01*
X73262641Y61214000D01*
X73280037Y61390627D01*
X73331557Y61560466D01*
X73415222Y61716991D01*
X73444552Y61752729D01*
X73527814Y61854186D01*
X73629271Y61937448D01*
X73665009Y61966778D01*
X73821534Y62050443D01*
X73991373Y62101963D01*
X74057558Y62108482D01*
X74123740Y62115000D01*
X74212260Y62115000D01*
X74278442Y62108482D01*
X74278442Y62108482D01*
G37*
G36*
X71738442Y62108482D02*
G01*
X71804627Y62101963D01*
X71974466Y62050443D01*
X72130991Y61966778D01*
X72166729Y61937448D01*
X72268186Y61854186D01*
X72351448Y61752729D01*
X72380778Y61716991D01*
X72464443Y61560466D01*
X72515963Y61390627D01*
X72533359Y61214000D01*
X72515963Y61037373D01*
X72464443Y60867534D01*
X72380778Y60711009D01*
X72351448Y60675271D01*
X72268186Y60573814D01*
X72166729Y60490552D01*
X72130991Y60461222D01*
X71974466Y60377557D01*
X71804627Y60326037D01*
X71738442Y60319518D01*
X71672260Y60313000D01*
X71583740Y60313000D01*
X71517558Y60319518D01*
X71451373Y60326037D01*
X71281534Y60377557D01*
X71125009Y60461222D01*
X71089271Y60490552D01*
X70987814Y60573814D01*
X70904552Y60675271D01*
X70875222Y60711009D01*
X70791557Y60867534D01*
X70740037Y61037373D01*
X70722641Y61214000D01*
X70740037Y61390627D01*
X70791557Y61560466D01*
X70875222Y61716991D01*
X70904552Y61752729D01*
X70987814Y61854186D01*
X71089271Y61937448D01*
X71125009Y61966778D01*
X71281534Y62050443D01*
X71451373Y62101963D01*
X71517558Y62108482D01*
X71583740Y62115000D01*
X71672260Y62115000D01*
X71738442Y62108482D01*
X71738442Y62108482D01*
G37*
G36*
X79358442Y62108482D02*
G01*
X79424627Y62101963D01*
X79594466Y62050443D01*
X79750991Y61966778D01*
X79786729Y61937448D01*
X79888186Y61854186D01*
X79971448Y61752729D01*
X80000778Y61716991D01*
X80084443Y61560466D01*
X80135963Y61390627D01*
X80153359Y61214000D01*
X80135963Y61037373D01*
X80084443Y60867534D01*
X80000778Y60711009D01*
X79971448Y60675271D01*
X79888186Y60573814D01*
X79786729Y60490552D01*
X79750991Y60461222D01*
X79594466Y60377557D01*
X79424627Y60326037D01*
X79358442Y60319518D01*
X79292260Y60313000D01*
X79203740Y60313000D01*
X79137558Y60319518D01*
X79071373Y60326037D01*
X78901534Y60377557D01*
X78745009Y60461222D01*
X78709271Y60490552D01*
X78607814Y60573814D01*
X78524552Y60675271D01*
X78495222Y60711009D01*
X78411557Y60867534D01*
X78360037Y61037373D01*
X78342641Y61214000D01*
X78360037Y61390627D01*
X78411557Y61560466D01*
X78495222Y61716991D01*
X78524552Y61752729D01*
X78607814Y61854186D01*
X78709271Y61937448D01*
X78745009Y61966778D01*
X78901534Y62050443D01*
X79071373Y62101963D01*
X79137558Y62108482D01*
X79203740Y62115000D01*
X79292260Y62115000D01*
X79358442Y62108482D01*
X79358442Y62108482D01*
G37*
G36*
X76818442Y62108482D02*
G01*
X76884627Y62101963D01*
X77054466Y62050443D01*
X77210991Y61966778D01*
X77246729Y61937448D01*
X77348186Y61854186D01*
X77431448Y61752729D01*
X77460778Y61716991D01*
X77544443Y61560466D01*
X77595963Y61390627D01*
X77613359Y61214000D01*
X77595963Y61037373D01*
X77544443Y60867534D01*
X77460778Y60711009D01*
X77431448Y60675271D01*
X77348186Y60573814D01*
X77246729Y60490552D01*
X77210991Y60461222D01*
X77054466Y60377557D01*
X76884627Y60326037D01*
X76818442Y60319518D01*
X76752260Y60313000D01*
X76663740Y60313000D01*
X76597558Y60319518D01*
X76531373Y60326037D01*
X76361534Y60377557D01*
X76205009Y60461222D01*
X76169271Y60490552D01*
X76067814Y60573814D01*
X75984552Y60675271D01*
X75955222Y60711009D01*
X75871557Y60867534D01*
X75820037Y61037373D01*
X75802641Y61214000D01*
X75820037Y61390627D01*
X75871557Y61560466D01*
X75955222Y61716991D01*
X75984552Y61752729D01*
X76067814Y61854186D01*
X76169271Y61937448D01*
X76205009Y61966778D01*
X76361534Y62050443D01*
X76531373Y62101963D01*
X76597558Y62108482D01*
X76663740Y62115000D01*
X76752260Y62115000D01*
X76818442Y62108482D01*
X76818442Y62108482D01*
G37*
G36*
X125224549Y66128884D02*
G01*
X125335734Y66106768D01*
X125545203Y66020003D01*
X125733720Y65894040D01*
X125894040Y65733720D01*
X126020003Y65545203D01*
X126106768Y65335734D01*
X126151000Y65113364D01*
X126151000Y64886636D01*
X126106768Y64664266D01*
X126020003Y64454797D01*
X125894040Y64266280D01*
X125733720Y64105960D01*
X125545203Y63979997D01*
X125335734Y63893232D01*
X125224549Y63871116D01*
X125113365Y63849000D01*
X124886635Y63849000D01*
X124775451Y63871116D01*
X124664266Y63893232D01*
X124454797Y63979997D01*
X124266280Y64105960D01*
X124105960Y64266280D01*
X123979997Y64454797D01*
X123893232Y64664266D01*
X123849000Y64886636D01*
X123849000Y65113364D01*
X123893232Y65335734D01*
X123979997Y65545203D01*
X124105960Y65733720D01*
X124266280Y65894040D01*
X124454797Y66020003D01*
X124664266Y66106768D01*
X124775451Y66128884D01*
X124886635Y66151000D01*
X125113365Y66151000D01*
X125224549Y66128884D01*
X125224549Y66128884D01*
G37*
G36*
X55224549Y66128884D02*
G01*
X55335734Y66106768D01*
X55545203Y66020003D01*
X55733720Y65894040D01*
X55894040Y65733720D01*
X56020003Y65545203D01*
X56106768Y65335734D01*
X56151000Y65113364D01*
X56151000Y64886636D01*
X56106768Y64664266D01*
X56020003Y64454797D01*
X55894040Y64266280D01*
X55733720Y64105960D01*
X55545203Y63979997D01*
X55335734Y63893232D01*
X55224549Y63871116D01*
X55113365Y63849000D01*
X54886635Y63849000D01*
X54775451Y63871116D01*
X54664266Y63893232D01*
X54454797Y63979997D01*
X54266280Y64105960D01*
X54105960Y64266280D01*
X53979997Y64454797D01*
X53893232Y64664266D01*
X53849000Y64886636D01*
X53849000Y65113364D01*
X53893232Y65335734D01*
X53979997Y65545203D01*
X54105960Y65733720D01*
X54266280Y65894040D01*
X54454797Y66020003D01*
X54664266Y66106768D01*
X54775451Y66128884D01*
X54886635Y66151000D01*
X55113365Y66151000D01*
X55224549Y66128884D01*
X55224549Y66128884D01*
G37*
G36*
X66665968Y67802435D02*
G01*
X66704638Y67790704D01*
X66740277Y67771654D01*
X66771517Y67746017D01*
X66797154Y67714777D01*
X66816204Y67679138D01*
X66827935Y67640468D01*
X66832500Y67594112D01*
X66832500Y66517888D01*
X66827935Y66471532D01*
X66816204Y66432862D01*
X66797154Y66397223D01*
X66771517Y66365983D01*
X66740277Y66340346D01*
X66704638Y66321296D01*
X66665968Y66309565D01*
X66619612Y66305000D01*
X65968388Y66305000D01*
X65922032Y66309565D01*
X65883362Y66321296D01*
X65847723Y66340346D01*
X65816483Y66365983D01*
X65790846Y66397223D01*
X65771796Y66432862D01*
X65760065Y66471532D01*
X65755500Y66517888D01*
X65755500Y67594112D01*
X65760065Y67640468D01*
X65771796Y67679138D01*
X65790846Y67714777D01*
X65816483Y67746017D01*
X65847723Y67771654D01*
X65883362Y67790704D01*
X65922032Y67802435D01*
X65968388Y67807000D01*
X66619612Y67807000D01*
X66665968Y67802435D01*
X66665968Y67802435D01*
G37*
G36*
X69840968Y67802435D02*
G01*
X69879638Y67790704D01*
X69915277Y67771654D01*
X69946517Y67746017D01*
X69972154Y67714777D01*
X69991204Y67679138D01*
X70002935Y67640468D01*
X70007500Y67594112D01*
X70007500Y66517888D01*
X70002935Y66471532D01*
X69991204Y66432862D01*
X69972154Y66397223D01*
X69946517Y66365983D01*
X69915277Y66340346D01*
X69879638Y66321296D01*
X69840968Y66309565D01*
X69794612Y66305000D01*
X69143388Y66305000D01*
X69097032Y66309565D01*
X69058362Y66321296D01*
X69022723Y66340346D01*
X68991483Y66365983D01*
X68965846Y66397223D01*
X68946796Y66432862D01*
X68935065Y66471532D01*
X68930500Y66517888D01*
X68930500Y67594112D01*
X68935065Y67640468D01*
X68946796Y67679138D01*
X68965846Y67714777D01*
X68991483Y67746017D01*
X69022723Y67771654D01*
X69058362Y67790704D01*
X69097032Y67802435D01*
X69143388Y67807000D01*
X69794612Y67807000D01*
X69840968Y67802435D01*
X69840968Y67802435D01*
G37*
G36*
X71715968Y67802435D02*
G01*
X71754638Y67790704D01*
X71790277Y67771654D01*
X71821517Y67746017D01*
X71847154Y67714777D01*
X71866204Y67679138D01*
X71877935Y67640468D01*
X71882500Y67594112D01*
X71882500Y66517888D01*
X71877935Y66471532D01*
X71866204Y66432862D01*
X71847154Y66397223D01*
X71821517Y66365983D01*
X71790277Y66340346D01*
X71754638Y66321296D01*
X71715968Y66309565D01*
X71669612Y66305000D01*
X71018388Y66305000D01*
X70972032Y66309565D01*
X70933362Y66321296D01*
X70897723Y66340346D01*
X70866483Y66365983D01*
X70840846Y66397223D01*
X70821796Y66432862D01*
X70810065Y66471532D01*
X70805500Y66517888D01*
X70805500Y67594112D01*
X70810065Y67640468D01*
X70821796Y67679138D01*
X70840846Y67714777D01*
X70866483Y67746017D01*
X70897723Y67771654D01*
X70933362Y67790704D01*
X70972032Y67802435D01*
X71018388Y67807000D01*
X71669612Y67807000D01*
X71715968Y67802435D01*
X71715968Y67802435D01*
G37*
G36*
X64790968Y67802435D02*
G01*
X64829638Y67790704D01*
X64865277Y67771654D01*
X64896517Y67746017D01*
X64922154Y67714777D01*
X64941204Y67679138D01*
X64952935Y67640468D01*
X64957500Y67594112D01*
X64957500Y66517888D01*
X64952935Y66471532D01*
X64941204Y66432862D01*
X64922154Y66397223D01*
X64896517Y66365983D01*
X64865277Y66340346D01*
X64829638Y66321296D01*
X64790968Y66309565D01*
X64744612Y66305000D01*
X64093388Y66305000D01*
X64047032Y66309565D01*
X64008362Y66321296D01*
X63972723Y66340346D01*
X63941483Y66365983D01*
X63915846Y66397223D01*
X63896796Y66432862D01*
X63885065Y66471532D01*
X63880500Y66517888D01*
X63880500Y67594112D01*
X63885065Y67640468D01*
X63896796Y67679138D01*
X63915846Y67714777D01*
X63941483Y67746017D01*
X63972723Y67771654D01*
X64008362Y67790704D01*
X64047032Y67802435D01*
X64093388Y67807000D01*
X64744612Y67807000D01*
X64790968Y67802435D01*
X64790968Y67802435D01*
G37*
G36*
X132334200Y68529000D02*
G01*
X130530400Y68529000D01*
X130530400Y70155000D01*
X132334200Y70155000D01*
X132334200Y68529000D01*
X132334200Y68529000D01*
G37*
G36*
X66665968Y71358435D02*
G01*
X66704638Y71346704D01*
X66740277Y71327654D01*
X66771517Y71302017D01*
X66797154Y71270777D01*
X66816204Y71235138D01*
X66827935Y71196468D01*
X66832500Y71150112D01*
X66832500Y70073888D01*
X66827935Y70027532D01*
X66816204Y69988862D01*
X66797154Y69953223D01*
X66771517Y69921983D01*
X66740277Y69896346D01*
X66704638Y69877296D01*
X66665968Y69865565D01*
X66619612Y69861000D01*
X65968388Y69861000D01*
X65922032Y69865565D01*
X65883362Y69877296D01*
X65847723Y69896346D01*
X65816483Y69921983D01*
X65790846Y69953223D01*
X65771796Y69988862D01*
X65760065Y70027532D01*
X65755500Y70073888D01*
X65755500Y71150112D01*
X65760065Y71196468D01*
X65771796Y71235138D01*
X65790846Y71270777D01*
X65816483Y71302017D01*
X65847723Y71327654D01*
X65883362Y71346704D01*
X65922032Y71358435D01*
X65968388Y71363000D01*
X66619612Y71363000D01*
X66665968Y71358435D01*
X66665968Y71358435D01*
G37*
G36*
X69870968Y71358435D02*
G01*
X69909638Y71346704D01*
X69945277Y71327654D01*
X69976517Y71302017D01*
X70002154Y71270777D01*
X70021204Y71235138D01*
X70032935Y71196468D01*
X70037500Y71150112D01*
X70037500Y70073888D01*
X70032935Y70027532D01*
X70021204Y69988862D01*
X70002154Y69953223D01*
X69976517Y69921983D01*
X69945277Y69896346D01*
X69909638Y69877296D01*
X69870968Y69865565D01*
X69824612Y69861000D01*
X69173388Y69861000D01*
X69127032Y69865565D01*
X69088362Y69877296D01*
X69052723Y69896346D01*
X69021483Y69921983D01*
X68995846Y69953223D01*
X68976796Y69988862D01*
X68965065Y70027532D01*
X68960500Y70073888D01*
X68960500Y71150112D01*
X68965065Y71196468D01*
X68976796Y71235138D01*
X68995846Y71270777D01*
X69021483Y71302017D01*
X69052723Y71327654D01*
X69088362Y71346704D01*
X69127032Y71358435D01*
X69173388Y71363000D01*
X69824612Y71363000D01*
X69870968Y71358435D01*
X69870968Y71358435D01*
G37*
G36*
X71745968Y71358435D02*
G01*
X71784638Y71346704D01*
X71820277Y71327654D01*
X71851517Y71302017D01*
X71877154Y71270777D01*
X71896204Y71235138D01*
X71907935Y71196468D01*
X71912500Y71150112D01*
X71912500Y70073888D01*
X71907935Y70027532D01*
X71896204Y69988862D01*
X71877154Y69953223D01*
X71851517Y69921983D01*
X71820277Y69896346D01*
X71784638Y69877296D01*
X71745968Y69865565D01*
X71699612Y69861000D01*
X71048388Y69861000D01*
X71002032Y69865565D01*
X70963362Y69877296D01*
X70927723Y69896346D01*
X70896483Y69921983D01*
X70870846Y69953223D01*
X70851796Y69988862D01*
X70840065Y70027532D01*
X70835500Y70073888D01*
X70835500Y71150112D01*
X70840065Y71196468D01*
X70851796Y71235138D01*
X70870846Y71270777D01*
X70896483Y71302017D01*
X70927723Y71327654D01*
X70963362Y71346704D01*
X71002032Y71358435D01*
X71048388Y71363000D01*
X71699612Y71363000D01*
X71745968Y71358435D01*
X71745968Y71358435D01*
G37*
G36*
X64790968Y71358435D02*
G01*
X64829638Y71346704D01*
X64865277Y71327654D01*
X64896517Y71302017D01*
X64922154Y71270777D01*
X64941204Y71235138D01*
X64952935Y71196468D01*
X64957500Y71150112D01*
X64957500Y70073888D01*
X64952935Y70027532D01*
X64941204Y69988862D01*
X64922154Y69953223D01*
X64896517Y69921983D01*
X64865277Y69896346D01*
X64829638Y69877296D01*
X64790968Y69865565D01*
X64744612Y69861000D01*
X64093388Y69861000D01*
X64047032Y69865565D01*
X64008362Y69877296D01*
X63972723Y69896346D01*
X63941483Y69921983D01*
X63915846Y69953223D01*
X63896796Y69988862D01*
X63885065Y70027532D01*
X63880500Y70073888D01*
X63880500Y71150112D01*
X63885065Y71196468D01*
X63896796Y71235138D01*
X63915846Y71270777D01*
X63941483Y71302017D01*
X63972723Y71327654D01*
X64008362Y71346704D01*
X64047032Y71358435D01*
X64093388Y71363000D01*
X64744612Y71363000D01*
X64790968Y71358435D01*
X64790968Y71358435D01*
G37*
G36*
X124839591Y71070915D02*
G01*
X124873569Y71060607D01*
X124904890Y71043866D01*
X124932339Y71021339D01*
X124954866Y70993890D01*
X124971607Y70962569D01*
X124981915Y70928591D01*
X124986000Y70887110D01*
X124986000Y70285890D01*
X124981915Y70244409D01*
X124971607Y70210431D01*
X124954866Y70179110D01*
X124932339Y70151661D01*
X124904890Y70129134D01*
X124873569Y70112393D01*
X124839591Y70102085D01*
X124798110Y70098000D01*
X124121890Y70098000D01*
X124080409Y70102085D01*
X124046431Y70112393D01*
X124015110Y70129134D01*
X123987661Y70151661D01*
X123965134Y70179110D01*
X123948393Y70210431D01*
X123938085Y70244409D01*
X123934000Y70285890D01*
X123934000Y70887110D01*
X123938085Y70928591D01*
X123948393Y70962569D01*
X123965134Y70993890D01*
X123987661Y71021339D01*
X124015110Y71043866D01*
X124046431Y71060607D01*
X124080409Y71070915D01*
X124121890Y71075000D01*
X124798110Y71075000D01*
X124839591Y71070915D01*
X124839591Y71070915D01*
G37*
G36*
X121791591Y71070915D02*
G01*
X121825569Y71060607D01*
X121856890Y71043866D01*
X121884339Y71021339D01*
X121906866Y70993890D01*
X121923607Y70962569D01*
X121933915Y70928591D01*
X121938000Y70887110D01*
X121938000Y70285890D01*
X121933915Y70244409D01*
X121923607Y70210431D01*
X121906866Y70179110D01*
X121884339Y70151661D01*
X121856890Y70129134D01*
X121825569Y70112393D01*
X121791591Y70102085D01*
X121750110Y70098000D01*
X121073890Y70098000D01*
X121032409Y70102085D01*
X120998431Y70112393D01*
X120967110Y70129134D01*
X120939661Y70151661D01*
X120917134Y70179110D01*
X120900393Y70210431D01*
X120890085Y70244409D01*
X120886000Y70285890D01*
X120886000Y70887110D01*
X120890085Y70928591D01*
X120900393Y70962569D01*
X120917134Y70993890D01*
X120939661Y71021339D01*
X120967110Y71043866D01*
X120998431Y71060607D01*
X121032409Y71070915D01*
X121073890Y71075000D01*
X121750110Y71075000D01*
X121791591Y71070915D01*
X121791591Y71070915D01*
G37*
G36*
X127876500Y70816001D02*
G01*
X126961700Y70816001D01*
X126961700Y87172002D01*
X127876500Y87172002D01*
X127876500Y70816001D01*
X127876500Y70816001D01*
G37*
G36*
X53479000Y71619659D02*
G01*
X53479602Y71607407D01*
X53481907Y71584000D01*
X53479602Y71560593D01*
X53479000Y71548341D01*
X53479000Y71537566D01*
X53477429Y71532387D01*
X53475629Y71520253D01*
X53470304Y71466182D01*
X53435938Y71352895D01*
X53380131Y71248488D01*
X53305027Y71156973D01*
X53213512Y71081869D01*
X53109105Y71026062D01*
X52995818Y70991696D01*
X52907519Y70983000D01*
X52248481Y70983000D01*
X52160182Y70991696D01*
X52046895Y71026062D01*
X51942488Y71081869D01*
X51850973Y71156973D01*
X51775869Y71248488D01*
X51720062Y71352895D01*
X51685696Y71466182D01*
X51680371Y71520253D01*
X51677000Y71537202D01*
X51677000Y71548341D01*
X51676398Y71560593D01*
X51674093Y71584000D01*
X51676398Y71607407D01*
X51677000Y71619659D01*
X51677000Y72935000D01*
X53479000Y72935000D01*
X53479000Y71619659D01*
X53479000Y71619659D01*
G37*
G36*
X114199000Y71508000D02*
G01*
X112097000Y71508000D01*
X112097000Y72510000D01*
X114199000Y72510000D01*
X114199000Y71508000D01*
X114199000Y71508000D01*
G37*
G36*
X97199000Y71508000D02*
G01*
X95097000Y71508000D01*
X95097000Y72510000D01*
X97199000Y72510000D01*
X97199000Y71508000D01*
X97199000Y71508000D01*
G37*
G36*
X121791591Y72645915D02*
G01*
X121825569Y72635607D01*
X121856890Y72618866D01*
X121884339Y72596339D01*
X121906866Y72568890D01*
X121923607Y72537569D01*
X121933915Y72503591D01*
X121938000Y72462110D01*
X121938000Y71860890D01*
X121933915Y71819409D01*
X121923607Y71785431D01*
X121906866Y71754110D01*
X121884339Y71726661D01*
X121856890Y71704134D01*
X121825569Y71687393D01*
X121791591Y71677085D01*
X121750110Y71673000D01*
X121073890Y71673000D01*
X121032409Y71677085D01*
X120998431Y71687393D01*
X120967110Y71704134D01*
X120939661Y71726661D01*
X120917134Y71754110D01*
X120900393Y71785431D01*
X120890085Y71819409D01*
X120886000Y71860890D01*
X120886000Y72462110D01*
X120890085Y72503591D01*
X120900393Y72537569D01*
X120917134Y72568890D01*
X120939661Y72596339D01*
X120967110Y72618866D01*
X120998431Y72635607D01*
X121032409Y72645915D01*
X121073890Y72650000D01*
X121750110Y72650000D01*
X121791591Y72645915D01*
X121791591Y72645915D01*
G37*
G36*
X124839591Y72645915D02*
G01*
X124873569Y72635607D01*
X124904890Y72618866D01*
X124932339Y72596339D01*
X124954866Y72568890D01*
X124971607Y72537569D01*
X124981915Y72503591D01*
X124986000Y72462110D01*
X124986000Y71860890D01*
X124981915Y71819409D01*
X124971607Y71785431D01*
X124954866Y71754110D01*
X124932339Y71726661D01*
X124904890Y71704134D01*
X124873569Y71687393D01*
X124839591Y71677085D01*
X124798110Y71673000D01*
X124121890Y71673000D01*
X124080409Y71677085D01*
X124046431Y71687393D01*
X124015110Y71704134D01*
X123987661Y71726661D01*
X123965134Y71754110D01*
X123948393Y71785431D01*
X123938085Y71819409D01*
X123934000Y71860890D01*
X123934000Y72462110D01*
X123938085Y72503591D01*
X123948393Y72537569D01*
X123965134Y72568890D01*
X123987661Y72596339D01*
X124015110Y72618866D01*
X124046431Y72635607D01*
X124080409Y72645915D01*
X124121890Y72650000D01*
X124798110Y72650000D01*
X124839591Y72645915D01*
X124839591Y72645915D01*
G37*
G36*
X55481016Y78278253D02*
G01*
X55607680Y78225788D01*
X55721674Y78149619D01*
X55818619Y78052674D01*
X55894788Y77938680D01*
X55947253Y77812016D01*
X55974000Y77677550D01*
X55974000Y77540450D01*
X55947253Y77405984D01*
X55894788Y77279320D01*
X55818619Y77165326D01*
X55721674Y77068381D01*
X55607680Y76992212D01*
X55567279Y76975478D01*
X55545678Y76963932D01*
X55526736Y76948386D01*
X55511191Y76929444D01*
X55499640Y76907834D01*
X55492527Y76884385D01*
X55490125Y76859999D01*
X55492527Y76835612D01*
X55499640Y76812164D01*
X55511191Y76790553D01*
X55526737Y76771611D01*
X55545679Y76756066D01*
X55567289Y76744515D01*
X55590738Y76737402D01*
X55615124Y76735000D01*
X55954000Y76735000D01*
X55954000Y73633000D01*
X55615124Y73633000D01*
X55590738Y73630598D01*
X55567289Y73623485D01*
X55545678Y73611934D01*
X55526736Y73596389D01*
X55511191Y73577447D01*
X55499640Y73555836D01*
X55492527Y73532387D01*
X55490125Y73508001D01*
X55492527Y73483615D01*
X55499640Y73460166D01*
X55511191Y73438555D01*
X55526736Y73419613D01*
X55545678Y73404068D01*
X55567279Y73392522D01*
X55607680Y73375788D01*
X55721674Y73299619D01*
X55818619Y73202674D01*
X55894788Y73088680D01*
X55947253Y72962016D01*
X55974000Y72827550D01*
X55974000Y72690450D01*
X55947253Y72555984D01*
X55894788Y72429320D01*
X55818619Y72315326D01*
X55721674Y72218381D01*
X55607680Y72142212D01*
X55481016Y72089747D01*
X55346550Y72063000D01*
X55209450Y72063000D01*
X55074984Y72089747D01*
X54948320Y72142212D01*
X54834326Y72218381D01*
X54737381Y72315326D01*
X54661212Y72429320D01*
X54608747Y72555984D01*
X54582000Y72690450D01*
X54582000Y72827550D01*
X54608747Y72962016D01*
X54661212Y73088680D01*
X54737381Y73202674D01*
X54834326Y73299619D01*
X54948320Y73375788D01*
X54988721Y73392522D01*
X55010322Y73404068D01*
X55029264Y73419614D01*
X55044809Y73438556D01*
X55056360Y73460166D01*
X55063473Y73483615D01*
X55065875Y73508001D01*
X55063473Y73532388D01*
X55056360Y73555836D01*
X55044809Y73577447D01*
X55029263Y73596389D01*
X55010321Y73611934D01*
X54988711Y73623485D01*
X54965262Y73630598D01*
X54940876Y73633000D01*
X54602000Y73633000D01*
X54602000Y76735000D01*
X54940876Y76735000D01*
X54965262Y76737402D01*
X54988711Y76744515D01*
X55010322Y76756066D01*
X55029264Y76771611D01*
X55044809Y76790553D01*
X55056360Y76812164D01*
X55063473Y76835613D01*
X55065875Y76859999D01*
X55063473Y76884385D01*
X55056360Y76907834D01*
X55044809Y76929445D01*
X55029264Y76948387D01*
X55010322Y76963932D01*
X54988721Y76975478D01*
X54948320Y76992212D01*
X54834326Y77068381D01*
X54737381Y77165326D01*
X54661212Y77279320D01*
X54608747Y77405984D01*
X54582000Y77540450D01*
X54582000Y77677550D01*
X54608747Y77812016D01*
X54661212Y77938680D01*
X54737381Y78052674D01*
X54834326Y78149619D01*
X54948320Y78225788D01*
X55074984Y78278253D01*
X55209450Y78305000D01*
X55346550Y78305000D01*
X55481016Y78278253D01*
X55481016Y78278253D01*
G37*
G36*
X97199000Y72778000D02*
G01*
X95097000Y72778000D01*
X95097000Y73780000D01*
X97199000Y73780000D01*
X97199000Y72778000D01*
X97199000Y72778000D01*
G37*
G36*
X114199000Y72778000D02*
G01*
X112097000Y72778000D01*
X112097000Y73780000D01*
X114199000Y73780000D01*
X114199000Y72778000D01*
X114199000Y72778000D01*
G37*
G36*
X53479000Y73383000D02*
G01*
X51677000Y73383000D01*
X51677000Y74985000D01*
X53479000Y74985000D01*
X53479000Y73383000D01*
X53479000Y73383000D01*
G37*
G36*
X116662468Y75034435D02*
G01*
X116701138Y75022704D01*
X116736777Y75003654D01*
X116768017Y74978017D01*
X116793654Y74946777D01*
X116812704Y74911138D01*
X116824435Y74872468D01*
X116829000Y74826112D01*
X116829000Y74174888D01*
X116824435Y74128532D01*
X116812704Y74089862D01*
X116793654Y74054223D01*
X116768017Y74022983D01*
X116736777Y73997346D01*
X116701138Y73978296D01*
X116662468Y73966565D01*
X116616112Y73962000D01*
X115539888Y73962000D01*
X115493532Y73966565D01*
X115454862Y73978296D01*
X115419223Y73997346D01*
X115387983Y74022983D01*
X115362346Y74054223D01*
X115343296Y74089862D01*
X115331565Y74128532D01*
X115327000Y74174888D01*
X115327000Y74826112D01*
X115331565Y74872468D01*
X115343296Y74911138D01*
X115362346Y74946777D01*
X115387983Y74978017D01*
X115419223Y75003654D01*
X115454862Y75022704D01*
X115493532Y75034435D01*
X115539888Y75039000D01*
X116616112Y75039000D01*
X116662468Y75034435D01*
X116662468Y75034435D01*
G37*
G36*
X97199000Y74048000D02*
G01*
X95097000Y74048000D01*
X95097000Y75050000D01*
X97199000Y75050000D01*
X97199000Y74048000D01*
X97199000Y74048000D01*
G37*
G36*
X114199000Y74048000D02*
G01*
X112097000Y74048000D01*
X112097000Y75050000D01*
X114199000Y75050000D01*
X114199000Y74048000D01*
X114199000Y74048000D01*
G37*
G36*
X90436091Y75705915D02*
G01*
X90470069Y75695607D01*
X90501390Y75678866D01*
X90528839Y75656339D01*
X90551366Y75628890D01*
X90568107Y75597569D01*
X90578415Y75563591D01*
X90582500Y75522110D01*
X90582500Y74845890D01*
X90578415Y74804409D01*
X90568107Y74770431D01*
X90551366Y74739110D01*
X90528839Y74711661D01*
X90501390Y74689134D01*
X90470069Y74672393D01*
X90436091Y74662085D01*
X90394610Y74658000D01*
X89793390Y74658000D01*
X89751909Y74662085D01*
X89717931Y74672393D01*
X89686610Y74689134D01*
X89659161Y74711661D01*
X89636634Y74739110D01*
X89619893Y74770431D01*
X89609585Y74804409D01*
X89605500Y74845890D01*
X89605500Y75522110D01*
X89609585Y75563591D01*
X89619893Y75597569D01*
X89636634Y75628890D01*
X89659161Y75656339D01*
X89686610Y75678866D01*
X89717931Y75695607D01*
X89751909Y75705915D01*
X89793390Y75710000D01*
X90394610Y75710000D01*
X90436091Y75705915D01*
X90436091Y75705915D01*
G37*
G36*
X88861091Y75705915D02*
G01*
X88895069Y75695607D01*
X88926390Y75678866D01*
X88953839Y75656339D01*
X88976366Y75628890D01*
X88993107Y75597569D01*
X89003415Y75563591D01*
X89007500Y75522110D01*
X89007500Y74845890D01*
X89003415Y74804409D01*
X88993107Y74770431D01*
X88976366Y74739110D01*
X88953839Y74711661D01*
X88926390Y74689134D01*
X88895069Y74672393D01*
X88861091Y74662085D01*
X88819610Y74658000D01*
X88218390Y74658000D01*
X88176909Y74662085D01*
X88142931Y74672393D01*
X88111610Y74689134D01*
X88084161Y74711661D01*
X88061634Y74739110D01*
X88044893Y74770431D01*
X88034585Y74804409D01*
X88030500Y74845890D01*
X88030500Y75522110D01*
X88034585Y75563591D01*
X88044893Y75597569D01*
X88061634Y75628890D01*
X88084161Y75656339D01*
X88111610Y75678866D01*
X88142931Y75695607D01*
X88176909Y75705915D01*
X88218390Y75710000D01*
X88819610Y75710000D01*
X88861091Y75705915D01*
X88861091Y75705915D01*
G37*
G36*
X97199000Y75318000D02*
G01*
X95097000Y75318000D01*
X95097000Y76320000D01*
X97199000Y76320000D01*
X97199000Y75318000D01*
X97199000Y75318000D01*
G37*
G36*
X114199000Y75318000D02*
G01*
X112097000Y75318000D01*
X112097000Y76320000D01*
X114199000Y76320000D01*
X114199000Y75318000D01*
X114199000Y75318000D01*
G37*
G36*
X53479000Y75383000D02*
G01*
X51677000Y75383000D01*
X51677000Y76985000D01*
X53479000Y76985000D01*
X53479000Y75383000D01*
X53479000Y75383000D01*
G37*
G36*
X79844091Y76467915D02*
G01*
X79878069Y76457607D01*
X79909390Y76440866D01*
X79936839Y76418339D01*
X79959366Y76390890D01*
X79976107Y76359569D01*
X79986415Y76325591D01*
X79990500Y76284110D01*
X79990500Y75607890D01*
X79986415Y75566409D01*
X79976107Y75532431D01*
X79959366Y75501110D01*
X79936839Y75473661D01*
X79909390Y75451134D01*
X79878069Y75434393D01*
X79844091Y75424085D01*
X79802610Y75420000D01*
X79201390Y75420000D01*
X79159909Y75424085D01*
X79125931Y75434393D01*
X79094610Y75451134D01*
X79067161Y75473661D01*
X79044634Y75501110D01*
X79027893Y75532431D01*
X79017585Y75566409D01*
X79013500Y75607890D01*
X79013500Y76284110D01*
X79017585Y76325591D01*
X79027893Y76359569D01*
X79044634Y76390890D01*
X79067161Y76418339D01*
X79094610Y76440866D01*
X79125931Y76457607D01*
X79159909Y76467915D01*
X79201390Y76472000D01*
X79802610Y76472000D01*
X79844091Y76467915D01*
X79844091Y76467915D01*
G37*
G36*
X78269091Y76467915D02*
G01*
X78303069Y76457607D01*
X78334390Y76440866D01*
X78361839Y76418339D01*
X78384366Y76390890D01*
X78401107Y76359569D01*
X78411415Y76325591D01*
X78415500Y76284110D01*
X78415500Y75607890D01*
X78411415Y75566409D01*
X78401107Y75532431D01*
X78384366Y75501110D01*
X78361839Y75473661D01*
X78334390Y75451134D01*
X78303069Y75434393D01*
X78269091Y75424085D01*
X78227610Y75420000D01*
X77626390Y75420000D01*
X77584909Y75424085D01*
X77550931Y75434393D01*
X77519610Y75451134D01*
X77492161Y75473661D01*
X77469634Y75501110D01*
X77452893Y75532431D01*
X77442585Y75566409D01*
X77438500Y75607890D01*
X77438500Y76284110D01*
X77442585Y76325591D01*
X77452893Y76359569D01*
X77469634Y76390890D01*
X77492161Y76418339D01*
X77519610Y76440866D01*
X77550931Y76457607D01*
X77584909Y76467915D01*
X77626390Y76472000D01*
X78227610Y76472000D01*
X78269091Y76467915D01*
X78269091Y76467915D01*
G37*
G36*
X67547928Y76294236D02*
G01*
X67569009Y76287840D01*
X67588445Y76277452D01*
X67605476Y76263476D01*
X67619452Y76246445D01*
X67629840Y76227009D01*
X67636236Y76205928D01*
X67639000Y76177860D01*
X67639000Y75714140D01*
X67636236Y75686072D01*
X67629840Y75664991D01*
X67619452Y75645555D01*
X67605476Y75628524D01*
X67588445Y75614548D01*
X67569009Y75604160D01*
X67547928Y75597764D01*
X67519860Y75595000D01*
X65706140Y75595000D01*
X65678072Y75597764D01*
X65656991Y75604160D01*
X65637555Y75614548D01*
X65620524Y75628524D01*
X65606548Y75645555D01*
X65596160Y75664991D01*
X65589764Y75686072D01*
X65587000Y75714140D01*
X65587000Y76177860D01*
X65589764Y76205928D01*
X65596160Y76227009D01*
X65606548Y76246445D01*
X65620524Y76263476D01*
X65637555Y76277452D01*
X65656991Y76287840D01*
X65678072Y76294236D01*
X65706140Y76297000D01*
X67519860Y76297000D01*
X67547928Y76294236D01*
X67547928Y76294236D01*
G37*
G36*
X72497928Y76294236D02*
G01*
X72519009Y76287840D01*
X72538445Y76277452D01*
X72555476Y76263476D01*
X72569452Y76246445D01*
X72579840Y76227009D01*
X72586236Y76205928D01*
X72589000Y76177860D01*
X72589000Y75714140D01*
X72586236Y75686072D01*
X72579840Y75664991D01*
X72569452Y75645555D01*
X72555476Y75628524D01*
X72538445Y75614548D01*
X72519009Y75604160D01*
X72497928Y75597764D01*
X72469860Y75595000D01*
X70656140Y75595000D01*
X70628072Y75597764D01*
X70606991Y75604160D01*
X70587555Y75614548D01*
X70570524Y75628524D01*
X70556548Y75645555D01*
X70546160Y75664991D01*
X70539764Y75686072D01*
X70537000Y75714140D01*
X70537000Y76177860D01*
X70539764Y76205928D01*
X70546160Y76227009D01*
X70556548Y76246445D01*
X70570524Y76263476D01*
X70587555Y76277452D01*
X70606991Y76287840D01*
X70628072Y76294236D01*
X70656140Y76297000D01*
X72469860Y76297000D01*
X72497928Y76294236D01*
X72497928Y76294236D01*
G37*
G36*
X116662468Y76909435D02*
G01*
X116701138Y76897704D01*
X116736777Y76878654D01*
X116768017Y76853017D01*
X116793654Y76821777D01*
X116812704Y76786138D01*
X116824435Y76747468D01*
X116829000Y76701112D01*
X116829000Y76049888D01*
X116824435Y76003532D01*
X116812704Y75964862D01*
X116793654Y75929223D01*
X116768017Y75897983D01*
X116736777Y75872346D01*
X116701138Y75853296D01*
X116662468Y75841565D01*
X116616112Y75837000D01*
X115539888Y75837000D01*
X115493532Y75841565D01*
X115454862Y75853296D01*
X115419223Y75872346D01*
X115387983Y75897983D01*
X115362346Y75929223D01*
X115343296Y75964862D01*
X115331565Y76003532D01*
X115327000Y76049888D01*
X115327000Y76701112D01*
X115331565Y76747468D01*
X115343296Y76786138D01*
X115362346Y76821777D01*
X115387983Y76853017D01*
X115419223Y76878654D01*
X115454862Y76897704D01*
X115493532Y76909435D01*
X115539888Y76914000D01*
X116616112Y76914000D01*
X116662468Y76909435D01*
X116662468Y76909435D01*
G37*
G36*
X97199000Y76588000D02*
G01*
X95097000Y76588000D01*
X95097000Y77590000D01*
X97199000Y77590000D01*
X97199000Y76588000D01*
X97199000Y76588000D01*
G37*
G36*
X114199000Y76588000D02*
G01*
X112097000Y76588000D01*
X112097000Y77590000D01*
X114199000Y77590000D01*
X114199000Y76588000D01*
X114199000Y76588000D01*
G37*
G36*
X67547928Y77564236D02*
G01*
X67569009Y77557840D01*
X67588445Y77547452D01*
X67605476Y77533476D01*
X67619452Y77516445D01*
X67629840Y77497009D01*
X67636236Y77475928D01*
X67639000Y77447860D01*
X67639000Y76984140D01*
X67636236Y76956072D01*
X67629840Y76934991D01*
X67619452Y76915555D01*
X67605476Y76898524D01*
X67588445Y76884548D01*
X67569009Y76874160D01*
X67547928Y76867764D01*
X67519860Y76865000D01*
X65706140Y76865000D01*
X65678072Y76867764D01*
X65656991Y76874160D01*
X65637555Y76884548D01*
X65620524Y76898524D01*
X65606548Y76915555D01*
X65596160Y76934991D01*
X65589764Y76956072D01*
X65587000Y76984140D01*
X65587000Y77447860D01*
X65589764Y77475928D01*
X65596160Y77497009D01*
X65606548Y77516445D01*
X65620524Y77533476D01*
X65637555Y77547452D01*
X65656991Y77557840D01*
X65678072Y77564236D01*
X65706140Y77567000D01*
X67519860Y77567000D01*
X67547928Y77564236D01*
X67547928Y77564236D01*
G37*
G36*
X72497928Y77564236D02*
G01*
X72519009Y77557840D01*
X72538445Y77547452D01*
X72555476Y77533476D01*
X72569452Y77516445D01*
X72579840Y77497009D01*
X72586236Y77475928D01*
X72589000Y77447860D01*
X72589000Y76984140D01*
X72586236Y76956072D01*
X72579840Y76934991D01*
X72569452Y76915555D01*
X72555476Y76898524D01*
X72538445Y76884548D01*
X72519009Y76874160D01*
X72497928Y76867764D01*
X72469860Y76865000D01*
X70656140Y76865000D01*
X70628072Y76867764D01*
X70606991Y76874160D01*
X70587555Y76884548D01*
X70570524Y76898524D01*
X70556548Y76915555D01*
X70546160Y76934991D01*
X70539764Y76956072D01*
X70537000Y76984140D01*
X70537000Y77447860D01*
X70539764Y77475928D01*
X70546160Y77497009D01*
X70556548Y77516445D01*
X70570524Y77533476D01*
X70587555Y77547452D01*
X70606991Y77557840D01*
X70628072Y77564236D01*
X70656140Y77567000D01*
X72469860Y77567000D01*
X72497928Y77564236D01*
X72497928Y77564236D01*
G37*
G36*
X108199000Y76958000D02*
G01*
X103097000Y76958000D01*
X103097000Y82060000D01*
X108199000Y82060000D01*
X108199000Y76958000D01*
X108199000Y76958000D01*
G37*
G36*
X52995818Y79376304D02*
G01*
X53109105Y79341938D01*
X53213512Y79286131D01*
X53305027Y79211027D01*
X53380131Y79119512D01*
X53435938Y79015105D01*
X53470304Y78901818D01*
X53475629Y78847747D01*
X53479000Y78830798D01*
X53479000Y78819659D01*
X53479602Y78807407D01*
X53481907Y78784000D01*
X53479602Y78760593D01*
X53479000Y78748341D01*
X53479000Y77433000D01*
X51677000Y77433000D01*
X51677000Y78748341D01*
X51676398Y78760593D01*
X51674093Y78784000D01*
X51676398Y78807407D01*
X51677000Y78819659D01*
X51677000Y78830434D01*
X51678571Y78835613D01*
X51680371Y78847747D01*
X51685696Y78901818D01*
X51720062Y79015105D01*
X51775869Y79119512D01*
X51850973Y79211027D01*
X51942488Y79286131D01*
X52046895Y79341938D01*
X52160182Y79376304D01*
X52248481Y79385000D01*
X52907519Y79385000D01*
X52995818Y79376304D01*
X52995818Y79376304D01*
G37*
G36*
X87705000Y77733000D02*
G01*
X86853000Y77733000D01*
X86853000Y79335000D01*
X87705000Y79335000D01*
X87705000Y77733000D01*
X87705000Y77733000D01*
G37*
G36*
X91455000Y77733000D02*
G01*
X90603000Y77733000D01*
X90603000Y79335000D01*
X91455000Y79335000D01*
X91455000Y77733000D01*
X91455000Y77733000D01*
G37*
G36*
X97199000Y77858000D02*
G01*
X95097000Y77858000D01*
X95097000Y78860000D01*
X97199000Y78860000D01*
X97199000Y77858000D01*
X97199000Y77858000D01*
G37*
G36*
X114199000Y77858000D02*
G01*
X112097000Y77858000D01*
X112097000Y78860000D01*
X114199000Y78860000D01*
X114199000Y77858000D01*
X114199000Y77858000D01*
G37*
G36*
X67547928Y78834236D02*
G01*
X67569009Y78827840D01*
X67588445Y78817452D01*
X67605476Y78803476D01*
X67619452Y78786445D01*
X67629840Y78767009D01*
X67636236Y78745928D01*
X67639000Y78717860D01*
X67639000Y78254140D01*
X67636236Y78226072D01*
X67629840Y78204991D01*
X67619452Y78185555D01*
X67605476Y78168524D01*
X67588445Y78154548D01*
X67569009Y78144160D01*
X67547928Y78137764D01*
X67519860Y78135000D01*
X65706140Y78135000D01*
X65678072Y78137764D01*
X65656991Y78144160D01*
X65637555Y78154548D01*
X65620524Y78168524D01*
X65606548Y78185555D01*
X65596160Y78204991D01*
X65589764Y78226072D01*
X65587000Y78254140D01*
X65587000Y78717860D01*
X65589764Y78745928D01*
X65596160Y78767009D01*
X65606548Y78786445D01*
X65620524Y78803476D01*
X65637555Y78817452D01*
X65656991Y78827840D01*
X65678072Y78834236D01*
X65706140Y78837000D01*
X67519860Y78837000D01*
X67547928Y78834236D01*
X67547928Y78834236D01*
G37*
G36*
X72497928Y78834236D02*
G01*
X72519009Y78827840D01*
X72538445Y78817452D01*
X72555476Y78803476D01*
X72569452Y78786445D01*
X72579840Y78767009D01*
X72586236Y78745928D01*
X72589000Y78717860D01*
X72589000Y78254140D01*
X72586236Y78226072D01*
X72579840Y78204991D01*
X72569452Y78185555D01*
X72555476Y78168524D01*
X72538445Y78154548D01*
X72519009Y78144160D01*
X72497928Y78137764D01*
X72469860Y78135000D01*
X70656140Y78135000D01*
X70628072Y78137764D01*
X70606991Y78144160D01*
X70587555Y78154548D01*
X70570524Y78168524D01*
X70556548Y78185555D01*
X70546160Y78204991D01*
X70539764Y78226072D01*
X70537000Y78254140D01*
X70537000Y78717860D01*
X70539764Y78745928D01*
X70546160Y78767009D01*
X70556548Y78786445D01*
X70570524Y78803476D01*
X70587555Y78817452D01*
X70606991Y78827840D01*
X70628072Y78834236D01*
X70656140Y78837000D01*
X72469860Y78837000D01*
X72497928Y78834236D01*
X72497928Y78834236D01*
G37*
G36*
X97199000Y79128000D02*
G01*
X95097000Y79128000D01*
X95097000Y80130000D01*
X97199000Y80130000D01*
X97199000Y79128000D01*
X97199000Y79128000D01*
G37*
G36*
X114199000Y79128000D02*
G01*
X112097000Y79128000D01*
X112097000Y80130000D01*
X114199000Y80130000D01*
X114199000Y79128000D01*
X114199000Y79128000D01*
G37*
G36*
X79844091Y80277915D02*
G01*
X79878069Y80267607D01*
X79909390Y80250866D01*
X79936839Y80228339D01*
X79959366Y80200890D01*
X79976107Y80169569D01*
X79986415Y80135591D01*
X79990500Y80094110D01*
X79990500Y79417890D01*
X79986415Y79376409D01*
X79976107Y79342431D01*
X79959366Y79311110D01*
X79936839Y79283661D01*
X79909390Y79261134D01*
X79878069Y79244393D01*
X79844091Y79234085D01*
X79802610Y79230000D01*
X79201390Y79230000D01*
X79159909Y79234085D01*
X79125931Y79244393D01*
X79094610Y79261134D01*
X79067161Y79283661D01*
X79044634Y79311110D01*
X79027893Y79342431D01*
X79017585Y79376409D01*
X79013500Y79417890D01*
X79013500Y80094110D01*
X79017585Y80135591D01*
X79027893Y80169569D01*
X79044634Y80200890D01*
X79067161Y80228339D01*
X79094610Y80250866D01*
X79125931Y80267607D01*
X79159909Y80277915D01*
X79201390Y80282000D01*
X79802610Y80282000D01*
X79844091Y80277915D01*
X79844091Y80277915D01*
G37*
G36*
X78269091Y80277915D02*
G01*
X78303069Y80267607D01*
X78334390Y80250866D01*
X78361839Y80228339D01*
X78384366Y80200890D01*
X78401107Y80169569D01*
X78411415Y80135591D01*
X78415500Y80094110D01*
X78415500Y79417890D01*
X78411415Y79376409D01*
X78401107Y79342431D01*
X78384366Y79311110D01*
X78361839Y79283661D01*
X78334390Y79261134D01*
X78303069Y79244393D01*
X78269091Y79234085D01*
X78227610Y79230000D01*
X77626390Y79230000D01*
X77584909Y79234085D01*
X77550931Y79244393D01*
X77519610Y79261134D01*
X77492161Y79283661D01*
X77469634Y79311110D01*
X77452893Y79342431D01*
X77442585Y79376409D01*
X77438500Y79417890D01*
X77438500Y80094110D01*
X77442585Y80135591D01*
X77452893Y80169569D01*
X77469634Y80200890D01*
X77492161Y80228339D01*
X77519610Y80250866D01*
X77550931Y80267607D01*
X77584909Y80277915D01*
X77626390Y80282000D01*
X78227610Y80282000D01*
X78269091Y80277915D01*
X78269091Y80277915D01*
G37*
G36*
X67547928Y80104236D02*
G01*
X67569009Y80097840D01*
X67588445Y80087452D01*
X67605476Y80073476D01*
X67619452Y80056445D01*
X67629840Y80037009D01*
X67636236Y80015928D01*
X67639000Y79987860D01*
X67639000Y79524140D01*
X67636236Y79496072D01*
X67629840Y79474991D01*
X67619452Y79455555D01*
X67605476Y79438524D01*
X67588445Y79424548D01*
X67569009Y79414160D01*
X67547928Y79407764D01*
X67519860Y79405000D01*
X65706140Y79405000D01*
X65678072Y79407764D01*
X65656991Y79414160D01*
X65637555Y79424548D01*
X65620524Y79438524D01*
X65606548Y79455555D01*
X65596160Y79474991D01*
X65589764Y79496072D01*
X65587000Y79524140D01*
X65587000Y79987860D01*
X65589764Y80015928D01*
X65596160Y80037009D01*
X65606548Y80056445D01*
X65620524Y80073476D01*
X65637555Y80087452D01*
X65656991Y80097840D01*
X65678072Y80104236D01*
X65706140Y80107000D01*
X67519860Y80107000D01*
X67547928Y80104236D01*
X67547928Y80104236D01*
G37*
G36*
X72497928Y80104236D02*
G01*
X72519009Y80097840D01*
X72538445Y80087452D01*
X72555476Y80073476D01*
X72569452Y80056445D01*
X72579840Y80037009D01*
X72586236Y80015928D01*
X72589000Y79987860D01*
X72589000Y79524140D01*
X72586236Y79496072D01*
X72579840Y79474991D01*
X72569452Y79455555D01*
X72555476Y79438524D01*
X72538445Y79424548D01*
X72519009Y79414160D01*
X72497928Y79407764D01*
X72469860Y79405000D01*
X70656140Y79405000D01*
X70628072Y79407764D01*
X70606991Y79414160D01*
X70587555Y79424548D01*
X70570524Y79438524D01*
X70556548Y79455555D01*
X70546160Y79474991D01*
X70539764Y79496072D01*
X70537000Y79524140D01*
X70537000Y79987860D01*
X70539764Y80015928D01*
X70546160Y80037009D01*
X70556548Y80056445D01*
X70570524Y80073476D01*
X70587555Y80087452D01*
X70606991Y80097840D01*
X70628072Y80104236D01*
X70656140Y80107000D01*
X72469860Y80107000D01*
X72497928Y80104236D01*
X72497928Y80104236D01*
G37*
G36*
X114199000Y80398000D02*
G01*
X112097000Y80398000D01*
X112097000Y81400000D01*
X114199000Y81400000D01*
X114199000Y80398000D01*
X114199000Y80398000D01*
G37*
G36*
X97199000Y80398000D02*
G01*
X95097000Y80398000D01*
X95097000Y81400000D01*
X97199000Y81400000D01*
X97199000Y80398000D01*
X97199000Y80398000D01*
G37*
G36*
X114199000Y81668000D02*
G01*
X112097000Y81668000D01*
X112097000Y82670000D01*
X114199000Y82670000D01*
X114199000Y81668000D01*
X114199000Y81668000D01*
G37*
G36*
X97199000Y81668000D02*
G01*
X95097000Y81668000D01*
X95097000Y82670000D01*
X97199000Y82670000D01*
X97199000Y81668000D01*
X97199000Y81668000D01*
G37*
G36*
X55460091Y83833915D02*
G01*
X55494069Y83823607D01*
X55525390Y83806866D01*
X55552839Y83784339D01*
X55575366Y83756890D01*
X55592107Y83725569D01*
X55602415Y83691591D01*
X55606500Y83650110D01*
X55606500Y82973890D01*
X55602415Y82932409D01*
X55592107Y82898431D01*
X55575366Y82867110D01*
X55552839Y82839661D01*
X55525390Y82817134D01*
X55494069Y82800393D01*
X55460091Y82790085D01*
X55418610Y82786000D01*
X54817390Y82786000D01*
X54775909Y82790085D01*
X54741931Y82800393D01*
X54710610Y82817134D01*
X54683161Y82839661D01*
X54660634Y82867110D01*
X54643893Y82898431D01*
X54633585Y82932409D01*
X54629500Y82973890D01*
X54629500Y83650110D01*
X54633585Y83691591D01*
X54643893Y83725569D01*
X54660634Y83756890D01*
X54683161Y83784339D01*
X54710610Y83806866D01*
X54741931Y83823607D01*
X54775909Y83833915D01*
X54817390Y83838000D01*
X55418610Y83838000D01*
X55460091Y83833915D01*
X55460091Y83833915D01*
G37*
G36*
X53885091Y83833915D02*
G01*
X53919069Y83823607D01*
X53950390Y83806866D01*
X53977839Y83784339D01*
X54000366Y83756890D01*
X54017107Y83725569D01*
X54027415Y83691591D01*
X54031500Y83650110D01*
X54031500Y82973890D01*
X54027415Y82932409D01*
X54017107Y82898431D01*
X54000366Y82867110D01*
X53977839Y82839661D01*
X53950390Y82817134D01*
X53919069Y82800393D01*
X53885091Y82790085D01*
X53843610Y82786000D01*
X53242390Y82786000D01*
X53200909Y82790085D01*
X53166931Y82800393D01*
X53135610Y82817134D01*
X53108161Y82839661D01*
X53085634Y82867110D01*
X53068893Y82898431D01*
X53058585Y82932409D01*
X53054500Y82973890D01*
X53054500Y83650110D01*
X53058585Y83691591D01*
X53068893Y83725569D01*
X53085634Y83756890D01*
X53108161Y83784339D01*
X53135610Y83806866D01*
X53166931Y83823607D01*
X53200909Y83833915D01*
X53242390Y83838000D01*
X53843610Y83838000D01*
X53885091Y83833915D01*
X53885091Y83833915D01*
G37*
G36*
X114199000Y82938000D02*
G01*
X112097000Y82938000D01*
X112097000Y83940000D01*
X114199000Y83940000D01*
X114199000Y82938000D01*
X114199000Y82938000D01*
G37*
G36*
X97199000Y82938000D02*
G01*
X95097000Y82938000D01*
X95097000Y83940000D01*
X97199000Y83940000D01*
X97199000Y82938000D01*
X97199000Y82938000D01*
G37*
G36*
X87705000Y83733000D02*
G01*
X86853000Y83733000D01*
X86853000Y85335000D01*
X87705000Y85335000D01*
X87705000Y83733000D01*
X87705000Y83733000D01*
G37*
G36*
X91455000Y83733000D02*
G01*
X90603000Y83733000D01*
X90603000Y85335000D01*
X91455000Y85335000D01*
X91455000Y83733000D01*
X91455000Y83733000D01*
G37*
G36*
X97199000Y84208000D02*
G01*
X95097000Y84208000D01*
X95097000Y85210000D01*
X97199000Y85210000D01*
X97199000Y84208000D01*
X97199000Y84208000D01*
G37*
G36*
X114199000Y84208000D02*
G01*
X112097000Y84208000D01*
X112097000Y85210000D01*
X114199000Y85210000D01*
X114199000Y84208000D01*
X114199000Y84208000D01*
G37*
G36*
X97199000Y85478000D02*
G01*
X95097000Y85478000D01*
X95097000Y86480000D01*
X97199000Y86480000D01*
X97199000Y85478000D01*
X97199000Y85478000D01*
G37*
G36*
X114199000Y85478000D02*
G01*
X112097000Y85478000D01*
X112097000Y86480000D01*
X114199000Y86480000D01*
X114199000Y85478000D01*
X114199000Y85478000D01*
G37*
G36*
X77292468Y87226435D02*
G01*
X77331138Y87214704D01*
X77366777Y87195654D01*
X77398017Y87170017D01*
X77423654Y87138777D01*
X77442704Y87103138D01*
X77454435Y87064468D01*
X77459000Y87018112D01*
X77459000Y86366888D01*
X77454435Y86320532D01*
X77442704Y86281862D01*
X77423654Y86246223D01*
X77398017Y86214983D01*
X77366777Y86189346D01*
X77331138Y86170296D01*
X77292468Y86158565D01*
X77246112Y86154000D01*
X76169888Y86154000D01*
X76123532Y86158565D01*
X76084862Y86170296D01*
X76049223Y86189346D01*
X76017983Y86214983D01*
X75992346Y86246223D01*
X75973296Y86281862D01*
X75961565Y86320532D01*
X75957000Y86366888D01*
X75957000Y87018112D01*
X75961565Y87064468D01*
X75973296Y87103138D01*
X75992346Y87138777D01*
X76017983Y87170017D01*
X76049223Y87195654D01*
X76084862Y87214704D01*
X76123532Y87226435D01*
X76169888Y87231000D01*
X77246112Y87231000D01*
X77292468Y87226435D01*
X77292468Y87226435D01*
G37*
G36*
X64695000Y86712000D02*
G01*
X58193000Y86712000D01*
X58193000Y92614000D01*
X64695000Y92614000D01*
X64695000Y86712000D01*
X64695000Y86712000D01*
G37*
G36*
X68895000Y86732000D02*
G01*
X66593000Y86732000D01*
X66593000Y88034000D01*
X68895000Y88034000D01*
X68895000Y86732000D01*
X68895000Y86732000D01*
G37*
G36*
X97199000Y86748000D02*
G01*
X95097000Y86748000D01*
X95097000Y87750000D01*
X97199000Y87750000D01*
X97199000Y86748000D01*
X97199000Y86748000D01*
G37*
G36*
X114199000Y86748000D02*
G01*
X112097000Y86748000D01*
X112097000Y87750000D01*
X114199000Y87750000D01*
X114199000Y86748000D01*
X114199000Y86748000D01*
G37*
G36*
X88842468Y88630435D02*
G01*
X88881138Y88618704D01*
X88916777Y88599654D01*
X88948017Y88574017D01*
X88973654Y88542777D01*
X88992704Y88507138D01*
X89004435Y88468468D01*
X89009000Y88422112D01*
X89009000Y87345888D01*
X89004435Y87299532D01*
X88992704Y87260862D01*
X88973654Y87225223D01*
X88948017Y87193983D01*
X88916777Y87168346D01*
X88881138Y87149296D01*
X88842468Y87137565D01*
X88796112Y87133000D01*
X88144888Y87133000D01*
X88098532Y87137565D01*
X88059862Y87149296D01*
X88024223Y87168346D01*
X87992983Y87193983D01*
X87967346Y87225223D01*
X87948296Y87260862D01*
X87936565Y87299532D01*
X87932000Y87345888D01*
X87932000Y88422112D01*
X87936565Y88468468D01*
X87948296Y88507138D01*
X87967346Y88542777D01*
X87992983Y88574017D01*
X88024223Y88599654D01*
X88059862Y88618704D01*
X88098532Y88630435D01*
X88144888Y88635000D01*
X88796112Y88635000D01*
X88842468Y88630435D01*
X88842468Y88630435D01*
G37*
G36*
X90717468Y88630435D02*
G01*
X90756138Y88618704D01*
X90791777Y88599654D01*
X90823017Y88574017D01*
X90848654Y88542777D01*
X90867704Y88507138D01*
X90879435Y88468468D01*
X90884000Y88422112D01*
X90884000Y87345888D01*
X90879435Y87299532D01*
X90867704Y87260862D01*
X90848654Y87225223D01*
X90823017Y87193983D01*
X90791777Y87168346D01*
X90756138Y87149296D01*
X90717468Y87137565D01*
X90671112Y87133000D01*
X90019888Y87133000D01*
X89973532Y87137565D01*
X89934862Y87149296D01*
X89899223Y87168346D01*
X89867983Y87193983D01*
X89842346Y87225223D01*
X89823296Y87260862D01*
X89811565Y87299532D01*
X89807000Y87345888D01*
X89807000Y88422112D01*
X89811565Y88468468D01*
X89823296Y88507138D01*
X89842346Y88542777D01*
X89867983Y88574017D01*
X89899223Y88599654D01*
X89934862Y88618704D01*
X89973532Y88630435D01*
X90019888Y88635000D01*
X90671112Y88635000D01*
X90717468Y88630435D01*
X90717468Y88630435D01*
G37*
G36*
X132334200Y87833000D02*
G01*
X130530400Y87833000D01*
X130530400Y89459000D01*
X132334200Y89459000D01*
X132334200Y87833000D01*
X132334200Y87833000D01*
G37*
G36*
X97199000Y88018000D02*
G01*
X95097000Y88018000D01*
X95097000Y89020000D01*
X97199000Y89020000D01*
X97199000Y88018000D01*
X97199000Y88018000D01*
G37*
G36*
X114199000Y88018000D02*
G01*
X112097000Y88018000D01*
X112097000Y89020000D01*
X114199000Y89020000D01*
X114199000Y88018000D01*
X114199000Y88018000D01*
G37*
G36*
X77292468Y89101435D02*
G01*
X77331138Y89089704D01*
X77366777Y89070654D01*
X77398017Y89045017D01*
X77423654Y89013777D01*
X77442704Y88978138D01*
X77454435Y88939468D01*
X77459000Y88893112D01*
X77459000Y88241888D01*
X77454435Y88195532D01*
X77442704Y88156862D01*
X77423654Y88121223D01*
X77398017Y88089983D01*
X77366777Y88064346D01*
X77331138Y88045296D01*
X77292468Y88033565D01*
X77246112Y88029000D01*
X76169888Y88029000D01*
X76123532Y88033565D01*
X76084862Y88045296D01*
X76049223Y88064346D01*
X76017983Y88089983D01*
X75992346Y88121223D01*
X75973296Y88156862D01*
X75961565Y88195532D01*
X75957000Y88241888D01*
X75957000Y88893112D01*
X75961565Y88939468D01*
X75973296Y88978138D01*
X75992346Y89013777D01*
X76017983Y89045017D01*
X76049223Y89070654D01*
X76084862Y89089704D01*
X76123532Y89101435D01*
X76169888Y89106000D01*
X77246112Y89106000D01*
X77292468Y89101435D01*
X77292468Y89101435D01*
G37*
G36*
X109594000Y88468000D02*
G01*
X108592000Y88468000D01*
X108592000Y90570000D01*
X109594000Y90570000D01*
X109594000Y88468000D01*
X109594000Y88468000D01*
G37*
G36*
X107054000Y88468000D02*
G01*
X106052000Y88468000D01*
X106052000Y90570000D01*
X107054000Y90570000D01*
X107054000Y88468000D01*
X107054000Y88468000D01*
G37*
G36*
X105784000Y88468000D02*
G01*
X104782000Y88468000D01*
X104782000Y90570000D01*
X105784000Y90570000D01*
X105784000Y88468000D01*
X105784000Y88468000D01*
G37*
G36*
X103244000Y88468000D02*
G01*
X102242000Y88468000D01*
X102242000Y90570000D01*
X103244000Y90570000D01*
X103244000Y88468000D01*
X103244000Y88468000D01*
G37*
G36*
X101974000Y88468000D02*
G01*
X100972000Y88468000D01*
X100972000Y90570000D01*
X101974000Y90570000D01*
X101974000Y88468000D01*
X101974000Y88468000D01*
G37*
G36*
X99434000Y88468000D02*
G01*
X98432000Y88468000D01*
X98432000Y90570000D01*
X99434000Y90570000D01*
X99434000Y88468000D01*
X99434000Y88468000D01*
G37*
G36*
X100704000Y88468000D02*
G01*
X99702000Y88468000D01*
X99702000Y90570000D01*
X100704000Y90570000D01*
X100704000Y88468000D01*
X100704000Y88468000D01*
G37*
G36*
X104514000Y88468000D02*
G01*
X103512000Y88468000D01*
X103512000Y90570000D01*
X104514000Y90570000D01*
X104514000Y88468000D01*
X104514000Y88468000D01*
G37*
G36*
X108324000Y88468000D02*
G01*
X107322000Y88468000D01*
X107322000Y90570000D01*
X108324000Y90570000D01*
X108324000Y88468000D01*
X108324000Y88468000D01*
G37*
G36*
X110864000Y88468000D02*
G01*
X109862000Y88468000D01*
X109862000Y90570000D01*
X110864000Y90570000D01*
X110864000Y88468000D01*
X110864000Y88468000D01*
G37*
G36*
X72515591Y90146415D02*
G01*
X72549569Y90136107D01*
X72580890Y90119366D01*
X72608339Y90096839D01*
X72630866Y90069390D01*
X72647607Y90038069D01*
X72657915Y90004091D01*
X72662000Y89962610D01*
X72662000Y89361390D01*
X72657915Y89319909D01*
X72647607Y89285931D01*
X72630866Y89254610D01*
X72608339Y89227161D01*
X72580890Y89204634D01*
X72549569Y89187893D01*
X72515591Y89177585D01*
X72474110Y89173500D01*
X71797890Y89173500D01*
X71756409Y89177585D01*
X71722431Y89187893D01*
X71691110Y89204634D01*
X71663661Y89227161D01*
X71641134Y89254610D01*
X71624393Y89285931D01*
X71614085Y89319909D01*
X71610000Y89361390D01*
X71610000Y89962610D01*
X71614085Y90004091D01*
X71624393Y90038069D01*
X71641134Y90069390D01*
X71663661Y90096839D01*
X71691110Y90119366D01*
X71722431Y90136107D01*
X71756409Y90146415D01*
X71797890Y90150500D01*
X72474110Y90150500D01*
X72515591Y90146415D01*
X72515591Y90146415D01*
G37*
G36*
X77292468Y91290435D02*
G01*
X77331138Y91278704D01*
X77366777Y91259654D01*
X77398017Y91234017D01*
X77423654Y91202777D01*
X77442704Y91167138D01*
X77454435Y91128468D01*
X77459000Y91082112D01*
X77459000Y90430888D01*
X77454435Y90384532D01*
X77442704Y90345862D01*
X77423654Y90310223D01*
X77398017Y90278983D01*
X77366777Y90253346D01*
X77331138Y90234296D01*
X77292468Y90222565D01*
X77246112Y90218000D01*
X76169888Y90218000D01*
X76123532Y90222565D01*
X76084862Y90234296D01*
X76049223Y90253346D01*
X76017983Y90278983D01*
X75992346Y90310223D01*
X75973296Y90345862D01*
X75961565Y90384532D01*
X75957000Y90430888D01*
X75957000Y91082112D01*
X75961565Y91128468D01*
X75973296Y91167138D01*
X75992346Y91202777D01*
X76017983Y91234017D01*
X76049223Y91259654D01*
X76084862Y91278704D01*
X76123532Y91290435D01*
X76169888Y91295000D01*
X77246112Y91295000D01*
X77292468Y91290435D01*
X77292468Y91290435D01*
G37*
G36*
X72515591Y91721415D02*
G01*
X72549569Y91711107D01*
X72580890Y91694366D01*
X72608339Y91671839D01*
X72630866Y91644390D01*
X72647607Y91613069D01*
X72657915Y91579091D01*
X72662000Y91537610D01*
X72662000Y90936390D01*
X72657915Y90894909D01*
X72647607Y90860931D01*
X72630866Y90829610D01*
X72608339Y90802161D01*
X72580890Y90779634D01*
X72549569Y90762893D01*
X72515591Y90752585D01*
X72474110Y90748500D01*
X71797890Y90748500D01*
X71756409Y90752585D01*
X71722431Y90762893D01*
X71691110Y90779634D01*
X71663661Y90802161D01*
X71641134Y90829610D01*
X71624393Y90860931D01*
X71614085Y90894909D01*
X71610000Y90936390D01*
X71610000Y91537610D01*
X71614085Y91579091D01*
X71624393Y91613069D01*
X71641134Y91644390D01*
X71663661Y91671839D01*
X71691110Y91694366D01*
X71722431Y91711107D01*
X71756409Y91721415D01*
X71797890Y91725500D01*
X72474110Y91725500D01*
X72515591Y91721415D01*
X72515591Y91721415D01*
G37*
G36*
X68895000Y91292000D02*
G01*
X66593000Y91292000D01*
X66593000Y92594000D01*
X68895000Y92594000D01*
X68895000Y91292000D01*
X68895000Y91292000D01*
G37*
G36*
X77292468Y93165435D02*
G01*
X77331138Y93153704D01*
X77366777Y93134654D01*
X77398017Y93109017D01*
X77423654Y93077777D01*
X77442704Y93042138D01*
X77454435Y93003468D01*
X77459000Y92957112D01*
X77459000Y92305888D01*
X77454435Y92259532D01*
X77442704Y92220862D01*
X77423654Y92185223D01*
X77398017Y92153983D01*
X77366777Y92128346D01*
X77331138Y92109296D01*
X77292468Y92097565D01*
X77246112Y92093000D01*
X76169888Y92093000D01*
X76123532Y92097565D01*
X76084862Y92109296D01*
X76049223Y92128346D01*
X76017983Y92153983D01*
X75992346Y92185223D01*
X75973296Y92220862D01*
X75961565Y92259532D01*
X75957000Y92305888D01*
X75957000Y92957112D01*
X75961565Y93003468D01*
X75973296Y93042138D01*
X75992346Y93077777D01*
X76017983Y93109017D01*
X76049223Y93134654D01*
X76084862Y93153704D01*
X76123532Y93165435D01*
X76169888Y93170000D01*
X77246112Y93170000D01*
X77292468Y93165435D01*
X77292468Y93165435D01*
G37*
G36*
X93414468Y94726435D02*
G01*
X93453138Y94714704D01*
X93488777Y94695654D01*
X93520017Y94670017D01*
X93545654Y94638777D01*
X93564704Y94603138D01*
X93576435Y94564468D01*
X93581000Y94518112D01*
X93581000Y93441888D01*
X93576435Y93395532D01*
X93564704Y93356862D01*
X93545654Y93321223D01*
X93520017Y93289983D01*
X93488777Y93264346D01*
X93453138Y93245296D01*
X93414468Y93233565D01*
X93368112Y93229000D01*
X92716888Y93229000D01*
X92670532Y93233565D01*
X92631862Y93245296D01*
X92596223Y93264346D01*
X92564983Y93289983D01*
X92539346Y93321223D01*
X92520296Y93356862D01*
X92508565Y93395532D01*
X92504000Y93441888D01*
X92504000Y94518112D01*
X92508565Y94564468D01*
X92520296Y94603138D01*
X92539346Y94638777D01*
X92564983Y94670017D01*
X92596223Y94695654D01*
X92631862Y94714704D01*
X92670532Y94726435D01*
X92716888Y94731000D01*
X93368112Y94731000D01*
X93414468Y94726435D01*
X93414468Y94726435D01*
G37*
G36*
X95289468Y94726435D02*
G01*
X95328138Y94714704D01*
X95363777Y94695654D01*
X95395017Y94670017D01*
X95420654Y94638777D01*
X95439704Y94603138D01*
X95451435Y94564468D01*
X95456000Y94518112D01*
X95456000Y93441888D01*
X95451435Y93395532D01*
X95439704Y93356862D01*
X95420654Y93321223D01*
X95395017Y93289983D01*
X95363777Y93264346D01*
X95328138Y93245296D01*
X95289468Y93233565D01*
X95243112Y93229000D01*
X94591888Y93229000D01*
X94545532Y93233565D01*
X94506862Y93245296D01*
X94471223Y93264346D01*
X94439983Y93289983D01*
X94414346Y93321223D01*
X94395296Y93356862D01*
X94383565Y93395532D01*
X94379000Y93441888D01*
X94379000Y94518112D01*
X94383565Y94564468D01*
X94395296Y94603138D01*
X94414346Y94638777D01*
X94439983Y94670017D01*
X94471223Y94695654D01*
X94506862Y94714704D01*
X94545532Y94726435D01*
X94591888Y94731000D01*
X95243112Y94731000D01*
X95289468Y94726435D01*
X95289468Y94726435D01*
G37*
G36*
X89447468Y96250435D02*
G01*
X89486138Y96238704D01*
X89521777Y96219654D01*
X89553017Y96194017D01*
X89578654Y96162777D01*
X89597704Y96127138D01*
X89609435Y96088468D01*
X89614000Y96042112D01*
X89614000Y94965888D01*
X89609435Y94919532D01*
X89597704Y94880862D01*
X89578654Y94845223D01*
X89553017Y94813983D01*
X89521777Y94788346D01*
X89486138Y94769296D01*
X89447468Y94757565D01*
X89401112Y94753000D01*
X88749888Y94753000D01*
X88703532Y94757565D01*
X88664862Y94769296D01*
X88629223Y94788346D01*
X88597983Y94813983D01*
X88572346Y94845223D01*
X88553296Y94880862D01*
X88541565Y94919532D01*
X88537000Y94965888D01*
X88537000Y96042112D01*
X88541565Y96088468D01*
X88553296Y96127138D01*
X88572346Y96162777D01*
X88597983Y96194017D01*
X88629223Y96219654D01*
X88664862Y96238704D01*
X88703532Y96250435D01*
X88749888Y96255000D01*
X89401112Y96255000D01*
X89447468Y96250435D01*
X89447468Y96250435D01*
G37*
G36*
X87572468Y96250435D02*
G01*
X87611138Y96238704D01*
X87646777Y96219654D01*
X87678017Y96194017D01*
X87703654Y96162777D01*
X87722704Y96127138D01*
X87734435Y96088468D01*
X87739000Y96042112D01*
X87739000Y94965888D01*
X87734435Y94919532D01*
X87722704Y94880862D01*
X87703654Y94845223D01*
X87678017Y94813983D01*
X87646777Y94788346D01*
X87611138Y94769296D01*
X87572468Y94757565D01*
X87526112Y94753000D01*
X86874888Y94753000D01*
X86828532Y94757565D01*
X86789862Y94769296D01*
X86754223Y94788346D01*
X86722983Y94813983D01*
X86697346Y94845223D01*
X86678296Y94880862D01*
X86666565Y94919532D01*
X86662000Y94965888D01*
X86662000Y96042112D01*
X86666565Y96088468D01*
X86678296Y96127138D01*
X86697346Y96162777D01*
X86722983Y96194017D01*
X86754223Y96219654D01*
X86789862Y96238704D01*
X86828532Y96250435D01*
X86874888Y96255000D01*
X87526112Y96255000D01*
X87572468Y96250435D01*
X87572468Y96250435D01*
G37*
G36*
X126441468Y96829935D02*
G01*
X126480138Y96818204D01*
X126515777Y96799154D01*
X126547017Y96773517D01*
X126572654Y96742277D01*
X126591704Y96706638D01*
X126603435Y96667968D01*
X126608000Y96621612D01*
X126608000Y95970388D01*
X126603435Y95924032D01*
X126591704Y95885362D01*
X126572654Y95849723D01*
X126547017Y95818483D01*
X126515777Y95792846D01*
X126480138Y95773796D01*
X126441468Y95762065D01*
X126395112Y95757500D01*
X125318888Y95757500D01*
X125272532Y95762065D01*
X125233862Y95773796D01*
X125198223Y95792846D01*
X125166983Y95818483D01*
X125141346Y95849723D01*
X125122296Y95885362D01*
X125110565Y95924032D01*
X125106000Y95970388D01*
X125106000Y96621612D01*
X125110565Y96667968D01*
X125122296Y96706638D01*
X125141346Y96742277D01*
X125166983Y96773517D01*
X125198223Y96799154D01*
X125233862Y96818204D01*
X125272532Y96829935D01*
X125318888Y96834500D01*
X126395112Y96834500D01*
X126441468Y96829935D01*
X126441468Y96829935D01*
G37*
G36*
X122426591Y97080415D02*
G01*
X122460569Y97070107D01*
X122491890Y97053366D01*
X122519339Y97030839D01*
X122541866Y97003390D01*
X122558607Y96972069D01*
X122568915Y96938091D01*
X122573000Y96896610D01*
X122573000Y96295390D01*
X122568915Y96253909D01*
X122558607Y96219931D01*
X122541866Y96188610D01*
X122519339Y96161161D01*
X122491890Y96138634D01*
X122460569Y96121893D01*
X122426591Y96111585D01*
X122385110Y96107500D01*
X121708890Y96107500D01*
X121667409Y96111585D01*
X121633431Y96121893D01*
X121602110Y96138634D01*
X121574661Y96161161D01*
X121552134Y96188610D01*
X121535393Y96219931D01*
X121525085Y96253909D01*
X121521000Y96295390D01*
X121521000Y96896610D01*
X121525085Y96938091D01*
X121535393Y96972069D01*
X121552134Y97003390D01*
X121574661Y97030839D01*
X121602110Y97053366D01*
X121633431Y97070107D01*
X121667409Y97080415D01*
X121708890Y97084500D01*
X122385110Y97084500D01*
X122426591Y97080415D01*
X122426591Y97080415D01*
G37*
G36*
X63322468Y98704935D02*
G01*
X63361138Y98693204D01*
X63396777Y98674154D01*
X63428017Y98648517D01*
X63453654Y98617277D01*
X63472704Y98581638D01*
X63484435Y98542968D01*
X63489000Y98496612D01*
X63489000Y97845388D01*
X63484435Y97799032D01*
X63472704Y97760362D01*
X63453654Y97724723D01*
X63428017Y97693483D01*
X63396777Y97667846D01*
X63361138Y97648796D01*
X63322468Y97637065D01*
X63276112Y97632500D01*
X62199888Y97632500D01*
X62153532Y97637065D01*
X62114862Y97648796D01*
X62079223Y97667846D01*
X62047983Y97693483D01*
X62022346Y97724723D01*
X62003296Y97760362D01*
X61991565Y97799032D01*
X61987000Y97845388D01*
X61987000Y98496612D01*
X61991565Y98542968D01*
X62003296Y98581638D01*
X62022346Y98617277D01*
X62047983Y98648517D01*
X62079223Y98674154D01*
X62114862Y98693204D01*
X62153532Y98704935D01*
X62199888Y98709500D01*
X63276112Y98709500D01*
X63322468Y98704935D01*
X63322468Y98704935D01*
G37*
G36*
X126441468Y98704935D02*
G01*
X126480138Y98693204D01*
X126515777Y98674154D01*
X126547017Y98648517D01*
X126572654Y98617277D01*
X126591704Y98581638D01*
X126603435Y98542968D01*
X126608000Y98496612D01*
X126608000Y97845388D01*
X126603435Y97799032D01*
X126591704Y97760362D01*
X126572654Y97724723D01*
X126547017Y97693483D01*
X126515777Y97667846D01*
X126480138Y97648796D01*
X126441468Y97637065D01*
X126395112Y97632500D01*
X125318888Y97632500D01*
X125272532Y97637065D01*
X125233862Y97648796D01*
X125198223Y97667846D01*
X125166983Y97693483D01*
X125141346Y97724723D01*
X125122296Y97760362D01*
X125110565Y97799032D01*
X125106000Y97845388D01*
X125106000Y98496612D01*
X125110565Y98542968D01*
X125122296Y98581638D01*
X125141346Y98617277D01*
X125166983Y98648517D01*
X125198223Y98674154D01*
X125233862Y98693204D01*
X125272532Y98704935D01*
X125318888Y98709500D01*
X126395112Y98709500D01*
X126441468Y98704935D01*
X126441468Y98704935D01*
G37*
G36*
X67640468Y98734935D02*
G01*
X67679138Y98723204D01*
X67714777Y98704154D01*
X67746017Y98678517D01*
X67771654Y98647277D01*
X67790704Y98611638D01*
X67802435Y98572968D01*
X67807000Y98526612D01*
X67807000Y97875388D01*
X67802435Y97829032D01*
X67790704Y97790362D01*
X67771654Y97754723D01*
X67746017Y97723483D01*
X67714777Y97697846D01*
X67679138Y97678796D01*
X67640468Y97667065D01*
X67594112Y97662500D01*
X66517888Y97662500D01*
X66471532Y97667065D01*
X66432862Y97678796D01*
X66397223Y97697846D01*
X66365983Y97723483D01*
X66340346Y97754723D01*
X66321296Y97790362D01*
X66309565Y97829032D01*
X66305000Y97875388D01*
X66305000Y98526612D01*
X66309565Y98572968D01*
X66321296Y98611638D01*
X66340346Y98647277D01*
X66365983Y98678517D01*
X66397223Y98704154D01*
X66432862Y98723204D01*
X66471532Y98734935D01*
X66517888Y98739500D01*
X67594112Y98739500D01*
X67640468Y98734935D01*
X67640468Y98734935D01*
G37*
G36*
X122426591Y98655415D02*
G01*
X122460569Y98645107D01*
X122491890Y98628366D01*
X122519339Y98605839D01*
X122541866Y98578390D01*
X122558607Y98547069D01*
X122568915Y98513091D01*
X122573000Y98471610D01*
X122573000Y97870390D01*
X122568915Y97828909D01*
X122558607Y97794931D01*
X122541866Y97763610D01*
X122519339Y97736161D01*
X122491890Y97713634D01*
X122460569Y97696893D01*
X122426591Y97686585D01*
X122385110Y97682500D01*
X121708890Y97682500D01*
X121667409Y97686585D01*
X121633431Y97696893D01*
X121602110Y97713634D01*
X121574661Y97736161D01*
X121552134Y97763610D01*
X121535393Y97794931D01*
X121525085Y97828909D01*
X121521000Y97870390D01*
X121521000Y98471610D01*
X121525085Y98513091D01*
X121535393Y98547069D01*
X121552134Y98578390D01*
X121574661Y98605839D01*
X121602110Y98628366D01*
X121633431Y98645107D01*
X121667409Y98655415D01*
X121708890Y98659500D01*
X122385110Y98659500D01*
X122426591Y98655415D01*
X122426591Y98655415D01*
G37*
G36*
X63322468Y100579935D02*
G01*
X63361138Y100568204D01*
X63396777Y100549154D01*
X63428017Y100523517D01*
X63453654Y100492277D01*
X63472704Y100456638D01*
X63484435Y100417968D01*
X63489000Y100371612D01*
X63489000Y99720388D01*
X63484435Y99674032D01*
X63472704Y99635362D01*
X63453654Y99599723D01*
X63428017Y99568483D01*
X63396777Y99542846D01*
X63361138Y99523796D01*
X63322468Y99512065D01*
X63276112Y99507500D01*
X62199888Y99507500D01*
X62153532Y99512065D01*
X62114862Y99523796D01*
X62079223Y99542846D01*
X62047983Y99568483D01*
X62022346Y99599723D01*
X62003296Y99635362D01*
X61991565Y99674032D01*
X61987000Y99720388D01*
X61987000Y100371612D01*
X61991565Y100417968D01*
X62003296Y100456638D01*
X62022346Y100492277D01*
X62047983Y100523517D01*
X62079223Y100549154D01*
X62114862Y100568204D01*
X62153532Y100579935D01*
X62199888Y100584500D01*
X63276112Y100584500D01*
X63322468Y100579935D01*
X63322468Y100579935D01*
G37*
G36*
X67640468Y100609935D02*
G01*
X67679138Y100598204D01*
X67714777Y100579154D01*
X67746017Y100553517D01*
X67771654Y100522277D01*
X67790704Y100486638D01*
X67802435Y100447968D01*
X67807000Y100401612D01*
X67807000Y99750388D01*
X67802435Y99704032D01*
X67790704Y99665362D01*
X67771654Y99629723D01*
X67746017Y99598483D01*
X67714777Y99572846D01*
X67679138Y99553796D01*
X67640468Y99542065D01*
X67594112Y99537500D01*
X66517888Y99537500D01*
X66471532Y99542065D01*
X66432862Y99553796D01*
X66397223Y99572846D01*
X66365983Y99598483D01*
X66340346Y99629723D01*
X66321296Y99665362D01*
X66309565Y99704032D01*
X66305000Y99750388D01*
X66305000Y100401612D01*
X66309565Y100447968D01*
X66321296Y100486638D01*
X66340346Y100522277D01*
X66365983Y100553517D01*
X66397223Y100579154D01*
X66432862Y100598204D01*
X66471532Y100609935D01*
X66517888Y100614500D01*
X67594112Y100614500D01*
X67640468Y100609935D01*
X67640468Y100609935D01*
G37*
G36*
X85383468Y101330435D02*
G01*
X85422138Y101318704D01*
X85457777Y101299654D01*
X85489017Y101274017D01*
X85514654Y101242777D01*
X85533704Y101207138D01*
X85545435Y101168468D01*
X85550000Y101122112D01*
X85550000Y100045888D01*
X85545435Y99999532D01*
X85533704Y99960862D01*
X85514654Y99925223D01*
X85489017Y99893983D01*
X85457777Y99868346D01*
X85422138Y99849296D01*
X85383468Y99837565D01*
X85337112Y99833000D01*
X84685888Y99833000D01*
X84639532Y99837565D01*
X84600862Y99849296D01*
X84565223Y99868346D01*
X84533983Y99893983D01*
X84508346Y99925223D01*
X84489296Y99960862D01*
X84477565Y99999532D01*
X84473000Y100045888D01*
X84473000Y101122112D01*
X84477565Y101168468D01*
X84489296Y101207138D01*
X84508346Y101242777D01*
X84533983Y101274017D01*
X84565223Y101299654D01*
X84600862Y101318704D01*
X84639532Y101330435D01*
X84685888Y101335000D01*
X85337112Y101335000D01*
X85383468Y101330435D01*
X85383468Y101330435D01*
G37*
G36*
X83508468Y101330435D02*
G01*
X83547138Y101318704D01*
X83582777Y101299654D01*
X83614017Y101274017D01*
X83639654Y101242777D01*
X83658704Y101207138D01*
X83670435Y101168468D01*
X83675000Y101122112D01*
X83675000Y100045888D01*
X83670435Y99999532D01*
X83658704Y99960862D01*
X83639654Y99925223D01*
X83614017Y99893983D01*
X83582777Y99868346D01*
X83547138Y99849296D01*
X83508468Y99837565D01*
X83462112Y99833000D01*
X82810888Y99833000D01*
X82764532Y99837565D01*
X82725862Y99849296D01*
X82690223Y99868346D01*
X82658983Y99893983D01*
X82633346Y99925223D01*
X82614296Y99960862D01*
X82602565Y99999532D01*
X82598000Y100045888D01*
X82598000Y101122112D01*
X82602565Y101168468D01*
X82614296Y101207138D01*
X82633346Y101242777D01*
X82658983Y101274017D01*
X82690223Y101299654D01*
X82725862Y101318704D01*
X82764532Y101330435D01*
X82810888Y101335000D01*
X83462112Y101335000D01*
X83508468Y101330435D01*
X83508468Y101330435D01*
G37*
G36*
X125081591Y101232915D02*
G01*
X125115569Y101222607D01*
X125146890Y101205866D01*
X125174339Y101183339D01*
X125196866Y101155890D01*
X125213607Y101124569D01*
X125223915Y101090591D01*
X125228000Y101049110D01*
X125228000Y100372890D01*
X125223915Y100331409D01*
X125213607Y100297431D01*
X125196866Y100266110D01*
X125174339Y100238661D01*
X125146890Y100216134D01*
X125115569Y100199393D01*
X125081591Y100189085D01*
X125040110Y100185000D01*
X124438890Y100185000D01*
X124397409Y100189085D01*
X124363431Y100199393D01*
X124332110Y100216134D01*
X124304661Y100238661D01*
X124282134Y100266110D01*
X124265393Y100297431D01*
X124255085Y100331409D01*
X124251000Y100372890D01*
X124251000Y101049110D01*
X124255085Y101090591D01*
X124265393Y101124569D01*
X124282134Y101155890D01*
X124304661Y101183339D01*
X124332110Y101205866D01*
X124363431Y101222607D01*
X124397409Y101232915D01*
X124438890Y101237000D01*
X125040110Y101237000D01*
X125081591Y101232915D01*
X125081591Y101232915D01*
G37*
G36*
X123506591Y101232915D02*
G01*
X123540569Y101222607D01*
X123571890Y101205866D01*
X123599339Y101183339D01*
X123621866Y101155890D01*
X123638607Y101124569D01*
X123648915Y101090591D01*
X123653000Y101049110D01*
X123653000Y100372890D01*
X123648915Y100331409D01*
X123638607Y100297431D01*
X123621866Y100266110D01*
X123599339Y100238661D01*
X123571890Y100216134D01*
X123540569Y100199393D01*
X123506591Y100189085D01*
X123465110Y100185000D01*
X122863890Y100185000D01*
X122822409Y100189085D01*
X122788431Y100199393D01*
X122757110Y100216134D01*
X122729661Y100238661D01*
X122707134Y100266110D01*
X122690393Y100297431D01*
X122680085Y100331409D01*
X122676000Y100372890D01*
X122676000Y101049110D01*
X122680085Y101090591D01*
X122690393Y101124569D01*
X122707134Y101155890D01*
X122729661Y101183339D01*
X122757110Y101205866D01*
X122788431Y101222607D01*
X122822409Y101232915D01*
X122863890Y101237000D01*
X123465110Y101237000D01*
X123506591Y101232915D01*
X123506591Y101232915D01*
G37*
G36*
X107106867Y101337996D02*
G01*
X107130292Y101330890D01*
X107151889Y101319346D01*
X107170814Y101303814D01*
X107186346Y101284889D01*
X107197890Y101263292D01*
X107204996Y101239867D01*
X107208000Y101209362D01*
X107208000Y100720638D01*
X107204996Y100690133D01*
X107197890Y100666708D01*
X107186346Y100645111D01*
X107170814Y100626186D01*
X107151889Y100610654D01*
X107130292Y100599110D01*
X107106867Y100592004D01*
X107076362Y100589000D01*
X105262638Y100589000D01*
X105232133Y100592004D01*
X105208708Y100599110D01*
X105187111Y100610654D01*
X105168186Y100626186D01*
X105152654Y100645111D01*
X105141110Y100666708D01*
X105134004Y100690133D01*
X105131000Y100720638D01*
X105131000Y101209362D01*
X105134004Y101239867D01*
X105141110Y101263292D01*
X105152654Y101284889D01*
X105168186Y101303814D01*
X105187111Y101319346D01*
X105208708Y101330890D01*
X105232133Y101337996D01*
X105262638Y101341000D01*
X107076362Y101341000D01*
X107106867Y101337996D01*
X107106867Y101337996D01*
G37*
G36*
X102031867Y101337996D02*
G01*
X102055292Y101330890D01*
X102076889Y101319346D01*
X102095814Y101303814D01*
X102111346Y101284889D01*
X102122890Y101263292D01*
X102129996Y101239867D01*
X102133000Y101209362D01*
X102133000Y100720638D01*
X102129996Y100690133D01*
X102122890Y100666708D01*
X102111346Y100645111D01*
X102095814Y100626186D01*
X102076889Y100610654D01*
X102055292Y100599110D01*
X102031867Y100592004D01*
X102001362Y100589000D01*
X100187638Y100589000D01*
X100157133Y100592004D01*
X100133708Y100599110D01*
X100112111Y100610654D01*
X100093186Y100626186D01*
X100077654Y100645111D01*
X100066110Y100666708D01*
X100059004Y100690133D01*
X100056000Y100720638D01*
X100056000Y101209362D01*
X100059004Y101239867D01*
X100066110Y101263292D01*
X100077654Y101284889D01*
X100093186Y101303814D01*
X100112111Y101319346D01*
X100133708Y101330890D01*
X100157133Y101337996D01*
X100187638Y101341000D01*
X102001362Y101341000D01*
X102031867Y101337996D01*
X102031867Y101337996D01*
G37*
G36*
X114265000Y101219000D02*
G01*
X112963000Y101219000D01*
X112963000Y102521000D01*
X114265000Y102521000D01*
X114265000Y101219000D01*
X114265000Y101219000D01*
G37*
G36*
X107106867Y102607996D02*
G01*
X107130292Y102600890D01*
X107151889Y102589346D01*
X107170814Y102573814D01*
X107186346Y102554889D01*
X107197890Y102533292D01*
X107204996Y102509867D01*
X107208000Y102479362D01*
X107208000Y101990638D01*
X107204996Y101960133D01*
X107197890Y101936708D01*
X107186346Y101915111D01*
X107170814Y101896186D01*
X107151889Y101880654D01*
X107130292Y101869110D01*
X107106867Y101862004D01*
X107076362Y101859000D01*
X105262638Y101859000D01*
X105232133Y101862004D01*
X105208708Y101869110D01*
X105187111Y101880654D01*
X105168186Y101896186D01*
X105152654Y101915111D01*
X105141110Y101936708D01*
X105134004Y101960133D01*
X105131000Y101990638D01*
X105131000Y102479362D01*
X105134004Y102509867D01*
X105141110Y102533292D01*
X105152654Y102554889D01*
X105168186Y102573814D01*
X105187111Y102589346D01*
X105208708Y102600890D01*
X105232133Y102607996D01*
X105262638Y102611000D01*
X107076362Y102611000D01*
X107106867Y102607996D01*
X107106867Y102607996D01*
G37*
G36*
X102031867Y102607996D02*
G01*
X102055292Y102600890D01*
X102076889Y102589346D01*
X102095814Y102573814D01*
X102111346Y102554889D01*
X102122890Y102533292D01*
X102129996Y102509867D01*
X102133000Y102479362D01*
X102133000Y101990638D01*
X102129996Y101960133D01*
X102122890Y101936708D01*
X102111346Y101915111D01*
X102095814Y101896186D01*
X102076889Y101880654D01*
X102055292Y101869110D01*
X102031867Y101862004D01*
X102001362Y101859000D01*
X100187638Y101859000D01*
X100157133Y101862004D01*
X100133708Y101869110D01*
X100112111Y101880654D01*
X100093186Y101896186D01*
X100077654Y101915111D01*
X100066110Y101936708D01*
X100059004Y101960133D01*
X100056000Y101990638D01*
X100056000Y102479362D01*
X100059004Y102509867D01*
X100066110Y102533292D01*
X100077654Y102554889D01*
X100093186Y102573814D01*
X100112111Y102589346D01*
X100133708Y102600890D01*
X100157133Y102607996D01*
X100187638Y102611000D01*
X102001362Y102611000D01*
X102031867Y102607996D01*
X102031867Y102607996D01*
G37*
G36*
X111165000Y102019000D02*
G01*
X109563000Y102019000D01*
X109563000Y103721000D01*
X111165000Y103721000D01*
X111165000Y102019000D01*
X111165000Y102019000D01*
G37*
G36*
X54686468Y103101435D02*
G01*
X54725138Y103089704D01*
X54760777Y103070654D01*
X54792017Y103045017D01*
X54817654Y103013777D01*
X54836704Y102978138D01*
X54848435Y102939468D01*
X54853000Y102893112D01*
X54853000Y102241888D01*
X54848435Y102195532D01*
X54836704Y102156862D01*
X54817654Y102121223D01*
X54792017Y102089983D01*
X54760777Y102064346D01*
X54725138Y102045296D01*
X54686468Y102033565D01*
X54640112Y102029000D01*
X53563888Y102029000D01*
X53517532Y102033565D01*
X53478862Y102045296D01*
X53443223Y102064346D01*
X53411983Y102089983D01*
X53386346Y102121223D01*
X53367296Y102156862D01*
X53355565Y102195532D01*
X53351000Y102241888D01*
X53351000Y102893112D01*
X53355565Y102939468D01*
X53367296Y102978138D01*
X53386346Y103013777D01*
X53411983Y103045017D01*
X53443223Y103070654D01*
X53478862Y103089704D01*
X53517532Y103101435D01*
X53563888Y103106000D01*
X54640112Y103106000D01*
X54686468Y103101435D01*
X54686468Y103101435D01*
G37*
G36*
X122503000Y102800000D02*
G01*
X121651000Y102800000D01*
X121651000Y104402000D01*
X122503000Y104402000D01*
X122503000Y102800000D01*
X122503000Y102800000D01*
G37*
G36*
X126253000Y102800000D02*
G01*
X125401000Y102800000D01*
X125401000Y104402000D01*
X126253000Y104402000D01*
X126253000Y102800000D01*
X126253000Y102800000D01*
G37*
G36*
X87120591Y103938415D02*
G01*
X87154569Y103928107D01*
X87185890Y103911366D01*
X87213339Y103888839D01*
X87235866Y103861390D01*
X87252607Y103830069D01*
X87262915Y103796091D01*
X87267000Y103754610D01*
X87267000Y103153390D01*
X87262915Y103111909D01*
X87252607Y103077931D01*
X87235866Y103046610D01*
X87213339Y103019161D01*
X87185890Y102996634D01*
X87154569Y102979893D01*
X87120591Y102969585D01*
X87079110Y102965500D01*
X86402890Y102965500D01*
X86361409Y102969585D01*
X86327431Y102979893D01*
X86296110Y102996634D01*
X86268661Y103019161D01*
X86246134Y103046610D01*
X86229393Y103077931D01*
X86219085Y103111909D01*
X86215000Y103153390D01*
X86215000Y103754610D01*
X86219085Y103796091D01*
X86229393Y103830069D01*
X86246134Y103861390D01*
X86268661Y103888839D01*
X86296110Y103911366D01*
X86327431Y103928107D01*
X86361409Y103938415D01*
X86402890Y103942500D01*
X87079110Y103942500D01*
X87120591Y103938415D01*
X87120591Y103938415D01*
G37*
G36*
X107106867Y103877996D02*
G01*
X107130292Y103870890D01*
X107151889Y103859346D01*
X107170814Y103843814D01*
X107186346Y103824889D01*
X107197890Y103803292D01*
X107204996Y103779867D01*
X107208000Y103749362D01*
X107208000Y103260638D01*
X107204996Y103230133D01*
X107197890Y103206708D01*
X107186346Y103185111D01*
X107170814Y103166186D01*
X107151889Y103150654D01*
X107130292Y103139110D01*
X107106867Y103132004D01*
X107076362Y103129000D01*
X105262638Y103129000D01*
X105232133Y103132004D01*
X105208708Y103139110D01*
X105187111Y103150654D01*
X105168186Y103166186D01*
X105152654Y103185111D01*
X105141110Y103206708D01*
X105134004Y103230133D01*
X105131000Y103260638D01*
X105131000Y103749362D01*
X105134004Y103779867D01*
X105141110Y103803292D01*
X105152654Y103824889D01*
X105168186Y103843814D01*
X105187111Y103859346D01*
X105208708Y103870890D01*
X105232133Y103877996D01*
X105262638Y103881000D01*
X107076362Y103881000D01*
X107106867Y103877996D01*
X107106867Y103877996D01*
G37*
G36*
X102031867Y103877996D02*
G01*
X102055292Y103870890D01*
X102076889Y103859346D01*
X102095814Y103843814D01*
X102111346Y103824889D01*
X102122890Y103803292D01*
X102129996Y103779867D01*
X102133000Y103749362D01*
X102133000Y103260638D01*
X102129996Y103230133D01*
X102122890Y103206708D01*
X102111346Y103185111D01*
X102095814Y103166186D01*
X102076889Y103150654D01*
X102055292Y103139110D01*
X102031867Y103132004D01*
X102001362Y103129000D01*
X100187638Y103129000D01*
X100157133Y103132004D01*
X100133708Y103139110D01*
X100112111Y103150654D01*
X100093186Y103166186D01*
X100077654Y103185111D01*
X100066110Y103206708D01*
X100059004Y103230133D01*
X100056000Y103260638D01*
X100056000Y103749362D01*
X100059004Y103779867D01*
X100066110Y103803292D01*
X100077654Y103824889D01*
X100093186Y103843814D01*
X100112111Y103859346D01*
X100133708Y103870890D01*
X100157133Y103877996D01*
X100187638Y103881000D01*
X102001362Y103881000D01*
X102031867Y103877996D01*
X102031867Y103877996D01*
G37*
G36*
X114265000Y103219000D02*
G01*
X112963000Y103219000D01*
X112963000Y104521000D01*
X114265000Y104521000D01*
X114265000Y103219000D01*
X114265000Y103219000D01*
G37*
G36*
X57286000Y103247000D02*
G01*
X56284000Y103247000D01*
X56284000Y104149000D01*
X57286000Y104149000D01*
X57286000Y103247000D01*
X57286000Y103247000D01*
G37*
G36*
X54686468Y104976435D02*
G01*
X54725138Y104964704D01*
X54760777Y104945654D01*
X54792017Y104920017D01*
X54817654Y104888777D01*
X54836704Y104853138D01*
X54848435Y104814468D01*
X54853000Y104768112D01*
X54853000Y104116888D01*
X54848435Y104070532D01*
X54836704Y104031862D01*
X54817654Y103996223D01*
X54792017Y103964983D01*
X54760777Y103939346D01*
X54725138Y103920296D01*
X54686468Y103908565D01*
X54640112Y103904000D01*
X53563888Y103904000D01*
X53517532Y103908565D01*
X53478862Y103920296D01*
X53443223Y103939346D01*
X53411983Y103964983D01*
X53386346Y103996223D01*
X53367296Y104031862D01*
X53355565Y104070532D01*
X53351000Y104116888D01*
X53351000Y104768112D01*
X53355565Y104814468D01*
X53367296Y104853138D01*
X53386346Y104888777D01*
X53411983Y104920017D01*
X53443223Y104945654D01*
X53478862Y104964704D01*
X53517532Y104976435D01*
X53563888Y104981000D01*
X54640112Y104981000D01*
X54686468Y104976435D01*
X54686468Y104976435D01*
G37*
G36*
X59286000Y104197000D02*
G01*
X58284000Y104197000D01*
X58284000Y105099000D01*
X59286000Y105099000D01*
X59286000Y104197000D01*
X59286000Y104197000D01*
G37*
G36*
X102031867Y105147996D02*
G01*
X102055292Y105140890D01*
X102076889Y105129346D01*
X102095814Y105113814D01*
X102111346Y105094889D01*
X102122890Y105073292D01*
X102129996Y105049867D01*
X102133000Y105019362D01*
X102133000Y104530638D01*
X102129996Y104500133D01*
X102122890Y104476708D01*
X102111346Y104455111D01*
X102095814Y104436186D01*
X102076889Y104420654D01*
X102055292Y104409110D01*
X102031867Y104402004D01*
X102001362Y104399000D01*
X100187638Y104399000D01*
X100157133Y104402004D01*
X100133708Y104409110D01*
X100112111Y104420654D01*
X100093186Y104436186D01*
X100077654Y104455111D01*
X100066110Y104476708D01*
X100059004Y104500133D01*
X100056000Y104530638D01*
X100056000Y105019362D01*
X100059004Y105049867D01*
X100066110Y105073292D01*
X100077654Y105094889D01*
X100093186Y105113814D01*
X100112111Y105129346D01*
X100133708Y105140890D01*
X100157133Y105147996D01*
X100187638Y105151000D01*
X102001362Y105151000D01*
X102031867Y105147996D01*
X102031867Y105147996D01*
G37*
G36*
X107106867Y105147996D02*
G01*
X107130292Y105140890D01*
X107151889Y105129346D01*
X107170814Y105113814D01*
X107186346Y105094889D01*
X107197890Y105073292D01*
X107204996Y105049867D01*
X107208000Y105019362D01*
X107208000Y104530638D01*
X107204996Y104500133D01*
X107197890Y104476708D01*
X107186346Y104455111D01*
X107170814Y104436186D01*
X107151889Y104420654D01*
X107130292Y104409110D01*
X107106867Y104402004D01*
X107076362Y104399000D01*
X105262638Y104399000D01*
X105232133Y104402004D01*
X105208708Y104409110D01*
X105187111Y104420654D01*
X105168186Y104436186D01*
X105152654Y104455111D01*
X105141110Y104476708D01*
X105134004Y104500133D01*
X105131000Y104530638D01*
X105131000Y105019362D01*
X105134004Y105049867D01*
X105141110Y105073292D01*
X105152654Y105094889D01*
X105168186Y105113814D01*
X105187111Y105129346D01*
X105208708Y105140890D01*
X105232133Y105147996D01*
X105262638Y105151000D01*
X107076362Y105151000D01*
X107106867Y105147996D01*
X107106867Y105147996D01*
G37*
G36*
X87120591Y105513415D02*
G01*
X87154569Y105503107D01*
X87185890Y105486366D01*
X87213339Y105463839D01*
X87235866Y105436390D01*
X87252607Y105405069D01*
X87262915Y105371091D01*
X87267000Y105329610D01*
X87267000Y104728390D01*
X87262915Y104686909D01*
X87252607Y104652931D01*
X87235866Y104621610D01*
X87213339Y104594161D01*
X87185890Y104571634D01*
X87154569Y104554893D01*
X87120591Y104544585D01*
X87079110Y104540500D01*
X86402890Y104540500D01*
X86361409Y104544585D01*
X86327431Y104554893D01*
X86296110Y104571634D01*
X86268661Y104594161D01*
X86246134Y104621610D01*
X86229393Y104652931D01*
X86219085Y104686909D01*
X86215000Y104728390D01*
X86215000Y105329610D01*
X86219085Y105371091D01*
X86229393Y105405069D01*
X86246134Y105436390D01*
X86268661Y105463839D01*
X86296110Y105486366D01*
X86327431Y105503107D01*
X86361409Y105513415D01*
X86402890Y105517500D01*
X87079110Y105517500D01*
X87120591Y105513415D01*
X87120591Y105513415D01*
G37*
G36*
X80594468Y106197935D02*
G01*
X80633138Y106186204D01*
X80668777Y106167154D01*
X80700017Y106141517D01*
X80725654Y106110277D01*
X80744704Y106074638D01*
X80756435Y106035968D01*
X80761000Y105989612D01*
X80761000Y105338388D01*
X80756435Y105292032D01*
X80744704Y105253362D01*
X80725654Y105217723D01*
X80700017Y105186483D01*
X80668777Y105160846D01*
X80633138Y105141796D01*
X80594468Y105130065D01*
X80548112Y105125500D01*
X79471888Y105125500D01*
X79425532Y105130065D01*
X79386862Y105141796D01*
X79351223Y105160846D01*
X79319983Y105186483D01*
X79294346Y105217723D01*
X79275296Y105253362D01*
X79263565Y105292032D01*
X79259000Y105338388D01*
X79259000Y105989612D01*
X79263565Y106035968D01*
X79275296Y106074638D01*
X79294346Y106110277D01*
X79319983Y106141517D01*
X79351223Y106167154D01*
X79386862Y106186204D01*
X79425532Y106197935D01*
X79471888Y106202500D01*
X80548112Y106202500D01*
X80594468Y106197935D01*
X80594468Y106197935D01*
G37*
G36*
X57286000Y105147000D02*
G01*
X56284000Y105147000D01*
X56284000Y106049000D01*
X57286000Y106049000D01*
X57286000Y105147000D01*
X57286000Y105147000D01*
G37*
G36*
X76325591Y106376915D02*
G01*
X76359569Y106366607D01*
X76390890Y106349866D01*
X76418339Y106327339D01*
X76440866Y106299890D01*
X76457607Y106268569D01*
X76467915Y106234591D01*
X76472000Y106193110D01*
X76472000Y105591890D01*
X76467915Y105550409D01*
X76457607Y105516431D01*
X76440866Y105485110D01*
X76418339Y105457661D01*
X76390890Y105435134D01*
X76359569Y105418393D01*
X76325591Y105408085D01*
X76284110Y105404000D01*
X75607890Y105404000D01*
X75566409Y105408085D01*
X75532431Y105418393D01*
X75501110Y105435134D01*
X75473661Y105457661D01*
X75451134Y105485110D01*
X75434393Y105516431D01*
X75424085Y105550409D01*
X75420000Y105591890D01*
X75420000Y106193110D01*
X75424085Y106234591D01*
X75434393Y106268569D01*
X75451134Y106299890D01*
X75473661Y106327339D01*
X75501110Y106349866D01*
X75532431Y106366607D01*
X75566409Y106376915D01*
X75607890Y106381000D01*
X76284110Y106381000D01*
X76325591Y106376915D01*
X76325591Y106376915D01*
G37*
G36*
X97067468Y107172435D02*
G01*
X97106138Y107160704D01*
X97141777Y107141654D01*
X97173017Y107116017D01*
X97198654Y107084777D01*
X97217704Y107049138D01*
X97229435Y107010468D01*
X97234000Y106964112D01*
X97234000Y105887888D01*
X97229435Y105841532D01*
X97217704Y105802862D01*
X97198654Y105767223D01*
X97173017Y105735983D01*
X97141777Y105710346D01*
X97106138Y105691296D01*
X97067468Y105679565D01*
X97021112Y105675000D01*
X96369888Y105675000D01*
X96323532Y105679565D01*
X96284862Y105691296D01*
X96249223Y105710346D01*
X96217983Y105735983D01*
X96192346Y105767223D01*
X96173296Y105802862D01*
X96161565Y105841532D01*
X96157000Y105887888D01*
X96157000Y106964112D01*
X96161565Y107010468D01*
X96173296Y107049138D01*
X96192346Y107084777D01*
X96217983Y107116017D01*
X96249223Y107141654D01*
X96284862Y107160704D01*
X96323532Y107172435D01*
X96369888Y107177000D01*
X97021112Y107177000D01*
X97067468Y107172435D01*
X97067468Y107172435D01*
G37*
G36*
X95192468Y107172435D02*
G01*
X95231138Y107160704D01*
X95266777Y107141654D01*
X95298017Y107116017D01*
X95323654Y107084777D01*
X95342704Y107049138D01*
X95354435Y107010468D01*
X95359000Y106964112D01*
X95359000Y105887888D01*
X95354435Y105841532D01*
X95342704Y105802862D01*
X95323654Y105767223D01*
X95298017Y105735983D01*
X95266777Y105710346D01*
X95231138Y105691296D01*
X95192468Y105679565D01*
X95146112Y105675000D01*
X94494888Y105675000D01*
X94448532Y105679565D01*
X94409862Y105691296D01*
X94374223Y105710346D01*
X94342983Y105735983D01*
X94317346Y105767223D01*
X94298296Y105802862D01*
X94286565Y105841532D01*
X94282000Y105887888D01*
X94282000Y106964112D01*
X94286565Y107010468D01*
X94298296Y107049138D01*
X94317346Y107084777D01*
X94342983Y107116017D01*
X94374223Y107141654D01*
X94409862Y107160704D01*
X94448532Y107172435D01*
X94494888Y107177000D01*
X95146112Y107177000D01*
X95192468Y107172435D01*
X95192468Y107172435D01*
G37*
G36*
X110529468Y107426435D02*
G01*
X110568138Y107414704D01*
X110603777Y107395654D01*
X110635017Y107370017D01*
X110660654Y107338777D01*
X110679704Y107303138D01*
X110691435Y107264468D01*
X110696000Y107218112D01*
X110696000Y106141888D01*
X110691435Y106095532D01*
X110679704Y106056862D01*
X110660654Y106021223D01*
X110635017Y105989983D01*
X110603777Y105964346D01*
X110568138Y105945296D01*
X110529468Y105933565D01*
X110483112Y105929000D01*
X109831888Y105929000D01*
X109785532Y105933565D01*
X109746862Y105945296D01*
X109711223Y105964346D01*
X109679983Y105989983D01*
X109654346Y106021223D01*
X109635296Y106056862D01*
X109623565Y106095532D01*
X109619000Y106141888D01*
X109619000Y107218112D01*
X109623565Y107264468D01*
X109635296Y107303138D01*
X109654346Y107338777D01*
X109679983Y107370017D01*
X109711223Y107395654D01*
X109746862Y107414704D01*
X109785532Y107426435D01*
X109831888Y107431000D01*
X110483112Y107431000D01*
X110529468Y107426435D01*
X110529468Y107426435D01*
G37*
G36*
X108654468Y107426435D02*
G01*
X108693138Y107414704D01*
X108728777Y107395654D01*
X108760017Y107370017D01*
X108785654Y107338777D01*
X108804704Y107303138D01*
X108816435Y107264468D01*
X108821000Y107218112D01*
X108821000Y106141888D01*
X108816435Y106095532D01*
X108804704Y106056862D01*
X108785654Y106021223D01*
X108760017Y105989983D01*
X108728777Y105964346D01*
X108693138Y105945296D01*
X108654468Y105933565D01*
X108608112Y105929000D01*
X107956888Y105929000D01*
X107910532Y105933565D01*
X107871862Y105945296D01*
X107836223Y105964346D01*
X107804983Y105989983D01*
X107779346Y106021223D01*
X107760296Y106056862D01*
X107748565Y106095532D01*
X107744000Y106141888D01*
X107744000Y107218112D01*
X107748565Y107264468D01*
X107760296Y107303138D01*
X107779346Y107338777D01*
X107804983Y107370017D01*
X107836223Y107395654D01*
X107871862Y107414704D01*
X107910532Y107426435D01*
X107956888Y107431000D01*
X108608112Y107431000D01*
X108654468Y107426435D01*
X108654468Y107426435D01*
G37*
G36*
X76325591Y107951915D02*
G01*
X76359569Y107941607D01*
X76390890Y107924866D01*
X76418339Y107902339D01*
X76440866Y107874890D01*
X76457607Y107843569D01*
X76467915Y107809591D01*
X76472000Y107768110D01*
X76472000Y107166890D01*
X76467915Y107125409D01*
X76457607Y107091431D01*
X76440866Y107060110D01*
X76418339Y107032661D01*
X76390890Y107010134D01*
X76359569Y106993393D01*
X76325591Y106983085D01*
X76284110Y106979000D01*
X75607890Y106979000D01*
X75566409Y106983085D01*
X75532431Y106993393D01*
X75501110Y107010134D01*
X75473661Y107032661D01*
X75451134Y107060110D01*
X75434393Y107091431D01*
X75424085Y107125409D01*
X75420000Y107166890D01*
X75420000Y107768110D01*
X75424085Y107809591D01*
X75434393Y107843569D01*
X75451134Y107874890D01*
X75473661Y107902339D01*
X75501110Y107924866D01*
X75532431Y107941607D01*
X75566409Y107951915D01*
X75607890Y107956000D01*
X76284110Y107956000D01*
X76325591Y107951915D01*
X76325591Y107951915D01*
G37*
G36*
X80594468Y108072935D02*
G01*
X80633138Y108061204D01*
X80668777Y108042154D01*
X80700017Y108016517D01*
X80725654Y107985277D01*
X80744704Y107949638D01*
X80756435Y107910968D01*
X80761000Y107864612D01*
X80761000Y107213388D01*
X80756435Y107167032D01*
X80744704Y107128362D01*
X80725654Y107092723D01*
X80700017Y107061483D01*
X80668777Y107035846D01*
X80633138Y107016796D01*
X80594468Y107005065D01*
X80548112Y107000500D01*
X79471888Y107000500D01*
X79425532Y107005065D01*
X79386862Y107016796D01*
X79351223Y107035846D01*
X79319983Y107061483D01*
X79294346Y107092723D01*
X79275296Y107128362D01*
X79263565Y107167032D01*
X79259000Y107213388D01*
X79259000Y107864612D01*
X79263565Y107910968D01*
X79275296Y107949638D01*
X79294346Y107985277D01*
X79319983Y108016517D01*
X79351223Y108042154D01*
X79386862Y108061204D01*
X79425532Y108072935D01*
X79471888Y108077500D01*
X80548112Y108077500D01*
X80594468Y108072935D01*
X80594468Y108072935D01*
G37*
G36*
X73271000Y107045000D02*
G01*
X72269000Y107045000D01*
X72269000Y108347000D01*
X73271000Y108347000D01*
X73271000Y107045000D01*
X73271000Y107045000D01*
G37*
G36*
X69971000Y107045000D02*
G01*
X68969000Y107045000D01*
X68969000Y108347000D01*
X69971000Y108347000D01*
X69971000Y107045000D01*
X69971000Y107045000D01*
G37*
G36*
X62051000Y108527000D02*
G01*
X60549000Y108527000D01*
X60549000Y110929000D01*
X62051000Y110929000D01*
X62051000Y108527000D01*
X62051000Y108527000D01*
G37*
G36*
X66451000Y108527000D02*
G01*
X64949000Y108527000D01*
X64949000Y110929000D01*
X66451000Y110929000D01*
X66451000Y108527000D01*
X66451000Y108527000D01*
G37*
G36*
X122503000Y108800000D02*
G01*
X121651000Y108800000D01*
X121651000Y110402000D01*
X122503000Y110402000D01*
X122503000Y108800000D01*
X122503000Y108800000D01*
G37*
G36*
X126253000Y108800000D02*
G01*
X125401000Y108800000D01*
X125401000Y110402000D01*
X126253000Y110402000D01*
X126253000Y108800000D01*
X126253000Y108800000D01*
G37*
G36*
X56247591Y110122915D02*
G01*
X56281569Y110112607D01*
X56312890Y110095866D01*
X56340339Y110073339D01*
X56362866Y110045890D01*
X56379607Y110014569D01*
X56389915Y109980591D01*
X56394000Y109939110D01*
X56394000Y109262890D01*
X56389915Y109221409D01*
X56379607Y109187431D01*
X56362866Y109156110D01*
X56340339Y109128661D01*
X56312890Y109106134D01*
X56281569Y109089393D01*
X56247591Y109079085D01*
X56206110Y109075000D01*
X55604890Y109075000D01*
X55563409Y109079085D01*
X55529431Y109089393D01*
X55498110Y109106134D01*
X55470661Y109128661D01*
X55448134Y109156110D01*
X55431393Y109187431D01*
X55421085Y109221409D01*
X55417000Y109262890D01*
X55417000Y109939110D01*
X55421085Y109980591D01*
X55431393Y110014569D01*
X55448134Y110045890D01*
X55470661Y110073339D01*
X55498110Y110095866D01*
X55529431Y110112607D01*
X55563409Y110122915D01*
X55604890Y110127000D01*
X56206110Y110127000D01*
X56247591Y110122915D01*
X56247591Y110122915D01*
G37*
G36*
X54672591Y110122915D02*
G01*
X54706569Y110112607D01*
X54737890Y110095866D01*
X54765339Y110073339D01*
X54787866Y110045890D01*
X54804607Y110014569D01*
X54814915Y109980591D01*
X54819000Y109939110D01*
X54819000Y109262890D01*
X54814915Y109221409D01*
X54804607Y109187431D01*
X54787866Y109156110D01*
X54765339Y109128661D01*
X54737890Y109106134D01*
X54706569Y109089393D01*
X54672591Y109079085D01*
X54631110Y109075000D01*
X54029890Y109075000D01*
X53988409Y109079085D01*
X53954431Y109089393D01*
X53923110Y109106134D01*
X53895661Y109128661D01*
X53873134Y109156110D01*
X53856393Y109187431D01*
X53846085Y109221409D01*
X53842000Y109262890D01*
X53842000Y109939110D01*
X53846085Y109980591D01*
X53856393Y110014569D01*
X53873134Y110045890D01*
X53895661Y110073339D01*
X53923110Y110095866D01*
X53954431Y110112607D01*
X53988409Y110122915D01*
X54029890Y110127000D01*
X54631110Y110127000D01*
X54672591Y110122915D01*
X54672591Y110122915D01*
G37*
G36*
X91643468Y111150935D02*
G01*
X91682138Y111139204D01*
X91717777Y111120154D01*
X91749017Y111094517D01*
X91774654Y111063277D01*
X91793704Y111027638D01*
X91805435Y110988968D01*
X91810000Y110942612D01*
X91810000Y110291388D01*
X91805435Y110245032D01*
X91793704Y110206362D01*
X91774654Y110170723D01*
X91749017Y110139483D01*
X91717777Y110113846D01*
X91682138Y110094796D01*
X91643468Y110083065D01*
X91597112Y110078500D01*
X90520888Y110078500D01*
X90474532Y110083065D01*
X90435862Y110094796D01*
X90400223Y110113846D01*
X90368983Y110139483D01*
X90343346Y110170723D01*
X90324296Y110206362D01*
X90312565Y110245032D01*
X90308000Y110291388D01*
X90308000Y110942612D01*
X90312565Y110988968D01*
X90324296Y111027638D01*
X90343346Y111063277D01*
X90368983Y111094517D01*
X90400223Y111120154D01*
X90435862Y111139204D01*
X90474532Y111150935D01*
X90520888Y111155500D01*
X91597112Y111155500D01*
X91643468Y111150935D01*
X91643468Y111150935D01*
G37*
G36*
X76089000Y111387000D02*
G01*
X74787000Y111387000D01*
X74787000Y112389000D01*
X76089000Y112389000D01*
X76089000Y111387000D01*
X76089000Y111387000D01*
G37*
G36*
X115138468Y112880435D02*
G01*
X115177138Y112868704D01*
X115212777Y112849654D01*
X115244017Y112824017D01*
X115269654Y112792777D01*
X115288704Y112757138D01*
X115300435Y112718468D01*
X115305000Y112672112D01*
X115305000Y112020888D01*
X115300435Y111974532D01*
X115288704Y111935862D01*
X115269654Y111900223D01*
X115244017Y111868983D01*
X115212777Y111843346D01*
X115177138Y111824296D01*
X115138468Y111812565D01*
X115092112Y111808000D01*
X114015888Y111808000D01*
X113969532Y111812565D01*
X113930862Y111824296D01*
X113895223Y111843346D01*
X113863983Y111868983D01*
X113838346Y111900223D01*
X113819296Y111935862D01*
X113807565Y111974532D01*
X113803000Y112020888D01*
X113803000Y112672112D01*
X113807565Y112718468D01*
X113819296Y112757138D01*
X113838346Y112792777D01*
X113863983Y112824017D01*
X113895223Y112849654D01*
X113930862Y112868704D01*
X113969532Y112880435D01*
X114015888Y112885000D01*
X115092112Y112885000D01*
X115138468Y112880435D01*
X115138468Y112880435D01*
G37*
G36*
X91643468Y113025935D02*
G01*
X91682138Y113014204D01*
X91717777Y112995154D01*
X91749017Y112969517D01*
X91774654Y112938277D01*
X91793704Y112902638D01*
X91805435Y112863968D01*
X91810000Y112817612D01*
X91810000Y112166388D01*
X91805435Y112120032D01*
X91793704Y112081362D01*
X91774654Y112045723D01*
X91749017Y112014483D01*
X91717777Y111988846D01*
X91682138Y111969796D01*
X91643468Y111958065D01*
X91597112Y111953500D01*
X90520888Y111953500D01*
X90474532Y111958065D01*
X90435862Y111969796D01*
X90400223Y111988846D01*
X90368983Y112014483D01*
X90343346Y112045723D01*
X90324296Y112081362D01*
X90312565Y112120032D01*
X90308000Y112166388D01*
X90308000Y112817612D01*
X90312565Y112863968D01*
X90324296Y112902638D01*
X90343346Y112938277D01*
X90368983Y112969517D01*
X90400223Y112995154D01*
X90435862Y113014204D01*
X90474532Y113025935D01*
X90520888Y113030500D01*
X91597112Y113030500D01*
X91643468Y113025935D01*
X91643468Y113025935D01*
G37*
G36*
X118743591Y112980915D02*
G01*
X118777569Y112970607D01*
X118808890Y112953866D01*
X118836339Y112931339D01*
X118858866Y112903890D01*
X118875607Y112872569D01*
X118885915Y112838591D01*
X118890000Y112797110D01*
X118890000Y112195890D01*
X118885915Y112154409D01*
X118875607Y112120431D01*
X118858866Y112089110D01*
X118836339Y112061661D01*
X118808890Y112039134D01*
X118777569Y112022393D01*
X118743591Y112012085D01*
X118702110Y112008000D01*
X118025890Y112008000D01*
X117984409Y112012085D01*
X117950431Y112022393D01*
X117919110Y112039134D01*
X117891661Y112061661D01*
X117869134Y112089110D01*
X117852393Y112120431D01*
X117842085Y112154409D01*
X117838000Y112195890D01*
X117838000Y112797110D01*
X117842085Y112838591D01*
X117852393Y112872569D01*
X117869134Y112903890D01*
X117891661Y112931339D01*
X117919110Y112953866D01*
X117950431Y112970607D01*
X117984409Y112980915D01*
X118025890Y112985000D01*
X118702110Y112985000D01*
X118743591Y112980915D01*
X118743591Y112980915D01*
G37*
G36*
X105027591Y112980915D02*
G01*
X105061569Y112970607D01*
X105092890Y112953866D01*
X105120339Y112931339D01*
X105142866Y112903890D01*
X105159607Y112872569D01*
X105169915Y112838591D01*
X105174000Y112797110D01*
X105174000Y112195890D01*
X105169915Y112154409D01*
X105159607Y112120431D01*
X105142866Y112089110D01*
X105120339Y112061661D01*
X105092890Y112039134D01*
X105061569Y112022393D01*
X105027591Y112012085D01*
X104986110Y112008000D01*
X104309890Y112008000D01*
X104268409Y112012085D01*
X104234431Y112022393D01*
X104203110Y112039134D01*
X104175661Y112061661D01*
X104153134Y112089110D01*
X104136393Y112120431D01*
X104126085Y112154409D01*
X104122000Y112195890D01*
X104122000Y112797110D01*
X104126085Y112838591D01*
X104136393Y112872569D01*
X104153134Y112903890D01*
X104175661Y112931339D01*
X104203110Y112953866D01*
X104234431Y112970607D01*
X104268409Y112980915D01*
X104309890Y112985000D01*
X104986110Y112985000D01*
X105027591Y112980915D01*
X105027591Y112980915D01*
G37*
G36*
X110361591Y112980915D02*
G01*
X110395569Y112970607D01*
X110426890Y112953866D01*
X110454339Y112931339D01*
X110476866Y112903890D01*
X110493607Y112872569D01*
X110503915Y112838591D01*
X110508000Y112797110D01*
X110508000Y112195890D01*
X110503915Y112154409D01*
X110493607Y112120431D01*
X110476866Y112089110D01*
X110454339Y112061661D01*
X110426890Y112039134D01*
X110395569Y112022393D01*
X110361591Y112012085D01*
X110320110Y112008000D01*
X109643890Y112008000D01*
X109602409Y112012085D01*
X109568431Y112022393D01*
X109537110Y112039134D01*
X109509661Y112061661D01*
X109487134Y112089110D01*
X109470393Y112120431D01*
X109460085Y112154409D01*
X109456000Y112195890D01*
X109456000Y112797110D01*
X109460085Y112838591D01*
X109470393Y112872569D01*
X109487134Y112903890D01*
X109509661Y112931339D01*
X109537110Y112953866D01*
X109568431Y112970607D01*
X109602409Y112980915D01*
X109643890Y112985000D01*
X110320110Y112985000D01*
X110361591Y112980915D01*
X110361591Y112980915D01*
G37*
G36*
X99947591Y112980915D02*
G01*
X99981569Y112970607D01*
X100012890Y112953866D01*
X100040339Y112931339D01*
X100062866Y112903890D01*
X100079607Y112872569D01*
X100089915Y112838591D01*
X100094000Y112797110D01*
X100094000Y112195890D01*
X100089915Y112154409D01*
X100079607Y112120431D01*
X100062866Y112089110D01*
X100040339Y112061661D01*
X100012890Y112039134D01*
X99981569Y112022393D01*
X99947591Y112012085D01*
X99906110Y112008000D01*
X99229890Y112008000D01*
X99188409Y112012085D01*
X99154431Y112022393D01*
X99123110Y112039134D01*
X99095661Y112061661D01*
X99073134Y112089110D01*
X99056393Y112120431D01*
X99046085Y112154409D01*
X99042000Y112195890D01*
X99042000Y112797110D01*
X99046085Y112838591D01*
X99056393Y112872569D01*
X99073134Y112903890D01*
X99095661Y112931339D01*
X99123110Y112953866D01*
X99154431Y112970607D01*
X99188409Y112980915D01*
X99229890Y112985000D01*
X99906110Y112985000D01*
X99947591Y112980915D01*
X99947591Y112980915D01*
G37*
G36*
X94613591Y113971415D02*
G01*
X94647569Y113961107D01*
X94678890Y113944366D01*
X94706339Y113921839D01*
X94728866Y113894390D01*
X94745607Y113863069D01*
X94755915Y113829091D01*
X94760000Y113787610D01*
X94760000Y113186390D01*
X94755915Y113144909D01*
X94745607Y113110931D01*
X94728866Y113079610D01*
X94706339Y113052161D01*
X94678890Y113029634D01*
X94647569Y113012893D01*
X94613591Y113002585D01*
X94572110Y112998500D01*
X93895890Y112998500D01*
X93854409Y113002585D01*
X93820431Y113012893D01*
X93789110Y113029634D01*
X93761661Y113052161D01*
X93739134Y113079610D01*
X93722393Y113110931D01*
X93712085Y113144909D01*
X93708000Y113186390D01*
X93708000Y113787610D01*
X93712085Y113829091D01*
X93722393Y113863069D01*
X93739134Y113894390D01*
X93761661Y113921839D01*
X93789110Y113944366D01*
X93820431Y113961107D01*
X93854409Y113971415D01*
X93895890Y113975500D01*
X94572110Y113975500D01*
X94613591Y113971415D01*
X94613591Y113971415D01*
G37*
G36*
X105027591Y114555915D02*
G01*
X105061569Y114545607D01*
X105092890Y114528866D01*
X105120339Y114506339D01*
X105142866Y114478890D01*
X105159607Y114447569D01*
X105169915Y114413591D01*
X105174000Y114372110D01*
X105174000Y113770890D01*
X105169915Y113729409D01*
X105159607Y113695431D01*
X105142866Y113664110D01*
X105120339Y113636661D01*
X105092890Y113614134D01*
X105061569Y113597393D01*
X105027591Y113587085D01*
X104986110Y113583000D01*
X104309890Y113583000D01*
X104268409Y113587085D01*
X104234431Y113597393D01*
X104203110Y113614134D01*
X104175661Y113636661D01*
X104153134Y113664110D01*
X104136393Y113695431D01*
X104126085Y113729409D01*
X104122000Y113770890D01*
X104122000Y114372110D01*
X104126085Y114413591D01*
X104136393Y114447569D01*
X104153134Y114478890D01*
X104175661Y114506339D01*
X104203110Y114528866D01*
X104234431Y114545607D01*
X104268409Y114555915D01*
X104309890Y114560000D01*
X104986110Y114560000D01*
X105027591Y114555915D01*
X105027591Y114555915D01*
G37*
G36*
X118743591Y114555915D02*
G01*
X118777569Y114545607D01*
X118808890Y114528866D01*
X118836339Y114506339D01*
X118858866Y114478890D01*
X118875607Y114447569D01*
X118885915Y114413591D01*
X118890000Y114372110D01*
X118890000Y113770890D01*
X118885915Y113729409D01*
X118875607Y113695431D01*
X118858866Y113664110D01*
X118836339Y113636661D01*
X118808890Y113614134D01*
X118777569Y113597393D01*
X118743591Y113587085D01*
X118702110Y113583000D01*
X118025890Y113583000D01*
X117984409Y113587085D01*
X117950431Y113597393D01*
X117919110Y113614134D01*
X117891661Y113636661D01*
X117869134Y113664110D01*
X117852393Y113695431D01*
X117842085Y113729409D01*
X117838000Y113770890D01*
X117838000Y114372110D01*
X117842085Y114413591D01*
X117852393Y114447569D01*
X117869134Y114478890D01*
X117891661Y114506339D01*
X117919110Y114528866D01*
X117950431Y114545607D01*
X117984409Y114555915D01*
X118025890Y114560000D01*
X118702110Y114560000D01*
X118743591Y114555915D01*
X118743591Y114555915D01*
G37*
G36*
X99947591Y114555915D02*
G01*
X99981569Y114545607D01*
X100012890Y114528866D01*
X100040339Y114506339D01*
X100062866Y114478890D01*
X100079607Y114447569D01*
X100089915Y114413591D01*
X100094000Y114372110D01*
X100094000Y113770890D01*
X100089915Y113729409D01*
X100079607Y113695431D01*
X100062866Y113664110D01*
X100040339Y113636661D01*
X100012890Y113614134D01*
X99981569Y113597393D01*
X99947591Y113587085D01*
X99906110Y113583000D01*
X99229890Y113583000D01*
X99188409Y113587085D01*
X99154431Y113597393D01*
X99123110Y113614134D01*
X99095661Y113636661D01*
X99073134Y113664110D01*
X99056393Y113695431D01*
X99046085Y113729409D01*
X99042000Y113770890D01*
X99042000Y114372110D01*
X99046085Y114413591D01*
X99056393Y114447569D01*
X99073134Y114478890D01*
X99095661Y114506339D01*
X99123110Y114528866D01*
X99154431Y114545607D01*
X99188409Y114555915D01*
X99229890Y114560000D01*
X99906110Y114560000D01*
X99947591Y114555915D01*
X99947591Y114555915D01*
G37*
G36*
X110361591Y114555915D02*
G01*
X110395569Y114545607D01*
X110426890Y114528866D01*
X110454339Y114506339D01*
X110476866Y114478890D01*
X110493607Y114447569D01*
X110503915Y114413591D01*
X110508000Y114372110D01*
X110508000Y113770890D01*
X110503915Y113729409D01*
X110493607Y113695431D01*
X110476866Y113664110D01*
X110454339Y113636661D01*
X110426890Y113614134D01*
X110395569Y113597393D01*
X110361591Y113587085D01*
X110320110Y113583000D01*
X109643890Y113583000D01*
X109602409Y113587085D01*
X109568431Y113597393D01*
X109537110Y113614134D01*
X109509661Y113636661D01*
X109487134Y113664110D01*
X109470393Y113695431D01*
X109460085Y113729409D01*
X109456000Y113770890D01*
X109456000Y114372110D01*
X109460085Y114413591D01*
X109470393Y114447569D01*
X109487134Y114478890D01*
X109509661Y114506339D01*
X109537110Y114528866D01*
X109568431Y114545607D01*
X109602409Y114555915D01*
X109643890Y114560000D01*
X110320110Y114560000D01*
X110361591Y114555915D01*
X110361591Y114555915D01*
G37*
G36*
X115138468Y114755435D02*
G01*
X115177138Y114743704D01*
X115212777Y114724654D01*
X115244017Y114699017D01*
X115269654Y114667777D01*
X115288704Y114632138D01*
X115300435Y114593468D01*
X115305000Y114547112D01*
X115305000Y113895888D01*
X115300435Y113849532D01*
X115288704Y113810862D01*
X115269654Y113775223D01*
X115244017Y113743983D01*
X115212777Y113718346D01*
X115177138Y113699296D01*
X115138468Y113687565D01*
X115092112Y113683000D01*
X114015888Y113683000D01*
X113969532Y113687565D01*
X113930862Y113699296D01*
X113895223Y113718346D01*
X113863983Y113743983D01*
X113838346Y113775223D01*
X113819296Y113810862D01*
X113807565Y113849532D01*
X113803000Y113895888D01*
X113803000Y114547112D01*
X113807565Y114593468D01*
X113819296Y114632138D01*
X113838346Y114667777D01*
X113863983Y114699017D01*
X113895223Y114724654D01*
X113930862Y114743704D01*
X113969532Y114755435D01*
X114015888Y114760000D01*
X115092112Y114760000D01*
X115138468Y114755435D01*
X115138468Y114755435D01*
G37*
G36*
X73011591Y115583915D02*
G01*
X73045569Y115573607D01*
X73076890Y115556866D01*
X73104339Y115534339D01*
X73126866Y115506890D01*
X73143607Y115475569D01*
X73153915Y115441591D01*
X73158000Y115400110D01*
X73158000Y114723890D01*
X73153915Y114682409D01*
X73143607Y114648431D01*
X73126866Y114617110D01*
X73104339Y114589661D01*
X73076890Y114567134D01*
X73045569Y114550393D01*
X73011591Y114540085D01*
X72970110Y114536000D01*
X72368890Y114536000D01*
X72327409Y114540085D01*
X72293431Y114550393D01*
X72262110Y114567134D01*
X72234661Y114589661D01*
X72212134Y114617110D01*
X72195393Y114648431D01*
X72185085Y114682409D01*
X72181000Y114723890D01*
X72181000Y115400110D01*
X72185085Y115441591D01*
X72195393Y115475569D01*
X72212134Y115506890D01*
X72234661Y115534339D01*
X72262110Y115556866D01*
X72293431Y115573607D01*
X72327409Y115583915D01*
X72368890Y115588000D01*
X72970110Y115588000D01*
X73011591Y115583915D01*
X73011591Y115583915D01*
G37*
G36*
X71436591Y115583915D02*
G01*
X71470569Y115573607D01*
X71501890Y115556866D01*
X71529339Y115534339D01*
X71551866Y115506890D01*
X71568607Y115475569D01*
X71578915Y115441591D01*
X71583000Y115400110D01*
X71583000Y114723890D01*
X71578915Y114682409D01*
X71568607Y114648431D01*
X71551866Y114617110D01*
X71529339Y114589661D01*
X71501890Y114567134D01*
X71470569Y114550393D01*
X71436591Y114540085D01*
X71395110Y114536000D01*
X70793890Y114536000D01*
X70752409Y114540085D01*
X70718431Y114550393D01*
X70687110Y114567134D01*
X70659661Y114589661D01*
X70637134Y114617110D01*
X70620393Y114648431D01*
X70610085Y114682409D01*
X70606000Y114723890D01*
X70606000Y115400110D01*
X70610085Y115441591D01*
X70620393Y115475569D01*
X70637134Y115506890D01*
X70659661Y115534339D01*
X70687110Y115556866D01*
X70718431Y115573607D01*
X70752409Y115583915D01*
X70793890Y115588000D01*
X71395110Y115588000D01*
X71436591Y115583915D01*
X71436591Y115583915D01*
G37*
G36*
X94613591Y115546415D02*
G01*
X94647569Y115536107D01*
X94678890Y115519366D01*
X94706339Y115496839D01*
X94728866Y115469390D01*
X94745607Y115438069D01*
X94755915Y115404091D01*
X94760000Y115362610D01*
X94760000Y114761390D01*
X94755915Y114719909D01*
X94745607Y114685931D01*
X94728866Y114654610D01*
X94706339Y114627161D01*
X94678890Y114604634D01*
X94647569Y114587893D01*
X94613591Y114577585D01*
X94572110Y114573500D01*
X93895890Y114573500D01*
X93854409Y114577585D01*
X93820431Y114587893D01*
X93789110Y114604634D01*
X93761661Y114627161D01*
X93739134Y114654610D01*
X93722393Y114685931D01*
X93712085Y114719909D01*
X93708000Y114761390D01*
X93708000Y115362610D01*
X93712085Y115404091D01*
X93722393Y115438069D01*
X93739134Y115469390D01*
X93761661Y115496839D01*
X93789110Y115519366D01*
X93820431Y115536107D01*
X93854409Y115546415D01*
X93895890Y115550500D01*
X94572110Y115550500D01*
X94613591Y115546415D01*
X94613591Y115546415D01*
G37*
G36*
X76089000Y114687000D02*
G01*
X74787000Y114687000D01*
X74787000Y115689000D01*
X76089000Y115689000D01*
X76089000Y114687000D01*
X76089000Y114687000D01*
G37*
G36*
X91643468Y116260935D02*
G01*
X91682138Y116249204D01*
X91717777Y116230154D01*
X91749017Y116204517D01*
X91774654Y116173277D01*
X91793704Y116137638D01*
X91805435Y116098968D01*
X91810000Y116052612D01*
X91810000Y115401388D01*
X91805435Y115355032D01*
X91793704Y115316362D01*
X91774654Y115280723D01*
X91749017Y115249483D01*
X91717777Y115223846D01*
X91682138Y115204796D01*
X91643468Y115193065D01*
X91597112Y115188500D01*
X90520888Y115188500D01*
X90474532Y115193065D01*
X90435862Y115204796D01*
X90400223Y115223846D01*
X90368983Y115249483D01*
X90343346Y115280723D01*
X90324296Y115316362D01*
X90312565Y115355032D01*
X90308000Y115401388D01*
X90308000Y116052612D01*
X90312565Y116098968D01*
X90324296Y116137638D01*
X90343346Y116173277D01*
X90368983Y116204517D01*
X90400223Y116230154D01*
X90435862Y116249204D01*
X90474532Y116260935D01*
X90520888Y116265500D01*
X91597112Y116265500D01*
X91643468Y116260935D01*
X91643468Y116260935D01*
G37*
G36*
X86231591Y116257415D02*
G01*
X86265569Y116247107D01*
X86296890Y116230366D01*
X86324339Y116207839D01*
X86346866Y116180390D01*
X86363607Y116149069D01*
X86373915Y116115091D01*
X86378000Y116073610D01*
X86378000Y115472390D01*
X86373915Y115430909D01*
X86363607Y115396931D01*
X86346866Y115365610D01*
X86324339Y115338161D01*
X86296890Y115315634D01*
X86265569Y115298893D01*
X86231591Y115288585D01*
X86190110Y115284500D01*
X85513890Y115284500D01*
X85472409Y115288585D01*
X85438431Y115298893D01*
X85407110Y115315634D01*
X85379661Y115338161D01*
X85357134Y115365610D01*
X85340393Y115396931D01*
X85330085Y115430909D01*
X85326000Y115472390D01*
X85326000Y116073610D01*
X85330085Y116115091D01*
X85340393Y116149069D01*
X85357134Y116180390D01*
X85379661Y116207839D01*
X85407110Y116230366D01*
X85438431Y116247107D01*
X85472409Y116257415D01*
X85513890Y116261500D01*
X86190110Y116261500D01*
X86231591Y116257415D01*
X86231591Y116257415D01*
G37*
G36*
X115200000Y115636000D02*
G01*
X113898000Y115636000D01*
X113898000Y117938000D01*
X115200000Y117938000D01*
X115200000Y115636000D01*
X115200000Y115636000D01*
G37*
G36*
X110640000Y115636000D02*
G01*
X109338000Y115636000D01*
X109338000Y117938000D01*
X110640000Y117938000D01*
X110640000Y115636000D01*
X110640000Y115636000D01*
G37*
G36*
X100479000Y115807000D02*
G01*
X99177000Y115807000D01*
X99177000Y118109000D01*
X100479000Y118109000D01*
X100479000Y115807000D01*
X100479000Y115807000D01*
G37*
G36*
X105039000Y115807000D02*
G01*
X103737000Y115807000D01*
X103737000Y118109000D01*
X105039000Y118109000D01*
X105039000Y115807000D01*
X105039000Y115807000D01*
G37*
G36*
X79877000Y116697000D02*
G01*
X78875000Y116697000D01*
X78875000Y117999000D01*
X79877000Y117999000D01*
X79877000Y116697000D01*
X79877000Y116697000D01*
G37*
G36*
X83177000Y116697000D02*
G01*
X82175000Y116697000D01*
X82175000Y117999000D01*
X83177000Y117999000D01*
X83177000Y116697000D01*
X83177000Y116697000D01*
G37*
G36*
X86231591Y117832415D02*
G01*
X86265569Y117822107D01*
X86296890Y117805366D01*
X86324339Y117782839D01*
X86346866Y117755390D01*
X86363607Y117724069D01*
X86373915Y117690091D01*
X86378000Y117648610D01*
X86378000Y117047390D01*
X86373915Y117005909D01*
X86363607Y116971931D01*
X86346866Y116940610D01*
X86324339Y116913161D01*
X86296890Y116890634D01*
X86265569Y116873893D01*
X86231591Y116863585D01*
X86190110Y116859500D01*
X85513890Y116859500D01*
X85472409Y116863585D01*
X85438431Y116873893D01*
X85407110Y116890634D01*
X85379661Y116913161D01*
X85357134Y116940610D01*
X85340393Y116971931D01*
X85330085Y117005909D01*
X85326000Y117047390D01*
X85326000Y117648610D01*
X85330085Y117690091D01*
X85340393Y117724069D01*
X85357134Y117755390D01*
X85379661Y117782839D01*
X85407110Y117805366D01*
X85438431Y117822107D01*
X85472409Y117832415D01*
X85513890Y117836500D01*
X86190110Y117836500D01*
X86231591Y117832415D01*
X86231591Y117832415D01*
G37*
G36*
X91643468Y118135935D02*
G01*
X91682138Y118124204D01*
X91717777Y118105154D01*
X91749017Y118079517D01*
X91774654Y118048277D01*
X91793704Y118012638D01*
X91805435Y117973968D01*
X91810000Y117927612D01*
X91810000Y117276388D01*
X91805435Y117230032D01*
X91793704Y117191362D01*
X91774654Y117155723D01*
X91749017Y117124483D01*
X91717777Y117098846D01*
X91682138Y117079796D01*
X91643468Y117068065D01*
X91597112Y117063500D01*
X90520888Y117063500D01*
X90474532Y117068065D01*
X90435862Y117079796D01*
X90400223Y117098846D01*
X90368983Y117124483D01*
X90343346Y117155723D01*
X90324296Y117191362D01*
X90312565Y117230032D01*
X90308000Y117276388D01*
X90308000Y117927612D01*
X90312565Y117973968D01*
X90324296Y118012638D01*
X90343346Y118048277D01*
X90368983Y118079517D01*
X90400223Y118105154D01*
X90435862Y118124204D01*
X90474532Y118135935D01*
X90520888Y118140500D01*
X91597112Y118140500D01*
X91643468Y118135935D01*
X91643468Y118135935D01*
G37*
G36*
X67813000Y118510000D02*
G01*
X66211000Y118510000D01*
X66211000Y121012000D01*
X67813000Y121012000D01*
X67813000Y118510000D01*
X67813000Y118510000D01*
G37*
G36*
X62313000Y118510000D02*
G01*
X60711000Y118510000D01*
X60711000Y121012000D01*
X62313000Y121012000D01*
X62313000Y118510000D01*
X62313000Y118510000D01*
G37*
G36*
X125224549Y121128884D02*
G01*
X125335734Y121106768D01*
X125545203Y121020003D01*
X125733720Y120894040D01*
X125894040Y120733720D01*
X126020003Y120545203D01*
X126106768Y120335734D01*
X126151000Y120113364D01*
X126151000Y119886636D01*
X126106768Y119664266D01*
X126020003Y119454797D01*
X125894040Y119266280D01*
X125733720Y119105960D01*
X125545203Y118979997D01*
X125335734Y118893232D01*
X125224549Y118871116D01*
X125113365Y118849000D01*
X124886635Y118849000D01*
X124775451Y118871116D01*
X124664266Y118893232D01*
X124454797Y118979997D01*
X124266280Y119105960D01*
X124105960Y119266280D01*
X123979997Y119454797D01*
X123893232Y119664266D01*
X123849000Y119886636D01*
X123849000Y120113364D01*
X123893232Y120335734D01*
X123979997Y120545203D01*
X124105960Y120733720D01*
X124266280Y120894040D01*
X124454797Y121020003D01*
X124664266Y121106768D01*
X124775451Y121128884D01*
X124886635Y121151000D01*
X125113365Y121151000D01*
X125224549Y121128884D01*
X125224549Y121128884D01*
G37*
G36*
X55224549Y121128884D02*
G01*
X55335734Y121106768D01*
X55545203Y121020003D01*
X55733720Y120894040D01*
X55894040Y120733720D01*
X56020003Y120545203D01*
X56106768Y120335734D01*
X56151000Y120113364D01*
X56151000Y119886636D01*
X56106768Y119664266D01*
X56020003Y119454797D01*
X55894040Y119266280D01*
X55733720Y119105960D01*
X55545203Y118979997D01*
X55335734Y118893232D01*
X55224549Y118871116D01*
X55113365Y118849000D01*
X54886635Y118849000D01*
X54775451Y118871116D01*
X54664266Y118893232D01*
X54454797Y118979997D01*
X54266280Y119105960D01*
X54105960Y119266280D01*
X53979997Y119454797D01*
X53893232Y119664266D01*
X53849000Y119886636D01*
X53849000Y120113364D01*
X53893232Y120335734D01*
X53979997Y120545203D01*
X54105960Y120733720D01*
X54266280Y120894040D01*
X54454797Y121020003D01*
X54664266Y121106768D01*
X54775451Y121128884D01*
X54886635Y121151000D01*
X55113365Y121151000D01*
X55224549Y121128884D01*
X55224549Y121128884D01*
G37*
G36*
X75673000Y119131000D02*
G01*
X73171000Y119131000D01*
X73171000Y120733000D01*
X75673000Y120733000D01*
X75673000Y119131000D01*
X75673000Y119131000D01*
G37*
G36*
X115220000Y119836000D02*
G01*
X109318000Y119836000D01*
X109318000Y126338000D01*
X115220000Y126338000D01*
X115220000Y119836000D01*
X115220000Y119836000D01*
G37*
G36*
X105059000Y120007000D02*
G01*
X99157000Y120007000D01*
X99157000Y126509000D01*
X105059000Y126509000D01*
X105059000Y120007000D01*
X105059000Y120007000D01*
G37*
G36*
X75673000Y124631000D02*
G01*
X73171000Y124631000D01*
X73171000Y126233000D01*
X75673000Y126233000D01*
X75673000Y124631000D01*
X75673000Y124631000D01*
G37*
M02*
