M48
; DRILL file {KiCad 5.1.10} date Sun Aug 29 14:41:41 2021
; FORMAT={-:-/ absolute / metric / decimal}
; #@! TF.CreationDate,2021-08-29T14:41:41+02:00
; #@! TF.GenerationSoftware,Kicad,Pcbnew,5.1.10
; #@! TF.FileFunction,Plated,1,4,PTH
FMAT,2
METRIC
T1C0.254
T2C0.300
T3C0.400
T4C0.700
T5C1.000
T6C1.100
%
G90
G05
T1
X63.449Y-44.653
X63.449Y-45.441
X63.449Y-46.228
X63.449Y-47.015
X63.449Y-47.803
X64.237Y-44.653
X64.237Y-45.441
X64.237Y-46.228
X64.237Y-47.015
X64.237Y-47.803
X65.024Y-44.653
X65.024Y-45.441
X65.024Y-46.228
X65.024Y-47.015
X65.024Y-47.803
X65.811Y-44.653
X65.811Y-45.441
X65.811Y-46.228
X65.811Y-47.015
X65.811Y-47.803
X66.599Y-44.653
X66.599Y-45.441
X66.599Y-46.228
X66.599Y-47.015
X66.599Y-47.803
T2
X93.5Y-32.02
X93.5Y-33.02
X93.5Y-34.02
X93.5Y-35.02
X93.5Y-36.02
X94.5Y-32.02
X94.5Y-33.02
X94.5Y-34.02
X94.5Y-35.02
X94.5Y-36.02
X95.5Y-32.02
X95.5Y-33.02
X95.5Y-34.02
X95.5Y-35.02
X95.5Y-36.02
X96.5Y-32.02
X96.5Y-33.02
X96.5Y-34.02
X96.5Y-35.02
X96.5Y-36.02
X97.5Y-32.02
X97.5Y-33.02
X97.5Y-34.02
X97.5Y-35.02
X97.5Y-36.02
T3
X27.0Y-30.75
X27.5Y-42.75
X27.5Y-46.75
X27.75Y-51.25
X28.5Y-30.0
X28.5Y-33.75
X28.5Y-35.0
X28.5Y-47.25
X29.75Y-25.25
X32.0Y-45.0
X33.877Y-31.623
X34.75Y-49.25
X35.0Y-43.25
X35.25Y-51.0
X35.5Y-27.75
X35.645Y-52.645
X36.75Y-22.25
X36.75Y-27.75
X37.75Y-30.75
X37.75Y-32.25
X38.25Y-27.75
X39.75Y-40.25
X39.75Y-43.0
X40.75Y-30.5
X41.0Y-27.5
X42.75Y-57.25
X43.5Y-38.0
X43.5Y-40.5
X44.25Y-53.75
X44.5Y-42.25
X44.75Y-57.25
X45.25Y-44.25
X45.301Y-31.817
X45.5Y-34.75
X45.5Y-50.75
X46.25Y-30.5
X46.25Y-40.25
X47.5Y-54.5
X48.5Y-34.0
X48.5Y-57.0
X49.25Y-47.25
X49.25Y-49.5
X50.0Y-34.0
X50.25Y-32.0
X51.0Y-34.0
X52.0Y-38.0
X52.25Y-34.0
X52.629Y-47.048
X52.75Y-48.0
X53.0Y-37.5
X53.0Y-45.84
X53.5Y-49.664
X53.8Y-33.2
X53.8Y-35.6
X54.0Y-59.25
X54.397Y-45.604
X54.4Y-32.0
X54.4Y-34.4
X54.5Y-22.0
X55.25Y-55.0
X55.25Y-56.0
X55.438Y-46.812
X55.6Y-31.4
X56.8Y-32.0
X57.0Y-57.0
X57.0Y-58.0
X57.5Y-22.5
X57.5Y-28.25
X57.8Y-31.4
X58.25Y-57.0
X58.25Y-58.0
X58.25Y-59.0
X58.497Y-47.094
X58.5Y-23.75
X58.5Y-26.25
X58.601Y-46.101
X58.8Y-32.0
X59.315Y-47.597
X59.5Y-59.25
X60.25Y-31.0
X60.277Y-45.337
X60.326Y-43.56
X60.452Y-48.641
X60.5Y-23.29
X60.5Y-24.25
X60.5Y-25.25
X60.5Y-26.75
X60.5Y-39.75
X60.6Y-34.6
X60.75Y-39.0
X60.75Y-59.25
X61.2Y-33.4
X61.75Y-31.0
X61.75Y-39.0
X62.016Y-36.766
X62.25Y-59.25
X62.75Y-60.25
X62.992Y-39.008
X63.0Y-57.25
X63.0Y-58.5
X63.75Y-25.5
X63.75Y-30.25
X63.75Y-32.0
X63.854Y-36.896
X64.0Y-37.75
X64.367Y-51.585
X64.482Y-21.018
X64.816Y-40.028
X65.124Y-41.021
X65.5Y-58.25
X65.5Y-60.25
X65.949Y-33.25
X66.042Y-40.721
X66.75Y-56.5
X66.802Y-34.198
X66.802Y-40.132
X67.0Y-22.25
X67.25Y-30.75
X67.25Y-58.5
X67.604Y-36.896
X67.75Y-35.75
X67.75Y-57.5
X67.944Y-55.306
X67.945Y-51.333
X68.072Y-42.164
X68.25Y-38.0
X68.452Y-49.531
X68.5Y-31.25
X68.5Y-35.75
X68.54Y-39.451
X68.659Y-56.5
X70.717Y-35.799
X70.739Y-49.276
X70.75Y-27.479
X70.993Y-46.022
X70.993Y-47.498
X71.0Y-32.0
X71.25Y-35.0
X71.374Y-44.402
X71.388Y-42.926
X71.473Y-40.277
X71.5Y-59.5
X71.698Y-46.674
X72.004Y-41.25
X72.25Y-39.0
X72.5Y-36.5
X72.5Y-37.5
X73.0Y-57.04
X73.0Y-60.5
X73.5Y-38.5
X73.5Y-58.5
X73.75Y-29.0
X74.0Y-26.0
X74.002Y-31.498
X74.25Y-41.75
X74.25Y-44.0
X74.268Y-53.5
X74.5Y-46.25
X74.5Y-48.5
X75.0Y-28.75
X75.25Y-58.5
X75.25Y-59.5
X75.449Y-56.25
X75.449Y-57.0
X76.0Y-39.75
X76.0Y-42.0
X76.0Y-44.25
X76.0Y-46.5
X76.0Y-48.75
X76.0Y-50.5
X76.0Y-62.75
X76.502Y-27.248
X76.75Y-45.25
X77.0Y-49.75
X77.247Y-35.507
X77.5Y-32.75
X77.5Y-43.5
X77.5Y-63.0
X77.625Y-34.625
X77.75Y-41.75
X78.0Y-55.25
X78.21Y-58.5
X78.692Y-30.66
X78.74Y-43.5
X78.75Y-42.5
X78.75Y-44.75
X79.0Y-53.0
X79.0Y-57.5
X79.215Y-31.465
X79.5Y-35.25
X79.877Y-28.623
X80.0Y-27.75
X80.0Y-32.75
X80.0Y-44.75
X80.0Y-51.89
X80.24Y-60.049
X80.5Y-45.75
X80.54Y-46.75
X80.99Y-57.5
X81.5Y-32.25
X81.5Y-55.75
X81.7Y-50.55
X82.153Y-28.708
X82.338Y-60.06
X82.652Y-60.967
X82.75Y-45.25
X83.0Y-42.75
X83.0Y-43.75
X83.298Y-60.058
X83.625Y-49.375
X83.75Y-46.75
X84.0Y-27.25
X84.25Y-32.0
X84.48Y-60.967
X84.498Y-56.998
X85.033Y-56.201
X85.049Y-26.967
X85.49Y-60.059
X85.752Y-55.252
X86.0Y-63.0
X87.0Y-63.0
X87.309Y-54.187
X87.423Y-60.327
X87.752Y-53.335
X88.497Y-59.999
X88.739Y-45.559
X88.79Y-44.5
X89.0Y-28.75
X89.0Y-57.42
X89.0Y-63.0
X89.0Y-27.602
X89.5Y-41.0
X89.955Y-57.522
X90.0Y-33.75
X90.0Y-35.5
X90.0Y-38.5
X90.25Y-59.75
X90.42Y-27.835
X90.53Y-58.29
X91.5Y-43.0
X91.5Y-44.5
X91.5Y-46.0
X92.252Y-30.002
X92.29Y-42.21
X92.373Y-56.29
X93.0Y-55.5
X93.5Y-41.25
X94.5Y-46.0
X94.5Y-55.0
X96.0Y-54.5
X97.498Y-54.002
X97.5Y-45.5
X98.06Y-61.75
X98.531Y-59.775
X98.998Y-53.002
X99.0Y-48.0
X99.503Y-59.809
X100.0Y-29.0
X100.0Y-46.5
X100.495Y-59.761
X100.5Y-48.5
X101.5Y-60.0
X102.0Y-50.0
X102.25Y-44.5
X102.5Y-31.5
X102.5Y-32.75
X102.5Y-35.25
X102.585Y-52.71
X102.75Y-26.75
X103.06Y-53.56
X103.5Y-51.0
X103.56Y-54.5
X104.5Y-54.0
X105.002Y-51.998
X105.998Y-51.498
X106.5Y-55.0
X107.0Y-26.75
X107.0Y-60.0
X107.179Y-55.679
X107.5Y-31.75
X107.529Y-56.573
X107.65Y-42.35
X108.25Y-28.75
X108.25Y-32.75
X108.834Y-55.338
X109.0Y-57.25
X109.5Y-29.75
X109.75Y-60.0
X111.0Y-55.25
X111.04Y-45.75
X111.5Y-48.25
X111.5Y-50.5
X111.5Y-52.5
X111.75Y-60.0
X112.75Y-46.5
X113.0Y-40.0
X113.0Y-52.5
X113.0Y-56.75
X113.25Y-48.25
X113.25Y-50.5
X113.25Y-54.5
X113.25Y-60.5
X113.5Y-41.5
X113.75Y-56.75
X114.0Y-52.5
X114.25Y-62.75
X115.5Y-31.0
X115.5Y-41.0
X115.977Y-45.727
X116.0Y-32.0
X117.0Y-47.334
X117.25Y-44.0
X118.25Y-53.75
X119.727Y-33.227
X119.75Y-41.0
X119.75Y-43.0
X119.75Y-50.5
X120.0Y-30.0
X120.0Y-31.5
X121.25Y-48.75
X122.5Y-51.25
X122.5Y-53.5
X122.5Y-55.25
X122.5Y-57.5
X124.0Y-49.25
X124.0Y-51.25
X124.0Y-53.5
X124.0Y-55.25
X124.0Y-57.5
X124.0Y-58.75
T4
X29.075Y-23.765
X33.925Y-23.765
T5
X34.96Y-62.0
X37.5Y-62.0
X38.887Y-21.641
X38.887Y-24.181
X41.427Y-21.641
X41.427Y-24.181
X43.967Y-21.641
X43.967Y-24.181
X46.507Y-21.641
X46.507Y-24.181
X49.047Y-21.641
X49.047Y-24.181
X51.587Y-21.641
X51.587Y-24.181
X68.58Y-21.59
X68.58Y-24.13
X71.12Y-21.59
X71.12Y-24.13
X73.66Y-21.59
X73.66Y-24.13
X76.2Y-21.59
X76.2Y-24.13
X78.74Y-21.59
X78.74Y-24.13
T6
X27.9Y-21.065G85X27.9Y-21.065
G05
X35.1Y-21.065G85X35.1Y-21.065
G05
T0
M30
