G04 #@! TF.GenerationSoftware,KiCad,Pcbnew,5.1.6-c6e7f7d~86~ubuntu18.04.1*
G04 #@! TF.CreationDate,2020-05-28T16:54:38+02:00*
G04 #@! TF.ProjectId,epaper-breakout,65706170-6572-42d6-9272-65616b6f7574,rev?*
G04 #@! TF.SameCoordinates,Original*
G04 #@! TF.FileFunction,Paste,Top*
G04 #@! TF.FilePolarity,Positive*
%FSLAX46Y46*%
G04 Gerber Fmt 4.6, Leading zero omitted, Abs format (unit mm)*
G04 Created by KiCad (PCBNEW 5.1.6-c6e7f7d~86~ubuntu18.04.1) date 2020-05-28 16:54:38*
%MOMM*%
%LPD*%
G01*
G04 APERTURE LIST*
%ADD10R,0.812800X0.254000*%
%ADD11R,1.701800X1.524000*%
%ADD12R,1.500000X1.700000*%
%ADD13C,1.290000*%
%ADD14R,0.400000X1.250000*%
%ADD15O,1.100000X1.700000*%
%ADD16R,5.000000X5.000000*%
%ADD17O,0.900000X3.000000*%
%ADD18R,0.800000X0.900000*%
%ADD19R,3.050000X2.750000*%
%ADD20R,2.200000X1.200000*%
%ADD21R,1.400000X0.300000*%
%ADD22R,1.200000X1.200000*%
%ADD23R,1.600000X1.500000*%
%ADD24R,0.750000X1.500000*%
%ADD25R,1.500000X2.400000*%
%ADD26R,2.400000X1.500000*%
%ADD27R,0.900000X1.200000*%
%ADD28R,1.500000X0.750000*%
G04 APERTURE END LIST*
D10*
X118588300Y-45727399D03*
X118588300Y-45227400D03*
X118588300Y-44727399D03*
X118588300Y-44227400D03*
X118588300Y-43727398D03*
X118588300Y-43227399D03*
X118588300Y-42727400D03*
X118588300Y-42227399D03*
X118588300Y-41727400D03*
X118588300Y-41227398D03*
X118588300Y-40727399D03*
X118588300Y-40227400D03*
X118588300Y-39727399D03*
X118588300Y-39227400D03*
X118588300Y-38727398D03*
X118588300Y-38227399D03*
X118588300Y-37727400D03*
X118588300Y-37227398D03*
X118588300Y-36727399D03*
X118588300Y-36227400D03*
X118588300Y-35727399D03*
X118588300Y-35227400D03*
X118588300Y-34727398D03*
X118588300Y-34227399D03*
X118588300Y-33727400D03*
X118588300Y-33227399D03*
X118588300Y-32727400D03*
X118588300Y-32227398D03*
X118588300Y-31727399D03*
X118588300Y-31227400D03*
X118588300Y-30727399D03*
X118588300Y-30227400D03*
X118588300Y-29727398D03*
D11*
X122601500Y-28075400D03*
X122601500Y-47379400D03*
G36*
G01*
X58688000Y-41890750D02*
X58688000Y-42403250D01*
G75*
G02*
X58469250Y-42622000I-218750J0D01*
G01*
X58031750Y-42622000D01*
G75*
G02*
X57813000Y-42403250I0J218750D01*
G01*
X57813000Y-41890750D01*
G75*
G02*
X58031750Y-41672000I218750J0D01*
G01*
X58469250Y-41672000D01*
G75*
G02*
X58688000Y-41890750I0J-218750D01*
G01*
G37*
G36*
G01*
X60263000Y-41890750D02*
X60263000Y-42403250D01*
G75*
G02*
X60044250Y-42622000I-218750J0D01*
G01*
X59606750Y-42622000D01*
G75*
G02*
X59388000Y-42403250I0J218750D01*
G01*
X59388000Y-41890750D01*
G75*
G02*
X59606750Y-41672000I218750J0D01*
G01*
X60044250Y-41672000D01*
G75*
G02*
X60263000Y-41890750I0J-218750D01*
G01*
G37*
D12*
X29463000Y-21065000D03*
D13*
X32888000Y-23765000D03*
D14*
X31113000Y-23765000D03*
X31763000Y-23765000D03*
X29163000Y-23765000D03*
X29813000Y-23765000D03*
X30463000Y-23765000D03*
D12*
X31463000Y-21065000D03*
D15*
X34063000Y-21065000D03*
X26863000Y-21065000D03*
G36*
G01*
X52255250Y-28616000D02*
X51342750Y-28616000D01*
G75*
G02*
X51099000Y-28372250I0J243750D01*
G01*
X51099000Y-27884750D01*
G75*
G02*
X51342750Y-27641000I243750J0D01*
G01*
X52255250Y-27641000D01*
G75*
G02*
X52499000Y-27884750I0J-243750D01*
G01*
X52499000Y-28372250D01*
G75*
G02*
X52255250Y-28616000I-243750J0D01*
G01*
G37*
G36*
G01*
X52255250Y-30491000D02*
X51342750Y-30491000D01*
G75*
G02*
X51099000Y-30247250I0J243750D01*
G01*
X51099000Y-29759750D01*
G75*
G02*
X51342750Y-29516000I243750J0D01*
G01*
X52255250Y-29516000D01*
G75*
G02*
X52499000Y-29759750I0J-243750D01*
G01*
X52499000Y-30247250D01*
G75*
G02*
X52255250Y-30491000I-243750J0D01*
G01*
G37*
D16*
X84089200Y-38127400D03*
D17*
X77169200Y-46727400D03*
X78439200Y-46727400D03*
X79709200Y-46727400D03*
X80979200Y-46727400D03*
X82249200Y-46727400D03*
X83519200Y-46727400D03*
X84789200Y-46727400D03*
X86059200Y-46727400D03*
X87329200Y-46727400D03*
X88599200Y-46727400D03*
X89869200Y-46727400D03*
X91139200Y-46727400D03*
X92409200Y-46727400D03*
X93679200Y-46727400D03*
X94979200Y-46727400D03*
X96249200Y-46727400D03*
X97519200Y-46727400D03*
X98789200Y-46727400D03*
X100059200Y-46727400D03*
X100059200Y-28727400D03*
X98789200Y-28727400D03*
X97519200Y-28727400D03*
X96249200Y-28727400D03*
X94979200Y-28727400D03*
X93679200Y-28697400D03*
X92409200Y-28697400D03*
X91139200Y-28697400D03*
X89869200Y-28697400D03*
X88599200Y-28697400D03*
X87329200Y-28697400D03*
X86059200Y-28697400D03*
X84789200Y-28697400D03*
X83519200Y-28697400D03*
X82249200Y-28697400D03*
X80979200Y-28697400D03*
X79709200Y-28697400D03*
X78439200Y-28697400D03*
X77169200Y-28697400D03*
D18*
X119800000Y-21800000D03*
X120750000Y-23800000D03*
X118850000Y-23800000D03*
G36*
G01*
X108747200Y-27844400D02*
X108747200Y-27544400D01*
G75*
G02*
X108897200Y-27394400I150000J0D01*
G01*
X110547200Y-27394400D01*
G75*
G02*
X110697200Y-27544400I0J-150000D01*
G01*
X110697200Y-27844400D01*
G75*
G02*
X110547200Y-27994400I-150000J0D01*
G01*
X108897200Y-27994400D01*
G75*
G02*
X108747200Y-27844400I0J150000D01*
G01*
G37*
G36*
G01*
X108747200Y-29114400D02*
X108747200Y-28814400D01*
G75*
G02*
X108897200Y-28664400I150000J0D01*
G01*
X110547200Y-28664400D01*
G75*
G02*
X110697200Y-28814400I0J-150000D01*
G01*
X110697200Y-29114400D01*
G75*
G02*
X110547200Y-29264400I-150000J0D01*
G01*
X108897200Y-29264400D01*
G75*
G02*
X108747200Y-29114400I0J150000D01*
G01*
G37*
G36*
G01*
X108747200Y-30384400D02*
X108747200Y-30084400D01*
G75*
G02*
X108897200Y-29934400I150000J0D01*
G01*
X110547200Y-29934400D01*
G75*
G02*
X110697200Y-30084400I0J-150000D01*
G01*
X110697200Y-30384400D01*
G75*
G02*
X110547200Y-30534400I-150000J0D01*
G01*
X108897200Y-30534400D01*
G75*
G02*
X108747200Y-30384400I0J150000D01*
G01*
G37*
G36*
G01*
X108747200Y-31654400D02*
X108747200Y-31354400D01*
G75*
G02*
X108897200Y-31204400I150000J0D01*
G01*
X110547200Y-31204400D01*
G75*
G02*
X110697200Y-31354400I0J-150000D01*
G01*
X110697200Y-31654400D01*
G75*
G02*
X110547200Y-31804400I-150000J0D01*
G01*
X108897200Y-31804400D01*
G75*
G02*
X108747200Y-31654400I0J150000D01*
G01*
G37*
G36*
G01*
X108747200Y-32924400D02*
X108747200Y-32624400D01*
G75*
G02*
X108897200Y-32474400I150000J0D01*
G01*
X110547200Y-32474400D01*
G75*
G02*
X110697200Y-32624400I0J-150000D01*
G01*
X110697200Y-32924400D01*
G75*
G02*
X110547200Y-33074400I-150000J0D01*
G01*
X108897200Y-33074400D01*
G75*
G02*
X108747200Y-32924400I0J150000D01*
G01*
G37*
G36*
G01*
X108747200Y-34194400D02*
X108747200Y-33894400D01*
G75*
G02*
X108897200Y-33744400I150000J0D01*
G01*
X110547200Y-33744400D01*
G75*
G02*
X110697200Y-33894400I0J-150000D01*
G01*
X110697200Y-34194400D01*
G75*
G02*
X110547200Y-34344400I-150000J0D01*
G01*
X108897200Y-34344400D01*
G75*
G02*
X108747200Y-34194400I0J150000D01*
G01*
G37*
G36*
G01*
X108747200Y-35464400D02*
X108747200Y-35164400D01*
G75*
G02*
X108897200Y-35014400I150000J0D01*
G01*
X110547200Y-35014400D01*
G75*
G02*
X110697200Y-35164400I0J-150000D01*
G01*
X110697200Y-35464400D01*
G75*
G02*
X110547200Y-35614400I-150000J0D01*
G01*
X108897200Y-35614400D01*
G75*
G02*
X108747200Y-35464400I0J150000D01*
G01*
G37*
G36*
G01*
X108747200Y-36734400D02*
X108747200Y-36434400D01*
G75*
G02*
X108897200Y-36284400I150000J0D01*
G01*
X110547200Y-36284400D01*
G75*
G02*
X110697200Y-36434400I0J-150000D01*
G01*
X110697200Y-36734400D01*
G75*
G02*
X110547200Y-36884400I-150000J0D01*
G01*
X108897200Y-36884400D01*
G75*
G02*
X108747200Y-36734400I0J150000D01*
G01*
G37*
G36*
G01*
X103797200Y-36734400D02*
X103797200Y-36434400D01*
G75*
G02*
X103947200Y-36284400I150000J0D01*
G01*
X105597200Y-36284400D01*
G75*
G02*
X105747200Y-36434400I0J-150000D01*
G01*
X105747200Y-36734400D01*
G75*
G02*
X105597200Y-36884400I-150000J0D01*
G01*
X103947200Y-36884400D01*
G75*
G02*
X103797200Y-36734400I0J150000D01*
G01*
G37*
G36*
G01*
X103797200Y-35464400D02*
X103797200Y-35164400D01*
G75*
G02*
X103947200Y-35014400I150000J0D01*
G01*
X105597200Y-35014400D01*
G75*
G02*
X105747200Y-35164400I0J-150000D01*
G01*
X105747200Y-35464400D01*
G75*
G02*
X105597200Y-35614400I-150000J0D01*
G01*
X103947200Y-35614400D01*
G75*
G02*
X103797200Y-35464400I0J150000D01*
G01*
G37*
G36*
G01*
X103797200Y-34194400D02*
X103797200Y-33894400D01*
G75*
G02*
X103947200Y-33744400I150000J0D01*
G01*
X105597200Y-33744400D01*
G75*
G02*
X105747200Y-33894400I0J-150000D01*
G01*
X105747200Y-34194400D01*
G75*
G02*
X105597200Y-34344400I-150000J0D01*
G01*
X103947200Y-34344400D01*
G75*
G02*
X103797200Y-34194400I0J150000D01*
G01*
G37*
G36*
G01*
X103797200Y-32924400D02*
X103797200Y-32624400D01*
G75*
G02*
X103947200Y-32474400I150000J0D01*
G01*
X105597200Y-32474400D01*
G75*
G02*
X105747200Y-32624400I0J-150000D01*
G01*
X105747200Y-32924400D01*
G75*
G02*
X105597200Y-33074400I-150000J0D01*
G01*
X103947200Y-33074400D01*
G75*
G02*
X103797200Y-32924400I0J150000D01*
G01*
G37*
G36*
G01*
X103797200Y-31654400D02*
X103797200Y-31354400D01*
G75*
G02*
X103947200Y-31204400I150000J0D01*
G01*
X105597200Y-31204400D01*
G75*
G02*
X105747200Y-31354400I0J-150000D01*
G01*
X105747200Y-31654400D01*
G75*
G02*
X105597200Y-31804400I-150000J0D01*
G01*
X103947200Y-31804400D01*
G75*
G02*
X103797200Y-31654400I0J150000D01*
G01*
G37*
G36*
G01*
X103797200Y-30384400D02*
X103797200Y-30084400D01*
G75*
G02*
X103947200Y-29934400I150000J0D01*
G01*
X105597200Y-29934400D01*
G75*
G02*
X105747200Y-30084400I0J-150000D01*
G01*
X105747200Y-30384400D01*
G75*
G02*
X105597200Y-30534400I-150000J0D01*
G01*
X103947200Y-30534400D01*
G75*
G02*
X103797200Y-30384400I0J150000D01*
G01*
G37*
G36*
G01*
X103797200Y-29114400D02*
X103797200Y-28814400D01*
G75*
G02*
X103947200Y-28664400I150000J0D01*
G01*
X105597200Y-28664400D01*
G75*
G02*
X105747200Y-28814400I0J-150000D01*
G01*
X105747200Y-29114400D01*
G75*
G02*
X105597200Y-29264400I-150000J0D01*
G01*
X103947200Y-29264400D01*
G75*
G02*
X103797200Y-29114400I0J150000D01*
G01*
G37*
G36*
G01*
X103797200Y-27844400D02*
X103797200Y-27544400D01*
G75*
G02*
X103947200Y-27394400I150000J0D01*
G01*
X105597200Y-27394400D01*
G75*
G02*
X105747200Y-27544400I0J-150000D01*
G01*
X105747200Y-27844400D01*
G75*
G02*
X105597200Y-27994400I-150000J0D01*
G01*
X103947200Y-27994400D01*
G75*
G02*
X103797200Y-27844400I0J150000D01*
G01*
G37*
G36*
G01*
X62450000Y-28342500D02*
X62450000Y-28667500D01*
G75*
G02*
X62287500Y-28830000I-162500J0D01*
G01*
X60637500Y-28830000D01*
G75*
G02*
X60475000Y-28667500I0J162500D01*
G01*
X60475000Y-28342500D01*
G75*
G02*
X60637500Y-28180000I162500J0D01*
G01*
X62287500Y-28180000D01*
G75*
G02*
X62450000Y-28342500I0J-162500D01*
G01*
G37*
G36*
G01*
X62450000Y-27072500D02*
X62450000Y-27397500D01*
G75*
G02*
X62287500Y-27560000I-162500J0D01*
G01*
X60637500Y-27560000D01*
G75*
G02*
X60475000Y-27397500I0J162500D01*
G01*
X60475000Y-27072500D01*
G75*
G02*
X60637500Y-26910000I162500J0D01*
G01*
X62287500Y-26910000D01*
G75*
G02*
X62450000Y-27072500I0J-162500D01*
G01*
G37*
G36*
G01*
X62450000Y-25802500D02*
X62450000Y-26127500D01*
G75*
G02*
X62287500Y-26290000I-162500J0D01*
G01*
X60637500Y-26290000D01*
G75*
G02*
X60475000Y-26127500I0J162500D01*
G01*
X60475000Y-25802500D01*
G75*
G02*
X60637500Y-25640000I162500J0D01*
G01*
X62287500Y-25640000D01*
G75*
G02*
X62450000Y-25802500I0J-162500D01*
G01*
G37*
G36*
G01*
X62450000Y-24532500D02*
X62450000Y-24857500D01*
G75*
G02*
X62287500Y-25020000I-162500J0D01*
G01*
X60637500Y-25020000D01*
G75*
G02*
X60475000Y-24857500I0J162500D01*
G01*
X60475000Y-24532500D01*
G75*
G02*
X60637500Y-24370000I162500J0D01*
G01*
X62287500Y-24370000D01*
G75*
G02*
X62450000Y-24532500I0J-162500D01*
G01*
G37*
G36*
G01*
X67525000Y-24532500D02*
X67525000Y-24857500D01*
G75*
G02*
X67362500Y-25020000I-162500J0D01*
G01*
X65712500Y-25020000D01*
G75*
G02*
X65550000Y-24857500I0J162500D01*
G01*
X65550000Y-24532500D01*
G75*
G02*
X65712500Y-24370000I162500J0D01*
G01*
X67362500Y-24370000D01*
G75*
G02*
X67525000Y-24532500I0J-162500D01*
G01*
G37*
G36*
G01*
X67525000Y-25802500D02*
X67525000Y-26127500D01*
G75*
G02*
X67362500Y-26290000I-162500J0D01*
G01*
X65712500Y-26290000D01*
G75*
G02*
X65550000Y-26127500I0J162500D01*
G01*
X65550000Y-25802500D01*
G75*
G02*
X65712500Y-25640000I162500J0D01*
G01*
X67362500Y-25640000D01*
G75*
G02*
X67525000Y-25802500I0J-162500D01*
G01*
G37*
G36*
G01*
X67525000Y-27072500D02*
X67525000Y-27397500D01*
G75*
G02*
X67362500Y-27560000I-162500J0D01*
G01*
X65712500Y-27560000D01*
G75*
G02*
X65550000Y-27397500I0J162500D01*
G01*
X65550000Y-27072500D01*
G75*
G02*
X65712500Y-26910000I162500J0D01*
G01*
X67362500Y-26910000D01*
G75*
G02*
X67525000Y-27072500I0J-162500D01*
G01*
G37*
G36*
G01*
X67525000Y-28342500D02*
X67525000Y-28667500D01*
G75*
G02*
X67362500Y-28830000I-162500J0D01*
G01*
X65712500Y-28830000D01*
G75*
G02*
X65550000Y-28667500I0J162500D01*
G01*
X65550000Y-28342500D01*
G75*
G02*
X65712500Y-28180000I162500J0D01*
G01*
X67362500Y-28180000D01*
G75*
G02*
X67525000Y-28342500I0J-162500D01*
G01*
G37*
G36*
G01*
X30440000Y-30312000D02*
X30740000Y-30312000D01*
G75*
G02*
X30890000Y-30462000I0J-150000D01*
G01*
X30890000Y-32112000D01*
G75*
G02*
X30740000Y-32262000I-150000J0D01*
G01*
X30440000Y-32262000D01*
G75*
G02*
X30290000Y-32112000I0J150000D01*
G01*
X30290000Y-30462000D01*
G75*
G02*
X30440000Y-30312000I150000J0D01*
G01*
G37*
G36*
G01*
X29170000Y-30312000D02*
X29470000Y-30312000D01*
G75*
G02*
X29620000Y-30462000I0J-150000D01*
G01*
X29620000Y-32112000D01*
G75*
G02*
X29470000Y-32262000I-150000J0D01*
G01*
X29170000Y-32262000D01*
G75*
G02*
X29020000Y-32112000I0J150000D01*
G01*
X29020000Y-30462000D01*
G75*
G02*
X29170000Y-30312000I150000J0D01*
G01*
G37*
G36*
G01*
X27900000Y-30312000D02*
X28200000Y-30312000D01*
G75*
G02*
X28350000Y-30462000I0J-150000D01*
G01*
X28350000Y-32112000D01*
G75*
G02*
X28200000Y-32262000I-150000J0D01*
G01*
X27900000Y-32262000D01*
G75*
G02*
X27750000Y-32112000I0J150000D01*
G01*
X27750000Y-30462000D01*
G75*
G02*
X27900000Y-30312000I150000J0D01*
G01*
G37*
G36*
G01*
X26630000Y-30312000D02*
X26930000Y-30312000D01*
G75*
G02*
X27080000Y-30462000I0J-150000D01*
G01*
X27080000Y-32112000D01*
G75*
G02*
X26930000Y-32262000I-150000J0D01*
G01*
X26630000Y-32262000D01*
G75*
G02*
X26480000Y-32112000I0J150000D01*
G01*
X26480000Y-30462000D01*
G75*
G02*
X26630000Y-30312000I150000J0D01*
G01*
G37*
G36*
G01*
X26630000Y-25362000D02*
X26930000Y-25362000D01*
G75*
G02*
X27080000Y-25512000I0J-150000D01*
G01*
X27080000Y-27162000D01*
G75*
G02*
X26930000Y-27312000I-150000J0D01*
G01*
X26630000Y-27312000D01*
G75*
G02*
X26480000Y-27162000I0J150000D01*
G01*
X26480000Y-25512000D01*
G75*
G02*
X26630000Y-25362000I150000J0D01*
G01*
G37*
G36*
G01*
X27900000Y-25362000D02*
X28200000Y-25362000D01*
G75*
G02*
X28350000Y-25512000I0J-150000D01*
G01*
X28350000Y-27162000D01*
G75*
G02*
X28200000Y-27312000I-150000J0D01*
G01*
X27900000Y-27312000D01*
G75*
G02*
X27750000Y-27162000I0J150000D01*
G01*
X27750000Y-25512000D01*
G75*
G02*
X27900000Y-25362000I150000J0D01*
G01*
G37*
G36*
G01*
X29170000Y-25362000D02*
X29470000Y-25362000D01*
G75*
G02*
X29620000Y-25512000I0J-150000D01*
G01*
X29620000Y-27162000D01*
G75*
G02*
X29470000Y-27312000I-150000J0D01*
G01*
X29170000Y-27312000D01*
G75*
G02*
X29020000Y-27162000I0J150000D01*
G01*
X29020000Y-25512000D01*
G75*
G02*
X29170000Y-25362000I150000J0D01*
G01*
G37*
G36*
G01*
X30440000Y-25362000D02*
X30740000Y-25362000D01*
G75*
G02*
X30890000Y-25512000I0J-150000D01*
G01*
X30890000Y-27162000D01*
G75*
G02*
X30740000Y-27312000I-150000J0D01*
G01*
X30440000Y-27312000D01*
G75*
G02*
X30290000Y-27162000I0J150000D01*
G01*
X30290000Y-25512000D01*
G75*
G02*
X30440000Y-25362000I150000J0D01*
G01*
G37*
D19*
X50993000Y-37955000D03*
X47643000Y-41005000D03*
X50993000Y-41005000D03*
X47643000Y-37955000D03*
D20*
X55618000Y-37200000D03*
X55618000Y-41760000D03*
D19*
X50993000Y-45067000D03*
X47643000Y-48117000D03*
X50993000Y-48117000D03*
X47643000Y-45067000D03*
D20*
X55618000Y-44312000D03*
X55618000Y-48872000D03*
D21*
X43833200Y-30116800D03*
X43833200Y-29616800D03*
X43833200Y-29116800D03*
X43833200Y-28616800D03*
X43833200Y-28116800D03*
X48233200Y-28116800D03*
X48233200Y-28616800D03*
X48233200Y-29116800D03*
X48233200Y-29616800D03*
X48233200Y-30116800D03*
D19*
X38381000Y-46085000D03*
X41731000Y-43035000D03*
X38381000Y-43035000D03*
X41731000Y-46085000D03*
D20*
X33756000Y-46840000D03*
X33756000Y-42280000D03*
D22*
X56006000Y-25078000D03*
D23*
X57006000Y-21828000D03*
D22*
X58006000Y-25078000D03*
D24*
X65358000Y-35845000D03*
X65358000Y-41845000D03*
X61608000Y-41845000D03*
X61608000Y-35845000D03*
G36*
G01*
X94174000Y-24886750D02*
X94174000Y-23974250D01*
G75*
G02*
X94417750Y-23730500I243750J0D01*
G01*
X94905250Y-23730500D01*
G75*
G02*
X95149000Y-23974250I0J-243750D01*
G01*
X95149000Y-24886750D01*
G75*
G02*
X94905250Y-25130500I-243750J0D01*
G01*
X94417750Y-25130500D01*
G75*
G02*
X94174000Y-24886750I0J243750D01*
G01*
G37*
G36*
G01*
X92299000Y-24886750D02*
X92299000Y-23974250D01*
G75*
G02*
X92542750Y-23730500I243750J0D01*
G01*
X93030250Y-23730500D01*
G75*
G02*
X93274000Y-23974250I0J-243750D01*
G01*
X93274000Y-24886750D01*
G75*
G02*
X93030250Y-25130500I-243750J0D01*
G01*
X92542750Y-25130500D01*
G75*
G02*
X92299000Y-24886750I0J243750D01*
G01*
G37*
G36*
G01*
X64350000Y-22143750D02*
X64350000Y-23056250D01*
G75*
G02*
X64106250Y-23300000I-243750J0D01*
G01*
X63618750Y-23300000D01*
G75*
G02*
X63375000Y-23056250I0J243750D01*
G01*
X63375000Y-22143750D01*
G75*
G02*
X63618750Y-21900000I243750J0D01*
G01*
X64106250Y-21900000D01*
G75*
G02*
X64350000Y-22143750I0J-243750D01*
G01*
G37*
G36*
G01*
X66225000Y-22143750D02*
X66225000Y-23056250D01*
G75*
G02*
X65981250Y-23300000I-243750J0D01*
G01*
X65493750Y-23300000D01*
G75*
G02*
X65250000Y-23056250I0J243750D01*
G01*
X65250000Y-22143750D01*
G75*
G02*
X65493750Y-21900000I243750J0D01*
G01*
X65981250Y-21900000D01*
G75*
G02*
X66225000Y-22143750I0J-243750D01*
G01*
G37*
G36*
G01*
X98223000Y-24886750D02*
X98223000Y-23974250D01*
G75*
G02*
X98466750Y-23730500I243750J0D01*
G01*
X98954250Y-23730500D01*
G75*
G02*
X99198000Y-23974250I0J-243750D01*
G01*
X99198000Y-24886750D01*
G75*
G02*
X98954250Y-25130500I-243750J0D01*
G01*
X98466750Y-25130500D01*
G75*
G02*
X98223000Y-24886750I0J243750D01*
G01*
G37*
G36*
G01*
X96348000Y-24886750D02*
X96348000Y-23974250D01*
G75*
G02*
X96591750Y-23730500I243750J0D01*
G01*
X97079250Y-23730500D01*
G75*
G02*
X97323000Y-23974250I0J-243750D01*
G01*
X97323000Y-24886750D01*
G75*
G02*
X97079250Y-25130500I-243750J0D01*
G01*
X96591750Y-25130500D01*
G75*
G02*
X96348000Y-24886750I0J243750D01*
G01*
G37*
G36*
G01*
X64430000Y-47151750D02*
X64430000Y-48064250D01*
G75*
G02*
X64186250Y-48308000I-243750J0D01*
G01*
X63698750Y-48308000D01*
G75*
G02*
X63455000Y-48064250I0J243750D01*
G01*
X63455000Y-47151750D01*
G75*
G02*
X63698750Y-46908000I243750J0D01*
G01*
X64186250Y-46908000D01*
G75*
G02*
X64430000Y-47151750I0J-243750D01*
G01*
G37*
G36*
G01*
X66305000Y-47151750D02*
X66305000Y-48064250D01*
G75*
G02*
X66061250Y-48308000I-243750J0D01*
G01*
X65573750Y-48308000D01*
G75*
G02*
X65330000Y-48064250I0J243750D01*
G01*
X65330000Y-47151750D01*
G75*
G02*
X65573750Y-46908000I243750J0D01*
G01*
X66061250Y-46908000D01*
G75*
G02*
X66305000Y-47151750I0J-243750D01*
G01*
G37*
G36*
G01*
X80495500Y-20799250D02*
X80495500Y-21711750D01*
G75*
G02*
X80251750Y-21955500I-243750J0D01*
G01*
X79764250Y-21955500D01*
G75*
G02*
X79520500Y-21711750I0J243750D01*
G01*
X79520500Y-20799250D01*
G75*
G02*
X79764250Y-20555500I243750J0D01*
G01*
X80251750Y-20555500D01*
G75*
G02*
X80495500Y-20799250I0J-243750D01*
G01*
G37*
G36*
G01*
X82370500Y-20799250D02*
X82370500Y-21711750D01*
G75*
G02*
X82126750Y-21955500I-243750J0D01*
G01*
X81639250Y-21955500D01*
G75*
G02*
X81395500Y-21711750I0J243750D01*
G01*
X81395500Y-20799250D01*
G75*
G02*
X81639250Y-20555500I243750J0D01*
G01*
X82126750Y-20555500D01*
G75*
G02*
X82370500Y-20799250I0J-243750D01*
G01*
G37*
G36*
G01*
X65330000Y-45778250D02*
X65330000Y-44865750D01*
G75*
G02*
X65573750Y-44622000I243750J0D01*
G01*
X66061250Y-44622000D01*
G75*
G02*
X66305000Y-44865750I0J-243750D01*
G01*
X66305000Y-45778250D01*
G75*
G02*
X66061250Y-46022000I-243750J0D01*
G01*
X65573750Y-46022000D01*
G75*
G02*
X65330000Y-45778250I0J243750D01*
G01*
G37*
G36*
G01*
X63455000Y-45778250D02*
X63455000Y-44865750D01*
G75*
G02*
X63698750Y-44622000I243750J0D01*
G01*
X64186250Y-44622000D01*
G75*
G02*
X64430000Y-44865750I0J-243750D01*
G01*
X64430000Y-45778250D01*
G75*
G02*
X64186250Y-46022000I-243750J0D01*
G01*
X63698750Y-46022000D01*
G75*
G02*
X63455000Y-45778250I0J243750D01*
G01*
G37*
G36*
G01*
X54185650Y-33035600D02*
X53273150Y-33035600D01*
G75*
G02*
X53029400Y-32791850I0J243750D01*
G01*
X53029400Y-32304350D01*
G75*
G02*
X53273150Y-32060600I243750J0D01*
G01*
X54185650Y-32060600D01*
G75*
G02*
X54429400Y-32304350I0J-243750D01*
G01*
X54429400Y-32791850D01*
G75*
G02*
X54185650Y-33035600I-243750J0D01*
G01*
G37*
G36*
G01*
X54185650Y-34910600D02*
X53273150Y-34910600D01*
G75*
G02*
X53029400Y-34666850I0J243750D01*
G01*
X53029400Y-34179350D01*
G75*
G02*
X53273150Y-33935600I243750J0D01*
G01*
X54185650Y-33935600D01*
G75*
G02*
X54429400Y-34179350I0J-243750D01*
G01*
X54429400Y-34666850D01*
G75*
G02*
X54185650Y-34910600I-243750J0D01*
G01*
G37*
G36*
G01*
X59087850Y-44643400D02*
X58175350Y-44643400D01*
G75*
G02*
X57931600Y-44399650I0J243750D01*
G01*
X57931600Y-43912150D01*
G75*
G02*
X58175350Y-43668400I243750J0D01*
G01*
X59087850Y-43668400D01*
G75*
G02*
X59331600Y-43912150I0J-243750D01*
G01*
X59331600Y-44399650D01*
G75*
G02*
X59087850Y-44643400I-243750J0D01*
G01*
G37*
G36*
G01*
X59087850Y-46518400D02*
X58175350Y-46518400D01*
G75*
G02*
X57931600Y-46274650I0J243750D01*
G01*
X57931600Y-45787150D01*
G75*
G02*
X58175350Y-45543400I243750J0D01*
G01*
X59087850Y-45543400D01*
G75*
G02*
X59331600Y-45787150I0J-243750D01*
G01*
X59331600Y-46274650D01*
G75*
G02*
X59087850Y-46518400I-243750J0D01*
G01*
G37*
G36*
G01*
X43111250Y-32730800D02*
X42198750Y-32730800D01*
G75*
G02*
X41955000Y-32487050I0J243750D01*
G01*
X41955000Y-31999550D01*
G75*
G02*
X42198750Y-31755800I243750J0D01*
G01*
X43111250Y-31755800D01*
G75*
G02*
X43355000Y-31999550I0J-243750D01*
G01*
X43355000Y-32487050D01*
G75*
G02*
X43111250Y-32730800I-243750J0D01*
G01*
G37*
G36*
G01*
X43111250Y-34605800D02*
X42198750Y-34605800D01*
G75*
G02*
X41955000Y-34362050I0J243750D01*
G01*
X41955000Y-33874550D01*
G75*
G02*
X42198750Y-33630800I243750J0D01*
G01*
X43111250Y-33630800D01*
G75*
G02*
X43355000Y-33874550I0J-243750D01*
G01*
X43355000Y-34362050D01*
G75*
G02*
X43111250Y-34605800I-243750J0D01*
G01*
G37*
G36*
G01*
X43111250Y-36238300D02*
X42198750Y-36238300D01*
G75*
G02*
X41955000Y-35994550I0J243750D01*
G01*
X41955000Y-35507050D01*
G75*
G02*
X42198750Y-35263300I243750J0D01*
G01*
X43111250Y-35263300D01*
G75*
G02*
X43355000Y-35507050I0J-243750D01*
G01*
X43355000Y-35994550D01*
G75*
G02*
X43111250Y-36238300I-243750J0D01*
G01*
G37*
G36*
G01*
X43111250Y-38113300D02*
X42198750Y-38113300D01*
G75*
G02*
X41955000Y-37869550I0J243750D01*
G01*
X41955000Y-37382050D01*
G75*
G02*
X42198750Y-37138300I243750J0D01*
G01*
X43111250Y-37138300D01*
G75*
G02*
X43355000Y-37382050I0J-243750D01*
G01*
X43355000Y-37869550D01*
G75*
G02*
X43111250Y-38113300I-243750J0D01*
G01*
G37*
G36*
G01*
X50631550Y-25680600D02*
X51544050Y-25680600D01*
G75*
G02*
X51787800Y-25924350I0J-243750D01*
G01*
X51787800Y-26411850D01*
G75*
G02*
X51544050Y-26655600I-243750J0D01*
G01*
X50631550Y-26655600D01*
G75*
G02*
X50387800Y-26411850I0J243750D01*
G01*
X50387800Y-25924350D01*
G75*
G02*
X50631550Y-25680600I243750J0D01*
G01*
G37*
G36*
G01*
X50631550Y-23805600D02*
X51544050Y-23805600D01*
G75*
G02*
X51787800Y-24049350I0J-243750D01*
G01*
X51787800Y-24536850D01*
G75*
G02*
X51544050Y-24780600I-243750J0D01*
G01*
X50631550Y-24780600D01*
G75*
G02*
X50387800Y-24536850I0J243750D01*
G01*
X50387800Y-24049350D01*
G75*
G02*
X50631550Y-23805600I243750J0D01*
G01*
G37*
G36*
G01*
X50631550Y-22188100D02*
X51544050Y-22188100D01*
G75*
G02*
X51787800Y-22431850I0J-243750D01*
G01*
X51787800Y-22919350D01*
G75*
G02*
X51544050Y-23163100I-243750J0D01*
G01*
X50631550Y-23163100D01*
G75*
G02*
X50387800Y-22919350I0J243750D01*
G01*
X50387800Y-22431850D01*
G75*
G02*
X50631550Y-22188100I243750J0D01*
G01*
G37*
G36*
G01*
X50631550Y-20313100D02*
X51544050Y-20313100D01*
G75*
G02*
X51787800Y-20556850I0J-243750D01*
G01*
X51787800Y-21044350D01*
G75*
G02*
X51544050Y-21288100I-243750J0D01*
G01*
X50631550Y-21288100D01*
G75*
G02*
X50387800Y-21044350I0J243750D01*
G01*
X50387800Y-20556850D01*
G75*
G02*
X50631550Y-20313100I243750J0D01*
G01*
G37*
G36*
G01*
X54668250Y-28616000D02*
X53755750Y-28616000D01*
G75*
G02*
X53512000Y-28372250I0J243750D01*
G01*
X53512000Y-27884750D01*
G75*
G02*
X53755750Y-27641000I243750J0D01*
G01*
X54668250Y-27641000D01*
G75*
G02*
X54912000Y-27884750I0J-243750D01*
G01*
X54912000Y-28372250D01*
G75*
G02*
X54668250Y-28616000I-243750J0D01*
G01*
G37*
G36*
G01*
X54668250Y-30491000D02*
X53755750Y-30491000D01*
G75*
G02*
X53512000Y-30247250I0J243750D01*
G01*
X53512000Y-29759750D01*
G75*
G02*
X53755750Y-29516000I243750J0D01*
G01*
X54668250Y-29516000D01*
G75*
G02*
X54912000Y-29759750I0J-243750D01*
G01*
X54912000Y-30247250D01*
G75*
G02*
X54668250Y-30491000I-243750J0D01*
G01*
G37*
G36*
G01*
X103543750Y-48250000D02*
X104456250Y-48250000D01*
G75*
G02*
X104700000Y-48493750I0J-243750D01*
G01*
X104700000Y-48981250D01*
G75*
G02*
X104456250Y-49225000I-243750J0D01*
G01*
X103543750Y-49225000D01*
G75*
G02*
X103300000Y-48981250I0J243750D01*
G01*
X103300000Y-48493750D01*
G75*
G02*
X103543750Y-48250000I243750J0D01*
G01*
G37*
G36*
G01*
X103543750Y-46375000D02*
X104456250Y-46375000D01*
G75*
G02*
X104700000Y-46618750I0J-243750D01*
G01*
X104700000Y-47106250D01*
G75*
G02*
X104456250Y-47350000I-243750J0D01*
G01*
X103543750Y-47350000D01*
G75*
G02*
X103300000Y-47106250I0J243750D01*
G01*
X103300000Y-46618750D01*
G75*
G02*
X103543750Y-46375000I243750J0D01*
G01*
G37*
D18*
X46211000Y-26383000D03*
X45261000Y-24383000D03*
X47161000Y-24383000D03*
D25*
X36425200Y-23173200D03*
X41925200Y-23173200D03*
D26*
X37575000Y-27967000D03*
X37575000Y-33467000D03*
D27*
X41193500Y-39657800D03*
X37893500Y-39657800D03*
X35897600Y-39607000D03*
X32597600Y-39607000D03*
X43913300Y-21039600D03*
X47213300Y-21039600D03*
G36*
G01*
X71580000Y-49388250D02*
X71580000Y-48875750D01*
G75*
G02*
X71798750Y-48657000I218750J0D01*
G01*
X72236250Y-48657000D01*
G75*
G02*
X72455000Y-48875750I0J-218750D01*
G01*
X72455000Y-49388250D01*
G75*
G02*
X72236250Y-49607000I-218750J0D01*
G01*
X71798750Y-49607000D01*
G75*
G02*
X71580000Y-49388250I0J218750D01*
G01*
G37*
G36*
G01*
X70005000Y-49388250D02*
X70005000Y-48875750D01*
G75*
G02*
X70223750Y-48657000I218750J0D01*
G01*
X70661250Y-48657000D01*
G75*
G02*
X70880000Y-48875750I0J-218750D01*
G01*
X70880000Y-49388250D01*
G75*
G02*
X70661250Y-49607000I-218750J0D01*
G01*
X70223750Y-49607000D01*
G75*
G02*
X70005000Y-49388250I0J218750D01*
G01*
G37*
G36*
G01*
X74755000Y-49388250D02*
X74755000Y-48875750D01*
G75*
G02*
X74973750Y-48657000I218750J0D01*
G01*
X75411250Y-48657000D01*
G75*
G02*
X75630000Y-48875750I0J-218750D01*
G01*
X75630000Y-49388250D01*
G75*
G02*
X75411250Y-49607000I-218750J0D01*
G01*
X74973750Y-49607000D01*
G75*
G02*
X74755000Y-49388250I0J218750D01*
G01*
G37*
G36*
G01*
X73180000Y-49388250D02*
X73180000Y-48875750D01*
G75*
G02*
X73398750Y-48657000I218750J0D01*
G01*
X73836250Y-48657000D01*
G75*
G02*
X74055000Y-48875750I0J-218750D01*
G01*
X74055000Y-49388250D01*
G75*
G02*
X73836250Y-49607000I-218750J0D01*
G01*
X73398750Y-49607000D01*
G75*
G02*
X73180000Y-49388250I0J218750D01*
G01*
G37*
G36*
G01*
X61326250Y-48020000D02*
X60813750Y-48020000D01*
G75*
G02*
X60595000Y-47801250I0J218750D01*
G01*
X60595000Y-47363750D01*
G75*
G02*
X60813750Y-47145000I218750J0D01*
G01*
X61326250Y-47145000D01*
G75*
G02*
X61545000Y-47363750I0J-218750D01*
G01*
X61545000Y-47801250D01*
G75*
G02*
X61326250Y-48020000I-218750J0D01*
G01*
G37*
G36*
G01*
X61326250Y-49595000D02*
X60813750Y-49595000D01*
G75*
G02*
X60595000Y-49376250I0J218750D01*
G01*
X60595000Y-48938750D01*
G75*
G02*
X60813750Y-48720000I218750J0D01*
G01*
X61326250Y-48720000D01*
G75*
G02*
X61545000Y-48938750I0J-218750D01*
G01*
X61545000Y-49376250D01*
G75*
G02*
X61326250Y-49595000I-218750J0D01*
G01*
G37*
G36*
G01*
X67544750Y-47450000D02*
X68057250Y-47450000D01*
G75*
G02*
X68276000Y-47668750I0J-218750D01*
G01*
X68276000Y-48106250D01*
G75*
G02*
X68057250Y-48325000I-218750J0D01*
G01*
X67544750Y-48325000D01*
G75*
G02*
X67326000Y-48106250I0J218750D01*
G01*
X67326000Y-47668750D01*
G75*
G02*
X67544750Y-47450000I218750J0D01*
G01*
G37*
G36*
G01*
X67544750Y-45875000D02*
X68057250Y-45875000D01*
G75*
G02*
X68276000Y-46093750I0J-218750D01*
G01*
X68276000Y-46531250D01*
G75*
G02*
X68057250Y-46750000I-218750J0D01*
G01*
X67544750Y-46750000D01*
G75*
G02*
X67326000Y-46531250I0J218750D01*
G01*
X67326000Y-46093750D01*
G75*
G02*
X67544750Y-45875000I218750J0D01*
G01*
G37*
G36*
G01*
X27192000Y-35286750D02*
X27192000Y-35799250D01*
G75*
G02*
X26973250Y-36018000I-218750J0D01*
G01*
X26535750Y-36018000D01*
G75*
G02*
X26317000Y-35799250I0J218750D01*
G01*
X26317000Y-35286750D01*
G75*
G02*
X26535750Y-35068000I218750J0D01*
G01*
X26973250Y-35068000D01*
G75*
G02*
X27192000Y-35286750I0J-218750D01*
G01*
G37*
G36*
G01*
X28767000Y-35286750D02*
X28767000Y-35799250D01*
G75*
G02*
X28548250Y-36018000I-218750J0D01*
G01*
X28110750Y-36018000D01*
G75*
G02*
X27892000Y-35799250I0J218750D01*
G01*
X27892000Y-35286750D01*
G75*
G02*
X28110750Y-35068000I218750J0D01*
G01*
X28548250Y-35068000D01*
G75*
G02*
X28767000Y-35286750I0J-218750D01*
G01*
G37*
G36*
G01*
X27192000Y-33762750D02*
X27192000Y-34275250D01*
G75*
G02*
X26973250Y-34494000I-218750J0D01*
G01*
X26535750Y-34494000D01*
G75*
G02*
X26317000Y-34275250I0J218750D01*
G01*
X26317000Y-33762750D01*
G75*
G02*
X26535750Y-33544000I218750J0D01*
G01*
X26973250Y-33544000D01*
G75*
G02*
X27192000Y-33762750I0J-218750D01*
G01*
G37*
G36*
G01*
X28767000Y-33762750D02*
X28767000Y-34275250D01*
G75*
G02*
X28548250Y-34494000I-218750J0D01*
G01*
X28110750Y-34494000D01*
G75*
G02*
X27892000Y-34275250I0J218750D01*
G01*
X27892000Y-33762750D01*
G75*
G02*
X28110750Y-33544000I218750J0D01*
G01*
X28548250Y-33544000D01*
G75*
G02*
X28767000Y-33762750I0J-218750D01*
G01*
G37*
G36*
G01*
X44494250Y-35753300D02*
X45006750Y-35753300D01*
G75*
G02*
X45225500Y-35972050I0J-218750D01*
G01*
X45225500Y-36409550D01*
G75*
G02*
X45006750Y-36628300I-218750J0D01*
G01*
X44494250Y-36628300D01*
G75*
G02*
X44275500Y-36409550I0J218750D01*
G01*
X44275500Y-35972050D01*
G75*
G02*
X44494250Y-35753300I218750J0D01*
G01*
G37*
G36*
G01*
X44494250Y-34178300D02*
X45006750Y-34178300D01*
G75*
G02*
X45225500Y-34397050I0J-218750D01*
G01*
X45225500Y-34834550D01*
G75*
G02*
X45006750Y-35053300I-218750J0D01*
G01*
X44494250Y-35053300D01*
G75*
G02*
X44275500Y-34834550I0J218750D01*
G01*
X44275500Y-34397050D01*
G75*
G02*
X44494250Y-34178300I218750J0D01*
G01*
G37*
G36*
G01*
X51826650Y-33135600D02*
X51314150Y-33135600D01*
G75*
G02*
X51095400Y-32916850I0J218750D01*
G01*
X51095400Y-32479350D01*
G75*
G02*
X51314150Y-32260600I218750J0D01*
G01*
X51826650Y-32260600D01*
G75*
G02*
X52045400Y-32479350I0J-218750D01*
G01*
X52045400Y-32916850D01*
G75*
G02*
X51826650Y-33135600I-218750J0D01*
G01*
G37*
G36*
G01*
X51826650Y-34710600D02*
X51314150Y-34710600D01*
G75*
G02*
X51095400Y-34491850I0J218750D01*
G01*
X51095400Y-34054350D01*
G75*
G02*
X51314150Y-33835600I218750J0D01*
G01*
X51826650Y-33835600D01*
G75*
G02*
X52045400Y-34054350I0J-218750D01*
G01*
X52045400Y-34491850D01*
G75*
G02*
X51826650Y-34710600I-218750J0D01*
G01*
G37*
G36*
G01*
X60534350Y-45506900D02*
X61046850Y-45506900D01*
G75*
G02*
X61265600Y-45725650I0J-218750D01*
G01*
X61265600Y-46163150D01*
G75*
G02*
X61046850Y-46381900I-218750J0D01*
G01*
X60534350Y-46381900D01*
G75*
G02*
X60315600Y-46163150I0J218750D01*
G01*
X60315600Y-45725650D01*
G75*
G02*
X60534350Y-45506900I218750J0D01*
G01*
G37*
G36*
G01*
X60534350Y-43931900D02*
X61046850Y-43931900D01*
G75*
G02*
X61265600Y-44150650I0J-218750D01*
G01*
X61265600Y-44588150D01*
G75*
G02*
X61046850Y-44806900I-218750J0D01*
G01*
X60534350Y-44806900D01*
G75*
G02*
X60315600Y-44588150I0J218750D01*
G01*
X60315600Y-44150650D01*
G75*
G02*
X60534350Y-43931900I218750J0D01*
G01*
G37*
G36*
G01*
X57799000Y-27539750D02*
X57799000Y-28052250D01*
G75*
G02*
X57580250Y-28271000I-218750J0D01*
G01*
X57142750Y-28271000D01*
G75*
G02*
X56924000Y-28052250I0J218750D01*
G01*
X56924000Y-27539750D01*
G75*
G02*
X57142750Y-27321000I218750J0D01*
G01*
X57580250Y-27321000D01*
G75*
G02*
X57799000Y-27539750I0J-218750D01*
G01*
G37*
G36*
G01*
X59374000Y-27539750D02*
X59374000Y-28052250D01*
G75*
G02*
X59155250Y-28271000I-218750J0D01*
G01*
X58717750Y-28271000D01*
G75*
G02*
X58499000Y-28052250I0J218750D01*
G01*
X58499000Y-27539750D01*
G75*
G02*
X58717750Y-27321000I218750J0D01*
G01*
X59155250Y-27321000D01*
G75*
G02*
X59374000Y-27539750I0J-218750D01*
G01*
G37*
G36*
G01*
X40493750Y-37290000D02*
X41006250Y-37290000D01*
G75*
G02*
X41225000Y-37508750I0J-218750D01*
G01*
X41225000Y-37946250D01*
G75*
G02*
X41006250Y-38165000I-218750J0D01*
G01*
X40493750Y-38165000D01*
G75*
G02*
X40275000Y-37946250I0J218750D01*
G01*
X40275000Y-37508750D01*
G75*
G02*
X40493750Y-37290000I218750J0D01*
G01*
G37*
G36*
G01*
X40493750Y-35715000D02*
X41006250Y-35715000D01*
G75*
G02*
X41225000Y-35933750I0J-218750D01*
G01*
X41225000Y-36371250D01*
G75*
G02*
X41006250Y-36590000I-218750J0D01*
G01*
X40493750Y-36590000D01*
G75*
G02*
X40275000Y-36371250I0J218750D01*
G01*
X40275000Y-35933750D01*
G75*
G02*
X40493750Y-35715000I218750J0D01*
G01*
G37*
G36*
G01*
X58057850Y-48681900D02*
X58570350Y-48681900D01*
G75*
G02*
X58789100Y-48900650I0J-218750D01*
G01*
X58789100Y-49338150D01*
G75*
G02*
X58570350Y-49556900I-218750J0D01*
G01*
X58057850Y-49556900D01*
G75*
G02*
X57839100Y-49338150I0J218750D01*
G01*
X57839100Y-48900650D01*
G75*
G02*
X58057850Y-48681900I218750J0D01*
G01*
G37*
G36*
G01*
X58057850Y-47106900D02*
X58570350Y-47106900D01*
G75*
G02*
X58789100Y-47325650I0J-218750D01*
G01*
X58789100Y-47763150D01*
G75*
G02*
X58570350Y-47981900I-218750J0D01*
G01*
X58057850Y-47981900D01*
G75*
G02*
X57839100Y-47763150I0J218750D01*
G01*
X57839100Y-47325650D01*
G75*
G02*
X58057850Y-47106900I218750J0D01*
G01*
G37*
G36*
G01*
X49248550Y-21388100D02*
X48736050Y-21388100D01*
G75*
G02*
X48517300Y-21169350I0J218750D01*
G01*
X48517300Y-20731850D01*
G75*
G02*
X48736050Y-20513100I218750J0D01*
G01*
X49248550Y-20513100D01*
G75*
G02*
X49467300Y-20731850I0J-218750D01*
G01*
X49467300Y-21169350D01*
G75*
G02*
X49248550Y-21388100I-218750J0D01*
G01*
G37*
G36*
G01*
X49248550Y-22963100D02*
X48736050Y-22963100D01*
G75*
G02*
X48517300Y-22744350I0J218750D01*
G01*
X48517300Y-22306850D01*
G75*
G02*
X48736050Y-22088100I218750J0D01*
G01*
X49248550Y-22088100D01*
G75*
G02*
X49467300Y-22306850I0J-218750D01*
G01*
X49467300Y-22744350D01*
G75*
G02*
X49248550Y-22963100I-218750J0D01*
G01*
G37*
G36*
G01*
X36815250Y-36082000D02*
X36302750Y-36082000D01*
G75*
G02*
X36084000Y-35863250I0J218750D01*
G01*
X36084000Y-35425750D01*
G75*
G02*
X36302750Y-35207000I218750J0D01*
G01*
X36815250Y-35207000D01*
G75*
G02*
X37034000Y-35425750I0J-218750D01*
G01*
X37034000Y-35863250D01*
G75*
G02*
X36815250Y-36082000I-218750J0D01*
G01*
G37*
G36*
G01*
X36815250Y-37657000D02*
X36302750Y-37657000D01*
G75*
G02*
X36084000Y-37438250I0J218750D01*
G01*
X36084000Y-37000750D01*
G75*
G02*
X36302750Y-36782000I218750J0D01*
G01*
X36815250Y-36782000D01*
G75*
G02*
X37034000Y-37000750I0J-218750D01*
G01*
X37034000Y-37438250D01*
G75*
G02*
X36815250Y-37657000I-218750J0D01*
G01*
G37*
G36*
G01*
X40654000Y-49129750D02*
X40654000Y-49642250D01*
G75*
G02*
X40435250Y-49861000I-218750J0D01*
G01*
X39997750Y-49861000D01*
G75*
G02*
X39779000Y-49642250I0J218750D01*
G01*
X39779000Y-49129750D01*
G75*
G02*
X39997750Y-48911000I218750J0D01*
G01*
X40435250Y-48911000D01*
G75*
G02*
X40654000Y-49129750I0J-218750D01*
G01*
G37*
G36*
G01*
X42229000Y-49129750D02*
X42229000Y-49642250D01*
G75*
G02*
X42010250Y-49861000I-218750J0D01*
G01*
X41572750Y-49861000D01*
G75*
G02*
X41354000Y-49642250I0J218750D01*
G01*
X41354000Y-49129750D01*
G75*
G02*
X41572750Y-48911000I218750J0D01*
G01*
X42010250Y-48911000D01*
G75*
G02*
X42229000Y-49129750I0J-218750D01*
G01*
G37*
G36*
G01*
X37352000Y-49129750D02*
X37352000Y-49642250D01*
G75*
G02*
X37133250Y-49861000I-218750J0D01*
G01*
X36695750Y-49861000D01*
G75*
G02*
X36477000Y-49642250I0J218750D01*
G01*
X36477000Y-49129750D01*
G75*
G02*
X36695750Y-48911000I218750J0D01*
G01*
X37133250Y-48911000D01*
G75*
G02*
X37352000Y-49129750I0J-218750D01*
G01*
G37*
G36*
G01*
X38927000Y-49129750D02*
X38927000Y-49642250D01*
G75*
G02*
X38708250Y-49861000I-218750J0D01*
G01*
X38270750Y-49861000D01*
G75*
G02*
X38052000Y-49642250I0J218750D01*
G01*
X38052000Y-49129750D01*
G75*
G02*
X38270750Y-48911000I218750J0D01*
G01*
X38708250Y-48911000D01*
G75*
G02*
X38927000Y-49129750I0J-218750D01*
G01*
G37*
G36*
G01*
X32365750Y-27003000D02*
X32878250Y-27003000D01*
G75*
G02*
X33097000Y-27221750I0J-218750D01*
G01*
X33097000Y-27659250D01*
G75*
G02*
X32878250Y-27878000I-218750J0D01*
G01*
X32365750Y-27878000D01*
G75*
G02*
X32147000Y-27659250I0J218750D01*
G01*
X32147000Y-27221750D01*
G75*
G02*
X32365750Y-27003000I218750J0D01*
G01*
G37*
G36*
G01*
X32365750Y-25428000D02*
X32878250Y-25428000D01*
G75*
G02*
X33097000Y-25646750I0J-218750D01*
G01*
X33097000Y-26084250D01*
G75*
G02*
X32878250Y-26303000I-218750J0D01*
G01*
X32365750Y-26303000D01*
G75*
G02*
X32147000Y-26084250I0J218750D01*
G01*
X32147000Y-25646750D01*
G75*
G02*
X32365750Y-25428000I218750J0D01*
G01*
G37*
D28*
X71214500Y-21222000D03*
X77214500Y-21222000D03*
X77214500Y-24972000D03*
X71214500Y-24972000D03*
M02*
