G04 #@! TF.GenerationSoftware,KiCad,Pcbnew,5.1.6-c6e7f7d~86~ubuntu18.04.1*
G04 #@! TF.CreationDate,2020-05-28T16:54:39+02:00*
G04 #@! TF.ProjectId,epaper-breakout,65706170-6572-42d6-9272-65616b6f7574,rev?*
G04 #@! TF.SameCoordinates,Original*
G04 #@! TF.FileFunction,Soldermask,Bot*
G04 #@! TF.FilePolarity,Negative*
%FSLAX46Y46*%
G04 Gerber Fmt 4.6, Leading zero omitted, Abs format (unit mm)*
G04 Created by KiCad (PCBNEW 5.1.6-c6e7f7d~86~ubuntu18.04.1) date 2020-05-28 16:54:39*
%MOMM*%
%LPD*%
G01*
G04 APERTURE LIST*
%ADD10C,0.100000*%
G04 APERTURE END LIST*
D10*
G36*
X30602000Y-49652000D02*
G01*
X28800000Y-49652000D01*
X28800000Y-47850000D01*
X30602000Y-47850000D01*
X30602000Y-49652000D01*
G37*
G36*
X27274512Y-47854927D02*
G01*
X27423812Y-47884624D01*
X27587784Y-47952544D01*
X27735354Y-48051147D01*
X27860853Y-48176646D01*
X27959456Y-48324216D01*
X28027376Y-48488188D01*
X28062000Y-48662259D01*
X28062000Y-48839741D01*
X28027376Y-49013812D01*
X27959456Y-49177784D01*
X27860853Y-49325354D01*
X27735354Y-49450853D01*
X27587784Y-49549456D01*
X27423812Y-49617376D01*
X27274512Y-49647073D01*
X27249742Y-49652000D01*
X27072258Y-49652000D01*
X27047488Y-49647073D01*
X26898188Y-49617376D01*
X26734216Y-49549456D01*
X26586646Y-49450853D01*
X26461147Y-49325354D01*
X26362544Y-49177784D01*
X26294624Y-49013812D01*
X26260000Y-48839741D01*
X26260000Y-48662259D01*
X26294624Y-48488188D01*
X26362544Y-48324216D01*
X26461147Y-48176646D01*
X26586646Y-48051147D01*
X26734216Y-47952544D01*
X26898188Y-47884624D01*
X27047488Y-47854927D01*
X27072258Y-47850000D01*
X27249742Y-47850000D01*
X27274512Y-47854927D01*
G37*
G36*
X111824549Y-46071116D02*
G01*
X111935734Y-46093232D01*
X112145203Y-46179997D01*
X112333720Y-46305960D01*
X112494040Y-46466280D01*
X112620003Y-46654797D01*
X112706768Y-46864266D01*
X112751000Y-47086636D01*
X112751000Y-47313364D01*
X112706768Y-47535734D01*
X112620003Y-47745203D01*
X112494040Y-47933720D01*
X112333720Y-48094040D01*
X112145203Y-48220003D01*
X111935734Y-48306768D01*
X111824549Y-48328884D01*
X111713365Y-48351000D01*
X111486635Y-48351000D01*
X111375451Y-48328884D01*
X111264266Y-48306768D01*
X111054797Y-48220003D01*
X110866280Y-48094040D01*
X110705960Y-47933720D01*
X110579997Y-47745203D01*
X110493232Y-47535734D01*
X110449000Y-47313364D01*
X110449000Y-47086636D01*
X110493232Y-46864266D01*
X110579997Y-46654797D01*
X110705960Y-46466280D01*
X110866280Y-46305960D01*
X111054797Y-46179997D01*
X111264266Y-46093232D01*
X111375451Y-46071116D01*
X111486635Y-46049000D01*
X111713365Y-46049000D01*
X111824549Y-46071116D01*
G37*
G36*
X27274512Y-45314927D02*
G01*
X27423812Y-45344624D01*
X27587784Y-45412544D01*
X27735354Y-45511147D01*
X27860853Y-45636646D01*
X27959456Y-45784216D01*
X28027376Y-45948188D01*
X28062000Y-46122259D01*
X28062000Y-46299741D01*
X28027376Y-46473812D01*
X27959456Y-46637784D01*
X27860853Y-46785354D01*
X27735354Y-46910853D01*
X27587784Y-47009456D01*
X27423812Y-47077376D01*
X27274512Y-47107073D01*
X27249742Y-47112000D01*
X27072258Y-47112000D01*
X27047488Y-47107073D01*
X26898188Y-47077376D01*
X26734216Y-47009456D01*
X26586646Y-46910853D01*
X26461147Y-46785354D01*
X26362544Y-46637784D01*
X26294624Y-46473812D01*
X26260000Y-46299741D01*
X26260000Y-46122259D01*
X26294624Y-45948188D01*
X26362544Y-45784216D01*
X26461147Y-45636646D01*
X26586646Y-45511147D01*
X26734216Y-45412544D01*
X26898188Y-45344624D01*
X27047488Y-45314927D01*
X27072258Y-45310000D01*
X27249742Y-45310000D01*
X27274512Y-45314927D01*
G37*
G36*
X29814512Y-45314927D02*
G01*
X29963812Y-45344624D01*
X30127784Y-45412544D01*
X30275354Y-45511147D01*
X30400853Y-45636646D01*
X30499456Y-45784216D01*
X30567376Y-45948188D01*
X30602000Y-46122259D01*
X30602000Y-46299741D01*
X30567376Y-46473812D01*
X30499456Y-46637784D01*
X30400853Y-46785354D01*
X30275354Y-46910853D01*
X30127784Y-47009456D01*
X29963812Y-47077376D01*
X29814512Y-47107073D01*
X29789742Y-47112000D01*
X29612258Y-47112000D01*
X29587488Y-47107073D01*
X29438188Y-47077376D01*
X29274216Y-47009456D01*
X29126646Y-46910853D01*
X29001147Y-46785354D01*
X28902544Y-46637784D01*
X28834624Y-46473812D01*
X28800000Y-46299741D01*
X28800000Y-46122259D01*
X28834624Y-45948188D01*
X28902544Y-45784216D01*
X29001147Y-45636646D01*
X29126646Y-45511147D01*
X29274216Y-45412544D01*
X29438188Y-45344624D01*
X29587488Y-45314927D01*
X29612258Y-45310000D01*
X29789742Y-45310000D01*
X29814512Y-45314927D01*
G37*
G36*
X29814512Y-42774927D02*
G01*
X29963812Y-42804624D01*
X30127784Y-42872544D01*
X30275354Y-42971147D01*
X30400853Y-43096646D01*
X30499456Y-43244216D01*
X30567376Y-43408188D01*
X30602000Y-43582259D01*
X30602000Y-43759741D01*
X30567376Y-43933812D01*
X30499456Y-44097784D01*
X30400853Y-44245354D01*
X30275354Y-44370853D01*
X30127784Y-44469456D01*
X29963812Y-44537376D01*
X29814512Y-44567073D01*
X29789742Y-44572000D01*
X29612258Y-44572000D01*
X29587488Y-44567073D01*
X29438188Y-44537376D01*
X29274216Y-44469456D01*
X29126646Y-44370853D01*
X29001147Y-44245354D01*
X28902544Y-44097784D01*
X28834624Y-43933812D01*
X28800000Y-43759741D01*
X28800000Y-43582259D01*
X28834624Y-43408188D01*
X28902544Y-43244216D01*
X29001147Y-43096646D01*
X29126646Y-42971147D01*
X29274216Y-42872544D01*
X29438188Y-42804624D01*
X29587488Y-42774927D01*
X29612258Y-42770000D01*
X29789742Y-42770000D01*
X29814512Y-42774927D01*
G37*
G36*
X27274512Y-42774927D02*
G01*
X27423812Y-42804624D01*
X27587784Y-42872544D01*
X27735354Y-42971147D01*
X27860853Y-43096646D01*
X27959456Y-43244216D01*
X28027376Y-43408188D01*
X28062000Y-43582259D01*
X28062000Y-43759741D01*
X28027376Y-43933812D01*
X27959456Y-44097784D01*
X27860853Y-44245354D01*
X27735354Y-44370853D01*
X27587784Y-44469456D01*
X27423812Y-44537376D01*
X27274512Y-44567073D01*
X27249742Y-44572000D01*
X27072258Y-44572000D01*
X27047488Y-44567073D01*
X26898188Y-44537376D01*
X26734216Y-44469456D01*
X26586646Y-44370853D01*
X26461147Y-44245354D01*
X26362544Y-44097784D01*
X26294624Y-43933812D01*
X26260000Y-43759741D01*
X26260000Y-43582259D01*
X26294624Y-43408188D01*
X26362544Y-43244216D01*
X26461147Y-43096646D01*
X26586646Y-42971147D01*
X26734216Y-42872544D01*
X26898188Y-42804624D01*
X27047488Y-42774927D01*
X27072258Y-42770000D01*
X27249742Y-42770000D01*
X27274512Y-42774927D01*
G37*
G36*
X120328200Y-30939401D02*
G01*
X120330602Y-30963787D01*
X120337715Y-30987236D01*
X120349266Y-31008847D01*
X120364811Y-31027789D01*
X120383753Y-31043334D01*
X120405364Y-31054885D01*
X120428813Y-31061998D01*
X120453199Y-31064400D01*
X120528200Y-31064400D01*
X120528200Y-42866400D01*
X120453199Y-42866400D01*
X120428813Y-42868802D01*
X120405364Y-42875915D01*
X120383753Y-42887466D01*
X120364811Y-42903011D01*
X120349266Y-42921953D01*
X120337715Y-42943564D01*
X120330602Y-42967013D01*
X120328200Y-42991399D01*
X120328200Y-43616400D01*
X119276200Y-43616400D01*
X119276200Y-43114400D01*
X119501201Y-43114400D01*
X119525587Y-43111998D01*
X119549036Y-43104885D01*
X119570647Y-43093334D01*
X119589589Y-43077789D01*
X119605134Y-43058847D01*
X119616685Y-43037236D01*
X119623798Y-43013787D01*
X119626200Y-42989401D01*
X119626200Y-30941399D01*
X119623798Y-30917013D01*
X119616685Y-30893564D01*
X119605134Y-30871953D01*
X119589589Y-30853011D01*
X119570647Y-30837466D01*
X119549036Y-30825915D01*
X119525587Y-30818802D01*
X119501201Y-30816400D01*
X119276200Y-30816400D01*
X119276200Y-30314400D01*
X120328200Y-30314400D01*
X120328200Y-30939401D01*
G37*
G36*
X117578200Y-42566400D02*
G01*
X116826200Y-42566400D01*
X116826200Y-31364400D01*
X117578200Y-31364400D01*
X117578200Y-42566400D01*
G37*
G36*
X29814512Y-40234927D02*
G01*
X29963812Y-40264624D01*
X30127784Y-40332544D01*
X30275354Y-40431147D01*
X30400853Y-40556646D01*
X30499456Y-40704216D01*
X30567376Y-40868188D01*
X30602000Y-41042259D01*
X30602000Y-41219741D01*
X30567376Y-41393812D01*
X30499456Y-41557784D01*
X30400853Y-41705354D01*
X30275354Y-41830853D01*
X30127784Y-41929456D01*
X29963812Y-41997376D01*
X29814512Y-42027073D01*
X29789742Y-42032000D01*
X29612258Y-42032000D01*
X29587488Y-42027073D01*
X29438188Y-41997376D01*
X29274216Y-41929456D01*
X29126646Y-41830853D01*
X29001147Y-41705354D01*
X28902544Y-41557784D01*
X28834624Y-41393812D01*
X28800000Y-41219741D01*
X28800000Y-41042259D01*
X28834624Y-40868188D01*
X28902544Y-40704216D01*
X29001147Y-40556646D01*
X29126646Y-40431147D01*
X29274216Y-40332544D01*
X29438188Y-40264624D01*
X29587488Y-40234927D01*
X29612258Y-40230000D01*
X29789742Y-40230000D01*
X29814512Y-40234927D01*
G37*
G36*
X27274512Y-40234927D02*
G01*
X27423812Y-40264624D01*
X27587784Y-40332544D01*
X27735354Y-40431147D01*
X27860853Y-40556646D01*
X27959456Y-40704216D01*
X28027376Y-40868188D01*
X28062000Y-41042259D01*
X28062000Y-41219741D01*
X28027376Y-41393812D01*
X27959456Y-41557784D01*
X27860853Y-41705354D01*
X27735354Y-41830853D01*
X27587784Y-41929456D01*
X27423812Y-41997376D01*
X27274512Y-42027073D01*
X27249742Y-42032000D01*
X27072258Y-42032000D01*
X27047488Y-42027073D01*
X26898188Y-41997376D01*
X26734216Y-41929456D01*
X26586646Y-41830853D01*
X26461147Y-41705354D01*
X26362544Y-41557784D01*
X26294624Y-41393812D01*
X26260000Y-41219741D01*
X26260000Y-41042259D01*
X26294624Y-40868188D01*
X26362544Y-40704216D01*
X26461147Y-40556646D01*
X26586646Y-40431147D01*
X26734216Y-40332544D01*
X26898188Y-40264624D01*
X27047488Y-40234927D01*
X27072258Y-40230000D01*
X27249742Y-40230000D01*
X27274512Y-40234927D01*
G37*
G36*
X82210752Y-35693731D02*
G01*
X82292827Y-35727728D01*
X82292829Y-35727729D01*
X82330013Y-35752575D01*
X82366695Y-35777085D01*
X82429516Y-35839906D01*
X82475267Y-35908377D01*
X82490813Y-35927319D01*
X82509755Y-35942864D01*
X82531365Y-35954415D01*
X82554814Y-35961528D01*
X82579200Y-35963930D01*
X82603586Y-35961528D01*
X82627035Y-35954415D01*
X82648646Y-35942864D01*
X82667588Y-35927318D01*
X82683133Y-35908377D01*
X82728884Y-35839906D01*
X82791705Y-35777085D01*
X82828387Y-35752575D01*
X82865571Y-35727729D01*
X82865573Y-35727728D01*
X82947648Y-35693731D01*
X83034779Y-35676400D01*
X83123621Y-35676400D01*
X83210752Y-35693731D01*
X83292827Y-35727728D01*
X83292829Y-35727729D01*
X83330013Y-35752575D01*
X83366695Y-35777085D01*
X83429516Y-35839906D01*
X83475267Y-35908377D01*
X83490813Y-35927319D01*
X83509755Y-35942864D01*
X83531365Y-35954415D01*
X83554814Y-35961528D01*
X83579200Y-35963930D01*
X83603586Y-35961528D01*
X83627035Y-35954415D01*
X83648646Y-35942864D01*
X83667588Y-35927318D01*
X83683133Y-35908377D01*
X83728884Y-35839906D01*
X83791705Y-35777085D01*
X83828387Y-35752575D01*
X83865571Y-35727729D01*
X83865573Y-35727728D01*
X83947648Y-35693731D01*
X84034779Y-35676400D01*
X84123621Y-35676400D01*
X84210752Y-35693731D01*
X84292827Y-35727728D01*
X84292829Y-35727729D01*
X84330013Y-35752575D01*
X84366695Y-35777085D01*
X84429516Y-35839906D01*
X84475267Y-35908377D01*
X84490813Y-35927319D01*
X84509755Y-35942864D01*
X84531365Y-35954415D01*
X84554814Y-35961528D01*
X84579200Y-35963930D01*
X84603586Y-35961528D01*
X84627035Y-35954415D01*
X84648646Y-35942864D01*
X84667588Y-35927318D01*
X84683133Y-35908377D01*
X84728884Y-35839906D01*
X84791705Y-35777085D01*
X84828387Y-35752575D01*
X84865571Y-35727729D01*
X84865573Y-35727728D01*
X84947648Y-35693731D01*
X85034779Y-35676400D01*
X85123621Y-35676400D01*
X85210752Y-35693731D01*
X85292827Y-35727728D01*
X85292829Y-35727729D01*
X85330013Y-35752575D01*
X85366695Y-35777085D01*
X85429516Y-35839906D01*
X85475267Y-35908377D01*
X85490813Y-35927319D01*
X85509755Y-35942864D01*
X85531365Y-35954415D01*
X85554814Y-35961528D01*
X85579200Y-35963930D01*
X85603586Y-35961528D01*
X85627035Y-35954415D01*
X85648646Y-35942864D01*
X85667588Y-35927318D01*
X85683133Y-35908377D01*
X85728884Y-35839906D01*
X85791705Y-35777085D01*
X85828387Y-35752575D01*
X85865571Y-35727729D01*
X85865573Y-35727728D01*
X85947648Y-35693731D01*
X86034779Y-35676400D01*
X86123621Y-35676400D01*
X86210752Y-35693731D01*
X86292827Y-35727728D01*
X86292829Y-35727729D01*
X86330013Y-35752575D01*
X86366695Y-35777085D01*
X86429515Y-35839905D01*
X86478872Y-35913773D01*
X86512869Y-35995848D01*
X86530200Y-36082979D01*
X86530200Y-36171821D01*
X86512869Y-36258952D01*
X86478872Y-36341027D01*
X86429515Y-36414895D01*
X86366694Y-36477716D01*
X86298223Y-36523467D01*
X86279281Y-36539013D01*
X86263736Y-36557955D01*
X86252185Y-36579565D01*
X86245072Y-36603014D01*
X86242670Y-36627400D01*
X86245072Y-36651786D01*
X86252185Y-36675235D01*
X86263736Y-36696846D01*
X86279282Y-36715788D01*
X86298223Y-36731333D01*
X86366694Y-36777084D01*
X86429515Y-36839905D01*
X86478872Y-36913773D01*
X86512869Y-36995848D01*
X86530200Y-37082979D01*
X86530200Y-37171821D01*
X86512869Y-37258952D01*
X86478872Y-37341027D01*
X86429515Y-37414895D01*
X86366694Y-37477716D01*
X86298223Y-37523467D01*
X86279281Y-37539013D01*
X86263736Y-37557955D01*
X86252185Y-37579565D01*
X86245072Y-37603014D01*
X86242670Y-37627400D01*
X86245072Y-37651786D01*
X86252185Y-37675235D01*
X86263736Y-37696846D01*
X86279282Y-37715788D01*
X86298223Y-37731333D01*
X86366694Y-37777084D01*
X86429515Y-37839905D01*
X86454025Y-37876587D01*
X86463755Y-37891148D01*
X86478872Y-37913773D01*
X86512869Y-37995848D01*
X86530200Y-38082979D01*
X86530200Y-38171821D01*
X86512869Y-38258952D01*
X86478872Y-38341027D01*
X86429515Y-38414895D01*
X86366694Y-38477716D01*
X86298223Y-38523467D01*
X86279281Y-38539013D01*
X86263736Y-38557955D01*
X86252185Y-38579565D01*
X86245072Y-38603014D01*
X86242670Y-38627400D01*
X86245072Y-38651786D01*
X86252185Y-38675235D01*
X86263736Y-38696846D01*
X86279282Y-38715788D01*
X86298223Y-38731333D01*
X86366694Y-38777084D01*
X86429515Y-38839905D01*
X86478872Y-38913773D01*
X86512869Y-38995848D01*
X86530200Y-39082979D01*
X86530200Y-39171821D01*
X86512869Y-39258952D01*
X86478872Y-39341027D01*
X86429515Y-39414895D01*
X86366694Y-39477716D01*
X86298223Y-39523467D01*
X86279281Y-39539013D01*
X86263736Y-39557955D01*
X86252185Y-39579565D01*
X86245072Y-39603014D01*
X86242670Y-39627400D01*
X86245072Y-39651786D01*
X86252185Y-39675235D01*
X86263736Y-39696846D01*
X86279282Y-39715788D01*
X86298223Y-39731333D01*
X86366694Y-39777084D01*
X86429515Y-39839905D01*
X86478872Y-39913773D01*
X86512869Y-39995848D01*
X86530200Y-40082979D01*
X86530200Y-40171821D01*
X86512869Y-40258952D01*
X86478872Y-40341027D01*
X86429516Y-40414894D01*
X86366696Y-40477714D01*
X86292829Y-40527071D01*
X86292828Y-40527072D01*
X86292827Y-40527072D01*
X86210752Y-40561069D01*
X86123621Y-40578400D01*
X86034779Y-40578400D01*
X85947648Y-40561069D01*
X85865573Y-40527072D01*
X85865572Y-40527072D01*
X85865571Y-40527071D01*
X85791704Y-40477714D01*
X85728884Y-40414894D01*
X85683133Y-40346423D01*
X85667587Y-40327481D01*
X85648645Y-40311936D01*
X85627035Y-40300385D01*
X85603586Y-40293272D01*
X85579200Y-40290870D01*
X85554814Y-40293272D01*
X85531365Y-40300385D01*
X85509754Y-40311936D01*
X85490812Y-40327482D01*
X85475267Y-40346423D01*
X85429516Y-40414894D01*
X85366696Y-40477714D01*
X85292829Y-40527071D01*
X85292828Y-40527072D01*
X85292827Y-40527072D01*
X85210752Y-40561069D01*
X85123621Y-40578400D01*
X85034779Y-40578400D01*
X84947648Y-40561069D01*
X84865573Y-40527072D01*
X84865572Y-40527072D01*
X84865571Y-40527071D01*
X84791704Y-40477714D01*
X84728884Y-40414894D01*
X84683133Y-40346423D01*
X84667587Y-40327481D01*
X84648645Y-40311936D01*
X84627035Y-40300385D01*
X84603586Y-40293272D01*
X84579200Y-40290870D01*
X84554814Y-40293272D01*
X84531365Y-40300385D01*
X84509754Y-40311936D01*
X84490812Y-40327482D01*
X84475267Y-40346423D01*
X84429516Y-40414894D01*
X84366696Y-40477714D01*
X84292829Y-40527071D01*
X84292828Y-40527072D01*
X84292827Y-40527072D01*
X84210752Y-40561069D01*
X84123621Y-40578400D01*
X84034779Y-40578400D01*
X83947648Y-40561069D01*
X83865573Y-40527072D01*
X83865572Y-40527072D01*
X83865571Y-40527071D01*
X83791704Y-40477714D01*
X83728884Y-40414894D01*
X83683133Y-40346423D01*
X83667587Y-40327481D01*
X83648645Y-40311936D01*
X83627035Y-40300385D01*
X83603586Y-40293272D01*
X83579200Y-40290870D01*
X83554814Y-40293272D01*
X83531365Y-40300385D01*
X83509754Y-40311936D01*
X83490812Y-40327482D01*
X83475267Y-40346423D01*
X83429516Y-40414894D01*
X83366696Y-40477714D01*
X83292829Y-40527071D01*
X83292828Y-40527072D01*
X83292827Y-40527072D01*
X83210752Y-40561069D01*
X83123621Y-40578400D01*
X83034779Y-40578400D01*
X82947648Y-40561069D01*
X82865573Y-40527072D01*
X82865572Y-40527072D01*
X82865571Y-40527071D01*
X82791704Y-40477714D01*
X82728884Y-40414894D01*
X82683133Y-40346423D01*
X82667587Y-40327481D01*
X82648645Y-40311936D01*
X82627035Y-40300385D01*
X82603586Y-40293272D01*
X82579200Y-40290870D01*
X82554814Y-40293272D01*
X82531365Y-40300385D01*
X82509754Y-40311936D01*
X82490812Y-40327482D01*
X82475267Y-40346423D01*
X82429516Y-40414894D01*
X82366696Y-40477714D01*
X82292829Y-40527071D01*
X82292828Y-40527072D01*
X82292827Y-40527072D01*
X82210752Y-40561069D01*
X82123621Y-40578400D01*
X82034779Y-40578400D01*
X81947648Y-40561069D01*
X81865573Y-40527072D01*
X81865572Y-40527072D01*
X81865571Y-40527071D01*
X81791704Y-40477714D01*
X81728886Y-40414896D01*
X81728885Y-40414894D01*
X81679528Y-40341027D01*
X81645531Y-40258952D01*
X81628200Y-40171821D01*
X81628200Y-40082979D01*
X81645531Y-39995848D01*
X81679528Y-39913773D01*
X81728885Y-39839905D01*
X81791706Y-39777084D01*
X81860177Y-39731333D01*
X81879119Y-39715787D01*
X81894664Y-39696845D01*
X81906215Y-39675235D01*
X81913328Y-39651786D01*
X81915730Y-39627400D01*
X82242670Y-39627400D01*
X82245072Y-39651786D01*
X82252185Y-39675235D01*
X82263736Y-39696846D01*
X82279282Y-39715788D01*
X82298223Y-39731333D01*
X82366694Y-39777084D01*
X82429516Y-39839906D01*
X82475267Y-39908377D01*
X82490813Y-39927319D01*
X82509755Y-39942864D01*
X82531365Y-39954415D01*
X82554814Y-39961528D01*
X82579200Y-39963930D01*
X82603586Y-39961528D01*
X82627035Y-39954415D01*
X82648646Y-39942864D01*
X82667588Y-39927318D01*
X82683133Y-39908377D01*
X82728884Y-39839906D01*
X82791706Y-39777084D01*
X82860177Y-39731333D01*
X82879119Y-39715787D01*
X82894664Y-39696845D01*
X82906215Y-39675235D01*
X82913328Y-39651786D01*
X82915730Y-39627400D01*
X83242670Y-39627400D01*
X83245072Y-39651786D01*
X83252185Y-39675235D01*
X83263736Y-39696846D01*
X83279282Y-39715788D01*
X83298223Y-39731333D01*
X83366694Y-39777084D01*
X83429516Y-39839906D01*
X83475267Y-39908377D01*
X83490813Y-39927319D01*
X83509755Y-39942864D01*
X83531365Y-39954415D01*
X83554814Y-39961528D01*
X83579200Y-39963930D01*
X83603586Y-39961528D01*
X83627035Y-39954415D01*
X83648646Y-39942864D01*
X83667588Y-39927318D01*
X83683133Y-39908377D01*
X83728884Y-39839906D01*
X83791706Y-39777084D01*
X83860177Y-39731333D01*
X83879119Y-39715787D01*
X83894664Y-39696845D01*
X83906215Y-39675235D01*
X83913328Y-39651786D01*
X83915730Y-39627400D01*
X84242670Y-39627400D01*
X84245072Y-39651786D01*
X84252185Y-39675235D01*
X84263736Y-39696846D01*
X84279282Y-39715788D01*
X84298223Y-39731333D01*
X84366694Y-39777084D01*
X84429516Y-39839906D01*
X84475267Y-39908377D01*
X84490813Y-39927319D01*
X84509755Y-39942864D01*
X84531365Y-39954415D01*
X84554814Y-39961528D01*
X84579200Y-39963930D01*
X84603586Y-39961528D01*
X84627035Y-39954415D01*
X84648646Y-39942864D01*
X84667588Y-39927318D01*
X84683133Y-39908377D01*
X84728884Y-39839906D01*
X84791706Y-39777084D01*
X84860177Y-39731333D01*
X84879119Y-39715787D01*
X84894664Y-39696845D01*
X84906215Y-39675235D01*
X84913328Y-39651786D01*
X84915730Y-39627400D01*
X85242670Y-39627400D01*
X85245072Y-39651786D01*
X85252185Y-39675235D01*
X85263736Y-39696846D01*
X85279282Y-39715788D01*
X85298223Y-39731333D01*
X85366694Y-39777084D01*
X85429516Y-39839906D01*
X85475267Y-39908377D01*
X85490813Y-39927319D01*
X85509755Y-39942864D01*
X85531365Y-39954415D01*
X85554814Y-39961528D01*
X85579200Y-39963930D01*
X85603586Y-39961528D01*
X85627035Y-39954415D01*
X85648646Y-39942864D01*
X85667588Y-39927318D01*
X85683133Y-39908377D01*
X85728884Y-39839906D01*
X85791706Y-39777084D01*
X85860177Y-39731333D01*
X85879119Y-39715787D01*
X85894664Y-39696845D01*
X85906215Y-39675235D01*
X85913328Y-39651786D01*
X85915730Y-39627400D01*
X85913328Y-39603014D01*
X85906215Y-39579565D01*
X85894664Y-39557954D01*
X85879118Y-39539012D01*
X85860177Y-39523467D01*
X85791706Y-39477716D01*
X85728884Y-39414894D01*
X85683133Y-39346423D01*
X85667587Y-39327481D01*
X85648645Y-39311936D01*
X85627035Y-39300385D01*
X85603586Y-39293272D01*
X85579200Y-39290870D01*
X85554814Y-39293272D01*
X85531365Y-39300385D01*
X85509754Y-39311936D01*
X85490812Y-39327482D01*
X85475267Y-39346423D01*
X85429516Y-39414894D01*
X85366694Y-39477716D01*
X85298223Y-39523467D01*
X85279281Y-39539013D01*
X85263736Y-39557955D01*
X85252185Y-39579565D01*
X85245072Y-39603014D01*
X85242670Y-39627400D01*
X84915730Y-39627400D01*
X84913328Y-39603014D01*
X84906215Y-39579565D01*
X84894664Y-39557954D01*
X84879118Y-39539012D01*
X84860177Y-39523467D01*
X84791706Y-39477716D01*
X84728884Y-39414894D01*
X84683133Y-39346423D01*
X84667587Y-39327481D01*
X84648645Y-39311936D01*
X84627035Y-39300385D01*
X84603586Y-39293272D01*
X84579200Y-39290870D01*
X84554814Y-39293272D01*
X84531365Y-39300385D01*
X84509754Y-39311936D01*
X84490812Y-39327482D01*
X84475267Y-39346423D01*
X84429516Y-39414894D01*
X84366694Y-39477716D01*
X84298223Y-39523467D01*
X84279281Y-39539013D01*
X84263736Y-39557955D01*
X84252185Y-39579565D01*
X84245072Y-39603014D01*
X84242670Y-39627400D01*
X83915730Y-39627400D01*
X83913328Y-39603014D01*
X83906215Y-39579565D01*
X83894664Y-39557954D01*
X83879118Y-39539012D01*
X83860177Y-39523467D01*
X83791706Y-39477716D01*
X83728884Y-39414894D01*
X83683133Y-39346423D01*
X83667587Y-39327481D01*
X83648645Y-39311936D01*
X83627035Y-39300385D01*
X83603586Y-39293272D01*
X83579200Y-39290870D01*
X83554814Y-39293272D01*
X83531365Y-39300385D01*
X83509754Y-39311936D01*
X83490812Y-39327482D01*
X83475267Y-39346423D01*
X83429516Y-39414894D01*
X83366694Y-39477716D01*
X83298223Y-39523467D01*
X83279281Y-39539013D01*
X83263736Y-39557955D01*
X83252185Y-39579565D01*
X83245072Y-39603014D01*
X83242670Y-39627400D01*
X82915730Y-39627400D01*
X82913328Y-39603014D01*
X82906215Y-39579565D01*
X82894664Y-39557954D01*
X82879118Y-39539012D01*
X82860177Y-39523467D01*
X82791706Y-39477716D01*
X82728884Y-39414894D01*
X82683133Y-39346423D01*
X82667587Y-39327481D01*
X82648645Y-39311936D01*
X82627035Y-39300385D01*
X82603586Y-39293272D01*
X82579200Y-39290870D01*
X82554814Y-39293272D01*
X82531365Y-39300385D01*
X82509754Y-39311936D01*
X82490812Y-39327482D01*
X82475267Y-39346423D01*
X82429516Y-39414894D01*
X82366694Y-39477716D01*
X82298223Y-39523467D01*
X82279281Y-39539013D01*
X82263736Y-39557955D01*
X82252185Y-39579565D01*
X82245072Y-39603014D01*
X82242670Y-39627400D01*
X81915730Y-39627400D01*
X81913328Y-39603014D01*
X81906215Y-39579565D01*
X81894664Y-39557954D01*
X81879118Y-39539012D01*
X81860177Y-39523467D01*
X81791706Y-39477716D01*
X81728885Y-39414895D01*
X81679528Y-39341027D01*
X81645531Y-39258952D01*
X81628200Y-39171821D01*
X81628200Y-39082979D01*
X81645531Y-38995848D01*
X81679528Y-38913773D01*
X81728885Y-38839905D01*
X81791706Y-38777084D01*
X81860177Y-38731333D01*
X81879119Y-38715787D01*
X81894664Y-38696845D01*
X81906215Y-38675235D01*
X81913328Y-38651786D01*
X81915730Y-38627400D01*
X82242670Y-38627400D01*
X82245072Y-38651786D01*
X82252185Y-38675235D01*
X82263736Y-38696846D01*
X82279282Y-38715788D01*
X82298223Y-38731333D01*
X82366694Y-38777084D01*
X82429516Y-38839906D01*
X82475267Y-38908377D01*
X82490813Y-38927319D01*
X82509755Y-38942864D01*
X82531365Y-38954415D01*
X82554814Y-38961528D01*
X82579200Y-38963930D01*
X82603586Y-38961528D01*
X82627035Y-38954415D01*
X82648646Y-38942864D01*
X82667588Y-38927318D01*
X82683133Y-38908377D01*
X82728884Y-38839906D01*
X82791706Y-38777084D01*
X82860177Y-38731333D01*
X82879119Y-38715787D01*
X82894664Y-38696845D01*
X82906215Y-38675235D01*
X82913328Y-38651786D01*
X82915730Y-38627400D01*
X83242670Y-38627400D01*
X83245072Y-38651786D01*
X83252185Y-38675235D01*
X83263736Y-38696846D01*
X83279282Y-38715788D01*
X83298223Y-38731333D01*
X83366694Y-38777084D01*
X83429516Y-38839906D01*
X83475267Y-38908377D01*
X83490813Y-38927319D01*
X83509755Y-38942864D01*
X83531365Y-38954415D01*
X83554814Y-38961528D01*
X83579200Y-38963930D01*
X83603586Y-38961528D01*
X83627035Y-38954415D01*
X83648646Y-38942864D01*
X83667588Y-38927318D01*
X83683133Y-38908377D01*
X83728884Y-38839906D01*
X83791706Y-38777084D01*
X83860177Y-38731333D01*
X83879119Y-38715787D01*
X83894664Y-38696845D01*
X83906215Y-38675235D01*
X83913328Y-38651786D01*
X83915730Y-38627400D01*
X84242670Y-38627400D01*
X84245072Y-38651786D01*
X84252185Y-38675235D01*
X84263736Y-38696846D01*
X84279282Y-38715788D01*
X84298223Y-38731333D01*
X84366694Y-38777084D01*
X84429516Y-38839906D01*
X84475267Y-38908377D01*
X84490813Y-38927319D01*
X84509755Y-38942864D01*
X84531365Y-38954415D01*
X84554814Y-38961528D01*
X84579200Y-38963930D01*
X84603586Y-38961528D01*
X84627035Y-38954415D01*
X84648646Y-38942864D01*
X84667588Y-38927318D01*
X84683133Y-38908377D01*
X84728884Y-38839906D01*
X84791706Y-38777084D01*
X84860177Y-38731333D01*
X84879119Y-38715787D01*
X84894664Y-38696845D01*
X84906215Y-38675235D01*
X84913328Y-38651786D01*
X84915730Y-38627400D01*
X85242670Y-38627400D01*
X85245072Y-38651786D01*
X85252185Y-38675235D01*
X85263736Y-38696846D01*
X85279282Y-38715788D01*
X85298223Y-38731333D01*
X85366694Y-38777084D01*
X85429516Y-38839906D01*
X85475267Y-38908377D01*
X85490813Y-38927319D01*
X85509755Y-38942864D01*
X85531365Y-38954415D01*
X85554814Y-38961528D01*
X85579200Y-38963930D01*
X85603586Y-38961528D01*
X85627035Y-38954415D01*
X85648646Y-38942864D01*
X85667588Y-38927318D01*
X85683133Y-38908377D01*
X85728884Y-38839906D01*
X85791706Y-38777084D01*
X85860177Y-38731333D01*
X85879119Y-38715787D01*
X85894664Y-38696845D01*
X85906215Y-38675235D01*
X85913328Y-38651786D01*
X85915730Y-38627400D01*
X85913328Y-38603014D01*
X85906215Y-38579565D01*
X85894664Y-38557954D01*
X85879118Y-38539012D01*
X85860177Y-38523467D01*
X85791706Y-38477716D01*
X85728884Y-38414894D01*
X85683133Y-38346423D01*
X85667587Y-38327481D01*
X85648645Y-38311936D01*
X85627035Y-38300385D01*
X85603586Y-38293272D01*
X85579200Y-38290870D01*
X85554814Y-38293272D01*
X85531365Y-38300385D01*
X85509754Y-38311936D01*
X85490812Y-38327482D01*
X85475267Y-38346423D01*
X85429516Y-38414894D01*
X85366694Y-38477716D01*
X85298223Y-38523467D01*
X85279281Y-38539013D01*
X85263736Y-38557955D01*
X85252185Y-38579565D01*
X85245072Y-38603014D01*
X85242670Y-38627400D01*
X84915730Y-38627400D01*
X84913328Y-38603014D01*
X84906215Y-38579565D01*
X84894664Y-38557954D01*
X84879118Y-38539012D01*
X84860177Y-38523467D01*
X84791706Y-38477716D01*
X84728884Y-38414894D01*
X84683133Y-38346423D01*
X84667587Y-38327481D01*
X84648645Y-38311936D01*
X84627035Y-38300385D01*
X84603586Y-38293272D01*
X84579200Y-38290870D01*
X84554814Y-38293272D01*
X84531365Y-38300385D01*
X84509754Y-38311936D01*
X84490812Y-38327482D01*
X84475267Y-38346423D01*
X84429516Y-38414894D01*
X84366694Y-38477716D01*
X84298223Y-38523467D01*
X84279281Y-38539013D01*
X84263736Y-38557955D01*
X84252185Y-38579565D01*
X84245072Y-38603014D01*
X84242670Y-38627400D01*
X83915730Y-38627400D01*
X83913328Y-38603014D01*
X83906215Y-38579565D01*
X83894664Y-38557954D01*
X83879118Y-38539012D01*
X83860177Y-38523467D01*
X83791706Y-38477716D01*
X83728884Y-38414894D01*
X83683133Y-38346423D01*
X83667587Y-38327481D01*
X83648645Y-38311936D01*
X83627035Y-38300385D01*
X83603586Y-38293272D01*
X83579200Y-38290870D01*
X83554814Y-38293272D01*
X83531365Y-38300385D01*
X83509754Y-38311936D01*
X83490812Y-38327482D01*
X83475267Y-38346423D01*
X83429516Y-38414894D01*
X83366694Y-38477716D01*
X83298223Y-38523467D01*
X83279281Y-38539013D01*
X83263736Y-38557955D01*
X83252185Y-38579565D01*
X83245072Y-38603014D01*
X83242670Y-38627400D01*
X82915730Y-38627400D01*
X82913328Y-38603014D01*
X82906215Y-38579565D01*
X82894664Y-38557954D01*
X82879118Y-38539012D01*
X82860177Y-38523467D01*
X82791706Y-38477716D01*
X82728884Y-38414894D01*
X82683133Y-38346423D01*
X82667587Y-38327481D01*
X82648645Y-38311936D01*
X82627035Y-38300385D01*
X82603586Y-38293272D01*
X82579200Y-38290870D01*
X82554814Y-38293272D01*
X82531365Y-38300385D01*
X82509754Y-38311936D01*
X82490812Y-38327482D01*
X82475267Y-38346423D01*
X82429516Y-38414894D01*
X82366694Y-38477716D01*
X82298223Y-38523467D01*
X82279281Y-38539013D01*
X82263736Y-38557955D01*
X82252185Y-38579565D01*
X82245072Y-38603014D01*
X82242670Y-38627400D01*
X81915730Y-38627400D01*
X81913328Y-38603014D01*
X81906215Y-38579565D01*
X81894664Y-38557954D01*
X81879118Y-38539012D01*
X81860177Y-38523467D01*
X81791706Y-38477716D01*
X81728885Y-38414895D01*
X81679528Y-38341027D01*
X81645531Y-38258952D01*
X81628200Y-38171821D01*
X81628200Y-38082979D01*
X81645531Y-37995848D01*
X81679528Y-37913773D01*
X81694646Y-37891148D01*
X81704375Y-37876587D01*
X81728885Y-37839905D01*
X81791706Y-37777084D01*
X81860177Y-37731333D01*
X81879119Y-37715787D01*
X81894664Y-37696845D01*
X81906215Y-37675235D01*
X81913328Y-37651786D01*
X81915730Y-37627400D01*
X82242670Y-37627400D01*
X82245072Y-37651786D01*
X82252185Y-37675235D01*
X82263736Y-37696846D01*
X82279282Y-37715788D01*
X82298223Y-37731333D01*
X82366694Y-37777084D01*
X82429516Y-37839906D01*
X82475267Y-37908377D01*
X82490813Y-37927319D01*
X82509755Y-37942864D01*
X82531365Y-37954415D01*
X82554814Y-37961528D01*
X82579200Y-37963930D01*
X82603586Y-37961528D01*
X82627035Y-37954415D01*
X82648646Y-37942864D01*
X82667588Y-37927318D01*
X82683133Y-37908377D01*
X82728884Y-37839906D01*
X82791706Y-37777084D01*
X82860177Y-37731333D01*
X82879119Y-37715787D01*
X82894664Y-37696845D01*
X82906215Y-37675235D01*
X82913328Y-37651786D01*
X82915730Y-37627400D01*
X83242670Y-37627400D01*
X83245072Y-37651786D01*
X83252185Y-37675235D01*
X83263736Y-37696846D01*
X83279282Y-37715788D01*
X83298223Y-37731333D01*
X83366694Y-37777084D01*
X83429516Y-37839906D01*
X83475267Y-37908377D01*
X83490813Y-37927319D01*
X83509755Y-37942864D01*
X83531365Y-37954415D01*
X83554814Y-37961528D01*
X83579200Y-37963930D01*
X83603586Y-37961528D01*
X83627035Y-37954415D01*
X83648646Y-37942864D01*
X83667588Y-37927318D01*
X83683133Y-37908377D01*
X83728884Y-37839906D01*
X83791706Y-37777084D01*
X83860177Y-37731333D01*
X83879119Y-37715787D01*
X83894664Y-37696845D01*
X83906215Y-37675235D01*
X83913328Y-37651786D01*
X83915730Y-37627400D01*
X84242670Y-37627400D01*
X84245072Y-37651786D01*
X84252185Y-37675235D01*
X84263736Y-37696846D01*
X84279282Y-37715788D01*
X84298223Y-37731333D01*
X84366694Y-37777084D01*
X84429516Y-37839906D01*
X84475267Y-37908377D01*
X84490813Y-37927319D01*
X84509755Y-37942864D01*
X84531365Y-37954415D01*
X84554814Y-37961528D01*
X84579200Y-37963930D01*
X84603586Y-37961528D01*
X84627035Y-37954415D01*
X84648646Y-37942864D01*
X84667588Y-37927318D01*
X84683133Y-37908377D01*
X84728884Y-37839906D01*
X84791706Y-37777084D01*
X84860177Y-37731333D01*
X84879119Y-37715787D01*
X84894664Y-37696845D01*
X84906215Y-37675235D01*
X84913328Y-37651786D01*
X84915730Y-37627400D01*
X85242670Y-37627400D01*
X85245072Y-37651786D01*
X85252185Y-37675235D01*
X85263736Y-37696846D01*
X85279282Y-37715788D01*
X85298223Y-37731333D01*
X85366694Y-37777084D01*
X85429516Y-37839906D01*
X85475267Y-37908377D01*
X85490813Y-37927319D01*
X85509755Y-37942864D01*
X85531365Y-37954415D01*
X85554814Y-37961528D01*
X85579200Y-37963930D01*
X85603586Y-37961528D01*
X85627035Y-37954415D01*
X85648646Y-37942864D01*
X85667588Y-37927318D01*
X85683133Y-37908377D01*
X85728884Y-37839906D01*
X85791706Y-37777084D01*
X85860177Y-37731333D01*
X85879119Y-37715787D01*
X85894664Y-37696845D01*
X85906215Y-37675235D01*
X85913328Y-37651786D01*
X85915730Y-37627400D01*
X85913328Y-37603014D01*
X85906215Y-37579565D01*
X85894664Y-37557954D01*
X85879118Y-37539012D01*
X85860177Y-37523467D01*
X85791706Y-37477716D01*
X85728884Y-37414894D01*
X85683133Y-37346423D01*
X85667587Y-37327481D01*
X85648645Y-37311936D01*
X85627035Y-37300385D01*
X85603586Y-37293272D01*
X85579200Y-37290870D01*
X85554814Y-37293272D01*
X85531365Y-37300385D01*
X85509754Y-37311936D01*
X85490812Y-37327482D01*
X85475267Y-37346423D01*
X85429516Y-37414894D01*
X85366694Y-37477716D01*
X85298223Y-37523467D01*
X85279281Y-37539013D01*
X85263736Y-37557955D01*
X85252185Y-37579565D01*
X85245072Y-37603014D01*
X85242670Y-37627400D01*
X84915730Y-37627400D01*
X84913328Y-37603014D01*
X84906215Y-37579565D01*
X84894664Y-37557954D01*
X84879118Y-37539012D01*
X84860177Y-37523467D01*
X84791706Y-37477716D01*
X84728884Y-37414894D01*
X84683133Y-37346423D01*
X84667587Y-37327481D01*
X84648645Y-37311936D01*
X84627035Y-37300385D01*
X84603586Y-37293272D01*
X84579200Y-37290870D01*
X84554814Y-37293272D01*
X84531365Y-37300385D01*
X84509754Y-37311936D01*
X84490812Y-37327482D01*
X84475267Y-37346423D01*
X84429516Y-37414894D01*
X84366694Y-37477716D01*
X84298223Y-37523467D01*
X84279281Y-37539013D01*
X84263736Y-37557955D01*
X84252185Y-37579565D01*
X84245072Y-37603014D01*
X84242670Y-37627400D01*
X83915730Y-37627400D01*
X83913328Y-37603014D01*
X83906215Y-37579565D01*
X83894664Y-37557954D01*
X83879118Y-37539012D01*
X83860177Y-37523467D01*
X83791706Y-37477716D01*
X83728884Y-37414894D01*
X83683133Y-37346423D01*
X83667587Y-37327481D01*
X83648645Y-37311936D01*
X83627035Y-37300385D01*
X83603586Y-37293272D01*
X83579200Y-37290870D01*
X83554814Y-37293272D01*
X83531365Y-37300385D01*
X83509754Y-37311936D01*
X83490812Y-37327482D01*
X83475267Y-37346423D01*
X83429516Y-37414894D01*
X83366694Y-37477716D01*
X83298223Y-37523467D01*
X83279281Y-37539013D01*
X83263736Y-37557955D01*
X83252185Y-37579565D01*
X83245072Y-37603014D01*
X83242670Y-37627400D01*
X82915730Y-37627400D01*
X82913328Y-37603014D01*
X82906215Y-37579565D01*
X82894664Y-37557954D01*
X82879118Y-37539012D01*
X82860177Y-37523467D01*
X82791706Y-37477716D01*
X82728884Y-37414894D01*
X82683133Y-37346423D01*
X82667587Y-37327481D01*
X82648645Y-37311936D01*
X82627035Y-37300385D01*
X82603586Y-37293272D01*
X82579200Y-37290870D01*
X82554814Y-37293272D01*
X82531365Y-37300385D01*
X82509754Y-37311936D01*
X82490812Y-37327482D01*
X82475267Y-37346423D01*
X82429516Y-37414894D01*
X82366694Y-37477716D01*
X82298223Y-37523467D01*
X82279281Y-37539013D01*
X82263736Y-37557955D01*
X82252185Y-37579565D01*
X82245072Y-37603014D01*
X82242670Y-37627400D01*
X81915730Y-37627400D01*
X81913328Y-37603014D01*
X81906215Y-37579565D01*
X81894664Y-37557954D01*
X81879118Y-37539012D01*
X81860177Y-37523467D01*
X81791706Y-37477716D01*
X81728885Y-37414895D01*
X81679528Y-37341027D01*
X81645531Y-37258952D01*
X81628200Y-37171821D01*
X81628200Y-37082979D01*
X81645531Y-36995848D01*
X81679528Y-36913773D01*
X81728885Y-36839905D01*
X81791706Y-36777084D01*
X81860177Y-36731333D01*
X81879119Y-36715787D01*
X81894664Y-36696845D01*
X81906215Y-36675235D01*
X81913328Y-36651786D01*
X81915730Y-36627400D01*
X82242670Y-36627400D01*
X82245072Y-36651786D01*
X82252185Y-36675235D01*
X82263736Y-36696846D01*
X82279282Y-36715788D01*
X82298223Y-36731333D01*
X82366694Y-36777084D01*
X82429516Y-36839906D01*
X82475267Y-36908377D01*
X82490813Y-36927319D01*
X82509755Y-36942864D01*
X82531365Y-36954415D01*
X82554814Y-36961528D01*
X82579200Y-36963930D01*
X82603586Y-36961528D01*
X82627035Y-36954415D01*
X82648646Y-36942864D01*
X82667588Y-36927318D01*
X82683133Y-36908377D01*
X82728884Y-36839906D01*
X82791706Y-36777084D01*
X82860177Y-36731333D01*
X82879119Y-36715787D01*
X82894664Y-36696845D01*
X82906215Y-36675235D01*
X82913328Y-36651786D01*
X82915730Y-36627400D01*
X83242670Y-36627400D01*
X83245072Y-36651786D01*
X83252185Y-36675235D01*
X83263736Y-36696846D01*
X83279282Y-36715788D01*
X83298223Y-36731333D01*
X83366694Y-36777084D01*
X83429516Y-36839906D01*
X83475267Y-36908377D01*
X83490813Y-36927319D01*
X83509755Y-36942864D01*
X83531365Y-36954415D01*
X83554814Y-36961528D01*
X83579200Y-36963930D01*
X83603586Y-36961528D01*
X83627035Y-36954415D01*
X83648646Y-36942864D01*
X83667588Y-36927318D01*
X83683133Y-36908377D01*
X83728884Y-36839906D01*
X83791706Y-36777084D01*
X83860177Y-36731333D01*
X83879119Y-36715787D01*
X83894664Y-36696845D01*
X83906215Y-36675235D01*
X83913328Y-36651786D01*
X83915730Y-36627400D01*
X84242670Y-36627400D01*
X84245072Y-36651786D01*
X84252185Y-36675235D01*
X84263736Y-36696846D01*
X84279282Y-36715788D01*
X84298223Y-36731333D01*
X84366694Y-36777084D01*
X84429516Y-36839906D01*
X84475267Y-36908377D01*
X84490813Y-36927319D01*
X84509755Y-36942864D01*
X84531365Y-36954415D01*
X84554814Y-36961528D01*
X84579200Y-36963930D01*
X84603586Y-36961528D01*
X84627035Y-36954415D01*
X84648646Y-36942864D01*
X84667588Y-36927318D01*
X84683133Y-36908377D01*
X84728884Y-36839906D01*
X84791706Y-36777084D01*
X84860177Y-36731333D01*
X84879119Y-36715787D01*
X84894664Y-36696845D01*
X84906215Y-36675235D01*
X84913328Y-36651786D01*
X84915730Y-36627400D01*
X85242670Y-36627400D01*
X85245072Y-36651786D01*
X85252185Y-36675235D01*
X85263736Y-36696846D01*
X85279282Y-36715788D01*
X85298223Y-36731333D01*
X85366694Y-36777084D01*
X85429516Y-36839906D01*
X85475267Y-36908377D01*
X85490813Y-36927319D01*
X85509755Y-36942864D01*
X85531365Y-36954415D01*
X85554814Y-36961528D01*
X85579200Y-36963930D01*
X85603586Y-36961528D01*
X85627035Y-36954415D01*
X85648646Y-36942864D01*
X85667588Y-36927318D01*
X85683133Y-36908377D01*
X85728884Y-36839906D01*
X85791706Y-36777084D01*
X85860177Y-36731333D01*
X85879119Y-36715787D01*
X85894664Y-36696845D01*
X85906215Y-36675235D01*
X85913328Y-36651786D01*
X85915730Y-36627400D01*
X85913328Y-36603014D01*
X85906215Y-36579565D01*
X85894664Y-36557954D01*
X85879118Y-36539012D01*
X85860177Y-36523467D01*
X85791706Y-36477716D01*
X85728884Y-36414894D01*
X85683133Y-36346423D01*
X85667587Y-36327481D01*
X85648645Y-36311936D01*
X85627035Y-36300385D01*
X85603586Y-36293272D01*
X85579200Y-36290870D01*
X85554814Y-36293272D01*
X85531365Y-36300385D01*
X85509754Y-36311936D01*
X85490812Y-36327482D01*
X85475267Y-36346423D01*
X85429516Y-36414894D01*
X85366694Y-36477716D01*
X85298223Y-36523467D01*
X85279281Y-36539013D01*
X85263736Y-36557955D01*
X85252185Y-36579565D01*
X85245072Y-36603014D01*
X85242670Y-36627400D01*
X84915730Y-36627400D01*
X84913328Y-36603014D01*
X84906215Y-36579565D01*
X84894664Y-36557954D01*
X84879118Y-36539012D01*
X84860177Y-36523467D01*
X84791706Y-36477716D01*
X84728884Y-36414894D01*
X84683133Y-36346423D01*
X84667587Y-36327481D01*
X84648645Y-36311936D01*
X84627035Y-36300385D01*
X84603586Y-36293272D01*
X84579200Y-36290870D01*
X84554814Y-36293272D01*
X84531365Y-36300385D01*
X84509754Y-36311936D01*
X84490812Y-36327482D01*
X84475267Y-36346423D01*
X84429516Y-36414894D01*
X84366694Y-36477716D01*
X84298223Y-36523467D01*
X84279281Y-36539013D01*
X84263736Y-36557955D01*
X84252185Y-36579565D01*
X84245072Y-36603014D01*
X84242670Y-36627400D01*
X83915730Y-36627400D01*
X83913328Y-36603014D01*
X83906215Y-36579565D01*
X83894664Y-36557954D01*
X83879118Y-36539012D01*
X83860177Y-36523467D01*
X83791706Y-36477716D01*
X83728884Y-36414894D01*
X83683133Y-36346423D01*
X83667587Y-36327481D01*
X83648645Y-36311936D01*
X83627035Y-36300385D01*
X83603586Y-36293272D01*
X83579200Y-36290870D01*
X83554814Y-36293272D01*
X83531365Y-36300385D01*
X83509754Y-36311936D01*
X83490812Y-36327482D01*
X83475267Y-36346423D01*
X83429516Y-36414894D01*
X83366694Y-36477716D01*
X83298223Y-36523467D01*
X83279281Y-36539013D01*
X83263736Y-36557955D01*
X83252185Y-36579565D01*
X83245072Y-36603014D01*
X83242670Y-36627400D01*
X82915730Y-36627400D01*
X82913328Y-36603014D01*
X82906215Y-36579565D01*
X82894664Y-36557954D01*
X82879118Y-36539012D01*
X82860177Y-36523467D01*
X82791706Y-36477716D01*
X82728884Y-36414894D01*
X82683133Y-36346423D01*
X82667587Y-36327481D01*
X82648645Y-36311936D01*
X82627035Y-36300385D01*
X82603586Y-36293272D01*
X82579200Y-36290870D01*
X82554814Y-36293272D01*
X82531365Y-36300385D01*
X82509754Y-36311936D01*
X82490812Y-36327482D01*
X82475267Y-36346423D01*
X82429516Y-36414894D01*
X82366694Y-36477716D01*
X82298223Y-36523467D01*
X82279281Y-36539013D01*
X82263736Y-36557955D01*
X82252185Y-36579565D01*
X82245072Y-36603014D01*
X82242670Y-36627400D01*
X81915730Y-36627400D01*
X81913328Y-36603014D01*
X81906215Y-36579565D01*
X81894664Y-36557954D01*
X81879118Y-36539012D01*
X81860177Y-36523467D01*
X81791706Y-36477716D01*
X81728885Y-36414895D01*
X81679528Y-36341027D01*
X81645531Y-36258952D01*
X81628200Y-36171821D01*
X81628200Y-36082979D01*
X81645531Y-35995848D01*
X81679528Y-35913773D01*
X81728885Y-35839905D01*
X81791705Y-35777085D01*
X81828387Y-35752575D01*
X81865571Y-35727729D01*
X81865573Y-35727728D01*
X81947648Y-35693731D01*
X82034779Y-35676400D01*
X82123621Y-35676400D01*
X82210752Y-35693731D01*
G37*
G36*
X29808504Y-37693732D02*
G01*
X29963812Y-37724624D01*
X30127784Y-37792544D01*
X30275354Y-37891147D01*
X30400853Y-38016646D01*
X30499456Y-38164216D01*
X30567376Y-38328188D01*
X30602000Y-38502259D01*
X30602000Y-38679741D01*
X30567376Y-38853812D01*
X30499456Y-39017784D01*
X30400853Y-39165354D01*
X30275354Y-39290853D01*
X30127784Y-39389456D01*
X29963812Y-39457376D01*
X29814512Y-39487073D01*
X29789742Y-39492000D01*
X29612258Y-39492000D01*
X29587488Y-39487073D01*
X29438188Y-39457376D01*
X29274216Y-39389456D01*
X29126646Y-39290853D01*
X29001147Y-39165354D01*
X28902544Y-39017784D01*
X28834624Y-38853812D01*
X28800000Y-38679741D01*
X28800000Y-38502259D01*
X28834624Y-38328188D01*
X28902544Y-38164216D01*
X29001147Y-38016646D01*
X29126646Y-37891147D01*
X29274216Y-37792544D01*
X29438188Y-37724624D01*
X29593496Y-37693732D01*
X29612258Y-37690000D01*
X29789742Y-37690000D01*
X29808504Y-37693732D01*
G37*
G36*
X27268504Y-37693732D02*
G01*
X27423812Y-37724624D01*
X27587784Y-37792544D01*
X27735354Y-37891147D01*
X27860853Y-38016646D01*
X27959456Y-38164216D01*
X28027376Y-38328188D01*
X28062000Y-38502259D01*
X28062000Y-38679741D01*
X28027376Y-38853812D01*
X27959456Y-39017784D01*
X27860853Y-39165354D01*
X27735354Y-39290853D01*
X27587784Y-39389456D01*
X27423812Y-39457376D01*
X27274512Y-39487073D01*
X27249742Y-39492000D01*
X27072258Y-39492000D01*
X27047488Y-39487073D01*
X26898188Y-39457376D01*
X26734216Y-39389456D01*
X26586646Y-39290853D01*
X26461147Y-39165354D01*
X26362544Y-39017784D01*
X26294624Y-38853812D01*
X26260000Y-38679741D01*
X26260000Y-38502259D01*
X26294624Y-38328188D01*
X26362544Y-38164216D01*
X26461147Y-38016646D01*
X26586646Y-37891147D01*
X26734216Y-37792544D01*
X26898188Y-37724624D01*
X27053496Y-37693732D01*
X27072258Y-37690000D01*
X27249742Y-37690000D01*
X27268504Y-37693732D01*
G37*
G36*
X61824549Y-31071116D02*
G01*
X61935734Y-31093232D01*
X62145203Y-31179997D01*
X62333720Y-31305960D01*
X62494040Y-31466280D01*
X62620003Y-31654797D01*
X62706768Y-31864266D01*
X62751000Y-32086636D01*
X62751000Y-32313364D01*
X62706768Y-32535734D01*
X62620003Y-32745203D01*
X62494040Y-32933720D01*
X62333720Y-33094040D01*
X62145203Y-33220003D01*
X61935734Y-33306768D01*
X61824549Y-33328884D01*
X61713365Y-33351000D01*
X61486635Y-33351000D01*
X61375451Y-33328884D01*
X61264266Y-33306768D01*
X61054797Y-33220003D01*
X60866280Y-33094040D01*
X60705960Y-32933720D01*
X60579997Y-32745203D01*
X60493232Y-32535734D01*
X60449000Y-32313364D01*
X60449000Y-32086636D01*
X60493232Y-31864266D01*
X60579997Y-31654797D01*
X60705960Y-31466280D01*
X60866280Y-31305960D01*
X61054797Y-31179997D01*
X61264266Y-31093232D01*
X61375451Y-31071116D01*
X61486635Y-31049000D01*
X61713365Y-31049000D01*
X61824549Y-31071116D01*
G37*
G36*
X33091016Y-23095747D02*
G01*
X33217680Y-23148212D01*
X33331674Y-23224381D01*
X33428619Y-23321326D01*
X33504788Y-23435320D01*
X33557253Y-23561984D01*
X33584000Y-23696450D01*
X33584000Y-23833550D01*
X33557253Y-23968016D01*
X33504788Y-24094680D01*
X33428619Y-24208674D01*
X33331674Y-24305619D01*
X33217680Y-24381788D01*
X33091016Y-24434253D01*
X32956550Y-24461000D01*
X32819450Y-24461000D01*
X32684984Y-24434253D01*
X32558320Y-24381788D01*
X32444326Y-24305619D01*
X32347381Y-24208674D01*
X32271212Y-24094680D01*
X32218747Y-23968016D01*
X32192000Y-23833550D01*
X32192000Y-23696450D01*
X32218747Y-23561984D01*
X32271212Y-23435320D01*
X32347381Y-23321326D01*
X32444326Y-23224381D01*
X32558320Y-23148212D01*
X32684984Y-23095747D01*
X32819450Y-23069000D01*
X32956550Y-23069000D01*
X33091016Y-23095747D01*
G37*
G36*
X28241016Y-23095747D02*
G01*
X28367680Y-23148212D01*
X28481674Y-23224381D01*
X28578619Y-23321326D01*
X28654788Y-23435320D01*
X28707253Y-23561984D01*
X28734000Y-23696450D01*
X28734000Y-23833550D01*
X28707253Y-23968016D01*
X28654788Y-24094680D01*
X28578619Y-24208674D01*
X28481674Y-24305619D01*
X28367680Y-24381788D01*
X28241016Y-24434253D01*
X28106550Y-24461000D01*
X27969450Y-24461000D01*
X27834984Y-24434253D01*
X27708320Y-24381788D01*
X27594326Y-24305619D01*
X27497381Y-24208674D01*
X27421212Y-24094680D01*
X27368747Y-23968016D01*
X27342000Y-23833550D01*
X27342000Y-23696450D01*
X27368747Y-23561984D01*
X27421212Y-23435320D01*
X27497381Y-23321326D01*
X27594326Y-23224381D01*
X27708320Y-23148212D01*
X27834984Y-23095747D01*
X27969450Y-23069000D01*
X28106550Y-23069000D01*
X28241016Y-23095747D01*
G37*
G36*
X111824549Y-21071116D02*
G01*
X111935734Y-21093232D01*
X112145203Y-21179997D01*
X112333720Y-21305960D01*
X112494040Y-21466280D01*
X112620003Y-21654797D01*
X112706768Y-21864266D01*
X112751000Y-22086636D01*
X112751000Y-22313364D01*
X112706768Y-22535734D01*
X112620003Y-22745203D01*
X112494040Y-22933720D01*
X112333720Y-23094040D01*
X112145203Y-23220003D01*
X112145202Y-23220004D01*
X112145201Y-23220004D01*
X112083850Y-23245416D01*
X111935734Y-23306768D01*
X111824549Y-23328884D01*
X111713365Y-23351000D01*
X111486635Y-23351000D01*
X111375451Y-23328884D01*
X111264266Y-23306768D01*
X111116150Y-23245416D01*
X111054799Y-23220004D01*
X111054798Y-23220004D01*
X111054797Y-23220003D01*
X110866280Y-23094040D01*
X110705960Y-22933720D01*
X110579997Y-22745203D01*
X110493232Y-22535734D01*
X110449000Y-22313364D01*
X110449000Y-22086636D01*
X110493232Y-21864266D01*
X110579997Y-21654797D01*
X110705960Y-21466280D01*
X110866280Y-21305960D01*
X111054797Y-21179997D01*
X111264266Y-21093232D01*
X111375451Y-21071116D01*
X111486635Y-21049000D01*
X111713365Y-21049000D01*
X111824549Y-21071116D01*
G37*
G36*
X26980818Y-20172696D02*
G01*
X27094105Y-20207062D01*
X27198512Y-20262869D01*
X27290027Y-20337973D01*
X27365131Y-20429488D01*
X27420938Y-20533895D01*
X27455304Y-20647182D01*
X27464000Y-20735481D01*
X27464000Y-21394519D01*
X27455304Y-21482818D01*
X27420938Y-21596105D01*
X27365131Y-21700512D01*
X27365130Y-21700513D01*
X27290027Y-21792027D01*
X27214923Y-21853662D01*
X27198511Y-21867131D01*
X27094104Y-21922938D01*
X26980817Y-21957304D01*
X26863000Y-21968907D01*
X26745182Y-21957304D01*
X26631895Y-21922938D01*
X26527488Y-21867131D01*
X26513572Y-21855711D01*
X26435973Y-21792027D01*
X26374338Y-21716923D01*
X26360869Y-21700511D01*
X26305062Y-21596104D01*
X26270696Y-21482817D01*
X26262000Y-21394518D01*
X26262000Y-20735481D01*
X26270696Y-20647182D01*
X26305061Y-20533898D01*
X26360871Y-20429486D01*
X26435974Y-20337973D01*
X26527489Y-20262869D01*
X26631896Y-20207062D01*
X26745183Y-20172696D01*
X26863000Y-20161093D01*
X26980818Y-20172696D01*
G37*
G36*
X34180817Y-20172696D02*
G01*
X34294104Y-20207062D01*
X34398511Y-20262869D01*
X34398513Y-20262870D01*
X34398512Y-20262870D01*
X34490027Y-20337973D01*
X34553711Y-20415572D01*
X34565131Y-20429488D01*
X34620938Y-20533895D01*
X34655304Y-20647182D01*
X34664000Y-20735481D01*
X34664000Y-21394519D01*
X34655304Y-21482818D01*
X34620938Y-21596105D01*
X34565131Y-21700512D01*
X34490027Y-21792027D01*
X34398512Y-21867131D01*
X34294105Y-21922938D01*
X34180818Y-21957304D01*
X34063000Y-21968907D01*
X33945183Y-21957304D01*
X33831896Y-21922938D01*
X33727489Y-21867131D01*
X33635974Y-21792027D01*
X33560871Y-21700514D01*
X33505061Y-21596102D01*
X33470696Y-21482818D01*
X33462000Y-21394519D01*
X33462000Y-20735482D01*
X33470696Y-20647183D01*
X33505062Y-20533896D01*
X33560869Y-20429489D01*
X33574338Y-20413077D01*
X33635973Y-20337973D01*
X33727487Y-20262870D01*
X33727486Y-20262870D01*
X33727488Y-20262869D01*
X33831895Y-20207062D01*
X33945182Y-20172696D01*
X34063000Y-20161093D01*
X34180817Y-20172696D01*
G37*
M02*
