%TF.GenerationSoftware,KiCad,Pcbnew,5.1.4*%
%TF.CreationDate,2019-10-04T22:27:36+02:00*%
%TF.ProjectId,epaper-breakout,65706170-6572-42d6-9272-65616b6f7574,rev?*%
%TF.SameCoordinates,Original*%
%TF.FileFunction,Paste,Top*%
%TF.FilePolarity,Positive*%
%FSLAX46Y46*%
G04 Gerber Fmt 4.6, Leading zero omitted, Abs format (unit mm)*
G04 Created by KiCad (PCBNEW 5.1.4) date 2019-10-04 22:27:36*
%MOMM*%
%LPD*%
G04 APERTURE LIST*
%ADD10C,0.150000*%
%ADD11C,0.875000*%
%ADD12R,2.000000X0.900000*%
%ADD13R,0.900000X2.000000*%
%ADD14R,5.000000X5.000000*%
%ADD15R,0.812800X0.254000*%
%ADD16R,1.701800X1.524000*%
%ADD17C,0.650000*%
%ADD18C,0.600000*%
%ADD19R,2.750000X3.050000*%
%ADD20R,1.200000X2.200000*%
%ADD21R,1.400000X0.300000*%
%ADD22R,3.050000X2.750000*%
%ADD23R,2.200000X1.200000*%
%ADD24R,0.750000X1.500000*%
%ADD25R,1.200000X1.200000*%
%ADD26R,1.500000X1.600000*%
%ADD27C,0.975000*%
%ADD28R,0.900000X0.800000*%
%ADD29R,1.500000X2.400000*%
%ADD30R,2.400000X1.500000*%
%ADD31R,1.700000X1.500000*%
%ADD32C,1.290000*%
%ADD33R,1.250000X0.400000*%
%ADD34O,1.700000X1.100000*%
%ADD35R,0.900000X1.200000*%
%ADD36R,1.200000X0.900000*%
G04 APERTURE END LIST*
D10*
G36*
X121689691Y71022947D02*
G01*
X121710926Y71019797D01*
X121731750Y71014581D01*
X121751962Y71007349D01*
X121771368Y70998170D01*
X121789781Y70987134D01*
X121807024Y70974346D01*
X121822930Y70959930D01*
X121837346Y70944024D01*
X121850134Y70926781D01*
X121861170Y70908368D01*
X121870349Y70888962D01*
X121877581Y70868750D01*
X121882797Y70847926D01*
X121885947Y70826691D01*
X121887000Y70805250D01*
X121887000Y70367750D01*
X121885947Y70346309D01*
X121882797Y70325074D01*
X121877581Y70304250D01*
X121870349Y70284038D01*
X121861170Y70264632D01*
X121850134Y70246219D01*
X121837346Y70228976D01*
X121822930Y70213070D01*
X121807024Y70198654D01*
X121789781Y70185866D01*
X121771368Y70174830D01*
X121751962Y70165651D01*
X121731750Y70158419D01*
X121710926Y70153203D01*
X121689691Y70150053D01*
X121668250Y70149000D01*
X121155750Y70149000D01*
X121134309Y70150053D01*
X121113074Y70153203D01*
X121092250Y70158419D01*
X121072038Y70165651D01*
X121052632Y70174830D01*
X121034219Y70185866D01*
X121016976Y70198654D01*
X121001070Y70213070D01*
X120986654Y70228976D01*
X120973866Y70246219D01*
X120962830Y70264632D01*
X120953651Y70284038D01*
X120946419Y70304250D01*
X120941203Y70325074D01*
X120938053Y70346309D01*
X120937000Y70367750D01*
X120937000Y70805250D01*
X120938053Y70826691D01*
X120941203Y70847926D01*
X120946419Y70868750D01*
X120953651Y70888962D01*
X120962830Y70908368D01*
X120973866Y70926781D01*
X120986654Y70944024D01*
X121001070Y70959930D01*
X121016976Y70974346D01*
X121034219Y70987134D01*
X121052632Y70998170D01*
X121072038Y71007349D01*
X121092250Y71014581D01*
X121113074Y71019797D01*
X121134309Y71022947D01*
X121155750Y71024000D01*
X121668250Y71024000D01*
X121689691Y71022947D01*
X121689691Y71022947D01*
G37*
D11*
X121412000Y70586500D03*
D10*
G36*
X121689691Y72597947D02*
G01*
X121710926Y72594797D01*
X121731750Y72589581D01*
X121751962Y72582349D01*
X121771368Y72573170D01*
X121789781Y72562134D01*
X121807024Y72549346D01*
X121822930Y72534930D01*
X121837346Y72519024D01*
X121850134Y72501781D01*
X121861170Y72483368D01*
X121870349Y72463962D01*
X121877581Y72443750D01*
X121882797Y72422926D01*
X121885947Y72401691D01*
X121887000Y72380250D01*
X121887000Y71942750D01*
X121885947Y71921309D01*
X121882797Y71900074D01*
X121877581Y71879250D01*
X121870349Y71859038D01*
X121861170Y71839632D01*
X121850134Y71821219D01*
X121837346Y71803976D01*
X121822930Y71788070D01*
X121807024Y71773654D01*
X121789781Y71760866D01*
X121771368Y71749830D01*
X121751962Y71740651D01*
X121731750Y71733419D01*
X121710926Y71728203D01*
X121689691Y71725053D01*
X121668250Y71724000D01*
X121155750Y71724000D01*
X121134309Y71725053D01*
X121113074Y71728203D01*
X121092250Y71733419D01*
X121072038Y71740651D01*
X121052632Y71749830D01*
X121034219Y71760866D01*
X121016976Y71773654D01*
X121001070Y71788070D01*
X120986654Y71803976D01*
X120973866Y71821219D01*
X120962830Y71839632D01*
X120953651Y71859038D01*
X120946419Y71879250D01*
X120941203Y71900074D01*
X120938053Y71921309D01*
X120937000Y71942750D01*
X120937000Y72380250D01*
X120938053Y72401691D01*
X120941203Y72422926D01*
X120946419Y72443750D01*
X120953651Y72463962D01*
X120962830Y72483368D01*
X120973866Y72501781D01*
X120986654Y72519024D01*
X121001070Y72534930D01*
X121016976Y72549346D01*
X121034219Y72562134D01*
X121052632Y72573170D01*
X121072038Y72582349D01*
X121092250Y72589581D01*
X121113074Y72594797D01*
X121134309Y72597947D01*
X121155750Y72599000D01*
X121668250Y72599000D01*
X121689691Y72597947D01*
X121689691Y72597947D01*
G37*
D11*
X121412000Y72161500D03*
D12*
X96148000Y72009000D03*
X96148000Y73279000D03*
X96148000Y74549000D03*
X96148000Y75819000D03*
X96148000Y77089000D03*
X96148000Y78359000D03*
X96148000Y79629000D03*
X96148000Y80899000D03*
X96148000Y82169000D03*
X96148000Y83439000D03*
X96148000Y84709000D03*
X96148000Y85979000D03*
X96148000Y87249000D03*
X96148000Y88519000D03*
D13*
X98933000Y89519000D03*
X100203000Y89519000D03*
X101473000Y89519000D03*
X102743000Y89519000D03*
X104013000Y89519000D03*
X105283000Y89519000D03*
X106553000Y89519000D03*
X107823000Y89519000D03*
X109093000Y89519000D03*
X110363000Y89519000D03*
D12*
X113148000Y88519000D03*
X113148000Y87249000D03*
X113148000Y85979000D03*
X113148000Y84709000D03*
X113148000Y83439000D03*
X113148000Y82169000D03*
X113148000Y80899000D03*
X113148000Y79629000D03*
X113148000Y78359000D03*
X113148000Y77089000D03*
X113148000Y75819000D03*
X113148000Y74549000D03*
X113148000Y73279000D03*
X113148000Y72009000D03*
D14*
X105648000Y79509000D03*
D15*
X127419100Y70994001D03*
X127419100Y71494000D03*
X127419100Y71994001D03*
X127419100Y72494000D03*
X127419100Y72994002D03*
X127419100Y73494001D03*
X127419100Y73994000D03*
X127419100Y74494001D03*
X127419100Y74994000D03*
X127419100Y75494002D03*
X127419100Y75994001D03*
X127419100Y76494000D03*
X127419100Y76994001D03*
X127419100Y77494000D03*
X127419100Y77994002D03*
X127419100Y78494001D03*
X127419100Y78994000D03*
X127419100Y79494002D03*
X127419100Y79994001D03*
X127419100Y80494000D03*
X127419100Y80994001D03*
X127419100Y81494000D03*
X127419100Y81994002D03*
X127419100Y82494001D03*
X127419100Y82994000D03*
X127419100Y83494001D03*
X127419100Y83994000D03*
X127419100Y84494002D03*
X127419100Y84994001D03*
X127419100Y85494000D03*
X127419100Y85994001D03*
X127419100Y86494000D03*
X127419100Y86994002D03*
D16*
X131432300Y88646000D03*
X131432300Y69342000D03*
D10*
G36*
X101935428Y101289218D02*
G01*
X101951202Y101286878D01*
X101966671Y101283003D01*
X101981686Y101277630D01*
X101996102Y101270812D01*
X102009780Y101262614D01*
X102022589Y101253114D01*
X102034405Y101242405D01*
X102045114Y101230589D01*
X102054614Y101217780D01*
X102062812Y101204102D01*
X102069630Y101189686D01*
X102075003Y101174671D01*
X102078878Y101159202D01*
X102081218Y101143428D01*
X102082000Y101127500D01*
X102082000Y100802500D01*
X102081218Y100786572D01*
X102078878Y100770798D01*
X102075003Y100755329D01*
X102069630Y100740314D01*
X102062812Y100725898D01*
X102054614Y100712220D01*
X102045114Y100699411D01*
X102034405Y100687595D01*
X102022589Y100676886D01*
X102009780Y100667386D01*
X101996102Y100659188D01*
X101981686Y100652370D01*
X101966671Y100646997D01*
X101951202Y100643122D01*
X101935428Y100640782D01*
X101919500Y100640000D01*
X100269500Y100640000D01*
X100253572Y100640782D01*
X100237798Y100643122D01*
X100222329Y100646997D01*
X100207314Y100652370D01*
X100192898Y100659188D01*
X100179220Y100667386D01*
X100166411Y100676886D01*
X100154595Y100687595D01*
X100143886Y100699411D01*
X100134386Y100712220D01*
X100126188Y100725898D01*
X100119370Y100740314D01*
X100113997Y100755329D01*
X100110122Y100770798D01*
X100107782Y100786572D01*
X100107000Y100802500D01*
X100107000Y101127500D01*
X100107782Y101143428D01*
X100110122Y101159202D01*
X100113997Y101174671D01*
X100119370Y101189686D01*
X100126188Y101204102D01*
X100134386Y101217780D01*
X100143886Y101230589D01*
X100154595Y101242405D01*
X100166411Y101253114D01*
X100179220Y101262614D01*
X100192898Y101270812D01*
X100207314Y101277630D01*
X100222329Y101283003D01*
X100237798Y101286878D01*
X100253572Y101289218D01*
X100269500Y101290000D01*
X101919500Y101290000D01*
X101935428Y101289218D01*
X101935428Y101289218D01*
G37*
D17*
X101094500Y100965000D03*
D10*
G36*
X101935428Y102559218D02*
G01*
X101951202Y102556878D01*
X101966671Y102553003D01*
X101981686Y102547630D01*
X101996102Y102540812D01*
X102009780Y102532614D01*
X102022589Y102523114D01*
X102034405Y102512405D01*
X102045114Y102500589D01*
X102054614Y102487780D01*
X102062812Y102474102D01*
X102069630Y102459686D01*
X102075003Y102444671D01*
X102078878Y102429202D01*
X102081218Y102413428D01*
X102082000Y102397500D01*
X102082000Y102072500D01*
X102081218Y102056572D01*
X102078878Y102040798D01*
X102075003Y102025329D01*
X102069630Y102010314D01*
X102062812Y101995898D01*
X102054614Y101982220D01*
X102045114Y101969411D01*
X102034405Y101957595D01*
X102022589Y101946886D01*
X102009780Y101937386D01*
X101996102Y101929188D01*
X101981686Y101922370D01*
X101966671Y101916997D01*
X101951202Y101913122D01*
X101935428Y101910782D01*
X101919500Y101910000D01*
X100269500Y101910000D01*
X100253572Y101910782D01*
X100237798Y101913122D01*
X100222329Y101916997D01*
X100207314Y101922370D01*
X100192898Y101929188D01*
X100179220Y101937386D01*
X100166411Y101946886D01*
X100154595Y101957595D01*
X100143886Y101969411D01*
X100134386Y101982220D01*
X100126188Y101995898D01*
X100119370Y102010314D01*
X100113997Y102025329D01*
X100110122Y102040798D01*
X100107782Y102056572D01*
X100107000Y102072500D01*
X100107000Y102397500D01*
X100107782Y102413428D01*
X100110122Y102429202D01*
X100113997Y102444671D01*
X100119370Y102459686D01*
X100126188Y102474102D01*
X100134386Y102487780D01*
X100143886Y102500589D01*
X100154595Y102512405D01*
X100166411Y102523114D01*
X100179220Y102532614D01*
X100192898Y102540812D01*
X100207314Y102547630D01*
X100222329Y102553003D01*
X100237798Y102556878D01*
X100253572Y102559218D01*
X100269500Y102560000D01*
X101919500Y102560000D01*
X101935428Y102559218D01*
X101935428Y102559218D01*
G37*
D17*
X101094500Y102235000D03*
D10*
G36*
X101935428Y103829218D02*
G01*
X101951202Y103826878D01*
X101966671Y103823003D01*
X101981686Y103817630D01*
X101996102Y103810812D01*
X102009780Y103802614D01*
X102022589Y103793114D01*
X102034405Y103782405D01*
X102045114Y103770589D01*
X102054614Y103757780D01*
X102062812Y103744102D01*
X102069630Y103729686D01*
X102075003Y103714671D01*
X102078878Y103699202D01*
X102081218Y103683428D01*
X102082000Y103667500D01*
X102082000Y103342500D01*
X102081218Y103326572D01*
X102078878Y103310798D01*
X102075003Y103295329D01*
X102069630Y103280314D01*
X102062812Y103265898D01*
X102054614Y103252220D01*
X102045114Y103239411D01*
X102034405Y103227595D01*
X102022589Y103216886D01*
X102009780Y103207386D01*
X101996102Y103199188D01*
X101981686Y103192370D01*
X101966671Y103186997D01*
X101951202Y103183122D01*
X101935428Y103180782D01*
X101919500Y103180000D01*
X100269500Y103180000D01*
X100253572Y103180782D01*
X100237798Y103183122D01*
X100222329Y103186997D01*
X100207314Y103192370D01*
X100192898Y103199188D01*
X100179220Y103207386D01*
X100166411Y103216886D01*
X100154595Y103227595D01*
X100143886Y103239411D01*
X100134386Y103252220D01*
X100126188Y103265898D01*
X100119370Y103280314D01*
X100113997Y103295329D01*
X100110122Y103310798D01*
X100107782Y103326572D01*
X100107000Y103342500D01*
X100107000Y103667500D01*
X100107782Y103683428D01*
X100110122Y103699202D01*
X100113997Y103714671D01*
X100119370Y103729686D01*
X100126188Y103744102D01*
X100134386Y103757780D01*
X100143886Y103770589D01*
X100154595Y103782405D01*
X100166411Y103793114D01*
X100179220Y103802614D01*
X100192898Y103810812D01*
X100207314Y103817630D01*
X100222329Y103823003D01*
X100237798Y103826878D01*
X100253572Y103829218D01*
X100269500Y103830000D01*
X101919500Y103830000D01*
X101935428Y103829218D01*
X101935428Y103829218D01*
G37*
D17*
X101094500Y103505000D03*
D10*
G36*
X101935428Y105099218D02*
G01*
X101951202Y105096878D01*
X101966671Y105093003D01*
X101981686Y105087630D01*
X101996102Y105080812D01*
X102009780Y105072614D01*
X102022589Y105063114D01*
X102034405Y105052405D01*
X102045114Y105040589D01*
X102054614Y105027780D01*
X102062812Y105014102D01*
X102069630Y104999686D01*
X102075003Y104984671D01*
X102078878Y104969202D01*
X102081218Y104953428D01*
X102082000Y104937500D01*
X102082000Y104612500D01*
X102081218Y104596572D01*
X102078878Y104580798D01*
X102075003Y104565329D01*
X102069630Y104550314D01*
X102062812Y104535898D01*
X102054614Y104522220D01*
X102045114Y104509411D01*
X102034405Y104497595D01*
X102022589Y104486886D01*
X102009780Y104477386D01*
X101996102Y104469188D01*
X101981686Y104462370D01*
X101966671Y104456997D01*
X101951202Y104453122D01*
X101935428Y104450782D01*
X101919500Y104450000D01*
X100269500Y104450000D01*
X100253572Y104450782D01*
X100237798Y104453122D01*
X100222329Y104456997D01*
X100207314Y104462370D01*
X100192898Y104469188D01*
X100179220Y104477386D01*
X100166411Y104486886D01*
X100154595Y104497595D01*
X100143886Y104509411D01*
X100134386Y104522220D01*
X100126188Y104535898D01*
X100119370Y104550314D01*
X100113997Y104565329D01*
X100110122Y104580798D01*
X100107782Y104596572D01*
X100107000Y104612500D01*
X100107000Y104937500D01*
X100107782Y104953428D01*
X100110122Y104969202D01*
X100113997Y104984671D01*
X100119370Y104999686D01*
X100126188Y105014102D01*
X100134386Y105027780D01*
X100143886Y105040589D01*
X100154595Y105052405D01*
X100166411Y105063114D01*
X100179220Y105072614D01*
X100192898Y105080812D01*
X100207314Y105087630D01*
X100222329Y105093003D01*
X100237798Y105096878D01*
X100253572Y105099218D01*
X100269500Y105100000D01*
X101919500Y105100000D01*
X101935428Y105099218D01*
X101935428Y105099218D01*
G37*
D17*
X101094500Y104775000D03*
D10*
G36*
X107010428Y105099218D02*
G01*
X107026202Y105096878D01*
X107041671Y105093003D01*
X107056686Y105087630D01*
X107071102Y105080812D01*
X107084780Y105072614D01*
X107097589Y105063114D01*
X107109405Y105052405D01*
X107120114Y105040589D01*
X107129614Y105027780D01*
X107137812Y105014102D01*
X107144630Y104999686D01*
X107150003Y104984671D01*
X107153878Y104969202D01*
X107156218Y104953428D01*
X107157000Y104937500D01*
X107157000Y104612500D01*
X107156218Y104596572D01*
X107153878Y104580798D01*
X107150003Y104565329D01*
X107144630Y104550314D01*
X107137812Y104535898D01*
X107129614Y104522220D01*
X107120114Y104509411D01*
X107109405Y104497595D01*
X107097589Y104486886D01*
X107084780Y104477386D01*
X107071102Y104469188D01*
X107056686Y104462370D01*
X107041671Y104456997D01*
X107026202Y104453122D01*
X107010428Y104450782D01*
X106994500Y104450000D01*
X105344500Y104450000D01*
X105328572Y104450782D01*
X105312798Y104453122D01*
X105297329Y104456997D01*
X105282314Y104462370D01*
X105267898Y104469188D01*
X105254220Y104477386D01*
X105241411Y104486886D01*
X105229595Y104497595D01*
X105218886Y104509411D01*
X105209386Y104522220D01*
X105201188Y104535898D01*
X105194370Y104550314D01*
X105188997Y104565329D01*
X105185122Y104580798D01*
X105182782Y104596572D01*
X105182000Y104612500D01*
X105182000Y104937500D01*
X105182782Y104953428D01*
X105185122Y104969202D01*
X105188997Y104984671D01*
X105194370Y104999686D01*
X105201188Y105014102D01*
X105209386Y105027780D01*
X105218886Y105040589D01*
X105229595Y105052405D01*
X105241411Y105063114D01*
X105254220Y105072614D01*
X105267898Y105080812D01*
X105282314Y105087630D01*
X105297329Y105093003D01*
X105312798Y105096878D01*
X105328572Y105099218D01*
X105344500Y105100000D01*
X106994500Y105100000D01*
X107010428Y105099218D01*
X107010428Y105099218D01*
G37*
D17*
X106169500Y104775000D03*
D10*
G36*
X107010428Y103829218D02*
G01*
X107026202Y103826878D01*
X107041671Y103823003D01*
X107056686Y103817630D01*
X107071102Y103810812D01*
X107084780Y103802614D01*
X107097589Y103793114D01*
X107109405Y103782405D01*
X107120114Y103770589D01*
X107129614Y103757780D01*
X107137812Y103744102D01*
X107144630Y103729686D01*
X107150003Y103714671D01*
X107153878Y103699202D01*
X107156218Y103683428D01*
X107157000Y103667500D01*
X107157000Y103342500D01*
X107156218Y103326572D01*
X107153878Y103310798D01*
X107150003Y103295329D01*
X107144630Y103280314D01*
X107137812Y103265898D01*
X107129614Y103252220D01*
X107120114Y103239411D01*
X107109405Y103227595D01*
X107097589Y103216886D01*
X107084780Y103207386D01*
X107071102Y103199188D01*
X107056686Y103192370D01*
X107041671Y103186997D01*
X107026202Y103183122D01*
X107010428Y103180782D01*
X106994500Y103180000D01*
X105344500Y103180000D01*
X105328572Y103180782D01*
X105312798Y103183122D01*
X105297329Y103186997D01*
X105282314Y103192370D01*
X105267898Y103199188D01*
X105254220Y103207386D01*
X105241411Y103216886D01*
X105229595Y103227595D01*
X105218886Y103239411D01*
X105209386Y103252220D01*
X105201188Y103265898D01*
X105194370Y103280314D01*
X105188997Y103295329D01*
X105185122Y103310798D01*
X105182782Y103326572D01*
X105182000Y103342500D01*
X105182000Y103667500D01*
X105182782Y103683428D01*
X105185122Y103699202D01*
X105188997Y103714671D01*
X105194370Y103729686D01*
X105201188Y103744102D01*
X105209386Y103757780D01*
X105218886Y103770589D01*
X105229595Y103782405D01*
X105241411Y103793114D01*
X105254220Y103802614D01*
X105267898Y103810812D01*
X105282314Y103817630D01*
X105297329Y103823003D01*
X105312798Y103826878D01*
X105328572Y103829218D01*
X105344500Y103830000D01*
X106994500Y103830000D01*
X107010428Y103829218D01*
X107010428Y103829218D01*
G37*
D17*
X106169500Y103505000D03*
D10*
G36*
X107010428Y102559218D02*
G01*
X107026202Y102556878D01*
X107041671Y102553003D01*
X107056686Y102547630D01*
X107071102Y102540812D01*
X107084780Y102532614D01*
X107097589Y102523114D01*
X107109405Y102512405D01*
X107120114Y102500589D01*
X107129614Y102487780D01*
X107137812Y102474102D01*
X107144630Y102459686D01*
X107150003Y102444671D01*
X107153878Y102429202D01*
X107156218Y102413428D01*
X107157000Y102397500D01*
X107157000Y102072500D01*
X107156218Y102056572D01*
X107153878Y102040798D01*
X107150003Y102025329D01*
X107144630Y102010314D01*
X107137812Y101995898D01*
X107129614Y101982220D01*
X107120114Y101969411D01*
X107109405Y101957595D01*
X107097589Y101946886D01*
X107084780Y101937386D01*
X107071102Y101929188D01*
X107056686Y101922370D01*
X107041671Y101916997D01*
X107026202Y101913122D01*
X107010428Y101910782D01*
X106994500Y101910000D01*
X105344500Y101910000D01*
X105328572Y101910782D01*
X105312798Y101913122D01*
X105297329Y101916997D01*
X105282314Y101922370D01*
X105267898Y101929188D01*
X105254220Y101937386D01*
X105241411Y101946886D01*
X105229595Y101957595D01*
X105218886Y101969411D01*
X105209386Y101982220D01*
X105201188Y101995898D01*
X105194370Y102010314D01*
X105188997Y102025329D01*
X105185122Y102040798D01*
X105182782Y102056572D01*
X105182000Y102072500D01*
X105182000Y102397500D01*
X105182782Y102413428D01*
X105185122Y102429202D01*
X105188997Y102444671D01*
X105194370Y102459686D01*
X105201188Y102474102D01*
X105209386Y102487780D01*
X105218886Y102500589D01*
X105229595Y102512405D01*
X105241411Y102523114D01*
X105254220Y102532614D01*
X105267898Y102540812D01*
X105282314Y102547630D01*
X105297329Y102553003D01*
X105312798Y102556878D01*
X105328572Y102559218D01*
X105344500Y102560000D01*
X106994500Y102560000D01*
X107010428Y102559218D01*
X107010428Y102559218D01*
G37*
D17*
X106169500Y102235000D03*
D10*
G36*
X107010428Y101289218D02*
G01*
X107026202Y101286878D01*
X107041671Y101283003D01*
X107056686Y101277630D01*
X107071102Y101270812D01*
X107084780Y101262614D01*
X107097589Y101253114D01*
X107109405Y101242405D01*
X107120114Y101230589D01*
X107129614Y101217780D01*
X107137812Y101204102D01*
X107144630Y101189686D01*
X107150003Y101174671D01*
X107153878Y101159202D01*
X107156218Y101143428D01*
X107157000Y101127500D01*
X107157000Y100802500D01*
X107156218Y100786572D01*
X107153878Y100770798D01*
X107150003Y100755329D01*
X107144630Y100740314D01*
X107137812Y100725898D01*
X107129614Y100712220D01*
X107120114Y100699411D01*
X107109405Y100687595D01*
X107097589Y100676886D01*
X107084780Y100667386D01*
X107071102Y100659188D01*
X107056686Y100652370D01*
X107041671Y100646997D01*
X107026202Y100643122D01*
X107010428Y100640782D01*
X106994500Y100640000D01*
X105344500Y100640000D01*
X105328572Y100640782D01*
X105312798Y100643122D01*
X105297329Y100646997D01*
X105282314Y100652370D01*
X105267898Y100659188D01*
X105254220Y100667386D01*
X105241411Y100676886D01*
X105229595Y100687595D01*
X105218886Y100699411D01*
X105209386Y100712220D01*
X105201188Y100725898D01*
X105194370Y100740314D01*
X105188997Y100755329D01*
X105185122Y100770798D01*
X105182782Y100786572D01*
X105182000Y100802500D01*
X105182000Y101127500D01*
X105182782Y101143428D01*
X105185122Y101159202D01*
X105188997Y101174671D01*
X105194370Y101189686D01*
X105201188Y101204102D01*
X105209386Y101217780D01*
X105218886Y101230589D01*
X105229595Y101242405D01*
X105241411Y101253114D01*
X105254220Y101262614D01*
X105267898Y101270812D01*
X105282314Y101277630D01*
X105297329Y101283003D01*
X105312798Y101286878D01*
X105328572Y101289218D01*
X105344500Y101290000D01*
X106994500Y101290000D01*
X107010428Y101289218D01*
X107010428Y101289218D01*
G37*
D17*
X106169500Y100965000D03*
D10*
G36*
X72402703Y80055278D02*
G01*
X72417264Y80053118D01*
X72431543Y80049541D01*
X72445403Y80044582D01*
X72458710Y80038288D01*
X72471336Y80030720D01*
X72483159Y80021952D01*
X72494066Y80012066D01*
X72503952Y80001159D01*
X72512720Y79989336D01*
X72520288Y79976710D01*
X72526582Y79963403D01*
X72531541Y79949543D01*
X72535118Y79935264D01*
X72537278Y79920703D01*
X72538000Y79906000D01*
X72538000Y79606000D01*
X72537278Y79591297D01*
X72535118Y79576736D01*
X72531541Y79562457D01*
X72526582Y79548597D01*
X72520288Y79535290D01*
X72512720Y79522664D01*
X72503952Y79510841D01*
X72494066Y79499934D01*
X72483159Y79490048D01*
X72471336Y79481280D01*
X72458710Y79473712D01*
X72445403Y79467418D01*
X72431543Y79462459D01*
X72417264Y79458882D01*
X72402703Y79456722D01*
X72388000Y79456000D01*
X70738000Y79456000D01*
X70723297Y79456722D01*
X70708736Y79458882D01*
X70694457Y79462459D01*
X70680597Y79467418D01*
X70667290Y79473712D01*
X70654664Y79481280D01*
X70642841Y79490048D01*
X70631934Y79499934D01*
X70622048Y79510841D01*
X70613280Y79522664D01*
X70605712Y79535290D01*
X70599418Y79548597D01*
X70594459Y79562457D01*
X70590882Y79576736D01*
X70588722Y79591297D01*
X70588000Y79606000D01*
X70588000Y79906000D01*
X70588722Y79920703D01*
X70590882Y79935264D01*
X70594459Y79949543D01*
X70599418Y79963403D01*
X70605712Y79976710D01*
X70613280Y79989336D01*
X70622048Y80001159D01*
X70631934Y80012066D01*
X70642841Y80021952D01*
X70654664Y80030720D01*
X70667290Y80038288D01*
X70680597Y80044582D01*
X70694457Y80049541D01*
X70708736Y80053118D01*
X70723297Y80055278D01*
X70738000Y80056000D01*
X72388000Y80056000D01*
X72402703Y80055278D01*
X72402703Y80055278D01*
G37*
D18*
X71563000Y79756000D03*
D10*
G36*
X72402703Y78785278D02*
G01*
X72417264Y78783118D01*
X72431543Y78779541D01*
X72445403Y78774582D01*
X72458710Y78768288D01*
X72471336Y78760720D01*
X72483159Y78751952D01*
X72494066Y78742066D01*
X72503952Y78731159D01*
X72512720Y78719336D01*
X72520288Y78706710D01*
X72526582Y78693403D01*
X72531541Y78679543D01*
X72535118Y78665264D01*
X72537278Y78650703D01*
X72538000Y78636000D01*
X72538000Y78336000D01*
X72537278Y78321297D01*
X72535118Y78306736D01*
X72531541Y78292457D01*
X72526582Y78278597D01*
X72520288Y78265290D01*
X72512720Y78252664D01*
X72503952Y78240841D01*
X72494066Y78229934D01*
X72483159Y78220048D01*
X72471336Y78211280D01*
X72458710Y78203712D01*
X72445403Y78197418D01*
X72431543Y78192459D01*
X72417264Y78188882D01*
X72402703Y78186722D01*
X72388000Y78186000D01*
X70738000Y78186000D01*
X70723297Y78186722D01*
X70708736Y78188882D01*
X70694457Y78192459D01*
X70680597Y78197418D01*
X70667290Y78203712D01*
X70654664Y78211280D01*
X70642841Y78220048D01*
X70631934Y78229934D01*
X70622048Y78240841D01*
X70613280Y78252664D01*
X70605712Y78265290D01*
X70599418Y78278597D01*
X70594459Y78292457D01*
X70590882Y78306736D01*
X70588722Y78321297D01*
X70588000Y78336000D01*
X70588000Y78636000D01*
X70588722Y78650703D01*
X70590882Y78665264D01*
X70594459Y78679543D01*
X70599418Y78693403D01*
X70605712Y78706710D01*
X70613280Y78719336D01*
X70622048Y78731159D01*
X70631934Y78742066D01*
X70642841Y78751952D01*
X70654664Y78760720D01*
X70667290Y78768288D01*
X70680597Y78774582D01*
X70694457Y78779541D01*
X70708736Y78783118D01*
X70723297Y78785278D01*
X70738000Y78786000D01*
X72388000Y78786000D01*
X72402703Y78785278D01*
X72402703Y78785278D01*
G37*
D18*
X71563000Y78486000D03*
D10*
G36*
X72402703Y77515278D02*
G01*
X72417264Y77513118D01*
X72431543Y77509541D01*
X72445403Y77504582D01*
X72458710Y77498288D01*
X72471336Y77490720D01*
X72483159Y77481952D01*
X72494066Y77472066D01*
X72503952Y77461159D01*
X72512720Y77449336D01*
X72520288Y77436710D01*
X72526582Y77423403D01*
X72531541Y77409543D01*
X72535118Y77395264D01*
X72537278Y77380703D01*
X72538000Y77366000D01*
X72538000Y77066000D01*
X72537278Y77051297D01*
X72535118Y77036736D01*
X72531541Y77022457D01*
X72526582Y77008597D01*
X72520288Y76995290D01*
X72512720Y76982664D01*
X72503952Y76970841D01*
X72494066Y76959934D01*
X72483159Y76950048D01*
X72471336Y76941280D01*
X72458710Y76933712D01*
X72445403Y76927418D01*
X72431543Y76922459D01*
X72417264Y76918882D01*
X72402703Y76916722D01*
X72388000Y76916000D01*
X70738000Y76916000D01*
X70723297Y76916722D01*
X70708736Y76918882D01*
X70694457Y76922459D01*
X70680597Y76927418D01*
X70667290Y76933712D01*
X70654664Y76941280D01*
X70642841Y76950048D01*
X70631934Y76959934D01*
X70622048Y76970841D01*
X70613280Y76982664D01*
X70605712Y76995290D01*
X70599418Y77008597D01*
X70594459Y77022457D01*
X70590882Y77036736D01*
X70588722Y77051297D01*
X70588000Y77066000D01*
X70588000Y77366000D01*
X70588722Y77380703D01*
X70590882Y77395264D01*
X70594459Y77409543D01*
X70599418Y77423403D01*
X70605712Y77436710D01*
X70613280Y77449336D01*
X70622048Y77461159D01*
X70631934Y77472066D01*
X70642841Y77481952D01*
X70654664Y77490720D01*
X70667290Y77498288D01*
X70680597Y77504582D01*
X70694457Y77509541D01*
X70708736Y77513118D01*
X70723297Y77515278D01*
X70738000Y77516000D01*
X72388000Y77516000D01*
X72402703Y77515278D01*
X72402703Y77515278D01*
G37*
D18*
X71563000Y77216000D03*
D10*
G36*
X72402703Y76245278D02*
G01*
X72417264Y76243118D01*
X72431543Y76239541D01*
X72445403Y76234582D01*
X72458710Y76228288D01*
X72471336Y76220720D01*
X72483159Y76211952D01*
X72494066Y76202066D01*
X72503952Y76191159D01*
X72512720Y76179336D01*
X72520288Y76166710D01*
X72526582Y76153403D01*
X72531541Y76139543D01*
X72535118Y76125264D01*
X72537278Y76110703D01*
X72538000Y76096000D01*
X72538000Y75796000D01*
X72537278Y75781297D01*
X72535118Y75766736D01*
X72531541Y75752457D01*
X72526582Y75738597D01*
X72520288Y75725290D01*
X72512720Y75712664D01*
X72503952Y75700841D01*
X72494066Y75689934D01*
X72483159Y75680048D01*
X72471336Y75671280D01*
X72458710Y75663712D01*
X72445403Y75657418D01*
X72431543Y75652459D01*
X72417264Y75648882D01*
X72402703Y75646722D01*
X72388000Y75646000D01*
X70738000Y75646000D01*
X70723297Y75646722D01*
X70708736Y75648882D01*
X70694457Y75652459D01*
X70680597Y75657418D01*
X70667290Y75663712D01*
X70654664Y75671280D01*
X70642841Y75680048D01*
X70631934Y75689934D01*
X70622048Y75700841D01*
X70613280Y75712664D01*
X70605712Y75725290D01*
X70599418Y75738597D01*
X70594459Y75752457D01*
X70590882Y75766736D01*
X70588722Y75781297D01*
X70588000Y75796000D01*
X70588000Y76096000D01*
X70588722Y76110703D01*
X70590882Y76125264D01*
X70594459Y76139543D01*
X70599418Y76153403D01*
X70605712Y76166710D01*
X70613280Y76179336D01*
X70622048Y76191159D01*
X70631934Y76202066D01*
X70642841Y76211952D01*
X70654664Y76220720D01*
X70667290Y76228288D01*
X70680597Y76234582D01*
X70694457Y76239541D01*
X70708736Y76243118D01*
X70723297Y76245278D01*
X70738000Y76246000D01*
X72388000Y76246000D01*
X72402703Y76245278D01*
X72402703Y76245278D01*
G37*
D18*
X71563000Y75946000D03*
D10*
G36*
X67452703Y76245278D02*
G01*
X67467264Y76243118D01*
X67481543Y76239541D01*
X67495403Y76234582D01*
X67508710Y76228288D01*
X67521336Y76220720D01*
X67533159Y76211952D01*
X67544066Y76202066D01*
X67553952Y76191159D01*
X67562720Y76179336D01*
X67570288Y76166710D01*
X67576582Y76153403D01*
X67581541Y76139543D01*
X67585118Y76125264D01*
X67587278Y76110703D01*
X67588000Y76096000D01*
X67588000Y75796000D01*
X67587278Y75781297D01*
X67585118Y75766736D01*
X67581541Y75752457D01*
X67576582Y75738597D01*
X67570288Y75725290D01*
X67562720Y75712664D01*
X67553952Y75700841D01*
X67544066Y75689934D01*
X67533159Y75680048D01*
X67521336Y75671280D01*
X67508710Y75663712D01*
X67495403Y75657418D01*
X67481543Y75652459D01*
X67467264Y75648882D01*
X67452703Y75646722D01*
X67438000Y75646000D01*
X65788000Y75646000D01*
X65773297Y75646722D01*
X65758736Y75648882D01*
X65744457Y75652459D01*
X65730597Y75657418D01*
X65717290Y75663712D01*
X65704664Y75671280D01*
X65692841Y75680048D01*
X65681934Y75689934D01*
X65672048Y75700841D01*
X65663280Y75712664D01*
X65655712Y75725290D01*
X65649418Y75738597D01*
X65644459Y75752457D01*
X65640882Y75766736D01*
X65638722Y75781297D01*
X65638000Y75796000D01*
X65638000Y76096000D01*
X65638722Y76110703D01*
X65640882Y76125264D01*
X65644459Y76139543D01*
X65649418Y76153403D01*
X65655712Y76166710D01*
X65663280Y76179336D01*
X65672048Y76191159D01*
X65681934Y76202066D01*
X65692841Y76211952D01*
X65704664Y76220720D01*
X65717290Y76228288D01*
X65730597Y76234582D01*
X65744457Y76239541D01*
X65758736Y76243118D01*
X65773297Y76245278D01*
X65788000Y76246000D01*
X67438000Y76246000D01*
X67452703Y76245278D01*
X67452703Y76245278D01*
G37*
D18*
X66613000Y75946000D03*
D10*
G36*
X67452703Y77515278D02*
G01*
X67467264Y77513118D01*
X67481543Y77509541D01*
X67495403Y77504582D01*
X67508710Y77498288D01*
X67521336Y77490720D01*
X67533159Y77481952D01*
X67544066Y77472066D01*
X67553952Y77461159D01*
X67562720Y77449336D01*
X67570288Y77436710D01*
X67576582Y77423403D01*
X67581541Y77409543D01*
X67585118Y77395264D01*
X67587278Y77380703D01*
X67588000Y77366000D01*
X67588000Y77066000D01*
X67587278Y77051297D01*
X67585118Y77036736D01*
X67581541Y77022457D01*
X67576582Y77008597D01*
X67570288Y76995290D01*
X67562720Y76982664D01*
X67553952Y76970841D01*
X67544066Y76959934D01*
X67533159Y76950048D01*
X67521336Y76941280D01*
X67508710Y76933712D01*
X67495403Y76927418D01*
X67481543Y76922459D01*
X67467264Y76918882D01*
X67452703Y76916722D01*
X67438000Y76916000D01*
X65788000Y76916000D01*
X65773297Y76916722D01*
X65758736Y76918882D01*
X65744457Y76922459D01*
X65730597Y76927418D01*
X65717290Y76933712D01*
X65704664Y76941280D01*
X65692841Y76950048D01*
X65681934Y76959934D01*
X65672048Y76970841D01*
X65663280Y76982664D01*
X65655712Y76995290D01*
X65649418Y77008597D01*
X65644459Y77022457D01*
X65640882Y77036736D01*
X65638722Y77051297D01*
X65638000Y77066000D01*
X65638000Y77366000D01*
X65638722Y77380703D01*
X65640882Y77395264D01*
X65644459Y77409543D01*
X65649418Y77423403D01*
X65655712Y77436710D01*
X65663280Y77449336D01*
X65672048Y77461159D01*
X65681934Y77472066D01*
X65692841Y77481952D01*
X65704664Y77490720D01*
X65717290Y77498288D01*
X65730597Y77504582D01*
X65744457Y77509541D01*
X65758736Y77513118D01*
X65773297Y77515278D01*
X65788000Y77516000D01*
X67438000Y77516000D01*
X67452703Y77515278D01*
X67452703Y77515278D01*
G37*
D18*
X66613000Y77216000D03*
D10*
G36*
X67452703Y78785278D02*
G01*
X67467264Y78783118D01*
X67481543Y78779541D01*
X67495403Y78774582D01*
X67508710Y78768288D01*
X67521336Y78760720D01*
X67533159Y78751952D01*
X67544066Y78742066D01*
X67553952Y78731159D01*
X67562720Y78719336D01*
X67570288Y78706710D01*
X67576582Y78693403D01*
X67581541Y78679543D01*
X67585118Y78665264D01*
X67587278Y78650703D01*
X67588000Y78636000D01*
X67588000Y78336000D01*
X67587278Y78321297D01*
X67585118Y78306736D01*
X67581541Y78292457D01*
X67576582Y78278597D01*
X67570288Y78265290D01*
X67562720Y78252664D01*
X67553952Y78240841D01*
X67544066Y78229934D01*
X67533159Y78220048D01*
X67521336Y78211280D01*
X67508710Y78203712D01*
X67495403Y78197418D01*
X67481543Y78192459D01*
X67467264Y78188882D01*
X67452703Y78186722D01*
X67438000Y78186000D01*
X65788000Y78186000D01*
X65773297Y78186722D01*
X65758736Y78188882D01*
X65744457Y78192459D01*
X65730597Y78197418D01*
X65717290Y78203712D01*
X65704664Y78211280D01*
X65692841Y78220048D01*
X65681934Y78229934D01*
X65672048Y78240841D01*
X65663280Y78252664D01*
X65655712Y78265290D01*
X65649418Y78278597D01*
X65644459Y78292457D01*
X65640882Y78306736D01*
X65638722Y78321297D01*
X65638000Y78336000D01*
X65638000Y78636000D01*
X65638722Y78650703D01*
X65640882Y78665264D01*
X65644459Y78679543D01*
X65649418Y78693403D01*
X65655712Y78706710D01*
X65663280Y78719336D01*
X65672048Y78731159D01*
X65681934Y78742066D01*
X65692841Y78751952D01*
X65704664Y78760720D01*
X65717290Y78768288D01*
X65730597Y78774582D01*
X65744457Y78779541D01*
X65758736Y78783118D01*
X65773297Y78785278D01*
X65788000Y78786000D01*
X67438000Y78786000D01*
X67452703Y78785278D01*
X67452703Y78785278D01*
G37*
D18*
X66613000Y78486000D03*
D10*
G36*
X67452703Y80055278D02*
G01*
X67467264Y80053118D01*
X67481543Y80049541D01*
X67495403Y80044582D01*
X67508710Y80038288D01*
X67521336Y80030720D01*
X67533159Y80021952D01*
X67544066Y80012066D01*
X67553952Y80001159D01*
X67562720Y79989336D01*
X67570288Y79976710D01*
X67576582Y79963403D01*
X67581541Y79949543D01*
X67585118Y79935264D01*
X67587278Y79920703D01*
X67588000Y79906000D01*
X67588000Y79606000D01*
X67587278Y79591297D01*
X67585118Y79576736D01*
X67581541Y79562457D01*
X67576582Y79548597D01*
X67570288Y79535290D01*
X67562720Y79522664D01*
X67553952Y79510841D01*
X67544066Y79499934D01*
X67533159Y79490048D01*
X67521336Y79481280D01*
X67508710Y79473712D01*
X67495403Y79467418D01*
X67481543Y79462459D01*
X67467264Y79458882D01*
X67452703Y79456722D01*
X67438000Y79456000D01*
X65788000Y79456000D01*
X65773297Y79456722D01*
X65758736Y79458882D01*
X65744457Y79462459D01*
X65730597Y79467418D01*
X65717290Y79473712D01*
X65704664Y79481280D01*
X65692841Y79490048D01*
X65681934Y79499934D01*
X65672048Y79510841D01*
X65663280Y79522664D01*
X65655712Y79535290D01*
X65649418Y79548597D01*
X65644459Y79562457D01*
X65640882Y79576736D01*
X65638722Y79591297D01*
X65638000Y79606000D01*
X65638000Y79906000D01*
X65638722Y79920703D01*
X65640882Y79935264D01*
X65644459Y79949543D01*
X65649418Y79963403D01*
X65655712Y79976710D01*
X65663280Y79989336D01*
X65672048Y80001159D01*
X65681934Y80012066D01*
X65692841Y80021952D01*
X65704664Y80030720D01*
X65717290Y80038288D01*
X65730597Y80044582D01*
X65744457Y80049541D01*
X65758736Y80053118D01*
X65773297Y80055278D01*
X65788000Y80056000D01*
X67438000Y80056000D01*
X67452703Y80055278D01*
X67452703Y80055278D01*
G37*
D18*
X66613000Y79756000D03*
D19*
X103633000Y121583000D03*
X100583000Y124933000D03*
X100583000Y121583000D03*
X103633000Y124933000D03*
D20*
X104388000Y116958000D03*
X99828000Y116958000D03*
D19*
X113794000Y121412000D03*
X110744000Y124762000D03*
X110744000Y121412000D03*
X113794000Y124762000D03*
D20*
X114549000Y116787000D03*
X109989000Y116787000D03*
D21*
X65700000Y110728000D03*
X65700000Y110228000D03*
X65700000Y109728000D03*
X65700000Y109228000D03*
X65700000Y108728000D03*
X61300000Y108728000D03*
X61300000Y109228000D03*
X61300000Y109728000D03*
X61300000Y110228000D03*
X61300000Y110728000D03*
D22*
X63119000Y91188000D03*
X59769000Y88138000D03*
X63119000Y88138000D03*
X59769000Y91188000D03*
D23*
X67744000Y91943000D03*
X67744000Y87383000D03*
D24*
X87279000Y78534000D03*
X87279000Y84534000D03*
X91029000Y84534000D03*
X91029000Y78534000D03*
X125827000Y109601000D03*
X125827000Y103601000D03*
X122077000Y103601000D03*
X122077000Y109601000D03*
D25*
X113614000Y101870000D03*
D26*
X110364000Y102870000D03*
D25*
X113614000Y103870000D03*
D10*
G36*
X71641642Y71310826D02*
G01*
X71665303Y71307316D01*
X71688507Y71301504D01*
X71711029Y71293446D01*
X71732653Y71283218D01*
X71753170Y71270921D01*
X71772383Y71256671D01*
X71790107Y71240607D01*
X71806171Y71222883D01*
X71820421Y71203670D01*
X71832718Y71183153D01*
X71842946Y71161529D01*
X71851004Y71139007D01*
X71856816Y71115803D01*
X71860326Y71092142D01*
X71861500Y71068250D01*
X71861500Y70155750D01*
X71860326Y70131858D01*
X71856816Y70108197D01*
X71851004Y70084993D01*
X71842946Y70062471D01*
X71832718Y70040847D01*
X71820421Y70020330D01*
X71806171Y70001117D01*
X71790107Y69983393D01*
X71772383Y69967329D01*
X71753170Y69953079D01*
X71732653Y69940782D01*
X71711029Y69930554D01*
X71688507Y69922496D01*
X71665303Y69916684D01*
X71641642Y69913174D01*
X71617750Y69912000D01*
X71130250Y69912000D01*
X71106358Y69913174D01*
X71082697Y69916684D01*
X71059493Y69922496D01*
X71036971Y69930554D01*
X71015347Y69940782D01*
X70994830Y69953079D01*
X70975617Y69967329D01*
X70957893Y69983393D01*
X70941829Y70001117D01*
X70927579Y70020330D01*
X70915282Y70040847D01*
X70905054Y70062471D01*
X70896996Y70084993D01*
X70891184Y70108197D01*
X70887674Y70131858D01*
X70886500Y70155750D01*
X70886500Y71068250D01*
X70887674Y71092142D01*
X70891184Y71115803D01*
X70896996Y71139007D01*
X70905054Y71161529D01*
X70915282Y71183153D01*
X70927579Y71203670D01*
X70941829Y71222883D01*
X70957893Y71240607D01*
X70975617Y71256671D01*
X70994830Y71270921D01*
X71015347Y71283218D01*
X71036971Y71293446D01*
X71059493Y71301504D01*
X71082697Y71307316D01*
X71106358Y71310826D01*
X71130250Y71312000D01*
X71617750Y71312000D01*
X71641642Y71310826D01*
X71641642Y71310826D01*
G37*
D27*
X71374000Y70612000D03*
D10*
G36*
X69766642Y71310826D02*
G01*
X69790303Y71307316D01*
X69813507Y71301504D01*
X69836029Y71293446D01*
X69857653Y71283218D01*
X69878170Y71270921D01*
X69897383Y71256671D01*
X69915107Y71240607D01*
X69931171Y71222883D01*
X69945421Y71203670D01*
X69957718Y71183153D01*
X69967946Y71161529D01*
X69976004Y71139007D01*
X69981816Y71115803D01*
X69985326Y71092142D01*
X69986500Y71068250D01*
X69986500Y70155750D01*
X69985326Y70131858D01*
X69981816Y70108197D01*
X69976004Y70084993D01*
X69967946Y70062471D01*
X69957718Y70040847D01*
X69945421Y70020330D01*
X69931171Y70001117D01*
X69915107Y69983393D01*
X69897383Y69967329D01*
X69878170Y69953079D01*
X69857653Y69940782D01*
X69836029Y69930554D01*
X69813507Y69922496D01*
X69790303Y69916684D01*
X69766642Y69913174D01*
X69742750Y69912000D01*
X69255250Y69912000D01*
X69231358Y69913174D01*
X69207697Y69916684D01*
X69184493Y69922496D01*
X69161971Y69930554D01*
X69140347Y69940782D01*
X69119830Y69953079D01*
X69100617Y69967329D01*
X69082893Y69983393D01*
X69066829Y70001117D01*
X69052579Y70020330D01*
X69040282Y70040847D01*
X69030054Y70062471D01*
X69021996Y70084993D01*
X69016184Y70108197D01*
X69012674Y70131858D01*
X69011500Y70155750D01*
X69011500Y71068250D01*
X69012674Y71092142D01*
X69016184Y71115803D01*
X69021996Y71139007D01*
X69030054Y71161529D01*
X69040282Y71183153D01*
X69052579Y71203670D01*
X69066829Y71222883D01*
X69082893Y71240607D01*
X69100617Y71256671D01*
X69119830Y71270921D01*
X69140347Y71283218D01*
X69161971Y71293446D01*
X69184493Y71301504D01*
X69207697Y71307316D01*
X69231358Y71310826D01*
X69255250Y71312000D01*
X69742750Y71312000D01*
X69766642Y71310826D01*
X69766642Y71310826D01*
G37*
D27*
X69499000Y70612000D03*
D10*
G36*
X71611642Y67754826D02*
G01*
X71635303Y67751316D01*
X71658507Y67745504D01*
X71681029Y67737446D01*
X71702653Y67727218D01*
X71723170Y67714921D01*
X71742383Y67700671D01*
X71760107Y67684607D01*
X71776171Y67666883D01*
X71790421Y67647670D01*
X71802718Y67627153D01*
X71812946Y67605529D01*
X71821004Y67583007D01*
X71826816Y67559803D01*
X71830326Y67536142D01*
X71831500Y67512250D01*
X71831500Y66599750D01*
X71830326Y66575858D01*
X71826816Y66552197D01*
X71821004Y66528993D01*
X71812946Y66506471D01*
X71802718Y66484847D01*
X71790421Y66464330D01*
X71776171Y66445117D01*
X71760107Y66427393D01*
X71742383Y66411329D01*
X71723170Y66397079D01*
X71702653Y66384782D01*
X71681029Y66374554D01*
X71658507Y66366496D01*
X71635303Y66360684D01*
X71611642Y66357174D01*
X71587750Y66356000D01*
X71100250Y66356000D01*
X71076358Y66357174D01*
X71052697Y66360684D01*
X71029493Y66366496D01*
X71006971Y66374554D01*
X70985347Y66384782D01*
X70964830Y66397079D01*
X70945617Y66411329D01*
X70927893Y66427393D01*
X70911829Y66445117D01*
X70897579Y66464330D01*
X70885282Y66484847D01*
X70875054Y66506471D01*
X70866996Y66528993D01*
X70861184Y66552197D01*
X70857674Y66575858D01*
X70856500Y66599750D01*
X70856500Y67512250D01*
X70857674Y67536142D01*
X70861184Y67559803D01*
X70866996Y67583007D01*
X70875054Y67605529D01*
X70885282Y67627153D01*
X70897579Y67647670D01*
X70911829Y67666883D01*
X70927893Y67684607D01*
X70945617Y67700671D01*
X70964830Y67714921D01*
X70985347Y67727218D01*
X71006971Y67737446D01*
X71029493Y67745504D01*
X71052697Y67751316D01*
X71076358Y67754826D01*
X71100250Y67756000D01*
X71587750Y67756000D01*
X71611642Y67754826D01*
X71611642Y67754826D01*
G37*
D27*
X71344000Y67056000D03*
D10*
G36*
X69736642Y67754826D02*
G01*
X69760303Y67751316D01*
X69783507Y67745504D01*
X69806029Y67737446D01*
X69827653Y67727218D01*
X69848170Y67714921D01*
X69867383Y67700671D01*
X69885107Y67684607D01*
X69901171Y67666883D01*
X69915421Y67647670D01*
X69927718Y67627153D01*
X69937946Y67605529D01*
X69946004Y67583007D01*
X69951816Y67559803D01*
X69955326Y67536142D01*
X69956500Y67512250D01*
X69956500Y66599750D01*
X69955326Y66575858D01*
X69951816Y66552197D01*
X69946004Y66528993D01*
X69937946Y66506471D01*
X69927718Y66484847D01*
X69915421Y66464330D01*
X69901171Y66445117D01*
X69885107Y66427393D01*
X69867383Y66411329D01*
X69848170Y66397079D01*
X69827653Y66384782D01*
X69806029Y66374554D01*
X69783507Y66366496D01*
X69760303Y66360684D01*
X69736642Y66357174D01*
X69712750Y66356000D01*
X69225250Y66356000D01*
X69201358Y66357174D01*
X69177697Y66360684D01*
X69154493Y66366496D01*
X69131971Y66374554D01*
X69110347Y66384782D01*
X69089830Y66397079D01*
X69070617Y66411329D01*
X69052893Y66427393D01*
X69036829Y66445117D01*
X69022579Y66464330D01*
X69010282Y66484847D01*
X69000054Y66506471D01*
X68991996Y66528993D01*
X68986184Y66552197D01*
X68982674Y66575858D01*
X68981500Y66599750D01*
X68981500Y67512250D01*
X68982674Y67536142D01*
X68986184Y67559803D01*
X68991996Y67583007D01*
X69000054Y67605529D01*
X69010282Y67627153D01*
X69022579Y67647670D01*
X69036829Y67666883D01*
X69052893Y67684607D01*
X69070617Y67700671D01*
X69089830Y67714921D01*
X69110347Y67727218D01*
X69131971Y67737446D01*
X69154493Y67745504D01*
X69177697Y67751316D01*
X69201358Y67754826D01*
X69225250Y67756000D01*
X69712750Y67756000D01*
X69736642Y67754826D01*
X69736642Y67754826D01*
G37*
D27*
X69469000Y67056000D03*
D10*
G36*
X77188142Y91242826D02*
G01*
X77211803Y91239316D01*
X77235007Y91233504D01*
X77257529Y91225446D01*
X77279153Y91215218D01*
X77299670Y91202921D01*
X77318883Y91188671D01*
X77336607Y91172607D01*
X77352671Y91154883D01*
X77366921Y91135670D01*
X77379218Y91115153D01*
X77389446Y91093529D01*
X77397504Y91071007D01*
X77403316Y91047803D01*
X77406826Y91024142D01*
X77408000Y91000250D01*
X77408000Y90512750D01*
X77406826Y90488858D01*
X77403316Y90465197D01*
X77397504Y90441993D01*
X77389446Y90419471D01*
X77379218Y90397847D01*
X77366921Y90377330D01*
X77352671Y90358117D01*
X77336607Y90340393D01*
X77318883Y90324329D01*
X77299670Y90310079D01*
X77279153Y90297782D01*
X77257529Y90287554D01*
X77235007Y90279496D01*
X77211803Y90273684D01*
X77188142Y90270174D01*
X77164250Y90269000D01*
X76251750Y90269000D01*
X76227858Y90270174D01*
X76204197Y90273684D01*
X76180993Y90279496D01*
X76158471Y90287554D01*
X76136847Y90297782D01*
X76116330Y90310079D01*
X76097117Y90324329D01*
X76079393Y90340393D01*
X76063329Y90358117D01*
X76049079Y90377330D01*
X76036782Y90397847D01*
X76026554Y90419471D01*
X76018496Y90441993D01*
X76012684Y90465197D01*
X76009174Y90488858D01*
X76008000Y90512750D01*
X76008000Y91000250D01*
X76009174Y91024142D01*
X76012684Y91047803D01*
X76018496Y91071007D01*
X76026554Y91093529D01*
X76036782Y91115153D01*
X76049079Y91135670D01*
X76063329Y91154883D01*
X76079393Y91172607D01*
X76097117Y91188671D01*
X76116330Y91202921D01*
X76136847Y91215218D01*
X76158471Y91225446D01*
X76180993Y91233504D01*
X76204197Y91239316D01*
X76227858Y91242826D01*
X76251750Y91244000D01*
X77164250Y91244000D01*
X77188142Y91242826D01*
X77188142Y91242826D01*
G37*
D27*
X76708000Y90756500D03*
D10*
G36*
X77188142Y93117826D02*
G01*
X77211803Y93114316D01*
X77235007Y93108504D01*
X77257529Y93100446D01*
X77279153Y93090218D01*
X77299670Y93077921D01*
X77318883Y93063671D01*
X77336607Y93047607D01*
X77352671Y93029883D01*
X77366921Y93010670D01*
X77379218Y92990153D01*
X77389446Y92968529D01*
X77397504Y92946007D01*
X77403316Y92922803D01*
X77406826Y92899142D01*
X77408000Y92875250D01*
X77408000Y92387750D01*
X77406826Y92363858D01*
X77403316Y92340197D01*
X77397504Y92316993D01*
X77389446Y92294471D01*
X77379218Y92272847D01*
X77366921Y92252330D01*
X77352671Y92233117D01*
X77336607Y92215393D01*
X77318883Y92199329D01*
X77299670Y92185079D01*
X77279153Y92172782D01*
X77257529Y92162554D01*
X77235007Y92154496D01*
X77211803Y92148684D01*
X77188142Y92145174D01*
X77164250Y92144000D01*
X76251750Y92144000D01*
X76227858Y92145174D01*
X76204197Y92148684D01*
X76180993Y92154496D01*
X76158471Y92162554D01*
X76136847Y92172782D01*
X76116330Y92185079D01*
X76097117Y92199329D01*
X76079393Y92215393D01*
X76063329Y92233117D01*
X76049079Y92252330D01*
X76036782Y92272847D01*
X76026554Y92294471D01*
X76018496Y92316993D01*
X76012684Y92340197D01*
X76009174Y92363858D01*
X76008000Y92387750D01*
X76008000Y92875250D01*
X76009174Y92899142D01*
X76012684Y92922803D01*
X76018496Y92946007D01*
X76026554Y92968529D01*
X76036782Y92990153D01*
X76049079Y93010670D01*
X76063329Y93029883D01*
X76079393Y93047607D01*
X76097117Y93063671D01*
X76116330Y93077921D01*
X76136847Y93090218D01*
X76158471Y93100446D01*
X76180993Y93108504D01*
X76204197Y93114316D01*
X76227858Y93117826D01*
X76251750Y93119000D01*
X77164250Y93119000D01*
X77188142Y93117826D01*
X77188142Y93117826D01*
G37*
D27*
X76708000Y92631500D03*
D10*
G36*
X88738142Y88582826D02*
G01*
X88761803Y88579316D01*
X88785007Y88573504D01*
X88807529Y88565446D01*
X88829153Y88555218D01*
X88849670Y88542921D01*
X88868883Y88528671D01*
X88886607Y88512607D01*
X88902671Y88494883D01*
X88916921Y88475670D01*
X88929218Y88455153D01*
X88939446Y88433529D01*
X88947504Y88411007D01*
X88953316Y88387803D01*
X88956826Y88364142D01*
X88958000Y88340250D01*
X88958000Y87427750D01*
X88956826Y87403858D01*
X88953316Y87380197D01*
X88947504Y87356993D01*
X88939446Y87334471D01*
X88929218Y87312847D01*
X88916921Y87292330D01*
X88902671Y87273117D01*
X88886607Y87255393D01*
X88868883Y87239329D01*
X88849670Y87225079D01*
X88829153Y87212782D01*
X88807529Y87202554D01*
X88785007Y87194496D01*
X88761803Y87188684D01*
X88738142Y87185174D01*
X88714250Y87184000D01*
X88226750Y87184000D01*
X88202858Y87185174D01*
X88179197Y87188684D01*
X88155993Y87194496D01*
X88133471Y87202554D01*
X88111847Y87212782D01*
X88091330Y87225079D01*
X88072117Y87239329D01*
X88054393Y87255393D01*
X88038329Y87273117D01*
X88024079Y87292330D01*
X88011782Y87312847D01*
X88001554Y87334471D01*
X87993496Y87356993D01*
X87987684Y87380197D01*
X87984174Y87403858D01*
X87983000Y87427750D01*
X87983000Y88340250D01*
X87984174Y88364142D01*
X87987684Y88387803D01*
X87993496Y88411007D01*
X88001554Y88433529D01*
X88011782Y88455153D01*
X88024079Y88475670D01*
X88038329Y88494883D01*
X88054393Y88512607D01*
X88072117Y88528671D01*
X88091330Y88542921D01*
X88111847Y88555218D01*
X88133471Y88565446D01*
X88155993Y88573504D01*
X88179197Y88579316D01*
X88202858Y88582826D01*
X88226750Y88584000D01*
X88714250Y88584000D01*
X88738142Y88582826D01*
X88738142Y88582826D01*
G37*
D27*
X88470500Y87884000D03*
D10*
G36*
X90613142Y88582826D02*
G01*
X90636803Y88579316D01*
X90660007Y88573504D01*
X90682529Y88565446D01*
X90704153Y88555218D01*
X90724670Y88542921D01*
X90743883Y88528671D01*
X90761607Y88512607D01*
X90777671Y88494883D01*
X90791921Y88475670D01*
X90804218Y88455153D01*
X90814446Y88433529D01*
X90822504Y88411007D01*
X90828316Y88387803D01*
X90831826Y88364142D01*
X90833000Y88340250D01*
X90833000Y87427750D01*
X90831826Y87403858D01*
X90828316Y87380197D01*
X90822504Y87356993D01*
X90814446Y87334471D01*
X90804218Y87312847D01*
X90791921Y87292330D01*
X90777671Y87273117D01*
X90761607Y87255393D01*
X90743883Y87239329D01*
X90724670Y87225079D01*
X90704153Y87212782D01*
X90682529Y87202554D01*
X90660007Y87194496D01*
X90636803Y87188684D01*
X90613142Y87185174D01*
X90589250Y87184000D01*
X90101750Y87184000D01*
X90077858Y87185174D01*
X90054197Y87188684D01*
X90030993Y87194496D01*
X90008471Y87202554D01*
X89986847Y87212782D01*
X89966330Y87225079D01*
X89947117Y87239329D01*
X89929393Y87255393D01*
X89913329Y87273117D01*
X89899079Y87292330D01*
X89886782Y87312847D01*
X89876554Y87334471D01*
X89868496Y87356993D01*
X89862684Y87380197D01*
X89859174Y87403858D01*
X89858000Y87427750D01*
X89858000Y88340250D01*
X89859174Y88364142D01*
X89862684Y88387803D01*
X89868496Y88411007D01*
X89876554Y88433529D01*
X89886782Y88455153D01*
X89899079Y88475670D01*
X89913329Y88494883D01*
X89929393Y88512607D01*
X89947117Y88528671D01*
X89966330Y88542921D01*
X89986847Y88555218D01*
X90008471Y88565446D01*
X90030993Y88573504D01*
X90054197Y88579316D01*
X90077858Y88582826D01*
X90101750Y88584000D01*
X90589250Y88584000D01*
X90613142Y88582826D01*
X90613142Y88582826D01*
G37*
D27*
X90345500Y87884000D03*
D10*
G36*
X110425142Y107378826D02*
G01*
X110448803Y107375316D01*
X110472007Y107369504D01*
X110494529Y107361446D01*
X110516153Y107351218D01*
X110536670Y107338921D01*
X110555883Y107324671D01*
X110573607Y107308607D01*
X110589671Y107290883D01*
X110603921Y107271670D01*
X110616218Y107251153D01*
X110626446Y107229529D01*
X110634504Y107207007D01*
X110640316Y107183803D01*
X110643826Y107160142D01*
X110645000Y107136250D01*
X110645000Y106223750D01*
X110643826Y106199858D01*
X110640316Y106176197D01*
X110634504Y106152993D01*
X110626446Y106130471D01*
X110616218Y106108847D01*
X110603921Y106088330D01*
X110589671Y106069117D01*
X110573607Y106051393D01*
X110555883Y106035329D01*
X110536670Y106021079D01*
X110516153Y106008782D01*
X110494529Y105998554D01*
X110472007Y105990496D01*
X110448803Y105984684D01*
X110425142Y105981174D01*
X110401250Y105980000D01*
X109913750Y105980000D01*
X109889858Y105981174D01*
X109866197Y105984684D01*
X109842993Y105990496D01*
X109820471Y105998554D01*
X109798847Y106008782D01*
X109778330Y106021079D01*
X109759117Y106035329D01*
X109741393Y106051393D01*
X109725329Y106069117D01*
X109711079Y106088330D01*
X109698782Y106108847D01*
X109688554Y106130471D01*
X109680496Y106152993D01*
X109674684Y106176197D01*
X109671174Y106199858D01*
X109670000Y106223750D01*
X109670000Y107136250D01*
X109671174Y107160142D01*
X109674684Y107183803D01*
X109680496Y107207007D01*
X109688554Y107229529D01*
X109698782Y107251153D01*
X109711079Y107271670D01*
X109725329Y107290883D01*
X109741393Y107308607D01*
X109759117Y107324671D01*
X109778330Y107338921D01*
X109798847Y107351218D01*
X109820471Y107361446D01*
X109842993Y107369504D01*
X109866197Y107375316D01*
X109889858Y107378826D01*
X109913750Y107380000D01*
X110401250Y107380000D01*
X110425142Y107378826D01*
X110425142Y107378826D01*
G37*
D27*
X110157500Y106680000D03*
D10*
G36*
X108550142Y107378826D02*
G01*
X108573803Y107375316D01*
X108597007Y107369504D01*
X108619529Y107361446D01*
X108641153Y107351218D01*
X108661670Y107338921D01*
X108680883Y107324671D01*
X108698607Y107308607D01*
X108714671Y107290883D01*
X108728921Y107271670D01*
X108741218Y107251153D01*
X108751446Y107229529D01*
X108759504Y107207007D01*
X108765316Y107183803D01*
X108768826Y107160142D01*
X108770000Y107136250D01*
X108770000Y106223750D01*
X108768826Y106199858D01*
X108765316Y106176197D01*
X108759504Y106152993D01*
X108751446Y106130471D01*
X108741218Y106108847D01*
X108728921Y106088330D01*
X108714671Y106069117D01*
X108698607Y106051393D01*
X108680883Y106035329D01*
X108661670Y106021079D01*
X108641153Y106008782D01*
X108619529Y105998554D01*
X108597007Y105990496D01*
X108573803Y105984684D01*
X108550142Y105981174D01*
X108526250Y105980000D01*
X108038750Y105980000D01*
X108014858Y105981174D01*
X107991197Y105984684D01*
X107967993Y105990496D01*
X107945471Y105998554D01*
X107923847Y106008782D01*
X107903330Y106021079D01*
X107884117Y106035329D01*
X107866393Y106051393D01*
X107850329Y106069117D01*
X107836079Y106088330D01*
X107823782Y106108847D01*
X107813554Y106130471D01*
X107805496Y106152993D01*
X107799684Y106176197D01*
X107796174Y106199858D01*
X107795000Y106223750D01*
X107795000Y107136250D01*
X107796174Y107160142D01*
X107799684Y107183803D01*
X107805496Y107207007D01*
X107813554Y107229529D01*
X107823782Y107251153D01*
X107836079Y107271670D01*
X107850329Y107290883D01*
X107866393Y107308607D01*
X107884117Y107324671D01*
X107903330Y107338921D01*
X107923847Y107351218D01*
X107945471Y107361446D01*
X107967993Y107369504D01*
X107991197Y107375316D01*
X108014858Y107378826D01*
X108038750Y107380000D01*
X108526250Y107380000D01*
X108550142Y107378826D01*
X108550142Y107378826D01*
G37*
D27*
X108282500Y106680000D03*
D10*
G36*
X93310142Y94678826D02*
G01*
X93333803Y94675316D01*
X93357007Y94669504D01*
X93379529Y94661446D01*
X93401153Y94651218D01*
X93421670Y94638921D01*
X93440883Y94624671D01*
X93458607Y94608607D01*
X93474671Y94590883D01*
X93488921Y94571670D01*
X93501218Y94551153D01*
X93511446Y94529529D01*
X93519504Y94507007D01*
X93525316Y94483803D01*
X93528826Y94460142D01*
X93530000Y94436250D01*
X93530000Y93523750D01*
X93528826Y93499858D01*
X93525316Y93476197D01*
X93519504Y93452993D01*
X93511446Y93430471D01*
X93501218Y93408847D01*
X93488921Y93388330D01*
X93474671Y93369117D01*
X93458607Y93351393D01*
X93440883Y93335329D01*
X93421670Y93321079D01*
X93401153Y93308782D01*
X93379529Y93298554D01*
X93357007Y93290496D01*
X93333803Y93284684D01*
X93310142Y93281174D01*
X93286250Y93280000D01*
X92798750Y93280000D01*
X92774858Y93281174D01*
X92751197Y93284684D01*
X92727993Y93290496D01*
X92705471Y93298554D01*
X92683847Y93308782D01*
X92663330Y93321079D01*
X92644117Y93335329D01*
X92626393Y93351393D01*
X92610329Y93369117D01*
X92596079Y93388330D01*
X92583782Y93408847D01*
X92573554Y93430471D01*
X92565496Y93452993D01*
X92559684Y93476197D01*
X92556174Y93499858D01*
X92555000Y93523750D01*
X92555000Y94436250D01*
X92556174Y94460142D01*
X92559684Y94483803D01*
X92565496Y94507007D01*
X92573554Y94529529D01*
X92583782Y94551153D01*
X92596079Y94571670D01*
X92610329Y94590883D01*
X92626393Y94608607D01*
X92644117Y94624671D01*
X92663330Y94638921D01*
X92683847Y94651218D01*
X92705471Y94661446D01*
X92727993Y94669504D01*
X92751197Y94675316D01*
X92774858Y94678826D01*
X92798750Y94680000D01*
X93286250Y94680000D01*
X93310142Y94678826D01*
X93310142Y94678826D01*
G37*
D27*
X93042500Y93980000D03*
D10*
G36*
X95185142Y94678826D02*
G01*
X95208803Y94675316D01*
X95232007Y94669504D01*
X95254529Y94661446D01*
X95276153Y94651218D01*
X95296670Y94638921D01*
X95315883Y94624671D01*
X95333607Y94608607D01*
X95349671Y94590883D01*
X95363921Y94571670D01*
X95376218Y94551153D01*
X95386446Y94529529D01*
X95394504Y94507007D01*
X95400316Y94483803D01*
X95403826Y94460142D01*
X95405000Y94436250D01*
X95405000Y93523750D01*
X95403826Y93499858D01*
X95400316Y93476197D01*
X95394504Y93452993D01*
X95386446Y93430471D01*
X95376218Y93408847D01*
X95363921Y93388330D01*
X95349671Y93369117D01*
X95333607Y93351393D01*
X95315883Y93335329D01*
X95296670Y93321079D01*
X95276153Y93308782D01*
X95254529Y93298554D01*
X95232007Y93290496D01*
X95208803Y93284684D01*
X95185142Y93281174D01*
X95161250Y93280000D01*
X94673750Y93280000D01*
X94649858Y93281174D01*
X94626197Y93284684D01*
X94602993Y93290496D01*
X94580471Y93298554D01*
X94558847Y93308782D01*
X94538330Y93321079D01*
X94519117Y93335329D01*
X94501393Y93351393D01*
X94485329Y93369117D01*
X94471079Y93388330D01*
X94458782Y93408847D01*
X94448554Y93430471D01*
X94440496Y93452993D01*
X94434684Y93476197D01*
X94431174Y93499858D01*
X94430000Y93523750D01*
X94430000Y94436250D01*
X94431174Y94460142D01*
X94434684Y94483803D01*
X94440496Y94507007D01*
X94448554Y94529529D01*
X94458782Y94551153D01*
X94471079Y94571670D01*
X94485329Y94590883D01*
X94501393Y94608607D01*
X94519117Y94624671D01*
X94538330Y94638921D01*
X94558847Y94651218D01*
X94580471Y94661446D01*
X94602993Y94669504D01*
X94626197Y94675316D01*
X94649858Y94678826D01*
X94673750Y94680000D01*
X95161250Y94680000D01*
X95185142Y94678826D01*
X95185142Y94678826D01*
G37*
D27*
X94917500Y93980000D03*
D10*
G36*
X89343142Y96202826D02*
G01*
X89366803Y96199316D01*
X89390007Y96193504D01*
X89412529Y96185446D01*
X89434153Y96175218D01*
X89454670Y96162921D01*
X89473883Y96148671D01*
X89491607Y96132607D01*
X89507671Y96114883D01*
X89521921Y96095670D01*
X89534218Y96075153D01*
X89544446Y96053529D01*
X89552504Y96031007D01*
X89558316Y96007803D01*
X89561826Y95984142D01*
X89563000Y95960250D01*
X89563000Y95047750D01*
X89561826Y95023858D01*
X89558316Y95000197D01*
X89552504Y94976993D01*
X89544446Y94954471D01*
X89534218Y94932847D01*
X89521921Y94912330D01*
X89507671Y94893117D01*
X89491607Y94875393D01*
X89473883Y94859329D01*
X89454670Y94845079D01*
X89434153Y94832782D01*
X89412529Y94822554D01*
X89390007Y94814496D01*
X89366803Y94808684D01*
X89343142Y94805174D01*
X89319250Y94804000D01*
X88831750Y94804000D01*
X88807858Y94805174D01*
X88784197Y94808684D01*
X88760993Y94814496D01*
X88738471Y94822554D01*
X88716847Y94832782D01*
X88696330Y94845079D01*
X88677117Y94859329D01*
X88659393Y94875393D01*
X88643329Y94893117D01*
X88629079Y94912330D01*
X88616782Y94932847D01*
X88606554Y94954471D01*
X88598496Y94976993D01*
X88592684Y95000197D01*
X88589174Y95023858D01*
X88588000Y95047750D01*
X88588000Y95960250D01*
X88589174Y95984142D01*
X88592684Y96007803D01*
X88598496Y96031007D01*
X88606554Y96053529D01*
X88616782Y96075153D01*
X88629079Y96095670D01*
X88643329Y96114883D01*
X88659393Y96132607D01*
X88677117Y96148671D01*
X88696330Y96162921D01*
X88716847Y96175218D01*
X88738471Y96185446D01*
X88760993Y96193504D01*
X88784197Y96199316D01*
X88807858Y96202826D01*
X88831750Y96204000D01*
X89319250Y96204000D01*
X89343142Y96202826D01*
X89343142Y96202826D01*
G37*
D27*
X89075500Y95504000D03*
D10*
G36*
X87468142Y96202826D02*
G01*
X87491803Y96199316D01*
X87515007Y96193504D01*
X87537529Y96185446D01*
X87559153Y96175218D01*
X87579670Y96162921D01*
X87598883Y96148671D01*
X87616607Y96132607D01*
X87632671Y96114883D01*
X87646921Y96095670D01*
X87659218Y96075153D01*
X87669446Y96053529D01*
X87677504Y96031007D01*
X87683316Y96007803D01*
X87686826Y95984142D01*
X87688000Y95960250D01*
X87688000Y95047750D01*
X87686826Y95023858D01*
X87683316Y95000197D01*
X87677504Y94976993D01*
X87669446Y94954471D01*
X87659218Y94932847D01*
X87646921Y94912330D01*
X87632671Y94893117D01*
X87616607Y94875393D01*
X87598883Y94859329D01*
X87579670Y94845079D01*
X87559153Y94832782D01*
X87537529Y94822554D01*
X87515007Y94814496D01*
X87491803Y94808684D01*
X87468142Y94805174D01*
X87444250Y94804000D01*
X86956750Y94804000D01*
X86932858Y94805174D01*
X86909197Y94808684D01*
X86885993Y94814496D01*
X86863471Y94822554D01*
X86841847Y94832782D01*
X86821330Y94845079D01*
X86802117Y94859329D01*
X86784393Y94875393D01*
X86768329Y94893117D01*
X86754079Y94912330D01*
X86741782Y94932847D01*
X86731554Y94954471D01*
X86723496Y94976993D01*
X86717684Y95000197D01*
X86714174Y95023858D01*
X86713000Y95047750D01*
X86713000Y95960250D01*
X86714174Y95984142D01*
X86717684Y96007803D01*
X86723496Y96031007D01*
X86731554Y96053529D01*
X86741782Y96075153D01*
X86754079Y96095670D01*
X86768329Y96114883D01*
X86784393Y96132607D01*
X86802117Y96148671D01*
X86821330Y96162921D01*
X86841847Y96175218D01*
X86863471Y96185446D01*
X86885993Y96193504D01*
X86909197Y96199316D01*
X86932858Y96202826D01*
X86956750Y96204000D01*
X87444250Y96204000D01*
X87468142Y96202826D01*
X87468142Y96202826D01*
G37*
D27*
X87200500Y95504000D03*
D10*
G36*
X126337142Y98657326D02*
G01*
X126360803Y98653816D01*
X126384007Y98648004D01*
X126406529Y98639946D01*
X126428153Y98629718D01*
X126448670Y98617421D01*
X126467883Y98603171D01*
X126485607Y98587107D01*
X126501671Y98569383D01*
X126515921Y98550170D01*
X126528218Y98529653D01*
X126538446Y98508029D01*
X126546504Y98485507D01*
X126552316Y98462303D01*
X126555826Y98438642D01*
X126557000Y98414750D01*
X126557000Y97927250D01*
X126555826Y97903358D01*
X126552316Y97879697D01*
X126546504Y97856493D01*
X126538446Y97833971D01*
X126528218Y97812347D01*
X126515921Y97791830D01*
X126501671Y97772617D01*
X126485607Y97754893D01*
X126467883Y97738829D01*
X126448670Y97724579D01*
X126428153Y97712282D01*
X126406529Y97702054D01*
X126384007Y97693996D01*
X126360803Y97688184D01*
X126337142Y97684674D01*
X126313250Y97683500D01*
X125400750Y97683500D01*
X125376858Y97684674D01*
X125353197Y97688184D01*
X125329993Y97693996D01*
X125307471Y97702054D01*
X125285847Y97712282D01*
X125265330Y97724579D01*
X125246117Y97738829D01*
X125228393Y97754893D01*
X125212329Y97772617D01*
X125198079Y97791830D01*
X125185782Y97812347D01*
X125175554Y97833971D01*
X125167496Y97856493D01*
X125161684Y97879697D01*
X125158174Y97903358D01*
X125157000Y97927250D01*
X125157000Y98414750D01*
X125158174Y98438642D01*
X125161684Y98462303D01*
X125167496Y98485507D01*
X125175554Y98508029D01*
X125185782Y98529653D01*
X125198079Y98550170D01*
X125212329Y98569383D01*
X125228393Y98587107D01*
X125246117Y98603171D01*
X125265330Y98617421D01*
X125285847Y98629718D01*
X125307471Y98639946D01*
X125329993Y98648004D01*
X125353197Y98653816D01*
X125376858Y98657326D01*
X125400750Y98658500D01*
X126313250Y98658500D01*
X126337142Y98657326D01*
X126337142Y98657326D01*
G37*
D27*
X125857000Y98171000D03*
D10*
G36*
X126337142Y96782326D02*
G01*
X126360803Y96778816D01*
X126384007Y96773004D01*
X126406529Y96764946D01*
X126428153Y96754718D01*
X126448670Y96742421D01*
X126467883Y96728171D01*
X126485607Y96712107D01*
X126501671Y96694383D01*
X126515921Y96675170D01*
X126528218Y96654653D01*
X126538446Y96633029D01*
X126546504Y96610507D01*
X126552316Y96587303D01*
X126555826Y96563642D01*
X126557000Y96539750D01*
X126557000Y96052250D01*
X126555826Y96028358D01*
X126552316Y96004697D01*
X126546504Y95981493D01*
X126538446Y95958971D01*
X126528218Y95937347D01*
X126515921Y95916830D01*
X126501671Y95897617D01*
X126485607Y95879893D01*
X126467883Y95863829D01*
X126448670Y95849579D01*
X126428153Y95837282D01*
X126406529Y95827054D01*
X126384007Y95818996D01*
X126360803Y95813184D01*
X126337142Y95809674D01*
X126313250Y95808500D01*
X125400750Y95808500D01*
X125376858Y95809674D01*
X125353197Y95813184D01*
X125329993Y95818996D01*
X125307471Y95827054D01*
X125285847Y95837282D01*
X125265330Y95849579D01*
X125246117Y95863829D01*
X125228393Y95879893D01*
X125212329Y95897617D01*
X125198079Y95916830D01*
X125185782Y95937347D01*
X125175554Y95958971D01*
X125167496Y95981493D01*
X125161684Y96004697D01*
X125158174Y96028358D01*
X125157000Y96052250D01*
X125157000Y96539750D01*
X125158174Y96563642D01*
X125161684Y96587303D01*
X125167496Y96610507D01*
X125175554Y96633029D01*
X125185782Y96654653D01*
X125198079Y96675170D01*
X125212329Y96694383D01*
X125228393Y96712107D01*
X125246117Y96728171D01*
X125265330Y96742421D01*
X125285847Y96754718D01*
X125307471Y96764946D01*
X125329993Y96773004D01*
X125353197Y96778816D01*
X125376858Y96782326D01*
X125400750Y96783500D01*
X126313250Y96783500D01*
X126337142Y96782326D01*
X126337142Y96782326D01*
G37*
D27*
X125857000Y96296000D03*
D10*
G36*
X116558142Y76861826D02*
G01*
X116581803Y76858316D01*
X116605007Y76852504D01*
X116627529Y76844446D01*
X116649153Y76834218D01*
X116669670Y76821921D01*
X116688883Y76807671D01*
X116706607Y76791607D01*
X116722671Y76773883D01*
X116736921Y76754670D01*
X116749218Y76734153D01*
X116759446Y76712529D01*
X116767504Y76690007D01*
X116773316Y76666803D01*
X116776826Y76643142D01*
X116778000Y76619250D01*
X116778000Y76131750D01*
X116776826Y76107858D01*
X116773316Y76084197D01*
X116767504Y76060993D01*
X116759446Y76038471D01*
X116749218Y76016847D01*
X116736921Y75996330D01*
X116722671Y75977117D01*
X116706607Y75959393D01*
X116688883Y75943329D01*
X116669670Y75929079D01*
X116649153Y75916782D01*
X116627529Y75906554D01*
X116605007Y75898496D01*
X116581803Y75892684D01*
X116558142Y75889174D01*
X116534250Y75888000D01*
X115621750Y75888000D01*
X115597858Y75889174D01*
X115574197Y75892684D01*
X115550993Y75898496D01*
X115528471Y75906554D01*
X115506847Y75916782D01*
X115486330Y75929079D01*
X115467117Y75943329D01*
X115449393Y75959393D01*
X115433329Y75977117D01*
X115419079Y75996330D01*
X115406782Y76016847D01*
X115396554Y76038471D01*
X115388496Y76060993D01*
X115382684Y76084197D01*
X115379174Y76107858D01*
X115378000Y76131750D01*
X115378000Y76619250D01*
X115379174Y76643142D01*
X115382684Y76666803D01*
X115388496Y76690007D01*
X115396554Y76712529D01*
X115406782Y76734153D01*
X115419079Y76754670D01*
X115433329Y76773883D01*
X115449393Y76791607D01*
X115467117Y76807671D01*
X115486330Y76821921D01*
X115506847Y76834218D01*
X115528471Y76844446D01*
X115550993Y76852504D01*
X115574197Y76858316D01*
X115597858Y76861826D01*
X115621750Y76863000D01*
X116534250Y76863000D01*
X116558142Y76861826D01*
X116558142Y76861826D01*
G37*
D27*
X116078000Y76375500D03*
D10*
G36*
X116558142Y74986826D02*
G01*
X116581803Y74983316D01*
X116605007Y74977504D01*
X116627529Y74969446D01*
X116649153Y74959218D01*
X116669670Y74946921D01*
X116688883Y74932671D01*
X116706607Y74916607D01*
X116722671Y74898883D01*
X116736921Y74879670D01*
X116749218Y74859153D01*
X116759446Y74837529D01*
X116767504Y74815007D01*
X116773316Y74791803D01*
X116776826Y74768142D01*
X116778000Y74744250D01*
X116778000Y74256750D01*
X116776826Y74232858D01*
X116773316Y74209197D01*
X116767504Y74185993D01*
X116759446Y74163471D01*
X116749218Y74141847D01*
X116736921Y74121330D01*
X116722671Y74102117D01*
X116706607Y74084393D01*
X116688883Y74068329D01*
X116669670Y74054079D01*
X116649153Y74041782D01*
X116627529Y74031554D01*
X116605007Y74023496D01*
X116581803Y74017684D01*
X116558142Y74014174D01*
X116534250Y74013000D01*
X115621750Y74013000D01*
X115597858Y74014174D01*
X115574197Y74017684D01*
X115550993Y74023496D01*
X115528471Y74031554D01*
X115506847Y74041782D01*
X115486330Y74054079D01*
X115467117Y74068329D01*
X115449393Y74084393D01*
X115433329Y74102117D01*
X115419079Y74121330D01*
X115406782Y74141847D01*
X115396554Y74163471D01*
X115388496Y74185993D01*
X115382684Y74209197D01*
X115379174Y74232858D01*
X115378000Y74256750D01*
X115378000Y74744250D01*
X115379174Y74768142D01*
X115382684Y74791803D01*
X115388496Y74815007D01*
X115396554Y74837529D01*
X115406782Y74859153D01*
X115419079Y74879670D01*
X115433329Y74898883D01*
X115449393Y74916607D01*
X115467117Y74932671D01*
X115486330Y74946921D01*
X115506847Y74959218D01*
X115528471Y74969446D01*
X115550993Y74977504D01*
X115574197Y74983316D01*
X115597858Y74986826D01*
X115621750Y74988000D01*
X116534250Y74988000D01*
X116558142Y74986826D01*
X116558142Y74986826D01*
G37*
D27*
X116078000Y74500500D03*
D10*
G36*
X95088142Y107124826D02*
G01*
X95111803Y107121316D01*
X95135007Y107115504D01*
X95157529Y107107446D01*
X95179153Y107097218D01*
X95199670Y107084921D01*
X95218883Y107070671D01*
X95236607Y107054607D01*
X95252671Y107036883D01*
X95266921Y107017670D01*
X95279218Y106997153D01*
X95289446Y106975529D01*
X95297504Y106953007D01*
X95303316Y106929803D01*
X95306826Y106906142D01*
X95308000Y106882250D01*
X95308000Y105969750D01*
X95306826Y105945858D01*
X95303316Y105922197D01*
X95297504Y105898993D01*
X95289446Y105876471D01*
X95279218Y105854847D01*
X95266921Y105834330D01*
X95252671Y105815117D01*
X95236607Y105797393D01*
X95218883Y105781329D01*
X95199670Y105767079D01*
X95179153Y105754782D01*
X95157529Y105744554D01*
X95135007Y105736496D01*
X95111803Y105730684D01*
X95088142Y105727174D01*
X95064250Y105726000D01*
X94576750Y105726000D01*
X94552858Y105727174D01*
X94529197Y105730684D01*
X94505993Y105736496D01*
X94483471Y105744554D01*
X94461847Y105754782D01*
X94441330Y105767079D01*
X94422117Y105781329D01*
X94404393Y105797393D01*
X94388329Y105815117D01*
X94374079Y105834330D01*
X94361782Y105854847D01*
X94351554Y105876471D01*
X94343496Y105898993D01*
X94337684Y105922197D01*
X94334174Y105945858D01*
X94333000Y105969750D01*
X94333000Y106882250D01*
X94334174Y106906142D01*
X94337684Y106929803D01*
X94343496Y106953007D01*
X94351554Y106975529D01*
X94361782Y106997153D01*
X94374079Y107017670D01*
X94388329Y107036883D01*
X94404393Y107054607D01*
X94422117Y107070671D01*
X94441330Y107084921D01*
X94461847Y107097218D01*
X94483471Y107107446D01*
X94505993Y107115504D01*
X94529197Y107121316D01*
X94552858Y107124826D01*
X94576750Y107126000D01*
X95064250Y107126000D01*
X95088142Y107124826D01*
X95088142Y107124826D01*
G37*
D27*
X94820500Y106426000D03*
D10*
G36*
X96963142Y107124826D02*
G01*
X96986803Y107121316D01*
X97010007Y107115504D01*
X97032529Y107107446D01*
X97054153Y107097218D01*
X97074670Y107084921D01*
X97093883Y107070671D01*
X97111607Y107054607D01*
X97127671Y107036883D01*
X97141921Y107017670D01*
X97154218Y106997153D01*
X97164446Y106975529D01*
X97172504Y106953007D01*
X97178316Y106929803D01*
X97181826Y106906142D01*
X97183000Y106882250D01*
X97183000Y105969750D01*
X97181826Y105945858D01*
X97178316Y105922197D01*
X97172504Y105898993D01*
X97164446Y105876471D01*
X97154218Y105854847D01*
X97141921Y105834330D01*
X97127671Y105815117D01*
X97111607Y105797393D01*
X97093883Y105781329D01*
X97074670Y105767079D01*
X97054153Y105754782D01*
X97032529Y105744554D01*
X97010007Y105736496D01*
X96986803Y105730684D01*
X96963142Y105727174D01*
X96939250Y105726000D01*
X96451750Y105726000D01*
X96427858Y105727174D01*
X96404197Y105730684D01*
X96380993Y105736496D01*
X96358471Y105744554D01*
X96336847Y105754782D01*
X96316330Y105767079D01*
X96297117Y105781329D01*
X96279393Y105797393D01*
X96263329Y105815117D01*
X96249079Y105834330D01*
X96236782Y105854847D01*
X96226554Y105876471D01*
X96218496Y105898993D01*
X96212684Y105922197D01*
X96209174Y105945858D01*
X96208000Y105969750D01*
X96208000Y106882250D01*
X96209174Y106906142D01*
X96212684Y106929803D01*
X96218496Y106953007D01*
X96226554Y106975529D01*
X96236782Y106997153D01*
X96249079Y107017670D01*
X96263329Y107036883D01*
X96279393Y107054607D01*
X96297117Y107070671D01*
X96316330Y107084921D01*
X96336847Y107097218D01*
X96358471Y107107446D01*
X96380993Y107115504D01*
X96404197Y107121316D01*
X96427858Y107124826D01*
X96451750Y107126000D01*
X96939250Y107126000D01*
X96963142Y107124826D01*
X96963142Y107124826D01*
G37*
D27*
X96695500Y106426000D03*
D10*
G36*
X115034142Y114707826D02*
G01*
X115057803Y114704316D01*
X115081007Y114698504D01*
X115103529Y114690446D01*
X115125153Y114680218D01*
X115145670Y114667921D01*
X115164883Y114653671D01*
X115182607Y114637607D01*
X115198671Y114619883D01*
X115212921Y114600670D01*
X115225218Y114580153D01*
X115235446Y114558529D01*
X115243504Y114536007D01*
X115249316Y114512803D01*
X115252826Y114489142D01*
X115254000Y114465250D01*
X115254000Y113977750D01*
X115252826Y113953858D01*
X115249316Y113930197D01*
X115243504Y113906993D01*
X115235446Y113884471D01*
X115225218Y113862847D01*
X115212921Y113842330D01*
X115198671Y113823117D01*
X115182607Y113805393D01*
X115164883Y113789329D01*
X115145670Y113775079D01*
X115125153Y113762782D01*
X115103529Y113752554D01*
X115081007Y113744496D01*
X115057803Y113738684D01*
X115034142Y113735174D01*
X115010250Y113734000D01*
X114097750Y113734000D01*
X114073858Y113735174D01*
X114050197Y113738684D01*
X114026993Y113744496D01*
X114004471Y113752554D01*
X113982847Y113762782D01*
X113962330Y113775079D01*
X113943117Y113789329D01*
X113925393Y113805393D01*
X113909329Y113823117D01*
X113895079Y113842330D01*
X113882782Y113862847D01*
X113872554Y113884471D01*
X113864496Y113906993D01*
X113858684Y113930197D01*
X113855174Y113953858D01*
X113854000Y113977750D01*
X113854000Y114465250D01*
X113855174Y114489142D01*
X113858684Y114512803D01*
X113864496Y114536007D01*
X113872554Y114558529D01*
X113882782Y114580153D01*
X113895079Y114600670D01*
X113909329Y114619883D01*
X113925393Y114637607D01*
X113943117Y114653671D01*
X113962330Y114667921D01*
X113982847Y114680218D01*
X114004471Y114690446D01*
X114026993Y114698504D01*
X114050197Y114704316D01*
X114073858Y114707826D01*
X114097750Y114709000D01*
X115010250Y114709000D01*
X115034142Y114707826D01*
X115034142Y114707826D01*
G37*
D27*
X114554000Y114221500D03*
D10*
G36*
X115034142Y112832826D02*
G01*
X115057803Y112829316D01*
X115081007Y112823504D01*
X115103529Y112815446D01*
X115125153Y112805218D01*
X115145670Y112792921D01*
X115164883Y112778671D01*
X115182607Y112762607D01*
X115198671Y112744883D01*
X115212921Y112725670D01*
X115225218Y112705153D01*
X115235446Y112683529D01*
X115243504Y112661007D01*
X115249316Y112637803D01*
X115252826Y112614142D01*
X115254000Y112590250D01*
X115254000Y112102750D01*
X115252826Y112078858D01*
X115249316Y112055197D01*
X115243504Y112031993D01*
X115235446Y112009471D01*
X115225218Y111987847D01*
X115212921Y111967330D01*
X115198671Y111948117D01*
X115182607Y111930393D01*
X115164883Y111914329D01*
X115145670Y111900079D01*
X115125153Y111887782D01*
X115103529Y111877554D01*
X115081007Y111869496D01*
X115057803Y111863684D01*
X115034142Y111860174D01*
X115010250Y111859000D01*
X114097750Y111859000D01*
X114073858Y111860174D01*
X114050197Y111863684D01*
X114026993Y111869496D01*
X114004471Y111877554D01*
X113982847Y111887782D01*
X113962330Y111900079D01*
X113943117Y111914329D01*
X113925393Y111930393D01*
X113909329Y111948117D01*
X113895079Y111967330D01*
X113882782Y111987847D01*
X113872554Y112009471D01*
X113864496Y112031993D01*
X113858684Y112055197D01*
X113855174Y112078858D01*
X113854000Y112102750D01*
X113854000Y112590250D01*
X113855174Y112614142D01*
X113858684Y112637803D01*
X113864496Y112661007D01*
X113872554Y112683529D01*
X113882782Y112705153D01*
X113895079Y112725670D01*
X113909329Y112744883D01*
X113925393Y112762607D01*
X113943117Y112778671D01*
X113962330Y112792921D01*
X113982847Y112805218D01*
X114004471Y112815446D01*
X114026993Y112823504D01*
X114050197Y112829316D01*
X114073858Y112832826D01*
X114097750Y112834000D01*
X115010250Y112834000D01*
X115034142Y112832826D01*
X115034142Y112832826D01*
G37*
D27*
X114554000Y112346500D03*
D10*
G36*
X91539142Y111103326D02*
G01*
X91562803Y111099816D01*
X91586007Y111094004D01*
X91608529Y111085946D01*
X91630153Y111075718D01*
X91650670Y111063421D01*
X91669883Y111049171D01*
X91687607Y111033107D01*
X91703671Y111015383D01*
X91717921Y110996170D01*
X91730218Y110975653D01*
X91740446Y110954029D01*
X91748504Y110931507D01*
X91754316Y110908303D01*
X91757826Y110884642D01*
X91759000Y110860750D01*
X91759000Y110373250D01*
X91757826Y110349358D01*
X91754316Y110325697D01*
X91748504Y110302493D01*
X91740446Y110279971D01*
X91730218Y110258347D01*
X91717921Y110237830D01*
X91703671Y110218617D01*
X91687607Y110200893D01*
X91669883Y110184829D01*
X91650670Y110170579D01*
X91630153Y110158282D01*
X91608529Y110148054D01*
X91586007Y110139996D01*
X91562803Y110134184D01*
X91539142Y110130674D01*
X91515250Y110129500D01*
X90602750Y110129500D01*
X90578858Y110130674D01*
X90555197Y110134184D01*
X90531993Y110139996D01*
X90509471Y110148054D01*
X90487847Y110158282D01*
X90467330Y110170579D01*
X90448117Y110184829D01*
X90430393Y110200893D01*
X90414329Y110218617D01*
X90400079Y110237830D01*
X90387782Y110258347D01*
X90377554Y110279971D01*
X90369496Y110302493D01*
X90363684Y110325697D01*
X90360174Y110349358D01*
X90359000Y110373250D01*
X90359000Y110860750D01*
X90360174Y110884642D01*
X90363684Y110908303D01*
X90369496Y110931507D01*
X90377554Y110954029D01*
X90387782Y110975653D01*
X90400079Y110996170D01*
X90414329Y111015383D01*
X90430393Y111033107D01*
X90448117Y111049171D01*
X90467330Y111063421D01*
X90487847Y111075718D01*
X90509471Y111085946D01*
X90531993Y111094004D01*
X90555197Y111099816D01*
X90578858Y111103326D01*
X90602750Y111104500D01*
X91515250Y111104500D01*
X91539142Y111103326D01*
X91539142Y111103326D01*
G37*
D27*
X91059000Y110617000D03*
D10*
G36*
X91539142Y112978326D02*
G01*
X91562803Y112974816D01*
X91586007Y112969004D01*
X91608529Y112960946D01*
X91630153Y112950718D01*
X91650670Y112938421D01*
X91669883Y112924171D01*
X91687607Y112908107D01*
X91703671Y112890383D01*
X91717921Y112871170D01*
X91730218Y112850653D01*
X91740446Y112829029D01*
X91748504Y112806507D01*
X91754316Y112783303D01*
X91757826Y112759642D01*
X91759000Y112735750D01*
X91759000Y112248250D01*
X91757826Y112224358D01*
X91754316Y112200697D01*
X91748504Y112177493D01*
X91740446Y112154971D01*
X91730218Y112133347D01*
X91717921Y112112830D01*
X91703671Y112093617D01*
X91687607Y112075893D01*
X91669883Y112059829D01*
X91650670Y112045579D01*
X91630153Y112033282D01*
X91608529Y112023054D01*
X91586007Y112014996D01*
X91562803Y112009184D01*
X91539142Y112005674D01*
X91515250Y112004500D01*
X90602750Y112004500D01*
X90578858Y112005674D01*
X90555197Y112009184D01*
X90531993Y112014996D01*
X90509471Y112023054D01*
X90487847Y112033282D01*
X90467330Y112045579D01*
X90448117Y112059829D01*
X90430393Y112075893D01*
X90414329Y112093617D01*
X90400079Y112112830D01*
X90387782Y112133347D01*
X90377554Y112154971D01*
X90369496Y112177493D01*
X90363684Y112200697D01*
X90360174Y112224358D01*
X90359000Y112248250D01*
X90359000Y112735750D01*
X90360174Y112759642D01*
X90363684Y112783303D01*
X90369496Y112806507D01*
X90377554Y112829029D01*
X90387782Y112850653D01*
X90400079Y112871170D01*
X90414329Y112890383D01*
X90430393Y112908107D01*
X90448117Y112924171D01*
X90467330Y112938421D01*
X90487847Y112950718D01*
X90509471Y112960946D01*
X90531993Y112969004D01*
X90555197Y112974816D01*
X90578858Y112978326D01*
X90602750Y112979500D01*
X91515250Y112979500D01*
X91539142Y112978326D01*
X91539142Y112978326D01*
G37*
D27*
X91059000Y112492000D03*
D10*
G36*
X91539142Y116213326D02*
G01*
X91562803Y116209816D01*
X91586007Y116204004D01*
X91608529Y116195946D01*
X91630153Y116185718D01*
X91650670Y116173421D01*
X91669883Y116159171D01*
X91687607Y116143107D01*
X91703671Y116125383D01*
X91717921Y116106170D01*
X91730218Y116085653D01*
X91740446Y116064029D01*
X91748504Y116041507D01*
X91754316Y116018303D01*
X91757826Y115994642D01*
X91759000Y115970750D01*
X91759000Y115483250D01*
X91757826Y115459358D01*
X91754316Y115435697D01*
X91748504Y115412493D01*
X91740446Y115389971D01*
X91730218Y115368347D01*
X91717921Y115347830D01*
X91703671Y115328617D01*
X91687607Y115310893D01*
X91669883Y115294829D01*
X91650670Y115280579D01*
X91630153Y115268282D01*
X91608529Y115258054D01*
X91586007Y115249996D01*
X91562803Y115244184D01*
X91539142Y115240674D01*
X91515250Y115239500D01*
X90602750Y115239500D01*
X90578858Y115240674D01*
X90555197Y115244184D01*
X90531993Y115249996D01*
X90509471Y115258054D01*
X90487847Y115268282D01*
X90467330Y115280579D01*
X90448117Y115294829D01*
X90430393Y115310893D01*
X90414329Y115328617D01*
X90400079Y115347830D01*
X90387782Y115368347D01*
X90377554Y115389971D01*
X90369496Y115412493D01*
X90363684Y115435697D01*
X90360174Y115459358D01*
X90359000Y115483250D01*
X90359000Y115970750D01*
X90360174Y115994642D01*
X90363684Y116018303D01*
X90369496Y116041507D01*
X90377554Y116064029D01*
X90387782Y116085653D01*
X90400079Y116106170D01*
X90414329Y116125383D01*
X90430393Y116143107D01*
X90448117Y116159171D01*
X90467330Y116173421D01*
X90487847Y116185718D01*
X90509471Y116195946D01*
X90531993Y116204004D01*
X90555197Y116209816D01*
X90578858Y116213326D01*
X90602750Y116214500D01*
X91515250Y116214500D01*
X91539142Y116213326D01*
X91539142Y116213326D01*
G37*
D27*
X91059000Y115727000D03*
D10*
G36*
X91539142Y118088326D02*
G01*
X91562803Y118084816D01*
X91586007Y118079004D01*
X91608529Y118070946D01*
X91630153Y118060718D01*
X91650670Y118048421D01*
X91669883Y118034171D01*
X91687607Y118018107D01*
X91703671Y118000383D01*
X91717921Y117981170D01*
X91730218Y117960653D01*
X91740446Y117939029D01*
X91748504Y117916507D01*
X91754316Y117893303D01*
X91757826Y117869642D01*
X91759000Y117845750D01*
X91759000Y117358250D01*
X91757826Y117334358D01*
X91754316Y117310697D01*
X91748504Y117287493D01*
X91740446Y117264971D01*
X91730218Y117243347D01*
X91717921Y117222830D01*
X91703671Y117203617D01*
X91687607Y117185893D01*
X91669883Y117169829D01*
X91650670Y117155579D01*
X91630153Y117143282D01*
X91608529Y117133054D01*
X91586007Y117124996D01*
X91562803Y117119184D01*
X91539142Y117115674D01*
X91515250Y117114500D01*
X90602750Y117114500D01*
X90578858Y117115674D01*
X90555197Y117119184D01*
X90531993Y117124996D01*
X90509471Y117133054D01*
X90487847Y117143282D01*
X90467330Y117155579D01*
X90448117Y117169829D01*
X90430393Y117185893D01*
X90414329Y117203617D01*
X90400079Y117222830D01*
X90387782Y117243347D01*
X90377554Y117264971D01*
X90369496Y117287493D01*
X90363684Y117310697D01*
X90360174Y117334358D01*
X90359000Y117358250D01*
X90359000Y117845750D01*
X90360174Y117869642D01*
X90363684Y117893303D01*
X90369496Y117916507D01*
X90377554Y117939029D01*
X90387782Y117960653D01*
X90400079Y117981170D01*
X90414329Y118000383D01*
X90430393Y118018107D01*
X90448117Y118034171D01*
X90467330Y118048421D01*
X90487847Y118060718D01*
X90509471Y118070946D01*
X90531993Y118079004D01*
X90555197Y118084816D01*
X90578858Y118088326D01*
X90602750Y118089500D01*
X91515250Y118089500D01*
X91539142Y118088326D01*
X91539142Y118088326D01*
G37*
D27*
X91059000Y117602000D03*
D10*
G36*
X85279142Y101282826D02*
G01*
X85302803Y101279316D01*
X85326007Y101273504D01*
X85348529Y101265446D01*
X85370153Y101255218D01*
X85390670Y101242921D01*
X85409883Y101228671D01*
X85427607Y101212607D01*
X85443671Y101194883D01*
X85457921Y101175670D01*
X85470218Y101155153D01*
X85480446Y101133529D01*
X85488504Y101111007D01*
X85494316Y101087803D01*
X85497826Y101064142D01*
X85499000Y101040250D01*
X85499000Y100127750D01*
X85497826Y100103858D01*
X85494316Y100080197D01*
X85488504Y100056993D01*
X85480446Y100034471D01*
X85470218Y100012847D01*
X85457921Y99992330D01*
X85443671Y99973117D01*
X85427607Y99955393D01*
X85409883Y99939329D01*
X85390670Y99925079D01*
X85370153Y99912782D01*
X85348529Y99902554D01*
X85326007Y99894496D01*
X85302803Y99888684D01*
X85279142Y99885174D01*
X85255250Y99884000D01*
X84767750Y99884000D01*
X84743858Y99885174D01*
X84720197Y99888684D01*
X84696993Y99894496D01*
X84674471Y99902554D01*
X84652847Y99912782D01*
X84632330Y99925079D01*
X84613117Y99939329D01*
X84595393Y99955393D01*
X84579329Y99973117D01*
X84565079Y99992330D01*
X84552782Y100012847D01*
X84542554Y100034471D01*
X84534496Y100056993D01*
X84528684Y100080197D01*
X84525174Y100103858D01*
X84524000Y100127750D01*
X84524000Y101040250D01*
X84525174Y101064142D01*
X84528684Y101087803D01*
X84534496Y101111007D01*
X84542554Y101133529D01*
X84552782Y101155153D01*
X84565079Y101175670D01*
X84579329Y101194883D01*
X84595393Y101212607D01*
X84613117Y101228671D01*
X84632330Y101242921D01*
X84652847Y101255218D01*
X84674471Y101265446D01*
X84696993Y101273504D01*
X84720197Y101279316D01*
X84743858Y101282826D01*
X84767750Y101284000D01*
X85255250Y101284000D01*
X85279142Y101282826D01*
X85279142Y101282826D01*
G37*
D27*
X85011500Y100584000D03*
D10*
G36*
X83404142Y101282826D02*
G01*
X83427803Y101279316D01*
X83451007Y101273504D01*
X83473529Y101265446D01*
X83495153Y101255218D01*
X83515670Y101242921D01*
X83534883Y101228671D01*
X83552607Y101212607D01*
X83568671Y101194883D01*
X83582921Y101175670D01*
X83595218Y101155153D01*
X83605446Y101133529D01*
X83613504Y101111007D01*
X83619316Y101087803D01*
X83622826Y101064142D01*
X83624000Y101040250D01*
X83624000Y100127750D01*
X83622826Y100103858D01*
X83619316Y100080197D01*
X83613504Y100056993D01*
X83605446Y100034471D01*
X83595218Y100012847D01*
X83582921Y99992330D01*
X83568671Y99973117D01*
X83552607Y99955393D01*
X83534883Y99939329D01*
X83515670Y99925079D01*
X83495153Y99912782D01*
X83473529Y99902554D01*
X83451007Y99894496D01*
X83427803Y99888684D01*
X83404142Y99885174D01*
X83380250Y99884000D01*
X82892750Y99884000D01*
X82868858Y99885174D01*
X82845197Y99888684D01*
X82821993Y99894496D01*
X82799471Y99902554D01*
X82777847Y99912782D01*
X82757330Y99925079D01*
X82738117Y99939329D01*
X82720393Y99955393D01*
X82704329Y99973117D01*
X82690079Y99992330D01*
X82677782Y100012847D01*
X82667554Y100034471D01*
X82659496Y100056993D01*
X82653684Y100080197D01*
X82650174Y100103858D01*
X82649000Y100127750D01*
X82649000Y101040250D01*
X82650174Y101064142D01*
X82653684Y101087803D01*
X82659496Y101111007D01*
X82667554Y101133529D01*
X82677782Y101155153D01*
X82690079Y101175670D01*
X82704329Y101194883D01*
X82720393Y101212607D01*
X82738117Y101228671D01*
X82757330Y101242921D01*
X82777847Y101255218D01*
X82799471Y101265446D01*
X82821993Y101273504D01*
X82845197Y101279316D01*
X82868858Y101282826D01*
X82892750Y101284000D01*
X83380250Y101284000D01*
X83404142Y101282826D01*
X83404142Y101282826D01*
G37*
D27*
X83136500Y100584000D03*
D10*
G36*
X80490142Y106150326D02*
G01*
X80513803Y106146816D01*
X80537007Y106141004D01*
X80559529Y106132946D01*
X80581153Y106122718D01*
X80601670Y106110421D01*
X80620883Y106096171D01*
X80638607Y106080107D01*
X80654671Y106062383D01*
X80668921Y106043170D01*
X80681218Y106022653D01*
X80691446Y106001029D01*
X80699504Y105978507D01*
X80705316Y105955303D01*
X80708826Y105931642D01*
X80710000Y105907750D01*
X80710000Y105420250D01*
X80708826Y105396358D01*
X80705316Y105372697D01*
X80699504Y105349493D01*
X80691446Y105326971D01*
X80681218Y105305347D01*
X80668921Y105284830D01*
X80654671Y105265617D01*
X80638607Y105247893D01*
X80620883Y105231829D01*
X80601670Y105217579D01*
X80581153Y105205282D01*
X80559529Y105195054D01*
X80537007Y105186996D01*
X80513803Y105181184D01*
X80490142Y105177674D01*
X80466250Y105176500D01*
X79553750Y105176500D01*
X79529858Y105177674D01*
X79506197Y105181184D01*
X79482993Y105186996D01*
X79460471Y105195054D01*
X79438847Y105205282D01*
X79418330Y105217579D01*
X79399117Y105231829D01*
X79381393Y105247893D01*
X79365329Y105265617D01*
X79351079Y105284830D01*
X79338782Y105305347D01*
X79328554Y105326971D01*
X79320496Y105349493D01*
X79314684Y105372697D01*
X79311174Y105396358D01*
X79310000Y105420250D01*
X79310000Y105907750D01*
X79311174Y105931642D01*
X79314684Y105955303D01*
X79320496Y105978507D01*
X79328554Y106001029D01*
X79338782Y106022653D01*
X79351079Y106043170D01*
X79365329Y106062383D01*
X79381393Y106080107D01*
X79399117Y106096171D01*
X79418330Y106110421D01*
X79438847Y106122718D01*
X79460471Y106132946D01*
X79482993Y106141004D01*
X79506197Y106146816D01*
X79529858Y106150326D01*
X79553750Y106151500D01*
X80466250Y106151500D01*
X80490142Y106150326D01*
X80490142Y106150326D01*
G37*
D27*
X80010000Y105664000D03*
D10*
G36*
X80490142Y108025326D02*
G01*
X80513803Y108021816D01*
X80537007Y108016004D01*
X80559529Y108007946D01*
X80581153Y107997718D01*
X80601670Y107985421D01*
X80620883Y107971171D01*
X80638607Y107955107D01*
X80654671Y107937383D01*
X80668921Y107918170D01*
X80681218Y107897653D01*
X80691446Y107876029D01*
X80699504Y107853507D01*
X80705316Y107830303D01*
X80708826Y107806642D01*
X80710000Y107782750D01*
X80710000Y107295250D01*
X80708826Y107271358D01*
X80705316Y107247697D01*
X80699504Y107224493D01*
X80691446Y107201971D01*
X80681218Y107180347D01*
X80668921Y107159830D01*
X80654671Y107140617D01*
X80638607Y107122893D01*
X80620883Y107106829D01*
X80601670Y107092579D01*
X80581153Y107080282D01*
X80559529Y107070054D01*
X80537007Y107061996D01*
X80513803Y107056184D01*
X80490142Y107052674D01*
X80466250Y107051500D01*
X79553750Y107051500D01*
X79529858Y107052674D01*
X79506197Y107056184D01*
X79482993Y107061996D01*
X79460471Y107070054D01*
X79438847Y107080282D01*
X79418330Y107092579D01*
X79399117Y107106829D01*
X79381393Y107122893D01*
X79365329Y107140617D01*
X79351079Y107159830D01*
X79338782Y107180347D01*
X79328554Y107201971D01*
X79320496Y107224493D01*
X79314684Y107247697D01*
X79311174Y107271358D01*
X79310000Y107295250D01*
X79310000Y107782750D01*
X79311174Y107806642D01*
X79314684Y107830303D01*
X79320496Y107853507D01*
X79328554Y107876029D01*
X79338782Y107897653D01*
X79351079Y107918170D01*
X79365329Y107937383D01*
X79381393Y107955107D01*
X79399117Y107971171D01*
X79418330Y107985421D01*
X79438847Y107997718D01*
X79460471Y108007946D01*
X79482993Y108016004D01*
X79506197Y108021816D01*
X79529858Y108025326D01*
X79553750Y108026500D01*
X80466250Y108026500D01*
X80490142Y108025326D01*
X80490142Y108025326D01*
G37*
D27*
X80010000Y107539000D03*
D10*
G36*
X67536142Y98687326D02*
G01*
X67559803Y98683816D01*
X67583007Y98678004D01*
X67605529Y98669946D01*
X67627153Y98659718D01*
X67647670Y98647421D01*
X67666883Y98633171D01*
X67684607Y98617107D01*
X67700671Y98599383D01*
X67714921Y98580170D01*
X67727218Y98559653D01*
X67737446Y98538029D01*
X67745504Y98515507D01*
X67751316Y98492303D01*
X67754826Y98468642D01*
X67756000Y98444750D01*
X67756000Y97957250D01*
X67754826Y97933358D01*
X67751316Y97909697D01*
X67745504Y97886493D01*
X67737446Y97863971D01*
X67727218Y97842347D01*
X67714921Y97821830D01*
X67700671Y97802617D01*
X67684607Y97784893D01*
X67666883Y97768829D01*
X67647670Y97754579D01*
X67627153Y97742282D01*
X67605529Y97732054D01*
X67583007Y97723996D01*
X67559803Y97718184D01*
X67536142Y97714674D01*
X67512250Y97713500D01*
X66599750Y97713500D01*
X66575858Y97714674D01*
X66552197Y97718184D01*
X66528993Y97723996D01*
X66506471Y97732054D01*
X66484847Y97742282D01*
X66464330Y97754579D01*
X66445117Y97768829D01*
X66427393Y97784893D01*
X66411329Y97802617D01*
X66397079Y97821830D01*
X66384782Y97842347D01*
X66374554Y97863971D01*
X66366496Y97886493D01*
X66360684Y97909697D01*
X66357174Y97933358D01*
X66356000Y97957250D01*
X66356000Y98444750D01*
X66357174Y98468642D01*
X66360684Y98492303D01*
X66366496Y98515507D01*
X66374554Y98538029D01*
X66384782Y98559653D01*
X66397079Y98580170D01*
X66411329Y98599383D01*
X66427393Y98617107D01*
X66445117Y98633171D01*
X66464330Y98647421D01*
X66484847Y98659718D01*
X66506471Y98669946D01*
X66528993Y98678004D01*
X66552197Y98683816D01*
X66575858Y98687326D01*
X66599750Y98688500D01*
X67512250Y98688500D01*
X67536142Y98687326D01*
X67536142Y98687326D01*
G37*
D27*
X67056000Y98201000D03*
D10*
G36*
X67536142Y100562326D02*
G01*
X67559803Y100558816D01*
X67583007Y100553004D01*
X67605529Y100544946D01*
X67627153Y100534718D01*
X67647670Y100522421D01*
X67666883Y100508171D01*
X67684607Y100492107D01*
X67700671Y100474383D01*
X67714921Y100455170D01*
X67727218Y100434653D01*
X67737446Y100413029D01*
X67745504Y100390507D01*
X67751316Y100367303D01*
X67754826Y100343642D01*
X67756000Y100319750D01*
X67756000Y99832250D01*
X67754826Y99808358D01*
X67751316Y99784697D01*
X67745504Y99761493D01*
X67737446Y99738971D01*
X67727218Y99717347D01*
X67714921Y99696830D01*
X67700671Y99677617D01*
X67684607Y99659893D01*
X67666883Y99643829D01*
X67647670Y99629579D01*
X67627153Y99617282D01*
X67605529Y99607054D01*
X67583007Y99598996D01*
X67559803Y99593184D01*
X67536142Y99589674D01*
X67512250Y99588500D01*
X66599750Y99588500D01*
X66575858Y99589674D01*
X66552197Y99593184D01*
X66528993Y99598996D01*
X66506471Y99607054D01*
X66484847Y99617282D01*
X66464330Y99629579D01*
X66445117Y99643829D01*
X66427393Y99659893D01*
X66411329Y99677617D01*
X66397079Y99696830D01*
X66384782Y99717347D01*
X66374554Y99738971D01*
X66366496Y99761493D01*
X66360684Y99784697D01*
X66357174Y99808358D01*
X66356000Y99832250D01*
X66356000Y100319750D01*
X66357174Y100343642D01*
X66360684Y100367303D01*
X66366496Y100390507D01*
X66374554Y100413029D01*
X66384782Y100434653D01*
X66397079Y100455170D01*
X66411329Y100474383D01*
X66427393Y100492107D01*
X66445117Y100508171D01*
X66464330Y100522421D01*
X66484847Y100534718D01*
X66506471Y100544946D01*
X66528993Y100553004D01*
X66552197Y100558816D01*
X66575858Y100562326D01*
X66599750Y100563500D01*
X67512250Y100563500D01*
X67536142Y100562326D01*
X67536142Y100562326D01*
G37*
D27*
X67056000Y100076000D03*
D10*
G36*
X63218142Y98657326D02*
G01*
X63241803Y98653816D01*
X63265007Y98648004D01*
X63287529Y98639946D01*
X63309153Y98629718D01*
X63329670Y98617421D01*
X63348883Y98603171D01*
X63366607Y98587107D01*
X63382671Y98569383D01*
X63396921Y98550170D01*
X63409218Y98529653D01*
X63419446Y98508029D01*
X63427504Y98485507D01*
X63433316Y98462303D01*
X63436826Y98438642D01*
X63438000Y98414750D01*
X63438000Y97927250D01*
X63436826Y97903358D01*
X63433316Y97879697D01*
X63427504Y97856493D01*
X63419446Y97833971D01*
X63409218Y97812347D01*
X63396921Y97791830D01*
X63382671Y97772617D01*
X63366607Y97754893D01*
X63348883Y97738829D01*
X63329670Y97724579D01*
X63309153Y97712282D01*
X63287529Y97702054D01*
X63265007Y97693996D01*
X63241803Y97688184D01*
X63218142Y97684674D01*
X63194250Y97683500D01*
X62281750Y97683500D01*
X62257858Y97684674D01*
X62234197Y97688184D01*
X62210993Y97693996D01*
X62188471Y97702054D01*
X62166847Y97712282D01*
X62146330Y97724579D01*
X62127117Y97738829D01*
X62109393Y97754893D01*
X62093329Y97772617D01*
X62079079Y97791830D01*
X62066782Y97812347D01*
X62056554Y97833971D01*
X62048496Y97856493D01*
X62042684Y97879697D01*
X62039174Y97903358D01*
X62038000Y97927250D01*
X62038000Y98414750D01*
X62039174Y98438642D01*
X62042684Y98462303D01*
X62048496Y98485507D01*
X62056554Y98508029D01*
X62066782Y98529653D01*
X62079079Y98550170D01*
X62093329Y98569383D01*
X62109393Y98587107D01*
X62127117Y98603171D01*
X62146330Y98617421D01*
X62166847Y98629718D01*
X62188471Y98639946D01*
X62210993Y98648004D01*
X62234197Y98653816D01*
X62257858Y98657326D01*
X62281750Y98658500D01*
X63194250Y98658500D01*
X63218142Y98657326D01*
X63218142Y98657326D01*
G37*
D27*
X62738000Y98171000D03*
D10*
G36*
X63218142Y100532326D02*
G01*
X63241803Y100528816D01*
X63265007Y100523004D01*
X63287529Y100514946D01*
X63309153Y100504718D01*
X63329670Y100492421D01*
X63348883Y100478171D01*
X63366607Y100462107D01*
X63382671Y100444383D01*
X63396921Y100425170D01*
X63409218Y100404653D01*
X63419446Y100383029D01*
X63427504Y100360507D01*
X63433316Y100337303D01*
X63436826Y100313642D01*
X63438000Y100289750D01*
X63438000Y99802250D01*
X63436826Y99778358D01*
X63433316Y99754697D01*
X63427504Y99731493D01*
X63419446Y99708971D01*
X63409218Y99687347D01*
X63396921Y99666830D01*
X63382671Y99647617D01*
X63366607Y99629893D01*
X63348883Y99613829D01*
X63329670Y99599579D01*
X63309153Y99587282D01*
X63287529Y99577054D01*
X63265007Y99568996D01*
X63241803Y99563184D01*
X63218142Y99559674D01*
X63194250Y99558500D01*
X62281750Y99558500D01*
X62257858Y99559674D01*
X62234197Y99563184D01*
X62210993Y99568996D01*
X62188471Y99577054D01*
X62166847Y99587282D01*
X62146330Y99599579D01*
X62127117Y99613829D01*
X62109393Y99629893D01*
X62093329Y99647617D01*
X62079079Y99666830D01*
X62066782Y99687347D01*
X62056554Y99708971D01*
X62048496Y99731493D01*
X62042684Y99754697D01*
X62039174Y99778358D01*
X62038000Y99802250D01*
X62038000Y100289750D01*
X62039174Y100313642D01*
X62042684Y100337303D01*
X62048496Y100360507D01*
X62056554Y100383029D01*
X62066782Y100404653D01*
X62079079Y100425170D01*
X62093329Y100444383D01*
X62109393Y100462107D01*
X62127117Y100478171D01*
X62146330Y100492421D01*
X62166847Y100504718D01*
X62188471Y100514946D01*
X62210993Y100523004D01*
X62234197Y100528816D01*
X62257858Y100532326D01*
X62281750Y100533500D01*
X63194250Y100533500D01*
X63218142Y100532326D01*
X63218142Y100532326D01*
G37*
D27*
X62738000Y100046000D03*
D10*
G36*
X54582142Y103053826D02*
G01*
X54605803Y103050316D01*
X54629007Y103044504D01*
X54651529Y103036446D01*
X54673153Y103026218D01*
X54693670Y103013921D01*
X54712883Y102999671D01*
X54730607Y102983607D01*
X54746671Y102965883D01*
X54760921Y102946670D01*
X54773218Y102926153D01*
X54783446Y102904529D01*
X54791504Y102882007D01*
X54797316Y102858803D01*
X54800826Y102835142D01*
X54802000Y102811250D01*
X54802000Y102323750D01*
X54800826Y102299858D01*
X54797316Y102276197D01*
X54791504Y102252993D01*
X54783446Y102230471D01*
X54773218Y102208847D01*
X54760921Y102188330D01*
X54746671Y102169117D01*
X54730607Y102151393D01*
X54712883Y102135329D01*
X54693670Y102121079D01*
X54673153Y102108782D01*
X54651529Y102098554D01*
X54629007Y102090496D01*
X54605803Y102084684D01*
X54582142Y102081174D01*
X54558250Y102080000D01*
X53645750Y102080000D01*
X53621858Y102081174D01*
X53598197Y102084684D01*
X53574993Y102090496D01*
X53552471Y102098554D01*
X53530847Y102108782D01*
X53510330Y102121079D01*
X53491117Y102135329D01*
X53473393Y102151393D01*
X53457329Y102169117D01*
X53443079Y102188330D01*
X53430782Y102208847D01*
X53420554Y102230471D01*
X53412496Y102252993D01*
X53406684Y102276197D01*
X53403174Y102299858D01*
X53402000Y102323750D01*
X53402000Y102811250D01*
X53403174Y102835142D01*
X53406684Y102858803D01*
X53412496Y102882007D01*
X53420554Y102904529D01*
X53430782Y102926153D01*
X53443079Y102946670D01*
X53457329Y102965883D01*
X53473393Y102983607D01*
X53491117Y102999671D01*
X53510330Y103013921D01*
X53530847Y103026218D01*
X53552471Y103036446D01*
X53574993Y103044504D01*
X53598197Y103050316D01*
X53621858Y103053826D01*
X53645750Y103055000D01*
X54558250Y103055000D01*
X54582142Y103053826D01*
X54582142Y103053826D01*
G37*
D27*
X54102000Y102567500D03*
D10*
G36*
X54582142Y104928826D02*
G01*
X54605803Y104925316D01*
X54629007Y104919504D01*
X54651529Y104911446D01*
X54673153Y104901218D01*
X54693670Y104888921D01*
X54712883Y104874671D01*
X54730607Y104858607D01*
X54746671Y104840883D01*
X54760921Y104821670D01*
X54773218Y104801153D01*
X54783446Y104779529D01*
X54791504Y104757007D01*
X54797316Y104733803D01*
X54800826Y104710142D01*
X54802000Y104686250D01*
X54802000Y104198750D01*
X54800826Y104174858D01*
X54797316Y104151197D01*
X54791504Y104127993D01*
X54783446Y104105471D01*
X54773218Y104083847D01*
X54760921Y104063330D01*
X54746671Y104044117D01*
X54730607Y104026393D01*
X54712883Y104010329D01*
X54693670Y103996079D01*
X54673153Y103983782D01*
X54651529Y103973554D01*
X54629007Y103965496D01*
X54605803Y103959684D01*
X54582142Y103956174D01*
X54558250Y103955000D01*
X53645750Y103955000D01*
X53621858Y103956174D01*
X53598197Y103959684D01*
X53574993Y103965496D01*
X53552471Y103973554D01*
X53530847Y103983782D01*
X53510330Y103996079D01*
X53491117Y104010329D01*
X53473393Y104026393D01*
X53457329Y104044117D01*
X53443079Y104063330D01*
X53430782Y104083847D01*
X53420554Y104105471D01*
X53412496Y104127993D01*
X53406684Y104151197D01*
X53403174Y104174858D01*
X53402000Y104198750D01*
X53402000Y104686250D01*
X53403174Y104710142D01*
X53406684Y104733803D01*
X53412496Y104757007D01*
X53420554Y104779529D01*
X53430782Y104801153D01*
X53443079Y104821670D01*
X53457329Y104840883D01*
X53473393Y104858607D01*
X53491117Y104874671D01*
X53510330Y104888921D01*
X53530847Y104901218D01*
X53552471Y104911446D01*
X53574993Y104919504D01*
X53598197Y104925316D01*
X53621858Y104928826D01*
X53645750Y104930000D01*
X54558250Y104930000D01*
X54582142Y104928826D01*
X54582142Y104928826D01*
G37*
D27*
X54102000Y104442500D03*
D28*
X58785000Y104648000D03*
X56785000Y103698000D03*
X56785000Y105598000D03*
D29*
X67012000Y119761000D03*
X61512000Y119761000D03*
D30*
X74422000Y125432000D03*
X74422000Y119932000D03*
D31*
X52578000Y74184000D03*
D32*
X55278000Y77609000D03*
D33*
X55278000Y75834000D03*
X55278000Y76484000D03*
X55278000Y73884000D03*
X55278000Y74534000D03*
X55278000Y75184000D03*
D31*
X52578000Y76184000D03*
D34*
X52578000Y78784000D03*
X52578000Y71584000D03*
D10*
G36*
X66561642Y71310826D02*
G01*
X66585303Y71307316D01*
X66608507Y71301504D01*
X66631029Y71293446D01*
X66652653Y71283218D01*
X66673170Y71270921D01*
X66692383Y71256671D01*
X66710107Y71240607D01*
X66726171Y71222883D01*
X66740421Y71203670D01*
X66752718Y71183153D01*
X66762946Y71161529D01*
X66771004Y71139007D01*
X66776816Y71115803D01*
X66780326Y71092142D01*
X66781500Y71068250D01*
X66781500Y70155750D01*
X66780326Y70131858D01*
X66776816Y70108197D01*
X66771004Y70084993D01*
X66762946Y70062471D01*
X66752718Y70040847D01*
X66740421Y70020330D01*
X66726171Y70001117D01*
X66710107Y69983393D01*
X66692383Y69967329D01*
X66673170Y69953079D01*
X66652653Y69940782D01*
X66631029Y69930554D01*
X66608507Y69922496D01*
X66585303Y69916684D01*
X66561642Y69913174D01*
X66537750Y69912000D01*
X66050250Y69912000D01*
X66026358Y69913174D01*
X66002697Y69916684D01*
X65979493Y69922496D01*
X65956971Y69930554D01*
X65935347Y69940782D01*
X65914830Y69953079D01*
X65895617Y69967329D01*
X65877893Y69983393D01*
X65861829Y70001117D01*
X65847579Y70020330D01*
X65835282Y70040847D01*
X65825054Y70062471D01*
X65816996Y70084993D01*
X65811184Y70108197D01*
X65807674Y70131858D01*
X65806500Y70155750D01*
X65806500Y71068250D01*
X65807674Y71092142D01*
X65811184Y71115803D01*
X65816996Y71139007D01*
X65825054Y71161529D01*
X65835282Y71183153D01*
X65847579Y71203670D01*
X65861829Y71222883D01*
X65877893Y71240607D01*
X65895617Y71256671D01*
X65914830Y71270921D01*
X65935347Y71283218D01*
X65956971Y71293446D01*
X65979493Y71301504D01*
X66002697Y71307316D01*
X66026358Y71310826D01*
X66050250Y71312000D01*
X66537750Y71312000D01*
X66561642Y71310826D01*
X66561642Y71310826D01*
G37*
D27*
X66294000Y70612000D03*
D10*
G36*
X64686642Y71310826D02*
G01*
X64710303Y71307316D01*
X64733507Y71301504D01*
X64756029Y71293446D01*
X64777653Y71283218D01*
X64798170Y71270921D01*
X64817383Y71256671D01*
X64835107Y71240607D01*
X64851171Y71222883D01*
X64865421Y71203670D01*
X64877718Y71183153D01*
X64887946Y71161529D01*
X64896004Y71139007D01*
X64901816Y71115803D01*
X64905326Y71092142D01*
X64906500Y71068250D01*
X64906500Y70155750D01*
X64905326Y70131858D01*
X64901816Y70108197D01*
X64896004Y70084993D01*
X64887946Y70062471D01*
X64877718Y70040847D01*
X64865421Y70020330D01*
X64851171Y70001117D01*
X64835107Y69983393D01*
X64817383Y69967329D01*
X64798170Y69953079D01*
X64777653Y69940782D01*
X64756029Y69930554D01*
X64733507Y69922496D01*
X64710303Y69916684D01*
X64686642Y69913174D01*
X64662750Y69912000D01*
X64175250Y69912000D01*
X64151358Y69913174D01*
X64127697Y69916684D01*
X64104493Y69922496D01*
X64081971Y69930554D01*
X64060347Y69940782D01*
X64039830Y69953079D01*
X64020617Y69967329D01*
X64002893Y69983393D01*
X63986829Y70001117D01*
X63972579Y70020330D01*
X63960282Y70040847D01*
X63950054Y70062471D01*
X63941996Y70084993D01*
X63936184Y70108197D01*
X63932674Y70131858D01*
X63931500Y70155750D01*
X63931500Y71068250D01*
X63932674Y71092142D01*
X63936184Y71115803D01*
X63941996Y71139007D01*
X63950054Y71161529D01*
X63960282Y71183153D01*
X63972579Y71203670D01*
X63986829Y71222883D01*
X64002893Y71240607D01*
X64020617Y71256671D01*
X64039830Y71270921D01*
X64060347Y71283218D01*
X64081971Y71293446D01*
X64104493Y71301504D01*
X64127697Y71307316D01*
X64151358Y71310826D01*
X64175250Y71312000D01*
X64662750Y71312000D01*
X64686642Y71310826D01*
X64686642Y71310826D01*
G37*
D27*
X64419000Y70612000D03*
D10*
G36*
X66561642Y67754826D02*
G01*
X66585303Y67751316D01*
X66608507Y67745504D01*
X66631029Y67737446D01*
X66652653Y67727218D01*
X66673170Y67714921D01*
X66692383Y67700671D01*
X66710107Y67684607D01*
X66726171Y67666883D01*
X66740421Y67647670D01*
X66752718Y67627153D01*
X66762946Y67605529D01*
X66771004Y67583007D01*
X66776816Y67559803D01*
X66780326Y67536142D01*
X66781500Y67512250D01*
X66781500Y66599750D01*
X66780326Y66575858D01*
X66776816Y66552197D01*
X66771004Y66528993D01*
X66762946Y66506471D01*
X66752718Y66484847D01*
X66740421Y66464330D01*
X66726171Y66445117D01*
X66710107Y66427393D01*
X66692383Y66411329D01*
X66673170Y66397079D01*
X66652653Y66384782D01*
X66631029Y66374554D01*
X66608507Y66366496D01*
X66585303Y66360684D01*
X66561642Y66357174D01*
X66537750Y66356000D01*
X66050250Y66356000D01*
X66026358Y66357174D01*
X66002697Y66360684D01*
X65979493Y66366496D01*
X65956971Y66374554D01*
X65935347Y66384782D01*
X65914830Y66397079D01*
X65895617Y66411329D01*
X65877893Y66427393D01*
X65861829Y66445117D01*
X65847579Y66464330D01*
X65835282Y66484847D01*
X65825054Y66506471D01*
X65816996Y66528993D01*
X65811184Y66552197D01*
X65807674Y66575858D01*
X65806500Y66599750D01*
X65806500Y67512250D01*
X65807674Y67536142D01*
X65811184Y67559803D01*
X65816996Y67583007D01*
X65825054Y67605529D01*
X65835282Y67627153D01*
X65847579Y67647670D01*
X65861829Y67666883D01*
X65877893Y67684607D01*
X65895617Y67700671D01*
X65914830Y67714921D01*
X65935347Y67727218D01*
X65956971Y67737446D01*
X65979493Y67745504D01*
X66002697Y67751316D01*
X66026358Y67754826D01*
X66050250Y67756000D01*
X66537750Y67756000D01*
X66561642Y67754826D01*
X66561642Y67754826D01*
G37*
D27*
X66294000Y67056000D03*
D10*
G36*
X64686642Y67754826D02*
G01*
X64710303Y67751316D01*
X64733507Y67745504D01*
X64756029Y67737446D01*
X64777653Y67727218D01*
X64798170Y67714921D01*
X64817383Y67700671D01*
X64835107Y67684607D01*
X64851171Y67666883D01*
X64865421Y67647670D01*
X64877718Y67627153D01*
X64887946Y67605529D01*
X64896004Y67583007D01*
X64901816Y67559803D01*
X64905326Y67536142D01*
X64906500Y67512250D01*
X64906500Y66599750D01*
X64905326Y66575858D01*
X64901816Y66552197D01*
X64896004Y66528993D01*
X64887946Y66506471D01*
X64877718Y66484847D01*
X64865421Y66464330D01*
X64851171Y66445117D01*
X64835107Y66427393D01*
X64817383Y66411329D01*
X64798170Y66397079D01*
X64777653Y66384782D01*
X64756029Y66374554D01*
X64733507Y66366496D01*
X64710303Y66360684D01*
X64686642Y66357174D01*
X64662750Y66356000D01*
X64175250Y66356000D01*
X64151358Y66357174D01*
X64127697Y66360684D01*
X64104493Y66366496D01*
X64081971Y66374554D01*
X64060347Y66384782D01*
X64039830Y66397079D01*
X64020617Y66411329D01*
X64002893Y66427393D01*
X63986829Y66445117D01*
X63972579Y66464330D01*
X63960282Y66484847D01*
X63950054Y66506471D01*
X63941996Y66528993D01*
X63936184Y66552197D01*
X63932674Y66575858D01*
X63931500Y66599750D01*
X63931500Y67512250D01*
X63932674Y67536142D01*
X63936184Y67559803D01*
X63941996Y67583007D01*
X63950054Y67605529D01*
X63960282Y67627153D01*
X63972579Y67647670D01*
X63986829Y67666883D01*
X64002893Y67684607D01*
X64020617Y67700671D01*
X64039830Y67714921D01*
X64060347Y67727218D01*
X64081971Y67737446D01*
X64104493Y67745504D01*
X64127697Y67751316D01*
X64151358Y67754826D01*
X64175250Y67756000D01*
X64662750Y67756000D01*
X64686642Y67754826D01*
X64686642Y67754826D01*
G37*
D27*
X64419000Y67056000D03*
D10*
G36*
X77188142Y89053826D02*
G01*
X77211803Y89050316D01*
X77235007Y89044504D01*
X77257529Y89036446D01*
X77279153Y89026218D01*
X77299670Y89013921D01*
X77318883Y88999671D01*
X77336607Y88983607D01*
X77352671Y88965883D01*
X77366921Y88946670D01*
X77379218Y88926153D01*
X77389446Y88904529D01*
X77397504Y88882007D01*
X77403316Y88858803D01*
X77406826Y88835142D01*
X77408000Y88811250D01*
X77408000Y88323750D01*
X77406826Y88299858D01*
X77403316Y88276197D01*
X77397504Y88252993D01*
X77389446Y88230471D01*
X77379218Y88208847D01*
X77366921Y88188330D01*
X77352671Y88169117D01*
X77336607Y88151393D01*
X77318883Y88135329D01*
X77299670Y88121079D01*
X77279153Y88108782D01*
X77257529Y88098554D01*
X77235007Y88090496D01*
X77211803Y88084684D01*
X77188142Y88081174D01*
X77164250Y88080000D01*
X76251750Y88080000D01*
X76227858Y88081174D01*
X76204197Y88084684D01*
X76180993Y88090496D01*
X76158471Y88098554D01*
X76136847Y88108782D01*
X76116330Y88121079D01*
X76097117Y88135329D01*
X76079393Y88151393D01*
X76063329Y88169117D01*
X76049079Y88188330D01*
X76036782Y88208847D01*
X76026554Y88230471D01*
X76018496Y88252993D01*
X76012684Y88276197D01*
X76009174Y88299858D01*
X76008000Y88323750D01*
X76008000Y88811250D01*
X76009174Y88835142D01*
X76012684Y88858803D01*
X76018496Y88882007D01*
X76026554Y88904529D01*
X76036782Y88926153D01*
X76049079Y88946670D01*
X76063329Y88965883D01*
X76079393Y88983607D01*
X76097117Y88999671D01*
X76116330Y89013921D01*
X76136847Y89026218D01*
X76158471Y89036446D01*
X76180993Y89044504D01*
X76204197Y89050316D01*
X76227858Y89053826D01*
X76251750Y89055000D01*
X77164250Y89055000D01*
X77188142Y89053826D01*
X77188142Y89053826D01*
G37*
D27*
X76708000Y88567500D03*
D10*
G36*
X77188142Y87178826D02*
G01*
X77211803Y87175316D01*
X77235007Y87169504D01*
X77257529Y87161446D01*
X77279153Y87151218D01*
X77299670Y87138921D01*
X77318883Y87124671D01*
X77336607Y87108607D01*
X77352671Y87090883D01*
X77366921Y87071670D01*
X77379218Y87051153D01*
X77389446Y87029529D01*
X77397504Y87007007D01*
X77403316Y86983803D01*
X77406826Y86960142D01*
X77408000Y86936250D01*
X77408000Y86448750D01*
X77406826Y86424858D01*
X77403316Y86401197D01*
X77397504Y86377993D01*
X77389446Y86355471D01*
X77379218Y86333847D01*
X77366921Y86313330D01*
X77352671Y86294117D01*
X77336607Y86276393D01*
X77318883Y86260329D01*
X77299670Y86246079D01*
X77279153Y86233782D01*
X77257529Y86223554D01*
X77235007Y86215496D01*
X77211803Y86209684D01*
X77188142Y86206174D01*
X77164250Y86205000D01*
X76251750Y86205000D01*
X76227858Y86206174D01*
X76204197Y86209684D01*
X76180993Y86215496D01*
X76158471Y86223554D01*
X76136847Y86233782D01*
X76116330Y86246079D01*
X76097117Y86260329D01*
X76079393Y86276393D01*
X76063329Y86294117D01*
X76049079Y86313330D01*
X76036782Y86333847D01*
X76026554Y86355471D01*
X76018496Y86377993D01*
X76012684Y86401197D01*
X76009174Y86424858D01*
X76008000Y86448750D01*
X76008000Y86936250D01*
X76009174Y86960142D01*
X76012684Y86983803D01*
X76018496Y87007007D01*
X76026554Y87029529D01*
X76036782Y87051153D01*
X76049079Y87071670D01*
X76063329Y87090883D01*
X76079393Y87108607D01*
X76097117Y87124671D01*
X76116330Y87138921D01*
X76136847Y87151218D01*
X76158471Y87161446D01*
X76180993Y87169504D01*
X76204197Y87175316D01*
X76227858Y87178826D01*
X76251750Y87180000D01*
X77164250Y87180000D01*
X77188142Y87178826D01*
X77188142Y87178826D01*
G37*
D27*
X76708000Y86692500D03*
D35*
X82676000Y117348000D03*
X79376000Y117348000D03*
D36*
X75438000Y115188000D03*
X75438000Y111888000D03*
D35*
X69470000Y107696000D03*
X72770000Y107696000D03*
D10*
G36*
X88759191Y75657947D02*
G01*
X88780426Y75654797D01*
X88801250Y75649581D01*
X88821462Y75642349D01*
X88840868Y75633170D01*
X88859281Y75622134D01*
X88876524Y75609346D01*
X88892430Y75594930D01*
X88906846Y75579024D01*
X88919634Y75561781D01*
X88930670Y75543368D01*
X88939849Y75523962D01*
X88947081Y75503750D01*
X88952297Y75482926D01*
X88955447Y75461691D01*
X88956500Y75440250D01*
X88956500Y74927750D01*
X88955447Y74906309D01*
X88952297Y74885074D01*
X88947081Y74864250D01*
X88939849Y74844038D01*
X88930670Y74824632D01*
X88919634Y74806219D01*
X88906846Y74788976D01*
X88892430Y74773070D01*
X88876524Y74758654D01*
X88859281Y74745866D01*
X88840868Y74734830D01*
X88821462Y74725651D01*
X88801250Y74718419D01*
X88780426Y74713203D01*
X88759191Y74710053D01*
X88737750Y74709000D01*
X88300250Y74709000D01*
X88278809Y74710053D01*
X88257574Y74713203D01*
X88236750Y74718419D01*
X88216538Y74725651D01*
X88197132Y74734830D01*
X88178719Y74745866D01*
X88161476Y74758654D01*
X88145570Y74773070D01*
X88131154Y74788976D01*
X88118366Y74806219D01*
X88107330Y74824632D01*
X88098151Y74844038D01*
X88090919Y74864250D01*
X88085703Y74885074D01*
X88082553Y74906309D01*
X88081500Y74927750D01*
X88081500Y75440250D01*
X88082553Y75461691D01*
X88085703Y75482926D01*
X88090919Y75503750D01*
X88098151Y75523962D01*
X88107330Y75543368D01*
X88118366Y75561781D01*
X88131154Y75579024D01*
X88145570Y75594930D01*
X88161476Y75609346D01*
X88178719Y75622134D01*
X88197132Y75633170D01*
X88216538Y75642349D01*
X88236750Y75649581D01*
X88257574Y75654797D01*
X88278809Y75657947D01*
X88300250Y75659000D01*
X88737750Y75659000D01*
X88759191Y75657947D01*
X88759191Y75657947D01*
G37*
D11*
X88519000Y75184000D03*
D10*
G36*
X90334191Y75657947D02*
G01*
X90355426Y75654797D01*
X90376250Y75649581D01*
X90396462Y75642349D01*
X90415868Y75633170D01*
X90434281Y75622134D01*
X90451524Y75609346D01*
X90467430Y75594930D01*
X90481846Y75579024D01*
X90494634Y75561781D01*
X90505670Y75543368D01*
X90514849Y75523962D01*
X90522081Y75503750D01*
X90527297Y75482926D01*
X90530447Y75461691D01*
X90531500Y75440250D01*
X90531500Y74927750D01*
X90530447Y74906309D01*
X90527297Y74885074D01*
X90522081Y74864250D01*
X90514849Y74844038D01*
X90505670Y74824632D01*
X90494634Y74806219D01*
X90481846Y74788976D01*
X90467430Y74773070D01*
X90451524Y74758654D01*
X90434281Y74745866D01*
X90415868Y74734830D01*
X90396462Y74725651D01*
X90376250Y74718419D01*
X90355426Y74713203D01*
X90334191Y74710053D01*
X90312750Y74709000D01*
X89875250Y74709000D01*
X89853809Y74710053D01*
X89832574Y74713203D01*
X89811750Y74718419D01*
X89791538Y74725651D01*
X89772132Y74734830D01*
X89753719Y74745866D01*
X89736476Y74758654D01*
X89720570Y74773070D01*
X89706154Y74788976D01*
X89693366Y74806219D01*
X89682330Y74824632D01*
X89673151Y74844038D01*
X89665919Y74864250D01*
X89660703Y74885074D01*
X89657553Y74906309D01*
X89656500Y74927750D01*
X89656500Y75440250D01*
X89657553Y75461691D01*
X89660703Y75482926D01*
X89665919Y75503750D01*
X89673151Y75523962D01*
X89682330Y75543368D01*
X89693366Y75561781D01*
X89706154Y75579024D01*
X89720570Y75594930D01*
X89736476Y75609346D01*
X89753719Y75622134D01*
X89772132Y75633170D01*
X89791538Y75642349D01*
X89811750Y75649581D01*
X89832574Y75654797D01*
X89853809Y75657947D01*
X89875250Y75659000D01*
X90312750Y75659000D01*
X90334191Y75657947D01*
X90334191Y75657947D01*
G37*
D11*
X90094000Y75184000D03*
D10*
G36*
X124737691Y72597947D02*
G01*
X124758926Y72594797D01*
X124779750Y72589581D01*
X124799962Y72582349D01*
X124819368Y72573170D01*
X124837781Y72562134D01*
X124855024Y72549346D01*
X124870930Y72534930D01*
X124885346Y72519024D01*
X124898134Y72501781D01*
X124909170Y72483368D01*
X124918349Y72463962D01*
X124925581Y72443750D01*
X124930797Y72422926D01*
X124933947Y72401691D01*
X124935000Y72380250D01*
X124935000Y71942750D01*
X124933947Y71921309D01*
X124930797Y71900074D01*
X124925581Y71879250D01*
X124918349Y71859038D01*
X124909170Y71839632D01*
X124898134Y71821219D01*
X124885346Y71803976D01*
X124870930Y71788070D01*
X124855024Y71773654D01*
X124837781Y71760866D01*
X124819368Y71749830D01*
X124799962Y71740651D01*
X124779750Y71733419D01*
X124758926Y71728203D01*
X124737691Y71725053D01*
X124716250Y71724000D01*
X124203750Y71724000D01*
X124182309Y71725053D01*
X124161074Y71728203D01*
X124140250Y71733419D01*
X124120038Y71740651D01*
X124100632Y71749830D01*
X124082219Y71760866D01*
X124064976Y71773654D01*
X124049070Y71788070D01*
X124034654Y71803976D01*
X124021866Y71821219D01*
X124010830Y71839632D01*
X124001651Y71859038D01*
X123994419Y71879250D01*
X123989203Y71900074D01*
X123986053Y71921309D01*
X123985000Y71942750D01*
X123985000Y72380250D01*
X123986053Y72401691D01*
X123989203Y72422926D01*
X123994419Y72443750D01*
X124001651Y72463962D01*
X124010830Y72483368D01*
X124021866Y72501781D01*
X124034654Y72519024D01*
X124049070Y72534930D01*
X124064976Y72549346D01*
X124082219Y72562134D01*
X124100632Y72573170D01*
X124120038Y72582349D01*
X124140250Y72589581D01*
X124161074Y72594797D01*
X124182309Y72597947D01*
X124203750Y72599000D01*
X124716250Y72599000D01*
X124737691Y72597947D01*
X124737691Y72597947D01*
G37*
D11*
X124460000Y72161500D03*
D10*
G36*
X124737691Y71022947D02*
G01*
X124758926Y71019797D01*
X124779750Y71014581D01*
X124799962Y71007349D01*
X124819368Y70998170D01*
X124837781Y70987134D01*
X124855024Y70974346D01*
X124870930Y70959930D01*
X124885346Y70944024D01*
X124898134Y70926781D01*
X124909170Y70908368D01*
X124918349Y70888962D01*
X124925581Y70868750D01*
X124930797Y70847926D01*
X124933947Y70826691D01*
X124935000Y70805250D01*
X124935000Y70367750D01*
X124933947Y70346309D01*
X124930797Y70325074D01*
X124925581Y70304250D01*
X124918349Y70284038D01*
X124909170Y70264632D01*
X124898134Y70246219D01*
X124885346Y70228976D01*
X124870930Y70213070D01*
X124855024Y70198654D01*
X124837781Y70185866D01*
X124819368Y70174830D01*
X124799962Y70165651D01*
X124779750Y70158419D01*
X124758926Y70153203D01*
X124737691Y70150053D01*
X124716250Y70149000D01*
X124203750Y70149000D01*
X124182309Y70150053D01*
X124161074Y70153203D01*
X124140250Y70158419D01*
X124120038Y70165651D01*
X124100632Y70174830D01*
X124082219Y70185866D01*
X124064976Y70198654D01*
X124049070Y70213070D01*
X124034654Y70228976D01*
X124021866Y70246219D01*
X124010830Y70264632D01*
X124001651Y70284038D01*
X123994419Y70304250D01*
X123989203Y70325074D01*
X123986053Y70346309D01*
X123985000Y70367750D01*
X123985000Y70805250D01*
X123986053Y70826691D01*
X123989203Y70847926D01*
X123994419Y70868750D01*
X124001651Y70888962D01*
X124010830Y70908368D01*
X124021866Y70926781D01*
X124034654Y70944024D01*
X124049070Y70959930D01*
X124064976Y70974346D01*
X124082219Y70987134D01*
X124100632Y70998170D01*
X124120038Y71007349D01*
X124140250Y71014581D01*
X124161074Y71019797D01*
X124182309Y71022947D01*
X124203750Y71024000D01*
X124716250Y71024000D01*
X124737691Y71022947D01*
X124737691Y71022947D01*
G37*
D11*
X124460000Y70586500D03*
D10*
G36*
X124979691Y101184947D02*
G01*
X125000926Y101181797D01*
X125021750Y101176581D01*
X125041962Y101169349D01*
X125061368Y101160170D01*
X125079781Y101149134D01*
X125097024Y101136346D01*
X125112930Y101121930D01*
X125127346Y101106024D01*
X125140134Y101088781D01*
X125151170Y101070368D01*
X125160349Y101050962D01*
X125167581Y101030750D01*
X125172797Y101009926D01*
X125175947Y100988691D01*
X125177000Y100967250D01*
X125177000Y100454750D01*
X125175947Y100433309D01*
X125172797Y100412074D01*
X125167581Y100391250D01*
X125160349Y100371038D01*
X125151170Y100351632D01*
X125140134Y100333219D01*
X125127346Y100315976D01*
X125112930Y100300070D01*
X125097024Y100285654D01*
X125079781Y100272866D01*
X125061368Y100261830D01*
X125041962Y100252651D01*
X125021750Y100245419D01*
X125000926Y100240203D01*
X124979691Y100237053D01*
X124958250Y100236000D01*
X124520750Y100236000D01*
X124499309Y100237053D01*
X124478074Y100240203D01*
X124457250Y100245419D01*
X124437038Y100252651D01*
X124417632Y100261830D01*
X124399219Y100272866D01*
X124381976Y100285654D01*
X124366070Y100300070D01*
X124351654Y100315976D01*
X124338866Y100333219D01*
X124327830Y100351632D01*
X124318651Y100371038D01*
X124311419Y100391250D01*
X124306203Y100412074D01*
X124303053Y100433309D01*
X124302000Y100454750D01*
X124302000Y100967250D01*
X124303053Y100988691D01*
X124306203Y101009926D01*
X124311419Y101030750D01*
X124318651Y101050962D01*
X124327830Y101070368D01*
X124338866Y101088781D01*
X124351654Y101106024D01*
X124366070Y101121930D01*
X124381976Y101136346D01*
X124399219Y101149134D01*
X124417632Y101160170D01*
X124437038Y101169349D01*
X124457250Y101176581D01*
X124478074Y101181797D01*
X124499309Y101184947D01*
X124520750Y101186000D01*
X124958250Y101186000D01*
X124979691Y101184947D01*
X124979691Y101184947D01*
G37*
D11*
X124739500Y100711000D03*
D10*
G36*
X123404691Y101184947D02*
G01*
X123425926Y101181797D01*
X123446750Y101176581D01*
X123466962Y101169349D01*
X123486368Y101160170D01*
X123504781Y101149134D01*
X123522024Y101136346D01*
X123537930Y101121930D01*
X123552346Y101106024D01*
X123565134Y101088781D01*
X123576170Y101070368D01*
X123585349Y101050962D01*
X123592581Y101030750D01*
X123597797Y101009926D01*
X123600947Y100988691D01*
X123602000Y100967250D01*
X123602000Y100454750D01*
X123600947Y100433309D01*
X123597797Y100412074D01*
X123592581Y100391250D01*
X123585349Y100371038D01*
X123576170Y100351632D01*
X123565134Y100333219D01*
X123552346Y100315976D01*
X123537930Y100300070D01*
X123522024Y100285654D01*
X123504781Y100272866D01*
X123486368Y100261830D01*
X123466962Y100252651D01*
X123446750Y100245419D01*
X123425926Y100240203D01*
X123404691Y100237053D01*
X123383250Y100236000D01*
X122945750Y100236000D01*
X122924309Y100237053D01*
X122903074Y100240203D01*
X122882250Y100245419D01*
X122862038Y100252651D01*
X122842632Y100261830D01*
X122824219Y100272866D01*
X122806976Y100285654D01*
X122791070Y100300070D01*
X122776654Y100315976D01*
X122763866Y100333219D01*
X122752830Y100351632D01*
X122743651Y100371038D01*
X122736419Y100391250D01*
X122731203Y100412074D01*
X122728053Y100433309D01*
X122727000Y100454750D01*
X122727000Y100967250D01*
X122728053Y100988691D01*
X122731203Y101009926D01*
X122736419Y101030750D01*
X122743651Y101050962D01*
X122752830Y101070368D01*
X122763866Y101088781D01*
X122776654Y101106024D01*
X122791070Y101121930D01*
X122806976Y101136346D01*
X122824219Y101149134D01*
X122842632Y101160170D01*
X122862038Y101169349D01*
X122882250Y101176581D01*
X122903074Y101181797D01*
X122924309Y101184947D01*
X122945750Y101186000D01*
X123383250Y101186000D01*
X123404691Y101184947D01*
X123404691Y101184947D01*
G37*
D11*
X123164500Y100711000D03*
D10*
G36*
X122324691Y98607447D02*
G01*
X122345926Y98604297D01*
X122366750Y98599081D01*
X122386962Y98591849D01*
X122406368Y98582670D01*
X122424781Y98571634D01*
X122442024Y98558846D01*
X122457930Y98544430D01*
X122472346Y98528524D01*
X122485134Y98511281D01*
X122496170Y98492868D01*
X122505349Y98473462D01*
X122512581Y98453250D01*
X122517797Y98432426D01*
X122520947Y98411191D01*
X122522000Y98389750D01*
X122522000Y97952250D01*
X122520947Y97930809D01*
X122517797Y97909574D01*
X122512581Y97888750D01*
X122505349Y97868538D01*
X122496170Y97849132D01*
X122485134Y97830719D01*
X122472346Y97813476D01*
X122457930Y97797570D01*
X122442024Y97783154D01*
X122424781Y97770366D01*
X122406368Y97759330D01*
X122386962Y97750151D01*
X122366750Y97742919D01*
X122345926Y97737703D01*
X122324691Y97734553D01*
X122303250Y97733500D01*
X121790750Y97733500D01*
X121769309Y97734553D01*
X121748074Y97737703D01*
X121727250Y97742919D01*
X121707038Y97750151D01*
X121687632Y97759330D01*
X121669219Y97770366D01*
X121651976Y97783154D01*
X121636070Y97797570D01*
X121621654Y97813476D01*
X121608866Y97830719D01*
X121597830Y97849132D01*
X121588651Y97868538D01*
X121581419Y97888750D01*
X121576203Y97909574D01*
X121573053Y97930809D01*
X121572000Y97952250D01*
X121572000Y98389750D01*
X121573053Y98411191D01*
X121576203Y98432426D01*
X121581419Y98453250D01*
X121588651Y98473462D01*
X121597830Y98492868D01*
X121608866Y98511281D01*
X121621654Y98528524D01*
X121636070Y98544430D01*
X121651976Y98558846D01*
X121669219Y98571634D01*
X121687632Y98582670D01*
X121707038Y98591849D01*
X121727250Y98599081D01*
X121748074Y98604297D01*
X121769309Y98607447D01*
X121790750Y98608500D01*
X122303250Y98608500D01*
X122324691Y98607447D01*
X122324691Y98607447D01*
G37*
D11*
X122047000Y98171000D03*
D10*
G36*
X122324691Y97032447D02*
G01*
X122345926Y97029297D01*
X122366750Y97024081D01*
X122386962Y97016849D01*
X122406368Y97007670D01*
X122424781Y96996634D01*
X122442024Y96983846D01*
X122457930Y96969430D01*
X122472346Y96953524D01*
X122485134Y96936281D01*
X122496170Y96917868D01*
X122505349Y96898462D01*
X122512581Y96878250D01*
X122517797Y96857426D01*
X122520947Y96836191D01*
X122522000Y96814750D01*
X122522000Y96377250D01*
X122520947Y96355809D01*
X122517797Y96334574D01*
X122512581Y96313750D01*
X122505349Y96293538D01*
X122496170Y96274132D01*
X122485134Y96255719D01*
X122472346Y96238476D01*
X122457930Y96222570D01*
X122442024Y96208154D01*
X122424781Y96195366D01*
X122406368Y96184330D01*
X122386962Y96175151D01*
X122366750Y96167919D01*
X122345926Y96162703D01*
X122324691Y96159553D01*
X122303250Y96158500D01*
X121790750Y96158500D01*
X121769309Y96159553D01*
X121748074Y96162703D01*
X121727250Y96167919D01*
X121707038Y96175151D01*
X121687632Y96184330D01*
X121669219Y96195366D01*
X121651976Y96208154D01*
X121636070Y96222570D01*
X121621654Y96238476D01*
X121608866Y96255719D01*
X121597830Y96274132D01*
X121588651Y96293538D01*
X121581419Y96313750D01*
X121576203Y96334574D01*
X121573053Y96355809D01*
X121572000Y96377250D01*
X121572000Y96814750D01*
X121573053Y96836191D01*
X121576203Y96857426D01*
X121581419Y96878250D01*
X121588651Y96898462D01*
X121597830Y96917868D01*
X121608866Y96936281D01*
X121621654Y96953524D01*
X121636070Y96969430D01*
X121651976Y96983846D01*
X121669219Y96996634D01*
X121687632Y97007670D01*
X121707038Y97016849D01*
X121727250Y97024081D01*
X121748074Y97029297D01*
X121769309Y97032447D01*
X121790750Y97033500D01*
X122303250Y97033500D01*
X122324691Y97032447D01*
X122324691Y97032447D01*
G37*
D11*
X122047000Y96596000D03*
D10*
G36*
X79742191Y80229947D02*
G01*
X79763426Y80226797D01*
X79784250Y80221581D01*
X79804462Y80214349D01*
X79823868Y80205170D01*
X79842281Y80194134D01*
X79859524Y80181346D01*
X79875430Y80166930D01*
X79889846Y80151024D01*
X79902634Y80133781D01*
X79913670Y80115368D01*
X79922849Y80095962D01*
X79930081Y80075750D01*
X79935297Y80054926D01*
X79938447Y80033691D01*
X79939500Y80012250D01*
X79939500Y79499750D01*
X79938447Y79478309D01*
X79935297Y79457074D01*
X79930081Y79436250D01*
X79922849Y79416038D01*
X79913670Y79396632D01*
X79902634Y79378219D01*
X79889846Y79360976D01*
X79875430Y79345070D01*
X79859524Y79330654D01*
X79842281Y79317866D01*
X79823868Y79306830D01*
X79804462Y79297651D01*
X79784250Y79290419D01*
X79763426Y79285203D01*
X79742191Y79282053D01*
X79720750Y79281000D01*
X79283250Y79281000D01*
X79261809Y79282053D01*
X79240574Y79285203D01*
X79219750Y79290419D01*
X79199538Y79297651D01*
X79180132Y79306830D01*
X79161719Y79317866D01*
X79144476Y79330654D01*
X79128570Y79345070D01*
X79114154Y79360976D01*
X79101366Y79378219D01*
X79090330Y79396632D01*
X79081151Y79416038D01*
X79073919Y79436250D01*
X79068703Y79457074D01*
X79065553Y79478309D01*
X79064500Y79499750D01*
X79064500Y80012250D01*
X79065553Y80033691D01*
X79068703Y80054926D01*
X79073919Y80075750D01*
X79081151Y80095962D01*
X79090330Y80115368D01*
X79101366Y80133781D01*
X79114154Y80151024D01*
X79128570Y80166930D01*
X79144476Y80181346D01*
X79161719Y80194134D01*
X79180132Y80205170D01*
X79199538Y80214349D01*
X79219750Y80221581D01*
X79240574Y80226797D01*
X79261809Y80229947D01*
X79283250Y80231000D01*
X79720750Y80231000D01*
X79742191Y80229947D01*
X79742191Y80229947D01*
G37*
D11*
X79502000Y79756000D03*
D10*
G36*
X78167191Y80229947D02*
G01*
X78188426Y80226797D01*
X78209250Y80221581D01*
X78229462Y80214349D01*
X78248868Y80205170D01*
X78267281Y80194134D01*
X78284524Y80181346D01*
X78300430Y80166930D01*
X78314846Y80151024D01*
X78327634Y80133781D01*
X78338670Y80115368D01*
X78347849Y80095962D01*
X78355081Y80075750D01*
X78360297Y80054926D01*
X78363447Y80033691D01*
X78364500Y80012250D01*
X78364500Y79499750D01*
X78363447Y79478309D01*
X78360297Y79457074D01*
X78355081Y79436250D01*
X78347849Y79416038D01*
X78338670Y79396632D01*
X78327634Y79378219D01*
X78314846Y79360976D01*
X78300430Y79345070D01*
X78284524Y79330654D01*
X78267281Y79317866D01*
X78248868Y79306830D01*
X78229462Y79297651D01*
X78209250Y79290419D01*
X78188426Y79285203D01*
X78167191Y79282053D01*
X78145750Y79281000D01*
X77708250Y79281000D01*
X77686809Y79282053D01*
X77665574Y79285203D01*
X77644750Y79290419D01*
X77624538Y79297651D01*
X77605132Y79306830D01*
X77586719Y79317866D01*
X77569476Y79330654D01*
X77553570Y79345070D01*
X77539154Y79360976D01*
X77526366Y79378219D01*
X77515330Y79396632D01*
X77506151Y79416038D01*
X77498919Y79436250D01*
X77493703Y79457074D01*
X77490553Y79478309D01*
X77489500Y79499750D01*
X77489500Y80012250D01*
X77490553Y80033691D01*
X77493703Y80054926D01*
X77498919Y80075750D01*
X77506151Y80095962D01*
X77515330Y80115368D01*
X77526366Y80133781D01*
X77539154Y80151024D01*
X77553570Y80166930D01*
X77569476Y80181346D01*
X77586719Y80194134D01*
X77605132Y80205170D01*
X77624538Y80214349D01*
X77644750Y80221581D01*
X77665574Y80226797D01*
X77686809Y80229947D01*
X77708250Y80231000D01*
X78145750Y80231000D01*
X78167191Y80229947D01*
X78167191Y80229947D01*
G37*
D11*
X77927000Y79756000D03*
D10*
G36*
X79742191Y76419947D02*
G01*
X79763426Y76416797D01*
X79784250Y76411581D01*
X79804462Y76404349D01*
X79823868Y76395170D01*
X79842281Y76384134D01*
X79859524Y76371346D01*
X79875430Y76356930D01*
X79889846Y76341024D01*
X79902634Y76323781D01*
X79913670Y76305368D01*
X79922849Y76285962D01*
X79930081Y76265750D01*
X79935297Y76244926D01*
X79938447Y76223691D01*
X79939500Y76202250D01*
X79939500Y75689750D01*
X79938447Y75668309D01*
X79935297Y75647074D01*
X79930081Y75626250D01*
X79922849Y75606038D01*
X79913670Y75586632D01*
X79902634Y75568219D01*
X79889846Y75550976D01*
X79875430Y75535070D01*
X79859524Y75520654D01*
X79842281Y75507866D01*
X79823868Y75496830D01*
X79804462Y75487651D01*
X79784250Y75480419D01*
X79763426Y75475203D01*
X79742191Y75472053D01*
X79720750Y75471000D01*
X79283250Y75471000D01*
X79261809Y75472053D01*
X79240574Y75475203D01*
X79219750Y75480419D01*
X79199538Y75487651D01*
X79180132Y75496830D01*
X79161719Y75507866D01*
X79144476Y75520654D01*
X79128570Y75535070D01*
X79114154Y75550976D01*
X79101366Y75568219D01*
X79090330Y75586632D01*
X79081151Y75606038D01*
X79073919Y75626250D01*
X79068703Y75647074D01*
X79065553Y75668309D01*
X79064500Y75689750D01*
X79064500Y76202250D01*
X79065553Y76223691D01*
X79068703Y76244926D01*
X79073919Y76265750D01*
X79081151Y76285962D01*
X79090330Y76305368D01*
X79101366Y76323781D01*
X79114154Y76341024D01*
X79128570Y76356930D01*
X79144476Y76371346D01*
X79161719Y76384134D01*
X79180132Y76395170D01*
X79199538Y76404349D01*
X79219750Y76411581D01*
X79240574Y76416797D01*
X79261809Y76419947D01*
X79283250Y76421000D01*
X79720750Y76421000D01*
X79742191Y76419947D01*
X79742191Y76419947D01*
G37*
D11*
X79502000Y75946000D03*
D10*
G36*
X78167191Y76419947D02*
G01*
X78188426Y76416797D01*
X78209250Y76411581D01*
X78229462Y76404349D01*
X78248868Y76395170D01*
X78267281Y76384134D01*
X78284524Y76371346D01*
X78300430Y76356930D01*
X78314846Y76341024D01*
X78327634Y76323781D01*
X78338670Y76305368D01*
X78347849Y76285962D01*
X78355081Y76265750D01*
X78360297Y76244926D01*
X78363447Y76223691D01*
X78364500Y76202250D01*
X78364500Y75689750D01*
X78363447Y75668309D01*
X78360297Y75647074D01*
X78355081Y75626250D01*
X78347849Y75606038D01*
X78338670Y75586632D01*
X78327634Y75568219D01*
X78314846Y75550976D01*
X78300430Y75535070D01*
X78284524Y75520654D01*
X78267281Y75507866D01*
X78248868Y75496830D01*
X78229462Y75487651D01*
X78209250Y75480419D01*
X78188426Y75475203D01*
X78167191Y75472053D01*
X78145750Y75471000D01*
X77708250Y75471000D01*
X77686809Y75472053D01*
X77665574Y75475203D01*
X77644750Y75480419D01*
X77624538Y75487651D01*
X77605132Y75496830D01*
X77586719Y75507866D01*
X77569476Y75520654D01*
X77553570Y75535070D01*
X77539154Y75550976D01*
X77526366Y75568219D01*
X77515330Y75586632D01*
X77506151Y75606038D01*
X77498919Y75626250D01*
X77493703Y75647074D01*
X77490553Y75668309D01*
X77489500Y75689750D01*
X77489500Y76202250D01*
X77490553Y76223691D01*
X77493703Y76244926D01*
X77498919Y76265750D01*
X77506151Y76285962D01*
X77515330Y76305368D01*
X77526366Y76323781D01*
X77539154Y76341024D01*
X77553570Y76356930D01*
X77569476Y76371346D01*
X77586719Y76384134D01*
X77605132Y76395170D01*
X77624538Y76404349D01*
X77644750Y76411581D01*
X77665574Y76416797D01*
X77686809Y76419947D01*
X77708250Y76421000D01*
X78145750Y76421000D01*
X78167191Y76419947D01*
X78167191Y76419947D01*
G37*
D11*
X77927000Y75946000D03*
D10*
G36*
X94511691Y115498447D02*
G01*
X94532926Y115495297D01*
X94553750Y115490081D01*
X94573962Y115482849D01*
X94593368Y115473670D01*
X94611781Y115462634D01*
X94629024Y115449846D01*
X94644930Y115435430D01*
X94659346Y115419524D01*
X94672134Y115402281D01*
X94683170Y115383868D01*
X94692349Y115364462D01*
X94699581Y115344250D01*
X94704797Y115323426D01*
X94707947Y115302191D01*
X94709000Y115280750D01*
X94709000Y114843250D01*
X94707947Y114821809D01*
X94704797Y114800574D01*
X94699581Y114779750D01*
X94692349Y114759538D01*
X94683170Y114740132D01*
X94672134Y114721719D01*
X94659346Y114704476D01*
X94644930Y114688570D01*
X94629024Y114674154D01*
X94611781Y114661366D01*
X94593368Y114650330D01*
X94573962Y114641151D01*
X94553750Y114633919D01*
X94532926Y114628703D01*
X94511691Y114625553D01*
X94490250Y114624500D01*
X93977750Y114624500D01*
X93956309Y114625553D01*
X93935074Y114628703D01*
X93914250Y114633919D01*
X93894038Y114641151D01*
X93874632Y114650330D01*
X93856219Y114661366D01*
X93838976Y114674154D01*
X93823070Y114688570D01*
X93808654Y114704476D01*
X93795866Y114721719D01*
X93784830Y114740132D01*
X93775651Y114759538D01*
X93768419Y114779750D01*
X93763203Y114800574D01*
X93760053Y114821809D01*
X93759000Y114843250D01*
X93759000Y115280750D01*
X93760053Y115302191D01*
X93763203Y115323426D01*
X93768419Y115344250D01*
X93775651Y115364462D01*
X93784830Y115383868D01*
X93795866Y115402281D01*
X93808654Y115419524D01*
X93823070Y115435430D01*
X93838976Y115449846D01*
X93856219Y115462634D01*
X93874632Y115473670D01*
X93894038Y115482849D01*
X93914250Y115490081D01*
X93935074Y115495297D01*
X93956309Y115498447D01*
X93977750Y115499500D01*
X94490250Y115499500D01*
X94511691Y115498447D01*
X94511691Y115498447D01*
G37*
D11*
X94234000Y115062000D03*
D10*
G36*
X94511691Y113923447D02*
G01*
X94532926Y113920297D01*
X94553750Y113915081D01*
X94573962Y113907849D01*
X94593368Y113898670D01*
X94611781Y113887634D01*
X94629024Y113874846D01*
X94644930Y113860430D01*
X94659346Y113844524D01*
X94672134Y113827281D01*
X94683170Y113808868D01*
X94692349Y113789462D01*
X94699581Y113769250D01*
X94704797Y113748426D01*
X94707947Y113727191D01*
X94709000Y113705750D01*
X94709000Y113268250D01*
X94707947Y113246809D01*
X94704797Y113225574D01*
X94699581Y113204750D01*
X94692349Y113184538D01*
X94683170Y113165132D01*
X94672134Y113146719D01*
X94659346Y113129476D01*
X94644930Y113113570D01*
X94629024Y113099154D01*
X94611781Y113086366D01*
X94593368Y113075330D01*
X94573962Y113066151D01*
X94553750Y113058919D01*
X94532926Y113053703D01*
X94511691Y113050553D01*
X94490250Y113049500D01*
X93977750Y113049500D01*
X93956309Y113050553D01*
X93935074Y113053703D01*
X93914250Y113058919D01*
X93894038Y113066151D01*
X93874632Y113075330D01*
X93856219Y113086366D01*
X93838976Y113099154D01*
X93823070Y113113570D01*
X93808654Y113129476D01*
X93795866Y113146719D01*
X93784830Y113165132D01*
X93775651Y113184538D01*
X93768419Y113204750D01*
X93763203Y113225574D01*
X93760053Y113246809D01*
X93759000Y113268250D01*
X93759000Y113705750D01*
X93760053Y113727191D01*
X93763203Y113748426D01*
X93768419Y113769250D01*
X93775651Y113789462D01*
X93784830Y113808868D01*
X93795866Y113827281D01*
X93808654Y113844524D01*
X93823070Y113860430D01*
X93838976Y113874846D01*
X93856219Y113887634D01*
X93874632Y113898670D01*
X93894038Y113907849D01*
X93914250Y113915081D01*
X93935074Y113920297D01*
X93956309Y113923447D01*
X93977750Y113924500D01*
X94490250Y113924500D01*
X94511691Y113923447D01*
X94511691Y113923447D01*
G37*
D11*
X94234000Y113487000D03*
D10*
G36*
X104925691Y112932947D02*
G01*
X104946926Y112929797D01*
X104967750Y112924581D01*
X104987962Y112917349D01*
X105007368Y112908170D01*
X105025781Y112897134D01*
X105043024Y112884346D01*
X105058930Y112869930D01*
X105073346Y112854024D01*
X105086134Y112836781D01*
X105097170Y112818368D01*
X105106349Y112798962D01*
X105113581Y112778750D01*
X105118797Y112757926D01*
X105121947Y112736691D01*
X105123000Y112715250D01*
X105123000Y112277750D01*
X105121947Y112256309D01*
X105118797Y112235074D01*
X105113581Y112214250D01*
X105106349Y112194038D01*
X105097170Y112174632D01*
X105086134Y112156219D01*
X105073346Y112138976D01*
X105058930Y112123070D01*
X105043024Y112108654D01*
X105025781Y112095866D01*
X105007368Y112084830D01*
X104987962Y112075651D01*
X104967750Y112068419D01*
X104946926Y112063203D01*
X104925691Y112060053D01*
X104904250Y112059000D01*
X104391750Y112059000D01*
X104370309Y112060053D01*
X104349074Y112063203D01*
X104328250Y112068419D01*
X104308038Y112075651D01*
X104288632Y112084830D01*
X104270219Y112095866D01*
X104252976Y112108654D01*
X104237070Y112123070D01*
X104222654Y112138976D01*
X104209866Y112156219D01*
X104198830Y112174632D01*
X104189651Y112194038D01*
X104182419Y112214250D01*
X104177203Y112235074D01*
X104174053Y112256309D01*
X104173000Y112277750D01*
X104173000Y112715250D01*
X104174053Y112736691D01*
X104177203Y112757926D01*
X104182419Y112778750D01*
X104189651Y112798962D01*
X104198830Y112818368D01*
X104209866Y112836781D01*
X104222654Y112854024D01*
X104237070Y112869930D01*
X104252976Y112884346D01*
X104270219Y112897134D01*
X104288632Y112908170D01*
X104308038Y112917349D01*
X104328250Y112924581D01*
X104349074Y112929797D01*
X104370309Y112932947D01*
X104391750Y112934000D01*
X104904250Y112934000D01*
X104925691Y112932947D01*
X104925691Y112932947D01*
G37*
D11*
X104648000Y112496500D03*
D10*
G36*
X104925691Y114507947D02*
G01*
X104946926Y114504797D01*
X104967750Y114499581D01*
X104987962Y114492349D01*
X105007368Y114483170D01*
X105025781Y114472134D01*
X105043024Y114459346D01*
X105058930Y114444930D01*
X105073346Y114429024D01*
X105086134Y114411781D01*
X105097170Y114393368D01*
X105106349Y114373962D01*
X105113581Y114353750D01*
X105118797Y114332926D01*
X105121947Y114311691D01*
X105123000Y114290250D01*
X105123000Y113852750D01*
X105121947Y113831309D01*
X105118797Y113810074D01*
X105113581Y113789250D01*
X105106349Y113769038D01*
X105097170Y113749632D01*
X105086134Y113731219D01*
X105073346Y113713976D01*
X105058930Y113698070D01*
X105043024Y113683654D01*
X105025781Y113670866D01*
X105007368Y113659830D01*
X104987962Y113650651D01*
X104967750Y113643419D01*
X104946926Y113638203D01*
X104925691Y113635053D01*
X104904250Y113634000D01*
X104391750Y113634000D01*
X104370309Y113635053D01*
X104349074Y113638203D01*
X104328250Y113643419D01*
X104308038Y113650651D01*
X104288632Y113659830D01*
X104270219Y113670866D01*
X104252976Y113683654D01*
X104237070Y113698070D01*
X104222654Y113713976D01*
X104209866Y113731219D01*
X104198830Y113749632D01*
X104189651Y113769038D01*
X104182419Y113789250D01*
X104177203Y113810074D01*
X104174053Y113831309D01*
X104173000Y113852750D01*
X104173000Y114290250D01*
X104174053Y114311691D01*
X104177203Y114332926D01*
X104182419Y114353750D01*
X104189651Y114373962D01*
X104198830Y114393368D01*
X104209866Y114411781D01*
X104222654Y114429024D01*
X104237070Y114444930D01*
X104252976Y114459346D01*
X104270219Y114472134D01*
X104288632Y114483170D01*
X104308038Y114492349D01*
X104328250Y114499581D01*
X104349074Y114504797D01*
X104370309Y114507947D01*
X104391750Y114509000D01*
X104904250Y114509000D01*
X104925691Y114507947D01*
X104925691Y114507947D01*
G37*
D11*
X104648000Y114071500D03*
D10*
G36*
X118641691Y112932947D02*
G01*
X118662926Y112929797D01*
X118683750Y112924581D01*
X118703962Y112917349D01*
X118723368Y112908170D01*
X118741781Y112897134D01*
X118759024Y112884346D01*
X118774930Y112869930D01*
X118789346Y112854024D01*
X118802134Y112836781D01*
X118813170Y112818368D01*
X118822349Y112798962D01*
X118829581Y112778750D01*
X118834797Y112757926D01*
X118837947Y112736691D01*
X118839000Y112715250D01*
X118839000Y112277750D01*
X118837947Y112256309D01*
X118834797Y112235074D01*
X118829581Y112214250D01*
X118822349Y112194038D01*
X118813170Y112174632D01*
X118802134Y112156219D01*
X118789346Y112138976D01*
X118774930Y112123070D01*
X118759024Y112108654D01*
X118741781Y112095866D01*
X118723368Y112084830D01*
X118703962Y112075651D01*
X118683750Y112068419D01*
X118662926Y112063203D01*
X118641691Y112060053D01*
X118620250Y112059000D01*
X118107750Y112059000D01*
X118086309Y112060053D01*
X118065074Y112063203D01*
X118044250Y112068419D01*
X118024038Y112075651D01*
X118004632Y112084830D01*
X117986219Y112095866D01*
X117968976Y112108654D01*
X117953070Y112123070D01*
X117938654Y112138976D01*
X117925866Y112156219D01*
X117914830Y112174632D01*
X117905651Y112194038D01*
X117898419Y112214250D01*
X117893203Y112235074D01*
X117890053Y112256309D01*
X117889000Y112277750D01*
X117889000Y112715250D01*
X117890053Y112736691D01*
X117893203Y112757926D01*
X117898419Y112778750D01*
X117905651Y112798962D01*
X117914830Y112818368D01*
X117925866Y112836781D01*
X117938654Y112854024D01*
X117953070Y112869930D01*
X117968976Y112884346D01*
X117986219Y112897134D01*
X118004632Y112908170D01*
X118024038Y112917349D01*
X118044250Y112924581D01*
X118065074Y112929797D01*
X118086309Y112932947D01*
X118107750Y112934000D01*
X118620250Y112934000D01*
X118641691Y112932947D01*
X118641691Y112932947D01*
G37*
D11*
X118364000Y112496500D03*
D10*
G36*
X118641691Y114507947D02*
G01*
X118662926Y114504797D01*
X118683750Y114499581D01*
X118703962Y114492349D01*
X118723368Y114483170D01*
X118741781Y114472134D01*
X118759024Y114459346D01*
X118774930Y114444930D01*
X118789346Y114429024D01*
X118802134Y114411781D01*
X118813170Y114393368D01*
X118822349Y114373962D01*
X118829581Y114353750D01*
X118834797Y114332926D01*
X118837947Y114311691D01*
X118839000Y114290250D01*
X118839000Y113852750D01*
X118837947Y113831309D01*
X118834797Y113810074D01*
X118829581Y113789250D01*
X118822349Y113769038D01*
X118813170Y113749632D01*
X118802134Y113731219D01*
X118789346Y113713976D01*
X118774930Y113698070D01*
X118759024Y113683654D01*
X118741781Y113670866D01*
X118723368Y113659830D01*
X118703962Y113650651D01*
X118683750Y113643419D01*
X118662926Y113638203D01*
X118641691Y113635053D01*
X118620250Y113634000D01*
X118107750Y113634000D01*
X118086309Y113635053D01*
X118065074Y113638203D01*
X118044250Y113643419D01*
X118024038Y113650651D01*
X118004632Y113659830D01*
X117986219Y113670866D01*
X117968976Y113683654D01*
X117953070Y113698070D01*
X117938654Y113713976D01*
X117925866Y113731219D01*
X117914830Y113749632D01*
X117905651Y113769038D01*
X117898419Y113789250D01*
X117893203Y113810074D01*
X117890053Y113831309D01*
X117889000Y113852750D01*
X117889000Y114290250D01*
X117890053Y114311691D01*
X117893203Y114332926D01*
X117898419Y114353750D01*
X117905651Y114373962D01*
X117914830Y114393368D01*
X117925866Y114411781D01*
X117938654Y114429024D01*
X117953070Y114444930D01*
X117968976Y114459346D01*
X117986219Y114472134D01*
X118004632Y114483170D01*
X118024038Y114492349D01*
X118044250Y114499581D01*
X118065074Y114504797D01*
X118086309Y114507947D01*
X118107750Y114509000D01*
X118620250Y114509000D01*
X118641691Y114507947D01*
X118641691Y114507947D01*
G37*
D11*
X118364000Y114071500D03*
D10*
G36*
X87018691Y105465447D02*
G01*
X87039926Y105462297D01*
X87060750Y105457081D01*
X87080962Y105449849D01*
X87100368Y105440670D01*
X87118781Y105429634D01*
X87136024Y105416846D01*
X87151930Y105402430D01*
X87166346Y105386524D01*
X87179134Y105369281D01*
X87190170Y105350868D01*
X87199349Y105331462D01*
X87206581Y105311250D01*
X87211797Y105290426D01*
X87214947Y105269191D01*
X87216000Y105247750D01*
X87216000Y104810250D01*
X87214947Y104788809D01*
X87211797Y104767574D01*
X87206581Y104746750D01*
X87199349Y104726538D01*
X87190170Y104707132D01*
X87179134Y104688719D01*
X87166346Y104671476D01*
X87151930Y104655570D01*
X87136024Y104641154D01*
X87118781Y104628366D01*
X87100368Y104617330D01*
X87080962Y104608151D01*
X87060750Y104600919D01*
X87039926Y104595703D01*
X87018691Y104592553D01*
X86997250Y104591500D01*
X86484750Y104591500D01*
X86463309Y104592553D01*
X86442074Y104595703D01*
X86421250Y104600919D01*
X86401038Y104608151D01*
X86381632Y104617330D01*
X86363219Y104628366D01*
X86345976Y104641154D01*
X86330070Y104655570D01*
X86315654Y104671476D01*
X86302866Y104688719D01*
X86291830Y104707132D01*
X86282651Y104726538D01*
X86275419Y104746750D01*
X86270203Y104767574D01*
X86267053Y104788809D01*
X86266000Y104810250D01*
X86266000Y105247750D01*
X86267053Y105269191D01*
X86270203Y105290426D01*
X86275419Y105311250D01*
X86282651Y105331462D01*
X86291830Y105350868D01*
X86302866Y105369281D01*
X86315654Y105386524D01*
X86330070Y105402430D01*
X86345976Y105416846D01*
X86363219Y105429634D01*
X86381632Y105440670D01*
X86401038Y105449849D01*
X86421250Y105457081D01*
X86442074Y105462297D01*
X86463309Y105465447D01*
X86484750Y105466500D01*
X86997250Y105466500D01*
X87018691Y105465447D01*
X87018691Y105465447D01*
G37*
D11*
X86741000Y105029000D03*
D10*
G36*
X87018691Y103890447D02*
G01*
X87039926Y103887297D01*
X87060750Y103882081D01*
X87080962Y103874849D01*
X87100368Y103865670D01*
X87118781Y103854634D01*
X87136024Y103841846D01*
X87151930Y103827430D01*
X87166346Y103811524D01*
X87179134Y103794281D01*
X87190170Y103775868D01*
X87199349Y103756462D01*
X87206581Y103736250D01*
X87211797Y103715426D01*
X87214947Y103694191D01*
X87216000Y103672750D01*
X87216000Y103235250D01*
X87214947Y103213809D01*
X87211797Y103192574D01*
X87206581Y103171750D01*
X87199349Y103151538D01*
X87190170Y103132132D01*
X87179134Y103113719D01*
X87166346Y103096476D01*
X87151930Y103080570D01*
X87136024Y103066154D01*
X87118781Y103053366D01*
X87100368Y103042330D01*
X87080962Y103033151D01*
X87060750Y103025919D01*
X87039926Y103020703D01*
X87018691Y103017553D01*
X86997250Y103016500D01*
X86484750Y103016500D01*
X86463309Y103017553D01*
X86442074Y103020703D01*
X86421250Y103025919D01*
X86401038Y103033151D01*
X86381632Y103042330D01*
X86363219Y103053366D01*
X86345976Y103066154D01*
X86330070Y103080570D01*
X86315654Y103096476D01*
X86302866Y103113719D01*
X86291830Y103132132D01*
X86282651Y103151538D01*
X86275419Y103171750D01*
X86270203Y103192574D01*
X86267053Y103213809D01*
X86266000Y103235250D01*
X86266000Y103672750D01*
X86267053Y103694191D01*
X86270203Y103715426D01*
X86275419Y103736250D01*
X86282651Y103756462D01*
X86291830Y103775868D01*
X86302866Y103794281D01*
X86315654Y103811524D01*
X86330070Y103827430D01*
X86345976Y103841846D01*
X86363219Y103854634D01*
X86381632Y103865670D01*
X86401038Y103874849D01*
X86421250Y103882081D01*
X86442074Y103887297D01*
X86463309Y103890447D01*
X86484750Y103891500D01*
X86997250Y103891500D01*
X87018691Y103890447D01*
X87018691Y103890447D01*
G37*
D11*
X86741000Y103454000D03*
D10*
G36*
X86129691Y117784447D02*
G01*
X86150926Y117781297D01*
X86171750Y117776081D01*
X86191962Y117768849D01*
X86211368Y117759670D01*
X86229781Y117748634D01*
X86247024Y117735846D01*
X86262930Y117721430D01*
X86277346Y117705524D01*
X86290134Y117688281D01*
X86301170Y117669868D01*
X86310349Y117650462D01*
X86317581Y117630250D01*
X86322797Y117609426D01*
X86325947Y117588191D01*
X86327000Y117566750D01*
X86327000Y117129250D01*
X86325947Y117107809D01*
X86322797Y117086574D01*
X86317581Y117065750D01*
X86310349Y117045538D01*
X86301170Y117026132D01*
X86290134Y117007719D01*
X86277346Y116990476D01*
X86262930Y116974570D01*
X86247024Y116960154D01*
X86229781Y116947366D01*
X86211368Y116936330D01*
X86191962Y116927151D01*
X86171750Y116919919D01*
X86150926Y116914703D01*
X86129691Y116911553D01*
X86108250Y116910500D01*
X85595750Y116910500D01*
X85574309Y116911553D01*
X85553074Y116914703D01*
X85532250Y116919919D01*
X85512038Y116927151D01*
X85492632Y116936330D01*
X85474219Y116947366D01*
X85456976Y116960154D01*
X85441070Y116974570D01*
X85426654Y116990476D01*
X85413866Y117007719D01*
X85402830Y117026132D01*
X85393651Y117045538D01*
X85386419Y117065750D01*
X85381203Y117086574D01*
X85378053Y117107809D01*
X85377000Y117129250D01*
X85377000Y117566750D01*
X85378053Y117588191D01*
X85381203Y117609426D01*
X85386419Y117630250D01*
X85393651Y117650462D01*
X85402830Y117669868D01*
X85413866Y117688281D01*
X85426654Y117705524D01*
X85441070Y117721430D01*
X85456976Y117735846D01*
X85474219Y117748634D01*
X85492632Y117759670D01*
X85512038Y117768849D01*
X85532250Y117776081D01*
X85553074Y117781297D01*
X85574309Y117784447D01*
X85595750Y117785500D01*
X86108250Y117785500D01*
X86129691Y117784447D01*
X86129691Y117784447D01*
G37*
D11*
X85852000Y117348000D03*
D10*
G36*
X86129691Y116209447D02*
G01*
X86150926Y116206297D01*
X86171750Y116201081D01*
X86191962Y116193849D01*
X86211368Y116184670D01*
X86229781Y116173634D01*
X86247024Y116160846D01*
X86262930Y116146430D01*
X86277346Y116130524D01*
X86290134Y116113281D01*
X86301170Y116094868D01*
X86310349Y116075462D01*
X86317581Y116055250D01*
X86322797Y116034426D01*
X86325947Y116013191D01*
X86327000Y115991750D01*
X86327000Y115554250D01*
X86325947Y115532809D01*
X86322797Y115511574D01*
X86317581Y115490750D01*
X86310349Y115470538D01*
X86301170Y115451132D01*
X86290134Y115432719D01*
X86277346Y115415476D01*
X86262930Y115399570D01*
X86247024Y115385154D01*
X86229781Y115372366D01*
X86211368Y115361330D01*
X86191962Y115352151D01*
X86171750Y115344919D01*
X86150926Y115339703D01*
X86129691Y115336553D01*
X86108250Y115335500D01*
X85595750Y115335500D01*
X85574309Y115336553D01*
X85553074Y115339703D01*
X85532250Y115344919D01*
X85512038Y115352151D01*
X85492632Y115361330D01*
X85474219Y115372366D01*
X85456976Y115385154D01*
X85441070Y115399570D01*
X85426654Y115415476D01*
X85413866Y115432719D01*
X85402830Y115451132D01*
X85393651Y115470538D01*
X85386419Y115490750D01*
X85381203Y115511574D01*
X85378053Y115532809D01*
X85377000Y115554250D01*
X85377000Y115991750D01*
X85378053Y116013191D01*
X85381203Y116034426D01*
X85386419Y116055250D01*
X85393651Y116075462D01*
X85402830Y116094868D01*
X85413866Y116113281D01*
X85426654Y116130524D01*
X85441070Y116146430D01*
X85456976Y116160846D01*
X85474219Y116173634D01*
X85492632Y116184670D01*
X85512038Y116193849D01*
X85532250Y116201081D01*
X85553074Y116206297D01*
X85574309Y116209447D01*
X85595750Y116210500D01*
X86108250Y116210500D01*
X86129691Y116209447D01*
X86129691Y116209447D01*
G37*
D11*
X85852000Y115773000D03*
D10*
G36*
X99845691Y114507947D02*
G01*
X99866926Y114504797D01*
X99887750Y114499581D01*
X99907962Y114492349D01*
X99927368Y114483170D01*
X99945781Y114472134D01*
X99963024Y114459346D01*
X99978930Y114444930D01*
X99993346Y114429024D01*
X100006134Y114411781D01*
X100017170Y114393368D01*
X100026349Y114373962D01*
X100033581Y114353750D01*
X100038797Y114332926D01*
X100041947Y114311691D01*
X100043000Y114290250D01*
X100043000Y113852750D01*
X100041947Y113831309D01*
X100038797Y113810074D01*
X100033581Y113789250D01*
X100026349Y113769038D01*
X100017170Y113749632D01*
X100006134Y113731219D01*
X99993346Y113713976D01*
X99978930Y113698070D01*
X99963024Y113683654D01*
X99945781Y113670866D01*
X99927368Y113659830D01*
X99907962Y113650651D01*
X99887750Y113643419D01*
X99866926Y113638203D01*
X99845691Y113635053D01*
X99824250Y113634000D01*
X99311750Y113634000D01*
X99290309Y113635053D01*
X99269074Y113638203D01*
X99248250Y113643419D01*
X99228038Y113650651D01*
X99208632Y113659830D01*
X99190219Y113670866D01*
X99172976Y113683654D01*
X99157070Y113698070D01*
X99142654Y113713976D01*
X99129866Y113731219D01*
X99118830Y113749632D01*
X99109651Y113769038D01*
X99102419Y113789250D01*
X99097203Y113810074D01*
X99094053Y113831309D01*
X99093000Y113852750D01*
X99093000Y114290250D01*
X99094053Y114311691D01*
X99097203Y114332926D01*
X99102419Y114353750D01*
X99109651Y114373962D01*
X99118830Y114393368D01*
X99129866Y114411781D01*
X99142654Y114429024D01*
X99157070Y114444930D01*
X99172976Y114459346D01*
X99190219Y114472134D01*
X99208632Y114483170D01*
X99228038Y114492349D01*
X99248250Y114499581D01*
X99269074Y114504797D01*
X99290309Y114507947D01*
X99311750Y114509000D01*
X99824250Y114509000D01*
X99845691Y114507947D01*
X99845691Y114507947D01*
G37*
D11*
X99568000Y114071500D03*
D10*
G36*
X99845691Y112932947D02*
G01*
X99866926Y112929797D01*
X99887750Y112924581D01*
X99907962Y112917349D01*
X99927368Y112908170D01*
X99945781Y112897134D01*
X99963024Y112884346D01*
X99978930Y112869930D01*
X99993346Y112854024D01*
X100006134Y112836781D01*
X100017170Y112818368D01*
X100026349Y112798962D01*
X100033581Y112778750D01*
X100038797Y112757926D01*
X100041947Y112736691D01*
X100043000Y112715250D01*
X100043000Y112277750D01*
X100041947Y112256309D01*
X100038797Y112235074D01*
X100033581Y112214250D01*
X100026349Y112194038D01*
X100017170Y112174632D01*
X100006134Y112156219D01*
X99993346Y112138976D01*
X99978930Y112123070D01*
X99963024Y112108654D01*
X99945781Y112095866D01*
X99927368Y112084830D01*
X99907962Y112075651D01*
X99887750Y112068419D01*
X99866926Y112063203D01*
X99845691Y112060053D01*
X99824250Y112059000D01*
X99311750Y112059000D01*
X99290309Y112060053D01*
X99269074Y112063203D01*
X99248250Y112068419D01*
X99228038Y112075651D01*
X99208632Y112084830D01*
X99190219Y112095866D01*
X99172976Y112108654D01*
X99157070Y112123070D01*
X99142654Y112138976D01*
X99129866Y112156219D01*
X99118830Y112174632D01*
X99109651Y112194038D01*
X99102419Y112214250D01*
X99097203Y112235074D01*
X99094053Y112256309D01*
X99093000Y112277750D01*
X99093000Y112715250D01*
X99094053Y112736691D01*
X99097203Y112757926D01*
X99102419Y112778750D01*
X99109651Y112798962D01*
X99118830Y112818368D01*
X99129866Y112836781D01*
X99142654Y112854024D01*
X99157070Y112869930D01*
X99172976Y112884346D01*
X99190219Y112897134D01*
X99208632Y112908170D01*
X99228038Y112917349D01*
X99248250Y112924581D01*
X99269074Y112929797D01*
X99290309Y112932947D01*
X99311750Y112934000D01*
X99824250Y112934000D01*
X99845691Y112932947D01*
X99845691Y112932947D01*
G37*
D11*
X99568000Y112496500D03*
D10*
G36*
X110259691Y114507947D02*
G01*
X110280926Y114504797D01*
X110301750Y114499581D01*
X110321962Y114492349D01*
X110341368Y114483170D01*
X110359781Y114472134D01*
X110377024Y114459346D01*
X110392930Y114444930D01*
X110407346Y114429024D01*
X110420134Y114411781D01*
X110431170Y114393368D01*
X110440349Y114373962D01*
X110447581Y114353750D01*
X110452797Y114332926D01*
X110455947Y114311691D01*
X110457000Y114290250D01*
X110457000Y113852750D01*
X110455947Y113831309D01*
X110452797Y113810074D01*
X110447581Y113789250D01*
X110440349Y113769038D01*
X110431170Y113749632D01*
X110420134Y113731219D01*
X110407346Y113713976D01*
X110392930Y113698070D01*
X110377024Y113683654D01*
X110359781Y113670866D01*
X110341368Y113659830D01*
X110321962Y113650651D01*
X110301750Y113643419D01*
X110280926Y113638203D01*
X110259691Y113635053D01*
X110238250Y113634000D01*
X109725750Y113634000D01*
X109704309Y113635053D01*
X109683074Y113638203D01*
X109662250Y113643419D01*
X109642038Y113650651D01*
X109622632Y113659830D01*
X109604219Y113670866D01*
X109586976Y113683654D01*
X109571070Y113698070D01*
X109556654Y113713976D01*
X109543866Y113731219D01*
X109532830Y113749632D01*
X109523651Y113769038D01*
X109516419Y113789250D01*
X109511203Y113810074D01*
X109508053Y113831309D01*
X109507000Y113852750D01*
X109507000Y114290250D01*
X109508053Y114311691D01*
X109511203Y114332926D01*
X109516419Y114353750D01*
X109523651Y114373962D01*
X109532830Y114393368D01*
X109543866Y114411781D01*
X109556654Y114429024D01*
X109571070Y114444930D01*
X109586976Y114459346D01*
X109604219Y114472134D01*
X109622632Y114483170D01*
X109642038Y114492349D01*
X109662250Y114499581D01*
X109683074Y114504797D01*
X109704309Y114507947D01*
X109725750Y114509000D01*
X110238250Y114509000D01*
X110259691Y114507947D01*
X110259691Y114507947D01*
G37*
D11*
X109982000Y114071500D03*
D10*
G36*
X110259691Y112932947D02*
G01*
X110280926Y112929797D01*
X110301750Y112924581D01*
X110321962Y112917349D01*
X110341368Y112908170D01*
X110359781Y112897134D01*
X110377024Y112884346D01*
X110392930Y112869930D01*
X110407346Y112854024D01*
X110420134Y112836781D01*
X110431170Y112818368D01*
X110440349Y112798962D01*
X110447581Y112778750D01*
X110452797Y112757926D01*
X110455947Y112736691D01*
X110457000Y112715250D01*
X110457000Y112277750D01*
X110455947Y112256309D01*
X110452797Y112235074D01*
X110447581Y112214250D01*
X110440349Y112194038D01*
X110431170Y112174632D01*
X110420134Y112156219D01*
X110407346Y112138976D01*
X110392930Y112123070D01*
X110377024Y112108654D01*
X110359781Y112095866D01*
X110341368Y112084830D01*
X110321962Y112075651D01*
X110301750Y112068419D01*
X110280926Y112063203D01*
X110259691Y112060053D01*
X110238250Y112059000D01*
X109725750Y112059000D01*
X109704309Y112060053D01*
X109683074Y112063203D01*
X109662250Y112068419D01*
X109642038Y112075651D01*
X109622632Y112084830D01*
X109604219Y112095866D01*
X109586976Y112108654D01*
X109571070Y112123070D01*
X109556654Y112138976D01*
X109543866Y112156219D01*
X109532830Y112174632D01*
X109523651Y112194038D01*
X109516419Y112214250D01*
X109511203Y112235074D01*
X109508053Y112256309D01*
X109507000Y112277750D01*
X109507000Y112715250D01*
X109508053Y112736691D01*
X109511203Y112757926D01*
X109516419Y112778750D01*
X109523651Y112798962D01*
X109532830Y112818368D01*
X109543866Y112836781D01*
X109556654Y112854024D01*
X109571070Y112869930D01*
X109586976Y112884346D01*
X109604219Y112897134D01*
X109622632Y112908170D01*
X109642038Y112917349D01*
X109662250Y112924581D01*
X109683074Y112929797D01*
X109704309Y112932947D01*
X109725750Y112934000D01*
X110238250Y112934000D01*
X110259691Y112932947D01*
X110259691Y112932947D01*
G37*
D11*
X109982000Y112496500D03*
D10*
G36*
X76223691Y107903947D02*
G01*
X76244926Y107900797D01*
X76265750Y107895581D01*
X76285962Y107888349D01*
X76305368Y107879170D01*
X76323781Y107868134D01*
X76341024Y107855346D01*
X76356930Y107840930D01*
X76371346Y107825024D01*
X76384134Y107807781D01*
X76395170Y107789368D01*
X76404349Y107769962D01*
X76411581Y107749750D01*
X76416797Y107728926D01*
X76419947Y107707691D01*
X76421000Y107686250D01*
X76421000Y107248750D01*
X76419947Y107227309D01*
X76416797Y107206074D01*
X76411581Y107185250D01*
X76404349Y107165038D01*
X76395170Y107145632D01*
X76384134Y107127219D01*
X76371346Y107109976D01*
X76356930Y107094070D01*
X76341024Y107079654D01*
X76323781Y107066866D01*
X76305368Y107055830D01*
X76285962Y107046651D01*
X76265750Y107039419D01*
X76244926Y107034203D01*
X76223691Y107031053D01*
X76202250Y107030000D01*
X75689750Y107030000D01*
X75668309Y107031053D01*
X75647074Y107034203D01*
X75626250Y107039419D01*
X75606038Y107046651D01*
X75586632Y107055830D01*
X75568219Y107066866D01*
X75550976Y107079654D01*
X75535070Y107094070D01*
X75520654Y107109976D01*
X75507866Y107127219D01*
X75496830Y107145632D01*
X75487651Y107165038D01*
X75480419Y107185250D01*
X75475203Y107206074D01*
X75472053Y107227309D01*
X75471000Y107248750D01*
X75471000Y107686250D01*
X75472053Y107707691D01*
X75475203Y107728926D01*
X75480419Y107749750D01*
X75487651Y107769962D01*
X75496830Y107789368D01*
X75507866Y107807781D01*
X75520654Y107825024D01*
X75535070Y107840930D01*
X75550976Y107855346D01*
X75568219Y107868134D01*
X75586632Y107879170D01*
X75606038Y107888349D01*
X75626250Y107895581D01*
X75647074Y107900797D01*
X75668309Y107903947D01*
X75689750Y107905000D01*
X76202250Y107905000D01*
X76223691Y107903947D01*
X76223691Y107903947D01*
G37*
D11*
X75946000Y107467500D03*
D10*
G36*
X76223691Y106328947D02*
G01*
X76244926Y106325797D01*
X76265750Y106320581D01*
X76285962Y106313349D01*
X76305368Y106304170D01*
X76323781Y106293134D01*
X76341024Y106280346D01*
X76356930Y106265930D01*
X76371346Y106250024D01*
X76384134Y106232781D01*
X76395170Y106214368D01*
X76404349Y106194962D01*
X76411581Y106174750D01*
X76416797Y106153926D01*
X76419947Y106132691D01*
X76421000Y106111250D01*
X76421000Y105673750D01*
X76419947Y105652309D01*
X76416797Y105631074D01*
X76411581Y105610250D01*
X76404349Y105590038D01*
X76395170Y105570632D01*
X76384134Y105552219D01*
X76371346Y105534976D01*
X76356930Y105519070D01*
X76341024Y105504654D01*
X76323781Y105491866D01*
X76305368Y105480830D01*
X76285962Y105471651D01*
X76265750Y105464419D01*
X76244926Y105459203D01*
X76223691Y105456053D01*
X76202250Y105455000D01*
X75689750Y105455000D01*
X75668309Y105456053D01*
X75647074Y105459203D01*
X75626250Y105464419D01*
X75606038Y105471651D01*
X75586632Y105480830D01*
X75568219Y105491866D01*
X75550976Y105504654D01*
X75535070Y105519070D01*
X75520654Y105534976D01*
X75507866Y105552219D01*
X75496830Y105570632D01*
X75487651Y105590038D01*
X75480419Y105610250D01*
X75475203Y105631074D01*
X75472053Y105652309D01*
X75471000Y105673750D01*
X75471000Y106111250D01*
X75472053Y106132691D01*
X75475203Y106153926D01*
X75480419Y106174750D01*
X75487651Y106194962D01*
X75496830Y106214368D01*
X75507866Y106232781D01*
X75520654Y106250024D01*
X75535070Y106265930D01*
X75550976Y106280346D01*
X75568219Y106293134D01*
X75586632Y106304170D01*
X75606038Y106313349D01*
X75626250Y106320581D01*
X75647074Y106325797D01*
X75668309Y106328947D01*
X75689750Y106330000D01*
X76202250Y106330000D01*
X76223691Y106328947D01*
X76223691Y106328947D01*
G37*
D11*
X75946000Y105892500D03*
D10*
G36*
X71334691Y115535947D02*
G01*
X71355926Y115532797D01*
X71376750Y115527581D01*
X71396962Y115520349D01*
X71416368Y115511170D01*
X71434781Y115500134D01*
X71452024Y115487346D01*
X71467930Y115472930D01*
X71482346Y115457024D01*
X71495134Y115439781D01*
X71506170Y115421368D01*
X71515349Y115401962D01*
X71522581Y115381750D01*
X71527797Y115360926D01*
X71530947Y115339691D01*
X71532000Y115318250D01*
X71532000Y114805750D01*
X71530947Y114784309D01*
X71527797Y114763074D01*
X71522581Y114742250D01*
X71515349Y114722038D01*
X71506170Y114702632D01*
X71495134Y114684219D01*
X71482346Y114666976D01*
X71467930Y114651070D01*
X71452024Y114636654D01*
X71434781Y114623866D01*
X71416368Y114612830D01*
X71396962Y114603651D01*
X71376750Y114596419D01*
X71355926Y114591203D01*
X71334691Y114588053D01*
X71313250Y114587000D01*
X70875750Y114587000D01*
X70854309Y114588053D01*
X70833074Y114591203D01*
X70812250Y114596419D01*
X70792038Y114603651D01*
X70772632Y114612830D01*
X70754219Y114623866D01*
X70736976Y114636654D01*
X70721070Y114651070D01*
X70706654Y114666976D01*
X70693866Y114684219D01*
X70682830Y114702632D01*
X70673651Y114722038D01*
X70666419Y114742250D01*
X70661203Y114763074D01*
X70658053Y114784309D01*
X70657000Y114805750D01*
X70657000Y115318250D01*
X70658053Y115339691D01*
X70661203Y115360926D01*
X70666419Y115381750D01*
X70673651Y115401962D01*
X70682830Y115421368D01*
X70693866Y115439781D01*
X70706654Y115457024D01*
X70721070Y115472930D01*
X70736976Y115487346D01*
X70754219Y115500134D01*
X70772632Y115511170D01*
X70792038Y115520349D01*
X70812250Y115527581D01*
X70833074Y115532797D01*
X70854309Y115535947D01*
X70875750Y115537000D01*
X71313250Y115537000D01*
X71334691Y115535947D01*
X71334691Y115535947D01*
G37*
D11*
X71094500Y115062000D03*
D10*
G36*
X72909691Y115535947D02*
G01*
X72930926Y115532797D01*
X72951750Y115527581D01*
X72971962Y115520349D01*
X72991368Y115511170D01*
X73009781Y115500134D01*
X73027024Y115487346D01*
X73042930Y115472930D01*
X73057346Y115457024D01*
X73070134Y115439781D01*
X73081170Y115421368D01*
X73090349Y115401962D01*
X73097581Y115381750D01*
X73102797Y115360926D01*
X73105947Y115339691D01*
X73107000Y115318250D01*
X73107000Y114805750D01*
X73105947Y114784309D01*
X73102797Y114763074D01*
X73097581Y114742250D01*
X73090349Y114722038D01*
X73081170Y114702632D01*
X73070134Y114684219D01*
X73057346Y114666976D01*
X73042930Y114651070D01*
X73027024Y114636654D01*
X73009781Y114623866D01*
X72991368Y114612830D01*
X72971962Y114603651D01*
X72951750Y114596419D01*
X72930926Y114591203D01*
X72909691Y114588053D01*
X72888250Y114587000D01*
X72450750Y114587000D01*
X72429309Y114588053D01*
X72408074Y114591203D01*
X72387250Y114596419D01*
X72367038Y114603651D01*
X72347632Y114612830D01*
X72329219Y114623866D01*
X72311976Y114636654D01*
X72296070Y114651070D01*
X72281654Y114666976D01*
X72268866Y114684219D01*
X72257830Y114702632D01*
X72248651Y114722038D01*
X72241419Y114742250D01*
X72236203Y114763074D01*
X72233053Y114784309D01*
X72232000Y114805750D01*
X72232000Y115318250D01*
X72233053Y115339691D01*
X72236203Y115360926D01*
X72241419Y115381750D01*
X72248651Y115401962D01*
X72257830Y115421368D01*
X72268866Y115439781D01*
X72281654Y115457024D01*
X72296070Y115472930D01*
X72311976Y115487346D01*
X72329219Y115500134D01*
X72347632Y115511170D01*
X72367038Y115520349D01*
X72387250Y115527581D01*
X72408074Y115532797D01*
X72429309Y115535947D01*
X72450750Y115537000D01*
X72888250Y115537000D01*
X72909691Y115535947D01*
X72909691Y115535947D01*
G37*
D11*
X72669500Y115062000D03*
D10*
G36*
X72413691Y91673447D02*
G01*
X72434926Y91670297D01*
X72455750Y91665081D01*
X72475962Y91657849D01*
X72495368Y91648670D01*
X72513781Y91637634D01*
X72531024Y91624846D01*
X72546930Y91610430D01*
X72561346Y91594524D01*
X72574134Y91577281D01*
X72585170Y91558868D01*
X72594349Y91539462D01*
X72601581Y91519250D01*
X72606797Y91498426D01*
X72609947Y91477191D01*
X72611000Y91455750D01*
X72611000Y91018250D01*
X72609947Y90996809D01*
X72606797Y90975574D01*
X72601581Y90954750D01*
X72594349Y90934538D01*
X72585170Y90915132D01*
X72574134Y90896719D01*
X72561346Y90879476D01*
X72546930Y90863570D01*
X72531024Y90849154D01*
X72513781Y90836366D01*
X72495368Y90825330D01*
X72475962Y90816151D01*
X72455750Y90808919D01*
X72434926Y90803703D01*
X72413691Y90800553D01*
X72392250Y90799500D01*
X71879750Y90799500D01*
X71858309Y90800553D01*
X71837074Y90803703D01*
X71816250Y90808919D01*
X71796038Y90816151D01*
X71776632Y90825330D01*
X71758219Y90836366D01*
X71740976Y90849154D01*
X71725070Y90863570D01*
X71710654Y90879476D01*
X71697866Y90896719D01*
X71686830Y90915132D01*
X71677651Y90934538D01*
X71670419Y90954750D01*
X71665203Y90975574D01*
X71662053Y90996809D01*
X71661000Y91018250D01*
X71661000Y91455750D01*
X71662053Y91477191D01*
X71665203Y91498426D01*
X71670419Y91519250D01*
X71677651Y91539462D01*
X71686830Y91558868D01*
X71697866Y91577281D01*
X71710654Y91594524D01*
X71725070Y91610430D01*
X71740976Y91624846D01*
X71758219Y91637634D01*
X71776632Y91648670D01*
X71796038Y91657849D01*
X71816250Y91665081D01*
X71837074Y91670297D01*
X71858309Y91673447D01*
X71879750Y91674500D01*
X72392250Y91674500D01*
X72413691Y91673447D01*
X72413691Y91673447D01*
G37*
D11*
X72136000Y91237000D03*
D10*
G36*
X72413691Y90098447D02*
G01*
X72434926Y90095297D01*
X72455750Y90090081D01*
X72475962Y90082849D01*
X72495368Y90073670D01*
X72513781Y90062634D01*
X72531024Y90049846D01*
X72546930Y90035430D01*
X72561346Y90019524D01*
X72574134Y90002281D01*
X72585170Y89983868D01*
X72594349Y89964462D01*
X72601581Y89944250D01*
X72606797Y89923426D01*
X72609947Y89902191D01*
X72611000Y89880750D01*
X72611000Y89443250D01*
X72609947Y89421809D01*
X72606797Y89400574D01*
X72601581Y89379750D01*
X72594349Y89359538D01*
X72585170Y89340132D01*
X72574134Y89321719D01*
X72561346Y89304476D01*
X72546930Y89288570D01*
X72531024Y89274154D01*
X72513781Y89261366D01*
X72495368Y89250330D01*
X72475962Y89241151D01*
X72455750Y89233919D01*
X72434926Y89228703D01*
X72413691Y89225553D01*
X72392250Y89224500D01*
X71879750Y89224500D01*
X71858309Y89225553D01*
X71837074Y89228703D01*
X71816250Y89233919D01*
X71796038Y89241151D01*
X71776632Y89250330D01*
X71758219Y89261366D01*
X71740976Y89274154D01*
X71725070Y89288570D01*
X71710654Y89304476D01*
X71697866Y89321719D01*
X71686830Y89340132D01*
X71677651Y89359538D01*
X71670419Y89379750D01*
X71665203Y89400574D01*
X71662053Y89421809D01*
X71661000Y89443250D01*
X71661000Y89880750D01*
X71662053Y89902191D01*
X71665203Y89923426D01*
X71670419Y89944250D01*
X71677651Y89964462D01*
X71686830Y89983868D01*
X71697866Y90002281D01*
X71710654Y90019524D01*
X71725070Y90035430D01*
X71740976Y90049846D01*
X71758219Y90062634D01*
X71776632Y90073670D01*
X71796038Y90082849D01*
X71816250Y90090081D01*
X71837074Y90095297D01*
X71858309Y90098447D01*
X71879750Y90099500D01*
X72392250Y90099500D01*
X72413691Y90098447D01*
X72413691Y90098447D01*
G37*
D11*
X72136000Y89662000D03*
D10*
G36*
X55358191Y83785947D02*
G01*
X55379426Y83782797D01*
X55400250Y83777581D01*
X55420462Y83770349D01*
X55439868Y83761170D01*
X55458281Y83750134D01*
X55475524Y83737346D01*
X55491430Y83722930D01*
X55505846Y83707024D01*
X55518634Y83689781D01*
X55529670Y83671368D01*
X55538849Y83651962D01*
X55546081Y83631750D01*
X55551297Y83610926D01*
X55554447Y83589691D01*
X55555500Y83568250D01*
X55555500Y83055750D01*
X55554447Y83034309D01*
X55551297Y83013074D01*
X55546081Y82992250D01*
X55538849Y82972038D01*
X55529670Y82952632D01*
X55518634Y82934219D01*
X55505846Y82916976D01*
X55491430Y82901070D01*
X55475524Y82886654D01*
X55458281Y82873866D01*
X55439868Y82862830D01*
X55420462Y82853651D01*
X55400250Y82846419D01*
X55379426Y82841203D01*
X55358191Y82838053D01*
X55336750Y82837000D01*
X54899250Y82837000D01*
X54877809Y82838053D01*
X54856574Y82841203D01*
X54835750Y82846419D01*
X54815538Y82853651D01*
X54796132Y82862830D01*
X54777719Y82873866D01*
X54760476Y82886654D01*
X54744570Y82901070D01*
X54730154Y82916976D01*
X54717366Y82934219D01*
X54706330Y82952632D01*
X54697151Y82972038D01*
X54689919Y82992250D01*
X54684703Y83013074D01*
X54681553Y83034309D01*
X54680500Y83055750D01*
X54680500Y83568250D01*
X54681553Y83589691D01*
X54684703Y83610926D01*
X54689919Y83631750D01*
X54697151Y83651962D01*
X54706330Y83671368D01*
X54717366Y83689781D01*
X54730154Y83707024D01*
X54744570Y83722930D01*
X54760476Y83737346D01*
X54777719Y83750134D01*
X54796132Y83761170D01*
X54815538Y83770349D01*
X54835750Y83777581D01*
X54856574Y83782797D01*
X54877809Y83785947D01*
X54899250Y83787000D01*
X55336750Y83787000D01*
X55358191Y83785947D01*
X55358191Y83785947D01*
G37*
D11*
X55118000Y83312000D03*
D10*
G36*
X53783191Y83785947D02*
G01*
X53804426Y83782797D01*
X53825250Y83777581D01*
X53845462Y83770349D01*
X53864868Y83761170D01*
X53883281Y83750134D01*
X53900524Y83737346D01*
X53916430Y83722930D01*
X53930846Y83707024D01*
X53943634Y83689781D01*
X53954670Y83671368D01*
X53963849Y83651962D01*
X53971081Y83631750D01*
X53976297Y83610926D01*
X53979447Y83589691D01*
X53980500Y83568250D01*
X53980500Y83055750D01*
X53979447Y83034309D01*
X53976297Y83013074D01*
X53971081Y82992250D01*
X53963849Y82972038D01*
X53954670Y82952632D01*
X53943634Y82934219D01*
X53930846Y82916976D01*
X53916430Y82901070D01*
X53900524Y82886654D01*
X53883281Y82873866D01*
X53864868Y82862830D01*
X53845462Y82853651D01*
X53825250Y82846419D01*
X53804426Y82841203D01*
X53783191Y82838053D01*
X53761750Y82837000D01*
X53324250Y82837000D01*
X53302809Y82838053D01*
X53281574Y82841203D01*
X53260750Y82846419D01*
X53240538Y82853651D01*
X53221132Y82862830D01*
X53202719Y82873866D01*
X53185476Y82886654D01*
X53169570Y82901070D01*
X53155154Y82916976D01*
X53142366Y82934219D01*
X53131330Y82952632D01*
X53122151Y82972038D01*
X53114919Y82992250D01*
X53109703Y83013074D01*
X53106553Y83034309D01*
X53105500Y83055750D01*
X53105500Y83568250D01*
X53106553Y83589691D01*
X53109703Y83610926D01*
X53114919Y83631750D01*
X53122151Y83651962D01*
X53131330Y83671368D01*
X53142366Y83689781D01*
X53155154Y83707024D01*
X53169570Y83722930D01*
X53185476Y83737346D01*
X53202719Y83750134D01*
X53221132Y83761170D01*
X53240538Y83770349D01*
X53260750Y83777581D01*
X53281574Y83782797D01*
X53302809Y83785947D01*
X53324250Y83787000D01*
X53761750Y83787000D01*
X53783191Y83785947D01*
X53783191Y83785947D01*
G37*
D11*
X53543000Y83312000D03*
D10*
G36*
X54570691Y110074947D02*
G01*
X54591926Y110071797D01*
X54612750Y110066581D01*
X54632962Y110059349D01*
X54652368Y110050170D01*
X54670781Y110039134D01*
X54688024Y110026346D01*
X54703930Y110011930D01*
X54718346Y109996024D01*
X54731134Y109978781D01*
X54742170Y109960368D01*
X54751349Y109940962D01*
X54758581Y109920750D01*
X54763797Y109899926D01*
X54766947Y109878691D01*
X54768000Y109857250D01*
X54768000Y109344750D01*
X54766947Y109323309D01*
X54763797Y109302074D01*
X54758581Y109281250D01*
X54751349Y109261038D01*
X54742170Y109241632D01*
X54731134Y109223219D01*
X54718346Y109205976D01*
X54703930Y109190070D01*
X54688024Y109175654D01*
X54670781Y109162866D01*
X54652368Y109151830D01*
X54632962Y109142651D01*
X54612750Y109135419D01*
X54591926Y109130203D01*
X54570691Y109127053D01*
X54549250Y109126000D01*
X54111750Y109126000D01*
X54090309Y109127053D01*
X54069074Y109130203D01*
X54048250Y109135419D01*
X54028038Y109142651D01*
X54008632Y109151830D01*
X53990219Y109162866D01*
X53972976Y109175654D01*
X53957070Y109190070D01*
X53942654Y109205976D01*
X53929866Y109223219D01*
X53918830Y109241632D01*
X53909651Y109261038D01*
X53902419Y109281250D01*
X53897203Y109302074D01*
X53894053Y109323309D01*
X53893000Y109344750D01*
X53893000Y109857250D01*
X53894053Y109878691D01*
X53897203Y109899926D01*
X53902419Y109920750D01*
X53909651Y109940962D01*
X53918830Y109960368D01*
X53929866Y109978781D01*
X53942654Y109996024D01*
X53957070Y110011930D01*
X53972976Y110026346D01*
X53990219Y110039134D01*
X54008632Y110050170D01*
X54028038Y110059349D01*
X54048250Y110066581D01*
X54069074Y110071797D01*
X54090309Y110074947D01*
X54111750Y110076000D01*
X54549250Y110076000D01*
X54570691Y110074947D01*
X54570691Y110074947D01*
G37*
D11*
X54330500Y109601000D03*
D10*
G36*
X56145691Y110074947D02*
G01*
X56166926Y110071797D01*
X56187750Y110066581D01*
X56207962Y110059349D01*
X56227368Y110050170D01*
X56245781Y110039134D01*
X56263024Y110026346D01*
X56278930Y110011930D01*
X56293346Y109996024D01*
X56306134Y109978781D01*
X56317170Y109960368D01*
X56326349Y109940962D01*
X56333581Y109920750D01*
X56338797Y109899926D01*
X56341947Y109878691D01*
X56343000Y109857250D01*
X56343000Y109344750D01*
X56341947Y109323309D01*
X56338797Y109302074D01*
X56333581Y109281250D01*
X56326349Y109261038D01*
X56317170Y109241632D01*
X56306134Y109223219D01*
X56293346Y109205976D01*
X56278930Y109190070D01*
X56263024Y109175654D01*
X56245781Y109162866D01*
X56227368Y109151830D01*
X56207962Y109142651D01*
X56187750Y109135419D01*
X56166926Y109130203D01*
X56145691Y109127053D01*
X56124250Y109126000D01*
X55686750Y109126000D01*
X55665309Y109127053D01*
X55644074Y109130203D01*
X55623250Y109135419D01*
X55603038Y109142651D01*
X55583632Y109151830D01*
X55565219Y109162866D01*
X55547976Y109175654D01*
X55532070Y109190070D01*
X55517654Y109205976D01*
X55504866Y109223219D01*
X55493830Y109241632D01*
X55484651Y109261038D01*
X55477419Y109281250D01*
X55472203Y109302074D01*
X55469053Y109323309D01*
X55468000Y109344750D01*
X55468000Y109857250D01*
X55469053Y109878691D01*
X55472203Y109899926D01*
X55477419Y109920750D01*
X55484651Y109940962D01*
X55493830Y109960368D01*
X55504866Y109978781D01*
X55517654Y109996024D01*
X55532070Y110011930D01*
X55547976Y110026346D01*
X55565219Y110039134D01*
X55583632Y110050170D01*
X55603038Y110059349D01*
X55623250Y110066581D01*
X55644074Y110071797D01*
X55665309Y110074947D01*
X55686750Y110076000D01*
X56124250Y110076000D01*
X56145691Y110074947D01*
X56145691Y110074947D01*
G37*
D11*
X55905500Y109601000D03*
M02*
