%TF.GenerationSoftware,KiCad,Pcbnew,(6.0.11)*%
%TF.CreationDate,2023-02-05T22:54:22+01:00*%
%TF.ProjectId,ES108FC1_Connector,45533130-3846-4433-915f-436f6e6e6563,rev?*%
%TF.SameCoordinates,Original*%
%TF.FileFunction,Drillmap*%
%TF.FilePolarity,Positive*%
%FSLAX45Y45*%
G04 Gerber Fmt 4.5, Leading zero omitted, Abs format (unit mm)*
G04 Created by KiCad (PCBNEW (6.0.11)) date 2023-02-05 22:54:22*
%MOMM*%
%LPD*%
G01*
G04 APERTURE LIST*
%ADD10C,0.100000*%
%ADD11C,0.200000*%
G04 APERTURE END LIST*
D10*
X1405000Y-900000D02*
X5405000Y-900000D01*
X5405000Y-900000D02*
X5405000Y-3900000D01*
X5405000Y-3900000D02*
X1405000Y-3900000D01*
X1405000Y-3900000D02*
X1405000Y-900000D01*
D11*
X1657619Y-4215476D02*
X1657619Y-4015476D01*
X1705238Y-4015476D01*
X1733809Y-4025000D01*
X1752857Y-4044048D01*
X1762381Y-4063095D01*
X1771905Y-4101190D01*
X1771905Y-4129762D01*
X1762381Y-4167857D01*
X1752857Y-4186905D01*
X1733809Y-4205952D01*
X1705238Y-4215476D01*
X1657619Y-4215476D01*
X1857619Y-4215476D02*
X1857619Y-4082143D01*
X1857619Y-4120238D02*
X1867143Y-4101190D01*
X1876667Y-4091667D01*
X1895714Y-4082143D01*
X1914762Y-4082143D01*
X1981428Y-4215476D02*
X1981428Y-4082143D01*
X1981428Y-4015476D02*
X1971905Y-4025000D01*
X1981428Y-4034524D01*
X1990952Y-4025000D01*
X1981428Y-4015476D01*
X1981428Y-4034524D01*
X2105238Y-4215476D02*
X2086190Y-4205952D01*
X2076667Y-4186905D01*
X2076667Y-4015476D01*
X2210000Y-4215476D02*
X2190952Y-4205952D01*
X2181429Y-4186905D01*
X2181429Y-4015476D01*
X2438571Y-4215476D02*
X2438571Y-4015476D01*
X2505238Y-4158333D01*
X2571905Y-4015476D01*
X2571905Y-4215476D01*
X2752857Y-4215476D02*
X2752857Y-4110714D01*
X2743333Y-4091667D01*
X2724286Y-4082143D01*
X2686190Y-4082143D01*
X2667143Y-4091667D01*
X2752857Y-4205952D02*
X2733810Y-4215476D01*
X2686190Y-4215476D01*
X2667143Y-4205952D01*
X2657619Y-4186905D01*
X2657619Y-4167857D01*
X2667143Y-4148809D01*
X2686190Y-4139286D01*
X2733810Y-4139286D01*
X2752857Y-4129762D01*
X2848095Y-4082143D02*
X2848095Y-4282143D01*
X2848095Y-4091667D02*
X2867143Y-4082143D01*
X2905238Y-4082143D01*
X2924286Y-4091667D01*
X2933809Y-4101190D01*
X2943333Y-4120238D01*
X2943333Y-4177381D01*
X2933809Y-4196429D01*
X2924286Y-4205952D01*
X2905238Y-4215476D01*
X2867143Y-4215476D01*
X2848095Y-4205952D01*
X3029048Y-4196429D02*
X3038571Y-4205952D01*
X3029048Y-4215476D01*
X3019524Y-4205952D01*
X3029048Y-4196429D01*
X3029048Y-4215476D01*
X3029048Y-4091667D02*
X3038571Y-4101190D01*
X3029048Y-4110714D01*
X3019524Y-4101190D01*
X3029048Y-4091667D01*
X3029048Y-4110714D01*
M02*
