M48
; DRILL file {KiCad (6.0.11)} date So 05 Feb 2023 22:54:23 CET
; FORMAT={-:-/ absolute / metric / decimal}
; #@! TF.CreationDate,2023-02-05T22:54:23+01:00
; #@! TF.GenerationSoftware,Kicad,Pcbnew,(6.0.11)
; #@! TF.FileFunction,Plated,1,2,PTH
FMAT,2
METRIC
; #@! TA.AperFunction,Plated,PTH,ViaDrill
T1C0.400
; #@! TA.AperFunction,Plated,PTH,ComponentDrill
T2C1.000
%
G90
G05
T1
X15.35Y-10.6
X15.5Y-37.7
X16.2Y-16.3
X16.2Y-20.05
X17.35Y-31.65
X18.45Y-14.6
X18.45Y-18.05
X19.05Y-32.15
X19.1Y-28.7
X19.1Y-30.2
X19.3Y-27.7
X19.442Y-23.149
X19.45Y-24.8
X19.5Y-26.3
X22.95Y-16.35
X22.95Y-28.2
X22.95Y-30.0
X23.25Y-14.9
X23.8Y-30.75
X23.871Y-17.421
X23.964Y-29.764
X24.05Y-36.95
X24.775Y-28.225
X24.835Y-29.274
X25.1Y-12.5
X25.4Y-35.8
X25.409Y-22.459
X25.656Y-26.016
X25.819Y-28.15
X26.35Y-37.0
X26.479Y-22.16
X26.655Y-25.851
X26.748Y-27.75
X27.589Y-22.039
X27.624Y-25.45
X27.681Y-27.351
X28.3Y-11.0
X28.6Y-22.0
X28.705Y-23.095
X29.6Y-30.7
X30.75Y-12.5
X31.2Y-29.799
X32.8Y-28.95
X33.55Y-23.2
X33.844Y-28.894
X34.844Y-28.901
X35.1Y-11.0
X35.843Y-28.9
X36.166Y-27.234
X36.669Y-22.837
X36.843Y-28.9
X36.995Y-26.005
X37.151Y-27.062
X37.68Y-22.859
X38.05Y-26.0
X38.679Y-22.839
X39.292Y-19.942
X39.392Y-26.042
X40.3Y-17.95
X47.25Y-10.7
X48.1Y-30.9
X48.15Y-37.6
X49.15Y-29.7
X49.15Y-36.5
X49.95Y-37.6
X50.0Y-30.85
X50.9Y-10.75
X50.95Y-14.45
T2
X46.57Y-21.85
X46.57Y-24.39
X49.11Y-21.85
X49.11Y-24.39
X51.65Y-21.85
X51.65Y-24.39
T0
M30
