%TF.GenerationSoftware,KiCad,Pcbnew,(6.0.11)*%
%TF.CreationDate,2023-02-05T22:54:31+01:00*%
%TF.ProjectId,ES108FC1_Connector,45533130-3846-4433-915f-436f6e6e6563,rev?*%
%TF.SameCoordinates,Original*%
%TF.FileFunction,Soldermask,Top*%
%TF.FilePolarity,Negative*%
%FSLAX46Y46*%
G04 Gerber Fmt 4.6, Leading zero omitted, Abs format (unit mm)*
G04 Created by KiCad (PCBNEW (6.0.11)) date 2023-02-05 22:54:31*
%MOMM*%
%LPD*%
G01*
G04 APERTURE LIST*
%ADD10R,1.300000X0.300000*%
%ADD11R,2.200000X1.800000*%
%ADD12R,0.900000X1.000000*%
%ADD13R,0.200000X0.800000*%
%ADD14O,1.700000X1.700000*%
%ADD15R,1.700000X1.700000*%
G04 APERTURE END LIST*
D10*
%TO.C,U1*%
X21050000Y-33700000D03*
X21050000Y-33200000D03*
X21050000Y-32700000D03*
X21050000Y-32200000D03*
X21050000Y-31700000D03*
X21050000Y-31200000D03*
X21050000Y-30700000D03*
X21050000Y-30200000D03*
X21050000Y-29700000D03*
X21050000Y-29200000D03*
X21050000Y-28700000D03*
X21050000Y-28200000D03*
X21050000Y-27700000D03*
X21050000Y-27200000D03*
X21050000Y-26700000D03*
X21050000Y-26200000D03*
X21050000Y-25700000D03*
X21050000Y-25200000D03*
X21050000Y-24700000D03*
X21050000Y-24200000D03*
X21050000Y-23700000D03*
X21050000Y-23200000D03*
X21050000Y-22700000D03*
X21050000Y-22200000D03*
X21050000Y-21700000D03*
X21050000Y-21200000D03*
X21050000Y-20700000D03*
X21050000Y-20200000D03*
X21050000Y-19700000D03*
X21050000Y-19200000D03*
X21050000Y-18700000D03*
X21050000Y-18200000D03*
X21050000Y-17700000D03*
X21050000Y-17200000D03*
X21050000Y-16700000D03*
X21050000Y-16200000D03*
X21050000Y-15700000D03*
X21050000Y-15200000D03*
X21050000Y-14700000D03*
X21050000Y-14200000D03*
D11*
X17800000Y-12300000D03*
X17800000Y-35600000D03*
%TD*%
D12*
%TO.C,J2*%
X30692336Y-21842336D03*
X30692336Y-24342336D03*
X42292336Y-21842336D03*
X42292336Y-24342336D03*
D13*
X31692336Y-24342336D03*
X31692336Y-21842336D03*
X32092336Y-24342336D03*
X32092336Y-21842336D03*
X32492336Y-24342336D03*
X32492336Y-21842336D03*
X32892336Y-24342336D03*
X32892336Y-21842336D03*
X33292336Y-24342336D03*
X33292336Y-21842336D03*
X33692336Y-24342336D03*
X33692336Y-21842336D03*
X34092336Y-24342336D03*
X34092336Y-21842336D03*
X34492336Y-24342336D03*
X34492336Y-21842336D03*
X34892336Y-24342336D03*
X34892336Y-21842336D03*
X35292336Y-24342336D03*
X35292336Y-21842336D03*
X35692336Y-24342336D03*
X35692336Y-21842336D03*
X36092336Y-24342336D03*
X36092336Y-21842336D03*
X36492336Y-24342336D03*
X36492336Y-21842336D03*
X36892336Y-24342336D03*
X36892336Y-21842336D03*
X37292336Y-24342336D03*
X37292336Y-21842336D03*
X37692336Y-24342336D03*
X37692336Y-21842336D03*
X38092336Y-24342336D03*
X38092336Y-21842336D03*
X38492336Y-24342336D03*
X38492336Y-21842336D03*
X38892336Y-24342336D03*
X38892336Y-21842336D03*
X39292336Y-24342336D03*
X39292336Y-21842336D03*
X39692336Y-24342336D03*
X39692336Y-21842336D03*
X40092336Y-24342336D03*
X40092336Y-21842336D03*
X40492336Y-24342336D03*
X40492336Y-21842336D03*
X40892336Y-24342336D03*
X40892336Y-21842336D03*
X41292336Y-24342336D03*
X41292336Y-21842336D03*
%TD*%
D14*
%TO.C,J1*%
X46570000Y-24390000D03*
X46570000Y-21850000D03*
X49110000Y-24390000D03*
X49110000Y-21850000D03*
X51650000Y-24390000D03*
D15*
X51650000Y-21850000D03*
%TD*%
M02*
