%TF.GenerationSoftware,KiCad,Pcbnew,(6.0.11)*%
%TF.CreationDate,2023-02-05T22:54:30+01:00*%
%TF.ProjectId,ES108FC1_Connector,45533130-3846-4433-915f-436f6e6e6563,rev?*%
%TF.SameCoordinates,Original*%
%TF.FileFunction,Copper,L2,Bot*%
%TF.FilePolarity,Positive*%
%FSLAX46Y46*%
G04 Gerber Fmt 4.6, Leading zero omitted, Abs format (unit mm)*
G04 Created by KiCad (PCBNEW (6.0.11)) date 2023-02-05 22:54:30*
%MOMM*%
%LPD*%
G01*
G04 APERTURE LIST*
%TA.AperFunction,ComponentPad*%
%ADD10O,1.700000X1.700000*%
%TD*%
%TA.AperFunction,ComponentPad*%
%ADD11R,1.700000X1.700000*%
%TD*%
%TA.AperFunction,ViaPad*%
%ADD12C,0.800000*%
%TD*%
%TA.AperFunction,Conductor*%
%ADD13C,0.200000*%
%TD*%
G04 APERTURE END LIST*
D10*
%TO.P,J1,6,Pin_6*%
%TO.N,/SPI_SDI*%
X46570000Y-24390000D03*
%TO.P,J1,5,Pin_5*%
%TO.N,/SPI_SDO*%
X46570000Y-21850000D03*
%TO.P,J1,4,Pin_4*%
%TO.N,/SPI_SCL*%
X49110000Y-24390000D03*
%TO.P,J1,3,Pin_3*%
%TO.N,/SPI_NCS*%
X49110000Y-21850000D03*
%TO.P,J1,2,Pin_2*%
%TO.N,GND*%
X51650000Y-24390000D03*
D11*
%TO.P,J1,1,Pin_1*%
%TO.N,/SPI_VDD*%
X51650000Y-21850000D03*
%TD*%
D12*
%TO.N,GND*%
X15350000Y-10600000D03*
X15500000Y-37700000D03*
X40300000Y-17950000D03*
X47250000Y-10700000D03*
X50950000Y-14450000D03*
X50900000Y-10750000D03*
X35100000Y-11000000D03*
X30750000Y-12500000D03*
X28300000Y-11000000D03*
X25100000Y-12500000D03*
X18450000Y-14600000D03*
X16200000Y-16300000D03*
X18450000Y-18050000D03*
X16200000Y-20050000D03*
X49150000Y-36500000D03*
X49950000Y-37600000D03*
X48150000Y-37600000D03*
X49150000Y-29700000D03*
X50000000Y-30850000D03*
X48100000Y-30900000D03*
X19500000Y-26300000D03*
X19450000Y-24800000D03*
X26350000Y-37000000D03*
X25400000Y-35800000D03*
X24050000Y-36950000D03*
X38050000Y-26000000D03*
X33550000Y-23200000D03*
X22950000Y-28200000D03*
X22950000Y-30000000D03*
X19441642Y-23149500D03*
%TO.N,/VNEG*%
X38679445Y-22839492D03*
X23250000Y-14900000D03*
%TO.N,/TEST*%
X37680140Y-22859370D03*
X22950000Y-16350000D03*
%TO.N,/XLE*%
X36668506Y-22836979D03*
X23871064Y-17421064D03*
%TO.N,/CKV*%
X23800000Y-30750000D03*
X29600000Y-30700000D03*
%TO.N,/VCOM*%
X23964317Y-29764097D03*
X31200000Y-29799500D03*
%TO.N,/MODE*%
X28705378Y-23094622D03*
X17350000Y-31650000D03*
%TO.N,/VGH*%
X19050000Y-32150000D03*
X28600000Y-22000000D03*
%TO.N,/SPV*%
X19100000Y-30200000D03*
X27589244Y-22039244D03*
%TO.N,VDD*%
X19100000Y-28700000D03*
X26479003Y-22160241D03*
%TO.N,/XCL*%
X25408837Y-22458837D03*
X19300000Y-27700000D03*
%TO.N,/D7*%
X27624077Y-25450500D03*
X36994622Y-26005378D03*
%TO.N,/D6*%
X26655102Y-25850500D03*
X37150550Y-27061785D03*
%TO.N,/D5*%
X25655638Y-26016394D03*
X36165996Y-27234004D03*
%TO.N,/D4*%
X27681368Y-27350500D03*
X36842853Y-28900104D03*
%TO.N,/D3*%
X35843351Y-28899564D03*
X26748439Y-27750500D03*
%TO.N,/D2*%
X25818754Y-28150500D03*
X34843850Y-28901354D03*
%TO.N,/D1*%
X24775365Y-28224635D03*
X33844372Y-28894372D03*
%TO.N,/D0*%
X24835319Y-29273832D03*
X32800000Y-28949500D03*
%TO.N,GND*%
X39392336Y-26042336D03*
X39292336Y-19942336D03*
%TD*%
D13*
%TO.N,/D7*%
X27624077Y-25450500D02*
X27873577Y-25700000D01*
X27873577Y-25700000D02*
X36689244Y-25700000D01*
X36689244Y-25700000D02*
X36994622Y-26005378D01*
%TO.N,/D6*%
X26954602Y-26150000D02*
X36071942Y-26150000D01*
X26655102Y-25850500D02*
X26954602Y-26150000D01*
X36071942Y-26150000D02*
X36983727Y-27061785D01*
X36983727Y-27061785D02*
X37150550Y-27061785D01*
%TO.N,/D5*%
X25655638Y-26016394D02*
X26189244Y-26550000D01*
X26189244Y-26550000D02*
X35481992Y-26550000D01*
X35481992Y-26550000D02*
X36165996Y-27234004D01*
%TO.N,/D4*%
X27681368Y-27350500D02*
X27730868Y-27400000D01*
X27730868Y-27400000D02*
X31662494Y-27400000D01*
X31662494Y-27400000D02*
X32012995Y-27049500D01*
X32012995Y-27049500D02*
X34992249Y-27049500D01*
X34992249Y-27049500D02*
X36842853Y-28900104D01*
%TO.N,/D3*%
X26748439Y-27750500D02*
X27047939Y-28050000D01*
X28997307Y-28050000D02*
X29247308Y-27800000D01*
X27047939Y-28050000D02*
X28997307Y-28050000D01*
X29247308Y-27800000D02*
X31828179Y-27800000D01*
X31828179Y-27800000D02*
X32178680Y-27449500D01*
X32178680Y-27449500D02*
X34393287Y-27449500D01*
X34393287Y-27449500D02*
X35843351Y-28899564D01*
%TO.N,/D2*%
X25818754Y-28150500D02*
X26118254Y-28450000D01*
X26118254Y-28450000D02*
X29162992Y-28450000D01*
X29162992Y-28450000D02*
X29412993Y-28200000D01*
X29412993Y-28200000D02*
X31993865Y-28200000D01*
X31993865Y-28200000D02*
X32344365Y-27849500D01*
X32344365Y-27849500D02*
X33791996Y-27849500D01*
X33791996Y-27849500D02*
X34843850Y-28901354D01*
%TO.N,/D1*%
X24775365Y-28224635D02*
X25400730Y-28850000D01*
X25400730Y-28850000D02*
X29328678Y-28850000D01*
X29328678Y-28850000D02*
X29578678Y-28600000D01*
X29578678Y-28600000D02*
X32159550Y-28600000D01*
X32159550Y-28600000D02*
X32510050Y-28249500D01*
X32510050Y-28249500D02*
X33199500Y-28249500D01*
X33199500Y-28249500D02*
X33844372Y-28894372D01*
%TO.N,/D0*%
X24835319Y-29273832D02*
X25061487Y-29500000D01*
X25061487Y-29500000D02*
X29244364Y-29500000D01*
X29244364Y-29500000D02*
X29644364Y-29100000D01*
X29644364Y-29100000D02*
X32649500Y-29100000D01*
X32649500Y-29100000D02*
X32800000Y-28949500D01*
%TO.N,/VCOM*%
X23964317Y-29764097D02*
X24250220Y-30050000D01*
X29260050Y-30050000D02*
X29510550Y-29799500D01*
X24250220Y-30050000D02*
X29260050Y-30050000D01*
X29510550Y-29799500D02*
X31200000Y-29799500D01*
%TO.N,/XLE*%
X36668506Y-22836979D02*
X36668506Y-18568506D01*
X36668506Y-18568506D02*
X34200000Y-16100000D01*
X34200000Y-16100000D02*
X25192128Y-16100000D01*
X25192128Y-16100000D02*
X23871064Y-17421064D01*
%TO.N,/TEST*%
X37680140Y-22859370D02*
X37680140Y-18330140D01*
X37680140Y-18330140D02*
X34850000Y-15500000D01*
X34850000Y-15500000D02*
X23800000Y-15500000D01*
X23800000Y-15500000D02*
X22950000Y-16350000D01*
%TO.N,/VNEG*%
X38679445Y-22839492D02*
X38679445Y-20319395D01*
X38679445Y-20319395D02*
X38592336Y-20232286D01*
X38592336Y-20232286D02*
X38592336Y-18242336D01*
X38592336Y-18242336D02*
X35250000Y-14900000D01*
X35250000Y-14900000D02*
X23250000Y-14900000D01*
%TO.N,/CKV*%
X23850000Y-30700000D02*
X23800000Y-30750000D01*
X29600000Y-30700000D02*
X23850000Y-30700000D01*
%TO.N,/MODE*%
X16700000Y-31000000D02*
X17350000Y-31650000D01*
X18544105Y-20558837D02*
X16700000Y-22402943D01*
X28148787Y-20558837D02*
X18544105Y-20558837D01*
X29300000Y-22500000D02*
X29300000Y-21710050D01*
X16700000Y-22402943D02*
X16700000Y-31000000D01*
X29300000Y-21710050D02*
X28148787Y-20558837D01*
X28705378Y-23094622D02*
X29300000Y-22500000D01*
%TO.N,/VGH*%
X17100000Y-30200000D02*
X19050000Y-32150000D01*
X28600000Y-22000000D02*
X27558837Y-20958837D01*
X17100000Y-22568628D02*
X17100000Y-30200000D01*
X27558837Y-20958837D02*
X18709791Y-20958837D01*
X18709791Y-20958837D02*
X17100000Y-22568628D01*
%TO.N,/SPV*%
X17500000Y-22734314D02*
X17500000Y-28600000D01*
X18875477Y-21358837D02*
X17500000Y-22734314D01*
X26908837Y-21358837D02*
X18875477Y-21358837D01*
X17500000Y-28600000D02*
X19100000Y-30200000D01*
X27589244Y-22039244D02*
X26908837Y-21358837D01*
%TO.N,VDD*%
X17900000Y-22900000D02*
X17900000Y-27500000D01*
X26077599Y-21758837D02*
X25091163Y-21758837D01*
X26479003Y-22160241D02*
X26077599Y-21758837D01*
X19041163Y-21758837D02*
X17900000Y-22900000D01*
X17900000Y-27500000D02*
X19100000Y-28700000D01*
X25091163Y-21758837D02*
X19041163Y-21758837D01*
%TO.N,/XCL*%
X18300000Y-26700000D02*
X19300000Y-27700000D01*
X19100000Y-22450000D02*
X18300000Y-23250000D01*
X19300000Y-22450000D02*
X19100000Y-22450000D01*
X25400000Y-22450000D02*
X19300000Y-22450000D01*
X25408837Y-22458837D02*
X25400000Y-22450000D01*
X18300000Y-23250000D02*
X18300000Y-26700000D01*
%TD*%
%TA.AperFunction,Conductor*%
%TO.N,GND*%
G36*
X53483621Y-9528502D02*
G01*
X53530114Y-9582158D01*
X53541500Y-9634500D01*
X53541500Y-38365500D01*
X53521498Y-38433621D01*
X53467842Y-38480114D01*
X53415500Y-38491500D01*
X14684500Y-38491500D01*
X14616379Y-38471498D01*
X14569886Y-38417842D01*
X14558500Y-38365500D01*
X14558500Y-31000000D01*
X16086250Y-31000000D01*
X16091500Y-31039880D01*
X16091500Y-31039885D01*
X16101133Y-31113056D01*
X16107162Y-31158851D01*
X16168476Y-31306876D01*
X16173503Y-31313427D01*
X16173504Y-31313429D01*
X16241520Y-31402069D01*
X16241526Y-31402075D01*
X16266013Y-31433987D01*
X16272568Y-31439017D01*
X16291379Y-31453452D01*
X16303770Y-31464319D01*
X16400281Y-31560830D01*
X16434307Y-31623142D01*
X16436841Y-31646716D01*
X16436496Y-31650000D01*
X16456458Y-31839928D01*
X16515473Y-32021556D01*
X16610960Y-32186944D01*
X16738747Y-32328866D01*
X16893248Y-32441118D01*
X16899276Y-32443802D01*
X16899278Y-32443803D01*
X17059799Y-32515271D01*
X17067712Y-32518794D01*
X17161113Y-32538647D01*
X17248056Y-32557128D01*
X17248061Y-32557128D01*
X17254513Y-32558500D01*
X17445487Y-32558500D01*
X17451939Y-32557128D01*
X17451944Y-32557128D01*
X17538887Y-32538647D01*
X17632288Y-32518794D01*
X17640201Y-32515271D01*
X17800722Y-32443803D01*
X17800724Y-32443802D01*
X17806752Y-32441118D01*
X17961253Y-32328866D01*
X17965273Y-32324402D01*
X18029080Y-32293780D01*
X18099533Y-32302543D01*
X18154065Y-32348005D01*
X18169217Y-32379196D01*
X18215473Y-32521556D01*
X18218776Y-32527278D01*
X18218777Y-32527279D01*
X18236803Y-32558500D01*
X18310960Y-32686944D01*
X18438747Y-32828866D01*
X18593248Y-32941118D01*
X18599276Y-32943802D01*
X18599278Y-32943803D01*
X18761681Y-33016109D01*
X18767712Y-33018794D01*
X18861112Y-33038647D01*
X18948056Y-33057128D01*
X18948061Y-33057128D01*
X18954513Y-33058500D01*
X19145487Y-33058500D01*
X19151939Y-33057128D01*
X19151944Y-33057128D01*
X19238888Y-33038647D01*
X19332288Y-33018794D01*
X19338319Y-33016109D01*
X19500722Y-32943803D01*
X19500724Y-32943802D01*
X19506752Y-32941118D01*
X19661253Y-32828866D01*
X19789040Y-32686944D01*
X19863197Y-32558500D01*
X19881223Y-32527279D01*
X19881224Y-32527278D01*
X19884527Y-32521556D01*
X19943542Y-32339928D01*
X19963504Y-32150000D01*
X19943542Y-31960072D01*
X19884527Y-31778444D01*
X19789040Y-31613056D01*
X19783703Y-31607128D01*
X19665675Y-31476045D01*
X19665674Y-31476044D01*
X19661253Y-31471134D01*
X19539602Y-31382749D01*
X19512094Y-31362763D01*
X19512093Y-31362762D01*
X19506752Y-31358882D01*
X19500724Y-31356198D01*
X19500722Y-31356197D01*
X19376498Y-31300889D01*
X19322402Y-31254909D01*
X19301753Y-31186981D01*
X19321105Y-31118673D01*
X19374316Y-31071672D01*
X19380810Y-31069108D01*
X19382288Y-31068794D01*
X19387627Y-31066417D01*
X19387637Y-31066413D01*
X19550722Y-30993803D01*
X19550724Y-30993802D01*
X19556752Y-30991118D01*
X19588145Y-30968310D01*
X19636242Y-30933365D01*
X19711253Y-30878866D01*
X19821373Y-30756565D01*
X19827284Y-30750000D01*
X22886496Y-30750000D01*
X22906458Y-30939928D01*
X22965473Y-31121556D01*
X23060960Y-31286944D01*
X23065378Y-31291851D01*
X23065379Y-31291852D01*
X23164624Y-31402075D01*
X23188747Y-31428866D01*
X23343248Y-31541118D01*
X23349276Y-31543802D01*
X23349278Y-31543803D01*
X23494591Y-31608500D01*
X23517712Y-31618794D01*
X23611112Y-31638647D01*
X23698056Y-31657128D01*
X23698061Y-31657128D01*
X23704513Y-31658500D01*
X23895487Y-31658500D01*
X23901939Y-31657128D01*
X23901944Y-31657128D01*
X23988888Y-31638647D01*
X24082288Y-31618794D01*
X24105409Y-31608500D01*
X24250722Y-31543803D01*
X24250724Y-31543802D01*
X24256752Y-31541118D01*
X24411253Y-31428866D01*
X24482093Y-31350190D01*
X24542539Y-31312950D01*
X24575729Y-31308500D01*
X28869290Y-31308500D01*
X28937411Y-31328502D01*
X28962926Y-31350189D01*
X28988747Y-31378866D01*
X29143248Y-31491118D01*
X29149276Y-31493802D01*
X29149278Y-31493803D01*
X29246833Y-31537237D01*
X29317712Y-31568794D01*
X29411112Y-31588647D01*
X29498056Y-31607128D01*
X29498061Y-31607128D01*
X29504513Y-31608500D01*
X29695487Y-31608500D01*
X29701939Y-31607128D01*
X29701944Y-31607128D01*
X29788888Y-31588647D01*
X29882288Y-31568794D01*
X29953167Y-31537237D01*
X30050722Y-31493803D01*
X30050724Y-31493802D01*
X30056752Y-31491118D01*
X30211253Y-31378866D01*
X30294020Y-31286944D01*
X30334621Y-31241852D01*
X30334622Y-31241851D01*
X30339040Y-31236944D01*
X30434527Y-31071556D01*
X30493542Y-30889928D01*
X30513504Y-30700000D01*
X30511644Y-30682306D01*
X30524416Y-30612468D01*
X30572917Y-30560621D01*
X30641750Y-30543226D01*
X30711013Y-30567198D01*
X30743248Y-30590618D01*
X30749276Y-30593302D01*
X30749278Y-30593303D01*
X30792324Y-30612468D01*
X30917712Y-30668294D01*
X30983638Y-30682307D01*
X31098056Y-30706628D01*
X31098061Y-30706628D01*
X31104513Y-30708000D01*
X31295487Y-30708000D01*
X31301939Y-30706628D01*
X31301944Y-30706628D01*
X31416362Y-30682307D01*
X31482288Y-30668294D01*
X31607676Y-30612468D01*
X31650722Y-30593303D01*
X31650724Y-30593302D01*
X31656752Y-30590618D01*
X31675112Y-30577279D01*
X31721981Y-30543226D01*
X31811253Y-30478366D01*
X31939040Y-30336444D01*
X32017816Y-30200000D01*
X32031223Y-30176779D01*
X32031224Y-30176778D01*
X32034527Y-30171056D01*
X32093542Y-29989428D01*
X32097263Y-29954025D01*
X32111210Y-29821329D01*
X32138223Y-29755673D01*
X32196445Y-29715043D01*
X32236520Y-29708500D01*
X32258101Y-29708500D01*
X32326222Y-29728502D01*
X32332164Y-29732565D01*
X32343248Y-29740618D01*
X32349275Y-29743301D01*
X32349276Y-29743302D01*
X32498755Y-29809854D01*
X32517712Y-29818294D01*
X32611112Y-29838147D01*
X32698056Y-29856628D01*
X32698061Y-29856628D01*
X32704513Y-29858000D01*
X32895487Y-29858000D01*
X32901939Y-29856628D01*
X32901944Y-29856628D01*
X32988888Y-29838147D01*
X33082288Y-29818294D01*
X33101245Y-29809854D01*
X33250722Y-29743303D01*
X33250724Y-29743302D01*
X33256752Y-29740618D01*
X33294669Y-29713069D01*
X33361538Y-29689210D01*
X33419979Y-29699898D01*
X33556049Y-29760480D01*
X33556057Y-29760483D01*
X33562084Y-29763166D01*
X33655485Y-29783019D01*
X33742428Y-29801500D01*
X33742433Y-29801500D01*
X33748885Y-29802872D01*
X33939859Y-29802872D01*
X33946311Y-29801500D01*
X33946316Y-29801500D01*
X34033259Y-29783019D01*
X34126660Y-29763166D01*
X34139315Y-29757532D01*
X34204517Y-29728502D01*
X34285023Y-29692659D01*
X34355388Y-29683225D01*
X34387516Y-29692658D01*
X34423098Y-29708500D01*
X34552724Y-29766213D01*
X34561562Y-29770148D01*
X34654962Y-29790001D01*
X34741906Y-29808482D01*
X34741911Y-29808482D01*
X34748363Y-29809854D01*
X34939337Y-29809854D01*
X34945789Y-29808482D01*
X34945794Y-29808482D01*
X35032738Y-29790001D01*
X35126138Y-29770148D01*
X35134977Y-29766213D01*
X35264602Y-29708500D01*
X35294363Y-29695250D01*
X35364729Y-29685816D01*
X35396857Y-29695249D01*
X35490041Y-29736737D01*
X35551493Y-29764097D01*
X35561063Y-29768358D01*
X35654463Y-29788211D01*
X35741407Y-29806692D01*
X35741412Y-29806692D01*
X35747864Y-29808064D01*
X35938838Y-29808064D01*
X35945290Y-29806692D01*
X35945295Y-29806692D01*
X36032239Y-29788211D01*
X36125639Y-29768358D01*
X36135210Y-29764097D01*
X36291247Y-29694625D01*
X36361614Y-29685191D01*
X36393743Y-29694624D01*
X36439604Y-29715043D01*
X36549782Y-29764097D01*
X36560565Y-29768898D01*
X36653965Y-29788751D01*
X36740909Y-29807232D01*
X36740914Y-29807232D01*
X36747366Y-29808604D01*
X36938340Y-29808604D01*
X36944792Y-29807232D01*
X36944797Y-29807232D01*
X37031741Y-29788751D01*
X37125141Y-29768898D01*
X37134934Y-29764538D01*
X37293575Y-29693907D01*
X37293577Y-29693906D01*
X37299605Y-29691222D01*
X37307495Y-29685490D01*
X37355010Y-29650968D01*
X37454106Y-29578970D01*
X37581893Y-29437048D01*
X37677380Y-29271660D01*
X37736395Y-29090032D01*
X37737736Y-29077279D01*
X37755667Y-28906669D01*
X37756357Y-28900104D01*
X37736395Y-28710176D01*
X37677380Y-28528548D01*
X37581893Y-28363160D01*
X37518217Y-28292440D01*
X37458528Y-28226149D01*
X37458527Y-28226148D01*
X37454106Y-28221238D01*
X37368736Y-28159213D01*
X37325383Y-28102990D01*
X37319308Y-28032254D01*
X37352440Y-27969462D01*
X37416603Y-27934030D01*
X37421528Y-27932983D01*
X37432838Y-27930579D01*
X37438869Y-27927894D01*
X37601272Y-27855588D01*
X37601274Y-27855587D01*
X37607302Y-27852903D01*
X37761803Y-27740651D01*
X37798405Y-27700000D01*
X37885171Y-27603637D01*
X37885172Y-27603636D01*
X37889590Y-27598729D01*
X37985077Y-27433341D01*
X38044092Y-27251713D01*
X38045355Y-27239702D01*
X38063364Y-27068350D01*
X38064054Y-27061785D01*
X38058451Y-27008471D01*
X38044782Y-26878420D01*
X38044782Y-26878418D01*
X38044092Y-26871857D01*
X37985077Y-26690229D01*
X37889590Y-26524841D01*
X37858538Y-26490355D01*
X37827821Y-26426349D01*
X37832341Y-26367111D01*
X37888164Y-26195306D01*
X37908126Y-26005378D01*
X37888164Y-25815450D01*
X37829149Y-25633822D01*
X37819282Y-25616731D01*
X37785064Y-25557464D01*
X37733662Y-25468434D01*
X37702812Y-25434171D01*
X37610297Y-25331423D01*
X37610296Y-25331422D01*
X37605875Y-25326512D01*
X37451374Y-25214260D01*
X37445346Y-25211576D01*
X37445344Y-25211575D01*
X37282941Y-25139269D01*
X37282940Y-25139269D01*
X37276910Y-25136584D01*
X37183510Y-25116731D01*
X37096566Y-25098250D01*
X37096561Y-25098250D01*
X37090109Y-25096878D01*
X36899135Y-25096878D01*
X36870911Y-25102877D01*
X36828269Y-25104552D01*
X36729137Y-25091501D01*
X36729135Y-25091501D01*
X36729129Y-25091500D01*
X36729127Y-25091500D01*
X36729118Y-25091499D01*
X36697433Y-25087328D01*
X36689244Y-25086250D01*
X36657551Y-25090422D01*
X36641108Y-25091500D01*
X28538599Y-25091500D01*
X28470478Y-25071498D01*
X28429480Y-25028500D01*
X28418233Y-25009020D01*
X28363117Y-24913556D01*
X28357536Y-24907357D01*
X28239752Y-24776545D01*
X28239748Y-24776541D01*
X28235330Y-24771634D01*
X28136234Y-24699636D01*
X28086171Y-24663263D01*
X28086170Y-24663262D01*
X28080829Y-24659382D01*
X28074801Y-24656698D01*
X28074799Y-24656697D01*
X27912396Y-24584391D01*
X27912395Y-24584391D01*
X27906365Y-24581706D01*
X27812964Y-24561853D01*
X27726021Y-24543372D01*
X27726016Y-24543372D01*
X27719564Y-24542000D01*
X27528590Y-24542000D01*
X27522138Y-24543372D01*
X27522133Y-24543372D01*
X27435189Y-24561853D01*
X27341789Y-24581706D01*
X27335759Y-24584391D01*
X27335758Y-24584391D01*
X27173355Y-24656697D01*
X27173353Y-24656698D01*
X27167325Y-24659382D01*
X27161984Y-24663262D01*
X27161983Y-24663263D01*
X27111920Y-24699636D01*
X27012824Y-24771634D01*
X26890619Y-24907357D01*
X26830173Y-24944596D01*
X26770786Y-24946293D01*
X26757046Y-24943372D01*
X26757042Y-24943372D01*
X26750589Y-24942000D01*
X26559615Y-24942000D01*
X26553163Y-24943372D01*
X26553158Y-24943372D01*
X26466215Y-24961853D01*
X26372814Y-24981706D01*
X26366784Y-24984391D01*
X26366783Y-24984391D01*
X26204380Y-25056697D01*
X26204378Y-25056698D01*
X26198350Y-25059382D01*
X26193009Y-25063262D01*
X26193008Y-25063263D01*
X26082966Y-25143213D01*
X26016098Y-25167072D01*
X25957658Y-25156385D01*
X25943957Y-25150285D01*
X25943956Y-25150285D01*
X25937926Y-25147600D01*
X25844526Y-25127747D01*
X25757582Y-25109266D01*
X25757577Y-25109266D01*
X25751125Y-25107894D01*
X25560151Y-25107894D01*
X25553699Y-25109266D01*
X25553694Y-25109266D01*
X25466750Y-25127747D01*
X25373350Y-25147600D01*
X25367320Y-25150285D01*
X25367319Y-25150285D01*
X25204916Y-25222591D01*
X25204914Y-25222592D01*
X25198886Y-25225276D01*
X25044385Y-25337528D01*
X25039964Y-25342438D01*
X25039963Y-25342439D01*
X24957709Y-25433792D01*
X24916598Y-25479450D01*
X24899635Y-25508831D01*
X24837600Y-25616279D01*
X24821111Y-25644838D01*
X24762096Y-25826466D01*
X24742134Y-26016394D01*
X24762096Y-26206322D01*
X24821111Y-26387950D01*
X24916598Y-26553338D01*
X25044385Y-26695260D01*
X25198886Y-26807512D01*
X25204914Y-26810196D01*
X25204916Y-26810197D01*
X25367319Y-26882503D01*
X25373350Y-26885188D01*
X25466751Y-26905041D01*
X25553694Y-26923522D01*
X25553699Y-26923522D01*
X25560151Y-26924894D01*
X25647777Y-26924894D01*
X25715898Y-26944896D01*
X25747737Y-26974187D01*
X25755257Y-26983987D01*
X25761807Y-26989013D01*
X25787165Y-27008471D01*
X25787172Y-27008477D01*
X25797379Y-27016309D01*
X25839247Y-27073647D01*
X25843469Y-27144518D01*
X25808706Y-27206421D01*
X25745993Y-27239702D01*
X25733846Y-27241582D01*
X25729868Y-27242000D01*
X25723267Y-27242000D01*
X25716815Y-27243372D01*
X25716810Y-27243372D01*
X25629866Y-27261853D01*
X25536466Y-27281706D01*
X25530436Y-27284391D01*
X25530435Y-27284391D01*
X25368032Y-27356697D01*
X25368030Y-27356698D01*
X25362002Y-27359382D01*
X25356661Y-27363262D01*
X25356660Y-27363263D01*
X25308237Y-27398445D01*
X25241370Y-27422303D01*
X25182928Y-27411616D01*
X25063688Y-27358527D01*
X25063680Y-27358524D01*
X25057653Y-27355841D01*
X24964252Y-27335988D01*
X24877309Y-27317507D01*
X24877304Y-27317507D01*
X24870852Y-27316135D01*
X24679878Y-27316135D01*
X24673426Y-27317507D01*
X24673421Y-27317507D01*
X24586478Y-27335988D01*
X24493077Y-27355841D01*
X24487047Y-27358526D01*
X24487046Y-27358526D01*
X24324643Y-27430832D01*
X24324641Y-27430833D01*
X24318613Y-27433517D01*
X24313272Y-27437397D01*
X24313271Y-27437398D01*
X24263208Y-27473771D01*
X24164112Y-27545769D01*
X24036325Y-27687691D01*
X23940838Y-27853079D01*
X23881823Y-28034707D01*
X23881133Y-28041268D01*
X23881133Y-28041270D01*
X23874646Y-28102990D01*
X23861861Y-28224635D01*
X23862551Y-28231200D01*
X23875905Y-28358252D01*
X23881823Y-28414563D01*
X23940838Y-28596191D01*
X23944141Y-28601913D01*
X23944142Y-28601914D01*
X23981487Y-28666597D01*
X23998225Y-28735592D01*
X23975005Y-28802684D01*
X23919198Y-28846571D01*
X23881879Y-28853764D01*
X23881999Y-28854907D01*
X23875432Y-28855597D01*
X23868830Y-28855597D01*
X23862378Y-28856969D01*
X23862373Y-28856969D01*
X23775430Y-28875450D01*
X23682029Y-28895303D01*
X23675999Y-28897988D01*
X23675998Y-28897988D01*
X23513595Y-28970294D01*
X23513593Y-28970295D01*
X23507565Y-28972979D01*
X23353064Y-29085231D01*
X23225277Y-29227153D01*
X23129790Y-29392541D01*
X23070775Y-29574169D01*
X23070085Y-29580730D01*
X23070085Y-29580732D01*
X23051698Y-29755673D01*
X23050813Y-29764097D01*
X23051503Y-29770662D01*
X23056975Y-29822721D01*
X23070775Y-29954025D01*
X23072815Y-29960303D01*
X23107539Y-30067173D01*
X23109567Y-30138141D01*
X23081341Y-30190420D01*
X23065383Y-30208143D01*
X23065380Y-30208147D01*
X23060960Y-30213056D01*
X22965473Y-30378444D01*
X22906458Y-30560072D01*
X22905768Y-30566633D01*
X22905768Y-30566635D01*
X22890910Y-30708000D01*
X22886496Y-30750000D01*
X19827284Y-30750000D01*
X19834621Y-30741852D01*
X19834622Y-30741851D01*
X19839040Y-30736944D01*
X19923522Y-30590618D01*
X19931223Y-30577279D01*
X19931224Y-30577278D01*
X19934527Y-30571556D01*
X19993542Y-30389928D01*
X19998648Y-30341352D01*
X20012814Y-30206565D01*
X20013504Y-30200000D01*
X20008468Y-30152081D01*
X19994232Y-30016635D01*
X19994232Y-30016633D01*
X19993542Y-30010072D01*
X19934527Y-29828444D01*
X19921969Y-29806692D01*
X19885370Y-29743302D01*
X19839040Y-29663056D01*
X19723117Y-29534310D01*
X19692399Y-29470303D01*
X19701164Y-29399849D01*
X19723117Y-29365690D01*
X19834621Y-29241852D01*
X19834622Y-29241851D01*
X19839040Y-29236944D01*
X19934527Y-29071556D01*
X19993542Y-28889928D01*
X20013504Y-28700000D01*
X20003195Y-28601914D01*
X19994233Y-28516642D01*
X19994232Y-28516638D01*
X19993542Y-28510072D01*
X19962874Y-28415686D01*
X19960846Y-28344720D01*
X19989071Y-28292440D01*
X20034621Y-28241852D01*
X20034622Y-28241851D01*
X20039040Y-28236944D01*
X20134527Y-28071556D01*
X20193542Y-27889928D01*
X20196755Y-27859364D01*
X20212814Y-27706565D01*
X20213504Y-27700000D01*
X20193542Y-27510072D01*
X20134527Y-27328444D01*
X20127421Y-27316135D01*
X20086437Y-27245150D01*
X20039040Y-27163056D01*
X20025359Y-27147861D01*
X19915675Y-27026045D01*
X19915674Y-27026044D01*
X19911253Y-27021134D01*
X19756752Y-26908882D01*
X19750724Y-26906198D01*
X19750722Y-26906197D01*
X19588319Y-26833891D01*
X19588318Y-26833891D01*
X19582288Y-26831206D01*
X19483449Y-26810197D01*
X19401944Y-26792872D01*
X19401939Y-26792872D01*
X19395487Y-26791500D01*
X19304239Y-26791500D01*
X19236118Y-26771498D01*
X19215144Y-26754595D01*
X18945405Y-26484856D01*
X18911379Y-26422544D01*
X18908500Y-26395761D01*
X18908500Y-24356695D01*
X45207251Y-24356695D01*
X45207548Y-24361848D01*
X45207548Y-24361851D01*
X45219812Y-24574547D01*
X45220110Y-24579715D01*
X45221247Y-24584761D01*
X45221248Y-24584767D01*
X45241096Y-24672837D01*
X45269222Y-24797639D01*
X45328398Y-24943372D01*
X45345054Y-24984391D01*
X45353266Y-25004616D01*
X45394251Y-25071498D01*
X45467291Y-25190688D01*
X45469987Y-25195088D01*
X45616250Y-25363938D01*
X45788126Y-25506632D01*
X45981000Y-25619338D01*
X45985825Y-25621180D01*
X45985826Y-25621181D01*
X46018930Y-25633822D01*
X46189692Y-25699030D01*
X46194760Y-25700061D01*
X46194763Y-25700062D01*
X46289862Y-25719410D01*
X46408597Y-25743567D01*
X46413772Y-25743757D01*
X46413774Y-25743757D01*
X46626673Y-25751564D01*
X46626677Y-25751564D01*
X46631837Y-25751753D01*
X46636957Y-25751097D01*
X46636959Y-25751097D01*
X46848288Y-25724025D01*
X46848289Y-25724025D01*
X46853416Y-25723368D01*
X46858366Y-25721883D01*
X47062429Y-25660661D01*
X47062434Y-25660659D01*
X47067384Y-25659174D01*
X47267994Y-25560896D01*
X47449860Y-25431173D01*
X47608096Y-25273489D01*
X47652586Y-25211575D01*
X47738453Y-25092077D01*
X47739776Y-25093028D01*
X47786645Y-25049857D01*
X47856580Y-25037625D01*
X47922026Y-25065144D01*
X47949875Y-25096994D01*
X47956106Y-25107162D01*
X48009987Y-25195088D01*
X48156250Y-25363938D01*
X48328126Y-25506632D01*
X48521000Y-25619338D01*
X48525825Y-25621180D01*
X48525826Y-25621181D01*
X48558930Y-25633822D01*
X48729692Y-25699030D01*
X48734760Y-25700061D01*
X48734763Y-25700062D01*
X48829862Y-25719410D01*
X48948597Y-25743567D01*
X48953772Y-25743757D01*
X48953774Y-25743757D01*
X49166673Y-25751564D01*
X49166677Y-25751564D01*
X49171837Y-25751753D01*
X49176957Y-25751097D01*
X49176959Y-25751097D01*
X49388288Y-25724025D01*
X49388289Y-25724025D01*
X49393416Y-25723368D01*
X49398366Y-25721883D01*
X49602429Y-25660661D01*
X49602434Y-25660659D01*
X49607384Y-25659174D01*
X49807994Y-25560896D01*
X49989860Y-25431173D01*
X50148096Y-25273489D01*
X50192586Y-25211575D01*
X50278453Y-25092077D01*
X50279640Y-25092930D01*
X50326960Y-25049362D01*
X50396897Y-25037145D01*
X50462338Y-25064678D01*
X50490166Y-25096511D01*
X50547694Y-25190388D01*
X50553777Y-25198699D01*
X50693213Y-25359667D01*
X50700580Y-25366883D01*
X50864434Y-25502916D01*
X50872881Y-25508831D01*
X51056756Y-25616279D01*
X51066042Y-25620729D01*
X51265001Y-25696703D01*
X51274899Y-25699579D01*
X51378250Y-25720606D01*
X51392299Y-25719410D01*
X51396000Y-25709065D01*
X51396000Y-25708517D01*
X51904000Y-25708517D01*
X51908064Y-25722359D01*
X51921478Y-25724393D01*
X51928184Y-25723534D01*
X51938262Y-25721392D01*
X52142255Y-25660191D01*
X52151842Y-25656433D01*
X52343095Y-25562739D01*
X52351945Y-25557464D01*
X52525328Y-25433792D01*
X52533200Y-25427139D01*
X52684052Y-25276812D01*
X52690730Y-25268965D01*
X52815003Y-25096020D01*
X52820313Y-25087183D01*
X52914670Y-24896267D01*
X52918469Y-24886672D01*
X52980377Y-24682910D01*
X52982555Y-24672837D01*
X52983986Y-24661962D01*
X52981775Y-24647778D01*
X52968617Y-24644000D01*
X51922115Y-24644000D01*
X51906876Y-24648475D01*
X51905671Y-24649865D01*
X51904000Y-24657548D01*
X51904000Y-25708517D01*
X51396000Y-25708517D01*
X51396000Y-24262000D01*
X51416002Y-24193879D01*
X51469658Y-24147386D01*
X51522000Y-24136000D01*
X52968344Y-24136000D01*
X52981875Y-24132027D01*
X52983180Y-24122947D01*
X52941214Y-23955875D01*
X52937894Y-23946124D01*
X52852972Y-23750814D01*
X52848105Y-23741739D01*
X52732426Y-23562926D01*
X52726136Y-23554757D01*
X52582293Y-23396677D01*
X52551241Y-23332831D01*
X52559635Y-23262333D01*
X52604812Y-23207564D01*
X52631256Y-23193895D01*
X52738297Y-23153767D01*
X52746705Y-23150615D01*
X52863261Y-23063261D01*
X52950615Y-22946705D01*
X53001745Y-22810316D01*
X53008500Y-22748134D01*
X53008500Y-20951866D01*
X53001745Y-20889684D01*
X52950615Y-20753295D01*
X52863261Y-20636739D01*
X52746705Y-20549385D01*
X52610316Y-20498255D01*
X52548134Y-20491500D01*
X50751866Y-20491500D01*
X50689684Y-20498255D01*
X50553295Y-20549385D01*
X50436739Y-20636739D01*
X50349385Y-20753295D01*
X50346233Y-20761703D01*
X50304919Y-20871907D01*
X50262277Y-20928671D01*
X50195716Y-20953371D01*
X50126367Y-20938163D01*
X50093743Y-20912476D01*
X50043151Y-20856875D01*
X50043142Y-20856866D01*
X50039670Y-20853051D01*
X50035619Y-20849852D01*
X50035615Y-20849848D01*
X49868414Y-20717800D01*
X49868410Y-20717798D01*
X49864359Y-20714598D01*
X49668789Y-20606638D01*
X49663920Y-20604914D01*
X49663916Y-20604912D01*
X49463087Y-20533795D01*
X49463083Y-20533794D01*
X49458212Y-20532069D01*
X49453119Y-20531162D01*
X49453116Y-20531161D01*
X49243373Y-20493800D01*
X49243367Y-20493799D01*
X49238284Y-20492894D01*
X49164452Y-20491992D01*
X49020081Y-20490228D01*
X49020079Y-20490228D01*
X49014911Y-20490165D01*
X48794091Y-20523955D01*
X48581756Y-20593357D01*
X48383607Y-20696507D01*
X48379474Y-20699610D01*
X48379471Y-20699612D01*
X48209100Y-20827530D01*
X48204965Y-20830635D01*
X48165525Y-20871907D01*
X48111280Y-20928671D01*
X48050629Y-20992138D01*
X47943201Y-21149621D01*
X47888293Y-21194621D01*
X47817768Y-21202792D01*
X47754021Y-21171538D01*
X47733324Y-21147054D01*
X47652822Y-21022617D01*
X47652820Y-21022614D01*
X47650014Y-21018277D01*
X47499670Y-20853051D01*
X47495619Y-20849852D01*
X47495615Y-20849848D01*
X47328414Y-20717800D01*
X47328410Y-20717798D01*
X47324359Y-20714598D01*
X47128789Y-20606638D01*
X47123920Y-20604914D01*
X47123916Y-20604912D01*
X46923087Y-20533795D01*
X46923083Y-20533794D01*
X46918212Y-20532069D01*
X46913119Y-20531162D01*
X46913116Y-20531161D01*
X46703373Y-20493800D01*
X46703367Y-20493799D01*
X46698284Y-20492894D01*
X46624452Y-20491992D01*
X46480081Y-20490228D01*
X46480079Y-20490228D01*
X46474911Y-20490165D01*
X46254091Y-20523955D01*
X46041756Y-20593357D01*
X45843607Y-20696507D01*
X45839474Y-20699610D01*
X45839471Y-20699612D01*
X45669100Y-20827530D01*
X45664965Y-20830635D01*
X45625525Y-20871907D01*
X45571280Y-20928671D01*
X45510629Y-20992138D01*
X45384743Y-21176680D01*
X45290688Y-21379305D01*
X45230989Y-21594570D01*
X45207251Y-21816695D01*
X45220110Y-22039715D01*
X45221247Y-22044761D01*
X45221248Y-22044767D01*
X45234529Y-22103697D01*
X45269222Y-22257639D01*
X45353266Y-22464616D01*
X45390685Y-22525678D01*
X45467291Y-22650688D01*
X45469987Y-22655088D01*
X45616250Y-22823938D01*
X45788126Y-22966632D01*
X45852069Y-23003997D01*
X45861445Y-23009476D01*
X45910169Y-23061114D01*
X45923240Y-23130897D01*
X45896509Y-23196669D01*
X45856055Y-23230027D01*
X45843607Y-23236507D01*
X45839474Y-23239610D01*
X45839471Y-23239612D01*
X45669100Y-23367530D01*
X45664965Y-23370635D01*
X45599346Y-23439301D01*
X45528491Y-23513447D01*
X45510629Y-23532138D01*
X45507720Y-23536403D01*
X45507714Y-23536411D01*
X45429896Y-23650488D01*
X45384743Y-23716680D01*
X45290688Y-23919305D01*
X45230989Y-24134570D01*
X45207251Y-24356695D01*
X18908500Y-24356695D01*
X18908500Y-23554239D01*
X18928502Y-23486118D01*
X18945405Y-23465144D01*
X19315144Y-23095405D01*
X19377456Y-23061379D01*
X19404239Y-23058500D01*
X24670170Y-23058500D01*
X24738291Y-23078502D01*
X24763806Y-23100189D01*
X24793167Y-23132797D01*
X24797584Y-23137703D01*
X24807943Y-23145229D01*
X24924657Y-23230027D01*
X24952085Y-23249955D01*
X24958113Y-23252639D01*
X24958115Y-23252640D01*
X25073313Y-23303929D01*
X25126549Y-23327631D01*
X25219950Y-23347484D01*
X25306893Y-23365965D01*
X25306898Y-23365965D01*
X25313350Y-23367337D01*
X25504324Y-23367337D01*
X25510776Y-23365965D01*
X25510781Y-23365965D01*
X25597724Y-23347484D01*
X25691125Y-23327631D01*
X25744361Y-23303929D01*
X25859559Y-23252640D01*
X25859561Y-23252639D01*
X25865589Y-23249955D01*
X25893018Y-23230027D01*
X25931944Y-23201745D01*
X26020090Y-23137703D01*
X26081915Y-23069039D01*
X26142358Y-23031801D01*
X26201744Y-23030104D01*
X26274252Y-23045516D01*
X26377059Y-23067369D01*
X26377064Y-23067369D01*
X26383516Y-23068741D01*
X26574490Y-23068741D01*
X26580942Y-23067369D01*
X26580947Y-23067369D01*
X26683754Y-23045516D01*
X26761291Y-23029035D01*
X26779572Y-23020896D01*
X26929725Y-22954044D01*
X26929727Y-22954043D01*
X26935755Y-22951359D01*
X26952748Y-22939013D01*
X27054914Y-22864785D01*
X27121782Y-22840926D01*
X27180223Y-22851614D01*
X27300921Y-22905352D01*
X27300929Y-22905355D01*
X27306956Y-22908038D01*
X27368375Y-22921093D01*
X27487300Y-22946372D01*
X27487305Y-22946372D01*
X27493757Y-22947744D01*
X27667374Y-22947744D01*
X27735495Y-22967746D01*
X27781988Y-23021402D01*
X27791793Y-23081452D01*
X27792564Y-23081452D01*
X27792564Y-23086177D01*
X27792684Y-23086912D01*
X27791874Y-23094622D01*
X27792564Y-23101187D01*
X27806787Y-23236507D01*
X27811836Y-23284550D01*
X27870851Y-23466178D01*
X27966338Y-23631566D01*
X27970756Y-23636473D01*
X27970757Y-23636474D01*
X28089703Y-23768577D01*
X28094125Y-23773488D01*
X28248626Y-23885740D01*
X28254654Y-23888424D01*
X28254656Y-23888425D01*
X28417059Y-23960731D01*
X28423090Y-23963416D01*
X28516491Y-23983269D01*
X28603434Y-24001750D01*
X28603439Y-24001750D01*
X28609891Y-24003122D01*
X28800865Y-24003122D01*
X28807317Y-24001750D01*
X28807322Y-24001750D01*
X28894265Y-23983269D01*
X28987666Y-23963416D01*
X28993697Y-23960731D01*
X29156100Y-23888425D01*
X29156102Y-23888424D01*
X29162130Y-23885740D01*
X29316631Y-23773488D01*
X29321053Y-23768577D01*
X29439999Y-23636474D01*
X29440000Y-23636473D01*
X29444418Y-23631566D01*
X29539905Y-23466178D01*
X29598920Y-23284550D01*
X29603970Y-23236507D01*
X29618192Y-23101187D01*
X29618882Y-23094622D01*
X29618694Y-23092836D01*
X29638194Y-23026426D01*
X29655097Y-23005452D01*
X29696234Y-22964315D01*
X29708625Y-22953448D01*
X29727437Y-22939013D01*
X29733987Y-22933987D01*
X29758474Y-22902075D01*
X29758477Y-22902072D01*
X29758481Y-22902066D01*
X29758491Y-22902055D01*
X29824511Y-22816015D01*
X29824512Y-22816013D01*
X29826498Y-22813425D01*
X29826498Y-22813424D01*
X29831524Y-22806875D01*
X29853181Y-22754592D01*
X29889678Y-22666479D01*
X29892838Y-22658850D01*
X29908500Y-22539885D01*
X29908500Y-22539878D01*
X29913750Y-22500000D01*
X29909578Y-22468307D01*
X29908500Y-22451864D01*
X29908500Y-21758186D01*
X29909578Y-21741740D01*
X29912672Y-21718238D01*
X29913750Y-21710050D01*
X29908500Y-21670170D01*
X29908500Y-21670165D01*
X29892838Y-21551200D01*
X29892481Y-21550337D01*
X29889695Y-21543612D01*
X29889694Y-21543607D01*
X29834684Y-21410804D01*
X29831524Y-21403174D01*
X29758477Y-21307978D01*
X29758474Y-21307975D01*
X29733987Y-21276063D01*
X29727432Y-21271033D01*
X29708621Y-21256598D01*
X29696230Y-21245731D01*
X28613102Y-20162603D01*
X28602235Y-20150212D01*
X28587800Y-20131400D01*
X28582774Y-20124850D01*
X28550862Y-20100363D01*
X28550859Y-20100360D01*
X28455663Y-20027313D01*
X28307638Y-19965999D01*
X28299451Y-19964921D01*
X28299450Y-19964921D01*
X28288245Y-19963446D01*
X28257049Y-19959339D01*
X28188672Y-19950337D01*
X28188669Y-19950337D01*
X28188661Y-19950336D01*
X28156976Y-19946165D01*
X28148787Y-19945087D01*
X28117094Y-19949259D01*
X28100651Y-19950337D01*
X18592241Y-19950337D01*
X18575798Y-19949259D01*
X18544105Y-19945087D01*
X18535916Y-19946165D01*
X18504231Y-19950336D01*
X18504222Y-19950337D01*
X18504220Y-19950337D01*
X18504214Y-19950338D01*
X18504212Y-19950338D01*
X18404648Y-19963446D01*
X18393441Y-19964921D01*
X18393439Y-19964922D01*
X18385254Y-19965999D01*
X18237229Y-20027313D01*
X18142033Y-20100360D01*
X18142030Y-20100363D01*
X18110118Y-20124850D01*
X18105088Y-20131405D01*
X18090653Y-20150216D01*
X18079786Y-20162607D01*
X16303766Y-21938628D01*
X16291375Y-21949495D01*
X16266013Y-21968956D01*
X16241526Y-22000868D01*
X16241522Y-22000872D01*
X16168476Y-22096067D01*
X16107162Y-22244092D01*
X16106263Y-22250922D01*
X16091500Y-22363058D01*
X16091500Y-22363063D01*
X16086250Y-22402943D01*
X16087328Y-22411131D01*
X16090422Y-22434633D01*
X16091500Y-22451079D01*
X16091500Y-30951864D01*
X16090422Y-30968307D01*
X16086250Y-31000000D01*
X14558500Y-31000000D01*
X14558500Y-16350000D01*
X22036496Y-16350000D01*
X22056458Y-16539928D01*
X22115473Y-16721556D01*
X22210960Y-16886944D01*
X22338747Y-17028866D01*
X22493248Y-17141118D01*
X22499276Y-17143802D01*
X22499278Y-17143803D01*
X22661681Y-17216109D01*
X22667712Y-17218794D01*
X22795541Y-17245965D01*
X22848062Y-17257129D01*
X22848064Y-17257129D01*
X22848124Y-17257142D01*
X22854513Y-17258500D01*
X22854265Y-17259669D01*
X22913758Y-17284150D01*
X22954384Y-17342373D01*
X22960235Y-17395612D01*
X22957560Y-17421064D01*
X22977522Y-17610992D01*
X23036537Y-17792620D01*
X23039840Y-17798342D01*
X23039841Y-17798343D01*
X23064040Y-17840257D01*
X23132024Y-17958008D01*
X23259811Y-18099930D01*
X23414312Y-18212182D01*
X23420340Y-18214866D01*
X23420342Y-18214867D01*
X23582745Y-18287173D01*
X23588776Y-18289858D01*
X23682177Y-18309711D01*
X23769120Y-18328192D01*
X23769125Y-18328192D01*
X23775577Y-18329564D01*
X23966551Y-18329564D01*
X23973003Y-18328192D01*
X23973008Y-18328192D01*
X24059951Y-18309711D01*
X24153352Y-18289858D01*
X24159383Y-18287173D01*
X24321786Y-18214867D01*
X24321788Y-18214866D01*
X24327816Y-18212182D01*
X24482317Y-18099930D01*
X24610104Y-17958008D01*
X24678088Y-17840257D01*
X24702287Y-17798343D01*
X24702288Y-17798342D01*
X24705591Y-17792620D01*
X24764606Y-17610992D01*
X24784568Y-17421064D01*
X24784380Y-17419278D01*
X24803880Y-17352868D01*
X24820783Y-17331894D01*
X25407272Y-16745405D01*
X25469584Y-16711379D01*
X25496367Y-16708500D01*
X33895761Y-16708500D01*
X33963882Y-16728502D01*
X33984856Y-16745405D01*
X36023101Y-18783650D01*
X36057127Y-18845962D01*
X36060006Y-18872745D01*
X36060006Y-22106689D01*
X36040004Y-22174810D01*
X36027642Y-22190999D01*
X35986709Y-22236460D01*
X35929466Y-22300035D01*
X35926165Y-22305753D01*
X35842261Y-22451079D01*
X35833979Y-22465423D01*
X35774964Y-22647051D01*
X35755002Y-22836979D01*
X35755692Y-22843544D01*
X35768282Y-22963327D01*
X35774964Y-23026907D01*
X35833979Y-23208535D01*
X35837282Y-23214257D01*
X35837283Y-23214258D01*
X35862422Y-23257800D01*
X35929466Y-23373923D01*
X35933884Y-23378830D01*
X35933885Y-23378831D01*
X35952729Y-23399759D01*
X36057253Y-23515845D01*
X36211754Y-23628097D01*
X36217782Y-23630781D01*
X36217784Y-23630782D01*
X36344174Y-23687054D01*
X36386218Y-23705773D01*
X36478927Y-23725479D01*
X36566562Y-23744107D01*
X36566567Y-23744107D01*
X36573019Y-23745479D01*
X36763993Y-23745479D01*
X36770445Y-23744107D01*
X36770450Y-23744107D01*
X36858085Y-23725479D01*
X36950794Y-23705773D01*
X36956821Y-23703090D01*
X36956829Y-23703087D01*
X37100897Y-23638944D01*
X37171264Y-23629510D01*
X37215147Y-23644933D01*
X37218046Y-23646607D01*
X37223388Y-23650488D01*
X37229416Y-23653172D01*
X37229418Y-23653173D01*
X37391821Y-23725479D01*
X37397852Y-23728164D01*
X37481011Y-23745840D01*
X37578196Y-23766498D01*
X37578201Y-23766498D01*
X37584653Y-23767870D01*
X37775627Y-23767870D01*
X37782079Y-23766498D01*
X37782084Y-23766498D01*
X37879269Y-23745840D01*
X37962428Y-23728164D01*
X37968459Y-23725479D01*
X38130862Y-23653173D01*
X38130864Y-23653172D01*
X38136892Y-23650488D01*
X38138826Y-23649083D01*
X38206304Y-23632712D01*
X38251559Y-23643462D01*
X38385480Y-23703087D01*
X38397157Y-23708286D01*
X38490558Y-23728139D01*
X38577501Y-23746620D01*
X38577506Y-23746620D01*
X38583958Y-23747992D01*
X38774932Y-23747992D01*
X38781384Y-23746620D01*
X38781389Y-23746620D01*
X38868332Y-23728139D01*
X38961733Y-23708286D01*
X38973408Y-23703088D01*
X39130167Y-23633295D01*
X39130169Y-23633294D01*
X39136197Y-23630610D01*
X39142752Y-23625848D01*
X39191602Y-23590356D01*
X39290698Y-23518358D01*
X39418485Y-23376436D01*
X39501993Y-23231797D01*
X39510668Y-23216771D01*
X39510669Y-23216770D01*
X39513972Y-23211048D01*
X39572987Y-23029420D01*
X39581192Y-22951359D01*
X39592259Y-22846057D01*
X39592949Y-22839492D01*
X39590660Y-22817715D01*
X39573677Y-22656127D01*
X39573677Y-22656125D01*
X39572987Y-22649564D01*
X39513972Y-22467936D01*
X39509460Y-22460120D01*
X39453423Y-22363063D01*
X39418485Y-22302548D01*
X39320309Y-22193512D01*
X39289591Y-22129505D01*
X39287945Y-22109202D01*
X39287945Y-20367531D01*
X39289023Y-20351085D01*
X39292117Y-20327583D01*
X39293195Y-20319395D01*
X39287945Y-20279515D01*
X39287945Y-20279510D01*
X39272283Y-20160545D01*
X39257498Y-20124850D01*
X39210969Y-20012519D01*
X39213701Y-20011387D01*
X39200836Y-19963362D01*
X39200836Y-18290472D01*
X39201914Y-18274026D01*
X39205008Y-18250524D01*
X39206086Y-18242336D01*
X39200836Y-18202456D01*
X39200836Y-18202451D01*
X39187339Y-18099930D01*
X39185174Y-18083485D01*
X39123860Y-17935460D01*
X39050814Y-17840265D01*
X39050810Y-17840261D01*
X39050807Y-17840257D01*
X39031352Y-17814902D01*
X39031349Y-17814899D01*
X39026323Y-17808349D01*
X39019768Y-17803319D01*
X39000957Y-17788884D01*
X38988566Y-17778017D01*
X35714315Y-14503766D01*
X35703448Y-14491375D01*
X35689013Y-14472563D01*
X35683987Y-14466013D01*
X35652075Y-14441526D01*
X35652072Y-14441523D01*
X35556876Y-14368476D01*
X35408851Y-14307162D01*
X35400664Y-14306084D01*
X35400663Y-14306084D01*
X35389458Y-14304609D01*
X35358262Y-14300502D01*
X35289885Y-14291500D01*
X35289882Y-14291500D01*
X35289874Y-14291499D01*
X35258189Y-14287328D01*
X35250000Y-14286250D01*
X35218307Y-14290422D01*
X35201864Y-14291500D01*
X23980710Y-14291500D01*
X23912589Y-14271498D01*
X23887074Y-14249811D01*
X23865668Y-14226037D01*
X23865666Y-14226036D01*
X23861253Y-14221134D01*
X23706752Y-14108882D01*
X23700724Y-14106198D01*
X23700722Y-14106197D01*
X23538319Y-14033891D01*
X23538318Y-14033891D01*
X23532288Y-14031206D01*
X23438887Y-14011353D01*
X23351944Y-13992872D01*
X23351939Y-13992872D01*
X23345487Y-13991500D01*
X23154513Y-13991500D01*
X23148061Y-13992872D01*
X23148056Y-13992872D01*
X23061113Y-14011353D01*
X22967712Y-14031206D01*
X22961682Y-14033891D01*
X22961681Y-14033891D01*
X22799278Y-14106197D01*
X22799276Y-14106198D01*
X22793248Y-14108882D01*
X22638747Y-14221134D01*
X22510960Y-14363056D01*
X22415473Y-14528444D01*
X22356458Y-14710072D01*
X22336496Y-14900000D01*
X22356458Y-15089928D01*
X22415473Y-15271556D01*
X22418776Y-15277278D01*
X22418777Y-15277279D01*
X22498597Y-15415531D01*
X22515335Y-15484526D01*
X22492115Y-15551618D01*
X22463539Y-15580467D01*
X22338747Y-15671134D01*
X22210960Y-15813056D01*
X22115473Y-15978444D01*
X22056458Y-16160072D01*
X22036496Y-16350000D01*
X14558500Y-16350000D01*
X14558500Y-9634500D01*
X14578502Y-9566379D01*
X14632158Y-9519886D01*
X14684500Y-9508500D01*
X53415500Y-9508500D01*
X53483621Y-9528502D01*
G37*
%TD.AperFunction*%
%TD*%
M02*
