%TF.GenerationSoftware,KiCad,Pcbnew,(6.0.11)*%
%TF.CreationDate,2023-02-05T22:54:30+01:00*%
%TF.ProjectId,ES108FC1_Connector,45533130-3846-4433-915f-436f6e6e6563,rev?*%
%TF.SameCoordinates,Original*%
%TF.FileFunction,Copper,L1,Top*%
%TF.FilePolarity,Positive*%
%FSLAX46Y46*%
G04 Gerber Fmt 4.6, Leading zero omitted, Abs format (unit mm)*
G04 Created by KiCad (PCBNEW (6.0.11)) date 2023-02-05 22:54:30*
%MOMM*%
%LPD*%
G01*
G04 APERTURE LIST*
%TA.AperFunction,SMDPad,CuDef*%
%ADD10R,1.300000X0.300000*%
%TD*%
%TA.AperFunction,SMDPad,CuDef*%
%ADD11R,2.200000X1.800000*%
%TD*%
%TA.AperFunction,SMDPad,CuDef*%
%ADD12R,0.900000X1.000000*%
%TD*%
%TA.AperFunction,SMDPad,CuDef*%
%ADD13R,0.200000X0.800000*%
%TD*%
%TA.AperFunction,ComponentPad*%
%ADD14O,1.700000X1.700000*%
%TD*%
%TA.AperFunction,ComponentPad*%
%ADD15R,1.700000X1.700000*%
%TD*%
%TA.AperFunction,ViaPad*%
%ADD16C,0.800000*%
%TD*%
%TA.AperFunction,Conductor*%
%ADD17C,0.200000*%
%TD*%
G04 APERTURE END LIST*
D10*
%TO.P,U1,1,VGL*%
%TO.N,/VGL*%
X21050000Y-33700000D03*
%TO.P,U1,2,NC*%
%TO.N,unconnected-(U1-Pad2)*%
X21050000Y-33200000D03*
%TO.P,U1,3,VGH*%
%TO.N,/VGH*%
X21050000Y-32700000D03*
%TO.P,U1,4,NC*%
%TO.N,unconnected-(U1-Pad4)*%
X21050000Y-32200000D03*
%TO.P,U1,5,VDD*%
%TO.N,VDD*%
X21050000Y-31700000D03*
%TO.P,U1,6,Mode*%
%TO.N,/MODE*%
X21050000Y-31200000D03*
%TO.P,U1,7,CKV*%
%TO.N,/CKV*%
X21050000Y-30700000D03*
%TO.P,U1,8,SPV*%
%TO.N,/SPV*%
X21050000Y-30200000D03*
%TO.P,U1,9,VSS*%
%TO.N,GND*%
X21050000Y-29700000D03*
%TO.P,U1,10,VCOM*%
%TO.N,/VCOM*%
X21050000Y-29200000D03*
%TO.P,U1,11,VDD*%
%TO.N,VDD*%
X21050000Y-28700000D03*
%TO.P,U1,12,VSS*%
%TO.N,GND*%
X21050000Y-28200000D03*
%TO.P,U1,13,XCL*%
%TO.N,/XCL*%
X21050000Y-27700000D03*
%TO.P,U1,14,D0*%
%TO.N,/D0*%
X21050000Y-27200000D03*
%TO.P,U1,15,D1*%
%TO.N,/D1*%
X21050000Y-26700000D03*
%TO.P,U1,16,D2*%
%TO.N,/D2*%
X21050000Y-26200000D03*
%TO.P,U1,17,D3*%
%TO.N,/D3*%
X21050000Y-25700000D03*
%TO.P,U1,18,D4*%
%TO.N,/D4*%
X21050000Y-25200000D03*
%TO.P,U1,19,D5*%
%TO.N,/D5*%
X21050000Y-24700000D03*
%TO.P,U1,20,D6*%
%TO.N,/D6*%
X21050000Y-24200000D03*
%TO.P,U1,21,D7*%
%TO.N,/D7*%
X21050000Y-23700000D03*
%TO.P,U1,22,VSS*%
%TO.N,GND*%
X21050000Y-23200000D03*
%TO.P,U1,23,D8*%
%TO.N,/D8*%
X21050000Y-22700000D03*
%TO.P,U1,24,D9*%
%TO.N,/D9*%
X21050000Y-22200000D03*
%TO.P,U1,25,D10*%
%TO.N,/D10*%
X21050000Y-21700000D03*
%TO.P,U1,26,D11*%
%TO.N,/D11*%
X21050000Y-21200000D03*
%TO.P,U1,27,D12*%
%TO.N,/D12*%
X21050000Y-20700000D03*
%TO.P,U1,28,D13*%
%TO.N,/D13*%
X21050000Y-20200000D03*
%TO.P,U1,29,D14*%
%TO.N,/D14*%
X21050000Y-19700000D03*
%TO.P,U1,30,D15*%
%TO.N,/D15*%
X21050000Y-19200000D03*
%TO.P,U1,31,XSTL*%
%TO.N,/XSTL*%
X21050000Y-18700000D03*
%TO.P,U1,32,XLE*%
%TO.N,/XLE*%
X21050000Y-18200000D03*
%TO.P,U1,33,XOE*%
%TO.N,/XOE*%
X21050000Y-17700000D03*
%TO.P,U1,34,TEST*%
%TO.N,/TEST*%
X21050000Y-17200000D03*
%TO.P,U1,35,NC*%
%TO.N,unconnected-(U1-Pad35)*%
X21050000Y-16700000D03*
%TO.P,U1,36,VPOS*%
%TO.N,/VPOS*%
X21050000Y-16200000D03*
%TO.P,U1,37,NC*%
%TO.N,unconnected-(U1-Pad37)*%
X21050000Y-15700000D03*
%TO.P,U1,38,VNEG*%
%TO.N,/VNEG*%
X21050000Y-15200000D03*
%TO.P,U1,39,NC*%
%TO.N,unconnected-(U1-Pad39)*%
X21050000Y-14700000D03*
%TO.P,U1,40,BORDER*%
%TO.N,/BRD*%
X21050000Y-14200000D03*
D11*
%TO.P,U1,MP*%
%TO.N,N/C*%
X17800000Y-12300000D03*
X17800000Y-35600000D03*
%TD*%
D12*
%TO.P,J2,0*%
%TO.N,N/C*%
X30692336Y-21842336D03*
X30692336Y-24342336D03*
X42292336Y-21842336D03*
X42292336Y-24342336D03*
D13*
%TO.P,J2,1,VGL*%
%TO.N,/VGL*%
X31692336Y-24342336D03*
%TO.P,J2,2,VGH*%
%TO.N,/VGH*%
X31692336Y-21842336D03*
%TO.P,J2,3,VDD*%
%TO.N,VDD*%
X32092336Y-24342336D03*
%TO.P,J2,4,MODE*%
%TO.N,/MODE*%
X32092336Y-21842336D03*
%TO.P,J2,5,CKV*%
%TO.N,/CKV*%
X32492336Y-24342336D03*
%TO.P,J2,6,SPV*%
%TO.N,/SPV*%
X32492336Y-21842336D03*
%TO.P,J2,7,VCOM*%
%TO.N,/VCOM*%
X32892336Y-24342336D03*
%TO.P,J2,8,VDD*%
%TO.N,VDD*%
X32892336Y-21842336D03*
%TO.P,J2,9,VSS*%
%TO.N,GND*%
X33292336Y-24342336D03*
%TO.P,J2,10,XCL*%
%TO.N,/XCL*%
X33292336Y-21842336D03*
%TO.P,J2,11,D0*%
%TO.N,/D0*%
X33692336Y-24342336D03*
%TO.P,J2,12,D8*%
%TO.N,/D8*%
X33692336Y-21842336D03*
%TO.P,J2,13,D1*%
%TO.N,/D1*%
X34092336Y-24342336D03*
%TO.P,J2,14,D9*%
%TO.N,/D9*%
X34092336Y-21842336D03*
%TO.P,J2,15,D2*%
%TO.N,/D2*%
X34492336Y-24342336D03*
%TO.P,J2,16,D10*%
%TO.N,/D10*%
X34492336Y-21842336D03*
%TO.P,J2,17,D3*%
%TO.N,/D3*%
X34892336Y-24342336D03*
%TO.P,J2,18,D11*%
%TO.N,/D11*%
X34892336Y-21842336D03*
%TO.P,J2,19,D4*%
%TO.N,/D4*%
X35292336Y-24342336D03*
%TO.P,J2,20,D12*%
%TO.N,/D12*%
X35292336Y-21842336D03*
%TO.P,J2,21,D5*%
%TO.N,/D5*%
X35692336Y-24342336D03*
%TO.P,J2,22,D13*%
%TO.N,/D13*%
X35692336Y-21842336D03*
%TO.P,J2,23,D6*%
%TO.N,/D6*%
X36092336Y-24342336D03*
%TO.P,J2,24,D14*%
%TO.N,/D14*%
X36092336Y-21842336D03*
%TO.P,J2,25,D7*%
%TO.N,/D7*%
X36492336Y-24342336D03*
%TO.P,J2,26,D15*%
%TO.N,/D15*%
X36492336Y-21842336D03*
%TO.P,J2,27,VSS*%
%TO.N,GND*%
X36892336Y-24342336D03*
%TO.P,J2,28,XSTL*%
%TO.N,/XSTL*%
X36892336Y-21842336D03*
%TO.P,J2,29,XLE*%
%TO.N,/XLE*%
X37292336Y-24342336D03*
%TO.P,J2,30,XOE*%
%TO.N,/XOE*%
X37292336Y-21842336D03*
%TO.P,J2,31,XON*%
%TO.N,/TEST*%
X37692336Y-24342336D03*
%TO.P,J2,32,VPOS*%
%TO.N,/VPOS*%
X37692336Y-21842336D03*
%TO.P,J2,33,VNEG*%
%TO.N,/VNEG*%
X38092336Y-24342336D03*
%TO.P,J2,34,Border*%
%TO.N,/BRD*%
X38092336Y-21842336D03*
%TO.P,J2,35,NC*%
%TO.N,unconnected-(J2-Pad35)*%
X38492336Y-24342336D03*
%TO.P,J2,36,NC*%
%TO.N,unconnected-(J2-Pad36)*%
X38492336Y-21842336D03*
%TO.P,J2,37,NC*%
%TO.N,unconnected-(J2-Pad37)*%
X38892336Y-24342336D03*
%TO.P,J2,38,NC*%
%TO.N,unconnected-(J2-Pad38)*%
X38892336Y-21842336D03*
%TO.P,J2,39,VSS*%
%TO.N,GND*%
X39292336Y-24342336D03*
%TO.P,J2,40,VSS*%
X39292336Y-21842336D03*
%TO.P,J2,41,NC*%
%TO.N,unconnected-(J2-Pad41)*%
X39692336Y-24342336D03*
%TO.P,J2,42,NC*%
%TO.N,unconnected-(J2-Pad42)*%
X39692336Y-21842336D03*
%TO.P,J2,43,NC*%
%TO.N,unconnected-(J2-Pad43)*%
X40092336Y-24342336D03*
%TO.P,J2,44,NC*%
%TO.N,unconnected-(J2-Pad44)*%
X40092336Y-21842336D03*
%TO.P,J2,45,VSS*%
%TO.N,GND*%
X40492336Y-24342336D03*
%TO.P,J2,46,VDD2*%
%TO.N,/SPI_VDD*%
X40492336Y-21842336D03*
%TO.P,J2,47,SPI_SCL*%
%TO.N,/SPI_SCL*%
X40892336Y-24342336D03*
%TO.P,J2,48,SPI_NCS*%
%TO.N,/SPI_NCS*%
X40892336Y-21842336D03*
%TO.P,J2,49,SPI_SDI*%
%TO.N,/SPI_SDI*%
X41292336Y-24342336D03*
%TO.P,J2,50,SPI_SDO*%
%TO.N,/SPI_SDO*%
X41292336Y-21842336D03*
%TD*%
D14*
%TO.P,J1,6,Pin_6*%
%TO.N,/SPI_SDI*%
X46570000Y-24390000D03*
%TO.P,J1,5,Pin_5*%
%TO.N,/SPI_SDO*%
X46570000Y-21850000D03*
%TO.P,J1,4,Pin_4*%
%TO.N,/SPI_SCL*%
X49110000Y-24390000D03*
%TO.P,J1,3,Pin_3*%
%TO.N,/SPI_NCS*%
X49110000Y-21850000D03*
%TO.P,J1,2,Pin_2*%
%TO.N,GND*%
X51650000Y-24390000D03*
D15*
%TO.P,J1,1,Pin_1*%
%TO.N,/SPI_VDD*%
X51650000Y-21850000D03*
%TD*%
D16*
%TO.N,GND*%
X15350000Y-10600000D03*
X15500000Y-37700000D03*
X40300000Y-17950000D03*
X47250000Y-10700000D03*
X50950000Y-14450000D03*
X50900000Y-10750000D03*
X35100000Y-11000000D03*
X30750000Y-12500000D03*
X28300000Y-11000000D03*
X25100000Y-12500000D03*
X18450000Y-14600000D03*
X16200000Y-16300000D03*
X18450000Y-18050000D03*
X16200000Y-20050000D03*
X49150000Y-36500000D03*
X49950000Y-37600000D03*
X48150000Y-37600000D03*
X49150000Y-29700000D03*
X50000000Y-30850000D03*
X48100000Y-30900000D03*
X19500000Y-26300000D03*
X19450000Y-24800000D03*
X26350000Y-37000000D03*
X25400000Y-35800000D03*
X24050000Y-36950000D03*
X38050000Y-26000000D03*
X33550000Y-23200000D03*
X22950000Y-28200000D03*
X22950000Y-30000000D03*
X19441642Y-23149500D03*
%TO.N,/VNEG*%
X38679445Y-22839492D03*
X23250000Y-14900000D03*
%TO.N,/TEST*%
X37680140Y-22859370D03*
X22950000Y-16350000D03*
%TO.N,/XLE*%
X36668506Y-22836979D03*
X23871064Y-17421064D03*
%TO.N,/CKV*%
X23800000Y-30750000D03*
X29600000Y-30700000D03*
%TO.N,/VCOM*%
X23964317Y-29764097D03*
X31200000Y-29799500D03*
%TO.N,/MODE*%
X28705378Y-23094622D03*
X17350000Y-31650000D03*
%TO.N,/VGH*%
X19050000Y-32150000D03*
X28600000Y-22000000D03*
%TO.N,/SPV*%
X19100000Y-30200000D03*
X27589244Y-22039244D03*
%TO.N,VDD*%
X19100000Y-28700000D03*
X26479003Y-22160241D03*
%TO.N,/XCL*%
X25408837Y-22458837D03*
X19300000Y-27700000D03*
%TO.N,/D7*%
X27624077Y-25450500D03*
X36994622Y-26005378D03*
%TO.N,/D6*%
X26655102Y-25850500D03*
X37150550Y-27061785D03*
%TO.N,/D5*%
X25655638Y-26016394D03*
X36165996Y-27234004D03*
%TO.N,/D4*%
X27681368Y-27350500D03*
X36842853Y-28900104D03*
%TO.N,/D3*%
X35843351Y-28899564D03*
X26748439Y-27750500D03*
%TO.N,/D2*%
X25818754Y-28150500D03*
X34843850Y-28901354D03*
%TO.N,/D1*%
X24775365Y-28224635D03*
X33844372Y-28894372D03*
%TO.N,/D0*%
X24835319Y-29273832D03*
X32800000Y-28949500D03*
%TO.N,GND*%
X39392336Y-26042336D03*
X39292336Y-19942336D03*
%TD*%
D17*
%TO.N,/D7*%
X27624077Y-25450500D02*
X25873577Y-23700000D01*
X25873577Y-23700000D02*
X21050000Y-23700000D01*
%TO.N,/D6*%
X26655102Y-25850500D02*
X25004602Y-24200000D01*
X25004602Y-24200000D02*
X21050000Y-24200000D01*
%TO.N,/D4*%
X27681368Y-27350500D02*
X27338389Y-27350500D01*
X27338389Y-27350500D02*
X26712524Y-26724635D01*
X26712524Y-26724635D02*
X25374635Y-26724635D01*
X25374635Y-26724635D02*
X23850000Y-25200000D01*
X23850000Y-25200000D02*
X21050000Y-25200000D01*
%TO.N,/D5*%
X25655638Y-26016394D02*
X24339244Y-24700000D01*
X24339244Y-24700000D02*
X21050000Y-24700000D01*
%TO.N,/D3*%
X26748439Y-27750500D02*
X26408704Y-27750500D01*
X26408704Y-27750500D02*
X25782839Y-27124635D01*
X25782839Y-27124635D02*
X25186301Y-27124635D01*
X25186301Y-27124635D02*
X23761666Y-25700000D01*
X23761666Y-25700000D02*
X21050000Y-25700000D01*
%TO.N,/D2*%
X25818754Y-28150500D02*
X25192889Y-27524635D01*
X25192889Y-27524635D02*
X24824635Y-27524635D01*
X24824635Y-27524635D02*
X23500000Y-26200000D01*
X23500000Y-26200000D02*
X21050000Y-26200000D01*
%TO.N,/D1*%
X24775365Y-28224635D02*
X24674635Y-28224635D01*
X24674635Y-28224635D02*
X23150000Y-26700000D01*
X23150000Y-26700000D02*
X21050000Y-26700000D01*
%TO.N,/D0*%
X24835319Y-29273832D02*
X23650000Y-28088513D01*
X23650000Y-28088513D02*
X23650000Y-27910050D01*
X23650000Y-27910050D02*
X22939950Y-27200000D01*
X22939950Y-27200000D02*
X21050000Y-27200000D01*
%TO.N,/VCOM*%
X23964317Y-29764097D02*
X23400220Y-29200000D01*
X23400220Y-29200000D02*
X21050000Y-29200000D01*
%TO.N,/SPI_NCS*%
X40892336Y-21842336D02*
X40892336Y-20576650D01*
X40892336Y-20576650D02*
X41826651Y-19642336D01*
X41826651Y-19642336D02*
X48242336Y-19642336D01*
X48242336Y-19642336D02*
X49110000Y-20510000D01*
X49110000Y-20510000D02*
X49110000Y-21850000D01*
%TO.N,/SPI_SCL*%
X40892336Y-24342336D02*
X40892336Y-25608022D01*
X40892336Y-25608022D02*
X41826651Y-26542336D01*
X41826651Y-26542336D02*
X48107664Y-26542336D01*
X48107664Y-26542336D02*
X49110000Y-25540000D01*
X49110000Y-25540000D02*
X49110000Y-24390000D01*
%TO.N,GND*%
X51650000Y-26374672D02*
X51650000Y-24390000D01*
%TO.N,/SPI_SDI*%
X41292336Y-24342336D02*
X41292336Y-25442336D01*
%TO.N,GND*%
X51082336Y-26942336D02*
X51650000Y-26374672D01*
%TO.N,/SPI_SDI*%
X41292336Y-25442336D02*
X41992336Y-26142336D01*
%TO.N,GND*%
X40492336Y-25773708D02*
X41660965Y-26942336D01*
%TO.N,/SPI_SDO*%
X44762336Y-20042336D02*
X46570000Y-21850000D01*
%TO.N,/SPI_SDI*%
X41992336Y-26142336D02*
X44817664Y-26142336D01*
%TO.N,/SPI_SDO*%
X41992336Y-20042336D02*
X44762336Y-20042336D01*
%TO.N,GND*%
X40492336Y-24342336D02*
X40492336Y-25773708D01*
%TO.N,/SPI_SDI*%
X44817664Y-26142336D02*
X46570000Y-24390000D01*
%TO.N,GND*%
X41660965Y-26942336D02*
X51082336Y-26942336D01*
%TO.N,/SPI_VDD*%
X50992336Y-19242336D02*
X51650000Y-19900000D01*
%TO.N,/SPI_SDO*%
X41292336Y-20742336D02*
X41992336Y-20042336D01*
X41292336Y-21842336D02*
X41292336Y-20742336D01*
%TO.N,/SPI_VDD*%
X40492336Y-21842336D02*
X40492336Y-20410964D01*
X40492336Y-20410964D02*
X41660965Y-19242336D01*
X41660965Y-19242336D02*
X50992336Y-19242336D01*
X51650000Y-19900000D02*
X51650000Y-21850000D01*
%TO.N,GND*%
X38050000Y-25760756D02*
X38050000Y-26000000D01*
X37594622Y-25305378D02*
X38050000Y-25760756D01*
X36892336Y-25042336D02*
X37155378Y-25305378D01*
X36892336Y-24342336D02*
X36892336Y-25042336D01*
X37155378Y-25305378D02*
X37594622Y-25305378D01*
X33292336Y-23457664D02*
X33550000Y-23200000D01*
X33292336Y-24342336D02*
X33292336Y-23457664D01*
X21050000Y-28200000D02*
X22950000Y-28200000D01*
X22650000Y-29700000D02*
X22950000Y-30000000D01*
X21050000Y-29700000D02*
X22650000Y-29700000D01*
X19492142Y-23200000D02*
X19441642Y-23149500D01*
X21050000Y-23200000D02*
X19492142Y-23200000D01*
%TO.N,VDD*%
X32092336Y-24342336D02*
X32092336Y-23442336D01*
X30057664Y-23442336D02*
X32092336Y-23442336D01*
X32092336Y-23442336D02*
X32092336Y-23207664D01*
X29500000Y-26800000D02*
X29500000Y-24000000D01*
X29500000Y-24000000D02*
X30057664Y-23442336D01*
%TO.N,/MODE*%
X32092336Y-21842336D02*
X32092335Y-22573350D01*
X32092335Y-22573350D02*
X31623348Y-23042336D01*
X31623348Y-23042336D02*
X28757664Y-23042336D01*
X28757664Y-23042336D02*
X28705378Y-23094622D01*
%TO.N,/VGH*%
X31692336Y-21842336D02*
X31692336Y-22407664D01*
X31692336Y-22407664D02*
X31457663Y-22642336D01*
X31457663Y-22642336D02*
X29242336Y-22642336D01*
X29242336Y-22642336D02*
X28600000Y-22000000D01*
%TO.N,VDD*%
X24600000Y-31700000D02*
X29500000Y-26800000D01*
X21050000Y-31700000D02*
X24600000Y-31700000D01*
%TO.N,/VNEG*%
X38092336Y-24342336D02*
X38092336Y-23707664D01*
X38092336Y-23707664D02*
X38679445Y-23120555D01*
X38679445Y-23120555D02*
X38679445Y-22839492D01*
%TO.N,/TEST*%
X37680140Y-22859370D02*
X37680140Y-23282927D01*
X37680140Y-23282927D02*
X37692336Y-23295124D01*
X37692336Y-23295124D02*
X37692336Y-24342336D01*
%TO.N,/XLE*%
X36668506Y-22836979D02*
X37292336Y-23460809D01*
X37292336Y-23460809D02*
X37292336Y-24342336D01*
%TO.N,/VNEG*%
X21050000Y-15200000D02*
X22950000Y-15200000D01*
X22950000Y-15200000D02*
X23250000Y-14900000D01*
%TO.N,/VPOS*%
X37692336Y-21842336D02*
X37692336Y-17108022D01*
X37692336Y-17108022D02*
X36034314Y-15450000D01*
X36034314Y-15450000D02*
X24050000Y-15450000D01*
X24050000Y-15450000D02*
X23850000Y-15650000D01*
X23850000Y-15650000D02*
X22660050Y-15650000D01*
X22660050Y-15650000D02*
X22110050Y-16200000D01*
X22110050Y-16200000D02*
X21050000Y-16200000D01*
%TO.N,/TEST*%
X21050000Y-17200000D02*
X22100000Y-17200000D01*
X22100000Y-17200000D02*
X22950000Y-16350000D01*
%TO.N,/XOE*%
X37292336Y-21842336D02*
X37292336Y-17273708D01*
X37292336Y-17273708D02*
X35868628Y-15850000D01*
X35868628Y-15850000D02*
X24450000Y-15850000D01*
X22600000Y-17700000D02*
X21050000Y-17700000D01*
X24450000Y-15850000D02*
X22600000Y-17700000D01*
%TO.N,/XLE*%
X21050000Y-18200000D02*
X23092128Y-18200000D01*
X23092128Y-18200000D02*
X23871064Y-17421064D01*
%TO.N,/VGL*%
X31692336Y-24342336D02*
X31692336Y-25407664D01*
X31692336Y-25407664D02*
X23400000Y-33700000D01*
X23400000Y-33700000D02*
X21050000Y-33700000D01*
%TO.N,/CKV*%
X32492336Y-27507664D02*
X29900000Y-30100000D01*
X32492336Y-24342336D02*
X32492336Y-27507664D01*
X29900000Y-30100000D02*
X29600000Y-30400000D01*
X29600000Y-30400000D02*
X29600000Y-30700000D01*
X23800000Y-30750000D02*
X23750000Y-30700000D01*
X23750000Y-30700000D02*
X21050000Y-30700000D01*
%TO.N,/VCOM*%
X32892336Y-24342336D02*
X32892336Y-27857664D01*
X32892336Y-27857664D02*
X31200000Y-29550000D01*
X31200000Y-29550000D02*
X31200000Y-29799500D01*
%TO.N,VDD*%
X32092336Y-23207664D02*
X32892336Y-22407664D01*
X32892336Y-22407664D02*
X32892336Y-21842336D01*
%TO.N,/MODE*%
X21050000Y-31200000D02*
X17800000Y-31200000D01*
X17800000Y-31200000D02*
X17350000Y-31650000D01*
%TO.N,/VGH*%
X19050000Y-32150000D02*
X19600000Y-32700000D01*
X19600000Y-32700000D02*
X21050000Y-32700000D01*
%TO.N,/SPV*%
X19100000Y-30200000D02*
X21050000Y-30200000D01*
X27589244Y-21760756D02*
X27589244Y-22039244D01*
X28450000Y-20900000D02*
X27589244Y-21760756D01*
X32492336Y-21242336D02*
X32150000Y-20900000D01*
X32150000Y-20900000D02*
X28450000Y-20900000D01*
X32492336Y-21842336D02*
X32492336Y-21242336D01*
%TO.N,VDD*%
X32892336Y-20700000D02*
X32692336Y-20500000D01*
X32892336Y-21842336D02*
X32892336Y-20700000D01*
X32692336Y-20500000D02*
X28139244Y-20500000D01*
X28139244Y-20500000D02*
X26479003Y-22160241D01*
X19100000Y-28700000D02*
X21050000Y-28700000D01*
%TO.N,/XCL*%
X33292336Y-20308022D02*
X33092157Y-20107843D01*
X27550000Y-20100000D02*
X25408837Y-22241163D01*
X33092157Y-20107843D02*
X33084314Y-20100000D01*
X33292336Y-21842336D02*
X33292336Y-20308022D01*
X25408837Y-22241163D02*
X25408837Y-22458837D01*
X33084314Y-20100000D02*
X27550000Y-20100000D01*
X19300000Y-27700000D02*
X21050000Y-27700000D01*
%TO.N,/D6*%
X37150550Y-27061785D02*
X36794143Y-26705378D01*
X36794143Y-26705378D02*
X36704672Y-26705378D01*
X36704672Y-26705378D02*
X36092336Y-26093042D01*
X36092336Y-26093042D02*
X36092336Y-24342336D01*
%TO.N,/D5*%
X35692336Y-26760344D02*
X35692336Y-24342336D01*
X36165996Y-27234004D02*
X35692336Y-26760344D01*
%TO.N,/D7*%
X36994622Y-26005378D02*
X36492336Y-25503092D01*
X36492336Y-25503092D02*
X36492336Y-24342336D01*
%TO.N,/D4*%
X36842853Y-28900104D02*
X35292336Y-27349587D01*
X35292336Y-27349587D02*
X35292336Y-24342336D01*
%TO.N,/D3*%
X35843351Y-28899564D02*
X34892336Y-27948549D01*
X34892336Y-27948549D02*
X34892336Y-24342336D01*
%TO.N,/D2*%
X34843850Y-28901354D02*
X34492336Y-28549840D01*
X34492336Y-28549840D02*
X34492336Y-24342336D01*
%TO.N,/D1*%
X33844372Y-28894372D02*
X34092336Y-28646408D01*
X34092336Y-28646408D02*
X34092336Y-24342336D01*
%TO.N,/D0*%
X32800000Y-28949500D02*
X33692336Y-28057164D01*
X33692336Y-28057164D02*
X33692336Y-24342336D01*
%TO.N,/D8*%
X33692336Y-21842336D02*
X33692336Y-20142336D01*
X24178430Y-22700000D02*
X21050000Y-22700000D01*
X33692336Y-20142336D02*
X33250000Y-19700000D01*
X33250000Y-19700000D02*
X27178430Y-19700000D01*
X27178430Y-19700000D02*
X24178430Y-22700000D01*
%TO.N,/D9*%
X34092336Y-21842336D02*
X34092336Y-19792336D01*
X34092336Y-19792336D02*
X33600000Y-19300000D01*
X33600000Y-19300000D02*
X27012744Y-19300000D01*
X27012744Y-19300000D02*
X24112744Y-22200000D01*
X24112744Y-22200000D02*
X21050000Y-22200000D01*
%TO.N,/D10*%
X34492336Y-21842336D02*
X34492336Y-19458022D01*
X33934314Y-18900000D02*
X26847058Y-18900000D01*
X24047058Y-21700000D02*
X21050000Y-21700000D01*
X34492336Y-19458022D02*
X33934314Y-18900000D01*
X26847058Y-18900000D02*
X24047058Y-21700000D01*
%TO.N,/D11*%
X34892336Y-19292336D02*
X34100000Y-18500000D01*
X34892336Y-21842336D02*
X34892336Y-19292336D01*
X26681372Y-18500000D02*
X23981372Y-21200000D01*
X34100000Y-18500000D02*
X26681372Y-18500000D01*
X23981372Y-21200000D02*
X21050000Y-21200000D01*
%TO.N,/D12*%
X35292336Y-21842336D02*
X35292336Y-19042336D01*
X35292336Y-19042336D02*
X34350000Y-18100000D01*
X34350000Y-18100000D02*
X26515686Y-18100000D01*
X26515686Y-18100000D02*
X23915685Y-20700000D01*
X23915685Y-20700000D02*
X21050000Y-20700000D01*
%TO.N,/D13*%
X35692336Y-21842336D02*
X35692336Y-18298708D01*
X35093628Y-17700000D02*
X26350000Y-17700000D01*
X26350000Y-17700000D02*
X23850000Y-20200000D01*
X35692336Y-18298708D02*
X35093628Y-17700000D01*
X23850000Y-20200000D02*
X21050000Y-20200000D01*
%TO.N,/D14*%
X26206372Y-17206372D02*
X35440686Y-17206372D01*
X21050000Y-19700000D02*
X23712744Y-19700000D01*
X23712744Y-19700000D02*
X26206372Y-17206372D01*
X35440686Y-17206372D02*
X36092336Y-17858022D01*
X36092336Y-17858022D02*
X36092336Y-21842336D01*
%TO.N,/D15*%
X36492336Y-21842336D02*
X36492336Y-17692336D01*
X35600000Y-16800000D02*
X26047058Y-16800000D01*
X36492336Y-17692336D02*
X35600000Y-16800000D01*
X26047058Y-16800000D02*
X23647058Y-19200000D01*
X23647058Y-19200000D02*
X21050000Y-19200000D01*
%TO.N,/XSTL*%
X36892336Y-21842336D02*
X36892336Y-17439394D01*
X36892336Y-17439394D02*
X35702942Y-16250000D01*
X35702942Y-16250000D02*
X26031372Y-16250000D01*
X26031372Y-16250000D02*
X23581372Y-18700000D01*
X23581372Y-18700000D02*
X21050000Y-18700000D01*
%TO.N,/BRD*%
X38092336Y-21842336D02*
X38092336Y-16942336D01*
X38092336Y-16942336D02*
X35350000Y-14200000D01*
X35350000Y-14200000D02*
X21050000Y-14200000D01*
%TO.N,GND*%
X39292336Y-25942336D02*
X39392336Y-26042336D01*
X39292336Y-21842336D02*
X39292336Y-19942336D01*
X39292336Y-24342336D02*
X39292336Y-25942336D01*
%TD*%
%TA.AperFunction,Conductor*%
%TO.N,GND*%
G36*
X53483621Y-9528502D02*
G01*
X53530114Y-9582158D01*
X53541500Y-9634500D01*
X53541500Y-38365500D01*
X53521498Y-38433621D01*
X53467842Y-38480114D01*
X53415500Y-38491500D01*
X14684500Y-38491500D01*
X14616379Y-38471498D01*
X14569886Y-38417842D01*
X14558500Y-38365500D01*
X14558500Y-36548134D01*
X16191500Y-36548134D01*
X16198255Y-36610316D01*
X16249385Y-36746705D01*
X16336739Y-36863261D01*
X16453295Y-36950615D01*
X16589684Y-37001745D01*
X16651866Y-37008500D01*
X18948134Y-37008500D01*
X19010316Y-37001745D01*
X19146705Y-36950615D01*
X19263261Y-36863261D01*
X19350615Y-36746705D01*
X19401745Y-36610316D01*
X19408500Y-36548134D01*
X19408500Y-34651866D01*
X19401745Y-34589684D01*
X19350615Y-34453295D01*
X19263261Y-34336739D01*
X19146705Y-34249385D01*
X19010316Y-34198255D01*
X18948134Y-34191500D01*
X16651866Y-34191500D01*
X16589684Y-34198255D01*
X16453295Y-34249385D01*
X16336739Y-34336739D01*
X16249385Y-34453295D01*
X16198255Y-34589684D01*
X16191500Y-34651866D01*
X16191500Y-36548134D01*
X14558500Y-36548134D01*
X14558500Y-31650000D01*
X16436496Y-31650000D01*
X16456458Y-31839928D01*
X16515473Y-32021556D01*
X16610960Y-32186944D01*
X16738747Y-32328866D01*
X16893248Y-32441118D01*
X16899276Y-32443802D01*
X16899278Y-32443803D01*
X17059806Y-32515274D01*
X17067712Y-32518794D01*
X17161113Y-32538647D01*
X17248056Y-32557128D01*
X17248061Y-32557128D01*
X17254513Y-32558500D01*
X17445487Y-32558500D01*
X17451939Y-32557128D01*
X17451944Y-32557128D01*
X17538887Y-32538647D01*
X17632288Y-32518794D01*
X17640194Y-32515274D01*
X17800722Y-32443803D01*
X17800724Y-32443802D01*
X17806752Y-32441118D01*
X17834592Y-32420891D01*
X17955909Y-32332749D01*
X17955911Y-32332747D01*
X17961253Y-32328866D01*
X17965273Y-32324402D01*
X18029080Y-32293780D01*
X18099533Y-32302543D01*
X18154065Y-32348005D01*
X18169217Y-32379196D01*
X18215473Y-32521556D01*
X18218776Y-32527278D01*
X18218777Y-32527279D01*
X18236803Y-32558500D01*
X18310960Y-32686944D01*
X18438747Y-32828866D01*
X18529381Y-32894716D01*
X18586745Y-32936393D01*
X18593248Y-32941118D01*
X18599276Y-32943802D01*
X18599278Y-32943803D01*
X18761681Y-33016109D01*
X18767712Y-33018794D01*
X18861112Y-33038647D01*
X18948056Y-33057128D01*
X18948061Y-33057128D01*
X18954513Y-33058500D01*
X19045761Y-33058500D01*
X19113882Y-33078502D01*
X19134856Y-33095405D01*
X19135685Y-33096234D01*
X19146552Y-33108625D01*
X19166013Y-33133987D01*
X19197925Y-33158474D01*
X19197928Y-33158477D01*
X19234760Y-33186739D01*
X19293125Y-33231524D01*
X19441150Y-33292838D01*
X19560115Y-33308500D01*
X19560120Y-33308500D01*
X19560129Y-33308501D01*
X19591812Y-33312672D01*
X19600000Y-33313750D01*
X19631693Y-33309578D01*
X19648136Y-33308500D01*
X19768709Y-33308500D01*
X19836830Y-33328502D01*
X19883323Y-33382158D01*
X19893972Y-33420891D01*
X19895656Y-33436391D01*
X19895656Y-33463606D01*
X19891500Y-33501866D01*
X19891500Y-33898134D01*
X19898255Y-33960316D01*
X19949385Y-34096705D01*
X20036739Y-34213261D01*
X20153295Y-34300615D01*
X20289684Y-34351745D01*
X20351866Y-34358500D01*
X21748134Y-34358500D01*
X21751531Y-34358131D01*
X21802466Y-34352598D01*
X21802468Y-34352598D01*
X21810316Y-34351745D01*
X21817709Y-34348973D01*
X21817711Y-34348973D01*
X21904284Y-34316518D01*
X21948513Y-34308500D01*
X23351864Y-34308500D01*
X23368307Y-34309578D01*
X23400000Y-34313750D01*
X23408189Y-34312672D01*
X23439874Y-34308501D01*
X23439884Y-34308500D01*
X23439885Y-34308500D01*
X23475836Y-34303767D01*
X23539457Y-34295391D01*
X23550664Y-34293916D01*
X23550666Y-34293915D01*
X23558851Y-34292838D01*
X23706876Y-34231524D01*
X23751345Y-34197402D01*
X23802072Y-34158477D01*
X23802075Y-34158474D01*
X23827434Y-34139015D01*
X23833987Y-34133987D01*
X23839017Y-34127432D01*
X23853452Y-34108621D01*
X23864319Y-34096230D01*
X31668741Y-26291808D01*
X31731053Y-26257782D01*
X31801868Y-26262847D01*
X31858704Y-26305394D01*
X31883515Y-26371914D01*
X31883836Y-26380903D01*
X31883836Y-27203425D01*
X31863834Y-27271546D01*
X31846931Y-27292520D01*
X29317161Y-29822290D01*
X29279314Y-29848302D01*
X29149280Y-29906196D01*
X29149277Y-29906198D01*
X29143248Y-29908882D01*
X28988747Y-30021134D01*
X28860960Y-30163056D01*
X28835840Y-30206565D01*
X28775815Y-30310532D01*
X28765473Y-30328444D01*
X28706458Y-30510072D01*
X28705768Y-30516633D01*
X28705768Y-30516635D01*
X28695921Y-30610322D01*
X28686496Y-30700000D01*
X28706458Y-30889928D01*
X28765473Y-31071556D01*
X28860960Y-31236944D01*
X28988747Y-31378866D01*
X29143248Y-31491118D01*
X29149276Y-31493802D01*
X29149278Y-31493803D01*
X29311681Y-31566109D01*
X29317712Y-31568794D01*
X29411112Y-31588647D01*
X29498056Y-31607128D01*
X29498061Y-31607128D01*
X29504513Y-31608500D01*
X29695487Y-31608500D01*
X29701939Y-31607128D01*
X29701944Y-31607128D01*
X29788888Y-31588647D01*
X29882288Y-31568794D01*
X29888319Y-31566109D01*
X30050722Y-31493803D01*
X30050724Y-31493802D01*
X30056752Y-31491118D01*
X30211253Y-31378866D01*
X30339040Y-31236944D01*
X30434527Y-31071556D01*
X30493542Y-30889928D01*
X30513504Y-30700000D01*
X30511644Y-30682306D01*
X30524416Y-30612468D01*
X30572917Y-30560621D01*
X30641750Y-30543226D01*
X30711013Y-30567198D01*
X30743248Y-30590618D01*
X30749276Y-30593302D01*
X30749278Y-30593303D01*
X30787504Y-30610322D01*
X30917712Y-30668294D01*
X30983638Y-30682307D01*
X31098056Y-30706628D01*
X31098061Y-30706628D01*
X31104513Y-30708000D01*
X31295487Y-30708000D01*
X31301939Y-30706628D01*
X31301944Y-30706628D01*
X31416362Y-30682307D01*
X31482288Y-30668294D01*
X31612496Y-30610322D01*
X31650722Y-30593303D01*
X31650724Y-30593302D01*
X31656752Y-30590618D01*
X31682989Y-30571556D01*
X31758580Y-30516635D01*
X31811253Y-30478366D01*
X31815675Y-30473455D01*
X31934621Y-30341352D01*
X31934622Y-30341351D01*
X31939040Y-30336444D01*
X32017816Y-30200000D01*
X32031223Y-30176779D01*
X32031224Y-30176778D01*
X32034527Y-30171056D01*
X32093542Y-29989428D01*
X32096500Y-29961289D01*
X32112741Y-29806761D01*
X32139754Y-29741105D01*
X32197976Y-29700475D01*
X32268921Y-29697772D01*
X32312109Y-29717994D01*
X32343248Y-29740618D01*
X32349276Y-29743302D01*
X32349278Y-29743303D01*
X32498755Y-29809854D01*
X32517712Y-29818294D01*
X32611112Y-29838147D01*
X32698056Y-29856628D01*
X32698061Y-29856628D01*
X32704513Y-29858000D01*
X32895487Y-29858000D01*
X32901939Y-29856628D01*
X32901944Y-29856628D01*
X32988888Y-29838147D01*
X33082288Y-29818294D01*
X33101245Y-29809854D01*
X33250722Y-29743303D01*
X33250724Y-29743302D01*
X33256752Y-29740618D01*
X33262094Y-29736737D01*
X33294670Y-29713069D01*
X33361538Y-29689210D01*
X33419979Y-29699898D01*
X33556049Y-29760480D01*
X33556057Y-29760483D01*
X33562084Y-29763166D01*
X33655485Y-29783019D01*
X33742428Y-29801500D01*
X33742433Y-29801500D01*
X33748885Y-29802872D01*
X33939859Y-29802872D01*
X33946311Y-29801500D01*
X33946316Y-29801500D01*
X34033259Y-29783019D01*
X34126660Y-29763166D01*
X34285023Y-29692659D01*
X34355388Y-29683225D01*
X34387516Y-29692658D01*
X34486519Y-29736737D01*
X34552724Y-29766213D01*
X34561562Y-29770148D01*
X34654962Y-29790001D01*
X34741906Y-29808482D01*
X34741911Y-29808482D01*
X34748363Y-29809854D01*
X34939337Y-29809854D01*
X34945789Y-29808482D01*
X34945794Y-29808482D01*
X35032738Y-29790001D01*
X35126138Y-29770148D01*
X35134977Y-29766213D01*
X35254340Y-29713069D01*
X35294363Y-29695250D01*
X35364729Y-29685816D01*
X35396857Y-29695249D01*
X35504788Y-29743303D01*
X35549402Y-29763166D01*
X35561063Y-29768358D01*
X35654463Y-29788211D01*
X35741407Y-29806692D01*
X35741412Y-29806692D01*
X35747864Y-29808064D01*
X35938838Y-29808064D01*
X35945290Y-29806692D01*
X35945295Y-29806692D01*
X36032239Y-29788211D01*
X36125639Y-29768358D01*
X36137301Y-29763166D01*
X36291247Y-29694625D01*
X36361614Y-29685191D01*
X36393743Y-29694624D01*
X36446237Y-29717996D01*
X36547691Y-29763166D01*
X36560565Y-29768898D01*
X36653965Y-29788751D01*
X36740909Y-29807232D01*
X36740914Y-29807232D01*
X36747366Y-29808604D01*
X36938340Y-29808604D01*
X36944792Y-29807232D01*
X36944797Y-29807232D01*
X37031741Y-29788751D01*
X37125141Y-29768898D01*
X37134934Y-29764538D01*
X37293575Y-29693907D01*
X37293577Y-29693906D01*
X37299605Y-29691222D01*
X37307495Y-29685490D01*
X37362690Y-29645388D01*
X37454106Y-29578970D01*
X37507499Y-29519671D01*
X37577474Y-29441956D01*
X37577475Y-29441955D01*
X37581893Y-29437048D01*
X37677380Y-29271660D01*
X37736395Y-29090032D01*
X37737736Y-29077279D01*
X37755667Y-28906669D01*
X37756357Y-28900104D01*
X37736395Y-28710176D01*
X37677380Y-28528548D01*
X37581893Y-28363160D01*
X37552110Y-28330082D01*
X37458528Y-28226149D01*
X37458527Y-28226148D01*
X37454106Y-28221238D01*
X37368736Y-28159213D01*
X37325383Y-28102990D01*
X37319308Y-28032254D01*
X37352440Y-27969462D01*
X37416603Y-27934030D01*
X37421528Y-27932983D01*
X37432838Y-27930579D01*
X37438869Y-27927894D01*
X37601272Y-27855588D01*
X37601274Y-27855587D01*
X37607302Y-27852903D01*
X37761803Y-27740651D01*
X37798405Y-27700000D01*
X37885171Y-27603637D01*
X37885172Y-27603636D01*
X37889590Y-27598729D01*
X37985077Y-27433341D01*
X38044092Y-27251713D01*
X38054695Y-27150836D01*
X38063364Y-27068350D01*
X38064054Y-27061785D01*
X38051717Y-26944407D01*
X38044782Y-26878420D01*
X38044782Y-26878418D01*
X38044092Y-26871857D01*
X37985077Y-26690229D01*
X37889590Y-26524841D01*
X37858538Y-26490355D01*
X37827821Y-26426349D01*
X37832341Y-26367111D01*
X37888164Y-26195306D01*
X37894687Y-26133249D01*
X37907436Y-26011943D01*
X37908126Y-26005378D01*
X37901472Y-25942069D01*
X37888854Y-25822013D01*
X37888854Y-25822011D01*
X37888164Y-25815450D01*
X37829149Y-25633822D01*
X37733662Y-25468434D01*
X37727099Y-25461145D01*
X37726294Y-25459467D01*
X37725363Y-25458186D01*
X37725597Y-25458016D01*
X37696382Y-25397138D01*
X37705147Y-25326684D01*
X37750611Y-25272153D01*
X37820736Y-25250836D01*
X37840470Y-25250836D01*
X37843865Y-25250467D01*
X37843869Y-25250467D01*
X37869867Y-25247643D01*
X37878730Y-25246680D01*
X37905942Y-25246680D01*
X37914805Y-25247643D01*
X37940803Y-25250467D01*
X37940807Y-25250467D01*
X37944202Y-25250836D01*
X38240470Y-25250836D01*
X38243865Y-25250467D01*
X38243869Y-25250467D01*
X38269867Y-25247643D01*
X38278730Y-25246680D01*
X38305942Y-25246680D01*
X38314805Y-25247643D01*
X38340803Y-25250467D01*
X38340807Y-25250467D01*
X38344202Y-25250836D01*
X38640470Y-25250836D01*
X38643865Y-25250467D01*
X38643869Y-25250467D01*
X38669867Y-25247643D01*
X38678730Y-25246680D01*
X38705942Y-25246680D01*
X38714805Y-25247643D01*
X38740803Y-25250467D01*
X38740807Y-25250467D01*
X38744202Y-25250836D01*
X39040470Y-25250836D01*
X39081056Y-25246427D01*
X39108269Y-25246427D01*
X39140853Y-25249967D01*
X39147663Y-25250336D01*
X39437006Y-25250335D01*
X39443824Y-25249966D01*
X39476403Y-25246427D01*
X39503616Y-25246427D01*
X39544202Y-25250836D01*
X39840470Y-25250836D01*
X39843865Y-25250467D01*
X39843869Y-25250467D01*
X39869867Y-25247643D01*
X39878730Y-25246680D01*
X39905942Y-25246680D01*
X39914805Y-25247643D01*
X39940803Y-25250467D01*
X39940807Y-25250467D01*
X39944202Y-25250836D01*
X40157836Y-25250836D01*
X40225957Y-25270838D01*
X40272450Y-25324494D01*
X40283836Y-25376836D01*
X40283836Y-25559886D01*
X40282758Y-25576329D01*
X40278586Y-25608022D01*
X40283836Y-25647902D01*
X40283836Y-25647907D01*
X40293408Y-25720606D01*
X40293771Y-25723366D01*
X40293771Y-25723368D01*
X40297508Y-25751753D01*
X40299498Y-25766873D01*
X40360812Y-25914898D01*
X40365839Y-25921449D01*
X40365840Y-25921451D01*
X40433856Y-26010091D01*
X40433862Y-26010097D01*
X40458349Y-26042009D01*
X40481156Y-26059510D01*
X40483713Y-26061472D01*
X40496103Y-26072338D01*
X41362332Y-26938565D01*
X41373200Y-26950957D01*
X41392664Y-26976323D01*
X41399210Y-26981346D01*
X41399213Y-26981349D01*
X41424578Y-27000812D01*
X41424580Y-27000813D01*
X41513223Y-27068832D01*
X41519775Y-27073860D01*
X41527401Y-27077019D01*
X41527403Y-27077020D01*
X41593787Y-27104517D01*
X41667800Y-27135174D01*
X41675987Y-27136252D01*
X41675988Y-27136252D01*
X41687193Y-27137727D01*
X41718389Y-27141834D01*
X41786766Y-27150836D01*
X41786769Y-27150836D01*
X41786777Y-27150837D01*
X41818462Y-27155008D01*
X41826651Y-27156086D01*
X41858344Y-27151914D01*
X41874787Y-27150836D01*
X48059528Y-27150836D01*
X48075971Y-27151914D01*
X48107664Y-27156086D01*
X48115853Y-27155008D01*
X48147538Y-27150837D01*
X48147548Y-27150836D01*
X48147549Y-27150836D01*
X48147565Y-27150834D01*
X48247121Y-27137727D01*
X48258328Y-27136252D01*
X48258330Y-27136251D01*
X48266515Y-27135174D01*
X48414540Y-27073860D01*
X48430277Y-27061785D01*
X48509736Y-27000813D01*
X48509739Y-27000810D01*
X48535098Y-26981351D01*
X48541651Y-26976323D01*
X48546681Y-26969768D01*
X48561116Y-26950957D01*
X48571983Y-26938566D01*
X49506234Y-26004315D01*
X49518625Y-25993448D01*
X49537437Y-25979013D01*
X49543987Y-25973987D01*
X49568474Y-25942075D01*
X49568480Y-25942069D01*
X49636496Y-25853429D01*
X49636497Y-25853427D01*
X49641524Y-25846876D01*
X49702838Y-25698851D01*
X49705434Y-25679133D01*
X49706184Y-25673435D01*
X49734906Y-25608508D01*
X49775675Y-25576729D01*
X49803354Y-25563169D01*
X49807994Y-25560896D01*
X49989860Y-25431173D01*
X49996563Y-25424494D01*
X50094887Y-25326512D01*
X50148096Y-25273489D01*
X50168274Y-25245409D01*
X50278453Y-25092077D01*
X50279640Y-25092930D01*
X50326960Y-25049362D01*
X50396897Y-25037145D01*
X50462338Y-25064678D01*
X50490166Y-25096511D01*
X50547694Y-25190388D01*
X50553777Y-25198699D01*
X50693213Y-25359667D01*
X50700580Y-25366883D01*
X50864434Y-25502916D01*
X50872881Y-25508831D01*
X51056756Y-25616279D01*
X51066042Y-25620729D01*
X51265001Y-25696703D01*
X51274899Y-25699579D01*
X51378250Y-25720606D01*
X51392299Y-25719410D01*
X51396000Y-25709065D01*
X51396000Y-25708517D01*
X51904000Y-25708517D01*
X51908064Y-25722359D01*
X51921478Y-25724393D01*
X51928184Y-25723534D01*
X51938262Y-25721392D01*
X52142255Y-25660191D01*
X52151842Y-25656433D01*
X52343095Y-25562739D01*
X52351945Y-25557464D01*
X52525328Y-25433792D01*
X52533200Y-25427139D01*
X52684052Y-25276812D01*
X52690730Y-25268965D01*
X52815003Y-25096020D01*
X52820313Y-25087183D01*
X52914670Y-24896267D01*
X52918469Y-24886672D01*
X52980377Y-24682910D01*
X52982555Y-24672837D01*
X52983986Y-24661962D01*
X52981775Y-24647778D01*
X52968617Y-24644000D01*
X51922115Y-24644000D01*
X51906876Y-24648475D01*
X51905671Y-24649865D01*
X51904000Y-24657548D01*
X51904000Y-25708517D01*
X51396000Y-25708517D01*
X51396000Y-24262000D01*
X51416002Y-24193879D01*
X51469658Y-24147386D01*
X51522000Y-24136000D01*
X52968344Y-24136000D01*
X52981875Y-24132027D01*
X52983180Y-24122947D01*
X52941214Y-23955875D01*
X52937894Y-23946124D01*
X52852972Y-23750814D01*
X52848105Y-23741739D01*
X52732426Y-23562926D01*
X52726136Y-23554757D01*
X52582293Y-23396677D01*
X52551241Y-23332831D01*
X52559635Y-23262333D01*
X52604812Y-23207564D01*
X52631256Y-23193895D01*
X52738297Y-23153767D01*
X52746705Y-23150615D01*
X52863261Y-23063261D01*
X52950615Y-22946705D01*
X53001745Y-22810316D01*
X53008500Y-22748134D01*
X53008500Y-20951866D01*
X53001745Y-20889684D01*
X52950615Y-20753295D01*
X52863261Y-20636739D01*
X52746705Y-20549385D01*
X52610316Y-20498255D01*
X52548134Y-20491500D01*
X52384500Y-20491500D01*
X52316379Y-20471498D01*
X52269886Y-20417842D01*
X52258500Y-20365500D01*
X52258500Y-19948136D01*
X52259578Y-19931690D01*
X52262672Y-19908188D01*
X52263750Y-19900000D01*
X52258500Y-19860122D01*
X52258500Y-19860115D01*
X52242838Y-19741150D01*
X52181524Y-19593125D01*
X52147828Y-19549212D01*
X52108477Y-19497928D01*
X52108474Y-19497925D01*
X52108471Y-19497921D01*
X52089016Y-19472566D01*
X52089013Y-19472563D01*
X52083987Y-19466013D01*
X52063119Y-19450000D01*
X52058621Y-19446548D01*
X52046230Y-19435681D01*
X51456651Y-18846102D01*
X51445784Y-18833711D01*
X51431349Y-18814899D01*
X51426323Y-18808349D01*
X51394411Y-18783862D01*
X51394408Y-18783859D01*
X51299212Y-18710812D01*
X51151187Y-18649498D01*
X51143000Y-18648420D01*
X51142999Y-18648420D01*
X51131794Y-18646945D01*
X51100598Y-18642838D01*
X51032221Y-18633836D01*
X51032218Y-18633836D01*
X51032210Y-18633835D01*
X51000525Y-18629664D01*
X50992336Y-18628586D01*
X50960643Y-18632758D01*
X50944200Y-18633836D01*
X41709101Y-18633836D01*
X41692655Y-18632758D01*
X41669153Y-18629664D01*
X41660965Y-18628586D01*
X41652777Y-18629664D01*
X41621094Y-18633835D01*
X41621085Y-18633836D01*
X41621080Y-18633836D01*
X41502115Y-18649498D01*
X41431893Y-18678585D01*
X41354089Y-18710812D01*
X41258893Y-18783859D01*
X41258890Y-18783862D01*
X41226978Y-18808349D01*
X41221948Y-18814904D01*
X41207513Y-18833715D01*
X41196646Y-18846106D01*
X40096109Y-19946643D01*
X40083717Y-19957512D01*
X40058349Y-19976977D01*
X40033862Y-20008889D01*
X40033859Y-20008892D01*
X40033853Y-20008900D01*
X39990093Y-20065929D01*
X39960812Y-20104088D01*
X39899498Y-20252113D01*
X39897389Y-20268137D01*
X39883836Y-20371079D01*
X39883836Y-20371084D01*
X39878586Y-20410964D01*
X39879664Y-20419152D01*
X39882758Y-20442654D01*
X39883836Y-20459100D01*
X39883836Y-20807836D01*
X39863834Y-20875957D01*
X39810178Y-20922450D01*
X39757836Y-20933836D01*
X39544202Y-20933836D01*
X39503616Y-20938245D01*
X39476403Y-20938245D01*
X39443819Y-20934705D01*
X39437009Y-20934336D01*
X39147666Y-20934337D01*
X39140848Y-20934706D01*
X39108269Y-20938245D01*
X39081056Y-20938245D01*
X39040470Y-20933836D01*
X38826836Y-20933836D01*
X38758715Y-20913834D01*
X38712222Y-20860178D01*
X38700836Y-20807836D01*
X38700836Y-16990472D01*
X38701914Y-16974026D01*
X38705008Y-16950524D01*
X38706086Y-16942336D01*
X38700836Y-16902456D01*
X38700836Y-16902451D01*
X38685174Y-16783486D01*
X38685174Y-16783485D01*
X38623860Y-16635460D01*
X38550814Y-16540265D01*
X38550810Y-16540261D01*
X38550807Y-16540257D01*
X38531352Y-16514902D01*
X38531349Y-16514899D01*
X38526323Y-16508349D01*
X38519768Y-16503319D01*
X38500957Y-16488884D01*
X38488566Y-16478017D01*
X35814315Y-13803766D01*
X35803448Y-13791375D01*
X35789013Y-13772563D01*
X35783987Y-13766013D01*
X35752075Y-13741526D01*
X35752072Y-13741523D01*
X35708555Y-13708131D01*
X35663429Y-13673504D01*
X35663427Y-13673503D01*
X35656876Y-13668476D01*
X35508851Y-13607162D01*
X35500664Y-13606084D01*
X35500663Y-13606084D01*
X35489458Y-13604609D01*
X35449777Y-13599385D01*
X35389885Y-13591500D01*
X35389882Y-13591500D01*
X35389874Y-13591499D01*
X35358189Y-13587328D01*
X35350000Y-13586250D01*
X35318307Y-13590422D01*
X35301864Y-13591500D01*
X21948513Y-13591500D01*
X21904284Y-13583482D01*
X21817711Y-13551027D01*
X21817709Y-13551027D01*
X21810316Y-13548255D01*
X21802468Y-13547402D01*
X21802466Y-13547402D01*
X21751531Y-13541869D01*
X21748134Y-13541500D01*
X20351866Y-13541500D01*
X20289684Y-13548255D01*
X20153295Y-13599385D01*
X20036739Y-13686739D01*
X19949385Y-13803295D01*
X19898255Y-13939684D01*
X19891500Y-14001866D01*
X19891500Y-14398134D01*
X19891869Y-14401529D01*
X19891869Y-14401533D01*
X19895656Y-14436393D01*
X19895656Y-14463606D01*
X19891500Y-14501866D01*
X19891500Y-14898134D01*
X19891869Y-14901529D01*
X19891869Y-14901533D01*
X19895656Y-14936393D01*
X19895656Y-14963606D01*
X19891500Y-15001866D01*
X19891500Y-15398134D01*
X19891869Y-15401529D01*
X19891869Y-15401533D01*
X19895656Y-15436393D01*
X19895656Y-15463606D01*
X19891500Y-15501866D01*
X19891500Y-15898134D01*
X19891869Y-15901529D01*
X19891869Y-15901533D01*
X19895656Y-15936393D01*
X19895656Y-15963606D01*
X19891500Y-16001866D01*
X19891500Y-16398134D01*
X19891869Y-16401529D01*
X19891869Y-16401533D01*
X19895656Y-16436393D01*
X19895656Y-16463606D01*
X19891500Y-16501866D01*
X19891500Y-16898134D01*
X19891869Y-16901529D01*
X19891869Y-16901533D01*
X19895656Y-16936393D01*
X19895656Y-16963607D01*
X19893635Y-16982216D01*
X19891500Y-17001866D01*
X19891500Y-17398134D01*
X19891869Y-17401529D01*
X19891869Y-17401533D01*
X19895656Y-17436393D01*
X19895656Y-17463606D01*
X19891500Y-17501866D01*
X19891500Y-17898134D01*
X19891869Y-17901529D01*
X19891869Y-17901533D01*
X19895656Y-17936393D01*
X19895656Y-17963606D01*
X19891500Y-18001866D01*
X19891500Y-18398134D01*
X19891869Y-18401529D01*
X19891869Y-18401533D01*
X19895656Y-18436393D01*
X19895656Y-18463606D01*
X19891500Y-18501866D01*
X19891500Y-18898134D01*
X19891869Y-18901529D01*
X19891869Y-18901533D01*
X19895656Y-18936393D01*
X19895656Y-18963606D01*
X19891500Y-19001866D01*
X19891500Y-19398134D01*
X19891869Y-19401529D01*
X19891869Y-19401533D01*
X19895656Y-19436393D01*
X19895656Y-19463607D01*
X19891929Y-19497921D01*
X19891500Y-19501866D01*
X19891500Y-19898134D01*
X19891869Y-19901529D01*
X19891869Y-19901533D01*
X19895656Y-19936393D01*
X19895656Y-19963606D01*
X19891500Y-20001866D01*
X19891500Y-20398134D01*
X19891869Y-20401529D01*
X19891869Y-20401533D01*
X19895656Y-20436393D01*
X19895656Y-20463606D01*
X19894949Y-20470115D01*
X19892475Y-20492894D01*
X19891500Y-20501866D01*
X19891500Y-20898134D01*
X19895433Y-20934336D01*
X19895656Y-20936393D01*
X19895656Y-20963606D01*
X19891500Y-21001866D01*
X19891500Y-21398134D01*
X19891869Y-21401529D01*
X19891869Y-21401533D01*
X19895656Y-21436393D01*
X19895656Y-21463606D01*
X19891500Y-21501866D01*
X19891500Y-21898134D01*
X19891869Y-21901529D01*
X19891869Y-21901533D01*
X19895656Y-21936393D01*
X19895656Y-21963606D01*
X19891500Y-22001866D01*
X19891500Y-22398134D01*
X19891869Y-22401529D01*
X19891869Y-22401533D01*
X19895656Y-22436393D01*
X19895656Y-22463607D01*
X19891961Y-22497625D01*
X19891500Y-22501866D01*
X19891500Y-22898134D01*
X19895909Y-22938720D01*
X19895909Y-22965933D01*
X19892369Y-22998517D01*
X19892000Y-23005328D01*
X19892000Y-23031885D01*
X19896475Y-23047124D01*
X19922170Y-23069389D01*
X19921712Y-23069918D01*
X19934100Y-23076682D01*
X19949208Y-23096840D01*
X19949386Y-23096706D01*
X19970168Y-23124436D01*
X19995015Y-23190943D01*
X19979961Y-23260325D01*
X19970168Y-23275564D01*
X19954769Y-23296111D01*
X19949386Y-23303294D01*
X19949097Y-23303078D01*
X19902935Y-23349139D01*
X19897582Y-23351353D01*
X19893672Y-23355865D01*
X19892001Y-23363548D01*
X19892001Y-23394670D01*
X19892370Y-23401488D01*
X19895909Y-23434067D01*
X19895909Y-23461280D01*
X19891500Y-23501866D01*
X19891500Y-23898134D01*
X19891869Y-23901529D01*
X19891869Y-23901533D01*
X19895656Y-23936393D01*
X19895656Y-23963606D01*
X19891500Y-24001866D01*
X19891500Y-24398134D01*
X19891869Y-24401529D01*
X19891869Y-24401533D01*
X19895656Y-24436393D01*
X19895656Y-24463606D01*
X19891500Y-24501866D01*
X19891500Y-24898134D01*
X19891869Y-24901529D01*
X19891869Y-24901533D01*
X19895656Y-24936393D01*
X19895656Y-24963606D01*
X19891500Y-25001866D01*
X19891500Y-25398134D01*
X19891869Y-25401529D01*
X19891869Y-25401533D01*
X19895656Y-25436393D01*
X19895656Y-25463606D01*
X19891500Y-25501866D01*
X19891500Y-25898134D01*
X19891869Y-25901529D01*
X19891869Y-25901533D01*
X19895656Y-25936393D01*
X19895656Y-25963607D01*
X19893067Y-25987444D01*
X19891500Y-26001866D01*
X19891500Y-26398134D01*
X19891869Y-26401529D01*
X19891869Y-26401533D01*
X19895656Y-26436393D01*
X19895656Y-26463606D01*
X19891500Y-26501866D01*
X19891500Y-26774852D01*
X19871498Y-26842973D01*
X19817842Y-26889466D01*
X19747568Y-26899570D01*
X19714252Y-26889959D01*
X19588323Y-26833892D01*
X19588315Y-26833889D01*
X19582288Y-26831206D01*
X19488888Y-26811353D01*
X19401944Y-26792872D01*
X19401939Y-26792872D01*
X19395487Y-26791500D01*
X19204513Y-26791500D01*
X19198061Y-26792872D01*
X19198056Y-26792872D01*
X19111112Y-26811353D01*
X19017712Y-26831206D01*
X19011682Y-26833891D01*
X19011681Y-26833891D01*
X18849278Y-26906197D01*
X18849276Y-26906198D01*
X18843248Y-26908882D01*
X18688747Y-27021134D01*
X18684326Y-27026044D01*
X18684325Y-27026045D01*
X18645800Y-27068832D01*
X18560960Y-27163056D01*
X18465473Y-27328444D01*
X18406458Y-27510072D01*
X18386496Y-27700000D01*
X18387186Y-27706565D01*
X18402849Y-27855588D01*
X18406458Y-27889928D01*
X18408498Y-27896207D01*
X18408499Y-27896211D01*
X18420788Y-27934030D01*
X18432301Y-27969462D01*
X18437126Y-27984312D01*
X18439154Y-28055280D01*
X18410929Y-28107560D01*
X18360960Y-28163056D01*
X18357657Y-28168777D01*
X18327369Y-28221238D01*
X18265473Y-28328444D01*
X18206458Y-28510072D01*
X18205768Y-28516633D01*
X18205768Y-28516635D01*
X18203461Y-28538587D01*
X18186496Y-28700000D01*
X18206458Y-28889928D01*
X18265473Y-29071556D01*
X18360960Y-29236944D01*
X18365378Y-29241851D01*
X18365379Y-29241852D01*
X18476883Y-29365690D01*
X18507601Y-29429697D01*
X18498836Y-29500151D01*
X18476883Y-29534310D01*
X18360960Y-29663056D01*
X18315898Y-29741105D01*
X18278032Y-29806692D01*
X18265473Y-29828444D01*
X18206458Y-30010072D01*
X18205768Y-30016633D01*
X18205768Y-30016635D01*
X18204779Y-30026045D01*
X18186496Y-30200000D01*
X18187186Y-30206565D01*
X18205190Y-30377859D01*
X18206458Y-30389928D01*
X18210411Y-30402092D01*
X18218362Y-30426563D01*
X18220390Y-30497531D01*
X18183728Y-30558329D01*
X18120016Y-30589654D01*
X18098529Y-30591500D01*
X17848136Y-30591500D01*
X17831693Y-30590422D01*
X17800000Y-30586250D01*
X17791811Y-30587328D01*
X17760126Y-30591499D01*
X17760117Y-30591500D01*
X17760115Y-30591500D01*
X17760109Y-30591501D01*
X17760107Y-30591501D01*
X17660543Y-30604609D01*
X17649336Y-30606084D01*
X17649334Y-30606085D01*
X17641149Y-30607162D01*
X17493124Y-30668476D01*
X17443486Y-30706565D01*
X17431891Y-30715462D01*
X17365671Y-30741063D01*
X17355187Y-30741500D01*
X17254513Y-30741500D01*
X17248061Y-30742872D01*
X17248056Y-30742872D01*
X17161112Y-30761353D01*
X17067712Y-30781206D01*
X17061682Y-30783891D01*
X17061681Y-30783891D01*
X16899278Y-30856197D01*
X16899276Y-30856198D01*
X16893248Y-30858882D01*
X16738747Y-30971134D01*
X16610960Y-31113056D01*
X16515473Y-31278444D01*
X16456458Y-31460072D01*
X16436496Y-31650000D01*
X14558500Y-31650000D01*
X14558500Y-13248134D01*
X16191500Y-13248134D01*
X16198255Y-13310316D01*
X16249385Y-13446705D01*
X16336739Y-13563261D01*
X16453295Y-13650615D01*
X16589684Y-13701745D01*
X16651866Y-13708500D01*
X18948134Y-13708500D01*
X19010316Y-13701745D01*
X19146705Y-13650615D01*
X19263261Y-13563261D01*
X19350615Y-13446705D01*
X19401745Y-13310316D01*
X19408500Y-13248134D01*
X19408500Y-11351866D01*
X19401745Y-11289684D01*
X19350615Y-11153295D01*
X19263261Y-11036739D01*
X19146705Y-10949385D01*
X19010316Y-10898255D01*
X18948134Y-10891500D01*
X16651866Y-10891500D01*
X16589684Y-10898255D01*
X16453295Y-10949385D01*
X16336739Y-11036739D01*
X16249385Y-11153295D01*
X16198255Y-11289684D01*
X16191500Y-11351866D01*
X16191500Y-13248134D01*
X14558500Y-13248134D01*
X14558500Y-9634500D01*
X14578502Y-9566379D01*
X14632158Y-9519886D01*
X14684500Y-9508500D01*
X53415500Y-9508500D01*
X53483621Y-9528502D01*
G37*
%TD.AperFunction*%
%TA.AperFunction,Conductor*%
G36*
X23010150Y-29828502D02*
G01*
X23056643Y-29882158D01*
X23067339Y-29921330D01*
X23070597Y-29952330D01*
X23057824Y-30022169D01*
X23009322Y-30074015D01*
X22945287Y-30091500D01*
X22331291Y-30091500D01*
X22263170Y-30071498D01*
X22216677Y-30017842D01*
X22206029Y-29979113D01*
X22204092Y-29961289D01*
X22204092Y-29934062D01*
X22205524Y-29920886D01*
X22232769Y-29855325D01*
X22291134Y-29814902D01*
X22330786Y-29808500D01*
X22942029Y-29808500D01*
X23010150Y-29828502D01*
G37*
%TD.AperFunction*%
%TA.AperFunction,Conductor*%
G36*
X22703832Y-27828502D02*
G01*
X22724806Y-27845405D01*
X23016365Y-28136964D01*
X23041705Y-28183370D01*
X23043416Y-28185344D01*
X23044118Y-28187788D01*
X23050391Y-28199276D01*
X23052192Y-28209609D01*
X23053723Y-28221238D01*
X23057162Y-28247364D01*
X23060321Y-28254990D01*
X23060321Y-28254991D01*
X23107495Y-28368878D01*
X23118476Y-28395389D01*
X23123502Y-28401939D01*
X23123826Y-28402500D01*
X23140564Y-28471495D01*
X23117344Y-28538587D01*
X23061537Y-28582474D01*
X23014707Y-28591500D01*
X22331291Y-28591500D01*
X22263170Y-28571498D01*
X22216677Y-28517842D01*
X22206029Y-28479113D01*
X22204092Y-28461289D01*
X22204091Y-28434067D01*
X22207631Y-28401483D01*
X22208000Y-28394672D01*
X22208000Y-28368115D01*
X22203525Y-28352876D01*
X22177830Y-28330611D01*
X22178288Y-28330082D01*
X22165900Y-28323318D01*
X22150792Y-28303160D01*
X22150614Y-28303294D01*
X22129832Y-28275564D01*
X22104985Y-28209057D01*
X22120039Y-28139675D01*
X22129832Y-28124436D01*
X22145231Y-28103889D01*
X22150614Y-28096706D01*
X22150903Y-28096922D01*
X22197065Y-28050861D01*
X22202418Y-28048647D01*
X22206328Y-28044135D01*
X22207999Y-28036452D01*
X22207999Y-28005330D01*
X22207630Y-27998509D01*
X22204091Y-27965930D01*
X22204091Y-27938720D01*
X22206028Y-27920887D01*
X22233273Y-27855327D01*
X22291637Y-27814903D01*
X22331291Y-27808500D01*
X22635711Y-27808500D01*
X22703832Y-27828502D01*
G37*
%TD.AperFunction*%
%TA.AperFunction,Conductor*%
G36*
X33507167Y-22746813D02*
G01*
X33540803Y-22750467D01*
X33540807Y-22750467D01*
X33544202Y-22750836D01*
X33840470Y-22750836D01*
X33843865Y-22750467D01*
X33843869Y-22750467D01*
X33877505Y-22746813D01*
X33878730Y-22746680D01*
X33905942Y-22746680D01*
X33907167Y-22746813D01*
X33940803Y-22750467D01*
X33940807Y-22750467D01*
X33944202Y-22750836D01*
X34240470Y-22750836D01*
X34243865Y-22750467D01*
X34243869Y-22750467D01*
X34277505Y-22746813D01*
X34278730Y-22746680D01*
X34305942Y-22746680D01*
X34307167Y-22746813D01*
X34340803Y-22750467D01*
X34340807Y-22750467D01*
X34344202Y-22750836D01*
X34640470Y-22750836D01*
X34643865Y-22750467D01*
X34643869Y-22750467D01*
X34677505Y-22746813D01*
X34678730Y-22746680D01*
X34705942Y-22746680D01*
X34707167Y-22746813D01*
X34740803Y-22750467D01*
X34740807Y-22750467D01*
X34744202Y-22750836D01*
X35040470Y-22750836D01*
X35043865Y-22750467D01*
X35043869Y-22750467D01*
X35077505Y-22746813D01*
X35078730Y-22746680D01*
X35105942Y-22746680D01*
X35107167Y-22746813D01*
X35140803Y-22750467D01*
X35140807Y-22750467D01*
X35144202Y-22750836D01*
X35440470Y-22750836D01*
X35443865Y-22750467D01*
X35443869Y-22750467D01*
X35477505Y-22746813D01*
X35478730Y-22746680D01*
X35505942Y-22746680D01*
X35507167Y-22746813D01*
X35540803Y-22750467D01*
X35540807Y-22750467D01*
X35544202Y-22750836D01*
X35632497Y-22750836D01*
X35700618Y-22770838D01*
X35747111Y-22824494D01*
X35757807Y-22863665D01*
X35758067Y-22866138D01*
X35768282Y-22963327D01*
X35774964Y-23026907D01*
X35833979Y-23208535D01*
X35850129Y-23236507D01*
X35854938Y-23244837D01*
X35871675Y-23313832D01*
X35848454Y-23380924D01*
X35792647Y-23424811D01*
X35745818Y-23433836D01*
X35544202Y-23433836D01*
X35540807Y-23434205D01*
X35540803Y-23434205D01*
X35514805Y-23437029D01*
X35505942Y-23437992D01*
X35478730Y-23437992D01*
X35469867Y-23437029D01*
X35443869Y-23434205D01*
X35443865Y-23434205D01*
X35440470Y-23433836D01*
X35144202Y-23433836D01*
X35140807Y-23434205D01*
X35140803Y-23434205D01*
X35114805Y-23437029D01*
X35105942Y-23437992D01*
X35078730Y-23437992D01*
X35069867Y-23437029D01*
X35043869Y-23434205D01*
X35043865Y-23434205D01*
X35040470Y-23433836D01*
X34744202Y-23433836D01*
X34740807Y-23434205D01*
X34740803Y-23434205D01*
X34714805Y-23437029D01*
X34705942Y-23437992D01*
X34678730Y-23437992D01*
X34669867Y-23437029D01*
X34643869Y-23434205D01*
X34643865Y-23434205D01*
X34640470Y-23433836D01*
X34344202Y-23433836D01*
X34340807Y-23434205D01*
X34340803Y-23434205D01*
X34314805Y-23437029D01*
X34305942Y-23437992D01*
X34278730Y-23437992D01*
X34269867Y-23437029D01*
X34243869Y-23434205D01*
X34243865Y-23434205D01*
X34240470Y-23433836D01*
X33944202Y-23433836D01*
X33940807Y-23434205D01*
X33940803Y-23434205D01*
X33914805Y-23437029D01*
X33905942Y-23437992D01*
X33878730Y-23437992D01*
X33869867Y-23437029D01*
X33843869Y-23434205D01*
X33843865Y-23434205D01*
X33840470Y-23433836D01*
X33544202Y-23433836D01*
X33503616Y-23438245D01*
X33476403Y-23438245D01*
X33443819Y-23434705D01*
X33437009Y-23434336D01*
X33147666Y-23434337D01*
X33140848Y-23434706D01*
X33108269Y-23438245D01*
X33081056Y-23438245D01*
X33040470Y-23433836D01*
X33030903Y-23433836D01*
X32962782Y-23413834D01*
X32916289Y-23360178D01*
X32906185Y-23289904D01*
X32935679Y-23225324D01*
X32941808Y-23218741D01*
X33288570Y-22871979D01*
X33300961Y-22861112D01*
X33319770Y-22846679D01*
X33326323Y-22841651D01*
X33350812Y-22809737D01*
X33350814Y-22809735D01*
X33359171Y-22798843D01*
X33416511Y-22756977D01*
X33445524Y-22750287D01*
X33478730Y-22746680D01*
X33505942Y-22746680D01*
X33507167Y-22746813D01*
G37*
%TD.AperFunction*%
%TD*%
M02*
